<?xml version="1.0" encoding="UTF-8" standalone="no"?>
<!DOCTYPE svg PUBLIC "-//W3C//DTD SVG 1.1//EN" "http://www.w3.org/Graphics/SVG/1.1/DTD/svg11.dtd">
<svg width="100%" height="100%" viewBox="0 0 200 200" version="1.1" xmlns="http://www.w3.org/2000/svg" xmlns:xlink="http://www.w3.org/1999/xlink" xml:space="preserve" style="fill-rule:evenodd;clip-rule:evenodd;stroke-linejoin:round;stroke-miterlimit:1.41421;">
    <path d="M116.329,198.671C111.015,199.545 105.56,200 100,200C95.241,200 90.56,199.667 85.977,199.023L199.023,85.977C199.667,90.56 200,95.241 200,100C200,105.56 199.545,111.015 198.671,116.329L116.329,198.671ZM77.538,197.462C69.797,195.683 62.399,193.004 55.458,189.542L189.542,55.458C193.004,62.399 195.683,69.797 197.462,77.538L77.538,197.462ZM195.601,129.399C185.893,160.965 160.965,185.893 129.399,195.601L195.601,129.399ZM48.989,186.011C42.816,182.339 37.071,178.022 31.847,173.153L173.153,31.847C178.022,37.071 182.339,42.816 186.011,48.989L48.989,186.011ZM26.847,168.153C21.978,162.929 17.661,157.184 13.989,151.011L151.011,13.989C157.184,17.661 162.929,21.978 168.153,26.847L26.847,168.153ZM10.458,144.542C6.996,137.601 4.317,130.203 2.538,122.462L122.462,2.538C130.203,4.317 137.601,6.996 144.542,10.458L10.458,144.542ZM0.977,114.023C0.333,109.44 0,104.759 0,100C0,94.44 0.455,88.985 1.329,83.671L83.671,1.329C88.985,0.455 94.44,0 100,0C104.759,0 109.44,0.333 114.023,0.977L0.977,114.023ZM70.601,4.399L4.399,70.601C14.107,39.035 39.035,14.107 70.601,4.399Z" style="fill:currentColor;"/>
</svg>
