<?xml version="1.0" encoding="UTF-8" standalone="no"?><!DOCTYPE svg PUBLIC "-//W3C//DTD SVG 1.1//EN" "http://www.w3.org/Graphics/SVG/1.1/DTD/svg11.dtd"><svg width="100%" height="100%" viewBox="0 0 300 301" version="1.1" xmlns="http://www.w3.org/2000/svg" xmlns:xlink="http://www.w3.org/1999/xlink" xml:space="preserve" style="fill-rule:evenodd;clip-rule:evenodd;stroke-linejoin:round;stroke-miterlimit:1.41421;"><g id="_64"><g><rect x="0.149" y="0.37" width="299.361" height="299.7" style="fill:#9270b1;fill-rule:nonzero;"/><path d="M149.55,235.29l0,-81.51c6.24,0.35 11.7,5.37 22.86,8.33c26.6,7.04 37.63,-11.44 35.4,-20.98c-3.43,-14.69 1.34,-23.14 3.17,-22.74c0,0 0.07,3.73 1.72,7.05c4.91,9.9 9.03,3.02 9.79,16.44c0.89,15.72 3.76,21.46 2.84,29.86c-0.52,4.75 -2.3,10.4 -3.71,14.35c17.86,0.28 19.92,15.19 19.92,15.19c-0.22,-0.55 -0.67,-1.08 -1.27,-1.59c0.84,0.96 1.27,1.59 1.27,1.59c-1.37,-0.85 -2.68,-1.57 -3.96,-2.23c-23.95,-12.24 -30.63,9.27 -30.63,9.27c2.5,20.28 28.22,20 28.22,20c0,0 -21.86,10.14 -30.29,-9.74c-1.12,10.7 4.93,21.09 4.93,21.09c-9.75,-1.99 -13.85,-9.57 -15.57,-16.04c-6.03,11.11 0.21,19.37 0.21,19.37l-33.46,-12.77c4.34,3.31 11.13,9.44 11.13,9.44c0,0 -8.75,-0.87 -22.57,-4.38Z" style="fill:#4c2a2e;fill-rule:nonzero;"/><path d="M154.99,235.29l0,-81.51c-6.25,0.35 -11.7,5.37 -22.87,8.33c-26.59,7.04 -37.63,-11.44 -35.39,-20.98c3.43,-14.69 -1.35,-23.14 -3.17,-22.74c0,0 -0.08,3.73 -1.72,7.05c-4.92,9.9 -9.03,3.02 -9.8,16.44c-0.88,15.72 -3.75,21.46 -2.83,29.86c0.52,4.75 2.3,10.4 3.7,14.35c-17.86,0.28 -19.92,15.19 -19.92,15.19c0.23,-0.55 0.67,-1.08 1.28,-1.59c-0.84,0.96 -1.28,1.59 -1.28,1.59c1.38,-0.85 2.69,-1.57 3.96,-2.23c23.96,-12.24 30.63,9.27 30.63,9.27c-2.5,20.28 -28.21,20 -28.21,20c0,0 21.86,10.14 30.28,-9.74c1.13,10.7 -4.92,21.09 -4.92,21.09c9.75,-1.99 13.85,-9.57 15.57,-16.04c6.03,11.11 -0.22,19.37 -0.22,19.37l33.47,-12.77c-4.35,3.31 -11.13,9.44 -11.13,9.44c0,0 8.75,-0.87 22.57,-4.38Z" style="fill:#4c2a2e;fill-rule:nonzero;"/></g><path d="M154.07,187.62l0,112.6l-60.71,0c-1.01,-0.39 -1.46,-0.59 -1.46,-0.59c0,-5.37 0.29,-10.31 0.82,-14.84c0.54,-4.4 1.28,-8.43 2.2,-12.1c0.68,-2.63 1.44,-5.1 2.27,-7.38c4.34,-11.89 10.73,-19.22 16.68,-23.7c4.59,-3.46 8.87,-5.23 11.73,-6.11c2.1,-0.66 3.43,-0.83 3.43,-0.83l0.07,0c0.22,0 0.39,-0.02 0.59,-0.06l0.02,0c1.92,-0.31 3.46,-1.97 4.71,-4.63c0.93,-1.97 1.71,-4.48 2.33,-7.4c0.25,-1.14 0.43,-2.29 0.66,-3.52c0.29,-2.1 0.55,-4.26 0.8,-6.55c0.12,-1.39 0.25,-2.73 0.41,-4.17c0.54,-6.89 0.7,-14.43 0.7,-21.56c0,0 8.15,0.84 14.75,0.84Z" style="fill:#e0bd9a;fill-rule:nonzero;"/><path d="M216.54,299.63c0,0 -0.54,0.2 -1.44,0.59l-61.03,0l0,-112.6l0.17,0c6.58,0 14.83,-0.84 14.83,-0.84c0,7.07 0.12,14.52 0.68,21.41c0.17,1.34 0.31,2.72 0.39,4.08c0.25,2.36 0.56,4.61 0.89,6.68l0,0.04c0.1,0.95 0.3,1.8 0.47,2.68c0.58,2.94 1.3,5.51 2.2,7.59c1.07,2.55 2.41,4.36 4.01,5.06c0.21,0.09 0.41,0.17 0.64,0.23c0.31,0.08 0.66,0.12 1.01,0.12c0,0 0.33,0.04 0.9,0.17l0.02,0c0.99,0.2 2.7,0.63 4.88,1.5c2.55,0.99 5.68,2.55 8.97,4.98c6.05,4.44 12.65,11.83 17.12,23.99c0.84,2.28 1.58,4.75 2.26,7.38c0.91,3.6 1.65,7.58 2.18,11.9c0.54,4.58 0.85,9.58 0.85,15.04Z" style="fill:#efd0ad;fill-rule:nonzero;"/><clipPath id="_clip1"><rect x="137.39" y="208.06" width="33.65" height="19.9"/></clipPath><g clip-path="url(#_clip1)"><path d="M171.04,218.75l0,0.05c-1.53,2.37 -6.67,9.17 -16.85,9.17l-0.1,0c-9.64,-0.05 -15.27,-7.05 -16.7,-9.12c0.29,-2.07 0.59,-4.24 0.84,-6.5c0.1,-1.33 0.24,-2.71 0.39,-4.14c4.7,1.18 9.84,1.92 15.27,2.02l0.2,0c5.63,-0.1 10.82,-0.89 15.66,-2.17c0.15,1.33 0.3,2.71 0.4,4.04c0.25,2.37 0.54,4.58 0.89,6.65Z" style="fill:#be987f;fill-rule:nonzero;"/></g><path d="M153.4,59.28c-64.34,0 -64.69,53.94 -61.82,89.27c-4.4,-8.38 -17.49,-5.82 -16.4,7.39c1.03,12.71 19.74,19.19 19.22,17.78c9.74,26.13 35.53,45.82 59,45.82l0.49,0l0,-160.26l-0.49,0Z" style="fill:#d2a686;fill-rule:nonzero;"/><path d="M79.28,150.37c3.16,-5.12 8.1,-2.91 9.29,-1.77c1.28,1.23 2.32,2.8 1.53,5.81c-0.45,1.72 -2.23,1.87 -1.83,4.43c0.49,2.91 1.83,3.06 2.62,3.75c0.74,0.64 1.68,1.13 2.12,2.36c0.5,1.23 0.55,2.52 0.3,3.65c-0.49,2.07 -3.51,0.39 -5.53,-0.49c-1.34,-0.64 -5.59,-4.24 -6.67,-5.42c-2.67,-3.06 -3.96,-8.97 -1.83,-12.32Z" style="fill:#ac8774;fill-rule:nonzero;"/><path d="M153.74,59.28c64.34,0 64.68,53.94 61.87,89.27c4.4,-8.38 17.44,-5.82 16.35,7.39c-0.98,12.71 -19.73,19.19 -19.22,17.78c-9.49,26.13 -35.53,45.82 -59,45.82c-0.15,0 -0.34,0 -0.34,0l-0.15,-160.26c0,0 0.34,0 0.49,0Z" style="fill:#ddb598;fill-rule:nonzero;"/><path d="M227.86,150.37c-3.16,-5.12 -8.05,-2.91 -9.29,-1.77c-1.28,1.23 -2.27,2.8 -1.53,5.81c0.45,1.72 2.22,1.87 1.83,4.43c-0.49,2.91 -1.83,3.06 -2.57,3.75c-0.74,0.64 -1.73,1.13 -2.17,2.36c-0.45,1.23 -0.55,2.52 -0.3,3.65c0.49,2.07 3.51,0.39 5.53,-0.49c1.39,-0.64 5.59,-4.24 6.67,-5.42c2.72,-3.06 3.96,-8.97 1.83,-12.32Z" style="fill:#ac8774;fill-rule:nonzero;"/><path d="M152.89,74.5c-21.15,0 -36.66,6.16 -46,18.28c-13.1,16.99 -12.6,42.91 -7.81,61.53c1.48,5.72 2.27,21.04 3.26,26.65c4.6,25.18 32.32,38.58 50.55,38.58c0,0 0.35,0 0.49,0l0,-145.04c-0.14,0 -0.29,0 -0.29,0" style="fill:#e0bd9a;fill-rule:nonzero;"/><path d="M198.85,92.83c-9.29,-12.07 -24.61,-18.23 -45.47,-18.33l0,145.04c20.86,-0.25 45.81,-14.93 50.06,-38.58c1.04,-5.61 1.78,-20.93 3.26,-26.65c4.84,-18.57 5.34,-44.44 -7.85,-61.48Z" style="fill:#efd0ad;fill-rule:nonzero;"/><path d="M153.58,191.09" style="fill:#bc917b;fill-rule:nonzero;"/><path d="M153.58,191.09" style="fill:#bc917b;fill-rule:nonzero;"/><path d="M150.01,193.83c-0.1,-0.02 -0.2,-0.04 -0.3,-0.07c0.1,0.03 0.18,0.05 0.3,0.07Z" style="fill:#bc917b;fill-rule:nonzero;"/><path d="M153.58,193.64" style="fill:#bc917b;fill-rule:nonzero;"/><path d="M149.23,193.65c-0.1,-0.02 -0.18,-0.05 -0.27,-0.07l-0.01,0c0,0 0.1,0.03 0.28,0.07Z" style="fill:#bc917b;fill-rule:nonzero;"/><path d="M153.58,193.64" style="fill:#bc917b;fill-rule:nonzero;"/><path d="M141.11,176.04c-0.25,-5.01 9.18,-1.83 12.28,-1.67c2.46,0.12 9.93,-1.58 10.57,-1.14c4.39,2.97 -4.66,8.95 -10.72,8.95c-1.62,0 -11.98,-3.11 -12.13,-6.14Z" style="fill:#ddb598;fill-rule:nonzero;"/><path d="M135.42,74.86l-0.26,0.27l0.04,0.09c0.09,-0.13 0.13,-0.27 0.22,-0.36Z" style="fill:#432e1b;fill-rule:nonzero;"/><path d="M94.46,125.97" style="fill:#432e1b;fill-rule:nonzero;"/><path d="M153.85,193.66" style="fill:#ba907b;fill-rule:nonzero;"/><path d="M153.85,193.66" style="fill:#ba907b;fill-rule:nonzero;"/><path d="M150.19,190.89c-0.11,-0.03 -0.21,-0.05 -0.32,-0.07c0.11,0.02 0.2,0.04 0.32,0.07Z" style="fill:#ba907b;fill-rule:nonzero;"/><path d="M153.85,190.69" style="fill:#ba907b;fill-rule:nonzero;"/><path d="M149.38,190.71c-0.1,-0.03 -0.18,-0.06 -0.28,-0.08l-0.01,0c0,0 0.11,0.03 0.29,0.08Z" style="fill:#ba907b;fill-rule:nonzero;"/><path d="M153.85,190.69" style="fill:#ba907b;fill-rule:nonzero;"/><path d="M107.23,131.11c0,0 4.91,20.2 13.34,21.85c8.42,1.64 17.54,-1.63 17.54,-1.63c0,0 0.87,-23.74 -3.44,-26.84c-4.31,-3.12 -14.25,-7.62 -27.44,6.62Z" style="fill:#fff;fill-rule:nonzero;"/><path d="M138.12,151.27c0,0 -0.19,0.05 -0.62,0.23c-0.11,-7.28 -0.78,-17.28 -3.48,-19.19c-4,-2.95 -13.05,-7.09 -25.13,4.24c-1.1,-3.13 -1.65,-5.5 -1.65,-5.5c13.21,-14.27 23.16,-9.77 27.44,-6.66c4.32,3.12 3.44,26.88 3.44,26.88Z" style="fill:#d6b496;fill-rule:nonzero;"/><path d="M133.14,140.98c0,4.6 -3.72,8.32 -8.3,8.32c-4.58,0 -8.29,-3.72 -8.29,-8.32c0,-4.59 3.71,-8.32 8.29,-8.32c4.58,0 8.3,3.73 8.3,8.32Z" style="fill:#482315;fill-rule:nonzero;"/><path d="M124.46,146.52c-2.4,-0.2 -4.24,-2.62 -4.02,-5.29c0.21,-2.66 2.42,-4.75 4.82,-4.55c2.39,0.2 4.23,2.62 4.02,5.29c-0.22,2.66 -2.43,4.75 -4.82,4.55Z" style="fill:#7e3a22;fill-rule:nonzero;"/><path d="M124.66,145.56c-1.66,-0.14 -3.39,-1.98 -3.21,-4.24c0.19,-2.26 2.19,-3.79 3.86,-3.66c1.66,0.15 3.39,1.99 3.21,4.25c-0.19,2.26 -2.19,3.79 -3.86,3.65Z" style="fill:#211a10;fill-rule:nonzero;"/><path d="M123.31,139.98c-0.07,0.82 -0.9,1.42 -1.86,1.34c-0.96,-0.08 -1.68,-0.81 -1.62,-1.62c0.07,-0.83 0.9,-1.42 1.86,-1.34c0.96,0.07 1.69,0.8 1.62,1.62Z" style="fill:#fff;fill-rule:nonzero;"/><path d="M128.69,144.71c-0.04,0.41 -0.45,0.71 -0.93,0.67c-0.48,-0.04 -0.84,-0.41 -0.81,-0.82c0.03,-0.4 0.45,-0.7 0.93,-0.66c0.48,0.03 0.84,0.4 0.81,0.81Z" style="fill:#fff;fill-rule:nonzero;"/><path d="M153.98,190.61" style="fill:#ba907b;fill-rule:nonzero;"/><path d="M153.98,190.61" style="fill:#ba907b;fill-rule:nonzero;"/><path d="M150.32,193.27c-0.11,-0.02 -0.21,-0.04 -0.31,-0.07c0.1,0.03 0.19,0.04 0.31,0.07Z" style="fill:#ba907b;fill-rule:nonzero;"/><path d="M153.98,193.07" style="fill:#ba907b;fill-rule:nonzero;"/><path d="M149.51,193.09c-0.09,-0.03 -0.18,-0.05 -0.28,-0.08l-0.01,0.01c0,0 0.11,0.02 0.29,0.07Z" style="fill:#ba907b;fill-rule:nonzero;"/><path d="M153.98,193.07" style="fill:#ba907b;fill-rule:nonzero;"/><path d="M153.87,190.23" style="fill:#bc917b;fill-rule:nonzero;"/><path d="M153.87,190.23" style="fill:#bc917b;fill-rule:nonzero;"/><path d="M149.94,192.7c-0.11,-0.02 -0.22,-0.05 -0.33,-0.07c0.11,0.02 0.2,0.04 0.33,0.07Z" style="fill:#bc917b;fill-rule:nonzero;"/><path d="M153.87,192.49" style="fill:#bc917b;fill-rule:nonzero;"/><path d="M149.08,192.51c-0.11,-0.03 -0.2,-0.06 -0.3,-0.09l-0.01,0.01c0,0 0.11,0.03 0.31,0.08Z" style="fill:#bc917b;fill-rule:nonzero;"/><path d="M153.87,192.49" style="fill:#bc917b;fill-rule:nonzero;"/><path d="M153.62,189.39" style="fill:#bc917b;fill-rule:nonzero;"/><path d="M153.62,189.39" style="fill:#bc917b;fill-rule:nonzero;"/><path d="M149.69,191.85c-0.11,-0.02 -0.22,-0.04 -0.33,-0.07c0.11,0.03 0.2,0.05 0.33,0.07Z" style="fill:#bc917b;fill-rule:nonzero;"/><path d="M153.62,191.64" style="fill:#bc917b;fill-rule:nonzero;"/><path d="M148.83,191.66c-0.1,-0.03 -0.2,-0.05 -0.3,-0.08l-0.01,0c0,0 0.12,0.03 0.31,0.08Z" style="fill:#bc917b;fill-rule:nonzero;"/><path d="M153.62,191.64" style="fill:#bc917b;fill-rule:nonzero;"/><path d="M154.26,189.17" style="fill:#bc917b;fill-rule:nonzero;"/><path d="M154.26,189.17" style="fill:#bc917b;fill-rule:nonzero;"/><path d="M150.46,191.74c-0.11,-0.02 -0.21,-0.05 -0.32,-0.07c0.11,0.02 0.2,0.04 0.32,0.07Z" style="fill:#bc917b;fill-rule:nonzero;"/><path d="M154.26,191.53" style="fill:#bc917b;fill-rule:nonzero;"/><path d="M149.63,191.55c-0.1,-0.02 -0.19,-0.05 -0.29,-0.08l-0.01,0.01c0,0 0.11,0.03 0.3,0.07Z" style="fill:#bc917b;fill-rule:nonzero;"/><path d="M154.26,191.53" style="fill:#bc917b;fill-rule:nonzero;"/><path d="M200.04,130.42c0,0 -4.91,20.2 -13.33,21.85c-8.43,1.65 -17.55,-1.63 -17.55,-1.63c0,0 -0.87,-23.74 3.44,-26.84c4.32,-3.11 14.25,-7.62 27.44,6.62Z" style="fill:#fff;fill-rule:nonzero;"/><path d="M169.15,150.58c0,0 0.19,0.05 0.63,0.24c0.1,-7.28 0.77,-17.29 3.47,-19.2c4.01,-2.94 13.05,-7.08 25.14,4.24c1.1,-3.13 1.65,-5.5 1.65,-5.5c-13.22,-14.26 -23.16,-9.77 -27.44,-6.65c-4.32,3.11 -3.45,26.87 -3.45,26.87Z" style="fill:#d6b496;fill-rule:nonzero;"/><path d="M174.14,140.29c0,4.6 3.71,8.32 8.29,8.32c4.58,0 8.3,-3.72 8.3,-8.32c0,-4.59 -3.72,-8.32 -8.3,-8.32c-4.58,0 -8.29,3.73 -8.29,8.32Z" style="fill:#482315;fill-rule:nonzero;"/><path d="M182.82,145.83c2.39,-0.19 4.23,-2.62 4.01,-5.28c-0.21,-2.67 -2.42,-4.76 -4.82,-4.55c-2.39,0.19 -4.23,2.62 -4.01,5.28c0.21,2.67 2.42,4.75 4.82,4.55Z" style="fill:#7e3a22;fill-rule:nonzero;"/><path d="M182.61,144.87c1.67,-0.14 3.4,-1.97 3.21,-4.23c-0.18,-2.27 -2.18,-3.8 -3.85,-3.66c-1.67,0.14 -3.4,1.98 -3.21,4.24c0.18,2.26 2.19,3.79 3.85,3.65Z" style="fill:#211a10;fill-rule:nonzero;"/><path d="M183.96,139.3c0.07,0.81 0.91,1.41 1.86,1.33c0.96,-0.08 1.69,-0.81 1.62,-1.62c-0.07,-0.82 -0.9,-1.42 -1.86,-1.34c-0.96,0.08 -1.68,0.81 -1.62,1.63Z" style="fill:#fff;fill-rule:nonzero;"/><path d="M178.58,144.02c0.04,0.41 0.46,0.71 0.93,0.67c0.49,-0.04 0.84,-0.41 0.81,-0.81c-0.03,-0.41 -0.45,-0.71 -0.92,-0.67c-0.49,0.04 -0.85,0.4 -0.82,0.81Z" style="fill:#fff;fill-rule:nonzero;"/><path d="M143.17,130.79c-0.06,-0.1 -1.59,-2.43 -4.71,-4.84c-1.96,-1.5 -3.88,-2.65 -5.87,-3.51c-2.42,-1.02 -5.03,-1.74 -7.56,-2.08c-2.28,-0.26 -4.81,-0.19 -7.76,0.21c-2.26,0.43 -4.46,1.1 -6.32,1.93c-1.33,0.46 -2.39,1.1 -3.23,1.62c-0.32,0.2 -0.62,0.38 -0.91,0.54l-4.03,2.54l4.64,-1.09c0.22,-0.06 0.45,-0.12 0.7,-0.19c0.96,-0.25 2.16,-0.57 3.56,-0.78c0.32,-0.04 0.66,-0.11 1,-0.18c0.58,-0.11 1.18,-0.24 1.82,-0.27c0.7,-0.04 1.43,-0.1 2.18,-0.15l0.97,-0.07c2.57,-0.03 4.74,0.16 6.67,0.61c2.1,0.36 4.27,1.05 6.26,1.97c1.87,0.9 3.67,1.79 5.07,2.82c2.84,1.9 4.41,3.48 4.43,3.5c0.39,0.39 0.91,0.59 1.43,0.59c0.38,0 0.76,-0.1 1.1,-0.32c0.93,-0.62 1.19,-1.88 0.6,-2.79l-0.04,-0.06Z" style="fill:#030405;fill-rule:nonzero;"/><path d="M200.87,124.64c-0.27,-0.14 -0.56,-0.32 -0.88,-0.52c-0.85,-0.52 -1.9,-1.16 -3.19,-1.61c-1.9,-0.84 -4.1,-1.51 -6.39,-1.95c-2.92,-0.39 -5.45,-0.46 -7.75,-0.2c-2.51,0.34 -5.12,1.06 -7.54,2.09c-1.96,0.84 -3.94,2.02 -5.87,3.5c-3.07,2.36 -4.59,4.65 -4.71,4.83l-0.03,0.04c-0.51,0.8 -0.4,1.87 0.27,2.55c0.38,0.38 0.89,0.6 1.42,0.6l0.01,0c0.53,0 1.04,-0.22 1.42,-0.6l0.02,-0.02c0.15,-0.15 1.68,-1.65 4.43,-3.49c1.38,-1.02 3.18,-1.91 5.05,-2.81c1.99,-0.92 4.15,-1.61 6.29,-1.98c1.9,-0.44 4.07,-0.63 6.61,-0.6l1.02,0.07c0.74,0.06 1.47,0.11 2.17,0.15c0.62,0.03 1.23,0.16 1.81,0.27c0.34,0.07 0.67,0.14 1,0.18c1.4,0.21 2.6,0.53 3.56,0.78c0.25,0.07 0.48,0.13 0.71,0.19l4.63,1.09l-4.06,-2.56Z" style="fill:#030405;fill-rule:nonzero;"/><path d="M152.69,198.56" style="fill:#be927b;fill-rule:nonzero;"/><path d="M152.69,198.56" style="fill:#be927b;fill-rule:nonzero;"/><path d="M148.86,195.66c-0.11,-0.02 -0.22,-0.04 -0.32,-0.07c0.1,0.03 0.2,0.04 0.32,0.07Z" style="fill:#be927b;fill-rule:nonzero;"/><path d="M152.69,195.45" style="fill:#be927b;fill-rule:nonzero;"/><path d="M148.02,195.47c-0.1,-0.02 -0.19,-0.05 -0.29,-0.08l-0.01,0.01c0,0 0.11,0.03 0.3,0.07Z" style="fill:#be927b;fill-rule:nonzero;"/><path d="M152.69,195.45" style="fill:#be927b;fill-rule:nonzero;"/><path d="M141.5,199.83c-0.25,-3.25 9.01,0.68 12.05,0.77c2.43,0.08 9.72,-0.48 10.39,-0.74c5.09,-1.91 -0.28,5.43 -10.54,5.82c-4.7,0.19 -11.76,-3.88 -11.9,-5.85Z" style="fill:#f0d2ad;fill-rule:nonzero;"/><path d="M171.64,193.57c-2.51,-0.13 -5.09,1.97 -8.12,1.65c-0.12,-0.06 -0.18,-0.06 -0.31,-0.06c-0.69,-0.12 -1.38,0 -2.14,0.19c-0.94,0.19 -1.88,0.58 -2.77,0.89c-1.51,0.49 -3.21,0.88 -4.97,0.75l0,0.01l-0.09,-0.01l-0.1,0.01l0,-0.01c-1.75,0.13 -3.46,-0.26 -4.97,-0.75c-0.88,-0.31 -1.83,-0.7 -2.77,-0.89c-0.75,-0.19 -1.44,-0.31 -2.14,-0.19c-0.13,0 -0.19,0 -0.31,0.06c-3.03,0.32 -5.61,-1.78 -8.12,-1.65c-0.7,0.06 -1.7,-0.13 -2.27,-0.13c0.12,0.06 0.25,0.13 0.38,0.19c7.17,3.5 13.35,10.07 20.2,9.86l0.19,0c6.85,0.21 13.03,-6.36 20.2,-9.86c0.13,-0.06 0.26,-0.13 0.38,-0.19c-0.56,0 -1.57,0.19 -2.27,0.13Z" style="fill:#dcbf9e;fill-rule:nonzero;"/><path d="M173.75,193.37c0,0 -7.29,-2.82 -12.47,-1.17c0,0 -1.93,0.76 -3.93,1.22c-1.21,0.47 -2.69,0.61 -4.11,0.55c-1.09,-0.04 -2.13,-0.18 -2.98,-0.33c-0.28,-0.04 -0.57,-0.1 -0.86,-0.16c-0.12,-0.03 -0.21,-0.05 -0.32,-0.07c-0.18,-0.04 -0.35,-0.08 -0.52,-0.12c-0.19,-0.05 -0.3,-0.08 -0.3,-0.08l0.01,0c-1.65,-0.45 -3.08,-1.01 -3.08,-1.01c-5.18,-1.65 -12.47,1.17 -12.47,1.17c-0.1,0.04 -0.16,0.07 -0.16,0.07c0.57,0 1.57,0.19 2.27,0.13c2.51,-0.13 5.09,1.97 8.12,1.65c0.12,-0.06 0.18,-0.06 0.31,-0.06c0.7,-0.12 1.39,0 2.14,0.19c0.94,0.19 1.89,0.58 2.77,0.89c1.51,0.49 3.22,0.88 4.97,0.75l0,0.01l0.1,-0.01l0.09,0.01l0,-0.01c1.76,0.13 3.46,-0.26 4.97,-0.75c0.89,-0.31 1.83,-0.7 2.77,-0.89c0.76,-0.19 1.45,-0.31 2.14,-0.19c0.13,0 0.19,0 0.31,0.06c3.03,0.32 5.61,-1.78 8.12,-1.65c0.7,0.06 1.71,-0.13 2.27,-0.13c0,0 -0.06,-0.03 -0.16,-0.07Z" style="fill:#c69f83;fill-rule:nonzero;"/><path d="M141,195.08c0.13,0.03 13.65,4.16 24.23,0.09l-1.22,-0.82l-14.3,0l-8.71,0.73Z" style="fill:#c69f83;fill-rule:nonzero;"/><path d="M149.32,257.92l0,42.3l-49.42,0l0,-13.72l-7.18,-1.71c0.54,-4.4 1.28,-8.43 2.2,-12.1c0.68,-2.63 1.44,-5.1 2.27,-7.38c4.34,-11.89 10.73,-19.22 16.68,-23.7c7.39,6.46 19.83,14.89 35.45,16.31Z" style="fill:#6396a5;fill-rule:nonzero;"/><path d="M149.32,244.73l0,13.19c-15.62,-1.42 -28.06,-9.85 -35.45,-16.31c4.59,-3.46 8.87,-5.23 11.73,-6.11c2.1,-0.66 3.43,-0.83 3.43,-0.83l0.07,0l12.63,7.31c2.36,1.35 4.94,2.28 7.59,2.75Z" style="fill:#3f1c21;fill-rule:nonzero;"/><path d="M215.69,284.59l-8.08,1.91l0,13.72l-48.78,0l0,-42.36c10.76,-1.07 22.71,-5.8 35.3,-16.54c6.05,4.44 12.65,11.83 17.12,23.99c0.84,2.28 1.58,4.75 2.26,7.38c0.91,3.6 1.65,7.58 2.18,11.9Z" style="fill:#6396a5;fill-rule:nonzero;"/><path d="M194.13,241.32c-12.59,10.74 -24.54,15.47 -35.3,16.54l0,-13.35c2.18,-0.52 4.3,-1.32 6.27,-2.45l13.25,-7.51c0.31,0.08 0.66,0.12 1.01,0.12c0,0 0.33,0.04 0.9,0.17l0.02,0c0.99,0.2 2.7,0.63 4.88,1.5c2.55,0.99 5.68,2.55 8.97,4.98Z" style="fill:#3f1c21;fill-rule:nonzero;"/><path d="M195.54,266.97c0,3.09 -5.68,5.6 -12.69,5.6c-7,0 -12.69,-2.51 -12.69,-5.6c0,-3.09 5.69,-5.6 12.69,-5.6c7.01,0 12.69,2.51 12.69,5.6Z" style="fill:#82d4f5;fill-rule:nonzero;"/><path d="M173,189.24c-4.06,-4.99 -11.38,-5.36 -19.76,-5.24c-8.39,-0.12 -15.71,0.25 -19.76,5.24c-3.74,4.6 -4.07,16.55 1.67,20.81c2.05,-6.1 2.02,-8.87 4.88,-12.18c3.32,-3.85 8.52,-3.89 13.21,-4.42c4.68,0.53 9.89,0.57 13.21,4.42c2.85,3.31 2.82,6.08 4.87,12.18c5.75,-4.26 5.41,-16.21 1.68,-20.81Z" style="fill:#4c2a2e;fill-rule:nonzero;"/><path d="M159.37,216.37l-10.97,0l-1.73,0l0,0.08c0.05,0.19 0.1,0.38 0.17,0.55l-0.17,-0.08c0,1.39 0.59,2.72 1.64,3.64c0.15,0.13 0.3,0.27 0.46,0.41c1.49,1.37 3.13,3.13 4.85,3.13l0.26,-0.02c1.63,-0.17 3.18,-1.81 4.59,-3.11c0.16,-0.14 0.31,-0.28 0.46,-0.41c1.05,-0.92 1.64,-2.25 1.64,-3.64l0,-0.55l-1.2,0Z" style="fill:#4c2a2e;fill-rule:nonzero;"/><path d="M152.13,107.64c1.81,1.73 4.15,3.94 6.84,6.42c12.8,11.99 39.62,37.05 47.57,43.87l0.13,0.12c0.4,0.62 0.75,0.74 0.87,0.76l24.49,21.57l-18.21,-32.63l9.76,8.59l-8.44,-15.12c3.64,-7.5 7.34,-20.02 7.34,-32.52c0,-16.55 -5.54,-31.26 -20.01,-46.91c-0.54,-0.58 -1.09,-1.16 -1.65,-1.73c0.73,-5.08 -1.79,-11.71 -15.35,-17.43c0,0 4.27,4.46 7.57,10.6c-12.81,-9.87 -26.29,-14.69 -26.29,-14.69l5.89,5.65c-3.53,-2.76 -9.81,-6.6 -20.32,-9.98c-14.95,-4.81 -24.62,0.55 -24.62,0.55c0,0 7.79,-0.28 11.62,2.84c-3.77,-1.66 -10.28,-2.22 -21.12,2.35c-0.67,0.27 -1.32,0.57 -1.95,0.87c-3.92,-0.58 -8.08,-1.6 -12.38,-3.24c0,0 2.72,3.02 7.29,6.02c-3.54,2.25 -6.29,4.73 -8.63,7.25c-5.53,0.19 -11.78,-0.36 -18.5,-2.32c0,0 5.52,5.2 13.74,8.09c-1.25,1.63 -2.43,3.21 -3.66,4.69c-5.38,1.41 -11.63,2.25 -18.69,1.8c0,0 5.02,2.93 12.05,4.37c-1.45,0.94 -3.07,1.74 -4.94,2.36c-15.14,5.05 -19.54,-1.44 -19.54,-1.44c0,0 6.57,11.35 18.25,11.38c1.88,0 2.07,-0.04 2.08,-0.05c-0.01,0.04 -2.84,7.91 -4.38,15.7c-3.47,1.32 -7.31,2.43 -11.57,3.12c0,0 4.61,1.43 10.83,1.56c-0.03,0.28 -0.07,0.56 -0.09,0.83c-0.86,9.26 1.82,15.59 2.64,32.9c0.71,14.8 4.55,7.21 9.12,18.12c1.55,3.66 1.61,7.77 1.61,7.77c1.7,0.43 6.14,-8.88 2.95,-25.06c-0.92,-4.64 0.58,-15.02 4.69,-24.47l-0.01,0c0,0 6.1,-11.59 16.53,-16.56l53.4,46.48l-23.03,-38.46c0.58,0.56 1.16,1.1 1.75,1.72c0.21,0.22 0.42,0.44 0.64,0.66l0.03,0.03l0,-0.01l0.01,0.01l-0.01,0c0,0 1.39,1.36 3.62,3.49l0.08,0.08Z" style="fill:#4c2a2e;fill-rule:nonzero;"/></g></svg>