<?xml version="1.0" encoding="UTF-8" standalone="no"?><!DOCTYPE svg PUBLIC "-//W3C//DTD SVG 1.1//EN" "http://www.w3.org/Graphics/SVG/1.1/DTD/svg11.dtd"><svg width="100%" height="100%" viewBox="0 0 298 300" version="1.1" xmlns="http://www.w3.org/2000/svg" xmlns:xlink="http://www.w3.org/1999/xlink" xml:space="preserve" style="fill-rule:evenodd;clip-rule:evenodd;stroke-linejoin:round;stroke-miterlimit:1.41421;"><g id="_1"><rect x="0.31" y="0.3" width="296.86" height="299.7" style="fill:#d87542;fill-rule:nonzero;"/><path d="M149.05,187.38l0,112.62l-60.74,0c-0.99,-0.39 -1.48,-0.6 -1.48,-0.6c0,-10.98 1.23,-20.12 3.25,-27.73c0.62,-2.35 1.3,-4.53 2.06,-6.58c4.46,-12.16 11.05,-19.53 17.07,-23.99c4.45,-3.28 8.56,-4.96 11.32,-5.83c2.14,-0.68 3.46,-0.82 3.46,-0.82c0.24,0 0.45,-0.02 0.68,-0.06c0.24,-0.04 0.47,-0.1 0.7,-0.19c1.6,-0.55 2.92,-2.12 4.01,-4.44c0.92,-1.98 1.68,-4.51 2.32,-7.41c0.25,-1.15 0.45,-2.28 0.64,-3.52c0.31,-2.09 0.6,-4.27 0.84,-6.56c0.11,-1.38 0.25,-2.71 0.42,-4.15c0.53,-6.9 0.67,-14.45 0.67,-21.59c0,0 8.15,0.85 14.78,0.85Z" style="fill:#e0bd9a;fill-rule:nonzero;"/><path d="M211.51,299.4c0,0 -0.53,0.21 -1.44,0.6l-61.02,0l0,-112.62l0.14,0c6.58,0 14.83,-0.85 14.83,-0.85c0,7.1 0.15,14.55 0.68,21.44c0.17,1.34 0.31,2.72 0.41,4.05c0.25,2.39 0.54,4.63 0.89,6.71l0,0.04c0.1,0.95 0.29,1.79 0.45,2.68c0.6,2.94 1.32,5.51 2.2,7.57c1.09,2.57 2.41,4.36 4.04,5.08c0.49,0.23 1.05,0.35 1.62,0.35c0,0 0.1,0 0.27,0.04c0.72,0.1 2.76,0.5 5.55,1.61c3.25,1.29 7.49,3.49 11.81,7.28l0,0.02c5.21,4.55 10.5,11.42 14.26,21.69c0.76,2.05 1.44,4.23 2.06,6.58c2.02,7.61 3.25,16.75 3.25,27.73Z" style="fill:#efd0ad;fill-rule:nonzero;"/><path d="M166,218.52l0,0.05c-1.53,2.36 -6.67,9.16 -16.85,9.16l-0.1,0c-9.64,-0.05 -15.27,-7.05 -16.7,-9.12c0.3,-2.06 0.59,-4.23 0.84,-6.5c0.1,-1.33 0.25,-2.71 0.39,-4.14c4.7,1.19 9.84,1.92 15.27,2.02l0.2,0c5.63,-0.1 10.82,-0.88 15.66,-2.16c0.15,1.33 0.3,2.71 0.4,4.04c0.25,2.36 0.54,4.58 0.89,6.65Z" style="fill:#be987f;fill-rule:nonzero;"/><path d="M148.36,59.04c-64.34,0 -64.68,53.95 -61.82,89.27c-4.4,-8.37 -17.49,-5.81 -16.4,7.39c1.03,12.71 19.74,19.19 19.22,17.79c9.74,26.12 35.53,45.81 59,45.81l0.49,0l0,-160.26l-0.49,0Z" style="fill:#d2a686;fill-rule:nonzero;"/><path d="M74.24,150.13c3.16,-5.12 8.1,-2.9 9.29,-1.77c1.28,1.23 2.32,2.81 1.53,5.81c-0.44,1.73 -2.22,1.88 -1.83,4.44c0.5,2.9 1.83,3.05 2.62,3.74c0.74,0.64 1.68,1.14 2.13,2.37c0.49,1.23 0.54,2.51 0.29,3.64c-0.49,2.07 -3.51,0.4 -5.53,-0.49c-1.34,-0.64 -5.59,-4.24 -6.67,-5.42c-2.67,-3.05 -3.96,-8.97 -1.83,-12.32Z" style="fill:#ac8774;fill-rule:nonzero;"/><path d="M148.7,59.04c64.34,0 64.69,53.95 61.87,89.27c4.4,-8.37 17.44,-5.81 16.36,7.39c-0.99,12.71 -19.74,19.19 -19.23,17.79c-9.49,26.12 -35.52,45.81 -59,45.81c-0.14,0 -0.34,0 -0.34,0l-0.15,-160.26c0,0 0.35,0 0.49,0Z" style="fill:#ddb598;fill-rule:nonzero;"/><path d="M222.82,150.13c-3.16,-5.12 -8.05,-2.9 -9.29,-1.77c-1.28,1.23 -2.27,2.81 -1.53,5.81c0.45,1.73 2.23,1.88 1.83,4.44c-0.49,2.9 -1.83,3.05 -2.57,3.74c-0.74,0.64 -1.73,1.14 -2.17,2.37c-0.45,1.23 -0.55,2.51 -0.3,3.64c0.49,2.07 3.51,0.4 5.54,-0.49c1.38,-0.64 5.58,-4.24 6.67,-5.42c2.71,-3.05 3.95,-8.97 1.82,-12.32Z" style="fill:#ac8774;fill-rule:nonzero;"/><path d="M147.85,74.26c-21.15,0 -36.66,6.16 -46,18.28c-13.1,17 -12.6,42.91 -7.81,61.54c1.48,5.71 2.27,21.03 3.26,26.65c4.6,25.17 32.32,38.57 50.55,38.57c0,0 0.35,0 0.5,0l0,-145.04c-0.15,0 -0.3,0 -0.3,0" style="fill:#e0bd9a;fill-rule:nonzero;"/><path d="M193.81,92.59c-9.29,-12.07 -24.61,-18.23 -45.46,-18.33l0,145.04c20.85,-0.24 45.8,-14.92 50.05,-38.57c1.04,-5.62 1.78,-20.94 3.26,-26.65c4.85,-18.58 5.34,-44.44 -7.85,-61.49Z" style="fill:#efd0ad;fill-rule:nonzero;"/><path d="M148.54,190.86" style="fill:#bc917b;fill-rule:nonzero;"/><path d="M148.54,190.86" style="fill:#bc917b;fill-rule:nonzero;"/><path d="M144.97,193.59c-0.1,-0.02 -0.2,-0.04 -0.3,-0.06c0.1,0.02 0.19,0.04 0.3,0.06Z" style="fill:#bc917b;fill-rule:nonzero;"/><path d="M148.54,193.4" style="fill:#bc917b;fill-rule:nonzero;"/><path d="M144.19,193.42c-0.1,-0.03 -0.18,-0.05 -0.27,-0.08l-0.01,0.01c0,0 0.1,0.02 0.28,0.07Z" style="fill:#bc917b;fill-rule:nonzero;"/><path d="M148.54,193.4" style="fill:#bc917b;fill-rule:nonzero;"/><path d="M136.34,174.78c-0.24,-5.01 9.18,-1.83 12.29,-1.68c2.45,0.13 9.92,-1.58 10.56,-1.14c4.4,2.97 -4.65,8.96 -10.72,8.96c-1.61,0 -11.98,-3.12 -12.13,-6.14Z" style="fill:#ddb598;fill-rule:nonzero;"/><path d="M130.38,74.63l-0.26,0.26l0.04,0.09c0.09,-0.13 0.14,-0.27 0.22,-0.35Z" style="fill:#432e1b;fill-rule:nonzero;"/><path d="M89.42,125.73" style="fill:#432e1b;fill-rule:nonzero;"/><path d="M148.81,193.42" style="fill:#ba907b;fill-rule:nonzero;"/><path d="M148.81,193.42" style="fill:#ba907b;fill-rule:nonzero;"/><path d="M145.15,190.65c-0.11,-0.02 -0.21,-0.04 -0.31,-0.07c0.1,0.03 0.19,0.05 0.31,0.07Z" style="fill:#ba907b;fill-rule:nonzero;"/><path d="M148.81,190.45" style="fill:#ba907b;fill-rule:nonzero;"/><path d="M144.34,190.47c-0.09,-0.02 -0.18,-0.05 -0.28,-0.08l-0.01,0.01c0,0 0.11,0.03 0.29,0.07Z" style="fill:#ba907b;fill-rule:nonzero;"/><path d="M148.81,190.45" style="fill:#ba907b;fill-rule:nonzero;"/><path d="M102.19,130.87c0,0 4.91,20.2 13.34,21.85c8.42,1.65 17.54,-1.63 17.54,-1.63c0,0 0.88,-23.74 -3.44,-26.84c-4.31,-3.11 -14.25,-7.61 -27.44,6.62Z" style="fill:#fff;fill-rule:nonzero;"/><path d="M133.09,151.03c0,0 -0.2,0.06 -0.63,0.24c-0.11,-7.28 -0.78,-17.28 -3.47,-19.2c-4.01,-2.94 -13.06,-7.08 -25.14,4.24c-1.1,-3.13 -1.65,-5.5 -1.65,-5.5c13.21,-14.26 23.16,-9.77 27.44,-6.65c4.32,3.11 3.45,26.87 3.45,26.87Z" style="fill:#d6b496;fill-rule:nonzero;"/><path d="M128.1,140.74c0,4.6 -3.72,8.32 -8.3,8.32c-4.58,0 -8.29,-3.72 -8.29,-8.32c0,-4.59 3.71,-8.32 8.29,-8.32c4.58,0 8.3,3.73 8.3,8.32Z" style="fill:#482315;fill-rule:nonzero;"/><path d="M119.42,146.28c-2.4,-0.19 -4.24,-2.62 -4.02,-5.28c0.22,-2.67 2.42,-4.75 4.82,-4.55c2.4,0.19 4.23,2.62 4.02,5.28c-0.22,2.67 -2.43,4.76 -4.82,4.55Z" style="fill:#7e3a22;fill-rule:nonzero;"/><path d="M119.62,145.32c-1.66,-0.14 -3.39,-1.97 -3.21,-4.23c0.19,-2.27 2.19,-3.8 3.86,-3.66c1.67,0.14 3.39,1.98 3.21,4.24c-0.19,2.26 -2.19,3.79 -3.86,3.65Z" style="fill:#211a10;fill-rule:nonzero;"/><path d="M118.27,139.75c-0.06,0.82 -0.9,1.41 -1.86,1.33c-0.96,-0.08 -1.68,-0.81 -1.62,-1.62c0.07,-0.82 0.9,-1.42 1.86,-1.34c0.97,0.08 1.69,0.81 1.62,1.63Z" style="fill:#fff;fill-rule:nonzero;"/><path d="M123.65,144.47c-0.03,0.41 -0.45,0.71 -0.93,0.67c-0.48,-0.04 -0.84,-0.41 -0.81,-0.81c0.04,-0.41 0.45,-0.71 0.93,-0.67c0.48,0.04 0.85,0.4 0.81,0.81Z" style="fill:#fff;fill-rule:nonzero;"/><path d="M148.94,190.37" style="fill:#ba907b;fill-rule:nonzero;"/><path d="M148.94,190.37" style="fill:#ba907b;fill-rule:nonzero;"/><path d="M145.28,193.03c-0.11,-0.02 -0.21,-0.04 -0.31,-0.06c0.1,0.02 0.19,0.04 0.31,0.06Z" style="fill:#ba907b;fill-rule:nonzero;"/><path d="M148.94,192.84" style="fill:#ba907b;fill-rule:nonzero;"/><path d="M144.47,192.85c-0.09,-0.02 -0.18,-0.05 -0.27,-0.07l-0.01,0c0,0 0.1,0.03 0.28,0.07Z" style="fill:#ba907b;fill-rule:nonzero;"/><path d="M148.94,192.84" style="fill:#ba907b;fill-rule:nonzero;"/><path d="M148.83,190" style="fill:#bc917b;fill-rule:nonzero;"/><path d="M148.83,190" style="fill:#bc917b;fill-rule:nonzero;"/><path d="M144.9,192.46c-0.11,-0.02 -0.22,-0.04 -0.33,-0.07c0.11,0.03 0.2,0.05 0.33,0.07Z" style="fill:#bc917b;fill-rule:nonzero;"/><path d="M148.83,192.25" style="fill:#bc917b;fill-rule:nonzero;"/><path d="M144.04,192.27c-0.1,-0.03 -0.2,-0.06 -0.3,-0.08l-0.01,0c0,0 0.11,0.03 0.31,0.08Z" style="fill:#bc917b;fill-rule:nonzero;"/><path d="M148.83,192.25" style="fill:#bc917b;fill-rule:nonzero;"/><path d="M148.58,189.15" style="fill:#bc917b;fill-rule:nonzero;"/><path d="M148.58,189.15" style="fill:#bc917b;fill-rule:nonzero;"/><path d="M144.65,191.62c-0.11,-0.03 -0.22,-0.05 -0.33,-0.07c0.11,0.02 0.21,0.04 0.33,0.07Z" style="fill:#bc917b;fill-rule:nonzero;"/><path d="M148.58,191.41" style="fill:#bc917b;fill-rule:nonzero;"/><path d="M143.79,191.42c-0.1,-0.02 -0.2,-0.05 -0.3,-0.08l-0.01,0.01c0,0 0.12,0.03 0.31,0.07Z" style="fill:#bc917b;fill-rule:nonzero;"/><path d="M148.58,191.41" style="fill:#bc917b;fill-rule:nonzero;"/><path d="M149.22,188.94" style="fill:#bc917b;fill-rule:nonzero;"/><path d="M149.22,188.94" style="fill:#bc917b;fill-rule:nonzero;"/><path d="M145.42,191.5c-0.1,-0.02 -0.21,-0.04 -0.32,-0.07c0.11,0.03 0.2,0.05 0.32,0.07Z" style="fill:#bc917b;fill-rule:nonzero;"/><path d="M149.22,191.3" style="fill:#bc917b;fill-rule:nonzero;"/><path d="M144.59,191.32c-0.1,-0.03 -0.19,-0.06 -0.29,-0.08l-0.01,0c0,0 0.11,0.03 0.3,0.08Z" style="fill:#bc917b;fill-rule:nonzero;"/><path d="M149.22,191.3" style="fill:#bc917b;fill-rule:nonzero;"/><path d="M195,130.19c0,0 -4.9,20.2 -13.33,21.84c-8.43,1.65 -17.55,-1.63 -17.55,-1.63c0,0 -0.87,-23.73 3.45,-26.83c4.31,-3.12 14.25,-7.62 27.43,6.62Z" style="fill:#fff;fill-rule:nonzero;"/><path d="M164.11,150.34c0,0 0.19,0.06 0.63,0.24c0.11,-7.28 0.78,-17.28 3.47,-19.2c4.01,-2.94 13.05,-7.08 25.14,4.25c1.1,-3.13 1.65,-5.51 1.65,-5.51c-13.21,-14.26 -23.16,-9.77 -27.44,-6.65c-4.32,3.11 -3.45,26.87 -3.45,26.87Z" style="fill:#d6b496;fill-rule:nonzero;"/><path d="M169.1,140.06c0,4.59 3.71,8.32 8.29,8.32c4.58,0 8.3,-3.73 8.3,-8.32c0,-4.6 -3.72,-8.32 -8.3,-8.32c-4.58,0 -8.29,3.72 -8.29,8.32Z" style="fill:#482315;fill-rule:nonzero;"/><path d="M177.78,145.6c2.39,-0.2 4.23,-2.63 4.01,-5.29c-0.21,-2.67 -2.42,-4.75 -4.81,-4.55c-2.4,0.2 -4.23,2.62 -4.02,5.28c0.21,2.67 2.43,4.76 4.82,4.56Z" style="fill:#7e3a22;fill-rule:nonzero;"/><path d="M177.57,144.64c1.67,-0.15 3.4,-1.98 3.22,-4.24c-0.19,-2.27 -2.19,-3.8 -3.86,-3.66c-1.67,0.14 -3.39,1.98 -3.21,4.24c0.18,2.27 2.19,3.79 3.85,3.66Z" style="fill:#211a10;fill-rule:nonzero;"/><path d="M178.92,139.06c0.07,0.82 0.91,1.41 1.87,1.34c0.96,-0.09 1.68,-0.82 1.61,-1.63c-0.07,-0.82 -0.9,-1.42 -1.86,-1.34c-0.96,0.08 -1.68,0.81 -1.62,1.63Z" style="fill:#fff;fill-rule:nonzero;"/><path d="M173.55,143.79c0.03,0.4 0.45,0.7 0.93,0.66c0.48,-0.04 0.84,-0.4 0.81,-0.81c-0.04,-0.41 -0.46,-0.71 -0.93,-0.67c-0.48,0.04 -0.85,0.41 -0.81,0.82Z" style="fill:#fff;fill-rule:nonzero;"/><path d="M138.14,130.55c-0.07,-0.1 -1.6,-2.43 -4.72,-4.83c-1.96,-1.51 -3.88,-2.66 -5.87,-3.51c-2.42,-1.02 -5.03,-1.74 -7.55,-2.09c-2.29,-0.25 -4.82,-0.19 -7.77,0.21c-2.26,0.43 -4.46,1.11 -6.32,1.93c-1.33,0.46 -2.38,1.11 -3.23,1.63c-0.32,0.19 -0.61,0.37 -0.91,0.54l-4.03,2.53l4.64,-1.09c0.22,-0.05 0.45,-0.12 0.7,-0.18c0.96,-0.26 2.16,-0.58 3.56,-0.78c0.33,-0.05 0.66,-0.12 1,-0.18c0.58,-0.12 1.19,-0.24 1.82,-0.27c0.7,-0.05 1.43,-0.1 2.18,-0.15l0.97,-0.08c2.57,-0.03 4.74,0.17 6.67,0.61c2.11,0.37 4.27,1.05 6.26,1.97c1.87,0.9 3.67,1.8 5.07,2.83c2.84,1.9 4.41,3.48 4.43,3.49c0.39,0.4 0.91,0.6 1.43,0.6c0.38,0 0.76,-0.11 1.1,-0.33c0.93,-0.61 1.19,-1.88 0.6,-2.79l-0.03,-0.06Z" style="fill:#030405;fill-rule:nonzero;"/><path d="M195.83,124.41c-0.26,-0.15 -0.56,-0.33 -0.88,-0.53c-0.85,-0.51 -1.9,-1.16 -3.19,-1.6c-1.9,-0.84 -4.1,-1.52 -6.38,-1.95c-2.93,-0.4 -5.46,-0.46 -7.76,-0.21c-2.51,0.35 -5.12,1.07 -7.54,2.09c-1.96,0.84 -3.94,2.02 -5.87,3.51c-3.06,2.36 -4.59,4.65 -4.71,4.82l-0.03,0.05c-0.51,0.8 -0.4,1.87 0.27,2.54c0.38,0.39 0.89,0.6 1.43,0.6c0.54,0 1.04,-0.21 1.42,-0.6l0.02,-0.01c0.15,-0.15 1.68,-1.65 4.43,-3.5c1.38,-1.01 3.18,-1.91 5.05,-2.81c1.99,-0.92 4.16,-1.6 6.29,-1.97c1.9,-0.44 4.07,-0.63 6.61,-0.61l1.02,0.08c0.74,0.05 1.47,0.1 2.17,0.15c0.63,0.03 1.23,0.15 1.81,0.27c0.34,0.06 0.68,0.13 1,0.18c1.4,0.2 2.6,0.52 3.56,0.78c0.25,0.06 0.48,0.13 0.71,0.18l4.63,1.09l-4.06,-2.55Z" style="fill:#030405;fill-rule:nonzero;"/><path d="M147.65,198.32" style="fill:#be927b;fill-rule:nonzero;"/><path d="M147.65,198.32" style="fill:#be927b;fill-rule:nonzero;"/><path d="M143.82,195.42c-0.11,-0.02 -0.21,-0.04 -0.32,-0.06c0.1,0.02 0.2,0.04 0.32,0.06Z" style="fill:#be927b;fill-rule:nonzero;"/><path d="M147.65,195.22" style="fill:#be927b;fill-rule:nonzero;"/><path d="M142.98,195.24c-0.1,-0.03 -0.19,-0.06 -0.29,-0.09l-0.01,0.01c0,0 0.11,0.03 0.3,0.08Z" style="fill:#be927b;fill-rule:nonzero;"/><path d="M147.65,195.22" style="fill:#be927b;fill-rule:nonzero;"/><path d="M137.06,201.16c-0.24,-3.2 8.91,0.67 11.92,0.76c2.4,0.08 9.6,-0.48 10.26,-0.73c5.04,-1.88 -0.27,5.35 -10.41,5.73c-4.65,0.19 -11.63,-3.82 -11.77,-5.76Z" style="fill:#f0d2ad;fill-rule:nonzero;"/><path d="M167.23,193.47c-5.81,-1.09 -18.03,0.07 -18.03,0.07c-10.09,1.68 -17.98,-0.1 -18.04,-0.04c-0.24,0.03 8.06,11.03 17.9,10.52c9.84,0.51 18.41,-10.52 18.17,-10.55Z" style="fill:#c2646e;fill-rule:nonzero;"/><path d="M155.03,191.15c-2.62,-0.29 -4.48,1.59 -5.82,1.46c-1.37,0.12 -3.14,-1.09 -5.77,-1.11c-3.7,-0.04 -5.51,-0.36 -12.28,2c0.25,0.47 4.58,2.98 12.7,3.12c0.12,0 2.3,1.23 5.39,1.21c1.94,-0.01 4.6,-1.31 4.71,-1.31c8.13,-0.12 13.1,-2.54 13.32,-2.99c-8.94,-2.77 -8.23,-2.42 -12.25,-2.38Z" style="fill:#d87475;fill-rule:nonzero;"/><path d="M202.79,277.7c-0.02,10.16 0.26,17.82 0.53,22.3l-105.77,0c0.27,-4.48 0.58,-12.14 0.55,-22.3c0,-1.93 0,-3.93 -0.02,-6.03l-8,0c0.62,-2.34 1.3,-4.52 2.06,-6.58c3.02,-8.21 6.99,-14.24 11.13,-18.66c1.97,-2.12 3.99,-3.87 5.94,-5.33l18.79,23.91l0.1,0.1c5.47,6.91 13.13,10.61 20.95,11.01l0.18,0c8.15,0.37 16.42,-2.86 22.51,-9.76l0.06,-0.06l20.14,-22.9c5.21,4.55 10.5,11.42 14.26,21.69c0.76,2.06 1.44,4.24 2.06,6.58l-5.43,0c-0.02,2.1 -0.04,4.1 -0.04,6.03Z" style="fill:#ce1f4a;fill-rule:nonzero;"/><path d="M129.6,229.47c-7.72,0.58 -13.03,5.71 -13.03,5.71c17.96,16.36 32.76,22.48 32.76,22.48l0,-11.41c-23.4,-0.14 -19.73,-16.78 -19.73,-16.78Z" style="fill:#37393a;fill-rule:nonzero;"/><path d="M168.83,229.24c0,0 3.92,16.87 -19.48,17.01l0,11.41c0,0 15.47,-6.06 33.42,-22.42c0,0 -5.09,-4.95 -13.94,-6Z" style="fill:#37393a;fill-rule:nonzero;"/><path d="M258.62,61.18c0,0 2.03,5.08 1.25,14.19c-0.48,9.08 -3.27,14.88 -3.27,14.88c0,0 -3.71,-0.74 -8.37,-1.87l1.57,-22.73c4.93,-2.58 8.82,-4.47 8.82,-4.47Z" style="fill:#37393a;fill-rule:nonzero;"/><path d="M249.8,65.65l-1.57,22.73c-3.25,-0.79 -6.94,-1.76 -10.19,-2.81l0.97,-13.95c3.46,-2.06 7.38,-4.18 10.79,-5.97Z" style="fill:#ce1f4a;fill-rule:nonzero;"/><path d="M203.28,10.98c0,0 -5.31,-1.56 -14.46,-0.04c-9.13,1.24 -14.77,4.46 -14.77,4.46c0,0 1.07,3.58 2.6,8.07l22.84,-3.45c2.2,-5.05 3.79,-9.04 3.79,-9.04Z" style="fill:#37393a;fill-rule:nonzero;"/><path d="M199.49,20.02l-22.84,3.45c1.07,3.12 2.36,6.67 3.68,9.78l14.02,-2.12c1.79,-3.58 3.61,-7.6 5.14,-11.11Z" style="fill:#ce1f4a;fill-rule:nonzero;"/><path d="M234.26,95.46c9.16,-9.82 10.15,-23.62 2.21,-30.82l-34.29,-31.1c-7.94,-7.2 -21.81,-5.07 -30.97,4.75c-7.36,7.89 -9.44,18.35 -5.86,25.89c-3.03,6.46 -2.69,13.17 1.46,16.93l24.53,22.24c4.15,3.77 10.96,3.54 17.24,0.03c7.92,2.89 18.31,-0.03 25.68,-7.92Z" style="fill:#37393a;fill-rule:nonzero;"/><path d="M168,40.34l8.7,4.31c-18.43,-5.34 -37.39,-1.61 -46.11,0.74c-3.17,0.66 -4.95,1.5 -4.95,1.5c0.77,-0.01 1.56,0.03 2.34,0.05c2.66,0.14 6.96,0.67 9.51,2.5c-3.83,-1.48 -10.43,-2.01 -21.51,2.06c-1.54,0.56 -2.97,1.17 -4.3,1.79c-4.71,1.95 -14.13,5.81 -32.24,13.11c0,0 5.98,2.19 13.09,2.94c-3.4,3.77 -6.93,6.99 -12.82,8.7c-15.41,4.49 -19.87,-1.26 -19.87,-1.26c0,0 6.68,10.07 18.54,10.09c1.92,0 2.12,-0.03 2.13,-0.04c-0.01,0.04 -4.45,10.8 -5.3,18.84c-0.87,8.22 1.85,13.84 2.68,29.21c0.24,4.29 0.82,6.46 1.65,7.78c1.71,2.71 4.5,1.79 7.64,8.31c1.56,3.25 1.63,6.91 1.63,6.91c0,0 0.13,0.09 0.34,0.16c0.98,0.33 3.79,0.06 3.93,-13.64c0,0 -12.45,-53.64 12.93,-61.59c0.41,-0.13 0.83,-0.23 1.25,-0.34c-4.57,6.66 -5.22,13.83 -5.22,13.83c6.09,-19.68 46.61,-5.81 46.61,-5.81c-24.05,-6.07 -33.82,5.48 -33.82,5.48c58.39,-8.71 88.01,52.42 89.36,48.6c-0.14,12.6 2.69,12.49 2.69,12.49c1.3,0 -0.08,-6.34 4.24,-10.71c1.19,-1.2 2.55,-3.21 3.9,-5.76c3.55,-6.73 7.01,-17.38 7.01,-28.03c4.61,-72.2 -54.03,-72.22 -54.03,-72.22Z" style="fill:#37393a;fill-rule:nonzero;"/><path d="M149.23,276.12l0,13.45c-25.02,-2.2 -41.7,-34.09 -45.96,-43.14c1.97,-2.12 3.99,-3.87 5.94,-5.33l18.79,23.91l0.1,0.1c5.47,6.91 13.13,10.61 20.95,11.01l0.18,0Z" style="fill:#a51c42;fill-rule:nonzero;"/><path d="M149.23,276.12l0,13.45c25.02,-2.2 41.71,-34.09 45.96,-43.14c-1.97,-2.12 -3.99,-3.87 -5.94,-5.33l-18.79,23.91l-0.1,0.1c-5.47,6.91 -13.13,10.61 -20.94,11.01l-0.19,0Z" style="fill:#89163b;fill-rule:nonzero;"/><path d="M213.38,156.28c0,0 0.18,4.45 -7.51,10.16c-1.16,0.86 -1.79,2.28 -1.64,3.72l0.49,4.51c0.21,1.98 2.4,3.08 4.09,2.04c3.62,-2.22 9.25,-7.02 13.91,-16.99c0,0 6.02,-16.61 -9.34,-3.44Z" style="fill:#37393a;fill-rule:nonzero;"/><path d="M218.34,160.18c0,1.14 -0.92,2.06 -2.06,2.06c-1.14,0 -2.06,-0.92 -2.06,-2.06c0,-1.13 0.92,-2.05 2.06,-2.05c1.14,0 2.06,0.92 2.06,2.05Z" style="fill:#2da8e0;fill-rule:nonzero;"/><path d="M211.76,152.5c0,0 -0.37,2.74 1.62,3.78c0,0 7.78,-6.13 10.47,-2.89c0,0 -0.12,-2.4 -1.39,-3.8c0,0 -1.19,-2.94 -10.7,2.91Z" style="fill:#2da8e0;fill-rule:nonzero;"/><path d="M215.3,140.06c0,0 4.19,-0.3 6.08,4.08c0,0 -2.91,-1.31 -6.08,-0.12c0,0 -3.16,1.14 -4.73,4.29l0.12,-1.48c0,0 4.02,-5.59 4.61,-6.77Z" style="fill:#37393a;fill-rule:nonzero;"/><path d="M223.85,153.39c0,0 3.61,-0.39 1.87,-5.08c0,0 7.97,6.18 -2.4,9.8l-1.03,-0.41l1.56,-4.31Z" style="fill:#37393a;fill-rule:nonzero;"/></g></svg>