<?xml version="1.0" encoding="UTF-8" standalone="no"?><!DOCTYPE svg PUBLIC "-//W3C//DTD SVG 1.1//EN" "http://www.w3.org/Graphics/SVG/1.1/DTD/svg11.dtd"><svg width="100%" height="100%" viewBox="0 0 300 302" version="1.1" xmlns="http://www.w3.org/2000/svg" xmlns:xlink="http://www.w3.org/1999/xlink" xml:space="preserve" style="fill-rule:evenodd;clip-rule:evenodd;stroke-linejoin:round;stroke-miterlimit:1.41421;"><g id="_10"><rect x="0.149" y="0.39" width="299.361" height="300.48" style="fill:#be6f30;fill-rule:nonzero;"/><path d="M218.22,191.43c-0.68,-3.03 -1,-4.75 -1.07,-5.97l-0.65,0c2.25,-3.02 3.97,-6.23 5.09,-9.59l0.01,0.01c0.05,-0.18 0.1,-0.36 0.15,-0.54c0.42,-1.34 0.75,-2.71 0.98,-4.1c3.76,-20.39 -6.35,-46.98 -6.35,-46.98c1.02,6.46 0.05,14.38 -1.58,21.8c-1.29,5.88 -2.99,11.45 -4.44,15.73c-1.36,3.99 -2.5,6.86 -2.89,7.82c-5.22,11.03 -14.53,20.06 -26.25,25.63c0.78,-2.15 1.24,-4.59 1.24,-7.21c0,-1.15 -0.11,-2.26 -0.27,-3.33c1.16,-0.13 2.28,-0.3 3.32,-0.57c1.66,-0.3 3.17,-0.85 4.47,-1.71c2.68,-1.77 4.48,-4.85 4.76,-9.77c0,0 -6.92,11.14 -17.7,1.28c0,0 -12.39,-15.22 -23.34,-9.13c-10.93,-6.09 -23.33,9.13 -23.33,9.13c-10.76,9.86 -17.7,-1.28 -17.7,-1.28c0.2,3.53 1.05,5.96 2.55,7.81l0.08,0.07c0,0 0.28,0.26 0.68,0.62c0.38,0.35 0.99,0.82 1.83,1.27l0.04,0.03c0.83,0.43 1.89,0.87 3.22,1.19c1.06,0.31 2.49,0.38 4.27,0.3c-0.25,1.3 -0.4,2.67 -0.4,4.09c0,2.62 0.46,5.06 1.25,7.21c-11.72,-5.57 -21.03,-14.6 -26.25,-25.63c-0.38,-0.96 -1.53,-3.83 -2.89,-7.82c-1.45,-4.28 -3.15,-9.85 -4.44,-15.73c-1.63,-7.42 -2.6,-15.34 -1.58,-21.8c0,0 -10.11,26.59 -6.35,46.98c0.22,1.39 0.56,2.76 0.98,4.1c0.05,0.18 0.1,0.36 0.15,0.54l0.02,-0.01c1.12,3.36 2.83,6.57 5.08,9.59l-0.66,0c-0.06,1.22 -0.39,2.94 -1.06,5.97c-1.82,8.32 -7.25,10.49 -7.25,10.49c0,0 8.39,-3.17 10.41,-5.32c0.98,-1.04 3.57,-3.9 4.37,-4.81l0.08,0.07c-0.47,0.96 -1.56,4.05 -0.02,10.01c2.03,7.79 10.34,13.03 10.34,13.03c0,0 -4.98,-6.19 -3.6,-12.98c0,0 -0.29,2.73 7.82,10.28c7.73,7.23 17.33,14.99 18.58,15.08c-0.1,-0.23 4.28,-7.67 4.17,-10.73c5.91,1.59 12.07,11.9 18.48,11.9c0.37,0 0.75,-0.01 1.13,-0.02l0.01,0c0.37,0.01 0.75,0.02 1.13,0.02c6.4,0 12.57,-10.31 18.48,-11.9c-0.1,3.06 4.08,11.79 3.97,12.02c1.25,-0.09 11.05,-9.14 18.78,-16.37c8.11,-7.55 7.82,-10.28 7.82,-10.28c1.38,6.79 -3.6,12.98 -3.6,12.98c0,0 8.31,-5.24 10.33,-13.03c1.55,-5.96 0.46,-9.05 -0.01,-10.01l0.08,-0.07c0.8,0.91 3.39,3.77 4.37,4.81c2.02,2.15 10.41,5.32 10.41,5.32c0,0 -5.43,-2.17 -7.25,-10.49Z" style="fill:#343839;fill-rule:nonzero;"/><path d="M154.08,188.13l0,112.9l-60.71,0c-1.01,-0.39 -1.48,-0.6 -1.48,-0.6c0,-10.64 1.15,-19.56 3.04,-27c0.66,-2.64 1.42,-5.12 2.24,-7.409c7.74,-21.141 21.9,-27.861 28.42,-29.891c2.12,-0.66 3.43,-0.82 3.43,-0.82c0.25,0 0.44,-0.02 0.66,-0.06l0.02,0c1.92,-0.31 3.46,-1.98 4.71,-4.64c0.93,-1.98 1.71,-4.5 2.33,-7.43c0.25,-1.13 0.45,-2.29 0.66,-3.53c0.29,-2.1 0.57,-4.27 0.82,-6.56c0.1,-1.4 0.25,-2.74 0.41,-4.18c0.54,-6.91 0.68,-14.46 0.68,-21.62c0,0 8.17,0.84 14.77,0.84Z" style="fill:#e0bd9a;fill-rule:nonzero;"/><path d="M216.55,300.43c0,0 -0.54,0.21 -1.44,0.6l-61.03,0l0,-112.9l0.15,0c6.58,0 14.83,-0.84 14.83,-0.84c0,7.09 0.15,14.56 0.7,21.47c0.14,1.34 0.29,2.72 0.39,4.09c0.25,2.37 0.54,4.62 0.89,6.7l0,0.04c0.1,0.95 0.28,1.8 0.45,2.68c0.6,2.95 1.32,5.53 2.2,7.61c1.09,2.56 2.41,4.38 4.03,5.08c0.52,0.22 1.05,0.35 1.63,0.35c0,0 0.33,0.04 0.92,0.16l0.02,0c0.99,0.21 2.7,0.64 4.88,1.51c7.16,2.8 19.18,10.19 26.07,29.041c0.84,2.289 1.6,4.769 2.26,7.409c1.89,7.44 3.05,16.36 3.05,27Z" style="fill:#efd0ad;fill-rule:nonzero;"/><path d="M171.04,219.34l0,0.05c-1.53,2.37 -6.67,9.18 -16.85,9.18l-0.1,0c-9.64,-0.05 -15.27,-7.06 -16.7,-9.13c0.29,-2.08 0.59,-4.25 0.84,-6.52c0.1,-1.34 0.24,-2.72 0.39,-4.15c4.7,1.18 9.84,1.92 15.27,2.02l0.2,0c5.63,-0.1 10.82,-0.89 15.66,-2.17c0.15,1.33 0.3,2.72 0.4,4.05c0.25,2.37 0.54,4.59 0.89,6.67Z" style="fill:#be987f;fill-rule:nonzero;"/><path d="M153.4,59.45c-64.34,0 -64.69,54.09 -61.82,89.5c-4.4,-8.39 -17.49,-5.83 -16.4,7.41c1.03,12.74 19.74,19.24 19.22,17.83c9.74,26.19 35.53,45.94 59,45.94l0.49,0l0,-160.68l-0.49,0Z" style="fill:#d2a686;fill-rule:nonzero;"/><path d="M79.28,150.78c3.16,-5.14 8.1,-2.91 9.29,-1.78c1.28,1.24 2.32,2.82 1.53,5.83c-0.45,1.73 -2.23,1.88 -1.83,4.45c0.49,2.91 1.83,3.06 2.62,3.75c0.74,0.64 1.68,1.14 2.12,2.37c0.5,1.23 0.55,2.52 0.3,3.66c-0.49,2.07 -3.51,0.39 -5.53,-0.5c-1.34,-0.64 -5.59,-4.25 -6.67,-5.43c-2.67,-3.06 -3.96,-8.99 -1.83,-12.35Z" style="fill:#ac8774;fill-rule:nonzero;"/><path d="M153.74,59.45c64.34,0 64.68,54.09 61.87,89.5c4.4,-8.39 17.44,-5.83 16.35,7.41c-0.98,12.74 -19.73,19.24 -19.22,17.83c-9.49,26.19 -35.53,45.94 -59,45.94c-0.15,0 -0.34,0 -0.34,0l-0.15,-160.68c0,0 0.34,0 0.49,0Z" style="fill:#ddb598;fill-rule:nonzero;"/><path d="M227.86,150.78c-3.16,-5.14 -8.05,-2.91 -9.29,-1.78c-1.28,1.24 -2.27,2.82 -1.53,5.83c0.45,1.73 2.22,1.88 1.83,4.45c-0.49,2.91 -1.83,3.06 -2.57,3.75c-0.74,0.64 -1.73,1.14 -2.17,2.37c-0.45,1.23 -0.55,2.52 -0.3,3.66c0.49,2.07 3.51,0.39 5.53,-0.5c1.39,-0.64 5.59,-4.25 6.67,-5.43c2.72,-3.06 3.96,-8.99 1.83,-12.35Z" style="fill:#ac8774;fill-rule:nonzero;"/><path d="M152.89,74.71c-21.15,0 -36.66,6.18 -46,18.33c-13.1,17.04 -12.6,43.02 -7.81,61.69c1.48,5.73 2.27,21.09 3.26,26.72c4.6,25.24 32.32,38.68 50.55,38.68c0,0 0.35,0 0.49,0l0,-145.42c-0.14,0 -0.29,0 -0.29,0" style="fill:#e0bd9a;fill-rule:nonzero;"/><path d="M198.85,93.09c-9.29,-12.1 -24.61,-18.28 -45.47,-18.38l0,145.42c20.86,-0.25 45.81,-14.97 50.06,-38.68c1.04,-5.63 1.78,-20.99 3.26,-26.72c4.84,-18.62 5.34,-44.55 -7.85,-61.64Z" style="fill:#efd0ad;fill-rule:nonzero;"/><path d="M153.58,191.61" style="fill:#bc917b;fill-rule:nonzero;"/><path d="M153.58,191.61" style="fill:#bc917b;fill-rule:nonzero;"/><path d="M150.01,194.35c-0.1,-0.02 -0.2,-0.04 -0.3,-0.06c0.1,0.02 0.18,0.04 0.3,0.06Z" style="fill:#bc917b;fill-rule:nonzero;"/><path d="M153.58,194.16" style="fill:#bc917b;fill-rule:nonzero;"/><path d="M149.23,194.17c-0.1,-0.02 -0.18,-0.05 -0.27,-0.07l-0.01,0c0,0 0.1,0.03 0.28,0.07Z" style="fill:#bc917b;fill-rule:nonzero;"/><path d="M153.58,194.16" style="fill:#bc917b;fill-rule:nonzero;"/><path d="M141.11,176.52c-0.25,-5.03 9.18,-1.84 12.28,-1.68c2.46,0.13 9.93,-1.58 10.57,-1.14c4.39,2.97 -4.66,8.98 -10.72,8.98c-1.62,0 -11.98,-3.13 -12.13,-6.16Z" style="fill:#ddb598;fill-rule:nonzero;"/><path d="M135.42,75.08l-0.26,0.27l0.04,0.09c0.09,-0.14 0.13,-0.27 0.22,-0.36Z" style="fill:#432e1b;fill-rule:nonzero;"/><path d="M94.46,126.32" style="fill:#432e1b;fill-rule:nonzero;"/><path d="M153.85,194.18" style="fill:#ba907b;fill-rule:nonzero;"/><path d="M153.85,194.18" style="fill:#ba907b;fill-rule:nonzero;"/><path d="M150.19,191.4c-0.11,-0.02 -0.21,-0.04 -0.32,-0.07c0.11,0.03 0.2,0.05 0.32,0.07Z" style="fill:#ba907b;fill-rule:nonzero;"/><path d="M153.85,191.2" style="fill:#ba907b;fill-rule:nonzero;"/><path d="M149.38,191.22c-0.1,-0.03 -0.18,-0.05 -0.28,-0.08l-0.01,0.01c0,0 0.11,0.03 0.29,0.07Z" style="fill:#ba907b;fill-rule:nonzero;"/><path d="M153.85,191.2" style="fill:#ba907b;fill-rule:nonzero;"/><path d="M107.23,131.47c0,0 4.91,20.25 13.34,21.9c8.42,1.65 17.54,-1.63 17.54,-1.63c0,0 0.87,-23.8 -3.44,-26.91c-4.31,-3.12 -14.25,-7.63 -27.44,6.64Z" style="fill:#fff;fill-rule:nonzero;"/><path d="M138.12,151.68c0,0 -0.19,0.05 -0.62,0.24c-0.11,-7.3 -0.78,-17.33 -3.48,-19.25c-4,-2.95 -13.05,-7.1 -25.13,4.25c-1.1,-3.14 -1.65,-5.51 -1.65,-5.51c13.21,-14.3 23.16,-9.8 27.44,-6.67c4.32,3.12 3.44,26.94 3.44,26.94Z" style="fill:#d6b496;fill-rule:nonzero;"/><path d="M133.14,141.37c0,4.6 -3.72,8.34 -8.3,8.34c-4.58,0 -8.29,-3.74 -8.29,-8.34c0,-4.61 3.71,-8.35 8.29,-8.35c4.58,0 8.3,3.74 8.3,8.35Z" style="fill:#482315;fill-rule:nonzero;"/><path d="M124.46,146.92c-2.4,-0.2 -4.24,-2.63 -4.02,-5.3c0.21,-2.67 2.42,-4.76 4.82,-4.56c2.39,0.2 4.23,2.62 4.02,5.3c-0.22,2.67 -2.43,4.76 -4.82,4.56Z" style="fill:#7e3a22;fill-rule:nonzero;"/><path d="M124.66,145.96c-1.66,-0.15 -3.39,-1.99 -3.21,-4.25c0.19,-2.27 2.19,-3.81 3.86,-3.67c1.66,0.14 3.39,1.99 3.21,4.26c-0.19,2.26 -2.19,3.79 -3.86,3.66Z" style="fill:#211a10;fill-rule:nonzero;"/><path d="M123.31,140.37c-0.07,0.82 -0.9,1.41 -1.86,1.34c-0.96,-0.09 -1.68,-0.82 -1.62,-1.63c0.07,-0.83 0.9,-1.42 1.86,-1.35c0.96,0.08 1.69,0.81 1.62,1.64Z" style="fill:#fff;fill-rule:nonzero;"/><path d="M128.69,145.1c-0.04,0.41 -0.45,0.71 -0.93,0.67c-0.48,-0.04 -0.84,-0.41 -0.81,-0.81c0.03,-0.41 0.45,-0.71 0.93,-0.67c0.48,0.04 0.84,0.4 0.81,0.81Z" style="fill:#fff;fill-rule:nonzero;"/><path d="M153.98,191.12" style="fill:#ba907b;fill-rule:nonzero;"/><path d="M153.98,191.12" style="fill:#ba907b;fill-rule:nonzero;"/><path d="M150.32,193.79c-0.11,-0.02 -0.21,-0.04 -0.31,-0.07c0.1,0.03 0.19,0.04 0.31,0.07Z" style="fill:#ba907b;fill-rule:nonzero;"/><path d="M153.98,193.59" style="fill:#ba907b;fill-rule:nonzero;"/><path d="M149.51,193.61c-0.09,-0.03 -0.18,-0.05 -0.28,-0.08l-0.01,0c0,0 0.11,0.03 0.29,0.08Z" style="fill:#ba907b;fill-rule:nonzero;"/><path d="M153.98,193.59" style="fill:#ba907b;fill-rule:nonzero;"/><path d="M153.87,190.75" style="fill:#bc917b;fill-rule:nonzero;"/><path d="M153.87,190.75" style="fill:#bc917b;fill-rule:nonzero;"/><path d="M149.94,193.22c-0.11,-0.03 -0.22,-0.05 -0.33,-0.07c0.11,0.02 0.2,0.04 0.33,0.07Z" style="fill:#bc917b;fill-rule:nonzero;"/><path d="M153.87,193" style="fill:#bc917b;fill-rule:nonzero;"/><path d="M149.08,193.02c-0.11,-0.02 -0.2,-0.05 -0.3,-0.08l-0.01,0c0,0 0.11,0.04 0.31,0.08Z" style="fill:#bc917b;fill-rule:nonzero;"/><path d="M153.87,193" style="fill:#bc917b;fill-rule:nonzero;"/><path d="M153.62,189.9" style="fill:#bc917b;fill-rule:nonzero;"/><path d="M153.62,189.9" style="fill:#bc917b;fill-rule:nonzero;"/><path d="M149.69,192.37c-0.11,-0.02 -0.22,-0.05 -0.33,-0.07c0.11,0.02 0.2,0.04 0.33,0.07Z" style="fill:#bc917b;fill-rule:nonzero;"/><path d="M153.62,192.16" style="fill:#bc917b;fill-rule:nonzero;"/><path d="M148.83,192.18c-0.1,-0.03 -0.2,-0.06 -0.3,-0.09l-0.01,0.01c0,0 0.12,0.03 0.31,0.08Z" style="fill:#bc917b;fill-rule:nonzero;"/><path d="M153.62,192.16" style="fill:#bc917b;fill-rule:nonzero;"/><path d="M154.26,189.68" style="fill:#bc917b;fill-rule:nonzero;"/><path d="M154.26,189.68" style="fill:#bc917b;fill-rule:nonzero;"/><path d="M150.46,192.25c-0.11,-0.02 -0.21,-0.04 -0.32,-0.06c0.11,0.02 0.2,0.04 0.32,0.06Z" style="fill:#bc917b;fill-rule:nonzero;"/><path d="M154.26,192.05" style="fill:#bc917b;fill-rule:nonzero;"/><path d="M149.63,192.07c-0.1,-0.03 -0.19,-0.06 -0.29,-0.08l-0.01,0c0,0 0.11,0.03 0.3,0.08Z" style="fill:#bc917b;fill-rule:nonzero;"/><path d="M154.26,192.05" style="fill:#bc917b;fill-rule:nonzero;"/><path d="M200.04,130.78c0,0 -4.91,20.25 -13.33,21.9c-8.43,1.66 -17.55,-1.63 -17.55,-1.63c0,0 -0.87,-23.8 3.44,-26.91c4.32,-3.12 14.25,-7.63 27.44,6.64Z" style="fill:#fff;fill-rule:nonzero;"/><path d="M169.15,150.99c0,0 0.19,0.05 0.63,0.24c0.1,-7.3 0.77,-17.33 3.47,-19.25c4.01,-2.95 13.05,-7.1 25.14,4.25c1.1,-3.13 1.65,-5.51 1.65,-5.51c-13.22,-14.3 -23.16,-9.8 -27.44,-6.67c-4.32,3.12 -3.45,26.94 -3.45,26.94Z" style="fill:#d6b496;fill-rule:nonzero;"/><path d="M174.14,140.68c0,4.6 3.71,8.34 8.29,8.34c4.58,0 8.3,-3.74 8.3,-8.34c0,-4.61 -3.72,-8.34 -8.3,-8.34c-4.58,0 -8.29,3.73 -8.29,8.34Z" style="fill:#482315;fill-rule:nonzero;"/><path d="M182.82,146.23c2.39,-0.2 4.23,-2.63 4.01,-5.3c-0.21,-2.67 -2.42,-4.76 -4.82,-4.56c-2.39,0.2 -4.23,2.62 -4.01,5.3c0.21,2.67 2.42,4.76 4.82,4.56Z" style="fill:#7e3a22;fill-rule:nonzero;"/><path d="M182.61,145.27c1.67,-0.15 3.4,-1.98 3.21,-4.25c-0.18,-2.27 -2.18,-3.81 -3.85,-3.67c-1.67,0.14 -3.4,1.99 -3.21,4.26c0.18,2.26 2.19,3.8 3.85,3.66Z" style="fill:#211a10;fill-rule:nonzero;"/><path d="M183.96,139.68c0.07,0.82 0.91,1.42 1.86,1.34c0.96,-0.09 1.69,-0.82 1.62,-1.63c-0.07,-0.82 -0.9,-1.42 -1.86,-1.34c-0.96,0.07 -1.68,0.81 -1.62,1.63Z" style="fill:#fff;fill-rule:nonzero;"/><path d="M178.58,144.42c0.04,0.4 0.46,0.7 0.93,0.66c0.49,-0.04 0.84,-0.4 0.81,-0.81c-0.03,-0.41 -0.45,-0.71 -0.92,-0.67c-0.49,0.04 -0.85,0.4 -0.82,0.82Z" style="fill:#fff;fill-rule:nonzero;"/><path d="M143.17,131.15c-0.06,-0.1 -1.59,-2.44 -4.71,-4.85c-1.96,-1.51 -3.88,-2.66 -5.87,-3.52c-2.42,-1.02 -5.03,-1.74 -7.56,-2.09c-2.28,-0.26 -4.81,-0.19 -7.76,0.21c-2.26,0.43 -4.46,1.11 -6.32,1.93c-1.33,0.47 -2.39,1.11 -3.23,1.63c-0.32,0.2 -0.62,0.38 -0.91,0.54l-4.03,2.55l4.64,-1.1c0.22,-0.05 0.45,-0.11 0.7,-0.18c0.96,-0.26 2.16,-0.57 3.56,-0.78c0.32,-0.05 0.66,-0.12 1,-0.18c0.58,-0.12 1.18,-0.24 1.82,-0.27c0.7,-0.05 1.43,-0.1 2.18,-0.16l0.97,-0.07c2.57,-0.03 4.74,0.17 6.67,0.61c2.1,0.37 4.27,1.05 6.26,1.98c1.87,0.9 3.67,1.8 5.07,2.83c2.84,1.9 4.41,3.49 4.43,3.5c0.39,0.4 0.91,0.6 1.43,0.6c0.38,0 0.76,-0.11 1.1,-0.33c0.93,-0.61 1.19,-1.88 0.6,-2.79l-0.04,-0.06Z" style="fill:#030405;fill-rule:nonzero;"/><path d="M200.87,124.99c-0.27,-0.15 -0.56,-0.33 -0.88,-0.53c-0.85,-0.52 -1.9,-1.16 -3.19,-1.61c-1.9,-0.84 -4.1,-1.52 -6.39,-1.95c-2.92,-0.4 -5.45,-0.47 -7.75,-0.21c-2.51,0.35 -5.12,1.07 -7.54,2.09c-1.96,0.85 -3.94,2.03 -5.87,3.52c-3.07,2.37 -4.59,4.66 -4.71,4.84l-0.03,0.04c-0.51,0.8 -0.4,1.88 0.27,2.55c0.38,0.39 0.89,0.6 1.42,0.6l0.01,0c0.53,0 1.04,-0.21 1.42,-0.6l0.02,-0.01c0.15,-0.15 1.68,-1.66 4.43,-3.5c1.38,-1.02 3.18,-1.92 5.05,-2.82c1.99,-0.93 4.15,-1.61 6.29,-1.98c1.9,-0.44 4.07,-0.64 6.61,-0.61l1.02,0.08c0.74,0.05 1.47,0.1 2.17,0.15c0.62,0.03 1.23,0.15 1.81,0.27c0.34,0.06 0.67,0.13 1,0.18c1.4,0.21 2.6,0.52 3.56,0.78c0.25,0.07 0.48,0.13 0.71,0.18l4.63,1.1l-4.06,-2.56Z" style="fill:#030405;fill-rule:nonzero;"/><path d="M152.69,199.09" style="fill:#be927b;fill-rule:nonzero;"/><path d="M152.69,199.09" style="fill:#be927b;fill-rule:nonzero;"/><path d="M148.86,196.19c-0.11,-0.03 -0.22,-0.05 -0.32,-0.07c0.1,0.02 0.2,0.04 0.32,0.07Z" style="fill:#be927b;fill-rule:nonzero;"/><path d="M152.69,195.98" style="fill:#be927b;fill-rule:nonzero;"/><path d="M148.02,196c-0.1,-0.03 -0.19,-0.06 -0.29,-0.08l-0.01,0c0,0 0.11,0.03 0.3,0.08Z" style="fill:#be927b;fill-rule:nonzero;"/><path d="M152.69,195.98" style="fill:#be927b;fill-rule:nonzero;"/><path d="M141.5,200.36c-0.25,-3.25 9.01,0.69 12.05,0.78c2.43,0.08 9.72,-0.48 10.39,-0.74c5.09,-1.92 -0.28,5.44 -10.54,5.83c-4.7,0.19 -11.76,-3.89 -11.9,-5.87Z" style="fill:#f0d2ad;fill-rule:nonzero;"/><path d="M171.64,194.09c-2.51,-0.13 -5.09,1.98 -8.12,1.66c-0.12,-0.06 -0.18,-0.06 -0.31,-0.06c-0.69,-0.13 -1.38,0 -2.14,0.18c-0.94,0.2 -1.88,0.58 -2.77,0.89c-1.51,0.5 -3.21,0.89 -4.97,0.76l0,0.01l-0.09,-0.01l-0.1,0.01l0,-0.01c-1.75,0.13 -3.46,-0.26 -4.97,-0.76c-0.88,-0.31 -1.83,-0.69 -2.77,-0.89c-0.75,-0.18 -1.44,-0.31 -2.14,-0.18c-0.13,0 -0.19,0 -0.31,0.06c-3.03,0.32 -5.61,-1.79 -8.12,-1.66c-0.7,0.06 -1.7,-0.13 -2.27,-0.13c0.12,0.07 0.25,0.13 0.38,0.19c7.17,3.51 13.35,10.09 20.2,9.88l0.19,0c6.85,0.21 13.03,-6.37 20.2,-9.88c0.13,-0.06 0.26,-0.12 0.38,-0.19c-0.56,0 -1.57,0.19 -2.27,0.13Z" style="fill:#dcbf9e;fill-rule:nonzero;"/><path d="M173.75,193.89c0,0 -7.29,-2.83 -12.47,-1.17c0,0 -1.93,0.76 -3.93,1.22c-1.21,0.47 -2.69,0.61 -4.11,0.55c-1.09,-0.04 -2.13,-0.18 -2.98,-0.33c-0.28,-0.04 -0.57,-0.1 -0.86,-0.16c-0.12,-0.03 -0.21,-0.05 -0.32,-0.07c-0.18,-0.04 -0.35,-0.08 -0.52,-0.12c-0.19,-0.05 -0.3,-0.08 -0.3,-0.08l0.01,0c-1.65,-0.45 -3.08,-1.01 -3.08,-1.01c-5.18,-1.66 -12.47,1.17 -12.47,1.17c-0.1,0.04 -0.16,0.07 -0.16,0.07c0.57,0 1.57,0.19 2.27,0.13c2.51,-0.13 5.09,1.98 8.12,1.66c0.12,-0.06 0.18,-0.06 0.31,-0.06c0.7,-0.13 1.39,0 2.14,0.18c0.94,0.2 1.89,0.58 2.77,0.89c1.51,0.5 3.22,0.89 4.97,0.76l0,0.01l0.1,-0.01l0.09,0.01l0,-0.01c1.76,0.13 3.46,-0.26 4.97,-0.76c0.89,-0.31 1.83,-0.69 2.77,-0.89c0.76,-0.18 1.45,-0.31 2.14,-0.18c0.13,0 0.19,0 0.31,0.06c3.03,0.32 5.61,-1.79 8.12,-1.66c0.7,0.06 1.71,-0.13 2.27,-0.13c0,0 -0.06,-0.03 -0.16,-0.07Z" style="fill:#c69f83;fill-rule:nonzero;"/><path d="M141,195.61c0.13,0.03 13.65,4.17 24.23,0.09l-1.22,-0.83l-14.3,0l-8.71,0.74Z" style="fill:#c69f83;fill-rule:nonzero;"/><path d="M207.08,291.54c0.11,3.981 0.25,7.18 0.39,9.49l-104.64,0c0.33,-5.2 0.68,-14.73 0.52,-27.6l-8.42,0c0.66,-2.64 1.42,-5.12 2.24,-7.409c7.19,-19.611 19.88,-26.811 26.9,-29.371c-0.03,0.21 -0.03,0.43 -0.03,0.64c0,11.34 13.46,20.54 30.04,20.54c16.59,0 30.04,-9.2 30.04,-20.54c0,-0.25 0,-0.5 -0.02,-0.72c0.35,0.12 0.7,0.26 1.07,0.41c7.16,2.8 19.18,10.19 26.07,29.041c0.84,2.289 1.6,4.769 2.26,7.409l-6.52,0c-0.1,7.11 -0.04,13.2 0.1,18.11Z" style="fill:#fcba13;fill-rule:nonzero;"/><path d="M171.15,216.64c-10.5,0.65 -13.13,-7.9 -13.13,-7.9c-0.97,-2.92 -2.74,-3.86 -4.59,-3.88l0,-0.01l-0.05,0l-0.04,0l0,0.01c-1.85,0.02 -3.62,0.96 -4.59,3.88c0,0 -2.63,8.55 -13.13,7.9c0,0 6.78,8.4 17.72,8.66l0,0.01l0.04,-0.01l0.05,0.01l0,-0.01c10.94,-0.26 17.72,-8.66 17.72,-8.66Z" style="fill:#343839;fill-rule:nonzero;"/><path d="M246.21,72.75c-0.22,0.57 -0.66,1.12 -1.27,1.65c0.84,-0.99 1.27,-1.65 1.27,-1.65c-1.36,0.89 -2.67,1.63 -3.94,2.31c-23.9,12.73 -30.56,-9.63 -30.56,-9.63c2.49,-21.08 28.15,-20.78 28.15,-20.78c0,0 -21.82,-10.54 -30.22,10.12c-1.12,-11.12 4.92,-21.92 4.92,-21.92c-9.74,2.07 -13.83,9.95 -15.54,16.67c-6.01,-11.55 0.21,-20.13 0.21,-20.13l-33.38,13.28c4.33,-3.45 11.11,-9.82 11.11,-9.82c0,0 -10.36,1.06 -26.36,5.6c-11.25,3.19 -17.98,8.85 -21.76,11.46l-0.1,-9.42c0,0 -16.35,11.25 -31.83,26.02c-15.48,14.76 -21.42,28.64 -21.42,44.26c0,15.6 6.94,31.24 11.5,35.89c4.54,4.64 3.09,11.38 4.45,11.38c0,0 3.28,0.12 2.79,-15.27c1.79,-17.47 9.84,-24.45 14.34,-27.01c7.91,-4.17 19.84,-4.93 37.68,4.12l-0.01,-0.03c11.02,6.42 15.45,-2.09 31.01,-6.39c26.53,-7.31 37.54,11.89 35.31,21.81c-3.42,15.26 1.34,24.04 3.16,23.63c0,0 0.07,-3.87 1.72,-7.32c4.9,-10.3 9.01,-3.14 9.77,-17.1c0.88,-16.33 3.75,-22.3 2.83,-31.03c-0.52,-4.93 -2.29,-10.81 -3.7,-14.91c17.82,-0.3 19.87,-15.79 19.87,-15.79Z" style="fill:#414042;fill-rule:nonzero;"/><path d="M184.12,237.29c0,11.34 -13.45,20.54 -30.04,20.54c-16.58,0 -30.04,-9.2 -30.04,-20.54c0,-0.21 0,-0.43 0.03,-0.64c0.53,-0.21 1.04,-0.37 1.52,-0.52c2.12,-0.66 3.43,-0.82 3.43,-0.82c0.25,0 0.44,-0.02 0.66,-0.06c4.61,6.23 13.17,15.18 24.4,15.41c2.49,0.06 5.11,-0.31 7.82,-1.22c5.66,-1.92 11.83,-6.19 18.37,-13.97l0.02,0c0.83,0.17 2.14,0.5 3.81,1.1c0.02,0.22 0.02,0.47 0.02,0.72Z" style="fill:#e48325;fill-rule:nonzero;"/></g></svg>