<?xml version="1.0" encoding="UTF-8" standalone="no"?><!DOCTYPE svg PUBLIC "-//W3C//DTD SVG 1.1//EN" "http://www.w3.org/Graphics/SVG/1.1/DTD/svg11.dtd"><svg width="100%" height="100%" viewBox="0 0 300 301" version="1.1" xmlns="http://www.w3.org/2000/svg" xmlns:xlink="http://www.w3.org/1999/xlink" xml:space="preserve" style="fill-rule:evenodd;clip-rule:evenodd;stroke-linejoin:round;stroke-miterlimit:1.41421;"><g id="_11"><rect x="0.28" y="0.39" width="299.369" height="300.48" style="fill:#a03f64;fill-rule:nonzero;"/><path d="M157.03,187.95l0,112.91l-60.72,0c-0.99,-0.39 -1.48,-0.6 -1.48,-0.6c0,-7.92 0.64,-14.87 1.73,-20.979c0.92,-5.01 2.14,-9.481 3.58,-13.421c3.21,-8.79 7.51,-15.079 11.93,-19.6c1.46,-1.49 2.94,-2.78 4.38,-3.9c2.45,-1.9 4.84,-3.32 6.98,-4.35c1.11,-0.56 2.16,-1.01 3.12,-1.36c0.33,-0.13 0.64,-0.25 0.95,-0.35c0.37,-0.13 0.7,-0.23 1.03,-0.33c0.93,-0.29 1.69,-0.5 2.26,-0.6c0.76,-0.19 1.2,-0.23 1.2,-0.23c0.22,0 0.43,-0.02 0.66,-0.06c1.91,-0.31 3.45,-1.98 4.71,-4.64c0.92,-1.98 1.7,-4.52 2.32,-7.43c0.25,-1.15 0.45,-2.29 0.66,-3.54c0.29,-2.09 0.58,-4.27 0.84,-6.56c0.09,-1.39 0.23,-2.73 0.39,-4.17c0.54,-6.91 0.68,-14.48 0.68,-21.64c0,0 8.17,0.85 14.78,0.85Z" style="fill:#e0bd9a;fill-rule:nonzero;"/><path d="M219.49,300.26c0,0 -0.54,0.21 -1.44,0.6l-61.02,0l0,-112.91l0.16,0c6.56,0 14.81,-0.85 14.81,-0.85c0,7.12 0.15,14.56 0.7,21.49c0.15,1.35 0.29,2.73 0.39,4.07c0.25,2.39 0.54,4.62 0.89,6.72l0,0.04c0.1,0.95 0.29,1.8 0.45,2.69c0.6,2.92 1.32,5.52 2.2,7.59c1.09,2.57 2.43,4.37 4.04,5.09c0.51,0.23 1.04,0.35 1.62,0.35c0,0 0.29,0.04 0.8,0.15c0.85,0.16 2.29,0.49 4.14,1.17c0.29,0.11 0.57,0.21 0.88,0.33c0.17,0.06 0.33,0.13 0.5,0.21c0.43,0.16 0.86,0.37 1.31,0.58c2.27,1.03 4.86,2.49 7.58,4.55c1.02,0.77 2.05,1.63 3.1,2.58l0,0.02c4.98,4.56 9.98,11.271 13.58,21.13c1.4,3.81 2.59,8.121 3.5,12.93c1.15,6.231 1.81,13.35 1.81,21.47Z" style="fill:#efd0ad;fill-rule:nonzero;"/><path d="M174.17,219.17l0,0.05c-1.53,2.37 -6.67,9.19 -16.85,9.19l-0.09,0c-9.64,-0.05 -15.27,-7.07 -16.71,-9.14c0.3,-2.08 0.6,-4.25 0.84,-6.52c0.1,-1.34 0.25,-2.72 0.4,-4.15c4.69,1.18 9.83,1.93 15.27,2.02l0.2,0c5.63,-0.09 10.82,-0.88 15.66,-2.17c0.15,1.33 0.3,2.72 0.39,4.05c0.25,2.37 0.55,4.59 0.89,6.67Z" style="fill:#be987f;fill-rule:nonzero;"/><path d="M156.53,59.28c-64.33,0 -64.68,54.09 -61.81,89.5c-4.4,-8.39 -17.49,-5.82 -16.41,7.41c1.04,12.75 19.75,19.24 19.22,17.83c9.75,26.2 35.53,45.94 59,45.94l0.5,0l0,-160.68l-0.5,0Z" style="fill:#d2a686;fill-rule:nonzero;"/><path d="M82.41,150.61c3.17,-5.14 8.11,-2.91 9.29,-1.78c1.29,1.24 2.33,2.82 1.53,5.83c-0.44,1.73 -2.22,1.88 -1.82,4.45c0.49,2.91 1.82,3.06 2.62,3.75c0.74,0.64 1.68,1.14 2.12,2.37c0.49,1.24 0.54,2.52 0.3,3.66c-0.5,2.07 -3.51,0.39 -5.54,-0.5c-1.33,-0.64 -5.58,-4.25 -6.67,-5.43c-2.67,-3.06 -3.95,-8.99 -1.83,-12.35Z" style="fill:#ac8774;fill-rule:nonzero;"/><path d="M156.88,59.28c64.34,0 64.68,54.09 61.86,89.5c4.4,-8.39 17.45,-5.82 16.36,7.41c-0.99,12.75 -19.73,19.25 -19.22,17.83c-9.49,26.2 -35.53,45.94 -59,45.94c-0.15,0 -0.35,0 -0.35,0l-0.14,-160.68c0,0 0.34,0 0.49,0Z" style="fill:#ddb598;fill-rule:nonzero;"/><path d="M231,150.61c-3.16,-5.14 -8.06,-2.91 -9.29,-1.78c-1.29,1.24 -2.27,2.82 -1.53,5.83c0.44,1.73 2.22,1.88 1.83,4.45c-0.5,2.91 -1.83,3.06 -2.57,3.75c-0.74,0.64 -1.73,1.14 -2.18,2.37c-0.44,1.24 -0.54,2.52 -0.29,3.66c0.49,2.07 3.5,0.39 5.53,-0.5c1.38,-0.64 5.58,-4.25 6.67,-5.43c2.72,-3.06 3.95,-8.99 1.83,-12.35Z" style="fill:#ac8774;fill-rule:nonzero;"/><path d="M156.03,74.55c-21.15,0 -36.67,6.17 -46.01,18.32c-13.09,17.04 -12.6,43.02 -7.8,61.69c1.48,5.73 2.27,21.09 3.26,26.72c4.59,25.24 32.31,38.68 50.55,38.68c0,0 0.34,0 0.49,0l0,-145.41c-0.15,0 -0.3,0 -0.3,0l-0.19,0Z" style="fill:#e0bd9a;fill-rule:nonzero;"/><path d="M201.98,92.92c-9.29,-12.1 -24.61,-18.28 -45.46,-18.37l0,145.41c20.85,-0.25 45.81,-14.97 50.06,-38.68c1.03,-5.63 1.78,-20.99 3.26,-26.72c4.84,-18.62 5.33,-44.55 -7.86,-61.64Z" style="fill:#efd0ad;fill-rule:nonzero;"/><path d="M156.71,191.44" style="fill:#bc917b;fill-rule:nonzero;"/><path d="M156.71,191.44" style="fill:#bc917b;fill-rule:nonzero;"/><path d="M153.15,194.18c-0.11,-0.02 -0.21,-0.04 -0.31,-0.06c0.1,0.02 0.19,0.04 0.31,0.06Z" style="fill:#bc917b;fill-rule:nonzero;"/><path d="M156.71,193.99" style="fill:#bc917b;fill-rule:nonzero;"/><path d="M152.36,194.01c-0.09,-0.03 -0.18,-0.05 -0.27,-0.08l-0.01,0c0,0 0.11,0.03 0.28,0.08Z" style="fill:#bc917b;fill-rule:nonzero;"/><path d="M156.71,193.99" style="fill:#bc917b;fill-rule:nonzero;"/><path d="M144.52,175.32c-0.25,-5.03 9.18,-1.84 12.28,-1.68c2.46,0.13 9.93,-1.58 10.57,-1.14c4.39,2.97 -4.66,8.98 -10.72,8.98c-1.62,0 -11.98,-3.13 -12.13,-6.16Z" style="fill:#ddb598;fill-rule:nonzero;"/><path d="M138.56,74.91l-0.27,0.27l0.05,0.09c0.09,-0.14 0.13,-0.27 0.22,-0.36Z" style="fill:#432e1b;fill-rule:nonzero;"/><path d="M97.6,126.15" style="fill:#432e1b;fill-rule:nonzero;"/><path d="M156.99,194.01" style="fill:#ba907b;fill-rule:nonzero;"/><path d="M156.99,194.01" style="fill:#ba907b;fill-rule:nonzero;"/><path d="M153.32,191.23c-0.1,-0.02 -0.21,-0.04 -0.31,-0.06c0.1,0.02 0.19,0.04 0.31,0.06Z" style="fill:#ba907b;fill-rule:nonzero;"/><path d="M156.99,191.03" style="fill:#ba907b;fill-rule:nonzero;"/><path d="M152.52,191.05c-0.1,-0.02 -0.19,-0.05 -0.28,-0.08l-0.01,0.01c0,0 0.11,0.03 0.29,0.07Z" style="fill:#ba907b;fill-rule:nonzero;"/><path d="M156.99,191.03" style="fill:#ba907b;fill-rule:nonzero;"/><path d="M110.37,131.3c0,0 4.91,20.25 13.33,21.9c8.43,1.66 17.55,-1.63 17.55,-1.63c0,0 0.87,-23.8 -3.44,-26.91c-4.31,-3.12 -14.25,-7.63 -27.44,6.64Z" style="fill:#fff;fill-rule:nonzero;"/><path d="M141.26,151.51c0,0 -0.19,0.06 -0.62,0.24c-0.11,-7.3 -0.78,-17.33 -3.48,-19.25c-4,-2.95 -13.05,-7.1 -25.14,4.25c-1.09,-3.13 -1.65,-5.51 -1.65,-5.51c13.22,-14.3 23.16,-9.8 27.44,-6.67c4.32,3.12 3.45,26.94 3.45,26.94Z" style="fill:#d6b496;fill-rule:nonzero;"/><path d="M136.27,141.2c0,4.6 -3.71,8.34 -8.29,8.34c-4.58,0 -8.3,-3.74 -8.3,-8.34c0,-4.61 3.72,-8.34 8.3,-8.34c4.58,0 8.29,3.73 8.29,8.34Z" style="fill:#482315;fill-rule:nonzero;"/><path d="M127.59,146.75c-2.39,-0.2 -4.23,-2.63 -4.01,-5.3c0.21,-2.67 2.42,-4.76 4.82,-4.56c2.39,0.2 4.23,2.62 4.02,5.3c-0.22,2.67 -2.43,4.76 -4.83,4.56Z" style="fill:#7e3a22;fill-rule:nonzero;"/><path d="M127.8,145.79c-1.67,-0.14 -3.4,-1.98 -3.21,-4.25c0.18,-2.27 2.19,-3.81 3.85,-3.67c1.67,0.14 3.4,1.99 3.21,4.26c-0.18,2.27 -2.19,3.8 -3.85,3.66Z" style="fill:#211a10;fill-rule:nonzero;"/><path d="M126.45,140.2c-0.07,0.82 -0.91,1.42 -1.86,1.34c-0.96,-0.09 -1.69,-0.82 -1.62,-1.63c0.07,-0.82 0.9,-1.42 1.86,-1.34c0.96,0.07 1.68,0.81 1.62,1.63Z" style="fill:#fff;fill-rule:nonzero;"/><path d="M131.83,144.94c-0.04,0.4 -0.46,0.7 -0.93,0.66c-0.49,-0.03 -0.84,-0.4 -0.81,-0.81c0.03,-0.41 0.45,-0.71 0.93,-0.67c0.48,0.04 0.84,0.4 0.81,0.82Z" style="fill:#fff;fill-rule:nonzero;"/><path d="M157.12,190.95" style="fill:#ba907b;fill-rule:nonzero;"/><path d="M157.12,190.95" style="fill:#ba907b;fill-rule:nonzero;"/><path d="M153.45,193.62c-0.1,-0.02 -0.2,-0.04 -0.31,-0.07c0.11,0.03 0.19,0.05 0.31,0.07Z" style="fill:#ba907b;fill-rule:nonzero;"/><path d="M157.12,193.42" style="fill:#ba907b;fill-rule:nonzero;"/><path d="M152.65,193.44c-0.1,-0.03 -0.18,-0.05 -0.28,-0.08l-0.01,0.01c0,0 0.11,0.03 0.29,0.07Z" style="fill:#ba907b;fill-rule:nonzero;"/><path d="M157.12,193.42" style="fill:#ba907b;fill-rule:nonzero;"/><path d="M157.01,190.58" style="fill:#bc917b;fill-rule:nonzero;"/><path d="M157,190.58l0.01,0l-0.01,0Z" style="fill:#bc917b;fill-rule:nonzero;"/><path d="M153.08,193.05c-0.11,-0.03 -0.23,-0.05 -0.34,-0.07c0.11,0.02 0.21,0.04 0.34,0.07Z" style="fill:#bc917b;fill-rule:nonzero;"/><path d="M157.01,192.84" style="fill:#bc917b;fill-rule:nonzero;"/><path d="M152.21,192.85c-0.1,-0.02 -0.19,-0.05 -0.29,-0.08l-0.01,0.01c0,0 0.11,0.03 0.3,0.07Z" style="fill:#bc917b;fill-rule:nonzero;"/><path d="M157,192.84l0.01,0l-0.01,0Z" style="fill:#bc917b;fill-rule:nonzero;"/><path d="M156.76,189.73" style="fill:#bc917b;fill-rule:nonzero;"/><path d="M156.76,189.73" style="fill:#bc917b;fill-rule:nonzero;"/><path d="M152.83,192.2c-0.11,-0.02 -0.22,-0.04 -0.33,-0.07c0.1,0.02 0.2,0.05 0.33,0.07Z" style="fill:#bc917b;fill-rule:nonzero;"/><path d="M156.76,191.99" style="fill:#bc917b;fill-rule:nonzero;"/><path d="M151.97,192.01c-0.11,-0.03 -0.2,-0.06 -0.3,-0.09l-0.01,0.01c0,0 0.11,0.03 0.31,0.08Z" style="fill:#bc917b;fill-rule:nonzero;"/><path d="M156.76,191.99" style="fill:#bc917b;fill-rule:nonzero;"/><path d="M157.4,189.52" style="fill:#bc917b;fill-rule:nonzero;"/><path d="M157.4,189.52" style="fill:#bc917b;fill-rule:nonzero;"/><path d="M153.6,192.09c-0.11,-0.03 -0.22,-0.05 -0.32,-0.07c0.1,0.02 0.2,0.04 0.32,0.07Z" style="fill:#bc917b;fill-rule:nonzero;"/><path d="M157.4,191.88" style="fill:#bc917b;fill-rule:nonzero;"/><path d="M152.76,191.9c-0.09,-0.03 -0.19,-0.06 -0.28,-0.08l-0.01,0c0,0 0.11,0.03 0.29,0.08Z" style="fill:#bc917b;fill-rule:nonzero;"/><path d="M157.4,191.88" style="fill:#bc917b;fill-rule:nonzero;"/><path d="M203.18,130.61c0,0 -4.91,20.25 -13.34,21.91c-8.42,1.65 -17.54,-1.64 -17.54,-1.64c0,0 -0.87,-23.8 3.44,-26.91c4.31,-3.12 14.25,-7.63 27.44,6.64Z" style="fill:#fff;fill-rule:nonzero;"/><path d="M172.29,150.82c0,0 0.19,0.06 0.62,0.24c0.11,-7.3 0.78,-17.33 3.48,-19.25c4,-2.95 13.05,-7.1 25.13,4.25c1.1,-3.13 1.65,-5.51 1.65,-5.51c-13.21,-14.3 -23.16,-9.8 -27.44,-6.67c-4.32,3.12 -3.44,26.94 -3.44,26.94Z" style="fill:#d6b496;fill-rule:nonzero;"/><path d="M177.28,140.51c0,4.6 3.71,8.34 8.29,8.34c4.58,0 8.29,-3.74 8.29,-8.34c0,-4.61 -3.71,-8.34 -8.29,-8.34c-4.58,0 -8.29,3.73 -8.29,8.34Z" style="fill:#482315;fill-rule:nonzero;"/><path d="M185.95,146.06c2.4,-0.2 4.24,-2.63 4.02,-5.3c-0.21,-2.67 -2.42,-4.76 -4.82,-4.56c-2.39,0.2 -4.23,2.63 -4.02,5.3c0.22,2.67 2.43,4.76 4.82,4.56Z" style="fill:#7e3a22;fill-rule:nonzero;"/><path d="M185.75,145.1c1.66,-0.14 3.39,-1.98 3.21,-4.25c-0.19,-2.27 -2.19,-3.81 -3.86,-3.67c-1.66,0.14 -3.39,1.99 -3.21,4.26c0.19,2.27 2.19,3.8 3.86,3.66Z" style="fill:#211a10;fill-rule:nonzero;"/><path d="M187.1,139.51c0.07,0.82 0.9,1.42 1.86,1.34c0.96,-0.08 1.68,-0.82 1.62,-1.63c-0.07,-0.82 -0.9,-1.42 -1.86,-1.34c-0.96,0.08 -1.69,0.81 -1.62,1.63Z" style="fill:#fff;fill-rule:nonzero;"/><path d="M181.72,144.25c0.04,0.4 0.45,0.7 0.93,0.66c0.48,-0.03 0.84,-0.4 0.81,-0.81c-0.03,-0.41 -0.45,-0.71 -0.93,-0.67c-0.48,0.04 -0.84,0.41 -0.81,0.82Z" style="fill:#fff;fill-rule:nonzero;"/><path d="M146.31,130.98c-0.06,-0.1 -1.59,-2.44 -4.72,-4.85c-1.96,-1.51 -3.88,-2.66 -5.87,-3.52c-2.42,-1.02 -5.02,-1.74 -7.55,-2.09c-2.28,-0.25 -4.81,-0.19 -7.77,0.21c-2.25,0.43 -4.45,1.11 -6.32,1.94c-1.33,0.46 -2.38,1.1 -3.22,1.63c-0.33,0.19 -0.62,0.37 -0.92,0.54l-4.02,2.54l4.64,-1.09c0.21,-0.06 0.45,-0.12 0.7,-0.19c0.96,-0.25 2.15,-0.57 3.55,-0.78c0.33,-0.05 0.66,-0.11 1,-0.18c0.59,-0.12 1.19,-0.24 1.82,-0.27c0.71,-0.05 1.43,-0.1 2.18,-0.15l0.98,-0.08c2.57,-0.03 4.74,0.17 6.66,0.61c2.11,0.37 4.28,1.05 6.26,1.98c1.88,0.9 3.68,1.8 5.08,2.83c2.83,1.9 4.41,3.49 4.42,3.51c0.39,0.39 0.91,0.59 1.44,0.59c0.38,0 0.76,-0.1 1.09,-0.33c0.94,-0.61 1.2,-1.88 0.6,-2.79l-0.03,-0.06Z" style="fill:#030405;fill-rule:nonzero;"/><path d="M204.01,124.82c-0.27,-0.15 -0.56,-0.33 -0.89,-0.53c-0.84,-0.52 -1.89,-1.16 -3.18,-1.61c-1.91,-0.84 -4.11,-1.52 -6.39,-1.95c-2.93,-0.4 -5.46,-0.47 -7.75,-0.21c-2.51,0.35 -5.12,1.07 -7.54,2.09c-1.97,0.85 -3.94,2.03 -5.87,3.52c-3.07,2.37 -4.6,4.66 -4.71,4.84l-0.03,0.04c-0.52,0.8 -0.41,1.88 0.26,2.56c0.38,0.38 0.89,0.59 1.43,0.59c0.54,0 1.05,-0.21 1.43,-0.59l0.01,-0.02c0.15,-0.15 1.68,-1.66 4.43,-3.5c1.38,-1.02 3.18,-1.92 5.05,-2.82c1.99,-0.93 4.16,-1.61 6.3,-1.98c1.9,-0.44 4.07,-0.63 6.6,-0.61l1.03,0.08c0.74,0.05 1.46,0.1 2.17,0.15c0.62,0.03 1.22,0.15 1.81,0.27c0.34,0.07 0.67,0.13 1,0.18c1.4,0.21 2.59,0.53 3.55,0.78c0.25,0.07 0.49,0.13 0.71,0.19l4.64,1.09l-4.06,-2.56Z" style="fill:#030405;fill-rule:nonzero;"/><path d="M155.83,198.92" style="fill:#be927b;fill-rule:nonzero;"/><path d="M155.83,198.92" style="fill:#be927b;fill-rule:nonzero;"/><path d="M152,196.02c-0.11,-0.03 -0.22,-0.05 -0.33,-0.07c0.11,0.02 0.2,0.04 0.33,0.07Z" style="fill:#be927b;fill-rule:nonzero;"/><path d="M155.83,195.81" style="fill:#be927b;fill-rule:nonzero;"/><path d="M151.15,195.83c-0.1,-0.03 -0.19,-0.06 -0.29,-0.08l-0.01,0c0,0 0.12,0.03 0.3,0.08Z" style="fill:#be927b;fill-rule:nonzero;"/><path d="M155.83,195.81" style="fill:#be927b;fill-rule:nonzero;"/><path d="M144.63,200.2c-0.24,-3.26 9.02,0.68 12.06,0.77c2.43,0.08 9.71,-0.48 10.39,-0.74c5.09,-1.91 -0.28,5.44 -10.54,5.83c-4.7,0.19 -11.77,-3.89 -11.91,-5.86Z" style="fill:#f0d2ad;fill-rule:nonzero;"/><path d="M174.78,193.92c-2.51,-0.13 -5.1,1.98 -8.12,1.66c-0.12,-0.06 -0.18,-0.06 -0.31,-0.06c-0.7,-0.13 -1.39,0 -2.14,0.18c-0.94,0.2 -1.89,0.58 -2.77,0.89c-1.51,0.5 -3.22,0.89 -4.97,0.76l0,0.01l-0.1,-0.01l-0.1,0.01l0,-0.01c-1.75,0.13 -3.45,-0.26 -4.96,-0.76c-0.89,-0.31 -1.83,-0.69 -2.77,-0.89c-0.76,-0.18 -1.45,-0.31 -2.14,-0.18c-0.13,0 -0.19,0 -0.32,0.06c-3.02,0.32 -5.6,-1.79 -8.11,-1.66c-0.7,0.06 -1.71,-0.13 -2.27,-0.13c0.12,0.07 0.25,0.13 0.38,0.19c7.17,3.51 13.35,10.09 20.19,9.88l0.2,0c6.85,0.21 13.03,-6.37 20.2,-9.88c0.12,-0.06 0.25,-0.12 0.38,-0.19c-0.57,0 -1.58,0.19 -2.27,0.13Z" style="fill:#dcbf9e;fill-rule:nonzero;"/><path d="M176.88,193.72l0.01,0c0,0 -7.29,-2.82 -12.47,-1.17c0,0 -1.93,0.76 -3.93,1.22c-1.22,0.48 -2.69,0.61 -4.12,0.56c-1.09,-0.05 -2.12,-0.19 -2.98,-0.34c-0.28,-0.04 -0.56,-0.1 -0.85,-0.16c-0.12,-0.03 -0.22,-0.05 -0.32,-0.07c-0.18,-0.04 -0.35,-0.07 -0.52,-0.12c-0.19,-0.05 -0.3,-0.08 -0.3,-0.08l0.01,0c-1.66,-0.45 -3.08,-1.01 -3.08,-1.01c-5.18,-1.65 -12.47,1.17 -12.47,1.17c-0.1,0.04 -0.16,0.07 -0.16,0.07c0.56,0 1.57,0.19 2.27,0.13c2.51,-0.13 5.09,1.98 8.11,1.66c0.13,-0.06 0.19,-0.06 0.32,-0.06c0.69,-0.13 1.38,0 2.14,0.18c0.94,0.2 1.88,0.58 2.77,0.89c1.51,0.5 3.21,0.89 4.96,0.76l0,0.01l0.1,-0.01l0.1,0.01l0,-0.01c1.75,0.13 3.46,-0.26 4.97,-0.76c0.88,-0.31 1.83,-0.69 2.77,-0.89c0.75,-0.18 1.44,-0.31 2.14,-0.18c0.13,0 0.19,0 0.31,0.06c3.02,0.32 5.61,-1.79 8.12,-1.66c0.69,0.06 1.7,-0.13 2.27,-0.13c0,0 -0.06,-0.03 -0.17,-0.07Z" style="fill:#c69f83;fill-rule:nonzero;"/><path d="M144.13,195.44c0.14,0.03 13.66,4.17 24.23,0.09l-1.21,-0.83l-14.3,0l-8.72,0.74Z" style="fill:#c69f83;fill-rule:nonzero;"/><path d="M101.25,151c-0.9,-2.92 -1.33,-5.99 -1.45,-9.14l-0.01,0c-0.01,-0.2 -0.02,-0.4 -0.02,-0.6c0.38,3.35 0.93,6.61 1.6,9.7c-0.04,0.02 -0.08,0.03 -0.12,0.04Z" style="fill:#766359;fill-rule:nonzero;"/><path d="M101.37,150.96c-0.67,-3.09 -1.22,-6.35 -1.6,-9.7c-0.02,-0.66 0.02,-1.31 0.08,-1.93c0.02,-0.5 0.09,-1 0.23,-1.47c0.13,-0.68 0.28,-1.27 0.4,-1.71c0.03,-0.15 0.07,-0.31 0.13,-0.49l0.09,-0.21c0.03,-0.11 0.05,-0.17 0.05,-0.17l0.01,0.01c1.59,-4.11 4.87,-6.21 9.12,-7.19c1.55,-0.36 3.11,-0.65 4.67,-0.87c-1.35,1.13 -2.75,2.46 -4.18,4.01c0,0 0.01,0.01 0.01,0.04c0,0.01 -0.01,0.01 -0.01,0.02c0,0 2.33,9.61 6.53,16.13c-5.27,0.67 -10.23,1.85 -14.77,3.29c-0.03,0.01 -0.05,0.02 -0.08,0.02c-0.23,0.08 -0.46,0.15 -0.68,0.22Zm44.83,-1.02c-0.06,-0.03 -0.13,-0.05 -0.19,-0.07c-0.17,-0.05 -0.33,-0.1 -0.5,-0.15c-1.4,-0.44 -2.8,-0.81 -4.19,-1.14c0.05,-4.13 -0.02,-11.77 -0.95,-17.4c1.83,1.37 2.83,2.37 2.84,2.39c0.39,0.39 0.91,0.59 1.44,0.59c0.38,0 0.76,-0.1 1.09,-0.33c0.14,-0.09 0.26,-0.19 0.37,-0.31c0.87,1.17 1.48,2.52 1.76,4.1c0.64,3.6 0.06,7.11 -1.06,10.54c-0.19,0.59 -0.39,1.19 -0.61,1.78Z" style="fill:#7b6c60;fill-rule:nonzero;"/><path d="M140.55,148.4c-2.31,-0.51 -4.6,-0.89 -6.87,-1.15c1.6,-1.52 2.59,-3.67 2.59,-6.05c0,-4.61 -3.71,-8.34 -8.29,-8.34c-4.58,0 -8.3,3.73 -8.3,8.34c0,2.23 0.88,4.26 2.3,5.75c-1.72,0.1 -3.42,0.26 -5.08,0.48c-4.2,-6.52 -6.53,-16.13 -6.53,-16.13c0,-0.01 0.01,-0.01 0.01,-0.02c0.09,0.34 0.63,2.59 1.64,5.47c6.07,-5.69 11.37,-7.49 15.65,-7.49c4.25,0 7.5,1.77 9.49,3.24c2.3,1.64 3.13,9.19 3.39,15.9Z" style="fill:#858285;fill-rule:nonzero;"/><path d="M141.32,148.58c-0.26,-0.06 -0.51,-0.12 -0.77,-0.18c-0.26,-6.71 -1.09,-14.26 -3.39,-15.9c-1.99,-1.47 -5.24,-3.24 -9.49,-3.24c-4.28,0 -9.58,1.8 -15.65,7.49c-1.01,-2.88 -1.55,-5.13 -1.64,-5.47c0,-0.03 -0.01,-0.04 -0.01,-0.04c1.43,-1.55 2.83,-2.88 4.18,-4.01c3.01,-0.44 6.04,-0.63 9.07,-0.63c2.67,0 5.35,0.15 8.04,0.43c0.74,0.07 1.47,0.16 2.2,0.27c1.82,0.88 3.56,1.75 4.93,2.76c0.58,0.39 1.11,0.77 1.58,1.12c0.93,5.63 1,13.27 0.95,17.4Z" style="fill:#77685f;fill-rule:nonzero;"/><path d="M133.68,147.25c-2.55,-0.28 -5.07,-0.42 -7.55,-0.42l-0.01,0c-0.01,0 -0.02,0 -0.03,0c-1.38,0 -2.76,0.05 -4.11,0.12c-1.42,-1.49 -2.3,-3.52 -2.3,-5.75c0,-4.61 3.72,-8.34 8.3,-8.34c4.58,0 8.29,3.73 8.29,8.34c0,2.38 -0.99,4.53 -2.59,6.05Zm-10.07,-6.07c-0.02,0.09 -0.03,0.18 -0.03,0.27c-0.22,2.67 1.62,5.1 4.01,5.3c0.11,0.01 0.22,0.01 0.32,0.01c1.07,0 2.07,-0.44 2.87,-1.17c0.04,0 0.08,0.01 0.12,0.01c0.03,0.01 0.05,0.01 0.08,0.01c0.44,0 0.81,-0.29 0.85,-0.67c0.01,-0.17 -0.04,-0.34 -0.15,-0.47c0.41,-0.67 0.67,-1.45 0.74,-2.28c0.21,-2.68 -1.63,-5.1 -4.02,-5.3c-0.11,-0.01 -0.22,-0.01 -0.32,-0.01c-1.29,0 -2.5,0.65 -3.35,1.68c-0.02,0 -0.05,0 -0.07,0c-0.89,0 -1.63,0.57 -1.69,1.35c-0.04,0.5 0.21,0.96 0.64,1.27Z" style="fill:#35201a;fill-rule:nonzero;"/><path d="M127.91,146.76c-0.1,0 -0.21,0 -0.32,-0.01c-2.39,-0.2 -4.23,-2.63 -4.01,-5.3c0,-0.09 0.01,-0.18 0.03,-0.27c0.27,0.19 0.6,0.32 0.98,0.36c-0.19,2.27 1.54,4.11 3.21,4.25c0.07,0 0.14,0.01 0.21,0.01c0.71,0 1.46,-0.29 2.1,-0.79c0.07,0.28 0.33,0.51 0.67,0.58c-0.8,0.73 -1.8,1.17 -2.87,1.17Zm3.77,-2.29c-0.14,-0.19 -0.38,-0.33 -0.66,-0.35c-0.03,0 -0.06,0 -0.08,0c0.39,-0.56 0.65,-1.24 0.71,-1.99c0.19,-2.27 -1.54,-4.12 -3.21,-4.26c-0.07,0 -0.14,-0.01 -0.21,-0.01c-0.83,0 -1.71,0.4 -2.41,1.07c-0.27,-0.2 -0.61,-0.33 -0.99,-0.36c-0.03,-0.01 -0.07,-0.01 -0.1,-0.01c0.85,-1.03 2.06,-1.68 3.35,-1.68c0.1,0 0.21,0 0.32,0.01c2.39,0.2 4.23,2.62 4.02,5.3c-0.07,0.83 -0.33,1.61 -0.74,2.28Z" style="fill:#512f24;fill-rule:nonzero;"/><path d="M128.01,145.8c-0.07,0 -0.14,-0.01 -0.21,-0.01c-1.67,-0.14 -3.4,-1.98 -3.21,-4.25c0.05,0 0.11,0 0.17,0c0.88,0 1.62,-0.57 1.69,-1.34c0.04,-0.5 -0.21,-0.96 -0.63,-1.27c0.7,-0.67 1.58,-1.07 2.41,-1.07c0.07,0 0.14,0.01 0.21,0.01c1.67,0.14 3.4,1.99 3.21,4.26c-0.06,0.75 -0.32,1.43 -0.71,1.99l-0.01,0c-0.44,0 -0.81,0.29 -0.84,0.67c-0.01,0.07 0,0.15 0.02,0.22c-0.64,0.5 -1.39,0.79 -2.1,0.79Z" style="fill:#1d1916;fill-rule:nonzero;"/><path d="M124.76,141.54c-0.06,0 -0.12,0 -0.17,0c-0.38,-0.04 -0.71,-0.17 -0.98,-0.36c-0.43,-0.31 -0.68,-0.77 -0.64,-1.27c0.06,-0.78 0.8,-1.35 1.69,-1.35c0.02,0 0.05,0 0.07,0c0.03,0 0.07,0 0.1,0.01c0.38,0.03 0.72,0.16 0.99,0.36c0.42,0.31 0.67,0.77 0.63,1.27c-0.07,0.77 -0.81,1.34 -1.69,1.34Z" style="fill:#858285;fill-rule:nonzero;"/><path d="M130.98,145.61c-0.03,0 -0.05,0 -0.08,-0.01c-0.04,0 -0.08,-0.01 -0.12,-0.01c-0.34,-0.07 -0.6,-0.3 -0.67,-0.58c-0.02,-0.07 -0.03,-0.15 -0.02,-0.22c0.03,-0.38 0.4,-0.67 0.84,-0.67l0.09,0c0.28,0.02 0.52,0.16 0.66,0.35c0.11,0.13 0.16,0.3 0.15,0.47c-0.04,0.38 -0.41,0.67 -0.85,0.67Z" style="fill:#858285;fill-rule:nonzero;"/><path d="M144.65,134.16c-0.53,0 -1.05,-0.2 -1.44,-0.59c-0.01,-0.02 -1.01,-1.02 -2.84,-2.39c-0.47,-0.35 -1,-0.73 -1.58,-1.12c-1.37,-1.01 -3.11,-1.88 -4.93,-2.76c3.07,0.46 6.04,1.27 8.71,3.01c1.4,0.92 2.61,1.97 3.54,3.21c-0.11,0.12 -0.23,0.22 -0.37,0.31c-0.33,0.23 -0.71,0.33 -1.09,0.33Z" style="fill:#090b0c;fill-rule:nonzero;"/><path d="M213.39,152.33c-0.04,-0.02 -0.08,-0.03 -0.12,-0.05c-0.86,-0.32 -1.75,-0.64 -2.65,-0.94c1.28,-5.79 2.14,-12.14 2.31,-18.63c0.55,0.76 1.02,1.61 1.39,2.58l0.01,-0.01c0,0 0.02,0.06 0.06,0.17l0.08,0.21c0.06,0.18 0.11,0.34 0.13,0.49c0.13,0.44 0.28,1.03 0.41,1.71c0.13,0.47 0.2,0.97 0.22,1.47c0.09,0.81 0.13,1.67 0.06,2.53c-0.14,3.63 -0.69,7.16 -1.9,10.47Z" style="fill:#7a6960;fill-rule:nonzero;"/><path d="M210.62,151.34c-4.47,-1.52 -9.39,-2.82 -14.63,-3.63c4.62,-6.49 7.19,-17.1 7.19,-17.1c-0.01,0 -0.01,-0.01 -0.02,-0.02c0.01,-0.03 0.01,-0.04 0.01,-0.04c-1.19,-1.3 -2.37,-2.44 -3.51,-3.44c1.85,0.24 3.7,0.57 5.54,0.99c3.26,0.75 5.94,2.16 7.73,4.61c-0.17,6.49 -1.03,12.84 -2.31,18.63Zm-42.12,-2.5c-0.08,-0.23 -0.15,-0.46 -0.23,-0.68c-1.11,-3.43 -1.69,-6.94 -1.06,-10.54c0.24,-1.36 0.73,-2.54 1.41,-3.59c0.23,0.09 0.47,0.13 0.72,0.13c0.54,0 1.05,-0.21 1.43,-0.59l0.01,-0.02c0.11,-0.1 0.86,-0.85 2.22,-1.91c-0.77,5.54 -0.82,12.54 -0.77,16.37c-0.94,0.18 -1.88,0.38 -2.82,0.6c-0.01,0 -0.02,0.01 -0.04,0.01c-0.07,0.02 -0.15,0.04 -0.22,0.06c-0.22,0.05 -0.44,0.1 -0.65,0.16Z" style="fill:#807368;fill-rule:nonzero;"/><path d="M172.99,147.86c0.26,-6.75 1.08,-14.4 3.4,-16.05c1.99,-1.47 5.24,-3.24 9.49,-3.24c4.28,0 9.58,1.8 15.64,7.49c1.01,-2.88 1.56,-5.12 1.64,-5.47c0.01,0.01 0.01,0.02 0.02,0.02c0,0 -2.57,10.61 -7.19,17.1c-1.74,-0.27 -3.51,-0.48 -5.31,-0.63c1.94,-1.53 3.18,-3.9 3.18,-6.57c0,-4.61 -3.71,-8.34 -8.29,-8.34c-4.58,0 -8.29,3.73 -8.29,8.34c0,2.61 1.19,4.94 3.05,6.47c-2.41,0.15 -4.86,0.44 -7.34,0.88Z" style="fill:#858285;fill-rule:nonzero;"/><path d="M172.23,148.01c-0.05,-3.83 0,-10.83 0.77,-16.37c0.62,-0.47 1.35,-1.02 2.21,-1.59c1.19,-0.88 2.7,-1.67 4.29,-2.45c1.29,-0.26 2.6,-0.44 3.93,-0.57c2.68,-0.28 5.36,-0.43 8.03,-0.43c2.75,0 5.48,0.16 8.2,0.51c1.14,1 2.32,2.14 3.51,3.44c0,0 0,0.01 -0.01,0.04c-0.08,0.35 -0.63,2.59 -1.64,5.47c-6.06,-5.69 -11.36,-7.49 -15.64,-7.49c-4.25,0 -7.5,1.77 -9.49,3.24c-2.32,1.65 -3.14,9.3 -3.4,16.05c-0.25,0.05 -0.51,0.1 -0.76,0.15Z" style="fill:#77685f;fill-rule:nonzero;"/><path d="M190.68,147.08c-1.94,-0.16 -3.91,-0.25 -5.9,-0.25c-0.01,0 -0.02,0 -0.02,0c-0.01,0 -0.02,0 -0.02,0c-1.46,0 -2.92,0.05 -4.41,0.15c-1.86,-1.53 -3.05,-3.86 -3.05,-6.47c0,-4.61 3.71,-8.34 8.29,-8.34c4.58,0 8.29,3.73 8.29,8.34c0,2.67 -1.24,5.04 -3.18,6.57Zm-7.91,-2.18c0.79,0.73 1.8,1.18 2.86,1.18c0.11,0 0.22,-0.01 0.32,-0.02c2.4,-0.2 4.24,-2.63 4.02,-5.3c-0.01,-0.09 -0.02,-0.18 -0.03,-0.27c0.42,-0.31 0.68,-0.77 0.64,-1.27c-0.07,-0.77 -0.81,-1.35 -1.69,-1.35c-0.03,0 -0.05,0 -0.08,0c-0.84,-1.03 -2.05,-1.68 -3.34,-1.68c-0.1,0 -0.21,0 -0.32,0.01c-2.39,0.2 -4.23,2.63 -4.02,5.3c0.07,0.83 0.33,1.61 0.73,2.28c-0.1,0.13 -0.15,0.3 -0.14,0.47c0.03,0.38 0.4,0.67 0.84,0.67c0.03,0 0.06,0 0.09,-0.01c0.04,0 0.08,0 0.12,-0.01Z" style="fill:#35201a;fill-rule:nonzero;"/><path d="M185.63,146.08c-1.06,0 -2.07,-0.45 -2.86,-1.18c0.34,-0.07 0.59,-0.3 0.67,-0.58c0.64,0.5 1.39,0.79 2.1,0.79c0.07,0 0.14,-0.01 0.21,-0.01c1.66,-0.14 3.39,-1.98 3.21,-4.25c0.37,-0.03 0.71,-0.16 0.98,-0.36c0.01,0.09 0.02,0.18 0.03,0.27c0.22,2.67 -1.62,5.1 -4.02,5.3c-0.1,0.01 -0.21,0.02 -0.32,0.02Zm-3.77,-2.3c-0.4,-0.67 -0.66,-1.45 -0.73,-2.28c-0.21,-2.67 1.63,-5.1 4.02,-5.3c0.11,-0.01 0.22,-0.01 0.32,-0.01c1.29,0 2.5,0.65 3.34,1.68c-0.03,0 -0.06,0 -0.09,0.01c-0.38,0.03 -0.72,0.16 -1,0.36c-0.69,-0.67 -1.58,-1.07 -2.41,-1.07c-0.07,0 -0.14,0.01 -0.21,0.01c-1.66,0.14 -3.39,1.99 -3.21,4.26c0.07,0.76 0.33,1.43 0.72,1.99c-0.03,0 -0.05,0 -0.08,0c-0.28,0.02 -0.52,0.16 -0.67,0.35Z" style="fill:#512f24;fill-rule:nonzero;"/><path d="M185.54,145.11c-0.71,0 -1.46,-0.29 -2.1,-0.79c0.02,-0.07 0.03,-0.15 0.02,-0.22c-0.03,-0.38 -0.4,-0.67 -0.84,-0.67l-0.01,0c-0.39,-0.56 -0.65,-1.23 -0.72,-1.99c-0.18,-2.27 1.55,-4.12 3.21,-4.26c0.07,0 0.14,-0.01 0.21,-0.01c0.83,0 1.72,0.4 2.41,1.07c-0.41,0.31 -0.66,0.77 -0.62,1.27c0.06,0.77 0.81,1.34 1.69,1.34c0.06,0 0.11,0 0.17,0c0.18,2.27 -1.55,4.11 -3.21,4.25c-0.07,0 -0.14,0.01 -0.21,0.01Z" style="fill:#1d1916;fill-rule:nonzero;"/><path d="M188.79,140.85c-0.88,0 -1.63,-0.57 -1.69,-1.34c-0.04,-0.5 0.21,-0.96 0.62,-1.27c0.28,-0.2 0.62,-0.33 1,-0.36c0.03,-0.01 0.06,-0.01 0.09,-0.01c0.03,0 0.05,0 0.08,0c0.88,0 1.62,0.58 1.69,1.35c0.04,0.5 -0.22,0.96 -0.64,1.27c-0.27,0.2 -0.61,0.33 -0.98,0.36c-0.06,0 -0.11,0 -0.17,0Z" style="fill:#858285;fill-rule:nonzero;"/><path d="M182.56,144.92c-0.44,0 -0.81,-0.29 -0.84,-0.67c-0.01,-0.17 0.04,-0.34 0.14,-0.47c0.15,-0.19 0.39,-0.33 0.67,-0.35l0.09,0c0.44,0 0.81,0.29 0.84,0.67c0.01,0.07 0,0.15 -0.02,0.22c-0.08,0.28 -0.33,0.51 -0.67,0.58c-0.04,0.01 -0.08,0.01 -0.12,0.01c-0.03,0.01 -0.06,0.01 -0.09,0.01Z" style="fill:#858285;fill-rule:nonzero;"/><path d="M169.34,134.16c-0.25,0 -0.49,-0.04 -0.72,-0.13c0.96,-1.47 2.31,-2.68 3.9,-3.72c2.16,-1.41 4.53,-2.21 6.98,-2.71c-1.59,0.78 -3.1,1.57 -4.29,2.45c-0.86,0.57 -1.59,1.12 -2.21,1.59c-1.36,1.06 -2.11,1.81 -2.22,1.91l-0.01,0.02c-0.38,0.38 -0.89,0.59 -1.43,0.59Z" style="fill:#090b0c;fill-rule:nonzero;"/><path d="M101.62,152.12c-0.13,-0.37 -0.25,-0.74 -0.37,-1.12c0.04,-0.01 0.08,-0.02 0.12,-0.04c0.08,0.39 0.17,0.78 0.25,1.16Z" style="fill:#ada19a;fill-rule:nonzero;"/><path d="M122.09,167.08c-6.47,0 -12.05,-2.28 -16.33,-7.56c-1.87,-2.31 -3.21,-4.79 -4.14,-7.4c-0.08,-0.38 -0.17,-0.77 -0.25,-1.16c0.22,-0.07 0.45,-0.14 0.68,-0.22c0.03,0 0.05,-0.01 0.08,-0.02c4.54,-1.44 9.5,-2.62 14.77,-3.29c1.9,2.94 4.18,5.26 6.8,5.77c1.7,0.34 3.42,0.47 5.09,0.47c6.64,0 12.46,-2.1 12.46,-2.1c0,0 0,-0.02 0,-0.06l0.01,0c0,0 0.04,-1.13 0.06,-2.93c1.39,0.33 2.79,0.7 4.19,1.14c0.17,0.05 0.33,0.1 0.5,0.15c0.06,0.02 0.13,0.04 0.19,0.07c-1.74,4.78 -4.18,9.14 -8.53,12.33c-3.76,2.76 -8.04,4.21 -12.67,4.66c-0.99,0.1 -1.96,0.15 -2.91,0.15Z" style="fill:#b0a6a0;fill-rule:nonzero;"/><path d="M128.79,153.67c-1.67,0 -3.39,-0.13 -5.09,-0.47c-2.62,-0.51 -4.9,-2.83 -6.8,-5.77c1.66,-0.22 3.36,-0.37 5.08,-0.48c1.51,1.6 3.64,2.59 6,2.59c2.21,0 4.21,-0.87 5.7,-2.29c2.27,0.26 4.56,0.64 6.87,1.15c0.04,1.15 0.07,2.28 0.09,3.35c0.37,-0.16 0.57,-0.22 0.61,-0.24c0,0.04 0,0.06 0,0.06c0,0 -5.82,2.1 -12.46,2.1Z" style="fill:#b5b4b5;fill-rule:nonzero;"/><path d="M140.64,151.75c-0.02,-1.07 -0.05,-2.2 -0.09,-3.35c0.26,0.06 0.51,0.12 0.77,0.18c-0.02,1.8 -0.06,2.93 -0.06,2.93l-0.01,0c-0.04,0.02 -0.24,0.08 -0.61,0.24Z" style="fill:#aea49e;fill-rule:nonzero;"/><path d="M127.98,149.54c-2.36,0 -4.49,-0.99 -6,-2.59c1.35,-0.07 2.73,-0.12 4.11,-0.12l0.04,0c2.48,0 5,0.14 7.55,0.42c-1.49,1.42 -3.49,2.29 -5.7,2.29Z" style="fill:#867671;fill-rule:nonzero;"/><path d="M101.37,150.96c0.22,-0.07 0.45,-0.14 0.68,-0.22c-0.23,0.08 -0.46,0.15 -0.68,0.22Zm0.76,-0.24c4.54,-1.44 9.5,-2.62 14.77,-3.29c-5.27,0.67 -10.23,1.85 -14.77,3.29Z" style="fill:#96908e;fill-rule:nonzero;"/><path d="M116.9,147.43c1.66,-0.22 3.36,-0.38 5.08,-0.48c-1.72,0.11 -3.42,0.26 -5.08,0.48Z" style="fill:#989799;fill-rule:nonzero;"/><path d="M121.98,146.95c1.35,-0.07 2.73,-0.12 4.11,-0.12c-1.38,0 -2.76,0.05 -4.11,0.12Z" style="fill:#7e7472;fill-rule:nonzero;"/><path d="M208.89,160.04c0.28,-2.2 0.59,-4.11 0.95,-5.48c0.27,-1.05 0.53,-2.13 0.78,-3.22c0.9,0.3 1.79,0.62 2.65,0.94c0.04,0.02 0.08,0.03 0.12,0.05c-0.93,2.53 -2.24,4.94 -4.06,7.19c-0.15,0.17 -0.29,0.35 -0.44,0.52Z" style="fill:#afa49f;fill-rule:nonzero;"/><path d="M193,167.08c-0.95,0 -1.93,-0.05 -2.92,-0.15c-4.63,-0.45 -8.9,-1.9 -12.66,-4.66c-4.68,-3.43 -7.16,-8.22 -8.92,-13.43c0.21,-0.06 0.43,-0.11 0.65,-0.16c0.07,-0.02 0.15,-0.04 0.22,-0.06c0.02,0 0.03,-0.01 0.04,-0.01c0.94,-0.22 1.88,-0.42 2.82,-0.6c0.02,1.73 0.06,2.81 0.06,2.81l0.01,0c0,0.04 0,0.06 0,0.06c0,0 5.82,2.1 12.46,2.1c1.67,0 3.39,-0.13 5.08,-0.46c2.33,-0.46 4.39,-2.34 6.15,-4.81c5.24,0.81 10.16,2.11 14.63,3.63c-0.25,1.09 -0.51,2.17 -0.78,3.22c-0.36,1.37 -0.67,3.28 -0.95,5.48c-4.22,4.91 -9.65,7.04 -15.89,7.04Z" style="fill:#b3aaa4;fill-rule:nonzero;"/><path d="M184.76,152.98c-6.64,0 -12.46,-2.1 -12.46,-2.1c0,0 0,-0.02 0,-0.06c0.04,0.02 0.23,0.08 0.61,0.24c0.02,-1.02 0.04,-2.1 0.08,-3.2c2.48,-0.44 4.93,-0.73 7.34,-0.88c1.43,1.17 3.25,1.87 5.24,1.87c1.93,0 3.7,-0.66 5.11,-1.77c1.8,0.15 3.57,0.36 5.31,0.63c-1.76,2.47 -3.82,4.35 -6.15,4.81c-1.69,0.33 -3.41,0.46 -5.08,0.46Z" style="fill:#b5b4b5;fill-rule:nonzero;"/><path d="M172.91,151.06c-0.38,-0.16 -0.57,-0.22 -0.61,-0.24l-0.01,0c0,0 -0.04,-1.08 -0.06,-2.81c0.25,-0.05 0.51,-0.1 0.76,-0.15c-0.04,1.1 -0.06,2.18 -0.08,3.2Z" style="fill:#aea49e;fill-rule:nonzero;"/><path d="M185.57,148.85c-1.99,0 -3.81,-0.7 -5.24,-1.87c1.48,-0.1 2.96,-0.15 4.41,-0.15l0.04,0c1.99,0 3.96,0.09 5.9,0.25c-1.41,1.11 -3.18,1.77 -5.11,1.77Z" style="fill:#867671;fill-rule:nonzero;"/><path d="M172.99,147.86c2.48,-0.44 4.93,-0.73 7.34,-0.88c-2.41,0.15 -4.86,0.44 -7.34,0.88Z" style="fill:#989799;fill-rule:nonzero;"/><path d="M172.23,148.01c0.25,-0.05 0.51,-0.1 0.76,-0.15c-0.25,0.05 -0.51,0.1 -0.76,0.15Z" style="fill:#948e8d;fill-rule:nonzero;"/><path d="M180.33,146.98c1.49,-0.1 2.95,-0.15 4.41,-0.15c-1.45,0 -2.93,0.05 -4.41,0.15Zm4.45,-0.15c-0.01,0 -0.02,0 -0.02,0c0,0 0.01,0 0.02,0Z" style="fill:#7e7472;fill-rule:nonzero;"/><path d="M215.29,141.86c-0.14,3.63 -0.69,7.16 -1.9,10.47c-0.93,2.53 -2.24,4.94 -4.06,7.19c-4.92,6.06 -11.54,8.16 -19.25,7.41c-4.63,-0.45 -8.9,-1.9 -12.66,-4.66c-4.68,-3.43 -7.16,-8.23 -8.92,-13.43c-0.08,-0.23 -0.15,-0.46 -0.23,-0.68c-1.11,-3.43 -1.69,-6.94 -1.06,-10.54c0.58,-3.26 2.59,-5.53 5.31,-7.31c3.3,-2.15 7.07,-2.89 10.91,-3.28c7.3,-0.76 14.58,-0.59 21.77,1.07c4.26,0.98 7.53,3.08 9.12,7.19l0.01,-0.01c0,0 0.02,0.06 0.06,0.17l0.08,0.21c0.06,0.18 0.11,0.34 0.13,0.49c0.13,0.44 0.28,1.03 0.41,1.71c0.13,0.47 0.21,0.97 0.22,1.47c0.09,0.81 0.13,1.67 0.06,2.53Zm-68.48,6.3c-0.19,0.59 -0.39,1.19 -0.61,1.78c-1.74,4.78 -4.18,9.14 -8.53,12.33c-3.76,2.76 -8.04,4.21 -12.67,4.66c-7.7,0.75 -14.33,-1.35 -19.24,-7.41c-2.14,-2.64 -3.57,-5.5 -4.51,-8.52c-0.9,-2.92 -1.33,-5.99 -1.45,-9.14l-0.01,0c-0.06,-0.86 -0.02,-1.72 0.06,-2.53c0.02,-0.5 0.09,-1 0.23,-1.47c0.13,-0.68 0.28,-1.27 0.4,-1.71c0.03,-0.15 0.07,-0.31 0.13,-0.49l0.09,-0.21c0.03,-0.11 0.05,-0.17 0.05,-0.17l0.01,0.01c1.59,-4.11 4.87,-6.21 9.12,-7.19c7.2,-1.66 14.47,-1.83 21.78,-1.07c3.84,0.39 7.61,1.13 10.91,3.28c2.72,1.78 4.73,4.05 5.3,7.31c0.64,3.6 0.06,7.11 -1.06,10.54Zm77.13,-16.79c-0.09,-1.63 -0.22,-1.8 -1.89,-2.17c-0.84,-0.18 -1.68,-0.37 -2.52,-0.56c-4.52,-1.02 -9.02,-2.08 -13.57,-2.92c-12.54,-2.32 -24.97,-2.96 -36.81,3.08c-1.96,1 -4.05,1.19 -6.27,0.73c-1.77,-0.36 -3.55,-0.57 -5.34,-0.59c-1.78,0.02 -3.57,0.23 -5.33,0.59c-2.23,0.46 -4.31,0.27 -6.27,-0.73c-11.84,-6.04 -24.27,-5.4 -36.81,-3.08c-4.3,0.79 -8.56,1.79 -12.83,2.75c-1.09,0.25 -2.18,0.49 -3.27,0.73c-1.66,0.37 -1.8,0.54 -1.88,2.17c-0.08,1.51 -0.19,3.02 1.31,4.05l0.21,0.26c1.7,1.93 2.95,4 3.63,6.39c0.21,0.74 0.37,1.51 0.47,2.31c0.33,2.59 0.91,5.12 1.76,7.56c0.88,2.5 2.06,4.91 3.57,7.18c3.81,5.75 9.25,9.27 16.17,10.09c11.24,1.33 20.42,-2.38 26.88,-11.64c1.49,-2.12 2.81,-4.34 3.93,-6.63c1.52,-3.09 2.7,-6.34 3.5,-9.73c0.14,-0.6 0.04,-1.35 -0.21,-1.91c-1.07,-2.39 -0.26,-4.2 2.33,-4.81c0.94,-0.23 1.89,-0.35 2.84,-0.37c0.95,0.02 1.9,0.14 2.85,0.37c2.59,0.61 3.39,2.42 2.33,4.81c-0.26,0.56 -0.35,1.31 -0.21,1.91c0.69,2.94 1.66,5.77 2.9,8.49c1.25,2.74 2.77,5.37 4.52,7.87c6.47,9.26 15.64,12.97 26.88,11.64c6.93,-0.82 12.37,-4.34 16.18,-10.09c1.22,-1.84 2.22,-3.77 3.03,-5.76c1.15,-2.87 1.9,-5.88 2.29,-8.98c0.2,-1.57 0.61,-3 1.22,-4.33c0.71,-1.57 1.69,-3.01 2.88,-4.37l0.22,-0.26c1.49,-1.03 1.38,-2.54 1.31,-4.05Z" style="fill:#fff;fill-rule:nonzero;"/><path d="M204.96,269.981l-95.96,0c2.93,-6.561 6.24,-13.96 7.45,-27.621c2.45,-1.9 4.84,-3.32 6.98,-4.35c1.11,-0.56 2.16,-1.01 3.12,-1.36c0.33,-0.13 0.64,-0.25 0.95,-0.35c0.37,-0.13 0.7,-0.23 1.03,-0.33c0.93,-0.29 1.69,-0.5 2.26,-0.6c6.96,10.02 19.24,26.32 25.91,26.381l0.02,0c0.1,0 0.18,0 0.31,-0.02c6.83,-0.431 19.19,-16.671 26.06,-26.441c0.85,0.16 2.29,0.49 4.14,1.17c0.29,0.11 0.57,0.21 0.88,0.33c0.17,0.06 0.33,0.13 0.5,0.21c0.43,0.16 0.86,0.37 1.31,0.58c2.27,1.03 4.86,2.49 7.58,4.55c1.21,13.82 4.52,21.25 7.46,27.851Z" style="fill:#46433f;fill-rule:nonzero;"/><path d="M102.93,300.86l108.12,0c-0.26,-4.099 -0.62,-9.89 -1.01,-13.69l-106.11,0c-0.38,3.8 -0.75,9.591 -1,13.69Z" style="fill:#46433f;fill-rule:nonzero;"/><path d="M204.97,269.981l-95.97,0c-2.22,4.979 -4.22,9.489 -4.93,15.889c-0.05,0.391 -0.09,0.83 -0.14,1.3l106.11,0c-0.04,-0.47 -0.09,-0.909 -0.14,-1.3c-0.7,-6.4 -2.71,-10.91 -4.93,-15.889Z" style="fill:#f9ad3a;fill-rule:nonzero;"/><path d="M176.05,188.26c0,0 -9.14,-10.07 -15.35,-6.24l0,-0.02c-3.32,2.16 -6.27,0.77 -7.21,0.21l-0.17,-0.1c-0.1,-0.07 -0.15,-0.11 -0.15,-0.11l0,0.02c-6.21,-3.83 -15.35,6.24 -15.35,6.24c0,0 -6.36,6.64 -12.73,4.53c-1.07,-0.35 -1.85,1.04 -1.07,1.85c3.89,3.99 10.96,8.15 22.75,5.69c2.62,-0.55 4.68,-1.26 6.28,-2.08c2.45,-1.24 5.33,-1.24 7.78,0.01c1.59,0.81 3.65,1.52 6.27,2.07c11.79,2.46 18.86,-1.7 22.75,-5.69c0.78,-0.81 0,-2.2 -1.07,-1.85c-6.37,2.11 -12.73,-4.53 -12.73,-4.53Z" style="fill:#46433f;fill-rule:nonzero;"/></g></svg>