<?xml version="1.0" encoding="UTF-8" standalone="no"?><!DOCTYPE svg PUBLIC "-//W3C//DTD SVG 1.1//EN" "http://www.w3.org/Graphics/SVG/1.1/DTD/svg11.dtd"><svg width="100%" height="100%" viewBox="0 0 300 300" version="1.1" xmlns="http://www.w3.org/2000/svg" xmlns:xlink="http://www.w3.org/1999/xlink" xml:space="preserve" style="fill-rule:evenodd;clip-rule:evenodd;stroke-linejoin:round;stroke-miterlimit:1.41421;"><g id="_12"><rect x="0.27" y="0.19" width="299.36" height="299.7" style="fill:#94acc1;fill-rule:nonzero;"/><path d="M219.4,203.13c-0.66,-3.02 -0.97,-4.74 -1.04,-5.95l-0.63,0c2.19,-3.02 3.85,-6.22 4.94,-9.57l0.01,0.01c0.06,-0.18 0.1,-0.36 0.15,-0.53c0.41,-1.34 0.73,-2.71 0.95,-4.09c3.65,-20.34 -6.16,-46.86 -6.16,-46.86c0.98,6.43 0.04,14.33 -1.54,21.73c-1.25,5.87 -2.9,11.42 -4.31,15.69c-1.32,3.99 -2.43,6.85 -2.81,7.8c-5.06,11.01 -14.11,20.02 -25.49,25.58c0.76,-2.15 1.21,-4.59 1.21,-7.2c0,-1.15 -0.11,-2.25 -0.26,-3.33c1.12,-0.13 2.21,-0.29 3.22,-0.56c1.61,-0.3 3.07,-0.85 4.34,-1.7c2.6,-1.77 4.34,-4.84 4.62,-9.75c0,0 -6.72,11.11 -17.19,1.28c0,0 -12.03,-15.18 -22.67,-9.11c-10.61,-6.07 -22.65,9.11 -22.65,9.11c-10.45,9.83 -17.19,-1.28 -17.19,-1.28c0.2,3.52 1.02,5.94 2.48,7.79l0.08,0.07c0,0 0.27,0.26 0.65,0.62c0.37,0.35 0.97,0.81 1.78,1.27l0.04,0.02c0.81,0.43 1.84,0.87 3.13,1.19c1.03,0.31 2.42,0.38 4.15,0.3c-0.25,1.3 -0.39,2.66 -0.39,4.08c0,2.61 0.45,5.05 1.21,7.2c-11.38,-5.56 -20.42,-14.57 -25.49,-25.58c-0.37,-0.95 -1.48,-3.81 -2.8,-7.8c-1.42,-4.27 -3.06,-9.82 -4.32,-15.69c-1.58,-7.4 -2.52,-15.3 -1.53,-21.73c0,0 -9.82,26.52 -6.17,46.86c0.22,1.38 0.55,2.75 0.95,4.09c0.06,0.17 0.1,0.35 0.15,0.53l0.02,-0.01c1.09,3.35 2.74,6.55 4.93,9.57l-0.63,0c-0.06,1.21 -0.38,2.93 -1.04,5.95c-1.77,8.3 -7.04,10.47 -7.04,10.47c0,0 8.15,-3.16 10.11,-5.31c0.95,-1.04 3.47,-3.9 4.25,-4.8l0.08,0.07c-0.46,0.96 -1.52,4.04 -0.02,9.98c1.96,7.77 10.04,13 10.04,13c0,0 -4.84,-6.17 -3.5,-12.94c0,0 -0.28,2.72 7.59,10.25c7.51,7.21 21.22,17.81 22.44,17.9c-0.1,-0.23 -0.24,-10.51 -0.34,-13.56c5.73,1.58 11.72,11.87 17.94,11.87c0.36,0 0.73,-0.02 1.1,-0.03l0.01,0c0.36,0.01 0.73,0.03 1.1,0.03c6.21,0 12.2,-10.29 17.94,-11.87c-0.1,3.05 -0.25,15.21 -0.35,15.44c1.22,-0.1 14.93,-12.57 22.44,-19.78c7.88,-7.53 7.59,-10.25 7.59,-10.25c1.35,6.77 -3.49,12.94 -3.49,12.94c0,0 8.07,-5.23 10.03,-13c1.51,-5.94 0.44,-9.02 -0.01,-9.98l0.08,-0.07c0.77,0.9 3.29,3.76 4.24,4.8c1.97,2.15 10.11,5.31 10.11,5.31c0,0 -5.27,-2.17 -7.04,-10.47Z" style="fill:#e26a26;fill-rule:nonzero;"/><path d="M137.67,75.21l-0.27,0.27l0.05,0.09c0.09,-0.13 0.13,-0.27 0.22,-0.36Z" style="fill:#432e1b;fill-rule:nonzero;"/><path d="M156.33,187.62l0,112.27l-60.73,0c-0.98,-0.39 -1.48,-0.59 -1.48,-0.59c0,-14.34 2.11,-25.51 5.31,-34.22c7.73,-21.03 21.88,-27.71 28.39,-29.73c2.14,-0.66 3.46,-0.82 3.46,-0.82c0.23,0 0.44,-0.02 0.67,-0.05c1.91,-0.31 3.46,-1.97 4.71,-4.62c0.92,-1.97 1.7,-4.48 2.33,-7.39c0.25,-1.13 0.44,-2.27 0.64,-3.51c0.3,-2.07 0.59,-4.25 0.84,-6.52c0.1,-1.39 0.25,-2.72 0.4,-4.15c0.54,-6.87 0.69,-14.39 0.69,-21.51c0,0 8.16,0.84 14.77,0.84Z" style="fill:#e0bd9a;fill-rule:nonzero;"/><path d="M218.79,299.3c0,0 -0.54,0.2 -1.43,0.59l-61.03,0l0,-112.27l0.15,0c6.57,0 14.83,-0.84 14.83,-0.84c0,7.07 0.14,14.48 0.69,21.36c0.15,1.33 0.29,2.71 0.39,4.05c0.25,2.37 0.55,4.6 0.89,6.68l0,0.04c0.1,0.94 0.3,1.78 0.45,2.67c0.6,2.92 1.33,5.49 2.2,7.55c1.09,2.56 2.42,4.35 4.03,5.06c0.51,0.23 1.06,0.34 1.63,0.34c0,0 2.33,0.29 5.83,1.66c7.15,2.8 19.16,10.14 26.06,28.89c3.21,8.71 5.31,19.88 5.31,34.22Z" style="fill:#efd0ad;fill-rule:nonzero;"/><path d="M173.28,218.66l0,0.04c-1.53,2.36 -6.67,9.14 -16.85,9.14l-0.1,0c-9.63,-0.05 -15.26,-7.02 -16.7,-9.09c0.3,-2.06 0.6,-4.22 0.84,-6.48c0.1,-1.33 0.25,-2.7 0.4,-4.12c4.69,1.17 9.83,1.91 15.27,2.01l0.19,0c5.64,-0.1 10.83,-0.89 15.67,-2.16c0.15,1.32 0.29,2.7 0.39,4.03c0.25,2.35 0.55,4.56 0.89,6.63Z" style="fill:#be987f;fill-rule:nonzero;"/><path d="M155.64,59.68c-64.33,0 -64.68,53.78 -61.81,88.99c-4.4,-8.35 -17.5,-5.8 -16.41,7.37c1.04,12.67 19.75,19.13 19.22,17.73c9.75,26.04 35.53,45.67 59,45.67l0.5,0l0,-159.76l-0.5,0Z" style="fill:#d2a686;fill-rule:nonzero;"/><path d="M81.52,150.49c3.17,-5.11 8.11,-2.9 9.29,-1.77c1.29,1.23 2.32,2.8 1.53,5.79c-0.44,1.72 -2.22,1.87 -1.82,4.42c0.49,2.9 1.82,3.05 2.61,3.74c0.75,0.63 1.68,1.13 2.13,2.35c0.49,1.23 0.54,2.51 0.3,3.64c-0.5,2.06 -3.51,0.39 -5.54,-0.49c-1.33,-0.64 -5.58,-4.23 -6.67,-5.41c-2.67,-3.04 -3.95,-8.93 -1.83,-12.27Z" style="fill:#ac8774;fill-rule:nonzero;"/><path d="M155.99,59.68c64.33,0 64.68,53.78 61.86,88.99c4.4,-8.35 17.45,-5.8 16.36,7.37c-0.99,12.67 -19.73,19.13 -19.22,17.73c-9.49,26.04 -35.53,45.67 -59,45.67c-0.15,0 -0.35,0 -0.35,0l-0.15,-159.76c0,0 0.35,0 0.5,0Z" style="fill:#ddb598;fill-rule:nonzero;"/><path d="M230.11,150.49c-3.16,-5.11 -8.06,-2.9 -9.29,-1.77c-1.29,1.23 -2.27,2.8 -1.53,5.79c0.44,1.72 2.22,1.87 1.83,4.42c-0.5,2.9 -1.83,3.05 -2.57,3.74c-0.75,0.63 -1.73,1.13 -2.18,2.35c-0.44,1.23 -0.54,2.51 -0.29,3.64c0.49,2.06 3.5,0.39 5.53,-0.49c1.38,-0.64 5.58,-4.23 6.67,-5.41c2.72,-3.04 3.95,-8.93 1.83,-12.27Z" style="fill:#ac8774;fill-rule:nonzero;"/><path d="M155.14,74.85c-21.15,0 -36.67,6.14 -46.01,18.22c-13.09,16.95 -12.6,42.78 -7.8,61.35c1.48,5.69 2.27,20.97 3.26,26.57c4.59,25.09 32.31,38.45 50.55,38.45c0,0 0.34,0 0.49,0l0,-144.59c-0.15,0 -0.3,0 -0.3,0" style="fill:#e0bd9a;fill-rule:nonzero;"/><path d="M201.09,93.12c-9.29,-12.03 -24.61,-18.17 -45.46,-18.27l0,144.59c20.85,-0.24 45.81,-14.88 50.06,-38.45c1.03,-5.6 1.77,-20.88 3.26,-26.57c4.84,-18.52 5.33,-44.3 -7.86,-61.3Z" style="fill:#efd0ad;fill-rule:nonzero;"/><path d="M155.82,196.5" style="fill:#bc917b;fill-rule:nonzero;"/><path d="M155.82,196.5" style="fill:#bc917b;fill-rule:nonzero;"/><path d="M152.26,193.81c-0.11,-0.02 -0.21,-0.04 -0.31,-0.06c0.1,0.02 0.19,0.04 0.31,0.06Z" style="fill:#bc917b;fill-rule:nonzero;"/><path d="M155.82,193.62" style="fill:#bc917b;fill-rule:nonzero;"/><path d="M151.47,193.63c-0.09,-0.02 -0.18,-0.05 -0.27,-0.07l-0.01,0c0,0 0.11,0.03 0.28,0.07Z" style="fill:#bc917b;fill-rule:nonzero;"/><path d="M155.82,193.62" style="fill:#bc917b;fill-rule:nonzero;"/><path d="M96.71,126.16" style="fill:#432e1b;fill-rule:nonzero;"/><path d="M156.1,193.64" style="fill:#ba907b;fill-rule:nonzero;"/><path d="M156.1,193.64" style="fill:#ba907b;fill-rule:nonzero;"/><path d="M152.43,190.88c-0.1,-0.03 -0.21,-0.05 -0.31,-0.07c0.1,0.02 0.19,0.04 0.31,0.07Z" style="fill:#ba907b;fill-rule:nonzero;"/><path d="M156.1,190.68" style="fill:#ba907b;fill-rule:nonzero;"/><path d="M151.63,190.7c-0.1,-0.03 -0.19,-0.06 -0.28,-0.08l-0.01,0c0,0 0.11,0.03 0.29,0.08Z" style="fill:#ba907b;fill-rule:nonzero;"/><path d="M156.1,190.68" style="fill:#ba907b;fill-rule:nonzero;"/><path d="M144.57,172.51c-0.25,-5.13 9.42,-1.87 12.61,-1.71c2.53,0.13 10.2,-1.62 10.85,-1.17c4.52,3.04 -4.78,9.17 -11.01,9.17c-1.66,0 -12.3,-3.19 -12.45,-6.29Z" style="fill:#dcb497;fill-rule:nonzero;"/><path d="M156.23,196.01" style="fill:#ba907b;fill-rule:nonzero;"/><path d="M156.23,196.01" style="fill:#ba907b;fill-rule:nonzero;"/><path d="M152.56,193.25c-0.1,-0.02 -0.2,-0.04 -0.31,-0.06c0.1,0.02 0.19,0.04 0.31,0.06Z" style="fill:#ba907b;fill-rule:nonzero;"/><path d="M156.23,193.05" style="fill:#ba907b;fill-rule:nonzero;"/><path d="M151.76,193.07c-0.1,-0.02 -0.19,-0.05 -0.28,-0.08l-0.01,0.01c0,0 0.11,0.03 0.29,0.07Z" style="fill:#ba907b;fill-rule:nonzero;"/><path d="M156.23,193.05" style="fill:#ba907b;fill-rule:nonzero;"/><path d="M156.11,195.64" style="fill:#bc917b;fill-rule:nonzero;"/><path d="M156.11,195.64" style="fill:#bc917b;fill-rule:nonzero;"/><path d="M152.19,192.68c-0.12,-0.02 -0.23,-0.04 -0.34,-0.07c0.11,0.03 0.21,0.05 0.34,0.07Z" style="fill:#bc917b;fill-rule:nonzero;"/><path d="M156.11,192.47" style="fill:#bc917b;fill-rule:nonzero;"/><path d="M151.32,192.49c-0.1,-0.03 -0.19,-0.06 -0.29,-0.08l-0.02,0c0,0 0.12,0.03 0.31,0.08Z" style="fill:#bc917b;fill-rule:nonzero;"/><path d="M156.11,192.47" style="fill:#bc917b;fill-rule:nonzero;"/><path d="M155.87,194.8" style="fill:#bc917b;fill-rule:nonzero;"/><path d="M155.87,194.8" style="fill:#bc917b;fill-rule:nonzero;"/><path d="M151.94,191.84c-0.11,-0.02 -0.22,-0.04 -0.34,-0.07c0.11,0.02 0.21,0.04 0.34,0.07Z" style="fill:#bc917b;fill-rule:nonzero;"/><path d="M155.87,191.63" style="fill:#bc917b;fill-rule:nonzero;"/><path d="M151.07,191.65c-0.1,-0.03 -0.19,-0.06 -0.29,-0.08l-0.01,0c0,0 0.11,0.03 0.3,0.08Z" style="fill:#bc917b;fill-rule:nonzero;"/><path d="M155.87,191.63" style="fill:#bc917b;fill-rule:nonzero;"/><path d="M156.51,194.59" style="fill:#bc917b;fill-rule:nonzero;"/><path d="M156.5,194.59l0.01,0l-0.01,0Z" style="fill:#bc917b;fill-rule:nonzero;"/><path d="M152.71,191.73c-0.11,-0.03 -0.22,-0.05 -0.32,-0.07c0.1,0.02 0.19,0.04 0.32,0.07Z" style="fill:#bc917b;fill-rule:nonzero;"/><path d="M156.51,191.52" style="fill:#bc917b;fill-rule:nonzero;"/><path d="M151.87,191.54c-0.1,-0.03 -0.19,-0.05 -0.28,-0.08l-0.01,0c0,0 0.11,0.03 0.29,0.08Z" style="fill:#bc917b;fill-rule:nonzero;"/><path d="M156.5,191.52l0.01,0l-0.01,0Z" style="fill:#bc917b;fill-rule:nonzero;"/><path d="M153.23,203.02" style="fill:#be927b;fill-rule:nonzero;"/><path d="M153.23,203.02" style="fill:#be927b;fill-rule:nonzero;"/><path d="M149.59,200.28c-0.11,-0.02 -0.21,-0.04 -0.31,-0.07c0.1,0.03 0.19,0.04 0.31,0.07Z" style="fill:#be927b;fill-rule:nonzero;"/><path d="M153.23,200.08" style="fill:#be927b;fill-rule:nonzero;"/><path d="M148.79,200.1c-0.1,-0.02 -0.18,-0.05 -0.28,-0.08l-0.01,0.01c0,0 0.11,0.03 0.29,0.07Z" style="fill:#be927b;fill-rule:nonzero;"/><path d="M153.23,200.08" style="fill:#be927b;fill-rule:nonzero;"/><path d="M153,202.24" style="fill:#be927b;fill-rule:nonzero;"/><path d="M153,202.24" style="fill:#be927b;fill-rule:nonzero;"/><path d="M149.36,199.5c-0.11,-0.02 -0.21,-0.04 -0.31,-0.07c0.1,0.03 0.19,0.04 0.31,0.07Z" style="fill:#be927b;fill-rule:nonzero;"/><path d="M153,199.3" style="fill:#be927b;fill-rule:nonzero;"/><path d="M148.56,199.32c-0.1,-0.02 -0.18,-0.05 -0.28,-0.08l-0.01,0.01c0,0 0.11,0.03 0.29,0.07Z" style="fill:#be927b;fill-rule:nonzero;"/><path d="M153,199.3" style="fill:#be927b;fill-rule:nonzero;"/><path d="M153.59,202.04" style="fill:#be927b;fill-rule:nonzero;"/><path d="M153.59,202.04" style="fill:#be927b;fill-rule:nonzero;"/><path d="M150.07,199.39c-0.1,-0.02 -0.2,-0.04 -0.3,-0.06c0.1,0.02 0.19,0.04 0.3,0.06Z" style="fill:#be927b;fill-rule:nonzero;"/><path d="M153.59,199.2" style="fill:#be927b;fill-rule:nonzero;"/><path d="M149.3,199.22c-0.09,-0.02 -0.18,-0.05 -0.27,-0.08l-0.01,0.01c0,0 0.11,0.03 0.28,0.07Z" style="fill:#be927b;fill-rule:nonzero;"/><path d="M153.59,199.2" style="fill:#be927b;fill-rule:nonzero;"/><path d="M143.33,201.79c-0.24,-3.2 8.92,0.67 11.92,0.76c2.4,0.08 9.6,-0.47 10.27,-0.73c5.03,-1.88 -0.28,5.35 -10.42,5.73c-4.64,0.19 -11.63,-3.82 -11.77,-5.76Z" style="fill:#f0d2ad;fill-rule:nonzero;"/><path d="M173.5,194.1c-5.8,-1.08 -18.03,0.08 -18.03,0.08c-10.08,1.67 -17.97,-0.11 -18.03,-0.04c-0.24,0.02 8.05,11.02 17.89,10.51c9.84,0.51 18.41,-10.51 18.17,-10.55Z" style="fill:#c2646e;fill-rule:nonzero;"/><path d="M161.3,191.78c-2.62,-0.29 -4.48,1.6 -5.82,1.46c-1.36,0.13 -3.14,-1.08 -5.77,-1.11c-3.7,-0.04 -5.5,-0.36 -12.27,2.01c0.24,0.46 4.57,2.97 12.69,3.11c0.12,0 2.3,1.23 5.4,1.21c1.93,-0.01 4.6,-1.3 4.7,-1.3c8.13,-0.13 13.1,-2.55 13.33,-3c-8.95,-2.77 -8.24,-2.42 -12.26,-2.38Z" style="fill:#d87475;fill-rule:nonzero;"/><path d="M109.48,130.89c0,0 4.91,20.2 13.33,21.85c8.43,1.65 17.55,-1.63 17.55,-1.63c0,0 0.87,-23.74 -3.44,-26.84c-4.32,-3.12 -14.25,-7.62 -27.44,6.62Z" style="fill:#fff;fill-rule:nonzero;"/><path d="M140.37,151.05c0,0 -0.19,0.05 -0.63,0.23c-0.1,-7.28 -0.77,-17.28 -3.47,-19.19c-4.01,-2.95 -13.05,-7.09 -25.14,4.24c-1.1,-3.13 -1.65,-5.5 -1.65,-5.5c13.22,-14.27 23.16,-9.77 27.44,-6.66c4.32,3.12 3.45,26.88 3.45,26.88Z" style="fill:#d6b496;fill-rule:nonzero;"/><path d="M135.38,140.76c0,4.6 -3.71,8.32 -8.29,8.32c-4.58,0 -8.3,-3.72 -8.3,-8.32c0,-4.59 3.72,-8.32 8.3,-8.32c4.58,0 8.29,3.73 8.29,8.32Z" style="fill:#482315;fill-rule:nonzero;"/><path d="M126.7,146.3c-2.39,-0.2 -4.23,-2.62 -4.01,-5.29c0.21,-2.66 2.42,-4.75 4.82,-4.55c2.39,0.2 4.23,2.62 4.01,5.29c-0.21,2.66 -2.42,4.75 -4.82,4.55Z" style="fill:#7e3a22;fill-rule:nonzero;"/><path d="M126.91,145.34c-1.67,-0.14 -3.4,-1.98 -3.21,-4.24c0.18,-2.26 2.18,-3.79 3.85,-3.66c1.67,0.15 3.39,1.99 3.21,4.25c-0.18,2.26 -2.19,3.79 -3.85,3.65Z" style="fill:#211a10;fill-rule:nonzero;"/><path d="M125.56,135.65c-0.07,0.82 -0.91,1.41 -1.86,1.34c-0.96,-0.09 -1.69,-0.82 -1.62,-1.63c0.07,-0.82 0.9,-1.42 1.86,-1.34c0.96,0.08 1.68,0.81 1.62,1.63Z" style="fill:#fff;fill-rule:nonzero;"/><path d="M130.94,144.49c-0.04,0.41 -0.46,0.71 -0.93,0.67c-0.49,-0.04 -0.85,-0.41 -0.82,-0.82c0.04,-0.4 0.46,-0.7 0.93,-0.66c0.49,0.04 0.85,0.4 0.82,0.81Z" style="fill:#fff;fill-rule:nonzero;"/><path d="M202.29,130.2c0,0 -4.91,20.2 -13.34,21.85c-8.42,1.65 -17.54,-1.63 -17.54,-1.63c0,0 -0.87,-23.74 3.44,-26.84c4.31,-3.11 14.25,-7.61 27.44,6.62Z" style="fill:#fff;fill-rule:nonzero;"/><path d="M171.4,150.36c0,0 0.19,0.06 0.62,0.24c0.11,-7.28 0.78,-17.28 3.48,-19.2c4,-2.94 13.05,-7.08 25.13,4.24c1.1,-3.13 1.65,-5.5 1.65,-5.5c-13.21,-14.26 -23.16,-9.77 -27.44,-6.65c-4.32,3.11 -3.44,26.87 -3.44,26.87Z" style="fill:#d6b496;fill-rule:nonzero;"/><path d="M176.38,140.07c0,4.6 3.72,8.32 8.3,8.32c4.58,0 8.29,-3.72 8.29,-8.32c0,-4.59 -3.71,-8.32 -8.29,-8.32c-4.58,0 -8.3,3.73 -8.3,8.32Z" style="fill:#482315;fill-rule:nonzero;"/><path d="M185.06,145.61c2.4,-0.19 4.24,-2.62 4.02,-5.28c-0.21,-2.67 -2.42,-4.75 -4.82,-4.55c-2.39,0.19 -4.23,2.62 -4.02,5.28c0.22,2.67 2.43,4.76 4.82,4.55Z" style="fill:#7e3a22;fill-rule:nonzero;"/><path d="M184.86,144.65c1.66,-0.14 3.39,-1.97 3.21,-4.23c-0.19,-2.27 -2.19,-3.8 -3.86,-3.66c-1.66,0.14 -3.39,1.98 -3.21,4.24c0.19,2.26 2.19,3.79 3.86,3.65Z" style="fill:#211a10;fill-rule:nonzero;"/><path d="M186.21,139.08c0.07,0.81 0.9,1.41 1.86,1.33c0.96,-0.08 1.68,-0.81 1.62,-1.62c-0.07,-0.82 -0.9,-1.42 -1.86,-1.34c-0.96,0.08 -1.69,0.81 -1.62,1.63Z" style="fill:#fff;fill-rule:nonzero;"/><path d="M180.83,143.8c0.03,0.41 0.45,0.71 0.93,0.67c0.48,-0.04 0.84,-0.41 0.81,-0.81c-0.03,-0.41 -0.45,-0.71 -0.93,-0.67c-0.48,0.04 -0.85,0.4 -0.81,0.81Z" style="fill:#fff;fill-rule:nonzero;"/><path d="M145.42,130.57c-0.06,-0.1 -1.59,-2.43 -4.72,-4.84c-1.96,-1.5 -3.88,-2.65 -5.87,-3.5c-2.42,-1.02 -5.03,-1.75 -7.55,-2.09c-2.28,-0.26 -4.81,-0.19 -7.77,0.21c-2.25,0.43 -4.45,1.1 -6.32,1.93c-1.33,0.46 -2.38,1.1 -3.22,1.62c-0.33,0.2 -0.62,0.38 -0.92,0.54l-4.02,2.54l4.64,-1.09c0.21,-0.06 0.45,-0.12 0.7,-0.19c0.96,-0.25 2.15,-0.57 3.55,-0.77c0.33,-0.05 0.66,-0.12 1,-0.19c0.59,-0.11 1.19,-0.23 1.82,-0.26c0.7,-0.05 1.43,-0.1 2.18,-0.16l0.98,-0.07c2.57,-0.03 4.74,0.16 6.66,0.61c2.11,0.36 4.28,1.05 6.26,1.97c1.88,0.9 3.67,1.79 5.08,2.83c2.83,1.89 4.41,3.47 4.42,3.49c0.39,0.39 0.91,0.6 1.44,0.6c0.38,0 0.76,-0.11 1.09,-0.33c0.94,-0.62 1.2,-1.88 0.6,-2.79l-0.03,-0.06Z" style="fill:#030405;fill-rule:nonzero;"/><path d="M203.12,124.42c-0.27,-0.14 -0.56,-0.32 -0.89,-0.52c-0.84,-0.52 -1.89,-1.16 -3.18,-1.61c-1.91,-0.84 -4.11,-1.51 -6.39,-1.95c-2.93,-0.39 -5.46,-0.46 -7.75,-0.2c-2.51,0.34 -5.12,1.07 -7.55,2.09c-1.96,0.84 -3.93,2.02 -5.86,3.5c-3.07,2.36 -4.6,4.66 -4.71,4.83l-0.03,0.04c-0.52,0.8 -0.41,1.87 0.26,2.55c0.38,0.39 0.89,0.6 1.43,0.6c0.54,0 1.05,-0.22 1.43,-0.6l0.01,-0.02c0.15,-0.15 1.68,-1.65 4.43,-3.49c1.38,-1.02 3.18,-1.91 5.05,-2.81c1.99,-0.92 4.16,-1.61 6.29,-1.98c1.9,-0.44 4.08,-0.63 6.61,-0.6l1.03,0.07c0.74,0.06 1.46,0.11 2.17,0.16c0.62,0.03 1.22,0.15 1.81,0.26c0.34,0.07 0.67,0.14 1,0.19c1.4,0.2 2.59,0.52 3.55,0.77c0.25,0.07 0.49,0.13 0.71,0.19l4.64,1.09l-4.06,-2.56Z" style="fill:#030405;fill-rule:nonzero;"/><path d="M220.65,288.72c-0.33,-4.7 -0.88,-9.04 -1.62,-13.03c-1.3,-7.01 -3.16,-12.95 -5.37,-18.01c-3.11,-7.14 -6.89,-12.47 -10.75,-16.48l0.03,0c-0.12,-0.12 -0.24,-0.23 -0.37,-0.36l-0.13,-0.14l-0.01,0c-7.39,-7.23 -14.83,-9.72 -18.02,-10.49c0.05,0.21 -2,-0.69 -2.43,-1.49c-1.24,-2.13 -2.73,-4.2 -4.53,-6.41c-0.16,-0.16 -0.32,-0.31 -0.43,-0.47l-0.67,3.97l-12.5,14.89l-0.92,0l-6.85,8.16l-6.53,-7.66l0.08,0l-12.51,-14.67l-0.97,-4.69c-0.09,0.08 -0.16,0.19 -0.27,0.27c-2.62,3.13 -7.14,8.31 -7.09,8.1c-3.19,0.77 -11.64,3.26 -19.03,10.49c-4.02,4.06 -7.99,9.55 -11.23,16.98c-2.2,5.06 -4.07,11 -5.37,18.01c-0.74,3.99 -1.29,8.33 -1.62,13.03c-0.24,3.31 -0.37,6.79 -0.37,10.48c0,0 0.54,0.25 1.54,0.69l126.78,0c0.99,-0.44 1.53,-0.69 1.53,-0.69c0,-3.69 -0.13,-7.17 -0.37,-10.48Z" style="fill:#184c44;fill-rule:nonzero;"/><path d="M184.57,234.04c-0.72,-11.29 -6.55,-13.45 -6.55,-13.45l0,0.02c-0.35,-0.27 -0.74,-0.5 -1.14,-0.69c-1.77,-0.86 -3.89,0.07 -4.46,1.96c-0.67,2.26 -1.55,5.11 -2.33,7.16c-0.56,1.47 -1.35,2.84 -2.36,4.06c-1.58,1.92 -4.16,5.08 -6.49,7.99c-2.65,3.29 -7.66,3.31 -10.34,0.04c-2.51,-3.08 -5.31,-6.43 -6.9,-8.33c-0.86,-1.03 -1.57,-2.17 -2.12,-3.4c-0.71,-1.58 -1.18,-4.31 -1.56,-6.66c-0.32,-1.95 -2.32,-3.14 -4.19,-2.5c-0.4,0.14 -0.78,0.27 -1.1,0.36c-0.57,0.1 -6.71,1.38 -7.51,12.34c-0.59,4.39 -0.85,10.83 -0.96,15.99c-0.06,2.89 3.46,4.37 5.47,2.29c1.2,-1.24 2.36,-2.35 3.17,-2.94c0.52,-0.37 1.12,-0.75 1.81,-1.12c1.59,-0.86 3.58,-0.17 4.35,1.46l12.35,25.9c1.14,2.39 4.53,2.43 5.73,0.07l12.71,-25.13c0.86,-1.69 3.04,-2.31 4.58,-1.2l0.03,0.02c0.81,0.59 1.97,1.7 3.17,2.94c2.01,2.08 5.53,0.59 5.47,-2.3c-0.1,-4.75 -0.33,-10.56 -0.83,-14.88Z" style="fill:#fff;fill-rule:nonzero;"/><path d="M249.93,64.7c0,0 -4.78,6.5 -21.24,1.43c-16.09,-4.94 -15.67,-21.06 -38.79,-30.05c-11.84,-4.6 -18.9,-4 -23,-2.33c4.15,-3.16 12.67,-2.88 12.67,-2.88c0,0 -10.52,-5.38 -26.77,-0.56c-11.42,3.41 -18.26,7.27 -22.1,10.05l6.42,-5.69c0,0 -23.12,7.64 -38.86,23.38c-15.72,15.73 -21.75,30.53 -21.75,47.17c0,16.63 7.05,33.3 11.68,38.25c4.61,4.95 3.13,12.13 4.52,12.13c0,0 4.63,0.2 2.16,-26.78c-1.31,-14.28 1.13,-16.02 6.28,-17.47c1.95,13.25 8.21,26.28 8.21,26.28c0,-26.12 14.11,-31.35 16.45,-32.04c7.41,0.85 14.94,4.08 21.08,8.37c12.33,8.63 16.48,-1.09 32.98,-5.87c1.12,-0.32 2.2,-0.58 3.26,-0.81l-0.2,0.83c0,0 16.78,3.65 16.78,32.12c0,0 6.8,-14.15 8.43,-27.94c6.34,5.48 8.77,13.58 7.6,19.04c-3.47,16.26 1.36,25.63 3.21,25.19c0,0 0.08,-4.13 1.75,-7.81c4.97,-10.97 9.15,-3.34 9.92,-18.22c0.9,-17.41 3.81,-23.77 2.87,-33.07c-0.91,-9.11 -5.65,-21.29 -5.67,-21.34c0.01,0.01 0.22,0.05 2.27,0.05c12.69,-0.02 19.84,-11.43 19.84,-11.43Z" style="fill:#f47c2b;fill-rule:nonzero;"/></g></svg>