<?xml version="1.0" encoding="UTF-8" standalone="no"?><!DOCTYPE svg PUBLIC "-//W3C//DTD SVG 1.1//EN" "http://www.w3.org/Graphics/SVG/1.1/DTD/svg11.dtd"><svg width="100%" height="100%" viewBox="0 0 298 300" version="1.1" xmlns="http://www.w3.org/2000/svg" xmlns:xlink="http://www.w3.org/1999/xlink" xml:space="preserve" style="fill-rule:evenodd;clip-rule:evenodd;stroke-linejoin:round;stroke-miterlimit:1.41421;"><g id="_13"><rect x="0.17" y="0.19" width="296.87" height="299.7" style="fill:#6d323e;fill-rule:nonzero;"/><path d="M153.81,187.63l0,112.25l-60.74,0c-0.98,-0.39 -1.48,-0.59 -1.48,-0.59c0,-7.16 0.54,-13.56 1.46,-19.22c0.44,-2.61 0.95,-5.08 1.55,-7.39c0.65,-2.73 1.44,-5.26 2.3,-7.61c0.19,-0.47 0.35,-0.95 0.54,-1.4c0.2,-0.51 0.41,-1.01 0.61,-1.5c0.21,-0.49 0.41,-0.97 0.64,-1.44c0.41,-0.97 0.87,-1.87 1.32,-2.76c0.78,-1.52 1.6,-2.96 2.47,-4.3c0.22,-0.37 0.45,-0.72 0.68,-1.05c1.11,-1.64 2.26,-3.16 3.43,-4.54c0.33,-0.37 0.66,-0.76 0.99,-1.11c0.33,-0.37 0.66,-0.72 0.99,-1.07c0.33,-0.33 0.68,-0.68 1,-0.99c0.33,-0.33 0.66,-0.64 0.99,-0.93c0.66,-0.61 1.34,-1.19 2,-1.71c3.23,-2.59 6.34,-4.34 8.97,-5.49c0.33,-0.14 0.66,-0.29 0.99,-0.43c1.02,-0.41 1.95,-0.74 2.77,-0.99c2.14,-0.68 3.46,-0.82 3.46,-0.82c0.25,0 0.45,-0.02 0.68,-0.06c1.91,-0.31 3.46,-1.98 4.71,-4.61c0.93,-1.98 1.69,-4.49 2.33,-7.39c0.24,-1.15 0.45,-2.28 0.63,-3.52c0.31,-2.07 0.6,-4.25 0.85,-6.52c0.1,-1.38 0.24,-2.71 0.39,-4.15c0.55,-6.88 0.7,-14.39 0.7,-21.5c0,0 8.14,0.84 14.77,0.84Z" style="fill:#e0bd9a;fill-rule:nonzero;"/><path d="M216.27,299.29c0,0 -0.53,0.2 -1.44,0.59l-61.02,0l0,-112.25l0.14,0c6.59,0 14.84,-0.84 14.84,-0.84c0,7.05 0.14,14.48 0.68,21.35c0.16,1.34 0.3,2.72 0.41,4.06c0.25,2.36 0.53,4.58 0.88,6.66l0,0.04c0.11,0.95 0.29,1.79 0.46,2.68c0.59,2.92 1.31,5.49 2.2,7.55c1.09,2.57 2.4,4.36 4.03,5.06c0.49,0.23 1.05,0.35 1.62,0.35c0,0 2.33,0.27 5.83,1.64c1.85,0.72 4.03,1.75 6.35,3.21c0.48,0.29 0.97,0.62 1.44,0.95c0.4,0.25 0.79,0.54 1.18,0.82c0.33,0.25 0.7,0.52 1.03,0.79c0.72,0.55 1.46,1.17 2.2,1.85c0.29,0.24 0.55,0.51 0.84,0.78c0.33,0.29 0.64,0.6 0.97,0.95c0.22,0.2 0.43,0.41 0.64,0.63c0.43,0.46 0.88,0.95 1.31,1.46c0.23,0.25 0.46,0.5 0.66,0.77c0.99,1.15 1.96,2.4 2.88,3.78c0.41,0.58 0.78,1.17 1.17,1.79c0.79,1.26 1.55,2.59 2.29,4.01c0.9,1.77 1.77,3.67 2.57,5.7c0.19,0.45 0.37,0.93 0.53,1.4c0.87,2.35 1.65,4.88 2.33,7.61c0.6,2.31 1.11,4.78 1.52,7.39c0.93,5.66 1.46,12.06 1.46,19.22Z" style="fill:#efd0ad;fill-rule:nonzero;"/><path d="M170.76,218.66l0,0.04c-1.53,2.36 -6.67,9.14 -16.85,9.14l-0.1,0c-9.63,-0.05 -15.27,-7.02 -16.7,-9.09c0.3,-2.06 0.59,-4.22 0.84,-6.48c0.1,-1.33 0.25,-2.7 0.4,-4.12c4.69,1.17 9.83,1.91 15.27,2.01l0.19,0c5.64,-0.1 10.82,-0.89 15.67,-2.16c0.15,1.32 0.29,2.7 0.39,4.03c0.25,2.35 0.55,4.56 0.89,6.63Z" style="fill:#be987f;fill-rule:nonzero;"/><path d="M153.12,59.68c-64.33,0 -64.68,53.78 -61.81,88.99c-4.4,-8.35 -17.5,-5.8 -16.41,7.37c1.04,12.67 19.75,19.13 19.22,17.73c9.74,26.04 35.53,45.67 59,45.67l0.5,0l0,-159.76l-0.5,0Z" style="fill:#d2a686;fill-rule:nonzero;"/><path d="M79,150.49c3.16,-5.11 8.11,-2.9 9.29,-1.77c1.29,1.23 2.32,2.8 1.53,5.79c-0.44,1.72 -2.22,1.87 -1.83,4.42c0.5,2.9 1.83,3.05 2.62,3.74c0.74,0.63 1.68,1.13 2.13,2.35c0.49,1.23 0.54,2.51 0.29,3.64c-0.49,2.06 -3.5,0.39 -5.53,-0.49c-1.33,-0.64 -5.58,-4.23 -6.67,-5.41c-2.67,-3.04 -3.95,-8.93 -1.83,-12.27Z" style="fill:#ac8774;fill-rule:nonzero;"/><path d="M153.47,59.68c64.33,0 64.68,53.78 61.86,88.99c4.4,-8.35 17.45,-5.8 16.36,7.37c-0.99,12.67 -19.73,19.13 -19.22,17.73c-9.49,26.04 -35.53,45.67 -59,45.67c-0.15,0 -0.35,0 -0.35,0l-0.15,-159.76c0,0 0.35,0 0.5,0Z" style="fill:#ddb598;fill-rule:nonzero;"/><path d="M227.59,150.49c-3.17,-5.11 -8.06,-2.9 -9.29,-1.77c-1.29,1.23 -2.28,2.8 -1.53,5.79c0.44,1.72 2.22,1.87 1.82,4.42c-0.49,2.9 -1.82,3.05 -2.57,3.74c-0.74,0.63 -1.73,1.13 -2.17,2.35c-0.44,1.23 -0.54,2.51 -0.3,3.64c0.5,2.06 3.51,0.39 5.54,-0.49c1.38,-0.64 5.58,-4.23 6.67,-5.41c2.72,-3.04 3.95,-8.93 1.83,-12.27Z" style="fill:#ac8774;fill-rule:nonzero;"/><path d="M152.62,74.85c-21.15,0 -36.67,6.14 -46.01,18.22c-13.09,16.95 -12.6,42.78 -7.81,61.35c1.49,5.69 2.28,20.97 3.27,26.57c4.59,25.09 32.31,38.45 50.55,38.45c0,0 0.34,0 0.49,0l0,-144.59c-0.15,0 -0.3,0 -0.3,0" style="fill:#e0bd9a;fill-rule:nonzero;"/><path d="M198.57,93.12c-9.29,-12.03 -24.61,-18.17 -45.46,-18.27l0,144.59c20.85,-0.24 45.81,-14.88 50.06,-38.45c1.03,-5.6 1.77,-20.88 3.26,-26.57c4.84,-18.52 5.33,-44.3 -7.86,-61.3Z" style="fill:#efd0ad;fill-rule:nonzero;"/><path d="M153.3,196.5" style="fill:#bc917b;fill-rule:nonzero;"/><path d="M153.3,196.5" style="fill:#bc917b;fill-rule:nonzero;"/><path d="M149.73,193.81c-0.1,-0.02 -0.2,-0.04 -0.3,-0.06c0.1,0.02 0.19,0.04 0.3,0.06Z" style="fill:#bc917b;fill-rule:nonzero;"/><path d="M153.3,193.62" style="fill:#bc917b;fill-rule:nonzero;"/><path d="M148.95,193.63c-0.09,-0.02 -0.18,-0.05 -0.27,-0.07l-0.01,0c0,0 0.1,0.03 0.28,0.07Z" style="fill:#bc917b;fill-rule:nonzero;"/><path d="M153.3,193.62" style="fill:#bc917b;fill-rule:nonzero;"/><path d="M135.15,75.21l-0.27,0.27l0.04,0.09c0.09,-0.13 0.14,-0.27 0.23,-0.36Z" style="fill:#432e1b;fill-rule:nonzero;"/><path d="M94.18,126.16" style="fill:#432e1b;fill-rule:nonzero;"/><path d="M153.57,193.64" style="fill:#ba907b;fill-rule:nonzero;"/><path d="M153.57,193.64" style="fill:#ba907b;fill-rule:nonzero;"/><path d="M149.91,190.88c-0.1,-0.03 -0.21,-0.05 -0.31,-0.07c0.1,0.02 0.19,0.04 0.31,0.07Z" style="fill:#ba907b;fill-rule:nonzero;"/><path d="M153.57,190.68" style="fill:#ba907b;fill-rule:nonzero;"/><path d="M149.1,190.7c-0.09,-0.03 -0.18,-0.06 -0.27,-0.08l-0.01,0c0,0 0.1,0.03 0.28,0.08Z" style="fill:#ba907b;fill-rule:nonzero;"/><path d="M153.57,190.68" style="fill:#ba907b;fill-rule:nonzero;"/><path d="M140.54,174.91c-0.25,-5.13 9.42,-1.87 12.61,-1.71c2.52,0.13 10.19,-1.62 10.85,-1.17c4.52,3.04 -4.78,9.17 -11.01,9.17c-1.66,0 -12.3,-3.19 -12.45,-6.29Z" style="fill:#dcb497;fill-rule:nonzero;"/><path d="M106.96,131.29c0,0 4.9,20.13 13.33,21.77c8.43,1.65 17.55,-1.62 17.55,-1.62c0,0 0.87,-23.66 -3.45,-26.75c-4.31,-3.11 -14.24,-7.6 -27.43,6.6Z" style="fill:#fff;fill-rule:nonzero;"/><path d="M137.85,151.38c0,0 -0.19,0.05 -0.63,0.24c-0.1,-7.26 -0.78,-17.23 -3.47,-19.14c-4.01,-2.94 -13.05,-7.06 -25.14,4.23c-1.1,-3.12 -1.65,-5.49 -1.65,-5.49c13.21,-14.22 23.16,-9.74 27.44,-6.63c4.32,3.11 3.45,26.79 3.45,26.79Z" style="fill:#d6b496;fill-rule:nonzero;"/><path d="M132.86,141.13c0,4.58 -3.71,8.29 -8.29,8.29c-4.58,0 -8.3,-3.71 -8.3,-8.29c0,-4.58 3.72,-8.3 8.3,-8.3c4.58,0 8.29,3.72 8.29,8.3Z" style="fill:#482315;fill-rule:nonzero;"/><path d="M124.18,146.65c-2.39,-0.2 -4.23,-2.62 -4.01,-5.27c0.21,-2.66 2.42,-4.74 4.81,-4.54c2.4,0.2 4.23,2.61 4.02,5.27c-0.21,2.66 -2.43,4.74 -4.82,4.54Z" style="fill:#7e3a22;fill-rule:nonzero;"/><path d="M124.39,145.69c-1.67,-0.14 -3.4,-1.97 -3.22,-4.22c0.19,-2.26 2.19,-3.79 3.86,-3.65c1.67,0.14 3.39,1.98 3.21,4.23c-0.18,2.26 -2.19,3.78 -3.85,3.64Z" style="fill:#211a10;fill-rule:nonzero;"/><path d="M123.04,140.13c-0.07,0.82 -0.91,1.41 -1.87,1.33c-0.96,-0.08 -1.68,-0.81 -1.61,-1.62c0.07,-0.81 0.9,-1.41 1.86,-1.33c0.96,0.08 1.68,0.8 1.62,1.62Z" style="fill:#fff;fill-rule:nonzero;"/><path d="M128.41,144.84c-0.03,0.41 -0.45,0.71 -0.93,0.67c-0.48,-0.04 -0.84,-0.41 -0.81,-0.81c0.04,-0.41 0.46,-0.71 0.93,-0.67c0.48,0.04 0.85,0.4 0.81,0.81Z" style="fill:#fff;fill-rule:nonzero;"/><path d="M153.71,196.01" style="fill:#ba907b;fill-rule:nonzero;"/><path d="M153.71,196.01" style="fill:#ba907b;fill-rule:nonzero;"/><path d="M150.04,193.25c-0.1,-0.02 -0.21,-0.04 -0.31,-0.06c0.1,0.02 0.19,0.04 0.31,0.06Z" style="fill:#ba907b;fill-rule:nonzero;"/><path d="M153.71,193.05" style="fill:#ba907b;fill-rule:nonzero;"/><path d="M149.24,193.07c-0.1,-0.02 -0.19,-0.05 -0.28,-0.08l-0.01,0.01c0,0 0.11,0.03 0.29,0.07Z" style="fill:#ba907b;fill-rule:nonzero;"/><path d="M153.71,193.05" style="fill:#ba907b;fill-rule:nonzero;"/><path d="M153.59,195.64" style="fill:#bc917b;fill-rule:nonzero;"/><path d="M153.59,195.64" style="fill:#bc917b;fill-rule:nonzero;"/><path d="M149.67,192.68c-0.12,-0.02 -0.23,-0.04 -0.34,-0.07c0.11,0.03 0.21,0.05 0.34,0.07Z" style="fill:#bc917b;fill-rule:nonzero;"/><path d="M153.59,192.47" style="fill:#bc917b;fill-rule:nonzero;"/><path d="M148.8,192.49c-0.1,-0.03 -0.19,-0.06 -0.3,-0.08l-0.01,0c0,0 0.12,0.03 0.31,0.08Z" style="fill:#bc917b;fill-rule:nonzero;"/><path d="M153.59,192.47" style="fill:#bc917b;fill-rule:nonzero;"/><path d="M153.35,194.8" style="fill:#bc917b;fill-rule:nonzero;"/><path d="M153.34,194.8l0.01,0l-0.01,0Z" style="fill:#bc917b;fill-rule:nonzero;"/><path d="M149.42,191.84c-0.11,-0.02 -0.23,-0.04 -0.34,-0.07c0.11,0.02 0.21,0.04 0.34,0.07Z" style="fill:#bc917b;fill-rule:nonzero;"/><path d="M153.35,191.63" style="fill:#bc917b;fill-rule:nonzero;"/><path d="M148.55,191.65c-0.1,-0.03 -0.19,-0.06 -0.29,-0.08l-0.01,0c0,0 0.11,0.03 0.3,0.08Z" style="fill:#bc917b;fill-rule:nonzero;"/><path d="M153.34,191.63l0.01,0l-0.01,0Z" style="fill:#bc917b;fill-rule:nonzero;"/><path d="M153.98,194.59" style="fill:#bc917b;fill-rule:nonzero;"/><path d="M153.98,194.59" style="fill:#bc917b;fill-rule:nonzero;"/><path d="M150.19,191.73c-0.11,-0.03 -0.22,-0.05 -0.33,-0.07c0.11,0.02 0.2,0.04 0.33,0.07Z" style="fill:#bc917b;fill-rule:nonzero;"/><path d="M153.98,191.52" style="fill:#bc917b;fill-rule:nonzero;"/><path d="M149.35,191.54c-0.1,-0.03 -0.19,-0.05 -0.28,-0.08l-0.02,0c0,0 0.12,0.03 0.3,0.08Z" style="fill:#bc917b;fill-rule:nonzero;"/><path d="M153.98,191.52" style="fill:#bc917b;fill-rule:nonzero;"/><path d="M199.77,130.6c0,0 -4.91,20.14 -13.34,21.78c-8.42,1.64 -17.54,-1.62 -17.54,-1.62c0,0 -0.88,-23.67 3.44,-26.76c4.31,-3.1 14.25,-7.59 27.44,6.6Z" style="fill:#fff;fill-rule:nonzero;"/><path d="M168.87,150.69c0,0 0.2,0.06 0.63,0.24c0.11,-7.26 0.78,-17.23 3.47,-19.14c4.01,-2.93 13.06,-7.06 25.14,4.23c1.1,-3.12 1.65,-5.48 1.65,-5.48c-13.21,-14.22 -23.16,-9.74 -27.44,-6.63c-4.32,3.1 -3.45,26.78 -3.45,26.78Z" style="fill:#d6b496;fill-rule:nonzero;"/><path d="M173.86,140.44c0,4.58 3.72,8.29 8.3,8.29c4.58,0 8.29,-3.71 8.29,-8.29c0,-4.58 -3.71,-8.29 -8.29,-8.29c-4.58,0 -8.3,3.71 -8.3,8.29Z" style="fill:#482315;fill-rule:nonzero;"/><path d="M182.54,145.96c2.4,-0.19 4.24,-2.61 4.02,-5.27c-0.22,-2.66 -2.42,-4.73 -4.82,-4.53c-2.4,0.19 -4.23,2.61 -4.02,5.26c0.22,2.66 2.43,4.74 4.82,4.54Z" style="fill:#7e3a22;fill-rule:nonzero;"/><path d="M182.34,145.01c1.66,-0.15 3.39,-1.98 3.21,-4.23c-0.19,-2.26 -2.19,-3.78 -3.86,-3.65c-1.67,0.14 -3.39,1.98 -3.21,4.23c0.19,2.26 2.19,3.78 3.86,3.65Z" style="fill:#211a10;fill-rule:nonzero;"/><path d="M183.69,139.45c0.06,0.81 0.9,1.41 1.86,1.33c0.96,-0.08 1.68,-0.81 1.62,-1.62c-0.07,-0.82 -0.9,-1.41 -1.86,-1.34c-0.97,0.08 -1.69,0.81 -1.62,1.63Z" style="fill:#fff;fill-rule:nonzero;"/><path d="M178.31,144.16c0.03,0.4 0.45,0.7 0.93,0.66c0.48,-0.04 0.84,-0.4 0.81,-0.81c-0.04,-0.4 -0.45,-0.7 -0.93,-0.66c-0.48,0.04 -0.85,0.4 -0.81,0.81Z" style="fill:#fff;fill-rule:nonzero;"/><path d="M142.9,130.96c-0.07,-0.09 -1.59,-2.42 -4.72,-4.82c-1.96,-1.5 -3.88,-2.64 -5.87,-3.49c-2.42,-1.02 -5.03,-1.74 -7.55,-2.08c-2.29,-0.26 -4.82,-0.19 -7.77,0.21c-2.25,0.43 -4.45,1.1 -6.32,1.92c-1.33,0.46 -2.38,1.1 -3.23,1.62c-0.32,0.2 -0.61,0.38 -0.91,0.54l-4.02,2.53l4.63,-1.09c0.22,-0.06 0.45,-0.12 0.71,-0.18c0.96,-0.26 2.15,-0.58 3.55,-0.78c0.33,-0.05 0.66,-0.12 1,-0.18c0.58,-0.12 1.19,-0.24 1.82,-0.27c0.7,-0.05 1.43,-0.1 2.18,-0.15l0.98,-0.07c2.56,-0.04 4.73,0.16 6.66,0.6c2.11,0.37 4.27,1.05 6.26,1.97c1.88,0.89 3.67,1.78 5.08,2.81c2.83,1.9 4.41,3.47 4.42,3.49c0.39,0.39 0.91,0.59 1.43,0.59c0.39,0 0.77,-0.11 1.1,-0.33c0.94,-0.61 1.2,-1.87 0.6,-2.77l-0.03,-0.07Z" style="fill:#030405;fill-rule:nonzero;"/><path d="M200.6,124.84c-0.27,-0.14 -0.56,-0.32 -0.89,-0.52c-0.84,-0.52 -1.89,-1.16 -3.18,-1.61c-1.91,-0.83 -4.11,-1.5 -6.39,-1.94c-2.93,-0.39 -5.46,-0.46 -7.75,-0.2c-2.52,0.34 -5.12,1.06 -7.55,2.08c-1.96,0.84 -3.93,2.01 -5.86,3.49c-3.07,2.36 -4.6,4.64 -4.71,4.82l-0.03,0.04c-0.52,0.8 -0.41,1.86 0.26,2.54c0.38,0.38 0.89,0.59 1.43,0.59c0.54,0 1.05,-0.21 1.43,-0.59l0.01,-0.02c0.15,-0.15 1.68,-1.64 4.43,-3.48c1.38,-1.01 3.18,-1.9 5.05,-2.8c1.99,-0.92 4.16,-1.6 6.29,-1.97c1.9,-0.44 4.08,-0.63 6.61,-0.6l1.02,0.07c0.75,0.05 1.47,0.1 2.18,0.15c0.62,0.03 1.22,0.15 1.81,0.27c0.34,0.06 0.67,0.13 1,0.18c1.4,0.2 2.59,0.52 3.55,0.78c0.25,0.06 0.49,0.12 0.71,0.18l4.64,1.09l-4.06,-2.55Z" style="fill:#030405;fill-rule:nonzero;"/><path d="M150.71,203.02" style="fill:#be927b;fill-rule:nonzero;"/><path d="M150.71,203.02" style="fill:#be927b;fill-rule:nonzero;"/><path d="M147.07,200.28c-0.11,-0.02 -0.21,-0.04 -0.31,-0.07c0.1,0.03 0.19,0.04 0.31,0.07Z" style="fill:#be927b;fill-rule:nonzero;"/><path d="M150.71,200.08" style="fill:#be927b;fill-rule:nonzero;"/><path d="M146.27,200.1c-0.1,-0.02 -0.19,-0.05 -0.28,-0.08l-0.01,0.01c0,0 0.11,0.03 0.29,0.07Z" style="fill:#be927b;fill-rule:nonzero;"/><path d="M150.71,200.08" style="fill:#be927b;fill-rule:nonzero;"/><path d="M150.48,202.24" style="fill:#be927b;fill-rule:nonzero;"/><path d="M150.48,202.24" style="fill:#be927b;fill-rule:nonzero;"/><path d="M146.84,199.5c-0.11,-0.02 -0.21,-0.04 -0.31,-0.07c0.1,0.03 0.19,0.04 0.31,0.07Z" style="fill:#be927b;fill-rule:nonzero;"/><path d="M150.48,199.3" style="fill:#be927b;fill-rule:nonzero;"/><path d="M146.04,199.32c-0.1,-0.02 -0.19,-0.05 -0.28,-0.08l-0.01,0.01c0,0 0.11,0.03 0.29,0.07Z" style="fill:#be927b;fill-rule:nonzero;"/><path d="M150.48,199.3" style="fill:#be927b;fill-rule:nonzero;"/><path d="M151.07,202.04" style="fill:#be927b;fill-rule:nonzero;"/><path d="M151.07,202.04" style="fill:#be927b;fill-rule:nonzero;"/><path d="M147.55,199.39c-0.1,-0.02 -0.2,-0.04 -0.3,-0.06c0.1,0.02 0.19,0.04 0.3,0.06Z" style="fill:#be927b;fill-rule:nonzero;"/><path d="M151.07,199.2" style="fill:#be927b;fill-rule:nonzero;"/><path d="M146.78,199.22c-0.1,-0.02 -0.18,-0.05 -0.27,-0.08l-0.01,0.01c0,0 0.1,0.03 0.28,0.07Z" style="fill:#be927b;fill-rule:nonzero;"/><path d="M151.07,199.2" style="fill:#be927b;fill-rule:nonzero;"/><path d="M140.81,201.79c-0.24,-3.2 8.91,0.67 11.92,0.76c2.4,0.08 9.6,-0.47 10.27,-0.73c5.03,-1.88 -0.28,5.35 -10.42,5.73c-4.65,0.19 -11.63,-3.82 -11.77,-5.76Z" style="fill:#f0d2ad;fill-rule:nonzero;"/><path d="M170.98,194.1c-5.81,-1.08 -18.03,0.08 -18.03,0.08c-10.09,1.67 -17.98,-0.11 -18.03,-0.04c-0.24,0.02 8.05,11.02 17.89,10.51c9.84,0.51 18.41,-10.51 18.17,-10.55Z" style="fill:#c2646e;fill-rule:nonzero;"/><path d="M158.78,191.78c-2.62,-0.29 -4.48,1.6 -5.82,1.46c-1.37,0.13 -3.14,-1.08 -5.77,-1.11c-3.7,-0.04 -5.51,-0.36 -12.27,2.01c0.24,0.46 4.57,2.97 12.69,3.11c0.12,0 2.3,1.23 5.39,1.21c1.94,-0.01 4.6,-1.3 4.71,-1.3c8.13,-0.13 13.1,-2.55 13.33,-3c-8.95,-2.77 -8.24,-2.42 -12.26,-2.38Z" style="fill:#d87475;fill-rule:nonzero;"/><path d="M111.43,239.55c-9.53,5.19 -20.98,15.84 -25.84,37.67l-0.02,0.08c-0.64,2.89 1.28,5.73 4.29,6.44l12.56,2.97l0,13.17l47.25,0l0,-40.57c-18.63,-1.69 -32.54,-13.88 -38.24,-19.76Z" style="fill:#be1e2d;fill-rule:nonzero;"/><path d="M222.54,277.27l-0.01,-0.05c-2.81,-13.13 -9.7,-28.72 -26.06,-37.37c-13.5,12.82 -26.28,18.26 -37.7,19.41l0,40.62l46.65,0l0,-13.17l12.82,-3.03c3,-0.71 4.92,-3.53 4.3,-6.41Z" style="fill:#be1e2d;fill-rule:nonzero;"/><path d="M65.65,124.89c1.58,-18.58 5.75,-33.41 5.75,-33.41c0,0 0.13,0.14 0.35,0.4c5.02,-18.17 13.36,-27.99 13.36,-27.99l0,0.01c4.06,-6.14 9.82,-12.6 16.86,-18.97c14.44,-13.01 23.51,-10.33 35.46,-9.96c0,0 0.04,0.08 0.1,0.21c5.24,-1.13 33.46,-6.77 50.25,-0.53c18.55,6.91 33.74,18.75 44.46,50.57c1.65,4.89 2.83,9.64 3.65,14.23c2.43,5.32 3.53,10.54 3.98,14.82l0.28,-0.05c0,0 9.34,50.05 35.67,60.04c0,0 -20,4.96 -35.83,-20.72c-0.37,5.09 -1.02,10.24 -2.05,15.26c0.87,6.6 1.93,12.05 1.93,15.57c0,24.89 -18.59,45.51 -15.72,70.57c1.89,16.52 9.5,29.32 9.5,29.32c0,0 -8.71,-11.31 -12.28,-21.91c-3.56,-10.6 -2.37,-29.69 3.57,-44.89c3.05,-7.79 3.9,-16.33 3.53,-24.6c-0.51,0.74 -1.02,1.48 -1.57,2.19c0,0 0.65,-2.11 1.37,-5.41c-0.33,-4.1 -0.94,-8.11 -1.71,-11.89c-0.13,-0.66 -0.27,-1.32 -0.41,-1.97c-0.17,-0.76 -0.36,-1.46 -0.53,-2.2c-1.65,3.42 -3.47,6.64 -5.4,9.65c-0.12,0.41 -0.24,0.83 -0.37,1.22c-1.22,3.99 -2.92,7.7 -4.39,11.21c-1.43,3.53 -2.91,6.84 -4.03,10.05c-1.03,3.2 -1.95,6.23 -2.42,9.1c-0.29,1.44 -0.43,2.84 -0.53,4.16c-0.18,1.34 -0.22,2.61 -0.21,3.81c-0.12,2.4 0.12,4.51 0.19,6.27c0.41,3.51 0.65,5.53 0.65,5.53c0,0 -0.21,-0.47 -0.62,-1.34c-0.37,-0.91 -1.07,-2.17 -1.69,-3.9c-0.52,-1.73 -1.37,-3.81 -1.77,-6.32c-0.56,-2.49 -0.93,-5.37 -0.86,-8.53c-0.08,-4.21 0.72,-8.87 1.99,-13.65c-6.82,7 -12.26,10.84 -12.26,10.84c0,0 7.98,-9.4 11.55,-18.77c2.76,-7.28 6.9,-19.77 6.9,-38.17c0,-0.85 -0.05,-1.71 -0.13,-2.58c-0.24,-0.99 -0.45,-2 -0.73,-2.98c-1.88,-6.67 -4.22,-12.88 -6.25,-18.37c-5.04,-9.8 -10.93,-17.23 -10.93,-17.23c0,0 8.32,14.28 9.96,30c1.66,15.71 -7.07,27.86 -7.07,27.86c0,0 1.75,-18.66 -4.35,-33.51c-3.07,-7.46 -8.1,-13.96 -16.35,-16.66l0.01,0.04c4.43,12.04 -4.46,22.15 -4.46,22.15c0,0 -0.03,-3.02 -0.91,-7.67c-2.28,-12.05 -10.26,-35.09 -38.13,-45.33l-0.87,1.25l-19.63,28.51c-0.97,1.3 -2.53,3.49 -4.35,6.32c-5.32,8.24 -12.67,21.76 -12.67,33.52c0,18.39 4.13,30.88 6.9,38.15c3.57,9.38 11.55,18.78 11.55,18.78c0,0 -4.35,-3.07 -10.15,-8.72c0.31,2.15 0.49,4.24 0.45,6.22c0.07,3.16 -0.3,6.04 -0.86,8.53c-0.4,2.51 -1.25,4.59 -1.77,6.32c-0.62,1.73 -1.32,2.99 -1.69,3.9c-0.41,0.87 -0.63,1.34 -0.63,1.34c0,0 0.25,-2.02 0.66,-5.53c0.07,-1.76 0.31,-3.87 0.19,-6.27c0.01,-1.2 -0.03,-2.47 -0.21,-3.81c-0.1,-1.32 -0.24,-2.72 -0.53,-4.16c-0.47,-2.87 -1.39,-5.9 -2.42,-9.1c-1.01,-2.91 -2.32,-5.91 -3.63,-9.07c-4.15,-5.32 -8.25,-11.56 -11.55,-18.63c-2.46,12.26 -3.26,26.83 1.67,39.45c5.93,15.2 7.13,34.29 3.57,44.89c-3.57,10.6 -12.28,21.91 -12.28,21.91c0,0 7.61,-12.8 9.5,-29.32c2.87,-25.06 -15.72,-45.68 -15.72,-70.57c0,-3.17 0.86,-7.91 1.67,-13.64c-1.74,-4.46 -2.97,-9.23 -3.78,-14.15c-15.47,22.22 -33.84,17.68 -33.84,17.68c18.6,-7.06 28.72,-34.1 33.06,-49.37Z" style="fill:#fff;fill-rule:nonzero;"/><path d="M132.81,234.49c0,2.1 -1.7,3.8 -3.8,3.8c-2.1,0 -3.8,-1.7 -3.8,-3.8c0,-2.11 1.7,-3.81 3.8,-3.81c2.1,0 3.8,1.7 3.8,3.81Z" style="fill:#fafbfc;fill-rule:nonzero;"/><path d="M136.49,241.11c0,2.1 -1.7,3.8 -3.8,3.8c-2.1,0 -3.81,-1.7 -3.81,-3.8c0,-2.1 1.71,-3.81 3.81,-3.81c2.1,0 3.8,1.71 3.8,3.81Z" style="fill:#be1e2d;fill-rule:nonzero;"/><path d="M141.1,247.18c0,2.11 -1.71,3.81 -3.81,3.81c-2.1,0 -3.8,-1.7 -3.8,-3.81c0,-2.1 1.7,-3.8 3.8,-3.8c2.1,0 3.81,1.7 3.81,3.8Z" style="fill:#fafbfc;fill-rule:nonzero;"/><path d="M146.87,252.1c0,2.1 -1.7,3.81 -3.8,3.81c-2.1,0 -3.8,-1.71 -3.8,-3.81c0,-2.1 1.7,-3.8 3.8,-3.8c2.1,0 3.8,1.7 3.8,3.8Z" style="fill:#be1e2d;fill-rule:nonzero;"/><path d="M153.97,254.93c0,2.1 -1.7,3.81 -3.8,3.81c-2.11,0 -3.81,-1.71 -3.81,-3.81c0,-2.1 1.7,-3.8 3.81,-3.8c2.1,0 3.8,1.7 3.8,3.8Z" style="fill:#fafbfc;fill-rule:nonzero;"/><path d="M157.77,249.68c2.1,0 3.81,1.71 3.81,3.8c0,2.11 -1.71,3.81 -3.81,3.81c-2.09,0 -3.8,-1.7 -3.8,-3.81c0,-2.09 1.71,-3.8 3.8,-3.8Z" style="fill:#be1e2d;fill-rule:nonzero;"/><path d="M164.4,246.01c2.1,0 3.8,1.7 3.8,3.8c0,2.1 -1.7,3.8 -3.8,3.8c-2.1,0 -3.81,-1.7 -3.81,-3.8c0,-2.1 1.71,-3.8 3.81,-3.8Z" style="fill:#fafbfc;fill-rule:nonzero;"/><path d="M170.47,241.4c2.1,0 3.81,1.7 3.81,3.81c0,2.1 -1.71,3.8 -3.81,3.8c-2.1,0 -3.8,-1.7 -3.8,-3.8c0,-2.11 1.7,-3.81 3.8,-3.81Z" style="fill:#be1e2d;fill-rule:nonzero;"/><path d="M175.39,235.62c2.1,0 3.8,1.71 3.8,3.8c0,2.11 -1.7,3.81 -3.8,3.81c-2.1,0 -3.8,-1.7 -3.8,-3.81c0,-2.09 1.7,-3.8 3.8,-3.8Z" style="fill:#fafbfc;fill-rule:nonzero;"/><path d="M178.22,228.53c2.1,0 3.8,1.7 3.8,3.8c0,2.1 -1.7,3.81 -3.8,3.81c-2.1,0 -3.8,-1.71 -3.8,-3.81c0,-2.1 1.7,-3.8 3.8,-3.8Z" style="fill:#be1e2d;fill-rule:nonzero;"/></g></svg>