<?xml version="1.0" encoding="UTF-8" standalone="no"?><!DOCTYPE svg PUBLIC "-//W3C//DTD SVG 1.1//EN" "http://www.w3.org/Graphics/SVG/1.1/DTD/svg11.dtd"><svg width="100%" height="100%" viewBox="0 0 300 301" version="1.1" xmlns="http://www.w3.org/2000/svg" xmlns:xlink="http://www.w3.org/1999/xlink" xml:space="preserve" style="fill-rule:evenodd;clip-rule:evenodd;stroke-linejoin:round;stroke-miterlimit:1.41421;"><g id="_15"><rect x="0.399" y="0.18" width="299.371" height="299.71" style="fill:#ca5681;fill-rule:nonzero;"/><path d="M154.34,187.44l0,112.62l-60.72,0c-0.99,-0.4 -1.48,-0.6 -1.48,-0.6c0,-14.37 2.1,-25.58 5.3,-34.32c7.73,-21.1 21.88,-27.8 28.4,-29.82c2.13,-0.66 3.45,-0.82 3.45,-0.82c0.23,0 0.45,-0.02 0.67,-0.06c1.91,-0.31 3.46,-1.97 4.71,-4.63c0.92,-1.97 1.7,-4.49 2.33,-7.41c0.25,-1.14 0.45,-2.28 0.65,-3.52c0.29,-2.08 0.58,-4.26 0.84,-6.55c0.09,-1.38 0.24,-2.72 0.39,-4.16c0.54,-6.89 0.69,-14.43 0.69,-21.58c0,0 8.16,0.85 14.77,0.85Z" style="fill:#e0bd9a;fill-rule:nonzero;"/><path d="M216.8,299.46c0,0 -0.54,0.2 -1.43,0.6l-61.03,0l0,-112.62l0.15,0c6.57,0 14.83,-0.85 14.83,-0.85c0,7.1 0.14,14.53 0.69,21.43c0.15,1.34 0.3,2.72 0.39,4.07c0.25,2.38 0.55,4.61 0.89,6.69l0,0.05c0.1,0.94 0.3,1.79 0.45,2.68c0.6,2.93 1.33,5.5 2.2,7.57c1.1,2.57 2.42,4.36 4.03,5.07c0.52,0.24 1.06,0.35 1.63,0.35c0,0 2.34,0.28 5.84,1.66c7.15,2.81 19.16,10.18 26.05,28.98c3.21,8.74 5.31,19.95 5.31,34.32Z" style="fill:#efd0ad;fill-rule:nonzero;"/><path d="M171.29,218.57l0,0.05c-1.53,2.36 -6.67,9.16 -16.85,9.16l-0.09,0c-9.64,-0.05 -15.27,-7.04 -16.71,-9.11c0.3,-2.07 0.6,-4.24 0.84,-6.5c0.1,-1.33 0.25,-2.71 0.4,-4.14c4.69,1.18 9.83,1.92 15.27,2.02l0.2,0c5.63,-0.1 10.82,-0.89 15.66,-2.17c0.15,1.33 0.3,2.71 0.4,4.04c0.24,2.36 0.54,4.58 0.88,6.65Z" style="fill:#be987f;fill-rule:nonzero;"/><path d="M153.65,59.09c-64.33,0 -64.68,53.95 -61.81,89.28c-4.4,-8.38 -17.49,-5.82 -16.41,7.39c1.04,12.71 19.75,19.18 19.22,17.78c9.75,26.13 35.53,45.82 59,45.82l0.5,0l0,-160.27l-0.5,0Z" style="fill:#d2a686;fill-rule:nonzero;"/><path d="M79.53,150.19c3.17,-5.12 8.11,-2.91 9.29,-1.77c1.29,1.23 2.33,2.8 1.54,5.81c-0.45,1.72 -2.23,1.87 -1.83,4.43c0.49,2.91 1.83,3.06 2.62,3.75c0.74,0.64 1.68,1.13 2.12,2.36c0.5,1.23 0.54,2.51 0.3,3.65c-0.5,2.07 -3.51,0.39 -5.54,-0.5c-1.33,-0.64 -5.58,-4.23 -6.67,-5.41c-2.67,-3.06 -3.95,-8.97 -1.83,-12.32Z" style="fill:#ac8774;fill-rule:nonzero;"/><path d="M154,59.09c64.34,0 64.68,53.95 61.87,89.28c4.39,-8.38 17.44,-5.82 16.35,7.39c-0.99,12.71 -19.73,19.19 -19.22,17.78c-9.49,26.13 -35.53,45.82 -59,45.82c-0.15,0 -0.35,0 -0.35,0l-0.14,-160.27c0,0 0.34,0 0.49,0Z" style="fill:#ddb598;fill-rule:nonzero;"/><path d="M228.12,150.19c-3.16,-5.12 -8.05,-2.91 -9.29,-1.77c-1.28,1.23 -2.27,2.8 -1.53,5.81c0.44,1.72 2.22,1.87 1.83,4.43c-0.5,2.91 -1.83,3.06 -2.57,3.75c-0.74,0.64 -1.73,1.13 -2.18,2.36c-0.44,1.23 -0.54,2.51 -0.29,3.65c0.49,2.07 3.5,0.39 5.53,-0.5c1.38,-0.64 5.58,-4.23 6.67,-5.41c2.72,-3.06 3.95,-8.97 1.83,-12.32Z" style="fill:#ac8774;fill-rule:nonzero;"/><path d="M153.15,74.32c-21.15,0 -36.67,6.16 -46.01,18.28c-13.09,16.99 -12.6,42.91 -7.8,61.53c1.48,5.72 2.27,21.04 3.26,26.65c4.59,25.18 32.31,38.58 50.55,38.58c0,0 0.34,0 0.49,0l0,-145.04c-0.15,0 -0.29,0 -0.29,0l-0.2,0Z" style="fill:#e0bd9a;fill-rule:nonzero;"/><path d="M199.1,92.65c-9.29,-12.08 -24.61,-18.23 -45.46,-18.33l0,145.04c20.85,-0.25 45.81,-14.93 50.06,-38.58c1.04,-5.61 1.78,-20.93 3.26,-26.65c4.84,-18.57 5.34,-44.44 -7.86,-61.48Z" style="fill:#efd0ad;fill-rule:nonzero;"/><path d="M153.84,190.91" style="fill:#bc917b;fill-rule:nonzero;"/><path d="M153.84,190.91" style="fill:#bc917b;fill-rule:nonzero;"/><path d="M150.27,193.65c-0.1,-0.02 -0.2,-0.04 -0.31,-0.07c0.1,0.03 0.19,0.04 0.31,0.07Z" style="fill:#bc917b;fill-rule:nonzero;"/><path d="M153.84,193.46" style="fill:#bc917b;fill-rule:nonzero;"/><path d="M149.48,193.47c-0.09,-0.02 -0.18,-0.05 -0.27,-0.07l-0.01,0c0,0 0.11,0.03 0.28,0.07Z" style="fill:#bc917b;fill-rule:nonzero;"/><path d="M153.84,193.46" style="fill:#bc917b;fill-rule:nonzero;"/><path d="M141.37,175.86c-0.25,-5.01 9.17,-1.83 12.28,-1.67c2.46,0.12 9.92,-1.58 10.56,-1.14c4.4,2.97 -4.65,8.95 -10.72,8.95c-1.61,0 -11.98,-3.12 -12.12,-6.14Z" style="fill:#ddb598;fill-rule:nonzero;"/><path d="M135.68,74.68l-0.27,0.27l0.05,0.09c0.09,-0.14 0.13,-0.27 0.22,-0.36Z" style="fill:#432e1b;fill-rule:nonzero;"/><path d="M94.72,125.79" style="fill:#432e1b;fill-rule:nonzero;"/><path d="M154.11,193.47" style="fill:#ba907b;fill-rule:nonzero;"/><path d="M154.11,193.47" style="fill:#ba907b;fill-rule:nonzero;"/><path d="M150.44,190.71c-0.1,-0.03 -0.2,-0.05 -0.31,-0.07c0.1,0.02 0.19,0.04 0.31,0.07Z" style="fill:#ba907b;fill-rule:nonzero;"/><path d="M154.11,190.51" style="fill:#ba907b;fill-rule:nonzero;"/><path d="M149.64,190.53c-0.1,-0.03 -0.19,-0.06 -0.28,-0.08l-0.01,0c0,0 0.11,0.03 0.29,0.08Z" style="fill:#ba907b;fill-rule:nonzero;"/><path d="M154.11,190.51" style="fill:#ba907b;fill-rule:nonzero;"/><path d="M107.49,130.93c0,0 4.91,20.2 13.33,21.84c8.43,1.65 17.55,-1.62 17.55,-1.62c0,0 0.87,-23.74 -3.44,-26.84c-4.31,-3.12 -14.25,-7.62 -27.44,6.62Z" style="fill:#fff;fill-rule:nonzero;"/><path d="M138.38,151.08c0,0 -0.19,0.06 -0.62,0.24c-0.11,-7.28 -0.78,-17.28 -3.48,-19.2c-4,-2.94 -13.05,-7.08 -25.14,4.25c-1.09,-3.13 -1.64,-5.5 -1.64,-5.5c13.21,-14.27 23.16,-9.78 27.43,-6.66c4.32,3.12 3.45,26.87 3.45,26.87Z" style="fill:#d6b496;fill-rule:nonzero;"/><path d="M133.39,140.8c0,4.59 -3.71,8.32 -8.29,8.32c-4.58,0 -8.3,-3.73 -8.3,-8.32c0,-4.6 3.72,-8.32 8.3,-8.32c4.58,0 8.29,3.72 8.29,8.32Z" style="fill:#482315;fill-rule:nonzero;"/><path d="M124.71,146.34c-2.39,-0.2 -4.23,-2.62 -4.01,-5.29c0.21,-2.66 2.42,-4.75 4.82,-4.55c2.39,0.2 4.23,2.62 4.02,5.29c-0.22,2.66 -2.43,4.75 -4.83,4.55Z" style="fill:#7e3a22;fill-rule:nonzero;"/><path d="M124.92,145.38c-1.67,-0.14 -3.4,-1.98 -3.21,-4.24c0.18,-2.27 2.19,-3.8 3.85,-3.66c1.67,0.14 3.4,1.99 3.21,4.25c-0.18,2.26 -2.19,3.79 -3.85,3.65Z" style="fill:#211a10;fill-rule:nonzero;"/><path d="M123.57,139.8c-0.07,0.82 -0.91,1.42 -1.86,1.34c-0.96,-0.08 -1.69,-0.81 -1.62,-1.63c0.07,-0.82 0.9,-1.41 1.86,-1.34c0.96,0.08 1.68,0.81 1.62,1.63Z" style="fill:#fff;fill-rule:nonzero;"/><path d="M128.95,144.53c-0.04,0.4 -0.46,0.7 -0.93,0.66c-0.48,-0.03 -0.84,-0.4 -0.81,-0.81c0.03,-0.4 0.45,-0.71 0.93,-0.66c0.48,0.03 0.84,0.4 0.81,0.81Z" style="fill:#fff;fill-rule:nonzero;"/><path d="M154.24,190.42" style="fill:#ba907b;fill-rule:nonzero;"/><path d="M154.24,190.42" style="fill:#ba907b;fill-rule:nonzero;"/><path d="M150.57,193.09c-0.1,-0.02 -0.2,-0.04 -0.31,-0.07c0.11,0.02 0.2,0.04 0.31,0.07Z" style="fill:#ba907b;fill-rule:nonzero;"/><path d="M154.24,192.89" style="fill:#ba907b;fill-rule:nonzero;"/><path d="M149.77,192.91c-0.1,-0.03 -0.18,-0.05 -0.28,-0.08l-0.01,0c0,0 0.11,0.03 0.29,0.08Z" style="fill:#ba907b;fill-rule:nonzero;"/><path d="M154.24,192.89" style="fill:#ba907b;fill-rule:nonzero;"/><path d="M154.13,190.05" style="fill:#bc917b;fill-rule:nonzero;"/><path d="M154.13,190.05" style="fill:#bc917b;fill-rule:nonzero;"/><path d="M150.2,192.52c-0.11,-0.03 -0.22,-0.05 -0.34,-0.07c0.11,0.02 0.21,0.04 0.34,0.07Z" style="fill:#bc917b;fill-rule:nonzero;"/><path d="M154.13,192.31" style="fill:#bc917b;fill-rule:nonzero;"/><path d="M149.33,192.32c-0.1,-0.02 -0.19,-0.05 -0.29,-0.08l-0.01,0.01c0,0 0.11,0.03 0.3,0.07Z" style="fill:#bc917b;fill-rule:nonzero;"/><path d="M154.13,192.31" style="fill:#bc917b;fill-rule:nonzero;"/><path d="M153.88,189.21" style="fill:#bc917b;fill-rule:nonzero;"/><path d="M153.88,189.21" style="fill:#bc917b;fill-rule:nonzero;"/><path d="M149.95,191.67c-0.11,-0.02 -0.22,-0.04 -0.33,-0.07c0.11,0.03 0.2,0.05 0.33,0.07Z" style="fill:#bc917b;fill-rule:nonzero;"/><path d="M153.88,191.46" style="fill:#bc917b;fill-rule:nonzero;"/><path d="M149.09,191.48c-0.11,-0.03 -0.2,-0.06 -0.3,-0.08l-0.01,0c0,0 0.11,0.03 0.31,0.08Z" style="fill:#bc917b;fill-rule:nonzero;"/><path d="M153.88,191.46" style="fill:#bc917b;fill-rule:nonzero;"/><path d="M154.52,188.99" style="fill:#bc917b;fill-rule:nonzero;"/><path d="M154.52,188.99" style="fill:#bc917b;fill-rule:nonzero;"/><path d="M150.72,191.56c-0.11,-0.03 -0.22,-0.05 -0.32,-0.07c0.1,0.02 0.2,0.04 0.32,0.07Z" style="fill:#bc917b;fill-rule:nonzero;"/><path d="M154.52,191.35" style="fill:#bc917b;fill-rule:nonzero;"/><path d="M149.89,191.37c-0.1,-0.03 -0.19,-0.05 -0.29,-0.08l-0.01,0c0,0 0.11,0.03 0.3,0.08Z" style="fill:#bc917b;fill-rule:nonzero;"/><path d="M154.52,191.35" style="fill:#bc917b;fill-rule:nonzero;"/><path d="M200.3,130.24c0,0 -4.91,20.2 -13.33,21.85c-8.43,1.65 -17.55,-1.63 -17.55,-1.63c0,0 -0.87,-23.74 3.44,-26.84c4.31,-3.11 14.25,-7.62 27.44,6.62Z" style="fill:#fff;fill-rule:nonzero;"/><path d="M169.41,150.4c0,0 0.19,0.05 0.62,0.23c0.11,-7.28 0.78,-17.28 3.48,-19.19c4,-2.95 13.05,-7.09 25.13,4.24c1.1,-3.13 1.65,-5.5 1.65,-5.5c-13.21,-14.27 -23.16,-9.77 -27.44,-6.66c-4.32,3.12 -3.44,26.88 -3.44,26.88Z" style="fill:#d6b496;fill-rule:nonzero;"/><path d="M174.4,140.11c0,4.6 3.71,8.32 8.29,8.32c4.58,0 8.29,-3.72 8.29,-8.32c0,-4.59 -3.71,-8.32 -8.29,-8.32c-4.58,0 -8.29,3.73 -8.29,8.32Z" style="fill:#482315;fill-rule:nonzero;"/><path d="M183.07,145.65c2.4,-0.2 4.24,-2.62 4.02,-5.29c-0.21,-2.66 -2.42,-4.75 -4.82,-4.55c-2.39,0.2 -4.23,2.62 -4.02,5.29c0.22,2.66 2.43,4.75 4.82,4.55Z" style="fill:#7e3a22;fill-rule:nonzero;"/><path d="M182.87,144.69c1.67,-0.14 3.4,-1.98 3.21,-4.24c-0.19,-2.26 -2.19,-3.79 -3.85,-3.66c-1.67,0.15 -3.4,1.99 -3.21,4.25c0.18,2.26 2.19,3.79 3.85,3.65Z" style="fill:#211a10;fill-rule:nonzero;"/><path d="M184.22,139.12c0.07,0.81 0.9,1.41 1.86,1.33c0.96,-0.08 1.68,-0.81 1.62,-1.62c-0.07,-0.82 -0.9,-1.42 -1.86,-1.34c-0.96,0.08 -1.69,0.81 -1.62,1.63Z" style="fill:#fff;fill-rule:nonzero;"/><path d="M178.84,143.84c0.04,0.41 0.45,0.71 0.93,0.67c0.48,-0.04 0.84,-0.41 0.81,-0.82c-0.03,-0.4 -0.45,-0.7 -0.93,-0.66c-0.48,0.04 -0.84,0.4 -0.81,0.81Z" style="fill:#fff;fill-rule:nonzero;"/><path d="M143.43,130.61c-0.06,-0.1 -1.59,-2.43 -4.72,-4.84c-1.96,-1.51 -3.88,-2.65 -5.87,-3.51c-2.42,-1.02 -5.02,-1.74 -7.55,-2.09c-2.28,-0.25 -4.81,-0.18 -7.77,0.22c-2.25,0.43 -4.45,1.1 -6.32,1.93c-1.33,0.45 -2.38,1.1 -3.22,1.62c-0.33,0.2 -0.62,0.38 -0.92,0.54l-4.02,2.54l4.64,-1.1c0.21,-0.05 0.45,-0.11 0.7,-0.18c0.96,-0.25 2.15,-0.57 3.55,-0.78c0.33,-0.05 0.66,-0.11 1,-0.18c0.59,-0.12 1.19,-0.24 1.82,-0.27c0.71,-0.04 1.43,-0.1 2.18,-0.15l0.98,-0.07c2.57,-0.03 4.74,0.16 6.66,0.61c2.11,0.36 4.28,1.04 6.26,1.97c1.88,0.9 3.68,1.79 5.08,2.82c2.83,1.9 4.41,3.48 4.42,3.5c0.39,0.39 0.91,0.59 1.44,0.59c0.38,0 0.76,-0.1 1.09,-0.32c0.94,-0.62 1.2,-1.88 0.61,-2.79l-0.04,-0.06Z" style="fill:#030405;fill-rule:nonzero;"/><path d="M201.13,124.46c-0.27,-0.14 -0.56,-0.32 -0.89,-0.52c-0.84,-0.52 -1.89,-1.17 -3.18,-1.61c-1.91,-0.84 -4.11,-1.51 -6.39,-1.95c-2.93,-0.39 -5.46,-0.46 -7.75,-0.2c-2.51,0.34 -5.12,1.06 -7.54,2.08c-1.97,0.85 -3.94,2.03 -5.87,3.51c-3.07,2.36 -4.6,4.65 -4.71,4.83l-0.03,0.04c-0.52,0.8 -0.41,1.87 0.26,2.55c0.38,0.38 0.89,0.59 1.43,0.59c0.54,0 1.05,-0.21 1.43,-0.59l0.01,-0.02c0.15,-0.15 1.68,-1.65 4.43,-3.49c1.38,-1.02 3.18,-1.91 5.05,-2.81c2,-0.93 4.16,-1.61 6.3,-1.98c1.9,-0.44 4.07,-0.63 6.6,-0.6l1.03,0.07c0.74,0.05 1.46,0.11 2.17,0.15c0.62,0.03 1.22,0.15 1.81,0.27c0.34,0.07 0.67,0.13 1,0.18c1.4,0.21 2.59,0.53 3.55,0.78c0.26,0.07 0.49,0.13 0.71,0.19l4.64,1.09l-4.06,-2.56Z" style="fill:#030405;fill-rule:nonzero;"/><path d="M152.95,198.37" style="fill:#be927b;fill-rule:nonzero;"/><path d="M152.95,198.37" style="fill:#be927b;fill-rule:nonzero;"/><path d="M149.12,195.48c-0.11,-0.02 -0.22,-0.05 -0.33,-0.07c0.11,0.02 0.2,0.04 0.33,0.07Z" style="fill:#be927b;fill-rule:nonzero;"/><path d="M152.95,195.27" style="fill:#be927b;fill-rule:nonzero;"/><path d="M148.28,195.29c-0.1,-0.03 -0.2,-0.05 -0.29,-0.08l-0.01,0c0,0 0.11,0.03 0.3,0.08Z" style="fill:#be927b;fill-rule:nonzero;"/><path d="M152.95,195.27" style="fill:#be927b;fill-rule:nonzero;"/><path d="M141.75,199.65c-0.24,-3.25 9.02,0.68 12.06,0.77c2.43,0.08 9.71,-0.48 10.39,-0.74c5.09,-1.91 -0.28,5.43 -10.54,5.82c-4.7,0.18 -11.77,-3.88 -11.91,-5.85Z" style="fill:#f0d2ad;fill-rule:nonzero;"/><path d="M171.9,193.39c-2.51,-0.13 -5.09,1.97 -8.12,1.65c-0.12,-0.06 -0.18,-0.06 -0.31,-0.06c-0.7,-0.12 -1.39,0 -2.14,0.19c-0.94,0.19 -1.89,0.58 -2.77,0.88c-1.51,0.5 -3.22,0.89 -4.97,0.76l0,0.01l-0.1,-0.01l-0.09,0.01l0,-0.01c-1.76,0.13 -3.46,-0.26 -4.97,-0.76c-0.89,-0.3 -1.83,-0.69 -2.77,-0.88c-0.76,-0.19 -1.45,-0.31 -2.14,-0.19c-0.13,0 -0.19,0 -0.31,0.06c-3.03,0.32 -5.61,-1.78 -8.12,-1.65c-0.7,0.06 -1.71,-0.13 -2.27,-0.13c0.12,0.06 0.25,0.13 0.38,0.19c7.17,3.5 13.35,10.06 20.2,9.85l0.19,0c6.85,0.21 13.03,-6.35 20.2,-9.85c0.13,-0.06 0.25,-0.13 0.38,-0.19c-0.57,0 -1.57,0.19 -2.27,0.13Z" style="fill:#dcbf9e;fill-rule:nonzero;"/><path d="M174.01,193.19c0,0 -7.29,-2.82 -12.47,-1.17c0,0 -1.93,0.76 -3.93,1.22c-1.22,0.47 -2.69,0.61 -4.12,0.55c-1.09,-0.04 -2.12,-0.18 -2.97,-0.33c-0.29,-0.04 -0.57,-0.1 -0.86,-0.16c-0.12,-0.03 -0.22,-0.05 -0.32,-0.07c-0.18,-0.04 -0.35,-0.08 -0.52,-0.12c-0.19,-0.05 -0.3,-0.08 -0.3,-0.08l0.01,0c-1.66,-0.45 -3.08,-1.01 -3.08,-1.01c-5.18,-1.65 -12.47,1.17 -12.47,1.17c-0.1,0.04 -0.16,0.07 -0.16,0.07c0.56,0 1.57,0.19 2.27,0.13c2.51,-0.13 5.09,1.97 8.12,1.65c0.12,-0.06 0.18,-0.06 0.31,-0.06c0.69,-0.12 1.38,0 2.14,0.19c0.94,0.19 1.88,0.58 2.77,0.88c1.51,0.5 3.21,0.89 4.97,0.76l0,0.01l0.09,-0.01l0.1,0.01l0,-0.01c1.75,0.13 3.46,-0.26 4.97,-0.76c0.88,-0.3 1.83,-0.69 2.77,-0.88c0.75,-0.19 1.44,-0.31 2.14,-0.19c0.13,0 0.19,0 0.31,0.06c3.03,0.32 5.61,-1.78 8.12,-1.65c0.7,0.06 1.7,-0.13 2.27,-0.13c0,0 -0.06,-0.03 -0.16,-0.07Z" style="fill:#c69f83;fill-rule:nonzero;"/><path d="M141.26,194.9c0.13,0.03 13.65,4.16 24.22,0.09l-1.21,-0.82l-14.3,0l-8.71,0.73Z" style="fill:#c69f83;fill-rule:nonzero;"/><path d="M207.23,272.52l9.84,0c-0.6,-6.57 -7.34,-22.59 -7.34,-22.59c-0.69,-1 -1.38,-1.94 -2.09,-2.83c-9.64,-12.22 -21.04,-15.28 -24.32,-15.93c-7.58,10 -14.7,15.25 -21.17,17.43c-17.49,5.88 -30.23,-10.81 -34.49,-17.46c-1.28,0.25 -4.01,0.9 -7.46,2.45c-5.52,2.48 -12.88,7.25 -19.12,16.34c0,0 -0.06,0.1 -0.16,0.29c-1.01,1.87 -6.61,12.51 -8.95,22.3l11.64,0c0.15,12.84 -0.19,22.35 -0.52,27.54l104.64,0c-0.15,-2.32 -0.29,-5.51 -0.4,-9.47c-0.13,-4.9 -0.19,-10.97 -0.1,-18.07Z" style="fill:#9c3232;fill-rule:nonzero;"/><path d="M98.01,146.99c-0.26,-1.59 -0.4,-3.23 -0.4,-4.91c0,-7.37 2.51,-12.54 7.62,-15.58l2.45,-0.58c0.21,-0.05 0.45,-0.11 0.7,-0.18c0.96,-0.25 2.15,-0.57 3.55,-0.78c0.33,-0.05 0.66,-0.11 1,-0.18c0.59,-0.12 1.19,-0.24 1.82,-0.27c0.03,0 0.06,0 0.09,0c-2.31,1.5 -4.77,3.57 -7.34,6.36c0,0 0,0.01 0.01,0.04c-0.01,0.01 -0.02,0.01 -0.02,0.02c0,0 1.87,7.69 5.28,13.97c-5.04,0.44 -9.97,1.15 -14.76,2.09Zm48.2,-0.62c-2.6,-0.47 -5.19,-0.85 -7.76,-1.15c-0.02,-4.23 -0.22,-9.95 -0.96,-14.41c1.83,1.36 2.83,2.37 2.84,2.38c0.39,0.39 0.91,0.59 1.44,0.59c0.38,0 0.76,-0.1 1.09,-0.32c0.94,-0.62 1.2,-1.88 0.61,-2.79l-0.04,-0.06c-0.06,-0.1 -1.59,-2.43 -4.72,-4.84c-0.6,-0.47 -1.21,-0.9 -1.81,-1.3c6.9,1.56 11.75,4.98 11.75,12.44c0,3.11 -0.9,6.33 -2.44,9.46Z" style="fill:url(#_Linear1);"/><path d="M137.52,145.12c-1.7,-0.18 -3.4,-0.33 -5.08,-0.44c0.61,-1.16 0.95,-2.48 0.95,-3.88c0,-4.6 -3.71,-8.32 -8.29,-8.32c-4.58,0 -8.3,3.72 -8.3,8.32c0,1.35 0.33,2.63 0.9,3.77c-1.65,0.08 -3.3,0.19 -4.93,0.33c-3.41,-6.28 -5.28,-13.97 -5.28,-13.97c0,-0.01 0.01,-0.01 0.02,-0.02c0.08,0.34 0.62,2.58 1.63,5.46c6.07,-5.69 11.37,-7.48 15.65,-7.48c4.25,0 7.5,1.77 9.49,3.23c1.98,1.41 2.87,7.16 3.24,13Z" style="fill:url(#_Linear2);"/><path d="M138.45,145.22c-0.31,-0.03 -0.62,-0.07 -0.93,-0.1c-0.37,-5.84 -1.26,-11.59 -3.24,-13c-1.99,-1.46 -5.24,-3.23 -9.49,-3.23c-4.28,0 -9.58,1.79 -15.65,7.48c-1.01,-2.88 -1.55,-5.12 -1.63,-5.46c-0.01,-0.03 -0.01,-0.04 -0.01,-0.04c2.57,-2.79 5.03,-4.86 7.34,-6.36c0.68,-0.05 1.38,-0.1 2.09,-0.15l0.98,-0.07c0.18,0 0.35,0 0.53,0c2.34,0 4.34,0.19 6.13,0.61c2.11,0.36 4.28,1.04 6.26,1.97c1.88,0.9 3.68,1.79 5.08,2.82c0.58,0.39 1.11,0.77 1.58,1.12c0.74,4.46 0.94,10.18 0.96,14.41Z" style="fill:url(#_Linear3);"/><path d="M132.44,144.68c-1.17,-0.08 -2.33,-0.14 -3.49,-0.18c0,-0.16 -0.05,-0.31 -0.15,-0.44c0.41,-0.67 0.67,-1.44 0.74,-2.27c0.21,-2.67 -1.63,-5.09 -4.02,-5.29c-0.11,-0.01 -0.22,-0.01 -0.32,-0.01c-1.29,0 -2.5,0.65 -3.35,1.68c-0.02,0 -0.05,0 -0.07,0c-0.89,0 -1.63,0.57 -1.69,1.34c-0.04,0.5 0.21,0.96 0.64,1.27c-0.02,0.09 -0.03,0.18 -0.03,0.27c-0.1,1.25 0.24,2.44 0.89,3.38c-1.3,0.03 -2.6,0.07 -3.89,0.14c-0.57,-1.14 -0.9,-2.42 -0.9,-3.77c0,-4.6 3.72,-8.32 8.3,-8.32c4.58,0 8.29,3.72 8.29,8.32c0,1.4 -0.34,2.72 -0.95,3.88Z" style="fill:url(#_Linear4);"/><path d="M121.59,144.43c-0.65,-0.94 -0.99,-2.13 -0.89,-3.38c0,-0.09 0.01,-0.18 0.03,-0.27c0.27,0.2 0.6,0.33 0.98,0.36c-0.11,1.32 0.43,2.49 1.24,3.27c-0.46,0.01 -0.91,0.01 -1.36,0.02Zm7.21,-0.37c-0.14,-0.19 -0.38,-0.32 -0.66,-0.34c-0.03,-0.01 -0.06,-0.01 -0.08,-0.01c0.39,-0.55 0.65,-1.23 0.71,-1.98c0.19,-2.26 -1.54,-4.11 -3.21,-4.25c-0.07,0 -0.14,-0.01 -0.21,-0.01c-0.83,0 -1.71,0.39 -2.41,1.07c-0.27,-0.2 -0.61,-0.33 -0.99,-0.37c-0.03,0 -0.07,0 -0.1,0c0.85,-1.03 2.06,-1.68 3.35,-1.68c0.1,0 0.21,0 0.32,0.01c2.39,0.2 4.23,2.62 4.02,5.29c-0.07,0.83 -0.33,1.6 -0.74,2.27Z" style="fill:url(#_Linear5);"/><path d="M127.21,144.44c-1.03,-0.02 -2.05,-0.03 -3.07,-0.03c-0.4,0 -0.8,0 -1.19,0c-0.81,-0.78 -1.35,-1.95 -1.24,-3.27c0.05,0 0.11,0 0.17,0c0.88,0 1.63,-0.57 1.69,-1.34c0.04,-0.49 -0.21,-0.96 -0.63,-1.26c0.7,-0.68 1.58,-1.07 2.41,-1.07c0.07,0 0.14,0.01 0.21,0.01c1.67,0.14 3.4,1.99 3.21,4.25c-0.06,0.75 -0.32,1.43 -0.71,1.98l-0.01,0c-0.44,0 -0.81,0.29 -0.84,0.67c0,0.02 -0.01,0.04 0,0.06Z" style="fill:url(#_Linear6);"/><path d="M121.88,141.14c-0.06,0 -0.12,0 -0.17,0c-0.38,-0.03 -0.71,-0.16 -0.98,-0.36c-0.43,-0.31 -0.68,-0.77 -0.64,-1.27c0.06,-0.77 0.8,-1.34 1.69,-1.34l0.17,0c0.38,0.04 0.72,0.17 0.99,0.37c0.42,0.3 0.67,0.77 0.63,1.26c-0.06,0.77 -0.81,1.34 -1.69,1.34Z" style="fill:url(#_Linear7);"/><path d="M128.95,144.5c-0.58,-0.03 -1.16,-0.04 -1.74,-0.06c-0.01,-0.02 0,-0.04 0,-0.06c0.03,-0.38 0.4,-0.67 0.84,-0.67l0.01,0c0.02,0 0.05,0 0.08,0.01c0.28,0.02 0.52,0.15 0.66,0.34c0.1,0.13 0.15,0.28 0.15,0.44Z" style="fill:url(#_Linear8);"/><path d="M141.77,133.78c-0.53,0 -1.05,-0.2 -1.44,-0.59c-0.01,-0.01 -1.01,-1.02 -2.84,-2.38c-0.47,-0.35 -1,-0.73 -1.58,-1.12c-1.4,-1.03 -3.2,-1.92 -5.08,-2.82c-1.98,-0.93 -4.15,-1.61 -6.26,-1.97c-1.79,-0.42 -3.79,-0.61 -6.13,-0.61c-0.18,0 -0.35,0 -0.53,0l-0.98,0.07c-0.71,0.05 -1.41,0.1 -2.09,0.15c-0.03,0 -0.06,0 -0.09,0c-0.63,0.03 -1.23,0.15 -1.82,0.27c-0.34,0.07 -0.67,0.13 -1,0.18c-1.4,0.21 -2.59,0.53 -3.55,0.78c-0.25,0.07 -0.49,0.13 -0.7,0.18l-2.45,0.58c3.7,-2.2 8.75,-3.28 15.21,-3.28c5.85,0 11.65,0.17 16.46,1.25c0.6,0.4 1.21,0.83 1.81,1.3c3.13,2.41 4.66,4.74 4.72,4.84l0.04,0.06c0.59,0.91 0.33,2.17 -0.61,2.79c-0.33,0.22 -0.71,0.32 -1.09,0.32Z" style="fill:url(#_Linear9);"/><path d="M210.02,141.95c-0.24,-0.02 -0.47,-0.04 -0.71,-0.07c0.17,-1.27 0.3,-2.56 0.42,-3.86c0.18,1.23 0.28,2.54 0.29,3.93Z" style="fill:url(#_Linear10);"/><path d="M161.01,145.51c-1.28,-2.86 -2.03,-5.77 -2.03,-8.6c0,-7.77 5.27,-11.16 12.63,-12.62c-0.7,0.45 -1.4,0.95 -2.1,1.48c-3.07,2.36 -4.6,4.65 -4.71,4.83l-0.03,0.04c-0.52,0.8 -0.41,1.87 0.26,2.55c0.38,0.38 0.89,0.59 1.43,0.59c0.54,0 1.05,-0.21 1.43,-0.59l0.01,-0.02c0.11,-0.1 0.86,-0.84 2.22,-1.9c-0.56,4 -0.74,8.76 -0.78,12.53c-2.82,0.51 -5.6,1.08 -8.33,1.71Zm48.3,-3.63c-4.27,-0.38 -8.5,-0.56 -12.68,-0.56c-0.06,0 -0.12,0 -0.18,0c2.5,-5.52 3.85,-11.08 3.85,-11.08c-0.01,-0.01 -0.01,-0.01 -0.02,-0.02c0.01,-0.03 0.01,-0.04 0.01,-0.04c-2.18,-2.35 -4.26,-4.2 -6.25,-5.62c0.42,0.05 0.84,0.14 1.25,0.22c0.34,0.07 0.67,0.13 1,0.18c1.4,0.21 2.59,0.53 3.55,0.78c0.26,0.07 0.49,0.13 0.71,0.19l1.41,0.33c4.37,2.43 6.95,6.34 7.77,11.76c-0.12,1.3 -0.25,2.59 -0.42,3.86Z" style="fill:url(#_Linear11);"/><path d="M170.32,143.63c0.41,-5.56 1.3,-10.85 3.19,-12.19c1.99,-1.47 5.24,-3.23 9.49,-3.23c4.28,0 9.58,1.79 15.64,7.47c1.01,-2.88 1.56,-5.12 1.64,-5.46c0.01,0.01 0.01,0.01 0.02,0.02c0,0 -1.35,5.56 -3.85,11.08c-1.87,0 -3.73,0.04 -5.57,0.11c0.07,-0.43 0.1,-0.87 0.1,-1.32c0,-4.59 -3.71,-8.32 -8.29,-8.32c-4.58,0 -8.29,3.73 -8.29,8.32c0,0.98 0.17,1.92 0.48,2.8c-1.53,0.22 -3.05,0.46 -4.56,0.72Z" style="fill:url(#_Linear12);"/><path d="M169.34,143.8c0.04,-3.77 0.22,-8.53 0.78,-12.53c0.62,-0.48 1.36,-1.02 2.21,-1.59c1.38,-1.02 3.18,-1.91 5.05,-2.81c2,-0.93 4.16,-1.61 6.3,-1.98c1.78,-0.41 3.8,-0.61 6.14,-0.61c0.15,0 0.31,0.01 0.46,0.01l1.03,0.07c0.74,0.05 1.46,0.11 2.17,0.15c0.19,0.01 0.37,0.03 0.56,0.05c1.99,1.42 4.07,3.27 6.25,5.62c0,0 0,0.01 -0.01,0.04c-0.08,0.34 -0.63,2.58 -1.64,5.46c-6.06,-5.68 -11.36,-7.47 -15.64,-7.47c-4.25,0 -7.5,1.76 -9.49,3.23c-1.89,1.34 -2.78,6.63 -3.19,12.19c-0.33,0.06 -0.65,0.11 -0.98,0.17Z" style="fill:url(#_Linear13);"/><path d="M174.88,142.91c-0.31,-0.88 -0.48,-1.82 -0.48,-2.8c0,-4.59 3.71,-8.32 8.29,-8.32c4.58,0 8.29,3.73 8.29,8.32c0,0.45 -0.03,0.89 -0.1,1.32c-1.29,0.05 -2.57,0.12 -3.84,0.2c0.07,-0.41 0.09,-0.83 0.05,-1.27c-0.01,-0.09 -0.02,-0.18 -0.03,-0.27c0.42,-0.3 0.68,-0.77 0.64,-1.26c-0.07,-0.78 -0.8,-1.35 -1.69,-1.35c-0.03,0 -0.05,0 -0.07,0c-0.85,-1.03 -2.06,-1.68 -3.35,-1.68c-0.1,0 -0.21,0 -0.32,0.01c-2.39,0.2 -4.23,2.62 -4.02,5.29c0.04,0.46 0.14,0.9 0.29,1.32c-1.23,0.15 -2.45,0.31 -3.66,0.49Z" style="fill:url(#_Linear14);"/><path d="M178.54,142.42c-0.15,-0.42 -0.25,-0.86 -0.29,-1.32c-0.21,-2.67 1.63,-5.09 4.02,-5.29c0.11,-0.01 0.22,-0.01 0.32,-0.01c1.29,0 2.5,0.65 3.35,1.68c-0.04,0 -0.07,0 -0.1,0.01c-0.38,0.03 -0.72,0.16 -0.99,0.36c-0.7,-0.67 -1.59,-1.06 -2.42,-1.06c-0.07,0 -0.14,0 -0.2,0c-1.67,0.15 -3.4,1.99 -3.21,4.25c0.03,0.46 0.15,0.89 0.32,1.29c-0.27,0.03 -0.54,0.06 -0.8,0.09Zm7.45,-0.71c0.09,-0.4 0.13,-0.82 0.09,-1.26c0.37,-0.03 0.71,-0.16 0.98,-0.36c0.01,0.09 0.02,0.18 0.03,0.27c0.04,0.44 0.02,0.86 -0.05,1.27c-0.35,0.03 -0.7,0.05 -1.05,0.08Z" style="fill:url(#_Linear15);"/><path d="M179.34,142.33c-0.17,-0.4 -0.29,-0.83 -0.32,-1.29c-0.19,-2.26 1.54,-4.1 3.21,-4.25c0.06,0 0.13,0 0.2,0c0.83,0 1.72,0.39 2.42,1.06c-0.42,0.31 -0.67,0.77 -0.63,1.27c0.06,0.76 0.81,1.34 1.69,1.34c0.06,0 0.11,0 0.17,-0.01c0.04,0.44 0,0.86 -0.09,1.26c-2.24,0.16 -4.46,0.37 -6.65,0.62Z" style="fill:url(#_Linear16);"/><path d="M185.91,140.46c-0.88,0 -1.63,-0.58 -1.69,-1.34c-0.04,-0.5 0.21,-0.96 0.63,-1.27c0.27,-0.2 0.61,-0.33 0.99,-0.36c0.03,-0.01 0.06,-0.01 0.1,-0.01c0.02,0 0.04,0 0.07,0c0.89,0 1.62,0.57 1.69,1.35c0.04,0.49 -0.22,0.96 -0.64,1.26c-0.27,0.2 -0.61,0.33 -0.98,0.36c-0.06,0.01 -0.11,0.01 -0.17,0.01Z" style="fill:url(#_Linear17);"/><path d="M166.46,133.78c-0.54,0 -1.05,-0.21 -1.43,-0.59c-0.67,-0.68 -0.78,-1.75 -0.26,-2.55l0.03,-0.04c0.11,-0.18 1.64,-2.47 4.71,-4.83c0.7,-0.53 1.4,-1.03 2.1,-1.48c4.63,-0.92 10.08,-1.07 15.58,-1.07c6.19,0 11.11,1 14.77,3.04l-1.41,-0.33c-0.22,-0.06 -0.45,-0.12 -0.71,-0.19c-0.96,-0.25 -2.15,-0.57 -3.55,-0.78c-0.33,-0.05 -0.66,-0.11 -1,-0.18c-0.41,-0.08 -0.83,-0.17 -1.25,-0.22c-0.19,-0.02 -0.37,-0.04 -0.56,-0.05c-0.71,-0.04 -1.43,-0.1 -2.17,-0.15l-1.03,-0.07c-0.15,0 -0.31,-0.01 -0.46,-0.01c-2.34,0 -4.36,0.2 -6.14,0.61c-2.14,0.37 -4.3,1.05 -6.3,1.98c-1.87,0.9 -3.67,1.79 -5.05,2.81c-0.85,0.57 -1.59,1.11 -2.21,1.59c-1.36,1.06 -2.11,1.8 -2.22,1.9l-0.01,0.02c-0.38,0.38 -0.89,0.59 -1.43,0.59Z" style="fill:url(#_Linear18);"/><path d="M118.67,167.06c-10.38,0 -18.79,-8.5 -20.66,-20.07c4.79,-0.94 9.72,-1.65 14.76,-2.09c2.12,3.9 4.83,7.24 8.05,7.87c1.7,0.34 3.42,0.47 5.09,0.47c6.64,0 12.46,-2.09 12.46,-2.09c0,0 0,-0.02 0,-0.06c0.01,0 0.01,-0.01 0.01,-0.01c0,0 0.09,-2.44 0.07,-5.86c2.57,0.3 5.16,0.68 7.76,1.15c-5.34,10.91 -18.34,20.69 -27.54,20.69Z" style="fill:url(#_Linear19);"/><path d="M125.91,153.24c-1.67,0 -3.39,-0.13 -5.09,-0.47c-3.22,-0.63 -5.93,-3.97 -8.05,-7.87c1.63,-0.14 3.28,-0.25 4.93,-0.33c1.37,2.7 4.17,4.55 7.4,4.55c3.18,0 5.95,-1.8 7.34,-4.44c1.68,0.11 3.38,0.26 5.08,0.44c0.14,2.12 0.21,4.26 0.24,6.2c0.37,-0.16 0.57,-0.22 0.61,-0.23c0,0.04 0,0.06 0,0.06c0,0 -5.82,2.09 -12.46,2.09Z" style="fill:url(#_Linear20);"/><path d="M137.76,151.32c-0.03,-1.94 -0.1,-4.08 -0.24,-6.2c0.31,0.03 0.62,0.07 0.93,0.1c0.02,3.42 -0.07,5.86 -0.07,5.86c0,0 0,0.01 -0.01,0.01c-0.04,0.01 -0.24,0.07 -0.61,0.23Z" style="fill:url(#_Linear21);"/><path d="M125.1,149.12c-3.23,0 -6.03,-1.85 -7.4,-4.55c1.29,-0.07 2.59,-0.11 3.89,-0.14c0.73,1.07 1.85,1.8 3.12,1.91c0.11,0.01 0.22,0.01 0.32,0.01c1.07,0 2.07,-0.44 2.87,-1.17c0.04,0 0.08,0.01 0.12,0.01c0.03,0.01 0.06,0.01 0.08,0.01c0.44,0 0.81,-0.29 0.85,-0.67c0,-0.01 0,-0.02 0,-0.03c1.16,0.04 2.32,0.1 3.49,0.18c-1.39,2.64 -4.16,4.44 -7.34,4.44Z" style="fill:url(#_Linear22);"/><path d="M125.03,146.35c-0.1,0 -0.21,0 -0.32,-0.01c-1.27,-0.11 -2.39,-0.84 -3.12,-1.91c0.45,-0.01 0.9,-0.01 1.36,-0.02c0.57,0.56 1.28,0.91 1.97,0.97c0.07,0 0.14,0.01 0.21,0.01c0.71,0 1.46,-0.29 2.1,-0.79c0.07,0.28 0.33,0.51 0.67,0.58c-0.8,0.73 -1.8,1.17 -2.87,1.17Z" style="fill:url(#_Linear23);"/><path d="M125.13,145.39c-0.07,0 -0.14,-0.01 -0.21,-0.01c-0.69,-0.06 -1.4,-0.41 -1.97,-0.97c0.39,0 0.79,0 1.19,0c1.02,0 2.04,0.01 3.07,0.03c0,0.06 0,0.11 0.02,0.16c-0.64,0.5 -1.39,0.79 -2.1,0.79Z" style="fill:url(#_Linear24);"/><path d="M128.1,145.2c-0.02,0 -0.05,0 -0.08,-0.01c-0.04,0 -0.08,-0.01 -0.12,-0.01c-0.34,-0.07 -0.6,-0.3 -0.67,-0.58c-0.02,-0.05 -0.02,-0.1 -0.02,-0.16c0.58,0.02 1.16,0.03 1.74,0.06c0,0.01 0,0.02 0,0.03c-0.04,0.38 -0.41,0.67 -0.85,0.67Z" style="fill:url(#_Linear25);"/><path d="M206.56,155.95c0.13,-0.68 0.26,-1.29 0.4,-1.82c0.99,-3.82 1.81,-7.95 2.35,-12.25c0.24,0.03 0.47,0.05 0.71,0.07l0,0.13c0,5.17 -1.27,9.93 -3.46,13.87Z" style="fill:url(#_Linear26);"/><path d="M188.91,167.06c-9.41,0 -22.85,-10.3 -27.9,-21.55c2.73,-0.63 5.51,-1.2 8.33,-1.71c-0.04,3.8 0.07,6.6 0.07,6.6l0.01,0c0,0.04 0,0.06 0,0.06c0,0 5.82,2.09 12.46,2.09c1.67,0 3.39,-0.13 5.09,-0.46c4,-0.79 7.21,-5.76 9.48,-10.77c0.06,0 0.12,0 0.18,0c4.18,0 8.41,0.18 12.68,0.56c-0.54,4.3 -1.36,8.43 -2.35,12.25c-0.14,0.53 -0.27,1.14 -0.4,1.82c-3.73,6.74 -10.18,11.11 -17.65,11.11Z" style="fill:url(#_Linear27);"/><path d="M181.88,152.55c-6.64,0 -12.46,-2.09 -12.46,-2.09c0,0 0,-0.02 0,-0.06c0.04,0.01 0.23,0.07 0.61,0.23c0.04,-2.18 0.12,-4.62 0.29,-7c1.51,-0.26 3.03,-0.5 4.56,-0.72c1.14,3.22 4.21,5.52 7.81,5.52c4.13,0 7.56,-3.03 8.19,-7c1.84,-0.07 3.7,-0.11 5.57,-0.11c-2.27,5.01 -5.48,9.98 -9.48,10.77c-1.7,0.33 -3.42,0.46 -5.09,0.46Z" style="fill:url(#_Linear28);"/><path d="M170.03,150.63c-0.38,-0.16 -0.57,-0.22 -0.61,-0.23l-0.01,0c0,0 -0.11,-2.8 -0.07,-6.6c0.33,-0.06 0.65,-0.11 0.98,-0.17c-0.17,2.38 -0.25,4.82 -0.29,7Z" style="fill:url(#_Linear29);"/><path d="M182.69,148.43c-3.6,0 -6.67,-2.3 -7.81,-5.52c1.21,-0.18 2.43,-0.34 3.66,-0.49c0.11,0.34 0.27,0.66 0.44,0.95c-0.1,0.14 -0.15,0.3 -0.14,0.47c0.03,0.38 0.4,0.67 0.84,0.67c0.03,0 0.06,0 0.09,0c0.04,-0.01 0.08,-0.01 0.12,-0.02c0.79,0.73 1.8,1.18 2.87,1.18c0.1,0 0.21,-0.01 0.31,-0.02c2.01,-0.16 3.63,-1.89 3.97,-4.02c1.27,-0.08 2.55,-0.15 3.84,-0.2c-0.63,3.97 -4.06,7 -8.19,7Z" style="fill:url(#_Linear30);"/><path d="M182.76,145.67c-1.07,0 -2.08,-0.45 -2.87,-1.18c0.34,-0.07 0.6,-0.3 0.67,-0.58c0.64,0.5 1.39,0.79 2.1,0.79c0.07,0 0.14,0 0.21,-0.01c1.34,-0.11 2.73,-1.33 3.12,-2.98c0.35,-0.03 0.7,-0.05 1.05,-0.08c-0.34,2.13 -1.96,3.86 -3.97,4.02c-0.1,0.01 -0.21,0.02 -0.31,0.02Zm-3.78,-2.3c-0.17,-0.29 -0.33,-0.61 -0.44,-0.95c0.26,-0.03 0.53,-0.06 0.8,-0.09c0.11,0.25 0.24,0.48 0.39,0.69c-0.03,0 -0.05,0.01 -0.08,0.01c-0.28,0.02 -0.52,0.15 -0.67,0.34Z" style="fill:url(#_Linear31);"/><path d="M182.66,144.7c-0.71,0 -1.46,-0.29 -2.1,-0.79c0.02,-0.07 0.03,-0.14 0.02,-0.22c-0.03,-0.38 -0.4,-0.67 -0.84,-0.67l-0.01,0c-0.15,-0.21 -0.28,-0.44 -0.39,-0.69c2.19,-0.25 4.41,-0.46 6.65,-0.62c-0.39,1.65 -1.78,2.87 -3.12,2.98c-0.07,0.01 -0.14,0.01 -0.21,0.01Z" style="fill:url(#_Linear32);"/><path d="M179.68,144.51c-0.44,0 -0.81,-0.29 -0.84,-0.67c-0.01,-0.17 0.04,-0.33 0.14,-0.47c0.15,-0.19 0.39,-0.32 0.67,-0.34c0.03,0 0.05,-0.01 0.08,-0.01l0.01,0c0.44,0 0.81,0.29 0.84,0.67c0.01,0.08 0,0.15 -0.02,0.22c-0.07,0.28 -0.33,0.51 -0.67,0.58c-0.04,0.01 -0.08,0.01 -0.12,0.02c-0.03,0 -0.06,0 -0.09,0Z" style="fill:url(#_Linear33);"/><path d="M188.91,167.06c-11.8,0 -29.93,-16.19 -29.93,-30.15c0,-12.66 13.96,-13.69 28.21,-13.69c15.33,0 22.83,6.16 22.83,18.86c0,14 -9.26,24.98 -21.11,24.98Zm-35.1,-35.4c-2.84,0 -4.09,0.82 -4.6,2.54c-0.48,-2.84 -1.77,-5 -3.66,-6.63c6.67,1.98 14.16,0.56 16.53,0c-1.98,1.76 -3.31,4.09 -3.7,7.23c-0.52,-1.81 -1.64,-3.14 -4.57,-3.14Zm-35.1,35.4c-11.84,0 -21.1,-10.98 -21.1,-24.98c0,-12.7 7.5,-18.86 22.83,-18.86c14.3,0 28.21,1.03 28.21,13.69c0,1.25 -0.18,2.5 -0.43,3.75c-0.13,0.34 -0.22,0.69 -0.22,0.69c-3.36,12.96 -18.78,25.71 -29.29,25.71Zm68.48,-44.66c-7.97,0 -17.31,0.17 -23.17,3.75c-11.97,3.36 -20.33,0.04 -20.33,0.04c-5.94,-3.62 -15.29,-3.79 -23.25,-3.79c-14.86,0 -23.6,5.64 -23.6,19.68c0,14.08 9.21,25.84 21.87,25.84c11.25,0 26.71,-13.35 30.07,-26.14l0,-0.04c0.43,-1.64 0.68,-3.28 0.68,-4.83l0,-0.08c0.74,-2.2 2.2,-3.15 4.35,-3.15c2.16,0 3.62,0.91 4.4,3.19l0,0.04c0,1.51 0.26,3.1 0.64,4.7l0,0.17l0.05,0c3.35,12.79 18.77,26.14 30.01,26.14c12.71,0 21.92,-11.76 21.92,-25.84c0,-14.04 -8.74,-19.68 -23.64,-19.68Z" style="fill:#fff;fill-rule:nonzero;"/><path d="M174.53,34.86l8.63,4.53c-18.3,-5.61 -37.14,-1.69 -45.81,0.77c-3.15,0.69 -4.92,1.57 -4.92,1.57c0.77,-0.01 1.55,0.03 2.32,0.05c2.65,0.15 6.93,0.7 9.46,2.62c-3.81,-1.55 -10.37,-2.11 -21.37,2.16c-1.54,0.59 -2.95,1.22 -4.28,1.88c-4.67,2.04 -14.04,6.08 -32.03,13.73c0,0 5.94,2.3 13.01,3.08c-3.39,3.95 -6.89,7.33 -12.75,9.12c-15.3,4.7 -19.74,-1.32 -19.74,-1.32c0,0 6.64,10.54 18.43,10.57c1.9,0 2.1,-0.03 2.11,-0.04c-0.02,0.04 -4.42,11.32 -5.26,19.74c-0.87,8.61 1.83,14.5 2.66,30.61c0.72,13.77 4.6,6.71 9.22,16.86c1.57,3.4 1.63,7.23 1.63,7.23c1.71,0.4 6.21,-8.26 2.98,-23.32c-2.1,-9.77 8.29,-46.81 33.34,-39.59c3.52,1.01 6.42,2.27 8.97,3.51c6.09,3.06 56.18,29.78 37.91,72.6c0,0 19.14,-30.05 15.8,-61.8c2.54,7.21 4.35,17.26 4.59,31.35c0,0 9.71,-19.78 4.97,-39.36c5.4,6.7 8.05,16.95 6.75,30.98c-2.29,24.96 2.01,24.78 2.01,24.78c1.29,0 -0.09,-6.65 4.21,-11.23c4.3,-4.57 10.84,-20 10.84,-35.4c4.58,-75.65 -53.68,-75.68 -53.68,-75.68Z" style="fill:#fff;fill-rule:nonzero;"/><path d="M171.2,206.95c-1.71,0.99 -3.79,1.82 -6.1,2.49l0.01,-0.11c0,-2.52 -5.23,-5.11 -11.71,-5.13c-6.5,0.01 -11.75,2.06 -11.75,4.58l0.01,0.11c-2.32,-0.67 -4.39,-1.5 -6.11,-2.49c-0.91,-2.56 -1.46,-5.58 -1.46,-8.85c0,-0.88 0.03,-1.75 0.11,-2.6c3.53,-4.41 9,0.53 15.36,-0.45c1.23,-0.19 2.51,-0.3 3.79,-0.31c1.31,0.01 2.6,0.67 3.85,0.86c6.36,0.98 11.83,-3.96 15.36,0.45c0.07,0.85 0.11,1.72 0.11,2.6c0,3.27 -0.55,6.29 -1.47,8.85Zm39.2,-5.19c-0.6,-3.26 -0.9,-5.11 -0.95,-6.43l-0.59,0c2.01,-3.25 3.53,-6.71 4.53,-10.32l0.01,0c0.05,-0.18 0.09,-0.38 0.14,-0.57c0.38,-1.45 0.67,-2.92 0.87,-4.41c1.79,-11.74 0.05,-25.39 -1.95,-35.55l-1.21,0c-3.5,9.36 -5.69,20.96 -5.69,20.96c0,0 -1.78,3.04 -2.16,4.4c-1.21,4.3 -2.23,7.4 -2.57,8.43c-4.64,11.88 -12.93,21.61 -23.36,27.6c0.69,-2.32 1.11,-4.95 1.11,-7.77c0,-6.72 -2.26,-12.49 -5.49,-15.04c-4.13,-5.67 -11.38,-0.2 -19.69,-0.02c-8.32,-0.16 -15.6,-6.21 -19.73,-0.53c-3.23,2.55 -5.49,8.32 -5.49,15.04c0,2.82 0.41,5.45 1.11,7.77c-10.43,-5.99 -18.72,-15.72 -23.36,-27.6c-0.35,-1.03 -1.36,-4.13 -2.57,-8.43c-0.38,-1.35 -2.16,-4.4 -2.16,-4.4c0,0 -2.19,-11.6 -5.69,-20.96l-1.21,0c-2,10.16 -3.74,23.81 -1.95,35.55c0.19,1.49 0.49,2.96 0.87,4.41c0.05,0.19 0.09,0.39 0.13,0.57l0.02,0c0.99,3.61 2.52,7.07 4.52,10.33l-0.58,0c-0.06,1.31 -0.35,3.16 -0.95,6.43c-1.62,8.95 -6.45,11.3 -6.45,11.3c0,0 7.46,-3.42 9.26,-5.74c0.87,-1.12 3.18,-4.2 3.89,-5.17l0.08,0.07c-0.42,1.03 -1.39,4.36 -0.02,10.77c1.8,8.39 9.2,14.04 9.2,14.04c0,0 -4.43,-6.67 -3.2,-13.97c0,0 -0.26,2.93 6.95,11.07c6.89,7.78 19.46,38.35 20.57,38.45c-0.09,-0.25 -0.23,-11.34 -0.31,-14.65c0.52,0.17 1.04,0.44 1.57,0.77l0,0.08l-0.01,0.1l0.2,-0.06c4.72,3.16 9.61,11.93 14.68,11.93c0.19,0 0.39,0 0.58,-0.01l0,0.55c0.22,0.01 0.43,0.01 0.64,0.01c5.7,0 11.19,-11.11 16.44,-12.82c-0.09,3.3 -0.22,14.4 -0.32,14.65c1.12,-0.1 13.69,-30.67 20.58,-38.45c7.21,-8.14 6.95,-11.07 6.95,-11.07c1.23,7.3 -3.2,13.97 -3.2,13.97c0,0 7.39,-5.65 9.2,-14.04c1.37,-6.41 0.4,-9.74 -0.02,-10.77l0.08,-0.07c0.71,0.96 3.01,4.05 3.89,5.17c1.8,2.32 9.26,5.74 9.26,5.74c0,0 -4.83,-2.35 -6.45,-11.31Z" style="fill:#b2b0af;fill-rule:nonzero;"/></g><defs><linearGradient id="_Linear1" x1="0" y1="0" x2="1" y2="0" gradientUnits="userSpaceOnUse" gradientTransform="matrix(1.53167,45.9489,-45.9489,1.53167,122.39,117.43)"><stop offset="0" style="stop-color:#efdecc;stop-opacity:1"/><stop offset="1" style="stop-color:#5a4f47;stop-opacity:1"/></linearGradient><linearGradient id="_Linear2" x1="0" y1="0" x2="1" y2="0" gradientUnits="userSpaceOnUse" gradientTransform="matrix(1.53167,45.9489,-45.9489,1.53167,122.39,117.43)"><stop offset="0" style="stop-color:#fff;stop-opacity:1"/><stop offset="1" style="stop-color:#5f5d5d;stop-opacity:1"/></linearGradient><linearGradient id="_Linear3" x1="0" y1="0" x2="1" y2="0" gradientUnits="userSpaceOnUse" gradientTransform="matrix(1.53167,45.9489,-45.9489,1.53167,122.39,117.43)"><stop offset="0" style="stop-color:#ead9ca;stop-opacity:1"/><stop offset="1" style="stop-color:#584e46;stop-opacity:1"/></linearGradient><linearGradient id="_Linear4" x1="0" y1="0" x2="1" y2="0" gradientUnits="userSpaceOnUse" gradientTransform="matrix(1.53167,45.9489,-45.9489,1.53167,122.39,117.43)"><stop offset="0" style="stop-color:#997f73;stop-opacity:1"/><stop offset="1" style="stop-color:#26160f;stop-opacity:1"/></linearGradient><linearGradient id="_Linear5" x1="0" y1="0" x2="1" y2="0" gradientUnits="userSpaceOnUse" gradientTransform="matrix(1.53167,45.9489,-45.9489,1.53167,122.39,117.43)"><stop offset="0" style="stop-color:#b8907c;stop-opacity:1"/><stop offset="1" style="stop-color:#3e261c;stop-opacity:1"/></linearGradient><linearGradient id="_Linear6" x1="0" y1="0" x2="1" y2="0" gradientUnits="userSpaceOnUse" gradientTransform="matrix(1.53167,45.9489,-45.9489,1.53167,122.39,117.43)"><stop offset="0" style="stop-color:#817873;stop-opacity:1"/><stop offset="1" style="stop-color:#120e0a;stop-opacity:1"/></linearGradient><linearGradient id="_Linear7" x1="0" y1="0" x2="1" y2="0" gradientUnits="userSpaceOnUse" gradientTransform="matrix(1.53167,45.9489,-45.9489,1.53167,122.39,117.43)"><stop offset="0" style="stop-color:#fff;stop-opacity:1"/><stop offset="1" style="stop-color:#5f5d5d;stop-opacity:1"/></linearGradient><linearGradient id="_Linear8" x1="0" y1="0" x2="1" y2="0" gradientUnits="userSpaceOnUse" gradientTransform="matrix(1.53167,45.9489,-45.9489,1.53167,122.39,117.43)"><stop offset="0" style="stop-color:#fff;stop-opacity:1"/><stop offset="1" style="stop-color:#5f5d5d;stop-opacity:1"/></linearGradient><linearGradient id="_Linear9" x1="0" y1="0" x2="1" y2="0" gradientUnits="userSpaceOnUse" gradientTransform="matrix(1.53167,45.9489,-45.9489,1.53167,122.39,117.43)"><stop offset="0" style="stop-color:#726f6f;stop-opacity:1"/><stop offset="1" style="stop-color:#040505;stop-opacity:1"/></linearGradient><linearGradient id="_Linear10" x1="0" y1="0" x2="1" y2="0" gradientUnits="userSpaceOnUse" gradientTransform="matrix(1.53167,45.949,-45.949,1.53167,183.7,115.38)"><stop offset="0" style="stop-color:#eedbcb;stop-opacity:1"/><stop offset="1" style="stop-color:#5a4e47;stop-opacity:1"/></linearGradient><linearGradient id="_Linear11" x1="0" y1="0" x2="1" y2="0" gradientUnits="userSpaceOnUse" gradientTransform="matrix(1.53167,45.949,-45.949,1.53167,183.7,115.38)"><stop offset="0" style="stop-color:#f9e8d6;stop-opacity:1"/><stop offset="1" style="stop-color:#5d534b;stop-opacity:1"/></linearGradient><linearGradient id="_Linear12" x1="0" y1="0" x2="1" y2="0" gradientUnits="userSpaceOnUse" gradientTransform="matrix(1.53167,45.949,-45.949,1.53167,183.7,115.38)"><stop offset="0" style="stop-color:#fff;stop-opacity:1"/><stop offset="1" style="stop-color:#5f5d5d;stop-opacity:1"/></linearGradient><linearGradient id="_Linear13" x1="0" y1="0" x2="1" y2="0" gradientUnits="userSpaceOnUse" gradientTransform="matrix(1.53167,45.949,-45.949,1.53167,183.7,115.38)"><stop offset="0" style="stop-color:#ead9ca;stop-opacity:1"/><stop offset="1" style="stop-color:#584e46;stop-opacity:1"/></linearGradient><linearGradient id="_Linear14" x1="0" y1="0" x2="1" y2="0" gradientUnits="userSpaceOnUse" gradientTransform="matrix(1.53167,45.949,-45.949,1.53167,183.7,115.38)"><stop offset="0" style="stop-color:#997f73;stop-opacity:1"/><stop offset="1" style="stop-color:#26160f;stop-opacity:1"/></linearGradient><linearGradient id="_Linear15" x1="0" y1="0" x2="1" y2="0" gradientUnits="userSpaceOnUse" gradientTransform="matrix(1.53167,45.949,-45.949,1.53167,183.7,115.38)"><stop offset="0" style="stop-color:#b8907c;stop-opacity:1"/><stop offset="1" style="stop-color:#3e261c;stop-opacity:1"/></linearGradient><linearGradient id="_Linear16" x1="0" y1="0" x2="1" y2="0" gradientUnits="userSpaceOnUse" gradientTransform="matrix(1.53167,45.949,-45.949,1.53167,183.7,115.38)"><stop offset="0" style="stop-color:#817873;stop-opacity:1"/><stop offset="1" style="stop-color:#120e0a;stop-opacity:1"/></linearGradient><linearGradient id="_Linear17" x1="0" y1="0" x2="1" y2="0" gradientUnits="userSpaceOnUse" gradientTransform="matrix(1.53167,45.949,-45.949,1.53167,183.7,115.38)"><stop offset="0" style="stop-color:#fff;stop-opacity:1"/><stop offset="1" style="stop-color:#5f5d5d;stop-opacity:1"/></linearGradient><linearGradient id="_Linear18" x1="0" y1="0" x2="1" y2="0" gradientUnits="userSpaceOnUse" gradientTransform="matrix(1.53167,45.949,-45.949,1.53167,183.7,115.38)"><stop offset="0" style="stop-color:#726f6f;stop-opacity:1"/><stop offset="1" style="stop-color:#040505;stop-opacity:1"/></linearGradient><linearGradient id="_Linear19" x1="0" y1="0" x2="1" y2="0" gradientUnits="userSpaceOnUse" gradientTransform="matrix(1.53167,45.9489,-45.9489,1.53167,122.39,117.43)"><stop offset="0" style="stop-color:#ebe4da;stop-opacity:1"/><stop offset="1" style="stop-color:#9e9690;stop-opacity:1"/></linearGradient><linearGradient id="_Linear20" x1="0" y1="0" x2="1" y2="0" gradientUnits="userSpaceOnUse" gradientTransform="matrix(1.53167,45.9489,-45.9489,1.53167,122.39,117.43)"><stop offset="0" style="stop-color:#f2f3f1;stop-opacity:1"/><stop offset="1" style="stop-color:#a19f9f;stop-opacity:1"/></linearGradient><linearGradient id="_Linear21" x1="0" y1="0" x2="1" y2="0" gradientUnits="userSpaceOnUse" gradientTransform="matrix(1.53167,45.9489,-45.9489,1.53167,122.39,117.43)"><stop offset="0" style="stop-color:#e8e1d9;stop-opacity:1"/><stop offset="1" style="stop-color:#9c948f;stop-opacity:1"/></linearGradient><linearGradient id="_Linear22" x1="0" y1="0" x2="1" y2="0" gradientUnits="userSpaceOnUse" gradientTransform="matrix(1.53167,45.9489,-45.9489,1.53167,122.39,117.43)"><stop offset="0" style="stop-color:#c1b4ad;stop-opacity:1"/><stop offset="1" style="stop-color:#7f736d;stop-opacity:1"/></linearGradient><linearGradient id="_Linear23" x1="0" y1="0" x2="1" y2="0" gradientUnits="userSpaceOnUse" gradientTransform="matrix(1.53167,45.9489,-45.9489,1.53167,122.39,117.43)"><stop offset="0" style="stop-color:#d1beb1;stop-opacity:1"/><stop offset="1" style="stop-color:#8b7a71;stop-opacity:1"/></linearGradient><linearGradient id="_Linear24" x1="0" y1="0" x2="1" y2="0" gradientUnits="userSpaceOnUse" gradientTransform="matrix(1.53167,45.9489,-45.9489,1.53167,122.39,117.43)"><stop offset="0" style="stop-color:#b3afac;stop-opacity:1"/><stop offset="1" style="stop-color:#736f6c;stop-opacity:1"/></linearGradient><linearGradient id="_Linear25" x1="0" y1="0" x2="1" y2="0" gradientUnits="userSpaceOnUse" gradientTransform="matrix(1.53167,45.9489,-45.9489,1.53167,122.39,117.43)"><stop offset="0" style="stop-color:#f2f3f1;stop-opacity:1"/><stop offset="1" style="stop-color:#a19f9f;stop-opacity:1"/></linearGradient><linearGradient id="_Linear26" x1="0" y1="0" x2="1" y2="0" gradientUnits="userSpaceOnUse" gradientTransform="matrix(1.53167,45.949,-45.949,1.53167,183.7,115.38)"><stop offset="0" style="stop-color:#ebe2d9;stop-opacity:1"/><stop offset="1" style="stop-color:#9c948f;stop-opacity:1"/></linearGradient><linearGradient id="_Linear27" x1="0" y1="0" x2="1" y2="0" gradientUnits="userSpaceOnUse" gradientTransform="matrix(1.53167,45.949,-45.949,1.53167,183.7,115.38)"><stop offset="0" style="stop-color:#eee8df;stop-opacity:1"/><stop offset="1" style="stop-color:#9f9993;stop-opacity:1"/></linearGradient><linearGradient id="_Linear28" x1="0" y1="0" x2="1" y2="0" gradientUnits="userSpaceOnUse" gradientTransform="matrix(1.53167,45.949,-45.949,1.53167,183.7,115.38)"><stop offset="0" style="stop-color:#f2f3f1;stop-opacity:1"/><stop offset="1" style="stop-color:#a19f9f;stop-opacity:1"/></linearGradient><linearGradient id="_Linear29" x1="0" y1="0" x2="1" y2="0" gradientUnits="userSpaceOnUse" gradientTransform="matrix(1.53167,45.949,-45.949,1.53167,183.7,115.38)"><stop offset="0" style="stop-color:#e8e1d9;stop-opacity:1"/><stop offset="1" style="stop-color:#9c948f;stop-opacity:1"/></linearGradient><linearGradient id="_Linear30" x1="0" y1="0" x2="1" y2="0" gradientUnits="userSpaceOnUse" gradientTransform="matrix(1.53167,45.949,-45.949,1.53167,183.7,115.38)"><stop offset="0" style="stop-color:#c1b4ad;stop-opacity:1"/><stop offset="1" style="stop-color:#7f736d;stop-opacity:1"/></linearGradient><linearGradient id="_Linear31" x1="0" y1="0" x2="1" y2="0" gradientUnits="userSpaceOnUse" gradientTransform="matrix(1.53167,45.949,-45.949,1.53167,183.7,115.38)"><stop offset="0" style="stop-color:#d1beb1;stop-opacity:1"/><stop offset="1" style="stop-color:#8b7a71;stop-opacity:1"/></linearGradient><linearGradient id="_Linear32" x1="0" y1="0" x2="1" y2="0" gradientUnits="userSpaceOnUse" gradientTransform="matrix(1.53167,45.949,-45.949,1.53167,183.7,115.38)"><stop offset="0" style="stop-color:#b3afac;stop-opacity:1"/><stop offset="1" style="stop-color:#736f6c;stop-opacity:1"/></linearGradient><linearGradient id="_Linear33" x1="0" y1="0" x2="1" y2="0" gradientUnits="userSpaceOnUse" gradientTransform="matrix(1.53167,45.949,-45.949,1.53167,183.7,115.38)"><stop offset="0" style="stop-color:#f2f3f1;stop-opacity:1"/><stop offset="1" style="stop-color:#a19f9f;stop-opacity:1"/></linearGradient></defs></svg>