<?xml version="1.0" encoding="UTF-8" standalone="no"?><!DOCTYPE svg PUBLIC "-//W3C//DTD SVG 1.1//EN" "http://www.w3.org/Graphics/SVG/1.1/DTD/svg11.dtd"><svg width="100%" height="100%" viewBox="0 0 300 301" version="1.1" xmlns="http://www.w3.org/2000/svg" xmlns:xlink="http://www.w3.org/1999/xlink" xml:space="preserve" style="fill-rule:evenodd;clip-rule:evenodd;stroke-linejoin:round;stroke-miterlimit:1.41421;"><g id="_17"><rect x="0.27" y="0.48" width="299.36" height="299.71" style="fill:#617498;fill-rule:nonzero;"/><path d="M137.67,75.51l-0.27,0.27l0.05,0.08c0.09,-0.13 0.13,-0.26 0.22,-0.35Z" style="fill:#432e1b;fill-rule:nonzero;"/><path d="M156.33,187.91l0,112.28l-60.73,0c-0.98,-0.4 -1.48,-0.6 -1.48,-0.6c0,-14.33 2.11,-25.5 5.31,-34.22c7.73,-21.03 21.88,-27.71 28.39,-29.72c2.14,-0.66 3.46,-0.82 3.46,-0.82c0.23,0 0.44,-0.02 0.67,-0.06c1.91,-0.3 3.46,-1.97 4.71,-4.62c0.92,-1.96 1.7,-4.48 2.33,-7.38c0.25,-1.13 0.44,-2.28 0.64,-3.51c0.3,-2.08 0.59,-4.25 0.84,-6.53c0.1,-1.38 0.25,-2.71 0.4,-4.15c0.54,-6.87 0.69,-14.39 0.69,-21.51c0,0 8.16,0.84 14.77,0.84Z" style="fill:#e0bd9a;fill-rule:nonzero;"/><path d="M218.79,299.59c0,0 -0.54,0.2 -1.43,0.6l-61.03,0l0,-112.28l0.15,0c6.57,0 14.83,-0.84 14.83,-0.84c0,7.07 0.14,14.49 0.69,21.36c0.15,1.34 0.29,2.72 0.39,4.06c0.25,2.37 0.55,4.59 0.89,6.67l0,0.05c0.1,0.94 0.3,1.78 0.45,2.67c0.6,2.92 1.33,5.49 2.2,7.55c1.09,2.56 2.42,4.35 4.03,5.06c0.51,0.23 1.06,0.34 1.63,0.34c0,0 2.33,0.28 5.83,1.65c7.15,2.8 19.16,10.15 26.06,28.89c3.21,8.72 5.31,19.89 5.31,34.22Z" style="fill:#efd0ad;fill-rule:nonzero;"/><path d="M173.28,218.95l0,0.05c-1.53,2.36 -6.67,9.13 -16.85,9.13l-0.1,0c-9.63,-0.04 -15.26,-7.02 -16.7,-9.08c0.3,-2.06 0.6,-4.23 0.84,-6.48c0.1,-1.33 0.25,-2.71 0.4,-4.13c4.69,1.18 9.83,1.92 15.27,2.01l0.19,0c5.64,-0.09 10.83,-0.88 15.67,-2.16c0.15,1.33 0.29,2.7 0.39,4.03c0.25,2.36 0.55,4.57 0.89,6.63Z" style="fill:#be987f;fill-rule:nonzero;"/><path d="M155.64,59.97c-64.33,0 -64.68,53.78 -61.81,88.99c-4.4,-8.35 -17.5,-5.79 -16.41,7.37c1.04,12.67 19.75,19.13 19.22,17.73c9.75,26.04 35.53,45.68 59,45.68l0.5,0l0,-159.77l-0.5,0Z" style="fill:#d2a686;fill-rule:nonzero;"/><path d="M81.52,150.78c3.17,-5.11 8.11,-2.9 9.29,-1.77c1.29,1.23 2.32,2.8 1.53,5.8c-0.44,1.72 -2.22,1.86 -1.82,4.42c0.49,2.9 1.82,3.04 2.61,3.73c0.75,0.64 1.68,1.13 2.13,2.36c0.49,1.23 0.54,2.5 0.3,3.63c-0.5,2.07 -3.51,0.4 -5.54,-0.49c-1.33,-0.64 -5.58,-4.22 -6.67,-5.4c-2.67,-3.05 -3.95,-8.94 -1.83,-12.28Z" style="fill:#ac8774;fill-rule:nonzero;"/><path d="M155.99,59.97c64.33,0 64.68,53.78 61.86,88.99c4.4,-8.35 17.45,-5.79 16.36,7.37c-0.99,12.67 -19.73,19.13 -19.22,17.73c-9.49,26.04 -35.53,45.68 -59,45.68c-0.15,0 -0.35,0 -0.35,0l-0.15,-159.77c0,0 0.35,0 0.5,0Z" style="fill:#ddb598;fill-rule:nonzero;"/><path d="M230.11,150.78c-3.16,-5.11 -8.06,-2.9 -9.29,-1.77c-1.29,1.23 -2.27,2.8 -1.53,5.8c0.44,1.72 2.22,1.86 1.83,4.42c-0.5,2.9 -1.83,3.04 -2.57,3.73c-0.75,0.64 -1.73,1.13 -2.18,2.36c-0.44,1.23 -0.54,2.5 -0.29,3.63c0.49,2.07 3.5,0.4 5.53,-0.49c1.38,-0.64 5.58,-4.22 6.67,-5.4c2.72,-3.05 3.95,-8.94 1.83,-12.28Z" style="fill:#ac8774;fill-rule:nonzero;"/><path d="M155.14,75.15c-21.15,0 -36.67,6.14 -46.01,18.22c-13.09,16.94 -12.6,42.78 -7.8,61.34c1.48,5.7 2.27,20.97 3.26,26.57c4.59,25.1 32.31,38.46 50.55,38.46c0,0 0.34,0 0.49,0l0,-144.59c-0.15,0 -0.3,0 -0.3,0" style="fill:#e0bd9a;fill-rule:nonzero;"/><path d="M201.09,93.42c-9.29,-12.04 -24.61,-18.17 -45.46,-18.27l0,144.59c20.85,-0.25 45.81,-14.89 50.06,-38.46c1.03,-5.6 1.77,-20.87 3.26,-26.57c4.84,-18.52 5.33,-44.3 -7.86,-61.29Z" style="fill:#efd0ad;fill-rule:nonzero;"/><path d="M155.82,196.79" style="fill:#bc917b;fill-rule:nonzero;"/><path d="M155.82,196.79" style="fill:#bc917b;fill-rule:nonzero;"/><path d="M152.26,194.1c-0.11,-0.02 -0.21,-0.04 -0.31,-0.06c0.1,0.02 0.19,0.04 0.31,0.06Z" style="fill:#bc917b;fill-rule:nonzero;"/><path d="M155.82,193.91" style="fill:#bc917b;fill-rule:nonzero;"/><path d="M151.47,193.93c-0.09,-0.02 -0.18,-0.05 -0.27,-0.08l-0.01,0.01c0,0 0.11,0.03 0.28,0.07Z" style="fill:#bc917b;fill-rule:nonzero;"/><path d="M155.82,193.91" style="fill:#bc917b;fill-rule:nonzero;"/><path d="M96.71,126.46" style="fill:#432e1b;fill-rule:nonzero;"/><path d="M156.1,193.93" style="fill:#ba907b;fill-rule:nonzero;"/><path d="M156.1,193.93" style="fill:#ba907b;fill-rule:nonzero;"/><path d="M152.43,191.17c-0.1,-0.02 -0.21,-0.04 -0.31,-0.06c0.1,0.02 0.19,0.04 0.31,0.06Z" style="fill:#ba907b;fill-rule:nonzero;"/><path d="M156.1,190.97" style="fill:#ba907b;fill-rule:nonzero;"/><path d="M151.63,190.99c-0.1,-0.02 -0.19,-0.05 -0.28,-0.08l-0.01,0.01c0,0 0.11,0.03 0.29,0.07Z" style="fill:#ba907b;fill-rule:nonzero;"/><path d="M156.1,190.97" style="fill:#ba907b;fill-rule:nonzero;"/><path d="M144.57,172.81c-0.25,-5.13 9.42,-1.88 12.61,-1.72c2.53,0.13 10.2,-1.61 10.85,-1.16c4.52,3.04 -4.78,9.17 -11.01,9.17c-1.66,0 -12.3,-3.2 -12.45,-6.29Z" style="fill:#dcb497;fill-rule:nonzero;"/><path d="M156.23,196.31" style="fill:#ba907b;fill-rule:nonzero;"/><path d="M156.23,196.31" style="fill:#ba907b;fill-rule:nonzero;"/><path d="M152.56,193.55c-0.1,-0.03 -0.2,-0.05 -0.31,-0.07c0.1,0.02 0.19,0.04 0.31,0.07Z" style="fill:#ba907b;fill-rule:nonzero;"/><path d="M156.23,193.35" style="fill:#ba907b;fill-rule:nonzero;"/><path d="M151.76,193.37c-0.1,-0.03 -0.19,-0.06 -0.28,-0.08l-0.01,0c0,0 0.11,0.03 0.29,0.08Z" style="fill:#ba907b;fill-rule:nonzero;"/><path d="M156.23,193.35" style="fill:#ba907b;fill-rule:nonzero;"/><path d="M156.11,195.94" style="fill:#bc917b;fill-rule:nonzero;"/><path d="M156.11,195.94" style="fill:#bc917b;fill-rule:nonzero;"/><path d="M152.19,192.98c-0.12,-0.03 -0.23,-0.05 -0.34,-0.07c0.11,0.02 0.21,0.04 0.34,0.07Z" style="fill:#bc917b;fill-rule:nonzero;"/><path d="M156.11,192.77" style="fill:#bc917b;fill-rule:nonzero;"/><path d="M151.32,192.79c-0.1,-0.03 -0.19,-0.06 -0.29,-0.09l-0.02,0.01c0,0 0.12,0.03 0.31,0.08Z" style="fill:#bc917b;fill-rule:nonzero;"/><path d="M156.11,192.77" style="fill:#bc917b;fill-rule:nonzero;"/><path d="M155.87,195.09" style="fill:#bc917b;fill-rule:nonzero;"/><path d="M155.87,195.09" style="fill:#bc917b;fill-rule:nonzero;"/><path d="M151.94,192.14c-0.11,-0.03 -0.22,-0.05 -0.34,-0.07c0.11,0.02 0.21,0.04 0.34,0.07Z" style="fill:#bc917b;fill-rule:nonzero;"/><path d="M155.87,191.93" style="fill:#bc917b;fill-rule:nonzero;"/><path d="M151.07,191.94c-0.1,-0.02 -0.19,-0.05 -0.29,-0.08l-0.01,0c0,0 0.11,0.04 0.3,0.08Z" style="fill:#bc917b;fill-rule:nonzero;"/><path d="M155.87,191.93" style="fill:#bc917b;fill-rule:nonzero;"/><path d="M156.51,194.88" style="fill:#bc917b;fill-rule:nonzero;"/><path d="M156.5,194.88l0.01,0l-0.01,0Z" style="fill:#bc917b;fill-rule:nonzero;"/><path d="M152.71,192.02c-0.11,-0.02 -0.22,-0.04 -0.32,-0.07c0.1,0.03 0.19,0.05 0.32,0.07Z" style="fill:#bc917b;fill-rule:nonzero;"/><path d="M156.51,191.82" style="fill:#bc917b;fill-rule:nonzero;"/><path d="M151.87,191.83c-0.1,-0.02 -0.19,-0.05 -0.28,-0.08l-0.01,0.01c0,0 0.11,0.03 0.29,0.07Z" style="fill:#bc917b;fill-rule:nonzero;"/><path d="M156.5,191.82l0.01,0l-0.01,0Z" style="fill:#bc917b;fill-rule:nonzero;"/><path d="M153.23,203.32" style="fill:#be927b;fill-rule:nonzero;"/><path d="M153.23,203.32" style="fill:#be927b;fill-rule:nonzero;"/><path d="M149.59,200.57c-0.11,-0.02 -0.21,-0.04 -0.31,-0.06c0.1,0.02 0.19,0.04 0.31,0.06Z" style="fill:#be927b;fill-rule:nonzero;"/><path d="M153.23,200.38" style="fill:#be927b;fill-rule:nonzero;"/><path d="M148.79,200.4c-0.1,-0.03 -0.18,-0.06 -0.28,-0.08l-0.01,0c0,0 0.11,0.03 0.29,0.08Z" style="fill:#be927b;fill-rule:nonzero;"/><path d="M153.23,200.38" style="fill:#be927b;fill-rule:nonzero;"/><path d="M153,202.54" style="fill:#be927b;fill-rule:nonzero;"/><path d="M153,202.54" style="fill:#be927b;fill-rule:nonzero;"/><path d="M149.36,199.79c-0.11,-0.02 -0.21,-0.04 -0.31,-0.06c0.1,0.02 0.19,0.04 0.31,0.06Z" style="fill:#be927b;fill-rule:nonzero;"/><path d="M153,199.6" style="fill:#be927b;fill-rule:nonzero;"/><path d="M148.56,199.61c-0.1,-0.02 -0.18,-0.05 -0.28,-0.07l-0.01,0c0,0 0.11,0.03 0.29,0.07Z" style="fill:#be927b;fill-rule:nonzero;"/><path d="M153,199.6" style="fill:#be927b;fill-rule:nonzero;"/><path d="M153.59,202.34" style="fill:#be927b;fill-rule:nonzero;"/><path d="M153.59,202.34" style="fill:#be927b;fill-rule:nonzero;"/><path d="M150.07,199.69c-0.1,-0.02 -0.2,-0.04 -0.3,-0.07c0.1,0.03 0.19,0.04 0.3,0.07Z" style="fill:#be927b;fill-rule:nonzero;"/><path d="M153.59,199.5" style="fill:#be927b;fill-rule:nonzero;"/><path d="M149.3,199.51c-0.09,-0.02 -0.18,-0.05 -0.27,-0.07l-0.01,0c0,0 0.11,0.03 0.28,0.07Z" style="fill:#be927b;fill-rule:nonzero;"/><path d="M153.59,199.5" style="fill:#be927b;fill-rule:nonzero;"/><path d="M143.33,202.08c-0.24,-3.2 8.92,0.67 11.92,0.77c2.4,0.08 9.6,-0.48 10.27,-0.73c5.03,-1.88 -0.28,5.35 -10.42,5.73c-4.64,0.18 -11.63,-3.83 -11.77,-5.77Z" style="fill:#f0d2ad;fill-rule:nonzero;"/><path d="M173.5,194.4c-5.8,-1.09 -18.03,0.07 -18.03,0.07c-10.08,1.68 -17.97,-0.11 -18.03,-0.04c-0.24,0.03 8.05,11.03 17.89,10.52c9.84,0.51 18.41,-10.52 18.17,-10.55Z" style="fill:#c2646e;fill-rule:nonzero;"/><path d="M161.3,192.08c-2.62,-0.29 -4.48,1.59 -5.82,1.46c-1.36,0.12 -3.14,-1.09 -5.77,-1.11c-3.7,-0.04 -5.5,-0.37 -12.27,2c0.24,0.46 4.57,2.97 12.69,3.11c0.12,0 2.3,1.24 5.4,1.22c1.93,-0.01 4.6,-1.31 4.7,-1.31c8.13,-0.13 13.1,-2.54 13.33,-2.99c-8.95,-2.78 -8.24,-2.42 -12.26,-2.38Z" style="fill:#d87475;fill-rule:nonzero;"/><path d="M109.48,131.19c0,0 4.91,20.19 13.33,21.84c8.43,1.65 17.55,-1.63 17.55,-1.63c0,0 0.87,-23.73 -3.44,-26.83c-4.32,-3.12 -14.25,-7.62 -27.44,6.62Z" style="fill:#fff;fill-rule:nonzero;"/><path d="M140.37,151.34c0,0 -0.19,0.06 -0.63,0.24c-0.1,-7.28 -0.77,-17.28 -3.47,-19.2c-4.01,-2.94 -13.05,-7.08 -25.14,4.24c-1.1,-3.12 -1.65,-5.5 -1.65,-5.5c13.22,-14.26 23.16,-9.77 27.44,-6.65c4.32,3.11 3.45,26.87 3.45,26.87Z" style="fill:#d6b496;fill-rule:nonzero;"/><path d="M135.38,141.06c0,4.59 -3.71,8.32 -8.29,8.32c-4.58,0 -8.3,-3.73 -8.3,-8.32c0,-4.6 3.72,-8.32 8.3,-8.32c4.58,0 8.29,3.72 8.29,8.32Z" style="fill:#482315;fill-rule:nonzero;"/><path d="M126.7,146.6c-2.39,-0.2 -4.23,-2.63 -4.01,-5.29c0.21,-2.67 2.42,-4.75 4.82,-4.55c2.39,0.2 4.23,2.62 4.01,5.28c-0.21,2.67 -2.42,4.76 -4.82,4.56Z" style="fill:#7e3a22;fill-rule:nonzero;"/><path d="M126.91,145.64c-1.67,-0.15 -3.4,-1.98 -3.21,-4.24c0.18,-2.27 2.18,-3.8 3.85,-3.66c1.67,0.14 3.39,1.98 3.21,4.24c-0.18,2.27 -2.19,3.79 -3.85,3.66Z" style="fill:#211a10;fill-rule:nonzero;"/><path d="M125.56,135.95c-0.07,0.81 -0.91,1.41 -1.86,1.33c-0.96,-0.08 -1.69,-0.81 -1.62,-1.62c0.07,-0.82 0.9,-1.42 1.86,-1.34c0.96,0.08 1.68,0.81 1.62,1.63Z" style="fill:#fff;fill-rule:nonzero;"/><path d="M130.94,144.79c-0.04,0.4 -0.46,0.7 -0.93,0.66c-0.49,-0.04 -0.85,-0.4 -0.82,-0.81c0.04,-0.41 0.46,-0.71 0.93,-0.67c0.49,0.04 0.85,0.41 0.82,0.82Z" style="fill:#fff;fill-rule:nonzero;"/><path d="M202.29,130.5c0,0 -4.91,20.2 -13.34,21.85c-8.42,1.64 -17.54,-1.63 -17.54,-1.63c0,0 -0.87,-23.74 3.44,-26.84c4.31,-3.12 14.25,-7.62 27.44,6.62Z" style="fill:#fff;fill-rule:nonzero;"/><path d="M171.4,150.65c0,0 0.19,0.06 0.62,0.24c0.11,-7.28 0.78,-17.28 3.48,-19.2c4,-2.94 13.05,-7.08 25.13,4.25c1.1,-3.13 1.65,-5.5 1.65,-5.5c-13.21,-14.27 -23.16,-9.77 -27.44,-6.66c-4.32,3.12 -3.44,26.87 -3.44,26.87Z" style="fill:#d6b496;fill-rule:nonzero;"/><path d="M176.38,140.37c0,4.59 3.72,8.32 8.3,8.32c4.58,0 8.29,-3.73 8.29,-8.32c0,-4.6 -3.71,-8.32 -8.29,-8.32c-4.58,0 -8.3,3.72 -8.3,8.32Z" style="fill:#482315;fill-rule:nonzero;"/><path d="M185.06,145.91c2.4,-0.2 4.24,-2.62 4.02,-5.29c-0.21,-2.66 -2.42,-4.75 -4.82,-4.55c-2.39,0.2 -4.23,2.62 -4.02,5.29c0.22,2.66 2.43,4.75 4.82,4.55Z" style="fill:#7e3a22;fill-rule:nonzero;"/><path d="M184.86,144.95c1.66,-0.14 3.39,-1.98 3.21,-4.24c-0.19,-2.27 -2.19,-3.8 -3.86,-3.66c-1.66,0.14 -3.39,1.99 -3.21,4.25c0.19,2.26 2.19,3.79 3.86,3.65Z" style="fill:#211a10;fill-rule:nonzero;"/><path d="M186.21,139.37c0.07,0.82 0.9,1.42 1.86,1.34c0.96,-0.08 1.68,-0.81 1.62,-1.63c-0.07,-0.82 -0.9,-1.41 -1.86,-1.34c-0.96,0.08 -1.69,0.81 -1.62,1.63Z" style="fill:#fff;fill-rule:nonzero;"/><path d="M180.83,144.1c0.03,0.4 0.45,0.7 0.93,0.66c0.48,-0.03 0.84,-0.4 0.81,-0.81c-0.03,-0.4 -0.45,-0.71 -0.93,-0.66c-0.48,0.03 -0.85,0.4 -0.81,0.81Z" style="fill:#fff;fill-rule:nonzero;"/><path d="M145.42,130.86c-0.06,-0.09 -1.59,-2.43 -4.72,-4.83c-1.96,-1.51 -3.88,-2.66 -5.87,-3.51c-2.42,-1.02 -5.03,-1.74 -7.55,-2.09c-2.28,-0.25 -4.81,-0.18 -7.77,0.21c-2.25,0.43 -4.45,1.11 -6.32,1.93c-1.33,0.46 -2.38,1.11 -3.22,1.63c-0.33,0.2 -0.62,0.38 -0.92,0.54l-4.02,2.54l4.64,-1.1c0.21,-0.05 0.45,-0.11 0.7,-0.18c0.96,-0.26 2.15,-0.57 3.55,-0.78c0.33,-0.05 0.66,-0.11 1,-0.18c0.59,-0.12 1.19,-0.24 1.82,-0.27c0.7,-0.05 1.43,-0.1 2.18,-0.15l0.98,-0.07c2.57,-0.04 4.74,0.16 6.66,0.6c2.11,0.37 4.28,1.05 6.26,1.97c1.88,0.9 3.67,1.8 5.08,2.83c2.83,1.9 4.41,3.48 4.42,3.49l0,0.01c0.39,0.39 0.91,0.59 1.44,0.59c0.38,0 0.76,-0.11 1.09,-0.33c0.94,-0.61 1.2,-1.87 0.6,-2.78l-0.03,-0.07Z" style="fill:#030405;fill-rule:nonzero;"/><path d="M203.12,124.72c-0.27,-0.14 -0.56,-0.32 -0.89,-0.52c-0.84,-0.52 -1.89,-1.17 -3.18,-1.61c-1.91,-0.84 -4.11,-1.52 -6.39,-1.95c-2.93,-0.4 -5.46,-0.46 -7.75,-0.21c-2.51,0.35 -5.12,1.07 -7.55,2.09c-1.96,0.84 -3.93,2.02 -5.86,3.51c-3.07,2.36 -4.6,4.65 -4.71,4.83l-0.03,0.04c-0.52,0.8 -0.41,1.87 0.26,2.54c0.38,0.39 0.89,0.6 1.43,0.6c0.54,0 1.05,-0.21 1.43,-0.6l0.01,-0.01c0.15,-0.15 1.68,-1.65 4.43,-3.49c1.38,-1.02 3.18,-1.91 5.05,-2.81c1.99,-0.93 4.16,-1.61 6.29,-1.98c1.9,-0.44 4.08,-0.63 6.61,-0.6l1.03,0.07c0.74,0.05 1.46,0.1 2.17,0.15c0.62,0.03 1.22,0.15 1.81,0.27c0.34,0.07 0.67,0.13 1,0.18c1.4,0.21 2.59,0.52 3.55,0.78c0.25,0.07 0.49,0.13 0.71,0.18l4.64,1.1l-4.06,-2.56Z" style="fill:#030405;fill-rule:nonzero;"/><rect x="152.53" y="269.31" width="8.3" height="30.83" style="fill:#4ac0e6;fill-rule:nonzero;"/><path d="M146.73,244.7c-0.28,-0.16 -0.55,-0.32 -0.82,-0.49l-14.67,-9.36c0,0 -28.96,2.03 -37.19,42.62c-0.34,1.69 -0.64,3.46 -0.91,5.28l10.01,2.61c3.68,0.95 6.26,4.39 6.26,8.33l0,6.49l43.12,0l0,-0.5l0,-30.37l0,-14.67c0,-4.18 -2.28,-7.93 -5.8,-9.94Z" style="fill:#444240;fill-rule:nonzero;"/><path d="M219.01,277.47c-3.25,-16.62 -12.4,-37.2 -37.48,-42.68l-15.22,9.51l-0.24,0.15c-3.26,2.03 -5.24,5.68 -5.24,9.62l0,46.11l42.56,0l0,-6.49c0,-3.94 2.58,-7.38 6.26,-8.33l10.22,-2.66c-0.23,-1.68 -0.51,-3.43 -0.86,-5.23Z" style="fill:#444240;fill-rule:nonzero;"/><path d="M147.89,279.08c0,4.26 -3.32,7.71 -7.41,7.71c-4.09,0 -7.41,-3.45 -7.41,-7.71c0,-4.25 3.32,-7.7 7.41,-7.7c4.09,0 7.41,3.45 7.41,7.7Z" style="fill:#fcfdfe;fill-rule:nonzero;"/><path d="M178.31,279.08c0,4.26 -3.32,7.71 -7.41,7.71c-4.09,0 -7.41,-3.45 -7.41,-7.71c0,-4.25 3.32,-7.7 7.41,-7.7c4.09,0 7.41,3.45 7.41,7.7Z" style="fill:#fcfdfe;fill-rule:nonzero;"/><path d="M171.89,282.76l-32.08,0c-1.95,0 -3.54,-1.65 -3.54,-3.68c0,-2.02 1.59,-3.68 3.54,-3.68l32.08,0c1.94,0 3.54,1.66 3.54,3.68c0,2.03 -1.6,3.68 -3.54,3.68Z" style="fill:#383534;fill-rule:nonzero;"/><path d="M171.83,42.36c4.25,6.93 0.5,8.22 -2.69,8.26c-1.73,0.02 -3.45,-0.38 -5.07,-1.03c-3.32,-1.35 -6.55,-2.65 -9.59,-3.79c3.63,5.65 1.36,15.84 -6.81,15.84c-0.98,0 -1.87,-0.16 -2.68,-0.43c0.14,0.09 0.3,0.17 0.43,0.27c-3.68,-1.5 -10.02,-2.03 -20.66,2.07c-1.49,0.57 -2.86,1.19 -4.14,1.81c-4.52,1.97 -13.58,5.86 -30.97,13.22c0,0 5.73,2.21 12.57,2.97c-3.27,3.8 -6.66,7.05 -12.32,8.78c-14.8,4.52 -19.1,-1.28 -19.1,-1.28c0,0 6.43,10.16 17.83,10.18c1.84,0 2.03,-0.03 2.04,-0.04c-0.01,0.04 -4.27,10.9 -5.09,19.01c-0.84,8.29 1.78,13.96 2.57,29.46c0.23,4.33 0.79,6.51 1.58,7.84c1.65,2.74 4.33,1.81 7.34,8.39c1.51,3.28 1.57,6.97 1.57,6.97c0,0 0.13,0.09 0.33,0.16c0.94,0.33 3.64,0.06 3.78,-13.76c0,0 -11.97,-54.1 12.42,-62.12c10.62,-3.5 24.9,-0.57 38.84,3.02c9.32,2.4 18.7,6.27 27.42,12.28c11.23,7.75 25.74,17.63 28.76,35.29l0,0.08c-0.44,4.74 -0.64,8.56 -0.67,11.62c-0.14,12.71 2.58,12.6 2.58,12.6c1.25,0 -0.08,-6.39 4.07,-10.8c1.15,-1.22 2.45,-3.24 3.75,-5.82c3.41,-6.78 6.73,-17.52 6.73,-28.26c4.43,-72.83 -54.82,-82.79 -54.82,-82.79Z" style="fill:#f5aa32;fill-rule:nonzero;"/><path d="M221.02,80.93c0,0 15.3,5.7 19.81,8.2c4.09,2.27 11.73,6.54 12.96,10.4c0.63,1.95 0.09,6.19 -1.64,7.64c-5.51,4.62 -23.16,7.7 -31.12,8.12c-11.77,0.61 -34.27,-1.52 -45.88,-3.25c-19.26,-2.88 -40.08,-7.3 -53.07,-10.76c-13.01,-3.48 -36.03,-8.81 -49.76,-18.4c-3.43,-2.39 -9.13,-8.58 -9.12,-12.21c0,-1.07 2.37,-3.51 3.46,-4.12c3.52,-1.97 12.48,-1.98 16.76,-2.2c2.53,-0.13 9.46,0.68 9.46,0.68l8.22,-24.27c0,0 3.68,-11.1 6.88,-13.77c3.46,-2.87 8.25,-5.91 17.83,-7.12c5.14,-0.64 15.48,-0.54 20.64,0.04c4.83,0.55 17.9,4.1 19.14,4.13c1.24,0.03 9.28,-1.62 10.47,-1.73c4.8,-0.46 15.2,-0.08 19.78,1.48c2.64,0.9 7.08,4.1 8.73,5.99c3.48,3.96 8.59,18.12 8.59,18.12l7.86,33.03Z" style="fill:#444240;fill-rule:nonzero;"/><path d="M167.71,24.64c0,0 16.9,6.31 17.17,6.47c0.28,0.15 11.56,1 14.32,-0.02c1.36,-0.51 2.15,-2.56 1.69,-3.39c-0.86,-1.57 -5.13,-3.17 -7.13,-3.76c-3.23,-0.95 -10.2,-1.42 -13.62,-1.31c-3.17,0.1 -12.43,2.01 -12.43,2.01Z" style="fill:#33302e;fill-rule:nonzero;"/><path d="M221.27,90.33c0,0 15.16,5.41 15.3,5.41c0.14,0.01 8.97,3.44 10.32,1.64c1.16,-1.56 -4.04,-4.45 -5.72,-5.67c-2.34,-1.69 -10.56,-5.52 -10.56,-5.52l-11.03,-4.07l1.69,8.21Z" style="fill:#33302e;fill-rule:nonzero;"/><path d="M92.35,66.11c0,0 -6.51,-0.27 -8.67,-0.21c-3.28,0.09 -9.91,0.3 -13.05,1.07c-0.95,0.23 -3.1,0.78 -3.52,1.5c-0.81,1.42 0.76,4.73 1.66,6.11c1.11,1.71 4.68,4.41 6.52,5.64c3.24,2.18 11.19,6.44 11.68,6.66c0.49,0.21 10.51,4.84 13.32,6c3.73,1.53 11.67,3.83 15.71,4.76c3.56,0.82 10.85,1.76 14.7,1.36c3.86,-0.4 36.7,-3.97 36.7,-3.97c0,0 -50.8,-3.41 -65.38,-9.87c-3.95,-1.75 -12.28,-10.63 -12.28,-10.63l2.61,-8.42Z" style="fill:#33302e;fill-rule:nonzero;"/><path d="M222.17,91.21c0,0 -4.46,2.08 -14.09,2.93c-11.74,1.05 -34.36,2.02 -46.17,1.75c-12.3,-0.28 -38.08,-2.24 -50.19,-4.03c-4.93,-0.72 -14.74,-2.87 -19.18,-4.75c-1.5,-0.63 -5.48,-3.22 -5.48,-3.22l3.85,-13.43c0,0 8.92,3.96 21.68,5.71c11.53,1.57 34.56,3.29 46.24,3.52c11.12,0.22 35.2,-0.7 46.28,-1.34c3.97,-0.23 14.75,-2.28 14.75,-2.28l2.31,15.14Z" style="fill:#4ac0e6;fill-rule:nonzero;"/><path d="M132.46,68.55c-1.89,-0.34 -9.15,6.38 -12.21,10.6c-0.77,-0.27 -1.64,-0.32 -2.49,-0.07c-0.84,0.25 -1.5,0.75 -1.93,1.38c-5.31,-1.74 -15.68,-3.24 -16.96,-1.96c-1.7,1.7 3.25,8.59 3.25,8.59c0,0 0.73,8.14 3.24,8.6c1.9,0.33 9.16,-6.39 12.22,-10.6c0.76,0.27 1.64,0.33 2.49,0.07c0.85,-0.25 1.5,-0.75 1.93,-1.38c5.31,1.73 15.67,3.23 16.95,1.95c1.7,-1.7 -3.24,-8.59 -3.24,-8.59c0,0 -0.74,-8.14 -3.25,-8.59Z" style="fill:#fcfdfe;fill-rule:nonzero;"/><path d="M150.82,259.29c0,2.95 -2.3,5.34 -5.14,5.34c-2.83,0 -5.13,-2.39 -5.13,-5.34c0,-2.95 2.3,-5.34 5.13,-5.34c2.84,0 5.14,2.39 5.14,5.34Z" style="fill:#fcfdfe;fill-rule:nonzero;"/><path d="M171.91,259.29c0,2.95 -2.3,5.34 -5.14,5.34c-2.84,0 -5.14,-2.39 -5.14,-5.34c0,-2.95 2.3,-5.34 5.14,-5.34c2.84,0 5.14,2.39 5.14,5.34Z" style="fill:#fcfdfe;fill-rule:nonzero;"/><path d="M167.45,261.84l-22.23,0c-1.35,0 -2.46,-1.15 -2.46,-2.55c0,-1.41 1.11,-2.55 2.46,-2.55l22.23,0c1.35,0 2.46,1.14 2.46,2.55c0,1.4 -1.11,2.55 -2.46,2.55Z" style="fill:#383534;fill-rule:nonzero;"/></g></svg>