<?xml version="1.0" encoding="UTF-8" standalone="no"?><!DOCTYPE svg PUBLIC "-//W3C//DTD SVG 1.1//EN" "http://www.w3.org/Graphics/SVG/1.1/DTD/svg11.dtd"><svg width="100%" height="100%" viewBox="0 0 297 301" version="1.1" xmlns="http://www.w3.org/2000/svg" xmlns:xlink="http://www.w3.org/1999/xlink" xml:space="preserve" style="fill-rule:evenodd;clip-rule:evenodd;stroke-linejoin:round;stroke-miterlimit:1.41421;"><g id="_18"><rect x="0" y="0.48" width="296.866" height="299.71" style="fill:#812d4f;fill-rule:nonzero;"/><path d="M148.554,188.42l0,111.76l-60.736,0c-0.988,-0.39 -1.481,-0.6 -1.481,-0.6c0,-7.01 0.493,-13.29 1.419,-18.84c0.453,-2.86 1.008,-5.52 1.667,-8.03c0.658,-2.57 1.399,-4.96 2.222,-7.18c1.09,-2.96 2.304,-5.64 3.641,-8.04c4.177,-7.72 9.259,-12.82 13.971,-16.15c2.407,-1.69 4.711,-2.95 6.728,-3.87c1.543,-0.7 2.921,-1.19 4.053,-1.54c1.316,-0.4 2.304,-0.6 2.88,-0.72c0.37,-0.07 0.576,-0.09 0.576,-0.09c0.226,0 0.453,-0.02 0.679,-0.04c1.893,-0.31 3.457,-1.97 4.711,-4.61c0.927,-1.95 1.688,-4.44 2.325,-7.36c0.248,-1.13 0.453,-2.24 0.638,-3.48c0.309,-2.08 0.597,-4.24 0.844,-6.5c0.103,-1.38 0.247,-2.72 0.391,-4.14c0.535,-6.83 0.699,-14.34 0.699,-21.41c0,0 8.148,0.84 14.773,0.84Z" style="fill:#e0bd9a;fill-rule:nonzero;"/><path d="M211.017,299.58c0,0 -0.555,0.21 -1.44,0.6l-61.023,0l0,-111.76l0.144,0c6.563,0 14.834,-0.84 14.834,-0.84c0,7.03 0.144,14.42 0.679,21.25c0.144,1.36 0.308,2.74 0.391,4.05c0.267,2.37 0.555,4.57 0.905,6.65l0,0.04c0.082,0.95 0.288,1.79 0.432,2.65c0.617,2.92 1.337,5.48 2.222,7.53c1.09,2.53 2.407,4.32 4.012,5.04c0.514,0.23 1.07,0.33 1.625,0.33c0,0 0.35,0.04 0.988,0.19c1.008,0.18 2.716,0.62 4.855,1.46c0.618,0.25 1.276,0.51 1.955,0.82c1.81,0.83 3.827,1.94 5.925,3.36c4.856,3.33 10.185,8.51 14.546,16.54c1.317,2.4 2.552,5.08 3.642,8.04c0.823,2.22 1.564,4.61 2.222,7.18c0.658,2.55 1.235,5.27 1.687,8.17c0.885,5.54 1.399,11.75 1.399,18.7Z" style="fill:#efd0ad;fill-rule:nonzero;"/><clipPath id="_clip1"><rect x="131.851" y="208.8" width="33.65" height="19.84"/></clipPath><g clip-path="url(#_clip1)"><path d="M165.502,219.46l0,0.05c-1.532,2.36 -6.671,9.13 -16.85,9.13l-0.099,0c-9.636,-0.05 -15.269,-7.02 -16.702,-9.08c0.297,-2.06 0.593,-4.23 0.84,-6.48c0.099,-1.33 0.247,-2.71 0.395,-4.13c4.695,1.18 9.834,1.91 15.269,2.01l0.198,0c5.633,-0.1 10.822,-0.88 15.664,-2.16c0.148,1.33 0.296,2.7 0.395,4.03c0.247,2.36 0.544,4.57 0.89,6.63Z" style="fill:#be987f;fill-rule:nonzero;"/></g><path d="M147.861,60.48c-64.336,0 -64.682,53.78 -61.817,88.99c-4.397,-8.35 -17.492,-5.79 -16.405,7.37c1.038,12.67 19.746,19.13 19.222,17.73c9.743,26.04 35.529,45.68 59,45.68l0.494,0l0,-159.77l-0.494,0Z" style="fill:#d2a686;fill-rule:nonzero;"/><path d="M148.207,60.48c64.336,0 64.682,53.78 61.865,88.99c4.398,-8.35 17.443,-5.79 16.356,7.37c-0.988,12.67 -19.733,19.13 -19.222,17.73c-9.49,26.04 -35.528,45.68 -58.999,45.68c-0.148,0 -0.346,0 -0.346,0l-0.148,-159.77c0,0 0.346,0 0.494,0Z" style="fill:#ddb598;fill-rule:nonzero;"/><path d="M147.355,75.66c-21.149,0 -36.665,6.14 -46.004,18.22c-13.095,16.94 -12.6,42.77 -7.808,61.34c1.483,5.7 2.274,20.97 3.262,26.57c4.596,25.1 32.316,38.46 50.55,38.46c0,0 0.346,0 0.494,0l0,-144.59c-0.148,0 -0.296,0 -0.296,0" style="fill:#e0bd9a;fill-rule:nonzero;"/><path d="M193.309,93.93c-9.289,-12.04 -24.608,-18.18 -45.46,-18.27l0,144.59c20.852,-0.25 45.806,-14.89 50.056,-38.46c1.037,-5.6 1.779,-20.87 3.261,-26.57c4.843,-18.52 5.337,-44.3 -7.857,-61.29Z" style="fill:#efd0ad;fill-rule:nonzero;"/><path d="M129.886,76.02l-0.267,0.26l0.045,0.09c0.09,-0.13 0.134,-0.26 0.222,-0.35Z" style="fill:#432e1b;fill-rule:nonzero;"/><path d="M101.696,132.09c0,0 4.908,20.14 13.335,21.78c8.426,1.64 17.546,-1.62 17.546,-1.62c0,0 0.872,-23.67 -3.443,-26.76c-4.31,-3.11 -14.249,-7.59 -27.438,6.6Z" style="fill:#fff;fill-rule:nonzero;"/><path d="M194.507,131.4c0,0 -4.909,20.14 -13.335,21.78c-8.427,1.65 -17.547,-1.62 -17.547,-1.62c0,0 -0.872,-23.66 3.443,-26.76c4.311,-3.1 14.25,-7.59 27.439,6.6Z" style="fill:#fff;fill-rule:nonzero;"/><path d="M73.741,151.29c3.162,-5.11 8.104,-2.9 9.289,-1.77c1.285,1.23 2.323,2.8 1.532,5.8c-0.445,1.72 -2.224,1.86 -1.828,4.42c0.494,2.9 1.828,3.04 2.619,3.73c0.741,0.64 1.68,1.13 2.125,2.36c0.494,1.23 0.543,2.5 0.296,3.63c-0.494,2.07 -3.508,0.4 -5.534,-0.49c-1.334,-0.64 -5.584,-4.22 -6.671,-5.4c-2.668,-3.05 -3.953,-8.94 -1.828,-12.28Z" style="fill:#ac8774;fill-rule:nonzero;"/><path d="M222.327,151.29c-3.163,-5.11 -8.055,-2.9 -9.29,-1.77c-1.285,1.23 -2.273,2.8 -1.532,5.8c0.445,1.72 2.224,1.86 1.828,4.42c-0.494,2.9 -1.828,3.04 -2.569,3.73c-0.741,0.64 -1.729,1.13 -2.174,2.36c-0.445,1.23 -0.544,2.5 -0.296,3.63c0.494,2.07 3.508,0.4 5.534,-0.49c1.383,-0.64 5.583,-4.22 6.671,-5.4c2.717,-3.05 3.953,-8.94 1.828,-12.28Z" style="fill:#ac8774;fill-rule:nonzero;"/><path d="M148.042,197.3" style="fill:#bc917b;fill-rule:nonzero;"/><path d="M148.042,197.3" style="fill:#bc917b;fill-rule:nonzero;"/><path d="M144.474,194.61c-0.101,-0.02 -0.202,-0.04 -0.303,-0.06c0.1,0.02 0.187,0.04 0.303,0.06Z" style="fill:#bc917b;fill-rule:nonzero;"/><path d="M148.042,194.42" style="fill:#bc917b;fill-rule:nonzero;"/><path d="M143.689,194.44c-0.093,-0.02 -0.177,-0.05 -0.269,-0.08l-0.01,0.01c0,0 0.104,0.03 0.279,0.07Z" style="fill:#bc917b;fill-rule:nonzero;"/><path d="M148.042,194.42" style="fill:#bc917b;fill-rule:nonzero;"/><path d="M135.508,173.07c-0.244,-4.99 9.178,-1.82 12.285,-1.67c2.454,0.13 9.923,-1.57 10.564,-1.13c4.393,2.96 -4.654,8.93 -10.721,8.93c-1.616,0 -11.981,-3.11 -12.128,-6.13Z" style="fill:#ddb598;fill-rule:nonzero;"/><path d="M88.923,126.97" style="fill:#432e1b;fill-rule:nonzero;"/><path d="M148.314,194.44" style="fill:#ba907b;fill-rule:nonzero;"/><path d="M148.314,194.44" style="fill:#ba907b;fill-rule:nonzero;"/><path d="M144.65,191.68c-0.104,-0.02 -0.208,-0.04 -0.311,-0.07c0.102,0.03 0.191,0.05 0.311,0.07Z" style="fill:#ba907b;fill-rule:nonzero;"/><path d="M148.314,191.48" style="fill:#ba907b;fill-rule:nonzero;"/><path d="M143.844,191.5c-0.096,-0.02 -0.183,-0.05 -0.277,-0.08l-0.011,0.01c0,0 0.108,0.03 0.288,0.07Z" style="fill:#ba907b;fill-rule:nonzero;"/><path d="M148.314,191.48" style="fill:#ba907b;fill-rule:nonzero;"/><path d="M132.589,152.18c0,0 -0.194,0.06 -0.627,0.24c-0.107,-7.26 -0.778,-17.23 -3.473,-19.14c-4.006,-2.93 -13.052,-7.06 -25.137,4.23c-1.099,-3.12 -1.65,-5.48 -1.65,-5.48c13.213,-14.22 23.16,-9.74 27.439,-6.64c4.319,3.11 3.448,26.79 3.448,26.79Z" style="fill:#d6b496;fill-rule:nonzero;"/><path d="M127.599,141.93c0,4.58 -3.713,8.29 -8.293,8.29c-4.581,0 -8.294,-3.71 -8.294,-8.29c0,-4.58 3.713,-8.29 8.294,-8.29c4.58,0 8.293,3.71 8.293,8.29Z" style="fill:#482315;fill-rule:nonzero;"/><path d="M118.92,147.45c-2.395,-0.19 -4.233,-2.61 -4.015,-5.27c0.214,-2.66 2.422,-4.73 4.819,-4.53c2.395,0.19 4.231,2.61 4.019,5.26c-0.218,2.66 -2.428,4.74 -4.823,4.54Z" style="fill:#7e3a22;fill-rule:nonzero;"/><path d="M119.127,146.49c-1.667,-0.14 -3.397,-1.97 -3.213,-4.22c0.188,-2.26 2.189,-3.78 3.856,-3.65c1.668,0.14 3.394,1.98 3.21,4.23c-0.183,2.26 -2.19,3.78 -3.853,3.64Z" style="fill:#211a10;fill-rule:nonzero;"/><path d="M148.447,196.82" style="fill:#ba907b;fill-rule:nonzero;"/><path d="M148.446,196.82l0.001,0l-0.001,0Z" style="fill:#ba907b;fill-rule:nonzero;"/><path d="M144.782,194.06c-0.105,-0.03 -0.208,-0.05 -0.311,-0.07c0.102,0.02 0.191,0.04 0.311,0.07Z" style="fill:#ba907b;fill-rule:nonzero;"/><path d="M148.447,193.86" style="fill:#ba907b;fill-rule:nonzero;"/><path d="M143.976,193.88c-0.096,-0.03 -0.183,-0.06 -0.277,-0.08l-0.01,0c0,0 0.107,0.03 0.287,0.08Z" style="fill:#ba907b;fill-rule:nonzero;"/><path d="M148.446,193.86l0.001,0l-0.001,0Z" style="fill:#ba907b;fill-rule:nonzero;"/><path d="M148.333,196.45" style="fill:#bc917b;fill-rule:nonzero;"/><path d="M148.333,196.45" style="fill:#bc917b;fill-rule:nonzero;"/><path d="M144.405,193.49c-0.112,-0.03 -0.223,-0.05 -0.334,-0.07c0.11,0.02 0.206,0.04 0.334,0.07Z" style="fill:#bc917b;fill-rule:nonzero;"/><path d="M148.333,193.28" style="fill:#bc917b;fill-rule:nonzero;"/><path d="M143.541,193.29c-0.103,-0.02 -0.196,-0.05 -0.297,-0.08l-0.011,0.01c0,0 0.115,0.03 0.308,0.07Z" style="fill:#bc917b;fill-rule:nonzero;"/><path d="M148.333,193.28" style="fill:#bc917b;fill-rule:nonzero;"/><path d="M148.085,195.6" style="fill:#bc917b;fill-rule:nonzero;"/><path d="M148.084,195.6l0.001,0l-0.001,0Z" style="fill:#bc917b;fill-rule:nonzero;"/><path d="M144.156,192.65c-0.111,-0.03 -0.222,-0.05 -0.333,-0.08c0.11,0.03 0.206,0.05 0.333,0.08Z" style="fill:#bc917b;fill-rule:nonzero;"/><path d="M148.085,192.43" style="fill:#bc917b;fill-rule:nonzero;"/><path d="M143.293,192.45c-0.103,-0.02 -0.196,-0.05 -0.297,-0.08l-0.011,0c0,0 0.114,0.04 0.308,0.08Z" style="fill:#bc917b;fill-rule:nonzero;"/><path d="M148.084,192.43l0.001,0l-0.001,0Z" style="fill:#bc917b;fill-rule:nonzero;"/><path d="M148.724,195.39" style="fill:#bc917b;fill-rule:nonzero;"/><path d="M148.724,195.39" style="fill:#bc917b;fill-rule:nonzero;"/><path d="M144.927,192.53c-0.108,-0.02 -0.215,-0.04 -0.323,-0.07c0.106,0.03 0.199,0.04 0.323,0.07Z" style="fill:#bc917b;fill-rule:nonzero;"/><path d="M148.724,192.33" style="fill:#bc917b;fill-rule:nonzero;"/><path d="M144.092,192.34c-0.099,-0.02 -0.189,-0.05 -0.287,-0.08l-0.011,0.01c0,0 0.111,0.03 0.298,0.07Z" style="fill:#bc917b;fill-rule:nonzero;"/><path d="M148.724,192.33" style="fill:#bc917b;fill-rule:nonzero;"/><path d="M163.614,151.5c0,0 0.193,0.05 0.626,0.23c0.108,-7.25 0.779,-17.22 3.473,-19.13c4.006,-2.94 13.052,-7.06 25.138,4.23c1.099,-3.12 1.649,-5.49 1.649,-5.49c-13.212,-14.22 -23.16,-9.74 -27.438,-6.63c-4.32,3.1 -3.448,26.79 -3.448,26.79Z" style="fill:#d6b496;fill-rule:nonzero;"/><path d="M168.603,141.24c0,4.59 3.713,8.3 8.294,8.3c4.58,0 8.294,-3.71 8.294,-8.3c0,-4.58 -3.714,-8.29 -8.294,-8.29c-4.581,0 -8.294,3.71 -8.294,8.29Z" style="fill:#482315;fill-rule:nonzero;"/><path d="M177.282,146.77c2.395,-0.2 4.234,-2.62 4.016,-5.27c-0.214,-2.66 -2.423,-4.74 -4.819,-4.54c-2.395,0.2 -4.231,2.61 -4.02,5.27c0.218,2.66 2.429,4.74 4.823,4.54Z" style="fill:#7e3a22;fill-rule:nonzero;"/><path d="M177.075,145.81c1.667,-0.14 3.397,-1.97 3.213,-4.22c-0.187,-2.26 -2.189,-3.79 -3.856,-3.65c-1.668,0.14 -3.393,1.98 -3.21,4.23c0.184,2.26 2.19,3.78 3.853,3.64Z" style="fill:#211a10;fill-rule:nonzero;"/><path d="M137.638,131.77c-0.064,-0.1 -1.593,-2.42 -4.719,-4.82c-1.958,-1.5 -3.878,-2.65 -5.869,-3.5c-2.42,-1.02 -5.027,-1.73 -7.552,-2.08c-2.284,-0.25 -4.814,-0.19 -7.768,0.21c-2.254,0.43 -4.453,1.1 -6.319,1.92c-1.331,0.46 -2.382,1.11 -3.227,1.62c-0.323,0.2 -0.616,0.38 -0.913,0.54l-4.026,2.53l4.639,-1.09c0.216,-0.05 0.45,-0.11 0.701,-0.18c0.96,-0.25 2.154,-0.57 3.555,-0.78c0.328,-0.04 0.661,-0.11 1.001,-0.18c0.584,-0.12 1.187,-0.24 1.82,-0.27c0.702,-0.04 1.431,-0.09 2.18,-0.15l0.974,-0.07c2.569,-0.03 4.739,0.16 6.667,0.61c2.106,0.36 4.273,1.04 6.258,1.96c1.875,0.9 3.673,1.79 5.076,2.82c2.833,1.89 4.41,3.47 4.426,3.48c0.389,0.39 0.909,0.6 1.432,0.6c0.381,0 0.764,-0.11 1.098,-0.33c0.933,-0.61 1.195,-1.87 0.601,-2.78l-0.035,-0.06Z" style="fill:#030405;fill-rule:nonzero;"/><path d="M195.335,125.64c-0.266,-0.14 -0.56,-0.32 -0.884,-0.52c-0.844,-0.51 -1.895,-1.16 -3.186,-1.6c-1.906,-0.84 -4.104,-1.51 -6.386,-1.94c-2.927,-0.4 -5.459,-0.46 -7.752,-0.21c-2.513,0.35 -5.12,1.06 -7.544,2.08c-1.962,0.84 -3.936,2.02 -5.866,3.5c-3.07,2.35 -4.596,4.64 -4.711,4.81l-0.028,0.04c-0.518,0.8 -0.407,1.87 0.263,2.54c0.381,0.39 0.888,0.6 1.427,0.6l0.002,0c0.539,0 1.045,-0.21 1.425,-0.6l0.017,-0.02c0.149,-0.14 1.68,-1.64 4.428,-3.48c1.381,-1.01 3.179,-1.9 5.049,-2.8c1.994,-0.92 4.16,-1.6 6.294,-1.97c1.9,-0.44 4.074,-0.63 6.609,-0.6l1.022,0.07c0.743,0.06 1.465,0.11 2.172,0.16c0.623,0.02 1.226,0.14 1.81,0.26c0.34,0.07 0.673,0.14 1,0.18c1.401,0.21 2.596,0.53 3.556,0.78c0.25,0.07 0.484,0.13 0.707,0.18l4.637,1.09l-4.061,-2.55Z" style="fill:#030405;fill-rule:nonzero;"/><path d="M117.777,140.94c-0.069,0.81 -0.905,1.41 -1.863,1.33c-0.959,-0.08 -1.683,-0.81 -1.618,-1.62c0.069,-0.82 0.9,-1.41 1.859,-1.34c0.963,0.08 1.687,0.81 1.622,1.63Z" style="fill:#fff;fill-rule:nonzero;"/><path d="M123.154,145.65c-0.035,0.4 -0.452,0.7 -0.929,0.66c-0.482,-0.04 -0.842,-0.4 -0.811,-0.81c0.034,-0.4 0.452,-0.7 0.929,-0.66c0.482,0.03 0.846,0.4 0.811,0.81Z" style="fill:#fff;fill-rule:nonzero;"/><path d="M178.426,140.25c0.069,0.82 0.905,1.41 1.862,1.33c0.96,-0.08 1.683,-0.81 1.618,-1.62c-0.069,-0.81 -0.9,-1.41 -1.858,-1.33c-0.964,0.08 -1.687,0.8 -1.622,1.62Z" style="fill:#fff;fill-rule:nonzero;"/><path d="M173.048,144.96c0.035,0.41 0.452,0.71 0.93,0.67c0.481,-0.04 0.841,-0.41 0.811,-0.81c-0.035,-0.41 -0.453,-0.71 -0.93,-0.67c-0.481,0.04 -0.845,0.4 -0.811,0.81Z" style="fill:#fff;fill-rule:nonzero;"/><path d="M148.28,199.47" style="fill:#bc917b;fill-rule:nonzero;"/><path d="M148.279,199.47l0.001,0l-0.001,0Z" style="fill:#bc917b;fill-rule:nonzero;"/><path d="M144.711,196.78c-0.101,-0.02 -0.202,-0.04 -0.303,-0.07c0.1,0.03 0.187,0.04 0.303,0.07Z" style="fill:#bc917b;fill-rule:nonzero;"/><path d="M148.28,196.59" style="fill:#bc917b;fill-rule:nonzero;"/><path d="M143.927,196.6c-0.094,-0.02 -0.178,-0.05 -0.27,-0.07l-0.01,0c0,0 0.104,0.03 0.28,0.07Z" style="fill:#bc917b;fill-rule:nonzero;"/><path d="M148.279,196.59l0.001,0l-0.001,0Z" style="fill:#bc917b;fill-rule:nonzero;"/><path d="M148.552,196.61" style="fill:#ba907b;fill-rule:nonzero;"/><path d="M148.551,196.61l0.001,0l-0.001,0Z" style="fill:#ba907b;fill-rule:nonzero;"/><path d="M144.887,193.85c-0.104,-0.03 -0.208,-0.05 -0.311,-0.07c0.102,0.02 0.191,0.04 0.311,0.07Z" style="fill:#ba907b;fill-rule:nonzero;"/><path d="M148.552,193.65" style="fill:#ba907b;fill-rule:nonzero;"/><path d="M144.081,193.67c-0.096,-0.03 -0.183,-0.06 -0.277,-0.08l-0.011,0c0,0 0.108,0.03 0.288,0.08Z" style="fill:#ba907b;fill-rule:nonzero;"/><path d="M148.551,193.65l0.001,0l-0.001,0Z" style="fill:#ba907b;fill-rule:nonzero;"/><path d="M148.684,198.98" style="fill:#ba907b;fill-rule:nonzero;"/><path d="M148.683,198.98l0.001,0l-0.001,0Z" style="fill:#ba907b;fill-rule:nonzero;"/><path d="M145.019,196.22c-0.104,-0.02 -0.208,-0.04 -0.311,-0.07c0.102,0.03 0.191,0.05 0.311,0.07Z" style="fill:#ba907b;fill-rule:nonzero;"/><path d="M148.684,196.02" style="fill:#ba907b;fill-rule:nonzero;"/><path d="M144.213,196.04c-0.096,-0.02 -0.183,-0.05 -0.277,-0.08l-0.01,0.01c0,0 0.107,0.03 0.287,0.07Z" style="fill:#ba907b;fill-rule:nonzero;"/><path d="M148.683,196.02l0.001,0l-0.001,0Z" style="fill:#ba907b;fill-rule:nonzero;"/><path d="M148.57,198.61" style="fill:#bc917b;fill-rule:nonzero;"/><path d="M148.57,198.61" style="fill:#bc917b;fill-rule:nonzero;"/><path d="M144.642,195.65c-0.112,-0.02 -0.223,-0.04 -0.334,-0.07c0.11,0.03 0.206,0.05 0.334,0.07Z" style="fill:#bc917b;fill-rule:nonzero;"/><path d="M148.57,195.44" style="fill:#bc917b;fill-rule:nonzero;"/><path d="M143.778,195.46c-0.103,-0.03 -0.196,-0.06 -0.297,-0.08l-0.011,0c0,0 0.114,0.03 0.308,0.08Z" style="fill:#bc917b;fill-rule:nonzero;"/><path d="M148.57,195.44" style="fill:#bc917b;fill-rule:nonzero;"/><path d="M148.322,197.77" style="fill:#bc917b;fill-rule:nonzero;"/><path d="M148.322,197.77" style="fill:#bc917b;fill-rule:nonzero;"/><path d="M144.394,194.81c-0.112,-0.02 -0.223,-0.05 -0.334,-0.07c0.11,0.02 0.206,0.04 0.334,0.07Z" style="fill:#bc917b;fill-rule:nonzero;"/><path d="M148.322,194.6" style="fill:#bc917b;fill-rule:nonzero;"/><path d="M143.53,194.62c-0.103,-0.03 -0.196,-0.06 -0.297,-0.09l-0.011,0.01c0,0 0.114,0.03 0.308,0.08Z" style="fill:#bc917b;fill-rule:nonzero;"/><path d="M148.322,194.6" style="fill:#bc917b;fill-rule:nonzero;"/><path d="M148.961,197.55" style="fill:#bc917b;fill-rule:nonzero;"/><path d="M148.961,197.55" style="fill:#bc917b;fill-rule:nonzero;"/><path d="M145.164,194.69c-0.108,-0.02 -0.215,-0.04 -0.322,-0.06c0.106,0.02 0.199,0.04 0.322,0.06Z" style="fill:#bc917b;fill-rule:nonzero;"/><path d="M148.961,194.49" style="fill:#bc917b;fill-rule:nonzero;"/><path d="M144.329,194.51c-0.099,-0.03 -0.189,-0.06 -0.287,-0.08l-0.011,0c0,0 0.111,0.03 0.298,0.08Z" style="fill:#bc917b;fill-rule:nonzero;"/><path d="M148.961,194.49" style="fill:#bc917b;fill-rule:nonzero;"/><path d="M145.683,205.99" style="fill:#be927b;fill-rule:nonzero;"/><path d="M145.683,205.99" style="fill:#be927b;fill-rule:nonzero;"/><path d="M142.043,203.25c-0.103,-0.02 -0.206,-0.04 -0.309,-0.07c0.102,0.02 0.191,0.04 0.309,0.07Z" style="fill:#be927b;fill-rule:nonzero;"/><path d="M145.683,203.05" style="fill:#be927b;fill-rule:nonzero;"/><path d="M141.243,203.07c-0.096,-0.03 -0.182,-0.05 -0.275,-0.08l-0.011,0.01c0,0 0.107,0.03 0.286,0.07Z" style="fill:#be927b;fill-rule:nonzero;"/><path d="M145.683,203.05" style="fill:#be927b;fill-rule:nonzero;"/><path d="M145.454,205.21" style="fill:#be927b;fill-rule:nonzero;"/><path d="M145.453,205.21l0.001,0l-0.001,0Z" style="fill:#be927b;fill-rule:nonzero;"/><path d="M141.813,202.47c-0.103,-0.02 -0.206,-0.04 -0.309,-0.07c0.102,0.02 0.191,0.04 0.309,0.07Z" style="fill:#be927b;fill-rule:nonzero;"/><path d="M145.454,202.27" style="fill:#be927b;fill-rule:nonzero;"/><path d="M141.013,202.29c-0.095,-0.03 -0.182,-0.05 -0.275,-0.08l-0.01,0.01c0,0 0.106,0.02 0.285,0.07Z" style="fill:#be927b;fill-rule:nonzero;"/><path d="M145.453,202.27l0.001,0l-0.001,0Z" style="fill:#be927b;fill-rule:nonzero;"/><path d="M146.046,205.01" style="fill:#be927b;fill-rule:nonzero;"/><path d="M146.045,205.01l0.001,0l-0.001,0Z" style="fill:#be927b;fill-rule:nonzero;"/><path d="M142.527,202.36c-0.1,-0.02 -0.199,-0.04 -0.298,-0.06c0.097,0.02 0.184,0.04 0.298,0.06Z" style="fill:#be927b;fill-rule:nonzero;"/><path d="M146.046,202.17" style="fill:#be927b;fill-rule:nonzero;"/><path d="M141.753,202.19c-0.092,-0.03 -0.175,-0.05 -0.265,-0.08l-0.01,0.01c0,0 0.102,0.03 0.275,0.07Z" style="fill:#be927b;fill-rule:nonzero;"/><path d="M146.045,202.17l0.001,0l-0.001,0Z" style="fill:#be927b;fill-rule:nonzero;"/><path d="M135.788,204.76c-0.24,-3.2 8.913,0.67 11.918,0.76c2.398,0.08 9.601,-0.47 10.266,-0.73c5.035,-1.88 -0.275,5.35 -10.415,5.73c-4.646,0.19 -11.631,-3.82 -11.769,-5.76Z" style="fill:#f0d2ad;fill-rule:nonzero;"/><path d="M165.955,197.07c-5.803,-1.08 -18.031,0.07 -18.031,0.07c-10.082,1.68 -17.974,-0.1 -18.031,-0.03c-0.242,0.02 8.052,11.02 17.893,10.51c9.842,0.51 18.41,-10.51 18.169,-10.55Z" style="fill:#c2646e;fill-rule:nonzero;"/><path d="M153.755,194.75c-2.615,-0.29 -4.477,1.6 -5.819,1.46c-1.365,0.13 -3.139,-1.08 -5.77,-1.11c-3.7,-0.04 -5.506,-0.36 -12.273,2.01c0.241,0.46 4.576,2.97 12.697,3.11c0.115,0 2.295,1.23 5.391,1.21c1.939,-0.01 4.6,-1.31 4.703,-1.31c8.133,-0.12 13.099,-2.54 13.328,-2.99c-8.946,-2.77 -8.236,-2.42 -12.257,-2.38Z" style="fill:#d87475;fill-rule:nonzero;"/><path d="M202.067,257.49l-106.781,0c4.177,-7.72 9.259,-12.82 13.971,-16.15c2.407,-1.69 4.711,-2.95 6.728,-3.87c1.543,-0.7 2.921,-1.19 4.053,-1.54c1.316,-0.4 2.304,-0.6 2.88,-0.72c4.979,6.27 13.949,14.97 25.636,14.89c7.695,-0.06 16.582,-3.93 26.232,-14.79c1.008,0.18 2.716,0.62 4.855,1.46c0.618,0.25 1.276,0.51 1.955,0.82c1.81,0.83 3.827,1.94 5.925,3.36c4.856,3.33 10.185,8.51 14.546,16.54Z" style="fill:#9270b1;fill-rule:nonzero;"/><path d="M94.687,300.18l108.651,0c-0.254,-3.92 -0.517,-10.31 -0.554,-18.73l-107.529,0c-0.047,8.42 -0.315,14.81 -0.568,18.73Z" style="fill:#9270b1;fill-rule:nonzero;"/><path d="M207.931,272.71l-5.102,0c-0.041,2.04 -0.041,3.99 -0.041,5.85l0,2.9l-107.522,0l0,-2.9c0,-1.86 -0.021,-3.81 -0.041,-5.85l-5.802,0c0.658,-2.57 1.399,-4.96 2.222,-7.18c1.09,-2.96 2.304,-5.64 3.641,-8.04l106.781,0c1.317,2.4 2.552,5.08 3.642,8.04c0.823,2.22 1.564,4.61 2.222,7.18Z" style="fill:#faa830;fill-rule:nonzero;"/><path d="M93.241,60.92c14.865,-16.02 36.724,-23.79 36.724,-23.79l-6.058,5.78c3.625,-2.82 10.086,-6.76 20.876,-10.22c15.359,-4.91 25.304,0.57 25.304,0.57c0,0 -8.043,-0.28 -11.965,2.93c3.873,-1.71 10.546,-2.31 21.724,2.37c21.853,9.16 21.456,25.56 36.66,30.59c15.562,5.17 20.075,-1.46 20.075,-1.46c0,0 -6.75,11.61 -18.745,11.64c-1.936,0 -2.129,-0.04 -2.143,-0.05c0.016,0.04 4.49,12.45 5.356,21.71c0.882,9.47 -1.867,15.95 -2.712,33.67c-0.731,15.14 -4.678,7.37 -9.379,18.54c-1.584,3.74 -1.649,7.95 -1.649,7.95c-1.183,0.3 -3.651,-3.98 -4.11,-11.91c-5.784,13.44 -12.75,22.76 -12.75,22.76c17.633,-63.62 -4.178,-67.76 -4.178,-67.76c-9.401,-0.8 -21.79,3.01 -27.149,25.92c0,0 -2.676,-19.28 2.628,-34.45c-8.79,4.98 -27.61,18.65 -27.899,44.79c0,0 -16.78,-25.52 0,-50.81c0,0 -17.153,4.27 -14.189,46.74c0,0 -7.851,-6 -9.079,-33.4c0,0 -5.152,9.64 -5.771,25.89c-2.376,-1.63 -4.61,-3.46 -6.569,-5.51c-0.382,9.97 1.239,24.14 6.824,44.29c0,0 -8.503,-11.36 -14.518,-27.1c0.958,19.76 -2.56,19.61 -2.56,19.61c-1.307,0 0.096,-7.3 -4.282,-12.34c-4.364,-5.04 -11.031,-22 -11.031,-38.93c0,-16.94 5.707,-32 20.565,-48.02Z" style="fill:#f15e25;fill-rule:nonzero;"/></g></svg>