<?xml version="1.0" encoding="UTF-8" standalone="no"?><!DOCTYPE svg PUBLIC "-//W3C//DTD SVG 1.1//EN" "http://www.w3.org/Graphics/SVG/1.1/DTD/svg11.dtd"><svg width="100%" height="100%" viewBox="0 0 298 301" version="1.1" xmlns="http://www.w3.org/2000/svg" xmlns:xlink="http://www.w3.org/1999/xlink" xml:space="preserve" style="fill-rule:evenodd;clip-rule:evenodd;stroke-linejoin:round;stroke-miterlimit:1.41421;"><g id="_19"><rect x="0.17" y="0.48" width="296.87" height="299.71" style="fill:#be1e2d;fill-rule:nonzero;"/><path d="M153.81,187.92l0,112.26l-60.74,0c-0.98,-0.39 -1.48,-0.6 -1.48,-0.6c0,-7.16 0.54,-13.56 1.46,-19.22c0.44,-2.61 0.95,-5.08 1.55,-7.38c0.65,-2.74 1.44,-5.27 2.3,-7.61c0.19,-0.48 0.35,-0.95 0.54,-1.4c0.2,-0.52 0.41,-1.01 0.61,-1.5c0.21,-0.5 0.41,-0.97 0.64,-1.44c0.41,-0.97 0.87,-1.88 1.32,-2.76c0.78,-1.52 1.6,-2.96 2.47,-4.3c0.22,-0.37 0.45,-0.72 0.68,-1.05c1.11,-1.65 2.26,-3.17 3.43,-4.55c0.33,-0.37 0.66,-0.76 0.99,-1.11c0.33,-0.37 0.66,-0.72 0.99,-1.07c0.33,-0.33 0.68,-0.68 1,-0.99c0.33,-0.33 0.66,-0.63 0.99,-0.92c0.66,-0.62 1.34,-1.2 2,-1.71c3.23,-2.59 6.34,-4.34 8.97,-5.49c0.33,-0.15 0.66,-0.29 0.99,-0.44c1.02,-0.41 1.95,-0.74 2.77,-0.98c2.14,-0.68 3.46,-0.83 3.46,-0.83c0.25,0 0.45,-0.02 0.68,-0.06c1.91,-0.31 3.46,-1.97 4.71,-4.61c0.93,-1.97 1.69,-4.48 2.33,-7.38c0.24,-1.15 0.45,-2.29 0.63,-3.52c0.31,-2.08 0.6,-4.26 0.85,-6.52c0.1,-1.38 0.24,-2.72 0.39,-4.16c0.55,-6.87 0.7,-14.38 0.7,-21.5c0,0 8.14,0.84 14.77,0.84Z" style="fill:#e0bd9a;fill-rule:nonzero;"/><path d="M216.27,299.58c0,0 -0.53,0.21 -1.44,0.6l-61.02,0l0,-112.26l0.14,0c6.59,0 14.84,-0.84 14.84,-0.84c0,7.06 0.14,14.49 0.68,21.36c0.16,1.33 0.3,2.71 0.41,4.05c0.25,2.37 0.53,4.59 0.88,6.67l0,0.04c0.11,0.94 0.29,1.79 0.46,2.67c0.59,2.92 1.31,5.5 2.2,7.55c1.09,2.57 2.4,4.36 4.03,5.06c0.49,0.23 1.05,0.35 1.62,0.35c0,0 2.33,0.27 5.83,1.65c1.85,0.72 4.03,1.75 6.35,3.21c0.48,0.29 0.97,0.62 1.44,0.95c0.4,0.24 0.79,0.53 1.18,0.82c0.33,0.25 0.7,0.51 1.03,0.78c0.72,0.56 1.46,1.17 2.2,1.85c0.29,0.25 0.55,0.52 0.84,0.78c0.33,0.29 0.64,0.6 0.97,0.95c0.22,0.21 0.43,0.41 0.64,0.64c0.43,0.45 0.88,0.94 1.31,1.46c0.23,0.25 0.46,0.49 0.66,0.76c0.99,1.15 1.96,2.41 2.88,3.79c0.41,0.57 0.78,1.17 1.17,1.79c0.79,1.25 1.55,2.59 2.29,4.01c0.9,1.77 1.77,3.66 2.57,5.7c0.19,0.45 0.37,0.92 0.53,1.4c0.87,2.34 1.65,4.87 2.33,7.61c0.6,2.3 1.11,4.77 1.52,7.38c0.93,5.66 1.46,12.06 1.46,19.22Z" style="fill:#efd0ad;fill-rule:nonzero;"/><path d="M170.76,218.95l0,0.05c-1.53,2.36 -6.67,9.13 -16.85,9.13l-0.1,0c-9.63,-0.04 -15.27,-7.02 -16.7,-9.08c0.3,-2.06 0.59,-4.23 0.84,-6.48c0.1,-1.33 0.25,-2.71 0.4,-4.13c4.69,1.18 9.83,1.92 15.27,2.01l0.19,0c5.64,-0.09 10.82,-0.88 15.67,-2.16c0.15,1.33 0.29,2.7 0.39,4.03c0.25,2.36 0.55,4.57 0.89,6.63Z" style="fill:#be987f;fill-rule:nonzero;"/><path d="M153.12,59.97c-64.33,0 -64.68,53.78 -61.81,88.99c-4.4,-8.35 -17.5,-5.79 -16.41,7.37c1.04,12.67 19.75,19.13 19.22,17.73c9.74,26.04 35.53,45.68 59,45.68l0.5,0l0,-159.77l-0.5,0Z" style="fill:#d2a686;fill-rule:nonzero;"/><path d="M79,150.78c3.16,-5.11 8.11,-2.9 9.29,-1.77c1.29,1.23 2.32,2.8 1.53,5.8c-0.44,1.72 -2.22,1.86 -1.83,4.42c0.5,2.9 1.83,3.04 2.62,3.73c0.74,0.64 1.68,1.13 2.13,2.36c0.49,1.23 0.54,2.5 0.29,3.63c-0.49,2.07 -3.5,0.4 -5.53,-0.49c-1.33,-0.64 -5.58,-4.22 -6.67,-5.4c-2.67,-3.05 -3.95,-8.94 -1.83,-12.28Z" style="fill:#ac8774;fill-rule:nonzero;"/><path d="M153.47,59.97c64.33,0 64.68,53.78 61.86,88.99c4.4,-8.35 17.45,-5.79 16.36,7.37c-0.99,12.67 -19.73,19.13 -19.22,17.73c-9.49,26.04 -35.53,45.68 -59,45.68c-0.15,0 -0.35,0 -0.35,0l-0.15,-159.77c0,0 0.35,0 0.5,0Z" style="fill:#ddb598;fill-rule:nonzero;"/><path d="M227.59,150.78c-3.17,-5.11 -8.06,-2.9 -9.29,-1.77c-1.29,1.23 -2.28,2.8 -1.53,5.8c0.44,1.72 2.22,1.86 1.82,4.42c-0.49,2.9 -1.82,3.04 -2.57,3.73c-0.74,0.64 -1.73,1.13 -2.17,2.36c-0.44,1.23 -0.54,2.5 -0.3,3.63c0.5,2.07 3.51,0.4 5.54,-0.49c1.38,-0.64 5.58,-4.22 6.67,-5.4c2.72,-3.05 3.95,-8.94 1.83,-12.28Z" style="fill:#ac8774;fill-rule:nonzero;"/><path d="M152.62,75.15c-21.15,0 -36.67,6.14 -46.01,18.22c-13.09,16.94 -12.6,42.78 -7.81,61.34c1.49,5.7 2.28,20.97 3.27,26.57c4.59,25.1 32.31,38.46 50.55,38.46c0,0 0.34,0 0.49,0l0,-144.59c-0.15,0 -0.3,0 -0.3,0" style="fill:#e0bd9a;fill-rule:nonzero;"/><path d="M198.57,93.42c-9.29,-12.04 -24.61,-18.17 -45.46,-18.27l0,144.59c20.85,-0.25 45.81,-14.89 50.06,-38.46c1.03,-5.6 1.77,-20.87 3.26,-26.57c4.84,-18.52 5.33,-44.3 -7.86,-61.29Z" style="fill:#efd0ad;fill-rule:nonzero;"/><path d="M153.3,196.79" style="fill:#bc917b;fill-rule:nonzero;"/><path d="M153.3,196.79" style="fill:#bc917b;fill-rule:nonzero;"/><path d="M149.73,194.1c-0.1,-0.02 -0.2,-0.04 -0.3,-0.06c0.1,0.02 0.19,0.04 0.3,0.06Z" style="fill:#bc917b;fill-rule:nonzero;"/><path d="M153.3,193.91" style="fill:#bc917b;fill-rule:nonzero;"/><path d="M148.95,193.93c-0.09,-0.02 -0.18,-0.05 -0.27,-0.08l-0.01,0.01c0,0 0.1,0.03 0.28,0.07Z" style="fill:#bc917b;fill-rule:nonzero;"/><path d="M153.3,193.91" style="fill:#bc917b;fill-rule:nonzero;"/><path d="M135.15,75.51l-0.27,0.27l0.04,0.08c0.09,-0.13 0.14,-0.26 0.23,-0.35Z" style="fill:#432e1b;fill-rule:nonzero;"/><path d="M94.18,126.46" style="fill:#432e1b;fill-rule:nonzero;"/><path d="M153.57,193.93" style="fill:#ba907b;fill-rule:nonzero;"/><path d="M153.57,193.93" style="fill:#ba907b;fill-rule:nonzero;"/><path d="M149.91,191.17c-0.1,-0.02 -0.21,-0.04 -0.31,-0.06c0.1,0.02 0.19,0.04 0.31,0.06Z" style="fill:#ba907b;fill-rule:nonzero;"/><path d="M153.57,190.97" style="fill:#ba907b;fill-rule:nonzero;"/><path d="M149.1,190.99c-0.09,-0.02 -0.18,-0.05 -0.27,-0.08l-0.01,0.01c0,0 0.1,0.03 0.28,0.07Z" style="fill:#ba907b;fill-rule:nonzero;"/><path d="M153.57,190.97" style="fill:#ba907b;fill-rule:nonzero;"/><path d="M140.54,175.21c-0.25,-5.13 9.42,-1.88 12.61,-1.72c2.52,0.13 10.19,-1.61 10.85,-1.16c4.52,3.04 -4.78,9.17 -11.01,9.17c-1.66,0 -12.3,-3.2 -12.45,-6.29Z" style="fill:#dcb497;fill-rule:nonzero;"/><path d="M106.96,131.58c0,0 4.9,20.14 13.33,21.78c8.43,1.64 17.55,-1.62 17.55,-1.62c0,0 0.87,-23.67 -3.45,-26.76c-4.31,-3.1 -14.24,-7.59 -27.43,6.6Z" style="fill:#fff;fill-rule:nonzero;"/><path d="M137.85,151.67c0,0 -0.19,0.06 -0.63,0.24c-0.1,-7.26 -0.78,-17.23 -3.47,-19.14c-4.01,-2.93 -13.05,-7.06 -25.14,4.23c-1.1,-3.12 -1.65,-5.48 -1.65,-5.48c13.21,-14.22 23.16,-9.74 27.44,-6.63c4.32,3.1 3.45,26.78 3.45,26.78Z" style="fill:#d6b496;fill-rule:nonzero;"/><path d="M132.86,141.42c0,4.58 -3.71,8.29 -8.29,8.29c-4.58,0 -8.3,-3.71 -8.3,-8.29c0,-4.58 3.72,-8.29 8.3,-8.29c4.58,0 8.29,3.71 8.29,8.29Z" style="fill:#482315;fill-rule:nonzero;"/><path d="M124.18,146.94c-2.39,-0.19 -4.23,-2.61 -4.01,-5.27c0.21,-2.65 2.42,-4.73 4.81,-4.53c2.4,0.19 4.23,2.61 4.02,5.26c-0.21,2.66 -2.43,4.74 -4.82,4.54Z" style="fill:#7e3a22;fill-rule:nonzero;"/><path d="M124.39,145.99c-1.67,-0.15 -3.4,-1.98 -3.22,-4.23c0.19,-2.26 2.19,-3.78 3.86,-3.65c1.67,0.15 3.39,1.98 3.21,4.23c-0.18,2.26 -2.19,3.78 -3.85,3.65Z" style="fill:#211a10;fill-rule:nonzero;"/><path d="M123.04,140.43c-0.07,0.81 -0.91,1.41 -1.87,1.33c-0.96,-0.08 -1.68,-0.81 -1.61,-1.62c0.07,-0.82 0.9,-1.41 1.86,-1.34c0.96,0.08 1.68,0.81 1.62,1.63Z" style="fill:#fff;fill-rule:nonzero;"/><path d="M128.41,145.14c-0.03,0.4 -0.45,0.7 -0.93,0.66c-0.48,-0.04 -0.84,-0.4 -0.81,-0.81c0.04,-0.4 0.46,-0.7 0.93,-0.66c0.48,0.04 0.85,0.4 0.81,0.81Z" style="fill:#fff;fill-rule:nonzero;"/><path d="M153.71,196.31" style="fill:#ba907b;fill-rule:nonzero;"/><path d="M153.71,196.31" style="fill:#ba907b;fill-rule:nonzero;"/><path d="M150.04,193.55c-0.1,-0.03 -0.21,-0.05 -0.31,-0.07c0.1,0.02 0.19,0.04 0.31,0.07Z" style="fill:#ba907b;fill-rule:nonzero;"/><path d="M153.71,193.35" style="fill:#ba907b;fill-rule:nonzero;"/><path d="M149.24,193.37c-0.1,-0.03 -0.19,-0.06 -0.28,-0.08l-0.01,0c0,0 0.11,0.03 0.29,0.08Z" style="fill:#ba907b;fill-rule:nonzero;"/><path d="M153.71,193.35" style="fill:#ba907b;fill-rule:nonzero;"/><path d="M153.59,195.94" style="fill:#bc917b;fill-rule:nonzero;"/><path d="M153.59,195.94" style="fill:#bc917b;fill-rule:nonzero;"/><path d="M149.67,192.98c-0.12,-0.03 -0.23,-0.05 -0.34,-0.07c0.11,0.02 0.21,0.04 0.34,0.07Z" style="fill:#bc917b;fill-rule:nonzero;"/><path d="M153.59,192.77" style="fill:#bc917b;fill-rule:nonzero;"/><path d="M148.8,192.79c-0.1,-0.03 -0.19,-0.06 -0.3,-0.09l-0.01,0.01c0,0 0.12,0.03 0.31,0.08Z" style="fill:#bc917b;fill-rule:nonzero;"/><path d="M153.59,192.77" style="fill:#bc917b;fill-rule:nonzero;"/><path d="M153.35,195.09" style="fill:#bc917b;fill-rule:nonzero;"/><path d="M153.34,195.09l0.01,0l-0.01,0Z" style="fill:#bc917b;fill-rule:nonzero;"/><path d="M149.42,192.14c-0.11,-0.03 -0.23,-0.05 -0.34,-0.07c0.11,0.02 0.21,0.04 0.34,0.07Z" style="fill:#bc917b;fill-rule:nonzero;"/><path d="M153.35,191.93" style="fill:#bc917b;fill-rule:nonzero;"/><path d="M148.55,191.94c-0.1,-0.02 -0.19,-0.05 -0.29,-0.08l-0.01,0c0,0 0.11,0.04 0.3,0.08Z" style="fill:#bc917b;fill-rule:nonzero;"/><path d="M153.34,191.93l0.01,0l-0.01,0Z" style="fill:#bc917b;fill-rule:nonzero;"/><path d="M153.98,194.88" style="fill:#bc917b;fill-rule:nonzero;"/><path d="M153.98,194.88" style="fill:#bc917b;fill-rule:nonzero;"/><path d="M150.19,192.02c-0.11,-0.02 -0.22,-0.04 -0.33,-0.07c0.11,0.03 0.2,0.05 0.33,0.07Z" style="fill:#bc917b;fill-rule:nonzero;"/><path d="M153.98,191.82" style="fill:#bc917b;fill-rule:nonzero;"/><path d="M149.35,191.83c-0.1,-0.02 -0.19,-0.05 -0.28,-0.08l-0.02,0.01c0,0 0.12,0.03 0.3,0.07Z" style="fill:#bc917b;fill-rule:nonzero;"/><path d="M153.98,191.82" style="fill:#bc917b;fill-rule:nonzero;"/><path d="M199.77,130.9c0,0 -4.91,20.13 -13.34,21.77c-8.42,1.65 -17.54,-1.62 -17.54,-1.62c0,0 -0.88,-23.66 3.44,-26.75c4.31,-3.11 14.25,-7.6 27.44,6.6Z" style="fill:#fff;fill-rule:nonzero;"/><path d="M168.87,150.99c0,0 0.2,0.05 0.63,0.24c0.11,-7.26 0.78,-17.23 3.47,-19.14c4.01,-2.94 13.06,-7.06 25.14,4.23c1.1,-3.12 1.65,-5.49 1.65,-5.49c-13.21,-14.22 -23.16,-9.74 -27.44,-6.63c-4.32,3.1 -3.45,26.79 -3.45,26.79Z" style="fill:#d6b496;fill-rule:nonzero;"/><path d="M173.86,140.74c0,4.58 3.72,8.29 8.3,8.29c4.58,0 8.29,-3.71 8.29,-8.29c0,-4.59 -3.71,-8.3 -8.29,-8.3c-4.58,0 -8.3,3.71 -8.3,8.3Z" style="fill:#482315;fill-rule:nonzero;"/><path d="M182.54,146.26c2.4,-0.2 4.24,-2.62 4.02,-5.27c-0.22,-2.66 -2.42,-4.74 -4.82,-4.54c-2.4,0.2 -4.23,2.61 -4.02,5.27c0.22,2.66 2.43,4.74 4.82,4.54Z" style="fill:#7e3a22;fill-rule:nonzero;"/><path d="M182.34,145.3c1.66,-0.14 3.39,-1.97 3.21,-4.22c-0.19,-2.26 -2.19,-3.79 -3.86,-3.65c-1.67,0.14 -3.39,1.98 -3.21,4.23c0.19,2.26 2.19,3.78 3.86,3.64Z" style="fill:#211a10;fill-rule:nonzero;"/><path d="M183.69,139.74c0.06,0.82 0.9,1.41 1.86,1.33c0.96,-0.08 1.68,-0.81 1.62,-1.62c-0.07,-0.81 -0.9,-1.41 -1.86,-1.33c-0.97,0.08 -1.69,0.8 -1.62,1.62Z" style="fill:#fff;fill-rule:nonzero;"/><path d="M178.31,144.45c0.03,0.41 0.45,0.71 0.93,0.67c0.48,-0.04 0.84,-0.41 0.81,-0.81c-0.04,-0.41 -0.45,-0.71 -0.93,-0.67c-0.48,0.04 -0.85,0.4 -0.81,0.81Z" style="fill:#fff;fill-rule:nonzero;"/><path d="M142.9,131.26c-0.07,-0.1 -1.59,-2.42 -4.72,-4.82c-1.96,-1.5 -3.88,-2.65 -5.87,-3.5c-2.42,-1.01 -5.03,-1.73 -7.55,-2.08c-2.29,-0.25 -4.82,-0.19 -7.77,0.21c-2.25,0.43 -4.45,1.1 -6.32,1.92c-1.33,0.46 -2.38,1.11 -3.23,1.62c-0.32,0.2 -0.61,0.38 -0.91,0.54l-4.02,2.53l4.63,-1.09c0.22,-0.05 0.45,-0.11 0.71,-0.18c0.96,-0.25 2.15,-0.57 3.55,-0.78c0.33,-0.04 0.66,-0.11 1,-0.18c0.58,-0.11 1.19,-0.23 1.82,-0.26c0.7,-0.05 1.43,-0.1 2.18,-0.16l0.98,-0.07c2.56,-0.03 4.73,0.16 6.66,0.61c2.11,0.36 4.27,1.04 6.26,1.96c1.88,0.9 3.67,1.79 5.08,2.82c2.83,1.89 4.41,3.47 4.42,3.48c0.39,0.39 0.91,0.6 1.43,0.6c0.39,0 0.77,-0.11 1.1,-0.33c0.94,-0.61 1.2,-1.87 0.6,-2.78l-0.03,-0.06Z" style="fill:#030405;fill-rule:nonzero;"/><path d="M200.6,125.13c-0.27,-0.14 -0.56,-0.32 -0.89,-0.52c-0.84,-0.51 -1.89,-1.16 -3.18,-1.6c-1.91,-0.84 -4.11,-1.51 -6.39,-1.94c-2.93,-0.4 -5.46,-0.46 -7.75,-0.21c-2.52,0.35 -5.12,1.07 -7.55,2.08c-1.96,0.84 -3.93,2.02 -5.86,3.5c-3.07,2.35 -4.6,4.64 -4.71,4.81l-0.03,0.04c-0.52,0.8 -0.41,1.87 0.26,2.54c0.38,0.39 0.89,0.6 1.43,0.6c0.54,0 1.05,-0.21 1.43,-0.6l0.01,-0.01c0.15,-0.15 1.68,-1.65 4.43,-3.48c1.38,-1.02 3.18,-1.91 5.05,-2.81c1.99,-0.92 4.16,-1.6 6.29,-1.97c1.9,-0.44 4.08,-0.63 6.61,-0.6l1.02,0.07c0.75,0.06 1.47,0.11 2.18,0.16c0.62,0.03 1.22,0.15 1.81,0.26c0.34,0.07 0.67,0.14 1,0.18c1.4,0.21 2.59,0.53 3.55,0.78c0.25,0.07 0.49,0.13 0.71,0.18l4.64,1.09l-4.06,-2.55Z" style="fill:#030405;fill-rule:nonzero;"/><path d="M150.71,203.32" style="fill:#be927b;fill-rule:nonzero;"/><path d="M150.71,203.32" style="fill:#be927b;fill-rule:nonzero;"/><path d="M147.07,200.57c-0.11,-0.02 -0.21,-0.04 -0.31,-0.06c0.1,0.02 0.19,0.04 0.31,0.06Z" style="fill:#be927b;fill-rule:nonzero;"/><path d="M150.71,200.38" style="fill:#be927b;fill-rule:nonzero;"/><path d="M146.27,200.4c-0.1,-0.03 -0.19,-0.06 -0.28,-0.08l-0.01,0c0,0 0.11,0.03 0.29,0.08Z" style="fill:#be927b;fill-rule:nonzero;"/><path d="M150.71,200.38" style="fill:#be927b;fill-rule:nonzero;"/><path d="M150.48,202.54" style="fill:#be927b;fill-rule:nonzero;"/><path d="M150.48,202.54" style="fill:#be927b;fill-rule:nonzero;"/><path d="M146.84,199.79c-0.11,-0.02 -0.21,-0.04 -0.31,-0.06c0.1,0.02 0.19,0.04 0.31,0.06Z" style="fill:#be927b;fill-rule:nonzero;"/><path d="M150.48,199.6" style="fill:#be927b;fill-rule:nonzero;"/><path d="M146.04,199.61c-0.1,-0.02 -0.19,-0.05 -0.28,-0.07l-0.01,0c0,0 0.11,0.03 0.29,0.07Z" style="fill:#be927b;fill-rule:nonzero;"/><path d="M150.48,199.6" style="fill:#be927b;fill-rule:nonzero;"/><path d="M151.07,202.34" style="fill:#be927b;fill-rule:nonzero;"/><path d="M151.07,202.34" style="fill:#be927b;fill-rule:nonzero;"/><path d="M147.55,199.69c-0.1,-0.02 -0.2,-0.04 -0.3,-0.07c0.1,0.03 0.19,0.04 0.3,0.07Z" style="fill:#be927b;fill-rule:nonzero;"/><path d="M151.07,199.5" style="fill:#be927b;fill-rule:nonzero;"/><path d="M146.78,199.51c-0.1,-0.02 -0.18,-0.05 -0.27,-0.07l-0.01,0c0,0 0.1,0.03 0.28,0.07Z" style="fill:#be927b;fill-rule:nonzero;"/><path d="M151.07,199.5" style="fill:#be927b;fill-rule:nonzero;"/><path d="M140.81,202.08c-0.24,-3.2 8.91,0.67 11.92,0.77c2.4,0.08 9.6,-0.48 10.27,-0.73c5.03,-1.88 -0.28,5.35 -10.42,5.73c-4.65,0.18 -11.63,-3.83 -11.77,-5.77Z" style="fill:#f0d2ad;fill-rule:nonzero;"/><path d="M170.98,194.4c-5.81,-1.09 -18.03,0.07 -18.03,0.07c-10.09,1.68 -17.98,-0.11 -18.03,-0.04c-0.24,0.03 8.05,11.03 17.89,10.52c9.84,0.51 18.41,-10.52 18.17,-10.55Z" style="fill:#c2646e;fill-rule:nonzero;"/><path d="M158.78,192.08c-2.62,-0.29 -4.48,1.59 -5.82,1.46c-1.37,0.12 -3.14,-1.09 -5.77,-1.11c-3.7,-0.04 -5.51,-0.37 -12.27,2c0.24,0.46 4.57,2.97 12.69,3.11c0.12,0 2.3,1.24 5.39,1.22c1.94,-0.01 4.6,-1.31 4.71,-1.31c8.13,-0.13 13.1,-2.54 13.33,-2.99c-8.95,-2.78 -8.24,-2.42 -12.26,-2.38Z" style="fill:#d87475;fill-rule:nonzero;"/><path d="M222.98,116.76c0,2.77 -0.3,7.28 -0.78,10.78c-0.27,2.23 -0.62,4.01 -0.97,4.74c-0.4,0.86 -3.2,8.88 -3.42,11.97c-1.32,1.33 -2.81,3.05 -3.82,5.84c-2.06,5.64 -2.9,4.68 -2.9,4.68c0,0 0.66,-4.46 1.41,-9.92c0.44,-4.6 1.05,-11.43 1.54,-17.31c0.04,-0.81 0.13,-1.64 0.17,-2.4c-0.92,-4.75 -9.52,-27.47 -50.4,-25.33c-6.58,0.32 -13.25,-2.23 -18.43,-4.96c-5.35,-2.79 -9.08,-5.73 -9.43,-5.73c-1.8,0 -18.16,-3.15 -27.77,4.27c-0.62,0.46 -1.18,0.95 -1.71,1.46c-11.4,10.25 -12.98,28.05 -12.98,31.6c0,0.32 0,0.68 0.04,1.09c0.31,7.33 -0.47,27.32 -0.47,27.32c0,0 -3.65,1.44 -5.76,-4.2c-1.18,-3.29 3.51,-5.72 2.02,-7.09c-2.28,-5 -3.55,-6.56 -4.7,-11.29c-0.3,-1.32 -1.27,-2.6 -2.28,-4.74c-2.19,-4.46 -4.69,-12.7 -2.05,-32.69c0.13,-0.91 0.26,-1.82 0.39,-2.79c2.01,-13.65 12.02,-44.34 38.43,-49.81c26.41,-5.5 32.55,-11.87 54.13,-2.73c21.58,9.11 35.22,15.53 41.85,30.6c2.98,6.88 4.91,16.17 6.05,24.73c1.45,10.25 1.84,19.39 1.84,21.91Z" style="fill:#3d3e3e;fill-rule:nonzero;"/><path d="M94.87,153.73c2.15,18.33 3.71,32.55 -5.13,33.43c-8.85,0.88 -17.77,-13.27 -19.92,-31.6c-2.15,-18.33 3.26,-33.91 12.11,-34.79c8.84,-0.88 10.78,14.63 12.94,32.96Z" style="fill:#5ba6ac;fill-rule:nonzero;"/><path d="M87.6,154.64c1.98,16.88 3.42,29.96 -4.72,30.77c-8.15,0.82 -16.36,-12.21 -18.34,-29.09c-1.99,-16.87 3,-31.22 11.14,-32.03c8.15,-0.81 9.94,13.47 11.92,30.35Z" style="fill:#3d3e3e;fill-rule:nonzero;"/><path d="M207.27,153.73c-2.16,18.33 -3.71,32.55 5.13,33.43c8.85,0.88 17.77,-13.27 19.92,-31.6c2.15,-18.33 -3.27,-33.91 -12.11,-34.79c-8.85,-0.88 -10.78,14.63 -12.94,32.96Z" style="fill:#5ba6ac;fill-rule:nonzero;"/><path d="M214.46,46.49c-13.77,-14.67 -35.07,-22.08 -63.47,-21.99c-28.4,-0.09 -49.7,7.32 -63.47,21.99c-16.59,17.7 -20.76,44.57 -12.09,77.66l5.26,-1.05c-8.13,-31.19 -4.23,-57.3 11,-73.57c12.68,-13.53 32.68,-20.37 59.3,-20.28c26.61,-0.09 46.61,6.75 59.29,20.28c15.24,16.27 19.14,42.38 11.01,73.57l5.26,1.05c8.67,-33.09 4.49,-59.96 -12.09,-77.66Z" style="fill:#fff;fill-rule:nonzero;"/><path d="M214.54,154.64c-1.99,16.88 -3.42,29.96 4.72,30.77c8.15,0.82 16.36,-12.21 18.34,-29.09c1.99,-16.87 -3.01,-31.22 -11.14,-32.03c-8.15,-0.81 -9.94,13.47 -11.92,30.35Z" style="fill:#3d3e3e;fill-rule:nonzero;"/><path d="M111.43,239.85c-9.53,5.18 -20.98,15.83 -25.84,37.66l-0.02,0.09c-0.64,2.88 1.28,5.72 4.29,6.44l12.56,2.97l0,13.17l47.25,0l0,-40.58c-18.63,-1.69 -32.54,-13.87 -38.24,-19.75Z" style="fill:#60373b;fill-rule:nonzero;"/><path d="M142.42,244.3l-16.08,-9.31c0,0 -6.75,0.43 -14.91,4.86c5.7,5.86 19.61,18.02 38.24,19.7l0,-12.61c-2.52,-0.45 -4.98,-1.33 -7.25,-2.64Z" style="fill:#3f1c21;fill-rule:nonzero;"/><path d="M222.54,277.57l-0.01,-0.06c-2.81,-13.12 -9.7,-28.72 -26.06,-37.37c-13.5,12.82 -26.28,18.27 -37.7,19.42l0,40.62l46.65,0l0,-13.17l12.82,-3.04c3,-0.71 4.92,-3.53 4.3,-6.4Z" style="fill:#60373b;fill-rule:nonzero;"/><path d="M181.45,234.93l-16.67,9.46c-1.9,1.08 -3.93,1.85 -6.01,2.33l0,12.79c11.42,-1.15 24.2,-6.58 37.7,-19.37c-4.32,-2.28 -9.28,-4.08 -15.02,-5.21Z" style="fill:#3f1c21;fill-rule:nonzero;"/><rect x="149.64" y="276.3" width="9.13" height="23.88" style="fill:#5ba6ac;fill-rule:nonzero;"/></g></svg>