<?xml version="1.0" encoding="UTF-8" standalone="no"?><!DOCTYPE svg PUBLIC "-//W3C//DTD SVG 1.1//EN" "http://www.w3.org/Graphics/SVG/1.1/DTD/svg11.dtd"><svg width="100%" height="100%" viewBox="0 0 300 300" version="1.1" xmlns="http://www.w3.org/2000/svg" xmlns:xlink="http://www.w3.org/1999/xlink" xml:space="preserve" style="fill-rule:evenodd;clip-rule:evenodd;stroke-linejoin:round;stroke-miterlimit:1.41421;"><g id="_2"><rect x="0.01" y="0.07" width="299.36" height="299.71" style="fill:#718faf;fill-rule:nonzero;"/><path d="M137.41,75.1l-0.27,0.27l0.05,0.09c0.09,-0.14 0.13,-0.27 0.22,-0.36Z" style="fill:#432e1b;fill-rule:nonzero;"/><path d="M156.07,187.51l0,112.27l-60.72,0c-0.98,-0.41 -1.48,-0.59 -1.48,-0.59c0,-10.29 1.07,-18.93 2.88,-26.22c0.7,-2.88 1.53,-5.55 2.43,-8c2.12,-5.78 4.71,-10.47 7.51,-14.28c7.41,-10.08 16.15,-13.99 20.88,-15.45c2.14,-0.66 3.46,-0.82 3.46,-0.82c0.23,0 0.43,-0.02 0.66,-0.06c1.05,-0.17 1.97,-0.74 2.82,-1.65c0.7,-0.76 1.31,-1.75 1.89,-2.96c0.93,-1.98 1.71,-4.49 2.32,-7.39c0.27,-1.13 0.46,-2.28 0.66,-3.52c0.29,-2.07 0.58,-4.23 0.85,-6.52c0.08,-1.38 0.22,-2.71 0.39,-4.15c0.53,-6.88 0.68,-14.39 0.68,-21.5c0,0 8.16,0.84 14.77,0.84Z" style="fill:#e0bd9a;fill-rule:nonzero;"/><path d="M218.53,299.19c0,0 -0.53,0.18 -1.44,0.59l-61.02,0l0,-112.27l0.16,0c6.57,0 14.82,-0.84 14.82,-0.84c0,7.07 0.14,14.48 0.7,21.35c0.14,1.34 0.28,2.72 0.39,4.06c0.24,2.36 0.55,4.6 0.88,6.68l0,0.04c0.11,0.95 0.29,1.77 0.45,2.68c0.6,2.92 1.32,5.47 2.21,7.53c0.59,1.4 1.25,2.57 2.03,3.45c0.6,0.74 1.26,1.3 2,1.61c0.51,0.25 1.05,0.35 1.62,0.35c0,0 2.33,0.29 5.85,1.67c7.14,2.79 19.15,10.14 26.04,28.88c0.91,2.45 1.73,5.12 2.43,8c1.81,7.29 2.88,15.93 2.88,26.22Z" style="fill:#efd0ad;fill-rule:nonzero;"/><path d="M173.03,218.54l0,0.05c-1.54,2.36 -6.68,9.14 -16.85,9.14l-0.1,0c-9.64,-0.05 -15.27,-7.03 -16.7,-9.09c0.29,-2.06 0.59,-4.22 0.84,-6.48c0.09,-1.33 0.24,-2.7 0.39,-4.13c4.7,1.18 9.83,1.92 15.27,2.02l0.2,0c5.63,-0.1 10.82,-0.89 15.66,-2.17c0.15,1.33 0.3,2.71 0.4,4.03c0.24,2.36 0.54,4.57 0.89,6.63Z" style="fill:#be987f;fill-rule:nonzero;"/><path d="M155.39,59.56c-64.34,0 -64.69,53.78 -61.82,89c-4.4,-8.35 -17.49,-5.8 -16.41,7.36c1.04,12.67 19.75,19.13 19.23,17.73c9.74,26.05 35.52,45.68 59,45.68l0.49,0l0,-159.77l-0.49,0Z" style="fill:#d2a686;fill-rule:nonzero;"/><path d="M81.27,150.37c3.16,-5.11 8.1,-2.9 9.29,-1.77c1.28,1.23 2.32,2.8 1.53,5.8c-0.45,1.72 -2.23,1.87 -1.83,4.42c0.49,2.9 1.83,3.05 2.62,3.73c0.74,0.64 1.68,1.13 2.12,2.36c0.5,1.23 0.55,2.51 0.3,3.63c-0.5,2.07 -3.51,0.4 -5.54,-0.49c-1.33,-0.63 -5.58,-4.22 -6.67,-5.4c-2.66,-3.04 -3.95,-8.94 -1.82,-12.28Z" style="fill:#ac8774;fill-rule:nonzero;"/><path d="M155.73,59.56c64.34,0 64.68,53.78 61.87,89c4.39,-8.35 17.44,-5.8 16.35,7.36c-0.99,12.67 -19.73,19.14 -19.22,17.73c-9.49,26.05 -35.53,45.68 -59,45.68c-0.15,0 -0.34,0 -0.34,0l-0.15,-159.77c0,0 0.34,0 0.49,0Z" style="fill:#ddb598;fill-rule:nonzero;"/><path d="M229.85,150.37c-3.16,-5.11 -8.05,-2.9 -9.29,-1.77c-1.28,1.23 -2.27,2.8 -1.53,5.8c0.44,1.72 2.22,1.87 1.83,4.42c-0.5,2.9 -1.83,3.05 -2.57,3.73c-0.74,0.64 -1.73,1.13 -2.18,2.36c-0.44,1.23 -0.54,2.51 -0.29,3.63c0.49,2.07 3.51,0.4 5.53,-0.49c1.39,-0.63 5.59,-4.22 6.67,-5.4c2.72,-3.04 3.96,-8.94 1.83,-12.28Z" style="fill:#ac8774;fill-rule:nonzero;"/><path d="M154.88,74.74c-21.15,0 -36.67,6.14 -46,18.22c-13.1,16.94 -12.6,42.78 -7.81,61.34c1.48,5.7 2.27,20.97 3.26,26.57c4.59,25.1 32.32,38.46 50.55,38.46c0,0 0.35,0 0.49,0l0,-144.59c-0.14,0 -0.29,0 -0.29,0" style="fill:#e0bd9a;fill-rule:nonzero;"/><path d="M200.83,93.01c-9.29,-12.03 -24.6,-18.17 -45.46,-18.27l0,144.59c20.86,-0.25 45.81,-14.88 50.06,-38.46c1.04,-5.6 1.78,-20.87 3.26,-26.57c4.84,-18.51 5.34,-44.3 -7.86,-61.29Z" style="fill:#efd0ad;fill-rule:nonzero;"/><path d="M155.57,196.38" style="fill:#bc917b;fill-rule:nonzero;"/><path d="M155.57,196.38" style="fill:#bc917b;fill-rule:nonzero;"/><path d="M152,193.7c-0.1,-0.03 -0.2,-0.04 -0.3,-0.07c0.09,0.02 0.18,0.04 0.3,0.07Z" style="fill:#bc917b;fill-rule:nonzero;"/><path d="M155.57,193.5" style="fill:#bc917b;fill-rule:nonzero;"/><path d="M151.21,193.52c-0.09,-0.02 -0.17,-0.05 -0.27,-0.07l-0.01,0c0,0 0.11,0.03 0.28,0.07Z" style="fill:#bc917b;fill-rule:nonzero;"/><path d="M155.57,193.5" style="fill:#bc917b;fill-rule:nonzero;"/><path d="M96.45,126.05" style="fill:#432e1b;fill-rule:nonzero;"/><path d="M155.84,193.52" style="fill:#ba907b;fill-rule:nonzero;"/><path d="M155.84,193.52" style="fill:#ba907b;fill-rule:nonzero;"/><path d="M152.17,190.76c-0.1,-0.02 -0.2,-0.04 -0.31,-0.06c0.1,0.02 0.19,0.04 0.31,0.06Z" style="fill:#ba907b;fill-rule:nonzero;"/><path d="M155.84,190.57" style="fill:#ba907b;fill-rule:nonzero;"/><path d="M151.37,190.58c-0.1,-0.02 -0.18,-0.05 -0.28,-0.07l-0.01,0c0,0 0.11,0.03 0.29,0.07Z" style="fill:#ba907b;fill-rule:nonzero;"/><path d="M155.84,190.57" style="fill:#ba907b;fill-rule:nonzero;"/><path d="M144.31,172.4c-0.25,-5.13 9.43,-1.88 12.62,-1.72c2.52,0.13 10.19,-1.61 10.85,-1.16c4.51,3.04 -4.78,9.17 -11.01,9.17c-1.66,0 -12.31,-3.2 -12.46,-6.29Z" style="fill:#dcb497;fill-rule:nonzero;"/><path d="M155.97,195.9" style="fill:#ba907b;fill-rule:nonzero;"/><path d="M155.97,195.9" style="fill:#ba907b;fill-rule:nonzero;"/><path d="M152.31,193.14c-0.11,-0.02 -0.21,-0.04 -0.31,-0.07c0.1,0.02 0.19,0.04 0.31,0.07Z" style="fill:#ba907b;fill-rule:nonzero;"/><path d="M155.97,192.94" style="fill:#ba907b;fill-rule:nonzero;"/><path d="M151.5,192.96c-0.1,-0.03 -0.18,-0.05 -0.28,-0.08l-0.01,0c0,0 0.11,0.03 0.29,0.08Z" style="fill:#ba907b;fill-rule:nonzero;"/><path d="M155.97,192.94" style="fill:#ba907b;fill-rule:nonzero;"/><path d="M155.86,195.53" style="fill:#bc917b;fill-rule:nonzero;"/><path d="M155.86,195.53" style="fill:#bc917b;fill-rule:nonzero;"/><path d="M151.93,192.57c-0.11,-0.02 -0.22,-0.05 -0.33,-0.07c0.11,0.02 0.2,0.04 0.33,0.07Z" style="fill:#bc917b;fill-rule:nonzero;"/><path d="M155.86,192.36" style="fill:#bc917b;fill-rule:nonzero;"/><path d="M151.07,192.38c-0.11,-0.03 -0.2,-0.06 -0.3,-0.09l-0.01,0.01c0,0 0.11,0.03 0.31,0.08Z" style="fill:#bc917b;fill-rule:nonzero;"/><path d="M155.86,192.36" style="fill:#bc917b;fill-rule:nonzero;"/><path d="M155.61,194.69" style="fill:#bc917b;fill-rule:nonzero;"/><path d="M155.61,194.69" style="fill:#bc917b;fill-rule:nonzero;"/><path d="M151.68,191.73c-0.11,-0.03 -0.22,-0.05 -0.33,-0.07c0.11,0.02 0.2,0.04 0.33,0.07Z" style="fill:#bc917b;fill-rule:nonzero;"/><path d="M155.61,191.52" style="fill:#bc917b;fill-rule:nonzero;"/><path d="M150.82,191.53c-0.11,-0.02 -0.2,-0.05 -0.3,-0.08l-0.01,0.01c0,0 0.11,0.03 0.31,0.07Z" style="fill:#bc917b;fill-rule:nonzero;"/><path d="M155.61,191.52" style="fill:#bc917b;fill-rule:nonzero;"/><path d="M156.25,194.47" style="fill:#bc917b;fill-rule:nonzero;"/><path d="M156.25,194.47" style="fill:#bc917b;fill-rule:nonzero;"/><path d="M152.45,191.61c-0.11,-0.02 -0.21,-0.04 -0.32,-0.07c0.1,0.03 0.2,0.05 0.32,0.07Z" style="fill:#bc917b;fill-rule:nonzero;"/><path d="M156.25,191.41" style="fill:#bc917b;fill-rule:nonzero;"/><path d="M151.62,191.43c-0.1,-0.03 -0.19,-0.06 -0.29,-0.08l-0.01,0c0,0 0.11,0.03 0.3,0.08Z" style="fill:#bc917b;fill-rule:nonzero;"/><path d="M156.25,191.41" style="fill:#bc917b;fill-rule:nonzero;"/><path d="M152.97,202.91" style="fill:#be927b;fill-rule:nonzero;"/><path d="M152.97,202.91" style="fill:#be927b;fill-rule:nonzero;"/><path d="M149.33,200.17c-0.1,-0.03 -0.21,-0.05 -0.31,-0.07c0.1,0.02 0.19,0.04 0.31,0.07Z" style="fill:#be927b;fill-rule:nonzero;"/><path d="M152.97,199.97" style="fill:#be927b;fill-rule:nonzero;"/><path d="M148.53,199.99c-0.1,-0.03 -0.18,-0.05 -0.28,-0.08l-0.01,0c0,0 0.11,0.03 0.29,0.08Z" style="fill:#be927b;fill-rule:nonzero;"/><path d="M152.97,199.97" style="fill:#be927b;fill-rule:nonzero;"/><path d="M152.74,202.13" style="fill:#be927b;fill-rule:nonzero;"/><path d="M152.74,202.13" style="fill:#be927b;fill-rule:nonzero;"/><path d="M149.1,199.39c-0.1,-0.03 -0.21,-0.05 -0.31,-0.07c0.1,0.02 0.19,0.04 0.31,0.07Z" style="fill:#be927b;fill-rule:nonzero;"/><path d="M152.74,199.19" style="fill:#be927b;fill-rule:nonzero;"/><path d="M148.3,199.21c-0.09,-0.03 -0.18,-0.06 -0.28,-0.08l-0.01,0c0,0 0.11,0.03 0.29,0.08Z" style="fill:#be927b;fill-rule:nonzero;"/><path d="M152.74,199.19" style="fill:#be927b;fill-rule:nonzero;"/><path d="M153.33,201.93" style="fill:#be927b;fill-rule:nonzero;"/><path d="M153.33,201.93" style="fill:#be927b;fill-rule:nonzero;"/><path d="M149.81,199.28c-0.1,-0.02 -0.19,-0.04 -0.29,-0.07c0.09,0.03 0.18,0.04 0.29,0.07Z" style="fill:#be927b;fill-rule:nonzero;"/><path d="M153.33,199.09" style="fill:#be927b;fill-rule:nonzero;"/><path d="M149.04,199.11c-0.09,-0.03 -0.17,-0.05 -0.27,-0.08l0,0.01c0,0 0.1,0.02 0.27,0.07Z" style="fill:#be927b;fill-rule:nonzero;"/><path d="M153.33,199.09" style="fill:#be927b;fill-rule:nonzero;"/><path d="M143.08,201.67c-0.25,-3.19 8.91,0.68 11.91,0.77c2.4,0.08 9.6,-0.48 10.27,-0.73c5.03,-1.88 -0.28,5.35 -10.42,5.73c-4.64,0.18 -11.63,-3.82 -11.76,-5.77Z" style="fill:#f0d2ad;fill-rule:nonzero;"/><path d="M173.24,193.99c-5.8,-1.09 -18.03,0.07 -18.03,0.07c-10.08,1.68 -17.97,-0.1 -18.03,-0.04c-0.24,0.03 8.05,11.03 17.89,10.52c9.85,0.51 18.41,-10.52 18.17,-10.55Z" style="fill:#c2646e;fill-rule:nonzero;"/><path d="M161.04,191.67c-2.61,-0.29 -4.48,1.59 -5.82,1.46c-1.36,0.12 -3.14,-1.09 -5.77,-1.11c-3.7,-0.04 -5.5,-0.36 -12.27,2c0.24,0.47 4.58,2.98 12.7,3.11c0.11,0 2.29,1.24 5.39,1.22c1.94,-0.01 4.6,-1.31 4.7,-1.31c8.13,-0.12 13.1,-2.54 13.33,-2.99c-8.95,-2.77 -8.24,-2.42 -12.26,-2.38Z" style="fill:#d87475;fill-rule:nonzero;"/><path d="M109.22,130.78c0,0 4.91,20.2 13.34,21.84c8.42,1.65 17.54,-1.62 17.54,-1.62c0,0 0.87,-23.74 -3.44,-26.84c-4.31,-3.12 -14.25,-7.62 -27.44,6.62Z" style="fill:#fff;fill-rule:nonzero;"/><path d="M140.11,150.93c0,0 -0.19,0.06 -0.62,0.24c-0.11,-7.28 -0.78,-17.28 -3.48,-19.2c-4,-2.94 -13.05,-7.08 -25.13,4.25c-1.1,-3.13 -1.65,-5.51 -1.65,-5.51c13.21,-14.26 23.16,-9.77 27.44,-6.65c4.31,3.12 3.44,26.87 3.44,26.87Z" style="fill:#d6b496;fill-rule:nonzero;"/><path d="M135.12,140.65c0,4.59 -3.71,8.32 -8.29,8.32c-4.58,0 -8.29,-3.73 -8.29,-8.32c0,-4.6 3.71,-8.32 8.29,-8.32c4.58,0 8.29,3.72 8.29,8.32Z" style="fill:#482315;fill-rule:nonzero;"/><path d="M126.44,146.19c-2.39,-0.2 -4.23,-2.62 -4.01,-5.29c0.21,-2.67 2.42,-4.75 4.82,-4.55c2.39,0.2 4.23,2.62 4.02,5.29c-0.22,2.66 -2.43,4.75 -4.83,4.55Z" style="fill:#7e3a22;fill-rule:nonzero;"/><path d="M126.65,145.23c-1.67,-0.14 -3.4,-1.98 -3.21,-4.24c0.19,-2.27 2.19,-3.8 3.85,-3.66c1.67,0.14 3.4,1.99 3.21,4.25c-0.18,2.26 -2.19,3.78 -3.85,3.65Z" style="fill:#211a10;fill-rule:nonzero;"/><path d="M125.3,135.54c-0.07,0.81 -0.9,1.41 -1.86,1.33c-0.96,-0.08 -1.68,-0.81 -1.62,-1.62c0.07,-0.82 0.9,-1.42 1.86,-1.34c0.96,0.08 1.69,0.81 1.62,1.63Z" style="fill:#fff;fill-rule:nonzero;"/><path d="M130.68,144.38c-0.04,0.4 -0.45,0.7 -0.93,0.66c-0.48,-0.04 -0.84,-0.4 -0.81,-0.81c0.03,-0.41 0.45,-0.71 0.93,-0.67c0.48,0.04 0.84,0.41 0.81,0.82Z" style="fill:#fff;fill-rule:nonzero;"/><path d="M202.03,130.09c0,0 -4.91,20.2 -13.33,21.85c-8.43,1.64 -17.55,-1.63 -17.55,-1.63c0,0 -0.87,-23.74 3.44,-26.84c4.31,-3.12 14.25,-7.62 27.44,6.62Z" style="fill:#fff;fill-rule:nonzero;"/><path d="M171.14,150.25c0,0 0.19,0.05 0.62,0.23c0.11,-7.28 0.78,-17.28 3.48,-19.19c4,-2.95 13.05,-7.09 25.14,4.24c1.09,-3.13 1.64,-5.5 1.64,-5.5c-13.21,-14.27 -23.16,-9.77 -27.43,-6.66c-4.32,3.12 -3.45,26.88 -3.45,26.88Z" style="fill:#d6b496;fill-rule:nonzero;"/><path d="M176.13,139.96c0,4.6 3.71,8.32 8.29,8.32c4.58,0 8.29,-3.72 8.29,-8.32c0,-4.59 -3.71,-8.32 -8.29,-8.32c-4.58,0 -8.29,3.73 -8.29,8.32Z" style="fill:#482315;fill-rule:nonzero;"/><path d="M184.81,145.5c2.39,-0.2 4.23,-2.62 4.01,-5.29c-0.21,-2.66 -2.42,-4.75 -4.82,-4.55c-2.39,0.2 -4.23,2.62 -4.02,5.29c0.22,2.66 2.43,4.75 4.83,4.55Z" style="fill:#7e3a22;fill-rule:nonzero;"/><path d="M184.6,144.54c1.67,-0.14 3.4,-1.98 3.21,-4.24c-0.18,-2.26 -2.19,-3.79 -3.85,-3.66c-1.67,0.15 -3.4,1.99 -3.21,4.25c0.18,2.26 2.19,3.79 3.85,3.65Z" style="fill:#211a10;fill-rule:nonzero;"/><path d="M185.95,138.96c0.07,0.82 0.9,1.42 1.86,1.34c0.96,-0.08 1.69,-0.81 1.62,-1.62c-0.07,-0.83 -0.9,-1.42 -1.86,-1.34c-0.96,0.07 -1.69,0.8 -1.62,1.62Z" style="fill:#fff;fill-rule:nonzero;"/><path d="M180.57,143.69c0.04,0.41 0.45,0.71 0.93,0.67c0.48,-0.04 0.84,-0.41 0.81,-0.82c-0.03,-0.4 -0.45,-0.7 -0.93,-0.66c-0.48,0.03 -0.84,0.4 -0.81,0.81Z" style="fill:#fff;fill-rule:nonzero;"/><path d="M145.16,130.46c-0.06,-0.1 -1.59,-2.44 -4.72,-4.84c-1.96,-1.51 -3.87,-2.65 -5.87,-3.51c-2.42,-1.02 -5.02,-1.74 -7.55,-2.09c-2.28,-0.25 -4.81,-0.18 -7.77,0.22c-2.25,0.43 -4.45,1.1 -6.31,1.92c-1.34,0.46 -2.39,1.11 -3.23,1.63c-0.32,0.2 -0.62,0.38 -0.92,0.54l-4.02,2.54l4.64,-1.1c0.21,-0.05 0.45,-0.11 0.7,-0.18c0.96,-0.25 2.15,-0.57 3.55,-0.78c0.33,-0.05 0.67,-0.11 1.01,-0.18c0.58,-0.12 1.18,-0.24 1.81,-0.27c0.71,-0.05 1.44,-0.1 2.19,-0.15l0.97,-0.07c2.57,-0.03 4.74,0.16 6.67,0.61c2.1,0.36 4.27,1.04 6.25,1.97c1.88,0.9 3.68,1.79 5.08,2.82c2.83,1.9 4.41,3.48 4.43,3.5c0.39,0.39 0.91,0.59 1.43,0.59c0.38,0 0.76,-0.11 1.1,-0.33c0.93,-0.61 1.19,-1.87 0.6,-2.78l-0.04,-0.06Z" style="fill:#030405;fill-rule:nonzero;"/><path d="M202.86,124.31c-0.27,-0.14 -0.56,-0.32 -0.88,-0.52c-0.85,-0.52 -1.9,-1.17 -3.19,-1.61c-1.91,-0.84 -4.1,-1.51 -6.39,-1.95c-2.92,-0.39 -5.46,-0.46 -7.75,-0.2c-2.51,0.34 -5.12,1.06 -7.54,2.08c-1.96,0.85 -3.94,2.03 -5.87,3.51c-3.07,2.36 -4.59,4.65 -4.71,4.83l-0.03,0.04c-0.52,0.8 -0.4,1.87 0.27,2.55c0.38,0.38 0.88,0.59 1.42,0.59c0.54,0 1.05,-0.21 1.43,-0.59l0.02,-0.02c0.15,-0.15 1.68,-1.65 4.42,-3.49c1.38,-1.02 3.18,-1.91 5.05,-2.81c2,-0.93 4.16,-1.61 6.3,-1.98c1.9,-0.44 4.07,-0.63 6.61,-0.6l1.02,0.07c0.74,0.05 1.46,0.1 2.17,0.15c0.62,0.03 1.23,0.15 1.81,0.27c0.34,0.07 0.67,0.13 1,0.18c1.4,0.21 2.6,0.53 3.56,0.78c0.25,0.07 0.48,0.13 0.7,0.19l4.64,1.09l-4.06,-2.56Z" style="fill:#030405;fill-rule:nonzero;"/><path d="M208.88,284.56c0.09,6.6 0.31,11.71 0.52,15l-53.33,0l0,-54.36c1.34,0.04 2.71,-0.04 4.11,-0.31c5.52,-1.03 11.5,-4.59 17.53,-12.43c0.6,0.75 1.26,1.3 2,1.61c0.51,0.25 1.05,0.35 1.62,0.35c0,0 2.33,0.29 5.85,1.67c2.05,0.8 4.52,1.99 7.16,3.7c6.48,4.28 13.99,11.85 18.88,25.18c0.91,2.45 1.73,5.13 2.43,8.01l-6.75,0c-0.06,4.25 -0.06,8.12 -0.02,11.58Z" style="fill:#c6282f;fill-rule:nonzero;"/><path d="M156.07,245.2l0,54.36l-53.23,0c0.21,-3.29 0.43,-8.4 0.54,-15c0.04,-3.48 0.04,-7.33 0,-11.58l-6.63,0c0.7,-2.88 1.53,-5.56 2.43,-8.01c2.12,-5.78 4.71,-10.47 7.51,-14.28c3.85,-5.22 8.04,-8.8 11.85,-11.21l0,-0.02c3.54,-2.24 6.75,-3.52 9.03,-4.22c2.14,-0.66 3.46,-0.82 3.46,-0.82c0.23,0 0.43,-0.02 0.66,-0.06c1.05,-0.17 1.97,-0.74 2.82,-1.65c2.57,3.17 10.88,12.18 21.56,12.49Z" style="fill:#ee3336;fill-rule:nonzero;"/><path d="M137.97,285.07l11.06,-6.96l0.16,-0.11c0.99,-0.66 1.59,-1.79 1.59,-3c0,-1.19 -0.58,-2.31 -1.56,-2.98c-0.08,-0.06 -0.18,-0.12 -0.27,-0.17l-6.36,-4l-4.39,-2.76l-0.31,-0.2l-0.15,-0.09l0,0.01l-0.07,-0.06c-0.53,-0.37 -1.23,-0.55 -1.92,-0.55c-1.99,0 -3.63,1.63 -3.63,3.64l0,14.34c0,2.01 1.64,3.63 3.63,3.63c1.01,0 1.91,-0.54 2.22,-0.74Z" style="fill:#878633;fill-rule:nonzero;"/><path d="M175.92,285.81c2,0 3.63,-1.62 3.63,-3.63l0,-14.34c0,-2.01 -1.63,-3.64 -3.63,-3.64c-0.68,0 -1.38,0.18 -1.91,0.55l-0.07,0.06l-0.01,-0.01l-0.13,0.09l-0.31,0.2l-4.4,2.76l-6.36,4c-0.09,0.05 -0.18,0.11 -0.27,0.17c-0.98,0.67 -1.56,1.79 -1.56,2.98c0,1.21 0.6,2.34 1.58,3l0.17,0.11l11.06,6.96c0.31,0.2 1.22,0.74 2.21,0.74Z" style="fill:#605e27;fill-rule:nonzero;"/><path d="M233.63,181.02c19.69,-29.08 3.27,-84.22 3.27,-84.22c0,0 -0.13,0.14 -0.36,0.39c-5.06,-17.37 -13.5,-26.76 -13.5,-26.76l0,0.01c-4.09,-5.88 -9.91,-12.05 -17.02,-18.13c-14.58,-12.45 -23.75,-9.89 -35.82,-9.53c0,0 -0.04,0.08 -0.1,0.2c-5.3,-1.08 -33.79,-6.47 -50.75,-0.51c-18.74,6.61 -34.08,17.93 -44.91,48.34c-2.74,7.68 -4.21,15.01 -4.86,21.85c-0.26,-0.24 -0.41,-0.37 -0.41,-0.37c0,0 -11.5,56.52 10.66,83.53c0,0 -5.33,-16.26 -2.59,-29.51c9.98,28.07 35.92,45.4 35.92,45.4c0,0 -8.05,-8.98 -11.66,-17.94c-2.79,-6.96 -6.97,-18.9 -6.97,-36.49c0,-17.58 18.22,-39.35 18.22,-39.35c0,0 -8.41,13.65 -10.06,28.68c-1.67,15.02 7.14,26.63 7.14,26.63c0,0 -1.76,-17.83 4.4,-32.03c3.1,-7.13 8.18,-13.35 16.51,-15.92l-0.01,0.03c-4.48,11.51 4.51,21.18 4.51,21.18c0,0 0.03,-2.89 0.92,-7.34c2.3,-11.52 10.36,-33.54 38.51,-43.33l0.87,1.2l19.83,27.25c0.98,1.24 2.56,3.33 4.4,6.04c5.37,7.88 12.79,20.8 12.79,32.04c0,17.58 -4.17,29.52 -6.97,36.48c-3.6,8.96 -11.66,17.95 -11.66,17.95c0,0 23.94,-15.99 34.67,-42.15l0,0.02c2.6,-5.86 4.68,-11.5 6.33,-16.92c1.45,11.45 -1.3,23.28 -1.3,23.28Z" style="fill:#f7931d;fill-rule:nonzero;"/><path d="M194.34,239.79c-13.89,14.87 -27,19.71 -38.27,19.57c-22.32,-0.23 -37.53,-19.88 -37.53,-19.88l0,-0.02c3.54,-2.24 6.75,-3.52 9.03,-4.22c2.14,-0.66 3.46,-0.82 3.46,-0.82c0.23,0 0.43,-0.02 0.66,-0.06c1.05,-0.17 1.97,-0.74 2.82,-1.65c2.57,3.17 10.88,12.18 21.56,12.49c1.34,0.04 2.71,-0.04 4.11,-0.31c5.52,-1.03 11.5,-4.59 17.53,-12.43c0.6,0.75 1.26,1.3 2,1.61c0.51,0.25 1.05,0.35 1.62,0.35c0,0 2.33,0.29 5.85,1.67c2.05,0.8 4.52,1.99 7.16,3.7Z" style="fill:#605e27;fill-rule:nonzero;"/></g></svg>