<?xml version="1.0" encoding="UTF-8" standalone="no"?><!DOCTYPE svg PUBLIC "-//W3C//DTD SVG 1.1//EN" "http://www.w3.org/Graphics/SVG/1.1/DTD/svg11.dtd"><svg width="100%" height="100%" viewBox="0 0 299 301" version="1.1" xmlns="http://www.w3.org/2000/svg" xmlns:xlink="http://www.w3.org/1999/xlink" xml:space="preserve" style="fill-rule:evenodd;clip-rule:evenodd;stroke-linejoin:round;stroke-miterlimit:1.41421;"><g id="_20"><rect x="1.442" y="0.48" width="296.868" height="299.7" style="fill:#f27068;fill-rule:nonzero;"/><path d="M150.18,187.55l0,112.63l-60.715,0c-1.008,-0.39 -1.502,-0.6 -1.502,-0.6c0,-14.36 2.119,-25.57 5.308,-34.32c3.786,-10.28 9.094,-17.15 14.3,-21.72c5.429,-4.8 10.759,-7.06 14.089,-8.09l0.05,-0.02c2.11,-0.64 3.41,-0.8 3.41,-0.8c0.25,0 0.45,-0.02 0.68,-0.06c1.91,-0.31 3.46,-1.98 4.71,-4.63c0.93,-1.98 1.69,-4.51 2.33,-7.41c0.24,-1.13 0.45,-2.28 0.63,-3.52c0.31,-2.1 0.6,-4.28 0.85,-6.56c0.1,-1.38 0.24,-2.72 0.41,-4.16c0.53,-6.89 0.68,-14.42 0.68,-21.58c0,0 8.169,0.84 14.77,0.84Z" style="fill:#e0bd9a;fill-rule:nonzero;"/><path d="M212.64,299.58c0,0 -0.53,0.21 -1.44,0.6l-61.02,0l0,-112.63l0.139,0c6.591,0 14.841,-0.84 14.841,-0.84c0,7.1 0.14,14.55 0.68,21.44c0.16,1.34 0.31,2.72 0.41,4.05c0.25,2.39 0.53,4.63 0.88,6.71l0,0.04c0.11,0.95 0.29,1.79 0.46,2.68c0.59,2.94 1.31,5.51 2.2,7.57c1.09,2.57 2.4,4.38 4.03,5.08c0.51,0.23 1.05,0.35 1.63,0.35c0,0 1.13,0.14 3,0.68c0.8,0.24 1.77,0.55 2.82,0.99c3.27,1.27 7.57,3.53 11.93,7.38c5.16,4.57 10.39,11.4 14.14,21.58c3.2,8.75 5.3,19.96 5.3,34.32Z" style="fill:#efd0ad;fill-rule:nonzero;"/><path d="M167.13,218.7l0,0.05c-1.53,2.36 -6.67,9.16 -16.85,9.16l-0.1,0c-9.63,-0.05 -15.26,-7.05 -16.7,-9.12c0.3,-2.06 0.6,-4.23 0.84,-6.5c0.1,-1.33 0.25,-2.71 0.4,-4.14c4.69,1.19 9.83,1.92 15.27,2.02l0.19,0c5.639,-0.1 10.83,-0.88 15.67,-2.16c0.15,1.33 0.29,2.71 0.39,4.04c0.25,2.36 0.55,4.58 0.89,6.65Z" style="fill:#be987f;fill-rule:nonzero;"/><path d="M149.49,59.22c-64.334,0 -64.679,53.95 -61.814,89.27c-4.397,-8.37 -17.493,-5.81 -16.405,7.39c1.038,12.71 19.745,19.19 19.222,17.79c9.743,26.12 35.527,45.81 58.997,45.81l0.5,0l0,-160.26l-0.5,0Z" style="fill:#d2a686;fill-rule:nonzero;"/><path d="M75.373,150.31c3.162,-5.12 8.104,-2.9 9.289,-1.77c1.285,1.23 2.322,2.81 1.532,5.81c-0.445,1.73 -2.224,1.88 -1.829,4.44c0.494,2.91 1.829,3.05 2.619,3.74c0.741,0.64 1.68,1.14 2.125,2.37c0.494,1.23 0.544,2.51 0.297,3.64c-0.494,2.07 -3.508,0.4 -5.534,-0.49c-1.334,-0.64 -5.584,-4.24 -6.671,-5.42c-2.669,-3.05 -3.953,-8.97 -1.828,-12.32Z" style="fill:#ac8774;fill-rule:nonzero;"/><path d="M149.839,59.22c64.331,0 64.681,53.95 61.861,89.27c4.4,-8.37 17.45,-5.81 16.36,7.39c-0.99,12.71 -19.73,19.19 -19.22,17.79c-9.49,26.12 -35.53,45.81 -59.001,45.81c-0.15,0 -0.349,0 -0.349,0l-0.151,-160.26c0,0 0.35,0 0.5,0Z" style="fill:#ddb598;fill-rule:nonzero;"/><path d="M223.96,150.31c-3.16,-5.12 -8.06,-2.9 -9.29,-1.77c-1.29,1.23 -2.27,2.81 -1.53,5.81c0.44,1.73 2.22,1.88 1.82,4.44c-0.49,2.91 -1.82,3.05 -2.56,3.74c-0.75,0.64 -1.73,1.14 -2.18,2.37c-0.44,1.23 -0.54,2.51 -0.3,3.64c0.5,2.07 3.51,0.4 5.54,-0.49c1.38,-0.64 5.58,-4.24 6.67,-5.42c2.72,-3.05 3.95,-8.97 1.83,-12.32Z" style="fill:#ac8774;fill-rule:nonzero;"/><path d="M148.99,74.44c-21.15,0 -36.67,6.16 -46.008,18.28c-13.094,17 -12.6,42.91 -7.807,61.54c1.482,5.71 2.273,21.03 3.261,26.65c4.595,25.17 32.314,38.57 50.554,38.57c0,0 0.339,0 0.49,0l0,-145.04c-0.151,0 -0.3,0 -0.3,0l-0.19,0Z" style="fill:#e0bd9a;fill-rule:nonzero;"/><path d="M194.94,92.77c-9.29,-12.07 -24.61,-18.23 -45.46,-18.33l0,145.04c20.85,-0.24 45.81,-14.92 50.06,-38.57c1.03,-5.62 1.78,-20.94 3.26,-26.65c4.84,-18.58 5.33,-44.44 -7.86,-61.49Z" style="fill:#efd0ad;fill-rule:nonzero;"/><path d="M149.67,191.04" style="fill:#bc917b;fill-rule:nonzero;"/><path d="M149.67,191.04" style="fill:#bc917b;fill-rule:nonzero;"/><path d="M146.11,193.77c-0.11,-0.02 -0.21,-0.04 -0.31,-0.06c0.1,0.02 0.19,0.04 0.31,0.06Z" style="fill:#bc917b;fill-rule:nonzero;"/><path d="M149.67,193.58" style="fill:#bc917b;fill-rule:nonzero;"/><path d="M145.319,193.6c-0.089,-0.03 -0.179,-0.05 -0.269,-0.08l-0.01,0.01c0,0 0.11,0.02 0.279,0.07Z" style="fill:#bc917b;fill-rule:nonzero;"/><path d="M149.67,193.58" style="fill:#bc917b;fill-rule:nonzero;"/><path d="M137.199,174.96c-0.24,-5.01 9.181,-1.83 12.291,-1.68c2.449,0.13 9.92,-1.58 10.56,-1.14c4.4,2.97 -4.65,8.96 -10.721,8.96c-1.609,0 -11.979,-3.12 -12.13,-6.14Z" style="fill:#ddb598;fill-rule:nonzero;"/><path d="M131.52,74.81l-0.27,0.26l0.05,0.09c0.08,-0.13 0.13,-0.27 0.22,-0.35Z" style="fill:#432e1b;fill-rule:nonzero;"/><path d="M90.555,125.91" style="fill:#432e1b;fill-rule:nonzero;"/><path d="M149.949,193.6" style="fill:#ba907b;fill-rule:nonzero;"/><path d="M149.949,193.6" style="fill:#ba907b;fill-rule:nonzero;"/><path d="M146.28,190.83c-0.1,-0.02 -0.211,-0.04 -0.31,-0.07c0.099,0.03 0.19,0.05 0.31,0.07Z" style="fill:#ba907b;fill-rule:nonzero;"/><path d="M149.949,190.63" style="fill:#ba907b;fill-rule:nonzero;"/><path d="M145.47,190.65c-0.09,-0.02 -0.18,-0.05 -0.271,-0.08l-0.01,0.01c0,0 0.101,0.03 0.281,0.07Z" style="fill:#ba907b;fill-rule:nonzero;"/><path d="M149.949,190.63" style="fill:#ba907b;fill-rule:nonzero;"/><path d="M103.327,131.05c0,0 4.908,20.2 13.333,21.85c8.43,1.65 17.55,-1.63 17.55,-1.63c0,0 0.87,-23.74 -3.44,-26.84c-4.32,-3.11 -14.25,-7.61 -27.443,6.62Z" style="fill:#fff;fill-rule:nonzero;"/><path d="M134.22,151.21c0,0 -0.19,0.06 -0.63,0.24c-0.1,-7.28 -0.78,-17.28 -3.47,-19.2c-4.01,-2.94 -13.05,-7.08 -25.137,4.24c-1.099,-3.13 -1.65,-5.5 -1.65,-5.5c13.217,-14.26 23.157,-9.77 27.437,-6.65c4.32,3.11 3.45,26.87 3.45,26.87Z" style="fill:#d6b496;fill-rule:nonzero;"/><path d="M129.23,140.92c0,4.6 -3.71,8.32 -8.29,8.32c-4.58,0 -8.3,-3.72 -8.3,-8.32c0,-4.59 3.72,-8.32 8.3,-8.32c4.58,0 8.29,3.73 8.29,8.32Z" style="fill:#482315;fill-rule:nonzero;"/><path d="M120.55,146.46c-2.39,-0.19 -4.23,-2.62 -4.01,-5.28c0.21,-2.67 2.42,-4.75 4.81,-4.55c2.4,0.19 4.24,2.62 4.02,5.28c-0.21,2.67 -2.42,4.76 -4.82,4.55Z" style="fill:#7e3a22;fill-rule:nonzero;"/><path d="M120.76,145.5c-1.67,-0.14 -3.4,-1.97 -3.21,-4.23c0.18,-2.27 2.18,-3.8 3.85,-3.66c1.67,0.14 3.39,1.98 3.21,4.24c-0.18,2.26 -2.19,3.79 -3.85,3.65Z" style="fill:#211a10;fill-rule:nonzero;"/><path d="M119.41,139.93c-0.07,0.82 -0.91,1.41 -1.86,1.33c-0.96,-0.08 -1.69,-0.81 -1.62,-1.62c0.07,-0.82 0.9,-1.42 1.86,-1.34c0.96,0.08 1.68,0.81 1.62,1.63Z" style="fill:#fff;fill-rule:nonzero;"/><path d="M124.79,144.65c-0.04,0.41 -0.46,0.71 -0.93,0.67c-0.49,-0.04 -0.85,-0.41 -0.82,-0.81c0.04,-0.41 0.46,-0.71 0.93,-0.67c0.49,0.04 0.85,0.4 0.82,0.81Z" style="fill:#fff;fill-rule:nonzero;"/><path d="M150.079,190.55" style="fill:#ba907b;fill-rule:nonzero;"/><path d="M150.079,190.55" style="fill:#ba907b;fill-rule:nonzero;"/><path d="M146.41,193.21c-0.1,-0.02 -0.201,-0.04 -0.31,-0.06c0.099,0.02 0.19,0.04 0.31,0.06Z" style="fill:#ba907b;fill-rule:nonzero;"/><path d="M150.079,193.02" style="fill:#ba907b;fill-rule:nonzero;"/><path d="M145.61,193.03c-0.1,-0.02 -0.19,-0.05 -0.281,-0.07l-0.01,0c0,0 0.111,0.03 0.291,0.07Z" style="fill:#ba907b;fill-rule:nonzero;"/><path d="M150.079,193.02" style="fill:#ba907b;fill-rule:nonzero;"/><path d="M149.959,190.18" style="fill:#bc917b;fill-rule:nonzero;"/><path d="M149.959,190.18" style="fill:#bc917b;fill-rule:nonzero;"/><path d="M146.04,192.64c-0.12,-0.02 -0.23,-0.04 -0.341,-0.07c0.111,0.03 0.211,0.05 0.341,0.07Z" style="fill:#bc917b;fill-rule:nonzero;"/><path d="M149.959,192.43" style="fill:#bc917b;fill-rule:nonzero;"/><path d="M145.17,192.45c-0.101,-0.03 -0.19,-0.06 -0.29,-0.08l-0.02,0c0,0 0.12,0.03 0.31,0.08Z" style="fill:#bc917b;fill-rule:nonzero;"/><path d="M149.959,192.43" style="fill:#bc917b;fill-rule:nonzero;"/><path d="M149.72,189.33" style="fill:#bc917b;fill-rule:nonzero;"/><path d="M149.72,189.33" style="fill:#bc917b;fill-rule:nonzero;"/><path d="M145.79,191.8c-0.11,-0.03 -0.221,-0.05 -0.341,-0.07c0.111,0.02 0.211,0.04 0.341,0.07Z" style="fill:#bc917b;fill-rule:nonzero;"/><path d="M149.72,191.59" style="fill:#bc917b;fill-rule:nonzero;"/><path d="M144.92,191.6c-0.101,-0.02 -0.19,-0.05 -0.29,-0.08l-0.01,0.01c0,0 0.11,0.03 0.3,0.07Z" style="fill:#bc917b;fill-rule:nonzero;"/><path d="M149.72,191.59" style="fill:#bc917b;fill-rule:nonzero;"/><path d="M150.36,189.12" style="fill:#bc917b;fill-rule:nonzero;"/><path d="M150.35,189.12l0.01,0l-0.01,0Z" style="fill:#bc917b;fill-rule:nonzero;"/><path d="M146.56,191.68c-0.111,-0.02 -0.221,-0.04 -0.32,-0.07c0.099,0.03 0.19,0.05 0.32,0.07Z" style="fill:#bc917b;fill-rule:nonzero;"/><path d="M150.36,191.48" style="fill:#bc917b;fill-rule:nonzero;"/><path d="M145.72,191.5c-0.1,-0.03 -0.19,-0.06 -0.281,-0.08l-0.009,0c0,0 0.11,0.03 0.29,0.08Z" style="fill:#bc917b;fill-rule:nonzero;"/><path d="M150.35,191.48l0.01,0l-0.01,0Z" style="fill:#bc917b;fill-rule:nonzero;"/><path d="M196.14,130.37c0,0 -4.91,20.19 -13.34,21.84c-8.42,1.65 -17.54,-1.63 -17.54,-1.63c0,0 -0.88,-23.73 3.44,-26.83c4.31,-3.12 14.25,-7.62 27.44,6.62Z" style="fill:#fff;fill-rule:nonzero;"/><path d="M165.25,150.52c0,0 0.19,0.06 0.62,0.24c0.11,-7.28 0.78,-17.28 3.47,-19.2c4.01,-2.94 13.06,-7.08 25.14,4.24c1.1,-3.12 1.65,-5.5 1.65,-5.5c-13.21,-14.26 -23.16,-9.77 -27.44,-6.65c-4.32,3.11 -3.44,26.87 -3.44,26.87Z" style="fill:#d6b496;fill-rule:nonzero;"/><path d="M170.23,140.24c0,4.59 3.72,8.32 8.3,8.32c4.58,0 8.29,-3.73 8.29,-8.32c0,-4.6 -3.71,-8.32 -8.29,-8.32c-4.58,0 -8.3,3.72 -8.3,8.32Z" style="fill:#482315;fill-rule:nonzero;"/><path d="M178.91,145.78c2.4,-0.2 4.24,-2.63 4.02,-5.29c-0.22,-2.67 -2.42,-4.75 -4.82,-4.55c-2.4,0.2 -4.23,2.62 -4.02,5.28c0.22,2.67 2.43,4.76 4.82,4.56Z" style="fill:#7e3a22;fill-rule:nonzero;"/><path d="M178.71,144.82c1.66,-0.15 3.39,-1.98 3.21,-4.24c-0.19,-2.27 -2.19,-3.8 -3.86,-3.66c-1.66,0.14 -3.39,1.98 -3.21,4.24c0.19,2.27 2.19,3.79 3.86,3.66Z" style="fill:#211a10;fill-rule:nonzero;"/><path d="M180.06,139.24c0.07,0.82 0.9,1.41 1.86,1.34c0.96,-0.09 1.68,-0.82 1.62,-1.63c-0.07,-0.82 -0.9,-1.42 -1.86,-1.34c-0.96,0.08 -1.69,0.81 -1.62,1.63Z" style="fill:#fff;fill-rule:nonzero;"/><path d="M174.68,143.97c0.03,0.4 0.45,0.7 0.93,0.66c0.48,-0.04 0.84,-0.4 0.81,-0.81c-0.03,-0.41 -0.45,-0.71 -0.93,-0.67c-0.48,0.04 -0.84,0.41 -0.81,0.82Z" style="fill:#fff;fill-rule:nonzero;"/><path d="M139.27,130.73c-0.061,-0.1 -1.59,-2.43 -4.72,-4.83c-1.96,-1.51 -3.88,-2.66 -5.87,-3.51c-2.42,-1.02 -5.03,-1.74 -7.55,-2.09c-2.28,-0.25 -4.82,-0.19 -7.77,0.21c-2.253,0.43 -4.452,1.11 -6.318,1.93c-1.331,0.46 -2.382,1.11 -3.227,1.63c-0.323,0.19 -0.616,0.37 -0.913,0.54l-4.025,2.53l4.638,-1.09c0.217,-0.05 0.451,-0.12 0.702,-0.18c0.959,-0.26 2.154,-0.58 3.554,-0.78c0.328,-0.05 0.661,-0.12 1.002,-0.18c0.583,-0.12 1.186,-0.24 1.819,-0.27c0.702,-0.05 1.428,-0.1 2.178,-0.15l0.98,-0.08c2.57,-0.03 4.73,0.17 6.66,0.61c2.11,0.37 4.28,1.05 6.26,1.97c1.88,0.9 3.67,1.8 5.08,2.83c2.83,1.9 4.41,3.48 4.42,3.49c0.39,0.4 0.909,0.6 1.44,0.6c0.38,0 0.76,-0.11 1.089,-0.33c0.941,-0.61 1.201,-1.88 0.601,-2.79l-0.03,-0.06Z" style="fill:#030405;fill-rule:nonzero;"/><path d="M196.97,124.59c-0.27,-0.15 -0.56,-0.33 -0.89,-0.53c-0.84,-0.51 -1.89,-1.16 -3.18,-1.6c-1.91,-0.84 -4.11,-1.52 -6.39,-1.95c-2.93,-0.4 -5.46,-0.46 -7.75,-0.21c-2.51,0.35 -5.12,1.07 -7.55,2.09c-1.96,0.84 -3.93,2.02 -5.86,3.51c-3.07,2.36 -4.6,4.65 -4.71,4.82l-0.03,0.05c-0.52,0.8 -0.41,1.87 0.26,2.54c0.38,0.39 0.89,0.6 1.43,0.6c0.54,0 1.05,-0.21 1.43,-0.6l0.01,-0.01c0.15,-0.15 1.68,-1.65 4.43,-3.5c1.38,-1.01 3.18,-1.91 5.05,-2.81c1.99,-0.92 4.16,-1.6 6.29,-1.97c1.9,-0.44 4.08,-0.63 6.61,-0.61l1.03,0.08c0.74,0.05 1.46,0.1 2.17,0.15c0.62,0.03 1.22,0.15 1.81,0.27c0.34,0.06 0.67,0.13 1,0.18c1.4,0.2 2.59,0.52 3.55,0.78c0.25,0.06 0.49,0.13 0.71,0.18l4.64,1.09l-4.06,-2.55Z" style="fill:#030405;fill-rule:nonzero;"/><path d="M148.79,198.5" style="fill:#be927b;fill-rule:nonzero;"/><path d="M148.79,198.5" style="fill:#be927b;fill-rule:nonzero;"/><path d="M144.959,195.6c-0.109,-0.02 -0.219,-0.04 -0.329,-0.06c0.11,0.02 0.199,0.04 0.329,0.06Z" style="fill:#be927b;fill-rule:nonzero;"/><path d="M148.79,195.4" style="fill:#be927b;fill-rule:nonzero;"/><path d="M144.11,195.42c-0.1,-0.03 -0.19,-0.06 -0.291,-0.09l-0.009,0.01c0,0 0.12,0.03 0.3,0.08Z" style="fill:#be927b;fill-rule:nonzero;"/><path d="M148.79,195.4" style="fill:#be927b;fill-rule:nonzero;"/><path d="M137.589,199.77c-0.239,-3.25 9.021,0.68 12.061,0.78c2.419,0.08 9.71,-0.49 10.39,-0.74c5.09,-1.91 -0.28,5.43 -10.54,5.81c-4.7,0.19 -11.77,-3.88 -11.911,-5.85Z" style="fill:#f0d2ad;fill-rule:nonzero;"/><path d="M167.74,193.51c-2.52,-0.12 -5.1,1.98 -8.12,1.66c-0.12,-0.06 -0.181,-0.06 -0.31,-0.06c-0.7,-0.13 -1.39,0 -2.14,0.18c-0.94,0.2 -1.89,0.58 -2.77,0.89c-1.52,0.49 -3.22,0.89 -4.97,0.75l0,0.01l-0.101,-0.01l-0.099,0.01l0,-0.01c-1.75,0.14 -3.45,-0.26 -4.96,-0.75c-0.89,-0.31 -1.831,-0.69 -2.77,-0.89c-0.76,-0.18 -1.45,-0.31 -2.14,-0.18c-0.13,0 -0.19,0 -0.32,0.06c-3.02,0.32 -5.6,-1.78 -8.11,-1.66c-0.7,0.06 -1.71,-0.12 -2.27,-0.12c0.12,0.06 0.25,0.12 0.38,0.18c7.159,3.51 13.35,10.07 20.19,9.86l0.2,0c6.85,0.21 13.03,-6.35 20.2,-9.86c0.12,-0.06 0.25,-0.12 0.38,-0.18c-0.57,0 -1.58,0.18 -2.27,0.12Z" style="fill:#dcbf9e;fill-rule:nonzero;"/><path d="M169.84,193.31c0,0 -7.28,-2.81 -12.46,-1.16c0,0 -1.931,0.75 -3.931,1.21c-1.219,0.48 -2.689,0.61 -4.12,0.56c-1.089,-0.05 -2.12,-0.18 -2.979,-0.33c-0.281,-0.05 -0.56,-0.11 -0.85,-0.17c-0.12,-0.02 -0.22,-0.04 -0.33,-0.07c-0.17,-0.04 -0.341,-0.07 -0.51,-0.12c-0.19,-0.04 -0.3,-0.07 -0.3,-0.07l0.01,-0.01c-1.661,-0.45 -3.08,-1 -3.08,-1c-5.18,-1.65 -12.47,1.16 -12.47,1.16c-0.1,0.05 -0.16,0.08 -0.16,0.08c0.56,0 1.57,0.18 2.27,0.12c2.51,-0.12 5.09,1.98 8.11,1.66c0.13,-0.06 0.19,-0.06 0.32,-0.06c0.69,-0.13 1.38,0 2.14,0.18c0.939,0.2 1.88,0.58 2.77,0.89c1.51,0.49 3.21,0.89 4.96,0.75l0,0.01l0.099,-0.01l0.101,0.01l0,-0.01c1.75,0.14 3.45,-0.26 4.97,-0.75c0.88,-0.31 1.83,-0.69 2.77,-0.89c0.75,-0.18 1.44,-0.31 2.14,-0.18c0.129,0 0.19,0 0.31,0.06c3.02,0.32 5.6,-1.78 8.12,-1.66c0.69,0.06 1.7,-0.12 2.27,-0.12c0,0 -0.07,-0.03 -0.17,-0.08Z" style="fill:#c69f83;fill-rule:nonzero;"/><path d="M137.089,195.03c0.141,0.03 13.661,4.16 24.231,0.09l-1.22,-0.83l-14.29,0l-8.721,0.74Z" style="fill:#c69f83;fill-rule:nonzero;"/><path d="M152.339,287.75l-0.049,0l0.049,0Z" style="fill:#fff;fill-rule:nonzero;"/><path d="M212.64,299.58c0,0 -0.53,0.21 -1.44,0.6l-121.735,0c-1.008,-0.39 -1.502,-0.6 -1.502,-0.6c0,-14.36 2.119,-25.57 5.308,-34.32c3.786,-10.28 9.094,-17.15 14.3,-21.72c7.299,13.56 22.529,36.19 42.609,35.96c12.67,-0.14 27.26,-9.38 43.02,-35.82c5.16,4.57 10.39,11.4 14.14,21.58c3.2,8.75 5.3,19.96 5.3,34.32Z" style="fill:#511f25;fill-rule:nonzero;"/><path d="M193.2,243.68c-15.76,26.44 -30.35,35.68 -43.02,35.82c-20.08,0.23 -35.31,-22.4 -42.609,-35.96c5.429,-4.8 10.759,-7.06 14.089,-8.09l0.05,-0.02l14.91,17.18c3.579,4.12 8.56,6.17 13.56,6.17c5.019,0 10.02,-2.1 13.6,-6.29l14.67,-17.18c0.8,0.24 1.77,0.55 2.82,0.99c3.27,1.27 7.57,3.53 11.93,7.38Z" style="fill:#b74e6c;fill-rule:nonzero;"/><path d="M155.839,293.62l-4.239,6.56l-2.92,0l-4.241,-6.56l5.701,-8.38l0.04,0.06l5.659,8.32Z" style="fill:#b74e6c;fill-rule:nonzero;"/><path d="M175.12,293.62l-4.24,6.56l-2.9,0l-4.24,-6.56l5.7,-8.38l5.68,8.38Z" style="fill:#b74e6c;fill-rule:nonzero;"/><path d="M136.54,293.62l-4.24,6.56l-2.9,0l-4.24,-6.56l5.7,-8.38l5.68,8.38Z" style="fill:#b74e6c;fill-rule:nonzero;"/><path d="M117.26,293.62l-4.24,6.56l-2.919,0l-4.238,-6.56l5.697,-8.38l5.7,8.38Z" style="fill:#b74e6c;fill-rule:nonzero;"/><path d="M194.41,293.62l-4.23,6.56l-2.9,0l-4.24,-6.56l5.68,-8.38l5.69,8.38Z" style="fill:#b74e6c;fill-rule:nonzero;"/><path d="M227.89,75.39c-1.96,-7.76 -5.28,-10.45 -7.98,-9.93c0,0 -125.788,6.09 -140.503,-0.46c-0.159,-0.16 -0.394,-0.29 -0.763,-0.36c-2.696,-0.51 -6.012,2.17 -7.979,9.93c-1.964,7.77 -0.699,14.41 0.274,12.17c0,0 85.181,12.59 157.851,1.25l-0.29,-0.75c0.56,-1.73 0.75,-6.49 -0.61,-11.85Z" style="fill:#9aca3c;fill-rule:nonzero;"/><path d="M79.689,65.07c-1.241,0.92 -27.409,-26.72 -49.696,7.79c-14.41,22.32 15.123,75.55 -29.744,75.57c5.738,-0.2 17.043,0.68 23.596,-2.75c-23.771,10.57 -13.654,32.91 -5.655,50.37c-6.719,-26.15 29.26,-26.88 35.13,-49.83c2.246,4.8 3.321,10.47 1.718,15.57c18.127,-15.79 1.173,-36.36 6.93,-55.8c3.183,-10.75 17.721,-40.92 17.721,-40.92Z" style="fill:#3f1615;fill-rule:nonzero;"/><path d="M102.298,148.54c0,0 -0.45,-5.87 7.852,-24.85c2.15,-4.91 7.83,-31.17 7.83,-31.17c0,0 -0.9,25.32 14.29,32.32c0,0 -2.8,-7.4 3.419,-24.3c0,0 15.741,24.97 18.661,45.09c0,0 21.54,-28.19 13.17,-51.76c0,0 8.94,10.48 8.94,28.8c0,0 12.16,-9.56 11.88,-27.18c0,0 9.3,32.43 6.76,52.26c0,0 9.38,-12.55 9.04,-23.73c0,0 4.29,25.4 3.72,33.91c-0.97,14.64 -6.83,27.78 -6.83,27.78c0,0 21.68,-3.57 22.07,-78.34c0.11,-23.42 -5.83,-69.96 -71.271,-70.28c-15.439,-0.07 -39.799,0.63 -60.802,22.65c-16.231,17.02 -16.418,55.77 -13.37,77.52c5.586,39.82 20.666,51.87 20.666,51.87c0,0 -5.148,-22.66 -5.469,-30.33c-0.342,-7.89 2.949,-31.48 2.949,-31.48c0,0 -0.176,15.67 6.495,21.22Z" style="fill:#562625;fill-rule:nonzero;"/><path d="M218.87,65.07c1.24,0.92 27.41,-26.72 49.7,7.79c14.41,22.32 -15.12,75.55 29.74,75.57c-5.73,-0.2 -17.04,0.68 -23.59,-2.75c23.77,10.57 13.65,32.91 5.66,50.37c6.72,-26.15 -29.26,-26.88 -35.13,-49.83c-2.25,4.8 -3.33,10.47 -1.73,15.57c-18.13,-15.79 -1.17,-36.36 -6.93,-55.8c-3.18,-10.75 -17.72,-40.92 -17.72,-40.92Z" style="fill:#3f1615;fill-rule:nonzero;"/><path d="M75.589,144.98c0.433,-1.84 1.325,-3.2 2.595,-4.22c0.164,1.02 0.335,2.03 0.512,3.01c-1.088,0.18 -2.145,0.59 -3.107,1.21Z" style="fill:#854d4c;fill-rule:nonzero;"/><path d="M92.939,153.99c0.12,-2.24 0.33,-4.81 0.584,-7.45c0.423,2.45 0.928,4.83 1.497,7.11c-0.698,0.1 -1.391,0.22 -2.081,0.34Zm-17.498,-3.79c-0.017,-0.15 -0.034,-0.32 -0.05,-0.48c-0.189,-1.86 -0.113,-3.43 0.198,-4.74c0.962,-0.62 2.019,-1.03 3.107,-1.21c0.21,1.18 0.429,2.32 0.655,3.44c-1.356,0.3 -2.748,1.17 -3.91,2.99Z" style="fill:#756258;fill-rule:nonzero;"/><path d="M77.285,157.94c-0.852,-2.12 -1.506,-4.67 -1.844,-7.74c1.162,-1.82 2.554,-2.69 3.91,-2.99c0.683,3.38 1.433,6.51 2.23,9.41c-1.459,0.42 -2.891,0.86 -4.296,1.32Z" style="fill:#665651;fill-rule:nonzero;"/><path d="M133.67,155.72c-0.15,-0.04 -0.29,-0.08 -0.44,-0.12c-3.62,-1 -7.2,-1.74 -10.75,-2.24c6.33,-0.15 11.73,-2.09 11.73,-2.09c0,0 0,-0.02 0,-0.06l0.01,0c0,0 0.15,-4.2 0.01,-9.3c0.17,0.17 0.29,0.36 0.37,0.54c1.239,3 1.54,6.4 0.15,10.67c-0.31,0.91 -0.67,1.78 -1.08,2.6Zm-38.65,-2.07c-0.569,-2.28 -1.074,-4.66 -1.497,-7.11c0.305,-3.18 0.672,-6.47 1.022,-9.41c0.747,-0.05 1.486,-0.09 2.216,-0.13c0.856,4.32 2.476,8.99 5.537,11.54c0,0 -0.232,-3.02 2.698,-11.72c0.026,0 0.051,0 0.077,0c2.01,5.78 5.691,14.06 10.727,15.84c-1.97,-0.13 -3.93,-0.19 -5.857,-0.19l-0.043,0c-5.113,0 -10.089,0.43 -14.88,1.18Z" style="fill:#7a6b60;fill-rule:nonzero;"/><path d="M122.48,153.36c-2.25,-0.33 -4.48,-0.55 -6.68,-0.7c-5.036,-1.78 -8.717,-10.06 -10.727,-15.84c3.162,0.02 6.03,0.14 8.487,0.3c-0.59,1.14 -0.92,2.43 -0.92,3.8c0,4.6 3.72,8.32 8.3,8.32c4.58,0 8.29,-3.72 8.29,-8.32c0,-0.46 -0.04,-0.91 -0.11,-1.36c1.53,0.43 2.87,0.91 3.86,1.44c0.4,3.38 0.57,7.19 0.61,10.45c0.38,-0.16 0.58,-0.22 0.62,-0.24c0,0.04 0,0.06 0,0.06c0,0 -5.4,1.94 -11.73,2.09Z" style="fill:#838285;fill-rule:nonzero;"/><path d="M133.59,151.45c-0.04,-3.26 -0.21,-7.07 -0.61,-10.45c0.53,0.29 0.96,0.59 1.25,0.91c0.14,5.1 -0.01,9.3 -0.01,9.3l-0.01,0c-0.04,0.02 -0.24,0.08 -0.62,0.24Z" style="fill:#76685f;fill-rule:nonzero;"/><path d="M120.94,149.24c-4.58,0 -8.3,-3.72 -8.3,-8.32c0,-1.37 0.33,-2.66 0.92,-3.8c0.64,0.04 1.26,0.08 1.84,0.12c0.86,0.07 1.89,0.18 3.03,0.32c-0.27,0.22 -0.52,0.46 -0.74,0.73c-0.02,0 -0.05,0 -0.07,0c-0.89,0 -1.63,0.58 -1.69,1.35c-0.04,0.49 0.21,0.96 0.63,1.27c-0.01,0.09 -0.02,0.18 -0.02,0.27c-0.22,2.66 1.62,5.09 4.01,5.28c0.11,0.01 0.22,0.02 0.32,0.02c1.06,0 2.07,-0.44 2.87,-1.18c0.04,0.01 0.08,0.02 0.12,0.02c0.03,0 0.05,0 0.08,0c0.44,0 0.81,-0.29 0.85,-0.67c0.01,-0.17 -0.04,-0.33 -0.15,-0.46c0.4,-0.67 0.67,-1.45 0.73,-2.28c0.1,-1.26 -0.25,-2.47 -0.92,-3.41c1.63,0.3 3.23,0.66 4.67,1.06c0.07,0.45 0.11,0.9 0.11,1.36c0,4.6 -3.71,8.32 -8.29,8.32Z" style="fill:#341f19;fill-rule:nonzero;"/><path d="M120.87,146.48c-0.1,0 -0.21,-0.01 -0.32,-0.02c-2.39,-0.19 -4.23,-2.62 -4.01,-5.28c0,-0.09 0.01,-0.18 0.02,-0.27c0.27,0.19 0.61,0.32 0.99,0.35l0,0.01c-0.19,2.26 1.54,4.09 3.21,4.23c0.07,0.01 0.14,0.01 0.21,0.01c0.71,0 1.46,-0.28 2.1,-0.79c0.07,0.28 0.33,0.52 0.67,0.58c-0.8,0.74 -1.81,1.18 -2.87,1.18Zm3.77,-2.29c-0.14,-0.19 -0.38,-0.33 -0.67,-0.35c-0.02,0 -0.05,0 -0.07,0c0.39,-0.56 0.65,-1.23 0.71,-1.99c0.13,-1.53 -0.63,-2.87 -1.65,-3.62c0.5,0.08 1,0.17 1.49,0.27c0.67,0.94 1.02,2.15 0.92,3.41c-0.06,0.83 -0.33,1.61 -0.73,2.28Zm-5.86,-5.53c-0.27,-0.2 -0.61,-0.33 -0.99,-0.36c-0.04,0 -0.07,0 -0.1,-0.01c0.22,-0.27 0.47,-0.51 0.74,-0.73c0.55,0.07 1.13,0.15 1.72,0.23c-0.49,0.18 -0.96,0.48 -1.37,0.87Z" style="fill:#512f24;fill-rule:nonzero;"/><path d="M120.97,145.51c-0.07,0 -0.14,0 -0.21,-0.01c-1.67,-0.14 -3.4,-1.97 -3.21,-4.23l0,-0.01c0.05,0.01 0.11,0.01 0.16,0.01c0.89,0 1.63,-0.57 1.7,-1.34c0.04,-0.5 -0.21,-0.96 -0.63,-1.27c0.41,-0.39 0.88,-0.69 1.37,-0.87c0.91,0.13 1.86,0.28 2.81,0.44c1.02,0.75 1.78,2.09 1.65,3.62c-0.06,0.76 -0.32,1.43 -0.71,1.99l-0.01,0c-0.44,0 -0.81,0.29 -0.85,0.67c0,0.07 0.01,0.14 0.03,0.21c-0.64,0.51 -1.39,0.79 -2.1,0.79Z" style="fill:#1b1816;fill-rule:nonzero;"/><path d="M117.71,141.27c-0.05,0 -0.11,0 -0.16,-0.01c-0.38,-0.03 -0.72,-0.16 -0.99,-0.35c-0.42,-0.31 -0.67,-0.78 -0.63,-1.27c0.06,-0.77 0.8,-1.35 1.69,-1.35c0.02,0 0.05,0 0.07,0c0.03,0.01 0.06,0.01 0.1,0.01c0.38,0.03 0.72,0.16 0.99,0.36c0.42,0.31 0.67,0.77 0.63,1.27c-0.07,0.77 -0.81,1.34 -1.7,1.34Z" style="fill:#838285;fill-rule:nonzero;"/><path d="M123.94,145.32c-0.03,0 -0.05,0 -0.08,0c-0.04,0 -0.08,-0.01 -0.12,-0.02c-0.34,-0.06 -0.6,-0.3 -0.67,-0.58c-0.02,-0.07 -0.03,-0.14 -0.03,-0.21c0.04,-0.38 0.41,-0.67 0.85,-0.67l0.08,0c0.29,0.02 0.53,0.16 0.67,0.35c0.11,0.13 0.16,0.29 0.15,0.46c-0.04,0.38 -0.41,0.67 -0.85,0.67Z" style="fill:#838285;fill-rule:nonzero;"/><path d="M81.581,156.62c-0.797,-2.9 -1.547,-6.03 -2.23,-9.41c-0.226,-1.12 -0.445,-2.26 -0.655,-3.44c-0.177,-0.98 -0.348,-1.99 -0.512,-3.01c3.105,-2.49 8.472,-2.96 14.948,-3.52c0.474,-0.04 0.945,-0.07 1.413,-0.11c-0.35,2.94 -0.717,6.23 -1.022,9.41c-0.254,2.64 -0.464,5.21 -0.584,7.45c-3.928,0.69 -7.725,1.59 -11.358,2.63Zm20.717,-8.08c-3.061,-2.55 -4.681,-7.22 -5.537,-11.54c2.537,-0.13 4.971,-0.18 7.264,-0.18c0.326,0 0.65,0 0.971,0c-2.93,8.7 -2.698,11.72 -2.698,11.72Z" style="fill:#3c2223;fill-rule:nonzero;"/><path d="M222.84,144.46c-0.68,-0.32 -1.4,-0.55 -2.12,-0.68c0.11,-0.79 0.22,-1.6 0.33,-2.42c0.81,0.82 1.42,1.84 1.79,3.1Z" style="fill:#854d4c;fill-rule:nonzero;"/><path d="M207.8,152.83c-1.53,-0.13 -3.06,-0.22 -4.58,-0.28c1.15,-4.75 2,-9.94 2.42,-15.29c0.17,0.01 0.34,0.03 0.51,0.04c0.71,5.21 1.4,11.01 1.65,15.53Zm15.41,-3.56c-0.95,-1.13 -2,-1.74 -3.03,-2.01c0.19,-1.13 0.37,-2.29 0.54,-3.48c0.72,0.13 1.44,0.36 2.12,0.68c0.39,1.32 0.52,2.9 0.37,4.81Z" style="fill:#79685f;fill-rule:nonzero;"/><path d="M222.21,155.13c-0.18,-0.04 -0.35,-0.09 -0.52,-0.13c-0.02,0 -0.05,-0.01 -0.07,-0.01c-0.08,-0.02 -0.17,-0.04 -0.25,-0.06c-0.09,-0.02 -0.19,-0.04 -0.28,-0.06c-0.76,-0.17 -1.51,-0.33 -2.27,-0.48c0.49,-2.22 0.94,-4.59 1.36,-7.13c1.03,0.27 2.08,0.88 3.03,2.01c-0.01,0.15 -0.03,0.3 -0.04,0.45c-0.2,2.01 -0.53,3.8 -0.96,5.41Z" style="fill:#665651;fill-rule:nonzero;"/><path d="M165.92,157.53c-0.86,-1.33 -1.57,-2.79 -2.11,-4.41c-1.39,-4.27 -1.1,-7.67 0.14,-10.67c0.19,-0.44 0.64,-0.86 1.28,-1.25c-0.14,5.11 0.02,9.32 0.02,9.32l0,0.01c0.01,0.03 0.01,0.05 0.01,0.05c0,0 5.82,2.1 12.46,2.1c1.67,0 3.39,-0.14 5.08,-0.47c5.28,-1.03 9.17,-9.33 11.35,-15.39l1.32,0c0.15,3.86 0.06,7.58 -0.37,10.93c0,0 3.46,-4.63 6.1,-10.78c1.38,0.07 2.79,0.16 4.22,0.27c0.08,0.01 0.15,0.01 0.22,0.02c-0.42,5.35 -1.27,10.54 -2.42,15.29c-1.31,-0.05 -2.61,-0.07 -3.91,-0.07c-0.01,0 -0.01,0 -0.02,0c-0.01,0 -0.01,0 -0.02,0c-11.68,0 -22.69,1.96 -32.51,4.8c-0.06,0.02 -0.11,0.03 -0.16,0.05c-0.13,0.04 -0.25,0.07 -0.38,0.11c-0.1,0.03 -0.2,0.06 -0.3,0.09Z" style="fill:#7f7267;fill-rule:nonzero;"/><path d="M177.72,152.68c-6.64,0 -12.46,-2.1 -12.46,-2.1c0,0 0,-0.02 -0.01,-0.05c0.05,0.01 0.24,0.07 0.62,0.23c0.05,-3.17 0.2,-6.86 0.58,-10.18c1.07,-0.46 2.39,-0.87 3.83,-1.24c-0.03,0.29 -0.05,0.59 -0.05,0.9c0,4.59 3.72,8.32 8.3,8.32c4.58,0 8.29,-3.73 8.29,-8.32c0,-1.13 -0.22,-2.21 -0.63,-3.19c2.36,-0.13 5.04,-0.23 7.96,-0.23c-2.18,6.06 -6.07,14.36 -11.35,15.39c-1.69,0.33 -3.41,0.47 -5.08,0.47Z" style="fill:#838285;fill-rule:nonzero;"/><path d="M165.87,150.76c-0.38,-0.16 -0.57,-0.22 -0.62,-0.23l0,-0.01c0,0 -0.16,-4.21 -0.02,-9.32c0.36,-0.21 0.77,-0.42 1.22,-0.62c-0.38,3.32 -0.53,7.01 -0.58,10.18Z" style="fill:#76685f;fill-rule:nonzero;"/><path d="M178.53,148.56c-4.58,0 -8.3,-3.73 -8.3,-8.32c0,-0.31 0.02,-0.61 0.05,-0.9c1.38,-0.36 2.88,-0.67 4.38,-0.95c-0.43,0.84 -0.65,1.82 -0.57,2.83c0.07,0.84 0.33,1.61 0.73,2.28c-0.1,0.13 -0.15,0.3 -0.14,0.47c0.03,0.38 0.4,0.67 0.84,0.67c0.03,0 0.06,-0.01 0.09,-0.01c0.04,0 0.08,-0.01 0.12,-0.01c0.79,0.73 1.8,1.17 2.86,1.17c0.11,0 0.22,0 0.32,-0.01c2.4,-0.2 4.24,-2.63 4.02,-5.29c-0.01,-0.09 -0.02,-0.18 -0.03,-0.27c0.42,-0.31 0.68,-0.77 0.64,-1.27c-0.07,-0.77 -0.81,-1.34 -1.69,-1.34c-0.03,0 -0.05,0 -0.08,0c-0.06,-0.08 -0.12,-0.15 -0.18,-0.22c0.57,-0.06 1.09,-0.11 1.57,-0.15c0.93,-0.07 1.95,-0.14 3.03,-0.19c0.41,0.98 0.63,2.06 0.63,3.19c0,4.59 -3.71,8.32 -8.29,8.32Z" style="fill:#341f19;fill-rule:nonzero;"/><path d="M178.59,145.79c-1.06,0 -2.07,-0.44 -2.86,-1.17c0.34,-0.07 0.59,-0.3 0.67,-0.58c0.64,0.5 1.39,0.78 2.1,0.78c0.07,0 0.14,0 0.21,0c1.66,-0.15 3.39,-1.98 3.21,-4.24c0.37,-0.04 0.71,-0.17 0.98,-0.36c0.01,0.09 0.02,0.18 0.03,0.27c0.22,2.66 -1.62,5.09 -4.02,5.29c-0.1,0.01 -0.21,0.01 -0.32,0.01Zm-3.77,-2.29c-0.4,-0.67 -0.66,-1.44 -0.73,-2.28c-0.08,-1.01 0.14,-1.99 0.57,-2.83c0.38,-0.07 0.77,-0.13 1.15,-0.2c-0.64,0.77 -1.05,1.82 -0.96,2.97c0.07,0.76 0.33,1.43 0.72,1.99c-0.03,0 -0.05,0 -0.08,0c-0.28,0.03 -0.52,0.16 -0.67,0.35Zm5.86,-5.52c-0.16,-0.16 -0.33,-0.3 -0.5,-0.42c0.49,-0.06 0.96,-0.12 1.41,-0.17c0.06,0.07 0.12,0.14 0.18,0.22c-0.03,0 -0.06,0 -0.09,0c-0.38,0.03 -0.72,0.17 -1,0.37Z" style="fill:#512f24;fill-rule:nonzero;"/><path d="M178.5,144.82c-0.71,0 -1.46,-0.28 -2.1,-0.78c0.02,-0.07 0.03,-0.15 0.02,-0.22c-0.03,-0.38 -0.4,-0.67 -0.84,-0.67l-0.01,0c-0.39,-0.56 -0.65,-1.23 -0.72,-1.99c-0.09,-1.15 0.32,-2.2 0.96,-2.97c1.52,-0.25 3.02,-0.47 4.37,-0.63c0.17,0.12 0.34,0.26 0.5,0.42c-0.41,0.3 -0.66,0.76 -0.62,1.26c0.06,0.77 0.8,1.34 1.69,1.34c0.06,0 0.11,0 0.17,0c0.18,2.26 -1.55,4.09 -3.21,4.24c-0.07,0 -0.14,0 -0.21,0Z" style="fill:#1b1816;fill-rule:nonzero;"/><path d="M181.75,140.58c-0.89,0 -1.63,-0.57 -1.69,-1.34c-0.04,-0.5 0.21,-0.96 0.62,-1.26c0.28,-0.2 0.62,-0.34 1,-0.37l0.17,0c0.88,0 1.62,0.57 1.69,1.34c0.04,0.5 -0.22,0.96 -0.64,1.27c-0.27,0.19 -0.61,0.32 -0.98,0.36c-0.06,0 -0.11,0 -0.17,0Z" style="fill:#838285;fill-rule:nonzero;"/><path d="M175.52,144.64c-0.44,0 -0.81,-0.29 -0.84,-0.67c-0.01,-0.17 0.04,-0.34 0.14,-0.47c0.15,-0.19 0.39,-0.32 0.67,-0.35l0.09,0c0.44,0 0.81,0.29 0.84,0.67c0.01,0.07 0,0.15 -0.02,0.22c-0.08,0.28 -0.33,0.51 -0.67,0.58c-0.04,0 -0.08,0.01 -0.12,0.01c-0.03,0 -0.06,0.01 -0.09,0.01Z" style="fill:#838285;fill-rule:nonzero;"/><path d="M218.82,154.39c-3.71,-0.75 -7.39,-1.26 -11.02,-1.56c-0.25,-4.52 -0.94,-10.32 -1.65,-15.53c6.67,0.58 12.05,1.15 14.9,4.06c-0.11,0.82 -0.22,1.63 -0.33,2.42c-0.17,1.19 -0.35,2.35 -0.54,3.48c-0.42,2.54 -0.87,4.91 -1.36,7.13Zm-23.72,-6.64c0.43,-3.35 0.52,-7.07 0.37,-10.93c1.83,0.01 3.75,0.06 5.73,0.15c-2.64,6.15 -6.1,10.78 -6.1,10.78Z" style="fill:#3c2223;fill-rule:nonzero;"/><path d="M97.172,169.51c-1.033,-0.06 -2.003,-0.13 -2.897,-0.22c-0.744,-4.2 -1.32,-8.08 -1.421,-10.49c-0.055,-1.26 -0.017,-2.91 0.085,-4.81c0.689,-0.12 1.384,-0.24 2.081,-0.34c0.051,0.2 0.103,0.4 0.155,0.61c0.83,3.2 1.444,9.41 1.997,15.25Z" style="fill:#decab8;fill-rule:nonzero;"/><path d="M84.913,166.9c-2.688,-1.46 -5.682,-4.1 -7.628,-8.96c1.404,-0.46 2.838,-0.9 4.296,-1.32c1.048,3.82 2.175,7.24 3.332,10.28Z" style="fill:#cbb9ad;fill-rule:nonzero;"/><path d="M101.338,169.62c-1.467,0 -2.866,-0.04 -4.166,-0.11c-0.553,-5.84 -1.167,-12.05 -1.997,-15.25c-0.052,-0.21 -0.104,-0.41 -0.155,-0.61c4.791,-0.75 9.767,-1.18 14.88,-1.18l0.043,0c1.927,0 3.887,0.06 5.857,0.19c0.28,0.1 0.57,0.18 0.86,0.24c1.69,0.33 3.42,0.46 5.09,0.46c0.24,0 0.49,0 0.73,0c3.55,0.5 7.13,1.24 10.75,2.24c0.15,0.04 0.29,0.08 0.44,0.12c-5.69,11.38 -21.04,13.9 -32.332,13.9Z" style="fill:#e4d5c3;fill-rule:nonzero;"/><path d="M121.75,153.36c-1.67,0 -3.4,-0.13 -5.09,-0.46c-0.29,-0.06 -0.58,-0.14 -0.86,-0.24c2.2,0.15 4.43,0.38 6.68,0.7c-0.24,0 -0.49,0 -0.73,0Z" style="fill:#f2f3f2;fill-rule:nonzero;"/><path d="M94.275,169.29c-1.85,-0.17 -3.371,-0.4 -4.428,-0.61c-1.107,-0.24 -2.937,-0.69 -4.934,-1.78c-1.157,-3.04 -2.284,-6.46 -3.332,-10.28c3.634,-1.04 7.429,-1.94 11.358,-2.63c-0.102,1.9 -0.14,3.55 -0.085,4.81c0.101,2.41 0.677,6.29 1.421,10.49Z" style="fill:#9c7d77;fill-rule:nonzero;"/><path d="M92.939,153.99c0.69,-0.12 1.383,-0.24 2.081,-0.34c-0.697,0.1 -1.392,0.22 -2.081,0.34Z" style="fill:#ada19a;fill-rule:nonzero;"/><path d="M77.285,157.94c1.405,-0.46 2.837,-0.9 4.296,-1.32c-1.458,0.42 -2.892,0.86 -4.296,1.32Z" style="fill:#a49a95;fill-rule:nonzero;"/><path d="M95.02,153.65c4.791,-0.75 9.767,-1.18 14.88,-1.18c-5.113,0 -10.089,0.43 -14.88,1.18Z" style="fill:#b0a7a0;fill-rule:nonzero;"/><path d="M81.581,156.62c3.633,-1.04 7.43,-1.94 11.358,-2.63c-3.929,0.69 -7.724,1.59 -11.358,2.63Z" style="fill:#8b7876;fill-rule:nonzero;"/><path d="M200.82,169.54c0.55,-5.85 1.15,-12.08 1.98,-15.28c0.14,-0.57 0.29,-1.13 0.42,-1.71c1.52,0.06 3.05,0.15 4.58,0.28c0.12,2.01 0.15,3.76 0.06,5.1c-0.26,3.89 -0.86,7.68 -1.61,11.14c-1.5,0.2 -3.35,0.37 -5.43,0.47Z" style="fill:#e3d1c1;fill-rule:nonzero;"/><path d="M215.78,165.51c1.08,-3.19 2.11,-6.87 3.04,-11.12c0.76,0.15 1.51,0.31 2.27,0.48c0.09,0.02 0.19,0.04 0.28,0.06c0.08,0.02 0.17,0.04 0.25,0.06c0.02,0 0.05,0.01 0.07,0.01c0.17,0.04 0.34,0.09 0.52,0.13c-1.41,5.22 -3.9,8.41 -6.43,10.38Z" style="fill:#cbb9ad;fill-rule:nonzero;"/><path d="M197.23,169.62c-10.67,0 -24.96,-2.25 -31.31,-12.09c0.1,-0.03 0.2,-0.06 0.3,-0.09c0.13,-0.04 0.25,-0.07 0.38,-0.11c0.05,-0.02 0.1,-0.03 0.16,-0.05c9.81,-2.84 20.83,-4.8 32.51,-4.8l0.04,0c1.3,0 2.6,0.02 3.91,0.07c-0.13,0.58 -0.28,1.14 -0.42,1.71c-0.83,3.2 -1.43,9.43 -1.98,15.28c-1.14,0.05 -2.34,0.08 -3.59,0.08Z" style="fill:#ecdecc;fill-rule:nonzero;"/><path d="M206.25,169.07c0.75,-3.46 1.35,-7.25 1.61,-11.14c0.09,-1.34 0.06,-3.09 -0.06,-5.1c3.63,0.3 7.31,0.81 11.02,1.56c-0.93,4.25 -1.96,7.93 -3.04,11.12c-2.77,2.15 -5.58,2.85 -7.07,3.17c-0.65,0.13 -1.48,0.27 -2.46,0.39Z" style="fill:#9c7d77;fill-rule:nonzero;"/><path d="M166.22,157.44c0.13,-0.04 0.25,-0.07 0.38,-0.11c-0.13,0.04 -0.25,0.07 -0.38,0.11Zm0.54,-0.16c9.82,-2.84 20.83,-4.8 32.51,-4.8c-11.68,0 -22.7,1.96 -32.51,4.8Z" style="fill:#b3aba4;fill-rule:nonzero;"/><path d="M223.17,149.72c-0.2,2.01 -0.53,3.8 -0.96,5.41c-2.94,10.93 -10.64,12.93 -13.5,13.55c-6.89,1.37 -33.44,3.34 -42.79,-11.15c-0.86,-1.33 -1.57,-2.79 -2.11,-4.41c-1.39,-4.27 -1.1,-7.67 0.14,-10.67c1.25,-2.92 13.8,-4.74 19.21,-5.21c5.4,-0.4 13.28,-0.71 22.26,0c11.1,0.95 18.84,1.66 17.75,12.48Zm-88.42,3.4c-0.31,0.91 -0.67,1.78 -1.08,2.6c-8.24,16.46 -36.66,14.39 -43.823,12.96c-2.599,-0.56 -9.17,-2.27 -12.562,-10.74c-0.896,-2.23 -1.574,-4.93 -1.894,-8.22c-1.095,-10.82 6.716,-11.53 17.741,-12.48c8.908,-0.71 16.866,-0.4 22.268,0c5.4,0.47 17.96,2.29 19.2,5.21c1.239,3 1.54,6.4 0.15,10.67Zm99.81,-16.83c-0.52,-0.63 -9.71,-1.5 -21.69,-2.29c-10.22,-0.63 -26.5,-0.24 -32.93,0.4c-2.55,0.23 -7.37,0.86 -12.12,1.65c-5.33,0.95 -10.51,2.22 -12.7,2.53c-2.11,0.28 -3.77,0.37 -5.48,0.34l0,-0.02c-0.12,0 -0.24,0.01 -0.36,0.01c-0.12,0 -0.24,-0.01 -0.37,-0.01l0,0.02c-1.701,0.03 -3.36,-0.06 -5.471,-0.34c-2.189,-0.31 -7.379,-1.58 -12.709,-2.53c-4.74,-0.79 -9.56,-1.42 -12.19,-1.65c-6.35,-0.64 -22.633,-1.03 -32.854,-0.4c-11.975,0.79 -21.174,1.66 -21.685,2.29c-0.292,0.48 -1.023,6.32 -0.073,7.03c0.949,0.56 4.381,1.9 5.184,3.95c0.466,1.19 1.793,6.77 4.276,12.02c1.798,3.81 4.203,7.46 7.332,9.15c10.879,6.03 44.44,6.96 56.88,-10.1c1.589,-2.18 2.839,-4.65 3.65,-7.43c0.949,-3.4 2.189,-5.38 4.449,-5.93c0.87,-0.22 2.231,-0.37 3.581,-0.39c1.34,0.02 2.71,0.17 3.58,0.39c2.26,0.55 3.5,2.53 4.52,5.93c0.88,3.04 2.28,5.71 4.07,8.02c12.74,16.44 45.64,15.47 56.39,9.51c3.96,-2.14 6.75,-7.42 8.62,-12.2c1.64,-4.2 2.58,-8.01 2.99,-8.97c0.8,-2.05 4.23,-3.39 5.18,-3.95c0.95,-0.71 0.22,-6.55 -0.07,-7.03Z" style="fill:#1a1e1e;fill-rule:nonzero;"/></g></svg>