<?xml version="1.0" encoding="UTF-8" standalone="no"?><!DOCTYPE svg PUBLIC "-//W3C//DTD SVG 1.1//EN" "http://www.w3.org/Graphics/SVG/1.1/DTD/svg11.dtd"><svg width="100%" height="100%" viewBox="0 0 297 301" version="1.1" xmlns="http://www.w3.org/2000/svg" xmlns:xlink="http://www.w3.org/1999/xlink" xml:space="preserve" style="fill-rule:evenodd;clip-rule:evenodd;stroke-linejoin:round;stroke-miterlimit:1.41421;"><g id="_21"><path d="M160.756,208.2c0,0 0.321,7.36 -1.36,7.6c-1.2,-4 -1.84,-8.84 -4.082,-11.04c-3.523,4.08 -6.803,6.6 -6.803,6.6c0,0 -3.122,-2.6 -6.405,-6.68c-2.479,2.32 -4.643,5.76 -6.003,10.16c-0.32,-0.24 -1.2,-5.12 -1.2,-5.12c0,0 -5.762,7.09 -6.882,11.85c-1.122,4.72 2.881,9.76 2.881,9.76c0,0 1.922,-0.96 3.763,-2.56c1.679,11.84 13.203,21.21 13.203,21.21c0,0 11.688,-8.73 14.007,-20.33c1.423,1 2.705,1.6 2.705,1.6c0,0 4.241,-5.04 2.881,-9.77c-2.323,-8.24 -6.705,-13.28 -6.705,-13.28Z" style="fill:#e6a52f;fill-rule:nonzero;"/><rect x="0.076" y="0.48" width="296.866" height="299.7" style="fill:#985c9a;fill-rule:nonzero;"/><path d="M149.473,187.11l0,112.27l-60.728,0c-0.989,-0.39 -1.482,-0.59 -1.482,-0.59c0,-14.34 2.102,-25.51 5.305,-34.22c7.73,-21.03 21.882,-27.71 28.396,-29.73c2.138,-0.66 3.455,-0.82 3.455,-0.82c0.231,0 0.446,-0.02 0.666,-0.05c1.912,-0.31 3.465,-1.97 4.711,-4.62c0.927,-1.97 1.701,-4.48 2.332,-7.39c0.251,-1.13 0.445,-2.27 0.646,-3.51c0.297,-2.07 0.589,-4.25 0.84,-6.52c0.097,-1.39 0.246,-2.72 0.395,-4.15c0.538,-6.87 0.692,-14.39 0.692,-21.51c0,0 8.154,0.84 14.772,0.84Z" style="fill:#e0bd9a;fill-rule:nonzero;"/><path d="M211.933,298.79c0,0 -0.543,0.2 -1.435,0.59l-61.025,0l0,-112.27l0.148,0c6.571,0 14.828,-0.84 14.828,-0.84c0,7.07 0.144,14.48 0.687,21.36c0.149,1.33 0.298,2.71 0.395,4.05c0.251,2.37 0.549,4.6 0.892,6.67l0,0.05c0.098,0.94 0.292,1.78 0.446,2.67c0.6,2.92 1.327,5.49 2.204,7.55c1.092,2.56 2.419,4.35 4.029,5.06c0.512,0.23 1.055,0.34 1.624,0.34c0,0 2.338,0.29 5.838,1.66c7.151,2.8 19.16,10.14 26.059,28.89c3.203,8.71 5.31,19.88 5.31,34.22Z" style="fill:#efd0ad;fill-rule:nonzero;"/><path d="M166.423,218.15l0,0.04c-1.532,2.36 -6.671,9.14 -16.85,9.14l-0.099,0c-9.635,-0.05 -15.269,-7.02 -16.702,-9.09c0.297,-2.06 0.593,-4.22 0.841,-6.48c0.098,-1.33 0.246,-2.7 0.395,-4.13c4.694,1.18 9.833,1.92 15.269,2.02l0.197,0c5.633,-0.1 10.822,-0.89 15.664,-2.16c0.148,1.32 0.297,2.7 0.395,4.02c0.248,2.36 0.544,4.57 0.89,6.64Z" style="fill:#be987f;fill-rule:nonzero;"/><path d="M148.782,59.17c-64.336,0 -64.682,53.77 -61.816,88.99c-4.398,-8.35 -17.492,-5.8 -16.405,7.37c1.038,12.67 19.745,19.13 19.222,17.73c9.742,26.04 35.528,45.67 58.999,45.67l0.495,0l0,-159.76l-0.495,0Z" style="fill:#d2a686;fill-rule:nonzero;"/><path d="M74.663,149.98c3.162,-5.11 8.103,-2.9 9.289,-1.77c1.285,1.23 2.322,2.8 1.532,5.79c-0.445,1.72 -2.224,1.87 -1.828,4.42c0.494,2.9 1.828,3.05 2.618,3.74c0.742,0.63 1.681,1.13 2.125,2.35c0.495,1.23 0.544,2.51 0.297,3.64c-0.495,2.06 -3.508,0.39 -5.534,-0.49c-1.335,-0.64 -5.584,-4.23 -6.671,-5.41c-2.668,-3.04 -3.953,-8.93 -1.828,-12.27Z" style="fill:#ac8774;fill-rule:nonzero;"/><path d="M149.128,59.17c64.336,0 64.682,53.77 61.865,88.99c4.398,-8.35 17.444,-5.8 16.356,7.37c-0.988,12.67 -19.733,19.13 -19.221,17.73c-9.491,26.04 -35.528,45.67 -59,45.67c-0.148,0 -0.346,0 -0.346,0l-0.148,-159.76c0,0 0.346,0 0.494,0Z" style="fill:#ddb598;fill-rule:nonzero;"/><path d="M223.248,149.98c-3.162,-5.11 -8.054,-2.9 -9.29,-1.77c-1.284,1.23 -2.272,2.8 -1.531,5.79c0.444,1.72 2.223,1.87 1.828,4.42c-0.494,2.9 -1.828,3.05 -2.569,3.74c-0.742,0.63 -1.73,1.13 -2.175,2.35c-0.445,1.23 -0.543,2.51 -0.296,3.64c0.494,2.06 3.508,0.39 5.534,-0.49c1.384,-0.64 5.584,-4.23 6.671,-5.41c2.717,-3.04 3.953,-8.93 1.828,-12.27Z" style="fill:#ac8774;fill-rule:nonzero;"/><path d="M148.276,74.34c-21.149,0 -36.665,6.14 -46.003,18.22c-13.095,16.95 -12.601,42.78 -7.808,61.35c1.483,5.69 2.273,20.97 3.261,26.57c4.596,25.09 32.317,38.45 50.55,38.45c0,0 0.346,0 0.494,0l0,-144.59c-0.148,0 -0.296,0 -0.296,0l-0.198,0Z" style="fill:#e0bd9a;fill-rule:nonzero;"/><path d="M194.23,92.61c-9.289,-12.03 -24.607,-18.17 -45.46,-18.27l0,144.59c20.853,-0.24 45.806,-14.88 50.056,-38.45c1.037,-5.6 1.779,-20.88 3.262,-26.57c4.842,-18.52 5.336,-44.31 -7.858,-61.3Z" style="fill:#efd0ad;fill-rule:nonzero;"/><path d="M148.964,190.57" style="fill:#bc917b;fill-rule:nonzero;"/><path d="M148.963,190.57l0.001,0l-0.001,0Z" style="fill:#bc917b;fill-rule:nonzero;"/><path d="M145.396,193.3c-0.102,-0.02 -0.202,-0.04 -0.303,-0.06c0.099,0.02 0.186,0.04 0.303,0.06Z" style="fill:#bc917b;fill-rule:nonzero;"/><path d="M148.964,193.11" style="fill:#bc917b;fill-rule:nonzero;"/><path d="M144.611,193.12c-0.094,-0.02 -0.178,-0.05 -0.27,-0.07l-0.01,0c0,0 0.104,0.03 0.28,0.07Z" style="fill:#bc917b;fill-rule:nonzero;"/><path d="M148.963,193.11l0.001,0l-0.001,0Z" style="fill:#bc917b;fill-rule:nonzero;"/><path d="M136.495,174.54c-0.245,-4.99 9.178,-1.82 12.284,-1.67c2.455,0.13 9.923,-1.57 10.564,-1.13c4.394,2.96 -4.654,8.93 -10.72,8.93c-1.616,0 -11.982,-3.11 -12.128,-6.13Z" style="fill:#ddb598;fill-rule:nonzero;"/><path d="M130.809,74.7l-0.268,0.27l0.045,0.09c0.089,-0.13 0.133,-0.27 0.223,-0.36Z" style="fill:#432e1b;fill-rule:nonzero;"/><path d="M89.845,125.65" style="fill:#432e1b;fill-rule:nonzero;"/><path d="M149.236,193.13" style="fill:#ba907b;fill-rule:nonzero;"/><path d="M149.235,193.13l0.001,0l-0.001,0Z" style="fill:#ba907b;fill-rule:nonzero;"/><path d="M145.571,190.37c-0.104,-0.03 -0.207,-0.05 -0.311,-0.07c0.102,0.02 0.192,0.04 0.311,0.07Z" style="fill:#ba907b;fill-rule:nonzero;"/><path d="M149.236,190.17" style="fill:#ba907b;fill-rule:nonzero;"/><path d="M144.765,190.19c-0.096,-0.03 -0.182,-0.06 -0.277,-0.08l-0.01,0c0,0 0.107,0.03 0.287,0.08Z" style="fill:#ba907b;fill-rule:nonzero;"/><path d="M149.235,190.17l0.001,0l-0.001,0Z" style="fill:#ba907b;fill-rule:nonzero;"/><path d="M102.617,130.77c0,0 4.908,20.14 13.335,21.78c8.426,1.65 17.547,-1.62 17.547,-1.62c0,0 0.872,-23.66 -3.443,-26.75c-4.311,-3.11 -14.25,-7.6 -27.439,6.59Z" style="fill:#fff;fill-rule:nonzero;"/><path d="M133.51,150.87c0,0 -0.193,0.05 -0.627,0.24c-0.107,-7.26 -0.778,-17.23 -3.472,-19.14c-4.007,-2.94 -13.052,-7.06 -25.138,4.23c-1.099,-3.12 -1.65,-5.49 -1.65,-5.49c13.213,-14.22 23.16,-9.74 27.439,-6.63c4.319,3.1 3.448,26.79 3.448,26.79Z" style="fill:#d6b496;fill-rule:nonzero;"/><path d="M128.52,140.61c0,4.59 -3.713,8.3 -8.293,8.3c-4.58,0 -8.294,-3.71 -8.294,-8.3c0,-4.58 3.714,-8.29 8.294,-8.29c4.58,0 8.293,3.71 8.293,8.29Z" style="fill:#482315;fill-rule:nonzero;"/><path d="M119.841,146.14c-2.394,-0.2 -4.234,-2.62 -4.015,-5.27c0.214,-2.66 2.423,-4.74 4.819,-4.54c2.395,0.2 4.231,2.61 4.019,5.27c-0.218,2.66 -2.428,4.74 -4.823,4.54Z" style="fill:#7e3a22;fill-rule:nonzero;"/><path d="M120.049,145.18c-1.668,-0.14 -3.397,-1.97 -3.213,-4.22c0.187,-2.26 2.188,-3.79 3.856,-3.65c1.667,0.14 3.393,1.98 3.209,4.23c-0.184,2.26 -2.189,3.78 -3.852,3.64Z" style="fill:#211a10;fill-rule:nonzero;"/><path d="M118.699,139.62c-0.07,0.82 -0.906,1.41 -1.863,1.33c-0.96,-0.08 -1.683,-0.81 -1.619,-1.62c0.07,-0.81 0.9,-1.41 1.859,-1.33c0.963,0.08 1.687,0.8 1.623,1.62Z" style="fill:#fff;fill-rule:nonzero;"/><path d="M124.075,144.33c-0.035,0.41 -0.452,0.71 -0.929,0.67c-0.482,-0.04 -0.842,-0.41 -0.811,-0.81c0.034,-0.41 0.452,-0.71 0.929,-0.67c0.482,0.04 0.846,0.4 0.811,0.81Z" style="fill:#fff;fill-rule:nonzero;"/><path d="M149.368,190.09" style="fill:#ba907b;fill-rule:nonzero;"/><path d="M149.367,190.09l0.001,0l-0.001,0Z" style="fill:#ba907b;fill-rule:nonzero;"/><path d="M145.703,192.74c-0.104,-0.02 -0.207,-0.04 -0.311,-0.06c0.102,0.02 0.191,0.04 0.311,0.06Z" style="fill:#ba907b;fill-rule:nonzero;"/><path d="M149.368,192.54" style="fill:#ba907b;fill-rule:nonzero;"/><path d="M144.897,192.56c-0.096,-0.02 -0.183,-0.05 -0.277,-0.08l-0.01,0.01c0,0 0.107,0.03 0.287,0.07Z" style="fill:#ba907b;fill-rule:nonzero;"/><path d="M149.367,192.54l0.001,0l-0.001,0Z" style="fill:#ba907b;fill-rule:nonzero;"/><path d="M149.254,189.72" style="fill:#bc917b;fill-rule:nonzero;"/><path d="M149.254,189.72" style="fill:#bc917b;fill-rule:nonzero;"/><path d="M145.326,192.17c-0.112,-0.02 -0.222,-0.04 -0.334,-0.07c0.11,0.03 0.206,0.05 0.334,0.07Z" style="fill:#bc917b;fill-rule:nonzero;"/><path d="M149.254,191.96" style="fill:#bc917b;fill-rule:nonzero;"/><path d="M144.462,191.98c-0.103,-0.03 -0.196,-0.06 -0.297,-0.08l-0.011,0c0,0 0.115,0.03 0.308,0.08Z" style="fill:#bc917b;fill-rule:nonzero;"/><path d="M149.254,191.96" style="fill:#bc917b;fill-rule:nonzero;"/><path d="M149.006,188.87" style="fill:#bc917b;fill-rule:nonzero;"/><path d="M149.006,188.87" style="fill:#bc917b;fill-rule:nonzero;"/><path d="M145.078,191.33c-0.112,-0.02 -0.223,-0.04 -0.334,-0.07c0.11,0.02 0.206,0.04 0.334,0.07Z" style="fill:#bc917b;fill-rule:nonzero;"/><path d="M149.006,191.12" style="fill:#bc917b;fill-rule:nonzero;"/><path d="M144.214,191.14c-0.103,-0.03 -0.196,-0.06 -0.297,-0.09l-0.011,0.01c0,0 0.115,0.03 0.308,0.08Z" style="fill:#bc917b;fill-rule:nonzero;"/><path d="M149.006,191.12" style="fill:#bc917b;fill-rule:nonzero;"/><path d="M149.646,188.66" style="fill:#bc917b;fill-rule:nonzero;"/><path d="M149.645,188.66l0.001,0l-0.001,0Z" style="fill:#bc917b;fill-rule:nonzero;"/><path d="M145.848,191.22c-0.108,-0.03 -0.215,-0.05 -0.322,-0.07c0.106,0.02 0.199,0.04 0.322,0.07Z" style="fill:#bc917b;fill-rule:nonzero;"/><path d="M149.646,191.01" style="fill:#bc917b;fill-rule:nonzero;"/><path d="M145.013,191.03c-0.099,-0.03 -0.189,-0.05 -0.287,-0.08l-0.01,0c0,0 0.111,0.03 0.297,0.08Z" style="fill:#bc917b;fill-rule:nonzero;"/><path d="M149.645,191.01l0.001,0l-0.001,0Z" style="fill:#bc917b;fill-rule:nonzero;"/><path d="M195.428,130.09c0,0 -4.908,20.14 -13.335,21.78c-8.427,1.64 -17.547,-1.62 -17.547,-1.62c0,0 -0.871,-23.67 3.443,-26.76c4.311,-3.11 14.251,-7.59 27.439,6.6Z" style="fill:#fff;fill-rule:nonzero;"/><path d="M164.535,150.18c0,0 0.193,0.06 0.626,0.24c0.108,-7.26 0.779,-17.23 3.473,-19.14c4.007,-2.93 13.053,-7.06 25.138,4.23c1.099,-3.12 1.65,-5.48 1.65,-5.48c-13.213,-14.22 -23.161,-9.74 -27.439,-6.63c-4.32,3.1 -3.448,26.78 -3.448,26.78Z" style="fill:#d6b496;fill-rule:nonzero;"/><path d="M169.524,139.93c0,4.58 3.713,8.29 8.294,8.29c4.581,0 8.294,-3.71 8.294,-8.29c0,-4.58 -3.713,-8.29 -8.294,-8.29c-4.581,0 -8.294,3.71 -8.294,8.29Z" style="fill:#482315;fill-rule:nonzero;"/><path d="M178.203,145.45c2.396,-0.19 4.235,-2.61 4.016,-5.27c-0.214,-2.66 -2.422,-4.73 -4.819,-4.53c-2.395,0.19 -4.231,2.61 -4.02,5.26c0.219,2.66 2.429,4.74 4.823,4.54Z" style="fill:#7e3a22;fill-rule:nonzero;"/><path d="M177.997,144.49c1.667,-0.14 3.396,-1.97 3.212,-4.22c-0.187,-2.26 -2.188,-3.78 -3.855,-3.65c-1.669,0.14 -3.394,1.98 -3.21,4.23c0.183,2.26 2.189,3.78 3.853,3.64Z" style="fill:#211a10;fill-rule:nonzero;"/><path d="M179.347,138.94c0.069,0.81 0.905,1.41 1.862,1.33c0.96,-0.08 1.684,-0.81 1.619,-1.62c-0.07,-0.82 -0.901,-1.41 -1.859,-1.34c-0.963,0.08 -1.687,0.81 -1.622,1.63Z" style="fill:#fff;fill-rule:nonzero;"/><path d="M173.969,143.65c0.036,0.4 0.453,0.7 0.93,0.66c0.482,-0.04 0.842,-0.4 0.811,-0.81c-0.034,-0.4 -0.452,-0.7 -0.929,-0.66c-0.482,0.04 -0.846,0.4 -0.812,0.81Z" style="fill:#fff;fill-rule:nonzero;"/><path d="M138.559,130.45c-0.063,-0.09 -1.592,-2.42 -4.719,-4.82c-1.959,-1.5 -3.878,-2.64 -5.869,-3.49c-2.42,-1.02 -5.027,-1.74 -7.551,-2.08c-2.284,-0.26 -4.815,-0.19 -7.769,0.21c-2.254,0.43 -4.452,1.1 -6.319,1.92c-1.331,0.46 -2.382,1.1 -3.227,1.62c-0.323,0.2 -0.616,0.38 -0.913,0.54l-4.025,2.53l4.638,-1.09c0.217,-0.06 0.45,-0.12 0.702,-0.19c0.959,-0.25 2.154,-0.57 3.554,-0.77c0.328,-0.05 0.661,-0.12 1.002,-0.18c0.583,-0.12 1.187,-0.24 1.819,-0.27c0.702,-0.05 1.431,-0.1 2.18,-0.15l0.974,-0.07c2.569,-0.04 4.739,0.16 6.667,0.6c2.107,0.37 4.272,1.05 6.258,1.97c1.876,0.89 3.673,1.78 5.076,2.81c2.834,1.89 4.41,3.47 4.426,3.49c0.389,0.39 0.909,0.59 1.433,0.59c0.381,0 0.763,-0.11 1.097,-0.33c0.933,-0.61 1.195,-1.87 0.602,-2.77l-0.036,-0.07Z" style="fill:#030405;fill-rule:nonzero;"/><path d="M196.256,124.33c-0.266,-0.14 -0.559,-0.32 -0.884,-0.52c-0.844,-0.52 -1.894,-1.16 -3.186,-1.61c-1.905,-0.83 -4.104,-1.5 -6.386,-1.94c-2.928,-0.39 -5.459,-0.46 -7.752,-0.2c-2.513,0.34 -5.12,1.06 -7.543,2.08c-1.963,0.84 -3.937,2.01 -5.866,3.49c-3.07,2.36 -4.597,4.64 -4.712,4.82l-0.028,0.04c-0.518,0.8 -0.407,1.86 0.263,2.54c0.381,0.38 0.889,0.59 1.428,0.59l0.001,0c0.539,0 1.045,-0.21 1.425,-0.59l0.017,-0.02c0.149,-0.15 1.68,-1.64 4.427,-3.48c1.382,-1.01 3.181,-1.9 5.05,-2.8c1.994,-0.92 4.16,-1.6 6.294,-1.97c1.9,-0.44 4.074,-0.63 6.61,-0.6l1.022,0.07c0.743,0.05 1.465,0.1 2.171,0.15c0.623,0.03 1.226,0.15 1.81,0.27c0.341,0.06 0.673,0.13 1,0.18c1.401,0.2 2.596,0.52 3.556,0.77c0.251,0.07 0.485,0.13 0.708,0.19l4.636,1.09l-4.061,-2.55Z" style="fill:#030405;fill-rule:nonzero;"/><path d="M148.078,198.01" style="fill:#be927b;fill-rule:nonzero;"/><path d="M148.078,198.01" style="fill:#be927b;fill-rule:nonzero;"/><path d="M144.246,195.13c-0.109,-0.03 -0.217,-0.05 -0.325,-0.07c0.107,0.02 0.2,0.04 0.325,0.07Z" style="fill:#be927b;fill-rule:nonzero;"/><path d="M148.078,194.92" style="fill:#be927b;fill-rule:nonzero;"/><path d="M143.404,194.94c-0.101,-0.03 -0.192,-0.06 -0.29,-0.08l-0.011,0c0,0 0.112,0.03 0.301,0.08Z" style="fill:#be927b;fill-rule:nonzero;"/><path d="M148.078,194.92" style="fill:#be927b;fill-rule:nonzero;"/><path d="M136.883,199.28c-0.244,-3.24 9.016,0.68 12.056,0.77c2.426,0.08 9.713,-0.48 10.386,-0.74c5.094,-1.9 -0.278,5.42 -10.536,5.8c-4.7,0.19 -11.767,-3.87 -11.906,-5.83Z" style="fill:#f0d2ad;fill-rule:nonzero;"/><path d="M167.028,193.04c-2.513,-0.13 -5.095,1.97 -8.118,1.65c-0.123,-0.06 -0.185,-0.06 -0.314,-0.06c-0.694,-0.12 -1.383,0 -2.138,0.18c-0.941,0.2 -1.888,0.58 -2.772,0.89c-1.512,0.49 -3.214,0.88 -4.966,0.75l0,0.01l-0.098,-0.01l-0.098,0.01l0,-0.01c-1.752,0.13 -3.455,-0.26 -4.966,-0.75c-0.885,-0.31 -1.832,-0.69 -2.772,-0.89c-0.756,-0.18 -1.444,-0.3 -2.139,-0.18c-0.129,0 -0.19,0 -0.314,0.06c-3.023,0.32 -5.604,-1.78 -8.118,-1.65c-0.695,0.06 -1.703,-0.13 -2.268,-0.13c0.123,0.07 0.252,0.13 0.381,0.19c7.166,3.49 13.349,10.04 20.196,9.83l0.196,0c6.846,0.21 13.03,-6.34 20.195,-9.83c0.129,-0.06 0.258,-0.12 0.382,-0.19c-0.566,0 -1.574,0.19 -2.269,0.13Z" style="fill:#dcbf9e;fill-rule:nonzero;"/><path d="M169.134,192.84c0,0 -7.286,-2.81 -12.469,-1.16c0,0 -1.929,0.75 -3.928,1.21c-1.216,0.47 -2.689,0.61 -4.115,0.55c-1.091,-0.04 -2.127,-0.18 -2.978,-0.33c-0.283,-0.04 -0.565,-0.1 -0.854,-0.16c-0.125,-0.03 -0.218,-0.05 -0.325,-0.07c-0.175,-0.04 -0.345,-0.07 -0.518,-0.12c-0.188,-0.04 -0.3,-0.07 -0.3,-0.07l0.011,-0.01c-1.658,-0.45 -3.08,-1 -3.08,-1c-5.182,-1.65 -12.469,1.16 -12.469,1.16c-0.1,0.04 -0.162,0.07 -0.162,0.07c0.565,0 1.573,0.19 2.268,0.13c2.514,-0.13 5.095,1.97 8.118,1.65c0.124,-0.06 0.185,-0.06 0.314,-0.06c0.695,-0.13 1.383,0 2.139,0.18c0.94,0.2 1.887,0.58 2.772,0.89c1.511,0.49 3.214,0.88 4.966,0.75l0,0.01l0.098,-0.01l0.098,0.01l0,-0.01c1.752,0.13 3.454,-0.26 4.966,-0.75c0.884,-0.31 1.831,-0.69 2.772,-0.89c0.755,-0.18 1.444,-0.31 2.138,-0.18c0.129,0 0.191,0 0.314,0.06c3.023,0.32 5.605,-1.78 8.118,-1.65c0.695,0.06 1.703,-0.13 2.268,-0.13c0,0 -0.062,-0.03 -0.162,-0.07Z" style="fill:#c69f83;fill-rule:nonzero;"/><path d="M136.384,194.55c0.132,0.03 13.653,4.15 24.228,0.09l-1.218,-0.82l-14.294,0l-8.716,0.73Z" style="fill:#c69f83;fill-rule:nonzero;"/><path d="M211.915,300.18l-125.38,0c0,-3.48 0.144,-6.79 0.371,-9.94c0.349,-4.88 0.925,-9.34 1.707,-13.41c0.597,-3.15 1.317,-6.07 2.14,-8.77c3.868,-12.88 9.834,-21.05 15.719,-26.23l13.206,12.15c17.113,15.74 43.119,16.74 61.388,2.35l14.451,-11.37c6.275,6.5 10.205,14.62 12.653,22.61c0.967,3.15 1.687,6.25 2.243,9.26c0.926,4.98 1.358,9.6 1.543,13.41c0.288,6.01 -0.041,9.94 -0.041,9.94Z" style="fill:#992020;fill-rule:nonzero;"/><path d="M95.449,155.45c-0.381,-0.95 -0.7,-1.92 -0.959,-2.91c-0.173,-0.66 -0.318,-1.33 -0.437,-2.01c-0.019,-0.11 -0.038,-0.22 -0.056,-0.34c-1.031,-6.41 -1.506,-17.39 6.287,-21.12c0.153,-0.08 0.316,-0.14 0.48,-0.19c0.648,-0.21 2.481,-0.78 5.114,-1.36c-1.061,0.94 -2.147,2 -3.255,3.19c0,0 0.004,0.02 0.011,0.05c-0.006,0 -0.011,0.01 -0.017,0.01c0,0 2.643,10.85 7.382,17.27c-5.549,2.08 -10.466,4.83 -13.999,7.06c-0.014,0.01 -0.029,0.02 -0.043,0.03c-0.113,0.07 -0.224,0.14 -0.334,0.21c-0.059,0.04 -0.117,0.07 -0.174,0.11Z" style="fill:#b5c7b1;fill-rule:nonzero;"/><path d="M109.999,148.04c-4.739,-6.42 -7.382,-17.27 -7.382,-17.27c0.006,0 0.011,-0.01 0.017,-0.01c0.081,0.33 0.628,2.57 1.639,5.44c6.065,-5.67 11.363,-7.45 15.644,-7.45c4.25,0 7.498,1.76 9.494,3.22c2.08,1.47 2.954,7.75 3.294,13.88c-1.789,-0.47 -3.607,-0.75 -5.434,-0.85c0.792,-1.28 1.249,-2.78 1.249,-4.39c0,-4.58 -3.713,-8.29 -8.293,-8.29c-4.58,0 -8.294,3.71 -8.294,8.29c0,2.34 0.969,4.46 2.527,5.97c-1.522,0.43 -3.012,0.92 -4.461,1.46Z" style="fill:#bee4de;fill-rule:nonzero;"/><path d="M139.919,149.04c-2.038,-1.32 -4.163,-2.29 -6.337,-2.94c0.001,-4.28 -0.158,-10.61 -0.962,-15.44c1.832,1.36 2.831,2.36 2.843,2.37c0.389,0.39 0.909,0.59 1.433,0.59c0.381,0 0.763,-0.11 1.097,-0.33c0.933,-0.61 1.195,-1.87 0.602,-2.77l-0.036,-0.07c-0.027,-0.04 -0.319,-0.48 -0.887,-1.16c0.079,0.03 0.158,0.07 0.237,0.1c0,0 4.876,0.98 5.125,7.05c0.013,0.3 0,0.61 -0.038,0.91c-0.139,1.1 -0.606,4.22 -1.821,8.14c-0.353,1.13 -0.768,2.32 -1.256,3.55Z" style="fill:#b5c7b1;fill-rule:nonzero;"/><path d="M133.582,146.1c-0.292,-0.09 -0.584,-0.17 -0.877,-0.25c-0.34,-6.13 -1.214,-12.41 -3.294,-13.88c-1.996,-1.46 -5.244,-3.22 -9.494,-3.22c-4.281,0 -9.579,1.78 -15.644,7.45c-1.011,-2.87 -1.558,-5.11 -1.639,-5.44c-0.007,-0.03 -0.011,-0.05 -0.011,-0.05c1.108,-1.19 2.194,-2.25 3.255,-3.19c3.59,-0.8 8.67,-1.63 14.273,-1.63c1.38,0 2.794,0.05 4.223,0.17c0.539,0.2 1.069,0.43 1.587,0.67c1.876,0.89 3.673,1.78 5.076,2.81c0.581,0.39 1.11,0.77 1.583,1.12c0.804,4.83 0.963,11.16 0.962,15.44Z" style="fill:#b0c3af;fill-rule:nonzero;"/><path d="M114.46,146.58c-1.558,-1.51 -2.527,-3.63 -2.527,-5.97c0,-4.58 3.714,-8.29 8.294,-8.29c4.58,0 8.293,3.71 8.293,8.29c0,1.61 -0.457,3.11 -1.249,4.39c-0.609,-0.04 -1.219,-0.06 -1.829,-0.06l-0.048,0c-0.809,0 -1.617,0.03 -2.424,0.09c0.019,-0.02 0.038,-0.03 0.057,-0.05c0.039,0.01 0.078,0.01 0.119,0.02c0.029,0 0.058,0 0.086,0c0.44,0 0.81,-0.29 0.843,-0.67c0.015,-0.17 -0.04,-0.33 -0.142,-0.46c0.401,-0.67 0.663,-1.44 0.731,-2.27c0.212,-2.66 -1.624,-5.07 -4.019,-5.27c-0.107,-0.01 -0.214,-0.01 -0.321,-0.01c-1.29,0 -2.5,0.65 -3.342,1.67c-0.026,0 -0.051,0 -0.076,0c-0.885,0 -1.624,0.58 -1.689,1.34c-0.039,0.5 0.215,0.96 0.638,1.27c-0.012,0.09 -0.021,0.18 -0.029,0.27c-0.168,2.04 0.876,3.93 2.453,4.79c-1.288,0.25 -2.564,0.56 -3.819,0.92Z" style="fill:#717363;fill-rule:nonzero;"/><path d="M118.279,145.66c-1.577,-0.86 -2.621,-2.75 -2.453,-4.79c0.008,-0.09 0.017,-0.18 0.029,-0.27c0.269,0.19 0.607,0.32 0.981,0.35l0,0.01c-0.184,2.25 1.545,4.08 3.213,4.22c0.07,0.01 0.14,0.01 0.211,0.01c0.707,0 1.459,-0.29 2.095,-0.79c0.076,0.28 0.335,0.51 0.672,0.58c-0.019,0.02 -0.038,0.03 -0.057,0.05c-1.574,0.12 -3.141,0.33 -4.691,0.63Zm5.654,-1.79c-0.145,-0.19 -0.387,-0.33 -0.669,-0.35c-0.025,0 -0.05,0 -0.076,0c0.387,-0.56 0.652,-1.23 0.713,-1.98c0.184,-2.25 -1.542,-4.09 -3.209,-4.23c-0.07,-0.01 -0.14,-0.01 -0.21,-0.01c-0.83,0 -1.717,0.39 -2.411,1.06c-0.272,-0.2 -0.615,-0.33 -0.995,-0.36c-0.032,0 -0.063,-0.01 -0.094,-0.01c0.842,-1.02 2.052,-1.67 3.342,-1.67c0.107,0 0.214,0 0.321,0.01c2.395,0.2 4.231,2.61 4.019,5.27c-0.068,0.83 -0.33,1.6 -0.731,2.27Z" style="fill:#8d836b;fill-rule:nonzero;"/><path d="M120.26,145.19c-0.071,0 -0.141,0 -0.211,-0.01c-1.668,-0.14 -3.397,-1.97 -3.213,-4.22l0,-0.01c0.057,0.01 0.113,0.01 0.169,0.01c0.885,0 1.628,-0.57 1.694,-1.34c0.039,-0.49 -0.211,-0.95 -0.628,-1.26c0.694,-0.67 1.581,-1.06 2.411,-1.06c0.07,0 0.14,0 0.21,0.01c1.667,0.14 3.393,1.98 3.209,4.23c-0.061,0.75 -0.326,1.42 -0.713,1.98c-0.003,0 -0.007,0 -0.011,0c-0.44,0 -0.81,0.29 -0.842,0.67c-0.006,0.07 0.002,0.14 0.02,0.21c-0.636,0.5 -1.388,0.79 -2.095,0.79Z" style="fill:#596d63;fill-rule:nonzero;"/><path d="M117.005,140.96c-0.056,0 -0.112,0 -0.169,-0.01c-0.374,-0.03 -0.712,-0.16 -0.981,-0.35c-0.423,-0.31 -0.677,-0.77 -0.638,-1.27c0.065,-0.76 0.804,-1.34 1.689,-1.34c0.025,0 0.05,0 0.076,0c0.031,0 0.062,0.01 0.094,0.01c0.38,0.03 0.723,0.16 0.995,0.36c0.417,0.31 0.667,0.77 0.628,1.26c-0.066,0.77 -0.809,1.34 -1.694,1.34Z" style="fill:#bee4de;fill-rule:nonzero;"/><path d="M123.232,145c-0.028,0 -0.057,0 -0.086,0c-0.041,-0.01 -0.08,-0.01 -0.119,-0.02c-0.337,-0.07 -0.596,-0.3 -0.672,-0.58c-0.018,-0.07 -0.026,-0.14 -0.02,-0.21c0.032,-0.38 0.402,-0.67 0.842,-0.67l0.087,0c0.282,0.02 0.524,0.16 0.669,0.35c0.102,0.13 0.157,0.29 0.142,0.46c-0.033,0.38 -0.403,0.67 -0.843,0.67Z" style="fill:#bee4de;fill-rule:nonzero;"/><path d="M136.896,133.62c-0.524,0 -1.044,-0.2 -1.433,-0.59c-0.012,-0.01 -1.011,-1.01 -2.843,-2.37c-0.473,-0.35 -1.002,-0.73 -1.583,-1.12c-1.403,-1.03 -3.2,-1.92 -5.076,-2.81c-0.518,-0.24 -1.048,-0.47 -1.587,-0.67c1.459,0.11 2.936,0.29 4.416,0.56c2.992,0.52 5.996,1.38 8.882,2.67c0.568,0.68 0.86,1.12 0.887,1.16l0.036,0.07c0.593,0.9 0.331,2.16 -0.602,2.77c-0.334,0.22 -0.716,0.33 -1.097,0.33Z" style="fill:#4b6560;fill-rule:nonzero;"/><path d="M114.459,169.11c-4.799,0 -10.296,-1.54 -14.912,-6.88c-0.41,-0.47 -0.799,-0.96 -1.167,-1.46c-0.001,0 -0.003,0 -0.004,0c-0.011,-0.02 -0.023,-0.04 -0.035,-0.05c-0.565,-0.78 -1.08,-1.58 -1.545,-2.42c-0.006,-0.01 -0.012,-0.02 -0.018,-0.03c-0.005,-0.01 -0.01,-0.02 -0.015,-0.03c-0.498,-0.9 -0.937,-1.83 -1.314,-2.79c0.057,-0.04 0.115,-0.07 0.174,-0.11c0.11,-0.07 0.221,-0.14 0.334,-0.21c0.014,-0.01 0.029,-0.02 0.043,-0.03c3.533,-2.23 8.45,-4.98 13.999,-7.06c1.718,2.33 3.711,4.08 5.953,4.51c1.692,0.33 3.414,0.47 5.083,0.47c6.64,0 12.464,-2.09 12.464,-2.09c0,0 0,-0.02 0.002,-0.06c0.006,0 0.009,0 0.009,0c0,0 0.071,-1.94 0.072,-4.77c2.174,0.66 4.299,1.62 6.337,2.94c-1.15,2.93 -2.711,6.05 -4.816,8.97c-2.28,3.16 -5.196,6.09 -8.921,8.28c0,0 -4.437,2.4 -10.225,2.77c-0.491,0.03 -0.99,0.05 -1.498,0.05Z" style="fill:#a1c0a5;fill-rule:nonzero;"/><path d="M121.035,153.02c-1.669,0 -3.391,-0.14 -5.083,-0.47c-2.242,-0.43 -4.235,-2.18 -5.953,-4.51c1.448,-0.54 2.941,-1.03 4.462,-1.46c1.492,1.44 3.525,2.33 5.766,2.33c2.972,0 5.579,-1.56 7.044,-3.91c1.826,0.1 3.646,0.38 5.434,0.85c0.1,1.81 0.154,3.6 0.178,5.26c0.379,-0.16 0.574,-0.23 0.618,-0.24c-0.002,0.04 -0.002,0.06 -0.002,0.06c0,0 -5.824,2.09 -12.464,2.09Z" style="fill:#a9dbcf;fill-rule:nonzero;"/><path d="M132.883,151.11c-0.024,-1.66 -0.078,-3.45 -0.178,-5.26c0.293,0.08 0.585,0.16 0.877,0.25c-0.001,2.83 -0.072,4.77 -0.072,4.77c0,0 -0.003,0 -0.009,0c-0.044,0.01 -0.239,0.08 -0.618,0.24Z" style="fill:#9cbca3;fill-rule:nonzero;"/><path d="M120.227,148.91c-2.241,0 -4.274,-0.89 -5.766,-2.33c1.254,-0.36 2.53,-0.66 3.818,-0.92c0.478,0.27 1.005,0.43 1.562,0.48c0.108,0.01 0.215,0.01 0.321,0.01c1.037,0 2.023,-0.42 2.808,-1.12c0.807,-0.06 1.615,-0.09 2.424,-0.09l0.048,0c0.61,0 1.22,0.02 1.829,0.06c-1.465,2.35 -4.072,3.91 -7.044,3.91Z" style="fill:#63705b;fill-rule:nonzero;"/><path d="M120.162,146.15c-0.106,0 -0.213,0 -0.321,-0.01c-0.557,-0.05 -1.084,-0.21 -1.562,-0.48c1.55,-0.3 3.117,-0.51 4.691,-0.63c-0.785,0.7 -1.771,1.12 -2.808,1.12Z" style="fill:#7d7f61;fill-rule:nonzero;"/><path d="M95.449,155.45c0.057,-0.04 0.115,-0.07 0.174,-0.11c-0.059,0.04 -0.117,0.07 -0.174,0.11Zm0.508,-0.32c0.014,-0.01 0.029,-0.02 0.043,-0.03c-0.014,0.01 -0.029,0.02 -0.043,0.03Zm43.962,-6.09c-2.038,-1.32 -4.163,-2.28 -6.337,-2.94c2.174,0.65 4.299,1.62 6.337,2.94Z" style="fill:#89c4af;fill-rule:nonzero;"/><path d="M132.705,145.85c-1.788,-0.47 -3.608,-0.75 -5.434,-0.85c1.827,0.1 3.645,0.38 5.434,0.85Z" style="fill:#8bd0c3;fill-rule:nonzero;"/><path d="M133.582,146.1c-0.292,-0.09 -0.584,-0.17 -0.877,-0.25c0.293,0.08 0.585,0.16 0.877,0.25Z" style="fill:#86c1ae;fill-rule:nonzero;"/><path d="M127.271,145c-0.609,-0.04 -1.219,-0.06 -1.829,-0.06c0.61,0 1.22,0.02 1.829,0.06Zm-1.877,-0.06c0.011,0 0.023,0 0.034,0c-0.011,0 -0.023,0 -0.034,0Z" style="fill:#6d9b87;fill-rule:nonzero;"/><path d="M206.488,150.19c-0.716,4.45 -2.604,8.64 -5.548,12.05c-10.873,12.57 -26.637,4.05 -26.637,4.05c-13.634,-8 -16.437,-25.96 -16.814,-28.94c-0.037,-0.3 -0.051,-0.61 -0.038,-0.91c0.249,-6.07 5.126,-7.05 5.126,-7.05c15.598,-7.12 34.709,-1.3 37.146,-0.51c0.165,0.05 0.326,0.11 0.481,0.19c7.793,3.73 7.316,14.71 6.284,21.12Zm-63.492,-12.84c-0.377,2.98 -3.179,20.94 -16.814,28.94c0,0 -15.763,8.52 -26.636,-4.05c-2.946,-3.41 -4.834,-7.6 -5.55,-12.05c-1.031,-6.41 -1.507,-17.39 6.285,-21.12c0.156,-0.08 0.317,-0.14 0.48,-0.19c2.438,-0.79 21.549,-6.61 37.148,0.51c0,0 4.876,0.98 5.125,7.05c0.013,0.3 0,0.61 -0.038,0.91Zm66.659,-0.04c0,0 -2.663,-14.89 -19.867,-14.63l-39.503,0l0,4.66l6.634,0c0,0 2.177,-0.23 0.408,2.22c0,0 -2.158,3.57 -2.749,6.13c-0.142,0.61 -0.444,1.03 -1.075,1l-3.261,-0.26l-3.26,0.26c-0.631,0.03 -0.933,-0.39 -1.075,-1c-0.591,-2.56 -2.749,-6.13 -2.749,-6.13c-1.768,-2.45 0.409,-2.22 0.409,-2.22l6.633,0l0,-4.66l-39.502,0c-17.205,-0.26 -19.868,14.63 -19.868,14.63c-1.926,6.16 2.022,18.77 2.022,18.77c6.676,15.63 22.083,15.3 22.083,15.3c20.799,0.51 29.53,-25.16 29.53,-25.16c1.54,-6.42 5.777,-5.65 5.777,-5.65c0,0 4.237,-0.77 5.778,5.65c0,0 8.73,25.67 29.53,25.16c0,0 15.407,0.33 22.084,-15.3c0,0 3.948,-12.61 2.021,-18.77Z" style="fill:#fff;fill-rule:nonzero;"/><path d="M205.018,155.51c-0.048,-0.03 -0.095,-0.06 -0.143,-0.09c-0.835,-0.53 -1.753,-1.1 -2.744,-1.68c1.559,-6.01 2.659,-12.77 2.984,-19.75c1.491,2.87 1.958,6.4 1.943,9.73c-0.016,2.35 -0.269,4.61 -0.57,6.47c-0.294,1.83 -0.787,3.62 -1.47,5.32Z" style="fill:#b4c5b1;fill-rule:nonzero;"/><path d="M202.131,153.74c-3.807,-2.24 -8.687,-4.72 -14.029,-6.46c4.703,-6.43 7.326,-17.19 7.326,-17.19c-0.006,-0.01 -0.011,-0.01 -0.017,-0.02c0.007,-0.03 0.011,-0.04 0.011,-0.04c-0.979,-1.06 -1.941,-2.01 -2.883,-2.86c3.736,0.71 6.376,1.52 7.182,1.78c0.164,0.06 0.328,0.12 0.481,0.19c2.282,1.1 3.856,2.81 4.913,4.85c-0.325,6.98 -1.425,13.74 -2.984,19.75Zm-41.545,-4.63c-2.188,-5.52 -2.917,-10.34 -3.097,-11.76c-0.026,-0.22 -0.041,-0.43 -0.043,-0.65c0.001,-0.06 0.002,-0.12 0.004,-0.19c0.11,-2.64 1.096,-4.32 2.174,-5.37c-0.15,0.67 0.038,1.39 0.538,1.89c0.381,0.38 0.889,0.59 1.428,0.59l0.001,0c0.539,0 1.045,-0.21 1.425,-0.59l0.017,-0.02c0.102,-0.1 0.86,-0.84 2.217,-1.89c-0.75,5.34 -0.817,12.06 -0.779,15.93c-1.235,0.52 -2.45,1.15 -3.636,1.9c-0.083,0.05 -0.166,0.1 -0.249,0.16Z" style="fill:#bcd0bb;fill-rule:nonzero;"/><path d="M188.102,147.28c-1.513,-0.49 -3.063,-0.92 -4.635,-1.28c1.627,-1.51 2.645,-3.67 2.645,-6.07c0,-4.58 -3.713,-8.29 -8.294,-8.29c-4.581,0 -8.294,3.71 -8.294,8.29c0,2.01 0.719,3.86 1.913,5.3c-2.089,0.25 -4.157,0.73 -6.173,1.5c0.275,-6.58 1.112,-13.85 3.37,-15.45c1.996,-1.46 5.244,-3.22 9.495,-3.22c4.281,0 9.579,1.79 15.643,7.45c1.011,-2.87 1.558,-5.1 1.639,-5.44c0.006,0.01 0.011,0.01 0.017,0.02c0,0 -2.623,10.76 -7.326,17.19Z" style="fill:#bee4de;fill-rule:nonzero;"/><path d="M164.471,147.05c-0.038,-3.87 0.029,-10.59 0.779,-15.93c0.615,-0.48 1.354,-1.02 2.21,-1.59c1.382,-1.01 3.181,-1.9 5.05,-2.8c0.195,-0.09 0.392,-0.18 0.59,-0.26c2.457,-0.36 4.891,-0.5 7.236,-0.5c4.598,0 8.844,0.56 12.203,1.2c0.942,0.85 1.904,1.8 2.883,2.86c0,0 -0.004,0.01 -0.011,0.04c-0.081,0.34 -0.628,2.57 -1.639,5.44c-6.064,-5.66 -11.362,-7.45 -15.643,-7.45c-4.251,0 -7.499,1.76 -9.495,3.22c-2.258,1.6 -3.095,8.87 -3.37,15.45c-0.265,0.1 -0.53,0.21 -0.793,0.32Z" style="fill:#b0c3af;fill-rule:nonzero;"/><path d="M183.467,146c-1.43,-0.32 -2.878,-0.57 -4.335,-0.74c1.923,-0.66 3.276,-2.78 3.087,-5.08c-0.007,-0.09 -0.017,-0.18 -0.028,-0.27c0.422,-0.3 0.676,-0.77 0.637,-1.26c-0.066,-0.77 -0.805,-1.34 -1.69,-1.34c-0.025,0 -0.05,0 -0.075,0c-0.842,-1.03 -2.052,-1.68 -3.342,-1.68c-0.107,0 -0.214,0.01 -0.321,0.02c-2.395,0.19 -4.231,2.61 -4.02,5.26c0.069,0.83 0.331,1.61 0.732,2.27c-0.103,0.14 -0.157,0.3 -0.143,0.47c0.033,0.38 0.404,0.66 0.844,0.66c0.028,0 0.057,0 0.086,0c0.041,0 0.08,-0.01 0.119,-0.02c0.323,0.3 0.681,0.55 1.064,0.74c-0.33,-0.01 -0.66,-0.01 -0.989,-0.01l-0.049,0c-1.205,0 -2.409,0.06 -3.607,0.21c-1.194,-1.44 -1.913,-3.29 -1.913,-5.3c0,-4.58 3.713,-8.29 8.294,-8.29c4.581,0 8.294,3.71 8.294,8.29c0,2.4 -1.018,4.56 -2.645,6.07Z" style="fill:#717363;fill-rule:nonzero;"/><path d="M179.132,145.26c-1.014,-0.12 -2.031,-0.2 -3.05,-0.23c-0.383,-0.19 -0.741,-0.44 -1.064,-0.74c0.337,-0.06 0.596,-0.29 0.672,-0.57c0.636,0.5 1.389,0.78 2.096,0.78c0.071,0 0.141,0 0.211,-0.01c1.667,-0.14 3.396,-1.97 3.212,-4.22c0.374,-0.03 0.712,-0.16 0.982,-0.36c0.011,0.09 0.021,0.18 0.028,0.27c0.189,2.3 -1.164,4.42 -3.087,5.08Zm-5.02,-2.08c-0.401,-0.66 -0.663,-1.44 -0.732,-2.27c-0.211,-2.65 1.625,-5.07 4.02,-5.26c0.107,-0.01 0.214,-0.02 0.321,-0.02c1.29,0 2.5,0.65 3.342,1.68c-0.031,0 -0.062,0 -0.094,0c-0.38,0.03 -0.723,0.17 -0.995,0.37c-0.694,-0.68 -1.581,-1.07 -2.41,-1.07c-0.071,0 -0.141,0.01 -0.21,0.01c-1.669,0.14 -3.394,1.98 -3.21,4.23c0.061,0.76 0.325,1.43 0.713,1.98c-0.026,0 -0.051,0.01 -0.076,0.01c-0.282,0.02 -0.524,0.15 -0.669,0.34Z" style="fill:#8d836b;fill-rule:nonzero;"/><path d="M177.786,144.5c-0.707,0 -1.46,-0.28 -2.096,-0.78c0.018,-0.07 0.026,-0.14 0.02,-0.22c-0.032,-0.38 -0.402,-0.67 -0.842,-0.67c-0.004,0 -0.008,0 -0.011,0c-0.388,-0.55 -0.652,-1.22 -0.713,-1.98c-0.184,-2.25 1.541,-4.09 3.21,-4.23c0.069,0 0.139,-0.01 0.21,-0.01c0.829,0 1.716,0.39 2.41,1.07c-0.417,0.3 -0.667,0.76 -0.627,1.26c0.065,0.76 0.808,1.33 1.692,1.33c0.056,0 0.113,0 0.17,0c0.184,2.25 -1.545,4.08 -3.212,4.22c-0.07,0.01 -0.14,0.01 -0.211,0.01Z" style="fill:#596d63;fill-rule:nonzero;"/><path d="M181.039,140.27c-0.884,0 -1.627,-0.57 -1.692,-1.33c-0.04,-0.5 0.21,-0.96 0.627,-1.26c0.272,-0.2 0.615,-0.34 0.995,-0.37l0.169,0c0.885,0 1.624,0.57 1.69,1.34c0.039,0.49 -0.215,0.96 -0.637,1.26c-0.27,0.2 -0.608,0.33 -0.982,0.36c-0.057,0 -0.114,0 -0.17,0Z" style="fill:#bee4de;fill-rule:nonzero;"/><path d="M174.813,144.31c-0.44,0 -0.811,-0.28 -0.844,-0.66c-0.014,-0.17 0.04,-0.33 0.143,-0.47c0.145,-0.19 0.387,-0.32 0.669,-0.34c0.025,0 0.05,-0.01 0.076,-0.01c0.003,0 0.007,0 0.011,0c0.44,0 0.81,0.29 0.842,0.67c0.006,0.08 -0.002,0.15 -0.02,0.22c-0.076,0.28 -0.335,0.51 -0.672,0.57c-0.039,0.01 -0.078,0.02 -0.119,0.02c-0.029,0 -0.058,0 -0.086,0Z" style="fill:#bee4de;fill-rule:nonzero;"/><path d="M161.591,133.62l-0.001,0c-0.539,0 -1.047,-0.21 -1.428,-0.59c-0.5,-0.5 -0.688,-1.22 -0.538,-1.89c1.398,-1.36 2.951,-1.67 2.951,-1.67c3.411,-1.56 6.989,-2.5 10.525,-3c-0.198,0.08 -0.395,0.17 -0.59,0.26c-1.869,0.9 -3.668,1.79 -5.05,2.8c-0.856,0.57 -1.595,1.11 -2.21,1.59c-1.357,1.05 -2.115,1.79 -2.217,1.89l-0.017,0.02c-0.38,0.38 -0.886,0.59 -1.425,0.59Z" style="fill:#4b6560;fill-rule:nonzero;"/><path d="M205.037,155.52c-0.006,0 -0.013,0 -0.019,-0.01c0.683,-1.7 1.176,-3.49 1.47,-5.32c0.301,-1.86 0.554,-4.12 0.57,-6.47c-0.011,2.38 -0.266,4.66 -0.57,6.55c-0.289,1.81 -0.774,3.57 -1.451,5.25Zm-44.471,-6.4c-2.177,-5.5 -2.903,-10.28 -3.077,-11.7c-0.031,-0.23 -0.044,-0.48 -0.043,-0.72c0.002,0.22 0.017,0.43 0.043,0.65c0.18,1.42 0.909,6.24 3.097,11.76c-0.007,0 -0.013,0 -0.02,0.01Z" style="fill:#bee4de;fill-rule:nonzero;"/><path d="M200.776,162.42c0.377,-3.45 0.8,-6.55 1.312,-8.51c0.014,-0.06 0.029,-0.12 0.043,-0.17c0.991,0.58 1.909,1.15 2.744,1.68c0.048,0.03 0.095,0.06 0.143,0.09c-0.977,2.44 -2.345,4.72 -4.078,6.73c-0.055,0.06 -0.109,0.12 -0.164,0.18Z" style="fill:#a0bda3;fill-rule:nonzero;"/><path d="M186.031,169.11c-6.506,0 -11.728,-2.82 -11.728,-2.82c-7.141,-4.19 -11.311,-11.11 -13.717,-17.18c0.083,-0.06 0.166,-0.11 0.249,-0.16c1.185,-0.75 2.402,-1.38 3.636,-1.9c0.019,1.92 0.064,3.13 0.064,3.13c0,0 0.003,0 0.009,0.01c0.002,0.04 0.002,0.06 0.002,0.06c0,0 5.824,2.08 12.464,2.08c1.669,0 3.39,-0.13 5.083,-0.46c2.266,-0.44 4.278,-2.22 6.008,-4.59c5.342,1.74 10.223,4.22 14.03,6.46c-0.014,0.05 -0.029,0.11 -0.043,0.17c-0.512,1.96 -0.935,5.06 -1.312,8.51c-4.581,5.19 -10.004,6.69 -14.745,6.69Z" style="fill:#a8c8ac;fill-rule:nonzero;"/><path d="M177.01,152.33c-6.64,0 -12.464,-2.08 -12.464,-2.08c0,0 0,-0.02 -0.002,-0.06c0.044,0.01 0.239,0.07 0.617,0.23c0.018,-1.17 0.05,-2.42 0.103,-3.69c2.015,-0.77 4.085,-1.25 6.173,-1.5c1.521,1.83 3.815,2.99 6.381,2.99c2.182,0 4.168,-0.84 5.649,-2.22c1.572,0.36 3.121,0.79 4.634,1.28c-1.73,2.37 -3.742,4.15 -6.008,4.59c-1.693,0.33 -3.414,0.46 -5.083,0.46Z" style="fill:#a9dbcf;fill-rule:nonzero;"/><path d="M165.161,150.42c-0.378,-0.16 -0.573,-0.22 -0.617,-0.23c-0.006,-0.01 -0.009,-0.01 -0.009,-0.01c0,0 -0.045,-1.21 -0.064,-3.13c0.264,-0.11 0.527,-0.22 0.793,-0.32c-0.053,1.27 -0.085,2.52 -0.103,3.69Z" style="fill:#9cbca3;fill-rule:nonzero;"/><path d="M177.818,148.22c-2.566,0 -4.86,-1.16 -6.381,-2.99c1.198,-0.15 2.402,-0.21 3.607,-0.21l0.049,0c0.329,0 0.659,0 0.989,0.01c0.559,0.28 1.171,0.44 1.802,0.44c0.106,0 0.212,-0.01 0.319,-0.02c0.321,-0.02 0.632,-0.09 0.929,-0.19c1.456,0.17 2.906,0.42 4.335,0.74c-1.481,1.38 -3.467,2.22 -5.649,2.22Z" style="fill:#63705b;fill-rule:nonzero;"/><path d="M177.884,145.47c-0.631,0 -1.243,-0.16 -1.802,-0.44c1.019,0.03 2.036,0.11 3.05,0.23c-0.297,0.1 -0.608,0.17 -0.929,0.19c-0.107,0.01 -0.213,0.02 -0.319,0.02Z" style="fill:#7d7f61;fill-rule:nonzero;"/><path d="M186.026,169.19c-6.503,-0.01 -11.724,-2.83 -11.724,-2.83c-7.165,-4.2 -11.34,-11.16 -13.736,-17.24c0.007,-0.01 0.013,-0.01 0.02,-0.01c2.406,6.07 6.576,12.99 13.717,17.18c0,0 5.222,2.82 11.728,2.82c4.741,0 10.164,-1.5 14.745,-6.69c0.055,-0.06 0.109,-0.12 0.164,-0.18c1.733,-2.01 3.101,-4.29 4.078,-6.73c0.006,0.01 0.013,0.01 0.019,0.01c-0.972,2.47 -2.347,4.77 -4.098,6.79c-4.616,5.34 -10.113,6.88 -14.913,6.88Z" style="fill:#a9dbcf;fill-rule:nonzero;"/><path d="M160.835,148.95c1.186,-0.75 2.401,-1.38 3.636,-1.9c-1.234,0.52 -2.451,1.15 -3.636,1.9Z" style="fill:#8bc8b3;fill-rule:nonzero;"/><path d="M165.264,146.73c2.016,-0.77 4.084,-1.25 6.173,-1.5c-2.088,0.25 -4.158,0.73 -6.173,1.5Z" style="fill:#8bd0c3;fill-rule:nonzero;"/><path d="M164.471,147.05c0.263,-0.11 0.528,-0.22 0.793,-0.32c-0.266,0.1 -0.529,0.21 -0.793,0.32Z" style="fill:#86c1ae;fill-rule:nonzero;"/><path d="M171.437,145.23c1.198,-0.15 2.402,-0.21 3.607,-0.21c-1.205,0 -2.409,0.06 -3.607,0.21Zm3.656,-0.21c-0.012,0 -0.023,0 -0.035,0c0.012,0 0.023,0 0.035,0Z" style="fill:#6d9b87;fill-rule:nonzero;"/><path d="M96.222,117.53c0,0 -13.806,-3.65 -13.488,-11.53c0,0 -5.759,-41.62 19.103,-53.62c0,0 27.576,-14.03 53.327,-6.21" style="fill:#a92423;fill-rule:nonzero;"/><path d="M164.913,129.82c0,0 42.825,2.49 47.713,-3.73c0,0 7.709,-29.06 -0.648,-51.06c-3.724,-9.8 -12.506,-17.75 -23.729,-21.84c-10.028,-3.66 -25.675,-8.61 -33.085,-7.02l9.749,83.65Z" style="fill:#7a1617;fill-rule:nonzero;"/><path d="M155.164,46.17c0,0 24.519,6.85 9.749,83.65c0,0 -51.204,-5.52 -68.691,-12.29c0,0 -11.909,-68.45 58.942,-71.36Z" style="fill:#992020;fill-rule:nonzero;"/><path d="M161.474,45.43c-0.129,1.75 -3.308,2.94 -7.103,2.66c-3.794,-0.28 -6.766,-1.92 -6.637,-3.67c0.128,-1.75 3.308,-2.94 7.102,-2.66c3.795,0.28 6.767,1.92 6.638,3.67Z" style="fill:#7a1617;fill-rule:nonzero;"/><path d="M82.582,104.68c0,0 -59.176,7.08 -41.25,14.98c0,0 78.183,32.3 140.091,10.64l-98.841,-25.62Z" style="fill:#7a1617;fill-rule:nonzero;"/><path d="M39.012,115.51c0,0 -10.393,8.67 37.094,22.19c0,0 78.047,14.23 105.317,-7.4c0,0 -82.695,20.1 -142.411,-14.79Z" style="fill:#a92423;fill-rule:nonzero;"/><path d="M96.385,119.73c-0.227,3.09 -9.502,4.93 -20.716,4.1c-11.214,-0.82 -20.12,-4 -19.893,-7.08c0.227,-3.09 9.502,-4.92 20.715,-4.1c11.214,0.82 20.121,4 19.894,7.08Z" style="fill:#f3c515;fill-rule:nonzero;"/><path d="M148.602,281.08l-0.014,0l-0.487,-0.07c-29.655,-7.75 -31.77,-44.77 -31.788,-45.14c-0.054,-1.14 0.821,-2.1 1.955,-2.15c1.106,-0.05 2.098,0.81 2.156,1.95c0.016,0.34 1.994,34.16 28.455,41.29c2.674,-0.07 25.289,-1.89 29.64,-41.51c0.124,-1.13 1.138,-1.93 2.271,-1.82c1.129,0.13 1.943,1.14 1.82,2.27c-4.912,44.72 -33.214,45.18 -34.008,45.18Z" style="fill:#faa830;fill-rule:nonzero;"/></g></svg>