<?xml version="1.0" encoding="UTF-8" standalone="no"?><!DOCTYPE svg PUBLIC "-//W3C//DTD SVG 1.1//EN" "http://www.w3.org/Graphics/SVG/1.1/DTD/svg11.dtd"><svg width="100%" height="100%" viewBox="0 0 298 301" version="1.1" xmlns="http://www.w3.org/2000/svg" xmlns:xlink="http://www.w3.org/1999/xlink" xml:space="preserve" style="fill-rule:evenodd;clip-rule:evenodd;stroke-linejoin:round;stroke-miterlimit:1.41421;"><g id="_22"><rect x="0.31" y="0.48" width="296.86" height="299.71" style="fill:#f9ad3a;fill-rule:nonzero;"/><path d="M149.05,187.56l0,112.63l-60.73,0c-0.99,-0.4 -1.48,-0.6 -1.48,-0.6c0,-14.38 2.1,-25.59 5.3,-34.33c7.73,-21.09 21.89,-27.79 28.4,-29.81c2.14,-0.67 3.45,-0.83 3.45,-0.83c0.24,0 0.45,-0.02 0.67,-0.05c1.91,-0.31 3.47,-1.98 4.71,-4.63c0.93,-1.98 1.7,-4.5 2.33,-7.41c0.26,-1.14 0.45,-2.29 0.65,-3.53c0.3,-2.08 0.59,-4.26 0.84,-6.54c0.1,-1.39 0.25,-2.73 0.39,-4.17c0.54,-6.89 0.7,-14.43 0.7,-21.57c0,0 8.15,0.84 14.77,0.84Z" style="fill:#e0bd9a;fill-rule:nonzero;"/><path d="M211.51,299.59c0,0 -0.54,0.2 -1.44,0.6l-61.02,0l0,-112.63l0.15,0c6.57,0 14.83,-0.84 14.83,-0.84c0,7.09 0.14,14.53 0.68,21.43c0.15,1.34 0.3,2.72 0.4,4.06c0.25,2.38 0.55,4.61 0.89,6.7l0,0.04c0.1,0.95 0.29,1.79 0.44,2.68c0.6,2.93 1.33,5.51 2.21,7.58c1.09,2.57 2.42,4.36 4.03,5.07c0.51,0.23 1.05,0.34 1.62,0.34c0,0 2.34,0.29 5.84,1.67c7.15,2.8 19.16,10.17 26.06,28.97c3.2,8.74 5.31,19.95 5.31,34.33Z" style="fill:#efd0ad;fill-rule:nonzero;"/><path d="M166,218.7l0,0.05c-1.53,2.36 -6.67,9.16 -16.85,9.16l-0.1,0c-9.64,-0.05 -15.27,-7.05 -16.7,-9.12c0.3,-2.06 0.59,-4.23 0.84,-6.5c0.1,-1.33 0.25,-2.71 0.39,-4.14c4.7,1.19 9.84,1.92 15.27,2.02l0.2,0c5.63,-0.1 10.82,-0.88 15.66,-2.16c0.15,1.33 0.3,2.71 0.4,4.04c0.25,2.36 0.54,4.58 0.89,6.65Z" style="fill:#be987f;fill-rule:nonzero;"/><path d="M148.36,59.22c-64.34,0 -64.68,53.95 -61.82,89.27c-4.4,-8.37 -17.49,-5.81 -16.4,7.39c1.03,12.71 19.74,19.19 19.22,17.79c9.74,26.12 35.53,45.81 59,45.81l0.49,0l0,-160.26l-0.49,0Z" style="fill:#d2a686;fill-rule:nonzero;"/><path d="M74.24,150.31c3.16,-5.12 8.1,-2.9 9.29,-1.77c1.28,1.23 2.32,2.81 1.53,5.81c-0.44,1.73 -2.22,1.88 -1.83,4.44c0.5,2.9 1.83,3.05 2.62,3.74c0.74,0.64 1.68,1.14 2.13,2.37c0.49,1.23 0.54,2.51 0.29,3.64c-0.49,2.07 -3.51,0.4 -5.53,-0.49c-1.34,-0.64 -5.59,-4.24 -6.67,-5.42c-2.67,-3.05 -3.96,-8.97 -1.83,-12.32Z" style="fill:#ac8774;fill-rule:nonzero;"/><path d="M148.7,59.22c64.34,0 64.69,53.95 61.87,89.27c4.4,-8.37 17.44,-5.81 16.36,7.39c-0.99,12.71 -19.74,19.19 -19.23,17.79c-9.49,26.12 -35.52,45.81 -59,45.81c-0.14,0 -0.34,0 -0.34,0l-0.15,-160.26c0,0 0.35,0 0.49,0Z" style="fill:#ddb598;fill-rule:nonzero;"/><path d="M222.82,150.31c-3.16,-5.12 -8.05,-2.9 -9.29,-1.77c-1.28,1.23 -2.27,2.81 -1.53,5.81c0.45,1.73 2.23,1.88 1.83,4.44c-0.49,2.9 -1.83,3.05 -2.57,3.74c-0.74,0.64 -1.73,1.14 -2.17,2.37c-0.45,1.23 -0.55,2.51 -0.3,3.64c0.49,2.07 3.51,0.4 5.54,-0.49c1.38,-0.64 5.58,-4.24 6.67,-5.42c2.71,-3.05 3.95,-8.97 1.82,-12.32Z" style="fill:#ac8774;fill-rule:nonzero;"/><path d="M147.85,74.44c-21.15,0 -36.66,6.16 -46,18.28c-13.1,17 -12.6,42.91 -7.81,61.54c1.48,5.71 2.27,21.03 3.26,26.65c4.6,25.17 32.32,38.57 50.55,38.57c0,0 0.35,0 0.5,0l0,-145.04c-0.15,0 -0.3,0 -0.3,0" style="fill:#e0bd9a;fill-rule:nonzero;"/><path d="M193.81,92.77c-9.29,-12.07 -24.61,-18.23 -45.46,-18.33l0,145.04c20.85,-0.24 45.8,-14.92 50.05,-38.57c1.04,-5.62 1.78,-20.94 3.26,-26.65c4.85,-18.58 5.34,-44.44 -7.85,-61.49Z" style="fill:#efd0ad;fill-rule:nonzero;"/><path d="M148.54,191.04" style="fill:#bc917b;fill-rule:nonzero;"/><path d="M148.54,191.04" style="fill:#bc917b;fill-rule:nonzero;"/><path d="M144.97,193.77c-0.1,-0.02 -0.2,-0.04 -0.3,-0.06c0.1,0.02 0.19,0.04 0.3,0.06Z" style="fill:#bc917b;fill-rule:nonzero;"/><path d="M148.54,193.58" style="fill:#bc917b;fill-rule:nonzero;"/><path d="M144.19,193.6c-0.1,-0.03 -0.18,-0.05 -0.27,-0.08l-0.01,0.01c0,0 0.1,0.02 0.28,0.07Z" style="fill:#bc917b;fill-rule:nonzero;"/><path d="M148.54,193.58" style="fill:#bc917b;fill-rule:nonzero;"/><path d="M136.34,174.96c-0.24,-5.01 9.18,-1.83 12.29,-1.68c2.45,0.13 9.92,-1.58 10.56,-1.14c4.4,2.97 -4.65,8.96 -10.72,8.96c-1.61,0 -11.98,-3.12 -12.13,-6.14Z" style="fill:#ddb598;fill-rule:nonzero;"/><path d="M130.38,74.81l-0.26,0.26l0.04,0.09c0.09,-0.13 0.14,-0.27 0.22,-0.35Z" style="fill:#432e1b;fill-rule:nonzero;"/><path d="M89.42,125.91" style="fill:#432e1b;fill-rule:nonzero;"/><path d="M148.81,193.6" style="fill:#ba907b;fill-rule:nonzero;"/><path d="M148.81,193.6" style="fill:#ba907b;fill-rule:nonzero;"/><path d="M145.15,190.83c-0.11,-0.02 -0.21,-0.04 -0.31,-0.07c0.1,0.03 0.19,0.05 0.31,0.07Z" style="fill:#ba907b;fill-rule:nonzero;"/><path d="M148.81,190.63" style="fill:#ba907b;fill-rule:nonzero;"/><path d="M144.34,190.65c-0.09,-0.02 -0.18,-0.05 -0.28,-0.08l-0.01,0.01c0,0 0.11,0.03 0.29,0.07Z" style="fill:#ba907b;fill-rule:nonzero;"/><path d="M148.81,190.63" style="fill:#ba907b;fill-rule:nonzero;"/><path d="M102.19,131.05c0,0 4.91,20.2 13.34,21.85c8.42,1.65 17.54,-1.63 17.54,-1.63c0,0 0.88,-23.74 -3.44,-26.84c-4.31,-3.11 -14.25,-7.61 -27.44,6.62Z" style="fill:#fff;fill-rule:nonzero;"/><path d="M133.09,151.21c0,0 -0.2,0.06 -0.63,0.24c-0.11,-7.28 -0.78,-17.28 -3.47,-19.2c-4.01,-2.94 -13.06,-7.08 -25.14,4.24c-1.1,-3.13 -1.65,-5.5 -1.65,-5.5c13.21,-14.26 23.16,-9.77 27.44,-6.65c4.32,3.11 3.45,26.87 3.45,26.87Z" style="fill:#d6b496;fill-rule:nonzero;"/><path d="M128.1,140.92c0,4.6 -3.72,8.32 -8.3,8.32c-4.58,0 -8.29,-3.72 -8.29,-8.32c0,-4.59 3.71,-8.32 8.29,-8.32c4.58,0 8.3,3.73 8.3,8.32Z" style="fill:#482315;fill-rule:nonzero;"/><path d="M119.42,146.46c-2.4,-0.19 -4.24,-2.62 -4.02,-5.28c0.22,-2.67 2.42,-4.75 4.82,-4.55c2.4,0.19 4.23,2.62 4.02,5.28c-0.22,2.67 -2.43,4.76 -4.82,4.55Z" style="fill:#7e3a22;fill-rule:nonzero;"/><path d="M119.62,145.5c-1.66,-0.14 -3.39,-1.97 -3.21,-4.23c0.19,-2.27 2.19,-3.8 3.86,-3.66c1.67,0.14 3.39,1.98 3.21,4.24c-0.19,2.26 -2.19,3.79 -3.86,3.65Z" style="fill:#211a10;fill-rule:nonzero;"/><path d="M118.27,139.93c-0.06,0.82 -0.9,1.41 -1.86,1.33c-0.96,-0.08 -1.68,-0.81 -1.62,-1.62c0.07,-0.82 0.9,-1.42 1.86,-1.34c0.97,0.08 1.69,0.81 1.62,1.63Z" style="fill:#fff;fill-rule:nonzero;"/><path d="M123.65,144.65c-0.03,0.41 -0.45,0.71 -0.93,0.67c-0.48,-0.04 -0.84,-0.41 -0.81,-0.81c0.04,-0.41 0.45,-0.71 0.93,-0.67c0.48,0.04 0.85,0.4 0.81,0.81Z" style="fill:#fff;fill-rule:nonzero;"/><path d="M148.94,190.55" style="fill:#ba907b;fill-rule:nonzero;"/><path d="M148.94,190.55" style="fill:#ba907b;fill-rule:nonzero;"/><path d="M145.28,193.21c-0.11,-0.02 -0.21,-0.04 -0.31,-0.06c0.1,0.02 0.19,0.04 0.31,0.06Z" style="fill:#ba907b;fill-rule:nonzero;"/><path d="M148.94,193.02" style="fill:#ba907b;fill-rule:nonzero;"/><path d="M144.47,193.03c-0.09,-0.02 -0.18,-0.05 -0.27,-0.07l-0.01,0c0,0 0.1,0.03 0.28,0.07Z" style="fill:#ba907b;fill-rule:nonzero;"/><path d="M148.94,193.02" style="fill:#ba907b;fill-rule:nonzero;"/><path d="M148.83,190.18" style="fill:#bc917b;fill-rule:nonzero;"/><path d="M148.83,190.18" style="fill:#bc917b;fill-rule:nonzero;"/><path d="M144.9,192.64c-0.11,-0.02 -0.22,-0.04 -0.33,-0.07c0.11,0.03 0.2,0.05 0.33,0.07Z" style="fill:#bc917b;fill-rule:nonzero;"/><path d="M148.83,192.43" style="fill:#bc917b;fill-rule:nonzero;"/><path d="M144.04,192.45c-0.1,-0.03 -0.2,-0.06 -0.3,-0.08l-0.01,0c0,0 0.11,0.03 0.31,0.08Z" style="fill:#bc917b;fill-rule:nonzero;"/><path d="M148.83,192.43" style="fill:#bc917b;fill-rule:nonzero;"/><path d="M148.58,189.33" style="fill:#bc917b;fill-rule:nonzero;"/><path d="M148.58,189.33" style="fill:#bc917b;fill-rule:nonzero;"/><path d="M144.65,191.8c-0.11,-0.03 -0.22,-0.05 -0.33,-0.07c0.11,0.02 0.21,0.04 0.33,0.07Z" style="fill:#bc917b;fill-rule:nonzero;"/><path d="M148.58,191.59" style="fill:#bc917b;fill-rule:nonzero;"/><path d="M143.79,191.6c-0.1,-0.02 -0.2,-0.05 -0.3,-0.08l-0.01,0.01c0,0 0.12,0.03 0.31,0.07Z" style="fill:#bc917b;fill-rule:nonzero;"/><path d="M148.58,191.59" style="fill:#bc917b;fill-rule:nonzero;"/><path d="M149.22,189.12" style="fill:#bc917b;fill-rule:nonzero;"/><path d="M149.22,189.12" style="fill:#bc917b;fill-rule:nonzero;"/><path d="M145.42,191.68c-0.1,-0.02 -0.21,-0.04 -0.32,-0.07c0.11,0.03 0.2,0.05 0.32,0.07Z" style="fill:#bc917b;fill-rule:nonzero;"/><path d="M149.22,191.48" style="fill:#bc917b;fill-rule:nonzero;"/><path d="M144.59,191.5c-0.1,-0.03 -0.19,-0.06 -0.29,-0.08l-0.01,0c0,0 0.11,0.03 0.3,0.08Z" style="fill:#bc917b;fill-rule:nonzero;"/><path d="M149.22,191.48" style="fill:#bc917b;fill-rule:nonzero;"/><path d="M195,130.37c0,0 -4.9,20.2 -13.33,21.84c-8.43,1.65 -17.55,-1.63 -17.55,-1.63c0,0 -0.87,-23.73 3.45,-26.83c4.31,-3.12 14.25,-7.62 27.43,6.62Z" style="fill:#fff;fill-rule:nonzero;"/><path d="M164.11,150.52c0,0 0.19,0.06 0.63,0.24c0.11,-7.28 0.78,-17.28 3.47,-19.2c4.01,-2.94 13.05,-7.08 25.14,4.25c1.1,-3.13 1.65,-5.51 1.65,-5.51c-13.21,-14.26 -23.16,-9.77 -27.44,-6.65c-4.32,3.11 -3.45,26.87 -3.45,26.87Z" style="fill:#d6b496;fill-rule:nonzero;"/><path d="M169.1,140.24c0,4.59 3.71,8.32 8.29,8.32c4.58,0 8.3,-3.73 8.3,-8.32c0,-4.6 -3.72,-8.32 -8.3,-8.32c-4.58,0 -8.29,3.72 -8.29,8.32Z" style="fill:#482315;fill-rule:nonzero;"/><path d="M177.78,145.78c2.39,-0.2 4.23,-2.63 4.01,-5.29c-0.21,-2.67 -2.42,-4.75 -4.81,-4.55c-2.4,0.2 -4.23,2.62 -4.02,5.28c0.21,2.67 2.43,4.76 4.82,4.56Z" style="fill:#7e3a22;fill-rule:nonzero;"/><path d="M177.57,144.82c1.67,-0.15 3.4,-1.98 3.22,-4.24c-0.19,-2.27 -2.19,-3.8 -3.86,-3.66c-1.67,0.14 -3.39,1.98 -3.21,4.24c0.18,2.27 2.19,3.79 3.85,3.66Z" style="fill:#211a10;fill-rule:nonzero;"/><path d="M178.92,139.24c0.07,0.82 0.91,1.41 1.87,1.34c0.96,-0.09 1.68,-0.82 1.61,-1.63c-0.07,-0.82 -0.9,-1.42 -1.86,-1.34c-0.96,0.08 -1.68,0.81 -1.62,1.63Z" style="fill:#fff;fill-rule:nonzero;"/><path d="M173.55,143.97c0.03,0.4 0.45,0.7 0.93,0.66c0.48,-0.04 0.84,-0.4 0.81,-0.81c-0.04,-0.41 -0.46,-0.71 -0.93,-0.67c-0.48,0.04 -0.85,0.41 -0.81,0.82Z" style="fill:#fff;fill-rule:nonzero;"/><path d="M138.14,130.73c-0.07,-0.1 -1.6,-2.43 -4.72,-4.83c-1.96,-1.51 -3.88,-2.66 -5.87,-3.51c-2.42,-1.02 -5.03,-1.74 -7.55,-2.09c-2.29,-0.25 -4.82,-0.19 -7.77,0.21c-2.26,0.43 -4.46,1.11 -6.32,1.93c-1.33,0.46 -2.38,1.11 -3.23,1.63c-0.32,0.19 -0.61,0.37 -0.91,0.54l-4.03,2.53l4.64,-1.09c0.22,-0.05 0.45,-0.12 0.7,-0.18c0.96,-0.26 2.16,-0.58 3.56,-0.78c0.33,-0.05 0.66,-0.12 1,-0.18c0.58,-0.12 1.19,-0.24 1.82,-0.27c0.7,-0.05 1.43,-0.1 2.18,-0.15l0.97,-0.08c2.57,-0.03 4.74,0.17 6.67,0.61c2.11,0.37 4.27,1.05 6.26,1.97c1.87,0.9 3.67,1.8 5.07,2.83c2.84,1.9 4.41,3.48 4.43,3.49c0.39,0.4 0.91,0.6 1.43,0.6c0.38,0 0.76,-0.11 1.1,-0.33c0.93,-0.61 1.19,-1.88 0.6,-2.79l-0.03,-0.06Z" style="fill:#030405;fill-rule:nonzero;"/><path d="M195.83,124.59c-0.26,-0.15 -0.56,-0.33 -0.88,-0.53c-0.85,-0.51 -1.9,-1.16 -3.19,-1.6c-1.9,-0.84 -4.1,-1.52 -6.38,-1.95c-2.93,-0.4 -5.46,-0.46 -7.76,-0.21c-2.51,0.35 -5.12,1.07 -7.54,2.09c-1.96,0.84 -3.94,2.02 -5.87,3.51c-3.06,2.36 -4.59,4.65 -4.71,4.82l-0.03,0.05c-0.51,0.8 -0.4,1.87 0.27,2.54c0.38,0.39 0.89,0.6 1.43,0.6c0.54,0 1.04,-0.21 1.42,-0.6l0.02,-0.01c0.15,-0.15 1.68,-1.65 4.43,-3.5c1.38,-1.01 3.18,-1.91 5.05,-2.81c1.99,-0.92 4.16,-1.6 6.29,-1.97c1.9,-0.44 4.07,-0.63 6.61,-0.61l1.02,0.08c0.74,0.05 1.47,0.1 2.17,0.15c0.63,0.03 1.23,0.15 1.81,0.27c0.34,0.06 0.68,0.13 1,0.18c1.4,0.2 2.6,0.52 3.56,0.78c0.25,0.06 0.48,0.13 0.71,0.18l4.63,1.09l-4.06,-2.55Z" style="fill:#030405;fill-rule:nonzero;"/><path d="M147.65,198.5" style="fill:#be927b;fill-rule:nonzero;"/><path d="M147.65,198.5" style="fill:#be927b;fill-rule:nonzero;"/><path d="M143.82,195.6c-0.11,-0.02 -0.21,-0.04 -0.32,-0.06c0.1,0.02 0.2,0.04 0.32,0.06Z" style="fill:#be927b;fill-rule:nonzero;"/><path d="M147.65,195.4" style="fill:#be927b;fill-rule:nonzero;"/><path d="M142.98,195.42c-0.1,-0.03 -0.19,-0.06 -0.29,-0.09l-0.01,0.01c0,0 0.11,0.03 0.3,0.08Z" style="fill:#be927b;fill-rule:nonzero;"/><path d="M147.65,195.4" style="fill:#be927b;fill-rule:nonzero;"/><path d="M140.75,252.77l0,47.41l-44.6,0c0.25,-3.62 0.47,-9.49 0.51,-17.22l-11.41,0c-0.13,-11.26 8.84,-30.47 8.84,-30.47c0.87,-1.18 1.75,-2.25 2.64,-3.28c2.32,-2.67 4.73,-4.85 7.11,-6.62c0.27,-0.29 0.6,-0.49 0.89,-0.68c0.76,-0.55 1.54,-1.07 2.3,-1.56c3.46,-2.2 6.73,-3.6 9.28,-4.47c0.6,-0.22 1.15,-0.39 1.69,-0.53c2.39,-0.66 3.87,-0.85 3.87,-0.85c1.27,0 2.36,-0.47 3.35,-1.27l0.04,-0.04c0.33,-0.31 0.66,-0.68 0.99,-1.07c0.12,0.1 0.37,0.43 0.58,1.11c0.92,2.26 6.35,13.8 13.92,19.54Z" style="fill:#3a2f34;fill-rule:nonzero;"/><path d="M201.78,282.96c0.04,7.71 0.33,13.62 0.57,17.22l-44.79,0l0,-47.3c2.43,-1.79 4.63,-4.22 6.53,-6.73c4.13,-5.43 6.91,-11.36 7.55,-12.92c0.22,-0.68 0.47,-1.01 0.61,-1.11c0.31,0.39 0.64,0.76 0.97,1.07l0.04,0.04c0.97,0.8 2.1,1.27 3.34,1.27c0,0 1.41,0.15 3.68,0.77c0.49,0.18 1.05,0.35 1.66,0.55c3.11,1.03 7.33,2.82 11.73,6.01c0.29,0.22 0.62,0.43 0.87,0.7c3.35,2.47 6.74,5.7 9.83,9.96c0,0 9.14,13.25 8.72,30.47l-11.31,0Z" style="fill:#3a2f34;fill-rule:nonzero;"/><path d="M140.75,270.93c0,0 7.04,8.74 16.81,0l0,29.25l-16.81,0l0,-29.25Z" style="fill:#8868ad;fill-rule:nonzero;"/><path d="M53.4,81.12l204.07,-21.73l0.1,1.96l-204.09,21.51l-0.08,-1.74Z" style="fill:#37393a;fill-rule:nonzero;"/><path d="M55.66,78.42c1.21,3.75 -0.74,7.8 -4.36,9.05c-3.63,1.26 -7.56,-0.76 -8.77,-4.5c-1.22,-3.74 0.73,-7.79 4.36,-9.05c3.62,-1.25 7.55,0.76 8.77,4.5Z" style="fill:#bf2427;fill-rule:nonzero;"/><path d="M265.25,58.8c1.22,3.74 -0.73,7.79 -4.36,9.05c-3.62,1.26 -7.55,-0.76 -8.77,-4.5c-1.22,-3.74 0.74,-7.79 4.36,-9.05c3.63,-1.25 7.56,0.76 8.77,4.5Z" style="fill:#bf2427;fill-rule:nonzero;"/><path d="M183.5,92.8c6.29,-2.39 14.24,-4.3 14.57,-15.47c0.34,-11.18 8.29,-19.74 -1.98,-31.69c-10.27,-11.96 -22.53,-18.46 -22.53,-18.46c0,0 -11.26,-5.47 -19.55,-7.52c-8.27,-2.05 -10.84,-3.44 -18.22,0c-12.83,6 -14.57,7.86 -20.54,19.14c-5.96,11.28 -8.61,10.93 -9.6,17.77c-1,6.84 -7.3,10.59 0,13.33c7.29,2.74 8.61,11.97 16.23,14.01c7.62,2.05 60.63,8.89 60.63,8.89l0.99,0Z" style="fill:#37393a;fill-rule:nonzero;"/><path d="M110.96,205.47c0,0 -23.18,-10.88 -26.4,-27.91c-3.64,-19.27 -0.64,-50.21 -0.64,-50.21l12.68,-0.67c0,0 -0.39,20.76 0.24,53.75c0.14,7.19 14.12,25.04 14.12,25.04Z" style="fill:#37393a;fill-rule:nonzero;"/><path d="M187.8,203.7c0,0 23.97,-11.97 28.37,-29.17c4.96,-19.47 4.1,-50.32 4.1,-50.32l-12.66,-0.09c0,0 -1.04,20.78 -3.95,53.85c-0.63,7.2 -15.86,25.73 -15.86,25.73Z" style="fill:#37393a;fill-rule:nonzero;"/><path d="M219.09,133.43c-8.93,-4.23 -18.15,-7.55 -27.53,-9.99c-0.08,-0.59 -0.16,-1.19 -0.25,-1.78c-0.34,-2.23 -0.71,-4.46 -1.12,-6.69c-1.32,1.82 -2.6,3.65 -3.86,5.5c-0.32,0.5 -0.65,1 -0.97,1.5c-8.77,-1.91 -17.65,-3.04 -26.56,-3.41c-0.56,-1.55 -1.12,-3.1 -1.7,-4.65c-0.67,1.52 -1.33,3.03 -1.95,4.54c-4.4,-0.08 -8.79,0.03 -13.18,0.33c-0.45,-0.94 -0.91,-1.88 -1.38,-2.82c-1,-2.01 -2.03,-4 -3.09,-5.99c-0.69,2.15 -1.34,4.3 -1.97,6.45c-0.3,1.01 -0.6,2.01 -0.88,3.02c-5.94,0.68 -11.83,1.7 -17.67,3.06c-1.26,-1.84 -2.54,-3.68 -3.86,-5.5c-0.37,2.25 -0.71,4.49 -1.02,6.73c-9.36,2.5 -18.54,5.89 -27.44,10.17c-10.47,3.69 -10.52,-76.78 68.53,-75.75c74.18,0.97 75.07,78.99 65.9,75.28Z" style="fill:#37393a;fill-rule:nonzero;"/><path d="M60.84,45.84l199.41,49.74l-0.54,1.88l-199.36,-49.95l0.49,-1.67Z" style="fill:#37393a;fill-rule:nonzero;"/><path d="M63.26,44.64c0,3.95 -3.1,7.15 -6.92,7.15c-3.83,0 -6.93,-3.2 -6.93,-7.15c0,-3.94 3.1,-7.14 6.93,-7.14c3.82,0 6.92,3.2 6.92,7.14Z" style="fill:#bf2427;fill-rule:nonzero;"/><path d="M268.02,96.08c0,3.95 -3.11,7.15 -6.93,7.15c-3.82,0 -6.93,-3.2 -6.93,-7.15c0,-3.94 3.11,-7.15 6.93,-7.15c3.82,0 6.93,3.21 6.93,7.15Z" style="fill:#bf2427;fill-rule:nonzero;"/><path d="M53.4,81.12l204.07,-21.73l0.1,1.96l-204.09,21.51l-0.08,-1.74Z" style="fill:#37393a;fill-rule:nonzero;"/><path d="M265.25,58.8c1.22,3.74 -0.73,7.79 -4.36,9.05c-3.62,1.26 -7.55,-0.76 -8.77,-4.5c-1.22,-3.74 0.74,-7.79 4.36,-9.05c3.63,-1.25 7.56,0.76 8.77,4.5Z" style="fill:#bf2427;fill-rule:nonzero;"/><path d="M183.5,92.8c6.29,-2.39 14.24,-4.3 14.57,-15.47c0.34,-11.18 8.29,-19.74 -1.98,-31.69c-10.27,-11.96 -22.53,-18.46 -22.53,-18.46c0,0 -11.26,-5.47 -19.55,-7.52c-8.27,-2.05 -10.84,-3.44 -18.22,0c-12.83,6 -14.57,7.86 -20.54,19.14c-5.96,11.28 -8.61,10.93 -9.6,17.77c-1,6.84 -7.3,10.59 0,13.33c7.29,2.74 8.61,11.97 16.23,14.01c7.62,2.05 60.63,8.89 60.63,8.89l0.99,0Z" style="fill:#37393a;fill-rule:nonzero;"/><path d="M110.96,205.47c0,0 -23.18,-10.88 -26.4,-27.91c-3.64,-19.27 -0.64,-50.21 -0.64,-50.21l12.68,-0.67c0,0 -0.39,20.76 0.24,53.75c0.14,7.19 14.12,25.04 14.12,25.04Z" style="fill:#37393a;fill-rule:nonzero;"/><path d="M187.8,203.7c0,0 23.97,-11.97 28.37,-29.17c4.96,-19.47 4.1,-50.32 4.1,-50.32l-12.66,-0.09c0,0 -1.04,20.78 -3.95,53.85c-0.63,7.2 -15.86,25.73 -15.86,25.73Z" style="fill:#37393a;fill-rule:nonzero;"/><path d="M219.09,133.43c-8.93,-4.23 -18.15,-7.55 -27.53,-9.99c-0.08,-0.59 -0.16,-1.19 -0.25,-1.78c-0.34,-2.23 -0.71,-4.46 -1.12,-6.69c-1.32,1.82 -2.6,3.65 -3.86,5.5c-0.32,0.5 -0.65,1 -0.97,1.5c-8.77,-1.91 -17.65,-3.04 -26.56,-3.41c-0.56,-1.55 -1.12,-3.1 -1.7,-4.65c-0.67,1.52 -1.33,3.03 -1.95,4.54c-4.4,-0.08 -8.79,0.03 -13.18,0.33c-0.45,-0.94 -0.91,-1.88 -1.38,-2.82c-1,-2.01 -2.03,-4 -3.09,-5.99c-0.69,2.15 -1.34,4.3 -1.97,6.45c-0.3,1.01 -0.6,2.01 -0.88,3.02c-5.94,0.68 -11.83,1.7 -17.67,3.06c-1.26,-1.84 -2.54,-3.68 -3.86,-5.5c-0.37,2.25 -0.71,4.49 -1.02,6.73c-9.36,2.5 -18.54,5.89 -27.44,10.17c-10.47,3.69 -10.52,-76.78 68.53,-75.75c74.18,0.97 75.07,78.99 65.9,75.28Z" style="fill:#37393a;fill-rule:nonzero;"/><path d="M60.84,45.84l199.41,49.74l-0.54,1.88l-199.36,-49.95l0.49,-1.67Z" style="fill:#37393a;fill-rule:nonzero;"/><path d="M268.02,96.08c0,3.95 -3.11,7.15 -6.93,7.15c-3.82,0 -6.93,-3.2 -6.93,-7.15c0,-3.94 3.11,-7.15 6.93,-7.15c3.82,0 6.93,3.21 6.93,7.15Z" style="fill:#bf2427;fill-rule:nonzero;"/><path d="M137.06,201.34c-0.24,-3.2 8.91,0.67 11.92,0.76c2.4,0.08 9.6,-0.48 10.26,-0.73c5.04,-1.88 -0.27,5.35 -10.41,5.73c-4.65,0.19 -11.63,-3.82 -11.77,-5.76Z" style="fill:#f0d2ad;fill-rule:nonzero;"/><path d="M167.23,193.65c-5.81,-1.09 -18.03,0.07 -18.03,0.07c-10.09,1.68 -17.98,-0.1 -18.04,-0.03c-0.24,0.02 8.06,11.02 17.9,10.51c9.84,0.51 18.41,-10.51 18.17,-10.55Z" style="fill:#c2646e;fill-rule:nonzero;"/><path d="M155.03,191.33c-2.62,-0.29 -4.48,1.6 -5.82,1.46c-1.37,0.12 -3.14,-1.09 -5.77,-1.11c-3.7,-0.04 -5.51,-0.36 -12.28,2.01c0.25,0.46 4.58,2.97 12.7,3.11c0.12,0 2.3,1.23 5.39,1.21c1.94,-0.01 4.6,-1.31 4.71,-1.31c8.13,-0.12 13.1,-2.54 13.32,-2.99c-8.94,-2.77 -8.23,-2.42 -12.25,-2.38Z" style="fill:#d87475;fill-rule:nonzero;"/></g></svg>