<?xml version="1.0" encoding="UTF-8" standalone="no"?><!DOCTYPE svg PUBLIC "-//W3C//DTD SVG 1.1//EN" "http://www.w3.org/Graphics/SVG/1.1/DTD/svg11.dtd"><svg width="100%" height="100%" viewBox="0 0 300 301" version="1.1" xmlns="http://www.w3.org/2000/svg" xmlns:xlink="http://www.w3.org/1999/xlink" xml:space="preserve" style="fill-rule:evenodd;clip-rule:evenodd;stroke-linejoin:round;stroke-miterlimit:1.41421;"><g id="_23"><rect x="0.399" y="0.48" width="299.371" height="299.7" style="fill:#9c3232;fill-rule:nonzero;"/><path d="M154.34,187.73l0,112.62l-60.72,0c-0.99,-0.39 -1.48,-0.59 -1.48,-0.59c0,-14.38 2.1,-25.59 5.3,-34.33c7.73,-21.09 21.88,-27.79 28.4,-29.81c2.13,-0.67 3.45,-0.83 3.45,-0.83c0.23,0 0.45,-0.02 0.67,-0.05c1.91,-0.31 3.46,-1.98 4.71,-4.64c0.92,-1.97 1.7,-4.49 2.33,-7.4c0.25,-1.14 0.45,-2.29 0.65,-3.53c0.29,-2.08 0.58,-4.26 0.84,-6.54c0.09,-1.39 0.24,-2.73 0.39,-4.17c0.54,-6.89 0.69,-14.43 0.69,-21.57c0,0 8.16,0.84 14.77,0.84Z" style="fill:#e0bd9a;fill-rule:nonzero;"/><path d="M216.8,299.76c0,0 -0.54,0.2 -1.43,0.59l-61.03,0l0,-112.62l0.15,0c6.57,0 14.83,-0.84 14.83,-0.84c0,7.09 0.14,14.53 0.69,21.42c0.15,1.35 0.3,2.73 0.39,4.07c0.25,2.38 0.55,4.61 0.89,6.7l0,0.04c0.1,0.95 0.3,1.79 0.45,2.68c0.6,2.93 1.33,5.51 2.2,7.57c1.1,2.58 2.42,4.37 4.03,5.08c0.52,0.23 1.06,0.34 1.63,0.34c0,0 2.34,0.29 5.84,1.66c7.15,2.81 19.16,10.18 26.05,28.98c3.21,8.74 5.31,19.95 5.31,34.33Z" style="fill:#efd0ad;fill-rule:nonzero;"/><clipPath id="_clip1"><rect x="137.64" y="208.18" width="33.65" height="19.9"/></clipPath><g clip-path="url(#_clip1)"><path d="M171.29,218.87l0,0.05c-1.53,2.36 -6.67,9.16 -16.85,9.16l-0.09,0c-9.64,-0.05 -15.27,-7.05 -16.71,-9.12c0.3,-2.06 0.6,-4.23 0.84,-6.5c0.1,-1.33 0.25,-2.71 0.4,-4.14c4.69,1.19 9.83,1.92 15.27,2.02l0.2,0c5.63,-0.1 10.82,-0.88 15.66,-2.17c0.15,1.34 0.3,2.71 0.4,4.04c0.24,2.37 0.54,4.59 0.88,6.66Z" style="fill:#be987f;fill-rule:nonzero;"/></g><path d="M153.65,59.39c-64.33,0 -64.68,53.95 -61.81,89.27c-4.4,-8.37 -17.49,-5.81 -16.41,7.39c1.04,12.71 19.75,19.19 19.22,17.79c9.75,26.12 35.53,45.81 59,45.81l0.5,0l0,-160.26l-0.5,0Z" style="fill:#d2a686;fill-rule:nonzero;"/><path d="M79.53,150.48c3.17,-5.12 8.11,-2.9 9.29,-1.77c1.29,1.23 2.33,2.81 1.54,5.81c-0.45,1.73 -2.23,1.88 -1.83,4.44c0.49,2.9 1.83,3.05 2.62,3.74c0.74,0.64 1.68,1.14 2.12,2.37c0.5,1.23 0.54,2.51 0.3,3.64c-0.5,2.07 -3.51,0.4 -5.54,-0.49c-1.33,-0.64 -5.58,-4.24 -6.67,-5.42c-2.67,-3.05 -3.95,-8.97 -1.83,-12.32Z" style="fill:#ac8774;fill-rule:nonzero;"/><path d="M154,59.39c64.34,0 64.68,53.95 61.87,89.27c4.39,-8.37 17.44,-5.81 16.35,7.39c-0.99,12.71 -19.73,19.19 -19.22,17.79c-9.49,26.12 -35.53,45.81 -59,45.81c-0.15,0 -0.35,0 -0.35,0l-0.14,-160.26c0,0 0.34,0 0.49,0Z" style="fill:#ddb598;fill-rule:nonzero;"/><path d="M228.12,150.48c-3.16,-5.12 -8.05,-2.9 -9.29,-1.77c-1.28,1.23 -2.27,2.81 -1.53,5.81c0.44,1.73 2.22,1.88 1.83,4.44c-0.5,2.9 -1.83,3.05 -2.57,3.74c-0.74,0.64 -1.73,1.14 -2.18,2.37c-0.44,1.23 -0.54,2.51 -0.29,3.64c0.49,2.07 3.5,0.4 5.53,-0.49c1.38,-0.64 5.58,-4.24 6.67,-5.42c2.72,-3.05 3.95,-8.97 1.83,-12.32Z" style="fill:#ac8774;fill-rule:nonzero;"/><path d="M153.15,74.61c-21.15,0 -36.67,6.16 -46.01,18.28c-13.09,17 -12.6,42.91 -7.8,61.53c1.48,5.72 2.27,21.04 3.26,26.66c4.59,25.17 32.31,38.57 50.55,38.57c0,0 0.34,0 0.49,0l0,-145.04c-0.15,0 -0.29,0 -0.29,0l-0.2,0Z" style="fill:#e0bd9a;fill-rule:nonzero;"/><path d="M199.1,92.94c-9.29,-12.07 -24.61,-18.23 -45.46,-18.33l0,145.04c20.85,-0.24 45.81,-14.92 50.06,-38.57c1.04,-5.62 1.78,-20.94 3.26,-26.66c4.84,-18.57 5.34,-44.43 -7.86,-61.48Z" style="fill:#efd0ad;fill-rule:nonzero;"/><path d="M153.84,191.21" style="fill:#bc917b;fill-rule:nonzero;"/><path d="M153.84,191.21" style="fill:#bc917b;fill-rule:nonzero;"/><path d="M150.27,193.94c-0.1,-0.02 -0.2,-0.04 -0.31,-0.06c0.1,0.02 0.19,0.04 0.31,0.06Z" style="fill:#bc917b;fill-rule:nonzero;"/><path d="M153.84,193.75" style="fill:#bc917b;fill-rule:nonzero;"/><path d="M149.48,193.77c-0.09,-0.03 -0.18,-0.05 -0.27,-0.08l-0.01,0.01c0,0 0.11,0.02 0.28,0.07Z" style="fill:#bc917b;fill-rule:nonzero;"/><path d="M153.84,193.75" style="fill:#bc917b;fill-rule:nonzero;"/><path d="M141.37,176.16c-0.25,-5.02 9.17,-1.84 12.28,-1.68c2.46,0.13 9.92,-1.58 10.56,-1.14c4.4,2.97 -4.65,8.96 -10.72,8.96c-1.61,0 -11.98,-3.12 -12.12,-6.14Z" style="fill:#ddb598;fill-rule:nonzero;"/><path d="M135.68,74.97l-0.27,0.27l0.05,0.09c0.09,-0.13 0.13,-0.27 0.22,-0.36Z" style="fill:#432e1b;fill-rule:nonzero;"/><path d="M94.72,126.08" style="fill:#432e1b;fill-rule:nonzero;"/><path d="M154.11,193.77" style="fill:#ba907b;fill-rule:nonzero;"/><path d="M154.11,193.77" style="fill:#ba907b;fill-rule:nonzero;"/><path d="M150.44,191c-0.1,-0.02 -0.2,-0.04 -0.31,-0.07c0.1,0.03 0.19,0.05 0.31,0.07Z" style="fill:#ba907b;fill-rule:nonzero;"/><path d="M154.11,190.8" style="fill:#ba907b;fill-rule:nonzero;"/><path d="M149.64,190.82c-0.1,-0.02 -0.19,-0.05 -0.28,-0.08l-0.01,0.01c0,0 0.11,0.03 0.29,0.07Z" style="fill:#ba907b;fill-rule:nonzero;"/><path d="M154.11,190.8" style="fill:#ba907b;fill-rule:nonzero;"/><path d="M107.49,131.22c0,0 4.91,20.2 13.33,21.85c8.43,1.65 17.55,-1.63 17.55,-1.63c0,0 0.87,-23.74 -3.44,-26.84c-4.31,-3.11 -14.25,-7.61 -27.44,6.62Z" style="fill:#fff;fill-rule:nonzero;"/><path d="M138.38,151.38c0,0 -0.19,0.05 -0.62,0.24c-0.11,-7.28 -0.78,-17.29 -3.48,-19.2c-4,-2.94 -13.05,-7.08 -25.14,4.24c-1.09,-3.13 -1.64,-5.5 -1.64,-5.5c13.21,-14.26 23.16,-9.77 27.43,-6.65c4.32,3.11 3.45,26.87 3.45,26.87Z" style="fill:#d6b496;fill-rule:nonzero;"/><path d="M133.39,141.09c0,4.6 -3.71,8.32 -8.29,8.32c-4.58,0 -8.3,-3.72 -8.3,-8.32c0,-4.59 3.72,-8.32 8.3,-8.32c4.58,0 8.29,3.73 8.29,8.32Z" style="fill:#482315;fill-rule:nonzero;"/><path d="M124.71,146.63c-2.39,-0.19 -4.23,-2.62 -4.01,-5.28c0.21,-2.67 2.42,-4.75 4.82,-4.55c2.39,0.19 4.23,2.62 4.02,5.28c-0.22,2.67 -2.43,4.76 -4.83,4.55Z" style="fill:#7e3a22;fill-rule:nonzero;"/><path d="M124.92,145.67c-1.67,-0.14 -3.4,-1.97 -3.21,-4.23c0.18,-2.27 2.19,-3.8 3.85,-3.66c1.67,0.14 3.4,1.98 3.21,4.24c-0.18,2.26 -2.19,3.79 -3.85,3.65Z" style="fill:#211a10;fill-rule:nonzero;"/><path d="M123.57,140.1c-0.07,0.81 -0.91,1.41 -1.86,1.33c-0.96,-0.08 -1.69,-0.81 -1.62,-1.62c0.07,-0.82 0.9,-1.42 1.86,-1.34c0.96,0.08 1.68,0.81 1.62,1.63Z" style="fill:#fff;fill-rule:nonzero;"/><path d="M128.95,144.82c-0.04,0.41 -0.46,0.71 -0.93,0.67c-0.48,-0.04 -0.84,-0.41 -0.81,-0.81c0.03,-0.41 0.45,-0.71 0.93,-0.67c0.48,0.04 0.84,0.4 0.81,0.81Z" style="fill:#fff;fill-rule:nonzero;"/><path d="M154.24,190.72" style="fill:#ba907b;fill-rule:nonzero;"/><path d="M154.24,190.72" style="fill:#ba907b;fill-rule:nonzero;"/><path d="M150.57,193.38c-0.1,-0.02 -0.2,-0.04 -0.31,-0.06c0.11,0.02 0.2,0.04 0.31,0.06Z" style="fill:#ba907b;fill-rule:nonzero;"/><path d="M154.24,193.19" style="fill:#ba907b;fill-rule:nonzero;"/><path d="M149.77,193.2c-0.1,-0.02 -0.18,-0.05 -0.28,-0.08l-0.01,0.01c0,0 0.11,0.03 0.29,0.07Z" style="fill:#ba907b;fill-rule:nonzero;"/><path d="M154.24,193.19" style="fill:#ba907b;fill-rule:nonzero;"/><path d="M154.13,190.35" style="fill:#bc917b;fill-rule:nonzero;"/><path d="M154.13,190.35" style="fill:#bc917b;fill-rule:nonzero;"/><path d="M150.2,192.81c-0.11,-0.02 -0.22,-0.04 -0.34,-0.07c0.11,0.03 0.21,0.05 0.34,0.07Z" style="fill:#bc917b;fill-rule:nonzero;"/><path d="M154.13,192.6" style="fill:#bc917b;fill-rule:nonzero;"/><path d="M149.33,192.62c-0.1,-0.03 -0.19,-0.06 -0.29,-0.08l-0.01,0c0,0 0.11,0.03 0.3,0.08Z" style="fill:#bc917b;fill-rule:nonzero;"/><path d="M154.13,192.6" style="fill:#bc917b;fill-rule:nonzero;"/><path d="M153.88,189.5" style="fill:#bc917b;fill-rule:nonzero;"/><path d="M153.88,189.5" style="fill:#bc917b;fill-rule:nonzero;"/><path d="M149.95,191.97c-0.11,-0.03 -0.22,-0.05 -0.33,-0.07c0.11,0.02 0.2,0.04 0.33,0.07Z" style="fill:#bc917b;fill-rule:nonzero;"/><path d="M153.88,191.76" style="fill:#bc917b;fill-rule:nonzero;"/><path d="M149.09,191.77c-0.11,-0.02 -0.2,-0.05 -0.3,-0.08l-0.01,0.01c0,0 0.11,0.03 0.31,0.07Z" style="fill:#bc917b;fill-rule:nonzero;"/><path d="M153.88,191.76" style="fill:#bc917b;fill-rule:nonzero;"/><path d="M154.52,189.29" style="fill:#bc917b;fill-rule:nonzero;"/><path d="M154.52,189.29" style="fill:#bc917b;fill-rule:nonzero;"/><path d="M150.72,191.85c-0.11,-0.02 -0.22,-0.04 -0.32,-0.07c0.1,0.03 0.2,0.05 0.32,0.07Z" style="fill:#bc917b;fill-rule:nonzero;"/><path d="M154.52,191.65" style="fill:#bc917b;fill-rule:nonzero;"/><path d="M149.89,191.67c-0.1,-0.03 -0.19,-0.06 -0.29,-0.09l-0.01,0.01c0,0 0.11,0.03 0.3,0.08Z" style="fill:#bc917b;fill-rule:nonzero;"/><path d="M154.52,191.65" style="fill:#bc917b;fill-rule:nonzero;"/><path d="M200.3,130.54c0,0 -4.91,20.19 -13.33,21.84c-8.43,1.65 -17.55,-1.63 -17.55,-1.63c0,0 -0.87,-23.73 3.44,-26.84c4.31,-3.11 14.25,-7.61 27.44,6.63Z" style="fill:#fff;fill-rule:nonzero;"/><path d="M169.41,150.69c0,0 0.19,0.06 0.62,0.24c0.11,-7.28 0.78,-17.28 3.48,-19.2c4,-2.94 13.05,-7.08 25.13,4.24c1.1,-3.12 1.65,-5.5 1.65,-5.5c-13.21,-14.26 -23.16,-9.77 -27.44,-6.65c-4.32,3.11 -3.44,26.87 -3.44,26.87Z" style="fill:#d6b496;fill-rule:nonzero;"/><path d="M174.4,140.41c0,4.59 3.71,8.32 8.29,8.32c4.58,0 8.29,-3.73 8.29,-8.32c0,-4.6 -3.71,-8.32 -8.29,-8.32c-4.58,0 -8.29,3.72 -8.29,8.32Z" style="fill:#482315;fill-rule:nonzero;"/><path d="M183.07,145.95c2.4,-0.2 4.24,-2.63 4.02,-5.29c-0.21,-2.67 -2.42,-4.75 -4.82,-4.55c-2.39,0.2 -4.23,2.62 -4.02,5.28c0.22,2.67 2.43,4.76 4.82,4.56Z" style="fill:#7e3a22;fill-rule:nonzero;"/><path d="M182.87,144.99c1.67,-0.15 3.4,-1.98 3.21,-4.24c-0.19,-2.27 -2.19,-3.8 -3.85,-3.66c-1.67,0.14 -3.4,1.98 -3.21,4.24c0.18,2.27 2.19,3.79 3.85,3.66Z" style="fill:#211a10;fill-rule:nonzero;"/><path d="M184.22,139.41c0.07,0.82 0.9,1.41 1.86,1.34c0.96,-0.09 1.68,-0.82 1.62,-1.63c-0.07,-0.82 -0.9,-1.42 -1.86,-1.34c-0.96,0.08 -1.69,0.81 -1.62,1.63Z" style="fill:#fff;fill-rule:nonzero;"/><path d="M178.84,144.14c0.04,0.4 0.45,0.7 0.93,0.66c0.48,-0.04 0.84,-0.41 0.81,-0.81c-0.03,-0.41 -0.45,-0.71 -0.93,-0.67c-0.48,0.04 -0.84,0.41 -0.81,0.82Z" style="fill:#fff;fill-rule:nonzero;"/><path d="M143.43,130.9c-0.06,-0.1 -1.59,-2.43 -4.72,-4.83c-1.96,-1.51 -3.88,-2.66 -5.87,-3.51c-2.42,-1.02 -5.02,-1.74 -7.55,-2.09c-2.28,-0.25 -4.81,-0.19 -7.77,0.21c-2.25,0.43 -4.45,1.1 -6.32,1.93c-1.33,0.46 -2.38,1.11 -3.22,1.62c-0.33,0.2 -0.62,0.38 -0.92,0.54l-4.02,2.54l4.64,-1.09c0.21,-0.05 0.45,-0.12 0.7,-0.18c0.96,-0.26 2.15,-0.58 3.55,-0.78c0.33,-0.05 0.66,-0.12 1,-0.18c0.59,-0.12 1.19,-0.24 1.82,-0.27c0.71,-0.05 1.43,-0.1 2.18,-0.16l0.98,-0.07c2.57,-0.03 4.74,0.17 6.66,0.61c2.11,0.37 4.28,1.05 6.26,1.97c1.88,0.9 3.68,1.79 5.08,2.83c2.83,1.89 4.41,3.48 4.42,3.49c0.39,0.4 0.91,0.6 1.44,0.6c0.38,0 0.76,-0.11 1.09,-0.33c0.94,-0.61 1.2,-1.88 0.61,-2.79l-0.04,-0.06Z" style="fill:#030405;fill-rule:nonzero;"/><path d="M201.13,124.76c-0.27,-0.15 -0.56,-0.33 -0.89,-0.53c-0.84,-0.51 -1.89,-1.16 -3.18,-1.6c-1.91,-0.85 -4.11,-1.52 -6.39,-1.95c-2.93,-0.4 -5.46,-0.47 -7.75,-0.21c-2.51,0.35 -5.12,1.07 -7.54,2.09c-1.97,0.84 -3.94,2.02 -5.87,3.51c-3.07,2.36 -4.6,4.65 -4.71,4.82l-0.03,0.05c-0.52,0.8 -0.41,1.87 0.26,2.54c0.38,0.39 0.89,0.6 1.43,0.6c0.54,0 1.05,-0.21 1.43,-0.6l0.01,-0.02c0.15,-0.14 1.68,-1.64 4.43,-3.49c1.38,-1.01 3.18,-1.91 5.05,-2.81c2,-0.92 4.16,-1.6 6.3,-1.97c1.9,-0.44 4.07,-0.63 6.6,-0.61l1.03,0.08c0.74,0.05 1.46,0.1 2.17,0.15c0.62,0.03 1.22,0.15 1.81,0.27c0.34,0.06 0.67,0.13 1,0.18c1.4,0.2 2.59,0.52 3.55,0.78c0.26,0.06 0.49,0.13 0.71,0.18l4.64,1.09l-4.06,-2.55Z" style="fill:#030405;fill-rule:nonzero;"/><path d="M152.95,198.67" style="fill:#be927b;fill-rule:nonzero;"/><path d="M152.95,198.67" style="fill:#be927b;fill-rule:nonzero;"/><path d="M149.12,195.77c-0.11,-0.02 -0.22,-0.04 -0.33,-0.07c0.11,0.03 0.2,0.05 0.33,0.07Z" style="fill:#be927b;fill-rule:nonzero;"/><path d="M152.95,195.57" style="fill:#be927b;fill-rule:nonzero;"/><path d="M148.28,195.59c-0.1,-0.03 -0.2,-0.06 -0.29,-0.09l-0.01,0.01c0,0 0.11,0.03 0.3,0.08Z" style="fill:#be927b;fill-rule:nonzero;"/><path d="M152.95,195.57" style="fill:#be927b;fill-rule:nonzero;"/><path d="M141.75,199.94c-0.24,-3.25 9.02,0.68 12.06,0.78c2.43,0.08 9.71,-0.49 10.39,-0.74c5.09,-1.91 -0.28,5.42 -10.54,5.81c-4.7,0.19 -11.77,-3.88 -11.91,-5.85Z" style="fill:#f0d2ad;fill-rule:nonzero;"/><path d="M171.9,193.68c-2.51,-0.12 -5.09,1.98 -8.12,1.66c-0.12,-0.06 -0.18,-0.06 -0.31,-0.06c-0.7,-0.13 -1.39,0 -2.14,0.18c-0.94,0.2 -1.89,0.58 -2.77,0.89c-1.51,0.49 -3.22,0.89 -4.97,0.75l0,0.01l-0.1,-0.01l-0.09,0.01l0,-0.01c-1.76,0.14 -3.46,-0.26 -4.97,-0.75c-0.89,-0.31 -1.83,-0.69 -2.77,-0.89c-0.76,-0.18 -1.45,-0.31 -2.14,-0.18c-0.13,0 -0.19,0 -0.31,0.06c-3.03,0.32 -5.61,-1.78 -8.12,-1.66c-0.7,0.06 -1.71,-0.12 -2.27,-0.12c0.12,0.06 0.25,0.12 0.38,0.18c7.17,3.51 13.35,10.07 20.2,9.86l0.19,0c6.85,0.21 13.03,-6.35 20.2,-9.86c0.13,-0.06 0.25,-0.12 0.38,-0.18c-0.57,0 -1.57,0.18 -2.27,0.12Z" style="fill:#dcbf9e;fill-rule:nonzero;"/><path d="M174.01,193.48c0,0 -7.29,-2.81 -12.47,-1.16c0,0 -1.93,0.75 -3.93,1.21c-1.22,0.48 -2.69,0.61 -4.12,0.56c-1.09,-0.05 -2.12,-0.19 -2.97,-0.33c-0.29,-0.05 -0.57,-0.11 -0.86,-0.17c-0.12,-0.02 -0.22,-0.04 -0.32,-0.07c-0.18,-0.04 -0.35,-0.07 -0.52,-0.12c-0.19,-0.04 -0.3,-0.07 -0.3,-0.07l0.01,-0.01c-1.66,-0.45 -3.08,-1 -3.08,-1c-5.18,-1.65 -12.47,1.16 -12.47,1.16c-0.1,0.05 -0.16,0.08 -0.16,0.08c0.56,0 1.57,0.18 2.27,0.12c2.51,-0.12 5.09,1.98 8.12,1.66c0.12,-0.06 0.18,-0.06 0.31,-0.06c0.69,-0.13 1.38,0 2.14,0.18c0.94,0.2 1.88,0.58 2.77,0.89c1.51,0.49 3.21,0.89 4.97,0.75l0,0.01l0.09,-0.01l0.1,0.01l0,-0.01c1.75,0.14 3.46,-0.26 4.97,-0.75c0.88,-0.31 1.83,-0.69 2.77,-0.89c0.75,-0.18 1.44,-0.31 2.14,-0.18c0.13,0 0.19,0 0.31,0.06c3.03,0.32 5.61,-1.78 8.12,-1.66c0.7,0.06 1.7,-0.12 2.27,-0.12c0,0 -0.06,-0.03 -0.16,-0.08Z" style="fill:#c69f83;fill-rule:nonzero;"/><path d="M141.26,195.19c0.13,0.04 13.65,4.17 24.22,0.09l-1.21,-0.82l-14.3,0l-8.71,0.73Z" style="fill:#c69f83;fill-rule:nonzero;"/><path d="M207.23,272.82l9.84,0c-0.6,-6.57 -7.34,-22.59 -7.34,-22.59c-0.69,-1 -1.38,-1.94 -2.09,-2.84c-9.64,-12.22 -21.04,-15.27 -24.32,-15.92c-7.58,9.99 -14.7,15.25 -21.17,17.42c-17.49,5.88 -30.23,-10.8 -34.49,-17.45c-1.28,0.24 -4.01,0.89 -7.46,2.45c-5.52,2.47 -12.88,7.24 -19.12,16.34c0,0 -0.06,0.1 -0.16,0.29c-1.01,1.87 -6.61,12.51 -8.95,22.3l11.64,0c0.15,12.83 -0.19,22.35 -0.52,27.53l104.64,0c-0.15,-2.32 -0.29,-5.51 -0.4,-9.47c-0.13,-4.89 -0.19,-10.97 -0.1,-18.06Z" style="fill:#617498;fill-rule:nonzero;"/><path d="M204.03,84.22c-14.31,-13.87 -35.34,-20.61 -35.34,-20.61l5.83,5.01c-3.49,-2.45 -9.71,-5.85 -20.09,-8.85c-14.78,-4.26 -24.35,0.49 -24.35,0.49c0,0 7.74,-0.24 11.51,2.54c-3.72,-1.48 -10.14,-2 -20.9,2.06c-21.03,7.93 -20.65,22.13 -35.28,26.49c-0.86,0.26 -1.68,0.48 -2.48,0.68c-4.64,1.13 -4,8.02 0.78,8.13c0.14,0.01 0.28,0.01 0.42,0.01c1.86,0 2.05,-0.04 2.06,-0.05c-0.01,0.04 -4.32,10.79 -5.15,18.81c-0.85,8.2 1.8,13.82 2.61,29.17c0.7,13.11 4.5,6.38 9.02,16.05c1.53,3.25 0.23,9.51 0.23,9.51c1.68,0.39 7.44,-10.49 4.28,-24.83c-0.18,-0.85 -0.27,-1.91 -0.25,-3.13c0.32,-23.22 33.06,-29.11 41.73,-7.57c0.73,1.83 1.39,3.84 1.97,6.07c0,0 1.41,-9.12 0.08,-19.18c-0.54,-4.12 4.14,-6.83 7.36,-4.27c8.1,6.42 16.69,16.87 16.88,32.41c0,0 11.67,-15.98 5.25,-34.22c-0.13,-0.37 -0.13,-0.71 -0.08,-1.02c0,0 1.53,-0.29 3.9,-0.4c7.25,-0.34 22.7,1.13 29.44,17.93c1.77,4.42 2.99,9.78 3.23,16.57l0.01,-0.02c-1.15,18.32 2.38,18.23 2.38,18.23c1.26,0 -0.09,-6.33 4.12,-10.69c4.2,-4.36 10.62,-19.06 10.62,-33.72c0,-14.68 -5.49,-27.72 -19.79,-41.6Z" style="fill:#3d3e3e;fill-rule:nonzero;"/><path d="M225.97,230.82c-2.23,22.86 6.51,30.18 7.22,31.03c-0.89,-0.85 -8.36,-7.71 -13.21,-14.21c-5.45,-7.33 -7.8,-14 -8.47,-20.34c-3.67,12.15 -20.48,30.49 -21.55,31.66c0.75,-1.89 21.87,-54.41 16.63,-100.75c-1.64,-14.52 7.38,-48.64 -18.96,-68.51c-12.43,-4.45 -21.5,-7.32 -34.55,-7.4c-34.34,-0.02 -47.97,23.4 -53.03,46.81c-5.14,23.78 -1.42,47.57 -1.54,46.79c1.1,6.83 2.77,19.5 5.26,25.39c4.63,30.46 14.68,55.38 15.18,56.65c-1.07,-1.14 -17.92,-19.49 -21.58,-31.68c-0.68,6.37 -2.99,12.99 -8.46,20.34c-4.82,6.5 -12.35,13.39 -13.23,14.24c0.71,-0.85 15.28,-33.97 7.27,-64.03c-1.01,-3.77 -4.07,-23.83 -4.33,-36.83c-0.26,-12.67 -3.72,-15.31 -0.18,-33.47c0,-13.27 5.57,-79.92 76.36,-79.92c34.95,0 54.04,17.17 64.35,35.99c10.37,18.86 11.98,39.37 11.98,45.97c-12.04,66.99 -4.64,97.21 -5.16,102.27Z" style="fill:#3d3e3e;fill-rule:nonzero;"/><path d="M73.01,150.31c0,0 -3.61,23.77 -11.8,23.36c0,0 22.07,9.58 28.69,-18.42c0,0 0,-26.12 -16.89,-4.94Z" style="fill:#3d3e3e;fill-rule:nonzero;"/><path d="M229.1,144.32c0,0 3.61,23.77 11.81,23.36c0,0 -22.07,9.58 -28.69,-18.42c0,0 0,-26.12 16.88,-4.94Z" style="fill:#3d3e3e;fill-rule:nonzero;"/><path d="M85.85,145.7c0,0 0.19,16.14 -20.86,44.28c0,0 20.11,-2.23 20.84,-28.52c0.01,-0.36 0.02,-0.73 0.02,-1.1c0.19,-27.32 0,-14.66 0,-14.66Z" style="fill:#3d3e3e;fill-rule:nonzero;"/><path d="M212.31,133.55c0,0 -0.19,16.13 20.86,44.27c0,0 -20.11,-2.23 -20.84,-28.51c-0.01,-0.37 -0.02,-0.73 -0.02,-1.1c-0.19,-27.33 0,-14.66 0,-14.66Z" style="fill:#3d3e3e;fill-rule:nonzero;"/><path d="M73.01,150.31c-4.14,-11.69 -3.4,-29.7 0.97,-53.01c1.05,-5.6 -5.25,-3.78 0.76,-15.49c6.01,-11.72 16.15,-30.13 27.05,-35.16c10.9,-5.01 30.42,-17.89 46.57,-17.1c16.15,0.79 34.18,2.46 46.21,9.57c12.02,7.12 28.55,20.51 30.8,24.7c2.25,4.18 -3.15,6.16 3.68,14.89c14.72,18.83 5.79,53.57 2.53,75.51c-1.31,8.78 -12.69,-41.23 -48.28,-50.59c-14.27,-3.74 -45.47,-8.09 -67.89,1.54c-32.79,14.06 -39.57,53.12 -42.4,45.14Z" style="fill:#ce1f4a;fill-rule:nonzero;"/><path d="M98.01,147.28c-0.11,-0.65 -0.2,-1.32 -0.26,-1.99c0.19,-2.52 0.46,-5.12 0.82,-7.75c2.83,-6.71 8.94,-10.98 15.66,-12.33c-2.13,1.47 -4.38,3.41 -6.73,5.95c0,0 0,0.02 0.01,0.04c-0.01,0.01 -0.02,0.02 -0.02,0.02c0,0 1.87,7.7 5.28,13.98c-5.04,0.43 -9.97,1.15 -14.76,2.08Zm48.2,-0.61c-2.6,-0.47 -5.19,-0.86 -7.76,-1.15c-0.01,-2.52 -0.09,-5.57 -0.3,-8.57c0.17,0.38 0.34,0.78 0.51,1.18c0.73,1.83 1.39,3.84 1.97,6.07c0,0 0.66,-4.27 0.65,-10.18c0.16,0.04 0.32,0.06 0.49,0.06c0.38,0 0.76,-0.11 1.09,-0.33c0.94,-0.61 1.2,-1.88 0.61,-2.79l-0.04,-0.06c-0.04,-0.07 -0.83,-1.26 -2.39,-2.8c-0.06,-0.71 -0.13,-1.42 -0.21,-2.13c4.74,1.91 7.82,5.29 7.82,11.24c0,3.11 -0.9,6.33 -2.44,9.46Z" style="fill:url(#_Linear2);"/><path d="M137.52,145.41c-1.7,-0.18 -3.4,-0.33 -5.08,-0.44c0.61,-1.16 0.95,-2.48 0.95,-3.88c0,-4.59 -3.71,-8.32 -8.29,-8.32c-4.58,0 -8.3,3.73 -8.3,8.32c0,1.36 0.33,2.64 0.9,3.77c-1.65,0.08 -3.3,0.2 -4.93,0.34c-3.41,-6.28 -5.28,-13.98 -5.28,-13.98c0,0 0.01,-0.01 0.02,-0.02c0.08,0.34 0.62,2.58 1.63,5.46c6.07,-5.68 11.37,-7.47 15.65,-7.47c4.25,0 7.5,1.76 9.49,3.23c1.98,1.4 2.87,7.15 3.24,12.99Z" style="fill:url(#_Linear3);"/><path d="M138.45,145.52c-0.31,-0.04 -0.62,-0.07 -0.93,-0.11c-0.37,-5.84 -1.26,-11.59 -3.24,-12.99c-1.99,-1.47 -5.24,-3.23 -9.49,-3.23c-4.28,0 -9.58,1.79 -15.65,7.47c-1.01,-2.88 -1.55,-5.12 -1.63,-5.46c-0.01,-0.02 -0.01,-0.04 -0.01,-0.04c2.35,-2.54 4.6,-4.48 6.73,-5.95c1.51,-0.3 3.06,-0.46 4.61,-0.46c7.71,0 15.42,3.84 19.31,12.2c0.21,3 0.29,6.05 0.3,8.57Z" style="fill:url(#_Linear4);"/><path d="M132.44,144.97c-1.17,-0.07 -2.33,-0.13 -3.49,-0.18c0,-0.16 -0.05,-0.31 -0.15,-0.43c0.41,-0.67 0.67,-1.45 0.74,-2.28c0.21,-2.66 -1.63,-5.09 -4.02,-5.28c-0.11,-0.01 -0.22,-0.02 -0.32,-0.02c-1.29,0 -2.5,0.65 -3.35,1.68c-0.02,0 -0.05,0 -0.07,0c-0.89,0 -1.63,0.58 -1.69,1.35c-0.04,0.49 0.21,0.96 0.64,1.27c-0.02,0.08 -0.03,0.17 -0.03,0.27c-0.1,1.24 0.24,2.44 0.89,3.38c-1.3,0.02 -2.6,0.07 -3.89,0.13c-0.57,-1.13 -0.9,-2.41 -0.9,-3.77c0,-4.59 3.72,-8.32 8.3,-8.32c4.58,0 8.29,3.73 8.29,8.32c0,1.4 -0.34,2.72 -0.95,3.88Z" style="fill:url(#_Linear5);"/><path d="M121.59,144.73c-0.65,-0.94 -0.99,-2.14 -0.89,-3.38c0,-0.1 0.01,-0.19 0.03,-0.27c0.27,0.19 0.6,0.32 0.98,0.35l0,0.01c-0.11,1.31 0.43,2.49 1.24,3.27c-0.46,0 -0.91,0.01 -1.36,0.02Zm7.21,-0.37c-0.14,-0.19 -0.38,-0.33 -0.66,-0.35c-0.03,0 -0.05,0 -0.08,0c0.39,-0.56 0.65,-1.23 0.71,-1.99c0.19,-2.26 -1.54,-4.1 -3.21,-4.24c-0.07,-0.01 -0.14,-0.01 -0.21,-0.01c-0.83,0 -1.71,0.39 -2.41,1.06c-0.27,-0.2 -0.61,-0.33 -0.99,-0.36c-0.03,0 -0.07,0 -0.1,-0.01c0.85,-1.03 2.06,-1.68 3.35,-1.68c0.1,0 0.21,0.01 0.32,0.02c2.39,0.19 4.23,2.62 4.02,5.28c-0.07,0.83 -0.33,1.61 -0.74,2.28Z" style="fill:url(#_Linear6);"/><path d="M127.21,144.74c-1.03,-0.03 -2.05,-0.04 -3.07,-0.04c-0.4,0 -0.8,0 -1.19,0.01c-0.81,-0.78 -1.35,-1.96 -1.24,-3.27l0,-0.01c0.05,0.01 0.11,0.01 0.17,0.01c0.88,0 1.63,-0.57 1.69,-1.34c0.04,-0.5 -0.21,-0.96 -0.63,-1.27c0.7,-0.67 1.58,-1.06 2.41,-1.06c0.07,0 0.14,0 0.21,0.01c1.67,0.14 3.4,1.98 3.21,4.24c-0.06,0.76 -0.32,1.43 -0.71,1.99l-0.01,0c-0.44,0 -0.81,0.29 -0.84,0.67c0,0.02 -0.01,0.04 0,0.06Z" style="fill:url(#_Linear7);"/><path d="M121.88,141.44c-0.06,0 -0.12,0 -0.17,-0.01c-0.38,-0.03 -0.71,-0.16 -0.98,-0.35c-0.43,-0.31 -0.68,-0.78 -0.64,-1.27c0.06,-0.77 0.8,-1.35 1.69,-1.35c0.02,0 0.05,0 0.07,0c0.03,0.01 0.07,0.01 0.1,0.01c0.38,0.03 0.72,0.16 0.99,0.36c0.42,0.31 0.67,0.77 0.63,1.27c-0.06,0.77 -0.81,1.34 -1.69,1.34Z" style="fill:url(#_Linear8);"/><path d="M128.95,144.79c-0.58,-0.02 -1.16,-0.04 -1.74,-0.05c-0.01,-0.02 0,-0.04 0,-0.06c0.03,-0.38 0.4,-0.67 0.84,-0.67l0.09,0c0.28,0.02 0.52,0.16 0.66,0.35c0.1,0.12 0.15,0.27 0.15,0.43Z" style="fill:url(#_Linear9);"/><path d="M141.77,134.08c-0.17,0 -0.33,-0.02 -0.49,-0.06c0,-1.84 -0.07,-3.84 -0.24,-5.92c1.56,1.54 2.35,2.73 2.39,2.8l0.04,0.06c0.59,0.91 0.33,2.18 -0.61,2.79c-0.33,0.22 -0.71,0.33 -1.09,0.33Z" style="fill:url(#_Linear10);"/><path d="M140.63,144.2c-0.58,-2.23 -1.24,-4.24 -1.97,-6.07c-0.17,-0.4 -0.34,-0.8 -0.51,-1.18c-3.89,-8.36 -11.6,-12.2 -19.31,-12.2c-1.55,0 -3.1,0.16 -4.61,0.46c-6.72,1.35 -12.83,5.62 -15.66,12.33c0.18,-1.27 0.37,-2.54 0.59,-3.82c2.91,-6.86 9.94,-10.21 21.28,-10.21c7.56,0 15.04,0.29 20.39,2.46c0.08,0.71 0.15,1.42 0.21,2.13c0.17,2.08 0.24,4.08 0.24,5.92c0.01,5.91 -0.65,10.18 -0.65,10.18Z" style="fill:url(#_Linear11);"/><path d="M97.75,145.29c-0.09,-0.95 -0.14,-1.93 -0.14,-2.91c0,-3.34 0.52,-6.22 1.55,-8.66c-0.22,1.28 -0.41,2.55 -0.59,3.82c-0.36,2.63 -0.63,5.23 -0.82,7.75Z" style="fill:url(#_Linear12);"/><path d="M161.01,145.8c-1.28,-2.85 -2.03,-5.77 -2.03,-8.59c0,-1.37 0.17,-2.6 0.48,-3.71c2.02,3.4 3.65,7.27 4.6,11.63c-1.03,0.22 -2.04,0.44 -3.05,0.67Zm44.43,-3.91c-2.96,-0.19 -5.9,-0.27 -8.81,-0.27c-0.06,0 -0.12,0 -0.18,0c2.5,-5.53 3.85,-11.08 3.85,-11.08c-0.01,-0.01 -0.01,-0.02 -0.02,-0.02c0.01,-0.03 0.01,-0.05 0.01,-0.05c-2.18,-2.35 -4.27,-4.19 -6.25,-5.61c0.42,0.05 0.84,0.13 1.25,0.22c0.34,0.06 0.67,0.13 1,0.18c0.2,0.03 0.39,0.06 0.58,0.09c2.58,2.52 4.87,5.81 6.59,10.1c0.78,1.95 1.45,4.08 1.98,6.44Z" style="fill:url(#_Linear13);"/><path d="M170.32,143.92c0.08,-1.02 0.17,-2.04 0.28,-3.02c0.57,-2.01 1.04,-4.21 1.3,-6.55c0.43,-1.24 0.96,-2.16 1.61,-2.62c1.99,-1.46 5.24,-3.23 9.49,-3.23c4.28,0 9.58,1.79 15.64,7.47c1.02,-2.88 1.56,-5.11 1.64,-5.45c0.01,0 0.01,0.01 0.02,0.02c0,0 -1.35,5.55 -3.85,11.08c-1.87,0 -3.73,0.04 -5.57,0.11c0.07,-0.43 0.1,-0.87 0.1,-1.32c0,-4.6 -3.71,-8.32 -8.29,-8.32c-4.58,0 -8.29,3.72 -8.29,8.32c0,0.98 0.17,1.92 0.48,2.79c-1.53,0.22 -3.05,0.46 -4.56,0.72Z" style="fill:url(#_Linear14);"/><path d="M169.57,144.06c0.36,-0.99 0.71,-2.05 1.03,-3.16c-0.11,0.98 -0.2,2 -0.28,3.02c-0.25,0.05 -0.5,0.09 -0.75,0.14Zm29.07,-8.09c-6.06,-5.68 -11.36,-7.47 -15.64,-7.47c-4.25,0 -7.5,1.77 -9.49,3.23c-0.65,0.46 -1.18,1.38 -1.61,2.62c0.15,-1.37 0.23,-2.78 0.23,-4.24c0.06,-0.04 0.13,-0.09 0.2,-0.14c1.38,-1.01 3.18,-1.91 5.05,-2.81c2,-0.92 4.16,-1.6 6.3,-1.97c1.78,-0.42 3.8,-0.61 6.14,-0.61c0.15,0 0.31,0 0.46,0l1.03,0.08c0.74,0.05 1.46,0.1 2.17,0.15c0.19,0.01 0.37,0.02 0.56,0.05c1.98,1.42 4.07,3.26 6.25,5.61c0,0 0,0.02 -0.01,0.05c-0.08,0.34 -0.62,2.57 -1.64,5.45Z" style="fill:url(#_Linear15);"/><path d="M174.88,143.2c-0.31,-0.87 -0.48,-1.81 -0.48,-2.79c0,-4.6 3.71,-8.32 8.29,-8.32c4.58,0 8.29,3.72 8.29,8.32c0,0.45 -0.03,0.89 -0.1,1.32c-1.29,0.05 -2.57,0.12 -3.84,0.2c0.07,-0.41 0.09,-0.84 0.05,-1.27c-0.01,-0.09 -0.02,-0.18 -0.03,-0.27c0.42,-0.31 0.68,-0.77 0.64,-1.27c-0.07,-0.77 -0.8,-1.35 -1.69,-1.35c-0.03,0 -0.05,0.01 -0.08,0.01c-0.84,-1.03 -2.05,-1.68 -3.34,-1.68c-0.1,0 -0.21,0 -0.32,0.01c-2.39,0.2 -4.23,2.62 -4.02,5.28c0.04,0.47 0.14,0.91 0.29,1.33c-1.23,0.15 -2.45,0.31 -3.66,0.48Z" style="fill:url(#_Linear16);"/><path d="M178.54,142.72c-0.15,-0.42 -0.25,-0.86 -0.29,-1.33c-0.21,-2.66 1.63,-5.08 4.02,-5.28c0.11,-0.01 0.22,-0.01 0.32,-0.01c1.29,0 2.5,0.65 3.34,1.68c-0.03,0 -0.06,0 -0.09,0c-0.38,0.03 -0.72,0.17 -0.99,0.36c-0.7,-0.67 -1.59,-1.06 -2.41,-1.06c-0.08,0 -0.15,0 -0.21,0.01c-1.67,0.14 -3.4,1.98 -3.21,4.24c0.03,0.47 0.15,0.9 0.32,1.29c-0.27,0.03 -0.54,0.07 -0.8,0.1Zm7.45,-0.72c0.09,-0.39 0.13,-0.82 0.09,-1.25c0.37,-0.04 0.71,-0.17 0.98,-0.36c0.01,0.09 0.02,0.18 0.03,0.27c0.04,0.43 0.02,0.86 -0.05,1.27c-0.35,0.02 -0.7,0.05 -1.05,0.07Z" style="fill:url(#_Linear17);"/><path d="M179.34,142.62c-0.17,-0.39 -0.29,-0.82 -0.32,-1.29c-0.19,-2.26 1.54,-4.1 3.21,-4.24c0.06,-0.01 0.13,-0.01 0.21,-0.01c0.82,0 1.71,0.39 2.41,1.06c-0.42,0.31 -0.67,0.77 -0.63,1.27c0.06,0.77 0.81,1.34 1.69,1.34c0.06,0 0.11,0 0.17,0c0.04,0.43 0,0.86 -0.09,1.25c-2.24,0.16 -4.46,0.37 -6.65,0.62Z" style="fill:url(#_Linear18);"/><path d="M185.91,140.75c-0.88,0 -1.63,-0.57 -1.69,-1.34c-0.04,-0.5 0.21,-0.96 0.63,-1.27c0.27,-0.19 0.61,-0.33 0.99,-0.36c0.03,0 0.06,0 0.09,0c0.03,0 0.05,-0.01 0.08,-0.01c0.89,0 1.62,0.58 1.69,1.35c0.04,0.5 -0.22,0.96 -0.64,1.27c-0.27,0.19 -0.61,0.32 -0.98,0.36c-0.06,0 -0.11,0 -0.17,0Z" style="fill:url(#_Linear19);"/><path d="M172.13,130.11c-0.01,-1.79 -0.16,-3.64 -0.48,-5.54c4.62,-0.91 10.06,-1.06 15.54,-1.06c3.19,0 6.04,0.27 8.55,0.8c0.38,0.33 0.76,0.68 1.13,1.04c-0.19,-0.03 -0.38,-0.06 -0.58,-0.09c-0.33,-0.05 -0.66,-0.12 -1,-0.18c-0.41,-0.09 -0.83,-0.17 -1.25,-0.22c-0.19,-0.03 -0.37,-0.04 -0.56,-0.05c-0.71,-0.05 -1.43,-0.1 -2.17,-0.15l-1.03,-0.08c-0.15,0 -0.31,0 -0.46,0c-2.34,0 -4.36,0.19 -6.14,0.61c-2.14,0.37 -4.3,1.05 -6.3,1.97c-1.87,0.9 -3.67,1.8 -5.05,2.81c-0.07,0.05 -0.14,0.1 -0.2,0.14Z" style="fill:url(#_Linear20);"/><path d="M164.06,145.13c-0.95,-4.36 -2.58,-8.23 -4.6,-11.63c1.45,-5.22 6.11,-7.73 12.19,-8.93c0.32,1.9 0.47,3.75 0.48,5.54c0,1.46 -0.08,2.87 -0.23,4.24c-0.26,2.34 -0.73,4.54 -1.3,6.55c-0.32,1.11 -0.67,2.17 -1.03,3.16c-1.86,0.33 -3.7,0.68 -5.51,1.07Zm42.66,-3.16c-0.43,-0.03 -0.85,-0.06 -1.28,-0.08c-0.53,-2.36 -1.2,-4.49 -1.98,-6.44c-1.72,-4.29 -4.01,-7.58 -6.59,-10.1c-0.37,-0.36 -0.75,-0.71 -1.13,-1.04c4.95,1.06 8.59,3.16 10.96,6.33c0.18,3.94 0.13,7.76 0.02,11.33Z" style="fill:url(#_Linear21);"/><path d="M210.02,142.24c-1.11,-0.1 -2.21,-0.19 -3.3,-0.27c0.11,-3.57 0.16,-7.39 -0.02,-11.33c2.2,2.94 3.3,6.8 3.32,11.6Z" style="fill:url(#_Linear22);"/><path d="M118.67,167.35c-10.38,0 -18.79,-8.49 -20.66,-20.07c4.79,-0.93 9.72,-1.65 14.76,-2.08c2.12,3.89 4.83,7.24 8.05,7.87c1.7,0.33 3.42,0.46 5.09,0.46c6.64,0 12.46,-2.09 12.46,-2.09c0,0 0,-0.02 0,-0.06l0.01,0c0,0 0.09,-2.44 0.07,-5.86c2.57,0.29 5.16,0.68 7.76,1.15c-5.34,10.91 -18.34,20.68 -27.54,20.68Z" style="fill:url(#_Linear23);"/><path d="M125.91,153.53c-1.67,0 -3.39,-0.13 -5.09,-0.46c-3.22,-0.63 -5.93,-3.98 -8.05,-7.87c1.63,-0.14 3.28,-0.26 4.93,-0.34c1.37,2.7 4.17,4.55 7.4,4.55c3.18,0 5.95,-1.8 7.34,-4.44c1.68,0.11 3.38,0.26 5.08,0.44c0.14,2.13 0.21,4.26 0.24,6.21c0.37,-0.16 0.57,-0.22 0.61,-0.24c0,0.04 0,0.06 0,0.06c0,0 -5.82,2.09 -12.46,2.09Z" style="fill:url(#_Linear24);"/><path d="M137.76,151.62c-0.03,-1.95 -0.1,-4.08 -0.24,-6.21c0.31,0.04 0.62,0.07 0.93,0.11c0.02,3.42 -0.07,5.86 -0.07,5.86l-0.01,0c-0.04,0.02 -0.24,0.08 -0.61,0.24Z" style="fill:url(#_Linear25);"/><path d="M125.1,149.41c-3.23,0 -6.03,-1.85 -7.4,-4.55c1.29,-0.06 2.59,-0.11 3.89,-0.13c0.73,1.06 1.85,1.8 3.12,1.9c0.11,0.01 0.22,0.02 0.32,0.02c1.06,0 2.07,-0.45 2.87,-1.18c0.04,0.01 0.08,0.02 0.12,0.02c0.03,0 0.06,0 0.08,0c0.44,0 0.81,-0.29 0.85,-0.67c0,-0.01 0,-0.02 0,-0.03c1.16,0.05 2.32,0.11 3.49,0.18c-1.39,2.64 -4.16,4.44 -7.34,4.44Z" style="fill:url(#_Linear26);"/><path d="M125.03,146.65c-0.1,0 -0.21,-0.01 -0.32,-0.02c-1.27,-0.1 -2.39,-0.84 -3.12,-1.9c0.45,-0.01 0.9,-0.02 1.36,-0.02c0.57,0.55 1.28,0.9 1.97,0.96c0.07,0.01 0.14,0.01 0.21,0.01c0.71,0 1.46,-0.28 2.1,-0.79c0.07,0.28 0.33,0.51 0.67,0.58c-0.8,0.73 -1.81,1.18 -2.87,1.18Z" style="fill:url(#_Linear27);"/><path d="M125.13,145.68c-0.07,0 -0.14,0 -0.21,-0.01c-0.69,-0.06 -1.4,-0.41 -1.97,-0.96c0.39,-0.01 0.79,-0.01 1.19,-0.01c1.02,0 2.04,0.01 3.07,0.04c0,0.05 0,0.1 0.02,0.15c-0.64,0.51 -1.39,0.79 -2.1,0.79Z" style="fill:url(#_Linear28);"/><path d="M128.1,145.49c-0.02,0 -0.05,0 -0.08,0c-0.04,0 -0.08,-0.01 -0.12,-0.02c-0.34,-0.07 -0.6,-0.3 -0.67,-0.58c-0.02,-0.05 -0.02,-0.1 -0.02,-0.15c0.58,0.01 1.16,0.03 1.74,0.05c0,0.01 0,0.02 0,0.03c-0.04,0.38 -0.41,0.67 -0.85,0.67Z" style="fill:url(#_Linear29);"/><path d="M188.91,167.35c-7.41,0 -17.33,-6.39 -23.67,-14.61c0.69,-1.03 2.5,-3.93 4.1,-8.07c-0.03,3.5 0.07,6.02 0.07,6.02l0.01,0c0,0.04 0,0.06 0,0.06c0,0 5.82,2.1 12.46,2.1c1.67,0 3.39,-0.14 5.09,-0.47c4,-0.78 7.21,-5.76 9.48,-10.76c0.06,0 0.12,0 0.18,0c2.91,0 5.85,0.08 8.81,0.27c0.47,2.05 0.82,4.28 1.04,6.71c-0.1,2.92 -0.16,5.57 -0.03,7.85c-3.76,6.62 -10.14,10.9 -17.54,10.9Z" style="fill:url(#_Linear30);"/><path d="M181.88,152.85c-6.64,0 -12.46,-2.1 -12.46,-2.1c0,0 0,-0.02 0,-0.06c0.04,0.02 0.23,0.08 0.61,0.24c0.04,-2.19 0.12,-4.62 0.29,-7.01c1.51,-0.26 3.03,-0.5 4.56,-0.72c1.14,3.22 4.21,5.53 7.81,5.53c4.13,0 7.56,-3.03 8.19,-7c1.84,-0.07 3.7,-0.11 5.57,-0.11c-2.27,5 -5.48,9.98 -9.48,10.76c-1.7,0.33 -3.42,0.47 -5.09,0.47Z" style="fill:url(#_Linear31);"/><path d="M170.03,150.93c-0.38,-0.16 -0.57,-0.22 -0.61,-0.24l-0.01,0c0,0 -0.1,-2.52 -0.07,-6.02c0.08,-0.2 0.15,-0.41 0.23,-0.61c0.25,-0.05 0.5,-0.09 0.75,-0.14c-0.17,2.39 -0.25,4.82 -0.29,7.01Z" style="fill:url(#_Linear32);"/><path d="M182.69,148.73c-3.6,0 -6.67,-2.31 -7.81,-5.53c1.21,-0.17 2.43,-0.33 3.66,-0.48c0.11,0.33 0.27,0.65 0.44,0.95c-0.1,0.13 -0.15,0.3 -0.14,0.47c0.03,0.38 0.4,0.66 0.84,0.66c0.03,0 0.06,0 0.09,0c0.04,0 0.08,-0.01 0.12,-0.02c0.79,0.74 1.8,1.18 2.86,1.18c0.11,0 0.22,0 0.32,-0.01c2.01,-0.17 3.63,-1.9 3.97,-4.02c1.27,-0.08 2.55,-0.15 3.84,-0.2c-0.63,3.97 -4.06,7 -8.19,7Z" style="fill:url(#_Linear33);"/><path d="M182.75,145.96c-1.06,0 -2.07,-0.44 -2.86,-1.18c0.34,-0.06 0.6,-0.29 0.67,-0.57c0.64,0.5 1.39,0.78 2.1,0.78c0.07,0 0.14,0 0.21,0c1.34,-0.12 2.73,-1.34 3.12,-2.99c0.35,-0.02 0.7,-0.05 1.05,-0.07c-0.34,2.12 -1.96,3.85 -3.97,4.02c-0.1,0.01 -0.21,0.01 -0.32,0.01Zm-3.77,-2.29c-0.17,-0.3 -0.33,-0.62 -0.44,-0.95c0.26,-0.03 0.53,-0.07 0.8,-0.1c0.11,0.25 0.24,0.48 0.39,0.7c-0.03,0 -0.05,0 -0.08,0c-0.28,0.03 -0.52,0.16 -0.67,0.35Z" style="fill:url(#_Linear34);"/><path d="M182.66,144.99c-0.71,0 -1.46,-0.28 -2.1,-0.78c0.02,-0.07 0.03,-0.15 0.02,-0.22c-0.03,-0.38 -0.4,-0.67 -0.84,-0.67l-0.01,0c-0.15,-0.22 -0.28,-0.45 -0.39,-0.7c2.19,-0.25 4.41,-0.46 6.65,-0.62c-0.39,1.65 -1.78,2.87 -3.12,2.99c-0.07,0 -0.14,0 -0.21,0Z" style="fill:url(#_Linear35);"/><path d="M179.68,144.8c-0.44,0 -0.81,-0.28 -0.84,-0.66c-0.01,-0.17 0.04,-0.34 0.14,-0.47c0.15,-0.19 0.39,-0.32 0.67,-0.35l0.09,0c0.44,0 0.81,0.29 0.84,0.67c0.01,0.07 0,0.15 -0.02,0.22c-0.07,0.28 -0.33,0.51 -0.67,0.57c-0.04,0.01 -0.08,0.02 -0.12,0.02c-0.03,0 -0.06,0 -0.09,0Z" style="fill:url(#_Linear36);"/><path d="M164.93,152.34c-1.57,-2.09 -2.91,-4.29 -3.92,-6.54c1.01,-0.23 2.02,-0.45 3.05,-0.67c0.49,2.27 0.79,4.67 0.87,7.21Z" style="fill:url(#_Linear37);"/><path d="M165.24,152.74c-0.1,-0.13 -0.21,-0.27 -0.31,-0.4c-0.08,-2.54 -0.38,-4.94 -0.87,-7.21c1.81,-0.39 3.65,-0.74 5.51,-1.07c-0.08,0.2 -0.15,0.41 -0.23,0.61c-1.6,4.14 -3.41,7.04 -4.1,8.07Zm41.24,-4.14c-0.22,-2.43 -0.57,-4.66 -1.04,-6.71c0.43,0.02 0.85,0.05 1.28,0.08c-0.07,2.32 -0.17,4.55 -0.24,6.63Z" style="fill:url(#_Linear38);"/><path d="M206.45,156.45c-0.13,-2.28 -0.07,-4.93 0.03,-7.85c0.07,-2.08 0.17,-4.31 0.24,-6.63c1.09,0.08 2.19,0.17 3.3,0.27l0,0.14c0,5.25 -1.31,10.09 -3.57,14.07Z" style="fill:url(#_Linear39);"/><path d="M188.91,167.35c-11.8,0 -29.93,-16.19 -29.93,-30.14c0,-12.66 13.96,-13.7 28.21,-13.7c15.33,0 22.83,6.16 22.83,18.87c0,13.99 -9.26,24.97 -21.11,24.97Zm-35.1,-35.4c-2.84,0 -4.09,0.82 -4.6,2.54c-0.48,-2.84 -1.77,-4.99 -3.66,-6.63c6.67,1.98 14.16,0.56 16.53,0c-1.98,1.77 -3.31,4.09 -3.7,7.24c-0.52,-1.81 -1.64,-3.15 -4.57,-3.15Zm-35.1,35.4c-11.84,0 -21.1,-10.98 -21.1,-24.97c0,-12.71 7.5,-18.87 22.83,-18.87c14.3,0 28.21,1.04 28.21,13.7c0,1.25 -0.18,2.5 -0.43,3.74c-0.13,0.35 -0.22,0.69 -0.22,0.69c-3.36,12.97 -18.78,25.71 -29.29,25.71Zm68.48,-44.66c-7.97,0 -17.31,0.18 -23.17,3.75c-11.97,3.36 -20.33,0.04 -20.33,0.04c-5.94,-3.61 -15.29,-3.79 -23.25,-3.79c-14.86,0 -23.6,5.65 -23.6,19.69c0,14.08 9.21,25.84 21.87,25.84c11.25,0 26.71,-13.36 30.07,-26.15l0,-0.04c0.43,-1.64 0.68,-3.27 0.68,-4.82l0,-0.09c0.74,-2.19 2.2,-3.14 4.35,-3.14c2.16,0 3.62,0.9 4.4,3.18l0,0.05c0,1.51 0.26,3.1 0.64,4.69l0,0.17l0.05,0c3.35,12.79 18.77,26.15 30.01,26.15c12.71,0 21.92,-11.76 21.92,-25.84c0,-14.04 -8.74,-19.69 -23.64,-19.69Z" style="fill:#7f76b7;fill-rule:nonzero;"/><path d="M141.77,292.12l-14.05,-16.77l14.05,-17.34l19.54,0l-15.37,17.41l13.83,16.7l-18,0Z" style="fill:#f0f0f0;fill-rule:nonzero;"/><path d="M185.89,280.69l-4.63,-5.53l4.63,-5.71l6.44,0l-5.06,5.73l4.55,5.51l-5.93,0Z" style="fill:#f0f0f0;fill-rule:nonzero;"/></g><defs><linearGradient id="_Linear2" x1="0" y1="0" x2="1" y2="0" gradientUnits="userSpaceOnUse" gradientTransform="matrix(1.53167,45.9489,-45.9489,1.53167,122.39,117.72)"><stop offset="0" style="stop-color:#efdecc;stop-opacity:1"/><stop offset="1" style="stop-color:#5a4f47;stop-opacity:1"/></linearGradient><linearGradient id="_Linear3" x1="0" y1="0" x2="1" y2="0" gradientUnits="userSpaceOnUse" gradientTransform="matrix(1.53167,45.9489,-45.9489,1.53167,122.39,117.72)"><stop offset="0" style="stop-color:#fff;stop-opacity:1"/><stop offset="1" style="stop-color:#5f5d5d;stop-opacity:1"/></linearGradient><linearGradient id="_Linear4" x1="0" y1="0" x2="1" y2="0" gradientUnits="userSpaceOnUse" gradientTransform="matrix(1.53167,45.9489,-45.9489,1.53167,122.39,117.72)"><stop offset="0" style="stop-color:#ead9ca;stop-opacity:1"/><stop offset="1" style="stop-color:#584e46;stop-opacity:1"/></linearGradient><linearGradient id="_Linear5" x1="0" y1="0" x2="1" y2="0" gradientUnits="userSpaceOnUse" gradientTransform="matrix(1.53167,45.9489,-45.9489,1.53167,122.39,117.72)"><stop offset="0" style="stop-color:#997f73;stop-opacity:1"/><stop offset="1" style="stop-color:#26160f;stop-opacity:1"/></linearGradient><linearGradient id="_Linear6" x1="0" y1="0" x2="1" y2="0" gradientUnits="userSpaceOnUse" gradientTransform="matrix(1.53167,45.9489,-45.9489,1.53167,122.39,117.72)"><stop offset="0" style="stop-color:#b8907c;stop-opacity:1"/><stop offset="1" style="stop-color:#3e261c;stop-opacity:1"/></linearGradient><linearGradient id="_Linear7" x1="0" y1="0" x2="1" y2="0" gradientUnits="userSpaceOnUse" gradientTransform="matrix(1.53167,45.9489,-45.9489,1.53167,122.39,117.72)"><stop offset="0" style="stop-color:#817873;stop-opacity:1"/><stop offset="1" style="stop-color:#120e0a;stop-opacity:1"/></linearGradient><linearGradient id="_Linear8" x1="0" y1="0" x2="1" y2="0" gradientUnits="userSpaceOnUse" gradientTransform="matrix(1.53167,45.9489,-45.9489,1.53167,122.39,117.72)"><stop offset="0" style="stop-color:#fff;stop-opacity:1"/><stop offset="1" style="stop-color:#5f5d5d;stop-opacity:1"/></linearGradient><linearGradient id="_Linear9" x1="0" y1="0" x2="1" y2="0" gradientUnits="userSpaceOnUse" gradientTransform="matrix(1.53167,45.9489,-45.9489,1.53167,122.39,117.72)"><stop offset="0" style="stop-color:#fff;stop-opacity:1"/><stop offset="1" style="stop-color:#5f5d5d;stop-opacity:1"/></linearGradient><linearGradient id="_Linear10" x1="0" y1="0" x2="1" y2="0" gradientUnits="userSpaceOnUse" gradientTransform="matrix(1.53167,45.9489,-45.9489,1.53167,122.39,117.72)"><stop offset="0" style="stop-color:#726f6f;stop-opacity:1"/><stop offset="1" style="stop-color:#040505;stop-opacity:1"/></linearGradient><linearGradient id="_Linear11" x1="0" y1="0" x2="1" y2="0" gradientUnits="userSpaceOnUse" gradientTransform="matrix(1.53167,45.9489,-45.9489,1.53167,122.39,117.72)"><stop offset="0" style="stop-color:#918e8e;stop-opacity:1"/><stop offset="1" style="stop-color:#232424;stop-opacity:1"/></linearGradient><linearGradient id="_Linear12" x1="0" y1="0" x2="1" y2="0" gradientUnits="userSpaceOnUse" gradientTransform="matrix(1.53167,45.9489,-45.9489,1.53167,122.39,117.72)"><stop offset="0" style="stop-color:#918e8e;stop-opacity:1"/><stop offset="1" style="stop-color:#232424;stop-opacity:1"/></linearGradient><linearGradient id="_Linear13" x1="0" y1="0" x2="1" y2="0" gradientUnits="userSpaceOnUse" gradientTransform="matrix(1.53167,45.949,-45.949,1.53167,183.7,115.68)"><stop offset="0" style="stop-color:#f9e8d6;stop-opacity:1"/><stop offset="1" style="stop-color:#5d534b;stop-opacity:1"/></linearGradient><linearGradient id="_Linear14" x1="0" y1="0" x2="1" y2="0" gradientUnits="userSpaceOnUse" gradientTransform="matrix(1.53167,45.949,-45.949,1.53167,183.7,115.68)"><stop offset="0" style="stop-color:#fff;stop-opacity:1"/><stop offset="1" style="stop-color:#5f5d5d;stop-opacity:1"/></linearGradient><linearGradient id="_Linear15" x1="0" y1="0" x2="1" y2="0" gradientUnits="userSpaceOnUse" gradientTransform="matrix(1.53167,45.949,-45.949,1.53167,183.7,115.68)"><stop offset="0" style="stop-color:#ead9ca;stop-opacity:1"/><stop offset="1" style="stop-color:#584e46;stop-opacity:1"/></linearGradient><linearGradient id="_Linear16" x1="0" y1="0" x2="1" y2="0" gradientUnits="userSpaceOnUse" gradientTransform="matrix(1.53167,45.949,-45.949,1.53167,183.7,115.68)"><stop offset="0" style="stop-color:#997f73;stop-opacity:1"/><stop offset="1" style="stop-color:#26160f;stop-opacity:1"/></linearGradient><linearGradient id="_Linear17" x1="0" y1="0" x2="1" y2="0" gradientUnits="userSpaceOnUse" gradientTransform="matrix(1.53167,45.949,-45.949,1.53167,183.7,115.68)"><stop offset="0" style="stop-color:#b8907c;stop-opacity:1"/><stop offset="1" style="stop-color:#3e261c;stop-opacity:1"/></linearGradient><linearGradient id="_Linear18" x1="0" y1="0" x2="1" y2="0" gradientUnits="userSpaceOnUse" gradientTransform="matrix(1.53167,45.949,-45.949,1.53167,183.7,115.68)"><stop offset="0" style="stop-color:#817873;stop-opacity:1"/><stop offset="1" style="stop-color:#120e0a;stop-opacity:1"/></linearGradient><linearGradient id="_Linear19" x1="0" y1="0" x2="1" y2="0" gradientUnits="userSpaceOnUse" gradientTransform="matrix(1.53167,45.949,-45.949,1.53167,183.7,115.68)"><stop offset="0" style="stop-color:#fff;stop-opacity:1"/><stop offset="1" style="stop-color:#5f5d5d;stop-opacity:1"/></linearGradient><linearGradient id="_Linear20" x1="0" y1="0" x2="1" y2="0" gradientUnits="userSpaceOnUse" gradientTransform="matrix(1.53167,45.949,-45.949,1.53167,183.7,115.68)"><stop offset="0" style="stop-color:#726f6f;stop-opacity:1"/><stop offset="1" style="stop-color:#040505;stop-opacity:1"/></linearGradient><linearGradient id="_Linear21" x1="0" y1="0" x2="1" y2="0" gradientUnits="userSpaceOnUse" gradientTransform="matrix(1.53167,45.949,-45.949,1.53167,183.7,115.68)"><stop offset="0" style="stop-color:#918e8e;stop-opacity:1"/><stop offset="1" style="stop-color:#232424;stop-opacity:1"/></linearGradient><linearGradient id="_Linear22" x1="0" y1="0" x2="1" y2="0" gradientUnits="userSpaceOnUse" gradientTransform="matrix(1.53167,45.949,-45.949,1.53167,183.7,115.68)"><stop offset="0" style="stop-color:#918e8e;stop-opacity:1"/><stop offset="1" style="stop-color:#232424;stop-opacity:1"/></linearGradient><linearGradient id="_Linear23" x1="0" y1="0" x2="1" y2="0" gradientUnits="userSpaceOnUse" gradientTransform="matrix(1.53167,45.9489,-45.9489,1.53167,122.39,117.72)"><stop offset="0" style="stop-color:#ebe4da;stop-opacity:1"/><stop offset="1" style="stop-color:#9e9690;stop-opacity:1"/></linearGradient><linearGradient id="_Linear24" x1="0" y1="0" x2="1" y2="0" gradientUnits="userSpaceOnUse" gradientTransform="matrix(1.53167,45.9489,-45.9489,1.53167,122.39,117.72)"><stop offset="0" style="stop-color:#f2f3f1;stop-opacity:1"/><stop offset="1" style="stop-color:#a19f9f;stop-opacity:1"/></linearGradient><linearGradient id="_Linear25" x1="0" y1="0" x2="1" y2="0" gradientUnits="userSpaceOnUse" gradientTransform="matrix(1.53167,45.9489,-45.9489,1.53167,122.39,117.72)"><stop offset="0" style="stop-color:#e8e1d9;stop-opacity:1"/><stop offset="1" style="stop-color:#9c948f;stop-opacity:1"/></linearGradient><linearGradient id="_Linear26" x1="0" y1="0" x2="1" y2="0" gradientUnits="userSpaceOnUse" gradientTransform="matrix(1.53167,45.9489,-45.9489,1.53167,122.39,117.72)"><stop offset="0" style="stop-color:#c1b4ad;stop-opacity:1"/><stop offset="1" style="stop-color:#7f736d;stop-opacity:1"/></linearGradient><linearGradient id="_Linear27" x1="0" y1="0" x2="1" y2="0" gradientUnits="userSpaceOnUse" gradientTransform="matrix(1.53167,45.9489,-45.9489,1.53167,122.39,117.72)"><stop offset="0" style="stop-color:#d1beb1;stop-opacity:1"/><stop offset="1" style="stop-color:#8b7a71;stop-opacity:1"/></linearGradient><linearGradient id="_Linear28" x1="0" y1="0" x2="1" y2="0" gradientUnits="userSpaceOnUse" gradientTransform="matrix(1.53167,45.9489,-45.9489,1.53167,122.39,117.72)"><stop offset="0" style="stop-color:#b3afac;stop-opacity:1"/><stop offset="1" style="stop-color:#736f6c;stop-opacity:1"/></linearGradient><linearGradient id="_Linear29" x1="0" y1="0" x2="1" y2="0" gradientUnits="userSpaceOnUse" gradientTransform="matrix(1.53167,45.9489,-45.9489,1.53167,122.39,117.72)"><stop offset="0" style="stop-color:#f2f3f1;stop-opacity:1"/><stop offset="1" style="stop-color:#a19f9f;stop-opacity:1"/></linearGradient><linearGradient id="_Linear30" x1="0" y1="0" x2="1" y2="0" gradientUnits="userSpaceOnUse" gradientTransform="matrix(1.53167,45.949,-45.949,1.53167,183.7,115.68)"><stop offset="0" style="stop-color:#eee8df;stop-opacity:1"/><stop offset="1" style="stop-color:#9f9993;stop-opacity:1"/></linearGradient><linearGradient id="_Linear31" x1="0" y1="0" x2="1" y2="0" gradientUnits="userSpaceOnUse" gradientTransform="matrix(1.53167,45.949,-45.949,1.53167,183.7,115.68)"><stop offset="0" style="stop-color:#f2f3f1;stop-opacity:1"/><stop offset="1" style="stop-color:#a19f9f;stop-opacity:1"/></linearGradient><linearGradient id="_Linear32" x1="0" y1="0" x2="1" y2="0" gradientUnits="userSpaceOnUse" gradientTransform="matrix(1.53167,45.949,-45.949,1.53167,183.7,115.68)"><stop offset="0" style="stop-color:#e8e1d9;stop-opacity:1"/><stop offset="1" style="stop-color:#9c948f;stop-opacity:1"/></linearGradient><linearGradient id="_Linear33" x1="0" y1="0" x2="1" y2="0" gradientUnits="userSpaceOnUse" gradientTransform="matrix(1.53167,45.949,-45.949,1.53167,183.7,115.68)"><stop offset="0" style="stop-color:#c1b4ad;stop-opacity:1"/><stop offset="1" style="stop-color:#7f736d;stop-opacity:1"/></linearGradient><linearGradient id="_Linear34" x1="0" y1="0" x2="1" y2="0" gradientUnits="userSpaceOnUse" gradientTransform="matrix(1.53167,45.949,-45.949,1.53167,183.7,115.68)"><stop offset="0" style="stop-color:#d1beb1;stop-opacity:1"/><stop offset="1" style="stop-color:#8b7a71;stop-opacity:1"/></linearGradient><linearGradient id="_Linear35" x1="0" y1="0" x2="1" y2="0" gradientUnits="userSpaceOnUse" gradientTransform="matrix(1.53167,45.949,-45.949,1.53167,183.7,115.68)"><stop offset="0" style="stop-color:#b3afac;stop-opacity:1"/><stop offset="1" style="stop-color:#736f6c;stop-opacity:1"/></linearGradient><linearGradient id="_Linear36" x1="0" y1="0" x2="1" y2="0" gradientUnits="userSpaceOnUse" gradientTransform="matrix(1.53167,45.949,-45.949,1.53167,183.7,115.68)"><stop offset="0" style="stop-color:#f2f3f1;stop-opacity:1"/><stop offset="1" style="stop-color:#a19f9f;stop-opacity:1"/></linearGradient><linearGradient id="_Linear37" x1="0" y1="0" x2="1" y2="0" gradientUnits="userSpaceOnUse" gradientTransform="matrix(1.53167,45.949,-45.949,1.53167,183.7,115.68)"><stop offset="0" style="stop-color:#eee8df;stop-opacity:1"/><stop offset="1" style="stop-color:#9f9993;stop-opacity:1"/></linearGradient><linearGradient id="_Linear38" x1="0" y1="0" x2="1" y2="0" gradientUnits="userSpaceOnUse" gradientTransform="matrix(1.53167,45.949,-45.949,1.53167,183.7,115.68)"><stop offset="0" style="stop-color:#bcbaba;stop-opacity:1"/><stop offset="1" style="stop-color:#7b7878;stop-opacity:1"/></linearGradient><linearGradient id="_Linear39" x1="0" y1="0" x2="1" y2="0" gradientUnits="userSpaceOnUse" gradientTransform="matrix(1.53167,45.949,-45.949,1.53167,183.7,115.68)"><stop offset="0" style="stop-color:#bcbaba;stop-opacity:1"/><stop offset="1" style="stop-color:#7b7878;stop-opacity:1"/></linearGradient></defs></svg>