<?xml version="1.0" encoding="UTF-8" standalone="no"?><!DOCTYPE svg PUBLIC "-//W3C//DTD SVG 1.1//EN" "http://www.w3.org/Graphics/SVG/1.1/DTD/svg11.dtd"><svg width="100%" height="100%" viewBox="0 0 300 300" version="1.1" xmlns="http://www.w3.org/2000/svg" xmlns:xlink="http://www.w3.org/1999/xlink" xml:space="preserve" style="fill-rule:evenodd;clip-rule:evenodd;stroke-linejoin:round;stroke-miterlimit:1.41421;"><g id="_24"><rect x="0.27" y="0.275" width="299.36" height="299.705" style="fill:#7a6a64;fill-rule:nonzero;"/><path d="M137.67,75.303l-0.27,0.267l0.05,0.089c0.09,-0.134 0.13,-0.267 0.22,-0.356Z" style="fill:#432e1b;fill-rule:nonzero;"/><path d="M213.28,207.73c1.82,2.17 9.39,5.38 9.39,5.38c0,0 -4.9,-2.21 -6.55,-10.6c-0.6,-3.06 -0.9,-4.8 -0.95,-6.03l-1.09,0c3.82,-5.72 5.95,-12.1 5.95,-18.85c0,-8.74 -2.26,-16.82 -8.45,-23.67c0.21,1.97 -1.18,6.04 -1.18,8.07c0,20.64 -11.42,36.09 -28.39,44.75c0.79,-2.28 1.26,-4.89 1.26,-7.7c0,-5.26 -1.59,-9.89 -4.01,-12.67c-3.98,-6.18 -12.03,-0.95 -21.34,-0.94c-9.32,-0.01 -17.37,-5.24 -21.35,0.94c-2.42,2.78 -4.01,7.41 -4.01,12.67c0,2.81 0.47,5.42 1.26,7.7c-16.97,-8.66 -28.39,-24.11 -28.39,-44.75c0,-2.03 -1.39,-6.1 -1.18,-8.07c-6.19,6.85 -8.46,14.93 -8.46,23.67c0,6.75 2.14,13.13 5.96,18.85l-1.09,0c-0.05,1.23 -0.35,2.97 -0.96,6.03c-1.64,8.39 -6.54,10.6 -6.54,10.6c0,0 7.57,-3.21 9.39,-5.38c0.89,-1.06 3.26,-3.99 3.97,-4.87l0.05,0.07c-0.41,0.96 -1.41,4.09 -0.01,10.11c1.83,7.87 9.33,13.17 9.33,13.17c0,0 -4.5,-6.26 -3.25,-13.1c0,0 -0.27,2.74 7.04,10.37c6.99,7.3 19.75,16.13 20.86,16.22c-0.1,-0.23 -0.23,-8.74 -0.32,-11.84c5.33,1.61 10.89,2.53 16.67,2.53c0.34,0 0.68,-0.01 1.03,-0.02c0.34,0.01 0.68,0.02 1.02,0.02c5.78,0 11.34,-0.92 16.67,-2.53c-0.09,3.1 -0.22,13.5 -0.32,13.74c1.11,-0.09 13.87,-10.82 20.86,-18.12c7.31,-7.63 7.04,-10.37 7.04,-10.37c1.25,6.84 -3.25,13.1 -3.25,13.1c0,0 7.5,-5.3 9.33,-13.17c1.4,-6.02 0.4,-9.15 -0.01,-10.11l0.05,-0.07c0.71,0.88 3.08,3.81 3.97,4.87Z" style="fill:#e39725;fill-rule:nonzero;"/><path d="M156.33,187.71l0,112.27l-60.73,0c-0.98,-0.39 -1.48,-0.59 -1.48,-0.59c0,-14.34 2.11,-25.51 5.31,-34.22c7.73,-21.03 21.88,-27.71 28.39,-29.73c2.14,-0.66 3.46,-0.82 3.46,-0.82c0.23,0 0.44,-0.02 0.67,-0.05c1.91,-0.31 3.46,-1.97 4.71,-4.62c0.92,-1.97 1.7,-4.48 2.33,-7.39c0.25,-1.13 0.44,-2.27 0.64,-3.51c0.3,-2.07 0.59,-4.25 0.84,-6.52c0.1,-1.39 0.25,-2.72 0.4,-4.15c0.54,-6.87 0.69,-14.39 0.69,-21.51c0,0 8.16,0.84 14.77,0.84Z" style="fill:#e0bd9a;fill-rule:nonzero;"/><path d="M218.79,299.39c0,0 -0.54,0.2 -1.43,0.59l-61.03,0l0,-112.27l0.15,0c6.57,0 14.83,-0.84 14.83,-0.84c0,7.07 0.14,14.48 0.69,21.36c0.15,1.34 0.29,2.71 0.39,4.05c0.25,2.37 0.55,4.6 0.89,6.68l0,0.04c0.1,0.94 0.3,1.79 0.45,2.67c0.6,2.92 1.33,5.49 2.2,7.55c1.09,2.56 2.42,4.35 4.03,5.06c0.51,0.23 1.06,0.34 1.63,0.34c0,0 2.33,0.29 5.83,1.66c7.15,2.8 19.16,10.14 26.06,28.89c3.21,8.71 5.31,19.88 5.31,34.22Z" style="fill:#efd0ad;fill-rule:nonzero;"/><path d="M173.28,218.75l0,0.04c-1.53,2.36 -6.67,9.14 -16.85,9.14l-0.1,0c-9.63,-0.05 -15.26,-7.02 -16.7,-9.09c0.3,-2.06 0.6,-4.22 0.84,-6.48c0.1,-1.33 0.25,-2.7 0.4,-4.12c4.69,1.17 9.83,1.91 15.27,2.01l0.19,0c5.64,-0.1 10.83,-0.89 15.67,-2.16c0.15,1.32 0.29,2.7 0.39,4.03c0.25,2.35 0.55,4.56 0.89,6.63Z" style="fill:#be987f;fill-rule:nonzero;"/><path d="M155.64,59.766c-64.33,0 -64.68,53.784 -61.81,88.994c-4.4,-8.35 -17.5,-5.8 -16.41,7.37c1.04,12.67 19.75,19.12 19.22,17.73c9.75,26.04 35.53,45.67 59,45.67l0.5,0l0,-159.764l-0.5,0Z" style="fill:#d2a686;fill-rule:nonzero;"/><path d="M81.52,150.58c3.17,-5.11 8.11,-2.9 9.29,-1.77c1.29,1.23 2.32,2.8 1.53,5.79c-0.44,1.72 -2.22,1.87 -1.82,4.42c0.49,2.9 1.82,3.05 2.61,3.74c0.75,0.63 1.68,1.13 2.13,2.35c0.49,1.23 0.54,2.51 0.3,3.64c-0.5,2.06 -3.51,0.39 -5.54,-0.49c-1.33,-0.64 -5.58,-4.23 -6.67,-5.41c-2.67,-3.04 -3.95,-8.93 -1.83,-12.27Z" style="fill:#ac8774;fill-rule:nonzero;"/><path d="M155.99,59.766c64.33,0 64.68,53.784 61.86,88.994c4.4,-8.35 17.45,-5.8 16.36,7.37c-0.99,12.67 -19.73,19.13 -19.22,17.73c-9.49,26.04 -35.53,45.67 -59,45.67c-0.15,0 -0.35,0 -0.35,0l-0.15,-159.764c0,0 0.35,0 0.5,0Z" style="fill:#ddb598;fill-rule:nonzero;"/><path d="M230.11,150.58c-3.16,-5.11 -8.06,-2.9 -9.29,-1.77c-1.29,1.23 -2.27,2.8 -1.53,5.79c0.44,1.72 2.22,1.87 1.83,4.42c-0.5,2.9 -1.83,3.05 -2.57,3.74c-0.75,0.63 -1.73,1.13 -2.18,2.35c-0.44,1.23 -0.54,2.51 -0.29,3.64c0.49,2.06 3.5,0.39 5.53,-0.49c1.38,-0.64 5.58,-4.23 6.67,-5.41c2.72,-3.04 3.95,-8.93 1.83,-12.27Z" style="fill:#ac8774;fill-rule:nonzero;"/><path d="M155.14,74.942c-21.15,0 -36.67,6.139 -46.01,18.221c-13.09,16.947 -12.6,42.777 -7.81,61.347c1.49,5.69 2.28,20.97 3.27,26.57c4.59,25.09 32.31,38.45 50.55,38.45c0,0 0.34,0 0.49,0l0,-144.588c-0.15,0 -0.3,0 -0.3,0l-0.19,0Z" style="fill:#e0bd9a;fill-rule:nonzero;"/><path d="M201.09,93.212c-9.29,-12.032 -24.61,-18.172 -45.46,-18.27l0,144.588c20.85,-0.24 45.81,-14.88 50.06,-38.45c1.03,-5.6 1.77,-20.88 3.26,-26.57c4.84,-18.52 5.33,-44.31 -7.86,-61.298Z" style="fill:#efd0ad;fill-rule:nonzero;"/><path d="M155.82,196.59" style="fill:#bc917b;fill-rule:nonzero;"/><path d="M155.82,196.59" style="fill:#bc917b;fill-rule:nonzero;"/><path d="M152.26,193.9c-0.11,-0.02 -0.21,-0.04 -0.31,-0.06c0.1,0.02 0.19,0.04 0.31,0.06Z" style="fill:#bc917b;fill-rule:nonzero;"/><path d="M155.82,193.71" style="fill:#bc917b;fill-rule:nonzero;"/><path d="M151.47,193.72c-0.09,-0.02 -0.18,-0.05 -0.27,-0.07l-0.01,0c0,0 0.11,0.03 0.28,0.07Z" style="fill:#bc917b;fill-rule:nonzero;"/><path d="M155.82,193.71" style="fill:#bc917b;fill-rule:nonzero;"/><path d="M96.71,126.25" style="fill:#432e1b;fill-rule:nonzero;"/><path d="M156.1,193.73" style="fill:#ba907b;fill-rule:nonzero;"/><path d="M156.1,193.73" style="fill:#ba907b;fill-rule:nonzero;"/><path d="M152.43,190.97c-0.1,-0.03 -0.21,-0.05 -0.31,-0.07c0.1,0.02 0.19,0.04 0.31,0.07Z" style="fill:#ba907b;fill-rule:nonzero;"/><path d="M156.1,190.77" style="fill:#ba907b;fill-rule:nonzero;"/><path d="M151.63,190.79c-0.1,-0.03 -0.19,-0.06 -0.28,-0.08l-0.01,0c0,0 0.11,0.03 0.29,0.08Z" style="fill:#ba907b;fill-rule:nonzero;"/><path d="M156.1,190.77" style="fill:#ba907b;fill-rule:nonzero;"/><path d="M144.57,172.6c-0.25,-5.13 9.42,-1.87 12.61,-1.71c2.53,0.13 10.2,-1.62 10.85,-1.17c4.52,3.04 -4.78,9.17 -11.01,9.17c-1.66,0 -12.3,-3.19 -12.45,-6.29Z" style="fill:#dcb497;fill-rule:nonzero;"/><path d="M156.23,196.1" style="fill:#ba907b;fill-rule:nonzero;"/><path d="M156.23,196.1" style="fill:#ba907b;fill-rule:nonzero;"/><path d="M152.56,193.34c-0.1,-0.02 -0.2,-0.04 -0.31,-0.06c0.1,0.02 0.19,0.04 0.31,0.06Z" style="fill:#ba907b;fill-rule:nonzero;"/><path d="M156.23,193.14" style="fill:#ba907b;fill-rule:nonzero;"/><path d="M151.76,193.16c-0.1,-0.02 -0.19,-0.05 -0.28,-0.08l-0.01,0.01c0,0 0.11,0.03 0.29,0.07Z" style="fill:#ba907b;fill-rule:nonzero;"/><path d="M156.23,193.14" style="fill:#ba907b;fill-rule:nonzero;"/><path d="M156.11,195.73" style="fill:#bc917b;fill-rule:nonzero;"/><path d="M156.11,195.73" style="fill:#bc917b;fill-rule:nonzero;"/><path d="M152.19,192.77c-0.12,-0.02 -0.23,-0.04 -0.34,-0.07c0.11,0.03 0.21,0.05 0.34,0.07Z" style="fill:#bc917b;fill-rule:nonzero;"/><path d="M156.11,192.56" style="fill:#bc917b;fill-rule:nonzero;"/><path d="M151.32,192.58c-0.1,-0.03 -0.19,-0.06 -0.29,-0.08l-0.02,0c0,0 0.12,0.03 0.31,0.08Z" style="fill:#bc917b;fill-rule:nonzero;"/><path d="M156.11,192.56" style="fill:#bc917b;fill-rule:nonzero;"/><path d="M155.87,194.89" style="fill:#bc917b;fill-rule:nonzero;"/><path d="M155.87,194.89" style="fill:#bc917b;fill-rule:nonzero;"/><path d="M151.94,191.93c-0.11,-0.02 -0.22,-0.04 -0.34,-0.07c0.11,0.02 0.21,0.04 0.34,0.07Z" style="fill:#bc917b;fill-rule:nonzero;"/><path d="M155.87,191.72" style="fill:#bc917b;fill-rule:nonzero;"/><path d="M151.07,191.74c-0.1,-0.03 -0.19,-0.06 -0.29,-0.09l-0.01,0.01c0,0 0.11,0.03 0.3,0.08Z" style="fill:#bc917b;fill-rule:nonzero;"/><path d="M155.87,191.72" style="fill:#bc917b;fill-rule:nonzero;"/><path d="M156.51,194.68" style="fill:#bc917b;fill-rule:nonzero;"/><path d="M156.5,194.68l0.01,0l-0.01,0Z" style="fill:#bc917b;fill-rule:nonzero;"/><path d="M152.71,191.82c-0.11,-0.03 -0.22,-0.05 -0.32,-0.07c0.1,0.02 0.19,0.04 0.32,0.07Z" style="fill:#bc917b;fill-rule:nonzero;"/><path d="M156.51,191.61" style="fill:#bc917b;fill-rule:nonzero;"/><path d="M151.87,191.63c-0.1,-0.03 -0.19,-0.05 -0.28,-0.08l-0.01,0c0,0 0.11,0.03 0.29,0.08Z" style="fill:#bc917b;fill-rule:nonzero;"/><path d="M156.5,191.61l0.01,0l-0.01,0Z" style="fill:#bc917b;fill-rule:nonzero;"/><path d="M153.23,203.11" style="fill:#be927b;fill-rule:nonzero;"/><path d="M153.23,203.11" style="fill:#be927b;fill-rule:nonzero;"/><path d="M149.59,200.37c-0.11,-0.02 -0.21,-0.04 -0.31,-0.07c0.1,0.03 0.19,0.04 0.31,0.07Z" style="fill:#be927b;fill-rule:nonzero;"/><path d="M153.23,200.17" style="fill:#be927b;fill-rule:nonzero;"/><path d="M148.79,200.19c-0.1,-0.02 -0.18,-0.05 -0.28,-0.08l-0.01,0.01c0,0 0.11,0.03 0.29,0.07Z" style="fill:#be927b;fill-rule:nonzero;"/><path d="M153.23,200.17" style="fill:#be927b;fill-rule:nonzero;"/><path d="M153,202.33" style="fill:#be927b;fill-rule:nonzero;"/><path d="M153,202.33" style="fill:#be927b;fill-rule:nonzero;"/><path d="M149.36,199.59c-0.11,-0.02 -0.21,-0.04 -0.31,-0.07c0.1,0.03 0.19,0.04 0.31,0.07Z" style="fill:#be927b;fill-rule:nonzero;"/><path d="M153,199.39" style="fill:#be927b;fill-rule:nonzero;"/><path d="M148.56,199.41c-0.1,-0.02 -0.18,-0.05 -0.28,-0.08l-0.01,0.01c0,0 0.11,0.03 0.29,0.07Z" style="fill:#be927b;fill-rule:nonzero;"/><path d="M153,199.39" style="fill:#be927b;fill-rule:nonzero;"/><path d="M153.59,202.13" style="fill:#be927b;fill-rule:nonzero;"/><path d="M153.59,202.13" style="fill:#be927b;fill-rule:nonzero;"/><path d="M150.07,199.48c-0.1,-0.02 -0.2,-0.04 -0.3,-0.06c0.1,0.02 0.19,0.04 0.3,0.06Z" style="fill:#be927b;fill-rule:nonzero;"/><path d="M153.59,199.29" style="fill:#be927b;fill-rule:nonzero;"/><path d="M149.3,199.31c-0.09,-0.02 -0.18,-0.05 -0.27,-0.08l-0.01,0.01c0,0 0.11,0.03 0.28,0.07Z" style="fill:#be927b;fill-rule:nonzero;"/><path d="M153.59,199.29" style="fill:#be927b;fill-rule:nonzero;"/><path d="M143.33,201.88c-0.24,-3.2 8.92,0.67 11.92,0.76c2.4,0.08 9.6,-0.47 10.27,-0.73c5.03,-1.88 -0.28,5.35 -10.42,5.73c-4.64,0.19 -11.63,-3.82 -11.77,-5.76Z" style="fill:#f0d2ad;fill-rule:nonzero;"/><path d="M173.5,194.19c-5.8,-1.08 -18.03,0.08 -18.03,0.08c-10.08,1.67 -17.97,-0.11 -18.03,-0.04c-0.24,0.02 8.05,11.02 17.89,10.51c9.84,0.51 18.41,-10.51 18.17,-10.55Z" style="fill:#c2646e;fill-rule:nonzero;"/><path d="M161.3,191.87c-2.62,-0.29 -4.48,1.6 -5.82,1.46c-1.36,0.13 -3.14,-1.08 -5.77,-1.11c-3.7,-0.04 -5.5,-0.36 -12.27,2.01c0.24,0.46 4.57,2.97 12.69,3.11c0.12,0 2.3,1.23 5.4,1.21c1.93,-0.01 4.6,-1.3 4.7,-1.3c8.13,-0.13 13.1,-2.55 13.33,-3c-8.95,-2.77 -8.24,-2.42 -12.26,-2.38Z" style="fill:#d87475;fill-rule:nonzero;"/><path d="M109.48,130.98c0,0 4.91,20.2 13.33,21.85c8.43,1.65 17.55,-1.63 17.55,-1.63c0,0 0.87,-23.74 -3.44,-26.84c-4.31,-3.11 -14.25,-7.62 -27.44,6.62Z" style="fill:#fff;fill-rule:nonzero;"/><path d="M140.37,151.14c0,0 -0.19,0.05 -0.63,0.23c-0.1,-7.28 -0.78,-17.28 -3.47,-19.19c-4.01,-2.95 -13.05,-7.09 -25.14,4.24c-1.1,-3.13 -1.65,-5.5 -1.65,-5.5c13.22,-14.27 23.16,-9.77 27.44,-6.66c4.32,3.12 3.45,26.88 3.45,26.88Z" style="fill:#d6b496;fill-rule:nonzero;"/><path d="M135.38,140.85c0,4.6 -3.71,8.32 -8.29,8.32c-4.58,0 -8.3,-3.72 -8.3,-8.32c0,-4.59 3.72,-8.32 8.3,-8.32c4.58,0 8.29,3.73 8.29,8.32Z" style="fill:#482315;fill-rule:nonzero;"/><path d="M126.7,146.39c-2.39,-0.2 -4.23,-2.62 -4.01,-5.29c0.21,-2.66 2.42,-4.75 4.82,-4.55c2.39,0.2 4.23,2.62 4.01,5.29c-0.21,2.66 -2.42,4.75 -4.82,4.55Z" style="fill:#7e3a22;fill-rule:nonzero;"/><path d="M126.91,145.43c-1.67,-0.14 -3.4,-1.98 -3.21,-4.24c0.18,-2.26 2.18,-3.79 3.85,-3.66c1.67,0.15 3.39,1.99 3.21,4.25c-0.18,2.26 -2.19,3.79 -3.85,3.65Z" style="fill:#211a10;fill-rule:nonzero;"/><path d="M125.56,135.74c-0.07,0.82 -0.91,1.41 -1.86,1.34c-0.96,-0.09 -1.69,-0.82 -1.62,-1.63c0.07,-0.82 0.9,-1.42 1.86,-1.34c0.96,0.08 1.68,0.81 1.62,1.63Z" style="fill:#fff;fill-rule:nonzero;"/><path d="M130.94,144.58c-0.04,0.41 -0.46,0.71 -0.93,0.67c-0.49,-0.04 -0.85,-0.41 -0.82,-0.82c0.04,-0.4 0.46,-0.7 0.93,-0.66c0.49,0.04 0.85,0.4 0.82,0.81Z" style="fill:#fff;fill-rule:nonzero;"/><path d="M202.29,130.29c0,0 -4.91,20.2 -13.34,21.85c-8.42,1.65 -17.54,-1.63 -17.54,-1.63c0,0 -0.88,-23.74 3.44,-26.84c4.31,-3.11 14.25,-7.61 27.44,6.62Z" style="fill:#fff;fill-rule:nonzero;"/><path d="M171.39,150.45c0,0 0.2,0.06 0.63,0.24c0.11,-7.28 0.78,-17.28 3.47,-19.2c4.01,-2.94 13.06,-7.08 25.14,4.24c1.1,-3.13 1.65,-5.5 1.65,-5.5c-13.21,-14.26 -23.16,-9.77 -27.44,-6.65c-4.32,3.11 -3.45,26.87 -3.45,26.87Z" style="fill:#d6b496;fill-rule:nonzero;"/><path d="M176.38,140.16c0,4.6 3.72,8.32 8.3,8.32c4.58,0 8.29,-3.72 8.29,-8.32c0,-4.59 -3.71,-8.32 -8.29,-8.32c-4.58,0 -8.3,3.73 -8.3,8.32Z" style="fill:#482315;fill-rule:nonzero;"/><path d="M185.06,145.7c2.4,-0.19 4.24,-2.62 4.02,-5.28c-0.22,-2.67 -2.42,-4.75 -4.82,-4.55c-2.4,0.19 -4.23,2.62 -4.02,5.28c0.22,2.67 2.43,4.76 4.82,4.55Z" style="fill:#7e3a22;fill-rule:nonzero;"/><path d="M184.86,144.74c1.66,-0.14 3.39,-1.97 3.21,-4.23c-0.19,-2.27 -2.19,-3.8 -3.86,-3.66c-1.66,0.14 -3.39,1.98 -3.21,4.24c0.19,2.26 2.19,3.79 3.86,3.65Z" style="fill:#211a10;fill-rule:nonzero;"/><path d="M186.21,139.17c0.07,0.81 0.9,1.41 1.86,1.33c0.96,-0.08 1.68,-0.81 1.62,-1.62c-0.07,-0.82 -0.9,-1.42 -1.86,-1.34c-0.96,0.08 -1.69,0.81 -1.62,1.63Z" style="fill:#fff;fill-rule:nonzero;"/><path d="M180.83,143.89c0.03,0.41 0.45,0.71 0.93,0.67c0.48,-0.04 0.84,-0.41 0.81,-0.81c-0.03,-0.41 -0.45,-0.71 -0.93,-0.67c-0.48,0.04 -0.85,0.4 -0.81,0.81Z" style="fill:#fff;fill-rule:nonzero;"/><path d="M145.42,130.66c-0.06,-0.1 -1.59,-2.43 -4.72,-4.84c-1.96,-1.5 -3.88,-2.65 -5.87,-3.5c-2.42,-1.02 -5.03,-1.75 -7.55,-2.09c-2.28,-0.26 -4.81,-0.19 -7.77,0.21c-2.25,0.43 -4.45,1.1 -6.32,1.93c-1.33,0.46 -2.38,1.1 -3.22,1.62c-0.33,0.2 -0.62,0.38 -0.92,0.54l-4.02,2.54l4.64,-1.09c0.21,-0.06 0.45,-0.12 0.7,-0.19c0.96,-0.25 2.15,-0.57 3.55,-0.77c0.33,-0.05 0.66,-0.12 1,-0.19c0.59,-0.11 1.19,-0.23 1.82,-0.26c0.7,-0.05 1.43,-0.1 2.18,-0.16l0.98,-0.07c2.57,-0.03 4.74,0.16 6.66,0.61c2.11,0.37 4.28,1.05 6.26,1.97c1.88,0.9 3.67,1.79 5.08,2.82c2.83,1.9 4.41,3.48 4.42,3.5c0.39,0.39 0.91,0.6 1.44,0.6c0.38,0 0.76,-0.11 1.09,-0.33c0.94,-0.62 1.2,-1.88 0.6,-2.79l-0.03,-0.06Z" style="fill:#030405;fill-rule:nonzero;"/><path d="M203.12,124.51c-0.27,-0.14 -0.56,-0.32 -0.89,-0.52c-0.84,-0.52 -1.89,-1.16 -3.18,-1.61c-1.91,-0.84 -4.11,-1.51 -6.39,-1.95c-2.93,-0.39 -5.46,-0.46 -7.75,-0.2c-2.51,0.34 -5.12,1.07 -7.55,2.09c-1.96,0.84 -3.93,2.02 -5.86,3.5c-3.07,2.36 -4.6,4.66 -4.71,4.83l-0.03,0.04c-0.52,0.8 -0.41,1.88 0.26,2.55c0.38,0.39 0.89,0.6 1.43,0.6c0.54,0 1.05,-0.22 1.43,-0.6l0.01,-0.02c0.15,-0.15 1.68,-1.65 4.43,-3.49c1.38,-1.02 3.18,-1.91 5.05,-2.81c1.99,-0.92 4.16,-1.6 6.29,-1.98c1.9,-0.44 4.08,-0.63 6.61,-0.6l1.03,0.07c0.74,0.06 1.46,0.11 2.17,0.16c0.62,0.03 1.22,0.15 1.81,0.26c0.34,0.07 0.67,0.14 1,0.19c1.4,0.2 2.59,0.52 3.55,0.77c0.25,0.07 0.49,0.13 0.71,0.19l4.64,1.09l-4.06,-2.56Z" style="fill:#030405;fill-rule:nonzero;"/><path d="M81.61,94.438c9.58,-26.756 23.17,-36.72 39.77,-42.525c2.49,-0.87 5.25,-1.459 8.16,-1.836c4.81,-0.627 9.62,1.267 12.62,4.846c1.04,1.24 2.77,1.835 4.45,1.533c2.74,-0.494 4.38,-0.993 11.77,-3.242c13.51,-4.11 22.26,0.47 22.26,0.47c0,0 -7.05,-0.231 -10.51,2.44c3.41,-1.414 9.29,-1.91 19.1,1.997c19.22,7.647 18.87,21.36 32.25,25.565c13.69,4.315 17.66,-1.223 17.66,-1.223c0,0 -4.95,8.034 -13.81,9.481l0.02,0.02c0,0 -0.07,-0.003 -0.2,0.01l-0.24,0.042c-0.99,0.217 -3.19,1.372 -1.72,7.503l0,-0.002c0.97,3.353 1.95,7.323 2.28,10.773c0.78,7.91 -1.64,13.33 -2.38,28.14c-0.64,12.65 -4.11,6.17 -8.25,15.49c-1.4,3.13 -1.46,6.65 -1.46,6.65c-1.53,0.37 -5.55,-7.6 -2.66,-21.43c1.88,-8.99 -7.41,-43.031 -29.83,-36.4l-0.07,0.02c-2.79,0.83 -3.83,3.91 -2.09,6.08c16.21,20.19 4.54,45.94 4.54,45.94c0.31,-14.92 -7.45,-26.86 -15.13,-34.98c-2.22,-2.34 -6.38,-0.72 -6.17,2.37c0.57,8.23 -1.88,14.81 -1.88,14.81c-0.68,-13.52 -10.34,-23.1 -17.14,-28.2c-3.68,-2.77 -8.79,-3.39 -13.05,-1.44c-6.98,3.18 -13.7,7.57 -19.05,13.6c-4.95,5.59 -8.71,12.61 -10.41,21.39c-0.47,2.47 -0.8,5.08 -0.92,7.85c-0.07,0.88 -0.12,1.79 -0.12,2.75c0,15.47 3.7,25.98 6.17,32.09c3.19,7.9 19.53,26.34 19.53,26.34c0,0 -37.57,-28.84 -43.44,-58.45c-1.86,-9.35 -9.65,-31.72 -0.05,-58.472Z" style="fill:#faa830;fill-rule:nonzero;"/><rect x="152.53" y="269.11" width="8.3" height="30.83" style="fill:#351b1f;fill-rule:nonzero;"/><path d="M146.73,244.5c-0.28,-0.16 -0.55,-0.32 -0.82,-0.5l-14.67,-9.35c0,0 -28.96,2.02 -37.19,42.62c-0.34,1.68 -0.64,3.45 -0.91,5.28l10.01,2.6c3.68,0.96 6.26,4.39 6.26,8.34l0,6.48l43.12,0l0,-0.5l0,-30.36l0,-14.67c0,-4.18 -2.28,-7.94 -5.8,-9.94Z" style="fill:#60373b;fill-rule:nonzero;"/><path d="M219.01,277.27c-3.25,-16.62 -12.4,-37.2 -37.48,-42.69l-15.22,9.52l-0.24,0.15c-3.26,2.02 -5.24,5.67 -5.24,9.61l0,46.11l42.56,0l0,-6.48c0,-3.95 2.58,-7.38 6.26,-8.34l10.22,-2.66c-0.23,-1.68 -0.51,-3.43 -0.86,-5.22Z" style="fill:#60373b;fill-rule:nonzero;"/><path d="M147.89,278.88c0,4.25 -3.32,7.7 -7.41,7.7c-4.09,0 -7.41,-3.45 -7.41,-7.7c0,-4.26 3.32,-7.71 7.41,-7.71c4.09,0 7.41,3.45 7.41,7.71Z" style="fill:#351b1f;fill-rule:nonzero;"/><path d="M178.31,278.88c0,4.25 -3.32,7.7 -7.41,7.7c-4.09,0 -7.41,-3.45 -7.41,-7.7c0,-4.26 3.32,-7.71 7.41,-7.71c4.09,0 7.41,3.45 7.41,7.71Z" style="fill:#351b1f;fill-rule:nonzero;"/><path d="M171.89,282.56l-32.08,0c-1.95,0 -3.54,-1.66 -3.54,-3.68c0,-2.03 1.59,-3.68 3.54,-3.68l32.08,0c1.94,0 3.54,1.65 3.54,3.68c0,2.02 -1.6,3.68 -3.54,3.68Z" style="fill:#442125;fill-rule:nonzero;"/><path d="M102.9,165.42c-1.07,-0.87 -2.07,-1.84 -3.01,-2.91c-0.31,-2.95 -0.49,-6.14 -0.49,-9.58c0,-0.96 0.05,-1.87 0.12,-2.75c0.04,-1.02 0.12,-2.03 0.22,-3.01c0.45,2.54 0.98,5 1.58,7.34c0.63,2.41 1.14,6.53 1.58,10.91Z" style="fill:#66564e;fill-rule:nonzero;"/><path d="M116.71,170.42c-5.18,0 -9.92,-1.83 -13.81,-5c-0.44,-4.38 -0.95,-8.5 -1.58,-10.91c-0.6,-2.34 -1.13,-4.8 -1.58,-7.34c0.16,-1.67 0.4,-3.28 0.7,-4.84c1.16,-5.99 3.28,-11.16 6.07,-15.61l3.16,-0.74c0.21,-0.06 0.45,-0.12 0.7,-0.19c0.96,-0.25 2.15,-0.57 3.55,-0.77c0.33,-0.05 0.66,-0.12 1,-0.19c0.59,-0.11 1.19,-0.23 1.82,-0.26c0.03,-0.01 0.06,-0.01 0.09,-0.01c-2.31,1.5 -4.77,3.57 -7.35,6.36c0,0 0.01,0.01 0.01,0.04c0,0.01 -0.01,0.01 -0.01,0.02c0,0 4.91,20.2 13.33,21.85c1.7,0.33 3.42,0.46 5.09,0.46c6.64,0 12.46,-2.09 12.46,-2.09c0,0 0,-0.02 0,-0.06l0.01,0c0,0 0.45,-12.22 -0.89,-20.28c1.83,1.37 2.83,2.37 2.84,2.38c0.39,0.39 0.91,0.6 1.44,0.6c0.38,0 0.76,-0.11 1.09,-0.33c0.94,-0.62 1.2,-1.88 0.6,-2.79l-0.03,-0.06c-0.06,-0.1 -1.59,-2.43 -4.72,-4.84c-1.96,-1.5 -3.88,-2.65 -5.87,-3.5c-2.33,-0.99 -4.83,-1.69 -7.27,-2.05c12.84,0.68 23.55,3.64 23.55,15.51c0,16.04 -20.83,34.64 -34.4,34.64Zm-9.55,-44.69c1.13,-1.7 2.37,-3.3 3.69,-4.79c0.11,-0.12 0.21,-0.23 0.31,-0.35c2.31,-0.34 4.85,-0.51 7.6,-0.51c1.43,0 2.86,0 4.28,0.03c-1.11,0.05 -2.28,0.16 -3.53,0.33c-2.25,0.43 -4.45,1.1 -6.32,1.93c-1.33,0.46 -2.38,1.1 -3.22,1.62c-0.33,0.2 -0.62,0.38 -0.92,0.54l-1.89,1.2Z" style="fill:#695c53;fill-rule:nonzero;"/><path d="M127.9,153.29c-1.67,0 -3.39,-0.13 -5.09,-0.46c-8.42,-1.65 -13.33,-21.85 -13.33,-21.85c0,-0.01 0.01,-0.01 0.01,-0.02c0.08,0.34 0.63,2.58 1.64,5.46c6.07,-5.68 11.37,-7.47 15.65,-7.47c4.25,0 7.49,1.76 9.49,3.23c2.69,1.91 3.37,11.91 3.47,19.19c0.38,-0.15 0.58,-0.22 0.62,-0.23c0,0.04 0,0.06 0,0.06c0,0 -5.82,2.09 -12.46,2.09Zm-0.81,-20.76c-4.58,0 -8.3,3.73 -8.3,8.32c0,4.6 3.72,8.32 8.3,8.32c4.58,0 8.29,-3.72 8.29,-8.32c0,-4.59 -3.71,-8.32 -8.29,-8.32Z" style="fill:#706d6e;fill-rule:nonzero;"/><path d="M139.74,151.37c-0.1,-7.28 -0.78,-17.28 -3.47,-19.19c-2,-1.47 -5.24,-3.23 -9.49,-3.23c-4.28,0 -9.58,1.79 -15.65,7.47c-1.01,-2.88 -1.56,-5.12 -1.64,-5.46c0,-0.03 -0.01,-0.04 -0.01,-0.04c2.58,-2.79 5.04,-4.86 7.35,-6.36c0.67,-0.05 1.37,-0.1 2.09,-0.15l0.98,-0.07c0.18,0 0.36,0 0.54,0c2.33,0 4.33,0.2 6.12,0.61c2.11,0.37 4.28,1.05 6.26,1.97c1.88,0.9 3.67,1.79 5.08,2.82c0.58,0.39 1.11,0.77 1.58,1.12c1.34,8.06 0.89,20.28 0.89,20.28l-0.01,0c-0.04,0.01 -0.24,0.08 -0.62,0.23Z" style="fill:#665a52;fill-rule:nonzero;"/><path d="M127.09,149.17c-4.58,0 -8.3,-3.72 -8.3,-8.32c0,-4.59 3.72,-8.32 8.3,-8.32c4.58,0 8.29,3.73 8.29,8.32c0,4.6 -3.71,8.32 -8.29,8.32Zm0.09,-12.63c-2.26,0 -4.29,2.02 -4.49,4.56c-0.22,2.67 1.62,5.09 4.01,5.29c0.11,0.01 0.21,0.02 0.32,0.02c1.06,0 2.07,-0.45 2.87,-1.18c0.04,0.01 0.08,0.01 0.12,0.02c0.03,0 0.05,0 0.08,0c0.44,0 0.81,-0.29 0.85,-0.67c0.01,-0.17 -0.04,-0.33 -0.15,-0.47c0.4,-0.66 0.67,-1.44 0.73,-2.27c0.22,-2.67 -1.62,-5.09 -4.01,-5.29c-0.11,-0.01 -0.22,-0.01 -0.33,-0.01Zm-3.41,-2.43c-0.89,0 -1.63,0.57 -1.69,1.34c-0.07,0.81 0.66,1.54 1.62,1.63c0.05,0 0.11,0 0.17,0c0.88,0 1.62,-0.57 1.69,-1.34c0.06,-0.82 -0.66,-1.55 -1.62,-1.63c-0.06,0 -0.12,0 -0.17,0Z" style="fill:#32201a;fill-rule:nonzero;"/><path d="M127.02,146.41c-0.11,0 -0.21,-0.01 -0.32,-0.02c-2.39,-0.2 -4.23,-2.62 -4.01,-5.29c0.2,-2.54 2.23,-4.56 4.49,-4.56c0.11,0 0.22,0 0.33,0.01c2.39,0.2 4.23,2.62 4.01,5.29c-0.06,0.83 -0.33,1.61 -0.73,2.27c-0.14,-0.19 -0.38,-0.32 -0.67,-0.34c-0.02,0 -0.05,-0.01 -0.07,-0.01c0.39,-0.55 0.65,-1.23 0.71,-1.98c0.18,-2.26 -1.54,-4.1 -3.21,-4.25c-0.07,0 -0.14,0 -0.21,0c-1.62,0 -3.47,1.49 -3.64,3.66c-0.19,2.26 1.54,4.1 3.21,4.24c0.07,0.01 0.14,0.01 0.21,0.01c0.71,0 1.46,-0.29 2.1,-0.79c0.07,0.28 0.33,0.51 0.67,0.58c-0.8,0.73 -1.81,1.18 -2.87,1.18Z" style="fill:#492e24;fill-rule:nonzero;"/><path d="M127.12,145.44c-0.07,0 -0.14,0 -0.21,-0.01c-1.67,-0.14 -3.4,-1.98 -3.21,-4.24c0.17,-2.17 2.02,-3.66 3.64,-3.66c0.07,0 0.14,0 0.21,0c1.67,0.15 3.39,1.99 3.21,4.25c-0.06,0.75 -0.32,1.43 -0.71,1.98l-0.01,0c-0.44,0 -0.81,0.29 -0.85,0.67c0,0.08 0.01,0.15 0.03,0.22c-0.64,0.5 -1.39,0.79 -2.1,0.79Z" style="fill:#1e1b18;fill-rule:nonzero;"/><path d="M123.87,137.08c-0.06,0 -0.12,0 -0.17,0c-0.96,-0.09 -1.69,-0.82 -1.62,-1.63c0.06,-0.77 0.8,-1.34 1.69,-1.34c0.05,0 0.11,0 0.17,0c0.96,0.08 1.68,0.81 1.62,1.63c-0.07,0.77 -0.81,1.34 -1.69,1.34Z" style="fill:#706d6e;fill-rule:nonzero;"/><path d="M130.09,145.25c-0.03,0 -0.05,0 -0.08,0c-0.04,-0.01 -0.08,-0.01 -0.12,-0.02c-0.34,-0.07 -0.6,-0.3 -0.67,-0.58c-0.02,-0.07 -0.03,-0.14 -0.03,-0.22c0.04,-0.38 0.41,-0.67 0.85,-0.67l0.01,0c0.02,0 0.05,0.01 0.07,0.01c0.29,0.02 0.53,0.15 0.67,0.34c0.11,0.14 0.16,0.3 0.15,0.47c-0.04,0.38 -0.41,0.67 -0.85,0.67Z" style="fill:#706d6e;fill-rule:nonzero;"/><path d="M143.76,133.84c-0.53,0 -1.05,-0.21 -1.44,-0.6c-0.01,-0.01 -1.01,-1.01 -2.84,-2.38c-0.47,-0.35 -1,-0.73 -1.58,-1.12c-1.41,-1.03 -3.2,-1.92 -5.08,-2.82c-1.98,-0.92 -4.15,-1.6 -6.26,-1.97c-1.79,-0.41 -3.79,-0.61 -6.12,-0.61c-0.18,0 -0.36,0 -0.54,0l-0.98,0.07c-0.72,0.05 -1.42,0.1 -2.09,0.15c-0.03,0 -0.06,0 -0.09,0.01c-0.63,0.03 -1.23,0.15 -1.82,0.26c-0.34,0.07 -0.67,0.14 -1,0.19c-1.4,0.2 -2.59,0.52 -3.55,0.77c-0.25,0.07 -0.49,0.13 -0.7,0.19l-3.16,0.74c0.22,-0.34 0.43,-0.67 0.65,-0.99l1.89,-1.2c0.3,-0.16 0.59,-0.34 0.92,-0.54c0.84,-0.52 1.89,-1.16 3.22,-1.62c1.87,-0.83 4.07,-1.5 6.32,-1.93c1.25,-0.17 2.42,-0.28 3.53,-0.33c1.53,0.03 3.04,0.08 4.52,0.16c2.44,0.36 4.94,1.06 7.27,2.05c1.99,0.85 3.91,2 5.87,3.5c3.13,2.41 4.66,4.74 4.72,4.84l0.03,0.06c0.6,0.91 0.34,2.17 -0.6,2.79c-0.33,0.22 -0.71,0.33 -1.09,0.33Z" style="fill:#0f1111;fill-rule:nonzero;"/><path d="M99.89,162.51c-4.55,-5.19 -7.33,-12.52 -7.33,-20.76c0,-12.32 6.08,-19.29 18.6,-21.16c-0.1,0.12 -0.2,0.23 -0.31,0.35c-1.32,1.49 -2.56,3.09 -3.69,4.79c-0.22,0.32 -0.43,0.65 -0.65,0.99c-2.79,4.45 -4.91,9.62 -6.07,15.61c-0.3,1.56 -0.54,3.17 -0.7,4.84c-0.1,0.98 -0.18,1.99 -0.22,3.01c-0.07,0.88 -0.12,1.79 -0.12,2.75c0,3.44 0.18,6.63 0.49,9.58Z" style="fill:#725636;fill-rule:nonzero;"/><path d="M207.13,168.07c0.5,-5.31 1.06,-10.67 1.82,-13.56c0.29,-1.14 0.58,-2.31 0.84,-3.49c0.45,6.16 2.43,9.56 3.49,9.56c0.03,0 0.07,0 0.1,-0.01c0,0 0.06,-3.52 1.46,-6.65c2.56,-5.77 4.86,-5.48 6.4,-7.43c-0.11,0.78 -0.24,1.54 -0.39,2.29c-0.01,0.01 -0.02,0.02 -0.03,0.03c-1.24,1.18 -2.2,2.68 -1.61,5.45c-2.48,6.19 -6.76,11.09 -12.08,13.81Z" style="fill:#685a53;fill-rule:nonzero;"/><path d="M219.21,154.26c-0.59,-2.77 0.37,-4.27 1.61,-5.45c0.01,-0.01 0.02,-0.02 0.03,-0.03c-0.39,1.92 -0.95,3.75 -1.64,5.48Z" style="fill:#5a4d47;fill-rule:nonzero;"/><path d="M197.36,170.42c-13.57,0 -34.39,-18.6 -34.39,-34.64c0,-6.48 3.2,-10.31 8.2,-12.56c0.48,0.59 0.96,1.18 1.43,1.79c-0.37,0.26 -0.74,0.53 -1.1,0.81c-3.07,2.36 -4.6,4.66 -4.71,4.83l-0.03,0.04c-0.52,0.8 -0.41,1.88 0.26,2.55c0.38,0.39 0.89,0.6 1.43,0.6c0.54,0 1.05,-0.22 1.43,-0.6l0.01,-0.02c0.11,-0.1 0.86,-0.84 2.22,-1.9c-1.12,8.02 -0.72,19.13 -0.72,19.13l0.01,0c0.01,0.04 0.01,0.06 0.01,0.06c0,0 5.47,1.97 11.85,2.09c0.02,0.72 0.03,1.45 0.01,2.18c0,0 0.35,-0.78 0.85,-2.18c1.59,-0.01 3.23,-0.15 4.83,-0.46c8.43,-1.65 13.34,-21.85 13.34,-21.85c-0.01,0 -0.01,-0.01 -0.02,-0.01c0.01,-0.03 0.01,-0.05 0.01,-0.05c-2.18,-2.35 -4.27,-4.19 -6.26,-5.62c0.43,0.06 0.85,0.14 1.26,0.22c0.34,0.07 0.67,0.14 1,0.19c1.4,0.2 2.59,0.52 3.55,0.77c0.25,0.07 0.49,0.13 0.71,0.19l4.64,1.09l-4.06,-2.56c-0.27,-0.14 -0.56,-0.32 -0.89,-0.52c-0.84,-0.52 -1.89,-1.16 -3.18,-1.61c-1.91,-0.84 -4.11,-1.51 -6.39,-1.95c-1.02,-0.13 -1.99,-0.23 -2.92,-0.29c1.85,-0.05 3.73,-0.06 5.62,-0.06c4.88,0 9.07,0.54 12.58,1.64c2.6,7.02 3.49,14.02 2.78,17.42c-0.98,4.65 -1.17,8.64 -0.93,11.88c-0.26,1.18 -0.55,2.35 -0.84,3.49c-0.76,2.89 -1.32,8.25 -1.82,13.56c-2.98,1.52 -6.27,2.35 -9.77,2.35Z" style="fill:#6d6258;fill-rule:nonzero;"/><path d="M184.12,152.6c0.38,-1.05 0.84,-2.46 1.29,-4.15c4.24,-0.37 7.56,-3.94 7.56,-8.29c0,-3.68 -2.38,-6.8 -5.68,-7.89c-0.05,-1.28 -0.16,-2.57 -0.33,-3.89c3.9,0.5 8.51,2.51 13.67,7.35c1.01,-2.88 1.56,-5.11 1.64,-5.45c0.01,0 0.01,0.01 0.02,0.01c0,0 -4.91,20.2 -13.34,21.85c-1.6,0.31 -3.24,0.45 -4.83,0.46Zm-0.86,0c-6.38,-0.12 -11.85,-2.09 -11.85,-2.09c0,0 0,-0.02 -0.01,-0.06c0.05,0.02 0.24,0.08 0.62,0.24c0.11,-7.28 0.78,-17.28 3.47,-19.2c0.32,-0.23 0.67,-0.48 1.06,-0.72c0.72,1.21 1.4,2.46 2.04,3.74c-1.37,1.49 -2.21,3.47 -2.21,5.65c0,3.99 2.79,7.31 6.52,8.13c0.19,1.41 0.31,2.84 0.36,4.31Z" style="fill:#706d6e;fill-rule:nonzero;"/><path d="M172.02,150.69c-0.38,-0.16 -0.57,-0.22 -0.62,-0.24l-0.01,0c0,0 -0.4,-11.11 0.72,-19.13c0.62,-0.47 1.35,-1.01 2.21,-1.59c0.35,-0.25 0.72,-0.5 1.11,-0.74c0.38,0.58 0.75,1.18 1.12,1.78c-0.39,0.24 -0.74,0.49 -1.06,0.72c-2.69,1.92 -3.36,11.92 -3.47,19.2Zm28.61,-14.96c-5.16,-4.84 -9.77,-6.85 -13.67,-7.35c-0.15,-1.18 -0.36,-2.37 -0.62,-3.58c1.61,-0.31 3.42,-0.46 5.47,-0.46c0.15,0 0.31,0 0.46,0l1.03,0.07c0.74,0.06 1.46,0.11 2.17,0.16c0.18,0 0.37,0.02 0.55,0.04c1.99,1.43 4.08,3.27 6.26,5.62c0,0 0,0.02 -0.01,0.05c-0.08,0.34 -0.63,2.57 -1.64,5.45Z" style="fill:#665a52;fill-rule:nonzero;"/><path d="M185.41,148.45c0.25,-0.92 0.49,-1.92 0.72,-2.99c1.85,-0.71 3.13,-2.79 2.95,-5.04c-0.01,-0.09 -0.02,-0.18 -0.03,-0.27c0.42,-0.31 0.68,-0.78 0.64,-1.27c-0.07,-0.77 -0.81,-1.35 -1.69,-1.35c-0.03,0 -0.05,0 -0.08,0c-0.2,-0.24 -0.42,-0.46 -0.65,-0.66c0.07,-1.48 0.09,-3.03 0.02,-4.6c3.3,1.09 5.68,4.21 5.68,7.89c0,4.35 -3.32,7.92 -7.56,8.29Zm-2.51,-0.16c-3.73,-0.82 -6.52,-4.14 -6.52,-8.13c0,-2.18 0.84,-4.16 2.21,-5.65c0.71,1.44 1.36,2.93 1.93,4.47c-0.23,0.67 -0.34,1.41 -0.28,2.17c0.07,0.83 0.33,1.61 0.73,2.28c-0.1,0.13 -0.15,0.29 -0.14,0.46c0.03,0.38 0.4,0.67 0.84,0.67c0.03,0 0.06,0 0.09,0c0.04,0 0.08,-0.01 0.12,-0.02c0.13,0.12 0.26,0.23 0.4,0.34c0.25,1.11 0.46,2.25 0.62,3.41Z" style="fill:#32201a;fill-rule:nonzero;"/><path d="M186.13,145.46c0.09,-0.43 0.18,-0.87 0.26,-1.32c1.04,-0.74 1.81,-2.09 1.68,-3.63l0,-0.01c0.37,-0.03 0.71,-0.16 0.98,-0.35c0.01,0.09 0.02,0.18 0.03,0.27c0.18,2.25 -1.1,4.33 -2.95,5.04Zm-3.85,-0.58c-0.14,-0.11 -0.27,-0.22 -0.4,-0.34c0.11,-0.02 0.21,-0.06 0.3,-0.11c0.03,0.15 0.07,0.3 0.1,0.45Zm-1.31,-1.45c-0.4,-0.67 -0.66,-1.45 -0.73,-2.28c-0.06,-0.76 0.05,-1.5 0.28,-2.17c0.17,0.45 0.34,0.9 0.49,1.36c-0.02,0.25 -0.03,0.5 -0.01,0.75c0.06,0.76 0.33,1.43 0.72,1.99c-0.03,0 -0.05,0 -0.08,0c-0.28,0.02 -0.52,0.16 -0.67,0.35Zm6.25,-5.74c0.02,-0.27 0.03,-0.54 0.05,-0.82c0.23,0.2 0.45,0.42 0.65,0.66c-0.03,0.01 -0.06,0.01 -0.09,0.01c-0.22,0.02 -0.42,0.07 -0.61,0.15Z" style="fill:#492e24;fill-rule:nonzero;"/><path d="M186.39,144.14c0.23,-1.21 0.43,-2.5 0.59,-3.86c0.27,0.15 0.58,0.23 0.92,0.23c0.06,0 0.11,0 0.17,-0.01l0,0.01c0.13,1.54 -0.64,2.89 -1.68,3.63Zm-4.55,-1.06c-0.03,0 -0.07,0 -0.11,0l-0.01,0c-0.39,-0.56 -0.66,-1.23 -0.72,-1.99c-0.02,-0.25 -0.01,-0.5 0.01,-0.75c0.31,0.9 0.58,1.81 0.83,2.74Z" style="fill:#1e1b18;fill-rule:nonzero;"/><path d="M187.9,140.51c-0.34,0 -0.65,-0.08 -0.92,-0.23c0.1,-0.84 0.18,-1.71 0.24,-2.59c0.19,-0.08 0.39,-0.13 0.61,-0.15c0.03,0 0.06,0 0.09,-0.01c0.03,0 0.05,0 0.08,0c0.88,0 1.62,0.58 1.69,1.35c0.04,0.49 -0.22,0.96 -0.64,1.27c-0.27,0.19 -0.61,0.32 -0.98,0.35c-0.06,0.01 -0.11,0.01 -0.17,0.01Z" style="fill:#706d6e;fill-rule:nonzero;"/><path d="M181.67,144.56c-0.44,0 -0.81,-0.29 -0.84,-0.67c-0.01,-0.17 0.04,-0.33 0.14,-0.46c0.15,-0.19 0.39,-0.33 0.67,-0.35l0.2,0c0.12,0.45 0.23,0.9 0.34,1.35c-0.09,0.05 -0.19,0.09 -0.3,0.11c-0.04,0.01 -0.08,0.02 -0.12,0.02c-0.03,0 -0.06,0 -0.09,0Z" style="fill:#706d6e;fill-rule:nonzero;"/><path d="M168.45,133.84c-0.54,0 -1.05,-0.21 -1.43,-0.6c-0.67,-0.67 -0.78,-1.75 -0.26,-2.55l0.03,-0.04c0.11,-0.17 1.64,-2.47 4.71,-4.83c0.36,-0.28 0.73,-0.55 1.1,-0.81c0.98,1.26 1.93,2.59 2.83,3.98c-0.39,0.24 -0.76,0.49 -1.11,0.74c-0.86,0.58 -1.59,1.12 -2.21,1.59c-1.36,1.06 -2.11,1.8 -2.22,1.9l-0.01,0.02c-0.38,0.38 -0.89,0.6 -1.43,0.6Zm38.73,-6.77l-4.64,-1.09c-0.22,-0.06 -0.46,-0.12 -0.71,-0.19c-0.96,-0.25 -2.15,-0.57 -3.55,-0.77c-0.33,-0.05 -0.66,-0.12 -1,-0.19c-0.41,-0.08 -0.83,-0.16 -1.26,-0.22c-0.18,-0.02 -0.37,-0.04 -0.55,-0.04c-0.71,-0.05 -1.43,-0.1 -2.17,-0.16l-1.03,-0.07c-0.15,0 -0.31,0 -0.46,0c-2.05,0 -3.86,0.15 -5.47,0.46c-0.32,-1.47 -0.73,-2.96 -1.25,-4.44c1.52,-0.11 3.08,-0.18 4.65,-0.22c0.93,0.06 1.9,0.16 2.92,0.29c2.28,0.44 4.48,1.11 6.39,1.95c1.29,0.45 2.34,1.09 3.18,1.61c0.33,0.2 0.62,0.38 0.89,0.52l4.06,2.56Z" style="fill:#0f1111;fill-rule:nonzero;"/><path d="M213.28,160.58c-1.06,0 -3.04,-3.4 -3.49,-9.56c-0.24,-3.24 -0.05,-7.23 0.93,-11.88c0.71,-3.4 -0.18,-10.4 -2.78,-17.42c9.14,2.86 13.62,9.48 13.62,20.03c0,1.62 -0.11,3.2 -0.32,4.74c-1.54,1.95 -3.84,1.66 -6.4,7.43c-1.4,3.13 -1.46,6.65 -1.46,6.65c-0.03,0.01 -0.07,0.01 -0.1,0.01Zm-30.01,-5.8c0.02,-0.73 0.01,-1.46 -0.01,-2.18c-0.05,-1.47 -0.17,-2.9 -0.36,-4.31c-0.16,-1.16 -0.37,-2.3 -0.62,-3.41c-0.03,-0.15 -0.07,-0.3 -0.1,-0.45c-0.11,-0.45 -0.22,-0.9 -0.34,-1.35c-0.25,-0.93 -0.52,-1.84 -0.83,-2.74c-0.15,-0.46 -0.32,-0.91 -0.49,-1.36c-0.57,-1.54 -1.22,-3.03 -1.93,-4.47c-0.64,-1.28 -1.32,-2.53 -2.04,-3.74c-0.37,-0.6 -0.74,-1.2 -1.12,-1.78c-0.9,-1.39 -1.85,-2.72 -2.83,-3.98c-0.47,-0.61 -0.95,-1.2 -1.43,-1.79c3.81,-1.71 8.65,-2.5 13.92,-2.86c0.52,1.48 0.93,2.97 1.25,4.44c0.26,1.21 0.47,2.4 0.62,3.58c0.17,1.32 0.28,2.61 0.33,3.89c0.07,1.57 0.05,3.12 -0.02,4.6c-0.02,0.28 -0.03,0.55 -0.05,0.82c-0.06,0.88 -0.14,1.75 -0.24,2.59c-0.16,1.36 -0.36,2.65 -0.59,3.86c-0.08,0.45 -0.17,0.89 -0.26,1.32c-0.23,1.07 -0.47,2.07 -0.72,2.99c-0.45,1.69 -0.91,3.1 -1.29,4.15c-0.5,1.4 -0.85,2.18 -0.85,2.18Z" style="fill:#725636;fill-rule:nonzero;"/><path d="M197.36,170.42c-13.57,0 -34.35,-18.6 -34.35,-34.64c0,-14.51 16,-15.7 32.35,-15.7c17.62,0 26.2,7.08 26.2,21.67c0,16.05 -10.63,28.67 -24.2,28.67Zm-40.33,-40.66c-3.23,0 -4.69,0.94 -5.25,2.93c-0.57,-3.27 -2.07,-5.75 -4.21,-7.63c7.65,2.27 16.27,0.63 18.99,0.01c-2.27,2.01 -3.82,4.71 -4.29,8.31c-0.56,-2.07 -1.85,-3.62 -5.24,-3.62Zm-40.28,40.66c-13.57,0 -24.19,-12.62 -24.19,-28.67c0,-14.59 8.58,-21.67 26.2,-21.67c16.39,0 32.35,1.19 32.35,15.7c0,1.43 -0.18,2.88 -0.49,4.34c-0.14,0.39 -0.24,0.76 -0.27,1.11c-3.82,14.52 -21.54,29.19 -33.6,29.19Zm78.61,-51.29c-9.11,0 -19.85,0.21 -26.6,4.32c-13.73,3.83 -23.3,0.03 -23.37,0c-6.77,-4.11 -17.52,-4.32 -26.63,-4.32c-17.07,0 -27.14,6.49 -27.14,22.62c0,16.13 10.58,29.62 25.13,29.62c12.9,0 30.65,-15.29 34.52,-30l0,-0.04c0.5,-1.87 0.77,-3.73 0.77,-5.55l-0.01,-0.15c0.89,-2.48 2.54,-3.52 5,-3.52c2.48,0 4.19,1.01 5.09,3.62l0,0.05c0,1.76 0.25,3.57 0.71,5.38l0.01,0.21l0.05,0c3.85,14.71 21.57,30 34.47,30c14.59,0 25.13,-13.49 25.13,-29.62c0,-16.13 -10.03,-22.62 -27.13,-22.62Z" style="fill:#f17c21;fill-rule:nonzero;"/><path d="M157.03,128.71c2.13,0 3.73,0.56 4.83,1.71c0.43,-1.36 1.06,-2.61 1.86,-3.74c-3.28,0.51 -8.24,0.95 -13.19,0.13c0.69,1 1.24,2.08 1.65,3.25c1.32,-1.15 3.2,-1.35 4.85,-1.35Zm0,2.1c-2.67,0 -3.58,0.68 -4,1.51c1.04,-0.84 2.38,-1.26 4,-1.26c1.23,0 2.29,0.22 3.17,0.68c-0.62,-0.56 -1.59,-0.93 -3.17,-0.93Zm-38.27,-9.69c-17.16,0 -25.15,6.56 -25.15,20.63c0,15.49 10.16,27.63 23.14,27.63c11.97,0 29.03,-14.88 32.59,-28.42c0,-0.22 0.1,-0.66 0.29,-1.2c0.27,-1.31 0.43,-2.69 0.43,-3.98c0,-13.52 -15.46,-14.66 -31.3,-14.66Zm76.6,0c-15.84,0 -31.3,1.14 -31.3,14.66c0,15.58 20.15,33.6 33.3,33.6c12.98,0 23.15,-12.14 23.15,-27.63c0,-14.07 -8,-20.63 -25.15,-20.63Zm2,51.3c-13.09,0 -30.93,-15.28 -35.27,-30l-0.25,0l-0.05,-1.05c-0.46,-1.86 -0.71,-3.71 -0.72,-5.46c-0.71,-1.93 -1.93,-2.75 -4.04,-2.75c-2.04,0 -3.23,0.79 -3.95,2.66c-0.01,1.88 -0.27,3.74 -0.76,5.65l0,0.91l-0.25,0.01c-4.33,14.73 -22.21,30.03 -35.32,30.03c-14.68,0 -26.18,-13.47 -26.18,-30.67c0,-15.7 9.48,-23.67 28.19,-23.67c10.03,0 20.39,0.35 27.17,4.48c0.23,0.06 9.38,3.51 22.41,-0.08c6.77,-4.05 17.06,-4.4 27.02,-4.4c18.7,0 28.18,7.97 28.18,23.67c0,17.2 -11.5,30.67 -26.18,30.67Z" style="fill:#f17c21;fill-rule:nonzero;"/></g></svg>