<?xml version="1.0" encoding="UTF-8" standalone="no"?><!DOCTYPE svg PUBLIC "-//W3C//DTD SVG 1.1//EN" "http://www.w3.org/Graphics/SVG/1.1/DTD/svg11.dtd"><svg width="100%" height="100%" viewBox="0 0 300 300" version="1.1" xmlns="http://www.w3.org/2000/svg" xmlns:xlink="http://www.w3.org/1999/xlink" xml:space="preserve" style="fill-rule:evenodd;clip-rule:evenodd;stroke-linejoin:round;stroke-miterlimit:1.41421;"><g id="_25"><rect x="0.04" y="0.275" width="299.359" height="299.705" style="fill:#b74f6c;fill-rule:nonzero;"/><path d="M88.47,105.86c-3.99,8.74 -9.4,17.49 -8.57,25.74c2.97,28.92 -2.25,83.21 10.34,86.78c2.41,0.7 -5.93,-57.84 -4.07,-87.26c-0.85,-8.24 3.57,-12.88 7.54,-21.63c-0.43,-4.14 -0.43,-4.14 -5.24,-3.63Z" style="fill:#1d130b;fill-rule:nonzero;"/><path d="M224.16,105.86c3.99,8.74 9.4,17.49 8.55,25.74c-2.97,28.92 2.24,83.21 -10.33,86.78c-2.4,0.7 5.94,-57.84 4.06,-87.26c0.86,-8.24 -3.55,-12.88 -7.54,-21.63c0.42,-4.14 0.42,-4.14 5.26,-3.63Z" style="fill:#1d130b;fill-rule:nonzero;"/><path d="M89.7,94.344c-4.17,8.306 -9.53,16.436 -9.53,24.736c0,29.07 -9.17,82.55 1.2,87.39c1.99,0.93 0,-58.16 4.16,-87.22c0,-8.3 4.17,-12.44 8.31,-20.766c0,-4.14 0,-4.14 -4.14,-4.14Z" style="fill:#3e2a12;fill-rule:nonzero;"/><path d="M223.77,99.542c4.14,8.328 11.31,16.938 11.31,25.238c0,29.06 9.17,82.53 -1.2,87.39c-2.01,0.9 0,-58.16 -4.17,-87.22c0,-8.3 -4.14,-12.46 -8.3,-20.76c0,-4.163 0,-4.163 4.16,-4.163" style="fill:#3e2a12;fill-rule:nonzero;"/><path d="M212.31,124.06c4.16,8.33 9.52,16.46 9.52,24.76c0,29.06 9.17,82.53 -1.22,87.36c-1.99,0.93 0,-58.13 -4.14,-87.19c0,-8.3 -4.16,-12.46 -8.3,-20.76c0,-4.17 0,-4.17 4.14,-4.17Z" style="fill:#3e2a12;fill-rule:nonzero;"/><path d="M87.1,136.21c4.16,8.3 9.53,16.45 9.53,24.75c0,29.07 9.16,82.53 -1.21,87.37c-2.01,0.92 0,-58.13 -4.16,-87.2c0,-8.3 -4.16,-12.46 -8.3,-20.76c0,-4.16 0,-4.16 4.14,-4.16Z" style="fill:#3e2a12;fill-rule:nonzero;"/><path d="M221.29,114.56c4.16,8.3 9.52,16.43 9.52,24.76c0,29.06 9.17,82.52 -1.22,87.35c-1.99,0.94 0,-58.12 -4.14,-87.19c0,-8.32 -4.16,-12.46 -8.31,-20.76c0,-4.16 0,-4.16 4.15,-4.16Z" style="fill:#36180c;fill-rule:nonzero;"/><path d="M93.35,105.86c-3.99,8.74 -9.4,17.49 -8.55,25.74c2.97,28.92 -2.27,83.21 10.35,86.78c2.41,0.7 -5.96,-57.84 -4.11,-87.26c-0.84,-8.24 3.58,-12.88 7.57,-21.63c-0.42,-4.14 -0.42,-4.14 -5.26,-3.63Z" style="fill:#36180c;fill-rule:nonzero;"/><path d="M106.36,136.12c-3.99,8.77 -9.42,17.49 -8.58,25.75c2.98,28.94 -2.23,83.2 10.35,86.78c2.41,0.69 -5.93,-57.82 -4.07,-87.24c-0.85,-8.26 3.55,-12.88 7.54,-21.65c-0.43,-4.12 -0.43,-4.12 -5.24,-3.64Z" style="fill:#3e2a12;fill-rule:nonzero;"/><path d="M117.85,136.99c-3.97,8.77 -9.4,17.49 -8.55,25.75c2.98,28.92 -2.24,83.2 10.35,86.77c2.4,0.7 -5.96,-57.83 -4.08,-87.24c-0.87,-8.26 3.55,-12.88 7.54,-21.65c-0.42,-4.11 -0.42,-4.11 -5.26,-3.63Z" style="fill:#36180c;fill-rule:nonzero;"/><path d="M214.71,131.37c-3.98,8.75 -9.39,17.49 -8.55,25.75c2.98,28.92 -2.24,83.21 10.33,86.77c2.41,0.68 -5.93,-57.83 -4.05,-87.26c-0.87,-8.25 3.54,-12.88 7.54,-21.63c-0.42,-4.13 -0.42,-4.13 -5.27,-3.63Z" style="fill:#83582e;fill-rule:nonzero;"/><path d="M111.73,123.68c-4,8.75 -9.4,17.49 -8.56,25.75c2.98,28.92 -2.26,83.21 10.35,86.78c2.41,0.69 -5.96,-57.84 -4.1,-87.26c-0.84,-8.24 3.57,-12.89 7.56,-21.63c-0.42,-4.14 -0.42,-4.14 -5.25,-3.64Z" style="fill:#1d130b;fill-rule:nonzero;"/><path d="M203.02,139.9c-4,8.77 -9.4,17.51 -8.56,25.75c2.98,28.94 -2.24,83.2 10.35,86.8c2.41,0.67 -5.94,-57.84 -4.08,-87.26c-0.86,-8.26 3.55,-12.89 7.55,-21.65c-0.43,-4.12 -0.43,-4.12 -5.26,-3.64Z" style="fill:#3e2a12;fill-rule:nonzero;"/><path d="M206.69,136.12c-3.99,8.77 -9.42,17.49 -8.56,25.75c2.96,28.94 -2.25,83.2 10.33,86.78c2.41,0.69 -5.93,-57.82 -4.07,-87.24c-0.84,-8.26 3.57,-12.88 7.54,-21.65c-0.42,-4.12 -0.42,-4.12 -5.24,-3.64Z" style="fill:#3e2a12;fill-rule:nonzero;"/><path d="M194.42,144.32c-3.97,8.77 -9.4,17.49 -8.53,25.75c2.95,28.94 -2.26,83.2 10.33,86.79c2.4,0.68 -5.94,-57.85 -4.08,-87.26c-0.85,-8.26 3.57,-12.88 7.56,-21.65c-0.44,-4.12 -0.44,-4.12 -5.28,-3.63Z" style="fill:#3e2a12;fill-rule:nonzero;"/><path d="M129.78,144.32c-3.99,8.77 -9.4,17.49 -8.55,25.75c2.98,28.94 -2.24,83.2 10.35,86.79c2.41,0.68 -5.95,-57.85 -4.08,-87.26c-0.84,-8.26 3.57,-12.88 7.55,-21.65c-0.43,-4.12 -0.43,-4.12 -5.27,-3.63Z" style="fill:#1d130b;fill-rule:nonzero;"/><path d="M133.4,141.72c-4,8.77 -9.4,17.49 -8.56,25.75c2.98,28.94 -2.24,83.2 10.33,86.77c2.41,0.7 -5.94,-57.81 -4.08,-87.23c-0.84,-8.26 3.57,-12.89 7.56,-21.65c-0.41,-4.12 -0.41,-4.12 -5.25,-3.64Z" style="fill:#36180c;fill-rule:nonzero;"/><path d="M140.35,141.72c-4,8.77 -9.4,17.49 -8.58,25.75c3,28.94 -2.22,83.2 10.35,86.77c2.41,0.7 -5.93,-57.81 -4.08,-87.23c-0.84,-8.26 3.57,-12.89 7.56,-21.65c-0.42,-4.12 -0.42,-4.12 -5.25,-3.64Z" style="fill:#3e2a12;fill-rule:nonzero;"/><path d="M181.11,141.72c-3.99,8.77 -9.4,17.49 -8.55,25.75c2.98,28.94 -2.24,83.2 10.33,86.77c2.42,0.7 -5.94,-57.81 -4.08,-87.23c-0.85,-8.26 3.57,-12.89 7.56,-21.65c-0.42,-4.12 -0.42,-4.12 -5.26,-3.64Z" style="fill:#1d130b;fill-rule:nonzero;"/><path d="M188.1,141.72c-3.97,8.77 -9.4,17.49 -8.53,25.75c2.96,28.94 -2.26,83.2 10.33,86.77c2.41,0.7 -5.94,-57.81 -4.08,-87.23c-0.84,-8.26 3.57,-12.89 7.56,-21.65c-0.44,-4.12 -0.44,-4.12 -5.28,-3.64Z" style="fill:#3e2a12;fill-rule:nonzero;"/><path d="M220.57,120.71c-3.97,8.76 -9.4,17.48 -8.54,25.74c2.96,28.92 -2.26,83.21 10.33,86.77c2.41,0.7 -5.93,-57.83 -4.07,-87.23c-0.85,-8.26 3.57,-12.89 7.56,-21.65c-0.44,-4.12 -0.44,-4.12 -5.28,-3.63Z" style="fill:#36180c;fill-rule:nonzero;"/><path d="M96.88,120.79c3.1,24.92 -4.35,45.41 -9.32,70.61c-2.85,14.37 0,37.37 12.42,41.51c-9.32,-16.6 -9.32,-33.2 -3.1,-49.83c6.21,-16.6 0,-37.37 6.21,-58.13c0,-4.16 -3.11,-4.16 -6.21,-4.16Z" style="fill:#83582e;fill-rule:nonzero;"/><path d="M210.64,128.88c3.1,24.92 -4.77,45.33 -9.31,70.61c-3.3,18.32 0,37.37 12.41,41.53c-9.31,-16.62 -9.31,-33.22 -3.1,-49.83c6.23,-16.62 0,-37.39 6.23,-58.15c0,-4.16 -3.13,-4.16 -6.23,-4.16Z" style="fill:#1d130b;fill-rule:nonzero;"/><path d="M195.11,147.15c3.11,24.93 -4.87,45.31 -9.31,70.59c-2.21,12.51 0,37.37 12.42,41.53c-9.31,-16.6 -9.31,-33.23 -3.11,-49.83c6.22,-16.6 0,-37.36 6.22,-58.15c0,-4.14 -3.11,-4.14 -6.22,-4.14Z" style="fill:#36180c;fill-rule:nonzero;"/><path d="M220.8,100.049c-3.11,24.901 4.79,45.311 9.31,70.591c2.56,14.32 0,37.36 -12.42,41.53c9.32,-16.63 9.32,-33.23 3.11,-49.83c-6.21,-16.63 0,-37.39 -6.21,-58.15c0,-4.141 3.1,-4.141 6.21,-4.141Z" style="fill:#83582e;fill-rule:nonzero;"/><path d="M115.42,141.83c-3.1,24.9 3.46,45.58 9.34,70.59c3.34,14.28 0,37.37 -12.44,41.53c9.33,-16.63 9.33,-33.23 3.1,-49.83c-6.21,-16.62 0,-37.39 -6.21,-58.15c0,-4.14 3.11,-4.14 6.21,-4.14Z" style="fill:#83582e;fill-rule:nonzero;"/><path d="M224.43,132.51c-1.24,1.21 -5.47,1.25 -9.42,9.17c-2.43,4.86 -4.29,5.32 -4.29,5.32c0,0 3.06,-19.81 3.06,-25.32c0,-5.49 -17.57,-46.258 -27.35,-49.555c-9.84,-3.231 -18.64,7.731 -29.21,7.731l-0.82,0c-10.33,-0.213 -19.52,-10.922 -29.19,-7.731c-9.8,3.297 -27.36,44.065 -27.36,49.555c0,5.51 3.07,25.32 3.07,25.32c0,0 -3.09,-1.28 -5.39,-6.19c-3.99,-8.47 -6.91,-7.15 -8.3,-8.36c-2.62,-34.342 5.56,-80.369 67.08,-80.369l0.34,0c61.87,0 70.49,46.085 67.78,80.429Z" style="fill:#3e2a12;fill-rule:nonzero;"/><path d="M156.78,187.35l0,112.62l-60.71,0c-0.99,-0.39 -1.48,-0.59 -1.48,-0.59c0,-7.9 0.63,-14.84 1.72,-20.93c0.93,-5 2.14,-9.46 3.58,-13.39c3.21,-8.77 7.51,-15.04 11.94,-19.55c3.93,-3.99 7.96,-6.58 11.36,-8.23c1.11,-0.55 2.16,-1 3.12,-1.35c0.33,-0.13 0.64,-0.25 0.95,-0.35c0.37,-0.13 0.7,-0.23 1.03,-0.33c2.14,-0.68 3.45,-0.83 3.45,-0.83c0.23,0 0.44,-0.02 0.66,-0.06c1.92,-0.31 3.46,-1.97 4.71,-4.63c0.93,-1.97 1.71,-4.5 2.33,-7.4c0.25,-1.16 0.45,-2.29 0.66,-3.54c0.28,-2.08 0.57,-4.26 0.84,-6.55c0.08,-1.37 0.23,-2.71 0.39,-4.15c0.54,-6.89 0.68,-14.44 0.68,-21.58c0,0 8.17,0.84 14.77,0.84Z" style="fill:#e0bd9a;fill-rule:nonzero;"/><path d="M219.25,299.38c0,0 -0.54,0.2 -1.44,0.59l-61.03,0l0,-112.62l0.17,0c6.56,0 14.81,-0.84 14.81,-0.84c0,7.09 0.14,14.52 0.7,21.43c0.14,1.34 0.29,2.72 0.39,4.06c0.25,2.38 0.54,4.61 0.89,6.71l0,0.04c0.1,0.94 0.28,1.79 0.45,2.67c0.6,2.92 1.32,5.51 2.2,7.57c1.09,2.57 2.43,4.36 4.03,5.08c0.52,0.23 1.05,0.35 1.63,0.35c0,0 1.93,0.23 4.94,1.32c0.28,0.1 0.57,0.21 0.88,0.33c0.17,0.06 0.33,0.12 0.49,0.21c0.44,0.16 0.87,0.37 1.32,0.57c3.13,1.42 6.89,3.66 10.68,7.12l0,0.02c4.98,4.55 9.98,11.23 13.58,21.07c1.4,3.81 2.59,8.11 3.5,12.9c1.15,6.21 1.81,13.31 1.81,21.42Z" style="fill:#efd0ad;fill-rule:nonzero;"/><path d="M173.93,218.49l0,0.05c-1.53,2.37 -6.67,9.17 -16.85,9.17l-0.1,0c-9.63,-0.05 -15.27,-7.05 -16.7,-9.12c0.3,-2.07 0.59,-4.24 0.84,-6.5c0.1,-1.33 0.25,-2.71 0.4,-4.14c4.69,1.18 9.83,1.92 15.26,2.02l0.2,0c5.64,-0.1 10.82,-0.89 15.67,-2.17c0.14,1.33 0.29,2.71 0.39,4.04c0.25,2.37 0.55,4.58 0.89,6.65Z" style="fill:#be987f;fill-rule:nonzero;"/><path d="M156.29,59.017c-64.34,0 -64.68,53.943 -61.82,89.273c-4.39,-8.38 -17.49,-5.82 -16.4,7.39c1.04,12.71 19.74,19.19 19.22,17.78c9.74,26.13 35.53,45.82 59,45.82l0.49,0l0,-160.263l-0.49,0Z" style="fill:#d2a686;fill-rule:nonzero;"/><path d="M82.17,150.11c3.16,-5.12 8.1,-2.91 9.29,-1.77c1.29,1.23 2.32,2.81 1.53,5.81c-0.44,1.72 -2.22,1.87 -1.83,4.43c0.5,2.91 1.83,3.06 2.62,3.75c0.74,0.64 1.68,1.13 2.13,2.36c0.49,1.24 0.54,2.52 0.29,3.65c-0.49,2.07 -3.5,0.39 -5.53,-0.49c-1.33,-0.64 -5.58,-4.24 -6.67,-5.42c-2.67,-3.06 -3.95,-8.97 -1.83,-12.32Z" style="fill:#ac8774;fill-rule:nonzero;"/><path d="M156.64,59.017c64.33,0 64.68,53.943 61.86,89.273c4.4,-8.38 17.45,-5.82 16.36,7.39c-0.99,12.71 -19.74,19.19 -19.22,17.78c-9.49,26.13 -35.53,45.82 -59,45.82c-0.15,0 -0.35,0 -0.35,0l-0.15,-160.263c0,0 0.35,0 0.5,0Z" style="fill:#ddb598;fill-rule:nonzero;"/><path d="M230.76,150.11c-3.17,-5.12 -8.06,-2.91 -9.29,-1.77c-1.29,1.23 -2.28,2.81 -1.53,5.81c0.44,1.72 2.22,1.87 1.82,4.43c-0.49,2.91 -1.82,3.06 -2.57,3.75c-0.74,0.64 -1.73,1.13 -2.17,2.36c-0.45,1.24 -0.54,2.52 -0.3,3.65c0.5,2.07 3.51,0.39 5.54,-0.49c1.38,-0.64 5.58,-4.24 6.67,-5.42c2.72,-3.06 3.95,-8.97 1.83,-12.32Z" style="fill:#ac8774;fill-rule:nonzero;"/><path d="M155.78,74.24c-21.14,0 -36.66,6.158 -46,18.278c-13.09,17.002 -12.6,42.912 -7.81,61.532c1.49,5.72 2.28,21.04 3.26,26.66c4.6,25.17 32.32,38.57 50.55,38.57c0,0 0.35,0 0.5,0l0,-145.04c-0.15,0 -0.3,0 -0.3,0l-0.2,0Z" style="fill:#e0bd9a;fill-rule:nonzero;"/><path d="M201.74,92.567c-9.29,-12.07 -24.61,-18.229 -45.46,-18.327l0,145.04c20.85,-0.24 45.8,-14.93 50.05,-38.57c1.04,-5.62 1.78,-20.94 3.27,-26.66c4.84,-18.57 5.33,-44.44 -7.86,-61.483Z" style="fill:#efd0ad;fill-rule:nonzero;"/><path d="M156.47,190.83" style="fill:#bc917b;fill-rule:nonzero;"/><path d="M156.47,190.83" style="fill:#bc917b;fill-rule:nonzero;"/><path d="M152.9,193.57c-0.1,-0.02 -0.2,-0.04 -0.3,-0.06c0.1,0.02 0.19,0.04 0.3,0.06Z" style="fill:#bc917b;fill-rule:nonzero;"/><path d="M156.47,193.38" style="fill:#bc917b;fill-rule:nonzero;"/><path d="M152.12,193.39c-0.09,-0.02 -0.18,-0.05 -0.27,-0.07l-0.01,0c0,0 0.1,0.03 0.28,0.07Z" style="fill:#bc917b;fill-rule:nonzero;"/><path d="M156.47,193.38" style="fill:#bc917b;fill-rule:nonzero;"/><path d="M144.28,174.75c-0.25,-5.01 9.17,-1.83 12.28,-1.67c2.45,0.13 9.92,-1.58 10.56,-1.14c4.4,2.97 -4.65,8.96 -10.72,8.96c-1.61,0 -11.98,-3.12 -12.12,-6.15Z" style="fill:#ddb598;fill-rule:nonzero;"/><path d="M138.32,74.602l-0.27,0.268l0.04,0.09c0.09,-0.135 0.14,-0.269 0.23,-0.358Z" style="fill:#432e1b;fill-rule:nonzero;"/><path d="M97.35,125.71" style="fill:#432e1b;fill-rule:nonzero;"/><path d="M156.74,193.4" style="fill:#ba907b;fill-rule:nonzero;"/><path d="M156.74,193.4" style="fill:#ba907b;fill-rule:nonzero;"/><path d="M153.08,190.63c-0.1,-0.02 -0.21,-0.05 -0.31,-0.07c0.1,0.02 0.19,0.04 0.31,0.07Z" style="fill:#ba907b;fill-rule:nonzero;"/><path d="M156.74,190.43" style="fill:#ba907b;fill-rule:nonzero;"/><path d="M152.27,190.45c-0.09,-0.03 -0.18,-0.06 -0.27,-0.08l-0.01,0c0,0 0.1,0.03 0.28,0.08Z" style="fill:#ba907b;fill-rule:nonzero;"/><path d="M156.74,190.43" style="fill:#ba907b;fill-rule:nonzero;"/><path d="M110.13,130.85c0,0 4.9,20.2 13.33,21.85c8.43,1.64 17.55,-1.63 17.55,-1.63c0,0 0.87,-23.74 -3.45,-26.84c-4.31,-3.12 -14.25,-7.62 -27.43,6.62Z" style="fill:#fff;fill-rule:nonzero;"/><path d="M141.02,151.01c0,0 -0.2,0.05 -0.63,0.23c-0.11,-7.28 -0.78,-17.28 -3.47,-19.19c-4.01,-2.95 -13.05,-7.09 -25.14,4.24c-1.1,-3.13 -1.65,-5.5 -1.65,-5.5c13.21,-14.27 23.16,-9.77 27.44,-6.66c4.32,3.12 3.45,26.88 3.45,26.88Z" style="fill:#d6b496;fill-rule:nonzero;"/><path d="M136.03,140.72c0,4.6 -3.71,8.32 -8.3,8.32c-4.58,0 -8.29,-3.72 -8.29,-8.32c0,-4.59 3.71,-8.32 8.29,-8.32c4.59,0 8.3,3.73 8.3,8.32Z" style="fill:#482315;fill-rule:nonzero;"/><path d="M127.35,146.26c-2.4,-0.2 -4.23,-2.62 -4.02,-5.29c0.22,-2.66 2.43,-4.75 4.82,-4.55c2.4,0.2 4.23,2.62 4.02,5.29c-0.22,2.66 -2.43,4.75 -4.82,4.55Z" style="fill:#7e3a22;fill-rule:nonzero;"/><path d="M127.56,145.3c-1.67,-0.14 -3.4,-1.98 -3.22,-4.24c0.19,-2.26 2.19,-3.79 3.86,-3.66c1.67,0.15 3.39,1.99 3.21,4.25c-0.18,2.26 -2.19,3.79 -3.85,3.65Z" style="fill:#211a10;fill-rule:nonzero;"/><path d="M126.21,139.72c-0.07,0.82 -0.91,1.42 -1.87,1.34c-0.96,-0.08 -1.68,-0.81 -1.61,-1.62c0.07,-0.83 0.9,-1.42 1.85,-1.34c0.97,0.07 1.69,0.8 1.63,1.62Z" style="fill:#fff;fill-rule:nonzero;"/><path d="M131.58,144.45c-0.03,0.41 -0.45,0.71 -0.93,0.67c-0.48,-0.04 -0.84,-0.41 -0.81,-0.82c0.04,-0.4 0.46,-0.7 0.93,-0.66c0.48,0.04 0.85,0.4 0.81,0.81Z" style="fill:#fff;fill-rule:nonzero;"/><path d="M156.88,190.35" style="fill:#ba907b;fill-rule:nonzero;"/><path d="M156.88,190.35" style="fill:#ba907b;fill-rule:nonzero;"/><path d="M153.21,193.01c-0.1,-0.02 -0.21,-0.04 -0.31,-0.07c0.1,0.03 0.19,0.05 0.31,0.07Z" style="fill:#ba907b;fill-rule:nonzero;"/><path d="M156.88,192.81" style="fill:#ba907b;fill-rule:nonzero;"/><path d="M152.41,192.83c-0.1,-0.03 -0.19,-0.05 -0.28,-0.08l-0.01,0.01c0,0 0.11,0.03 0.29,0.07Z" style="fill:#ba907b;fill-rule:nonzero;"/><path d="M156.88,192.81" style="fill:#ba907b;fill-rule:nonzero;"/><path d="M156.76,189.97" style="fill:#bc917b;fill-rule:nonzero;"/><path d="M156.76,189.97" style="fill:#bc917b;fill-rule:nonzero;"/><path d="M152.83,192.44c-0.11,-0.02 -0.22,-0.05 -0.33,-0.07c0.11,0.02 0.21,0.04 0.33,0.07Z" style="fill:#bc917b;fill-rule:nonzero;"/><path d="M156.76,192.23" style="fill:#bc917b;fill-rule:nonzero;"/><path d="M151.97,192.25c-0.1,-0.03 -0.2,-0.06 -0.3,-0.09l-0.01,0.01c0,0 0.12,0.03 0.31,0.08Z" style="fill:#bc917b;fill-rule:nonzero;"/><path d="M156.76,192.23" style="fill:#bc917b;fill-rule:nonzero;"/><path d="M156.51,189.13" style="fill:#bc917b;fill-rule:nonzero;"/><path d="M156.51,189.13" style="fill:#bc917b;fill-rule:nonzero;"/><path d="M152.59,191.59c-0.12,-0.02 -0.23,-0.04 -0.34,-0.07c0.11,0.03 0.21,0.05 0.34,0.07Z" style="fill:#bc917b;fill-rule:nonzero;"/><path d="M156.51,191.38" style="fill:#bc917b;fill-rule:nonzero;"/><path d="M151.72,191.4c-0.1,-0.03 -0.19,-0.05 -0.29,-0.08l-0.02,0c0,0 0.12,0.03 0.31,0.08Z" style="fill:#bc917b;fill-rule:nonzero;"/><path d="M156.51,191.38" style="fill:#bc917b;fill-rule:nonzero;"/><path d="M157.15,188.91" style="fill:#bc917b;fill-rule:nonzero;"/><path d="M157.15,188.91" style="fill:#bc917b;fill-rule:nonzero;"/><path d="M153.36,191.48c-0.11,-0.02 -0.22,-0.04 -0.33,-0.07c0.11,0.02 0.2,0.04 0.33,0.07Z" style="fill:#bc917b;fill-rule:nonzero;"/><path d="M157.15,191.27" style="fill:#bc917b;fill-rule:nonzero;"/><path d="M152.52,191.29c-0.1,-0.02 -0.19,-0.05 -0.29,-0.08l-0.01,0.01c0,0 0.11,0.03 0.3,0.07Z" style="fill:#bc917b;fill-rule:nonzero;"/><path d="M157.15,191.27" style="fill:#bc917b;fill-rule:nonzero;"/><path d="M202.94,130.16c0,0 -4.91,20.2 -13.34,21.85c-8.43,1.65 -17.55,-1.63 -17.55,-1.63c0,0 -0.87,-23.74 3.45,-26.84c4.31,-3.11 14.25,-7.61 27.44,6.62Z" style="fill:#fff;fill-rule:nonzero;"/><path d="M172.04,150.32c0,0 0.2,0.05 0.63,0.24c0.11,-7.28 0.78,-17.28 3.47,-19.2c4.01,-2.94 13.05,-7.08 25.14,4.24c1.1,-3.13 1.65,-5.5 1.65,-5.5c-13.21,-14.26 -23.16,-9.77 -27.44,-6.65c-4.32,3.11 -3.45,26.87 -3.45,26.87Z" style="fill:#d6b496;fill-rule:nonzero;"/><path d="M177.03,140.03c0,4.6 3.72,8.32 8.3,8.32c4.58,0 8.29,-3.72 8.29,-8.32c0,-4.59 -3.71,-8.32 -8.29,-8.32c-4.58,0 -8.3,3.73 -8.3,8.32Z" style="fill:#482315;fill-rule:nonzero;"/><path d="M185.71,145.57c2.4,-0.19 4.24,-2.62 4.02,-5.28c-0.22,-2.67 -2.42,-4.76 -4.82,-4.55c-2.4,0.19 -4.23,2.62 -4.02,5.28c0.22,2.67 2.43,4.76 4.82,4.55Z" style="fill:#7e3a22;fill-rule:nonzero;"/><path d="M185.5,144.61c1.67,-0.14 3.4,-1.97 3.22,-4.23c-0.19,-2.27 -2.19,-3.8 -3.86,-3.66c-1.67,0.14 -3.39,1.98 -3.21,4.24c0.19,2.26 2.19,3.79 3.85,3.65Z" style="fill:#211a10;fill-rule:nonzero;"/><path d="M186.85,139.04c0.07,0.81 0.91,1.41 1.87,1.33c0.96,-0.08 1.68,-0.81 1.62,-1.62c-0.07,-0.82 -0.9,-1.42 -1.86,-1.34c-0.97,0.08 -1.69,0.81 -1.63,1.63Z" style="fill:#fff;fill-rule:nonzero;"/><path d="M181.48,143.76c0.03,0.41 0.45,0.71 0.93,0.67c0.48,-0.04 0.84,-0.41 0.81,-0.81c-0.04,-0.41 -0.45,-0.71 -0.93,-0.67c-0.48,0.04 -0.85,0.4 -0.81,0.81Z" style="fill:#fff;fill-rule:nonzero;"/><path d="M146.07,130.53c-0.07,-0.1 -1.6,-2.43 -4.72,-4.84c-1.96,-1.5 -3.88,-2.65 -5.87,-3.51c-2.42,-1.02 -5.03,-1.74 -7.55,-2.08c-2.29,-0.26 -4.82,-0.19 -7.77,0.21c-2.25,0.43 -4.45,1.1 -6.32,1.93c-1.33,0.46 -2.38,1.1 -3.23,1.62c-0.32,0.2 -0.61,0.38 -0.91,0.54l-4.03,2.54l4.64,-1.09c0.22,-0.06 0.45,-0.12 0.7,-0.19c0.96,-0.25 2.16,-0.57 3.56,-0.78c0.33,-0.04 0.66,-0.11 1,-0.18c0.58,-0.11 1.19,-0.24 1.82,-0.27c0.7,-0.04 1.43,-0.1 2.18,-0.15l0.97,-0.07c2.57,-0.03 4.74,0.16 6.67,0.61c2.11,0.36 4.27,1.05 6.26,1.97c1.87,0.9 3.67,1.79 5.08,2.82c2.83,1.9 4.41,3.48 4.42,3.5c0.39,0.39 0.91,0.6 1.43,0.6c0.38,0 0.77,-0.11 1.1,-0.33c0.93,-0.62 1.2,-1.88 0.6,-2.79l-0.03,-0.06Z" style="fill:#030405;fill-rule:nonzero;"/><path d="M203.76,124.38c-0.26,-0.14 -0.56,-0.32 -0.88,-0.52c-0.84,-0.52 -1.89,-1.16 -3.19,-1.61c-1.9,-0.84 -4.1,-1.51 -6.38,-1.95c-2.93,-0.39 -5.46,-0.46 -7.75,-0.2c-2.52,0.34 -5.12,1.06 -7.55,2.09c-1.96,0.84 -3.93,2.02 -5.86,3.5c-3.07,2.36 -4.6,4.65 -4.71,4.83l-0.03,0.04c-0.52,0.8 -0.41,1.87 0.26,2.55c0.38,0.39 0.89,0.6 1.43,0.6c0.54,0 1.04,-0.22 1.42,-0.6l0.02,-0.02c0.15,-0.15 1.68,-1.65 4.43,-3.49c1.38,-1.02 3.18,-1.91 5.05,-2.81c1.99,-0.92 4.16,-1.61 6.29,-1.98c1.9,-0.44 4.08,-0.63 6.61,-0.6l1.02,0.07c0.75,0.06 1.47,0.11 2.18,0.16c0.62,0.02 1.22,0.15 1.81,0.26c0.34,0.07 0.67,0.14 1,0.18c1.4,0.21 2.59,0.53 3.55,0.78c0.25,0.07 0.49,0.13 0.71,0.19l4.63,1.09l-4.06,-2.56Z" style="fill:#030405;fill-rule:nonzero;"/><path d="M155.59,198.3" style="fill:#be927b;fill-rule:nonzero;"/><path d="M155.59,198.3" style="fill:#be927b;fill-rule:nonzero;"/><path d="M151.75,195.4c-0.1,-0.02 -0.21,-0.04 -0.32,-0.07c0.11,0.03 0.2,0.05 0.32,0.07Z" style="fill:#be927b;fill-rule:nonzero;"/><path d="M155.59,195.19" style="fill:#be927b;fill-rule:nonzero;"/><path d="M150.91,195.21c-0.1,-0.02 -0.19,-0.05 -0.29,-0.08l-0.01,0.01c0,0 0.11,0.03 0.3,0.07Z" style="fill:#be927b;fill-rule:nonzero;"/><path d="M155.59,195.19" style="fill:#be927b;fill-rule:nonzero;"/><path d="M144.39,199.57c-0.24,-3.25 9.02,0.68 12.06,0.77c2.42,0.08 9.71,-0.48 10.38,-0.74c5.1,-1.91 -0.27,5.43 -10.53,5.82c-4.7,0.19 -11.77,-3.88 -11.91,-5.85Z" style="fill:#f0d2ad;fill-rule:nonzero;"/><path d="M174.54,193.31c-2.52,-0.13 -5.1,1.97 -8.12,1.65c-0.13,-0.06 -0.19,-0.06 -0.32,-0.06c-0.69,-0.12 -1.38,0 -2.13,0.19c-0.94,0.19 -1.89,0.58 -2.78,0.89c-1.51,0.49 -3.21,0.88 -4.96,0.75l0,0.01l-0.1,-0.01l-0.1,0.01l0,-0.01c-1.75,0.13 -3.45,-0.26 -4.96,-0.75c-0.89,-0.31 -1.84,-0.7 -2.78,-0.89c-0.75,-0.19 -1.44,-0.31 -2.13,-0.19c-0.13,0 -0.2,0 -0.32,0.06c-3.02,0.32 -5.6,-1.78 -8.12,-1.65c-0.69,0.06 -1.7,-0.13 -2.26,-0.13c0.12,0.07 0.25,0.13 0.38,0.19c7.16,3.5 13.35,10.07 20.19,9.86l0.2,0c6.84,0.21 13.03,-6.36 20.19,-9.86c0.13,-0.06 0.26,-0.12 0.38,-0.19c-0.56,0 -1.57,0.19 -2.26,0.13Z" style="fill:#dcbf9e;fill-rule:nonzero;"/><path d="M176.64,193.11c0,0 -7.28,-2.82 -12.47,-1.17c0,0 -1.93,0.76 -3.92,1.22c-1.22,0.47 -2.69,0.61 -4.12,0.55c-1.09,-0.04 -2.13,-0.18 -2.98,-0.33c-0.28,-0.04 -0.56,-0.1 -0.85,-0.16c-0.13,-0.03 -0.22,-0.05 -0.33,-0.07c-0.17,-0.04 -0.34,-0.07 -0.51,-0.12c-0.19,-0.05 -0.3,-0.08 -0.3,-0.08l0.01,0c-1.66,-0.45 -3.08,-1.01 -3.08,-1.01c-5.19,-1.65 -12.47,1.17 -12.47,1.17c-0.1,0.04 -0.16,0.07 -0.16,0.07c0.56,0 1.57,0.19 2.26,0.13c2.52,-0.13 5.1,1.97 8.12,1.65c0.12,-0.06 0.19,-0.06 0.32,-0.06c0.69,-0.12 1.38,0 2.13,0.19c0.94,0.19 1.89,0.58 2.78,0.89c1.51,0.49 3.21,0.88 4.96,0.75l0,0.01l0.1,-0.01l0.1,0.01l0,-0.01c1.75,0.13 3.45,-0.26 4.96,-0.75c0.89,-0.31 1.84,-0.7 2.78,-0.89c0.75,-0.19 1.44,-0.31 2.13,-0.19c0.13,0 0.19,0 0.32,0.06c3.02,0.32 5.6,-1.78 8.12,-1.65c0.69,0.06 1.7,-0.13 2.26,-0.13c0,0 -0.06,-0.03 -0.16,-0.07Z" style="fill:#c69f83;fill-rule:nonzero;"/><path d="M143.89,194.82c0.13,0.03 13.66,4.16 24.23,0.09l-1.22,-0.82l-14.29,0l-8.72,0.73Z" style="fill:#c69f83;fill-rule:nonzero;"/><path d="M219.25,299.38c0,0 -0.54,0.2 -1.44,0.59l-121.74,0c-0.99,-0.39 -1.48,-0.59 -1.48,-0.59c0,-7.9 0.63,-14.84 1.72,-20.93c0.93,-5 2.14,-9.46 3.58,-13.39c3.21,-8.77 7.51,-15.04 11.94,-19.55c0.22,1.88 0.7,4.94 1.38,6.09c1.93,3.25 5.63,6.53 9.98,9.49l0,-23.81c1.11,-0.55 2.16,-1 3.12,-1.35c2.22,10.59 9.36,32.91 30.47,37.34l0.21,0.04c22.67,-2.02 28.49,-26.46 30,-37.57c0.28,0.1 0.57,0.21 0.88,0.33c0.17,0.06 0.33,0.12 0.49,0.21c0.44,0.16 0.87,0.37 1.32,0.57l0,23.23c3.68,-2.7 6.81,-5.6 8.5,-8.48c1.07,-1.77 1.54,-5.02 2.22,-7.44l-0.04,-0.17c4.98,4.55 9.98,11.23 13.58,21.07c1.4,3.81 2.59,8.11 3.5,12.9c1.15,6.21 1.81,13.31 1.81,21.42Z" style="fill:#fff;fill-rule:nonzero;"/><path d="M219.58,84.377c-6.27,-15.46 -19.23,-21.99 -39.69,-31.368c-9.1,-4.161 -15.3,-5.166 -21.6,-4.51c-6.29,-0.656 -12.51,0.349 -21.6,4.51c-20.46,9.378 -37.55,15.958 -43.82,31.418c-6.27,15.46 -3.41,43.033 -3.41,47.713c0,4.68 0.57,13.07 1.38,14.95c0.83,1.87 4.9,3.3 7,8.92c2.07,5.62 2.89,4.66 2.89,4.66c0,0 -0.85,-5.61 -1.69,-11.94c0,0 13.84,-55.516 37.03,-40.57c4.34,4.53 10.73,7.77 18.13,8.81c1.34,0.18 2.7,0.28 4.09,0.32c1.39,-0.04 2.76,-0.14 4.09,-0.32c7.41,-1.04 13.8,-4.28 18.13,-8.81c23.19,-14.946 37.03,40.56 37.03,40.56c-0.83,6.34 -1.69,11.95 -1.69,11.95c0,0 0.82,0.96 2.9,-4.66c2.09,-5.62 6.16,-7.05 6.99,-8.92c0.81,-1.88 1.38,-10.27 1.38,-14.95c0,-4.68 -1.27,-32.303 -7.54,-47.763Z" style="fill:#36180c;fill-rule:nonzero;"/><path d="M101.01,150.5c-0.5,-1.61 -0.85,-3.26 -1.09,-4.95c0.05,-0.19 0.11,-0.39 0.17,-0.6c0.3,1.89 0.65,3.73 1.03,5.51c-0.03,0.02 -0.07,0.03 -0.11,0.04Z" style="fill:#766359;fill-rule:nonzero;"/><path d="M101.12,150.46c-0.38,-1.78 -0.73,-3.62 -1.03,-5.51c1.11,-3.72 3.08,-9.76 5.82,-16c1.13,-0.56 2.38,-0.98 3.73,-1.29c1.55,-0.36 3.11,-0.65 4.66,-0.87c-1.35,1.13 -2.74,2.45 -4.17,4c0,0 0.01,0.01 0.01,0.04c0,0.01 -0.01,0.01 -0.01,0.02c0,0 2.32,9.58 6.53,16.08c-5.57,0.71 -10.8,1.99 -15.54,3.53Zm44.84,-1.02c-1.64,-0.53 -3.26,-0.98 -4.88,-1.36c0.05,-4.11 -0.02,-11.74 -0.95,-17.35c1.83,1.36 2.83,2.37 2.84,2.38c0.39,0.39 0.91,0.6 1.43,0.6c0.38,0 0.77,-0.11 1.1,-0.33c0.14,-0.09 0.26,-0.2 0.37,-0.31c0.87,1.16 1.48,2.51 1.76,4.08c0.63,3.6 0.06,7.1 -1.06,10.51c-0.19,0.6 -0.4,1.19 -0.61,1.78Z" style="fill:#7b6c60;fill-rule:nonzero;"/><path d="M140.3,147.91c-2.31,-0.52 -4.6,-0.89 -6.86,-1.15c1.59,-1.51 2.59,-3.66 2.59,-6.04c0,-4.59 -3.71,-8.32 -8.3,-8.32c-4.58,0 -8.29,3.73 -8.29,8.32c0,2.23 0.87,4.25 2.29,5.74c-1.72,0.1 -3.41,0.26 -5.07,0.47c-4.21,-6.5 -6.53,-16.08 -6.53,-16.08c0,-0.01 0.01,-0.01 0.01,-0.02c0.08,0.34 0.63,2.58 1.64,5.46c6.07,-5.68 11.36,-7.47 15.65,-7.47c4.25,0 7.49,1.76 9.49,3.23c2.3,1.63 3.12,9.16 3.38,15.86Z" style="fill:#858285;fill-rule:nonzero;"/><path d="M141.08,148.08c-0.26,-0.06 -0.52,-0.12 -0.78,-0.17c-0.26,-6.7 -1.08,-14.23 -3.38,-15.86c-2,-1.47 -5.24,-3.23 -9.49,-3.23c-4.29,0 -9.58,1.79 -15.65,7.47c-1.01,-2.88 -1.56,-5.12 -1.64,-5.46c0,-0.03 -0.01,-0.04 -0.01,-0.04c1.43,-1.55 2.82,-2.87 4.17,-4c3.02,-0.44 6.04,-0.63 9.08,-0.63c2.67,0 5.35,0.15 8.04,0.43c0.73,0.07 1.47,0.16 2.2,0.27c1.82,0.88 3.56,1.75 4.93,2.75c0.58,0.39 1.1,0.77 1.58,1.12c0.93,5.61 1,13.24 0.95,17.35Z" style="fill:#77685f;fill-rule:nonzero;"/><path d="M133.44,146.76c-2.55,-0.28 -5.07,-0.42 -7.54,-0.42c-0.01,0 -0.02,0 -0.03,0c0,0 -0.01,0 -0.02,0c-1.39,0 -2.76,0.04 -4.12,0.12c-1.42,-1.49 -2.29,-3.51 -2.29,-5.74c0,-4.59 3.71,-8.32 8.29,-8.32c4.59,0 8.3,3.73 8.3,8.32c0,2.38 -1,4.53 -2.59,6.04Zm-10.08,-6.06c-0.01,0.09 -0.02,0.18 -0.03,0.27c-0.21,2.67 1.62,5.09 4.02,5.29c0.11,0.01 0.21,0.01 0.32,0.01c1.06,0 2.07,-0.44 2.87,-1.17c0.03,0.01 0.07,0.01 0.11,0.02c0.03,0 0.06,0 0.09,0c0.44,0 0.81,-0.29 0.84,-0.67c0.02,-0.17 -0.04,-0.33 -0.14,-0.47c0.4,-0.66 0.66,-1.44 0.73,-2.27c0.21,-2.67 -1.62,-5.09 -4.02,-5.29c-0.1,-0.01 -0.21,-0.01 -0.32,-0.01c-1.29,0 -2.5,0.65 -3.34,1.68c-0.03,0 -0.05,0 -0.08,0c-0.88,0 -1.62,0.57 -1.68,1.35c-0.04,0.49 0.21,0.96 0.63,1.26Z" style="fill:#35201a;fill-rule:nonzero;"/><path d="M127.67,146.27c-0.11,0 -0.21,0 -0.32,-0.01c-2.4,-0.2 -4.23,-2.62 -4.02,-5.29c0.01,-0.09 0.02,-0.18 0.03,-0.27c0.27,0.2 0.61,0.33 0.98,0.36c-0.18,2.26 1.55,4.1 3.22,4.24c0.07,0.01 0.14,0.01 0.21,0.01c0.7,0 1.46,-0.29 2.09,-0.79c0.08,0.28 0.34,0.51 0.68,0.58c-0.8,0.73 -1.81,1.17 -2.87,1.17Zm3.77,-2.29c-0.14,-0.19 -0.39,-0.32 -0.67,-0.34c-0.02,0 -0.05,-0.01 -0.07,-0.01c0.38,-0.55 0.65,-1.23 0.71,-1.98c0.18,-2.26 -1.54,-4.1 -3.21,-4.25c-0.07,0 -0.14,0 -0.21,0c-0.83,0 -1.72,0.39 -2.41,1.06c-0.27,-0.2 -0.62,-0.33 -1,-0.36c-0.03,-0.01 -0.06,-0.01 -0.09,-0.01c0.84,-1.03 2.05,-1.68 3.34,-1.68c0.11,0 0.22,0 0.32,0.01c2.4,0.2 4.23,2.62 4.02,5.29c-0.07,0.83 -0.33,1.61 -0.73,2.27Z" style="fill:#512f24;fill-rule:nonzero;"/><path d="M127.77,145.31c-0.07,0 -0.14,0 -0.21,-0.01c-1.67,-0.14 -3.4,-1.98 -3.22,-4.24c0.06,0 0.12,0.01 0.17,0.01c0.89,0 1.63,-0.58 1.7,-1.35c0.04,-0.49 -0.21,-0.96 -0.63,-1.26c0.69,-0.67 1.58,-1.06 2.41,-1.06c0.07,0 0.14,0 0.21,0c1.67,0.15 3.39,1.99 3.21,4.25c-0.06,0.75 -0.33,1.43 -0.71,1.98l-0.01,0c-0.44,0 -0.81,0.29 -0.85,0.67c0,0.08 0,0.15 0.02,0.22c-0.63,0.5 -1.39,0.79 -2.09,0.79Z" style="fill:#1d1916;fill-rule:nonzero;"/><path d="M124.51,141.07c-0.05,0 -0.11,-0.01 -0.17,-0.01c-0.37,-0.03 -0.71,-0.16 -0.98,-0.36c-0.42,-0.3 -0.67,-0.77 -0.63,-1.26c0.06,-0.78 0.8,-1.35 1.68,-1.35c0.03,0 0.05,0 0.08,0c0.03,0 0.06,0 0.09,0.01c0.38,0.03 0.73,0.16 1,0.36c0.42,0.3 0.67,0.77 0.63,1.26c-0.07,0.77 -0.81,1.35 -1.7,1.35Z" style="fill:#858285;fill-rule:nonzero;"/><path d="M130.74,145.12c-0.03,0 -0.06,0 -0.09,0c-0.04,-0.01 -0.08,-0.01 -0.11,-0.02c-0.34,-0.07 -0.6,-0.3 -0.68,-0.58c-0.02,-0.07 -0.02,-0.14 -0.02,-0.22c0.04,-0.38 0.41,-0.67 0.85,-0.67l0.01,0c0.02,0 0.05,0.01 0.07,0.01c0.28,0.02 0.53,0.15 0.67,0.34c0.1,0.14 0.16,0.3 0.14,0.47c-0.03,0.38 -0.4,0.67 -0.84,0.67Z" style="fill:#858285;fill-rule:nonzero;"/><path d="M144.4,133.71c-0.52,0 -1.04,-0.21 -1.43,-0.6c-0.01,-0.01 -1.01,-1.02 -2.84,-2.38c-0.48,-0.35 -1,-0.73 -1.58,-1.12c-1.37,-1 -3.11,-1.87 -4.93,-2.75c3.07,0.46 6.04,1.27 8.7,3.01c1.41,0.91 2.62,1.95 3.55,3.2c-0.11,0.11 -0.23,0.22 -0.37,0.31c-0.33,0.22 -0.72,0.33 -1.1,0.33Z" style="fill:#090b0c;fill-rule:nonzero;"/><path d="M99.92,145.55c-0.19,-1.37 -0.31,-2.76 -0.37,-4.17c-0.06,-0.86 -0.03,-1.72 0.06,-2.52c0.02,-0.5 0.09,-1 0.22,-1.47c0.13,-0.67 0.29,-1.26 0.41,-1.7c0.02,-0.15 0.07,-0.31 0.13,-0.49l0.09,-0.22c0.03,-0.1 0.05,-0.16 0.05,-0.16l0.01,0c1.09,-2.79 2.96,-4.65 5.39,-5.87c-2.74,6.24 -4.71,12.28 -5.82,16c-0.06,0.21 -0.12,0.41 -0.17,0.6Z" style="fill:#2a1914;fill-rule:nonzero;"/><path d="M213.15,151.82c-0.06,-0.02 -0.12,-0.04 -0.17,-0.06c-0.09,-0.03 -0.18,-0.06 -0.26,-0.1c-0.07,-0.02 -0.14,-0.05 -0.21,-0.07c-0.02,-0.01 -0.04,-0.02 -0.07,-0.03c-0.67,-0.25 -1.36,-0.49 -2.07,-0.73c1.2,-5.33 2.02,-11.16 2.27,-17.13c0.95,2.43 1.76,4.73 2.44,6.78c0,0.3 -0.01,0.6 -0.03,0.9c-0.15,3.63 -0.69,7.14 -1.9,10.44Z" style="fill:#7a6960;fill-rule:nonzero;"/><path d="M210.37,150.83c-4.46,-1.51 -9.38,-2.81 -14.62,-3.61c4.61,-6.47 7.19,-17.06 7.19,-17.06c-0.01,0 -0.02,-0.01 -0.02,-0.02c0.01,-0.03 0.01,-0.04 0.01,-0.04c-1.2,-1.29 -2.37,-2.43 -3.51,-3.43c1.85,0.24 3.7,0.56 5.54,0.99c2.61,0.6 4.84,1.62 6.55,3.26c0.4,0.94 0.77,1.87 1.13,2.78c-0.25,5.97 -1.07,11.8 -2.27,17.13Zm-42.12,-2.49c-0.07,-0.23 -0.15,-0.45 -0.22,-0.68c-1.12,-3.41 -1.69,-6.91 -1.06,-10.51c0.24,-1.35 0.73,-2.53 1.41,-3.58c0.22,0.09 0.47,0.14 0.72,0.14c0.54,0 1.04,-0.22 1.42,-0.6l0.02,-0.02c0.1,-0.1 0.86,-0.84 2.22,-1.9c-0.77,5.53 -0.82,12.51 -0.78,16.32c-1.23,0.24 -2.48,0.51 -3.73,0.83Z" style="fill:#807368;fill-rule:nonzero;"/><path d="M172.75,147.37c0.25,-6.73 1.08,-14.36 3.39,-16.01c2,-1.47 5.25,-3.23 9.5,-3.23c4.28,0 9.58,1.79 15.64,7.47c1.01,-2.88 1.56,-5.11 1.64,-5.46c0,0.01 0.01,0.02 0.02,0.02c0,0 -2.58,10.59 -7.19,17.06c-1.74,-0.27 -3.51,-0.48 -5.32,-0.63c1.94,-1.52 3.19,-3.89 3.19,-6.56c0,-4.59 -3.71,-8.32 -8.29,-8.32c-4.58,0 -8.3,3.73 -8.3,8.32c0,2.61 1.19,4.93 3.06,6.46c-2.42,0.15 -4.86,0.44 -7.34,0.88Z" style="fill:#858285;fill-rule:nonzero;"/><path d="M171.98,147.51c-0.04,-3.81 0.01,-10.79 0.78,-16.32c0.61,-0.47 1.35,-1.01 2.21,-1.59c1.19,-0.88 2.69,-1.66 4.29,-2.44c1.29,-0.26 2.6,-0.44 3.92,-0.57c2.69,-0.28 5.37,-0.43 8.04,-0.43c2.74,0 5.48,0.16 8.2,0.51c1.14,1 2.31,2.14 3.51,3.43c0,0 0,0.01 -0.01,0.04c-0.08,0.35 -0.63,2.58 -1.64,5.46c-6.06,-5.68 -11.36,-7.47 -15.64,-7.47c-4.25,0 -7.5,1.76 -9.5,3.23c-2.31,1.65 -3.14,9.28 -3.39,16.01c-0.25,0.05 -0.51,0.09 -0.77,0.14Z" style="fill:#77685f;fill-rule:nonzero;"/><path d="M190.43,146.59c-1.93,-0.16 -3.9,-0.25 -5.89,-0.25c-0.01,0 -0.02,0 -0.03,0l-0.01,0c-1.46,0 -2.93,0.05 -4.41,0.15c-1.87,-1.53 -3.06,-3.85 -3.06,-6.46c0,-4.59 3.72,-8.32 8.3,-8.32c4.58,0 8.29,3.73 8.29,8.32c0,2.67 -1.25,5.04 -3.19,6.56Zm-7.9,-2.18c0.79,0.73 1.8,1.18 2.86,1.18c0.11,0 0.21,-0.01 0.32,-0.02c2.4,-0.19 4.24,-2.62 4.02,-5.28c-0.01,-0.1 -0.02,-0.19 -0.03,-0.27c0.42,-0.31 0.68,-0.78 0.64,-1.27c-0.07,-0.77 -0.81,-1.35 -1.69,-1.35c-0.03,0 -0.05,0 -0.08,0c-0.84,-1.03 -2.05,-1.68 -3.34,-1.68c-0.11,0 -0.21,0.01 -0.32,0.02c-2.4,0.19 -4.23,2.62 -4.02,5.28c0.07,0.83 0.33,1.61 0.73,2.28c-0.1,0.13 -0.16,0.29 -0.14,0.46c0.03,0.38 0.4,0.67 0.84,0.67c0.03,0 0.06,0 0.09,0c0.04,0 0.08,-0.01 0.12,-0.02Z" style="fill:#35201a;fill-rule:nonzero;"/><path d="M185.39,145.59c-1.06,0 -2.07,-0.45 -2.86,-1.18c0.33,-0.07 0.59,-0.3 0.67,-0.58c0.63,0.51 1.39,0.79 2.09,0.79c0.07,0 0.14,0 0.21,-0.01c1.67,-0.14 3.4,-1.97 3.22,-4.23l0,-0.01c0.37,-0.03 0.71,-0.16 0.98,-0.35c0.01,0.08 0.02,0.17 0.03,0.27c0.22,2.66 -1.62,5.09 -4.02,5.28c-0.11,0.01 -0.21,0.02 -0.32,0.02Zm-3.77,-2.29c-0.4,-0.67 -0.66,-1.45 -0.73,-2.28c-0.21,-2.66 1.62,-5.09 4.02,-5.28c0.11,-0.01 0.21,-0.02 0.32,-0.02c1.29,0 2.5,0.65 3.34,1.68c-0.03,0 -0.06,0.01 -0.09,0.01c-0.38,0.03 -0.73,0.16 -1,0.36c-0.69,-0.67 -1.58,-1.06 -2.41,-1.06c-0.07,0 -0.14,0 -0.21,0.01c-1.67,0.14 -3.39,1.98 -3.21,4.24c0.06,0.76 0.33,1.43 0.71,1.99c-0.02,0 -0.05,0 -0.07,0c-0.28,0.02 -0.52,0.16 -0.67,0.35Z" style="fill:#512f24;fill-rule:nonzero;"/><path d="M185.29,144.62c-0.7,0 -1.46,-0.28 -2.09,-0.79c0.02,-0.07 0.02,-0.14 0.02,-0.21c-0.03,-0.39 -0.4,-0.67 -0.84,-0.67c-0.01,0 -0.01,0 -0.02,0c-0.38,-0.56 -0.65,-1.23 -0.71,-1.99c-0.18,-2.26 1.54,-4.1 3.21,-4.24c0.07,-0.01 0.14,-0.01 0.21,-0.01c0.83,0 1.72,0.39 2.41,1.06c-0.41,0.31 -0.66,0.77 -0.63,1.27c0.07,0.77 0.81,1.34 1.7,1.34c0.05,0 0.11,0 0.17,-0.01l0,0.01c0.18,2.26 -1.55,4.09 -3.22,4.23c-0.07,0.01 -0.14,0.01 -0.21,0.01Z" style="fill:#1d1916;fill-rule:nonzero;"/><path d="M188.55,140.38c-0.89,0 -1.63,-0.57 -1.7,-1.34c-0.03,-0.5 0.22,-0.96 0.63,-1.27c0.27,-0.2 0.62,-0.33 1,-0.36c0.03,0 0.06,-0.01 0.09,-0.01c0.03,0 0.05,0 0.08,0c0.88,0 1.62,0.58 1.69,1.35c0.04,0.49 -0.22,0.96 -0.64,1.27c-0.27,0.19 -0.61,0.32 -0.98,0.35c-0.06,0.01 -0.12,0.01 -0.17,0.01Z" style="fill:#858285;fill-rule:nonzero;"/><path d="M182.32,144.43c-0.44,0 -0.81,-0.29 -0.84,-0.67c-0.02,-0.17 0.04,-0.33 0.14,-0.46c0.15,-0.19 0.39,-0.33 0.67,-0.35l0.09,0c0.44,0 0.81,0.28 0.84,0.67c0,0.07 0,0.14 -0.02,0.21c-0.08,0.28 -0.34,0.51 -0.67,0.58c-0.04,0.01 -0.08,0.02 -0.12,0.02c-0.03,0 -0.06,0 -0.09,0Z" style="fill:#858285;fill-rule:nonzero;"/><path d="M169.1,133.71c-0.25,0 -0.5,-0.05 -0.72,-0.14c0.96,-1.47 2.31,-2.67 3.9,-3.7c2.16,-1.41 4.52,-2.21 6.98,-2.71c-1.6,0.78 -3.1,1.56 -4.29,2.44c-0.86,0.58 -1.6,1.12 -2.21,1.59c-1.36,1.06 -2.12,1.8 -2.22,1.9l-0.02,0.02c-0.38,0.38 -0.88,0.6 -1.42,0.6Z" style="fill:#090b0c;fill-rule:nonzero;"/><path d="M215.08,140.48c-0.68,-2.05 -1.49,-4.35 -2.44,-6.78c-0.36,-0.91 -0.73,-1.84 -1.13,-2.78c1.09,1.03 1.95,2.32 2.57,3.9l0.01,0c0,0 0.02,0.06 0.05,0.16l0.09,0.22c0.06,0.18 0.11,0.34 0.13,0.49c0.12,0.44 0.27,1.03 0.41,1.7c0.13,0.47 0.2,0.97 0.22,1.47c0.06,0.52 0.09,1.06 0.09,1.62Z" style="fill:#2a1914;fill-rule:nonzero;"/><path d="M101.38,151.62c-0.13,-0.37 -0.25,-0.75 -0.37,-1.12c0.04,-0.01 0.08,-0.02 0.11,-0.04c0.09,0.39 0.17,0.78 0.26,1.16Z" style="fill:#ada19a;fill-rule:nonzero;"/><path d="M121.85,166.53c-6.47,0 -12.05,-2.27 -16.34,-7.54c-1.86,-2.3 -3.2,-4.77 -4.13,-7.37c-0.09,-0.38 -0.17,-0.77 -0.26,-1.16c4.74,-1.54 9.97,-2.82 15.54,-3.53c1.9,2.94 4.18,5.25 6.8,5.77c1.69,0.33 3.41,0.46 5.08,0.46c6.64,0 12.47,-2.09 12.47,-2.09c0,0 0,-0.02 0,-0.06l0.01,0c0,0 0.04,-1.13 0.06,-2.93c1.62,0.38 3.25,0.83 4.88,1.36c-1.74,4.77 -4.19,9.12 -8.53,12.3c-3.76,2.75 -8.04,4.2 -12.67,4.65c-0.99,0.1 -1.96,0.14 -2.91,0.14Z" style="fill:#b0a6a0;fill-rule:nonzero;"/><path d="M128.54,153.16c-1.67,0 -3.39,-0.13 -5.08,-0.46c-2.62,-0.52 -4.9,-2.83 -6.8,-5.77c1.66,-0.21 3.35,-0.37 5.07,-0.47c1.51,1.59 3.64,2.58 6,2.58c2.21,0 4.22,-0.87 5.71,-2.28c2.26,0.26 4.55,0.63 6.86,1.15c0.05,1.14 0.08,2.27 0.09,3.33c0.38,-0.16 0.58,-0.22 0.62,-0.23c0,0.04 0,0.06 0,0.06c0,0 -5.83,2.09 -12.47,2.09Z" style="fill:#b5b4b5;fill-rule:nonzero;"/><path d="M140.39,151.24c-0.01,-1.06 -0.04,-2.19 -0.09,-3.33c0.26,0.05 0.52,0.11 0.78,0.17c-0.02,1.8 -0.06,2.93 -0.06,2.93l-0.01,0c-0.04,0.01 -0.24,0.07 -0.62,0.23Z" style="fill:#aea49e;fill-rule:nonzero;"/><path d="M127.73,149.04c-2.36,0 -4.49,-0.99 -6,-2.58c1.36,-0.08 2.73,-0.12 4.12,-0.12l0.05,0c2.47,0 4.99,0.14 7.54,0.42c-1.49,1.41 -3.5,2.28 -5.71,2.28Z" style="fill:#867671;fill-rule:nonzero;"/><path d="M101.12,150.46c4.74,-1.54 9.97,-2.82 15.54,-3.53c-5.57,0.71 -10.8,1.99 -15.54,3.53Z" style="fill:#96908e;fill-rule:nonzero;"/><path d="M116.66,146.93c1.66,-0.21 3.35,-0.37 5.07,-0.47c-1.72,0.1 -3.41,0.26 -5.07,0.47Z" style="fill:#989799;fill-rule:nonzero;"/><path d="M121.73,146.46c1.36,-0.08 2.73,-0.12 4.12,-0.12c-1.39,0 -2.76,0.04 -4.12,0.12Zm4.17,-0.12c-0.01,0 -0.02,0 -0.03,0c0.01,0 0.02,0 0.03,0Z" style="fill:#7e7472;fill-rule:nonzero;"/><path d="M208.65,159.52c0.28,-2.2 0.59,-4.11 0.95,-5.47c0.27,-1.05 0.53,-2.12 0.77,-3.22c0.71,0.24 1.4,0.49 2.07,0.73c0.03,0.01 0.05,0.02 0.07,0.03c0.07,0.02 0.14,0.05 0.21,0.07c0.08,0.04 0.17,0.07 0.26,0.1c0.05,0.02 0.11,0.04 0.17,0.06c-0.93,2.53 -2.24,4.93 -4.06,7.17c-0.15,0.18 -0.29,0.35 -0.44,0.53Z" style="fill:#afa49f;fill-rule:nonzero;"/><path d="M192.75,166.53c-0.95,0 -1.92,-0.04 -2.91,-0.14c-4.63,-0.45 -8.91,-1.9 -12.67,-4.65c-4.67,-3.42 -7.15,-8.2 -8.92,-13.4c1.25,-0.32 2.5,-0.59 3.73,-0.83c0.02,1.73 0.06,2.81 0.06,2.81l0.01,0c0,0.04 0,0.06 0,0.06c0,0 5.83,2.09 12.47,2.09c1.67,0 3.39,-0.13 5.08,-0.46c2.33,-0.46 4.39,-2.32 6.15,-4.79c5.24,0.8 10.16,2.1 14.62,3.61c-0.24,1.1 -0.5,2.17 -0.77,3.22c-0.36,1.36 -0.67,3.27 -0.95,5.47c-4.23,4.89 -9.65,7.01 -15.9,7.01Z" style="fill:#b3aaa4;fill-rule:nonzero;"/><path d="M184.52,152.47c-6.64,0 -12.47,-2.09 -12.47,-2.09c0,0 0,-0.02 0,-0.06c0.05,0.02 0.24,0.08 0.62,0.24c0.01,-1.02 0.04,-2.09 0.08,-3.19c2.48,-0.44 4.93,-0.73 7.34,-0.88c1.43,1.16 3.25,1.86 5.24,1.86c1.92,0 3.69,-0.66 5.1,-1.76c1.81,0.15 3.58,0.36 5.32,0.63c-1.76,2.47 -3.82,4.33 -6.15,4.79c-1.69,0.33 -3.41,0.46 -5.08,0.46Z" style="fill:#b5b4b5;fill-rule:nonzero;"/><path d="M172.67,150.56c-0.38,-0.16 -0.57,-0.22 -0.62,-0.24l-0.01,0c0,0 -0.04,-1.08 -0.06,-2.81c0.26,-0.05 0.52,-0.09 0.77,-0.14c-0.04,1.1 -0.07,2.17 -0.08,3.19Z" style="fill:#aea49e;fill-rule:nonzero;"/><path d="M185.33,148.35c-1.99,0 -3.81,-0.7 -5.24,-1.86c1.48,-0.1 2.95,-0.15 4.41,-0.15l0.04,0c1.99,0 3.96,0.09 5.89,0.25c-1.41,1.1 -3.18,1.76 -5.1,1.76Z" style="fill:#867671;fill-rule:nonzero;"/><path d="M168.25,148.34c1.25,-0.32 2.5,-0.59 3.73,-0.83c-1.23,0.24 -2.48,0.51 -3.73,0.83Z" style="fill:#979290;fill-rule:nonzero;"/><path d="M172.75,147.37c2.48,-0.44 4.92,-0.73 7.34,-0.88c-2.41,0.15 -4.86,0.44 -7.34,0.88Z" style="fill:#989799;fill-rule:nonzero;"/><path d="M171.98,147.51c0.26,-0.05 0.52,-0.09 0.77,-0.14c-0.25,0.05 -0.51,0.09 -0.77,0.14Z" style="fill:#948e8d;fill-rule:nonzero;"/><path d="M180.09,146.49c1.48,-0.1 2.95,-0.15 4.41,-0.15c-1.46,0 -2.93,0.05 -4.41,0.15Zm4.45,-0.15c-0.01,0 -0.02,0 -0.03,0c0.01,0 0.02,0 0.03,0Z" style="fill:#7e7472;fill-rule:nonzero;"/><path d="M215.05,141.38c-0.15,3.63 -0.69,7.14 -1.9,10.44c-0.93,2.53 -2.24,4.93 -4.06,7.17c-4.92,6.05 -11.54,8.15 -19.25,7.4c-4.63,-0.45 -8.91,-1.9 -12.67,-4.65c-4.67,-3.42 -7.15,-8.2 -8.92,-13.4c-0.07,-0.23 -0.15,-0.45 -0.22,-0.68c-1.12,-3.41 -1.69,-6.91 -1.06,-10.51c0.57,-3.25 2.59,-5.51 5.31,-7.28c3.3,-2.16 7.07,-2.89 10.9,-3.28c7.31,-0.75 14.59,-0.59 21.78,1.07c4.26,0.98 7.53,3.07 9.12,7.16l0.01,0c0,0 0.02,0.06 0.05,0.16l0.09,0.22c0.06,0.18 0.11,0.34 0.13,0.48c0.12,0.45 0.28,1.04 0.41,1.71c0.13,0.47 0.2,0.97 0.22,1.47c0.09,0.8 0.12,1.66 0.06,2.52Zm-68.48,6.28c-0.19,0.6 -0.4,1.19 -0.61,1.78c-1.74,4.77 -4.19,9.12 -8.53,12.3c-3.76,2.75 -8.04,4.2 -12.67,4.65c-7.71,0.75 -14.33,-1.35 -19.25,-7.4c-2.13,-2.62 -3.57,-5.48 -4.5,-8.49c-0.9,-2.91 -1.33,-5.97 -1.46,-9.12c-0.06,-0.86 -0.03,-1.72 0.06,-2.52c0.02,-0.5 0.09,-1 0.22,-1.47c0.14,-0.67 0.29,-1.26 0.41,-1.71c0.02,-0.14 0.07,-0.3 0.13,-0.48l0.09,-0.22c0.03,-0.1 0.05,-0.16 0.05,-0.16l0.01,0c1.59,-4.09 4.86,-6.18 9.12,-7.16c7.19,-1.66 14.47,-1.82 21.78,-1.07c3.83,0.39 7.6,1.12 10.9,3.28c2.72,1.77 4.74,4.03 5.31,7.28c0.63,3.6 0.06,7.1 -1.06,10.51Zm77.12,-16.74c-0.08,-1.62 -0.22,-1.8 -1.88,-2.16c-0.84,-0.19 -1.68,-0.38 -2.52,-0.56c-4.52,-1.02 -9.02,-2.08 -13.57,-2.92c-12.55,-2.31 -24.98,-2.94 -36.82,3.08c-1.95,0.99 -4.04,1.18 -6.27,0.73c-1.76,-0.36 -3.55,-0.57 -5.33,-0.59c-1.78,0.02 -3.57,0.23 -5.33,0.59c-2.23,0.45 -4.32,0.26 -6.28,-0.73c-11.83,-6.02 -24.26,-5.39 -36.81,-3.08c-4.3,0.79 -8.55,1.78 -12.82,2.75c-1.09,0.24 -2.18,0.49 -3.27,0.73c-1.66,0.36 -1.8,0.54 -1.88,2.16c-0.08,1.5 -0.19,3.01 1.31,4.03c0.09,0.07 0.13,0.18 0.21,0.27c1.69,1.92 2.94,3.98 3.63,6.37c0.21,0.74 0.37,1.5 0.47,2.31c0.33,2.58 0.9,5.1 1.76,7.54c0.88,2.49 2.06,4.89 3.56,7.16c3.81,5.74 9.26,9.24 16.18,10.06c11.24,1.33 20.41,-2.37 26.88,-11.61c1.49,-2.12 2.8,-4.32 3.93,-6.61c1.52,-3.09 2.7,-6.32 3.49,-9.71c0.14,-0.6 0.05,-1.34 -0.2,-1.9c-1.07,-2.39 -0.27,-4.19 2.33,-4.8c0.94,-0.22 1.89,-0.35 2.84,-0.36c0.95,0.01 1.9,0.14 2.85,0.36c2.59,0.61 3.39,2.41 2.32,4.8c-0.25,0.56 -0.34,1.3 -0.2,1.9c0.68,2.94 1.66,5.76 2.9,8.47c1.25,2.74 2.77,5.35 4.52,7.85c6.47,9.24 15.64,12.94 26.88,11.61c6.92,-0.82 12.37,-4.32 16.18,-10.06c1.22,-1.83 2.22,-3.76 3.02,-5.75c1.16,-2.86 1.91,-5.86 2.3,-8.95c0.19,-1.57 0.61,-3 1.22,-4.33c0.71,-1.56 1.68,-2.99 2.88,-4.35c0.08,-0.09 0.12,-0.2 0.21,-0.27c1.5,-1.02 1.39,-2.53 1.31,-4.03Z" style="fill:#d16fac;fill-rule:nonzero;"/></g></svg>