<?xml version="1.0" encoding="UTF-8" standalone="no"?><!DOCTYPE svg PUBLIC "-//W3C//DTD SVG 1.1//EN" "http://www.w3.org/Graphics/SVG/1.1/DTD/svg11.dtd"><svg width="100%" height="100%" viewBox="0 0 297 301" version="1.1" xmlns="http://www.w3.org/2000/svg" xmlns:xlink="http://www.w3.org/1999/xlink" xml:space="preserve" style="fill-rule:evenodd;clip-rule:evenodd;stroke-linejoin:round;stroke-miterlimit:1.41421;"><g id="_26"><rect x="0" y="0.275" width="296.866" height="299.705" style="fill:#491f44;fill-rule:nonzero;"/><path d="M148.554,188.21l0,112.28l-60.736,0c-0.988,-0.39 -1.481,-0.6 -1.481,-0.6c0,-7.06 0.493,-13.35 1.419,-18.95c0.926,-5.78 2.263,-10.84 3.889,-15.26c4.588,-12.47 11.439,-19.9 17.612,-24.3c2.407,-1.71 4.711,-2.96 6.728,-3.89c1.543,-0.7 2.921,-1.19 4.053,-1.54c2.139,-0.66 3.456,-0.83 3.456,-0.83c0.226,0 0.453,-0.02 0.679,-0.04c1.893,-0.31 3.457,-1.97 4.711,-4.63c0.927,-1.95 1.688,-4.46 2.325,-7.38c0.248,-1.13 0.453,-2.27 0.638,-3.5c0.309,-2.08 0.597,-4.26 0.844,-6.52c0.103,-1.4 0.247,-2.74 0.391,-4.16c0.535,-6.87 0.699,-14.4 0.699,-21.52c0,0 8.148,0.84 14.773,0.84Z" style="fill:#e0bd9a;fill-rule:nonzero;"/><path d="M211.017,299.89c0,0 -0.555,0.21 -1.44,0.6l-61.023,0l0,-112.28l0.144,0c6.563,0 14.834,-0.84 14.834,-0.84c0,7.08 0.144,14.48 0.679,21.36c0.144,1.35 0.308,2.73 0.391,4.07c0.267,2.37 0.555,4.59 0.905,6.67l0,0.04c0.082,0.94 0.288,1.79 0.432,2.67c0.617,2.92 1.337,5.5 2.222,7.55c1.09,2.55 2.407,4.34 4.012,5.06c0.514,0.23 1.07,0.33 1.625,0.33c0,0 2.346,0.29 5.843,1.67c0.618,0.25 1.276,0.51 1.955,0.82c1.81,0.83 3.827,1.94 5.925,3.38c6.317,4.36 13.456,11.85 18.188,24.69c1.625,4.46 2.983,9.56 3.909,15.43c0.885,5.55 1.399,11.79 1.399,18.78Z" style="fill:#efd0ad;fill-rule:nonzero;"/><clipPath id="_clip1"><rect x="131.851" y="208.6" width="33.65" height="19.84"/></clipPath><g clip-path="url(#_clip1)"><path d="M165.502,219.25l0,0.05c-1.532,2.36 -6.671,9.14 -16.85,9.14l-0.099,0c-9.636,-0.05 -15.269,-7.02 -16.702,-9.09c0.297,-2.06 0.593,-4.22 0.84,-6.48c0.099,-1.33 0.247,-2.7 0.395,-4.13c4.695,1.18 9.834,1.92 15.269,2.02l0.198,0c5.633,-0.1 10.822,-0.89 15.664,-2.16c0.148,1.32 0.296,2.7 0.395,4.02c0.247,2.36 0.544,4.57 0.89,6.63Z" style="fill:#be987f;fill-rule:nonzero;"/></g><path d="M147.861,60.275c-64.336,0 -64.682,53.775 -61.817,88.995c-4.397,-8.35 -17.492,-5.8 -16.405,7.37c1.038,12.67 19.746,19.12 19.222,17.73c9.743,26.04 35.529,45.67 59,45.67l0.494,0l0,-159.765l-0.494,0Z" style="fill:#d2a686;fill-rule:nonzero;"/><path d="M148.207,60.275c64.336,0 64.682,53.775 61.865,88.995c4.398,-8.35 17.443,-5.8 16.356,7.37c-0.988,12.67 -19.733,19.13 -19.222,17.73c-9.49,26.04 -35.528,45.67 -58.999,45.67c-0.148,0 -0.346,0 -0.346,0l-0.148,-159.765c0,0 0.346,0 0.494,0Z" style="fill:#ddb598;fill-rule:nonzero;"/><path d="M147.355,75.451c-21.149,0 -36.665,6.139 -46.004,18.221c-13.095,16.948 -12.6,42.778 -7.808,61.338c1.483,5.7 2.274,20.98 3.262,26.58c4.596,25.09 32.316,38.45 50.55,38.45c0,0 0.346,0 0.494,0l0,-144.589c-0.148,0 -0.296,0 -0.296,0" style="fill:#e0bd9a;fill-rule:nonzero;"/><path d="M193.309,93.722c-9.289,-12.033 -24.608,-18.172 -45.46,-18.271l0,144.589c20.852,-0.24 45.806,-14.88 50.056,-38.45c1.037,-5.6 1.779,-20.88 3.261,-26.58c4.843,-18.51 5.337,-44.3 -7.857,-61.288Z" style="fill:#efd0ad;fill-rule:nonzero;"/><path d="M129.886,75.812l-0.267,0.268l0.045,0.089c0.09,-0.134 0.134,-0.268 0.222,-0.357Z" style="fill:#432e1b;fill-rule:nonzero;"/><path d="M101.696,131.88c0,0 4.908,20.14 13.335,21.78c8.426,1.65 17.546,-1.62 17.546,-1.62c0,0 0.872,-23.66 -3.443,-26.75c-4.31,-3.11 -14.249,-7.6 -27.438,6.59Z" style="fill:#fff;fill-rule:nonzero;"/><path d="M194.507,131.2c0,0 -4.909,20.14 -13.335,21.78c-8.427,1.64 -17.547,-1.62 -17.547,-1.62c0,0 -0.872,-23.67 3.443,-26.76c4.311,-3.11 14.25,-7.59 27.439,6.6Z" style="fill:#fff;fill-rule:nonzero;"/><path d="M73.741,151.09c3.162,-5.11 8.104,-2.9 9.289,-1.77c1.285,1.23 2.323,2.8 1.532,5.79c-0.445,1.72 -2.224,1.87 -1.828,4.42c0.494,2.9 1.828,3.05 2.619,3.74c0.741,0.63 1.68,1.13 2.125,2.35c0.494,1.23 0.543,2.51 0.296,3.64c-0.494,2.06 -3.508,0.39 -5.534,-0.49c-1.334,-0.64 -5.584,-4.23 -6.671,-5.41c-2.668,-3.04 -3.953,-8.93 -1.828,-12.27Z" style="fill:#ac8774;fill-rule:nonzero;"/><path d="M222.327,151.09c-3.163,-5.11 -8.055,-2.9 -9.29,-1.77c-1.285,1.23 -2.273,2.8 -1.532,5.79c0.445,1.72 2.224,1.87 1.828,4.42c-0.494,2.9 -1.828,3.05 -2.569,3.74c-0.741,0.63 -1.729,1.13 -2.174,2.35c-0.445,1.23 -0.544,2.51 -0.296,3.64c0.494,2.06 3.508,0.39 5.534,-0.49c1.383,-0.64 5.583,-4.23 6.671,-5.41c2.717,-3.04 3.953,-8.93 1.828,-12.27Z" style="fill:#ac8774;fill-rule:nonzero;"/><path d="M148.042,197.1" style="fill:#bc917b;fill-rule:nonzero;"/><path d="M148.042,197.1" style="fill:#bc917b;fill-rule:nonzero;"/><path d="M144.474,194.41c-0.101,-0.02 -0.202,-0.04 -0.303,-0.07c0.1,0.03 0.187,0.05 0.303,0.07Z" style="fill:#bc917b;fill-rule:nonzero;"/><path d="M148.042,194.22" style="fill:#bc917b;fill-rule:nonzero;"/><path d="M143.689,194.23c-0.093,-0.02 -0.177,-0.05 -0.269,-0.07l-0.01,0c0,0 0.104,0.03 0.279,0.07Z" style="fill:#bc917b;fill-rule:nonzero;"/><path d="M148.042,194.22" style="fill:#bc917b;fill-rule:nonzero;"/><path d="M135.508,172.87c-0.244,-5 9.178,-1.83 12.285,-1.67c2.454,0.12 9.923,-1.58 10.564,-1.14c4.393,2.96 -4.654,8.93 -10.721,8.93c-1.616,0 -11.981,-3.11 -12.128,-6.12Z" style="fill:#ddb598;fill-rule:nonzero;"/><path d="M88.923,126.76" style="fill:#432e1b;fill-rule:nonzero;"/><path d="M148.314,194.24" style="fill:#ba907b;fill-rule:nonzero;"/><path d="M148.314,194.24" style="fill:#ba907b;fill-rule:nonzero;"/><path d="M144.65,191.48c-0.104,-0.03 -0.208,-0.05 -0.311,-0.07c0.102,0.02 0.191,0.04 0.311,0.07Z" style="fill:#ba907b;fill-rule:nonzero;"/><path d="M148.314,191.28" style="fill:#ba907b;fill-rule:nonzero;"/><path d="M143.844,191.3c-0.096,-0.03 -0.183,-0.06 -0.277,-0.08l-0.011,0c0,0 0.108,0.03 0.288,0.08Z" style="fill:#ba907b;fill-rule:nonzero;"/><path d="M148.314,191.28" style="fill:#ba907b;fill-rule:nonzero;"/><path d="M132.589,151.98c0,0 -0.194,0.05 -0.627,0.23c-0.107,-7.25 -0.778,-17.22 -3.473,-19.13c-4.006,-2.94 -13.052,-7.06 -25.137,4.23c-1.099,-3.12 -1.65,-5.49 -1.65,-5.49c13.213,-14.22 23.16,-9.74 27.439,-6.63c4.319,3.1 3.448,26.79 3.448,26.79Z" style="fill:#d6b496;fill-rule:nonzero;"/><path d="M127.599,141.72c0,4.59 -3.713,8.3 -8.293,8.3c-4.581,0 -8.294,-3.71 -8.294,-8.3c0,-4.58 3.713,-8.29 8.294,-8.29c4.58,0 8.293,3.71 8.293,8.29Z" style="fill:#482315;fill-rule:nonzero;"/><path d="M118.92,147.25c-2.395,-0.2 -4.233,-2.62 -4.015,-5.27c0.214,-2.66 2.422,-4.74 4.819,-4.54c2.395,0.2 4.231,2.61 4.019,5.27c-0.218,2.66 -2.428,4.74 -4.823,4.54Z" style="fill:#7e3a22;fill-rule:nonzero;"/><path d="M119.127,146.29c-1.667,-0.14 -3.397,-1.97 -3.213,-4.22c0.188,-2.26 2.189,-3.79 3.856,-3.65c1.668,0.14 3.394,1.98 3.21,4.23c-0.183,2.26 -2.19,3.78 -3.853,3.64Z" style="fill:#211a10;fill-rule:nonzero;"/><path d="M148.447,196.61" style="fill:#ba907b;fill-rule:nonzero;"/><path d="M148.446,196.61l0.001,0l-0.001,0Z" style="fill:#ba907b;fill-rule:nonzero;"/><path d="M144.782,193.85c-0.105,-0.02 -0.208,-0.04 -0.311,-0.07c0.102,0.03 0.191,0.05 0.311,0.07Z" style="fill:#ba907b;fill-rule:nonzero;"/><path d="M148.447,193.65" style="fill:#ba907b;fill-rule:nonzero;"/><path d="M143.976,193.67c-0.096,-0.02 -0.183,-0.05 -0.277,-0.08l-0.01,0.01c0,0 0.107,0.03 0.287,0.07Z" style="fill:#ba907b;fill-rule:nonzero;"/><path d="M148.446,193.65l0.001,0l-0.001,0Z" style="fill:#ba907b;fill-rule:nonzero;"/><path d="M148.333,196.24" style="fill:#bc917b;fill-rule:nonzero;"/><path d="M148.333,196.24" style="fill:#bc917b;fill-rule:nonzero;"/><path d="M144.405,193.28c-0.112,-0.02 -0.223,-0.04 -0.334,-0.07c0.11,0.03 0.206,0.05 0.334,0.07Z" style="fill:#bc917b;fill-rule:nonzero;"/><path d="M148.333,193.07" style="fill:#bc917b;fill-rule:nonzero;"/><path d="M143.541,193.09c-0.103,-0.03 -0.196,-0.06 -0.297,-0.08l-0.011,0c0,0 0.115,0.03 0.308,0.08Z" style="fill:#bc917b;fill-rule:nonzero;"/><path d="M148.333,193.07" style="fill:#bc917b;fill-rule:nonzero;"/><path d="M148.085,195.4" style="fill:#bc917b;fill-rule:nonzero;"/><path d="M148.084,195.4l0.001,0l-0.001,0Z" style="fill:#bc917b;fill-rule:nonzero;"/><path d="M144.156,192.44c-0.111,-0.02 -0.222,-0.05 -0.333,-0.07c0.11,0.02 0.206,0.04 0.333,0.07Z" style="fill:#bc917b;fill-rule:nonzero;"/><path d="M148.085,192.23" style="fill:#bc917b;fill-rule:nonzero;"/><path d="M143.293,192.25c-0.103,-0.03 -0.196,-0.06 -0.297,-0.09l-0.011,0.01c0,0 0.114,0.03 0.308,0.08Z" style="fill:#bc917b;fill-rule:nonzero;"/><path d="M148.084,192.23l0.001,0l-0.001,0Z" style="fill:#bc917b;fill-rule:nonzero;"/><path d="M148.724,195.18" style="fill:#bc917b;fill-rule:nonzero;"/><path d="M148.724,195.18" style="fill:#bc917b;fill-rule:nonzero;"/><path d="M144.927,192.33c-0.108,-0.03 -0.215,-0.05 -0.323,-0.07c0.106,0.02 0.199,0.04 0.323,0.07Z" style="fill:#bc917b;fill-rule:nonzero;"/><path d="M148.724,192.12" style="fill:#bc917b;fill-rule:nonzero;"/><path d="M144.092,192.14c-0.099,-0.03 -0.189,-0.06 -0.287,-0.08l-0.011,0c0,0 0.111,0.03 0.298,0.08Z" style="fill:#bc917b;fill-rule:nonzero;"/><path d="M148.724,192.12" style="fill:#bc917b;fill-rule:nonzero;"/><path d="M163.614,151.29c0,0 0.193,0.06 0.626,0.24c0.108,-7.26 0.779,-17.23 3.473,-19.14c4.006,-2.93 13.052,-7.06 25.138,4.23c1.099,-3.12 1.649,-5.48 1.649,-5.48c-13.212,-14.22 -23.16,-9.74 -27.438,-6.64c-4.32,3.11 -3.448,26.79 -3.448,26.79Z" style="fill:#d6b496;fill-rule:nonzero;"/><path d="M168.603,141.04c0,4.58 3.713,8.29 8.294,8.29c4.58,0 8.294,-3.71 8.294,-8.29c0,-4.58 -3.714,-8.29 -8.294,-8.29c-4.581,0 -8.294,3.71 -8.294,8.29Z" style="fill:#482315;fill-rule:nonzero;"/><path d="M177.282,146.56c2.395,-0.19 4.234,-2.61 4.016,-5.27c-0.214,-2.66 -2.423,-4.73 -4.819,-4.53c-2.395,0.19 -4.231,2.61 -4.02,5.26c0.218,2.66 2.429,4.74 4.823,4.54Z" style="fill:#7e3a22;fill-rule:nonzero;"/><path d="M177.075,145.6c1.667,-0.14 3.397,-1.97 3.213,-4.22c-0.187,-2.26 -2.189,-3.78 -3.856,-3.65c-1.668,0.14 -3.393,1.98 -3.21,4.23c0.184,2.26 2.19,3.78 3.853,3.64Z" style="fill:#211a10;fill-rule:nonzero;"/><path d="M137.638,131.56c-0.064,-0.09 -1.593,-2.42 -4.719,-4.82c-1.958,-1.5 -3.878,-2.64 -5.869,-3.49c-2.42,-1.02 -5.027,-1.74 -7.552,-2.08c-2.284,-0.26 -4.814,-0.19 -7.768,0.21c-2.254,0.43 -4.453,1.1 -6.319,1.92c-1.331,0.46 -2.382,1.1 -3.227,1.62c-0.323,0.2 -0.616,0.38 -0.913,0.54l-4.026,2.53l4.639,-1.09c0.216,-0.06 0.45,-0.12 0.701,-0.19c0.96,-0.25 2.154,-0.57 3.555,-0.77c0.328,-0.05 0.661,-0.12 1.001,-0.18c0.584,-0.12 1.187,-0.24 1.82,-0.27c0.702,-0.05 1.431,-0.1 2.18,-0.15l0.974,-0.07c2.569,-0.04 4.739,0.16 6.667,0.6c2.106,0.37 4.273,1.05 6.258,1.97c1.875,0.89 3.673,1.78 5.076,2.81c2.833,1.89 4.41,3.47 4.426,3.49c0.389,0.39 0.909,0.59 1.432,0.59c0.381,0 0.764,-0.11 1.098,-0.33c0.933,-0.61 1.195,-1.87 0.601,-2.77l-0.035,-0.07Z" style="fill:#030405;fill-rule:nonzero;"/><path d="M195.335,125.44c-0.266,-0.14 -0.56,-0.32 -0.884,-0.52c-0.844,-0.52 -1.895,-1.16 -3.186,-1.61c-1.906,-0.83 -4.104,-1.5 -6.386,-1.94c-2.927,-0.39 -5.459,-0.46 -7.752,-0.2c-2.513,0.34 -5.12,1.06 -7.544,2.08c-1.962,0.84 -3.936,2.01 -5.866,3.49c-3.07,2.36 -4.596,4.64 -4.711,4.82l-0.028,0.04c-0.518,0.8 -0.407,1.86 0.263,2.54c0.381,0.38 0.888,0.59 1.427,0.59l0.002,0c0.539,0 1.045,-0.21 1.425,-0.59l0.017,-0.02c0.149,-0.15 1.68,-1.64 4.428,-3.48c1.381,-1.01 3.179,-1.91 5.049,-2.8c1.994,-0.92 4.16,-1.6 6.294,-1.97c1.9,-0.44 4.074,-0.63 6.609,-0.6l1.022,0.07c0.743,0.05 1.465,0.1 2.172,0.15c0.623,0.03 1.226,0.15 1.81,0.27c0.34,0.06 0.673,0.13 1,0.18c1.401,0.2 2.596,0.52 3.556,0.77c0.25,0.07 0.484,0.13 0.707,0.19l4.637,1.09l-4.061,-2.55Z" style="fill:#030405;fill-rule:nonzero;"/><path d="M117.777,140.73c-0.069,0.82 -0.905,1.41 -1.863,1.33c-0.959,-0.08 -1.683,-0.81 -1.618,-1.62c0.069,-0.81 0.9,-1.41 1.859,-1.33c0.963,0.08 1.687,0.8 1.622,1.62Z" style="fill:#fff;fill-rule:nonzero;"/><path d="M123.154,145.44c-0.035,0.41 -0.452,0.71 -0.929,0.67c-0.482,-0.04 -0.842,-0.41 -0.811,-0.81c0.034,-0.41 0.452,-0.71 0.929,-0.67c0.482,0.04 0.846,0.4 0.811,0.81Z" style="fill:#fff;fill-rule:nonzero;"/><path d="M178.426,140.05c0.069,0.81 0.905,1.41 1.862,1.33c0.96,-0.08 1.683,-0.81 1.618,-1.62c-0.069,-0.82 -0.9,-1.41 -1.858,-1.34c-0.964,0.08 -1.687,0.81 -1.622,1.63Z" style="fill:#fff;fill-rule:nonzero;"/><path d="M173.048,144.76c0.035,0.4 0.452,0.7 0.93,0.66c0.481,-0.04 0.841,-0.4 0.811,-0.81c-0.035,-0.4 -0.453,-0.7 -0.93,-0.66c-0.481,0.03 -0.845,0.4 -0.811,0.81Z" style="fill:#fff;fill-rule:nonzero;"/><path d="M148.28,199.26" style="fill:#bc917b;fill-rule:nonzero;"/><path d="M148.279,199.26l0.001,0l-0.001,0Z" style="fill:#bc917b;fill-rule:nonzero;"/><path d="M144.711,196.57c-0.101,-0.02 -0.202,-0.04 -0.303,-0.06c0.1,0.02 0.187,0.04 0.303,0.06Z" style="fill:#bc917b;fill-rule:nonzero;"/><path d="M148.28,196.38" style="fill:#bc917b;fill-rule:nonzero;"/><path d="M143.927,196.4c-0.094,-0.03 -0.178,-0.05 -0.27,-0.08l-0.01,0.01c0,0 0.104,0.03 0.28,0.07Z" style="fill:#bc917b;fill-rule:nonzero;"/><path d="M148.279,196.38l0.001,0l-0.001,0Z" style="fill:#bc917b;fill-rule:nonzero;"/><path d="M148.552,196.4" style="fill:#ba907b;fill-rule:nonzero;"/><path d="M148.551,196.4l0.001,0l-0.001,0Z" style="fill:#ba907b;fill-rule:nonzero;"/><path d="M144.887,193.64c-0.104,-0.02 -0.208,-0.04 -0.311,-0.07c0.102,0.03 0.191,0.05 0.311,0.07Z" style="fill:#ba907b;fill-rule:nonzero;"/><path d="M148.552,193.44" style="fill:#ba907b;fill-rule:nonzero;"/><path d="M144.081,193.46c-0.096,-0.02 -0.183,-0.05 -0.277,-0.08l-0.011,0.01c0,0 0.108,0.03 0.288,0.07Z" style="fill:#ba907b;fill-rule:nonzero;"/><path d="M148.551,193.44l0.001,0l-0.001,0Z" style="fill:#ba907b;fill-rule:nonzero;"/><path d="M148.684,198.78" style="fill:#ba907b;fill-rule:nonzero;"/><path d="M148.683,198.78l0.001,0l-0.001,0Z" style="fill:#ba907b;fill-rule:nonzero;"/><path d="M145.019,196.02c-0.104,-0.03 -0.208,-0.05 -0.311,-0.07c0.102,0.02 0.191,0.04 0.311,0.07Z" style="fill:#ba907b;fill-rule:nonzero;"/><path d="M148.684,195.82" style="fill:#ba907b;fill-rule:nonzero;"/><path d="M144.213,195.84c-0.096,-0.03 -0.183,-0.06 -0.277,-0.08l-0.01,0c0,0 0.107,0.03 0.287,0.08Z" style="fill:#ba907b;fill-rule:nonzero;"/><path d="M148.683,195.82l0.001,0l-0.001,0Z" style="fill:#ba907b;fill-rule:nonzero;"/><path d="M148.57,198.41" style="fill:#bc917b;fill-rule:nonzero;"/><path d="M148.57,198.41" style="fill:#bc917b;fill-rule:nonzero;"/><path d="M144.642,195.45c-0.112,-0.03 -0.223,-0.05 -0.334,-0.07c0.11,0.02 0.206,0.04 0.334,0.07Z" style="fill:#bc917b;fill-rule:nonzero;"/><path d="M148.57,195.24" style="fill:#bc917b;fill-rule:nonzero;"/><path d="M143.778,195.25c-0.103,-0.02 -0.196,-0.05 -0.297,-0.08l-0.011,0.01c0,0 0.114,0.03 0.308,0.07Z" style="fill:#bc917b;fill-rule:nonzero;"/><path d="M148.57,195.24" style="fill:#bc917b;fill-rule:nonzero;"/><path d="M148.322,197.56" style="fill:#bc917b;fill-rule:nonzero;"/><path d="M148.322,197.56" style="fill:#bc917b;fill-rule:nonzero;"/><path d="M144.394,194.6c-0.112,-0.02 -0.223,-0.04 -0.334,-0.07c0.11,0.03 0.206,0.05 0.334,0.07Z" style="fill:#bc917b;fill-rule:nonzero;"/><path d="M148.322,194.39" style="fill:#bc917b;fill-rule:nonzero;"/><path d="M143.53,194.41c-0.103,-0.02 -0.196,-0.05 -0.297,-0.08l-0.011,0c0,0 0.114,0.03 0.308,0.08Z" style="fill:#bc917b;fill-rule:nonzero;"/><path d="M148.322,194.39" style="fill:#bc917b;fill-rule:nonzero;"/><path d="M148.961,197.35" style="fill:#bc917b;fill-rule:nonzero;"/><path d="M148.961,197.35" style="fill:#bc917b;fill-rule:nonzero;"/><path d="M145.164,194.49c-0.108,-0.02 -0.215,-0.04 -0.322,-0.07c0.106,0.02 0.199,0.04 0.322,0.07Z" style="fill:#bc917b;fill-rule:nonzero;"/><path d="M148.961,194.29" style="fill:#bc917b;fill-rule:nonzero;"/><path d="M144.329,194.3c-0.099,-0.02 -0.189,-0.05 -0.287,-0.08l-0.011,0.01c0,0 0.111,0.03 0.298,0.07Z" style="fill:#bc917b;fill-rule:nonzero;"/><path d="M148.961,194.29" style="fill:#bc917b;fill-rule:nonzero;"/><path d="M145.683,205.78" style="fill:#be927b;fill-rule:nonzero;"/><path d="M145.683,205.78" style="fill:#be927b;fill-rule:nonzero;"/><path d="M142.043,203.04c-0.103,-0.02 -0.206,-0.04 -0.309,-0.06c0.102,0.02 0.191,0.04 0.309,0.06Z" style="fill:#be927b;fill-rule:nonzero;"/><path d="M145.683,202.85" style="fill:#be927b;fill-rule:nonzero;"/><path d="M141.243,202.86c-0.096,-0.02 -0.182,-0.05 -0.275,-0.07l-0.011,0c0,0 0.107,0.03 0.286,0.07Z" style="fill:#be927b;fill-rule:nonzero;"/><path d="M145.683,202.85" style="fill:#be927b;fill-rule:nonzero;"/><path d="M145.454,205" style="fill:#be927b;fill-rule:nonzero;"/><path d="M145.453,205l0.001,0l-0.001,0Z" style="fill:#be927b;fill-rule:nonzero;"/><path d="M141.813,202.26c-0.103,-0.02 -0.206,-0.04 -0.309,-0.06c0.102,0.02 0.191,0.04 0.309,0.06Z" style="fill:#be927b;fill-rule:nonzero;"/><path d="M145.454,202.07" style="fill:#be927b;fill-rule:nonzero;"/><path d="M141.013,202.08c-0.095,-0.02 -0.182,-0.05 -0.275,-0.07l-0.01,0c0,0 0.106,0.03 0.285,0.07Z" style="fill:#be927b;fill-rule:nonzero;"/><path d="M145.453,202.07l0.001,0l-0.001,0Z" style="fill:#be927b;fill-rule:nonzero;"/><path d="M146.046,204.81" style="fill:#be927b;fill-rule:nonzero;"/><path d="M146.045,204.81l0.001,0l-0.001,0Z" style="fill:#be927b;fill-rule:nonzero;"/><path d="M142.527,202.16c-0.1,-0.03 -0.199,-0.04 -0.298,-0.07c0.097,0.02 0.184,0.04 0.298,0.07Z" style="fill:#be927b;fill-rule:nonzero;"/><path d="M146.046,201.97" style="fill:#be927b;fill-rule:nonzero;"/><path d="M141.753,201.98c-0.092,-0.02 -0.175,-0.05 -0.265,-0.07l-0.01,0c0,0 0.102,0.03 0.275,0.07Z" style="fill:#be927b;fill-rule:nonzero;"/><path d="M146.045,201.97l0.001,0l-0.001,0Z" style="fill:#be927b;fill-rule:nonzero;"/><path d="M135.788,204.55c-0.24,-3.2 8.913,0.67 11.918,0.77c2.398,0.08 9.601,-0.48 10.266,-0.73c5.035,-1.89 -0.275,5.35 -10.415,5.73c-4.646,0.18 -11.631,-3.83 -11.769,-5.77Z" style="fill:#f0d2ad;fill-rule:nonzero;"/><path d="M165.955,196.87c-5.803,-1.09 -18.031,0.07 -18.031,0.07c-10.082,1.67 -17.974,-0.11 -18.031,-0.04c-0.242,0.03 8.052,11.03 17.893,10.52c9.842,0.51 18.41,-10.52 18.169,-10.55Z" style="fill:#c2646e;fill-rule:nonzero;"/><path d="M153.755,194.55c-2.615,-0.29 -4.477,1.59 -5.819,1.45c-1.365,0.13 -3.139,-1.08 -5.77,-1.11c-3.7,-0.03 -5.506,-0.36 -12.273,2.01c0.241,0.46 4.576,2.97 12.697,3.11c0.115,0 2.295,1.24 5.391,1.22c1.939,-0.02 4.6,-1.31 4.703,-1.31c8.133,-0.13 13.099,-2.54 13.328,-2.99c-8.946,-2.78 -8.236,-2.42 -12.257,-2.38Z" style="fill:#d87475;fill-rule:nonzero;"/><path d="M87.455,210.26c0.287,0.37 0.214,0.26 -0.089,-0.18l0.089,0.18Z" style="fill:#faa830;fill-rule:nonzero;"/><path d="M251.042,125.13c-0.956,0.47 -8.318,2.39 -15.397,-1.53c-5.25,-52.244 -44.027,-92.822 -91.112,-92.822c-50.673,0 -91.742,46.974 -91.742,104.922c0,2.39 0.091,4.74 0.226,7.09c-0.07,0.95 -0.161,1.89 -0.207,2.87c-0.199,4.65 0.972,9.69 2.418,14.06c2.12,6.37 4.848,11.27 4.848,11.27c0,0 -1.511,-8.74 0.333,-18.6c1.458,-7.63 4.014,-14.67 11.9,-21.92c-4.078,4.29 -7.576,10.78 -8.827,19.3c-2.312,16.09 1.132,28.76 6.578,40.05c4.086,8.48 15.118,19.43 17.475,22.43c-0.907,-1.3 -1.496,-5.13 -1.948,-9.91c5.916,7.97 17.763,13.96 17.763,13.96l-5.442,-7.69c0,0 -5.544,-10.92 -8.498,-22.91c-2.97,-12 2.031,-23.22 2.031,-23.22c0,0 0.402,8.52 1.27,11.21c5.434,16.88 16.612,21.08 16.612,21.08c0,0 -15.264,-25.09 -2.816,-52.73c3.509,-7.8 13.759,-20.24 13.759,-20.24c0,0 -4.886,6.28 -8.069,14.73c-0.842,2.21 -1.072,11.91 2.127,16.68c0.685,-2.93 -0.605,-7.35 3.004,-13.48c3.849,-6.42 10.92,-6.92 18.864,-9.05c2.426,1.09 7.726,3.05 14.927,3.19c14.104,0.24 31.637,-11.74 31.423,-33.458c0.482,0.808 1.109,12.928 -0.938,18.428c-4.393,11.86 -14.529,17.46 -14.529,17.46c0,0 17.215,-2.7 22.924,-12.47c1.638,-2.76 2.951,-6.42 3.984,-10.36c-0.911,6.7 0.574,18.3 3.359,22.7c1.16,1.86 2.27,5.75 2.468,6.55c1.635,6.69 3.869,19.08 0.203,26.45c-3.647,7.37 -16.179,15.57 -16.179,15.57c0,0 10.298,-1.51 20.664,-9.76c-2.189,6.11 -4.332,13.78 -3.724,19.29c1.523,13.65 -14.287,23.8 -14.287,23.8c17.299,-4.23 29.999,-21.54 33.412,-39.5c2.2,-11.59 -2.395,-22.08 -2.192,-22.64c3.658,5.06 4.411,9.99 4.694,13.75c0.406,5.21 0.605,13.23 -2.735,20.54c0,0 3.157,-2.9 6.558,-6.79c4.06,-4.66 8.468,-10.74 8.273,-15.08c-0.374,-7.98 4.974,-14.61 1.776,-26.84c-0.035,-0.11 -0.081,-0.25 -0.123,-0.37c0.08,-1.8 0.123,-3.61 0.123,-5.44c0,-2.52 -0.104,-5 -0.253,-7.48c1.079,0.15 2.165,0.25 3.222,0.25c5.245,0.01 10.725,-2.77 11.8,-3.34Z" style="fill:#faa830;fill-rule:nonzero;"/><path d="M148.222,281.16l-0.042,0l0.042,0Z" style="fill:#fff;fill-rule:nonzero;"/><path d="M209.618,281.11c-4.773,3.47 -9.155,9.38 -10.987,19.38l-99.682,0c-1.873,-10.17 -6.337,-16.09 -11.193,-19.55c0.926,-5.78 2.263,-10.84 3.889,-15.26c4.588,-12.47 11.439,-19.9 17.612,-24.3l0,8.72c0,20.08 11.254,36.5 24.998,36.5l28.289,0c13.744,0 24.977,-16.42 24.977,-36.5l0,-9.11c6.317,4.36 13.456,11.85 18.188,24.69c1.625,4.46 2.983,9.56 3.909,15.43Z" style="fill:#32aeaf;fill-rule:nonzero;"/><path d="M187.521,240.99l0,9.11c0,20.08 -11.233,36.5 -24.977,36.5l-28.289,0c-13.744,0 -24.998,-16.42 -24.998,-36.5l0,-8.72c2.407,-1.71 4.711,-2.96 6.728,-3.89l0,3.09c0,20.08 11.233,36.52 24.997,36.52l15.616,0c13.744,0 24.998,-16.44 24.998,-36.52l0,-2.97c1.81,0.83 3.827,1.94 5.925,3.38Z" style="fill:#197d7b;fill-rule:nonzero;"/></g></svg>