<?xml version="1.0" encoding="UTF-8" standalone="no"?><!DOCTYPE svg PUBLIC "-//W3C//DTD SVG 1.1//EN" "http://www.w3.org/Graphics/SVG/1.1/DTD/svg11.dtd"><svg width="100%" height="100%" viewBox="0 0 298 300" version="1.1" xmlns="http://www.w3.org/2000/svg" xmlns:xlink="http://www.w3.org/1999/xlink" xml:space="preserve" style="fill-rule:evenodd;clip-rule:evenodd;stroke-linejoin:round;stroke-miterlimit:1.41421;"><g id="_27"><rect x="0.17" y="0.275" width="296.87" height="299.705" style="fill:#d7878e;fill-rule:nonzero;"/><path d="M153.81,187.72l0,112.25l-60.74,0c-0.98,-0.39 -1.48,-0.59 -1.48,-0.59c0,-7.16 0.54,-13.56 1.46,-19.22c0.44,-2.61 0.95,-5.08 1.55,-7.39c0.65,-2.73 1.44,-5.26 2.3,-7.61c0.19,-0.47 0.35,-0.95 0.54,-1.4c0.2,-0.51 0.41,-1.01 0.61,-1.5c0.21,-0.49 0.41,-0.97 0.64,-1.44c0.41,-0.97 0.87,-1.87 1.32,-2.76c0.78,-1.52 1.6,-2.96 2.47,-4.3c0.22,-0.37 0.45,-0.72 0.68,-1.05c1.11,-1.64 2.26,-3.16 3.43,-4.54c0.33,-0.37 0.66,-0.76 0.99,-1.11c0.33,-0.37 0.66,-0.72 0.99,-1.07c0.33,-0.33 0.68,-0.68 1,-0.99c0.33,-0.33 0.66,-0.64 0.99,-0.93c0.66,-0.61 1.34,-1.19 2,-1.71c3.23,-2.59 6.34,-4.34 8.97,-5.49c0.33,-0.14 0.66,-0.29 0.99,-0.43c1.02,-0.41 1.95,-0.74 2.77,-0.99c2.14,-0.68 3.46,-0.82 3.46,-0.82c0.25,0 0.45,-0.02 0.68,-0.06c1.91,-0.31 3.46,-1.98 4.71,-4.61c0.93,-1.98 1.69,-4.49 2.33,-7.39c0.24,-1.15 0.45,-2.28 0.63,-3.52c0.31,-2.07 0.6,-4.25 0.85,-6.52c0.1,-1.38 0.24,-2.71 0.39,-4.15c0.55,-6.88 0.7,-14.39 0.7,-21.5c0,0 8.14,0.84 14.77,0.84Z" style="fill:#e0bd9a;fill-rule:nonzero;"/><path d="M216.27,299.38c0,0 -0.53,0.2 -1.44,0.59l-61.02,0l0,-112.25l0.14,0c6.59,0 14.84,-0.84 14.84,-0.84c0,7.05 0.14,14.48 0.68,21.35c0.16,1.34 0.3,2.72 0.41,4.06c0.25,2.36 0.53,4.58 0.88,6.66l0,0.04c0.11,0.95 0.29,1.79 0.46,2.68c0.59,2.92 1.31,5.49 2.2,7.55c1.09,2.57 2.4,4.36 4.03,5.06c0.49,0.23 1.05,0.35 1.62,0.35c0,0 2.33,0.27 5.83,1.64c1.85,0.72 4.03,1.75 6.35,3.21c0.48,0.29 0.97,0.62 1.44,0.95c0.4,0.25 0.79,0.54 1.18,0.82c0.33,0.25 0.7,0.52 1.03,0.79c0.72,0.55 1.46,1.17 2.2,1.85c0.29,0.24 0.55,0.51 0.84,0.78c0.33,0.29 0.64,0.6 0.97,0.95c0.22,0.2 0.43,0.41 0.64,0.63c0.43,0.46 0.88,0.95 1.31,1.46c0.23,0.25 0.46,0.5 0.66,0.77c0.99,1.15 1.96,2.4 2.88,3.78c0.41,0.58 0.78,1.17 1.17,1.79c0.79,1.26 1.55,2.59 2.29,4.01c0.9,1.77 1.77,3.67 2.57,5.7c0.19,0.45 0.37,0.93 0.53,1.4c0.87,2.35 1.65,4.88 2.33,7.61c0.6,2.31 1.11,4.78 1.52,7.39c0.93,5.66 1.46,12.06 1.46,19.22Z" style="fill:#efd0ad;fill-rule:nonzero;"/><path d="M170.76,218.75l0,0.04c-1.53,2.36 -6.67,9.14 -16.85,9.14l-0.1,0c-9.63,-0.05 -15.27,-7.02 -16.7,-9.09c0.3,-2.06 0.59,-4.22 0.84,-6.48c0.1,-1.33 0.25,-2.7 0.4,-4.12c4.69,1.17 9.83,1.91 15.27,2.01l0.19,0c5.64,-0.1 10.82,-0.89 15.67,-2.16c0.15,1.32 0.29,2.7 0.39,4.03c0.25,2.35 0.55,4.56 0.89,6.63Z" style="fill:#be987f;fill-rule:nonzero;"/><path d="M153.12,59.766c-64.33,0 -64.68,53.784 -61.81,88.994c-4.4,-8.35 -17.5,-5.8 -16.41,7.37c1.04,12.67 19.75,19.12 19.22,17.73c9.74,26.04 35.53,45.67 59,45.67l0.5,0l0,-159.764l-0.5,0Z" style="fill:#d2a686;fill-rule:nonzero;"/><path d="M79,150.58c3.16,-5.11 8.11,-2.9 9.29,-1.77c1.29,1.23 2.32,2.8 1.53,5.79c-0.44,1.72 -2.22,1.87 -1.83,4.42c0.5,2.9 1.83,3.05 2.62,3.74c0.74,0.63 1.68,1.13 2.13,2.35c0.49,1.23 0.54,2.51 0.29,3.64c-0.49,2.06 -3.5,0.39 -5.53,-0.49c-1.33,-0.64 -5.58,-4.23 -6.67,-5.41c-2.67,-3.04 -3.95,-8.93 -1.83,-12.27Z" style="fill:#ac8774;fill-rule:nonzero;"/><path d="M153.47,59.766c64.33,0 64.68,53.784 61.86,88.994c4.4,-8.35 17.45,-5.8 16.36,7.37c-0.99,12.67 -19.74,19.13 -19.22,17.73c-9.49,26.04 -35.53,45.67 -59,45.67c-0.15,0 -0.35,0 -0.35,0l-0.15,-159.764c0,0 0.35,0 0.5,0Z" style="fill:#ddb598;fill-rule:nonzero;"/><path d="M227.59,150.58c-3.17,-5.11 -8.06,-2.9 -9.29,-1.77c-1.29,1.23 -2.28,2.8 -1.53,5.79c0.44,1.72 2.22,1.87 1.82,4.42c-0.49,2.9 -1.82,3.05 -2.57,3.74c-0.74,0.63 -1.73,1.13 -2.17,2.35c-0.44,1.23 -0.54,2.51 -0.3,3.64c0.5,2.06 3.51,0.39 5.54,-0.49c1.38,-0.64 5.58,-4.23 6.67,-5.41c2.72,-3.04 3.95,-8.93 1.83,-12.27Z" style="fill:#ac8774;fill-rule:nonzero;"/><path d="M152.61,74.942c-21.14,0 -36.66,6.139 -46,18.221c-13.09,16.947 -12.6,42.777 -7.81,61.347c1.49,5.69 2.28,20.97 3.27,26.57c4.59,25.09 32.31,38.45 50.54,38.45c0,0 0.35,0 0.5,0l0,-144.588c-0.15,0 -0.3,0 -0.3,0l-0.2,0Z" style="fill:#e0bd9a;fill-rule:nonzero;"/><path d="M198.57,93.212c-9.29,-12.032 -24.61,-18.172 -45.46,-18.27l0,144.588c20.85,-0.24 45.81,-14.88 50.05,-38.45c1.04,-5.6 1.78,-20.88 3.27,-26.57c4.84,-18.52 5.33,-44.31 -7.86,-61.298Z" style="fill:#efd0ad;fill-rule:nonzero;"/><path d="M153.3,196.59" style="fill:#bc917b;fill-rule:nonzero;"/><path d="M153.3,196.59" style="fill:#bc917b;fill-rule:nonzero;"/><path d="M149.73,193.9c-0.1,-0.02 -0.2,-0.04 -0.3,-0.06c0.1,0.02 0.19,0.04 0.3,0.06Z" style="fill:#bc917b;fill-rule:nonzero;"/><path d="M153.3,193.71" style="fill:#bc917b;fill-rule:nonzero;"/><path d="M148.95,193.72c-0.09,-0.02 -0.18,-0.05 -0.27,-0.07l-0.01,0c0,0 0.1,0.03 0.28,0.07Z" style="fill:#bc917b;fill-rule:nonzero;"/><path d="M153.3,193.71" style="fill:#bc917b;fill-rule:nonzero;"/><path d="M135.15,75.303l-0.27,0.267l0.04,0.089c0.09,-0.134 0.14,-0.267 0.23,-0.356Z" style="fill:#432e1b;fill-rule:nonzero;"/><path d="M94.18,126.25" style="fill:#432e1b;fill-rule:nonzero;"/><path d="M153.57,193.73" style="fill:#ba907b;fill-rule:nonzero;"/><path d="M153.57,193.73" style="fill:#ba907b;fill-rule:nonzero;"/><path d="M149.91,190.97c-0.1,-0.03 -0.21,-0.05 -0.31,-0.07c0.1,0.02 0.19,0.04 0.31,0.07Z" style="fill:#ba907b;fill-rule:nonzero;"/><path d="M153.57,190.77" style="fill:#ba907b;fill-rule:nonzero;"/><path d="M149.1,190.79c-0.09,-0.03 -0.18,-0.06 -0.27,-0.08l-0.01,0c0,0 0.1,0.03 0.28,0.08Z" style="fill:#ba907b;fill-rule:nonzero;"/><path d="M153.57,190.77" style="fill:#ba907b;fill-rule:nonzero;"/><path d="M140.54,175c-0.25,-5.13 9.42,-1.87 12.61,-1.71c2.52,0.13 10.19,-1.62 10.85,-1.17c4.52,3.04 -4.78,9.17 -11.01,9.17c-1.66,0 -12.3,-3.19 -12.45,-6.29Z" style="fill:#dcb497;fill-rule:nonzero;"/><path d="M106.96,131.38c0,0 4.9,20.13 13.33,21.77c8.43,1.65 17.55,-1.62 17.55,-1.62c0,0 0.87,-23.66 -3.45,-26.75c-4.31,-3.11 -14.24,-7.6 -27.43,6.6Z" style="fill:#fff;fill-rule:nonzero;"/><path d="M137.85,151.47c0,0 -0.19,0.05 -0.63,0.24c-0.11,-7.26 -0.78,-17.23 -3.47,-19.14c-4.01,-2.94 -13.05,-7.06 -25.14,4.23c-1.1,-3.12 -1.65,-5.49 -1.65,-5.49c13.21,-14.22 23.16,-9.74 27.44,-6.63c4.32,3.11 3.45,26.79 3.45,26.79Z" style="fill:#d6b496;fill-rule:nonzero;"/><path d="M132.86,141.22c0,4.58 -3.71,8.29 -8.29,8.29c-4.58,0 -8.3,-3.71 -8.3,-8.29c0,-4.59 3.72,-8.3 8.3,-8.3c4.58,0 8.29,3.71 8.29,8.3Z" style="fill:#482315;fill-rule:nonzero;"/><path d="M124.18,146.74c-2.39,-0.2 -4.23,-2.62 -4.02,-5.27c0.22,-2.66 2.43,-4.74 4.82,-4.54c2.4,0.2 4.24,2.61 4.02,5.27c-0.22,2.66 -2.43,4.74 -4.82,4.54Z" style="fill:#7e3a22;fill-rule:nonzero;"/><path d="M124.39,145.78c-1.67,-0.14 -3.4,-1.97 -3.22,-4.22c0.19,-2.26 2.19,-3.79 3.86,-3.65c1.67,0.14 3.39,1.98 3.21,4.23c-0.18,2.26 -2.19,3.78 -3.85,3.64Z" style="fill:#211a10;fill-rule:nonzero;"/><path d="M123.04,140.22c-0.07,0.82 -0.91,1.41 -1.87,1.33c-0.96,-0.08 -1.68,-0.81 -1.61,-1.62c0.07,-0.81 0.9,-1.41 1.86,-1.33c0.96,0.08 1.68,0.8 1.62,1.62Z" style="fill:#fff;fill-rule:nonzero;"/><path d="M128.41,144.93c-0.03,0.41 -0.45,0.71 -0.93,0.67c-0.48,-0.04 -0.84,-0.41 -0.81,-0.81c0.04,-0.41 0.46,-0.71 0.93,-0.67c0.48,0.04 0.85,0.4 0.81,0.81Z" style="fill:#fff;fill-rule:nonzero;"/><path d="M153.71,196.1" style="fill:#ba907b;fill-rule:nonzero;"/><path d="M153.71,196.1" style="fill:#ba907b;fill-rule:nonzero;"/><path d="M150.04,193.34c-0.1,-0.02 -0.21,-0.04 -0.31,-0.06c0.1,0.02 0.19,0.04 0.31,0.06Z" style="fill:#ba907b;fill-rule:nonzero;"/><path d="M153.71,193.14" style="fill:#ba907b;fill-rule:nonzero;"/><path d="M149.24,193.16c-0.1,-0.02 -0.19,-0.05 -0.28,-0.08l-0.01,0.01c0,0 0.11,0.03 0.29,0.07Z" style="fill:#ba907b;fill-rule:nonzero;"/><path d="M153.71,193.14" style="fill:#ba907b;fill-rule:nonzero;"/><path d="M153.59,195.73" style="fill:#bc917b;fill-rule:nonzero;"/><path d="M153.59,195.73" style="fill:#bc917b;fill-rule:nonzero;"/><path d="M149.67,192.77c-0.12,-0.02 -0.23,-0.04 -0.34,-0.07c0.11,0.03 0.21,0.05 0.34,0.07Z" style="fill:#bc917b;fill-rule:nonzero;"/><path d="M153.59,192.56" style="fill:#bc917b;fill-rule:nonzero;"/><path d="M148.8,192.58c-0.1,-0.03 -0.19,-0.06 -0.3,-0.08l-0.01,0c0,0 0.12,0.03 0.31,0.08Z" style="fill:#bc917b;fill-rule:nonzero;"/><path d="M153.59,192.56" style="fill:#bc917b;fill-rule:nonzero;"/><path d="M153.35,194.89" style="fill:#bc917b;fill-rule:nonzero;"/><path d="M153.34,194.89l0.01,0l-0.01,0Z" style="fill:#bc917b;fill-rule:nonzero;"/><path d="M149.42,191.93c-0.11,-0.02 -0.23,-0.04 -0.34,-0.07c0.11,0.02 0.21,0.04 0.34,0.07Z" style="fill:#bc917b;fill-rule:nonzero;"/><path d="M153.35,191.72" style="fill:#bc917b;fill-rule:nonzero;"/><path d="M148.55,191.74c-0.1,-0.03 -0.19,-0.06 -0.29,-0.09l-0.01,0.01c0,0 0.11,0.03 0.3,0.08Z" style="fill:#bc917b;fill-rule:nonzero;"/><path d="M153.34,191.72l0.01,0l-0.01,0Z" style="fill:#bc917b;fill-rule:nonzero;"/><path d="M153.98,194.68" style="fill:#bc917b;fill-rule:nonzero;"/><path d="M153.98,194.68" style="fill:#bc917b;fill-rule:nonzero;"/><path d="M150.19,191.82c-0.11,-0.03 -0.22,-0.05 -0.33,-0.07c0.11,0.02 0.2,0.04 0.33,0.07Z" style="fill:#bc917b;fill-rule:nonzero;"/><path d="M153.98,191.61" style="fill:#bc917b;fill-rule:nonzero;"/><path d="M149.35,191.63c-0.1,-0.03 -0.19,-0.05 -0.28,-0.08l-0.02,0c0,0 0.12,0.03 0.3,0.08Z" style="fill:#bc917b;fill-rule:nonzero;"/><path d="M153.98,191.61" style="fill:#bc917b;fill-rule:nonzero;"/><path d="M199.77,130.69c0,0 -4.91,20.14 -13.34,21.78c-8.42,1.64 -17.54,-1.62 -17.54,-1.62c0,0 -0.88,-23.67 3.44,-26.76c4.31,-3.1 14.25,-7.59 27.44,6.6Z" style="fill:#fff;fill-rule:nonzero;"/><path d="M168.87,150.78c0,0 0.2,0.06 0.63,0.24c0.11,-7.26 0.78,-17.23 3.47,-19.14c4.01,-2.93 13.06,-7.06 25.14,4.23c1.1,-3.12 1.65,-5.48 1.65,-5.48c-13.21,-14.22 -23.16,-9.74 -27.44,-6.63c-4.32,3.1 -3.45,26.78 -3.45,26.78Z" style="fill:#d6b496;fill-rule:nonzero;"/><path d="M173.86,140.53c0,4.58 3.72,8.29 8.3,8.29c4.58,0 8.29,-3.71 8.29,-8.29c0,-4.58 -3.71,-8.29 -8.29,-8.29c-4.58,0 -8.3,3.71 -8.3,8.29Z" style="fill:#482315;fill-rule:nonzero;"/><path d="M182.54,146.05c2.4,-0.19 4.24,-2.61 4.02,-5.27c-0.22,-2.66 -2.42,-4.73 -4.82,-4.53c-2.4,0.19 -4.23,2.61 -4.02,5.26c0.22,2.66 2.43,4.74 4.82,4.54Z" style="fill:#7e3a22;fill-rule:nonzero;"/><path d="M182.34,145.09c1.66,-0.14 3.39,-1.97 3.21,-4.22c-0.19,-2.26 -2.19,-3.78 -3.86,-3.65c-1.67,0.15 -3.39,1.98 -3.21,4.23c0.19,2.26 2.19,3.78 3.86,3.64Z" style="fill:#211a10;fill-rule:nonzero;"/><path d="M183.69,139.54c0.07,0.81 0.9,1.41 1.86,1.33c0.96,-0.08 1.68,-0.81 1.62,-1.62c-0.07,-0.82 -0.9,-1.41 -1.86,-1.34c-0.97,0.08 -1.69,0.81 -1.62,1.63Z" style="fill:#fff;fill-rule:nonzero;"/><path d="M178.31,144.25c0.03,0.4 0.45,0.7 0.93,0.66c0.48,-0.04 0.84,-0.4 0.81,-0.81c-0.04,-0.4 -0.45,-0.7 -0.93,-0.66c-0.48,0.04 -0.85,0.4 -0.81,0.81Z" style="fill:#fff;fill-rule:nonzero;"/><path d="M142.9,131.05c-0.06,-0.09 -1.59,-2.42 -4.72,-4.81c-1.96,-1.51 -3.88,-2.65 -5.87,-3.5c-2.42,-1.02 -5.03,-1.74 -7.55,-2.08c-2.29,-0.26 -4.82,-0.19 -7.77,0.21c-2.25,0.43 -4.45,1.1 -6.32,1.92c-1.33,0.46 -2.38,1.1 -3.23,1.62c-0.32,0.2 -0.61,0.38 -0.91,0.54l-4.02,2.53l4.63,-1.09c0.22,-0.06 0.45,-0.12 0.71,-0.18c0.96,-0.26 2.15,-0.58 3.55,-0.78c0.33,-0.05 0.66,-0.11 1,-0.18c0.58,-0.12 1.19,-0.24 1.82,-0.27c0.7,-0.05 1.43,-0.1 2.18,-0.15l0.98,-0.07c2.56,-0.04 4.73,0.16 6.66,0.6c2.11,0.37 4.27,1.05 6.26,1.97c1.88,0.89 3.67,1.78 5.08,2.81c2.83,1.89 4.41,3.47 4.42,3.49c0.39,0.39 0.91,0.59 1.43,0.59c0.39,0 0.77,-0.11 1.1,-0.33c0.94,-0.61 1.2,-1.87 0.6,-2.77l-0.03,-0.07Z" style="fill:#030405;fill-rule:nonzero;"/><path d="M200.6,124.93c-0.27,-0.14 -0.56,-0.32 -0.89,-0.52c-0.84,-0.52 -1.89,-1.16 -3.18,-1.61c-1.91,-0.83 -4.11,-1.5 -6.39,-1.94c-2.93,-0.39 -5.46,-0.46 -7.75,-0.2c-2.52,0.34 -5.12,1.06 -7.55,2.08c-1.96,0.84 -3.93,2.01 -5.86,3.5c-3.07,2.35 -4.6,4.63 -4.71,4.81l-0.03,0.04c-0.52,0.8 -0.41,1.86 0.26,2.54c0.38,0.38 0.89,0.59 1.43,0.59c0.54,0 1.05,-0.21 1.43,-0.59l0.01,-0.02c0.15,-0.15 1.68,-1.64 4.43,-3.48c1.38,-1.01 3.18,-1.9 5.05,-2.8c1.99,-0.92 4.16,-1.6 6.29,-1.97c1.9,-0.44 4.08,-0.63 6.61,-0.6l1.02,0.07c0.75,0.05 1.47,0.1 2.18,0.15c0.62,0.03 1.22,0.15 1.81,0.27c0.34,0.07 0.67,0.13 1,0.18c1.4,0.2 2.59,0.52 3.55,0.78c0.25,0.06 0.49,0.12 0.71,0.18l4.64,1.09l-4.06,-2.55Z" style="fill:#030405;fill-rule:nonzero;"/><path d="M150.71,203.11" style="fill:#be927b;fill-rule:nonzero;"/><path d="M150.71,203.11" style="fill:#be927b;fill-rule:nonzero;"/><path d="M147.07,200.37c-0.11,-0.02 -0.21,-0.04 -0.31,-0.07c0.1,0.03 0.19,0.04 0.31,0.07Z" style="fill:#be927b;fill-rule:nonzero;"/><path d="M150.71,200.17" style="fill:#be927b;fill-rule:nonzero;"/><path d="M146.27,200.19c-0.1,-0.02 -0.19,-0.05 -0.28,-0.08l-0.01,0.01c0,0 0.11,0.03 0.29,0.07Z" style="fill:#be927b;fill-rule:nonzero;"/><path d="M150.71,200.17" style="fill:#be927b;fill-rule:nonzero;"/><path d="M150.48,202.33" style="fill:#be927b;fill-rule:nonzero;"/><path d="M150.48,202.33" style="fill:#be927b;fill-rule:nonzero;"/><path d="M146.84,199.59c-0.11,-0.02 -0.21,-0.04 -0.31,-0.07c0.1,0.03 0.19,0.04 0.31,0.07Z" style="fill:#be927b;fill-rule:nonzero;"/><path d="M150.48,199.39" style="fill:#be927b;fill-rule:nonzero;"/><path d="M146.04,199.41c-0.1,-0.02 -0.19,-0.05 -0.28,-0.08l-0.01,0.01c0,0 0.11,0.03 0.29,0.07Z" style="fill:#be927b;fill-rule:nonzero;"/><path d="M150.48,199.39" style="fill:#be927b;fill-rule:nonzero;"/><path d="M151.07,202.13" style="fill:#be927b;fill-rule:nonzero;"/><path d="M151.07,202.13" style="fill:#be927b;fill-rule:nonzero;"/><path d="M147.55,199.48c-0.1,-0.02 -0.2,-0.04 -0.3,-0.06c0.1,0.02 0.19,0.04 0.3,0.06Z" style="fill:#be927b;fill-rule:nonzero;"/><path d="M151.07,199.29" style="fill:#be927b;fill-rule:nonzero;"/><path d="M146.78,199.31c-0.1,-0.02 -0.18,-0.05 -0.27,-0.08l-0.01,0.01c0,0 0.1,0.03 0.28,0.07Z" style="fill:#be927b;fill-rule:nonzero;"/><path d="M151.07,199.29" style="fill:#be927b;fill-rule:nonzero;"/><path d="M140.81,201.88c-0.24,-3.2 8.91,0.67 11.92,0.76c2.4,0.08 9.6,-0.47 10.27,-0.73c5.03,-1.88 -0.28,5.35 -10.42,5.73c-4.65,0.19 -11.63,-3.82 -11.77,-5.76Z" style="fill:#f0d2ad;fill-rule:nonzero;"/><path d="M170.98,194.19c-5.81,-1.08 -18.03,0.08 -18.03,0.08c-10.09,1.67 -17.98,-0.11 -18.03,-0.04c-0.24,0.02 8.05,11.02 17.89,10.51c9.84,0.51 18.41,-10.51 18.17,-10.55Z" style="fill:#c2646e;fill-rule:nonzero;"/><path d="M158.78,191.87c-2.62,-0.29 -4.48,1.6 -5.82,1.46c-1.37,0.13 -3.14,-1.08 -5.77,-1.11c-3.7,-0.04 -5.51,-0.36 -12.27,2.01c0.24,0.46 4.57,2.97 12.69,3.11c0.12,0 2.3,1.23 5.39,1.21c1.94,-0.01 4.6,-1.3 4.71,-1.3c8.13,-0.13 13.1,-2.55 13.33,-3c-8.95,-2.77 -8.24,-2.42 -12.26,-2.38Z" style="fill:#d87475;fill-rule:nonzero;"/><path d="M214.81,280.16l-9.34,0c-2.17,0 -3.86,1.85 -3.68,4.01c0.1,1.2 0.18,2.42 0.25,3.66c0.1,1.86 0.18,3.75 0.22,5.7c0.06,1.86 0.08,3.77 0.08,5.74c0,0 -0.37,0.19 -1.13,0.7l-94.41,0c-0.76,-0.51 -1.15,-0.7 -1.15,-0.7c0,-1.97 0.02,-3.88 0.08,-5.74c0.04,-1.95 0.12,-3.84 0.22,-5.7c0.06,-1.24 0.15,-2.46 0.25,-3.66c0.18,-2.16 -1.51,-4.01 -3.68,-4.01l-9.47,0c0.44,-2.61 0.95,-5.08 1.55,-7.39l6.41,0c4.62,0 5.3,-6.97 0.72,-7.55c-0.28,-0.04 -0.57,-0.06 -0.86,-0.06l-3.97,0c0.19,-0.47 0.35,-0.94 0.54,-1.4c0.8,-2.03 1.66,-3.93 2.57,-5.7c7.98,-15.49 19.58,-20.84 25.28,-22.61c0,0.21 -0.02,0.41 -0.02,0.62c0,5.21 3.71,9.9 9.63,13.15c1.71,0.96 3.6,1.79 5.64,2.47c1.99,0.67 4.13,1.21 6.38,1.58c2.2,0.39 4.5,0.62 6.89,0.68c0.43,0.02 0.86,0.02 1.32,0.02c1.83,0 3.62,-0.1 5.37,-0.29c1.91,-0.2 3.74,-0.53 5.51,-0.97c1.98,-0.45 3.87,-1.04 5.62,-1.74c7.92,-3.17 13.14,-8.56 13.27,-14.69c6.17,2.4 15.96,8.2 22.96,21.78c0.9,1.77 1.77,3.67 2.57,5.7c0.19,0.46 0.37,0.93 0.53,1.4l-3.84,0c-0.29,0 -0.58,0.02 -0.86,0.06c-4.59,0.58 -3.9,7.55 0.72,7.55l6.31,0c0.6,2.31 1.11,4.78 1.52,7.39Z" style="fill:#e9acce;fill-rule:nonzero;"/><path d="M160.5,253.68l0,46.29l-13.58,0l0,-46.7c2.2,0.39 4.5,0.62 6.89,0.68c0.43,0.02 0.86,0.02 1.32,0.02c1.83,0 3.62,-0.1 5.37,-0.29Z" style="fill:#d16fac;fill-rule:nonzero;"/><path d="M140.54,251.69l0,48.28l-5.64,0l0,-50.75c1.71,0.96 3.6,1.79 5.64,2.47Z" style="fill:#b55d98;fill-rule:nonzero;"/><path d="M171.63,250.97l0,49l-5.62,0l0,-47.26c1.98,-0.45 3.87,-1.04 5.62,-1.74Z" style="fill:#b55d98;fill-rule:nonzero;"/><path d="M94.6,272.77l-7.38,-12.51l10.22,3.5c0,0 8.31,-4.02 10.23,1.66c1.23,3.64 -1.78,7.35 -5.62,7.35l-7.45,0Z" style="fill:#b55d98;fill-rule:nonzero;"/><path d="M213.33,272.77l7.38,-12.51l-10.22,3.5c0,0 -8.31,-4.02 -10.23,1.66c-1.23,3.64 1.78,7.35 5.62,7.35l7.45,0Z" style="fill:#b55d98;fill-rule:nonzero;"/><path d="M216,62.544c-6.53,-5.975 -14.8,-8.108 -14.8,-8.108c0,0 -18.28,-8.976 -32.2,-15.382c-13.92,-6.398 -36.56,-1.277 -48.31,1.709c-11.75,2.989 -25.75,19.378 -30.09,28.344c-4.35,8.977 -15.17,28.45 -18.64,42.533c-3.48,14.09 8.22,27.76 15.51,30.68c4.74,1.9 5.05,12.84 5.05,12.84l5.19,2.26c0,0 -0.5,-14.22 5.36,-26.99c3.84,9.71 14.35,17.9 14.35,17.9c-4.82,-8.67 -6.72,-15.14 -7.12,-19.9c8.44,2.81 15.93,3.78 22.56,3.39c-2.77,2.22 -6.03,4.03 -9.9,5.14c0,0 10.39,2.92 24.54,-8.55c1.11,-0.48 2.2,-0.98 3.24,-1.54c-2.19,7.1 -6.41,14.11 -14.29,18.41c0,0 19.22,1.08 33.04,-33.54c-0.06,14.27 4.91,28.67 4.91,28.67c1.29,-27.7 8.81,-38.3 14.69,-42.339c3.87,15.689 17.09,30.619 17.09,30.619c-3.97,-11.48 -5.58,-20.39 -5.82,-27.31c14.38,19.06 10.14,49.48 10.14,49.48l6.55,2.61c-0.1,-1.74 0.09,-3.65 0.44,-5.63c1.07,-2.07 2.99,-4.45 6.46,-6.33c6.22,-3.39 7.8,-14.9 7.8,-19.66c0,-31.796 -9.22,-53.326 -15.75,-59.306Z" style="fill:#36393a;fill-rule:nonzero;"/><path d="M100.82,150.52c-0.65,-2.16 -1.14,-4.77 -1.37,-7.94c-0.03,-0.33 -0.05,-0.66 -0.06,-0.97c0.57,-2.55 1.32,-5.24 2.33,-7.92c0.61,-0.59 1.34,-1.06 2.16,-1.43c1.73,3.56 4.24,6.84 6.63,9.49c0.71,1.63 1.52,3.27 2.43,4.78c-4.23,0.94 -8.25,2.31 -12,3.94c-0.04,0.02 -0.08,0.04 -0.12,0.05Z" style="fill:#da9ea4;fill-rule:nonzero;"/><path d="M112.94,146.53c-0.91,-1.51 -1.72,-3.15 -2.43,-4.78c1.6,1.78 3.14,3.28 4.37,4.39c-0.65,0.12 -1.3,0.25 -1.94,0.39Z" style="fill:#e8c1db;fill-rule:nonzero;"/><path d="M141.77,148.38c-1.28,-0.49 -2.57,-0.91 -3.85,-1.28c0,-0.59 0,-1.23 0,-1.9c1.13,-0.13 2.88,-0.46 5.03,-1.29c-0.1,0.63 -0.23,1.28 -0.39,1.95c-0.22,0.89 -0.49,1.72 -0.79,2.52Zm-3.86,-3.96c-0.04,-2.96 -0.17,-6.46 -0.5,-9.71c0.76,-0.33 1.54,-0.71 2.34,-1.13c0.03,0.03 0.05,0.05 0.05,0.05c0.39,0.39 0.91,0.59 1.43,0.59c0.04,0 0.08,0 0.11,0c0.57,0.42 0.96,0.87 1.11,1.35c0.44,1.41 0.72,2.91 0.77,4.55c-1.53,1.59 -3.29,3.04 -5.31,4.3Z" style="fill:#da9ea4;fill-rule:nonzero;"/><path d="M137.07,146.87c-1.87,-0.5 -3.72,-0.87 -5.55,-1.13c0.85,-1.3 1.34,-2.86 1.34,-4.52c0,-1.68 -0.5,-3.24 -1.35,-4.54c1.22,-0.27 2.54,-0.65 3.96,-1.18c0.78,2.43 1.23,5.92 1.48,9.49c-0.16,0.1 -0.33,0.19 -0.5,0.29c0,0 0.07,0 0.19,0c0.09,0 0.2,0 0.33,-0.01c0.04,0.53 0.07,1.07 0.1,1.6Zm-20.94,-0.94c-2.3,-4.44 -3.8,-8.26 -4.71,-11.53c2.34,-1.81 4.56,-3.04 6.62,-3.84c4.25,0.92 8.24,1.34 11.97,1.34c0.9,0 1.78,-0.02 2.65,-0.07c0.03,0.02 0.07,0.04 0.1,0.06c-1.11,0.89 -2.3,1.7 -3.57,2.44c-1.32,-0.89 -2.91,-1.41 -4.62,-1.41c-4.58,0 -8.3,3.71 -8.3,8.3c0,1.65 0.49,3.19 1.32,4.49c-0.49,0.06 -0.98,0.14 -1.46,0.22Z" style="fill:#e8c1db;fill-rule:nonzero;"/><path d="M137.92,147.1c-0.28,-0.08 -0.57,-0.15 -0.85,-0.23c-0.03,-0.53 -0.06,-1.07 -0.1,-1.6c0.24,-0.01 0.56,-0.03 0.95,-0.07c0,0.67 0,1.31 0,1.9Zm-0.97,-2.11c-0.25,-3.57 -0.7,-7.06 -1.48,-9.49c0.63,-0.23 1.27,-0.49 1.94,-0.79c0.33,3.25 0.46,6.75 0.5,9.71c-0.32,0.2 -0.63,0.39 -0.96,0.57Zm-25.53,-10.59c-0.36,-1.31 -0.63,-2.53 -0.83,-3.66c0.57,-0.07 1.15,-0.14 1.74,-0.21c1.43,-0.15 2.83,-0.25 4.18,-0.32c0.52,0.13 1.02,0.24 1.53,0.35c-2.06,0.8 -4.28,2.03 -6.62,3.84Zm21.34,-2.51c-0.03,-0.02 -0.07,-0.04 -0.1,-0.06c0.06,-0.01 0.13,-0.01 0.2,-0.01c-0.03,0.02 -0.07,0.05 -0.1,0.07Z" style="fill:#d498a1;fill-rule:nonzero;"/><path d="M131.52,145.74c-1.12,-0.16 -2.23,-0.28 -3.33,-0.37c0.13,-0.11 0.21,-0.26 0.22,-0.44c0.02,-0.17 -0.04,-0.33 -0.14,-0.46c0.4,-0.67 0.67,-1.44 0.73,-2.27c0.17,-2.13 -0.98,-4.11 -2.67,-4.91c1.36,0 3.12,-0.15 5.18,-0.61c0.85,1.3 1.35,2.86 1.35,4.54c0,1.66 -0.49,3.22 -1.34,4.52Zm-13.93,-0.03c-0.83,-1.3 -1.32,-2.84 -1.32,-4.49c0,-4.59 3.72,-8.3 8.3,-8.3c1.71,0 3.3,0.52 4.62,1.41c-1.88,1.08 -3.95,1.97 -6.23,2.63c0,0 0.2,0.06 0.59,0.12c-0.86,0.26 -1.64,0.79 -2.23,1.51c-0.02,0 -0.05,0 -0.07,0c-0.89,0 -1.63,0.57 -1.69,1.34c-0.04,0.5 0.21,0.96 0.63,1.27c-0.01,0.09 -0.02,0.18 -0.03,0.27c-0.12,1.47 0.4,2.87 1.29,3.86c-1.3,0.08 -2.59,0.21 -3.86,0.38Z" style="fill:#794049;fill-rule:nonzero;"/><path d="M121.45,145.33c-0.89,-0.99 -1.41,-2.39 -1.29,-3.86c0.01,-0.09 0.02,-0.18 0.03,-0.27c0.27,0.19 0.61,0.32 0.98,0.35l0,0.01c-0.13,1.6 0.71,2.98 1.8,3.7c-0.51,0.02 -1.02,0.04 -1.52,0.07Zm5.4,-0.04c-0.18,0 -0.36,-0.01 -0.54,-0.02c0.13,-0.08 0.26,-0.17 0.38,-0.27c0.03,0.11 0.09,0.21 0.16,0.29Zm1.42,-0.82c-0.14,-0.19 -0.38,-0.32 -0.67,-0.35c-0.02,0 -0.05,0 -0.07,0c0.38,-0.56 0.65,-1.23 0.71,-1.98c0.18,-2.25 -1.54,-4.09 -3.21,-4.23c-0.07,-0.01 -0.14,-0.01 -0.21,-0.01c-0.83,0 -1.72,0.39 -2.41,1.06c-0.27,-0.2 -0.61,-0.33 -0.99,-0.36c-0.04,0 -0.07,-0.01 -0.1,-0.01c0.59,-0.72 1.37,-1.25 2.23,-1.51c0.54,0.1 1.47,0.21 2.71,0.21c0.02,0 0.04,0 0.07,0c1.69,0.8 2.84,2.78 2.67,4.91c-0.06,0.83 -0.33,1.6 -0.73,2.27Z" style="fill:#9d4d53;fill-rule:nonzero;"/><path d="M126.31,145.27c-0.59,-0.02 -1.18,-0.03 -1.76,-0.03c-0.01,0 -0.02,0 -0.02,0c-0.01,0 -0.01,0 -0.02,0c-0.51,0 -1.03,0.01 -1.54,0.02c-1.09,-0.72 -1.93,-2.1 -1.8,-3.7l0,-0.01c0.06,0.01 0.12,0.01 0.17,0.01c0.89,0 1.63,-0.57 1.7,-1.34c0.04,-0.49 -0.21,-0.95 -0.63,-1.26c0.69,-0.67 1.58,-1.06 2.41,-1.06c0.07,0 0.14,0 0.21,0.01c1.67,0.14 3.39,1.98 3.21,4.23c-0.06,0.75 -0.33,1.42 -0.71,1.98l-0.01,0c-0.44,0 -0.81,0.29 -0.85,0.67c0,0.07 0.01,0.14 0.02,0.21c-0.12,0.1 -0.25,0.19 -0.38,0.27Z" style="fill:#5f3e49;fill-rule:nonzero;"/><path d="M121.34,141.56c-0.05,0 -0.11,0 -0.17,-0.01c-0.37,-0.03 -0.71,-0.16 -0.98,-0.35c-0.42,-0.31 -0.67,-0.77 -0.63,-1.27c0.06,-0.77 0.8,-1.34 1.69,-1.34c0.02,0 0.05,0 0.07,0c0.03,0 0.06,0.01 0.1,0.01c0.38,0.03 0.72,0.16 0.99,0.36c0.42,0.31 0.67,0.77 0.63,1.26c-0.07,0.77 -0.81,1.34 -1.7,1.34Z" style="fill:#e8c1db;fill-rule:nonzero;"/><path d="M128.19,145.37c-0.45,-0.03 -0.89,-0.06 -1.34,-0.08c-0.07,-0.08 -0.13,-0.18 -0.16,-0.29c-0.01,-0.07 -0.02,-0.14 -0.02,-0.21c0.04,-0.38 0.41,-0.67 0.85,-0.67l0.08,0c0.29,0.03 0.53,0.16 0.67,0.35c0.1,0.13 0.16,0.29 0.14,0.46c-0.01,0.18 -0.09,0.33 -0.22,0.44Z" style="fill:#e8c1db;fill-rule:nonzero;"/><path d="M141.23,134.22c-0.52,0 -1.04,-0.2 -1.43,-0.59c0,0 -0.02,-0.02 -0.05,-0.05c0.09,-0.05 0.18,-0.1 0.27,-0.14c0.5,0.24 0.95,0.5 1.32,0.78c-0.03,0 -0.07,0 -0.11,0Z" style="fill:#4f3545;fill-rule:nonzero;"/><path d="M114.88,146.14c-1.23,-1.11 -2.77,-2.61 -4.37,-4.39c-2.39,-2.65 -4.9,-5.93 -6.63,-9.49c1.82,-0.83 4.12,-1.21 6.71,-1.52c0.2,1.13 0.47,2.35 0.83,3.66c0.91,3.27 2.41,7.09 4.71,11.53c-0.42,0.06 -0.84,0.14 -1.25,0.21Zm21.76,-0.86c-0.12,0 -0.19,0 -0.19,0c0.17,-0.1 0.34,-0.19 0.5,-0.29c0.33,-0.18 0.64,-0.37 0.96,-0.57c2.02,-1.26 3.78,-2.71 5.31,-4.3c0.03,1.18 -0.05,2.44 -0.27,3.79c-2.15,0.83 -3.9,1.16 -5.03,1.29c-0.39,0.04 -0.71,0.06 -0.95,0.07c-0.13,0.01 -0.24,0.01 -0.33,0.01Zm-37.25,-3.67c-0.15,-3.95 0.71,-6.37 2.33,-7.92c-1.01,2.68 -1.76,5.37 -2.33,7.92Zm26.87,-4.32c-1.24,0 -2.17,-0.11 -2.71,-0.21c-0.39,-0.06 -0.59,-0.12 -0.59,-0.12c2.28,-0.66 4.35,-1.55 6.23,-2.63c1.27,-0.74 2.46,-1.55 3.57,-2.44c0.03,-0.02 0.07,-0.05 0.1,-0.07c-0.07,0 -0.14,0 -0.2,0.01c-0.87,0.05 -1.75,0.07 -2.65,0.07c-3.73,0 -7.72,-0.42 -11.97,-1.34c-0.51,-0.11 -1.01,-0.22 -1.53,-0.35c1.29,-0.06 2.54,-0.09 3.74,-0.09c3.2,0 6.03,0.2 8.26,0.41c2.81,0.33 8.3,1.33 11.51,2.91c-0.09,0.04 -0.18,0.09 -0.27,0.14c-0.8,0.42 -1.58,0.8 -2.34,1.13c-0.67,0.3 -1.31,0.56 -1.94,0.79c-1.42,0.53 -2.74,0.91 -3.96,1.18c-2.06,0.46 -3.82,0.61 -5.18,0.61c-0.03,0 -0.05,0 -0.07,0Z" style="fill:#6c4f62;fill-rule:nonzero;"/><path d="M165.2,150.12c-0.63,-1.28 -1.15,-2.7 -1.54,-4.26c-1.01,-4.12 -0.79,-7.4 0.11,-10.29c0.17,-0.55 0.65,-1.05 1.34,-1.52c0.26,0.11 0.53,0.17 0.82,0.17c0.54,0 1.05,-0.21 1.43,-0.59l0.01,-0.02c0.08,-0.08 0.52,-0.51 1.3,-1.16c0.28,-0.09 0.57,-0.18 0.86,-0.26c-0.77,5.84 -0.76,13.15 -0.7,16.6c-1.19,0.4 -2.35,0.83 -3.49,1.27c-0.05,0.02 -0.1,0.04 -0.14,0.06Zm40.88,-2.32c-0.12,-0.04 -0.24,-0.07 -0.36,-0.11c-0.03,-0.01 -0.06,-0.02 -0.08,-0.03c-3.93,-1.2 -7.81,-1.92 -11.61,-2.23c3.07,-5.29 4.99,-11.94 5.56,-14.06c4.84,1.09 7.77,3.47 7.18,11.21c-0.14,1.94 -0.38,3.67 -0.69,5.22Z" style="fill:#e1a9af;fill-rule:nonzero;"/><path d="M169.56,148.55c0.19,-6.1 0.84,-13.16 2.66,-15.86c0.69,2.86 1.35,5.11 1.76,6.42c-0.08,0.46 -0.12,0.94 -0.12,1.42c0,2.42 1.04,4.6 2.7,6.12c-2.4,0.52 -4.74,1.16 -7,1.9Zm24.47,-3.12c-1.54,-0.13 -3.07,-0.19 -4.58,-0.19c-0.01,0 -0.01,0 -0.02,0c0,0 -0.01,0 -0.02,0c-0.14,0 -0.28,0 -0.43,0c0.93,-1.33 1.47,-2.96 1.47,-4.71c0,-4.58 -3.71,-8.29 -8.29,-8.29c-3.37,0 -6.27,2.01 -7.57,4.89c0.15,-2.19 0.34,-4.26 0.56,-6.22c0.97,-0.17 1.85,-0.29 2.56,-0.38c2.23,-0.21 5.04,-0.41 8.24,-0.41c1.13,0 2.31,0.03 3.53,0.08c2.66,1.15 5.55,3.03 8.63,5.91c0.73,-2.07 1.22,-3.81 1.46,-4.74c0.01,0 0.01,0 0.02,0c-0.57,2.12 -2.49,8.77 -5.56,14.06Z" style="fill:#e8c1db;fill-rule:nonzero;"/><path d="M168.83,148.79c-0.06,-3.45 -0.07,-10.76 0.7,-16.6c0.79,-0.24 1.61,-0.45 2.42,-0.64c0.09,0.39 0.18,0.77 0.27,1.14c-1.82,2.7 -2.47,9.76 -2.66,15.86c-0.25,0.08 -0.49,0.16 -0.73,0.24Zm29.28,-12.68c-3.08,-2.88 -5.97,-4.76 -8.63,-5.91c1.42,0.07 2.89,0.17 4.41,0.33c2.08,0.24 4,0.46 5.68,0.84c-0.24,0.93 -0.73,2.67 -1.46,4.74Z" style="fill:#d498a1;fill-rule:nonzero;"/><path d="M176.56,146.65c-1.66,-1.52 -2.7,-3.7 -2.7,-6.12c0,-0.48 0.04,-0.96 0.12,-1.42c0.26,0.84 0.42,1.3 0.42,1.3c0.06,-1.12 0.12,-2.21 0.19,-3.28c1.3,-2.88 4.2,-4.89 7.57,-4.89c4.58,0 8.29,3.71 8.29,8.29c0,1.75 -0.54,3.38 -1.47,4.71c-1.58,0.02 -3.14,0.09 -4.69,0.23c1.47,-0.9 2.43,-2.73 2.27,-4.69c-0.01,-0.09 -0.02,-0.18 -0.03,-0.27c0.42,-0.3 0.68,-0.77 0.64,-1.26c-0.07,-0.77 -0.81,-1.34 -1.69,-1.34c-0.03,0 -0.05,0 -0.08,0c-0.84,-1.03 -2.05,-1.68 -3.34,-1.68c-0.11,0 -0.21,0.01 -0.32,0.02c-2.4,0.19 -4.23,2.61 -4.02,5.26c0.07,0.83 0.33,1.61 0.73,2.27c-0.1,0.14 -0.16,0.3 -0.14,0.47c0.03,0.38 0.4,0.66 0.84,0.66c0.03,0 0.06,0 0.09,0c0.04,0 0.08,-0.01 0.12,-0.02c0.47,0.44 1.02,0.77 1.6,0.97c-1.49,0.21 -2.95,0.48 -4.4,0.79Z" style="fill:#794049;fill-rule:nonzero;"/><path d="M180.96,145.86c-0.58,-0.2 -1.13,-0.53 -1.6,-0.97c0.33,-0.06 0.59,-0.29 0.67,-0.57c0.64,0.5 1.39,0.78 2.09,0.78c0.08,0 0.15,0 0.22,-0.01c1.66,-0.14 3.39,-1.97 3.21,-4.22c0.37,-0.03 0.71,-0.16 0.98,-0.36c0.01,0.09 0.02,0.18 0.03,0.27c0.16,1.96 -0.8,3.79 -2.27,4.69c-1.12,0.1 -2.23,0.23 -3.33,0.39Zm-2.51,-2.08c-0.4,-0.66 -0.66,-1.44 -0.73,-2.27c-0.21,-2.65 1.62,-5.07 4.02,-5.26c0.11,-0.01 0.21,-0.02 0.32,-0.02c1.29,0 2.5,0.65 3.34,1.68c-0.03,0 -0.06,0 -0.09,0c-0.38,0.04 -0.73,0.17 -1,0.37c-0.69,-0.67 -1.58,-1.07 -2.41,-1.07c-0.07,0 -0.14,0.01 -0.21,0.01c-1.67,0.15 -3.39,1.98 -3.21,4.23c0.06,0.76 0.33,1.43 0.72,1.98c-0.03,0.01 -0.05,0.01 -0.08,0.01c-0.28,0.02 -0.52,0.15 -0.67,0.34Z" style="fill:#9d4d53;fill-rule:nonzero;"/><path d="M182.12,145.1c-0.7,0 -1.45,-0.28 -2.09,-0.78c0.02,-0.07 0.02,-0.14 0.02,-0.22c-0.03,-0.38 -0.4,-0.67 -0.84,-0.67l-0.01,0c-0.39,-0.55 -0.66,-1.22 -0.72,-1.98c-0.18,-2.25 1.54,-4.08 3.21,-4.23c0.07,0 0.14,-0.01 0.21,-0.01c0.83,0 1.72,0.4 2.41,1.07c-0.41,0.3 -0.66,0.76 -0.62,1.26c0.06,0.76 0.8,1.34 1.69,1.34c0.06,0 0.11,-0.01 0.17,-0.01c0.18,2.25 -1.55,4.08 -3.21,4.22c-0.07,0.01 -0.14,0.01 -0.22,0.01Z" style="fill:#5f3e49;fill-rule:nonzero;"/><path d="M185.38,140.88c-0.89,0 -1.63,-0.58 -1.69,-1.34c-0.04,-0.5 0.21,-0.96 0.62,-1.26c0.27,-0.2 0.62,-0.33 1,-0.37l0.17,0c0.88,0 1.62,0.57 1.69,1.34c0.04,0.49 -0.22,0.96 -0.64,1.26c-0.27,0.2 -0.61,0.33 -0.98,0.36c-0.06,0 -0.11,0.01 -0.17,0.01Z" style="fill:#e8c1db;fill-rule:nonzero;"/><path d="M179.15,144.91c-0.44,0 -0.81,-0.28 -0.84,-0.66c-0.02,-0.17 0.04,-0.33 0.14,-0.47c0.15,-0.19 0.39,-0.32 0.67,-0.34c0.03,0 0.05,0 0.08,-0.01l0.01,0c0.44,0 0.81,0.29 0.84,0.67c0,0.08 0,0.15 -0.02,0.22c-0.08,0.28 -0.34,0.51 -0.67,0.57c-0.04,0.01 -0.08,0.02 -0.12,0.02c-0.03,0 -0.06,0 -0.09,0Z" style="fill:#e8c1db;fill-rule:nonzero;"/><path d="M165.93,134.22c-0.29,0 -0.56,-0.06 -0.82,-0.17c0.9,-0.6 2.16,-1.14 3.56,-1.6c-0.78,0.65 -1.22,1.08 -1.3,1.16l-0.01,0.02c-0.38,0.38 -0.89,0.59 -1.43,0.59Z" style="fill:#4f3545;fill-rule:nonzero;"/><path d="M174.4,140.41c0,0 -0.16,-0.46 -0.42,-1.3c-0.41,-1.31 -1.07,-3.56 -1.76,-6.42c-0.09,-0.37 -0.18,-0.75 -0.27,-1.14c1.11,-0.26 2.2,-0.47 3.2,-0.64c-0.22,1.96 -0.41,4.03 -0.56,6.22c-0.07,1.07 -0.13,2.16 -0.19,3.28Z" style="fill:#6c4f62;fill-rule:nonzero;"/><path d="M118.29,161.8c-3.66,0 -6.74,-0.49 -8.34,-0.91c-1.89,-0.55 -6.66,-2.19 -9.13,-10.37c0.04,-0.01 0.08,-0.03 0.12,-0.05c3.75,-1.63 7.77,-3 12,-3.93c2,3.33 4.47,6.05 7.35,6.61c1.69,0.33 3.41,0.47 5.08,0.47c6.64,0 12.47,-2.09 12.47,-2.09c0,0 0,-0.02 0,-0.06l0.01,0c0,0 0.06,-1.75 0.07,-4.37c1.28,0.37 2.57,0.79 3.85,1.28c-4.13,10.98 -15.27,13.42 -23.48,13.42Z" style="fill:#d792a6;fill-rule:nonzero;"/><path d="M125.37,153.62c-1.67,0 -3.39,-0.14 -5.08,-0.47c-2.88,-0.56 -5.35,-3.28 -7.35,-6.61c0.64,-0.15 1.29,-0.28 1.94,-0.4c1.52,1.39 2.54,2.19 2.54,2.19c-0.46,-0.82 -0.89,-1.62 -1.29,-2.4c0.48,-0.08 0.97,-0.16 1.46,-0.22c1.48,2.29 4.05,3.8 6.98,3.8c2.91,0 5.47,-1.5 6.95,-3.77c1.83,0.26 3.68,0.63 5.55,1.13c0.08,1.66 0.13,3.31 0.15,4.84c0.38,-0.16 0.57,-0.22 0.62,-0.24c0,0.04 0,0.06 0,0.06c0,0 -5.83,2.09 -12.47,2.09Z" style="fill:#e1abce;fill-rule:nonzero;"/><path d="M137.22,151.71c-0.02,-1.53 -0.07,-3.18 -0.15,-4.84c0.28,0.08 0.57,0.15 0.85,0.23c-0.01,2.62 -0.07,4.37 -0.07,4.37l-0.01,0c-0.05,0.02 -0.24,0.08 -0.62,0.24Z" style="fill:#d38fa4;fill-rule:nonzero;"/><path d="M124.57,149.51c-2.93,0 -5.5,-1.51 -6.98,-3.8c1.27,-0.17 2.56,-0.3 3.86,-0.38c0.71,0.79 1.67,1.32 2.73,1.41c0.11,0.01 0.21,0.01 0.32,0.01c1.06,0 2.07,-0.44 2.87,-1.17c0.03,0.01 0.07,0.01 0.11,0.02c0.03,0 0.06,0 0.09,0c0.24,0 0.46,-0.09 0.62,-0.23c1.1,0.09 2.21,0.21 3.33,0.37c-1.48,2.27 -4.04,3.77 -6.95,3.77Z" style="fill:#8d4b5f;fill-rule:nonzero;"/><path d="M124.5,146.75c-0.11,0 -0.21,0 -0.32,-0.01c-1.06,-0.09 -2.02,-0.62 -2.73,-1.41c0.5,-0.03 1.01,-0.05 1.52,-0.07c0.45,0.3 0.93,0.48 1.42,0.52c0.07,0.01 0.14,0.01 0.21,0.01c0.57,0 1.17,-0.19 1.71,-0.52c0.18,0.01 0.36,0.02 0.54,0.02c0.13,0.14 0.31,0.25 0.52,0.29c-0.8,0.73 -1.81,1.17 -2.87,1.17Z" style="fill:#a95566;fill-rule:nonzero;"/><path d="M124.6,145.79c-0.07,0 -0.14,0 -0.21,-0.01c-0.49,-0.04 -0.97,-0.22 -1.42,-0.52c0.51,-0.01 1.03,-0.02 1.54,-0.02l0.04,0c0.58,0 1.17,0.01 1.76,0.03c-0.54,0.33 -1.14,0.52 -1.71,0.52Z" style="fill:#774a5e;fill-rule:nonzero;"/><path d="M127.57,145.6c-0.03,0 -0.06,0 -0.09,0c-0.04,-0.01 -0.08,-0.01 -0.11,-0.02c-0.21,-0.04 -0.39,-0.15 -0.52,-0.29c0.45,0.02 0.89,0.05 1.34,0.08c-0.16,0.14 -0.38,0.23 -0.62,0.23Z" style="fill:#e1abce;fill-rule:nonzero;"/><path d="M117.42,148.33c0,0 -1.02,-0.8 -2.54,-2.19c0.41,-0.07 0.83,-0.15 1.25,-0.21c0.4,0.78 0.83,1.58 1.29,2.4Z" style="fill:#835772;fill-rule:nonzero;"/><path d="M100.94,150.47c3.75,-1.63 7.77,-3 12,-3.94l0,0.01c-4.23,0.93 -8.25,2.3 -12,3.93Z" style="fill:#d584a8;fill-rule:nonzero;"/><path d="M112.94,146.54l0,-0.01c0.64,-0.14 1.29,-0.27 1.94,-0.39c-0.65,0.12 -1.3,0.25 -1.94,0.4Zm3.19,-0.61c0.48,-0.08 0.97,-0.16 1.46,-0.22c-0.49,0.06 -0.98,0.14 -1.46,0.22Z" style="fill:#da93c0;fill-rule:nonzero;"/><path d="M117.59,145.71c1.27,-0.17 2.56,-0.3 3.86,-0.38c-1.3,0.08 -2.59,0.21 -3.86,0.38Z" style="fill:#a7597a;fill-rule:nonzero;"/><path d="M121.45,145.33c0.5,-0.03 1.01,-0.05 1.52,-0.07c-0.51,0.02 -1.02,0.04 -1.52,0.07Z" style="fill:#b85e7f;fill-rule:nonzero;"/><path d="M114.88,146.14c0.41,-0.07 0.83,-0.15 1.25,-0.21c-0.42,0.06 -0.84,0.14 -1.25,0.21Z" style="fill:#a06087;fill-rule:nonzero;"/><path d="M187.93,161.8c-7.75,0 -18.12,-2.18 -22.73,-11.68c0.04,-0.02 0.09,-0.04 0.14,-0.06c1.14,-0.44 2.3,-0.87 3.49,-1.27c0.02,1.25 0.04,1.99 0.04,1.99c0,0 0.01,0 0.01,0.01c0,0.04 0.01,0.06 0.01,0.06c0,0 5.82,2.08 12.46,2.08c1.67,0 3.39,-0.13 5.08,-0.46c3,-0.59 5.55,-3.51 7.6,-7.04c3.8,0.31 7.68,1.03 11.61,2.23c0.02,0.01 0.05,0.02 0.08,0.03c0.12,0.04 0.24,0.07 0.36,0.11c-2.14,10.55 -7.73,12.49 -9.81,13.09c-1.6,0.42 -4.68,0.91 -8.34,0.91Z" style="fill:#dd9aae;fill-rule:nonzero;"/><path d="M181.35,152.93c-6.64,0 -12.46,-2.08 -12.46,-2.08c0,0 -0.01,-0.02 -0.01,-0.06c0.05,0.01 0.24,0.07 0.62,0.23c0.01,-0.8 0.03,-1.62 0.06,-2.47c2.26,-0.74 4.6,-1.38 7,-1.9c1.48,1.35 3.44,2.17 5.6,2.17c2.83,0 5.33,-1.41 6.82,-3.58l0.47,0c1.51,0 3.04,0.06 4.58,0.19c-2.05,3.53 -4.6,6.45 -7.6,7.04c-1.69,0.33 -3.41,0.46 -5.08,0.46Z" style="fill:#e1abce;fill-rule:nonzero;"/><path d="M169.5,151.02c-0.38,-0.16 -0.57,-0.22 -0.62,-0.23c0,-0.01 -0.01,-0.01 -0.01,-0.01c0,0 -0.02,-0.74 -0.04,-1.99c0.24,-0.08 0.48,-0.16 0.73,-0.24c-0.03,0.85 -0.05,1.67 -0.06,2.47Z" style="fill:#d38fa4;fill-rule:nonzero;"/><path d="M182.16,148.82c-2.16,0 -4.12,-0.82 -5.6,-2.17c1.45,-0.31 2.91,-0.58 4.4,-0.79c0.41,0.13 0.83,0.21 1.26,0.21c0.11,0 0.22,-0.01 0.32,-0.02c0.63,-0.05 1.23,-0.25 1.75,-0.58c1.55,-0.14 3.11,-0.21 4.69,-0.23c-1.49,2.17 -3.99,3.58 -6.82,3.58Z" style="fill:#8d4b5f;fill-rule:nonzero;"/><path d="M182.22,146.07c-0.43,0 -0.85,-0.08 -1.26,-0.21c1.1,-0.16 2.21,-0.29 3.33,-0.39c-0.52,0.33 -1.12,0.53 -1.75,0.58c-0.1,0.01 -0.21,0.02 -0.32,0.02Z" style="fill:#a95566;fill-rule:nonzero;"/><path d="M165.34,150.06c1.14,-0.44 2.3,-0.87 3.49,-1.27c-1.19,0.4 -2.35,0.83 -3.49,1.27Z" style="fill:#d889ad;fill-rule:nonzero;"/><path d="M169.56,148.55c2.26,-0.74 4.6,-1.38 7,-1.9c-2.4,0.52 -4.74,1.16 -7,1.9Zm19.42,-3.31c0.15,0 0.29,0 0.43,0c-0.14,0 -0.28,0 -0.43,0Z" style="fill:#da93c0;fill-rule:nonzero;"/><path d="M168.83,148.79c0.24,-0.08 0.48,-0.16 0.73,-0.24c-0.25,0.08 -0.49,0.16 -0.73,0.24Z" style="fill:#d282a7;fill-rule:nonzero;"/><path d="M176.56,146.65c1.45,-0.31 2.91,-0.58 4.4,-0.79c-1.49,0.21 -2.95,0.48 -4.4,0.79Zm7.73,-1.18c1.55,-0.14 3.11,-0.21 4.69,-0.23c-1.58,0.02 -3.14,0.09 -4.69,0.23Z" style="fill:#a7597a;fill-rule:nonzero;"/><path d="M180.96,145.86c1.1,-0.16 2.21,-0.29 3.33,-0.39c-1.12,0.1 -2.23,0.23 -3.33,0.39Z" style="fill:#b85e7f;fill-rule:nonzero;"/><path d="M206.77,142.58c-0.14,1.94 -0.38,3.67 -0.69,5.22c-2.14,10.55 -7.73,12.49 -9.81,13.09c-5,1.32 -24.28,3.22 -31.07,-10.77c-0.63,-1.28 -1.15,-2.69 -1.54,-4.26c-1.01,-4.12 -0.79,-7.4 0.11,-10.29c0.9,-2.83 10.02,-4.58 13.94,-5.04c3.93,-0.38 9.65,-0.68 16.18,0c8.06,0.92 13.68,1.6 12.88,12.05Zm-64.21,3.28c-0.22,0.89 -0.49,1.72 -0.79,2.52c-5.98,15.89 -26.62,13.89 -31.82,12.51c-1.89,-0.55 -6.66,-2.19 -9.13,-10.37c-0.65,-2.16 -1.14,-4.77 -1.37,-7.94c-0.8,-10.45 4.88,-11.13 12.88,-12.05c6.47,-0.68 12.25,-0.38 16.18,0c3.92,0.46 13.04,2.21 13.94,5.04c0.9,2.89 1.11,6.17 0.11,10.29Zm72.48,-16.24c-0.37,-0.61 -7.05,-1.45 -15.75,-2.21c-7.42,-0.61 -19.24,-0.23 -23.91,0.38c-1.86,0.23 -5.36,0.84 -8.8,1.6c-3.87,0.91 -7.64,2.13 -9.23,2.44c-1.53,0.27 -2.74,0.36 -3.98,0.33l0,-0.03l-0.26,0.01l-0.27,-0.01l0,0.03c-1.23,0.03 -2.44,-0.06 -3.97,-0.33c-1.59,-0.31 -5.36,-1.53 -9.23,-2.44c-3.45,-0.76 -6.95,-1.37 -8.85,-1.6c-4.62,-0.61 -16.44,-0.99 -23.87,-0.38c-8.69,0.76 -15.37,1.6 -15.75,2.21c-0.21,0.45 -0.74,6.1 -0.05,6.79c0.69,0.53 3.18,1.83 3.77,3.81c0.34,1.15 1.3,6.53 3.1,11.6c1.31,3.68 3.06,7.2 5.33,8.84c7.9,5.82 32.27,6.71 41.31,-9.76c1.15,-2.1 2.06,-4.48 2.65,-7.17c0.69,-3.28 1.59,-5.19 3.23,-5.72c0.63,-0.21 1.62,-0.36 2.6,-0.38c0.98,0.02 1.97,0.17 2.6,0.38c1.64,0.53 2.54,2.44 3.29,5.72c0.63,2.94 1.65,5.51 2.95,7.75c9.25,15.87 33.14,14.93 40.95,9.18c2.88,-2.07 4.9,-7.17 6.26,-11.79c1.19,-4.05 1.87,-7.72 2.17,-8.65c0.59,-1.98 3.08,-3.28 3.77,-3.81c0.69,-0.69 0.16,-6.34 -0.06,-6.79Z" style="fill:#d16fac;fill-rule:nonzero;"/><path d="M205.96,60.132c-2.17,-0.382 -10.48,7.309 -13.98,12.132c-0.87,-0.308 -1.87,-0.367 -2.84,-0.08c-0.97,0.284 -1.72,0.862 -2.22,1.578c-6.07,-1.987 -17.93,-3.704 -19.4,-2.24c-1.94,1.945 3.71,9.833 3.71,9.833c0,0 0.85,9.311 3.72,9.832c2.17,0.386 10.47,-7.305 13.97,-12.129c0.88,0.31 1.88,0.377 2.85,0.089c0.97,-0.288 1.73,-0.867 2.22,-1.586c6.07,1.987 17.93,3.702 19.39,2.235c1.95,-1.944 -3.7,-9.831 -3.7,-9.831c0,0 -0.85,-9.314 -3.72,-9.833Z" style="fill:#ca5681;fill-rule:nonzero;"/></g></svg>