<?xml version="1.0" encoding="UTF-8" standalone="no"?><!DOCTYPE svg PUBLIC "-//W3C//DTD SVG 1.1//EN" "http://www.w3.org/Graphics/SVG/1.1/DTD/svg11.dtd"><svg width="100%" height="100%" viewBox="0 0 298 300" version="1.1" xmlns="http://www.w3.org/2000/svg" xmlns:xlink="http://www.w3.org/1999/xlink" xml:space="preserve" style="fill-rule:evenodd;clip-rule:evenodd;stroke-linejoin:round;stroke-miterlimit:1.41421;"><g id="_28"><rect x="0.442" y="0.275" width="296.868" height="299.705" style="fill:#145b66;fill-rule:nonzero;"/><path d="M149.18,187.35l0,112.62l-60.715,0c-1.008,-0.39 -1.502,-0.59 -1.502,-0.59c0,-14.36 2.119,-25.58 5.308,-34.32c3.786,-10.29 9.094,-17.16 14.3,-21.73c5.429,-4.79 10.759,-7.05 14.089,-8.08l0.05,-0.02c2.11,-0.64 3.41,-0.81 3.41,-0.81c0.25,0 0.45,-0.02 0.68,-0.06c1.91,-0.31 3.46,-1.97 4.71,-4.63c0.93,-1.97 1.69,-4.5 2.33,-7.4c0.24,-1.14 0.45,-2.29 0.63,-3.52c0.31,-2.1 0.6,-4.28 0.85,-6.57c0.1,-1.37 0.24,-2.71 0.41,-4.15c0.53,-6.89 0.68,-14.42 0.68,-21.58c0,0 8.169,0.84 14.77,0.84Z" style="fill:#e0bd9a;fill-rule:nonzero;"/><path d="M211.64,299.38c0,0 -0.53,0.2 -1.44,0.59l-61.02,0l0,-112.62l0.139,0c6.591,0 14.841,-0.84 14.841,-0.84c0,7.09 0.14,14.54 0.68,21.43c0.16,1.34 0.31,2.72 0.41,4.06c0.25,2.38 0.53,4.63 0.88,6.71l0,0.04c0.11,0.94 0.29,1.79 0.46,2.67c0.59,2.94 1.31,5.51 2.2,7.57c1.09,2.57 2.4,4.38 4.03,5.08c0.51,0.23 1.05,0.35 1.63,0.35c0,0 1.13,0.15 3,0.68c0.8,0.25 1.77,0.56 2.82,0.99c3.27,1.28 7.57,3.54 11.93,7.39c5.16,4.56 10.39,11.39 14.14,21.58c3.2,8.74 5.3,19.96 5.3,34.32Z" style="fill:#efd0ad;fill-rule:nonzero;"/><path d="M166.13,218.49l0,0.05c-1.53,2.37 -6.67,9.16 -16.85,9.16l-0.1,0c-9.63,-0.05 -15.26,-7.04 -16.7,-9.11c0.3,-2.07 0.6,-4.24 0.84,-6.5c0.1,-1.33 0.25,-2.71 0.4,-4.14c4.69,1.18 9.83,1.92 15.27,2.02l0.19,0c5.639,-0.1 10.83,-0.89 15.67,-2.17c0.15,1.33 0.29,2.71 0.39,4.04c0.25,2.37 0.55,4.58 0.89,6.65Z" style="fill:#be987f;fill-rule:nonzero;"/><path d="M148.49,59.015c-64.334,0 -64.679,53.945 -61.814,89.275c-4.398,-8.38 -17.492,-5.82 -16.405,7.39c1.038,12.71 19.745,19.19 19.222,17.78c9.743,26.13 35.527,45.82 58.997,45.82l0.5,0l0,-160.265l-0.5,0Z" style="fill:#d2a686;fill-rule:nonzero;"/><path d="M74.373,150.11c3.162,-5.12 8.103,-2.91 9.289,-1.77c1.285,1.23 2.322,2.8 1.532,5.81c-0.445,1.72 -2.224,1.87 -1.828,4.43c0.494,2.91 1.828,3.06 2.618,3.75c0.742,0.64 1.681,1.13 2.125,2.36c0.495,1.23 0.544,2.51 0.297,3.65c-0.495,2.07 -3.509,0.39 -5.534,-0.49c-1.335,-0.65 -5.584,-4.24 -6.671,-5.42c-2.669,-3.06 -3.953,-8.97 -1.828,-12.32Z" style="fill:#ac8774;fill-rule:nonzero;"/><path d="M148.839,59.015c64.331,0 64.681,53.945 61.861,89.275c4.4,-8.38 17.45,-5.82 16.36,7.39c-0.99,12.71 -19.73,19.19 -19.22,17.78c-9.49,26.13 -35.53,45.82 -59.001,45.82c-0.15,0 -0.349,0 -0.349,0l-0.151,-160.265c0,0 0.35,0 0.5,0Z" style="fill:#ddb598;fill-rule:nonzero;"/><path d="M222.96,150.11c-3.16,-5.12 -8.06,-2.91 -9.29,-1.77c-1.29,1.23 -2.27,2.8 -1.53,5.81c0.44,1.72 2.22,1.87 1.82,4.43c-0.49,2.91 -1.82,3.06 -2.56,3.75c-0.75,0.64 -1.73,1.13 -2.18,2.36c-0.44,1.23 -0.54,2.51 -0.3,3.65c0.5,2.07 3.51,0.39 5.54,-0.49c1.38,-0.65 5.58,-4.24 6.67,-5.42c2.72,-3.06 3.95,-8.97 1.83,-12.32Z" style="fill:#ac8774;fill-rule:nonzero;"/><path d="M147.99,74.239c-21.15,0 -36.67,6.158 -46.008,18.278c-13.094,16.993 -12.6,42.913 -7.807,61.533c1.483,5.72 2.273,21.04 3.261,26.65c4.596,25.18 32.314,38.58 50.554,38.58c0,0 0.339,0 0.49,0l0,-145.041c-0.151,0 -0.3,0 -0.3,0" style="fill:#e0bd9a;fill-rule:nonzero;"/><path d="M193.94,92.566c-9.29,-12.07 -24.61,-18.229 -45.46,-18.327l0,145.041c20.85,-0.25 45.81,-14.93 50.06,-38.58c1.03,-5.61 1.77,-20.93 3.26,-26.65c4.84,-18.57 5.33,-44.44 -7.86,-61.484Z" style="fill:#efd0ad;fill-rule:nonzero;"/><path d="M148.67,190.83" style="fill:#bc917b;fill-rule:nonzero;"/><path d="M148.67,190.83" style="fill:#bc917b;fill-rule:nonzero;"/><path d="M145.11,193.57c-0.11,-0.02 -0.21,-0.04 -0.31,-0.07c0.1,0.03 0.19,0.04 0.31,0.07Z" style="fill:#bc917b;fill-rule:nonzero;"/><path d="M148.67,193.38" style="fill:#bc917b;fill-rule:nonzero;"/><path d="M144.319,193.39c-0.089,-0.02 -0.179,-0.05 -0.269,-0.07l-0.01,0c0,0 0.11,0.03 0.279,0.07Z" style="fill:#bc917b;fill-rule:nonzero;"/><path d="M148.67,193.38" style="fill:#bc917b;fill-rule:nonzero;"/><path d="M136.199,174.75c-0.24,-5.01 9.181,-1.83 12.291,-1.67c2.449,0.12 9.92,-1.58 10.56,-1.14c4.4,2.97 -4.65,8.95 -10.721,8.95c-1.609,0 -11.979,-3.11 -12.13,-6.14Z" style="fill:#ddb598;fill-rule:nonzero;"/><path d="M130.52,74.601l-0.27,0.268l0.05,0.089c0.08,-0.134 0.13,-0.268 0.22,-0.357Z" style="fill:#432e1b;fill-rule:nonzero;"/><path d="M89.555,125.71" style="fill:#432e1b;fill-rule:nonzero;"/><path d="M148.949,193.39" style="fill:#ba907b;fill-rule:nonzero;"/><path d="M148.949,193.39" style="fill:#ba907b;fill-rule:nonzero;"/><path d="M145.28,190.63c-0.1,-0.03 -0.211,-0.05 -0.31,-0.07c0.099,0.02 0.19,0.04 0.31,0.07Z" style="fill:#ba907b;fill-rule:nonzero;"/><path d="M148.949,190.43" style="fill:#ba907b;fill-rule:nonzero;"/><path d="M144.47,190.45c-0.09,-0.03 -0.18,-0.06 -0.271,-0.08l-0.01,0c0,0 0.101,0.03 0.281,0.08Z" style="fill:#ba907b;fill-rule:nonzero;"/><path d="M148.949,190.43" style="fill:#ba907b;fill-rule:nonzero;"/><path d="M102.327,130.85c0,0 4.908,20.2 13.333,21.85c8.43,1.64 17.55,-1.63 17.55,-1.63c0,0 0.87,-23.74 -3.44,-26.84c-4.32,-3.12 -14.25,-7.62 -27.443,6.62Z" style="fill:#fff;fill-rule:nonzero;"/><path d="M133.22,151c0,0 -0.19,0.06 -0.63,0.24c-0.1,-7.28 -0.78,-17.28 -3.47,-19.2c-4.01,-2.94 -13.05,-7.08 -25.137,4.25c-1.099,-3.13 -1.65,-5.5 -1.65,-5.5c13.217,-14.27 23.157,-9.77 27.437,-6.66c4.32,3.12 3.45,26.87 3.45,26.87Z" style="fill:#d6b496;fill-rule:nonzero;"/><path d="M128.23,140.72c0,4.59 -3.71,8.32 -8.29,8.32c-4.58,0 -8.3,-3.73 -8.3,-8.32c0,-4.6 3.72,-8.32 8.3,-8.32c4.58,0 8.29,3.72 8.29,8.32Z" style="fill:#482315;fill-rule:nonzero;"/><path d="M119.55,146.26c-2.39,-0.2 -4.23,-2.62 -4.01,-5.29c0.21,-2.66 2.42,-4.75 4.82,-4.55c2.39,0.2 4.23,2.62 4.01,5.29c-0.21,2.66 -2.42,4.75 -4.82,4.55Z" style="fill:#7e3a22;fill-rule:nonzero;"/><path d="M119.76,145.3c-1.67,-0.14 -3.4,-1.98 -3.21,-4.24c0.18,-2.27 2.18,-3.8 3.85,-3.66c1.67,0.14 3.39,1.99 3.21,4.25c-0.18,2.26 -2.19,3.79 -3.85,3.65Z" style="fill:#211a10;fill-rule:nonzero;"/><path d="M118.41,139.72c-0.07,0.82 -0.91,1.42 -1.86,1.34c-0.96,-0.08 -1.69,-0.81 -1.62,-1.63c0.07,-0.82 0.9,-1.41 1.86,-1.33c0.96,0.07 1.68,0.8 1.62,1.62Z" style="fill:#fff;fill-rule:nonzero;"/><path d="M123.79,144.45c-0.04,0.4 -0.46,0.7 -0.93,0.66c-0.49,-0.03 -0.85,-0.4 -0.82,-0.81c0.04,-0.4 0.46,-0.7 0.93,-0.66c0.49,0.03 0.85,0.4 0.82,0.81Z" style="fill:#fff;fill-rule:nonzero;"/><path d="M149.079,190.34" style="fill:#ba907b;fill-rule:nonzero;"/><path d="M149.079,190.34" style="fill:#ba907b;fill-rule:nonzero;"/><path d="M145.41,193.01c-0.1,-0.02 -0.201,-0.04 -0.31,-0.07c0.099,0.02 0.19,0.04 0.31,0.07Z" style="fill:#ba907b;fill-rule:nonzero;"/><path d="M149.079,192.81" style="fill:#ba907b;fill-rule:nonzero;"/><path d="M144.61,192.83c-0.1,-0.03 -0.19,-0.05 -0.281,-0.08l-0.01,0c0,0 0.111,0.03 0.291,0.08Z" style="fill:#ba907b;fill-rule:nonzero;"/><path d="M149.079,192.81" style="fill:#ba907b;fill-rule:nonzero;"/><path d="M148.959,189.97" style="fill:#bc917b;fill-rule:nonzero;"/><path d="M148.959,189.97" style="fill:#bc917b;fill-rule:nonzero;"/><path d="M145.04,192.44c-0.12,-0.03 -0.23,-0.05 -0.341,-0.07c0.111,0.02 0.211,0.04 0.341,0.07Z" style="fill:#bc917b;fill-rule:nonzero;"/><path d="M148.959,192.23" style="fill:#bc917b;fill-rule:nonzero;"/><path d="M144.17,192.24c-0.101,-0.02 -0.19,-0.05 -0.29,-0.08l-0.02,0.01c0,0 0.12,0.03 0.31,0.07Z" style="fill:#bc917b;fill-rule:nonzero;"/><path d="M148.959,192.23" style="fill:#bc917b;fill-rule:nonzero;"/><path d="M148.72,189.13" style="fill:#bc917b;fill-rule:nonzero;"/><path d="M148.72,189.13" style="fill:#bc917b;fill-rule:nonzero;"/><path d="M144.79,191.59c-0.11,-0.02 -0.221,-0.04 -0.341,-0.07c0.111,0.03 0.211,0.05 0.341,0.07Z" style="fill:#bc917b;fill-rule:nonzero;"/><path d="M148.72,191.38" style="fill:#bc917b;fill-rule:nonzero;"/><path d="M143.92,191.4c-0.101,-0.03 -0.19,-0.06 -0.29,-0.08l-0.01,0c0,0 0.11,0.03 0.3,0.08Z" style="fill:#bc917b;fill-rule:nonzero;"/><path d="M148.72,191.38" style="fill:#bc917b;fill-rule:nonzero;"/><path d="M149.36,188.91" style="fill:#bc917b;fill-rule:nonzero;"/><path d="M149.35,188.91l0.01,0l-0.01,0Z" style="fill:#bc917b;fill-rule:nonzero;"/><path d="M145.56,191.48c-0.111,-0.03 -0.221,-0.05 -0.32,-0.07c0.099,0.02 0.19,0.04 0.32,0.07Z" style="fill:#bc917b;fill-rule:nonzero;"/><path d="M149.36,191.27" style="fill:#bc917b;fill-rule:nonzero;"/><path d="M144.72,191.29c-0.1,-0.02 -0.19,-0.05 -0.281,-0.08l-0.009,0c0,0 0.11,0.04 0.29,0.08Z" style="fill:#bc917b;fill-rule:nonzero;"/><path d="M149.35,191.27l0.01,0l-0.01,0Z" style="fill:#bc917b;fill-rule:nonzero;"/><path d="M195.14,130.16c0,0 -4.91,20.2 -13.34,21.85c-8.42,1.65 -17.54,-1.63 -17.54,-1.63c0,0 -0.88,-23.74 3.44,-26.84c4.31,-3.11 14.25,-7.62 27.44,6.62Z" style="fill:#fff;fill-rule:nonzero;"/><path d="M164.24,150.32c0,0 0.2,0.05 0.63,0.23c0.11,-7.28 0.78,-17.28 3.47,-19.19c4.01,-2.94 13.06,-7.09 25.14,4.24c1.1,-3.13 1.65,-5.5 1.65,-5.5c-13.21,-14.27 -23.16,-9.77 -27.44,-6.65c-4.32,3.11 -3.45,26.87 -3.45,26.87Z" style="fill:#d6b496;fill-rule:nonzero;"/><path d="M169.23,140.03c0,4.6 3.72,8.32 8.3,8.32c4.58,0 8.29,-3.72 8.29,-8.32c0,-4.59 -3.71,-8.32 -8.29,-8.32c-4.58,0 -8.3,3.73 -8.3,8.32Z" style="fill:#482315;fill-rule:nonzero;"/><path d="M177.91,145.57c2.4,-0.2 4.24,-2.62 4.02,-5.29c-0.22,-2.66 -2.42,-4.75 -4.82,-4.55c-2.4,0.2 -4.23,2.62 -4.02,5.29c0.22,2.66 2.43,4.75 4.82,4.55Z" style="fill:#7e3a22;fill-rule:nonzero;"/><path d="M177.71,144.61c1.66,-0.14 3.39,-1.98 3.21,-4.24c-0.19,-2.26 -2.19,-3.79 -3.86,-3.66c-1.66,0.15 -3.39,1.99 -3.21,4.25c0.19,2.26 2.19,3.79 3.86,3.65Z" style="fill:#211a10;fill-rule:nonzero;"/><path d="M179.06,139.04c0.07,0.81 0.9,1.41 1.86,1.33c0.96,-0.08 1.68,-0.81 1.62,-1.62c-0.07,-0.82 -0.9,-1.42 -1.86,-1.34c-0.96,0.08 -1.69,0.81 -1.62,1.63Z" style="fill:#fff;fill-rule:nonzero;"/><path d="M173.68,143.76c0.03,0.41 0.45,0.71 0.93,0.67c0.48,-0.04 0.84,-0.41 0.81,-0.82c-0.03,-0.4 -0.45,-0.7 -0.93,-0.66c-0.48,0.04 -0.84,0.4 -0.81,0.81Z" style="fill:#fff;fill-rule:nonzero;"/><path d="M138.27,130.53c-0.061,-0.1 -1.59,-2.43 -4.72,-4.84c-1.96,-1.51 -3.88,-2.65 -5.87,-3.51c-2.42,-1.02 -5.03,-1.74 -7.55,-2.08c-2.28,-0.26 -4.82,-0.19 -7.77,0.21c-2.253,0.43 -4.452,1.1 -6.318,1.93c-1.331,0.46 -2.382,1.1 -3.227,1.62c-0.323,0.2 -0.616,0.38 -0.913,0.54l-4.025,2.54l4.638,-1.09c0.217,-0.06 0.451,-0.12 0.702,-0.19c0.959,-0.25 2.154,-0.57 3.554,-0.78c0.328,-0.04 0.661,-0.11 1.002,-0.18c0.583,-0.12 1.186,-0.24 1.819,-0.27c0.702,-0.04 1.428,-0.1 2.178,-0.15l0.98,-0.07c2.57,-0.03 4.73,0.16 6.66,0.61c2.11,0.36 4.28,1.04 6.26,1.97c1.88,0.9 3.67,1.79 5.08,2.82c2.83,1.9 4.41,3.48 4.42,3.5c0.39,0.39 0.909,0.59 1.44,0.59c0.38,0 0.76,-0.1 1.089,-0.32c0.941,-0.62 1.201,-1.88 0.601,-2.79l-0.03,-0.06Z" style="fill:#030405;fill-rule:nonzero;"/><path d="M195.97,124.38c-0.27,-0.14 -0.56,-0.32 -0.89,-0.52c-0.84,-0.52 -1.89,-1.16 -3.18,-1.61c-1.91,-0.84 -4.11,-1.51 -6.39,-1.95c-2.93,-0.39 -5.46,-0.46 -7.75,-0.2c-2.51,0.34 -5.12,1.06 -7.55,2.08c-1.96,0.85 -3.93,2.03 -5.86,3.51c-3.07,2.36 -4.6,4.65 -4.71,4.83l-0.03,0.04c-0.52,0.8 -0.41,1.87 0.26,2.55c0.38,0.38 0.89,0.6 1.43,0.6c0.54,-0.01 1.05,-0.22 1.43,-0.6l0.01,-0.02c0.15,-0.15 1.68,-1.65 4.43,-3.49c1.38,-1.02 3.18,-1.91 5.05,-2.81c1.99,-0.93 4.16,-1.61 6.29,-1.98c1.9,-0.44 4.08,-0.63 6.61,-0.6l1.03,0.07c0.74,0.05 1.46,0.11 2.17,0.15c0.62,0.03 1.22,0.15 1.81,0.27c0.34,0.07 0.67,0.14 1,0.18c1.4,0.21 2.59,0.53 3.55,0.78c0.25,0.07 0.49,0.13 0.71,0.19l4.64,1.09l-4.06,-2.56Z" style="fill:#030405;fill-rule:nonzero;"/><path d="M147.79,198.29" style="fill:#be927b;fill-rule:nonzero;"/><path d="M147.79,198.29" style="fill:#be927b;fill-rule:nonzero;"/><path d="M143.959,195.4c-0.109,-0.02 -0.219,-0.04 -0.329,-0.07c0.11,0.02 0.199,0.04 0.329,0.07Z" style="fill:#be927b;fill-rule:nonzero;"/><path d="M147.79,195.19" style="fill:#be927b;fill-rule:nonzero;"/><path d="M143.11,195.21c-0.1,-0.02 -0.19,-0.05 -0.291,-0.08l-0.009,0c0,0 0.12,0.03 0.3,0.08Z" style="fill:#be927b;fill-rule:nonzero;"/><path d="M147.79,195.19" style="fill:#be927b;fill-rule:nonzero;"/><path d="M136.589,199.57c-0.239,-3.25 9.021,0.68 12.061,0.77c2.419,0.08 9.71,-0.48 10.39,-0.74c5.09,-1.91 -0.28,5.43 -10.54,5.82c-4.7,0.18 -11.77,-3.88 -11.911,-5.85Z" style="fill:#f0d2ad;fill-rule:nonzero;"/><path d="M166.74,193.31c-2.52,-0.13 -5.1,1.97 -8.12,1.65c-0.12,-0.06 -0.181,-0.06 -0.31,-0.06c-0.7,-0.12 -1.39,0 -2.14,0.19c-0.94,0.19 -1.89,0.58 -2.77,0.88c-1.52,0.5 -3.22,0.89 -4.97,0.76l0,0.01l-0.101,-0.01l-0.099,0.01l0,-0.01c-1.75,0.13 -3.45,-0.26 -4.96,-0.76c-0.89,-0.3 -1.831,-0.69 -2.77,-0.88c-0.76,-0.19 -1.45,-0.31 -2.14,-0.19c-0.13,0 -0.19,0 -0.32,0.06c-3.02,0.32 -5.6,-1.78 -8.11,-1.65c-0.7,0.06 -1.71,-0.13 -2.27,-0.13c0.12,0.06 0.25,0.13 0.38,0.19c7.159,3.5 13.35,10.07 20.19,9.86l0.2,0c6.85,0.21 13.03,-6.36 20.2,-9.86c0.12,-0.06 0.25,-0.13 0.38,-0.19c-0.57,0 -1.58,0.19 -2.27,0.13Z" style="fill:#dcbf9e;fill-rule:nonzero;"/><path d="M168.84,193.11c0,0 -7.28,-2.82 -12.46,-1.17c0,0 -1.931,0.76 -3.931,1.22c-1.219,0.47 -2.689,0.61 -4.12,0.55c-1.089,-0.04 -2.12,-0.18 -2.979,-0.33c-0.281,-0.04 -0.56,-0.1 -0.85,-0.16c-0.12,-0.03 -0.22,-0.05 -0.33,-0.07c-0.17,-0.04 -0.341,-0.08 -0.51,-0.12c-0.19,-0.05 -0.3,-0.08 -0.3,-0.08l0.01,0c-1.661,-0.45 -3.08,-1.01 -3.08,-1.01c-5.18,-1.65 -12.47,1.17 -12.47,1.17c-0.1,0.04 -0.16,0.07 -0.16,0.07c0.56,0 1.57,0.19 2.27,0.13c2.51,-0.13 5.09,1.97 8.11,1.65c0.13,-0.06 0.19,-0.06 0.32,-0.06c0.69,-0.12 1.38,0 2.14,0.19c0.939,0.19 1.88,0.58 2.77,0.88c1.51,0.5 3.21,0.89 4.96,0.76l0,0.01l0.099,-0.01l0.101,0.01l0,-0.01c1.75,0.13 3.45,-0.26 4.97,-0.76c0.88,-0.3 1.83,-0.69 2.77,-0.88c0.75,-0.19 1.44,-0.31 2.14,-0.19c0.129,0 0.19,0 0.31,0.06c3.02,0.32 5.6,-1.78 8.12,-1.65c0.69,0.06 1.7,-0.13 2.27,-0.13c0,0 -0.07,-0.03 -0.17,-0.07Z" style="fill:#c69f83;fill-rule:nonzero;"/><path d="M136.089,194.82c0.141,0.03 13.661,4.16 24.231,0.09l-1.22,-0.82l-14.29,0l-8.721,0.73Z" style="fill:#c69f83;fill-rule:nonzero;"/><path d="M151.339,287.55l-0.049,0l0.049,0Z" style="fill:#fff;fill-rule:nonzero;"/><path d="M211.64,299.38c0,0 -0.53,0.2 -1.44,0.59l-121.735,0c-1.008,-0.39 -1.502,-0.59 -1.502,-0.59c0,-14.36 2.119,-25.58 5.308,-34.32c3.786,-10.29 9.094,-17.16 14.3,-21.73c7.299,13.56 22.529,36.19 42.609,35.97c12.67,-0.15 27.26,-9.39 43.02,-35.82c5.16,4.56 10.39,11.39 14.14,21.58c3.2,8.74 5.3,19.96 5.3,34.32Z" style="fill:#511f25;fill-rule:nonzero;"/><path d="M192.2,243.48c-15.76,26.43 -30.35,35.67 -43.02,35.82c-20.08,0.22 -35.31,-22.41 -42.609,-35.97c5.429,-4.79 10.759,-7.05 14.089,-8.08l0.05,-0.02l14.91,17.18c3.579,4.11 8.56,6.17 13.56,6.17c5.019,0 10.02,-2.1 13.6,-6.3l14.67,-17.18c0.8,0.25 1.77,0.56 2.82,0.99c3.27,1.28 7.57,3.54 11.93,7.39Z" style="fill:#b74e6c;fill-rule:nonzero;"/><path d="M154.839,293.41l-4.239,6.56l-2.92,0l-4.241,-6.56l5.701,-8.37l0.04,0.06l5.659,8.31Z" style="fill:#b74e6c;fill-rule:nonzero;"/><path d="M174.12,293.41l-4.24,6.56l-2.9,0l-4.24,-6.56l5.7,-8.37l5.68,8.37Z" style="fill:#b74e6c;fill-rule:nonzero;"/><path d="M135.54,293.41l-4.24,6.56l-2.9,0l-4.24,-6.56l5.7,-8.37l5.68,8.37Z" style="fill:#b74e6c;fill-rule:nonzero;"/><path d="M116.26,293.41l-4.24,6.56l-2.919,0l-4.238,-6.56l5.697,-8.37l5.7,8.37Z" style="fill:#b74e6c;fill-rule:nonzero;"/><path d="M193.41,293.41l-4.23,6.56l-2.9,0l-4.24,-6.56l5.68,-8.37l5.69,8.37Z" style="fill:#b74e6c;fill-rule:nonzero;"/><path d="M234.95,111.3l-0.28,0.04c-0.46,-4.44 -1.56,-9.86 -3.99,-15.384c-0.82,-4.764 -2,-9.703 -3.66,-14.783c-10.75,-33.036 -25.96,-45.335 -44.55,-52.507c-9.58,-3.687 -22.85,-3.374 -33.48,-2.207c-10.64,-1.167 -23.91,-1.48 -33.48,2.207c-18.594,7.172 -33.811,19.471 -44.562,52.507c-1.652,5.08 -2.835,10.019 -3.655,14.783c-2.434,5.524 -3.534,10.944 -3.986,15.384l-0.281,-0.04c0,0 -9.364,51.96 -35.746,62.34c0,0 14.07,3.61 27.965,-10.9c5.099,-5.33 13.773,-3.39 16.059,3.72l0.066,0.21c1.713,5.35 3.038,11.65 4.057,18.41c0.333,-2.68 0.724,-5.31 1.216,-7.83c0.13,-0.68 0.27,-1.37 0.411,-2.04c0.168,-0.78 0.359,-1.52 0.535,-2.28c1.651,3.55 3.478,6.9 5.408,10.02c0.122,0.43 0.236,0.86 0.368,1.27c1.226,4.14 2.931,7.99 4.403,11.64c1.435,3.66 2.916,7.1 4.037,10.43c1.03,3.32 1.955,6.47 2.424,9.45c0.288,1.49 0.427,2.95 0.536,4.32c0.174,1.4 0.221,2.71 0.21,3.96c0.116,2.49 -0.123,4.68 -0.192,6.51c-0.418,3.64 -0.658,5.74 -0.658,5.74c0,0 0.215,-0.48 0.626,-1.39c0.375,-0.94 1.073,-2.25 1.692,-4.05c0.522,-1.79 1.373,-3.96 1.778,-6.56c0.555,-2.59 0.933,-5.58 0.859,-8.86c0.084,-4.37 -0.721,-9.22 -1.997,-14.18c6.84,7.27 12.286,11.26 12.286,11.26c0,0 -7.994,-9.76 -11.568,-19.49c-2.772,-7.56 -6.915,-20.53 -6.915,-39.63c0,-0.88 0.051,-1.78 0.124,-2.68c0.243,-1.03 0.456,-2.08 0.74,-3.1c1.875,-6.92 4.226,-13.37 6.254,-19.07c5.056,-10.18 10.954,-17.9 10.954,-17.9c0,0 -8.34,14.84 -9.979,31.15c-1.661,16.32 7.081,28.93 7.081,28.93c0,0 -1.747,-19.37 4.368,-34.79c3.072,-7.74 8.112,-14.5 16.382,-17.29l-0.02,0.03c-4.43,12.5 4.48,23 4.48,23c0,0 0.03,-3.13 0.91,-7.97c1.55,-8.44 5.69,-22.07 16.81,-33.314c11.11,11.244 15.26,24.874 16.8,33.314c0.88,4.84 0.92,7.97 0.92,7.97c0,0 8.91,-10.5 4.47,-23l-0.01,-0.03c8.26,2.79 13.3,9.55 16.38,17.29c6.11,15.42 4.36,34.79 4.36,34.79c0,0 8.75,-12.61 7.08,-28.93c-1.64,-16.31 -9.97,-31.15 -9.97,-31.15c0,0 5.89,7.72 10.95,17.9c2.03,5.7 4.38,12.15 6.25,19.07c0.29,1.02 0.5,2.07 0.74,3.1c0.08,0.9 0.13,1.8 0.13,2.68c0,19.1 -4.15,32.07 -6.92,39.63c-3.57,9.73 -11.57,19.49 -11.57,19.49c0,0 5.45,-3.99 12.29,-11.26c-1.28,4.96 -2.08,9.81 -2,14.18c-0.07,3.28 0.31,6.27 0.86,8.86c0.41,2.6 1.26,4.77 1.78,6.56c0.62,1.8 1.32,3.11 1.69,4.05c0.41,0.91 0.63,1.39 0.63,1.39c0,0 -0.24,-2.1 -0.66,-5.74c-0.07,-1.83 -0.31,-4.02 -0.19,-6.51c-0.01,-1.25 0.03,-2.56 0.21,-3.96c0.11,-1.37 0.25,-2.83 0.53,-4.32c0.47,-2.98 1.4,-6.13 2.43,-9.45c1.12,-3.33 2.6,-6.77 4.04,-10.43c1.47,-3.65 3.17,-7.5 4.4,-11.64c0.13,-0.41 0.24,-0.84 0.37,-1.27c1.93,-3.12 3.75,-6.47 5.4,-10.02c0.18,0.76 0.37,1.5 0.54,2.28c0.14,0.67 0.28,1.36 0.41,2.04c0.49,2.52 0.88,5.15 1.22,7.83c1.02,-6.76 2.34,-13.06 4.05,-18.41l0.07,-0.21c2.29,-7.11 10.96,-9.05 16.06,-3.72c13.89,14.51 27.96,10.9 27.96,10.9c-26.38,-10.38 -35.74,-62.34 -35.74,-62.34Z" style="fill:#faa830;fill-rule:nonzero;"/></g></svg>