<?xml version="1.0" encoding="UTF-8" standalone="no"?><!DOCTYPE svg PUBLIC "-//W3C//DTD SVG 1.1//EN" "http://www.w3.org/Graphics/SVG/1.1/DTD/svg11.dtd"><svg width="100%" height="100%" viewBox="0 0 297 300" version="1.1" xmlns="http://www.w3.org/2000/svg" xmlns:xlink="http://www.w3.org/1999/xlink" xml:space="preserve" style="fill-rule:evenodd;clip-rule:evenodd;stroke-linejoin:round;stroke-miterlimit:1.41421;"><g id="_29"><path d="M160.756,207.99c0,0 0.321,7.37 -1.36,7.61c-1.2,-4 -1.84,-8.85 -4.082,-11.05c-3.523,4.08 -6.803,6.6 -6.803,6.6c0,0 -3.122,-2.59 -6.405,-6.68c-2.479,2.32 -4.643,5.77 -6.003,10.17c-0.32,-0.24 -1.2,-5.13 -1.2,-5.13c0,0 -5.762,7.09 -6.882,11.85c-1.122,4.72 2.881,9.76 2.881,9.76c0,0 1.922,-0.95 3.763,-2.56c1.679,11.85 13.203,21.21 13.203,21.21c0,0 11.688,-8.72 14.007,-20.33c1.423,1 2.705,1.61 2.705,1.61c0,0 4.241,-5.05 2.881,-9.77c-2.323,-8.24 -6.705,-13.29 -6.705,-13.29Z" style="fill:#e6a52f;fill-rule:nonzero;"/><rect x="0.076" y="0.275" width="296.866" height="299.705" style="fill:#d87542;fill-rule:nonzero;"/><path d="M149.473,186.9l0,112.27l-60.728,0c-0.989,-0.39 -1.482,-0.59 -1.482,-0.59c0,-14.33 2.102,-25.5 5.305,-34.22c7.73,-21.03 21.882,-27.71 28.396,-29.72c2.138,-0.66 3.455,-0.82 3.455,-0.82c0.231,0 0.446,-0.02 0.666,-0.06c1.912,-0.31 3.465,-1.97 4.711,-4.62c0.927,-1.96 1.701,-4.48 2.332,-7.38c0.251,-1.13 0.445,-2.28 0.646,-3.51c0.297,-2.08 0.589,-4.25 0.84,-6.53c0.097,-1.38 0.246,-2.71 0.395,-4.15c0.538,-6.87 0.692,-14.39 0.692,-21.51c0,0 8.154,0.84 14.772,0.84Z" style="fill:#e0bd9a;fill-rule:nonzero;"/><path d="M211.933,298.58c0,0 -0.543,0.2 -1.435,0.59l-61.025,0l0,-112.27l0.148,0c6.571,0 14.828,-0.84 14.828,-0.84c0,7.07 0.144,14.49 0.687,21.36c0.149,1.34 0.298,2.72 0.395,4.06c0.251,2.37 0.549,4.59 0.892,6.67l0,0.05c0.098,0.94 0.292,1.78 0.446,2.67c0.6,2.92 1.327,5.49 2.204,7.55c1.092,2.56 2.419,4.35 4.029,5.06c0.512,0.23 1.055,0.34 1.624,0.34c0,0 2.338,0.28 5.838,1.65c7.151,2.8 19.16,10.15 26.059,28.89c3.203,8.72 5.31,19.89 5.31,34.22Z" style="fill:#efd0ad;fill-rule:nonzero;"/><path d="M166.423,217.94l0,0.05c-1.532,2.36 -6.671,9.13 -16.85,9.13l-0.099,0c-9.635,-0.04 -15.269,-7.02 -16.702,-9.08c0.297,-2.06 0.593,-4.23 0.841,-6.48c0.098,-1.33 0.246,-2.71 0.395,-4.13c4.694,1.18 9.833,1.92 15.269,2.01l0.197,0c5.633,-0.09 10.822,-0.88 15.664,-2.16c0.148,1.33 0.297,2.7 0.395,4.03c0.248,2.36 0.544,4.57 0.89,6.63Z" style="fill:#be987f;fill-rule:nonzero;"/><path d="M148.782,58.961c-64.336,0 -64.682,53.779 -61.816,88.989c-4.398,-8.35 -17.492,-5.79 -16.405,7.37c1.038,12.67 19.745,19.13 19.222,17.73c9.742,26.04 35.528,45.68 58.999,45.68l0.495,0l0,-159.769l-0.495,0Z" style="fill:#d2a686;fill-rule:nonzero;"/><path d="M74.663,149.77c3.162,-5.11 8.103,-2.9 9.289,-1.77c1.285,1.23 2.322,2.8 1.532,5.8c-0.445,1.72 -2.224,1.86 -1.828,4.42c0.494,2.9 1.828,3.04 2.618,3.73c0.742,0.64 1.681,1.13 2.125,2.36c0.495,1.23 0.544,2.5 0.297,3.63c-0.495,2.07 -3.508,0.4 -5.534,-0.49c-1.335,-0.64 -5.584,-4.22 -6.671,-5.4c-2.668,-3.05 -3.953,-8.94 -1.828,-12.28Z" style="fill:#ac8774;fill-rule:nonzero;"/><path d="M149.128,58.961c64.336,0 64.682,53.779 61.865,88.989c4.398,-8.35 17.444,-5.79 16.356,7.37c-0.988,12.67 -19.733,19.13 -19.221,17.73c-9.491,26.04 -35.528,45.68 -59,45.68c-0.148,0 -0.346,0 -0.346,0l-0.148,-159.769c0,0 0.346,0 0.494,0Z" style="fill:#ddb598;fill-rule:nonzero;"/><path d="M223.248,149.77c-3.162,-5.11 -8.054,-2.9 -9.29,-1.77c-1.284,1.23 -2.272,2.8 -1.531,5.8c0.444,1.72 2.223,1.86 1.828,4.42c-0.494,2.9 -1.828,3.04 -2.569,3.73c-0.742,0.64 -1.73,1.13 -2.175,2.36c-0.445,1.23 -0.543,2.5 -0.296,3.63c0.494,2.07 3.508,0.4 5.534,-0.49c1.384,-0.64 5.584,-4.22 6.671,-5.4c2.717,-3.05 3.953,-8.94 1.828,-12.28Z" style="fill:#ac8774;fill-rule:nonzero;"/><path d="M148.276,74.137c-21.149,0 -36.665,6.139 -46.003,18.221c-13.095,16.942 -12.601,42.782 -7.808,61.342c1.483,5.7 2.273,20.97 3.261,26.57c4.596,25.1 32.317,38.46 50.55,38.46c0,0 0.346,0 0.494,0l0,-144.593c-0.148,0 -0.296,0 -0.296,0l-0.198,0Z" style="fill:#e0bd9a;fill-rule:nonzero;"/><path d="M194.23,92.407c-9.289,-12.033 -24.607,-18.172 -45.46,-18.27l0,144.593c20.853,-0.25 45.806,-14.89 50.056,-38.46c1.037,-5.6 1.779,-20.87 3.262,-26.57c4.842,-18.52 5.336,-44.3 -7.858,-61.293Z" style="fill:#efd0ad;fill-rule:nonzero;"/><path d="M148.964,190.37" style="fill:#bc917b;fill-rule:nonzero;"/><path d="M148.963,190.37l0.001,0l-0.001,0Z" style="fill:#bc917b;fill-rule:nonzero;"/><path d="M145.396,193.09c-0.102,-0.02 -0.202,-0.04 -0.303,-0.06c0.099,0.02 0.186,0.04 0.303,0.06Z" style="fill:#bc917b;fill-rule:nonzero;"/><path d="M148.964,192.9" style="fill:#bc917b;fill-rule:nonzero;"/><path d="M144.611,192.92c-0.094,-0.02 -0.178,-0.05 -0.27,-0.08l-0.01,0.01c0,0 0.104,0.03 0.28,0.07Z" style="fill:#bc917b;fill-rule:nonzero;"/><path d="M148.963,192.9l0.001,0l-0.001,0Z" style="fill:#bc917b;fill-rule:nonzero;"/><path d="M136.495,174.34c-0.245,-5 9.178,-1.83 12.284,-1.67c2.455,0.12 9.923,-1.58 10.564,-1.14c4.394,2.96 -4.654,8.93 -10.72,8.93c-1.616,0 -11.982,-3.11 -12.128,-6.12Z" style="fill:#ddb598;fill-rule:nonzero;"/><path d="M130.809,74.498l-0.268,0.267l0.045,0.089c0.089,-0.134 0.133,-0.267 0.223,-0.356Z" style="fill:#432e1b;fill-rule:nonzero;"/><path d="M89.845,125.45" style="fill:#432e1b;fill-rule:nonzero;"/><path d="M149.236,192.92" style="fill:#ba907b;fill-rule:nonzero;"/><path d="M149.235,192.92l0.001,0l-0.001,0Z" style="fill:#ba907b;fill-rule:nonzero;"/><path d="M145.571,190.16c-0.104,-0.02 -0.207,-0.04 -0.311,-0.06c0.102,0.02 0.192,0.04 0.311,0.06Z" style="fill:#ba907b;fill-rule:nonzero;"/><path d="M149.236,189.96" style="fill:#ba907b;fill-rule:nonzero;"/><path d="M144.765,189.98c-0.096,-0.02 -0.182,-0.05 -0.277,-0.08l-0.01,0.01c0,0 0.107,0.03 0.287,0.07Z" style="fill:#ba907b;fill-rule:nonzero;"/><path d="M149.235,189.96l0.001,0l-0.001,0Z" style="fill:#ba907b;fill-rule:nonzero;"/><path d="M102.617,130.57c0,0 4.908,20.14 13.335,21.78c8.426,1.64 17.547,-1.62 17.547,-1.62c0,0 0.872,-23.67 -3.443,-26.76c-4.311,-3.11 -14.25,-7.59 -27.439,6.6Z" style="fill:#fff;fill-rule:nonzero;"/><path d="M133.51,150.66c0,0 -0.193,0.06 -0.627,0.24c-0.107,-7.26 -0.778,-17.23 -3.472,-19.14c-4.007,-2.93 -13.052,-7.06 -25.138,4.23c-1.099,-3.12 -1.65,-5.48 -1.65,-5.48c13.213,-14.22 23.16,-9.74 27.439,-6.63c4.319,3.1 3.448,26.78 3.448,26.78Z" style="fill:#d6b496;fill-rule:nonzero;"/><path d="M128.52,140.41c0,4.58 -3.713,8.29 -8.293,8.29c-4.58,0 -8.294,-3.71 -8.294,-8.29c0,-4.58 3.714,-8.29 8.294,-8.29c4.58,0 8.293,3.71 8.293,8.29Z" style="fill:#482315;fill-rule:nonzero;"/><path d="M119.841,145.93c-2.394,-0.19 -4.234,-2.61 -4.015,-5.27c0.214,-2.66 2.423,-4.73 4.819,-4.53c2.395,0.19 4.231,2.61 4.019,5.26c-0.218,2.66 -2.428,4.74 -4.823,4.54Z" style="fill:#7e3a22;fill-rule:nonzero;"/><path d="M120.049,144.98c-1.668,-0.15 -3.397,-1.98 -3.213,-4.23c0.187,-2.26 2.188,-3.78 3.856,-3.65c1.667,0.14 3.393,1.98 3.209,4.24c-0.184,2.25 -2.189,3.77 -3.852,3.64Z" style="fill:#211a10;fill-rule:nonzero;"/><path d="M118.699,139.42c-0.07,0.81 -0.906,1.41 -1.863,1.33c-0.96,-0.08 -1.683,-0.81 -1.619,-1.62c0.07,-0.82 0.9,-1.41 1.859,-1.34c0.963,0.08 1.687,0.81 1.623,1.63Z" style="fill:#fff;fill-rule:nonzero;"/><path d="M124.075,144.13c-0.035,0.4 -0.452,0.7 -0.929,0.66c-0.482,-0.04 -0.842,-0.4 -0.811,-0.81c0.034,-0.4 0.452,-0.7 0.929,-0.66c0.482,0.04 0.846,0.4 0.811,0.81Z" style="fill:#fff;fill-rule:nonzero;"/><path d="M149.368,189.88" style="fill:#ba907b;fill-rule:nonzero;"/><path d="M149.367,189.88l0.001,0l-0.001,0Z" style="fill:#ba907b;fill-rule:nonzero;"/><path d="M145.703,192.54c-0.104,-0.03 -0.207,-0.05 -0.311,-0.07c0.102,0.02 0.191,0.04 0.311,0.07Z" style="fill:#ba907b;fill-rule:nonzero;"/><path d="M149.368,192.34" style="fill:#ba907b;fill-rule:nonzero;"/><path d="M144.897,192.36c-0.096,-0.03 -0.183,-0.06 -0.277,-0.08l-0.01,0c0,0 0.107,0.03 0.287,0.08Z" style="fill:#ba907b;fill-rule:nonzero;"/><path d="M149.367,192.34l0.001,0l-0.001,0Z" style="fill:#ba907b;fill-rule:nonzero;"/><path d="M149.254,189.51" style="fill:#bc917b;fill-rule:nonzero;"/><path d="M149.254,189.51" style="fill:#bc917b;fill-rule:nonzero;"/><path d="M145.326,191.97c-0.112,-0.03 -0.222,-0.05 -0.334,-0.07c0.11,0.02 0.206,0.04 0.334,0.07Z" style="fill:#bc917b;fill-rule:nonzero;"/><path d="M149.254,191.76" style="fill:#bc917b;fill-rule:nonzero;"/><path d="M144.462,191.77c-0.103,-0.02 -0.196,-0.05 -0.297,-0.08l-0.011,0.01c0,0 0.115,0.03 0.308,0.07Z" style="fill:#bc917b;fill-rule:nonzero;"/><path d="M149.254,191.76" style="fill:#bc917b;fill-rule:nonzero;"/><path d="M149.006,188.67" style="fill:#bc917b;fill-rule:nonzero;"/><path d="M149.006,188.67" style="fill:#bc917b;fill-rule:nonzero;"/><path d="M145.078,191.13c-0.112,-0.03 -0.223,-0.05 -0.334,-0.08c0.11,0.03 0.206,0.05 0.334,0.08Z" style="fill:#bc917b;fill-rule:nonzero;"/><path d="M149.006,190.91" style="fill:#bc917b;fill-rule:nonzero;"/><path d="M144.214,190.93c-0.103,-0.02 -0.196,-0.05 -0.297,-0.08l-0.011,0c0,0 0.115,0.04 0.308,0.08Z" style="fill:#bc917b;fill-rule:nonzero;"/><path d="M149.006,190.91" style="fill:#bc917b;fill-rule:nonzero;"/><path d="M149.646,188.45" style="fill:#bc917b;fill-rule:nonzero;"/><path d="M149.645,188.45l0.001,0l-0.001,0Z" style="fill:#bc917b;fill-rule:nonzero;"/><path d="M145.848,191.01c-0.108,-0.02 -0.215,-0.04 -0.322,-0.07c0.106,0.03 0.199,0.05 0.322,0.07Z" style="fill:#bc917b;fill-rule:nonzero;"/><path d="M149.646,190.81" style="fill:#bc917b;fill-rule:nonzero;"/><path d="M145.013,190.82c-0.099,-0.02 -0.189,-0.05 -0.287,-0.08l-0.01,0.01c0,0 0.111,0.03 0.297,0.07Z" style="fill:#bc917b;fill-rule:nonzero;"/><path d="M149.645,190.81l0.001,0l-0.001,0Z" style="fill:#bc917b;fill-rule:nonzero;"/><path d="M195.428,129.89c0,0 -4.908,20.13 -13.335,21.77c-8.427,1.65 -17.547,-1.62 -17.547,-1.62c0,0 -0.871,-23.66 3.443,-26.75c4.311,-3.11 14.251,-7.6 27.439,6.6Z" style="fill:#fff;fill-rule:nonzero;"/><path d="M164.535,149.98c0,0 0.193,0.05 0.626,0.24c0.108,-7.26 0.779,-17.23 3.473,-19.14c4.007,-2.94 13.053,-7.06 25.138,4.23c1.099,-3.12 1.65,-5.49 1.65,-5.49c-13.213,-14.22 -23.161,-9.74 -27.439,-6.63c-4.32,3.1 -3.448,26.79 -3.448,26.79Z" style="fill:#d6b496;fill-rule:nonzero;"/><path d="M169.524,139.73c0,4.58 3.713,8.29 8.294,8.29c4.581,0 8.294,-3.71 8.294,-8.29c0,-4.59 -3.713,-8.3 -8.294,-8.3c-4.581,0 -8.294,3.71 -8.294,8.3Z" style="fill:#482315;fill-rule:nonzero;"/><path d="M178.203,145.25c2.396,-0.2 4.235,-2.62 4.016,-5.27c-0.214,-2.66 -2.422,-4.74 -4.819,-4.54c-2.395,0.2 -4.231,2.61 -4.02,5.27c0.219,2.66 2.429,4.74 4.823,4.54Z" style="fill:#7e3a22;fill-rule:nonzero;"/><path d="M177.997,144.29c1.667,-0.14 3.396,-1.97 3.212,-4.22c-0.187,-2.26 -2.188,-3.79 -3.855,-3.65c-1.669,0.14 -3.394,1.98 -3.21,4.23c0.183,2.26 2.189,3.78 3.853,3.64Z" style="fill:#211a10;fill-rule:nonzero;"/><path d="M179.347,138.73c0.069,0.82 0.905,1.41 1.862,1.33c0.96,-0.08 1.684,-0.81 1.619,-1.62c-0.07,-0.81 -0.901,-1.41 -1.859,-1.33c-0.963,0.08 -1.687,0.8 -1.622,1.62Z" style="fill:#fff;fill-rule:nonzero;"/><path d="M173.969,143.44c0.036,0.41 0.453,0.71 0.93,0.67c0.482,-0.04 0.842,-0.41 0.811,-0.81c-0.034,-0.41 -0.452,-0.71 -0.929,-0.67c-0.482,0.04 -0.846,0.4 -0.812,0.81Z" style="fill:#fff;fill-rule:nonzero;"/><path d="M138.559,130.25c-0.063,-0.1 -1.592,-2.42 -4.719,-4.82c-1.959,-1.5 -3.878,-2.65 -5.869,-3.5c-2.42,-1.02 -5.027,-1.73 -7.551,-2.08c-2.284,-0.25 -4.815,-0.19 -7.769,0.21c-2.254,0.43 -4.452,1.1 -6.319,1.92c-1.331,0.46 -2.382,1.11 -3.227,1.62c-0.323,0.2 -0.616,0.38 -0.913,0.54l-4.025,2.53l4.638,-1.09c0.217,-0.05 0.45,-0.11 0.702,-0.18c0.959,-0.25 2.154,-0.57 3.554,-0.78c0.328,-0.04 0.661,-0.11 1.002,-0.18c0.583,-0.11 1.187,-0.23 1.819,-0.27c0.702,-0.04 1.431,-0.09 2.18,-0.15l0.974,-0.07c2.569,-0.03 4.739,0.16 6.667,0.61c2.107,0.36 4.272,1.04 6.258,1.96c1.876,0.9 3.673,1.79 5.076,2.82c2.834,1.89 4.41,3.47 4.426,3.48c0.389,0.39 0.909,0.6 1.433,0.6c0.381,0 0.763,-0.11 1.097,-0.33c0.933,-0.61 1.195,-1.87 0.602,-2.78l-0.036,-0.06Z" style="fill:#030405;fill-rule:nonzero;"/><path d="M196.256,124.12c-0.266,-0.14 -0.559,-0.32 -0.884,-0.52c-0.844,-0.51 -1.894,-1.16 -3.186,-1.6c-1.905,-0.84 -4.104,-1.51 -6.386,-1.94c-2.928,-0.4 -5.459,-0.46 -7.752,-0.21c-2.513,0.35 -5.12,1.06 -7.543,2.08c-1.963,0.84 -3.937,2.02 -5.866,3.5c-3.07,2.35 -4.597,4.64 -4.712,4.81l-0.028,0.04c-0.518,0.8 -0.407,1.87 0.263,2.54c0.381,0.39 0.889,0.6 1.428,0.6l0.001,0c0.539,0 1.045,-0.21 1.425,-0.6l0.017,-0.02c0.149,-0.14 1.68,-1.64 4.427,-3.47c1.382,-1.02 3.181,-1.91 5.05,-2.81c1.994,-0.92 4.16,-1.6 6.294,-1.97c1.9,-0.44 4.074,-0.63 6.61,-0.6l1.022,0.07c0.743,0.06 1.465,0.11 2.171,0.16c0.623,0.03 1.226,0.15 1.81,0.26c0.341,0.07 0.673,0.14 1,0.18c1.401,0.21 2.596,0.53 3.556,0.78c0.251,0.07 0.485,0.13 0.708,0.18l4.636,1.09l-4.061,-2.55Z" style="fill:#030405;fill-rule:nonzero;"/><path d="M148.078,197.81" style="fill:#be927b;fill-rule:nonzero;"/><path d="M148.078,197.81" style="fill:#be927b;fill-rule:nonzero;"/><path d="M144.246,194.92c-0.109,-0.02 -0.217,-0.04 -0.325,-0.07c0.107,0.02 0.2,0.04 0.325,0.07Z" style="fill:#be927b;fill-rule:nonzero;"/><path d="M148.078,194.71" style="fill:#be927b;fill-rule:nonzero;"/><path d="M143.404,194.73c-0.101,-0.02 -0.192,-0.05 -0.29,-0.08l-0.011,0.01c0,0 0.112,0.03 0.301,0.07Z" style="fill:#be927b;fill-rule:nonzero;"/><path d="M148.078,194.71" style="fill:#be927b;fill-rule:nonzero;"/><path d="M136.883,199.07c-0.244,-3.23 9.016,0.68 12.056,0.78c2.426,0.08 9.713,-0.48 10.386,-0.74c5.094,-1.91 -0.278,5.41 -10.536,5.8c-4.7,0.18 -11.767,-3.87 -11.906,-5.84Z" style="fill:#f0d2ad;fill-rule:nonzero;"/><path d="M167.028,192.83c-2.513,-0.12 -5.095,1.97 -8.118,1.65c-0.123,-0.06 -0.185,-0.06 -0.314,-0.06c-0.694,-0.12 -1.383,0 -2.138,0.19c-0.941,0.19 -1.888,0.58 -2.772,0.88c-1.512,0.5 -3.214,0.89 -4.966,0.75l0,0.02l-0.098,-0.02l-0.098,0.02l0,-0.02c-1.752,0.14 -3.455,-0.25 -4.966,-0.75c-0.885,-0.3 -1.832,-0.69 -2.772,-0.88c-0.756,-0.19 -1.444,-0.31 -2.139,-0.19c-0.129,0 -0.19,0 -0.314,0.06c-3.023,0.32 -5.604,-1.77 -8.118,-1.65c-0.695,0.06 -1.703,-0.12 -2.268,-0.12c0.123,0.06 0.252,0.12 0.381,0.18c7.166,3.5 13.349,10.04 20.196,9.83l0.196,0c6.846,0.21 13.03,-6.33 20.195,-9.83c0.129,-0.06 0.258,-0.12 0.382,-0.18c-0.566,0 -1.574,0.18 -2.269,0.12Z" style="fill:#dcbf9e;fill-rule:nonzero;"/><path d="M169.134,192.63c0,0 -7.286,-2.8 -12.469,-1.16c0,0 -1.929,0.76 -3.928,1.21c-1.216,0.48 -2.689,0.62 -4.115,0.56c-1.091,-0.05 -2.127,-0.18 -2.978,-0.33c-0.283,-0.05 -0.565,-0.1 -0.854,-0.16c-0.125,-0.03 -0.218,-0.05 -0.325,-0.07c-0.175,-0.05 -0.345,-0.08 -0.518,-0.12c-0.188,-0.05 -0.3,-0.08 -0.3,-0.08l0.011,0c-1.658,-0.45 -3.08,-1.01 -3.08,-1.01c-5.182,-1.64 -12.469,1.16 -12.469,1.16c-0.1,0.05 -0.162,0.08 -0.162,0.08c0.565,0 1.573,0.18 2.268,0.12c2.514,-0.12 5.095,1.97 8.118,1.65c0.124,-0.06 0.185,-0.06 0.314,-0.06c0.695,-0.12 1.383,0 2.139,0.19c0.94,0.19 1.887,0.58 2.772,0.88c1.511,0.5 3.214,0.89 4.966,0.75l0,0.02l0.098,-0.02l0.098,0.02l0,-0.02c1.752,0.14 3.454,-0.25 4.966,-0.75c0.884,-0.3 1.831,-0.69 2.772,-0.88c0.755,-0.19 1.444,-0.31 2.138,-0.19c0.129,0 0.191,0 0.314,0.06c3.023,0.32 5.605,-1.77 8.118,-1.65c0.695,0.06 1.703,-0.12 2.268,-0.12c0,0 -0.062,-0.03 -0.162,-0.08Z" style="fill:#c69f83;fill-rule:nonzero;"/><path d="M136.384,194.34c0.132,0.04 13.653,4.15 24.228,0.09l-1.218,-0.82l-14.294,0l-8.716,0.73Z" style="fill:#c69f83;fill-rule:nonzero;"/><path d="M211.915,299.97l-125.38,0c0,-3.47 0.144,-6.79 0.371,-9.93c0.349,-4.88 0.925,-9.35 1.707,-13.42c0.597,-3.15 1.317,-6.07 2.14,-8.76c3.868,-12.88 9.834,-21.05 15.719,-26.24l13.206,12.15c17.113,15.74 43.119,16.74 61.388,2.36l14.451,-11.38c6.275,6.5 10.205,14.63 12.653,22.61c0.967,3.15 1.687,6.26 2.243,9.26c0.926,4.98 1.358,9.61 1.543,13.42c0.288,6 -0.041,9.93 -0.041,9.93Z" style="fill:#d22727;fill-rule:nonzero;"/><path d="M90.753,267.86l50.057,32.11l-54.275,0c0,-3.47 0.144,-6.79 0.371,-9.93c0.349,-4.88 0.925,-9.35 1.707,-13.42c0.597,-3.15 1.317,-6.07 2.14,-8.76Z" style="fill:#faa830;fill-rule:nonzero;"/><path d="M211.915,299.97l-53.905,0l50.16,-32.61c0.967,3.15 1.687,6.26 2.243,9.26c0.926,4.98 1.358,9.61 1.543,13.42c0.288,6 -0.041,9.93 -0.041,9.93Z" style="fill:#faa830;fill-rule:nonzero;"/><path d="M210.594,72.891c-6.271,-16.83 -19.224,-23.94 -39.69,-34.149c-9.095,-4.529 -15.299,-5.624 -21.599,-4.91c-6.294,-0.714 -12.505,0.381 -21.598,4.91c-20.465,10.209 -37.548,17.373 -43.821,34.203c-6.271,16.83 -3.408,46.845 -3.408,51.935c0,5.1 0.564,14.24 1.378,16.28c0.833,2.04 4.898,3.59 6.999,9.72c2.073,6.12 2.891,5.07 2.891,5.07c0,0 -0.851,-6.11 -1.69,-13c0,0 13.84,-60.439 37.028,-44.166c4.338,4.926 10.729,8.456 18.132,9.586c1.335,0.2 2.704,0.31 4.089,0.35c1.39,-0.04 2.758,-0.15 4.091,-0.35c7.406,-1.13 13.798,-4.66 18.132,-9.586c23.191,-16.273 37.029,44.156 37.029,44.156c-0.834,6.9 -1.688,13.01 -1.688,13.01c0,0 0.818,1.05 2.892,-5.07c2.1,-6.13 6.162,-7.68 6.995,-9.72c0.814,-2.04 1.379,-11.18 1.379,-16.28c0,-5.09 -1.267,-35.159 -7.541,-51.989Z" style="fill:#36393a;fill-rule:nonzero;"/><path d="M95.449,155.24c-0.37,-0.92 -0.683,-1.86 -0.938,-2.82c-0.001,-0.01 -0.001,-0.01 -0.002,-0.01c-0.005,-0.02 -0.011,-0.04 -0.016,-0.06c-0.174,-0.67 -0.321,-1.34 -0.44,-2.02c-0.019,-0.12 -0.038,-0.23 -0.056,-0.34c-1.031,-6.41 -1.506,-17.4 6.287,-21.13c0.153,-0.07 0.316,-0.13 0.48,-0.19c0.648,-0.21 2.481,-0.77 5.114,-1.36c-1.061,0.94 -2.147,2.01 -3.255,3.2c0,0 0.004,0.01 0.011,0.04c-0.006,0.01 -0.011,0.01 -0.017,0.02c0,0 2.644,10.85 7.382,17.27c-5.756,2.15 -10.831,5.03 -14.388,7.3c-0.055,0.04 -0.108,0.07 -0.162,0.1Z" style="fill:#b5c7b1;fill-rule:nonzero;"/><path d="M109.999,147.84c-4.738,-6.42 -7.382,-17.27 -7.382,-17.27c0.006,-0.01 0.011,-0.01 0.017,-0.02c0.081,0.34 0.628,2.57 1.639,5.44c6.065,-5.66 11.363,-7.45 15.644,-7.45c4.25,0 7.498,1.76 9.494,3.22c2.08,1.48 2.954,7.76 3.294,13.88c-1.789,-0.47 -3.607,-0.74 -5.434,-0.85c0.792,-1.27 1.249,-2.77 1.249,-4.38c0,-4.58 -3.713,-8.29 -8.293,-8.29c-4.58,0 -8.294,3.71 -8.294,8.29c0,2.34 0.969,4.45 2.527,5.96c-1.522,0.43 -3.012,0.93 -4.461,1.47Z" style="fill:#bee4de;fill-rule:nonzero;"/><path d="M139.919,148.84c-0.09,-0.06 -0.179,-0.12 -0.269,-0.17c-1.955,-1.24 -3.99,-2.15 -6.068,-2.78c0.001,-4.28 -0.158,-10.61 -0.963,-15.44c1.833,1.36 2.832,2.36 2.844,2.37c0.389,0.39 0.909,0.6 1.433,0.6c0.381,0 0.763,-0.11 1.097,-0.33c0.933,-0.61 1.195,-1.87 0.602,-2.78l-0.036,-0.06c-0.027,-0.04 -0.319,-0.49 -0.887,-1.17c0.079,0.04 0.158,0.07 0.237,0.11c0,0 4.876,0.97 5.125,7.04c0.013,0.31 0,0.61 -0.038,0.91c-0.139,1.1 -0.606,4.22 -1.819,8.13c-0.353,1.14 -0.769,2.33 -1.258,3.57Z" style="fill:#b5c7b1;fill-rule:nonzero;"/><path d="M133.582,145.89c-0.292,-0.09 -0.584,-0.17 -0.877,-0.25c-0.34,-6.12 -1.214,-12.4 -3.294,-13.88c-1.996,-1.46 -5.244,-3.22 -9.494,-3.22c-4.281,0 -9.579,1.79 -15.644,7.45c-1.011,-2.87 -1.558,-5.1 -1.639,-5.44c-0.007,-0.03 -0.011,-0.04 -0.011,-0.04c1.108,-1.19 2.194,-2.26 3.255,-3.2c3.59,-0.79 8.669,-1.62 14.272,-1.62c1.381,0 2.794,0.05 4.225,0.16c0.538,0.21 1.068,0.43 1.586,0.67c1.876,0.9 3.673,1.79 5.076,2.82c0.581,0.39 1.11,0.76 1.582,1.11c0.805,4.83 0.964,11.16 0.963,15.44Z" style="fill:#b0c3af;fill-rule:nonzero;"/><path d="M114.46,146.37c-1.558,-1.51 -2.527,-3.62 -2.527,-5.96c0,-4.58 3.714,-8.29 8.294,-8.29c4.58,0 8.293,3.71 8.293,8.29c0,1.61 -0.457,3.11 -1.249,4.38c-0.609,-0.04 -1.219,-0.05 -1.829,-0.05l-0.049,0c-0.808,0 -1.616,0.03 -2.423,0.09c0.019,-0.02 0.038,-0.04 0.057,-0.05c0.039,0 0.078,0.01 0.119,0.01c0.029,0 0.058,0.01 0.086,0.01c0.44,0 0.81,-0.29 0.843,-0.67c0.015,-0.17 -0.039,-0.33 -0.142,-0.47c0.401,-0.66 0.663,-1.44 0.731,-2.27c0.212,-2.65 -1.624,-5.07 -4.019,-5.26c-0.107,-0.01 -0.214,-0.02 -0.32,-0.02c-1.29,0 -2.501,0.65 -3.343,1.68c-0.025,0 -0.05,0 -0.075,0c-0.885,0 -1.625,0.57 -1.69,1.34c-0.039,0.49 0.215,0.96 0.638,1.26c-0.012,0.09 -0.021,0.18 -0.029,0.27c-0.168,2.04 0.876,3.94 2.452,4.8c-1.288,0.25 -2.563,0.56 -3.818,0.91Z" style="fill:#717363;fill-rule:nonzero;"/><path d="M118.278,145.46c-1.576,-0.86 -2.62,-2.76 -2.452,-4.8c0.008,-0.09 0.017,-0.18 0.029,-0.27c0.269,0.2 0.607,0.33 0.981,0.36c-0.184,2.25 1.545,4.08 3.213,4.23c0.069,0 0.139,0 0.21,0c0.708,0 1.46,-0.28 2.096,-0.78c0.076,0.28 0.335,0.51 0.672,0.58c-0.019,0.01 -0.038,0.03 -0.057,0.05c-1.574,0.11 -3.142,0.33 -4.692,0.63Zm5.655,-1.8c-0.145,-0.19 -0.387,-0.32 -0.669,-0.34c-0.025,0 -0.051,-0.01 -0.076,-0.01c0.387,-0.55 0.652,-1.22 0.713,-1.97c0.184,-2.26 -1.542,-4.1 -3.209,-4.24c-0.069,0 -0.139,-0.01 -0.21,-0.01c-0.829,0 -1.717,0.39 -2.411,1.07c-0.272,-0.2 -0.615,-0.34 -0.995,-0.37c-0.032,0 -0.063,0 -0.094,0c0.842,-1.03 2.053,-1.68 3.343,-1.68c0.106,0 0.213,0.01 0.32,0.02c2.395,0.19 4.231,2.61 4.019,5.26c-0.068,0.83 -0.33,1.61 -0.731,2.27Z" style="fill:#8d836b;fill-rule:nonzero;"/><path d="M120.259,144.98c-0.071,0 -0.141,0 -0.21,0c-1.668,-0.15 -3.397,-1.98 -3.213,-4.23c0.057,0 0.113,0 0.169,0c0.885,0 1.628,-0.57 1.694,-1.33c0.039,-0.5 -0.211,-0.96 -0.628,-1.26c0.694,-0.68 1.582,-1.07 2.411,-1.07c0.071,0 0.141,0.01 0.21,0.01c1.667,0.14 3.393,1.98 3.209,4.24c-0.061,0.75 -0.326,1.42 -0.713,1.97c-0.004,0 -0.008,0 -0.011,0c-0.44,0 -0.81,0.29 -0.842,0.67c-0.006,0.08 0.002,0.15 0.02,0.22c-0.636,0.5 -1.388,0.78 -2.096,0.78Z" style="fill:#596d63;fill-rule:nonzero;"/><path d="M117.005,140.75c-0.056,0 -0.112,0 -0.169,0c-0.374,-0.03 -0.712,-0.16 -0.981,-0.36c-0.423,-0.3 -0.677,-0.77 -0.638,-1.26c0.065,-0.77 0.805,-1.34 1.69,-1.34l0.169,0c0.38,0.03 0.723,0.17 0.995,0.37c0.417,0.3 0.667,0.76 0.628,1.26c-0.066,0.76 -0.809,1.33 -1.694,1.33Z" style="fill:#bee4de;fill-rule:nonzero;"/><path d="M123.232,144.8c-0.028,0 -0.057,-0.01 -0.086,-0.01c-0.041,0 -0.08,-0.01 -0.119,-0.01c-0.337,-0.07 -0.596,-0.3 -0.672,-0.58c-0.018,-0.07 -0.026,-0.14 -0.02,-0.22c0.032,-0.38 0.402,-0.67 0.842,-0.67c0.003,0 0.007,0 0.011,0c0.025,0 0.051,0.01 0.076,0.01c0.282,0.02 0.524,0.15 0.669,0.34c0.103,0.14 0.157,0.3 0.142,0.47c-0.033,0.38 -0.403,0.67 -0.843,0.67Z" style="fill:#bee4de;fill-rule:nonzero;"/><path d="M136.896,133.42c-0.524,0 -1.044,-0.21 -1.433,-0.6c-0.012,-0.01 -1.011,-1.01 -2.844,-2.37c-0.472,-0.35 -1.001,-0.72 -1.582,-1.11c-1.403,-1.03 -3.2,-1.92 -5.076,-2.82c-0.518,-0.24 -1.048,-0.46 -1.586,-0.67c2.387,0.19 4.822,0.56 7.238,1.16c2.047,0.51 4.08,1.19 6.059,2.07c0.568,0.68 0.86,1.13 0.887,1.17l0.036,0.06c0.593,0.91 0.331,2.17 -0.602,2.78c-0.334,0.22 -0.716,0.33 -1.097,0.33Z" style="fill:#4b6560;fill-rule:nonzero;"/><path d="M114.455,168.91c-0.224,0 -0.45,-0.01 -0.677,-0.02c-4.633,-0.14 -9.832,-1.77 -14.231,-6.86c-0.382,-0.44 -0.745,-0.89 -1.091,-1.36c-0.003,0 -0.007,-0.01 -0.01,-0.01c-0.012,-0.02 -0.025,-0.04 -0.037,-0.05c-0.593,-0.81 -1.133,-1.65 -1.618,-2.52c-0.003,-0.01 -0.006,-0.01 -0.01,-0.02c-0.007,-0.01 -0.014,-0.02 -0.021,-0.04c-0.497,-0.9 -0.935,-1.83 -1.311,-2.79c0.054,-0.03 0.107,-0.06 0.162,-0.1c3.557,-2.27 8.632,-5.15 14.388,-7.3c1.718,2.33 3.71,4.07 5.953,4.51c1.692,0.33 3.414,0.46 5.083,0.46c6.64,0 12.464,-2.08 12.464,-2.08c0,0 0,-0.02 0.002,-0.06c0.006,-0.01 0.009,-0.01 0.009,-0.01c0,0 0.071,-1.93 0.072,-4.77c2.078,0.63 4.113,1.54 6.068,2.78c0.09,0.05 0.179,0.11 0.269,0.17c-1.141,2.9 -2.686,5.99 -4.765,8.9c-0.012,0.01 -0.023,0.03 -0.034,0.04c-0.004,0.01 -0.008,0.01 -0.012,0.02c-2.281,3.17 -5.199,6.1 -8.926,8.28c0,0 -5.222,2.83 -11.727,2.83Z" style="fill:#a1c0a5;fill-rule:nonzero;"/><path d="M121.035,152.81c-1.669,0 -3.391,-0.13 -5.083,-0.46c-2.243,-0.44 -4.235,-2.18 -5.953,-4.51c1.448,-0.54 2.94,-1.04 4.461,-1.47c1.493,1.45 3.526,2.33 5.767,2.33c2.972,0 5.58,-1.56 7.044,-3.91c1.826,0.11 3.646,0.38 5.434,0.85c0.1,1.81 0.154,3.61 0.178,5.26c0.379,-0.16 0.574,-0.22 0.618,-0.23c-0.002,0.04 -0.002,0.06 -0.002,0.06c0,0 -5.824,2.08 -12.464,2.08Z" style="fill:#a9dbcf;fill-rule:nonzero;"/><path d="M132.883,150.9c-0.024,-1.65 -0.078,-3.45 -0.178,-5.26c0.293,0.08 0.585,0.16 0.877,0.25c-0.001,2.84 -0.072,4.77 -0.072,4.77c0,0 -0.003,0 -0.009,0.01c-0.044,0.01 -0.239,0.07 -0.618,0.23Z" style="fill:#9cbca3;fill-rule:nonzero;"/><path d="M120.227,148.7c-2.241,0 -4.274,-0.88 -5.767,-2.33c1.255,-0.35 2.531,-0.66 3.818,-0.91c0.478,0.26 1.006,0.43 1.563,0.47c0.107,0.01 0.214,0.02 0.32,0.02c1.037,0 2.023,-0.42 2.809,-1.12c0.807,-0.06 1.615,-0.09 2.423,-0.09l0.049,0c0.61,0 1.22,0.01 1.829,0.05c-1.464,2.35 -4.072,3.91 -7.044,3.91Z" style="fill:#63705b;fill-rule:nonzero;"/><path d="M120.161,145.95c-0.106,0 -0.213,-0.01 -0.32,-0.02c-0.557,-0.04 -1.085,-0.21 -1.563,-0.47c1.55,-0.3 3.118,-0.52 4.692,-0.63c-0.786,0.7 -1.772,1.12 -2.809,1.12Z" style="fill:#7d7f61;fill-rule:nonzero;"/><path d="M95.449,155.24c0.054,-0.03 0.107,-0.06 0.162,-0.1c-0.055,0.04 -0.108,0.07 -0.162,0.1Zm44.201,-6.57c-1.955,-1.24 -3.99,-2.15 -6.068,-2.78c2.078,0.63 4.113,1.54 6.068,2.78Z" style="fill:#89c4af;fill-rule:nonzero;"/><path d="M132.705,145.64c-1.788,-0.47 -3.608,-0.74 -5.434,-0.85c1.827,0.11 3.645,0.38 5.434,0.85Z" style="fill:#8bd0c3;fill-rule:nonzero;"/><path d="M133.582,145.89c-0.292,-0.09 -0.584,-0.17 -0.877,-0.25c0.293,0.08 0.585,0.16 0.877,0.25Z" style="fill:#86c1ae;fill-rule:nonzero;"/><path d="M127.271,144.79c-0.609,-0.04 -1.219,-0.05 -1.829,-0.05c0.61,0 1.22,0.01 1.829,0.05Zm-1.878,-0.05c0.011,0 0.023,0 0.034,0c-0.011,0 -0.023,0 -0.034,0Z" style="fill:#6d9b87;fill-rule:nonzero;"/><path d="M206.488,149.99c-0.716,4.44 -2.604,8.63 -5.548,12.04c-10.873,12.58 -26.637,4.05 -26.637,4.05c-13.634,-7.99 -16.437,-25.96 -16.814,-28.94c-0.037,-0.3 -0.051,-0.6 -0.038,-0.91c0.249,-6.07 5.126,-7.04 5.126,-7.04c15.598,-7.12 34.709,-1.31 37.146,-0.52c0.165,0.06 0.326,0.12 0.481,0.19c7.793,3.73 7.316,14.72 6.284,21.13Zm-63.492,-12.85c-0.377,2.98 -3.179,20.95 -16.814,28.94c0,0 -15.763,8.53 -26.636,-4.05c-2.946,-3.41 -4.834,-7.6 -5.55,-12.04c-1.031,-6.41 -1.507,-17.4 6.285,-21.13c0.156,-0.07 0.317,-0.13 0.48,-0.19c2.438,-0.79 21.549,-6.6 37.148,0.52c0,0 4.876,0.97 5.125,7.04c0.013,0.31 0,0.61 -0.038,0.91Zm66.659,-0.04c0,0 -2.663,-14.88 -19.867,-14.63l-39.503,0l0,4.67l6.634,0c0,0 2.177,-0.24 0.408,2.21c0,0 -2.158,3.57 -2.749,6.14c-0.142,0.61 -0.444,1.02 -1.075,1l-3.261,-0.26l-3.26,0.26c-0.631,0.02 -0.933,-0.39 -1.075,-1c-0.591,-2.57 -2.749,-6.14 -2.749,-6.14c-1.768,-2.45 0.409,-2.21 0.409,-2.21l6.633,0l0,-4.67l-39.502,0c-17.205,-0.25 -19.868,14.63 -19.868,14.63c-1.926,6.17 2.022,18.77 2.022,18.77c6.676,15.64 22.083,15.31 22.083,15.31c20.799,0.51 29.53,-25.17 29.53,-25.17c1.54,-6.42 5.777,-5.65 5.777,-5.65c0,0 4.237,-0.77 5.778,5.65c0,0 8.73,25.68 29.53,25.17c0,0 15.407,0.33 22.084,-15.31c0,0 3.948,-12.6 2.021,-18.77Z" style="fill:#fff;fill-rule:nonzero;"/><path d="M205.018,155.31c-0.052,-0.04 -0.103,-0.07 -0.156,-0.1c-0.831,-0.53 -1.745,-1.1 -2.731,-1.68c1.559,-6.01 2.659,-12.77 2.984,-19.74c1.491,2.87 1.957,6.39 1.943,9.72c-0.016,2.35 -0.269,4.61 -0.57,6.48c-0.294,1.83 -0.787,3.61 -1.47,5.32Z" style="fill:#b4c5b1;fill-rule:nonzero;"/><path d="M202.131,153.53c-3.808,-2.24 -8.687,-4.71 -14.03,-6.45c4.704,-6.43 7.327,-17.19 7.327,-17.19c-0.006,-0.01 -0.011,-0.02 -0.017,-0.02c0.007,-0.03 0.011,-0.05 0.011,-0.05c-0.979,-1.05 -1.941,-2 -2.884,-2.86c3.737,0.71 6.377,1.53 7.183,1.79c0.164,0.05 0.328,0.11 0.481,0.19c2.282,1.09 3.856,2.81 4.913,4.85c-0.325,6.97 -1.425,13.73 -2.984,19.74Zm-41.545,-4.63c-2.188,-5.52 -2.917,-10.34 -3.097,-11.76c-0.026,-0.21 -0.041,-0.43 -0.043,-0.64c0.001,-0.07 0.002,-0.13 0.004,-0.19c0.11,-2.65 1.096,-4.32 2.174,-5.37c-0.15,0.66 0.038,1.38 0.538,1.88c0.381,0.39 0.889,0.6 1.428,0.6l0.001,0c0.539,0 1.045,-0.21 1.425,-0.6l0.017,-0.02c0.102,-0.1 0.86,-0.84 2.217,-1.89c-0.75,5.35 -0.817,12.06 -0.779,15.93c-1.235,0.52 -2.45,1.15 -3.636,1.9c-0.083,0.05 -0.166,0.11 -0.249,0.16Z" style="fill:#bcd0bb;fill-rule:nonzero;"/><path d="M188.101,147.08c-1.512,-0.5 -3.063,-0.93 -4.634,-1.28c1.627,-1.52 2.645,-3.68 2.645,-6.07c0,-4.59 -3.713,-8.3 -8.294,-8.3c-4.581,0 -8.294,3.71 -8.294,8.3c0,2.01 0.718,3.86 1.913,5.29c-2.089,0.25 -4.157,0.74 -6.173,1.51c0.275,-6.59 1.112,-13.85 3.37,-15.45c1.996,-1.46 5.244,-3.22 9.494,-3.22c4.282,0 9.58,1.78 15.644,7.45c1.011,-2.87 1.558,-5.1 1.639,-5.44c0.006,0 0.011,0.01 0.017,0.02c0,0 -2.623,10.76 -7.327,17.19Z" style="fill:#bee4de;fill-rule:nonzero;"/><path d="M164.471,146.84c-0.038,-3.87 0.029,-10.58 0.779,-15.93c0.615,-0.47 1.354,-1.01 2.21,-1.58c1.382,-1.02 3.181,-1.91 5.05,-2.81c0.196,-0.09 0.392,-0.17 0.591,-0.26c2.455,-0.35 4.891,-0.5 7.234,-0.5c4.598,0 8.845,0.56 12.203,1.2c0.943,0.86 1.905,1.81 2.884,2.86c0,0 -0.004,0.02 -0.011,0.05c-0.081,0.34 -0.628,2.57 -1.639,5.44c-6.064,-5.67 -11.362,-7.45 -15.644,-7.45c-4.25,0 -7.498,1.76 -9.494,3.22c-2.258,1.6 -3.095,8.86 -3.37,15.45c-0.265,0.1 -0.53,0.2 -0.793,0.31Z" style="fill:#b0c3af;fill-rule:nonzero;"/><path d="M183.467,145.8c-1.43,-0.32 -2.878,-0.58 -4.335,-0.75c1.922,-0.65 3.276,-2.77 3.087,-5.07c-0.007,-0.09 -0.017,-0.18 -0.029,-0.27c0.423,-0.31 0.677,-0.77 0.638,-1.27c-0.066,-0.77 -0.805,-1.34 -1.69,-1.34c-0.025,0 -0.049,0 -0.074,0c-0.843,-1.02 -2.054,-1.67 -3.344,-1.67c-0.106,0 -0.213,0 -0.32,0.01c-2.395,0.2 -4.231,2.61 -4.02,5.27c0.069,0.83 0.331,1.6 0.732,2.27c-0.102,0.13 -0.157,0.29 -0.143,0.46c0.033,0.38 0.404,0.67 0.844,0.67c0.028,0 0.057,0 0.086,0c0.041,-0.01 0.08,-0.01 0.119,-0.02c0.323,0.3 0.681,0.55 1.065,0.74c-0.331,-0.01 -0.66,-0.02 -0.991,-0.02l-0.047,0c-1.206,0 -2.41,0.07 -3.608,0.21c-1.195,-1.43 -1.913,-3.28 -1.913,-5.29c0,-4.59 3.713,-8.3 8.294,-8.3c4.581,0 8.294,3.71 8.294,8.3c0,2.39 -1.018,4.55 -2.645,6.07Z" style="fill:#717363;fill-rule:nonzero;"/><path d="M179.132,145.05c-1.013,-0.11 -2.032,-0.19 -3.049,-0.22c-0.384,-0.19 -0.742,-0.44 -1.065,-0.74c0.337,-0.07 0.596,-0.3 0.671,-0.58c0.637,0.5 1.389,0.79 2.096,0.79c0.072,0 0.142,0 0.212,-0.01c1.667,-0.14 3.396,-1.97 3.212,-4.22l0,-0.01c0.374,-0.03 0.712,-0.16 0.981,-0.35c0.012,0.09 0.022,0.18 0.029,0.27c0.189,2.3 -1.165,4.42 -3.087,5.07Zm-5.02,-2.07c-0.401,-0.67 -0.663,-1.44 -0.732,-2.27c-0.211,-2.66 1.625,-5.07 4.02,-5.27c0.107,-0.01 0.214,-0.01 0.32,-0.01c1.29,0 2.501,0.65 3.344,1.67c-0.032,0 -0.063,0.01 -0.095,0.01c-0.38,0.03 -0.723,0.16 -0.995,0.36c-0.694,-0.67 -1.582,-1.06 -2.411,-1.06c-0.07,0 -0.14,0 -0.209,0.01c-1.669,0.14 -3.394,1.98 -3.21,4.23c0.061,0.75 0.325,1.42 0.713,1.98c-0.025,0 -0.051,0 -0.076,0c-0.282,0.02 -0.524,0.16 -0.669,0.35Z" style="fill:#8d836b;fill-rule:nonzero;"/><path d="M177.785,144.3c-0.707,0 -1.459,-0.29 -2.096,-0.79c0.019,-0.07 0.027,-0.14 0.021,-0.21c-0.032,-0.38 -0.402,-0.67 -0.842,-0.67c-0.004,0 -0.007,0 -0.011,0c-0.388,-0.56 -0.652,-1.23 -0.713,-1.98c-0.184,-2.25 1.541,-4.09 3.21,-4.23c0.069,-0.01 0.139,-0.01 0.209,-0.01c0.829,0 1.717,0.39 2.411,1.06c-0.417,0.31 -0.667,0.77 -0.627,1.26c0.065,0.77 0.809,1.34 1.693,1.34c0.056,0 0.112,0 0.169,-0.01l0,0.01c0.184,2.25 -1.545,4.08 -3.212,4.22c-0.07,0.01 -0.14,0.01 -0.212,0.01Z" style="fill:#596d63;fill-rule:nonzero;"/><path d="M181.04,140.07c-0.884,0 -1.628,-0.57 -1.693,-1.34c-0.04,-0.49 0.21,-0.95 0.627,-1.26c0.272,-0.2 0.615,-0.33 0.995,-0.36c0.032,0 0.063,-0.01 0.095,-0.01c0.025,0 0.049,0 0.074,0c0.885,0 1.624,0.57 1.69,1.34c0.039,0.5 -0.215,0.96 -0.638,1.27c-0.269,0.19 -0.607,0.32 -0.981,0.35c-0.057,0.01 -0.113,0.01 -0.169,0.01Z" style="fill:#bee4de;fill-rule:nonzero;"/><path d="M174.813,144.11c-0.44,0 -0.811,-0.29 -0.844,-0.67c-0.014,-0.17 0.041,-0.33 0.143,-0.46c0.145,-0.19 0.387,-0.33 0.669,-0.35l0.087,0c0.44,0 0.81,0.29 0.842,0.67c0.006,0.07 -0.002,0.14 -0.021,0.21c-0.075,0.28 -0.334,0.51 -0.671,0.58c-0.039,0.01 -0.078,0.01 -0.119,0.02c-0.029,0 -0.058,0 -0.086,0Z" style="fill:#bee4de;fill-rule:nonzero;"/><path d="M161.591,133.42l-0.001,0c-0.539,0 -1.047,-0.21 -1.428,-0.6c-0.5,-0.5 -0.688,-1.22 -0.538,-1.88c1.398,-1.37 2.951,-1.68 2.951,-1.68c3.412,-1.55 6.989,-2.49 10.526,-3c-0.199,0.09 -0.395,0.17 -0.591,0.26c-1.869,0.9 -3.668,1.79 -5.05,2.81c-0.856,0.57 -1.595,1.11 -2.21,1.58c-1.357,1.05 -2.115,1.79 -2.217,1.89l-0.017,0.02c-0.38,0.39 -0.886,0.6 -1.425,0.6Z" style="fill:#4b6560;fill-rule:nonzero;"/><path d="M205.037,155.32c-0.006,0 -0.013,-0.01 -0.019,-0.01c0.683,-1.71 1.176,-3.49 1.47,-5.32c0.301,-1.87 0.554,-4.13 0.57,-6.48c-0.01,2.38 -0.266,4.67 -0.57,6.55c-0.289,1.81 -0.774,3.57 -1.451,5.26Zm-44.471,-6.41c-2.177,-5.49 -2.903,-10.28 -3.077,-11.69c-0.031,-0.24 -0.044,-0.48 -0.043,-0.72c0.002,0.21 0.017,0.43 0.043,0.64c0.18,1.42 0.909,6.24 3.097,11.76c-0.007,0 -0.013,0.01 -0.02,0.01Z" style="fill:#bee4de;fill-rule:nonzero;"/><path d="M200.776,162.22c0.377,-3.45 0.8,-6.56 1.312,-8.52c0.014,-0.06 0.029,-0.11 0.043,-0.17c0.986,0.58 1.9,1.15 2.731,1.68c0.053,0.03 0.104,0.06 0.156,0.1c-0.978,2.44 -2.345,4.71 -4.078,6.72c-0.055,0.06 -0.109,0.13 -0.164,0.19Z" style="fill:#a0bda3;fill-rule:nonzero;"/><path d="M186.031,168.91c-6.506,0 -11.728,-2.83 -11.728,-2.83c-7.141,-4.19 -11.311,-11.11 -13.717,-17.18c0.083,-0.05 0.166,-0.11 0.249,-0.16c1.186,-0.75 2.401,-1.38 3.636,-1.9c0.019,1.92 0.064,3.14 0.064,3.14c0,0 0.003,0 0.009,0c0.002,0.04 0.002,0.06 0.002,0.06c0,0 5.823,2.09 12.462,2.09c1.67,0 3.392,-0.14 5.085,-0.47c2.266,-0.44 4.278,-2.22 6.008,-4.58c5.342,1.74 10.223,4.21 14.03,6.45c-0.014,0.06 -0.029,0.11 -0.043,0.17c-0.512,1.96 -0.935,5.07 -1.312,8.52c-4.581,5.19 -10.004,6.69 -14.745,6.69Z" style="fill:#a8c8ac;fill-rule:nonzero;"/><path d="M177.008,152.13c-6.639,0 -12.462,-2.09 -12.462,-2.09c0,0 0,-0.02 -0.002,-0.06c0.044,0.01 0.239,0.08 0.617,0.24c0.018,-1.18 0.05,-2.42 0.103,-3.69c2.016,-0.77 4.084,-1.26 6.173,-1.51c1.521,1.83 3.815,3 6.381,3c2.182,0 4.168,-0.84 5.649,-2.22c1.571,0.35 3.122,0.78 4.634,1.28c-1.73,2.36 -3.742,4.14 -6.008,4.58c-1.693,0.33 -3.415,0.47 -5.085,0.47Z" style="fill:#a9dbcf;fill-rule:nonzero;"/><path d="M165.161,150.22c-0.378,-0.16 -0.573,-0.23 -0.617,-0.24c-0.006,0 -0.009,0 -0.009,0c0,0 -0.045,-1.22 -0.064,-3.14c0.263,-0.11 0.528,-0.21 0.793,-0.31c-0.053,1.27 -0.085,2.51 -0.103,3.69Z" style="fill:#9cbca3;fill-rule:nonzero;"/><path d="M177.818,148.02c-2.566,0 -4.86,-1.17 -6.381,-3c1.197,-0.14 2.403,-0.21 3.608,-0.21l0.047,0c0.331,0 0.66,0.01 0.991,0.02c0.559,0.28 1.17,0.43 1.801,0.43c0.106,0 0.212,0 0.319,-0.01c0.321,-0.03 0.632,-0.09 0.929,-0.2c1.457,0.17 2.905,0.43 4.335,0.75c-1.481,1.38 -3.467,2.22 -5.649,2.22Z" style="fill:#63705b;fill-rule:nonzero;"/><path d="M177.884,145.26c-0.631,0 -1.242,-0.15 -1.801,-0.43c1.018,0.03 2.036,0.11 3.049,0.22c-0.297,0.11 -0.608,0.17 -0.929,0.2c-0.107,0.01 -0.213,0.01 -0.319,0.01Z" style="fill:#7d7f61;fill-rule:nonzero;"/><path d="M186.027,168.98c-6.504,0 -11.725,-2.82 -11.725,-2.82c-7.165,-4.2 -11.34,-11.16 -13.736,-17.25c0.007,0 0.013,-0.01 0.02,-0.01c2.406,6.07 6.576,12.99 13.717,17.18c0,0 5.222,2.83 11.728,2.83c4.741,0 10.164,-1.5 14.745,-6.69c0.055,-0.06 0.109,-0.13 0.164,-0.19c1.733,-2.01 3.1,-4.28 4.078,-6.72c0.006,0 0.013,0.01 0.019,0.01c-0.972,2.47 -2.347,4.76 -4.098,6.78c-4.616,5.34 -10.113,6.88 -14.912,6.88Z" style="fill:#a9dbcf;fill-rule:nonzero;"/><path d="M160.835,148.74c1.186,-0.75 2.401,-1.38 3.636,-1.9c-1.235,0.52 -2.45,1.15 -3.636,1.9Z" style="fill:#8bc8b3;fill-rule:nonzero;"/><path d="M165.264,146.53c0,-0.01 0,0 0,0c2.016,-0.77 4.084,-1.26 6.173,-1.51c-2.089,0.25 -4.157,0.74 -6.173,1.51Z" style="fill:#8bd0c3;fill-rule:nonzero;"/><path d="M164.471,146.84c0.263,-0.11 0.528,-0.21 0.793,-0.31c0,0 0,-0.01 0,0c-0.265,0.1 -0.53,0.2 -0.793,0.31Z" style="fill:#86c1ae;fill-rule:nonzero;"/><path d="M171.437,145.02c1.198,-0.14 2.402,-0.21 3.608,-0.21c-1.205,0 -2.411,0.07 -3.608,0.21Zm3.655,-0.21c-0.011,0 -0.023,0 -0.034,0c0.011,0 0.023,0 0.034,0Z" style="fill:#6d9b87;fill-rule:nonzero;"/></g></svg>