<?xml version="1.0" encoding="UTF-8" standalone="no"?><!DOCTYPE svg PUBLIC "-//W3C//DTD SVG 1.1//EN" "http://www.w3.org/Graphics/SVG/1.1/DTD/svg11.dtd"><svg width="100%" height="100%" viewBox="0 0 300 300" version="1.1" xmlns="http://www.w3.org/2000/svg" xmlns:xlink="http://www.w3.org/1999/xlink" xml:space="preserve" style="fill-rule:evenodd;clip-rule:evenodd;stroke-linejoin:round;stroke-miterlimit:1.41421;"><g id="_3"><rect x="0.149" y="0.07" width="299.361" height="299.71" style="fill:#97ca91;fill-rule:nonzero;"/><path d="M154.07,187.32l0,112.61l-60.71,0c-1.01,-0.39 -1.46,-0.6 -1.46,-0.6c0,-5.37 0.29,-10.31 0.82,-14.83c0.54,-4.41 1.28,-8.44 2.2,-12.1c0.68,-2.63 1.44,-5.1 2.27,-7.39c4.34,-11.89 10.73,-19.21 16.68,-23.7c4.59,-3.46 8.87,-5.22 11.73,-6.11c2.1,-0.66 3.43,-0.82 3.43,-0.82l0.07,0c0.22,0 0.39,-0.02 0.59,-0.06l0.02,0c1.92,-0.31 3.46,-1.98 4.71,-4.63c0.93,-1.98 1.71,-4.49 2.33,-7.41c0.25,-1.13 0.43,-2.28 0.66,-3.52c0.29,-2.1 0.55,-4.26 0.8,-6.54c0.12,-1.4 0.25,-2.74 0.41,-4.18c0.54,-6.89 0.7,-14.42 0.7,-21.56c0,0 8.15,0.84 14.75,0.84Z" style="fill:#e0bd9a;fill-rule:nonzero;"/><path d="M216.54,299.33c0,0 -0.54,0.21 -1.44,0.6l-61.03,0l0,-112.61l0.17,0c6.58,0 14.83,-0.84 14.83,-0.84c0,7.08 0.12,14.53 0.68,21.42c0.17,1.34 0.31,2.71 0.39,4.07c0.25,2.37 0.56,4.61 0.89,6.69l0,0.04c0.1,0.95 0.3,1.79 0.47,2.67c0.58,2.95 1.3,5.52 2.2,7.6c1.07,2.55 2.41,4.36 4.01,5.06c0.21,0.08 0.41,0.16 0.64,0.22c0.31,0.09 0.66,0.13 1.01,0.13c0,0 0.33,0.04 0.9,0.16l0.02,0c0.99,0.21 2.7,0.64 4.88,1.5c2.55,0.99 5.68,2.56 8.97,4.98c6.05,4.45 12.65,11.83 17.12,23.99c0.84,2.29 1.58,4.76 2.26,7.39c0.91,3.6 1.65,7.57 2.18,11.89c0.54,4.59 0.85,9.59 0.85,15.04Z" style="fill:#efd0ad;fill-rule:nonzero;"/><path d="M171.04,218.46l0,0.05c-1.53,2.36 -6.67,9.16 -16.85,9.16l-0.1,0c-9.64,-0.05 -15.27,-7.04 -16.7,-9.11c0.29,-2.07 0.59,-4.24 0.84,-6.51c0.1,-1.33 0.24,-2.71 0.39,-4.14c4.7,1.19 9.84,1.93 15.27,2.02l0.2,0c5.63,-0.09 10.82,-0.88 15.66,-2.16c0.15,1.33 0.3,2.71 0.4,4.04c0.25,2.36 0.54,4.58 0.89,6.65Z" style="fill:#be987f;fill-rule:nonzero;"/><path d="M153.4,58.98c-64.34,0 -64.69,53.95 -61.82,89.27c-4.4,-8.37 -17.49,-5.81 -16.4,7.39c1.03,12.71 19.74,19.19 19.22,17.79c9.74,26.12 35.53,45.82 59,45.82l0.49,0l0,-160.27l-0.49,0Z" style="fill:#d2a686;fill-rule:nonzero;"/><path d="M79.28,150.08c3.16,-5.13 8.1,-2.91 9.29,-1.78c1.28,1.23 2.32,2.81 1.53,5.82c-0.45,1.72 -2.23,1.87 -1.83,4.43c0.49,2.91 1.83,3.05 2.62,3.74c0.74,0.64 1.68,1.14 2.12,2.37c0.5,1.23 0.55,2.51 0.3,3.64c-0.49,2.07 -3.51,0.4 -5.53,-0.49c-1.34,-0.64 -5.59,-4.24 -6.67,-5.42c-2.67,-3.05 -3.96,-8.96 -1.83,-12.31Z" style="fill:#ac8774;fill-rule:nonzero;"/><path d="M153.74,58.98c64.34,0 64.68,53.95 61.87,89.27c4.4,-8.37 17.44,-5.81 16.35,7.39c-0.98,12.71 -19.73,19.2 -19.22,17.79c-9.49,26.12 -35.53,45.82 -59,45.82c-0.15,0 -0.34,0 -0.34,0l-0.15,-160.27c0,0 0.34,0 0.49,0Z" style="fill:#ddb598;fill-rule:nonzero;"/><path d="M227.86,150.08c-3.16,-5.13 -8.05,-2.91 -9.29,-1.78c-1.28,1.23 -2.27,2.81 -1.53,5.82c0.45,1.72 2.22,1.87 1.83,4.43c-0.49,2.91 -1.83,3.05 -2.57,3.74c-0.74,0.64 -1.73,1.14 -2.17,2.37c-0.45,1.23 -0.55,2.51 -0.3,3.64c0.49,2.07 3.51,0.4 5.53,-0.49c1.39,-0.64 5.59,-4.24 6.67,-5.42c2.72,-3.05 3.96,-8.96 1.83,-12.31Z" style="fill:#ac8774;fill-rule:nonzero;"/><path d="M152.89,74.2c-21.15,0 -36.66,6.16 -46,18.28c-13.1,17 -12.6,42.91 -7.81,61.54c1.48,5.71 2.27,21.03 3.26,26.65c4.6,25.18 32.32,38.58 50.55,38.58c0,0 0.35,0 0.49,0l0,-145.05c-0.14,0 -0.29,0 -0.29,0" style="fill:#e0bd9a;fill-rule:nonzero;"/><path d="M198.85,92.53c-9.29,-12.07 -24.61,-18.23 -45.47,-18.33l0,145.05c20.86,-0.25 45.81,-14.93 50.06,-38.58c1.04,-5.62 1.78,-20.94 3.26,-26.65c4.84,-18.58 5.34,-44.44 -7.85,-61.49Z" style="fill:#efd0ad;fill-rule:nonzero;"/><path d="M153.58,190.8" style="fill:#bc917b;fill-rule:nonzero;"/><path d="M153.58,190.8" style="fill:#bc917b;fill-rule:nonzero;"/><path d="M150.01,193.53c-0.1,-0.02 -0.2,-0.04 -0.3,-0.06c0.1,0.02 0.18,0.04 0.3,0.06Z" style="fill:#bc917b;fill-rule:nonzero;"/><path d="M153.58,193.34" style="fill:#bc917b;fill-rule:nonzero;"/><path d="M149.23,193.36c-0.1,-0.03 -0.18,-0.05 -0.27,-0.08l-0.01,0.01c0,0 0.1,0.03 0.28,0.07Z" style="fill:#bc917b;fill-rule:nonzero;"/><path d="M153.58,193.34" style="fill:#bc917b;fill-rule:nonzero;"/><path d="M141.11,175.75c-0.25,-5.01 9.18,-1.83 12.28,-1.68c2.46,0.13 9.93,-1.58 10.57,-1.14c4.39,2.97 -4.66,8.96 -10.72,8.96c-1.62,0 -11.98,-3.12 -12.13,-6.14Z" style="fill:#ddb598;fill-rule:nonzero;"/><path d="M135.42,74.57l-0.26,0.26l0.04,0.09c0.09,-0.13 0.13,-0.26 0.22,-0.35Z" style="fill:#432e1b;fill-rule:nonzero;"/><path d="M94.46,125.67" style="fill:#432e1b;fill-rule:nonzero;"/><path d="M153.85,193.36" style="fill:#ba907b;fill-rule:nonzero;"/><path d="M153.85,193.36" style="fill:#ba907b;fill-rule:nonzero;"/><path d="M150.19,190.59c-0.11,-0.02 -0.21,-0.04 -0.32,-0.06c0.11,0.02 0.2,0.04 0.32,0.06Z" style="fill:#ba907b;fill-rule:nonzero;"/><path d="M153.85,190.39" style="fill:#ba907b;fill-rule:nonzero;"/><path d="M149.38,190.41c-0.1,-0.02 -0.18,-0.05 -0.28,-0.08l-0.01,0.01c0,0 0.11,0.03 0.29,0.07Z" style="fill:#ba907b;fill-rule:nonzero;"/><path d="M153.85,190.39" style="fill:#ba907b;fill-rule:nonzero;"/><path d="M107.23,130.81c0,0 4.91,20.2 13.34,21.85c8.42,1.65 17.54,-1.63 17.54,-1.63c0,0 0.87,-23.73 -3.44,-26.84c-4.31,-3.11 -14.25,-7.61 -27.44,6.62Z" style="fill:#fff;fill-rule:nonzero;"/><path d="M138.12,150.97c0,0 -0.19,0.06 -0.62,0.24c-0.11,-7.28 -0.78,-17.28 -3.48,-19.2c-4,-2.94 -13.05,-7.08 -25.13,4.24c-1.1,-3.13 -1.65,-5.5 -1.65,-5.5c13.21,-14.26 23.16,-9.77 27.44,-6.65c4.32,3.11 3.44,26.87 3.44,26.87Z" style="fill:#d6b496;fill-rule:nonzero;"/><path d="M133.14,140.69c0,4.59 -3.72,8.31 -8.3,8.31c-4.58,0 -8.29,-3.72 -8.29,-8.31c0,-4.6 3.71,-8.32 8.29,-8.32c4.58,0 8.3,3.72 8.3,8.32Z" style="fill:#482315;fill-rule:nonzero;"/><path d="M124.46,146.23c-2.4,-0.2 -4.24,-2.63 -4.02,-5.29c0.21,-2.67 2.42,-4.75 4.82,-4.55c2.39,0.2 4.23,2.62 4.02,5.28c-0.22,2.67 -2.43,4.76 -4.82,4.56Z" style="fill:#7e3a22;fill-rule:nonzero;"/><path d="M124.66,145.26c-1.66,-0.14 -3.39,-1.97 -3.21,-4.23c0.19,-2.27 2.19,-3.8 3.86,-3.66c1.66,0.14 3.39,1.98 3.21,4.24c-0.19,2.27 -2.19,3.79 -3.86,3.65Z" style="fill:#211a10;fill-rule:nonzero;"/><path d="M123.31,139.69c-0.07,0.82 -0.9,1.41 -1.86,1.33c-0.96,-0.08 -1.68,-0.81 -1.62,-1.62c0.07,-0.82 0.9,-1.42 1.86,-1.34c0.96,0.08 1.69,0.81 1.62,1.63Z" style="fill:#fff;fill-rule:nonzero;"/><path d="M128.69,144.41c-0.04,0.41 -0.45,0.71 -0.93,0.67c-0.48,-0.04 -0.84,-0.41 -0.81,-0.81c0.03,-0.41 0.45,-0.71 0.93,-0.67c0.48,0.04 0.84,0.4 0.81,0.81Z" style="fill:#fff;fill-rule:nonzero;"/><path d="M153.98,190.31" style="fill:#ba907b;fill-rule:nonzero;"/><path d="M153.98,190.31" style="fill:#ba907b;fill-rule:nonzero;"/><path d="M150.32,192.97c-0.11,-0.02 -0.21,-0.04 -0.31,-0.06c0.1,0.02 0.19,0.04 0.31,0.06Z" style="fill:#ba907b;fill-rule:nonzero;"/><path d="M153.98,192.78" style="fill:#ba907b;fill-rule:nonzero;"/><path d="M149.51,192.79c-0.09,-0.02 -0.18,-0.05 -0.28,-0.07l-0.01,0c0,0 0.11,0.03 0.29,0.07Z" style="fill:#ba907b;fill-rule:nonzero;"/><path d="M153.98,192.78" style="fill:#ba907b;fill-rule:nonzero;"/><path d="M153.87,189.94" style="fill:#bc917b;fill-rule:nonzero;"/><path d="M153.87,189.94" style="fill:#bc917b;fill-rule:nonzero;"/><path d="M149.94,192.4c-0.11,-0.02 -0.22,-0.04 -0.33,-0.07c0.11,0.03 0.2,0.05 0.33,0.07Z" style="fill:#bc917b;fill-rule:nonzero;"/><path d="M153.87,192.19" style="fill:#bc917b;fill-rule:nonzero;"/><path d="M149.08,192.21c-0.11,-0.03 -0.2,-0.06 -0.3,-0.08l-0.01,0c0,0 0.11,0.03 0.31,0.08Z" style="fill:#bc917b;fill-rule:nonzero;"/><path d="M153.87,192.19" style="fill:#bc917b;fill-rule:nonzero;"/><path d="M153.62,189.09" style="fill:#bc917b;fill-rule:nonzero;"/><path d="M153.62,189.09" style="fill:#bc917b;fill-rule:nonzero;"/><path d="M149.69,191.56c-0.11,-0.02 -0.22,-0.05 -0.33,-0.07c0.11,0.02 0.2,0.04 0.33,0.07Z" style="fill:#bc917b;fill-rule:nonzero;"/><path d="M153.62,191.35" style="fill:#bc917b;fill-rule:nonzero;"/><path d="M148.83,191.37c-0.1,-0.03 -0.2,-0.06 -0.3,-0.09l-0.01,0.01c0,0 0.12,0.03 0.31,0.08Z" style="fill:#bc917b;fill-rule:nonzero;"/><path d="M153.62,191.35" style="fill:#bc917b;fill-rule:nonzero;"/><path d="M154.26,188.88" style="fill:#bc917b;fill-rule:nonzero;"/><path d="M154.26,188.88" style="fill:#bc917b;fill-rule:nonzero;"/><path d="M150.46,191.44c-0.11,-0.02 -0.21,-0.04 -0.32,-0.07c0.11,0.03 0.2,0.05 0.32,0.07Z" style="fill:#bc917b;fill-rule:nonzero;"/><path d="M154.26,191.24" style="fill:#bc917b;fill-rule:nonzero;"/><path d="M149.63,191.26c-0.1,-0.03 -0.19,-0.06 -0.29,-0.08l-0.01,0c0,0 0.11,0.03 0.3,0.08Z" style="fill:#bc917b;fill-rule:nonzero;"/><path d="M154.26,191.24" style="fill:#bc917b;fill-rule:nonzero;"/><path d="M200.04,130.13c0,0 -4.91,20.2 -13.33,21.84c-8.43,1.65 -17.55,-1.62 -17.55,-1.62c0,0 -0.87,-23.74 3.44,-26.84c4.32,-3.12 14.25,-7.62 27.44,6.62Z" style="fill:#fff;fill-rule:nonzero;"/><path d="M169.15,150.28c0,0 0.19,0.06 0.63,0.24c0.1,-7.28 0.77,-17.28 3.47,-19.2c4.01,-2.94 13.05,-7.08 25.14,4.25c1.1,-3.13 1.65,-5.51 1.65,-5.51c-13.22,-14.26 -23.16,-9.77 -27.44,-6.65c-4.32,3.12 -3.45,26.87 -3.45,26.87Z" style="fill:#d6b496;fill-rule:nonzero;"/><path d="M174.14,140c0,4.59 3.71,8.32 8.29,8.32c4.58,0 8.3,-3.73 8.3,-8.32c0,-4.6 -3.72,-8.32 -8.3,-8.32c-4.58,0 -8.29,3.72 -8.29,8.32Z" style="fill:#482315;fill-rule:nonzero;"/><path d="M182.82,145.54c2.39,-0.2 4.23,-2.62 4.01,-5.29c-0.21,-2.67 -2.42,-4.75 -4.82,-4.55c-2.39,0.2 -4.23,2.62 -4.01,5.29c0.21,2.66 2.42,4.75 4.82,4.55Z" style="fill:#7e3a22;fill-rule:nonzero;"/><path d="M182.61,144.58c1.67,-0.15 3.4,-1.98 3.21,-4.24c-0.18,-2.27 -2.18,-3.8 -3.85,-3.66c-1.67,0.14 -3.4,1.99 -3.21,4.25c0.18,2.26 2.19,3.78 3.85,3.65Z" style="fill:#211a10;fill-rule:nonzero;"/><path d="M183.96,139c0.07,0.82 0.91,1.42 1.86,1.34c0.96,-0.09 1.69,-0.82 1.62,-1.63c-0.07,-0.82 -0.9,-1.41 -1.86,-1.34c-0.96,0.08 -1.68,0.81 -1.62,1.63Z" style="fill:#fff;fill-rule:nonzero;"/><path d="M178.58,143.73c0.04,0.4 0.46,0.7 0.93,0.66c0.49,-0.04 0.84,-0.4 0.81,-0.81c-0.03,-0.41 -0.45,-0.71 -0.92,-0.66c-0.49,0.03 -0.85,0.4 -0.82,0.81Z" style="fill:#fff;fill-rule:nonzero;"/><path d="M143.17,130.49c-0.06,-0.1 -1.59,-2.43 -4.71,-4.83c-1.96,-1.51 -3.88,-2.66 -5.87,-3.51c-2.42,-1.02 -5.03,-1.74 -7.56,-2.09c-2.28,-0.25 -4.81,-0.19 -7.76,0.21c-2.26,0.43 -4.46,1.11 -6.32,1.93c-1.33,0.46 -2.39,1.11 -3.23,1.63c-0.32,0.2 -0.62,0.38 -0.91,0.54l-4.03,2.53l4.64,-1.09c0.22,-0.05 0.45,-0.11 0.7,-0.18c0.96,-0.26 2.16,-0.57 3.56,-0.78c0.32,-0.05 0.66,-0.12 1,-0.18c0.58,-0.12 1.18,-0.24 1.82,-0.27c0.7,-0.05 1.43,-0.1 2.18,-0.15l0.97,-0.07c2.57,-0.04 4.74,0.16 6.67,0.6c2.1,0.37 4.27,1.05 6.26,1.97c1.87,0.9 3.67,1.8 5.07,2.83c2.84,1.9 4.41,3.48 4.43,3.49c0.39,0.4 0.91,0.6 1.43,0.6c0.38,0 0.76,-0.11 1.1,-0.33c0.93,-0.61 1.19,-1.87 0.6,-2.79l-0.04,-0.06Z" style="fill:#030405;fill-rule:nonzero;"/><path d="M200.87,124.35c-0.27,-0.14 -0.56,-0.33 -0.88,-0.52c-0.85,-0.52 -1.9,-1.17 -3.19,-1.61c-1.9,-0.84 -4.1,-1.52 -6.39,-1.95c-2.92,-0.4 -5.45,-0.46 -7.75,-0.21c-2.51,0.35 -5.12,1.07 -7.54,2.09c-1.96,0.84 -3.94,2.02 -5.87,3.51c-3.07,2.36 -4.59,4.65 -4.71,4.83l-0.03,0.04c-0.51,0.8 -0.4,1.87 0.27,2.54c0.38,0.39 0.89,0.6 1.42,0.6l0.01,0c0.53,0 1.04,-0.21 1.42,-0.6l0.02,-0.01c0.15,-0.15 1.68,-1.65 4.43,-3.49c1.38,-1.02 3.18,-1.92 5.05,-2.81c1.99,-0.93 4.15,-1.61 6.29,-1.98c1.9,-0.44 4.07,-0.63 6.61,-0.61l1.02,0.08c0.74,0.05 1.47,0.1 2.17,0.15c0.62,0.03 1.23,0.15 1.81,0.27c0.34,0.06 0.67,0.13 1,0.18c1.4,0.21 2.6,0.52 3.56,0.78c0.25,0.07 0.48,0.13 0.71,0.18l4.63,1.1l-4.06,-2.56Z" style="fill:#030405;fill-rule:nonzero;"/><path d="M152.69,198.26" style="fill:#be927b;fill-rule:nonzero;"/><path d="M152.69,198.26" style="fill:#be927b;fill-rule:nonzero;"/><path d="M148.86,195.37c-0.11,-0.03 -0.22,-0.05 -0.32,-0.07c0.1,0.02 0.2,0.04 0.32,0.07Z" style="fill:#be927b;fill-rule:nonzero;"/><path d="M152.69,195.16" style="fill:#be927b;fill-rule:nonzero;"/><path d="M148.02,195.18c-0.1,-0.03 -0.19,-0.06 -0.29,-0.08l-0.01,0c0,0 0.11,0.03 0.3,0.08Z" style="fill:#be927b;fill-rule:nonzero;"/><path d="M152.69,195.16" style="fill:#be927b;fill-rule:nonzero;"/><path d="M141.5,199.53c-0.25,-3.24 9.01,0.68 12.05,0.78c2.43,0.08 9.72,-0.48 10.39,-0.74c5.09,-1.91 -0.28,5.43 -10.54,5.81c-4.7,0.19 -11.76,-3.88 -11.9,-5.85Z" style="fill:#f0d2ad;fill-rule:nonzero;"/><path d="M171.64,193.27c-2.51,-0.12 -5.09,1.98 -8.12,1.66c-0.12,-0.06 -0.18,-0.06 -0.31,-0.06c-0.69,-0.13 -1.38,0 -2.14,0.18c-0.94,0.2 -1.88,0.58 -2.77,0.89c-1.51,0.49 -3.21,0.89 -4.97,0.75l0,0.01l-0.09,-0.01l-0.1,0.01l0,-0.01c-1.75,0.14 -3.46,-0.26 -4.97,-0.75c-0.88,-0.31 -1.83,-0.69 -2.77,-0.89c-0.75,-0.18 -1.44,-0.31 -2.14,-0.18c-0.13,0 -0.19,0 -0.31,0.06c-3.03,0.32 -5.61,-1.78 -8.12,-1.66c-0.7,0.06 -1.7,-0.12 -2.27,-0.12c0.12,0.06 0.25,0.12 0.38,0.18c7.17,3.51 13.35,10.07 20.2,9.86l0.19,0c6.85,0.21 13.03,-6.35 20.2,-9.86c0.13,-0.06 0.26,-0.12 0.38,-0.18c-0.56,0 -1.57,0.18 -2.27,0.12Z" style="fill:#dcbf9e;fill-rule:nonzero;"/><path d="M173.75,193.07c0,0 -7.29,-2.81 -12.47,-1.16c0,0 -1.93,0.75 -3.93,1.21c-1.21,0.48 -2.69,0.62 -4.11,0.56c-1.09,-0.05 -2.13,-0.18 -2.98,-0.33c-0.28,-0.05 -0.57,-0.1 -0.86,-0.17c-0.12,-0.02 -0.21,-0.04 -0.32,-0.07c-0.18,-0.04 -0.35,-0.07 -0.52,-0.12c-0.19,-0.04 -0.3,-0.07 -0.3,-0.07l0.01,-0.01c-1.65,-0.45 -3.08,-1 -3.08,-1c-5.18,-1.65 -12.47,1.16 -12.47,1.16c-0.1,0.05 -0.16,0.08 -0.16,0.08c0.57,0 1.57,0.18 2.27,0.12c2.51,-0.12 5.09,1.98 8.12,1.66c0.12,-0.06 0.18,-0.06 0.31,-0.06c0.7,-0.13 1.39,0 2.14,0.18c0.94,0.2 1.89,0.58 2.77,0.89c1.51,0.49 3.22,0.89 4.97,0.75l0,0.01l0.1,-0.01l0.09,0.01l0,-0.01c1.76,0.14 3.46,-0.26 4.97,-0.75c0.89,-0.31 1.83,-0.69 2.77,-0.89c0.76,-0.18 1.45,-0.31 2.14,-0.18c0.13,0 0.19,0 0.31,0.06c3.03,0.32 5.61,-1.78 8.12,-1.66c0.7,0.06 1.71,-0.12 2.27,-0.12c0,0 -0.06,-0.03 -0.16,-0.08Z" style="fill:#c69f83;fill-rule:nonzero;"/><path d="M141,194.79c0.13,0.03 13.65,4.16 24.23,0.09l-1.22,-0.83l-14.3,0l-8.71,0.74Z" style="fill:#c69f83;fill-rule:nonzero;"/><path d="M143.55,299.93l-52.95,0c-0.98,-0.41 -1.52,-0.7 -1.52,-0.7c0,-3.61 0.13,-7.05 0.36,-10.35c0.27,-4.42 0.75,-8.48 1.43,-12.31c0.75,-4.5 1.77,-8.66 2.88,-12.37c0.27,-0.78 0.54,-1.55 0.81,-2.29c1.29,-3.73 2.76,-7.06 4.33,-10.01c2.26,-4.24 4.76,-7.71 7.35,-10.58c0.51,-0.62 1.06,-1.22 1.6,-1.79c7.57,-7.65 15.23,-10.19 18.49,-11.05c-0.04,0.24 -0.09,0.43 -0.13,0.62c-1.23,5.84 -1.09,13.21 -0.05,20.86c0.05,0.28 0.05,0.57 0.09,0.86c0.09,0.61 0.15,1.17 0.3,1.81c0,0.1 0,0.26 0.04,0.38c0.09,0.59 0.23,1.23 0.36,1.84c0.89,5.18 2.22,10.34 3.88,15.09c1.38,3.95 3.7,9.54 6.37,15.71c0.45,1.13 0.92,2.15 1.38,3.23c0.27,0.57 0.49,1.15 0.77,1.7c0.66,1.46 1.38,2.97 1.99,4.51c0.23,0.48 0.45,0.94 0.64,1.42c0.06,0.14 0.11,0.24 0.16,0.33c0.49,1.03 0.95,2.01 1.33,2.97l0.09,0.12Z" style="fill:#975459;fill-rule:nonzero;"/><path d="M151.78,299.97l-12.49,0c-0.56,-0.61 -1.06,-1.15 -1.54,-1.69c-25.61,-27.93 -29.57,-48.52 -29.57,-48.52l10.56,-4.85l-6.5,-4.39c0,0 2.53,-2.94 7.09,-7.32c1.27,-1.2 3.17,-2.59 5.19,-3.94c3.62,-2.3 7.47,-3.5 8.34,-3.66c-0.29,0.35 -2.97,3.03 -2.26,19.93c0.08,1.13 0.13,2.21 0.31,3.36c0.02,0.28 0.07,0.52 0.11,0.75c0.09,0.57 0.18,1.09 0.32,1.65c0,0.12 0,0.24 0.04,0.38c0.09,0.56 0.21,1.11 0.34,1.67c1.93,8.47 6.03,18.47 10.54,27.97c0.75,1.53 1.5,2.97 2.22,4.45c0.89,1.81 1.84,3.65 2.72,5.44c0.57,0.99 1.04,1.99 1.56,2.96c0.52,0.99 1.14,2.17 1.73,3.28c0.43,0.84 0.86,1.68 1.29,2.53Z" style="fill:#7e4047;fill-rule:nonzero;"/><path d="M164.97,299.93l52.96,0c0.97,-0.41 1.51,-0.7 1.51,-0.7c0,-3.61 -0.13,-7.05 -0.36,-10.35c-0.25,-4.42 -0.75,-8.48 -1.43,-12.31c-0.74,-4.5 -1.76,-8.66 -2.87,-12.37c-0.28,-0.78 -0.55,-1.55 -0.82,-2.29c-1.29,-3.73 -2.76,-7.06 -4.33,-10.01c-2.26,-4.24 -4.76,-7.71 -7.34,-10.58c-0.52,-0.62 -1.07,-1.22 -1.61,-1.79c-7.58,-7.65 -15.23,-10.19 -18.49,-11.05c0.04,0.24 0.09,0.43 0.13,0.62c1.23,5.84 1.09,13.21 0.05,20.86c-0.05,0.28 -0.05,0.57 -0.09,0.86c-0.09,0.61 -0.16,1.17 -0.3,1.81c0,0.1 0,0.26 -0.04,0.38c-0.09,0.59 -0.23,1.23 -0.37,1.84c-0.88,5.18 -2.22,10.34 -3.87,15.09c-1.38,3.95 -3.69,9.54 -6.37,15.71c-0.45,1.13 -0.92,2.15 -1.38,3.23c-0.27,0.57 -0.5,1.15 -0.75,1.7c-0.68,1.46 -1.38,2.97 -2.01,4.51c-0.21,0.48 -0.44,0.94 -0.62,1.42c-0.09,0.14 -0.13,0.24 -0.18,0.33c-0.5,1.03 -0.93,2.01 -1.33,2.97l-0.09,0.12Z" style="fill:#975459;fill-rule:nonzero;"/><path d="M157.15,299.97l12.37,0c0.57,-0.61 1.04,-1.15 1.52,-1.69c25.38,-27.93 29.3,-48.52 29.3,-48.52l-10.47,-4.85l6.46,-4.39c0,0 -2.52,-2.94 -7.03,-7.32c-1.26,-1.2 -3.15,-2.59 -5.14,-3.94c-3.61,-2.3 -7.3,-2.88 -8.16,-3.05c0.3,0.35 2.83,2.42 2.13,19.32c-0.09,1.13 -0.14,2.21 -0.29,3.36c-0.05,0.28 -0.09,0.52 -0.14,0.75c-0.09,0.57 -0.18,1.09 -0.3,1.65c0,0.12 0,0.24 -0.04,0.38c-0.09,0.56 -0.23,1.11 -0.34,1.67c-1.93,8.47 -5.98,18.47 -10.45,27.97c-0.72,1.53 -1.47,2.97 -2.19,4.45c-0.86,1.81 -1.84,3.65 -2.7,5.44c-0.54,0.99 -1.02,1.99 -1.54,2.96c-0.52,0.99 -1.13,2.17 -1.7,3.28c-0.43,0.84 -0.86,1.68 -1.29,2.53Z" style="fill:#7e4047;fill-rule:nonzero;"/><path d="M127.91,254.18l22.11,45.75l11.49,0l18.04,-49l-10.14,-5.7l-13.56,7.9l-12.69,-7.9c0,0 -15.17,7.37 -15.25,8.95Z" style="fill:#dfe0e1;fill-rule:nonzero;"/><path d="M180.7,230.54c-0.7,-2.28 -2.32,-4.89 -3.46,-6.37c-1.99,-2.57 -6.28,-5.18 -6.28,-5.18c1.63,4.01 -2.11,10.72 -4.06,13.58c-1.82,2.69 -5.81,7.81 -8.81,11.76c-1.89,2.47 -5.59,2.5 -7.52,0.07c-3.11,-3.92 -7.2,-9 -8.95,-11.83c-1.76,-2.83 -3.52,-11.15 -4.21,-13.81c0,0 -4.01,2.78 -6.13,5.41c-1.17,1.46 -2.76,4.09 -3.46,6.37c-1.84,6.05 -1.69,28.76 -1.69,28.76c0,0 5.82,-7.36 8.31,-9.31c1.13,-0.87 2.73,-1.8 4.61,-2.52l15.16,36.64l16.91,-35.95c1.16,0.58 2.17,1.22 2.96,1.83c2.49,1.95 8.31,9.31 8.31,9.31c0,0 0.15,-22.71 -1.69,-28.76Z" style="fill:#fff;fill-rule:nonzero;"/><path d="M225.93,86.84c-1.41,-4.85 -2.85,-8.6 -2.86,-8.62c0.01,0.01 0.21,0.04 2.17,0.04c12.12,-0.02 18.95,-11.06 18.95,-11.06c0,0 -4.57,6.3 -20.3,1.39c-15.36,-4.78 -14.97,-20.38 -37.05,-29.08c-11.31,-4.46 -18.06,-3.88 -21.97,-2.25c3.96,-3.07 12.1,-2.8 12.1,-2.8c0,0 -10.05,-5.21 -25.58,-0.53c-10.9,3.29 -17.44,7.03 -21.1,9.71l6.12,-5.5c0,0 -4.34,1.45 -10.47,4.4c4.17,-7.63 11.89,-15.99 11.89,-15.99c-19.68,6.9 -35.97,31.75 -35.97,31.75c1.56,-9.37 5.01,-17.94 5.01,-17.94c-33.58,23.54 -28.36,66.06 -28.36,66.06c0,16.09 6.73,32.22 11.15,37.02c4.42,4.79 3,11.73 4.32,11.73c0,0 2.66,0.09 2.75,-12.04c0.12,-1.55 0.4,-3.45 0.99,-5.11c0,0 4.1,-67.85 53.59,-48.12c0,0 20.04,8.15 35.64,9.43c11.6,0.96 21.15,9.23 23.65,20.04c1.18,5.15 1.48,9.68 0.92,12.31c-3.31,15.74 1.31,24.81 3.08,24.38c0,0 0.06,-4 1.66,-7.56c4.75,-10.61 8.75,-3.24 9.48,-17.63c0.59,-11.55 2.08,-18.08 2.67,-23.94c3.77,2.83 9.4,4.84 17.8,5.01c0,0 -11.89,-3.47 -20.28,-25.1Z" style="fill:#36393a;fill-rule:nonzero;"/></g></svg>