<?xml version="1.0" encoding="UTF-8" standalone="no"?><!DOCTYPE svg PUBLIC "-//W3C//DTD SVG 1.1//EN" "http://www.w3.org/Graphics/SVG/1.1/DTD/svg11.dtd"><svg width="100%" height="100%" viewBox="0 0 298 300" version="1.1" xmlns="http://www.w3.org/2000/svg" xmlns:xlink="http://www.w3.org/1999/xlink" xml:space="preserve" style="fill-rule:evenodd;clip-rule:evenodd;stroke-linejoin:round;stroke-miterlimit:1.41421;"><g id="_30"><rect x="0.31" y="0.275" width="296.86" height="299.705" style="fill:#ba84ba;fill-rule:nonzero;"/><path d="M149.05,187.36l0,112.62l-60.73,0c-0.99,-0.4 -1.48,-0.6 -1.48,-0.6c0,-14.37 2.1,-25.58 5.3,-34.32c7.73,-21.1 21.89,-27.8 28.4,-29.82c2.14,-0.66 3.45,-0.82 3.45,-0.82c0.24,0 0.45,-0.02 0.67,-0.06c1.91,-0.31 3.47,-1.97 4.71,-4.63c0.93,-1.97 1.7,-4.49 2.33,-7.41c0.26,-1.13 0.45,-2.28 0.65,-3.52c0.3,-2.08 0.59,-4.26 0.84,-6.55c0.1,-1.38 0.25,-2.72 0.39,-4.16c0.54,-6.89 0.7,-14.43 0.7,-21.57c0,0 8.15,0.84 14.77,0.84Z" style="fill:#e0bd9a;fill-rule:nonzero;"/><path d="M211.51,299.38c0,0 -0.54,0.2 -1.44,0.6l-61.02,0l0,-112.62l0.15,0c6.57,0 14.83,-0.84 14.83,-0.84c0,7.09 0.14,14.53 0.68,21.42c0.15,1.34 0.3,2.73 0.4,4.07c0.25,2.38 0.55,4.61 0.89,6.69l0,0.05c0.1,0.94 0.29,1.79 0.44,2.68c0.6,2.93 1.33,5.5 2.21,7.57c1.09,2.57 2.42,4.37 4.03,5.08c0.51,0.23 1.05,0.34 1.62,0.34c0,0 2.34,0.28 5.84,1.66c7.15,2.81 19.16,10.18 26.06,28.98c3.2,8.74 5.31,19.95 5.31,34.32Z" style="fill:#efd0ad;fill-rule:nonzero;"/><path d="M166,218.49l0,0.05c-1.53,2.37 -6.67,9.16 -16.85,9.16l-0.1,0c-9.64,-0.05 -15.27,-7.04 -16.7,-9.11c0.3,-2.07 0.59,-4.24 0.84,-6.5c0.1,-1.33 0.25,-2.71 0.39,-4.14c4.7,1.18 9.84,1.92 15.27,2.02l0.2,0c5.63,-0.1 10.82,-0.89 15.66,-2.17c0.15,1.33 0.3,2.71 0.4,4.04c0.25,2.37 0.54,4.58 0.89,6.65Z" style="fill:#be987f;fill-rule:nonzero;"/><path d="M148.36,59.015c-64.34,0 -64.68,53.945 -61.82,89.275c-4.4,-8.38 -17.49,-5.82 -16.4,7.39c1.03,12.71 19.74,19.19 19.22,17.78c9.74,26.13 35.53,45.82 59,45.82l0.49,0l0,-160.265l-0.49,0Z" style="fill:#d2a686;fill-rule:nonzero;"/><path d="M74.24,150.11c3.16,-5.12 8.1,-2.91 9.29,-1.77c1.28,1.23 2.32,2.8 1.53,5.81c-0.44,1.72 -2.22,1.87 -1.83,4.43c0.5,2.91 1.83,3.06 2.62,3.75c0.74,0.64 1.68,1.13 2.13,2.36c0.49,1.23 0.54,2.51 0.29,3.65c-0.49,2.07 -3.51,0.39 -5.53,-0.49c-1.34,-0.65 -5.59,-4.24 -6.67,-5.42c-2.67,-3.06 -3.96,-8.97 -1.83,-12.32Z" style="fill:#ac8774;fill-rule:nonzero;"/><path d="M148.7,59.015c64.34,0 64.69,53.945 61.87,89.275c4.4,-8.38 17.44,-5.82 16.36,7.39c-0.99,12.71 -19.74,19.19 -19.23,17.78c-9.49,26.13 -35.52,45.82 -59,45.82c-0.14,0 -0.34,0 -0.34,0l-0.15,-160.265c0,0 0.35,0 0.49,0Z" style="fill:#ddb598;fill-rule:nonzero;"/><path d="M222.82,150.11c-3.16,-5.12 -8.05,-2.91 -9.29,-1.77c-1.28,1.23 -2.27,2.8 -1.53,5.81c0.45,1.72 2.23,1.87 1.83,4.43c-0.49,2.91 -1.83,3.06 -2.57,3.75c-0.74,0.64 -1.73,1.13 -2.17,2.36c-0.45,1.23 -0.55,2.52 -0.3,3.65c0.49,2.07 3.51,0.39 5.54,-0.49c1.38,-0.64 5.58,-4.24 6.67,-5.42c2.71,-3.06 3.95,-8.97 1.82,-12.32Z" style="fill:#ac8774;fill-rule:nonzero;"/><path d="M147.85,74.238c-21.15,0 -36.66,6.159 -46,18.278c-13.1,16.994 -12.6,42.914 -7.81,61.534c1.48,5.72 2.27,21.04 3.26,26.65c4.6,25.18 32.32,38.58 50.55,38.58c0,0 0.35,0 0.5,0l0,-145.042c-0.15,0 -0.3,0 -0.3,0l-0.2,0Z" style="fill:#e0bd9a;fill-rule:nonzero;"/><path d="M193.81,92.566c-9.29,-12.071 -24.61,-18.229 -45.46,-18.328l0,145.042c20.85,-0.25 45.8,-14.93 50.05,-38.58c1.04,-5.61 1.78,-20.93 3.26,-26.65c4.85,-18.57 5.34,-44.44 -7.85,-61.484Z" style="fill:#efd0ad;fill-rule:nonzero;"/><path d="M148.54,190.83" style="fill:#bc917b;fill-rule:nonzero;"/><path d="M148.54,190.83" style="fill:#bc917b;fill-rule:nonzero;"/><path d="M144.97,193.57c-0.1,-0.02 -0.2,-0.04 -0.3,-0.07c0.1,0.03 0.19,0.04 0.3,0.07Z" style="fill:#bc917b;fill-rule:nonzero;"/><path d="M148.54,193.38" style="fill:#bc917b;fill-rule:nonzero;"/><path d="M144.19,193.39c-0.1,-0.02 -0.18,-0.05 -0.27,-0.07l-0.01,0c0,0 0.1,0.03 0.28,0.07Z" style="fill:#bc917b;fill-rule:nonzero;"/><path d="M148.54,193.38" style="fill:#bc917b;fill-rule:nonzero;"/><path d="M136.34,174.75c-0.24,-5.01 9.18,-1.83 12.29,-1.67c2.45,0.12 9.92,-1.58 10.56,-1.14c4.4,2.97 -4.65,8.95 -10.72,8.95c-1.61,0 -11.98,-3.11 -12.13,-6.14Z" style="fill:#ddb598;fill-rule:nonzero;"/><path d="M130.38,74.601l-0.26,0.268l0.04,0.089c0.09,-0.134 0.14,-0.268 0.22,-0.357Z" style="fill:#432e1b;fill-rule:nonzero;"/><path d="M89.42,125.71" style="fill:#432e1b;fill-rule:nonzero;"/><path d="M148.81,193.39" style="fill:#ba907b;fill-rule:nonzero;"/><path d="M148.81,193.39" style="fill:#ba907b;fill-rule:nonzero;"/><path d="M145.15,190.63c-0.11,-0.03 -0.21,-0.05 -0.31,-0.07c0.1,0.02 0.19,0.04 0.31,0.07Z" style="fill:#ba907b;fill-rule:nonzero;"/><path d="M148.81,190.43" style="fill:#ba907b;fill-rule:nonzero;"/><path d="M144.34,190.45c-0.09,-0.03 -0.18,-0.06 -0.28,-0.08l-0.01,0c0,0 0.11,0.03 0.29,0.08Z" style="fill:#ba907b;fill-rule:nonzero;"/><path d="M148.81,190.43" style="fill:#ba907b;fill-rule:nonzero;"/><path d="M102.19,130.85c0,0 4.91,20.2 13.34,21.85c8.42,1.64 17.54,-1.63 17.54,-1.63c0,0 0.88,-23.74 -3.44,-26.84c-4.31,-3.12 -14.25,-7.62 -27.44,6.62Z" style="fill:#fff;fill-rule:nonzero;"/><path d="M133.09,151c0,0 -0.2,0.06 -0.63,0.24c-0.11,-7.28 -0.78,-17.28 -3.47,-19.19c-4.01,-2.95 -13.06,-7.09 -25.14,4.24c-1.1,-3.13 -1.65,-5.5 -1.65,-5.5c13.21,-14.27 23.16,-9.77 27.44,-6.66c4.32,3.12 3.45,26.87 3.45,26.87Z" style="fill:#d6b496;fill-rule:nonzero;"/><path d="M128.1,140.72c0,4.59 -3.72,8.32 -8.3,8.32c-4.58,0 -8.29,-3.73 -8.29,-8.32c0,-4.6 3.71,-8.32 8.29,-8.32c4.58,0 8.3,3.72 8.3,8.32Z" style="fill:#482315;fill-rule:nonzero;"/><path d="M119.42,146.26c-2.4,-0.2 -4.24,-2.62 -4.02,-5.29c0.22,-2.66 2.42,-4.75 4.82,-4.55c2.4,0.2 4.23,2.62 4.02,5.29c-0.22,2.66 -2.43,4.75 -4.82,4.55Z" style="fill:#7e3a22;fill-rule:nonzero;"/><path d="M119.62,145.3c-1.66,-0.14 -3.39,-1.98 -3.21,-4.24c0.19,-2.27 2.19,-3.8 3.86,-3.66c1.67,0.14 3.39,1.99 3.21,4.25c-0.19,2.26 -2.19,3.79 -3.86,3.65Z" style="fill:#211a10;fill-rule:nonzero;"/><path d="M118.27,139.72c-0.06,0.82 -0.9,1.42 -1.86,1.34c-0.96,-0.08 -1.68,-0.81 -1.62,-1.63c0.07,-0.82 0.9,-1.41 1.86,-1.33c0.96,0.07 1.69,0.8 1.62,1.62Z" style="fill:#fff;fill-rule:nonzero;"/><path d="M123.65,144.45c-0.03,0.4 -0.45,0.7 -0.93,0.66c-0.48,-0.03 -0.84,-0.4 -0.81,-0.81c0.04,-0.4 0.45,-0.7 0.93,-0.66c0.48,0.03 0.85,0.4 0.81,0.81Z" style="fill:#fff;fill-rule:nonzero;"/><path d="M148.94,190.34" style="fill:#ba907b;fill-rule:nonzero;"/><path d="M148.94,190.34" style="fill:#ba907b;fill-rule:nonzero;"/><path d="M145.28,193.01c-0.11,-0.02 -0.21,-0.04 -0.31,-0.07c0.1,0.02 0.19,0.04 0.31,0.07Z" style="fill:#ba907b;fill-rule:nonzero;"/><path d="M148.94,192.81" style="fill:#ba907b;fill-rule:nonzero;"/><path d="M144.47,192.83c-0.09,-0.03 -0.18,-0.05 -0.27,-0.08l-0.01,0c0,0 0.1,0.03 0.28,0.08Z" style="fill:#ba907b;fill-rule:nonzero;"/><path d="M148.94,192.81" style="fill:#ba907b;fill-rule:nonzero;"/><path d="M148.83,189.97" style="fill:#bc917b;fill-rule:nonzero;"/><path d="M148.83,189.97" style="fill:#bc917b;fill-rule:nonzero;"/><path d="M144.9,192.44c-0.11,-0.03 -0.22,-0.05 -0.33,-0.07c0.11,0.02 0.2,0.04 0.33,0.07Z" style="fill:#bc917b;fill-rule:nonzero;"/><path d="M148.83,192.23" style="fill:#bc917b;fill-rule:nonzero;"/><path d="M144.04,192.24c-0.1,-0.02 -0.2,-0.05 -0.3,-0.08l-0.01,0.01c0,0 0.11,0.03 0.31,0.07Z" style="fill:#bc917b;fill-rule:nonzero;"/><path d="M148.83,192.23" style="fill:#bc917b;fill-rule:nonzero;"/><path d="M148.58,189.13" style="fill:#bc917b;fill-rule:nonzero;"/><path d="M148.58,189.13" style="fill:#bc917b;fill-rule:nonzero;"/><path d="M144.65,191.59c-0.11,-0.02 -0.22,-0.04 -0.33,-0.07c0.11,0.03 0.21,0.05 0.33,0.07Z" style="fill:#bc917b;fill-rule:nonzero;"/><path d="M148.58,191.38" style="fill:#bc917b;fill-rule:nonzero;"/><path d="M143.79,191.4c-0.1,-0.03 -0.2,-0.06 -0.3,-0.08l-0.01,0c0,0 0.12,0.03 0.31,0.08Z" style="fill:#bc917b;fill-rule:nonzero;"/><path d="M148.58,191.38" style="fill:#bc917b;fill-rule:nonzero;"/><path d="M149.22,188.91" style="fill:#bc917b;fill-rule:nonzero;"/><path d="M149.22,188.91" style="fill:#bc917b;fill-rule:nonzero;"/><path d="M145.42,191.48c-0.1,-0.03 -0.21,-0.05 -0.32,-0.07c0.11,0.02 0.2,0.04 0.32,0.07Z" style="fill:#bc917b;fill-rule:nonzero;"/><path d="M149.22,191.27" style="fill:#bc917b;fill-rule:nonzero;"/><path d="M144.59,191.29c-0.1,-0.02 -0.19,-0.05 -0.29,-0.08l-0.01,0c0,0 0.11,0.04 0.3,0.08Z" style="fill:#bc917b;fill-rule:nonzero;"/><path d="M149.22,191.27" style="fill:#bc917b;fill-rule:nonzero;"/><path d="M195,130.16c0,0 -4.9,20.2 -13.33,21.85c-8.43,1.65 -17.55,-1.63 -17.55,-1.63c0,0 -0.87,-23.74 3.45,-26.84c4.31,-3.11 14.25,-7.62 27.43,6.62Z" style="fill:#fff;fill-rule:nonzero;"/><path d="M164.11,150.32c0,0 0.19,0.05 0.63,0.23c0.11,-7.28 0.78,-17.28 3.47,-19.19c4.01,-2.94 13.05,-7.09 25.14,4.24c1.1,-3.13 1.65,-5.5 1.65,-5.5c-13.22,-14.27 -23.16,-9.77 -27.44,-6.65c-4.32,3.11 -3.45,26.87 -3.45,26.87Z" style="fill:#d6b496;fill-rule:nonzero;"/><path d="M169.1,140.03c0,4.6 3.71,8.32 8.29,8.32c4.58,0 8.3,-3.72 8.3,-8.32c0,-4.59 -3.72,-8.32 -8.3,-8.32c-4.58,0 -8.29,3.73 -8.29,8.32Z" style="fill:#482315;fill-rule:nonzero;"/><path d="M177.78,145.57c2.39,-0.2 4.23,-2.62 4.01,-5.29c-0.21,-2.66 -2.42,-4.75 -4.81,-4.54c-2.4,0.19 -4.23,2.61 -4.02,5.28c0.22,2.66 2.43,4.75 4.82,4.55Z" style="fill:#7e3a22;fill-rule:nonzero;"/><path d="M177.57,144.61c1.67,-0.14 3.4,-1.98 3.22,-4.24c-0.19,-2.26 -2.19,-3.79 -3.86,-3.66c-1.67,0.15 -3.39,1.99 -3.21,4.25c0.18,2.26 2.19,3.79 3.85,3.65Z" style="fill:#211a10;fill-rule:nonzero;"/><path d="M178.92,139.04c0.07,0.81 0.91,1.41 1.87,1.33c0.95,-0.08 1.68,-0.81 1.61,-1.62c-0.07,-0.82 -0.9,-1.42 -1.86,-1.34c-0.96,0.08 -1.68,0.81 -1.62,1.63Z" style="fill:#fff;fill-rule:nonzero;"/><path d="M173.55,143.76c0.03,0.41 0.45,0.71 0.93,0.67c0.48,-0.04 0.84,-0.41 0.81,-0.82c-0.04,-0.4 -0.46,-0.7 -0.93,-0.66c-0.49,0.04 -0.85,0.4 -0.81,0.81Z" style="fill:#fff;fill-rule:nonzero;"/><path d="M138.14,130.53c-0.07,-0.1 -1.6,-2.43 -4.72,-4.84c-1.96,-1.51 -3.88,-2.65 -5.87,-3.51c-2.42,-1.02 -5.03,-1.74 -7.55,-2.08c-2.29,-0.26 -4.82,-0.19 -7.77,0.21c-2.26,0.43 -4.46,1.1 -6.32,1.93c-1.33,0.46 -2.38,1.1 -3.23,1.62c-0.32,0.2 -0.61,0.38 -0.91,0.54l-4.03,2.54l4.64,-1.09c0.22,-0.06 0.45,-0.12 0.7,-0.19c0.96,-0.25 2.16,-0.57 3.56,-0.78c0.33,-0.04 0.66,-0.11 1,-0.18c0.58,-0.12 1.19,-0.24 1.82,-0.27c0.7,-0.04 1.43,-0.1 2.18,-0.15l0.97,-0.07c2.57,-0.03 4.74,0.16 6.67,0.61c2.11,0.36 4.27,1.04 6.26,1.97c1.87,0.9 3.67,1.79 5.07,2.82c2.84,1.9 4.41,3.48 4.43,3.5c0.39,0.39 0.91,0.59 1.43,0.59c0.38,0 0.76,-0.1 1.1,-0.32c0.93,-0.62 1.19,-1.88 0.6,-2.79l-0.03,-0.06Z" style="fill:#030405;fill-rule:nonzero;"/><path d="M195.83,124.38c-0.26,-0.14 -0.56,-0.32 -0.88,-0.52c-0.85,-0.52 -1.9,-1.16 -3.19,-1.61c-1.9,-0.84 -4.1,-1.51 -6.38,-1.95c-2.93,-0.39 -5.46,-0.46 -7.76,-0.2c-2.51,0.34 -5.12,1.06 -7.54,2.08c-1.96,0.85 -3.94,2.03 -5.87,3.51c-3.06,2.36 -4.59,4.65 -4.71,4.83l-0.03,0.04c-0.51,0.8 -0.4,1.87 0.27,2.55c0.38,0.38 0.89,0.6 1.43,0.6c0.54,-0.01 1.04,-0.22 1.42,-0.6l0.02,-0.02c0.15,-0.15 1.68,-1.65 4.43,-3.49c1.38,-1.02 3.18,-1.91 5.05,-2.81c1.99,-0.93 4.16,-1.61 6.29,-1.98c1.9,-0.44 4.07,-0.63 6.61,-0.6l1.02,0.07c0.75,0.05 1.47,0.11 2.17,0.15c0.63,0.03 1.23,0.15 1.81,0.27c0.34,0.07 0.68,0.14 1,0.18c1.4,0.21 2.6,0.53 3.56,0.78c0.25,0.07 0.48,0.13 0.71,0.19l4.63,1.09l-4.06,-2.56Z" style="fill:#030405;fill-rule:nonzero;"/><path d="M147.65,198.29" style="fill:#be927b;fill-rule:nonzero;"/><path d="M147.65,198.29" style="fill:#be927b;fill-rule:nonzero;"/><path d="M143.82,195.4c-0.11,-0.02 -0.21,-0.04 -0.32,-0.07c0.1,0.02 0.2,0.04 0.32,0.07Z" style="fill:#be927b;fill-rule:nonzero;"/><path d="M147.65,195.19" style="fill:#be927b;fill-rule:nonzero;"/><path d="M142.98,195.21c-0.1,-0.02 -0.19,-0.05 -0.29,-0.08l-0.01,0c0,0 0.11,0.03 0.3,0.08Z" style="fill:#be927b;fill-rule:nonzero;"/><path d="M147.65,195.19" style="fill:#be927b;fill-rule:nonzero;"/><path d="M136.46,199.57c-0.24,-3.25 9.02,0.68 12.06,0.77c2.42,0.08 9.71,-0.48 10.38,-0.74c5.1,-1.91 -0.28,5.43 -10.54,5.82c-4.69,0.18 -11.76,-3.88 -11.9,-5.85Z" style="fill:#f0d2ad;fill-rule:nonzero;"/><path d="M166.6,193.31c-2.51,-0.13 -5.09,1.97 -8.11,1.65c-0.13,-0.06 -0.19,-0.06 -0.32,-0.06c-0.69,-0.12 -1.38,0 -2.14,0.19c-0.94,0.19 -1.88,0.58 -2.77,0.88c-1.51,0.5 -3.21,0.89 -4.96,0.76l0,0.01l-0.1,-0.01l-0.1,0.01l0,-0.01c-1.75,0.13 -3.45,-0.26 -4.97,-0.76c-0.88,-0.3 -1.83,-0.69 -2.77,-0.88c-0.75,-0.19 -1.44,-0.31 -2.14,-0.19c-0.13,0 -0.19,0 -0.31,0.06c-3.02,0.32 -5.6,-1.78 -8.12,-1.65c-0.69,0.06 -1.7,-0.13 -2.27,-0.13c0.13,0.06 0.26,0.13 0.38,0.19c7.17,3.5 13.35,10.07 20.2,9.86l0.2,0c6.84,0.21 13.03,-6.36 20.19,-9.86c0.13,-0.06 0.26,-0.13 0.38,-0.19c-0.56,0 -1.57,0.19 -2.27,0.13Z" style="fill:#dcbf9e;fill-rule:nonzero;"/><path d="M168.71,193.11c0,0 -7.29,-2.82 -12.47,-1.17c0,0 -1.93,0.76 -3.93,1.22c-1.21,0.47 -2.69,0.61 -4.11,0.55c-1.09,-0.04 -2.13,-0.18 -2.98,-0.33c-0.28,-0.04 -0.56,-0.1 -0.85,-0.16c-0.13,-0.03 -0.22,-0.05 -0.33,-0.07c-0.17,-0.04 -0.34,-0.08 -0.52,-0.12c-0.19,-0.05 -0.3,-0.08 -0.3,-0.08l0.01,0c-1.65,-0.45 -3.08,-1.01 -3.08,-1.01c-5.18,-1.65 -12.46,1.17 -12.46,1.17c-0.1,0.04 -0.17,0.07 -0.17,0.07c0.57,0 1.58,0.19 2.27,0.13c2.51,-0.13 5.1,1.97 8.12,1.65c0.12,-0.06 0.18,-0.06 0.31,-0.06c0.7,-0.12 1.39,0 2.14,0.19c0.94,0.19 1.89,0.58 2.77,0.88c1.52,0.5 3.22,0.89 4.97,0.76l0,0.01l0.1,-0.01l0.1,0.01l0,-0.01c1.75,0.13 3.45,-0.26 4.96,-0.76c0.89,-0.3 1.83,-0.69 2.77,-0.88c0.76,-0.19 1.45,-0.31 2.14,-0.19c0.13,0 0.19,0 0.32,0.06c3.02,0.32 5.6,-1.78 8.11,-1.65c0.7,0.06 1.71,-0.13 2.27,-0.13c0,0 -0.06,-0.03 -0.16,-0.07Z" style="fill:#c69f83;fill-rule:nonzero;"/><path d="M135.96,194.82c0.13,0.03 13.65,4.16 24.23,0.09l-1.22,-0.82l-14.29,0l-8.72,0.73Z" style="fill:#c69f83;fill-rule:nonzero;"/><path d="M140.75,252.57l0,47.4l-44.6,0c0.25,-3.62 0.47,-9.48 0.51,-17.22l-11.41,0c-0.13,-11.25 8.84,-30.47 8.84,-30.47c0.87,-1.17 1.75,-2.24 2.64,-3.27c2.32,-2.67 4.73,-4.86 7.11,-6.63c0.27,-0.28 0.6,-0.49 0.89,-0.67c0.76,-0.56 1.54,-1.07 2.3,-1.57c3.46,-2.2 6.73,-3.6 9.28,-4.46c0.6,-0.23 1.15,-0.39 1.69,-0.54c2.39,-0.66 3.87,-0.84 3.87,-0.84c1.27,0 2.36,-0.47 3.35,-1.28l0.04,-0.04c0.33,-0.31 0.66,-0.68 0.99,-1.07c0.12,0.11 0.37,0.43 0.58,1.11c0.92,2.27 6.35,13.81 13.92,19.55Z" style="fill:#3a2f34;fill-rule:nonzero;"/><path d="M201.78,282.75c0.04,7.72 0.33,13.62 0.57,17.22l-44.79,0l0,-47.3c2.43,-1.79 4.63,-4.22 6.53,-6.73c4.13,-5.43 6.91,-11.35 7.55,-12.92c0.22,-0.68 0.47,-1 0.61,-1.11c0.31,0.39 0.64,0.76 0.97,1.07l0.04,0.04c0.97,0.81 2.1,1.28 3.34,1.28c0,0 1.41,0.14 3.68,0.76c0.49,0.19 1.05,0.35 1.66,0.56c3.11,1.02 7.33,2.81 11.73,6c0.29,0.23 0.62,0.44 0.87,0.7c3.35,2.47 6.74,5.7 9.83,9.96c0,0 9.14,13.25 8.72,30.47l-11.31,0Z" style="fill:#3a2f34;fill-rule:nonzero;"/><path d="M140.75,270.72c0,0 7.04,8.75 16.81,0l0,29.25l-16.81,0l0,-29.25Z" style="fill:#8868ad;fill-rule:nonzero;"/><path d="M226.21,164.89l-6.96,-10.5c-0.65,-0.97 0.05,-2.28 1.22,-2.28l1.07,0c0.79,0 1.54,0.31 2.09,0.87l6.43,6.43c-0.74,2.49 -2.46,4.33 -3.85,5.48Z" style="fill:#3a2f34;fill-rule:nonzero;"/><path d="M220.75,86.351c-1.44,-5.167 -2.89,-9.166 -2.9,-9.192c0.01,0.01 0.21,0.048 2.19,0.048c12.28,-0.026 19.2,-11.784 19.2,-11.784c0,0 -4.63,6.709 -20.56,1.479c-15.56,-5.1 -15.17,-21.72 -37.54,-30.993c-11.45,-4.75 -18.28,-4.13 -22.25,-2.397c4.02,-3.267 12.26,-2.978 12.26,-2.978c0,0 -10.18,-5.552 -25.91,-0.572c-11.05,3.504 -17.66,7.491 -21.38,10.351l6.2,-5.859c0,0 -4.39,1.547 -10.6,4.687c4.22,-8.133 12.04,-17.045 12.04,-17.045c-19.93,7.36 -36.43,33.838 -36.43,33.838c1.58,-9.985 5.07,-19.119 5.07,-19.119c-34.01,25.089 -28.73,70.395 -28.73,70.395c0,17.15 6.82,34.34 11.3,39.45c4.48,5.1 3.04,12.51 4.38,12.51c0,0 2.69,0.09 2.79,-12.84c0.12,-1.65 0.4,-3.68 1,-5.45c0,0 4.15,-72.296 54.28,-51.266c0,0 20.3,8.675 36.1,10.044c11.75,1.018 21.42,9.832 23.95,21.362c1.2,5.48 1.5,10.3 0.94,13.11c-3.35,16.78 1.32,26.44 3.11,25.99c0,0 0.07,-4.27 1.69,-8.06c4.81,-11.31 8.86,-3.45 9.6,-18.79c0.6,-12.31 2.11,-19.27 2.71,-25.51c3.81,3.02 9.51,5.16 18.03,5.33c0,0 -12.05,-3.7 -20.54,-26.739Z" style="fill:#faa830;fill-rule:nonzero;"/><path d="M165.62,136.23c-0.66,0.3 -1.29,0.66 -1.91,1.06c-2.63,1.71 -4.58,3.9 -5.14,7.04c-0.61,3.49 -0.05,6.87 1.03,10.17c0.07,0.22 0.14,0.44 0.22,0.66c0.14,0.41 0.28,0.83 0.44,1.23c-0.32,0.26 -0.65,0.5 -0.98,0.74c-0.76,0.52 -1.8,0.22 -2.2,-0.61c-0.08,-0.17 -0.16,-0.35 -0.25,-0.53c-1.19,-2.62 -2.14,-5.35 -2.8,-8.19c-0.14,-0.58 -0.05,-1.3 0.19,-1.84c1.04,-2.31 0.26,-4.06 -2.25,-4.65c-0.91,-0.21 -1.83,-0.33 -2.75,-0.34l0,-5c0.52,0 1.04,0.03 1.56,0.07c1.21,0.08 2.41,0.26 3.6,0.5c2.15,0.44 4.17,0.26 6.06,-0.71c1.37,-0.69 2.74,-1.29 4.12,-1.81l0.04,0.07c0.39,0.69 0.72,1.4 1.02,2.14Z" style="fill:#fff;fill-rule:nonzero;"/><path d="M199.69,169.24c0.55,-5.82 1.15,-12 1.97,-15.19c0.25,-0.95 0.49,-1.92 0.71,-2.91c1,0.05 2,0.1 3,0.17c0.56,3.89 1.61,6.57 2.56,7.89c-1.68,3.52 -4.26,7.2 -8.24,10.04Z" style="fill:#cd837e;fill-rule:nonzero;"/><path d="M184.49,173.98c-2.92,0 -5.84,-0.47 -8.64,-1.4c-5.74,-1.92 -12.8,-6.17 -16.17,-15.56c0.1,-0.03 0.21,-0.07 0.32,-0.1c0.32,-0.09 0.64,-0.19 0.96,-0.29c0.11,-0.03 0.22,-0.06 0.33,-0.09c10.95,-3.23 23.3,-5.48 36.43,-5.49l0.05,0c1.52,0 3.06,0.03 4.6,0.09c-0.22,0.99 -0.46,1.96 -0.71,2.91c-0.82,3.19 -1.42,9.37 -1.97,15.19c-1.69,1.21 -3.64,2.26 -5.88,3.09c-3,1.1 -6.16,1.65 -9.32,1.65Z" style="fill:#d69188;fill-rule:nonzero;"/><path d="M207.93,159.2c-0.95,-1.32 -2,-4 -2.56,-7.89c1.54,0.1 3.08,0.24 4.63,0.41c0.14,0.02 0.28,0.03 0.42,0.05c-0.44,2.06 -1.19,4.7 -2.49,7.43Z" style="fill:#dd7a4d;fill-rule:nonzero;"/><path d="M205.37,151.31c-1,-0.07 -2,-0.12 -3,-0.17c1.33,-5.85 2.21,-12.3 2.39,-18.9c0.52,0.27 1.04,0.56 1.55,0.86c-0.04,0.37 -0.1,0.71 -0.16,1.03c-1.41,7.06 -1.4,12.86 -0.78,17.18Z" style="fill:url(#_Linear1);"/><path d="M159.68,157.02c-0.02,-0.05 -0.04,-0.1 -0.05,-0.14c0.21,-0.16 0.42,-0.32 0.63,-0.49c-0.16,-0.4 -0.3,-0.82 -0.44,-1.23c-0.08,-0.22 -0.15,-0.44 -0.22,-0.66c-1.08,-3.3 -1.64,-6.68 -1.03,-10.17c0.56,-3.14 2.51,-5.33 5.14,-7.04c0.18,-0.12 0.37,-0.24 0.57,-0.36c-0.41,6.73 -0.17,13.39 -0.17,13.39l0.01,0c0,0.04 0,0.06 0,0.06c0,0 5.83,2.09 12.47,2.09c1.66,0 3.39,-0.13 5.08,-0.46c8.43,-1.65 13.33,-21.85 13.33,-21.85c0,0 -0.01,-0.01 -0.01,-0.02c0,-0.03 0.01,-0.04 0.01,-0.04c-0.57,-0.62 -1.14,-1.2 -1.69,-1.75c3.6,0.73 7.67,1.93 11.45,3.89c-0.18,6.6 -1.06,13.05 -2.39,18.9c-1.54,-0.06 -3.08,-0.09 -4.6,-0.09l-0.01,0c-0.02,0 -0.03,0 -0.04,0c-13.13,0.01 -25.48,2.26 -36.43,5.49c-0.11,0.03 -0.22,0.06 -0.33,0.09c-0.32,0.1 -0.64,0.2 -0.96,0.29c-0.11,0.03 -0.22,0.07 -0.32,0.1Zm0.67,-21.14c1.02,-1.47 2.45,-2.98 4.43,-4.32c-0.11,0.8 -0.2,1.64 -0.28,2.48c-1.36,0.52 -2.71,1.11 -4.06,1.79c-0.03,0.02 -0.06,0.04 -0.09,0.05Z" style="fill:url(#_Linear2);"/><path d="M176.59,152.47c-6.64,0 -12.47,-2.09 -12.47,-2.09c0,0 0,-0.02 0,-0.06c0.04,0.01 0.24,0.08 0.62,0.23c0.11,-7.28 0.78,-17.28 3.47,-19.19c2,-1.47 5.24,-3.23 9.49,-3.23c4.29,0 9.58,1.79 15.65,7.47c1.01,-2.88 1.56,-5.11 1.64,-5.46c0,0.01 0.01,0.02 0.01,0.02c0,0 -4.9,20.2 -13.33,21.85c-1.69,0.33 -3.42,0.46 -5.08,0.46Zm0.8,-20.76c-4.58,0 -8.29,3.73 -8.29,8.32c0,4.6 3.71,8.32 8.29,8.32c4.58,0 8.3,-3.72 8.3,-8.32c0,-4.59 -3.72,-8.32 -8.3,-8.32Z" style="fill:url(#_Linear3);"/><path d="M164.74,150.55c-0.38,-0.15 -0.58,-0.22 -0.62,-0.23l-0.01,0c0,0 -0.24,-6.66 0.17,-13.39c0.44,-0.25 0.88,-0.49 1.34,-0.7c-0.3,-0.74 -0.63,-1.45 -1.02,-2.14l-0.04,-0.07c-0.02,0 -0.04,0.01 -0.06,0.02c0.08,-0.84 0.17,-1.68 0.28,-2.48c3.63,-2.46 9.14,-4.34 17.49,-4.34c0.18,0 0.37,0 0.55,0.01c0,0 0.04,0 0.11,0c0.72,0 5.03,0.04 10.38,1.12c0.55,0.55 1.12,1.13 1.69,1.75c0,0 -0.01,0.01 -0.01,0.04c-0.08,0.35 -0.63,2.58 -1.64,5.46c-6.07,-5.68 -11.36,-7.47 -15.65,-7.47c-4.25,0 -7.49,1.76 -9.49,3.23c-2.69,1.91 -3.36,11.91 -3.47,19.19Z" style="fill:url(#_Linear4);"/><path d="M177.39,148.35c-4.58,0 -8.29,-3.72 -8.29,-8.32c0,-4.59 3.71,-8.32 8.29,-8.32c4.58,0 8.3,3.73 8.3,8.32c0,4.6 -3.72,8.32 -8.3,8.32Zm-2.8,-3.94c0.8,0.73 1.81,1.18 2.87,1.18c0.11,0 0.21,-0.01 0.32,-0.02c2.39,-0.2 4.23,-2.62 4.01,-5.29c0,-0.09 -0.01,-0.18 -0.02,-0.27c0.42,-0.3 0.67,-0.77 0.63,-1.26c-0.06,-0.77 -0.8,-1.35 -1.69,-1.35c-0.02,0 -0.05,0 -0.07,0c-0.84,-1.03 -2.05,-1.68 -3.34,-1.68c-0.11,0 -0.22,0.01 -0.32,0.02c-2.4,0.19 -4.23,2.61 -4.02,5.28c0.06,0.83 0.33,1.61 0.73,2.27c-0.1,0.14 -0.16,0.3 -0.14,0.47c0.03,0.38 0.4,0.67 0.84,0.67c0.03,0 0.06,0 0.09,0c0.04,-0.01 0.08,-0.01 0.11,-0.02Z" style="fill:url(#_Linear5);"/><path d="M177.46,145.59c-1.06,0 -2.07,-0.45 -2.87,-1.18c0.34,-0.07 0.6,-0.3 0.68,-0.58c0.63,0.5 1.38,0.79 2.09,0.79c0.07,0 0.14,0 0.21,-0.01c1.67,-0.14 3.4,-1.98 3.22,-4.24c0.37,-0.03 0.71,-0.16 0.98,-0.36c0.01,0.09 0.02,0.18 0.02,0.27c0.22,2.67 -1.62,5.09 -4.01,5.29c-0.11,0.01 -0.21,0.02 -0.32,0.02Zm-3.77,-2.3c-0.4,-0.66 -0.67,-1.44 -0.73,-2.27c-0.21,-2.67 1.62,-5.09 4.02,-5.28c0.1,-0.01 0.21,-0.02 0.32,-0.02c1.29,0 2.5,0.65 3.34,1.68c-0.03,0 -0.06,0.01 -0.1,0.01c-0.38,0.03 -0.72,0.16 -0.99,0.36c-0.69,-0.67 -1.58,-1.06 -2.41,-1.06c-0.07,0 -0.14,0 -0.21,0c-1.67,0.15 -3.39,1.99 -3.21,4.25c0.06,0.75 0.33,1.43 0.71,1.99c-0.02,0 -0.05,0 -0.07,0c-0.29,0.02 -0.53,0.15 -0.67,0.34Z" style="fill:url(#_Linear6);"/><path d="M177.36,144.62c-0.71,0 -1.46,-0.29 -2.09,-0.79c0.01,-0.07 0.02,-0.14 0.02,-0.22c-0.04,-0.38 -0.41,-0.66 -0.85,-0.66l-0.01,0c-0.38,-0.56 -0.65,-1.24 -0.71,-1.99c-0.18,-2.26 1.54,-4.1 3.21,-4.25c0.07,0 0.14,0 0.21,0c0.83,0 1.72,0.39 2.41,1.06c-0.42,0.31 -0.67,0.77 -0.63,1.27c0.07,0.76 0.81,1.34 1.7,1.34c0.05,0 0.11,0 0.17,-0.01c0.18,2.26 -1.55,4.1 -3.22,4.24c-0.07,0.01 -0.14,0.01 -0.21,0.01Z" style="fill:url(#_Linear7);"/><path d="M180.62,140.38c-0.89,0 -1.63,-0.58 -1.7,-1.34c-0.04,-0.5 0.21,-0.96 0.63,-1.27c0.27,-0.2 0.61,-0.33 0.99,-0.36c0.04,0 0.07,-0.01 0.1,-0.01c0.02,0 0.05,0 0.07,0c0.89,0 1.63,0.58 1.69,1.35c0.04,0.49 -0.21,0.96 -0.63,1.26c-0.27,0.2 -0.61,0.33 -0.98,0.36c-0.06,0.01 -0.12,0.01 -0.17,0.01Z" style="fill:url(#_Linear8);"/><path d="M174.39,144.43c-0.44,0 -0.81,-0.29 -0.84,-0.67c-0.02,-0.17 0.04,-0.33 0.14,-0.47c0.14,-0.19 0.38,-0.32 0.67,-0.34l0.08,0c0.44,0 0.81,0.28 0.85,0.66c0,0.08 -0.01,0.15 -0.02,0.22c-0.08,0.28 -0.34,0.51 -0.68,0.58c-0.03,0.01 -0.07,0.01 -0.11,0.02c-0.03,0 -0.06,0 -0.09,0Z" style="fill:url(#_Linear9);"/><path d="M210.42,151.77c-0.14,-0.02 -0.28,-0.03 -0.42,-0.05c-1.55,-0.17 -3.09,-0.31 -4.63,-0.41c-0.62,-4.32 -0.63,-10.12 0.78,-17.18c0.06,-0.32 0.12,-0.66 0.16,-1.03c2.1,1.25 4.08,2.77 5.77,4.61l-1.07,9.87c0,0 -0.06,1.68 -0.59,4.19Z" style="fill:url(#_Linear10);"/><path d="M159.63,156.88c-1.33,-3.75 -2.07,-8.32 -1.92,-13.87c0,0 0.08,-3.45 2.64,-7.13c0.03,-0.01 0.06,-0.03 0.09,-0.05c1.35,-0.68 2.7,-1.27 4.06,-1.79c0.02,-0.01 0.04,-0.02 0.06,-0.02l0.04,0.07c0.39,0.69 0.72,1.4 1.02,2.14c-0.46,0.21 -0.9,0.45 -1.34,0.7c-0.2,0.12 -0.39,0.24 -0.57,0.36c-2.63,1.71 -4.58,3.9 -5.14,7.04c-0.61,3.49 -0.05,6.87 1.03,10.17c0.07,0.22 0.14,0.44 0.22,0.66c0.14,0.41 0.28,0.83 0.44,1.23c-0.21,0.17 -0.42,0.33 -0.63,0.49Z" style="fill:url(#_Linear11);"/><path d="M205.37,151.31c-1,-0.07 -2,-0.12 -3,-0.17c1,0.05 2,0.1 3,0.17Z" style="fill:url(#_Linear12);"/><path d="M202.37,151.14c-1.54,-0.06 -3.08,-0.09 -4.6,-0.09c1.52,0 3.06,0.03 4.6,0.09Z" style="fill:url(#_Linear13);"/><path d="M210,151.72c-1.55,-0.17 -3.09,-0.31 -4.63,-0.41c1.54,0.1 3.08,0.24 4.63,0.41Z" style="fill:url(#_Linear14);"/><path d="M149.22,135.52l0,2.56l0.11,0c0.43,-0.03 0.87,-0.03 1.31,0.02l0.14,-2.06l0.04,-0.52l-1.6,0Z" style="fill:#232327;fill-rule:nonzero;"/><path d="M220.13,139.91c0,0 -5.04,0.39 -5.87,5.98c-0.17,1.17 -1.14,2.06 -2.33,2.06l-0.01,0c-0.71,0 -1.28,-0.56 -1.32,-1.27c-0.24,-4.21 -3.12,-16.31 -20.46,-18.23c0,0 -16.08,-1.86 -25.54,5.64c-2.89,2.3 -5.16,5.47 -6.16,9.84c0,0 -3.86,-5.49 -9.11,-5.85l-0.11,-0.01l0,-2.55l1.3,0c0,0 6.58,-0.61 12.43,-5.25c0,0 14.04,-8.03 28.85,-5.22c1.56,0.3 3.08,0.77 4.55,1.35c4.35,1.71 16.59,6.32 22.57,6.5c1.24,0.04 2.26,1 2.35,2.24c0.13,1.95 0.06,4.42 -1.14,4.77Z" style="fill:#fff;fill-rule:nonzero;"/><path d="M159.63,156.88c0,0 -2.56,-8.29 -1.19,-12.95l-1.02,-2.02l-1.51,5.52l1.86,9.13l1.86,0.32Z" style="fill:#fff;fill-rule:nonzero;"/><path d="M132.83,136.22c0.65,0.31 1.29,0.66 1.91,1.07c2.62,1.71 4.57,3.9 5.13,7.04c0.61,3.48 0.05,6.87 -1.02,10.17c-0.08,0.22 -0.15,0.44 -0.22,0.66c-0.15,0.41 -0.29,0.82 -0.44,1.23c0.31,0.26 0.64,0.5 0.98,0.74c0.75,0.52 1.8,0.22 2.19,-0.61c0.08,-0.18 0.17,-0.35 0.25,-0.53c1.19,-2.62 2.14,-5.35 2.81,-8.2c0.13,-0.57 0.04,-1.29 -0.2,-1.84c-1.04,-2.3 -0.26,-4.05 2.25,-4.64c0.91,-0.21 1.83,-0.33 2.75,-0.35l0,-5c-0.52,0.01 -1.04,0.03 -1.56,0.07c-1.21,0.09 -2.41,0.26 -3.6,0.51c-2.15,0.43 -4.17,0.25 -6.06,-0.71c-1.37,-0.69 -2.74,-1.3 -4.12,-1.82l-0.04,0.08c-0.39,0.69 -0.72,1.4 -1.01,2.13Z" style="fill:#fff;fill-rule:nonzero;"/><path d="M95.79,166.74c-3.5,-3.47 -5.54,-7.6 -6.72,-11.13c0.15,-0.68 0.29,-1.48 0.42,-2.43c1.37,-0.26 2.76,-0.5 4.16,-0.71c0.13,0.53 0.26,1.06 0.39,1.58c0.71,2.74 1.26,7.67 1.75,12.69Z" style="fill:#c77b75;fill-rule:nonzero;"/><path d="M113.96,173.98c-3.17,0 -6.33,-0.55 -9.33,-1.65c-3.67,-1.36 -6.56,-3.34 -8.84,-5.59c-0.49,-5.02 -1.04,-9.95 -1.75,-12.69c-0.13,-0.52 -0.26,-1.05 -0.39,-1.58c5.88,-0.9 12,-1.42 18.3,-1.42l0.29,0c1.03,0.84 2.12,1.42 3.29,1.65c1.69,0.33 3.41,0.46 5.08,0.46c2.95,0 5.74,-0.41 7.93,-0.87c3.27,0.49 6.57,1.15 9.89,1.98c0.08,0.02 0.16,0.05 0.24,0.07c0.07,0.01 0.14,0.03 0.21,0.05c-0.01,0.03 -0.02,0.07 -0.03,0.11c-0.08,0.22 -0.15,0.44 -0.22,0.66c-0.15,0.41 -0.29,0.82 -0.44,1.23c0.2,0.17 0.41,0.33 0.62,0.48c-3.35,9.5 -10.45,13.78 -16.22,15.71c-2.8,0.93 -5.72,1.4 -8.63,1.4Z" style="fill:#ce877f;fill-rule:nonzero;"/><path d="M120.61,153.16c-1.67,0 -3.39,-0.13 -5.08,-0.46c-1.17,-0.23 -2.26,-0.81 -3.29,-1.65c5.32,0.01 10.77,0.4 16.3,1.24c-2.19,0.46 -4.98,0.87 -7.93,0.87Z" style="fill:#dea8af;fill-rule:nonzero;"/><path d="M89.07,155.61c-0.26,-0.78 -0.48,-1.53 -0.66,-2.23c0.11,-0.02 0.21,-0.04 0.32,-0.06c0.02,-0.01 0.03,-0.01 0.05,-0.01c0.07,-0.02 0.15,-0.03 0.22,-0.04c0.15,-0.03 0.31,-0.06 0.46,-0.09c0.01,0 0.02,0 0.03,0c-0.13,0.95 -0.27,1.75 -0.42,2.43Z" style="fill:#dd7a4d;fill-rule:nonzero;"/><path d="M138.81,156.87c-0.21,-0.15 -0.42,-0.31 -0.62,-0.48c0.15,-0.41 0.29,-0.82 0.44,-1.23c0.07,-0.22 0.14,-0.44 0.22,-0.66c0.01,-0.04 0.02,-0.08 0.03,-0.11c0.08,0.02 0.16,0.04 0.23,0.06c0.14,0.03 0.28,0.07 0.42,0.11c-0.22,0.8 -0.45,1.57 -0.72,2.31Z" style="fill:#dea8af;fill-rule:nonzero;"/><path d="M89.49,153.18c0.22,-1.74 0.36,-3.97 0.39,-6.85c0.12,-1.65 0.4,-3.68 1,-5.45c0,0 0.08,-1.4 0.36,-3.76c0.42,5.38 1.27,10.58 2.41,15.35c-1.4,0.21 -2.79,0.45 -4.16,0.71Z" style="fill:url(#_Linear15);"/><path d="M138.88,154.39c-0.07,-0.02 -0.14,-0.04 -0.21,-0.05c-0.08,-0.02 -0.16,-0.05 -0.24,-0.07c-3.32,-0.83 -6.62,-1.49 -9.89,-1.98c2.74,-0.58 4.53,-1.22 4.53,-1.22c0,0 0.01,-0.02 0.01,-0.06l0.01,-0.01c0,0 0.44,-12.21 -0.89,-20.27c1.83,1.36 2.83,2.37 2.84,2.38c0.34,0.34 0.77,0.54 1.23,0.58c0.72,0.73 1.32,1.46 1.83,2.19c-0.03,-0.01 -0.07,-0.03 -0.1,-0.05c-1.37,-0.69 -2.74,-1.3 -4.12,-1.82l-0.04,0.08c-0.39,0.69 -0.72,1.4 -1.01,2.13c0.65,0.31 1.29,0.66 1.91,1.07c2.62,1.71 4.57,3.9 5.13,7.04c0.61,3.44 0.06,6.79 -0.99,10.06Zm-45.23,-1.92c-1.14,-4.77 -1.99,-9.97 -2.41,-15.35c0.12,-1.07 0.29,-2.35 0.5,-3.78c4.06,-2.5 8.65,-3.97 12.72,-4.85c-0.74,0.71 -1.5,1.47 -2.26,2.3c0,0 0,0.01 0.01,0.04c-0.01,0.01 -0.01,0.01 -0.02,0.02c0,0 3.65,15 10.05,20.2c-0.08,0 -0.16,0 -0.24,0c-0.01,0 -0.02,0 -0.02,0c-0.01,0 -0.02,0 -0.03,0c-6.3,0 -12.42,0.52 -18.3,1.42Z" style="fill:url(#_Linear16);"/><path d="M128.54,152.29c-5.53,-0.84 -10.98,-1.23 -16.3,-1.24c-6.4,-5.2 -10.05,-20.2 -10.05,-20.2c0.01,-0.01 0.01,-0.01 0.02,-0.02c0.08,0.34 0.63,2.58 1.64,5.46c6.06,-5.69 11.36,-7.47 15.64,-7.47c4.25,0 7.5,1.76 9.5,3.23c2.69,1.91 3.36,11.91 3.47,19.19c0.38,-0.16 0.58,-0.22 0.62,-0.23c0,0.04 -0.01,0.06 -0.01,0.06c0,0 -1.79,0.64 -4.53,1.22Zm-8.74,-19.89c-4.58,0 -8.29,3.72 -8.29,8.32c0,4.59 3.71,8.32 8.29,8.32c4.58,0 8.3,-3.73 8.3,-8.32c0,-4.6 -3.72,-8.32 -8.3,-8.32Z" style="fill:url(#_Linear17);"/><path d="M132.46,151.24c-0.11,-7.28 -0.78,-17.28 -3.47,-19.19c-2,-1.47 -5.25,-3.23 -9.5,-3.23c-4.28,0 -9.58,1.78 -15.64,7.47c-1.01,-2.88 -1.56,-5.12 -1.64,-5.46c-0.01,-0.03 -0.01,-0.04 -0.01,-0.04c0.76,-0.83 1.52,-1.59 2.26,-2.3c5.66,-1.21 10.3,-1.27 11.05,-1.27l0.67,0c7.03,0 12.04,1.33 15.63,3.22c0.13,0.1 0.26,0.2 0.39,0.29c1.33,8.06 0.89,20.27 0.89,20.27l-0.01,0.01c-0.04,0.01 -0.24,0.07 -0.62,0.23Z" style="fill:url(#_Linear18);"/><path d="M119.8,149.04c-4.58,0 -8.29,-3.73 -8.29,-8.32c0,-4.6 3.71,-8.32 8.29,-8.32c4.58,0 8.3,3.72 8.3,8.32c0,4.59 -3.72,8.32 -8.3,8.32Zm-4.37,-8.34c-0.01,0.09 -0.02,0.18 -0.03,0.27c-0.22,2.67 1.62,5.09 4.02,5.29c0.1,0.01 0.21,0.01 0.32,0.01c1.06,0 2.07,-0.44 2.86,-1.17c0.04,0.01 0.08,0.01 0.12,0.01c0.03,0.01 0.06,0.01 0.09,0.01c0.44,0 0.81,-0.29 0.84,-0.67c0.02,-0.17 -0.04,-0.33 -0.14,-0.47c0.4,-0.67 0.66,-1.44 0.73,-2.27c0.21,-2.67 -1.62,-5.09 -4.02,-5.29c-0.11,-0.01 -0.21,-0.01 -0.32,-0.01c-1.29,0 -2.5,0.65 -3.34,1.68c-0.03,0 -0.05,0 -0.08,0c-0.88,0 -1.62,0.57 -1.69,1.34c-0.04,0.5 0.22,0.97 0.64,1.27Z" style="fill:url(#_Linear19);"/><path d="M119.74,146.27c-0.11,0 -0.22,0 -0.32,-0.01c-2.4,-0.2 -4.24,-2.62 -4.02,-5.29c0.01,-0.09 0.02,-0.18 0.03,-0.27c0.27,0.2 0.61,0.33 0.98,0.36c-0.18,2.26 1.55,4.1 3.21,4.24c0.07,0 0.14,0.01 0.22,0.01c0.7,0 1.45,-0.29 2.09,-0.79c0.08,0.28 0.34,0.51 0.67,0.58c-0.79,0.73 -1.8,1.17 -2.86,1.17Zm3.77,-2.29c-0.15,-0.19 -0.39,-0.32 -0.67,-0.34c-0.03,-0.01 -0.05,-0.01 -0.08,-0.01c0.39,-0.55 0.66,-1.23 0.72,-1.98c0.18,-2.26 -1.54,-4.11 -3.21,-4.25c-0.07,0 -0.14,-0.01 -0.21,-0.01c-0.83,0 -1.72,0.4 -2.41,1.07c-0.27,-0.2 -0.62,-0.33 -1,-0.36c-0.03,-0.01 -0.06,-0.01 -0.09,-0.01c0.84,-1.03 2.05,-1.68 3.34,-1.68c0.11,0 0.21,0 0.32,0.01c2.4,0.2 4.23,2.62 4.02,5.29c-0.07,0.83 -0.33,1.6 -0.73,2.27Z" style="fill:url(#_Linear20);"/><path d="M119.84,145.31c-0.08,0 -0.15,-0.01 -0.22,-0.01c-1.66,-0.14 -3.39,-1.98 -3.21,-4.24c0.06,0 0.12,0.01 0.17,0.01c0.89,0 1.63,-0.58 1.69,-1.35c0.04,-0.49 -0.21,-0.96 -0.62,-1.26c0.69,-0.67 1.58,-1.07 2.41,-1.07c0.07,0 0.14,0.01 0.21,0.01c1.67,0.14 3.39,1.99 3.21,4.25c-0.06,0.75 -0.33,1.43 -0.72,1.98l-0.01,0c-0.44,0 -0.81,0.29 -0.84,0.67c-0.01,0.08 0,0.15 0.02,0.22c-0.64,0.5 -1.39,0.79 -2.09,0.79Z" style="fill:url(#_Linear21);"/><path d="M116.58,141.07c-0.05,0 -0.11,-0.01 -0.17,-0.01c-0.37,-0.03 -0.71,-0.16 -0.98,-0.36c-0.42,-0.3 -0.68,-0.77 -0.64,-1.27c0.07,-0.77 0.81,-1.34 1.69,-1.34c0.03,0 0.05,0 0.08,0c0.03,0 0.06,0 0.09,0.01c0.38,0.03 0.73,0.16 1,0.36c0.41,0.3 0.66,0.77 0.62,1.26c-0.06,0.77 -0.8,1.35 -1.69,1.35Z" style="fill:url(#_Linear22);"/><path d="M122.81,145.12c-0.03,0 -0.06,0 -0.09,-0.01c-0.04,0 -0.08,0 -0.12,-0.01c-0.33,-0.07 -0.59,-0.3 -0.67,-0.58c-0.02,-0.07 -0.03,-0.14 -0.02,-0.22c0.03,-0.38 0.4,-0.67 0.84,-0.67l0.01,0c0.03,0 0.05,0 0.08,0.01c0.28,0.02 0.52,0.15 0.67,0.34c0.1,0.14 0.16,0.3 0.14,0.47c-0.03,0.38 -0.4,0.67 -0.84,0.67Z" style="fill:url(#_Linear23);"/><path d="M136.27,133.69c-0.46,-0.04 -0.89,-0.24 -1.23,-0.58c-0.01,-0.01 -1.01,-1.02 -2.84,-2.38c-0.13,-0.09 -0.26,-0.19 -0.39,-0.29c1.84,0.97 3.3,2.09 4.46,3.25Z" style="fill:url(#_Linear24);"/><path d="M88.41,153.38c-0.89,-3.38 -0.97,-5.8 -0.97,-5.8l-1.08,-9.87c1.59,-1.73 3.42,-3.17 5.38,-4.37c-0.21,1.43 -0.38,2.71 -0.5,3.78c-0.28,2.36 -0.36,3.76 -0.36,3.76c-0.6,1.77 -0.88,3.8 -1,5.45c-0.03,2.88 -0.17,5.11 -0.39,6.85c-0.01,0 -0.02,0 -0.03,0c-0.15,0.03 -0.31,0.06 -0.46,0.09c-0.07,0.01 -0.15,0.02 -0.22,0.04c-0.02,0 -0.03,0 -0.05,0.01c-0.11,0.02 -0.21,0.04 -0.32,0.06Z" style="fill:url(#_Linear25);"/><path d="M139.53,154.56c-0.14,-0.04 -0.28,-0.08 -0.42,-0.11c-0.07,-0.02 -0.15,-0.04 -0.23,-0.06c1.05,-3.27 1.6,-6.62 0.99,-10.06c-0.56,-3.14 -2.51,-5.33 -5.13,-7.04c-0.62,-0.41 -1.26,-0.76 -1.91,-1.07c0.29,-0.73 0.62,-1.44 1.01,-2.13l0.04,-0.08c1.38,0.52 2.75,1.13 4.12,1.82c0.03,0.02 0.07,0.04 0.1,0.05c2.56,3.68 2.64,7.12 2.64,7.12c0.12,4.46 -0.34,8.28 -1.21,11.56Z" style="fill:url(#_Linear26);"/><path d="M138.88,154.39c-0.07,-0.02 -0.14,-0.04 -0.21,-0.05c0.07,0.01 0.14,0.03 0.21,0.05Z" style="fill:url(#_Linear27);"/><path d="M138.43,154.27c-3.32,-0.83 -6.62,-1.49 -9.89,-1.98c3.27,0.49 6.57,1.15 9.89,1.98Zm-26.19,-3.22c-0.08,0 -0.16,0 -0.24,0c0.08,0 0.16,0 0.24,0Z" style="fill:url(#_Linear28);"/><path d="M128.54,152.29c-5.53,-0.84 -10.98,-1.23 -16.3,-1.24c5.32,0.01 10.77,0.4 16.3,1.24Z" style="fill:url(#_Linear29);"/><path d="M78.31,139.9c0,0 5.04,0.4 5.87,5.99c0.17,1.17 1.15,2.06 2.33,2.06l0.01,0c0.71,0 1.29,-0.56 1.32,-1.27c0.24,-4.21 3.12,-16.31 20.46,-18.24c0,0 16.09,-1.85 25.54,5.65c2.89,2.29 5.16,5.47 6.16,9.84c0,0 3.87,-5.49 9.11,-5.85l0.11,-0.01l0,-2.55l-1.3,0c0,0 -6.58,-0.62 -12.43,-5.25c0,0 -14.04,-8.03 -28.85,-5.22c-1.56,0.3 -3.07,0.76 -4.55,1.34c-4.35,1.72 -16.58,6.33 -22.57,6.51c-1.24,0.04 -2.26,1 -2.35,2.24c-0.13,1.95 -0.06,4.42 1.14,4.76Z" style="fill:#fff;fill-rule:nonzero;"/><path d="M138.82,156.87c0,0 2.56,-8.29 1.18,-12.94l1.03,-2.02l1.5,5.52l-1.86,9.12l-1.85,0.32Z" style="fill:#fff;fill-rule:nonzero;"/><path d="M220.47,169.84l-4.09,-9.64c-0.38,-0.89 0.39,-1.85 1.34,-1.67l0.88,0.16c0.64,0.12 1.21,0.49 1.57,1.02l4.28,6.24c-0.99,1.91 -2.67,3.16 -3.98,3.89Z" style="fill:#3a2f34;fill-rule:nonzero;"/></g><defs><linearGradient id="_Linear1" x1="0" y1="0" x2="1" y2="0" gradientUnits="userSpaceOnUse" gradientTransform="matrix(7.40092,83.7777,-83.7777,7.40092,181.26,101.122)"><stop offset="0" style="stop-color:#ecd8c9;stop-opacity:1"/><stop offset="1" style="stop-color:#e37a7b;stop-opacity:1"/></linearGradient><linearGradient id="_Linear2" x1="0" y1="0" x2="1" y2="0" gradientUnits="userSpaceOnUse" gradientTransform="matrix(7.40092,83.7777,-83.7777,7.40092,181.26,101.122)"><stop offset="0" style="stop-color:#f7e7d4;stop-opacity:1"/><stop offset="1" style="stop-color:#eb8683;stop-opacity:1"/></linearGradient><linearGradient id="_Linear3" x1="0" y1="0" x2="1" y2="0" gradientUnits="userSpaceOnUse" gradientTransform="matrix(7.40092,83.7777,-83.7777,7.40092,181.26,101.122)"><stop offset="0" style="stop-color:#fff;stop-opacity:1"/><stop offset="1" style="stop-color:#f2979f;stop-opacity:1"/></linearGradient><linearGradient id="_Linear4" x1="0" y1="0" x2="1" y2="0" gradientUnits="userSpaceOnUse" gradientTransform="matrix(7.40092,83.7777,-83.7777,7.40092,181.26,101.122)"><stop offset="0" style="stop-color:#e9d7c8;stop-opacity:1"/><stop offset="1" style="stop-color:#e07a7b;stop-opacity:1"/></linearGradient><linearGradient id="_Linear5" x1="0" y1="0" x2="1" y2="0" gradientUnits="userSpaceOnUse" gradientTransform="matrix(7.40092,83.7777,-83.7777,7.40092,181.26,101.122)"><stop offset="0" style="stop-color:#967b70;stop-opacity:1"/><stop offset="1" style="stop-color:#923440;stop-opacity:1"/></linearGradient><linearGradient id="_Linear6" x1="0" y1="0" x2="1" y2="0" gradientUnits="userSpaceOnUse" gradientTransform="matrix(7.40092,83.7777,-83.7777,7.40092,181.26,101.122)"><stop offset="0" style="stop-color:#b78d79;stop-opacity:1"/><stop offset="1" style="stop-color:#b13b45;stop-opacity:1"/></linearGradient><linearGradient id="_Linear7" x1="0" y1="0" x2="1" y2="0" gradientUnits="userSpaceOnUse" gradientTransform="matrix(7.40092,83.7777,-83.7777,7.40092,181.26,101.122)"><stop offset="0" style="stop-color:#7e756f;stop-opacity:1"/><stop offset="1" style="stop-color:#7d3741;stop-opacity:1"/></linearGradient><linearGradient id="_Linear8" x1="0" y1="0" x2="1" y2="0" gradientUnits="userSpaceOnUse" gradientTransform="matrix(7.40092,83.7777,-83.7777,7.40092,181.26,101.122)"><stop offset="0" style="stop-color:#fff;stop-opacity:1"/><stop offset="1" style="stop-color:#f2979f;stop-opacity:1"/></linearGradient><linearGradient id="_Linear9" x1="0" y1="0" x2="1" y2="0" gradientUnits="userSpaceOnUse" gradientTransform="matrix(7.40092,83.7777,-83.7777,7.40092,181.26,101.122)"><stop offset="0" style="stop-color:#fff;stop-opacity:1"/><stop offset="1" style="stop-color:#f2979f;stop-opacity:1"/></linearGradient><linearGradient id="_Linear10" x1="0" y1="0" x2="1" y2="0" gradientUnits="userSpaceOnUse" gradientTransform="matrix(7.40092,83.7777,-83.7777,7.40092,181.26,101.122)"><stop offset="0" style="stop-color:#fed39a;stop-opacity:1"/><stop offset="1" style="stop-color:#f07359;stop-opacity:1"/></linearGradient><linearGradient id="_Linear11" x1="0" y1="0" x2="1" y2="0" gradientUnits="userSpaceOnUse" gradientTransform="matrix(7.40092,83.7777,-83.7777,7.40092,181.26,101.122)"><stop offset="0" style="stop-color:#fff;stop-opacity:1"/><stop offset="1" style="stop-color:#f2979f;stop-opacity:1"/></linearGradient><linearGradient id="_Linear12" x1="0" y1="0" x2="1" y2="0" gradientUnits="userSpaceOnUse" gradientTransform="matrix(7.40092,83.7777,-83.7777,7.40092,181.26,101.122)"><stop offset="0" style="stop-color:#e4bfb9;stop-opacity:1"/><stop offset="1" style="stop-color:#db6170;stop-opacity:1"/></linearGradient><linearGradient id="_Linear13" x1="0" y1="0" x2="1" y2="0" gradientUnits="userSpaceOnUse" gradientTransform="matrix(7.40092,83.7777,-83.7777,7.40092,181.26,101.122)"><stop offset="0" style="stop-color:#e9c7bf;stop-opacity:1"/><stop offset="1" style="stop-color:#e06875;stop-opacity:1"/></linearGradient><linearGradient id="_Linear14" x1="0" y1="0" x2="1" y2="0" gradientUnits="userSpaceOnUse" gradientTransform="matrix(7.40092,83.7777,-83.7777,7.40092,181.26,101.122)"><stop offset="0" style="stop-color:#eeba9d;stop-opacity:1"/><stop offset="1" style="stop-color:#e25b5c;stop-opacity:1"/></linearGradient><linearGradient id="_Linear15" x1="0" y1="0" x2="1" y2="0" gradientUnits="userSpaceOnUse" gradientTransform="matrix(7.40096,83.7782,-83.7782,7.40096,110.64,107.36)"><stop offset="0" style="stop-color:#e7d1bf;stop-opacity:1"/><stop offset="1" style="stop-color:#de7474;stop-opacity:1"/></linearGradient><linearGradient id="_Linear16" x1="0" y1="0" x2="1" y2="0" gradientUnits="userSpaceOnUse" gradientTransform="matrix(7.40096,83.7782,-83.7782,7.40096,110.64,107.36)"><stop offset="0" style="stop-color:#efdcca;stop-opacity:1"/><stop offset="1" style="stop-color:#e47e7c;stop-opacity:1"/></linearGradient><linearGradient id="_Linear17" x1="0" y1="0" x2="1" y2="0" gradientUnits="userSpaceOnUse" gradientTransform="matrix(7.40096,83.7782,-83.7782,7.40096,110.64,107.36)"><stop offset="0" style="stop-color:#fff;stop-opacity:1"/><stop offset="1" style="stop-color:#f2979f;stop-opacity:1"/></linearGradient><linearGradient id="_Linear18" x1="0" y1="0" x2="1" y2="0" gradientUnits="userSpaceOnUse" gradientTransform="matrix(7.40096,83.7782,-83.7782,7.40096,110.64,107.36)"><stop offset="0" style="stop-color:#e9d7c8;stop-opacity:1"/><stop offset="1" style="stop-color:#e07a7b;stop-opacity:1"/></linearGradient><linearGradient id="_Linear19" x1="0" y1="0" x2="1" y2="0" gradientUnits="userSpaceOnUse" gradientTransform="matrix(7.40096,83.7782,-83.7782,7.40096,110.64,107.36)"><stop offset="0" style="stop-color:#967b70;stop-opacity:1"/><stop offset="1" style="stop-color:#923440;stop-opacity:1"/></linearGradient><linearGradient id="_Linear20" x1="0" y1="0" x2="1" y2="0" gradientUnits="userSpaceOnUse" gradientTransform="matrix(7.40096,83.7782,-83.7782,7.40096,110.64,107.36)"><stop offset="0" style="stop-color:#b78d79;stop-opacity:1"/><stop offset="1" style="stop-color:#b13b45;stop-opacity:1"/></linearGradient><linearGradient id="_Linear21" x1="0" y1="0" x2="1" y2="0" gradientUnits="userSpaceOnUse" gradientTransform="matrix(7.40096,83.7782,-83.7782,7.40096,110.64,107.36)"><stop offset="0" style="stop-color:#7e756f;stop-opacity:1"/><stop offset="1" style="stop-color:#7d3741;stop-opacity:1"/></linearGradient><linearGradient id="_Linear22" x1="0" y1="0" x2="1" y2="0" gradientUnits="userSpaceOnUse" gradientTransform="matrix(7.40096,83.7782,-83.7782,7.40096,110.64,107.36)"><stop offset="0" style="stop-color:#fff;stop-opacity:1"/><stop offset="1" style="stop-color:#f2979f;stop-opacity:1"/></linearGradient><linearGradient id="_Linear23" x1="0" y1="0" x2="1" y2="0" gradientUnits="userSpaceOnUse" gradientTransform="matrix(7.40096,83.7782,-83.7782,7.40096,110.64,107.36)"><stop offset="0" style="stop-color:#fff;stop-opacity:1"/><stop offset="1" style="stop-color:#f2979f;stop-opacity:1"/></linearGradient><linearGradient id="_Linear24" x1="0" y1="0" x2="1" y2="0" gradientUnits="userSpaceOnUse" gradientTransform="matrix(7.40096,83.7782,-83.7782,7.40096,110.64,107.36)"><stop offset="0" style="stop-color:#6f6c6c;stop-opacity:1"/><stop offset="1" style="stop-color:#6f313e;stop-opacity:1"/></linearGradient><linearGradient id="_Linear25" x1="0" y1="0" x2="1" y2="0" gradientUnits="userSpaceOnUse" gradientTransform="matrix(7.40096,83.7782,-83.7782,7.40096,110.64,107.36)"><stop offset="0" style="stop-color:#fed39a;stop-opacity:1"/><stop offset="1" style="stop-color:#f07359;stop-opacity:1"/></linearGradient><linearGradient id="_Linear26" x1="0" y1="0" x2="1" y2="0" gradientUnits="userSpaceOnUse" gradientTransform="matrix(7.40096,83.7782,-83.7782,7.40096,110.64,107.36)"><stop offset="0" style="stop-color:#fff;stop-opacity:1"/><stop offset="1" style="stop-color:#f2979f;stop-opacity:1"/></linearGradient><linearGradient id="_Linear27" x1="0" y1="0" x2="1" y2="0" gradientUnits="userSpaceOnUse" gradientTransform="matrix(7.40096,83.7782,-83.7782,7.40096,110.64,107.36)"><stop offset="0" style="stop-color:#e5c0b9;stop-opacity:1"/><stop offset="1" style="stop-color:#dc6370;stop-opacity:1"/></linearGradient><linearGradient id="_Linear28" x1="0" y1="0" x2="1" y2="0" gradientUnits="userSpaceOnUse" gradientTransform="matrix(7.40096,83.7782,-83.7782,7.40096,110.64,107.36)"><stop offset="0" style="stop-color:#e5c0b9;stop-opacity:1"/><stop offset="1" style="stop-color:#dc6370;stop-opacity:1"/></linearGradient><linearGradient id="_Linear29" x1="0" y1="0" x2="1" y2="0" gradientUnits="userSpaceOnUse" gradientTransform="matrix(7.40096,83.7782,-83.7782,7.40096,110.64,107.36)"><stop offset="0" style="stop-color:#eed3d5;stop-opacity:1"/><stop offset="1" style="stop-color:#e37384;stop-opacity:1"/></linearGradient></defs></svg>