<?xml version="1.0" encoding="UTF-8" standalone="no"?><!DOCTYPE svg PUBLIC "-//W3C//DTD SVG 1.1//EN" "http://www.w3.org/Graphics/SVG/1.1/DTD/svg11.dtd"><svg width="100%" height="100%" viewBox="0 0 300 301" version="1.1" xmlns="http://www.w3.org/2000/svg" xmlns:xlink="http://www.w3.org/1999/xlink" xml:space="preserve" style="fill-rule:evenodd;clip-rule:evenodd;stroke-linejoin:round;stroke-miterlimit:1.41421;"><g id="_31"><rect x="0.399" y="0.275" width="299.371" height="299.705" style="fill:#2f616c;fill-rule:nonzero;"/><path d="M154.34,187.53l0,112.62l-60.72,0c-0.99,-0.4 -1.48,-0.6 -1.48,-0.6c0,-14.37 2.1,-25.58 5.3,-34.32c7.73,-21.1 21.88,-27.8 28.4,-29.82c2.13,-0.66 3.45,-0.82 3.45,-0.82c0.23,0 0.45,-0.02 0.67,-0.06c1.91,-0.31 3.46,-1.97 4.71,-4.63c0.92,-1.97 1.7,-4.49 2.33,-7.41c0.25,-1.14 0.45,-2.28 0.65,-3.52c0.29,-2.08 0.58,-4.26 0.84,-6.55c0.09,-1.38 0.24,-2.72 0.39,-4.16c0.54,-6.89 0.69,-14.43 0.69,-21.58c0,0 8.16,0.85 14.77,0.85Z" style="fill:#e0bd9a;fill-rule:nonzero;"/><path d="M216.8,299.55c0,0 -0.54,0.2 -1.43,0.6l-61.03,0l0,-112.62l0.15,0c6.57,0 14.83,-0.85 14.83,-0.85c0,7.1 0.14,14.53 0.69,21.43c0.15,1.34 0.3,2.72 0.39,4.07c0.25,2.38 0.55,4.61 0.89,6.69l0,0.05c0.1,0.94 0.3,1.79 0.45,2.68c0.6,2.93 1.33,5.5 2.2,7.57c1.1,2.57 2.42,4.36 4.03,5.07c0.52,0.24 1.06,0.35 1.63,0.35c0,0 2.34,0.28 5.84,1.66c7.15,2.81 19.16,10.18 26.05,28.98c3.21,8.74 5.31,19.95 5.31,34.32Z" style="fill:#efd0ad;fill-rule:nonzero;"/><path d="M171.29,218.66l0,0.05c-1.53,2.37 -6.67,9.16 -16.85,9.16l-0.09,0c-9.64,-0.05 -15.27,-7.04 -16.71,-9.11c0.3,-2.07 0.6,-4.24 0.84,-6.5c0.1,-1.33 0.25,-2.71 0.4,-4.14c4.69,1.18 9.83,1.92 15.27,2.02l0.2,0c5.63,-0.1 10.82,-0.89 15.66,-2.17c0.15,1.33 0.3,2.71 0.4,4.04c0.24,2.36 0.54,4.58 0.88,6.65Z" style="fill:#be987f;fill-rule:nonzero;"/><path d="M153.65,59.185c-64.33,0 -64.68,53.945 -61.81,89.275c-4.4,-8.38 -17.49,-5.82 -16.41,7.39c1.04,12.71 19.75,19.18 19.22,17.78c9.75,26.13 35.53,45.82 59,45.82l0.5,0l0,-160.265l-0.5,0Z" style="fill:#d2a686;fill-rule:nonzero;"/><path d="M79.53,150.28c3.17,-5.13 8.11,-2.91 9.29,-1.77c1.29,1.23 2.33,2.8 1.54,5.81c-0.45,1.72 -2.23,1.87 -1.83,4.43c0.49,2.91 1.83,3.06 2.62,3.75c0.74,0.64 1.68,1.13 2.12,2.36c0.5,1.23 0.54,2.51 0.3,3.65c-0.5,2.07 -3.51,0.39 -5.54,-0.5c-1.33,-0.64 -5.58,-4.23 -6.67,-5.41c-2.67,-3.06 -3.95,-8.97 -1.83,-12.32Z" style="fill:#ac8774;fill-rule:nonzero;"/><path d="M154,59.185c64.34,0 64.68,53.945 61.87,89.275c4.39,-8.38 17.44,-5.82 16.35,7.39c-0.99,12.71 -19.73,19.19 -19.22,17.78c-9.49,26.13 -35.53,45.82 -59,45.82c-0.15,0 -0.35,0 -0.35,0l-0.14,-160.265c0,0 0.34,0 0.49,0Z" style="fill:#ddb598;fill-rule:nonzero;"/><path d="M228.12,150.28c-3.16,-5.13 -8.05,-2.91 -9.29,-1.77c-1.28,1.23 -2.27,2.8 -1.53,5.81c0.44,1.72 2.22,1.87 1.83,4.43c-0.5,2.91 -1.83,3.06 -2.57,3.75c-0.74,0.64 -1.73,1.13 -2.18,2.36c-0.44,1.23 -0.54,2.51 -0.29,3.65c0.49,2.07 3.5,0.39 5.53,-0.5c1.38,-0.64 5.58,-4.23 6.67,-5.41c2.72,-3.06 3.95,-8.97 1.83,-12.32Z" style="fill:#ac8774;fill-rule:nonzero;"/><path d="M153.15,74.408c-21.15,0 -36.67,6.158 -46.01,18.278c-13.09,16.994 -12.6,42.914 -7.8,61.534c1.48,5.72 2.27,21.04 3.26,26.65c4.59,25.18 32.31,38.58 50.55,38.58c0,0 0.34,0 0.49,0l0,-145.042c-0.15,0 -0.29,0 -0.29,0" style="fill:#e0bd9a;fill-rule:nonzero;"/><path d="M199.1,92.735c-9.29,-12.07 -24.61,-18.228 -45.46,-18.327l0,145.042c20.85,-0.25 45.81,-14.93 50.06,-38.58c1.04,-5.61 1.78,-20.93 3.26,-26.65c4.84,-18.57 5.34,-44.44 -7.86,-61.485Z" style="fill:#efd0ad;fill-rule:nonzero;"/><path d="M153.84,191" style="fill:#bc917b;fill-rule:nonzero;"/><path d="M153.84,191" style="fill:#bc917b;fill-rule:nonzero;"/><path d="M150.27,193.74c-0.1,-0.02 -0.2,-0.04 -0.31,-0.07c0.1,0.03 0.19,0.04 0.31,0.07Z" style="fill:#bc917b;fill-rule:nonzero;"/><path d="M153.84,193.55" style="fill:#bc917b;fill-rule:nonzero;"/><path d="M149.48,193.56c-0.09,-0.02 -0.18,-0.05 -0.27,-0.07l-0.01,0c0,0 0.11,0.03 0.28,0.07Z" style="fill:#bc917b;fill-rule:nonzero;"/><path d="M153.84,193.55" style="fill:#bc917b;fill-rule:nonzero;"/><path d="M141.37,175.95c-0.25,-5.01 9.17,-1.83 12.28,-1.67c2.46,0.12 9.92,-1.58 10.56,-1.14c4.4,2.97 -4.65,8.95 -10.72,8.95c-1.61,0 -11.98,-3.12 -12.12,-6.14Z" style="fill:#ddb598;fill-rule:nonzero;"/><path d="M135.68,74.77l-0.27,0.268l0.05,0.09c0.09,-0.135 0.13,-0.269 0.22,-0.358Z" style="fill:#432e1b;fill-rule:nonzero;"/><path d="M94.72,125.88" style="fill:#432e1b;fill-rule:nonzero;"/><path d="M154.11,193.56" style="fill:#ba907b;fill-rule:nonzero;"/><path d="M154.11,193.56" style="fill:#ba907b;fill-rule:nonzero;"/><path d="M150.44,190.8c-0.1,-0.03 -0.2,-0.05 -0.31,-0.07c0.1,0.02 0.19,0.04 0.31,0.07Z" style="fill:#ba907b;fill-rule:nonzero;"/><path d="M154.11,190.6" style="fill:#ba907b;fill-rule:nonzero;"/><path d="M149.64,190.62c-0.1,-0.03 -0.19,-0.06 -0.28,-0.08l-0.01,0c0,0 0.11,0.03 0.29,0.08Z" style="fill:#ba907b;fill-rule:nonzero;"/><path d="M154.11,190.6" style="fill:#ba907b;fill-rule:nonzero;"/><path d="M107.49,131.02c0,0 4.91,20.2 13.33,21.85c8.43,1.64 17.55,-1.63 17.55,-1.63c0,0 0.87,-23.74 -3.44,-26.84c-4.31,-3.12 -14.25,-7.62 -27.44,6.62Z" style="fill:#fff;fill-rule:nonzero;"/><path d="M138.38,151.17c0,0 -0.19,0.06 -0.62,0.24c-0.11,-7.28 -0.78,-17.28 -3.48,-19.2c-4,-2.94 -13.05,-7.08 -25.14,4.25c-1.09,-3.13 -1.64,-5.5 -1.64,-5.5c13.21,-14.27 23.16,-9.78 27.43,-6.66c4.32,3.12 3.45,26.87 3.45,26.87Z" style="fill:#d6b496;fill-rule:nonzero;"/><path d="M133.39,140.89c0,4.59 -3.71,8.32 -8.29,8.32c-4.58,0 -8.3,-3.73 -8.3,-8.32c0,-4.6 3.72,-8.32 8.3,-8.32c4.58,0 8.29,3.72 8.29,8.32Z" style="fill:#482315;fill-rule:nonzero;"/><path d="M124.71,146.43c-2.39,-0.2 -4.23,-2.62 -4.01,-5.29c0.21,-2.66 2.42,-4.75 4.82,-4.55c2.39,0.2 4.23,2.62 4.02,5.29c-0.22,2.66 -2.43,4.75 -4.83,4.55Z" style="fill:#7e3a22;fill-rule:nonzero;"/><path d="M124.92,145.47c-1.67,-0.14 -3.4,-1.98 -3.21,-4.24c0.18,-2.27 2.19,-3.8 3.85,-3.66c1.67,0.14 3.4,1.99 3.21,4.25c-0.18,2.26 -2.19,3.79 -3.85,3.65Z" style="fill:#211a10;fill-rule:nonzero;"/><path d="M123.57,139.89c-0.07,0.82 -0.9,1.42 -1.86,1.34c-0.96,-0.08 -1.69,-0.81 -1.62,-1.63c0.07,-0.82 0.9,-1.41 1.86,-1.34c0.96,0.08 1.68,0.81 1.62,1.63Z" style="fill:#fff;fill-rule:nonzero;"/><path d="M128.95,144.62c-0.04,0.4 -0.45,0.7 -0.93,0.66c-0.48,-0.03 -0.84,-0.4 -0.81,-0.81c0.03,-0.4 0.45,-0.71 0.93,-0.66c0.48,0.03 0.84,0.4 0.81,0.81Z" style="fill:#fff;fill-rule:nonzero;"/><path d="M154.24,190.51" style="fill:#ba907b;fill-rule:nonzero;"/><path d="M154.24,190.51" style="fill:#ba907b;fill-rule:nonzero;"/><path d="M150.57,193.18c-0.1,-0.02 -0.2,-0.04 -0.31,-0.07c0.11,0.02 0.2,0.04 0.31,0.07Z" style="fill:#ba907b;fill-rule:nonzero;"/><path d="M154.24,192.98" style="fill:#ba907b;fill-rule:nonzero;"/><path d="M149.77,193c-0.1,-0.03 -0.18,-0.05 -0.28,-0.08l-0.01,0c0,0 0.11,0.03 0.29,0.08Z" style="fill:#ba907b;fill-rule:nonzero;"/><path d="M154.24,192.98" style="fill:#ba907b;fill-rule:nonzero;"/><path d="M154.13,190.14" style="fill:#bc917b;fill-rule:nonzero;"/><path d="M154.13,190.14" style="fill:#bc917b;fill-rule:nonzero;"/><path d="M150.2,192.61c-0.11,-0.03 -0.22,-0.05 -0.34,-0.07c0.11,0.02 0.21,0.04 0.34,0.07Z" style="fill:#bc917b;fill-rule:nonzero;"/><path d="M154.13,192.4" style="fill:#bc917b;fill-rule:nonzero;"/><path d="M149.33,192.41c-0.1,-0.02 -0.19,-0.05 -0.29,-0.08l-0.01,0.01c0,0 0.11,0.03 0.3,0.07Z" style="fill:#bc917b;fill-rule:nonzero;"/><path d="M154.13,192.4" style="fill:#bc917b;fill-rule:nonzero;"/><path d="M153.88,189.3" style="fill:#bc917b;fill-rule:nonzero;"/><path d="M153.88,189.3" style="fill:#bc917b;fill-rule:nonzero;"/><path d="M149.95,191.76c-0.11,-0.02 -0.22,-0.04 -0.33,-0.07c0.11,0.03 0.2,0.05 0.33,0.07Z" style="fill:#bc917b;fill-rule:nonzero;"/><path d="M153.88,191.55" style="fill:#bc917b;fill-rule:nonzero;"/><path d="M149.09,191.57c-0.11,-0.03 -0.2,-0.06 -0.3,-0.08l-0.01,0c0,0 0.11,0.03 0.31,0.08Z" style="fill:#bc917b;fill-rule:nonzero;"/><path d="M153.88,191.55" style="fill:#bc917b;fill-rule:nonzero;"/><path d="M154.52,189.08" style="fill:#bc917b;fill-rule:nonzero;"/><path d="M154.52,189.08" style="fill:#bc917b;fill-rule:nonzero;"/><path d="M150.72,191.65c-0.11,-0.03 -0.22,-0.05 -0.32,-0.07c0.1,0.02 0.2,0.04 0.32,0.07Z" style="fill:#bc917b;fill-rule:nonzero;"/><path d="M154.52,191.44" style="fill:#bc917b;fill-rule:nonzero;"/><path d="M149.89,191.46c-0.1,-0.03 -0.19,-0.05 -0.29,-0.08l-0.01,0c0,0 0.11,0.03 0.3,0.08Z" style="fill:#bc917b;fill-rule:nonzero;"/><path d="M154.52,191.44" style="fill:#bc917b;fill-rule:nonzero;"/><path d="M200.3,130.33c0,0 -4.91,20.2 -13.34,21.85c-8.42,1.65 -17.54,-1.63 -17.54,-1.63c0,0 -0.87,-23.74 3.44,-26.84c4.31,-3.11 14.25,-7.62 27.44,6.62Z" style="fill:#fff;fill-rule:nonzero;"/><path d="M169.41,150.49c0,0 0.19,0.05 0.62,0.23c0.11,-7.28 0.78,-17.28 3.48,-19.19c4,-2.95 13.05,-7.09 25.13,4.24c1.1,-3.13 1.65,-5.5 1.65,-5.5c-13.21,-14.27 -23.16,-9.77 -27.44,-6.66c-4.31,3.12 -3.44,26.88 -3.44,26.88Z" style="fill:#d6b496;fill-rule:nonzero;"/><path d="M174.4,140.2c0,4.6 3.71,8.32 8.29,8.32c4.58,0 8.29,-3.72 8.29,-8.32c0,-4.59 -3.71,-8.32 -8.29,-8.32c-4.58,0 -8.29,3.73 -8.29,8.32Z" style="fill:#482315;fill-rule:nonzero;"/><path d="M183.08,145.74c2.39,-0.2 4.23,-2.62 4.01,-5.29c-0.21,-2.66 -2.42,-4.75 -4.82,-4.55c-2.39,0.2 -4.23,2.62 -4.02,5.29c0.22,2.66 2.43,4.75 4.83,4.55Z" style="fill:#7e3a22;fill-rule:nonzero;"/><path d="M182.87,144.78c1.67,-0.14 3.4,-1.98 3.21,-4.24c-0.19,-2.26 -2.19,-3.79 -3.85,-3.66c-1.67,0.15 -3.4,1.99 -3.21,4.25c0.18,2.26 2.19,3.79 3.85,3.65Z" style="fill:#211a10;fill-rule:nonzero;"/><path d="M184.22,139.21c0.07,0.81 0.9,1.41 1.86,1.33c0.96,-0.08 1.68,-0.81 1.62,-1.62c-0.07,-0.82 -0.9,-1.42 -1.86,-1.34c-0.96,0.08 -1.69,0.8 -1.62,1.63Z" style="fill:#fff;fill-rule:nonzero;"/><path d="M178.84,143.93c0.04,0.41 0.45,0.71 0.93,0.67c0.48,-0.04 0.84,-0.41 0.81,-0.82c-0.03,-0.4 -0.45,-0.7 -0.93,-0.66c-0.48,0.04 -0.84,0.4 -0.81,0.81Z" style="fill:#fff;fill-rule:nonzero;"/><path d="M143.43,130.7c-0.06,-0.1 -1.59,-2.43 -4.72,-4.84c-1.96,-1.51 -3.88,-2.65 -5.87,-3.51c-2.42,-1.02 -5.02,-1.74 -7.55,-2.09c-2.28,-0.25 -4.81,-0.18 -7.77,0.22c-2.25,0.43 -4.45,1.1 -6.32,1.93c-1.33,0.45 -2.38,1.1 -3.22,1.62c-0.33,0.2 -0.62,0.38 -0.92,0.54l-4.02,2.54l4.64,-1.09c0.21,-0.06 0.45,-0.12 0.7,-0.19c0.96,-0.25 2.15,-0.57 3.55,-0.78c0.33,-0.05 0.66,-0.11 1,-0.18c0.59,-0.12 1.19,-0.24 1.82,-0.27c0.71,-0.04 1.44,-0.1 2.18,-0.15l0.98,-0.07c2.57,-0.03 4.74,0.16 6.66,0.61c2.11,0.36 4.28,1.04 6.26,1.97c1.88,0.9 3.68,1.79 5.08,2.82c2.83,1.9 4.41,3.48 4.42,3.5c0.39,0.39 0.91,0.59 1.44,0.59c0.38,0 0.76,-0.1 1.09,-0.32c0.94,-0.62 1.2,-1.88 0.61,-2.79l-0.04,-0.06Z" style="fill:#030405;fill-rule:nonzero;"/><path d="M201.13,124.55c-0.27,-0.14 -0.56,-0.32 -0.89,-0.52c-0.84,-0.52 -1.89,-1.17 -3.18,-1.61c-1.91,-0.84 -4.11,-1.51 -6.39,-1.95c-2.93,-0.39 -5.46,-0.46 -7.75,-0.2c-2.51,0.34 -5.12,1.06 -7.54,2.08c-1.97,0.85 -3.94,2.03 -5.87,3.51c-3.07,2.36 -4.6,4.65 -4.71,4.83l-0.03,0.04c-0.52,0.8 -0.41,1.87 0.26,2.55c0.39,0.38 0.89,0.59 1.43,0.59c0.54,0 1.05,-0.21 1.43,-0.59l0.01,-0.02c0.15,-0.15 1.68,-1.65 4.43,-3.49c1.38,-1.02 3.18,-1.91 5.05,-2.81c2,-0.93 4.16,-1.61 6.3,-1.98c1.9,-0.44 4.07,-0.63 6.61,-0.6l1.02,0.07c0.74,0.05 1.46,0.11 2.17,0.15c0.62,0.03 1.23,0.15 1.81,0.27c0.34,0.07 0.67,0.13 1,0.18c1.4,0.21 2.59,0.53 3.55,0.78c0.26,0.07 0.49,0.13 0.71,0.19l4.64,1.09l-4.06,-2.56Z" style="fill:#030405;fill-rule:nonzero;"/><path d="M152.95,198.46" style="fill:#be927b;fill-rule:nonzero;"/><path d="M152.95,198.46" style="fill:#be927b;fill-rule:nonzero;"/><path d="M149.12,195.57c-0.11,-0.02 -0.22,-0.05 -0.33,-0.07c0.11,0.02 0.2,0.04 0.33,0.07Z" style="fill:#be927b;fill-rule:nonzero;"/><path d="M152.95,195.36" style="fill:#be927b;fill-rule:nonzero;"/><path d="M148.28,195.38c-0.1,-0.03 -0.2,-0.05 -0.29,-0.08l-0.01,0c0,0 0.11,0.03 0.3,0.08Z" style="fill:#be927b;fill-rule:nonzero;"/><path d="M152.95,195.36" style="fill:#be927b;fill-rule:nonzero;"/><path d="M141.75,199.74c-0.24,-3.25 9.02,0.68 12.06,0.77c2.43,0.08 9.71,-0.48 10.39,-0.74c5.09,-1.91 -0.28,5.43 -10.54,5.82c-4.7,0.18 -11.77,-3.88 -11.91,-5.85Z" style="fill:#f0d2ad;fill-rule:nonzero;"/><path d="M171.9,193.48c-2.51,-0.13 -5.09,1.97 -8.12,1.65c-0.12,-0.06 -0.18,-0.06 -0.31,-0.06c-0.7,-0.12 -1.39,0 -2.14,0.18c-0.94,0.2 -1.89,0.59 -2.77,0.89c-1.51,0.5 -3.22,0.89 -4.97,0.76l0,0.01l-0.1,-0.01l-0.09,0.01l0,-0.01c-1.76,0.13 -3.46,-0.26 -4.97,-0.76c-0.89,-0.3 -1.83,-0.69 -2.77,-0.89c-0.76,-0.18 -1.45,-0.3 -2.14,-0.18c-0.13,0 -0.19,0 -0.31,0.06c-3.03,0.32 -5.61,-1.78 -8.12,-1.65c-0.7,0.06 -1.71,-0.13 -2.27,-0.13c0.12,0.06 0.25,0.13 0.38,0.19c7.17,3.5 13.35,10.06 20.2,9.85l0.19,0c6.85,0.21 13.03,-6.35 20.2,-9.85c0.13,-0.06 0.25,-0.13 0.38,-0.19c-0.57,0 -1.57,0.19 -2.27,0.13Z" style="fill:#dcbf9e;fill-rule:nonzero;"/><path d="M174.01,193.28c0,0 -7.29,-2.82 -12.47,-1.17c0,0 -1.93,0.76 -3.93,1.22c-1.22,0.47 -2.69,0.61 -4.12,0.55c-1.09,-0.04 -2.12,-0.18 -2.97,-0.33c-0.29,-0.04 -0.57,-0.1 -0.86,-0.16c-0.12,-0.03 -0.22,-0.05 -0.32,-0.07c-0.18,-0.04 -0.35,-0.08 -0.52,-0.12c-0.19,-0.05 -0.3,-0.08 -0.3,-0.08l0.01,0c-1.66,-0.45 -3.08,-1.01 -3.08,-1.01c-5.18,-1.65 -12.47,1.17 -12.47,1.17c-0.1,0.04 -0.16,0.07 -0.16,0.07c0.56,0 1.57,0.19 2.27,0.13c2.51,-0.13 5.09,1.97 8.12,1.65c0.12,-0.06 0.18,-0.06 0.31,-0.06c0.69,-0.12 1.38,0 2.14,0.18c0.94,0.2 1.88,0.59 2.77,0.89c1.51,0.5 3.21,0.89 4.97,0.76l0,0.01l0.09,-0.01l0.1,0.01l0,-0.01c1.75,0.13 3.46,-0.26 4.97,-0.76c0.88,-0.3 1.83,-0.69 2.77,-0.89c0.75,-0.18 1.44,-0.3 2.14,-0.18c0.13,0 0.19,0 0.31,0.06c3.03,0.32 5.61,-1.78 8.12,-1.65c0.7,0.06 1.7,-0.13 2.27,-0.13c0,0 -0.06,-0.03 -0.16,-0.07Z" style="fill:#c69f83;fill-rule:nonzero;"/><path d="M141.26,194.99c0.13,0.03 13.65,4.16 24.22,0.09l-1.21,-0.82l-14.3,0l-8.71,0.73Z" style="fill:#c69f83;fill-rule:nonzero;"/><path d="M91.97,272.61l11.64,0c0.15,12.84 -0.19,22.35 -0.52,27.54l35.82,0l-37.99,-49.84c-1.01,1.87 -6.61,12.51 -8.95,22.3Z" style="fill:#326869;fill-rule:nonzero;"/><path d="M127.66,231.23c-1.28,0.25 -4.01,0.9 -7.46,2.45c-5.52,2.48 -12.88,7.25 -19.12,16.34c0,0 -0.06,0.1 -0.16,0.29l37.99,49.84l68.74,0l-45.5,-51.46c-17.49,5.88 -30.23,-10.81 -34.49,-17.46Z" style="fill:#f9ad3a;fill-rule:nonzero;"/><path d="M207.33,290.68c-0.13,-4.9 -0.19,-10.97 -0.1,-18.07l9.84,0c-0.6,-6.57 -7.34,-22.59 -7.34,-22.59c-0.69,-1 -1.38,-1.94 -2.09,-2.83c-9.64,-12.22 -21.04,-15.28 -24.32,-15.93c-7.58,10 -14.7,15.25 -21.17,17.43l45.5,51.46l0.08,0c-0.15,-2.32 -0.29,-5.51 -0.4,-9.47Z" style="fill:#173e3d;fill-rule:nonzero;"/><path d="M247.62,67.05c-0.23,0.575 -0.68,1.129 -1.29,1.664c0.85,-0.999 1.29,-1.664 1.29,-1.664c-1.39,0.892 -2.71,1.647 -3.99,2.333c-24.12,12.84 -30.85,-9.717 -30.85,-9.717c2.52,-21.259 28.42,-20.958 28.42,-20.958c0,0 -22.02,-10.631 -30.5,10.211c-1.14,-11.218 4.96,-22.114 4.96,-22.114c-9.82,2.09 -13.95,10.034 -15.68,16.817c-6.07,-11.651 0.21,-20.305 0.21,-20.305l-33.69,13.39c4.37,-3.476 11.21,-9.902 11.21,-9.902c0,0 -10.46,1.073 -26.61,5.646c-11.35,3.219 -18.14,8.933 -21.96,11.557l-0.1,-9.495c0,0 -16.5,11.344 -32.13,26.244c-15.62,14.884 -21.62,28.888 -21.62,44.633c0,15.74 7.01,31.52 11.6,36.21c4.59,4.68 3.12,11.47 4.5,11.47c0,0 3.31,0.13 2.81,-15.39c1.82,-17.63 9.94,-24.67 14.48,-27.25c7.99,-4.21 20.03,-4.97 38.03,4.16l-0.01,-0.03c11.12,6.47 15.6,-2.11 31.3,-6.45c26.78,-7.378 37.89,12 35.64,21.99c-3.45,15.4 1.36,24.26 3.19,23.84c0,0 0.08,-3.91 1.74,-7.39c4.95,-10.38 9.09,-3.16 9.86,-17.23c0.89,-16.48 3.78,-22.5 2.85,-31.308c-0.52,-4.971 -2.31,-10.898 -3.72,-15.041c17.98,-0.293 20.06,-15.921 20.06,-15.921Z" style="fill:#8868ad;fill-rule:nonzero;"/></g></svg>