<?xml version="1.0" encoding="UTF-8" standalone="no"?><!DOCTYPE svg PUBLIC "-//W3C//DTD SVG 1.1//EN" "http://www.w3.org/Graphics/SVG/1.1/DTD/svg11.dtd"><svg width="100%" height="100%" viewBox="0 0 298 319" version="1.1" xmlns="http://www.w3.org/2000/svg" xmlns:xlink="http://www.w3.org/1999/xlink" xml:space="preserve" style="fill-rule:evenodd;clip-rule:evenodd;stroke-linejoin:round;stroke-miterlimit:1.41421;"><g id="_32"><path d="M153.708,8.121c0,4.213 -3.416,7.629 -7.63,7.629c-4.214,0 -7.63,-3.416 -7.63,-7.629c0,-4.214 3.416,-7.63 7.63,-7.63c4.214,0 7.63,3.416 7.63,7.63Z" style="fill:#efcf18;fill-rule:nonzero;"/><rect x="0.21" y="18.775" width="296.865" height="299.705" style="fill:#eeb75d;fill-rule:nonzero;"/><path d="M146.272,206.22l0,112.25l-60.714,0c-1.008,-0.39 -1.482,-0.59 -1.482,-0.59c0,-4.71 0.226,-9.08 0.659,-13.13c0.843,-8.27 2.489,-15.22 4.629,-21.09c4.814,-13.1 12.139,-20.63 18.537,-24.93c3.868,-2.6 7.428,-4.02 9.876,-4.78c0.823,-0.26 1.523,-0.45 2.057,-0.55c0.885,-0.21 1.379,-0.27 1.379,-0.27c0.247,0 0.453,-0.02 0.679,-0.06c1.193,-0.19 2.242,-0.91 3.148,-2.06c0.576,-0.7 1.09,-1.54 1.563,-2.55c0.926,-1.98 1.708,-4.49 2.325,-7.39c0.247,-1.15 0.453,-2.28 0.659,-3.51c0.288,-2.08 0.576,-4.26 0.822,-6.53c0.103,-1.38 0.247,-2.71 0.412,-4.15c0.535,-6.87 0.679,-14.38 0.679,-21.5c0,0 8.168,0.84 14.772,0.84Z" style="fill:#e0bd9a;fill-rule:nonzero;"/><path d="M208.736,317.88c0,0 -0.535,0.2 -1.44,0.59l-61.024,0l0,-112.25l0.144,0c6.584,0 14.834,-0.84 14.834,-0.84c0,7.05 0.144,14.48 0.7,21.35c0.144,1.34 0.288,2.72 0.391,4.06c0.247,2.36 0.535,4.58 0.885,6.66l0,0.04c0.102,0.95 0.288,1.79 0.452,2.68c0.597,2.92 1.317,5.49 2.202,7.55c0.411,0.97 0.864,1.83 1.337,2.57c0.802,1.19 1.687,2.06 2.695,2.49c0.515,0.23 1.049,0.35 1.626,0.35c0,0 0.535,0.06 1.502,0.29c1.008,0.22 2.51,0.64 4.32,1.36c2.16,0.84 4.773,2.09 7.53,3.95c6.42,4.32 13.723,11.85 18.538,24.93c2.16,5.87 3.806,12.82 4.67,21.09c0.412,4.05 0.638,8.42 0.638,13.13Z" style="fill:#efd0ad;fill-rule:nonzero;"/><path d="M163.224,237.25l0,0.04c-1.531,2.36 -6.671,9.14 -16.849,9.14l-0.1,0c-9.635,-0.05 -15.268,-7.02 -16.701,-9.09c0.296,-2.06 0.593,-4.22 0.84,-6.48c0.099,-1.33 0.247,-2.7 0.395,-4.12c4.695,1.17 9.834,1.91 15.269,2.01l0.197,0c5.633,-0.1 10.822,-0.89 15.664,-2.16c0.149,1.32 0.297,2.7 0.396,4.03c0.247,2.35 0.543,4.56 0.889,6.63Z" style="fill:#be987f;fill-rule:nonzero;"/><path d="M145.584,78.266c-64.336,0 -64.682,53.784 -61.816,88.994c-4.398,-8.35 -17.493,-5.8 -16.405,7.37c1.037,12.67 19.745,19.13 19.221,17.73c9.743,26.04 35.529,45.67 59,45.67l0.494,0l0,-159.764l-0.494,0Z" style="fill:#d2a686;fill-rule:nonzero;"/><path d="M71.464,169.08c3.162,-5.11 8.104,-2.9 9.29,-1.77c1.284,1.23 2.322,2.8 1.531,5.79c-0.444,1.72 -2.223,1.87 -1.828,4.42c0.494,2.9 1.828,3.05 2.619,3.74c0.741,0.63 1.68,1.13 2.125,2.35c0.494,1.23 0.543,2.51 0.296,3.64c-0.494,2.06 -3.508,0.39 -5.534,-0.49c-1.334,-0.64 -5.584,-4.23 -6.671,-5.41c-2.668,-3.04 -3.953,-8.93 -1.828,-12.27Z" style="fill:#ac8774;fill-rule:nonzero;"/><path d="M145.93,78.266c64.336,0 64.682,53.784 61.865,88.994c4.398,-8.35 17.442,-5.8 16.356,7.37c-0.988,12.67 -19.733,19.13 -19.222,17.73c-9.49,26.04 -35.528,45.67 -58.999,45.67c-0.149,0 -0.346,0 -0.346,0l-0.148,-159.764c0,0 0.345,0 0.494,0Z" style="fill:#ddb598;fill-rule:nonzero;"/><path d="M220.05,169.08c-3.163,-5.11 -8.055,-2.9 -9.29,-1.77c-1.285,1.23 -2.273,2.8 -1.532,5.79c0.445,1.72 2.224,1.87 1.828,4.42c-0.494,2.9 -1.828,3.05 -2.569,3.74c-0.741,0.63 -1.729,1.13 -2.174,2.35c-0.445,1.23 -0.544,2.51 -0.297,3.64c0.494,2.06 3.508,0.39 5.535,-0.49c1.383,-0.64 5.582,-4.23 6.67,-5.41c2.718,-3.04 3.953,-8.93 1.829,-12.27Z" style="fill:#ac8774;fill-rule:nonzero;"/><path d="M145.078,93.442c-21.149,0 -36.665,6.139 -46.004,18.221c-13.095,16.947 -12.6,42.777 -7.807,61.347c1.482,5.69 2.273,20.97 3.261,26.57c4.595,25.09 32.316,38.45 50.55,38.45c0,0 0.346,0 0.494,0l0,-144.588c-0.148,0 -0.297,0 -0.297,0" style="fill:#e0bd9a;fill-rule:nonzero;"/><path d="M191.032,111.712c-9.29,-12.033 -24.608,-18.172 -45.46,-18.27l0,144.588c20.852,-0.24 45.806,-14.88 50.055,-38.45c1.038,-5.6 1.779,-20.88 3.262,-26.57c4.842,-18.52 5.336,-44.3 -7.857,-61.298Z" style="fill:#efd0ad;fill-rule:nonzero;"/><path d="M145.765,215.09" style="fill:#bc917b;fill-rule:nonzero;"/><path d="M145.765,215.09" style="fill:#bc917b;fill-rule:nonzero;"/><path d="M142.197,212.4c-0.101,-0.02 -0.202,-0.04 -0.303,-0.06c0.099,0.02 0.187,0.04 0.303,0.06Z" style="fill:#bc917b;fill-rule:nonzero;"/><path d="M145.765,212.21" style="fill:#bc917b;fill-rule:nonzero;"/><path d="M141.412,212.22c-0.093,-0.02 -0.178,-0.05 -0.269,-0.07l-0.01,0c0,0 0.104,0.03 0.279,0.07Z" style="fill:#bc917b;fill-rule:nonzero;"/><path d="M145.765,212.21" style="fill:#bc917b;fill-rule:nonzero;"/><path d="M127.61,93.803l-0.267,0.267l0.044,0.089c0.089,-0.134 0.134,-0.267 0.223,-0.356Z" style="fill:#432e1b;fill-rule:nonzero;"/><path d="M86.646,144.75" style="fill:#432e1b;fill-rule:nonzero;"/><path d="M146.037,212.23" style="fill:#ba907b;fill-rule:nonzero;"/><path d="M146.037,212.23" style="fill:#ba907b;fill-rule:nonzero;"/><path d="M142.373,209.47c-0.105,-0.03 -0.208,-0.05 -0.311,-0.07c0.101,0.02 0.191,0.04 0.311,0.07Z" style="fill:#ba907b;fill-rule:nonzero;"/><path d="M146.037,209.27" style="fill:#ba907b;fill-rule:nonzero;"/><path d="M141.566,209.29c-0.096,-0.03 -0.182,-0.06 -0.276,-0.08l-0.011,0c0,0 0.107,0.03 0.287,0.08Z" style="fill:#ba907b;fill-rule:nonzero;"/><path d="M146.037,209.27" style="fill:#ba907b;fill-rule:nonzero;"/><path d="M132.999,194.96c-0.251,-5.13 9.426,-1.88 12.616,-1.71c2.521,0.12 10.192,-1.62 10.85,-1.17c4.513,3.04 -4.779,9.17 -11.01,9.17c-1.66,0 -12.306,-3.19 -12.456,-6.29Z" style="fill:#dcb497;fill-rule:nonzero;"/><path d="M99.419,149.88c0,0 4.908,20.13 13.335,21.77c8.426,1.65 17.546,-1.62 17.546,-1.62c0,0 0.872,-23.66 -3.443,-26.75c-4.311,-3.11 -14.25,-7.6 -27.438,6.6Z" style="fill:#fff;fill-rule:nonzero;"/><path d="M130.312,169.97c0,0 -0.194,0.05 -0.627,0.24c-0.107,-7.26 -0.779,-17.23 -3.473,-19.14c-4.006,-2.94 -13.052,-7.06 -25.138,4.23c-1.098,-3.12 -1.649,-5.49 -1.649,-5.49c13.212,-14.22 23.16,-9.74 27.439,-6.63c4.319,3.11 3.448,26.79 3.448,26.79Z" style="fill:#d6b496;fill-rule:nonzero;"/><path d="M125.322,159.72c0,4.58 -3.713,8.29 -8.294,8.29c-4.58,0 -8.293,-3.71 -8.293,-8.29c0,-4.59 3.713,-8.3 8.293,-8.3c4.581,0 8.294,3.71 8.294,8.3Z" style="fill:#482315;fill-rule:nonzero;"/><path d="M116.643,165.24c-2.395,-0.2 -4.234,-2.62 -4.015,-5.27c0.214,-2.66 2.422,-4.74 4.819,-4.54c2.395,0.2 4.23,2.61 4.019,5.27c-0.218,2.66 -2.429,4.74 -4.823,4.54Z" style="fill:#7e3a22;fill-rule:nonzero;"/><path d="M116.85,164.28c-1.667,-0.14 -3.397,-1.97 -3.213,-4.22c0.187,-2.26 2.189,-3.79 3.856,-3.65c1.668,0.14 3.393,1.98 3.21,4.23c-0.184,2.26 -2.19,3.78 -3.853,3.64Z" style="fill:#211a10;fill-rule:nonzero;"/><path d="M115.5,158.72c-0.07,0.82 -0.906,1.41 -1.863,1.33c-0.96,-0.08 -1.683,-0.81 -1.618,-1.62c0.069,-0.81 0.9,-1.41 1.859,-1.33c0.963,0.08 1.687,0.8 1.622,1.62Z" style="fill:#fff;fill-rule:nonzero;"/><path d="M120.877,163.43c-0.035,0.41 -0.452,0.71 -0.93,0.67c-0.481,-0.04 -0.841,-0.41 -0.811,-0.81c0.035,-0.41 0.453,-0.71 0.93,-0.67c0.481,0.04 0.846,0.4 0.811,0.81Z" style="fill:#fff;fill-rule:nonzero;"/><path d="M146.169,214.6" style="fill:#ba907b;fill-rule:nonzero;"/><path d="M146.169,214.6" style="fill:#ba907b;fill-rule:nonzero;"/><path d="M142.504,211.84c-0.104,-0.02 -0.207,-0.04 -0.311,-0.06c0.102,0.02 0.192,0.04 0.311,0.06Z" style="fill:#ba907b;fill-rule:nonzero;"/><path d="M146.169,211.64" style="fill:#ba907b;fill-rule:nonzero;"/><path d="M141.699,211.66c-0.096,-0.02 -0.183,-0.05 -0.277,-0.08l-0.011,0.01c0,0 0.107,0.03 0.288,0.07Z" style="fill:#ba907b;fill-rule:nonzero;"/><path d="M146.169,211.64" style="fill:#ba907b;fill-rule:nonzero;"/><path d="M146.056,214.23" style="fill:#bc917b;fill-rule:nonzero;"/><path d="M146.055,214.23l0.001,0l-0.001,0Z" style="fill:#bc917b;fill-rule:nonzero;"/><path d="M142.127,211.27c-0.111,-0.02 -0.222,-0.04 -0.333,-0.07c0.109,0.03 0.206,0.05 0.333,0.07Z" style="fill:#bc917b;fill-rule:nonzero;"/><path d="M146.056,211.06" style="fill:#bc917b;fill-rule:nonzero;"/><path d="M141.264,211.08c-0.103,-0.03 -0.196,-0.06 -0.297,-0.08l-0.011,0c0,0 0.114,0.03 0.308,0.08Z" style="fill:#bc917b;fill-rule:nonzero;"/><path d="M146.055,211.06l0.001,0l-0.001,0Z" style="fill:#bc917b;fill-rule:nonzero;"/><path d="M145.808,213.39" style="fill:#bc917b;fill-rule:nonzero;"/><path d="M145.807,213.39l0.001,0l-0.001,0Z" style="fill:#bc917b;fill-rule:nonzero;"/><path d="M141.879,210.43c-0.111,-0.02 -0.222,-0.04 -0.333,-0.07c0.109,0.02 0.205,0.04 0.333,0.07Z" style="fill:#bc917b;fill-rule:nonzero;"/><path d="M145.808,210.22" style="fill:#bc917b;fill-rule:nonzero;"/><path d="M141.016,210.24c-0.103,-0.03 -0.196,-0.06 -0.297,-0.09l-0.011,0.01c0,0 0.114,0.03 0.308,0.08Z" style="fill:#bc917b;fill-rule:nonzero;"/><path d="M145.807,210.22l0.001,0l-0.001,0Z" style="fill:#bc917b;fill-rule:nonzero;"/><path d="M146.447,213.18" style="fill:#bc917b;fill-rule:nonzero;"/><path d="M146.446,213.18l0.001,0l-0.001,0Z" style="fill:#bc917b;fill-rule:nonzero;"/><path d="M142.65,210.32c-0.108,-0.03 -0.215,-0.05 -0.323,-0.07c0.106,0.02 0.199,0.04 0.323,0.07Z" style="fill:#bc917b;fill-rule:nonzero;"/><path d="M146.447,210.11" style="fill:#bc917b;fill-rule:nonzero;"/><path d="M141.815,210.13c-0.099,-0.03 -0.19,-0.05 -0.287,-0.08l-0.011,0c0,0 0.111,0.03 0.298,0.08Z" style="fill:#bc917b;fill-rule:nonzero;"/><path d="M146.446,210.11l0.001,0l-0.001,0Z" style="fill:#bc917b;fill-rule:nonzero;"/><path d="M192.229,149.19c0,0 -4.908,20.14 -13.334,21.78c-8.427,1.64 -17.547,-1.62 -17.547,-1.62c0,0 -0.872,-23.67 3.443,-26.76c4.311,-3.1 14.25,-7.59 27.438,6.6Z" style="fill:#fff;fill-rule:nonzero;"/><path d="M161.336,169.28c0,0 0.194,0.06 0.627,0.24c0.107,-7.26 0.778,-17.23 3.473,-19.14c4.006,-2.93 13.052,-7.06 25.138,4.23c1.098,-3.12 1.649,-5.48 1.649,-5.48c-13.212,-14.22 -23.16,-9.74 -27.439,-6.63c-4.319,3.1 -3.448,26.78 -3.448,26.78Z" style="fill:#d6b496;fill-rule:nonzero;"/><path d="M166.326,159.03c0,4.58 3.713,8.29 8.294,8.29c4.58,0 8.293,-3.71 8.293,-8.29c0,-4.58 -3.713,-8.29 -8.293,-8.29c-4.581,0 -8.294,3.71 -8.294,8.29Z" style="fill:#482315;fill-rule:nonzero;"/><path d="M175.005,164.55c2.395,-0.19 4.234,-2.61 4.015,-5.27c-0.214,-2.66 -2.422,-4.73 -4.819,-4.53c-2.395,0.19 -4.231,2.61 -4.019,5.26c0.218,2.66 2.429,4.74 4.823,4.54Z" style="fill:#7e3a22;fill-rule:nonzero;"/><path d="M174.798,163.6c1.667,-0.15 3.397,-1.98 3.213,-4.23c-0.187,-2.26 -2.189,-3.78 -3.856,-3.65c-1.668,0.14 -3.393,1.98 -3.21,4.23c0.184,2.26 2.19,3.78 3.853,3.65Z" style="fill:#211a10;fill-rule:nonzero;"/><path d="M176.148,158.04c0.07,0.81 0.905,1.41 1.863,1.33c0.96,-0.08 1.683,-0.81 1.618,-1.62c-0.069,-0.82 -0.9,-1.41 -1.859,-1.34c-0.963,0.08 -1.687,0.81 -1.622,1.63Z" style="fill:#fff;fill-rule:nonzero;"/><path d="M170.771,162.75c0.035,0.4 0.452,0.7 0.93,0.66c0.481,-0.04 0.841,-0.4 0.811,-0.81c-0.035,-0.4 -0.453,-0.7 -0.93,-0.66c-0.481,0.04 -0.846,0.4 -0.811,0.81Z" style="fill:#fff;fill-rule:nonzero;"/><path d="M135.361,149.55c-0.064,-0.09 -1.593,-2.42 -4.719,-4.81c-1.959,-1.51 -3.878,-2.65 -5.87,-3.5c-2.419,-1.02 -5.026,-1.74 -7.551,-2.08c-2.284,-0.26 -4.815,-0.19 -7.768,0.21c-2.254,0.43 -4.453,1.1 -6.319,1.92c-1.331,0.46 -2.382,1.1 -3.227,1.62c-0.323,0.2 -0.616,0.38 -0.914,0.54l-4.025,2.53l4.639,-1.09c0.216,-0.06 0.45,-0.12 0.701,-0.18c0.96,-0.26 2.154,-0.58 3.555,-0.78c0.327,-0.05 0.661,-0.12 1.001,-0.18c0.584,-0.12 1.187,-0.24 1.819,-0.27c0.703,-0.05 1.432,-0.1 2.181,-0.15l0.973,-0.07c2.57,-0.04 4.739,0.16 6.667,0.6c2.107,0.37 4.273,1.05 6.259,1.97c1.875,0.89 3.673,1.78 5.076,2.81c2.833,1.9 4.41,3.47 4.425,3.49c0.39,0.39 0.91,0.59 1.433,0.59c0.381,0 0.763,-0.11 1.097,-0.33c0.934,-0.61 1.196,-1.87 0.602,-2.77l-0.035,-0.07Z" style="fill:#030405;fill-rule:nonzero;"/><path d="M193.058,143.43c-0.267,-0.14 -0.56,-0.32 -0.884,-0.52c-0.844,-0.52 -1.895,-1.16 -3.186,-1.61c-1.906,-0.83 -4.105,-1.5 -6.386,-1.94c-2.928,-0.39 -5.459,-0.46 -7.753,-0.2c-2.512,0.34 -5.119,1.06 -7.543,2.08c-1.963,0.84 -3.936,2.01 -5.866,3.5c-3.07,2.35 -4.596,4.63 -4.711,4.81l-0.029,0.04c-0.518,0.8 -0.407,1.86 0.263,2.54c0.382,0.38 0.889,0.59 1.428,0.59l0.001,0c0.54,0 1.046,-0.21 1.426,-0.59l0.016,-0.02c0.15,-0.15 1.68,-1.64 4.428,-3.48c1.381,-1.01 3.18,-1.9 5.05,-2.8c1.993,-0.92 4.16,-1.6 6.293,-1.97c1.901,-0.44 4.074,-0.63 6.61,-0.6l1.022,0.07c0.743,0.05 1.465,0.1 2.172,0.15c0.623,0.03 1.226,0.15 1.81,0.27c0.34,0.06 0.673,0.13 1,0.18c1.401,0.2 2.595,0.52 3.556,0.78c0.25,0.06 0.484,0.12 0.707,0.18l4.636,1.09l-4.06,-2.55Z" style="fill:#030405;fill-rule:nonzero;"/><path d="M143.169,221.61" style="fill:#be927b;fill-rule:nonzero;"/><path d="M143.169,221.61" style="fill:#be927b;fill-rule:nonzero;"/><path d="M139.529,218.87c-0.103,-0.02 -0.206,-0.04 -0.309,-0.07c0.101,0.03 0.19,0.04 0.309,0.07Z" style="fill:#be927b;fill-rule:nonzero;"/><path d="M143.169,218.67" style="fill:#be927b;fill-rule:nonzero;"/><path d="M138.729,218.69c-0.096,-0.02 -0.182,-0.05 -0.276,-0.08l-0.01,0.01c0,0 0.106,0.03 0.286,0.07Z" style="fill:#be927b;fill-rule:nonzero;"/><path d="M143.169,218.67" style="fill:#be927b;fill-rule:nonzero;"/><path d="M142.939,220.83" style="fill:#be927b;fill-rule:nonzero;"/><path d="M142.939,220.83" style="fill:#be927b;fill-rule:nonzero;"/><path d="M139.299,218.09c-0.103,-0.02 -0.206,-0.04 -0.309,-0.07c0.101,0.03 0.19,0.04 0.309,0.07Z" style="fill:#be927b;fill-rule:nonzero;"/><path d="M142.939,217.89" style="fill:#be927b;fill-rule:nonzero;"/><path d="M138.499,217.91c-0.096,-0.02 -0.182,-0.05 -0.276,-0.08l-0.01,0.01c0,0 0.106,0.03 0.286,0.07Z" style="fill:#be927b;fill-rule:nonzero;"/><path d="M142.939,217.89" style="fill:#be927b;fill-rule:nonzero;"/><path d="M143.531,220.63" style="fill:#be927b;fill-rule:nonzero;"/><path d="M143.531,220.63" style="fill:#be927b;fill-rule:nonzero;"/><path d="M140.013,217.98c-0.1,-0.02 -0.199,-0.04 -0.299,-0.06c0.098,0.02 0.184,0.04 0.299,0.06Z" style="fill:#be927b;fill-rule:nonzero;"/><path d="M143.531,217.79" style="fill:#be927b;fill-rule:nonzero;"/><path d="M139.239,217.81c-0.092,-0.02 -0.175,-0.05 -0.266,-0.08l-0.01,0.01c0,0 0.103,0.03 0.276,0.07Z" style="fill:#be927b;fill-rule:nonzero;"/><path d="M143.531,217.79" style="fill:#be927b;fill-rule:nonzero;"/><path d="M133.274,220.38c-0.24,-3.2 8.912,0.67 11.918,0.76c2.397,0.08 9.6,-0.47 10.266,-0.73c5.035,-1.88 -0.275,5.35 -10.415,5.73c-4.646,0.19 -11.631,-3.82 -11.769,-5.76Z" style="fill:#f0d2ad;fill-rule:nonzero;"/><path d="M163.441,212.69c-5.804,-1.08 -18.031,0.08 -18.031,0.08c-10.083,1.67 -17.974,-0.11 -18.032,-0.04c-0.24,0.02 8.053,11.02 17.894,10.51c9.842,0.51 18.41,-10.51 18.169,-10.55Z" style="fill:#c2646e;fill-rule:nonzero;"/><path d="M151.241,210.37c-2.615,-0.29 -4.478,1.6 -5.819,1.46c-1.366,0.13 -3.139,-1.08 -5.77,-1.11c-3.7,-0.04 -5.506,-0.36 -12.274,2.01c0.241,0.46 4.577,2.97 12.698,3.11c0.115,0 2.294,1.23 5.391,1.21c1.939,-0.01 4.599,-1.3 4.703,-1.3c8.133,-0.13 13.099,-2.55 13.328,-3c-8.946,-2.77 -8.237,-2.42 -12.257,-2.38Z" style="fill:#d87475;fill-rule:nonzero;"/><path d="M188.783,103.886c-5.947,10.243 -4.286,21.824 -24.441,29.424c-20.148,7.61 -29.2,9.69 -51.174,18.86c-49.832,20.79 -24.247,68.93 -24.247,68.93c0,0 -13.653,-12.39 -18.61,-25.28c-4.954,-12.91 -24.046,-69.07 0,-113.46c13.208,-24.367 37.645,-29.98 59.114,-31.624c21.458,-1.66 36.769,0.08 52.284,13.316c3.375,2.868 13.077,3.529 23.724,10.532c23.783,15.683 21.833,38.787 22.871,53.546c1.322,18.84 -1.554,32.31 -6.169,45.21c-4.633,12.89 -32.656,50.98 -32.656,50.98c0,0 21.802,-46.54 9.685,-76.78c-7.087,-17.7 -19.769,-16.69 -20.314,-23.57c-0.565,-6.866 9.933,-20.084 9.933,-20.084Z" style="fill:#f15e25;fill-rule:nonzero;"/><path d="M147.383,281.03l-0.411,1.07l-0.7,1.81l-13.352,34.56l-38.042,0c0.267,-4.54 0.679,-11.21 1.09,-14.83c1.605,-15.04 10.205,-19.5 11.933,-44.91c3.868,-2.6 7.428,-4.02 9.876,-4.78c0.823,-0.26 1.523,-0.45 2.057,-0.55c4.835,9.87 14.629,26.37 26.438,27.55c0.227,0.04 0.474,0.04 0.7,0.06c0.123,0 0.267,0.02 0.411,0.02Z" style="fill:#327799;fill-rule:nonzero;"/><path d="M197.914,318.47l-64.994,0l13.352,-34.56l0.7,-1.81l0.411,-1.07c7.962,0.12 16.809,-6.89 25.657,-27.61c1.008,0.22 2.51,0.64 4.32,1.36c2.16,0.84 4.773,2.09 7.53,3.95c1.749,25.41 10.329,29.85 11.933,44.91c0.412,3.62 0.823,10.29 1.091,14.83Z" style="fill:#1a4a5e;fill-rule:nonzero;"/></g></svg>