<?xml version="1.0" encoding="UTF-8" standalone="no"?><!DOCTYPE svg PUBLIC "-//W3C//DTD SVG 1.1//EN" "http://www.w3.org/Graphics/SVG/1.1/DTD/svg11.dtd"><svg width="100%" height="100%" viewBox="0 0 300 300" version="1.1" xmlns="http://www.w3.org/2000/svg" xmlns:xlink="http://www.w3.org/1999/xlink" xml:space="preserve" style="fill-rule:evenodd;clip-rule:evenodd;stroke-linejoin:round;stroke-miterlimit:1.41421;"><g id="_33"><rect x="0.27" y="0.07" width="299.36" height="299.705" style="fill:#f78f1e;fill-rule:nonzero;"/><path d="M156.33,187.505l0,112.27l-60.73,0c-0.98,-0.394 -1.48,-0.594 -1.48,-0.594c0,-14.331 2.11,-25.505 5.31,-34.219c7.73,-21.03 21.88,-27.709 28.39,-29.723c2.14,-0.661 3.46,-0.82 3.46,-0.82c0.23,0 0.44,-0.021 0.67,-0.056c1.91,-0.308 3.46,-1.969 4.71,-4.619c0.92,-1.968 1.7,-4.479 2.33,-7.386c0.25,-1.132 0.44,-2.275 0.64,-3.51c0.3,-2.077 0.59,-4.25 0.84,-6.525c0.1,-1.384 0.25,-2.717 0.4,-4.152c0.54,-6.868 0.69,-14.388 0.69,-21.507c0,0 8.16,0.841 14.77,0.841Z" style="fill:#e0bd9a;fill-rule:nonzero;"/><path d="M218.79,299.181c0,0 -0.54,0.2 -1.43,0.594l-61.03,0l0,-112.27l0.15,0c6.57,0 14.83,-0.841 14.83,-0.841c0,7.068 0.14,14.485 0.69,21.358c0.15,1.338 0.29,2.717 0.39,4.055c0.25,2.373 0.55,4.597 0.89,6.673l0,0.046c0.1,0.943 0.3,1.784 0.45,2.671c0.6,2.921 1.33,5.489 2.2,7.549c1.09,2.563 2.42,4.352 4.03,5.06c0.51,0.23 1.06,0.343 1.63,0.343c0,0 2.33,0.282 5.83,1.656c7.15,2.798 19.16,10.143 26.06,28.887c3.21,8.714 5.31,19.888 5.31,34.219Z" style="fill:#efd0ad;fill-rule:nonzero;"/><path d="M173.28,218.54l0,0.05c-1.53,2.357 -6.67,9.134 -16.85,9.134l-0.1,0c-9.63,-0.049 -15.26,-7.023 -16.7,-9.085c0.3,-2.063 0.6,-4.224 0.84,-6.483c0.1,-1.327 0.25,-2.702 0.4,-4.126c4.69,1.179 9.83,1.916 15.27,2.014l0.19,0c5.64,-0.098 10.83,-0.884 15.67,-2.161c0.15,1.326 0.29,2.701 0.39,4.027c0.25,2.357 0.55,4.568 0.89,6.63Z" style="fill:#be987f;fill-rule:nonzero;"/><path d="M155.64,59.561c-64.33,0 -64.68,53.779 -61.81,88.993c-4.4,-8.349 -17.5,-5.795 -16.41,7.367c1.04,12.671 19.75,19.129 19.22,17.73c9.75,26.043 35.53,45.675 59,45.675l0.5,0l0,-159.765l-0.5,0Z" style="fill:#d2a686;fill-rule:nonzero;"/><path d="M81.52,150.371c3.17,-5.108 8.11,-2.897 9.29,-1.768c1.29,1.228 2.32,2.8 1.53,5.796c-0.44,1.719 -2.22,1.866 -1.82,4.42c0.49,2.897 1.82,3.045 2.61,3.732c0.75,0.639 1.68,1.13 2.13,2.358c0.49,1.228 0.54,2.505 0.3,3.634c-0.5,2.063 -3.51,0.393 -5.54,-0.491c-1.33,-0.638 -5.58,-4.224 -6.67,-5.402c-2.67,-3.045 -3.95,-8.939 -1.83,-12.279Z" style="fill:#ac8774;fill-rule:nonzero;"/><path d="M155.99,59.561c64.33,0 64.68,53.779 61.86,88.993c4.4,-8.349 17.45,-5.795 16.36,7.367c-0.99,12.671 -19.73,19.134 -19.22,17.73c-9.49,26.043 -35.53,45.675 -59,45.675c-0.15,0 -0.35,0 -0.35,0l-0.15,-159.765c0,0 0.35,0 0.5,0Z" style="fill:#ddb598;fill-rule:nonzero;"/><path d="M230.11,150.371c-3.16,-5.108 -8.06,-2.897 -9.29,-1.768c-1.29,1.228 -2.27,2.8 -1.53,5.796c0.44,1.719 2.22,1.866 1.83,4.42c-0.5,2.897 -1.83,3.045 -2.57,3.732c-0.75,0.639 -1.73,1.13 -2.18,2.358c-0.44,1.228 -0.54,2.505 -0.29,3.634c0.49,2.063 3.5,0.393 5.53,-0.491c1.38,-0.638 5.58,-4.224 6.67,-5.402c2.72,-3.045 3.95,-8.939 1.83,-12.279Z" style="fill:#ac8774;fill-rule:nonzero;"/><path d="M155.14,74.737c-21.15,0 -36.67,6.139 -46.01,18.221c-13.09,16.944 -12.6,42.778 -7.8,61.342c1.48,5.697 2.27,20.972 3.26,26.571c4.59,25.096 32.31,38.455 50.55,38.455c0,0 0.34,0 0.49,0l0,-144.589c-0.15,0 -0.3,0 -0.3,0" style="fill:#e0bd9a;fill-rule:nonzero;"/><path d="M201.09,93.007c-9.29,-12.033 -24.61,-18.172 -45.46,-18.27l0,144.589c20.85,-0.245 45.81,-14.881 50.06,-38.455c1.03,-5.599 1.77,-20.874 3.26,-26.571c4.84,-18.515 5.33,-44.3 -7.86,-61.293Z" style="fill:#efd0ad;fill-rule:nonzero;"/><path d="M155.82,196.382" style="fill:#bc917b;fill-rule:nonzero;"/><path d="M155.82,196.382" style="fill:#bc917b;fill-rule:nonzero;"/><path d="M152.26,193.695c-0.11,-0.022 -0.21,-0.041 -0.31,-0.065c0.1,0.023 0.19,0.041 0.31,0.065Z" style="fill:#bc917b;fill-rule:nonzero;"/><path d="M155.82,193.503" style="fill:#bc917b;fill-rule:nonzero;"/><path d="M151.47,193.52c-0.09,-0.024 -0.18,-0.051 -0.27,-0.076l-0.01,0.004c0,0 0.11,0.029 0.28,0.072Z" style="fill:#bc917b;fill-rule:nonzero;"/><path d="M155.82,193.503" style="fill:#bc917b;fill-rule:nonzero;"/><path d="M137.67,75.098l-0.27,0.267l0.05,0.089c0.09,-0.133 0.13,-0.267 0.22,-0.356Z" style="fill:#432e1b;fill-rule:nonzero;"/><path d="M96.71,126.046" style="fill:#432e1b;fill-rule:nonzero;"/><path d="M156.1,193.522" style="fill:#ba907b;fill-rule:nonzero;"/><path d="M156.1,193.522" style="fill:#ba907b;fill-rule:nonzero;"/><path d="M152.43,190.762c-0.1,-0.022 -0.21,-0.043 -0.31,-0.066c0.1,0.022 0.19,0.041 0.31,0.066Z" style="fill:#ba907b;fill-rule:nonzero;"/><path d="M156.1,190.565" style="fill:#ba907b;fill-rule:nonzero;"/><path d="M151.63,190.582c-0.1,-0.025 -0.19,-0.052 -0.28,-0.078l-0.01,0.005c0,0 0.11,0.029 0.29,0.073Z" style="fill:#ba907b;fill-rule:nonzero;"/><path d="M156.1,190.565" style="fill:#ba907b;fill-rule:nonzero;"/><path d="M144.57,172.397c-0.25,-5.131 9.42,-1.875 12.61,-1.714c2.53,0.128 10.2,-1.618 10.85,-1.168c4.52,3.042 -4.78,9.17 -11.01,9.17c-1.66,0 -12.3,-3.192 -12.45,-6.288Z" style="fill:#dcb497;fill-rule:nonzero;"/><path d="M156.23,195.897" style="fill:#ba907b;fill-rule:nonzero;"/><path d="M156.23,195.897" style="fill:#ba907b;fill-rule:nonzero;"/><path d="M152.56,193.137c-0.1,-0.022 -0.2,-0.043 -0.31,-0.067c0.1,0.023 0.19,0.042 0.31,0.067Z" style="fill:#ba907b;fill-rule:nonzero;"/><path d="M156.23,192.94" style="fill:#ba907b;fill-rule:nonzero;"/><path d="M151.76,192.957c-0.1,-0.025 -0.19,-0.052 -0.28,-0.078l-0.01,0.004c0,0 0.11,0.03 0.29,0.074Z" style="fill:#ba907b;fill-rule:nonzero;"/><path d="M156.23,192.94" style="fill:#ba907b;fill-rule:nonzero;"/><path d="M156.11,195.526" style="fill:#bc917b;fill-rule:nonzero;"/><path d="M156.11,195.526" style="fill:#bc917b;fill-rule:nonzero;"/><path d="M152.19,192.568c-0.12,-0.024 -0.23,-0.045 -0.34,-0.071c0.11,0.024 0.21,0.045 0.34,0.071Z" style="fill:#bc917b;fill-rule:nonzero;"/><path d="M156.11,192.357" style="fill:#bc917b;fill-rule:nonzero;"/><path d="M151.32,192.375c-0.1,-0.026 -0.19,-0.056 -0.29,-0.083l-0.02,0.005c0,0 0.12,0.031 0.31,0.078Z" style="fill:#bc917b;fill-rule:nonzero;"/><path d="M156.11,192.357" style="fill:#bc917b;fill-rule:nonzero;"/><path d="M155.87,194.684" style="fill:#bc917b;fill-rule:nonzero;"/><path d="M155.87,194.684" style="fill:#bc917b;fill-rule:nonzero;"/><path d="M151.94,191.726c-0.11,-0.024 -0.22,-0.045 -0.34,-0.071c0.11,0.024 0.21,0.044 0.34,0.071Z" style="fill:#bc917b;fill-rule:nonzero;"/><path d="M155.87,191.515" style="fill:#bc917b;fill-rule:nonzero;"/><path d="M151.07,191.533c-0.1,-0.026 -0.19,-0.055 -0.29,-0.083l-0.01,0.004c0,0 0.11,0.032 0.3,0.079Z" style="fill:#bc917b;fill-rule:nonzero;"/><path d="M155.87,191.515" style="fill:#bc917b;fill-rule:nonzero;"/><path d="M156.51,194.47" style="fill:#bc917b;fill-rule:nonzero;"/><path d="M156.5,194.47l0.01,0l-0.01,0Z" style="fill:#bc917b;fill-rule:nonzero;"/><path d="M152.71,191.611c-0.11,-0.023 -0.22,-0.044 -0.32,-0.069c0.1,0.024 0.19,0.043 0.32,0.069Z" style="fill:#bc917b;fill-rule:nonzero;"/><path d="M156.51,191.407" style="fill:#bc917b;fill-rule:nonzero;"/><path d="M151.87,191.424c-0.1,-0.025 -0.19,-0.053 -0.28,-0.08l-0.01,0.005c0,0 0.11,0.03 0.29,0.075Z" style="fill:#bc917b;fill-rule:nonzero;"/><path d="M156.5,191.407l0.01,0l-0.01,0Z" style="fill:#bc917b;fill-rule:nonzero;"/><path d="M153.23,202.905" style="fill:#be927b;fill-rule:nonzero;"/><path d="M153.23,202.905" style="fill:#be927b;fill-rule:nonzero;"/><path d="M149.59,200.164c-0.11,-0.022 -0.21,-0.042 -0.31,-0.066c0.1,0.023 0.19,0.041 0.31,0.066Z" style="fill:#be927b;fill-rule:nonzero;"/><path d="M153.23,199.968" style="fill:#be927b;fill-rule:nonzero;"/><path d="M148.79,199.985c-0.1,-0.024 -0.18,-0.051 -0.28,-0.077l-0.01,0.004c0,0 0.11,0.029 0.29,0.073Z" style="fill:#be927b;fill-rule:nonzero;"/><path d="M153.23,199.968" style="fill:#be927b;fill-rule:nonzero;"/><path d="M153,202.125" style="fill:#be927b;fill-rule:nonzero;"/><path d="M153,202.125" style="fill:#be927b;fill-rule:nonzero;"/><path d="M149.36,199.384c-0.11,-0.022 -0.21,-0.042 -0.31,-0.066c0.1,0.022 0.19,0.041 0.31,0.066Z" style="fill:#be927b;fill-rule:nonzero;"/><path d="M153,199.188" style="fill:#be927b;fill-rule:nonzero;"/><path d="M148.56,199.205c-0.1,-0.025 -0.18,-0.052 -0.28,-0.077l-0.01,0.004c0,0 0.11,0.029 0.29,0.073Z" style="fill:#be927b;fill-rule:nonzero;"/><path d="M153,199.188" style="fill:#be927b;fill-rule:nonzero;"/><path d="M153.59,201.927" style="fill:#be927b;fill-rule:nonzero;"/><path d="M153.59,201.927" style="fill:#be927b;fill-rule:nonzero;"/><path d="M150.07,199.277c-0.1,-0.021 -0.2,-0.041 -0.3,-0.064c0.1,0.022 0.19,0.04 0.3,0.064Z" style="fill:#be927b;fill-rule:nonzero;"/><path d="M153.59,199.088" style="fill:#be927b;fill-rule:nonzero;"/><path d="M149.3,199.104c-0.09,-0.023 -0.18,-0.05 -0.27,-0.074l-0.01,0.004c0,0 0.11,0.028 0.28,0.07Z" style="fill:#be927b;fill-rule:nonzero;"/><path d="M153.59,199.088" style="fill:#be927b;fill-rule:nonzero;"/><path d="M143.33,201.673c-0.24,-3.199 8.92,0.671 11.92,0.763c2.4,0.081 9.6,-0.474 10.27,-0.728c5.03,-1.883 -0.28,5.349 -10.42,5.73c-4.64,0.185 -11.63,-3.824 -11.77,-5.765Z" style="fill:#f0d2ad;fill-rule:nonzero;"/><path d="M173.5,193.988c-5.8,-1.086 -18.03,0.073 -18.03,0.073c-10.08,1.675 -17.97,-0.107 -18.03,-0.038c-0.24,0.024 8.05,11.023 17.89,10.516c9.84,0.507 18.41,-10.516 18.17,-10.551Z" style="fill:#c2646e;fill-rule:nonzero;"/><path d="M161.3,191.666c-2.62,-0.289 -4.48,1.597 -5.82,1.459c-1.36,0.127 -3.14,-1.083 -5.77,-1.109c-3.7,-0.036 -5.5,-0.361 -12.27,2.007c0.24,0.462 4.57,2.972 12.69,3.11c0.12,0 2.3,1.236 5.4,1.214c1.93,-0.012 4.6,-1.306 4.7,-1.306c8.13,-0.127 13.1,-2.544 13.33,-2.994c-8.95,-2.773 -8.24,-2.417 -12.26,-2.381Z" style="fill:#d87475;fill-rule:nonzero;"/><path d="M146.16,242.206l-14.78,-9.623c0,0 -29.15,2.081 -37.43,43.836c-0.35,1.736 -0.65,3.558 -0.92,5.435l16.38,4.351l0,13.57l43.41,0l0,-46.839c0,-4.298 -2.29,-8.158 -5.84,-10.224c-0.28,-0.161 -0.55,-0.33 -0.82,-0.506Z" style="fill:#ed827c;fill-rule:nonzero;"/><path d="M219.75,276.419c-3.27,-17.093 -12.49,-38.26 -37.74,-43.902l-15.31,9.783l-0.06,0.034c-3.34,2.121 -5.47,5.872 -5.47,10.011l0,47.43l42.85,0l0,-13.57l16.59,-4.407c-0.23,-1.729 -0.51,-3.53 -0.86,-5.379Z" style="fill:#ed827c;fill-rule:nonzero;"/><path d="M152.82,263.388l0,36.387l8.35,0l0,-36.538c-2.74,0.469 -5.59,0.52 -8.35,0.151Z" style="fill:#b85756;fill-rule:nonzero;"/><path d="M93.03,281.854l-1.13,8.463l17.51,3.135l0,-7.247l-16.38,-4.351Z" style="fill:#b85756;fill-rule:nonzero;"/><path d="M204.02,293.63l16.88,-5.041l-0.29,-6.791l-16.59,4.407l0,7.425Z" style="fill:#b85756;fill-rule:nonzero;"/><path d="M119.86,266.146l23.39,0l0,4.374l-11.7,7.453l-11.69,-7.453l0,-4.374Z" style="fill:#b85756;fill-rule:nonzero;"/><path d="M168.24,266.146l23.39,0l0,4.374l-11.69,7.453l-11.7,-7.453l0,-4.374Z" style="fill:#b85756;fill-rule:nonzero;"/><path d="M139.06,39.4c-4.35,6.531 -0.51,7.741 2.74,7.778c1.77,0.02 3.52,-0.354 5.18,-0.973c3.39,-1.265 6.69,-2.494 9.79,-3.567c-3.71,5.329 -1.38,14.92 6.95,14.92c1,0 1.91,-0.146 2.74,-0.399c-0.14,0.086 -0.3,0.157 -0.44,0.25c3.76,-1.411 10.24,-1.914 21.1,1.953c1.52,0.539 2.92,1.114 4.22,1.707c4.63,1.849 13.87,5.516 31.63,12.452c0,0 -5.85,2.084 -12.84,2.792c3.35,3.583 6.81,6.647 12.59,8.273c15.11,4.259 19.49,-1.202 19.49,-1.202c0,0 -6.55,9.565 -18.2,9.591c-1.88,0 -2.07,-0.031 -2.08,-0.043c0.01,0.038 4.36,10.265 5.2,17.908c0.85,7.807 -1.82,13.147 -2.63,27.756c-0.24,4.074 -0.8,6.132 -1.62,7.383c-1.67,2.58 -4.41,1.706 -7.49,7.905c-1.54,3.085 -1.6,6.559 -1.6,6.559c0,0 -0.13,0.09 -0.33,0.156c-0.97,0.312 -3.73,0.058 -3.87,-12.959c0,0 12.22,-50.967 -12.68,-58.525c-10.85,-3.293 -25.42,-0.534 -39.66,2.846c-9.51,2.258 -19.1,5.911 -27.99,11.572c-11.48,7.295 -26.28,16.606 -29.37,33.241l0,0.073c0.45,4.471 0.65,8.062 0.69,10.953c0.14,11.971 -2.64,11.867 -2.64,11.867c-1.28,0 0.08,-6.024 -4.16,-10.178c-1.17,-1.142 -2.5,-3.05 -3.83,-5.476c-3.48,-6.392 -6.87,-16.507 -6.87,-26.627c-4.52,-68.607 55.98,-77.986 55.98,-77.986Z" style="fill:#030405;fill-rule:nonzero;"/><path d="M109.48,130.776c0,0 4.91,20.198 13.33,21.847c8.43,1.647 17.55,-1.629 17.55,-1.629c0,0 0.87,-23.737 -3.44,-26.839c-4.32,-3.115 -14.25,-7.617 -27.44,6.621Z" style="fill:#fff;fill-rule:nonzero;"/><path d="M140.37,150.932c0,0 -0.19,0.056 -0.63,0.237c-0.1,-7.281 -0.77,-17.281 -3.47,-19.197c-4.01,-2.942 -13.05,-7.083 -25.14,4.243c-1.1,-3.13 -1.65,-5.502 -1.65,-5.502c13.22,-14.264 23.16,-9.771 27.44,-6.653c4.32,3.114 3.45,26.872 3.45,26.872Z" style="fill:#d6b496;fill-rule:nonzero;"/><path d="M135.38,140.646c0,4.595 -3.71,8.32 -8.29,8.32c-4.58,0 -8.3,-3.725 -8.3,-8.32c0,-4.594 3.72,-8.319 8.3,-8.319c4.58,0 8.29,3.725 8.29,8.319Z" style="fill:#482315;fill-rule:nonzero;"/><path d="M126.7,146.187c-2.39,-0.198 -4.23,-2.623 -4.01,-5.289c0.21,-2.665 2.42,-4.75 4.82,-4.549c2.39,0.198 4.23,2.62 4.01,5.285c-0.21,2.665 -2.42,4.754 -4.82,4.553Z" style="fill:#7e3a22;fill-rule:nonzero;"/><path d="M126.91,145.226c-1.67,-0.143 -3.4,-1.977 -3.21,-4.237c0.18,-2.267 2.18,-3.797 3.85,-3.66c1.67,0.142 3.39,1.985 3.21,4.245c-0.18,2.263 -2.19,3.789 -3.85,3.652Z" style="fill:#211a10;fill-rule:nonzero;"/><path d="M125.56,135.536c-0.07,0.816 -0.91,1.413 -1.86,1.334c-0.96,-0.082 -1.69,-0.812 -1.62,-1.624c0.07,-0.82 0.9,-1.417 1.86,-1.339c0.96,0.078 1.68,0.808 1.62,1.629Z" style="fill:#fff;fill-rule:nonzero;"/><path d="M130.94,144.375c-0.04,0.407 -0.46,0.707 -0.93,0.666c-0.49,-0.038 -0.85,-0.406 -0.82,-0.812c0.04,-0.406 0.46,-0.707 0.93,-0.666c0.49,0.038 0.85,0.402 0.82,0.812Z" style="fill:#fff;fill-rule:nonzero;"/><path d="M202.29,130.089c0,0 -4.91,20.198 -13.34,21.847c-8.42,1.647 -17.54,-1.629 -17.54,-1.629c0,0 -0.88,-23.738 3.44,-26.839c4.31,-3.115 14.25,-7.617 27.44,6.621Z" style="fill:#fff;fill-rule:nonzero;"/><path d="M171.4,150.244c0,0 0.19,0.057 0.62,0.238c0.11,-7.281 0.78,-17.281 3.47,-19.197c4.01,-2.943 13.06,-7.084 25.14,4.242c1.1,-3.129 1.65,-5.501 1.65,-5.501c-13.21,-14.265 -23.16,-9.771 -27.44,-6.653c-4.32,3.114 -3.44,26.871 -3.44,26.871Z" style="fill:#d6b496;fill-rule:nonzero;"/><path d="M176.38,139.959c0,4.595 3.72,8.32 8.3,8.32c4.58,0 8.29,-3.725 8.29,-8.32c0,-4.595 -3.71,-8.319 -8.29,-8.319c-4.58,0 -8.3,3.724 -8.3,8.319Z" style="fill:#482315;fill-rule:nonzero;"/><path d="M185.06,145.499c2.4,-0.198 4.24,-2.622 4.02,-5.288c-0.21,-2.665 -2.42,-4.75 -4.82,-4.549c-2.39,0.198 -4.23,2.619 -4.02,5.284c0.22,2.666 2.43,4.755 4.82,4.553Z" style="fill:#7e3a22;fill-rule:nonzero;"/><path d="M184.86,144.538c1.66,-0.142 3.39,-1.977 3.21,-4.236c-0.19,-2.267 -2.19,-3.797 -3.86,-3.66c-1.66,0.142 -3.39,1.985 -3.21,4.245c0.19,2.262 2.19,3.789 3.86,3.651Z" style="fill:#211a10;fill-rule:nonzero;"/><path d="M186.21,138.963c0.07,0.817 0.9,1.414 1.86,1.335c0.96,-0.082 1.68,-0.812 1.62,-1.624c-0.07,-0.821 -0.9,-1.418 -1.86,-1.339c-0.96,0.078 -1.69,0.808 -1.62,1.628Z" style="fill:#fff;fill-rule:nonzero;"/><path d="M180.83,143.688c0.03,0.407 0.45,0.707 0.93,0.666c0.48,-0.038 0.84,-0.406 0.81,-0.812c-0.03,-0.406 -0.45,-0.707 -0.93,-0.666c-0.48,0.037 -0.85,0.402 -0.81,0.812Z" style="fill:#fff;fill-rule:nonzero;"/><path d="M145.42,130.454c-0.06,-0.099 -1.59,-2.431 -4.72,-4.835c-1.96,-1.507 -3.88,-2.654 -5.87,-3.508c-2.42,-1.021 -5.03,-1.742 -7.55,-2.088c-2.28,-0.255 -4.81,-0.187 -7.77,0.211c-2.25,0.431 -4.45,1.103 -6.32,1.929c-1.33,0.459 -2.38,1.105 -3.22,1.625c-0.33,0.199 -0.62,0.379 -0.92,0.539l-4.02,2.539l4.64,-1.093c0.21,-0.055 0.45,-0.117 0.7,-0.184c0.96,-0.255 2.15,-0.573 3.55,-0.779c0.33,-0.048 0.66,-0.114 1,-0.182c0.59,-0.117 1.19,-0.237 1.82,-0.268c0.7,-0.047 1.43,-0.099 2.18,-0.153l0.98,-0.07c2.57,-0.033 4.74,0.163 6.66,0.608c2.11,0.365 4.28,1.047 6.26,1.969c1.88,0.901 3.67,1.793 5.08,2.826c2.83,1.897 4.41,3.479 4.42,3.495c0.39,0.393 0.91,0.596 1.44,0.596c0.38,0 0.76,-0.108 1.09,-0.328c0.94,-0.613 1.2,-1.877 0.6,-2.788l-0.03,-0.061Z" style="fill:#030405;fill-rule:nonzero;"/><path d="M203.12,124.308c-0.27,-0.141 -0.56,-0.322 -0.89,-0.521c-0.84,-0.519 -1.89,-1.165 -3.18,-1.609c-1.91,-0.841 -4.11,-1.513 -6.39,-1.948c-2.93,-0.395 -5.46,-0.463 -7.75,-0.206c-2.51,0.345 -5.12,1.066 -7.55,2.087c-1.96,0.843 -3.93,2.023 -5.86,3.508c-3.07,2.36 -4.6,4.652 -4.71,4.828l-0.03,0.042c-0.52,0.8 -0.41,1.871 0.26,2.546c0.38,0.386 0.89,0.598 1.43,0.598c0.54,-0.001 1.05,-0.213 1.43,-0.599l0.01,-0.016c0.15,-0.149 1.68,-1.65 4.43,-3.491c1.38,-1.018 3.18,-1.912 5.05,-2.81c1.99,-0.925 4.16,-1.607 6.29,-1.978c1.9,-0.439 4.08,-0.631 6.61,-0.604l1.03,0.074c0.74,0.053 1.46,0.104 2.17,0.152c0.62,0.03 1.22,0.15 1.81,0.267c0.34,0.068 0.67,0.134 1,0.182c1.4,0.206 2.59,0.524 3.55,0.779c0.25,0.067 0.49,0.129 0.71,0.185l4.64,1.093l-4.06,-2.559Z" style="fill:#030405;fill-rule:nonzero;"/></g></svg>