<?xml version="1.0" encoding="UTF-8" standalone="no"?><!DOCTYPE svg PUBLIC "-//W3C//DTD SVG 1.1//EN" "http://www.w3.org/Graphics/SVG/1.1/DTD/svg11.dtd"><svg width="100%" height="100%" viewBox="0 0 300 300" version="1.1" xmlns="http://www.w3.org/2000/svg" xmlns:xlink="http://www.w3.org/1999/xlink" xml:space="preserve" style="fill-rule:evenodd;clip-rule:evenodd;stroke-linejoin:round;stroke-miterlimit:1.41421;"><g id="_34"><rect x="0.04" y="0.07" width="299.359" height="299.705" style="fill:#f9ad3a;fill-rule:nonzero;"/><path d="M156.77,187.151l0,112.624l-60.71,0c-0.99,-0.391 -1.48,-0.597 -1.48,-0.597c0,-7.9 0.64,-14.834 1.73,-20.924c0.92,-4.999 2.14,-9.464 3.58,-13.393c7.32,-20.06 20.47,-27.097 27.36,-29.483c0.37,-0.124 0.7,-0.227 1.03,-0.33c2.14,-0.679 3.46,-0.823 3.46,-0.823c0.22,0 0.43,-0.02 0.65,-0.061c1.92,-0.309 3.46,-1.975 4.72,-4.63c0.92,-1.975 1.7,-4.505 2.32,-7.406c0.25,-1.153 0.45,-2.284 0.66,-3.539c0.29,-2.078 0.57,-4.259 0.84,-6.543c0.08,-1.378 0.23,-2.715 0.39,-4.156c0.54,-6.892 0.68,-14.443 0.68,-21.582c0,0 8.17,0.843 14.77,0.843Z" style="fill:#e0bd9a;fill-rule:nonzero;"/><path d="M219.24,299.178c0,0 -0.54,0.206 -1.44,0.597l-61.03,0l0,-112.624l0.17,0c6.56,0 14.81,-0.843 14.81,-0.843c0,7.098 0.15,14.525 0.7,21.438c0.15,1.338 0.29,2.716 0.39,4.053c0.25,2.387 0.54,4.609 0.89,6.708l0,0.041c0.1,0.946 0.29,1.79 0.45,2.674c0.6,2.922 1.32,5.514 2.2,7.572c1.09,2.572 2.43,4.361 4.03,5.082c0.52,0.226 1.05,0.349 1.63,0.349c0,0 2.32,0.268 5.82,1.646c0.17,0.062 0.33,0.124 0.5,0.206c7.2,2.963 18.84,10.411 25.57,28.784c1.4,3.806 2.59,8.106 3.5,12.9c1.15,6.213 1.81,13.311 1.81,21.417Z" style="fill:#efd0ad;fill-rule:nonzero;"/><path d="M173.93,218.288l0,0.049c-1.53,2.365 -6.67,9.164 -16.85,9.164l-0.1,0c-9.63,-0.05 -15.27,-7.045 -16.7,-9.115c0.3,-2.069 0.59,-4.236 0.84,-6.503c0.1,-1.33 0.25,-2.709 0.4,-4.138c4.69,1.182 9.83,1.921 15.26,2.02l0.2,0c5.64,-0.099 10.82,-0.887 15.67,-2.168c0.14,1.33 0.29,2.71 0.39,4.04c0.25,2.365 0.55,4.582 0.89,6.651Z" style="fill:#be987f;fill-rule:nonzero;"/><path d="M156.29,58.811c-64.34,0 -64.68,53.947 -61.82,89.272c-4.39,-8.376 -17.49,-5.814 -16.4,7.39c1.04,12.71 19.74,19.188 19.22,17.785c9.74,26.124 35.53,45.818 59,45.818l0.49,0l0,-160.265l-0.49,0Z" style="fill:#d2a686;fill-rule:nonzero;"/><path d="M82.17,149.906c3.16,-5.124 8.1,-2.907 9.29,-1.774c1.29,1.232 2.32,2.808 1.53,5.814c-0.44,1.724 -2.22,1.872 -1.83,4.434c0.5,2.906 1.83,3.054 2.62,3.744c0.74,0.64 1.68,1.133 2.13,2.365c0.49,1.231 0.54,2.512 0.29,3.645c-0.49,2.07 -3.5,0.394 -5.53,-0.492c-1.33,-0.641 -5.58,-4.237 -6.67,-5.42c-2.67,-3.054 -3.95,-8.966 -1.83,-12.316Z" style="fill:#ac8774;fill-rule:nonzero;"/><path d="M156.64,58.811c64.33,0 64.68,53.947 61.86,89.272c4.4,-8.376 17.45,-5.814 16.36,7.39c-0.99,12.71 -19.74,19.193 -19.22,17.785c-9.49,26.124 -35.53,45.818 -59,45.818c-0.15,0 -0.35,0 -0.35,0l-0.15,-160.265c0,0 0.35,0 0.5,0Z" style="fill:#ddb598;fill-rule:nonzero;"/><path d="M230.76,149.906c-3.17,-5.124 -8.06,-2.907 -9.29,-1.774c-1.29,1.232 -2.28,2.808 -1.53,5.814c0.44,1.724 2.22,1.872 1.82,4.434c-0.49,2.906 -1.82,3.054 -2.57,3.744c-0.74,0.64 -1.73,1.133 -2.17,2.365c-0.45,1.231 -0.54,2.512 -0.3,3.645c0.5,2.07 3.51,0.394 5.54,-0.492c1.38,-0.641 5.58,-4.237 6.67,-5.42c2.72,-3.054 3.95,-8.966 1.83,-12.316Z" style="fill:#ac8774;fill-rule:nonzero;"/><path d="M155.78,74.035c-21.14,0 -36.66,6.159 -46,18.278c-13.09,16.997 -12.6,42.911 -7.81,61.534c1.49,5.715 2.28,21.037 3.26,26.653c4.6,25.175 32.32,38.576 50.55,38.576c0,0 0.35,0 0.5,0l0,-145.041c-0.15,0 -0.3,0 -0.3,0l-0.2,0Z" style="fill:#e0bd9a;fill-rule:nonzero;"/><path d="M201.74,92.363c-9.29,-12.071 -24.61,-18.229 -45.46,-18.328l0,145.041c20.85,-0.246 45.8,-14.928 50.05,-38.576c1.04,-5.616 1.78,-20.938 3.27,-26.653c4.84,-18.574 5.33,-44.438 -7.86,-61.484Z" style="fill:#efd0ad;fill-rule:nonzero;"/><path d="M156.47,190.628" style="fill:#bc917b;fill-rule:nonzero;"/><path d="M156.47,190.628" style="fill:#bc917b;fill-rule:nonzero;"/><path d="M152.9,193.365c-0.1,-0.022 -0.2,-0.042 -0.3,-0.065c0.1,0.022 0.19,0.041 0.3,0.065Z" style="fill:#bc917b;fill-rule:nonzero;"/><path d="M156.47,193.172" style="fill:#bc917b;fill-rule:nonzero;"/><path d="M152.12,193.189c-0.09,-0.024 -0.18,-0.051 -0.27,-0.076l-0.01,0.005c0,0 0.1,0.028 0.28,0.071Z" style="fill:#bc917b;fill-rule:nonzero;"/><path d="M156.47,193.172" style="fill:#bc917b;fill-rule:nonzero;"/><path d="M144.28,174.549c-0.25,-5.012 9.17,-1.831 12.28,-1.674c2.45,0.125 9.92,-1.58 10.56,-1.141c4.4,2.972 -4.65,8.957 -10.72,8.957c-1.61,0 -11.98,-3.119 -12.12,-6.142Z" style="fill:#ddb598;fill-rule:nonzero;"/><path d="M138.32,74.397l-0.27,0.268l0.04,0.09c0.09,-0.135 0.14,-0.269 0.23,-0.358Z" style="fill:#432e1b;fill-rule:nonzero;"/><path d="M156.74,193.191" style="fill:#ba907b;fill-rule:nonzero;"/><path d="M156.74,193.191" style="fill:#ba907b;fill-rule:nonzero;"/><path d="M153.08,190.423c-0.1,-0.023 -0.21,-0.043 -0.31,-0.067c0.1,0.023 0.19,0.042 0.31,0.067Z" style="fill:#ba907b;fill-rule:nonzero;"/><path d="M156.74,190.225" style="fill:#ba907b;fill-rule:nonzero;"/><path d="M152.27,190.242c-0.09,-0.025 -0.18,-0.052 -0.27,-0.078l-0.01,0.004c0,0 0.1,0.03 0.28,0.074Z" style="fill:#ba907b;fill-rule:nonzero;"/><path d="M156.74,190.225" style="fill:#ba907b;fill-rule:nonzero;"/><path d="M110.13,130.645c0,0 4.9,20.198 13.33,21.847c8.43,1.647 17.55,-1.629 17.55,-1.629c0,0 0.87,-23.737 -3.45,-26.839c-4.31,-3.115 -14.25,-7.617 -27.43,6.621Z" style="fill:#fff;fill-rule:nonzero;"/><path d="M141.02,150.801c0,0 -0.2,0.056 -0.63,0.238c-0.11,-7.281 -0.78,-17.282 -3.47,-19.198c-4.01,-2.942 -13.05,-7.083 -25.14,4.243c-1.1,-3.13 -1.65,-5.502 -1.65,-5.502c13.21,-14.264 23.16,-9.77 27.44,-6.653c4.32,3.114 3.45,26.872 3.45,26.872Z" style="fill:#d6b496;fill-rule:nonzero;"/><path d="M136.03,140.516c0,4.595 -3.71,8.319 -8.3,8.319c-4.58,0 -8.29,-3.724 -8.29,-8.319c0,-4.595 3.71,-8.32 8.29,-8.32c4.59,0 8.3,3.725 8.3,8.32Z" style="fill:#482315;fill-rule:nonzero;"/><path d="M127.35,146.056c-2.4,-0.198 -4.23,-2.623 -4.02,-5.288c0.22,-2.665 2.43,-4.751 4.82,-4.55c2.4,0.198 4.23,2.62 4.02,5.285c-0.22,2.665 -2.43,4.755 -4.82,4.553Z" style="fill:#7e3a22;fill-rule:nonzero;"/><path d="M127.56,145.095c-1.67,-0.143 -3.4,-1.977 -3.22,-4.237c0.19,-2.267 2.19,-3.797 3.86,-3.66c1.67,0.142 3.39,1.985 3.21,4.245c-0.18,2.263 -2.19,3.79 -3.85,3.652Z" style="fill:#211a10;fill-rule:nonzero;"/><path d="M126.21,139.519c-0.07,0.818 -0.91,1.414 -1.87,1.335c-0.96,-0.082 -1.68,-0.812 -1.61,-1.624c0.07,-0.82 0.9,-1.417 1.85,-1.338c0.97,0.077 1.69,0.807 1.63,1.627Z" style="fill:#fff;fill-rule:nonzero;"/><path d="M131.58,144.245c-0.03,0.406 -0.45,0.706 -0.93,0.666c-0.48,-0.038 -0.84,-0.406 -0.81,-0.812c0.04,-0.406 0.46,-0.708 0.93,-0.666c0.48,0.037 0.85,0.401 0.81,0.812Z" style="fill:#fff;fill-rule:nonzero;"/><path d="M156.88,190.141" style="fill:#ba907b;fill-rule:nonzero;"/><path d="M156.88,190.141" style="fill:#ba907b;fill-rule:nonzero;"/><path d="M153.21,192.805c-0.1,-0.022 -0.21,-0.043 -0.31,-0.067c0.1,0.023 0.19,0.042 0.31,0.067Z" style="fill:#ba907b;fill-rule:nonzero;"/><path d="M156.88,192.607" style="fill:#ba907b;fill-rule:nonzero;"/><path d="M152.41,192.624c-0.1,-0.024 -0.19,-0.052 -0.28,-0.077l-0.01,0.004c0,0 0.11,0.029 0.29,0.073Z" style="fill:#ba907b;fill-rule:nonzero;"/><path d="M156.88,192.607" style="fill:#ba907b;fill-rule:nonzero;"/><path d="M156.76,189.769" style="fill:#bc917b;fill-rule:nonzero;"/><path d="M156.76,189.769" style="fill:#bc917b;fill-rule:nonzero;"/><path d="M152.83,192.234c-0.11,-0.024 -0.22,-0.045 -0.33,-0.071c0.11,0.024 0.21,0.045 0.33,0.071Z" style="fill:#bc917b;fill-rule:nonzero;"/><path d="M156.76,192.023" style="fill:#bc917b;fill-rule:nonzero;"/><path d="M151.97,192.041c-0.1,-0.027 -0.2,-0.056 -0.3,-0.083l-0.01,0.004c0,0 0.12,0.031 0.31,0.079Z" style="fill:#bc917b;fill-rule:nonzero;"/><path d="M156.76,192.023" style="fill:#bc917b;fill-rule:nonzero;"/><path d="M156.51,188.925" style="fill:#bc917b;fill-rule:nonzero;"/><path d="M156.51,188.925" style="fill:#bc917b;fill-rule:nonzero;"/><path d="M152.59,191.39c-0.12,-0.024 -0.23,-0.046 -0.34,-0.071c0.11,0.024 0.21,0.044 0.34,0.071Z" style="fill:#bc917b;fill-rule:nonzero;"/><path d="M156.51,191.178" style="fill:#bc917b;fill-rule:nonzero;"/><path d="M151.72,191.196c-0.1,-0.026 -0.19,-0.056 -0.29,-0.083l-0.02,0.004c0,0 0.12,0.032 0.31,0.079Z" style="fill:#bc917b;fill-rule:nonzero;"/><path d="M156.51,191.178" style="fill:#bc917b;fill-rule:nonzero;"/><path d="M157.15,188.71" style="fill:#bc917b;fill-rule:nonzero;"/><path d="M157.15,188.71" style="fill:#bc917b;fill-rule:nonzero;"/><path d="M153.36,191.274c-0.11,-0.023 -0.22,-0.044 -0.33,-0.069c0.11,0.024 0.2,0.044 0.33,0.069Z" style="fill:#bc917b;fill-rule:nonzero;"/><path d="M157.15,191.07" style="fill:#bc917b;fill-rule:nonzero;"/><path d="M152.52,191.087c-0.1,-0.025 -0.19,-0.054 -0.29,-0.08l-0.01,0.004c0,0 0.11,0.031 0.3,0.076Z" style="fill:#bc917b;fill-rule:nonzero;"/><path d="M157.15,191.07" style="fill:#bc917b;fill-rule:nonzero;"/><path d="M202.94,129.958c0,0 -4.91,20.198 -13.34,21.847c-8.43,1.647 -17.55,-1.629 -17.55,-1.629c0,0 -0.87,-23.737 3.45,-26.839c4.31,-3.115 14.25,-7.617 27.44,6.621Z" style="fill:#fff;fill-rule:nonzero;"/><path d="M172.04,150.114c0,0 0.2,0.056 0.63,0.237c0.11,-7.28 0.78,-17.281 3.47,-19.197c4.01,-2.942 13.05,-7.084 25.14,4.242c1.1,-3.129 1.65,-5.501 1.65,-5.501c-13.21,-14.264 -23.16,-9.77 -27.44,-6.653c-4.32,3.114 -3.45,26.872 -3.45,26.872Z" style="fill:#d6b496;fill-rule:nonzero;"/><path d="M177.03,139.828c0,4.596 3.72,8.32 8.3,8.32c4.58,0 8.29,-3.724 8.29,-8.32c0,-4.595 -3.71,-8.319 -8.29,-8.319c-4.58,0 -8.3,3.724 -8.3,8.319Z" style="fill:#482315;fill-rule:nonzero;"/><path d="M185.71,145.369c2.4,-0.198 4.24,-2.623 4.02,-5.289c-0.22,-2.665 -2.42,-4.75 -4.82,-4.549c-2.4,0.198 -4.23,2.619 -4.02,5.285c0.22,2.665 2.43,4.755 4.82,4.553Z" style="fill:#7e3a22;fill-rule:nonzero;"/><path d="M185.5,144.407c1.67,-0.142 3.4,-1.976 3.22,-4.236c-0.19,-2.267 -2.19,-3.797 -3.86,-3.659c-1.67,0.141 -3.39,1.984 -3.21,4.244c0.19,2.263 2.19,3.789 3.85,3.651Z" style="fill:#211a10;fill-rule:nonzero;"/><path d="M186.85,138.832c0.07,0.817 0.91,1.414 1.87,1.335c0.96,-0.081 1.68,-0.812 1.62,-1.624c-0.07,-0.82 -0.9,-1.417 -1.86,-1.339c-0.97,0.078 -1.69,0.808 -1.63,1.628Z" style="fill:#fff;fill-rule:nonzero;"/><path d="M181.48,143.558c0.03,0.406 0.45,0.706 0.93,0.665c0.48,-0.038 0.84,-0.406 0.81,-0.812c-0.04,-0.406 -0.45,-0.707 -0.93,-0.665c-0.48,0.037 -0.85,0.402 -0.81,0.812Z" style="fill:#fff;fill-rule:nonzero;"/><path d="M146.07,130.323c-0.07,-0.098 -1.6,-2.43 -4.72,-4.835c-1.96,-1.507 -3.88,-2.654 -5.87,-3.508c-2.42,-1.02 -5.03,-1.742 -7.55,-2.088c-2.29,-0.254 -4.82,-0.187 -7.77,0.212c-2.25,0.43 -4.45,1.103 -6.32,1.928c-1.33,0.46 -2.38,1.105 -3.23,1.625c-0.32,0.199 -0.61,0.379 -0.91,0.54l-4.03,2.538l4.64,-1.093c0.22,-0.055 0.45,-0.117 0.7,-0.184c0.96,-0.255 2.16,-0.572 3.56,-0.778c0.33,-0.048 0.66,-0.115 1,-0.183c0.58,-0.117 1.19,-0.237 1.82,-0.267c0.7,-0.048 1.43,-0.1 2.18,-0.154l0.97,-0.07c2.57,-0.032 4.74,0.163 6.67,0.608c2.11,0.365 4.27,1.047 6.26,1.97c1.87,0.9 3.67,1.792 5.08,2.825c2.83,1.898 4.41,3.48 4.42,3.495c0.39,0.394 0.91,0.596 1.43,0.596c0.38,0 0.77,-0.107 1.1,-0.328c0.93,-0.614 1.2,-1.877 0.6,-2.787l-0.03,-0.062Z" style="fill:#030405;fill-rule:nonzero;"/><path d="M203.76,124.178c-0.26,-0.142 -0.56,-0.323 -0.88,-0.522c-0.84,-0.519 -1.89,-1.164 -3.19,-1.608c-1.9,-0.841 -4.1,-1.514 -6.38,-1.949c-2.93,-0.394 -5.46,-0.463 -7.75,-0.206c-2.52,0.345 -5.12,1.067 -7.55,2.088c-1.96,0.842 -3.93,2.022 -5.86,3.507c-3.07,2.361 -4.6,4.652 -4.71,4.828l-0.03,0.042c-0.52,0.8 -0.41,1.871 0.26,2.546c0.38,0.386 0.89,0.597 1.43,0.597c0.54,0 1.04,-0.212 1.42,-0.597l0.02,-0.017c0.15,-0.149 1.68,-1.65 4.43,-3.491c1.38,-1.017 3.18,-1.911 5.05,-2.81c1.99,-0.925 4.16,-1.607 6.29,-1.977c1.9,-0.44 4.08,-0.631 6.61,-0.604l1.02,0.073c0.75,0.053 1.47,0.104 2.18,0.152c0.62,0.03 1.22,0.15 1.81,0.267c0.34,0.068 0.67,0.135 1,0.183c1.4,0.206 2.59,0.523 3.55,0.778c0.25,0.067 0.49,0.129 0.71,0.185l4.63,1.093l-4.06,-2.558Z" style="fill:#030405;fill-rule:nonzero;"/><path d="M155.59,198.091" style="fill:#be927b;fill-rule:nonzero;"/><path d="M155.59,198.091" style="fill:#be927b;fill-rule:nonzero;"/><path d="M151.75,195.196c-0.1,-0.023 -0.21,-0.044 -0.32,-0.069c0.11,0.023 0.2,0.043 0.32,0.069Z" style="fill:#be927b;fill-rule:nonzero;"/><path d="M155.59,194.99" style="fill:#be927b;fill-rule:nonzero;"/><path d="M150.91,195.007c-0.1,-0.025 -0.19,-0.054 -0.29,-0.081l-0.01,0.005c0,0 0.11,0.03 0.3,0.076Z" style="fill:#be927b;fill-rule:nonzero;"/><path d="M155.59,194.99" style="fill:#be927b;fill-rule:nonzero;"/><path d="M144.39,199.363c-0.24,-3.247 9.02,0.68 12.06,0.774c2.42,0.082 9.71,-0.481 10.38,-0.739c5.1,-1.911 -0.27,5.429 -10.53,5.815c-4.7,0.188 -11.77,-3.88 -11.91,-5.85Z" style="fill:#f0d2ad;fill-rule:nonzero;"/><path d="M174.54,193.103c-2.52,-0.125 -5.1,1.977 -8.12,1.656c-0.13,-0.062 -0.19,-0.062 -0.32,-0.062c-0.69,-0.123 -1.38,0 -2.13,0.185c-0.94,0.198 -1.89,0.58 -2.78,0.889c-1.51,0.493 -3.21,0.888 -4.96,0.752l0,0.012l-0.1,-0.012l-0.1,0.012l0,-0.012c-1.75,0.136 -3.45,-0.259 -4.96,-0.752c-0.89,-0.309 -1.84,-0.691 -2.78,-0.889c-0.75,-0.185 -1.44,-0.308 -2.13,-0.185c-0.13,0 -0.2,0 -0.32,0.062c-3.02,0.321 -5.6,-1.781 -8.12,-1.656c-0.69,0.061 -1.7,-0.125 -2.26,-0.125c0.12,0.062 0.25,0.125 0.38,0.186c7.16,3.504 13.35,10.068 20.19,9.858l0.2,0c6.84,0.21 13.03,-6.354 20.19,-9.858c0.13,-0.061 0.26,-0.124 0.38,-0.186c-0.56,0 -1.57,0.186 -2.26,0.125Z" style="fill:#dcbf9e;fill-rule:nonzero;"/><path d="M176.64,192.902c0,0 -7.28,-2.815 -12.47,-1.164c0,0 -1.93,0.755 -3.92,1.215c-1.22,0.475 -2.69,0.613 -4.12,0.556c-1.09,-0.044 -2.13,-0.183 -2.98,-0.332c-0.28,-0.043 -0.56,-0.101 -0.85,-0.163c-0.13,-0.026 -0.22,-0.046 -0.33,-0.07c-0.17,-0.041 -0.34,-0.074 -0.51,-0.119c-0.19,-0.046 -0.3,-0.077 -0.3,-0.077l0.01,-0.004c-1.66,-0.45 -3.08,-1.006 -3.08,-1.006c-5.19,-1.651 -12.47,1.164 -12.47,1.164c-0.1,0.046 -0.16,0.076 -0.16,0.076c0.56,0 1.57,0.186 2.26,0.125c2.52,-0.125 5.1,1.977 8.12,1.656c0.12,-0.062 0.19,-0.062 0.32,-0.062c0.69,-0.123 1.38,0 2.13,0.185c0.94,0.198 1.89,0.58 2.78,0.889c1.51,0.493 3.21,0.888 4.96,0.752l0,0.012l0.1,-0.012l0.1,0.012l0,-0.012c1.75,0.136 3.45,-0.259 4.96,-0.752c0.89,-0.309 1.84,-0.691 2.78,-0.889c0.75,-0.185 1.44,-0.308 2.13,-0.185c0.13,0 0.19,0 0.32,0.062c3.02,0.321 5.6,-1.781 8.12,-1.656c0.69,0.061 1.7,-0.125 2.26,-0.125c0,0 -0.06,-0.03 -0.16,-0.076Z" style="fill:#c69f83;fill-rule:nonzero;"/><path d="M143.89,194.617c0.13,0.033 13.66,4.163 24.23,0.09l-1.22,-0.822l-14.29,0l-8.72,0.732Z" style="fill:#c69f83;fill-rule:nonzero;"/><path d="M213.94,264.853c-4.2,-11.44 -10.29,-18.641 -16.03,-23.167c-3.48,-2.736 -6.83,-4.506 -9.55,-5.617l-23.62,26.868c-4.2,4.769 -11.68,4.599 -15.65,-0.355l-21.83,-27.212c-2.47,0.843 -5.7,2.304 -9.2,4.691c-6.31,4.361 -13.45,11.871 -18.17,24.792c-1.44,3.929 -2.65,8.394 -3.58,13.393c7.62,1.811 14.35,3.416 14.35,3.416l0,18.105l90.38,0l0,-18.105c0,0 8,-1.913 16.4,-3.909c-0.91,-4.794 -2.1,-9.094 -3.5,-12.9Z" style="fill:#8868ad;fill-rule:nonzero;"/><path d="M238.36,183.267c20.14,-29.746 3.34,-86.136 3.34,-86.136c0,0 -0.12,0.136 -0.36,0.392c-5.18,-17.767 -13.8,-27.367 -13.8,-27.367l0,0.008c-4.2,-6.01 -10.14,-12.322 -17.42,-18.547c-14.91,-12.729 -24.29,-10.11 -36.63,-9.744c0,0 -0.04,0.08 -0.1,0.207c-5.43,-1.108 -34.57,-6.619 -51.91,-0.521c-19.17,6.755 -34.86,18.336 -45.94,49.444c-2.8,7.856 -4.3,15.35 -4.96,22.344c-0.27,-0.243 -0.42,-0.374 -0.42,-0.374c0,0 -11.77,57.81 10.9,85.429c0,0 -5.46,-16.628 -2.65,-30.183c10.2,28.715 36.74,46.441 36.74,46.441c0,0 -8.24,-9.187 -11.93,-18.354c-2.86,-7.114 -7.13,-19.33 -7.13,-37.314c0,-17.991 18.63,-40.257 18.63,-40.257c0,0 -8.59,13.969 -10.28,29.336c-1.72,15.36 7.3,27.243 7.3,27.243c0,0 -1.8,-18.241 4.5,-32.763c3.17,-7.295 8.37,-13.655 16.89,-16.287l-0.02,0.033c-4.57,11.77 4.62,21.661 4.62,21.661c0,0 0.03,-2.953 0.94,-7.504c2.36,-11.779 10.59,-34.305 39.38,-44.321l0.9,1.227l20.28,27.871c1,1.27 2.62,3.41 4.5,6.179c5.5,8.061 13.09,21.278 13.09,32.775c0,17.984 -4.27,30.196 -7.14,37.31c-3.68,9.167 -11.92,18.36 -11.92,18.36c0,0 24.48,-16.36 35.46,-43.108l0,0.015c2.66,-5.993 4.79,-11.758 6.48,-17.301c1.47,11.709 -1.34,23.806 -1.34,23.806Z" style="fill:#753a40;fill-rule:nonzero;"/><path d="M152.41,140.762l-2.85,0c0,-3.657 2.89,-6.696 6.43,-6.696l0,3.087c-1.97,0 -3.58,1.615 -3.58,3.609Z" style="fill:#fff;fill-rule:nonzero;"/><path d="M163.37,140.762l-2.84,0c0,-1.994 -2.05,-3.609 -4.54,-3.609l0,-3.087c4.06,0 7.38,3.039 7.38,6.696Z" style="fill:#fff;fill-rule:nonzero;"/><path d="M149.91,139.195c-1.92,11.92 -19.44,23.27 -27.39,27.401c-7.91,-4.131 -25.44,-15.481 -27.31,-27.401c-0.79,-4.654 0.91,-9.023 5.11,-13.392c2.49,-2.612 5.24,-3.846 8.39,-3.846c5.46,0 10.62,3.988 11.75,5.129l2.06,2.754l2.09,-2.754c1.14,-1.141 6.3,-5.129 11.76,-5.129c3.14,0 5.9,1.234 8.39,3.846c4.19,4.369 5.85,8.738 5.15,13.392Zm-27.39,-14.151c-0.44,-0.618 -13.46,-12.585 -24.17,-1.473c-22.55,23.507 23.86,46.255 23.86,46.255c0.66,0 47.02,-22.748 24.51,-46.255c-10.7,-11.112 -23.72,0.855 -24.2,1.473Z" style="fill:#fff;fill-rule:nonzero;"/><path d="M190.51,166.596c-7.95,-4.131 -25.43,-15.481 -27.35,-27.401c-0.75,-4.654 0.96,-9.023 5.15,-13.392c2.49,-2.612 5.25,-3.846 8.39,-3.846c5.46,0 10.62,3.988 11.76,5.129l2.05,2.754l2.1,-2.754c1.13,-1.141 6.29,-5.129 11.75,-5.129c3.15,0 5.9,1.234 8.39,3.846c4.2,4.369 5.86,8.738 5.11,13.392c-1.87,11.92 -19.4,23.27 -27.35,27.401Zm24.16,-43.025c-10.66,-11.112 -23.68,0.855 -24.16,1.473c-0.44,-0.618 -13.46,-12.585 -24.17,-1.473c-22.54,23.507 23.86,46.255 24.17,46.397c0.35,-0.142 46.71,-22.89 24.16,-46.397Z" style="fill:#fff;fill-rule:nonzero;"/><path d="M140.38,154.053c-1.13,-0.776 -2.26,-1.468 -3.39,-2.082c2.44,-0.543 4.02,-1.108 4.02,-1.108c0,0 0,-0.02 0,-0.059c0.01,-0.002 0.01,-0.003 0.01,-0.003c0,0 0.35,-9.58 -0.5,-17.371c0.22,-0.67 0.46,-1.354 0.71,-2.049c1.13,0.908 1.73,1.514 1.74,1.523c0.39,0.394 0.91,0.596 1.43,0.596c0.38,0 0.77,-0.107 1.1,-0.328c0.93,-0.614 1.2,-1.877 0.6,-2.787l-0.03,-0.062c-0.05,-0.078 -1.03,-1.57 -3,-3.387c0.29,-0.627 0.59,-1.259 0.91,-1.895c0.26,0.24 0.52,0.493 0.78,0.762c0.42,0.442 0.82,0.885 1.19,1.328c2.18,2.583 3.48,5.185 3.92,7.884c0.19,1.106 0.22,2.278 0.09,3.436c-0.24,0.677 -0.38,1.403 -0.39,2.157c-1.25,4.76 -4.86,9.384 -9.19,13.445Zm-26.29,-5.397c0.38,-1.358 0.82,-2.71 1.32,-4.04c0.67,1.234 1.4,2.414 2.19,3.469c-1.2,0.133 -2.37,0.326 -3.51,0.571Z" style="fill:#cf573c;fill-rule:nonzero;"/><path d="M136.99,151.971c-2.77,-1.51 -5.52,-2.548 -8.21,-3.201c2.77,-0.35 5.12,-2.07 6.34,-4.463c1.35,2.299 2.61,3.651 2.61,3.651c0,0 0.03,-2.953 0.94,-7.504c0.18,-0.9 0.4,-1.864 0.65,-2.879c0.75,3.964 1.01,9.184 1.07,13.464c0.38,-0.16 0.58,-0.223 0.62,-0.235c0,0.039 0,0.059 0,0.059c0,0 -1.58,0.565 -4.02,1.108Zm-19.39,-3.886c-0.79,-1.055 -1.52,-2.235 -2.19,-3.469c0.26,-0.695 0.54,-1.384 0.83,-2.065c2.44,-5.629 6.1,-10.702 11.56,-13.935c1.62,0.04 3.1,0.336 4.4,0.767c-0.27,1.341 -0.38,2.645 -0.36,3.901c-1.21,-0.693 -2.61,-1.088 -4.11,-1.088c-4.58,0 -8.29,3.725 -8.29,8.32c0,3.292 1.91,6.137 4.67,7.486c-0.95,-0.084 -1.89,-0.124 -2.82,-0.124c-1.25,0 -2.48,0.072 -3.69,0.207Z" style="fill:#d5664e;fill-rule:nonzero;"/><path d="M140.39,151.039c-0.06,-4.28 -0.32,-9.5 -1.07,-13.464c0.33,-1.303 0.72,-2.691 1.2,-4.145c0.85,7.791 0.5,17.371 0.5,17.371c0,0 0,0.001 -0.01,0.003c-0.04,0.012 -0.24,0.075 -0.62,0.235Zm-8.19,-21.656c-1.3,-0.431 -2.78,-0.727 -4.4,-0.767c1.55,-0.92 3.25,-1.691 5.11,-2.284c0.05,0.024 0.11,0.047 0.16,0.071c-0.38,1.009 -0.67,2.004 -0.87,2.98Z" style="fill:#cd553c;fill-rule:nonzero;"/><path d="M128.78,148.77c-1.58,-0.383 -3.13,-0.633 -4.67,-0.768c-2.76,-1.349 -4.67,-4.194 -4.67,-7.486c0,-4.595 3.71,-8.32 8.29,-8.32c1.5,0 2.9,0.395 4.11,1.088c0.05,4.511 1.73,8.389 3.28,11.023c-1.22,2.393 -3.57,4.113 -6.34,4.463Zm-5.42,-8.272c-0.01,0.089 -0.02,0.179 -0.03,0.27c-0.21,2.665 1.62,5.09 4.02,5.288c0.11,0.009 0.21,0.014 0.32,0.014c1.06,0 2.07,-0.443 2.86,-1.176c0.04,0.008 0.08,0.013 0.12,0.017c0.03,0.002 0.06,0.003 0.09,0.003c0.44,0 0.81,-0.288 0.84,-0.669c0.02,-0.17 -0.04,-0.333 -0.14,-0.467c0.4,-0.668 0.66,-1.443 0.73,-2.275c0.21,-2.665 -1.62,-5.087 -4.02,-5.285c-0.1,-0.009 -0.21,-0.013 -0.32,-0.013c-1.29,0 -2.5,0.651 -3.34,1.681c-0.03,-0.001 -0.05,-0.002 -0.08,-0.002c-0.88,0 -1.62,0.575 -1.68,1.346c-0.04,0.496 0.21,0.962 0.63,1.268Z" style="fill:#a12d24;fill-rule:nonzero;"/><path d="M127.67,146.07c-0.11,0 -0.21,-0.005 -0.32,-0.014c-2.4,-0.198 -4.23,-2.623 -4.02,-5.288c0.01,-0.091 0.02,-0.181 0.03,-0.27c0.27,0.194 0.61,0.324 0.98,0.356c0,0.002 0,0.003 0,0.004c-0.18,2.26 1.55,4.094 3.22,4.237c0.07,0.006 0.14,0.009 0.21,0.009c0.7,0 1.46,-0.286 2.09,-0.789c0.08,0.281 0.34,0.512 0.67,0.579c-0.79,0.733 -1.8,1.176 -2.86,1.176Zm3.77,-2.292c-0.14,-0.19 -0.39,-0.324 -0.67,-0.345c-0.02,-0.003 -0.05,-0.004 -0.07,-0.004c0.38,-0.557 0.65,-1.23 0.71,-1.986c0.18,-2.26 -1.54,-4.103 -3.21,-4.245c-0.07,-0.005 -0.14,-0.008 -0.21,-0.008c-0.83,0 -1.72,0.391 -2.41,1.064c-0.27,-0.199 -0.62,-0.332 -1,-0.362c-0.03,-0.003 -0.06,-0.005 -0.09,-0.006c0.84,-1.03 2.05,-1.681 3.34,-1.681c0.11,0 0.22,0.004 0.32,0.013c2.4,0.198 4.23,2.62 4.02,5.285c-0.07,0.832 -0.33,1.607 -0.73,2.275Z" style="fill:#b32e25;fill-rule:nonzero;"/><path d="M127.77,145.104c-0.07,0 -0.14,-0.003 -0.21,-0.009c-1.67,-0.143 -3.4,-1.977 -3.22,-4.237c0,-0.001 0,-0.002 0,-0.004c0.06,0.005 0.12,0.007 0.17,0.007c0.89,0 1.63,-0.573 1.7,-1.342c0.04,-0.496 -0.21,-0.959 -0.63,-1.265c0.69,-0.673 1.58,-1.064 2.41,-1.064c0.07,0 0.14,0.003 0.21,0.008c1.67,0.142 3.39,1.985 3.21,4.245c-0.06,0.756 -0.33,1.429 -0.71,1.986l-0.01,0c-0.44,0 -0.81,0.289 -0.85,0.67c0,0.074 0,0.146 0.02,0.216c-0.63,0.503 -1.39,0.789 -2.09,0.789Z" style="fill:#933125;fill-rule:nonzero;"/><path d="M124.51,140.861c-0.05,0 -0.11,-0.002 -0.17,-0.007c-0.37,-0.032 -0.71,-0.162 -0.98,-0.356c-0.42,-0.306 -0.67,-0.772 -0.63,-1.268c0.06,-0.771 0.8,-1.346 1.68,-1.346c0.03,0 0.05,0.001 0.08,0.002c0.03,0.001 0.06,0.003 0.09,0.006c0.38,0.03 0.73,0.163 1,0.362c0.42,0.306 0.67,0.769 0.63,1.265c-0.07,0.769 -0.81,1.342 -1.7,1.342Z" style="fill:#d5664e;fill-rule:nonzero;"/><path d="M130.74,144.914c-0.03,0 -0.06,-0.001 -0.09,-0.003c-0.04,-0.004 -0.08,-0.009 -0.12,-0.017c-0.33,-0.067 -0.59,-0.298 -0.67,-0.579c-0.02,-0.07 -0.02,-0.142 -0.02,-0.216c0.04,-0.381 0.41,-0.67 0.85,-0.67l0.01,0c0.02,0 0.05,0.001 0.07,0.004c0.28,0.021 0.53,0.155 0.67,0.345c0.1,0.134 0.16,0.297 0.14,0.467c-0.03,0.381 -0.4,0.669 -0.84,0.669Z" style="fill:#d5664e;fill-rule:nonzero;"/><path d="M144.4,133.5c-0.52,0 -1.04,-0.202 -1.43,-0.596c-0.01,-0.009 -0.61,-0.615 -1.74,-1.523c0.53,-1.438 1.14,-2.928 1.84,-4.445c1.97,1.817 2.95,3.309 3,3.387l0.03,0.062c0.6,0.91 0.33,2.173 -0.6,2.787c-0.33,0.221 -0.72,0.328 -1.1,0.328Zm-11.33,-7.097c-0.05,-0.024 -0.11,-0.047 -0.16,-0.071c0.07,-0.023 0.15,-0.046 0.22,-0.068l-0.02,0.033c-0.01,0.036 -0.02,0.071 -0.04,0.106Z" style="fill:#8a2e26;fill-rule:nonzero;"/><path d="M101.16,150.417c-0.02,-0.021 -0.04,-0.042 -0.06,-0.063c-0.78,-0.901 -1.51,-1.822 -2.18,-2.758c-0.18,-0.258 -0.36,-0.516 -0.53,-0.777c0.44,-1.274 0.92,-2.541 1.45,-3.792c0.35,2.537 0.8,5.012 1.32,7.39Z" style="fill:#cc5139;fill-rule:nonzero;"/><path d="M103.21,152.633c-0.71,-0.721 -1.4,-1.463 -2.05,-2.216c-0.52,-2.378 -0.97,-4.853 -1.32,-7.39c2.75,-6.575 6.53,-12.715 9.59,-17.176l0.88,-0.209c0.22,-0.055 0.45,-0.117 0.7,-0.184c0.07,-0.018 0.15,-0.037 0.22,-0.056c-2.59,5.522 -5.82,13.866 -6.79,22.669c-0.16,1.381 -0.22,2.735 -0.22,4.054c-0.34,0.167 -0.68,0.336 -1.01,0.508Zm8.03,-29.36c0.23,-0.313 0.45,-0.612 0.66,-0.897c0.22,0.057 0.45,0.118 0.66,0.184c-0.48,0.231 -0.92,0.477 -1.32,0.713Z" style="fill:#cf573c;fill-rule:nonzero;"/><path d="M109.43,125.851c0.64,-0.937 1.25,-1.8 1.81,-2.578c0.4,-0.236 0.84,-0.482 1.32,-0.713c0.02,0.004 0.04,0.009 0.05,0.014c-0.42,0.83 -0.89,1.778 -1.38,2.828c-0.07,0.019 -0.15,0.038 -0.22,0.056c-0.25,0.067 -0.48,0.129 -0.7,0.184l-0.88,0.209Z" style="fill:#8a2e26;fill-rule:nonzero;"/><path d="M104.22,152.125c0,-1.319 0.06,-2.673 0.22,-4.054c0.97,-8.803 4.2,-17.147 6.79,-22.669c0.49,-1.05 0.96,-1.998 1.38,-2.828c3.77,1.142 6.87,3.551 7.8,4.457c0,0.003 0,0.006 0.01,0.009l2.09,2.8l0.01,-0.001l0,0.001l2.09,-2.754c1.14,-1.141 6.3,-5.129 11.76,-5.129c2.82,0 5.33,0.994 7.61,3.084c-0.32,0.636 -0.62,1.268 -0.91,1.895c-0.7,1.517 -1.31,3.007 -1.84,4.445c-0.25,0.695 -0.49,1.379 -0.71,2.049c-0.48,1.454 -0.87,2.842 -1.2,4.145c-0.25,1.015 -0.47,1.979 -0.65,2.879c-0.91,4.551 -0.94,7.504 -0.94,7.504c0,0 -1.26,-1.352 -2.61,-3.651c-1.55,-2.634 -3.23,-6.512 -3.28,-11.023c-0.02,-1.256 0.09,-2.56 0.36,-3.901c0.2,-0.976 0.49,-1.971 0.87,-2.98c0.02,-0.035 0.03,-0.07 0.04,-0.106l0.02,-0.033c-0.07,0.022 -0.15,0.045 -0.22,0.068c-1.86,0.593 -3.56,1.364 -5.11,2.284c-5.46,3.233 -9.12,8.306 -11.56,13.935c-0.29,0.681 -0.57,1.37 -0.83,2.065c-0.5,1.33 -0.94,2.682 -1.32,4.04c-3.57,0.76 -6.89,2.013 -9.87,3.469Zm-5.83,-5.306c-1.63,-2.469 -2.78,-5.033 -3.18,-7.624c-0.79,-4.654 0.91,-9.023 5.11,-13.392c2.49,-2.612 5.24,-3.846 8.39,-3.846c1.08,0 2.16,0.157 3.19,0.419c-0.21,0.285 -0.43,0.584 -0.66,0.897c-0.56,0.778 -1.17,1.641 -1.81,2.578c-3.06,4.461 -6.84,10.601 -9.59,17.176c-0.53,1.251 -1.01,2.518 -1.45,3.792Z" style="fill:#af2e2e;fill-rule:nonzero;"/><path d="M149.57,140.608c0.01,-0.754 0.15,-1.48 0.39,-2.157c-0.02,0.234 -0.05,0.467 -0.09,0.699c-0.07,0.487 -0.18,0.973 -0.3,1.458Z" style="fill:#d5664e;fill-rule:nonzero;"/><path d="M98.92,147.596c-1.93,-2.711 -3.3,-5.554 -3.76,-8.446c-0.74,-4.61 0.92,-9.027 5.12,-13.393c2.53,-2.614 5.24,-3.846 8.39,-3.846c5.49,0 10.59,3.966 11.74,5.12c-0.93,-0.906 -4.03,-3.315 -7.8,-4.457c-0.01,-0.005 -0.03,-0.01 -0.05,-0.014c-0.21,-0.066 -0.44,-0.127 -0.66,-0.184c-1.03,-0.262 -2.11,-0.419 -3.19,-0.419c-3.15,0 -5.9,1.234 -8.39,3.846c-4.2,4.369 -5.9,8.738 -5.11,13.392c0.4,2.591 1.55,5.155 3.18,7.624c0.17,0.261 0.35,0.519 0.53,0.777Zm23.6,-17.756l0,-0.001l2.09,-2.799c1.09,-1.142 6.25,-5.129 11.76,-5.129c1.79,0 3.5,0.424 5.02,1.278c1.18,0.622 2.27,1.476 3.33,2.568c0.44,0.458 0.85,0.915 1.23,1.374c-0.37,-0.443 -0.77,-0.886 -1.19,-1.328c-0.26,-0.269 -0.52,-0.522 -0.78,-0.762c-2.28,-2.09 -4.79,-3.084 -7.61,-3.084c-5.46,0 -10.62,3.988 -11.76,5.129l-2.09,2.754Z" style="fill:#d5664e;fill-rule:nonzero;"/><path d="M210.81,151.587c-0.19,-0.09 -0.39,-0.18 -0.59,-0.268c0.49,-2.126 0.92,-4.333 1.28,-6.599c0.63,1.304 1.23,2.634 1.78,3.982c-0.76,0.982 -1.59,1.945 -2.47,2.885Z" style="fill:#ce553d;fill-rule:nonzero;"/><path d="M174.04,155.331c-1.77,-1.561 -3.45,-3.218 -4.94,-4.926c-0.93,-1.085 -1.8,-2.192 -2.56,-3.317c-1.53,-2.25 -2.65,-4.579 -3.2,-6.94c-0.03,-0.355 -0.1,-0.702 -0.2,-1.04c-0.71,-4.621 1,-8.963 5.17,-13.305c2.49,-2.612 5.25,-3.846 8.39,-3.846c0.26,0 0.52,0.009 0.77,0.026c-0.75,0.413 -1.42,0.848 -1.98,1.259c-0.01,0.006 -0.01,0.011 -0.02,0.017c-1.12,0.641 -2.23,1.386 -3.32,2.229c-3.07,2.361 -4.6,4.652 -4.71,4.828l-0.03,0.042c-0.52,0.8 -0.41,1.871 0.26,2.546c0.38,0.386 0.89,0.597 1.43,0.597c0.54,0 1.04,-0.212 1.42,-0.597l0.02,-0.017c0.1,-0.102 0.86,-0.845 2.22,-1.898c-1.12,8.02 -0.72,19.125 -0.72,19.125c0,0 0.01,0.001 0.01,0.003c0,0.039 0,0.059 0,0.059c0,0 3.08,1.104 7.3,1.708c-1.76,0.95 -3.54,2.092 -5.31,3.447Zm36.18,-4.012c-4.47,-1.97 -9.61,-3.405 -15.12,-3.441c4.61,-5.826 7.37,-16.078 7.78,-17.701c0.28,0.395 0.56,0.806 0.85,1.233c2.46,3.609 5.34,8.251 7.77,13.31c-0.36,2.266 -0.79,4.473 -1.28,6.599Zm-8.26,-22.441c-1.83,-1.874 -3.59,-3.388 -5.29,-4.599c0.43,0.053 0.85,0.136 1.26,0.218c0.3,0.061 0.6,0.12 0.89,0.167l0.41,0.567c0.67,0.85 1.62,2.09 2.73,3.647Z" style="fill:#d25b40;fill-rule:nonzero;"/><path d="M179.35,151.884c-4.22,-0.604 -7.3,-1.708 -7.3,-1.708c0,0 0,-0.02 0,-0.059c0.05,0.014 0.24,0.077 0.62,0.234c0.11,-7.28 0.78,-17.281 3.47,-19.197c2,-1.466 5.25,-3.23 9.5,-3.23c1.18,0 2.44,0.137 3.77,0.455l1.1,1.461l0,-0.001l0,0.001l0.71,-0.932c3.04,1.059 6.41,3.068 10.06,6.488c0.88,-2.515 1.41,-4.542 1.59,-5.24c0,0.007 0.01,0.014 0.01,0.021c-0.41,1.623 -3.17,11.875 -7.78,17.701c-0.07,-0.001 -0.14,-0.001 -0.22,-0.001c-4.94,0 -10.19,1.129 -15.53,4.007Zm5.98,-20.375c-4.58,0 -8.3,3.724 -8.3,8.319c0,4.596 3.72,8.32 8.3,8.32c4.58,0 8.29,-3.724 8.29,-8.32c0,-4.595 -3.71,-8.319 -8.29,-8.319Z" style="fill:#d5664e;fill-rule:nonzero;"/><path d="M172.67,150.351c-0.38,-0.157 -0.57,-0.22 -0.62,-0.234c0,-0.002 -0.01,-0.003 -0.01,-0.003c0,0 -0.4,-11.105 0.72,-19.125c0.61,-0.478 1.35,-1.019 2.21,-1.593c1.38,-1.017 3.18,-1.911 5.05,-2.81c1.71,-0.793 3.54,-1.408 5.38,-1.8c1.44,0.895 2.52,1.774 3,2.245c0,0.003 0.01,0.006 0.01,0.009l1,1.339c-1.33,-0.318 -2.59,-0.455 -3.77,-0.455c-4.25,0 -7.5,1.764 -9.5,3.23c-2.69,1.916 -3.36,11.917 -3.47,19.197Zm28.61,-14.955c-3.65,-3.42 -7.02,-5.429 -10.06,-6.488l1.39,-1.822c0.54,-0.542 1.98,-1.727 3.94,-2.821c0.04,0.004 0.08,0.009 0.12,0.014c1.7,1.211 3.46,2.725 5.29,4.599c0.29,0.405 0.59,0.832 0.91,1.278c-0.18,0.698 -0.71,2.725 -1.59,5.24Zm-25.81,-12.137c0.01,-0.006 0.01,-0.011 0.02,-0.017c0.56,-0.411 1.23,-0.846 1.98,-1.259c0.15,0.01 0.3,0.022 0.45,0.038c-0.82,0.355 -1.64,0.768 -2.45,1.238Z" style="fill:#cd553c;fill-rule:nonzero;"/><path d="M185.33,148.148c-4.58,0 -8.3,-3.724 -8.3,-8.32c0,-4.595 3.72,-8.319 8.3,-8.319c4.58,0 8.29,3.724 8.29,8.319c0,4.596 -3.71,8.32 -8.29,8.32Zm-2.8,-3.942c0.79,0.733 1.8,1.176 2.86,1.176c0.11,0 0.21,-0.004 0.32,-0.013c2.4,-0.198 4.24,-2.623 4.02,-5.289c-0.01,-0.09 -0.02,-0.18 -0.03,-0.27c0.42,-0.305 0.68,-0.771 0.64,-1.267c-0.07,-0.772 -0.81,-1.346 -1.69,-1.346c-0.03,0 -0.05,0 -0.08,0.001c-0.84,-1.029 -2.05,-1.68 -3.34,-1.68c-0.11,0 -0.22,0.004 -0.32,0.013c-2.4,0.198 -4.23,2.619 -4.02,5.285c0.07,0.831 0.33,1.607 0.73,2.275c-0.1,0.134 -0.16,0.296 -0.14,0.467c0.03,0.381 0.4,0.669 0.84,0.669c0.03,0 0.06,-0.002 0.09,-0.004c0.04,-0.003 0.08,-0.009 0.12,-0.017Z" style="fill:#a12d24;fill-rule:nonzero;"/><path d="M185.39,145.382c-1.06,0 -2.07,-0.443 -2.86,-1.176c0.33,-0.067 0.59,-0.298 0.67,-0.579c0.63,0.503 1.39,0.789 2.09,0.789c0.07,0 0.14,-0.003 0.21,-0.009c1.67,-0.142 3.4,-1.976 3.22,-4.236c0,-0.001 0,-0.003 0,-0.004c0.37,-0.032 0.71,-0.162 0.98,-0.357c0.01,0.09 0.02,0.18 0.03,0.27c0.22,2.666 -1.62,5.091 -4.02,5.289c-0.11,0.009 -0.21,0.013 -0.32,0.013Zm-3.77,-2.291c-0.4,-0.668 -0.66,-1.444 -0.73,-2.275c-0.21,-2.666 1.62,-5.087 4.02,-5.285c0.1,-0.009 0.21,-0.013 0.32,-0.013c1.29,0 2.5,0.651 3.34,1.68c-0.03,0.001 -0.06,0.003 -0.09,0.006c-0.38,0.031 -0.73,0.163 -1,0.363c-0.69,-0.673 -1.58,-1.064 -2.41,-1.064c-0.07,0 -0.14,0.003 -0.21,0.009c-1.67,0.141 -3.39,1.984 -3.21,4.244c0.06,0.755 0.33,1.429 0.71,1.986c-0.02,0 -0.05,0.001 -0.07,0.004c-0.28,0.021 -0.52,0.155 -0.67,0.345Z" style="fill:#b32e25;fill-rule:nonzero;"/><path d="M185.29,144.416c-0.7,0 -1.46,-0.286 -2.09,-0.789c0.02,-0.069 0.02,-0.142 0.02,-0.216c-0.03,-0.381 -0.4,-0.669 -0.84,-0.669c-0.01,0 -0.01,0 -0.02,0c-0.38,-0.557 -0.65,-1.231 -0.71,-1.986c-0.18,-2.26 1.54,-4.103 3.21,-4.244c0.07,-0.006 0.14,-0.009 0.21,-0.009c0.83,0 1.72,0.391 2.41,1.064c-0.41,0.306 -0.66,0.769 -0.63,1.265c0.07,0.768 0.81,1.342 1.7,1.342c0.05,0 0.11,-0.002 0.17,-0.007c0,0.001 0,0.003 0,0.004c0.18,2.26 -1.55,4.094 -3.22,4.236c-0.07,0.006 -0.14,0.009 -0.21,0.009Z" style="fill:#933125;fill-rule:nonzero;"/><path d="M188.55,140.174c-0.89,0 -1.63,-0.574 -1.7,-1.342c-0.03,-0.496 0.22,-0.959 0.63,-1.265c0.27,-0.2 0.62,-0.332 1,-0.363c0.03,-0.003 0.06,-0.005 0.09,-0.006c0.03,-0.001 0.05,-0.001 0.08,-0.001c0.88,0 1.62,0.574 1.69,1.346c0.04,0.496 -0.22,0.962 -0.64,1.267c-0.27,0.195 -0.61,0.325 -0.98,0.357c-0.06,0.005 -0.12,0.007 -0.17,0.007Z" style="fill:#d5664e;fill-rule:nonzero;"/><path d="M182.32,144.227c-0.44,0 -0.81,-0.288 -0.84,-0.669c-0.02,-0.171 0.04,-0.333 0.14,-0.467c0.15,-0.19 0.39,-0.324 0.67,-0.345c0.02,-0.003 0.05,-0.004 0.07,-0.004c0.01,0 0.01,0 0.02,0c0.44,0 0.81,0.288 0.84,0.669c0,0.074 0,0.147 -0.02,0.216c-0.08,0.281 -0.34,0.512 -0.67,0.579c-0.04,0.008 -0.08,0.014 -0.12,0.017c-0.03,0.002 -0.06,0.004 -0.09,0.004Z" style="fill:#d5664e;fill-rule:nonzero;"/><path d="M169.1,133.501c-0.54,0 -1.05,-0.211 -1.43,-0.597c-0.67,-0.675 -0.78,-1.746 -0.26,-2.546l0.03,-0.042c0.11,-0.176 1.64,-2.467 4.71,-4.828c1.09,-0.843 2.2,-1.588 3.32,-2.229c0.81,-0.47 1.63,-0.883 2.45,-1.238c2.83,0.293 5.5,1.544 7.48,2.765c-1.84,0.392 -3.67,1.007 -5.38,1.8c-1.87,0.899 -3.67,1.793 -5.05,2.81c-0.86,0.574 -1.6,1.115 -2.21,1.593c-1.36,1.053 -2.12,1.796 -2.22,1.898l-0.02,0.017c-0.38,0.385 -0.88,0.597 -1.42,0.597Zm29.72,-8.837c-0.29,-0.047 -0.59,-0.106 -0.89,-0.167c-0.41,-0.082 -0.83,-0.165 -1.26,-0.218c-0.04,-0.005 -0.08,-0.01 -0.12,-0.014c0.45,-0.255 0.94,-0.504 1.44,-0.74l0.83,1.139Z" style="fill:#8a2e26;fill-rule:nonzero;"/><path d="M213.28,148.702c-0.55,-1.348 -1.15,-2.678 -1.78,-3.982c-2.43,-5.059 -5.31,-9.701 -7.77,-13.31c-0.29,-0.427 -0.57,-0.838 -0.85,-1.233c0,-0.007 -0.01,-0.014 -0.01,-0.021c-0.32,-0.446 -0.62,-0.873 -0.91,-1.278c-1.11,-1.557 -2.06,-2.797 -2.73,-3.647l-0.41,-0.567l-0.83,-1.139c1.9,-0.883 4.11,-1.568 6.37,-1.568c3.15,0 5.9,1.234 8.39,3.846c0.02,0.016 0.03,0.033 0.05,0.05c2.87,3.055 4.59,6.107 5.07,9.213c0.21,1.375 0.21,2.703 0,4.084c-0.53,3.273 -2.23,6.503 -4.59,9.552Z" style="fill:#af2e2e;fill-rule:nonzero;"/><path d="M163.34,140.148c-0.07,-0.317 -0.13,-0.635 -0.18,-0.953c-0.01,-0.029 -0.01,-0.058 -0.02,-0.087c0.1,0.338 0.17,0.685 0.2,1.04Z" style="fill:#d5664e;fill-rule:nonzero;"/><path d="M166.54,147.088c-1.75,-2.57 -3,-5.232 -3.43,-7.938c-0.7,-4.61 0.96,-9.027 5.16,-13.393c2.49,-2.614 5.24,-3.846 8.39,-3.846c5.44,0 10.59,3.966 11.74,5.12c-0.48,-0.471 -1.56,-1.35 -3,-2.245c-1.98,-1.221 -4.65,-2.472 -7.48,-2.765c-0.15,-0.016 -0.3,-0.028 -0.45,-0.038c-0.25,-0.017 -0.51,-0.026 -0.77,-0.026c-3.14,0 -5.9,1.234 -8.39,3.846c-4.17,4.342 -5.88,8.684 -5.17,13.305c0.01,0.029 0.01,0.058 0.02,0.087c0.05,0.318 0.11,0.636 0.18,0.953c0.55,2.361 1.67,4.69 3.2,6.94Zm23.97,-17.248l0,-0.001l2.05,-2.799c1.14,-1.142 6.3,-5.129 11.76,-5.129c1.83,0 3.54,0.424 5.07,1.278c1.17,0.622 2.27,1.476 3.32,2.568c0.03,0.032 0.06,0.064 0.09,0.096c-0.02,-0.017 -0.03,-0.034 -0.05,-0.05c-2.49,-2.612 -5.24,-3.846 -8.39,-3.846c-2.26,0 -4.47,0.685 -6.37,1.568c-0.5,0.236 -0.99,0.485 -1.44,0.74c-1.96,1.094 -3.4,2.279 -3.94,2.821l-1.39,1.822l-0.71,0.932Z" style="fill:#d5664e;fill-rule:nonzero;"/><path d="M122.51,166.547c-2.7,-1.375 -6.46,-3.609 -10.39,-6.409c-0.05,-0.036 -0.1,-0.072 -0.15,-0.108c0.37,-3.593 1.02,-7.508 2.12,-11.374c1.14,-0.245 2.31,-0.438 3.51,-0.571c1.69,2.276 3.66,3.976 5.86,4.407c1.69,0.331 3.41,0.463 5.08,0.463c3.19,0 6.19,-0.482 8.45,-0.984c1.13,0.614 2.26,1.306 3.39,2.082c-6.02,5.644 -13.43,10.192 -17.87,12.494Z" style="fill:#cb342b;fill-rule:nonzero;"/><path d="M128.54,152.955c-1.67,0 -3.39,-0.132 -5.08,-0.463c-2.2,-0.431 -4.17,-2.131 -5.86,-4.407c1.21,-0.135 2.44,-0.207 3.69,-0.207c0.93,0 1.87,0.04 2.82,0.124c1.1,0.534 2.33,0.833 3.62,0.833c0.36,0 0.71,-0.022 1.05,-0.065c2.69,0.653 5.44,1.691 8.21,3.201c-2.26,0.502 -5.26,0.984 -8.45,0.984Z" style="fill:#cc392f;fill-rule:nonzero;"/><path d="M127.73,148.835c-1.29,0 -2.52,-0.299 -3.62,-0.833c1.54,0.135 3.09,0.385 4.67,0.768c-0.34,0.043 -0.69,0.065 -1.05,0.065Z" style="fill:#bd2526;fill-rule:nonzero;"/><path d="M104.26,153.669c-0.35,-0.341 -0.7,-0.687 -1.05,-1.036c0.33,-0.172 0.67,-0.341 1.01,-0.508c0,0.521 0.02,1.034 0.04,1.544Z" style="fill:#cb342b;fill-rule:nonzero;"/><path d="M111.97,160.03c-2.63,-1.905 -5.3,-4.042 -7.71,-6.361c-0.02,-0.51 -0.04,-1.023 -0.04,-1.544c2.98,-1.456 6.3,-2.709 9.87,-3.469c-1.1,3.866 -1.75,7.781 -2.12,11.374Z" style="fill:#c12529;fill-rule:nonzero;"/><path d="M209.93,152.507c0.1,-0.394 0.19,-0.789 0.29,-1.188c0.2,0.088 0.4,0.178 0.59,0.268c-0.28,0.309 -0.58,0.616 -0.88,0.92Z" style="fill:#ca322b;fill-rule:nonzero;"/><path d="M190.51,166.547c-2.71,-1.375 -6.51,-3.609 -10.4,-6.409c-2.05,-1.447 -4.12,-3.071 -6.07,-4.807c1.77,-1.355 3.55,-2.497 5.31,-3.447c1.59,0.227 3.35,0.384 5.17,0.384c1.67,0 3.39,-0.132 5.08,-0.463c2.05,-0.4 3.89,-1.895 5.5,-3.927c5.51,0.036 10.65,1.471 15.12,3.441c-0.1,0.399 -0.19,0.794 -0.29,1.188c-6.24,6.352 -14.58,11.529 -19.42,14.04Z" style="fill:#cb352c;fill-rule:nonzero;"/><path d="M184.52,152.268c-1.82,0 -3.58,-0.157 -5.17,-0.384c5.34,-2.878 10.59,-4.007 15.53,-4.007c0.08,0 0.15,0 0.22,0.001c-1.61,2.032 -3.45,3.527 -5.5,3.927c-1.69,0.331 -3.41,0.463 -5.08,0.463Z" style="fill:#cc392f;fill-rule:nonzero;"/><path d="M186.19,257.574c1.3,-2.743 2.36,-5.322 0.99,-6.498c-1.52,-1.279 -4.35,0.764 -7.15,2.744c-1.16,-3.961 -1.28,-10.273 -4.03,-10.459c-3.01,-0.206 -3.9,7.427 -5.94,10.912c-2.93,-2.66 -6.04,-6.291 -8.06,-5.033c-1.53,0.949 -0.83,3.693 0.06,6.602c-3.34,-0.433 -6.71,-0.867 -7.43,0.969c-1.01,2.496 4.46,5.323 7.55,8.046c-3.05,2.619 -10.46,4.826 -9.74,7.756c0.58,2.351 5.45,1.898 9.41,2.063c-1.32,2.785 -2.43,5.467 -1.05,6.621c1.53,1.279 4.29,-0.721 7.03,-2.701c1.1,3.98 1.22,10.149 3.92,10.335c3.06,0.227 3.96,-7.592 6.09,-10.996c2.95,2.641 6.15,6.333 8.17,5.054c1.48,-0.928 0.84,-3.59 -0.04,-6.436c3.28,0.454 6.52,0.866 7.24,-0.928c1.05,-2.538 -4.52,-5.405 -7.57,-8.19c2.97,-2.661 10.52,-4.931 9.78,-7.901c-0.6,-2.29 -5.31,-1.857 -9.23,-1.96Z" style="fill:#fff;fill-rule:nonzero;"/><path d="M180.31,266.135c0,3.528 -2.84,6.396 -6.37,6.396c-3.55,0 -6.39,-2.868 -6.39,-6.396c0,-3.527 2.84,-6.374 6.39,-6.374c3.53,0 6.37,2.847 6.37,6.374Z" style="fill:#e6a52f;fill-rule:nonzero;"/></g></svg>