<?xml version="1.0" encoding="UTF-8" standalone="no"?><!DOCTYPE svg PUBLIC "-//W3C//DTD SVG 1.1//EN" "http://www.w3.org/Graphics/SVG/1.1/DTD/svg11.dtd"><svg width="100%" height="100%" viewBox="0 0 298 300" version="1.1" xmlns="http://www.w3.org/2000/svg" xmlns:xlink="http://www.w3.org/1999/xlink" xml:space="preserve" style="fill-rule:evenodd;clip-rule:evenodd;stroke-linejoin:round;stroke-miterlimit:1.41421;"><g id="_35"><rect x="0.21" y="0.07" width="296.865" height="299.705" style="fill:#ac865d;fill-rule:nonzero;"/><path d="M146.27,187.515l0,112.253l-60.715,0c-1.008,-0.391 -1.481,-0.597 -1.481,-0.597c0,-4.711 0.226,-9.073 0.658,-13.126c0.844,-8.271 2.49,-15.225 4.63,-21.089c7.735,-21.027 21.891,-27.693 28.413,-29.709c2.119,-0.679 3.436,-0.823 3.436,-0.823c0.247,0 0.452,-0.021 0.678,-0.062c1.194,-0.185 2.243,-0.905 3.148,-2.057c0.577,-0.7 1.091,-1.543 1.564,-2.551c0.926,-1.976 1.708,-4.486 2.325,-7.387c0.247,-1.152 0.453,-2.283 0.658,-3.518c0.288,-2.078 0.576,-4.259 0.823,-6.522c0.103,-1.378 0.247,-2.716 0.412,-4.156c0.535,-6.872 0.679,-14.381 0.679,-21.5c0,0 8.168,0.844 14.772,0.844Z" style="fill:#e0bd9a;fill-rule:nonzero;"/><path d="M208.734,299.171c0,0 -0.535,0.206 -1.441,0.597l-61.023,0l0,-112.253l0.144,0c6.584,0 14.834,-0.844 14.834,-0.844c0,7.057 0.144,14.484 0.7,21.356c0.144,1.337 0.288,2.716 0.391,4.053c0.246,2.366 0.535,4.588 0.884,6.666l0,0.042c0.103,0.946 0.288,1.789 0.453,2.674c0.597,2.922 1.317,5.494 2.201,7.551c0.412,0.967 0.864,1.831 1.338,2.572c0.802,1.193 1.687,2.057 2.695,2.489c0.514,0.226 1.049,0.35 1.625,0.35c0,0 2.325,0.267 5.823,1.646c7.16,2.798 19.175,10.143 26.067,28.886c2.161,5.864 3.807,12.818 4.671,21.089c0.411,4.053 0.638,8.415 0.638,13.126Z" style="fill:#efd0ad;fill-rule:nonzero;"/><path d="M163.224,218.54l0,0.05c-1.531,2.357 -6.671,9.134 -16.85,9.134l-0.099,0c-9.635,-0.049 -15.268,-7.023 -16.701,-9.086c0.296,-2.062 0.593,-4.223 0.84,-6.482c0.099,-1.327 0.247,-2.702 0.395,-4.126c4.695,1.179 9.833,1.916 15.269,2.014l0.197,0c5.633,-0.098 10.822,-0.884 15.664,-2.161c0.149,1.326 0.297,2.701 0.396,4.027c0.247,2.357 0.543,4.568 0.889,6.63Z" style="fill:#be987f;fill-rule:nonzero;"/><path d="M145.584,59.561c-64.336,0 -64.682,53.779 -61.816,88.993c-4.398,-8.349 -17.493,-5.795 -16.405,7.367c1.037,12.671 19.745,19.129 19.221,17.73c9.743,26.043 35.529,45.675 59,45.675l0.494,0l0,-159.765l-0.494,0Z" style="fill:#d2a686;fill-rule:nonzero;"/><path d="M71.464,150.371c3.162,-5.108 8.104,-2.897 9.29,-1.768c1.284,1.228 2.322,2.8 1.531,5.796c-0.444,1.719 -2.223,1.866 -1.828,4.42c0.494,2.897 1.828,3.045 2.619,3.732c0.741,0.639 1.68,1.13 2.125,2.358c0.494,1.228 0.543,2.505 0.296,3.634c-0.494,2.063 -3.508,0.393 -5.534,-0.491c-1.334,-0.638 -5.584,-4.224 -6.671,-5.402c-2.668,-3.045 -3.953,-8.939 -1.828,-12.279Z" style="fill:#ac8774;fill-rule:nonzero;"/><path d="M145.93,59.561c64.336,0 64.682,53.779 61.865,88.993c4.398,-8.349 17.442,-5.795 16.356,7.367c-0.988,12.671 -19.733,19.134 -19.222,17.73c-9.49,26.043 -35.528,45.675 -58.999,45.675c-0.149,0 -0.346,0 -0.346,0l-0.148,-159.765c0,0 0.345,0 0.494,0Z" style="fill:#ddb598;fill-rule:nonzero;"/><path d="M220.05,150.371c-3.163,-5.108 -8.055,-2.897 -9.29,-1.768c-1.285,1.228 -2.273,2.8 -1.532,5.796c0.445,1.719 2.224,1.866 1.828,4.42c-0.494,2.897 -1.828,3.045 -2.569,3.732c-0.741,0.639 -1.73,1.13 -2.174,2.358c-0.445,1.228 -0.544,2.505 -0.297,3.634c0.494,2.063 3.508,0.393 5.535,-0.491c1.383,-0.638 5.582,-4.224 6.67,-5.402c2.718,-3.045 3.953,-8.939 1.829,-12.279Z" style="fill:#ac8774;fill-rule:nonzero;"/><path d="M145.078,74.737c-21.149,0 -36.665,6.139 -46.004,18.221c-13.095,16.944 -12.6,42.778 -7.807,61.342c1.482,5.697 2.273,20.971 3.261,26.571c4.595,25.096 32.316,38.455 50.55,38.455c0,0 0.346,0 0.494,0l0,-144.589c-0.148,0 -0.297,0 -0.297,0" style="fill:#e0bd9a;fill-rule:nonzero;"/><path d="M191.032,93.007c-9.29,-12.033 -24.608,-18.172 -45.46,-18.27l0,144.589c20.852,-0.245 45.806,-14.881 50.055,-38.455c1.038,-5.6 1.779,-20.874 3.262,-26.571c4.842,-18.515 5.336,-44.3 -7.857,-61.293Z" style="fill:#efd0ad;fill-rule:nonzero;"/><path d="M145.765,196.382" style="fill:#bc917b;fill-rule:nonzero;"/><path d="M145.765,196.382" style="fill:#bc917b;fill-rule:nonzero;"/><path d="M142.197,193.695c-0.102,-0.022 -0.202,-0.041 -0.303,-0.065c0.099,0.023 0.187,0.041 0.303,0.065Z" style="fill:#bc917b;fill-rule:nonzero;"/><path d="M145.765,193.503" style="fill:#bc917b;fill-rule:nonzero;"/><path d="M141.412,193.52c-0.093,-0.024 -0.178,-0.051 -0.269,-0.076l-0.01,0.004c0,0 0.104,0.029 0.279,0.072Z" style="fill:#bc917b;fill-rule:nonzero;"/><path d="M145.765,193.503" style="fill:#bc917b;fill-rule:nonzero;"/><path d="M127.61,75.098l-0.267,0.267l0.044,0.089c0.089,-0.134 0.134,-0.267 0.223,-0.356Z" style="fill:#432e1b;fill-rule:nonzero;"/><path d="M86.646,126.046" style="fill:#432e1b;fill-rule:nonzero;"/><path d="M146.037,193.522" style="fill:#ba907b;fill-rule:nonzero;"/><path d="M146.037,193.522" style="fill:#ba907b;fill-rule:nonzero;"/><path d="M142.373,190.762c-0.105,-0.022 -0.208,-0.043 -0.311,-0.066c0.101,0.022 0.191,0.041 0.311,0.066Z" style="fill:#ba907b;fill-rule:nonzero;"/><path d="M146.037,190.565" style="fill:#ba907b;fill-rule:nonzero;"/><path d="M141.566,190.582c-0.096,-0.025 -0.182,-0.052 -0.277,-0.078l-0.01,0.005c0,0 0.107,0.029 0.287,0.073Z" style="fill:#ba907b;fill-rule:nonzero;"/><path d="M146.037,190.565" style="fill:#ba907b;fill-rule:nonzero;"/><path d="M132.999,176.255c-0.251,-5.132 9.426,-1.875 12.616,-1.714c2.521,0.128 10.192,-1.618 10.85,-1.168c4.513,3.042 -4.779,9.17 -11.01,9.17c-1.66,0 -12.306,-3.193 -12.456,-6.288Z" style="fill:#dcb497;fill-rule:nonzero;"/><path d="M99.419,131.171c0,0 4.908,20.135 13.335,21.779c8.426,1.642 17.546,-1.624 17.546,-1.624c0,0 0.872,-23.664 -3.443,-26.755c-4.311,-3.106 -14.25,-7.594 -27.438,6.6Z" style="fill:#fff;fill-rule:nonzero;"/><path d="M130.312,151.264c0,0 -0.194,0.056 -0.627,0.236c-0.108,-7.258 -0.779,-17.227 -3.473,-19.137c-4.006,-2.933 -13.052,-7.061 -25.138,4.229c-1.098,-3.119 -1.649,-5.484 -1.649,-5.484c13.212,-14.22 23.16,-9.74 27.439,-6.632c4.319,3.104 3.448,26.788 3.448,26.788Z" style="fill:#d6b496;fill-rule:nonzero;"/><path d="M125.322,141.01c0,4.581 -3.713,8.294 -8.294,8.294c-4.58,0 -8.293,-3.713 -8.293,-8.294c0,-4.58 3.713,-8.293 8.293,-8.293c4.581,0 8.294,3.713 8.294,8.293Z" style="fill:#482315;fill-rule:nonzero;"/><path d="M116.643,146.534c-2.395,-0.198 -4.234,-2.615 -4.016,-5.272c0.215,-2.657 2.423,-4.736 4.82,-4.535c2.395,0.197 4.23,2.611 4.019,5.268c-0.218,2.657 -2.429,4.74 -4.823,4.539Z" style="fill:#7e3a22;fill-rule:nonzero;"/><path d="M116.85,145.575c-1.667,-0.141 -3.397,-1.971 -3.213,-4.223c0.187,-2.26 2.189,-3.785 3.856,-3.648c1.668,0.141 3.393,1.978 3.21,4.231c-0.184,2.256 -2.19,3.778 -3.853,3.64Z" style="fill:#211a10;fill-rule:nonzero;"/><path d="M115.5,140.018c-0.07,0.814 -0.906,1.409 -1.863,1.33c-0.96,-0.081 -1.683,-0.809 -1.618,-1.619c0.069,-0.818 0.9,-1.413 1.859,-1.335c0.963,0.078 1.687,0.806 1.622,1.624Z" style="fill:#fff;fill-rule:nonzero;"/><path d="M120.877,144.728c-0.035,0.405 -0.452,0.704 -0.93,0.664c-0.481,-0.038 -0.841,-0.405 -0.811,-0.81c0.035,-0.405 0.453,-0.705 0.93,-0.664c0.481,0.038 0.846,0.401 0.811,0.81Z" style="fill:#fff;fill-rule:nonzero;"/><path d="M146.169,195.897" style="fill:#ba907b;fill-rule:nonzero;"/><path d="M146.169,195.897" style="fill:#ba907b;fill-rule:nonzero;"/><path d="M142.504,193.137c-0.104,-0.022 -0.207,-0.043 -0.311,-0.067c0.102,0.023 0.192,0.042 0.311,0.067Z" style="fill:#ba907b;fill-rule:nonzero;"/><path d="M146.169,192.94" style="fill:#ba907b;fill-rule:nonzero;"/><path d="M141.698,192.957c-0.095,-0.025 -0.182,-0.052 -0.276,-0.078l-0.011,0.004c0,0 0.107,0.03 0.287,0.074Z" style="fill:#ba907b;fill-rule:nonzero;"/><path d="M146.169,192.94" style="fill:#ba907b;fill-rule:nonzero;"/><path d="M146.056,195.526" style="fill:#bc917b;fill-rule:nonzero;"/><path d="M146.055,195.526l0.001,0l-0.001,0Z" style="fill:#bc917b;fill-rule:nonzero;"/><path d="M142.127,192.568c-0.111,-0.024 -0.222,-0.045 -0.333,-0.071c0.109,0.024 0.206,0.045 0.333,0.071Z" style="fill:#bc917b;fill-rule:nonzero;"/><path d="M146.056,192.357" style="fill:#bc917b;fill-rule:nonzero;"/><path d="M141.264,192.375c-0.103,-0.026 -0.196,-0.056 -0.297,-0.083l-0.011,0.005c0,0 0.114,0.031 0.308,0.078Z" style="fill:#bc917b;fill-rule:nonzero;"/><path d="M146.055,192.357l0.001,0l-0.001,0Z" style="fill:#bc917b;fill-rule:nonzero;"/><path d="M145.808,194.684" style="fill:#bc917b;fill-rule:nonzero;"/><path d="M145.807,194.684l0.001,0l-0.001,0Z" style="fill:#bc917b;fill-rule:nonzero;"/><path d="M141.879,191.726c-0.111,-0.024 -0.222,-0.045 -0.333,-0.071c0.109,0.024 0.205,0.044 0.333,0.071Z" style="fill:#bc917b;fill-rule:nonzero;"/><path d="M145.808,191.515" style="fill:#bc917b;fill-rule:nonzero;"/><path d="M141.016,191.533c-0.103,-0.026 -0.196,-0.055 -0.297,-0.083l-0.011,0.004c0,0 0.114,0.032 0.308,0.079Z" style="fill:#bc917b;fill-rule:nonzero;"/><path d="M145.807,191.515l0.001,0l-0.001,0Z" style="fill:#bc917b;fill-rule:nonzero;"/><path d="M146.447,194.47" style="fill:#bc917b;fill-rule:nonzero;"/><path d="M146.446,194.47l0.001,0l-0.001,0Z" style="fill:#bc917b;fill-rule:nonzero;"/><path d="M142.65,191.611c-0.108,-0.023 -0.215,-0.044 -0.323,-0.069c0.106,0.024 0.199,0.043 0.323,0.069Z" style="fill:#bc917b;fill-rule:nonzero;"/><path d="M146.447,191.407" style="fill:#bc917b;fill-rule:nonzero;"/><path d="M141.815,191.424c-0.099,-0.025 -0.19,-0.053 -0.287,-0.08l-0.011,0.005c0,0 0.111,0.03 0.298,0.075Z" style="fill:#bc917b;fill-rule:nonzero;"/><path d="M146.446,191.407l0.001,0l-0.001,0Z" style="fill:#bc917b;fill-rule:nonzero;"/><path d="M192.229,130.486c0,0 -4.908,20.135 -13.334,21.779c-8.427,1.642 -17.547,-1.624 -17.547,-1.624c0,0 -0.872,-23.664 3.443,-26.756c4.311,-3.105 14.25,-7.593 27.438,6.601Z" style="fill:#fff;fill-rule:nonzero;"/><path d="M161.336,150.579c0,0 0.194,0.055 0.627,0.236c0.107,-7.258 0.778,-17.227 3.473,-19.137c4.006,-2.933 13.052,-7.062 25.138,4.229c1.098,-3.119 1.649,-5.484 1.649,-5.484c-13.213,-14.22 -23.16,-9.74 -27.439,-6.633c-4.319,3.105 -3.448,26.789 -3.448,26.789Z" style="fill:#d6b496;fill-rule:nonzero;"/><path d="M166.326,140.325c0,4.581 3.713,8.294 8.294,8.294c4.58,0 8.293,-3.713 8.293,-8.294c0,-4.58 -3.713,-8.293 -8.293,-8.293c-4.581,0 -8.294,3.713 -8.294,8.293Z" style="fill:#482315;fill-rule:nonzero;"/><path d="M175.005,145.848c2.395,-0.197 4.234,-2.614 4.015,-5.271c-0.214,-2.657 -2.422,-4.736 -4.819,-4.535c-2.395,0.197 -4.231,2.611 -4.019,5.267c0.218,2.657 2.429,4.74 4.823,4.539Z" style="fill:#7e3a22;fill-rule:nonzero;"/><path d="M174.798,144.89c1.667,-0.142 3.397,-1.971 3.213,-4.223c-0.188,-2.26 -2.189,-3.785 -3.856,-3.648c-1.668,0.141 -3.393,1.978 -3.21,4.231c0.184,2.256 2.19,3.778 3.853,3.64Z" style="fill:#211a10;fill-rule:nonzero;"/><path d="M176.148,139.333c0.07,0.814 0.905,1.409 1.863,1.33c0.96,-0.081 1.683,-0.809 1.618,-1.619c-0.069,-0.818 -0.9,-1.413 -1.859,-1.335c-0.963,0.078 -1.687,0.805 -1.622,1.624Z" style="fill:#fff;fill-rule:nonzero;"/><path d="M170.771,144.043c0.035,0.405 0.452,0.704 0.929,0.663c0.482,-0.037 0.842,-0.404 0.812,-0.809c-0.035,-0.405 -0.453,-0.705 -0.93,-0.664c-0.481,0.037 -0.846,0.401 -0.811,0.81Z" style="fill:#fff;fill-rule:nonzero;"/><path d="M135.361,130.85c-0.064,-0.098 -1.593,-2.423 -4.719,-4.82c-1.959,-1.503 -3.878,-2.646 -5.87,-3.498c-2.419,-1.017 -5.026,-1.736 -7.551,-2.081c-2.284,-0.254 -4.815,-0.187 -7.768,0.211c-2.254,0.429 -4.453,1.1 -6.319,1.923c-1.332,0.458 -2.382,1.102 -3.227,1.619c-0.324,0.199 -0.616,0.378 -0.914,0.538l-4.025,2.531l4.639,-1.09c0.216,-0.055 0.45,-0.116 0.701,-0.183c0.96,-0.254 2.154,-0.571 3.554,-0.776c0.328,-0.048 0.662,-0.114 1.002,-0.182c0.584,-0.116 1.187,-0.237 1.819,-0.267c0.703,-0.047 1.432,-0.099 2.181,-0.153l0.973,-0.07c2.57,-0.032 4.739,0.163 6.667,0.607c2.107,0.363 4.273,1.043 6.259,1.963c1.875,0.897 3.673,1.787 5.076,2.817c2.833,1.891 4.41,3.468 4.425,3.484c0.39,0.392 0.91,0.594 1.433,0.594c0.381,0 0.763,-0.107 1.097,-0.327c0.934,-0.612 1.196,-1.871 0.602,-2.779l-0.035,-0.061Z" style="fill:#030405;fill-rule:nonzero;"/><path d="M193.058,124.723c-0.267,-0.141 -0.56,-0.321 -0.884,-0.519c-0.844,-0.518 -1.895,-1.161 -3.186,-1.604c-1.906,-0.838 -4.105,-1.509 -6.386,-1.942c-2.928,-0.394 -5.459,-0.462 -7.753,-0.206c-2.512,0.344 -5.119,1.063 -7.543,2.081c-1.963,0.84 -3.936,2.016 -5.866,3.497c-3.07,2.353 -4.596,4.637 -4.711,4.813l-0.029,0.041c-0.518,0.798 -0.407,1.866 0.263,2.539c0.382,0.384 0.889,0.595 1.428,0.595l0.001,0c0.54,0 1.046,-0.212 1.426,-0.596l0.016,-0.017c0.15,-0.148 1.68,-1.644 4.428,-3.479c1.381,-1.015 3.18,-1.906 5.05,-2.802c1.993,-0.922 4.16,-1.602 6.293,-1.971c1.901,-0.438 4.074,-0.629 6.61,-0.602l1.022,0.073c0.743,0.053 1.465,0.104 2.172,0.152c0.623,0.029 1.226,0.15 1.81,0.266c0.34,0.068 0.673,0.134 1,0.182c1.401,0.205 2.595,0.522 3.555,0.776c0.251,0.067 0.485,0.129 0.708,0.184l4.636,1.09l-4.06,-2.551Z" style="fill:#030405;fill-rule:nonzero;"/><path d="M143.169,202.905" style="fill:#be927b;fill-rule:nonzero;"/><path d="M143.169,202.905" style="fill:#be927b;fill-rule:nonzero;"/><path d="M139.529,200.164c-0.103,-0.022 -0.206,-0.042 -0.309,-0.066c0.101,0.023 0.19,0.041 0.309,0.066Z" style="fill:#be927b;fill-rule:nonzero;"/><path d="M143.169,199.968" style="fill:#be927b;fill-rule:nonzero;"/><path d="M138.728,199.985c-0.095,-0.024 -0.181,-0.051 -0.275,-0.077l-0.01,0.004c0,0 0.106,0.029 0.285,0.073Z" style="fill:#be927b;fill-rule:nonzero;"/><path d="M143.169,199.968" style="fill:#be927b;fill-rule:nonzero;"/><path d="M142.939,202.125" style="fill:#be927b;fill-rule:nonzero;"/><path d="M142.939,202.125" style="fill:#be927b;fill-rule:nonzero;"/><path d="M139.299,199.384c-0.103,-0.022 -0.206,-0.042 -0.309,-0.066c0.101,0.022 0.19,0.041 0.309,0.066Z" style="fill:#be927b;fill-rule:nonzero;"/><path d="M142.939,199.188" style="fill:#be927b;fill-rule:nonzero;"/><path d="M138.499,199.205c-0.096,-0.025 -0.182,-0.052 -0.276,-0.077l-0.01,0.004c0,0 0.106,0.029 0.286,0.073Z" style="fill:#be927b;fill-rule:nonzero;"/><path d="M142.939,199.188" style="fill:#be927b;fill-rule:nonzero;"/><path d="M143.531,201.927" style="fill:#be927b;fill-rule:nonzero;"/><path d="M143.531,201.927" style="fill:#be927b;fill-rule:nonzero;"/><path d="M140.013,199.277c-0.1,-0.021 -0.199,-0.041 -0.299,-0.064c0.098,0.022 0.184,0.04 0.299,0.064Z" style="fill:#be927b;fill-rule:nonzero;"/><path d="M143.531,199.088" style="fill:#be927b;fill-rule:nonzero;"/><path d="M139.239,199.104c-0.092,-0.023 -0.175,-0.05 -0.266,-0.074l-0.01,0.004c0,0 0.103,0.028 0.276,0.07Z" style="fill:#be927b;fill-rule:nonzero;"/><path d="M143.531,199.088" style="fill:#be927b;fill-rule:nonzero;"/><path d="M133.274,201.673c-0.24,-3.199 8.912,0.671 11.918,0.763c2.397,0.081 9.6,-0.474 10.266,-0.728c5.035,-1.883 -0.275,5.349 -10.415,5.73c-4.646,0.185 -11.631,-3.824 -11.769,-5.765Z" style="fill:#f0d2ad;fill-rule:nonzero;"/><path d="M163.441,193.988c-5.804,-1.086 -18.031,0.073 -18.031,0.073c-10.083,1.675 -17.974,-0.107 -18.032,-0.038c-0.24,0.024 8.053,11.023 17.894,10.516c9.842,0.507 18.41,-10.516 18.169,-10.551Z" style="fill:#c2646e;fill-rule:nonzero;"/><path d="M151.241,191.666c-2.615,-0.289 -4.478,1.597 -5.819,1.459c-1.366,0.127 -3.139,-1.083 -5.77,-1.109c-3.7,-0.036 -5.506,-0.361 -12.274,2.007c0.241,0.462 4.577,2.972 12.698,3.11c0.115,0 2.294,1.236 5.391,1.214c1.939,-0.012 4.599,-1.306 4.703,-1.306c8.133,-0.127 13.099,-2.544 13.328,-2.994c-8.946,-2.773 -8.237,-2.417 -12.257,-2.381Z" style="fill:#d87475;fill-rule:nonzero;"/><path d="M195.422,286.045c0.082,6.008 0.309,10.678 0.494,13.723l-99.827,0c0.186,-3.066 0.371,-7.715 0.453,-13.723l-11.81,0c0.844,-8.271 2.49,-15.225 4.63,-21.089c7.735,-21.027 21.891,-27.693 28.413,-29.709c2.119,-0.679 3.436,-0.823 3.436,-0.823c0.247,0 0.452,-0.021 0.678,-0.062c1.194,-0.185 2.243,-0.905 3.148,-2.057c1.626,4.094 13.045,30.306 20.945,38.021c0.103,-0.103 0.206,-0.206 0.288,-0.308c8.106,-8.271 19.628,-34.956 20.78,-37.981c0.062,-0.164 0.103,-0.329 0.165,-0.452c0.802,1.193 1.687,2.057 2.695,2.489c0.514,0.226 1.049,0.35 1.625,0.35c0,0 2.325,0.267 5.823,1.646c7.16,2.798 19.175,10.143 26.067,28.886c2.161,5.864 3.807,12.818 4.671,21.089l-12.674,0Z" style="fill:#975459;fill-rule:nonzero;"/><path d="M60.701,125.729c1.561,-16.863 5.683,-30.322 5.683,-30.322c0,0 0.122,0.125 0.347,0.362c4.95,-16.492 13.191,-25.401 13.191,-25.401l0,0.007c4.008,-5.579 9.691,-11.437 16.646,-17.215c14.25,-11.815 23.212,-9.383 35.008,-9.044c0,0 0.038,0.075 0.093,0.193c5.183,-1.028 33.042,-6.145 49.613,-0.485c18.318,6.269 33.311,17.02 43.903,45.895c1.628,4.441 2.794,8.757 3.602,12.921c2.399,4.828 3.482,9.565 3.927,13.446l0.277,-0.039c0,0 9.226,45.422 35.22,54.49c0,0 -19.749,4.497 -35.38,-18.806c-0.367,4.616 -1.006,9.289 -2.02,13.845c0.862,5.994 1.909,10.944 1.909,14.138c0,22.586 -18.36,41.301 -15.53,64.042c1.87,14.994 9.383,26.616 9.383,26.616c0,0 -8.599,-10.266 -12.121,-19.885c-3.514,-9.622 -2.337,-26.95 3.522,-40.746c3.008,-7.07 3.849,-14.815 3.487,-22.327c-0.501,0.677 -1.008,1.348 -1.55,1.989c0,0 0.64,-1.911 1.355,-4.905c-0.334,-3.725 -0.935,-7.363 -1.691,-10.799c-0.128,-0.597 -0.266,-1.198 -0.406,-1.785c-0.166,-0.687 -0.354,-1.328 -0.527,-1.996c-1.626,3.103 -3.426,6.029 -5.327,8.762c-0.121,0.369 -0.233,0.751 -0.363,1.104c-1.208,3.622 -2.888,6.991 -4.338,10.177c-1.414,3.201 -2.874,6.205 -3.979,9.117c-1.014,2.906 -1.926,5.653 -2.388,8.263c-0.283,1.304 -0.421,2.576 -0.528,3.774c-0.172,1.219 -0.218,2.364 -0.206,3.46c-0.115,2.175 0.12,4.093 0.189,5.692c0.411,3.179 0.648,5.013 0.648,5.013c0,0 -0.212,-0.422 -0.617,-1.216c-0.369,-0.822 -1.057,-1.967 -1.667,-3.534c-0.514,-1.57 -1.353,-3.464 -1.752,-5.741c-0.546,-2.262 -0.919,-4.872 -0.846,-7.743c-0.083,-3.82 0.71,-8.052 1.968,-12.387c-6.74,6.35 -12.106,9.837 -12.106,9.837c0,0 7.877,-8.527 11.399,-17.036c2.73,-6.605 6.812,-17.942 6.812,-34.637c0,-0.773 -0.05,-1.554 -0.122,-2.341c-0.239,-0.905 -0.449,-1.822 -0.728,-2.711c-1.848,-6.049 -4.164,-11.685 -6.163,-16.666c-4.982,-8.896 -10.793,-15.647 -10.793,-15.647c0,0 8.217,12.966 9.832,27.23c1.638,14.256 -6.977,25.286 -6.977,25.286c0,0 1.722,-16.932 -4.303,-30.41c-3.025,-6.77 -7.997,-12.674 -16.138,-15.118l0.014,0.032c4.372,10.924 -4.409,20.104 -4.409,20.104c0,0 -0.032,-2.74 -0.901,-6.965c-2.252,-10.933 -10.123,-31.84 -37.644,-41.138l-0.854,1.139l-19.386,25.871c-0.951,1.177 -2.497,3.163 -4.295,5.733c-5.254,7.484 -12.507,19.752 -12.507,30.421c0,16.693 4.079,28.029 6.816,34.632c3.52,8.509 11.397,17.041 11.397,17.041c0,0 -4.29,-2.786 -10.014,-7.914c0.304,1.948 0.478,3.846 0.44,5.644c0.072,2.871 -0.3,5.481 -0.847,7.743c-0.399,2.277 -1.238,4.171 -1.752,5.741c-0.609,1.567 -1.297,2.712 -1.666,3.534c-0.405,0.794 -0.617,1.216 -0.617,1.216c0,0 0.237,-1.834 0.648,-5.013c0.068,-1.599 0.303,-3.517 0.188,-5.692c0.012,-1.096 -0.034,-2.241 -0.206,-3.46c-0.107,-1.198 -0.244,-2.47 -0.527,-3.774c-0.463,-2.61 -1.374,-5.357 -2.389,-8.263c-1.001,-2.642 -2.295,-5.366 -3.583,-8.235c-4.099,-4.822 -8.144,-10.49 -11.406,-16.905c-2.425,11.131 -3.222,24.352 1.649,35.803c5.861,13.796 7.038,31.124 3.524,40.746c-3.524,9.619 -12.121,19.885 -12.121,19.885c0,0 7.512,-11.622 9.382,-26.616c2.831,-22.741 -15.529,-41.456 -15.529,-64.042c0,-2.878 0.85,-7.182 1.649,-12.383c-1.712,-4.045 -2.924,-8.377 -3.728,-12.846c-15.272,20.173 -33.412,16.052 -33.412,16.052c18.367,-6.406 28.353,-30.948 32.638,-44.808Z" style="fill:#3e2a12;fill-rule:nonzero;"/><path d="M125.037,232.305l-9.865,3.866c0,0 21.188,47.42 30.906,51.021l0,-16.866c0,0 -15.28,-23.47 -21.041,-38.021Z" style="fill:#75353c;fill-rule:nonzero;"/><path d="M167.215,231.585l9.769,4.341c0,0 -21.188,47.665 -30.906,51.266l0,-16.866c0,0 15.376,-24.19 21.137,-38.741Z" style="fill:#75353c;fill-rule:nonzero;"/></g></svg>