<?xml version="1.0" encoding="UTF-8" standalone="no"?><!DOCTYPE svg PUBLIC "-//W3C//DTD SVG 1.1//EN" "http://www.w3.org/Graphics/SVG/1.1/DTD/svg11.dtd"><svg width="100%" height="100%" viewBox="0 0 297 300" version="1.1" xmlns="http://www.w3.org/2000/svg" xmlns:xlink="http://www.w3.org/1999/xlink" xml:space="preserve" style="fill-rule:evenodd;clip-rule:evenodd;stroke-linejoin:round;stroke-miterlimit:1.41421;"><g id="_36"><rect x="0" y="0.07" width="296.866" height="299.705" style="fill:#997a57;fill-rule:nonzero;"/><path d="M141.312,187.505l0,112.27l-60.728,0c-0.989,-0.394 -1.482,-0.594 -1.482,-0.594c0,-14.331 2.102,-25.505 5.305,-34.219c7.73,-21.03 21.882,-27.709 28.396,-29.723c2.138,-0.661 3.455,-0.82 3.455,-0.82c0.231,0 0.446,-0.021 0.667,-0.056c1.911,-0.308 3.464,-1.969 4.71,-4.619c0.928,-1.968 1.701,-4.479 2.332,-7.386c0.251,-1.132 0.446,-2.275 0.646,-3.51c0.297,-2.077 0.589,-4.25 0.841,-6.525c0.097,-1.384 0.245,-2.717 0.394,-4.152c0.538,-6.868 0.692,-14.388 0.692,-21.507c0,0 8.155,0.841 14.772,0.841Z" style="fill:#e0bd9a;fill-rule:nonzero;"/><path d="M203.772,299.181c0,0 -0.543,0.2 -1.435,0.594l-61.025,0l0,-112.27l0.149,0c6.571,0 14.828,-0.841 14.828,-0.841c0,7.068 0.143,14.485 0.687,21.358c0.149,1.338 0.297,2.717 0.395,4.055c0.251,2.373 0.548,4.597 0.891,6.673l0,0.046c0.098,0.943 0.292,1.784 0.446,2.671c0.6,2.921 1.328,5.489 2.204,7.549c1.092,2.563 2.419,4.352 4.029,5.06c0.512,0.23 1.056,0.343 1.625,0.343c0,0 2.337,0.282 5.838,1.656c7.15,2.798 19.159,10.143 26.058,28.887c3.204,8.714 5.31,19.888 5.31,34.219Z" style="fill:#efd0ad;fill-rule:nonzero;"/><path d="M158.262,218.54l0,0.05c-1.532,2.357 -6.671,9.134 -16.85,9.134l-0.099,0c-9.635,-0.049 -15.268,-7.023 -16.701,-9.086c0.296,-2.062 0.593,-4.223 0.84,-6.482c0.099,-1.327 0.247,-2.702 0.395,-4.126c4.695,1.179 9.833,1.916 15.269,2.014l0.197,0c5.634,-0.098 10.822,-0.884 15.665,-2.161c0.148,1.326 0.296,2.701 0.395,4.027c0.247,2.357 0.544,4.568 0.889,6.63Z" style="fill:#be987f;fill-rule:nonzero;"/><path d="M186.612,264.962c2.004,9.042 3.239,20.241 3.239,34.111c0,0 -0.379,0.184 -1.143,0.702l-94.419,0c-0.758,-0.518 -1.142,-0.702 -1.142,-0.702c0,-13.844 1.235,-25.033 3.234,-34.111l-11.974,0c7.73,-21.03 21.882,-27.709 28.396,-29.723c-0.015,0.205 -0.02,0.415 -0.02,0.625c0,9.626 12.645,17.473 28.529,17.878c0.436,0.016 0.871,0.021 1.307,0.021c16.325,0 29.6,-7.899 29.785,-17.688c7.15,2.798 19.159,10.143 26.058,28.887l-11.85,0Z" style="fill:#79b6e3;fill-rule:nonzero;"/><path d="M140.622,59.561c-64.337,0 -64.683,53.779 -61.817,88.993c-4.398,-8.349 -17.492,-5.796 -16.405,7.367c1.038,12.671 19.745,19.129 19.222,17.73c9.743,26.043 35.528,45.675 59,45.675l0.494,0l0,-159.765l-0.494,0Z" style="fill:#d2a686;fill-rule:nonzero;"/><path d="M140.967,59.561c64.337,0 64.682,53.779 61.866,88.993c4.398,-8.349 17.443,-5.796 16.356,7.367c-0.988,12.671 -19.733,19.134 -19.222,17.73c-9.49,26.043 -35.528,45.675 -59,45.675c-0.147,0 -0.345,0 -0.345,0l-0.149,-159.765c0,0 0.347,0 0.494,0Z" style="fill:#ddb598;fill-rule:nonzero;"/><path d="M140.116,74.737c-21.149,0 -36.665,6.139 -46.005,18.221c-13.094,16.944 -12.6,42.777 -7.807,61.342c1.483,5.698 2.273,20.971 3.261,26.571c4.596,25.096 32.317,38.455 50.551,38.455c0,0 0.346,0 0.494,0l0,-144.589c-0.148,0 -0.296,0 -0.296,0l-0.198,0Z" style="fill:#e0bd9a;fill-rule:nonzero;"/><path d="M186.07,93.007c-9.29,-12.033 -24.608,-18.172 -45.46,-18.27l0,144.589c20.852,-0.245 45.806,-14.881 50.056,-38.455c1.037,-5.6 1.778,-20.873 3.261,-26.571c4.842,-18.515 5.336,-44.3 -7.857,-61.293Z" style="fill:#efd0ad;fill-rule:nonzero;"/><path d="M126.123,71.431l-0.267,0.267l0.044,0.089c0.089,-0.133 0.134,-0.267 0.223,-0.356Z" style="fill:#432e1b;fill-rule:nonzero;"/><path d="M94.456,131.17c0,0 4.908,20.136 13.335,21.78c8.427,1.642 17.547,-1.624 17.547,-1.624c0,0 0.872,-23.663 -3.443,-26.755c-4.311,-3.106 -14.25,-7.593 -27.439,6.599Z" style="fill:#fff;fill-rule:nonzero;"/><path d="M187.267,130.485c0,0 -4.908,20.136 -13.335,21.78c-8.426,1.642 -17.546,-1.624 -17.546,-1.624c0,0 -0.872,-23.663 3.443,-26.756c4.311,-3.105 14.25,-7.592 27.438,6.6Z" style="fill:#fff;fill-rule:nonzero;"/><path d="M66.502,150.371c3.162,-5.108 8.103,-2.897 9.289,-1.768c1.285,1.228 2.322,2.8 1.532,5.796c-0.445,1.719 -2.224,1.866 -1.828,4.42c0.494,2.897 1.828,3.045 2.618,3.732c0.742,0.639 1.68,1.13 2.125,2.358c0.494,1.228 0.544,2.505 0.297,3.634c-0.495,2.063 -3.509,0.393 -5.534,-0.491c-1.335,-0.638 -5.584,-4.224 -6.671,-5.402c-2.669,-3.045 -3.953,-8.939 -1.828,-12.279Z" style="fill:#ac8774;fill-rule:nonzero;"/><path d="M215.087,150.371c-3.162,-5.108 -8.054,-2.897 -9.289,-1.768c-1.285,1.228 -2.273,2.8 -1.532,5.796c0.445,1.719 2.224,1.866 1.828,4.42c-0.494,2.897 -1.828,3.045 -2.569,3.732c-0.742,0.639 -1.73,1.13 -2.174,2.358c-0.445,1.228 -0.544,2.505 -0.297,3.634c0.494,2.063 3.509,0.393 5.534,-0.491c1.384,-0.638 5.584,-4.224 6.671,-5.402c2.718,-3.045 3.953,-8.939 1.828,-12.279Z" style="fill:#ac8774;fill-rule:nonzero;"/><path d="M140.803,196.382" style="fill:#bc917b;fill-rule:nonzero;"/><path d="M140.803,196.382" style="fill:#bc917b;fill-rule:nonzero;"/><path d="M137.235,193.695c-0.101,-0.022 -0.202,-0.041 -0.303,-0.065c0.099,0.023 0.186,0.041 0.303,0.065Z" style="fill:#bc917b;fill-rule:nonzero;"/><path d="M140.803,193.503" style="fill:#bc917b;fill-rule:nonzero;"/><path d="M136.45,193.52c-0.093,-0.024 -0.178,-0.051 -0.27,-0.076l-0.01,0.004c0,0 0.105,0.029 0.28,0.072Z" style="fill:#bc917b;fill-rule:nonzero;"/><path d="M140.803,193.503" style="fill:#bc917b;fill-rule:nonzero;"/><path d="M128.269,172.154c-0.245,-4.997 9.178,-1.826 12.284,-1.67c2.455,0.126 9.923,-1.574 10.564,-1.136c4.394,2.962 -4.654,8.928 -10.72,8.928c-1.616,0 -11.981,-3.109 -12.128,-6.122Z" style="fill:#ddb598;fill-rule:nonzero;"/><path d="M81.684,126.046" style="fill:#432e1b;fill-rule:nonzero;"/><path d="M141.075,193.522" style="fill:#ba907b;fill-rule:nonzero;"/><path d="M141.075,193.522" style="fill:#ba907b;fill-rule:nonzero;"/><path d="M137.41,190.762c-0.104,-0.022 -0.207,-0.043 -0.311,-0.066c0.102,0.022 0.192,0.041 0.311,0.066Z" style="fill:#ba907b;fill-rule:nonzero;"/><path d="M141.075,190.565" style="fill:#ba907b;fill-rule:nonzero;"/><path d="M136.604,190.582c-0.095,-0.025 -0.182,-0.052 -0.277,-0.078l-0.01,0.005c0,0 0.107,0.029 0.287,0.073Z" style="fill:#ba907b;fill-rule:nonzero;"/><path d="M141.075,190.565" style="fill:#ba907b;fill-rule:nonzero;"/><path d="M125.349,151.264c0,0 -0.193,0.056 -0.626,0.236c-0.108,-7.257 -0.779,-17.227 -3.473,-19.137c-4.007,-2.933 -13.052,-7.061 -25.138,4.23c-1.099,-3.12 -1.65,-5.485 -1.65,-5.485c13.213,-14.22 23.161,-9.74 27.44,-6.632c4.319,3.104 3.447,26.788 3.447,26.788Z" style="fill:#d6b496;fill-rule:nonzero;"/><path d="M120.36,141.01c0,4.581 -3.713,8.294 -8.294,8.294c-4.58,0 -8.293,-3.713 -8.293,-8.294c0,-4.58 3.713,-8.293 8.293,-8.293c4.581,0 8.294,3.713 8.294,8.293Z" style="fill:#482315;fill-rule:nonzero;"/><path d="M111.681,146.534c-2.395,-0.198 -4.234,-2.615 -4.015,-5.272c0.213,-2.657 2.422,-4.736 4.819,-4.536c2.395,0.198 4.23,2.612 4.019,5.268c-0.218,2.658 -2.429,4.74 -4.823,4.54Z" style="fill:#7e3a22;fill-rule:nonzero;"/><path d="M111.888,145.575c-1.668,-0.142 -3.397,-1.971 -3.213,-4.223c0.188,-2.26 2.188,-3.785 3.856,-3.648c1.668,0.141 3.393,1.978 3.21,4.231c-0.184,2.256 -2.19,3.777 -3.853,3.64Z" style="fill:#211a10;fill-rule:nonzero;"/><path d="M141.207,195.897" style="fill:#ba907b;fill-rule:nonzero;"/><path d="M141.207,195.897" style="fill:#ba907b;fill-rule:nonzero;"/><path d="M137.542,193.137c-0.104,-0.022 -0.207,-0.043 -0.311,-0.067c0.102,0.023 0.192,0.042 0.311,0.067Z" style="fill:#ba907b;fill-rule:nonzero;"/><path d="M141.207,192.94" style="fill:#ba907b;fill-rule:nonzero;"/><path d="M136.737,192.957c-0.096,-0.025 -0.183,-0.052 -0.277,-0.078l-0.011,0.004c0,0 0.107,0.03 0.288,0.074Z" style="fill:#ba907b;fill-rule:nonzero;"/><path d="M141.207,192.94" style="fill:#ba907b;fill-rule:nonzero;"/><path d="M141.094,195.526" style="fill:#bc917b;fill-rule:nonzero;"/><path d="M141.093,195.526l0.001,0l-0.001,0Z" style="fill:#bc917b;fill-rule:nonzero;"/><path d="M137.166,192.568c-0.112,-0.024 -0.223,-0.045 -0.334,-0.071c0.109,0.024 0.205,0.045 0.334,0.071Z" style="fill:#bc917b;fill-rule:nonzero;"/><path d="M141.094,192.357" style="fill:#bc917b;fill-rule:nonzero;"/><path d="M136.302,192.375c-0.103,-0.026 -0.196,-0.056 -0.297,-0.083l-0.011,0.005c0,0 0.114,0.031 0.308,0.078Z" style="fill:#bc917b;fill-rule:nonzero;"/><path d="M141.093,192.357l0.001,0l-0.001,0Z" style="fill:#bc917b;fill-rule:nonzero;"/><path d="M140.846,194.684" style="fill:#bc917b;fill-rule:nonzero;"/><path d="M140.845,194.684l0.001,0l-0.001,0Z" style="fill:#bc917b;fill-rule:nonzero;"/><path d="M136.917,191.726c-0.111,-0.024 -0.222,-0.045 -0.333,-0.071c0.109,0.024 0.205,0.044 0.333,0.071Z" style="fill:#bc917b;fill-rule:nonzero;"/><path d="M140.846,191.515" style="fill:#bc917b;fill-rule:nonzero;"/><path d="M136.053,191.533c-0.102,-0.026 -0.195,-0.055 -0.296,-0.083l-0.012,0.004c0,0 0.115,0.032 0.308,0.079Z" style="fill:#bc917b;fill-rule:nonzero;"/><path d="M140.845,191.515l0.001,0l-0.001,0Z" style="fill:#bc917b;fill-rule:nonzero;"/><path d="M141.485,194.47" style="fill:#bc917b;fill-rule:nonzero;"/><path d="M141.484,194.47l0.001,0l-0.001,0Z" style="fill:#bc917b;fill-rule:nonzero;"/><path d="M137.688,191.611c-0.108,-0.023 -0.215,-0.044 -0.323,-0.069c0.106,0.024 0.199,0.043 0.323,0.069Z" style="fill:#bc917b;fill-rule:nonzero;"/><path d="M141.485,191.407" style="fill:#bc917b;fill-rule:nonzero;"/><path d="M136.853,191.424c-0.1,-0.025 -0.19,-0.053 -0.287,-0.08l-0.011,0.005c0,0 0.111,0.03 0.298,0.075Z" style="fill:#bc917b;fill-rule:nonzero;"/><path d="M141.484,191.407l0.001,0l-0.001,0Z" style="fill:#bc917b;fill-rule:nonzero;"/><path d="M156.374,150.579c0,0 0.194,0.056 0.627,0.236c0.107,-7.258 0.778,-17.227 3.473,-19.137c4.006,-2.933 13.052,-7.062 25.138,4.229c1.098,-3.119 1.649,-5.484 1.649,-5.484c-13.213,-14.22 -23.16,-9.74 -27.439,-6.632c-4.319,3.103 -3.448,26.788 -3.448,26.788Z" style="fill:#d6b496;fill-rule:nonzero;"/><path d="M161.364,140.325c0,4.581 3.713,8.294 8.294,8.294c4.58,0 8.293,-3.713 8.293,-8.294c0,-4.58 -3.713,-8.293 -8.293,-8.293c-4.581,0 -8.294,3.713 -8.294,8.293Z" style="fill:#482315;fill-rule:nonzero;"/><path d="M170.043,145.848c2.395,-0.197 4.234,-2.614 4.016,-5.271c-0.215,-2.657 -2.423,-4.736 -4.82,-4.536c-2.395,0.198 -4.231,2.612 -4.019,5.269c0.218,2.656 2.428,4.739 4.823,4.538Z" style="fill:#7e3a22;fill-rule:nonzero;"/><path d="M169.836,144.89c1.667,-0.142 3.396,-1.971 3.213,-4.223c-0.187,-2.26 -2.189,-3.785 -3.856,-3.648c-1.668,0.141 -3.394,1.978 -3.21,4.231c0.184,2.256 2.19,3.777 3.853,3.64Z" style="fill:#211a10;fill-rule:nonzero;"/><path d="M130.399,130.85c-0.064,-0.098 -1.593,-2.424 -4.719,-4.82c-1.959,-1.502 -3.878,-2.646 -5.87,-3.498c-2.42,-1.017 -5.026,-1.736 -7.551,-2.081c-2.284,-0.254 -4.815,-0.187 -7.767,0.211c-2.255,0.429 -4.454,1.099 -6.321,1.923c-1.331,0.458 -2.382,1.102 -3.227,1.62c-0.323,0.198 -0.616,0.377 -0.913,0.537l-4.025,2.531l4.638,-1.09c0.217,-0.054 0.45,-0.116 0.702,-0.183c0.959,-0.254 2.154,-0.571 3.554,-0.777c0.328,-0.047 0.661,-0.113 1.002,-0.181c0.583,-0.117 1.187,-0.237 1.819,-0.267c0.703,-0.047 1.432,-0.099 2.18,-0.153l0.974,-0.07c2.57,-0.032 4.739,0.163 6.667,0.606c2.107,0.364 4.273,1.044 6.259,1.963c1.875,0.898 3.672,1.788 5.075,2.818c2.834,1.891 4.411,3.469 4.426,3.483l0,0.001c0.389,0.392 0.909,0.594 1.433,0.594c0.381,0 0.763,-0.107 1.097,-0.328c0.934,-0.61 1.196,-1.87 0.602,-2.778l-0.035,-0.061Z" style="fill:#030405;fill-rule:nonzero;"/><path d="M188.095,124.723c-0.266,-0.141 -0.559,-0.321 -0.883,-0.52c-0.845,-0.517 -1.895,-1.16 -3.186,-1.603c-1.906,-0.839 -4.105,-1.509 -6.387,-1.942c-2.927,-0.394 -5.458,-0.462 -7.752,-0.206c-2.512,0.344 -5.119,1.063 -7.543,2.081c-1.963,0.84 -3.937,2.016 -5.866,3.497c-3.07,2.353 -4.597,4.637 -4.711,4.813l-0.029,0.042c-0.518,0.797 -0.406,1.865 0.264,2.537c0.381,0.386 0.888,0.596 1.427,0.596l0.001,0c0.539,0 1.045,-0.212 1.426,-0.596l0.017,-0.016c0.148,-0.149 1.68,-1.645 4.427,-3.481c1.381,-1.013 3.18,-1.905 5.05,-2.801c1.993,-0.922 4.159,-1.602 6.293,-1.971c1.9,-0.438 4.074,-0.629 6.61,-0.602l1.022,0.073c0.743,0.053 1.465,0.104 2.172,0.152c0.623,0.029 1.226,0.149 1.809,0.266c0.341,0.068 0.673,0.134 1.001,0.181c1.401,0.206 2.596,0.523 3.556,0.777c0.25,0.067 0.484,0.129 0.707,0.185l4.636,1.089l-4.061,-2.551Z" style="fill:#030405;fill-rule:nonzero;"/><path d="M161.396,191.858c-5.849,-1.708 -20.923,-4.794 -20.923,-4.794c-10.958,1.675 -19.495,4.725 -19.558,4.794c-0.261,0.023 9.826,10.531 20.523,10.023c10.697,0.508 20.219,-9.989 19.958,-10.023Z" style="fill:#c2646e;fill-rule:nonzero;"/><path d="M110.538,140.017c-0.07,0.815 -0.905,1.41 -1.863,1.331c-0.959,-0.082 -1.683,-0.809 -1.619,-1.618c0.07,-0.818 0.901,-1.414 1.859,-1.335c0.964,0.077 1.688,0.805 1.623,1.622Z" style="fill:#fff;fill-rule:nonzero;"/><path d="M115.915,144.728c-0.035,0.405 -0.452,0.704 -0.93,0.664c-0.481,-0.038 -0.841,-0.405 -0.811,-0.81c0.034,-0.405 0.453,-0.705 0.93,-0.664c0.481,0.037 0.845,0.402 0.811,0.81Z" style="fill:#fff;fill-rule:nonzero;"/><path d="M140.93,187.666l0,0.013l-0.109,-0.013l-0.109,0.013l0,-0.013c-1.593,0.123 -3.147,-0.149 -4.58,-0.551l0.004,0.003c-4.879,-1.53 -9.593,2.692 -10.189,3.251c-0.363,0.357 -0.791,0.642 -1.4,0.765l0.239,0.489c0.908,1.852 2.984,2.828 4.985,2.329c2.672,-0.665 6.725,-1.463 11.385,-1.676l0,-4.601l-0.226,-0.009Z" style="fill:#fff;fill-rule:nonzero;"/><path d="M141.382,187.666l0,0.013l0.109,-0.013l0.109,0.013l0,-0.013c1.593,0.123 3.147,-0.149 4.58,-0.551l-0.004,0.003c4.88,-1.53 9.593,2.692 10.189,3.251c0.363,0.357 0.791,0.642 1.401,0.765l-0.24,0.489c-0.908,1.852 -2.984,2.828 -4.985,2.329c-2.672,-0.665 -6.725,-1.463 -11.385,-1.676l0,-4.601l0.226,-0.009Z" style="fill:#fff;fill-rule:nonzero;"/><path d="M150.436,182.362c0,0 -1.582,0.615 -3.425,1.114l0.012,0.005c0,0 -0.124,0.034 -0.334,0.086c-0.191,0.049 -0.38,0.086 -0.575,0.132c-0.119,0.026 -0.223,0.048 -0.362,0.077c-0.322,0.069 -0.635,0.132 -0.949,0.181c-0.947,0.165 -2.099,0.319 -3.312,0.367c-0.111,0.005 -0.223,0.005 -0.335,0.008c-0.112,-0.003 -0.223,-0.003 -0.334,-0.008l-0.001,0c-1.213,-0.048 -2.365,-0.202 -3.312,-0.367c-0.314,-0.049 -0.627,-0.112 -0.949,-0.181c-0.138,-0.029 -0.243,-0.051 -0.362,-0.077c-0.194,-0.046 -0.384,-0.083 -0.575,-0.132c-0.209,-0.052 -0.334,-0.086 -0.334,-0.086l0.012,-0.005c-1.843,-0.499 -3.424,-1.114 -3.424,-1.114c-5.763,-1.831 -10.962,9.496 -10.962,9.496l0.002,0l0.606,0.085c-0.181,0.97 0.251,-0.342 0.251,-0.342c0.629,0 1.499,-0.338 2.272,-0.406c0.18,-0.009 0.346,-0.03 0.501,-0.061c0.576,-0.117 0.987,-0.38 1.337,-0.709l-0.001,0.006l0.064,-0.062c0.596,-0.559 5.31,-4.781 10.189,-3.251l-0.004,-0.003c1.433,0.402 2.987,0.674 4.58,0.551l0,0.013l0.109,-0.013l0.109,0.013l0,-0.013l0.226,0.009l0.226,-0.009l0,0.013l0.109,-0.013l0.109,0.013l0,-0.013c1.593,0.123 3.147,-0.149 4.58,-0.551l-0.004,0.003c4.88,-1.53 9.593,2.692 10.189,3.251l0.064,0.062l-0.001,-0.006c0.35,0.329 0.761,0.592 1.338,0.709c0.154,0.031 0.32,0.052 0.501,0.061c0.773,0.068 1.643,0.406 2.271,0.406c0,0 0.432,1.312 0.251,0.342l0.607,-0.085l0.001,0c0,0 -5.199,-11.327 -10.961,-9.496Z" style="fill:#d67374;fill-rule:nonzero;"/><path d="M171.186,139.332c0.069,0.814 0.906,1.41 1.863,1.331c0.96,-0.082 1.683,-0.809 1.618,-1.619c-0.069,-0.818 -0.9,-1.413 -1.859,-1.335c-0.963,0.079 -1.687,0.805 -1.622,1.623Z" style="fill:#fff;fill-rule:nonzero;"/><path d="M165.809,144.043c0.035,0.405 0.452,0.704 0.929,0.664c0.482,-0.038 0.842,-0.405 0.812,-0.81c-0.035,-0.405 -0.453,-0.705 -0.93,-0.664c-0.482,0.037 -0.846,0.401 -0.811,0.81Z" style="fill:#fff;fill-rule:nonzero;"/><path d="M141.573,199.298l0,-0.008l0.065,0.007l0.066,-0.007l0,0.008c0.957,-0.074 1.891,0.089 2.752,0.331l-0.003,-0.002c2.932,0.919 5.764,-1.618 6.122,-1.954c0.218,-0.214 0.476,-0.385 0.842,-0.459l-0.144,-0.294c-0.546,-1.113 -1.793,-1.699 -2.995,-1.4c-1.606,0.4 -4.041,0.88 -6.841,1.007l0,2.765l0.136,0.006Z" style="fill:#fff;fill-rule:nonzero;"/><path d="M141.301,199.298l0,-0.008l-0.065,0.007l-0.066,-0.007l0,0.008c-0.957,-0.074 -1.89,0.089 -2.752,0.331l0.003,-0.002c-2.932,0.919 -5.764,-1.618 -6.122,-1.954c-0.218,-0.214 -0.475,-0.385 -0.841,-0.459l0.144,-0.294c0.545,-1.113 1.792,-1.699 2.995,-1.4c1.605,0.4 4.04,0.88 6.84,1.007l0,2.765l-0.136,0.006Z" style="fill:#fff;fill-rule:nonzero;"/><path d="M119.354,277.119l-3.567,-3.563l-4.033,4.029l-4.033,-4.029l-3.566,3.563l4.033,4.034l-4.033,4.031l3.566,3.569l4.033,-4.033l4.033,4.033l3.567,-3.569l-4.033,-4.031l4.033,-4.034Z" style="fill:#447a9a;"/><path d="M139.434,277.119l-3.567,-3.563l-4.032,4.029l-4.033,-4.029l-3.567,3.563l4.033,4.034l-4.033,4.031l3.567,3.569l4.033,-4.033l4.032,4.033l3.567,-3.569l-4.033,-4.031l4.033,-4.034Z" style="fill:#447a9a;"/><path d="M159.514,277.119l-3.566,-3.563l-4.033,4.029l-4.032,-4.029l-3.567,3.563l4.032,4.034l-4.032,4.031l3.567,3.569l4.032,-4.033l4.033,4.033l3.566,-3.569l-4.032,-4.031l4.032,-4.034Z" style="fill:#447a9a;"/><path d="M179.595,277.119l-3.57,-3.563l-4.033,4.029l-4.033,-4.029l-3.566,3.563l4.032,4.034l-4.032,4.031l3.566,3.569l4.033,-4.033l4.033,4.033l3.57,-3.569l-4.033,-4.031l4.033,-4.034Z" style="fill:#447a9a;"/><path d="M199.889,157.076c1.32,0 -0.093,-7.201 4.324,-12.167c4.414,-4.959 11.14,-21.68 11.14,-38.364c0,-16.685 -5.759,-31.529 -20.768,-47.317c-15.016,-15.784 -37.094,-23.443 -37.094,-23.443l10.155,9.463c0,0 -5.471,-7.687 -25.134,-13.835c-15.512,-4.843 -25.56,0.558 -25.56,0.558c0,0 10.229,-0.362 13.335,4.183c0.774,1.157 3.647,2.91 3.647,2.91c0,0 -4.753,-10.898 -26.843,-1.865c-22.069,9.021 -21.673,25.187 -37.033,30.146c-15.721,5.091 -20.281,-1.438 -20.281,-1.438c0,0 6.821,11.432 18.938,11.464c2.325,0 2.167,-0.056 2.167,-0.056c0,0 -4.54,12.256 -5.409,21.406c-0.89,9.331 1.885,15.712 2.737,33.172c0.738,14.92 4.724,7.273 9.473,18.272c1.606,3.685 1.672,7.836 1.672,7.836c1.761,0.434 6.379,-8.953 3.059,-25.272c-2.158,-10.593 8.516,-50.737 34.259,-42.913c15.743,4.79 19.714,14.543 31.489,5.879c10.153,-7.462 24.344,-11.754 34.938,-5.855c10.605,5.915 16.579,19.192 14.723,40.381c-2.355,27.052 2.066,26.855 2.066,26.855Z" style="fill:#80132a;fill-rule:nonzero;"/><path d="M153.55,148.368c-0.642,-1.546 -1.223,-3.226 -1.737,-5.066c-0.02,-0.074 -0.041,-0.147 -0.062,-0.221c-0.234,-0.842 -0.475,-1.68 -0.742,-2.508c-0.408,-1.253 -1.005,-3.558 -0.758,-5.771c0.128,-1.141 0.48,-2.257 1.197,-3.191c-0.12,0.643 0.073,1.329 0.554,1.811c0.381,0.386 0.888,0.596 1.427,0.596l0.001,0c0.539,0 1.045,-0.212 1.426,-0.596l0.017,-0.016c0.102,-0.103 0.859,-0.843 2.216,-1.893c-0.736,5.244 -0.814,11.812 -0.781,15.71c-0.504,0.198 -1.009,0.402 -1.515,0.613c-0.036,0.015 -0.072,0.03 -0.108,0.045c-0.036,0.015 -0.071,0.03 -0.107,0.045c-0.035,0.015 -0.069,0.029 -0.104,0.044c-0.03,0.012 -0.061,0.025 -0.09,0.038c-0.05,0.021 -0.1,0.042 -0.149,0.063c-0.029,0.013 -0.058,0.025 -0.087,0.037c-0.039,0.017 -0.078,0.034 -0.117,0.051c-0.103,0.044 -0.204,0.088 -0.307,0.133c-0.058,0.025 -0.116,0.05 -0.174,0.076Zm40.412,-4.229c-0.052,-0.011 -0.104,-0.023 -0.156,-0.034c-3.497,-0.753 -7.147,-1.252 -10.933,-1.417c2.847,-5.857 4.394,-12.203 4.394,-12.203c-0.005,-0.006 -0.011,-0.012 -0.017,-0.018c0.008,-0.029 0.011,-0.044 0.011,-0.044c-0.364,-0.392 -0.725,-0.769 -1.084,-1.133c2.463,1.291 5.901,3.857 7.255,8.508c0.457,1.574 0.676,3.388 0.537,5.472c0,0 0.012,0.314 -0.007,0.869Z" style="fill:url(#_Linear1);"/><path d="M157.113,146.914c0.283,-6.526 1.126,-13.652 3.361,-15.236c1.996,-1.461 5.243,-3.22 9.494,-3.22c4.281,0 9.58,1.783 15.644,7.449c1.01,-2.869 1.557,-5.1 1.638,-5.44c0.006,0.006 0.012,0.012 0.017,0.018c0,0 -1.547,6.346 -4.394,12.203c-0.905,-0.04 -1.819,-0.06 -2.739,-0.06l-0.065,0c-0.814,0 -1.631,0.017 -2.456,0.049c0.22,-0.745 0.338,-1.535 0.338,-2.352c0,-4.58 -3.713,-8.293 -8.293,-8.293c-4.581,0 -8.294,3.713 -8.294,8.293c0,1.749 0.541,3.372 1.465,4.709c-1.885,0.53 -3.791,1.154 -5.716,1.88Z" style="fill:url(#_Linear2);"/><path d="M156.308,147.223c-0.033,-3.898 0.045,-10.466 0.781,-15.71c0.616,-0.476 1.354,-1.015 2.211,-1.588c1.381,-1.013 3.18,-1.905 5.05,-2.801c0.472,-0.218 0.953,-0.422 1.441,-0.612c1.567,-0.188 3.252,-0.302 5.037,-0.302c3.823,0 8.096,0.522 12.621,1.957c0,0 1.169,0.306 2.728,1.123c0.359,0.364 0.72,0.741 1.084,1.133c0,0 -0.003,0.015 -0.011,0.044c-0.081,0.34 -0.628,2.571 -1.638,5.44c-6.064,-5.666 -11.363,-7.449 -15.644,-7.449c-4.251,0 -7.498,1.759 -9.494,3.22c-2.235,1.584 -3.078,8.71 -3.361,15.236c-0.267,0.101 -0.537,0.205 -0.805,0.309Z" style="fill:url(#_Linear3);"/><path d="M162.829,145.034c-0.924,-1.337 -1.465,-2.96 -1.465,-4.709c0,-4.58 3.713,-8.293 8.294,-8.293c4.58,0 8.293,3.713 8.293,8.293c0,0.817 -0.118,1.607 -0.338,2.352c-1.291,0.052 -2.596,0.144 -3.914,0.279c0.293,-0.728 0.428,-1.542 0.36,-2.379c-0.008,-0.091 -0.017,-0.181 -0.029,-0.27c0.422,-0.305 0.677,-0.769 0.637,-1.263c-0.065,-0.769 -0.804,-1.342 -1.69,-1.342c-0.024,0 -0.049,0.001 -0.074,0.002c-0.843,-1.027 -2.053,-1.676 -3.344,-1.676c-0.106,0 -0.213,0.004 -0.32,0.013c-2.395,0.198 -4.231,2.612 -4.019,5.269c0.068,0.829 0.33,1.602 0.732,2.268c-0.103,0.133 -0.157,0.295 -0.143,0.465c0.006,0.076 0.026,0.148 0.058,0.215c-1.006,0.232 -2.019,0.49 -3.038,0.776Z" style="fill:url(#_Linear4);"/><path d="M165.952,143.578c-0.402,-0.666 -0.664,-1.439 -0.732,-2.268c-0.212,-2.657 1.624,-5.071 4.019,-5.269c0.107,-0.009 0.214,-0.013 0.32,-0.013c1.291,0 2.501,0.649 3.344,1.676c-0.032,0.001 -0.063,0.003 -0.095,0.005c-0.38,0.031 -0.723,0.163 -0.995,0.362c-0.693,-0.671 -1.581,-1.061 -2.41,-1.061c-0.07,0 -0.14,0.003 -0.21,0.009c-1.668,0.141 -3.394,1.978 -3.21,4.231c0.061,0.753 0.326,1.425 0.713,1.98c-0.025,0 -0.05,0.001 -0.076,0.003c-0.282,0.022 -0.523,0.156 -0.668,0.345Zm6.52,-0.484c0.416,-0.686 0.651,-1.522 0.577,-2.427c0,-0.001 0,-0.002 -0.001,-0.004l0.001,0c0.373,-0.032 0.711,-0.162 0.981,-0.356c0.012,0.089 0.021,0.179 0.029,0.27c0.068,0.837 -0.067,1.651 -0.36,2.379c-0.407,0.042 -0.817,0.088 -1.227,0.138Z" style="fill:url(#_Linear5);"/><path d="M167.549,143.894c-0.034,-0.378 -0.403,-0.664 -0.841,-0.664c-0.004,0 -0.008,0 -0.012,0c-0.387,-0.555 -0.652,-1.227 -0.713,-1.98c-0.184,-2.253 1.542,-4.09 3.21,-4.231c0.07,-0.006 0.14,-0.009 0.21,-0.009c0.829,0 1.717,0.39 2.41,1.061c-0.417,0.305 -0.666,0.766 -0.627,1.261c0.065,0.766 0.808,1.338 1.693,1.338c0.056,0 0.112,-0.002 0.169,-0.007c0.001,0.002 0.001,0.003 0.001,0.004c0.074,0.905 -0.161,1.741 -0.577,2.427c-1.622,0.199 -3.263,0.463 -4.923,0.8Z" style="fill:url(#_Linear6);"/><path d="M153.43,134.018l-0.001,0c-0.539,0 -1.046,-0.21 -1.427,-0.596c-0.481,-0.482 -0.674,-1.168 -0.554,-1.811c0.522,-0.68 1.237,-1.264 2.199,-1.692c0,0 4.757,-2.524 12.144,-3.407c-0.488,0.19 -0.969,0.394 -1.441,0.612c-1.87,0.896 -3.669,1.788 -5.05,2.801c-0.857,0.573 -1.595,1.112 -2.211,1.588c-1.357,1.05 -2.114,1.79 -2.216,1.893l-0.017,0.016c-0.381,0.384 -0.887,0.596 -1.426,0.596Z" style="fill:url(#_Linear7);"/><path d="M172.879,140.67c-0.885,0 -1.628,-0.572 -1.693,-1.338c-0.039,-0.495 0.21,-0.956 0.627,-1.261c0.272,-0.199 0.615,-0.331 0.995,-0.362c0.032,-0.002 0.063,-0.004 0.095,-0.005c0.025,-0.001 0.05,-0.002 0.074,-0.002c0.886,0 1.625,0.573 1.69,1.342c0.04,0.494 -0.215,0.958 -0.637,1.263c-0.27,0.194 -0.608,0.324 -0.981,0.356l-0.001,0c-0.057,0.005 -0.113,0.007 -0.169,0.007Z" style="fill:url(#_Linear8);"/><path d="M165.867,144.258c-0.032,-0.067 -0.052,-0.139 -0.058,-0.215c-0.014,-0.17 0.04,-0.332 0.143,-0.465c0.145,-0.189 0.386,-0.323 0.668,-0.345c0.026,-0.002 0.051,-0.003 0.076,-0.003c0.004,0 0.008,0 0.012,0c0.438,0 0.807,0.286 0.841,0.664c-0.559,0.113 -1.119,0.234 -1.682,0.364Z" style="fill:url(#_Linear9);"/><path d="M129.265,149.19c-1.292,-0.438 -2.577,-0.83 -3.851,-1.179c0.039,-4.172 -0.048,-11.515 -0.955,-16.958c1.832,1.359 2.831,2.358 2.843,2.369l0,0.001c0.389,0.392 0.909,0.594 1.433,0.594c0.381,0 0.763,-0.107 1.097,-0.328c0.934,-0.61 1.196,-1.87 0.602,-2.778l-0.035,-0.061c-0.022,-0.034 -0.212,-0.324 -0.577,-0.786c1.03,0.522 1.75,1.236 2.239,2.054c1.033,1.73 1.033,3.927 0.746,5.761c-0.169,1.079 -0.438,2.034 -0.655,2.695c-0.287,0.899 -0.55,1.814 -0.801,2.728c-0.538,1.923 -1.153,3.681 -1.827,5.284c-0.086,0.204 -0.172,0.405 -0.26,0.604l0.001,0Zm-39.536,-0.694c-0.121,-0.597 -0.216,-1.162 -0.289,-1.684c-0.296,-2.124 -0.247,-3.541 -0.247,-3.541l0,-0.001c-0.006,-0.098 -0.012,-0.196 -0.017,-0.292c-0.335,-6.574 2.92,-10.406 5.898,-12.518c-0.203,0.212 -0.407,0.428 -0.612,0.648c0,0 0.003,0.015 0.011,0.045c-0.006,0.006 -0.011,0.011 -0.017,0.017c0,0 2.107,8.645 5.931,15.069c-3.461,0.444 -6.792,1.153 -9.977,2.059c-0.228,0.065 -0.455,0.131 -0.681,0.198Z" style="fill:url(#_Linear10);"/><path d="M124.62,147.798c-2.135,-0.557 -4.242,-0.992 -6.319,-1.318c1.281,-1.46 2.059,-3.374 2.059,-5.47c0,-4.58 -3.713,-8.293 -8.294,-8.293c-4.58,0 -8.293,3.713 -8.293,8.293c0,1.784 0.563,3.436 1.521,4.788c-1.663,0.085 -3.299,0.234 -4.907,0.441c-3.824,-6.424 -5.931,-15.069 -5.931,-15.069c0.006,-0.006 0.011,-0.011 0.017,-0.017c0.08,0.337 0.628,2.569 1.639,5.44c6.065,-5.667 11.363,-7.449 15.644,-7.449c4.25,0 7.498,1.758 9.494,3.219c2.257,1.6 3.094,8.856 3.37,15.435Z" style="fill:url(#_Linear11);"/><path d="M125.414,148.011c-0.265,-0.073 -0.53,-0.144 -0.794,-0.213c-0.276,-6.579 -1.113,-13.835 -3.37,-15.435c-1.996,-1.461 -5.244,-3.219 -9.494,-3.219c-4.281,0 -9.579,1.782 -15.644,7.449c-1.011,-2.871 -1.559,-5.103 -1.639,-5.44c-0.008,-0.03 -0.011,-0.045 -0.011,-0.045c0.205,-0.22 0.409,-0.436 0.612,-0.648c2.411,-1.709 4.641,-2.293 4.641,-2.293c4.522,-1.434 8.797,-1.957 12.619,-1.957c1.273,0 2.495,0.058 3.661,0.159c0.614,0.229 1.218,0.48 1.806,0.752c1.875,0.898 3.672,1.788 5.075,2.818c0.582,0.388 1.11,0.763 1.583,1.114c0.907,5.443 0.994,12.786 0.955,16.958Z" style="fill:url(#_Linear12);"/><path d="M118.301,146.48c-1.422,-0.224 -2.829,-0.395 -4.222,-0.518c0.279,-0.166 0.544,-0.363 0.787,-0.587c0.039,0.008 0.079,0.013 0.119,0.017c0.029,0.002 0.058,0.003 0.087,0.003c0.44,0 0.81,-0.287 0.843,-0.667c0.014,-0.17 -0.04,-0.331 -0.143,-0.465c0.401,-0.666 0.664,-1.439 0.732,-2.269c0.211,-2.656 -1.624,-5.07 -4.019,-5.268c-0.108,-0.009 -0.214,-0.013 -0.321,-0.013c-1.29,0 -2.501,0.649 -3.343,1.676c-0.026,-0.001 -0.051,-0.001 -0.076,-0.001c-0.885,0 -1.623,0.572 -1.689,1.342c-0.039,0.494 0.216,0.957 0.638,1.262c-0.011,0.089 -0.021,0.179 -0.028,0.27c-0.149,1.805 0.653,3.5 1.933,4.463c-0.35,-0.006 -0.701,-0.009 -1.049,-0.009l-0.045,0c-1.081,0 -2.151,0.028 -3.211,0.082c-0.958,-1.352 -1.521,-3.004 -1.521,-4.788c0,-4.58 3.713,-8.293 8.293,-8.293c4.581,0 8.294,3.713 8.294,8.293c0,2.096 -0.778,4.01 -2.059,5.47Z" style="fill:url(#_Linear13);"/><path d="M114.079,145.962c-1.511,-0.134 -3.005,-0.212 -4.48,-0.237c-1.28,-0.963 -2.082,-2.658 -1.933,-4.463c0.007,-0.091 0.017,-0.181 0.028,-0.27c0.27,0.194 0.607,0.324 0.981,0.356c0,0.001 0,0.003 0,0.004c-0.184,2.252 1.545,4.081 3.213,4.223c0.07,0.006 0.14,0.009 0.211,0.009c0.707,0 1.459,-0.285 2.096,-0.786c0.075,0.28 0.334,0.51 0.671,0.577c-0.243,0.224 -0.508,0.421 -0.787,0.587Zm1.693,-1.699c-0.145,-0.189 -0.386,-0.323 -0.668,-0.345c-0.025,-0.002 -0.051,-0.003 -0.076,-0.003c0.387,-0.555 0.651,-1.227 0.713,-1.98c0.183,-2.253 -1.542,-4.09 -3.21,-4.231c-0.069,-0.006 -0.14,-0.009 -0.21,-0.009c-0.829,0 -1.717,0.39 -2.411,1.061c-0.271,-0.199 -0.614,-0.331 -0.995,-0.361c-0.031,-0.003 -0.063,-0.005 -0.094,-0.006c0.842,-1.027 2.053,-1.676 3.343,-1.676c0.107,0 0.213,0.004 0.321,0.013c2.395,0.198 4.23,2.612 4.019,5.268c-0.068,0.83 -0.331,1.603 -0.732,2.269Z" style="fill:url(#_Linear14);"/><path d="M112.099,145.584c-0.071,0 -0.141,-0.003 -0.211,-0.009c-1.668,-0.142 -3.397,-1.971 -3.213,-4.223c0,-0.001 0,-0.003 0,-0.004c0.057,0.005 0.114,0.007 0.17,0.007c0.885,0 1.627,-0.572 1.693,-1.338c0.039,-0.494 -0.211,-0.956 -0.628,-1.261c0.694,-0.671 1.582,-1.061 2.411,-1.061c0.07,0 0.141,0.003 0.21,0.009c1.668,0.141 3.393,1.978 3.21,4.231c-0.062,0.753 -0.326,1.425 -0.713,1.98c-0.004,0 -0.008,0 -0.011,0c-0.44,0 -0.811,0.287 -0.843,0.667c-0.006,0.074 0.002,0.147 0.021,0.216c-0.637,0.501 -1.389,0.786 -2.096,0.786Z" style="fill:url(#_Linear15);"/><path d="M128.735,134.017c-0.524,0 -1.044,-0.202 -1.433,-0.594l0,-0.001c-0.012,-0.011 -1.011,-1.01 -2.843,-2.369c-0.473,-0.351 -1.001,-0.726 -1.583,-1.114c-1.403,-1.03 -3.2,-1.92 -5.075,-2.818c-0.588,-0.272 -1.192,-0.523 -1.806,-0.752c8.169,0.71 13.522,3.55 13.522,3.55c0.104,0.047 0.207,0.095 0.305,0.145c0.365,0.462 0.555,0.752 0.577,0.786l0.035,0.061c0.594,0.908 0.332,2.168 -0.602,2.778c-0.334,0.221 -0.716,0.328 -1.097,0.328Z" style="fill:url(#_Linear16);"/><path d="M108.845,141.355c-0.056,0 -0.113,-0.002 -0.17,-0.007c-0.374,-0.032 -0.711,-0.162 -0.981,-0.356c-0.422,-0.305 -0.677,-0.768 -0.638,-1.262c0.066,-0.77 0.804,-1.342 1.689,-1.342c0.025,0 0.05,0 0.076,0.001c0.031,0.001 0.063,0.003 0.094,0.006c0.381,0.03 0.724,0.162 0.995,0.361c0.417,0.305 0.667,0.767 0.628,1.261c-0.066,0.766 -0.808,1.338 -1.693,1.338Z" style="fill:url(#_Linear17);"/><path d="M115.072,145.395c-0.029,0 -0.058,-0.001 -0.087,-0.003c-0.04,-0.004 -0.08,-0.009 -0.119,-0.017c-0.337,-0.067 -0.596,-0.297 -0.671,-0.577c-0.019,-0.069 -0.027,-0.142 -0.021,-0.216c0.032,-0.38 0.403,-0.667 0.843,-0.667c0.003,0 0.007,0 0.011,0c0.025,0 0.051,0.001 0.076,0.003c0.282,0.022 0.523,0.156 0.668,0.345c0.103,0.134 0.157,0.295 0.143,0.465c-0.033,0.38 -0.403,0.667 -0.843,0.667Z" style="fill:url(#_Linear18);"/><path d="M180.991,164.136c-2.606,1.008 -5.422,1.326 -8.178,0.874c-5.918,-0.966 -16.367,-5.082 -21,-21.708c-0.254,-0.916 -0.513,-1.828 -0.804,-2.729c-0.772,-2.368 -2.218,-8.496 2.638,-10.654c0,0 13.216,-7.013 29.804,-1.753c0,0 11.328,2.967 10.518,15.104c0,0 0.567,15.627 -12.978,20.866Zm-33.468,-29.88l-0.814,-0.553c-0.964,-0.654 -2.09,-1 -3.254,-1l-1.873,0l-1.873,0c-1.164,0 -2.29,0.346 -3.254,1l-0.814,0.553c-0.997,-5.632 -7.73,-8.277 -13.224,-9.504l0,-0.564l38.33,0l0,0.564c-5.495,1.227 -12.227,3.872 -13.224,9.504Zm-15.368,6.317c-0.292,0.901 -0.551,1.813 -0.804,2.729c-4.634,16.626 -15.083,20.742 -21,21.708c-2.757,0.452 -5.572,0.134 -8.178,-0.874c-13.546,-5.239 -12.98,-20.866 -12.98,-20.866c-0.809,-12.137 10.52,-15.104 10.52,-15.104c16.587,-5.26 29.804,1.753 29.804,1.753c4.855,2.158 3.409,8.286 2.638,10.654Zm67.803,-1.661c-1.559,-0.551 -4.16,-2.051 -5.6,-6.107c-0.318,-0.912 -0.793,-1.759 -1.456,-2.46c-2.617,-2.741 -10.088,-8.615 -24.826,-6.629c0,0 -1.297,0.056 -3.239,0.314l0,-0.898l-4.09,0l-19.165,0l-19.165,0l-4.091,0l0,0.898c-1.942,-0.258 -3.239,-0.314 -3.239,-0.314c-14.738,-1.986 -22.209,3.888 -24.825,6.629c-0.664,0.701 -1.139,1.548 -1.457,2.46c-1.44,4.056 -4.04,5.556 -5.599,6.107c-0.772,0.274 -1.29,0.992 -1.29,1.806l0,2.962c0,0.771 0.47,1.468 1.181,1.764l0.173,0.076c1.57,0.712 2.73,2.093 3.285,3.722c1.203,3.522 2.687,6.921 3.162,7.984c0.102,0.226 0.221,0.442 0.366,0.641c11.701,16.189 26.488,8.195 26.488,8.195c17.667,-8.901 19.15,-29.4 19.15,-29.4c0.025,-0.252 0.037,-0.498 0.043,-0.74l1.504,-1.022c0.723,-0.491 1.567,-0.749 2.441,-0.749l3.746,0c0.873,0 1.717,0.258 2.44,0.749l1.505,1.022c0.006,0.242 0.017,0.488 0.043,0.74c0,0 1.483,20.499 19.15,29.4c0,0 14.786,7.994 26.487,-8.195c0.145,-0.199 0.264,-0.415 0.366,-0.641c0.475,-1.063 1.958,-4.462 3.162,-7.984c0.555,-1.629 1.715,-3.01 3.285,-3.722l0.172,-0.076c0.712,-0.296 1.182,-0.993 1.182,-1.764l0,-2.962c0,-0.814 -0.518,-1.532 -1.289,-1.806Z" style="fill:#79b6e3;fill-rule:nonzero;"/><path d="M175.288,165.211c-0.231,0 -0.462,-0.005 -0.693,-0.015c-0.594,-0.028 -1.188,-0.09 -1.78,-0.188c-5.266,-0.859 -14.112,-4.208 -19.265,-16.64c0.058,-0.026 0.116,-0.051 0.174,-0.076c0.103,-0.045 0.204,-0.089 0.307,-0.133c0.039,-0.017 0.078,-0.034 0.117,-0.051c0.029,-0.012 0.058,-0.024 0.087,-0.037c0.049,-0.021 0.099,-0.042 0.149,-0.063c0.029,-0.013 0.06,-0.026 0.09,-0.038c0.035,-0.015 0.069,-0.029 0.104,-0.044c0.036,-0.015 0.071,-0.03 0.107,-0.045c0.036,-0.015 0.072,-0.03 0.108,-0.045c0.506,-0.211 1.011,-0.415 1.515,-0.613c0.018,2.045 0.066,3.356 0.066,3.356c0,0 0.003,0.001 0.01,0.003c0.001,0.039 0.002,0.059 0.002,0.059c0,0 5.824,2.085 12.464,2.085c1.669,0 3.39,-0.131 5.082,-0.461c3.697,-0.721 6.716,-5 8.941,-9.577c3.785,0.165 7.436,0.664 10.933,1.417c0.052,0.011 0.104,0.023 0.156,0.034c-0.048,1.385 -0.286,4.267 -1.365,7.49c-0.001,0.003 -0.002,0.005 -0.003,0.008c-0.004,0.011 -0.007,0.022 -0.011,0.033c-1.544,4.577 -4.788,9.833 -11.594,12.464c-0.58,0.226 -1.17,0.416 -1.768,0.572c-1.286,0.334 -2.608,0.505 -3.933,0.505Z" style="fill:#8a7b71;fill-rule:nonzero;"/><path d="M168.85,152.726c-6.64,0 -12.464,-2.085 -12.464,-2.085c0,0 -0.001,-0.02 -0.002,-0.059c0.043,0.013 0.239,0.076 0.617,0.233c0.018,-1.239 0.053,-2.557 0.112,-3.901c1.925,-0.726 3.831,-1.35 5.717,-1.88c1.496,2.166 3.996,3.585 6.828,3.585c3.763,0 6.941,-2.507 7.955,-5.942c0.825,-0.033 1.642,-0.049 2.456,-0.049l0.065,0c0.92,0 1.834,0.02 2.739,0.06c-2.225,4.577 -5.244,8.856 -8.941,9.577c-1.692,0.33 -3.413,0.461 -5.082,0.461Z" style="fill:#8d8888;fill-rule:nonzero;"/><path d="M157.001,150.815c-0.378,-0.157 -0.574,-0.22 -0.617,-0.233c-0.007,-0.002 -0.01,-0.003 -0.01,-0.003c0,0 -0.048,-1.311 -0.066,-3.356c0.268,-0.104 0.538,-0.208 0.805,-0.309c-0.059,1.344 -0.094,2.662 -0.112,3.901Z" style="fill:#827269;fill-rule:nonzero;"/><path d="M169.658,148.619c-2.832,0 -5.332,-1.419 -6.828,-3.585c1.018,-0.286 2.031,-0.544 3.037,-0.776c0.126,0.269 0.433,0.452 0.785,0.452c0.028,0 0.057,-0.001 0.086,-0.003c0.041,-0.004 0.081,-0.009 0.12,-0.017c0.794,0.73 1.802,1.172 2.864,1.172c0.107,0 0.213,-0.005 0.321,-0.014c1.64,-0.135 3.019,-1.311 3.656,-2.892c1.318,-0.135 2.623,-0.227 3.914,-0.279c-1.014,3.435 -4.192,5.942 -7.955,5.942Z" style="fill:#4d3933;fill-rule:nonzero;"/><path d="M169.722,145.862c-1.062,0 -2.07,-0.442 -2.864,-1.172c0.336,-0.067 0.595,-0.298 0.671,-0.578c0.637,0.502 1.389,0.787 2.097,0.787c0.071,0 0.14,-0.003 0.21,-0.009c0.998,-0.085 2.017,-0.774 2.636,-1.796c0.41,-0.05 0.82,-0.096 1.227,-0.138c-0.637,1.581 -2.016,2.757 -3.656,2.892c-0.108,0.009 -0.214,0.014 -0.321,0.014Z" style="fill:#654439;fill-rule:nonzero;"/><path d="M169.626,144.899c-0.708,0 -1.46,-0.285 -2.097,-0.787c0.019,-0.069 0.026,-0.142 0.021,-0.215c-0.001,-0.001 -0.001,-0.002 -0.001,-0.003c1.66,-0.336 3.301,-0.601 4.923,-0.8c-0.619,1.022 -1.638,1.711 -2.636,1.796c-0.07,0.006 -0.139,0.009 -0.21,0.009Z" style="fill:#3b3532;fill-rule:nonzero;"/><path d="M166.652,144.71c-0.352,0 -0.659,-0.183 -0.785,-0.452c0.562,-0.129 1.124,-0.251 1.682,-0.364c0,0.001 0,0.002 0.001,0.003c0.005,0.073 -0.002,0.146 -0.021,0.215c-0.076,0.28 -0.335,0.511 -0.671,0.578c-0.039,0.008 -0.079,0.013 -0.12,0.017c-0.029,0.002 -0.058,0.003 -0.086,0.003Z" style="fill:#8d8888;fill-rule:nonzero;"/><path d="M153.55,148.368c0.058,-0.026 0.116,-0.051 0.174,-0.076c-0.058,0.025 -0.116,0.05 -0.174,0.076Zm0.481,-0.209c0.039,-0.017 0.078,-0.034 0.117,-0.051c-0.039,0.017 -0.078,0.034 -0.117,0.051Zm0.204,-0.088c0.049,-0.021 0.099,-0.042 0.149,-0.063c-0.05,0.021 -0.1,0.042 -0.149,0.063Zm0.239,-0.101c0.035,-0.015 0.069,-0.029 0.104,-0.044c-0.035,0.015 -0.069,0.029 -0.104,0.044Zm0.211,-0.089c0.036,-0.015 0.072,-0.03 0.108,-0.045c-0.036,0.015 -0.072,0.03 -0.108,0.045Zm39.121,-3.776c-3.497,-0.753 -7.148,-1.252 -10.933,-1.417c3.786,0.165 7.436,0.664 10.933,1.417Z" style="fill:url(#_Linear19);"/><path d="M182.873,142.688c-0.905,-0.04 -1.819,-0.06 -2.739,-0.06c0.92,0 1.834,0.02 2.739,0.06Zm-2.804,-0.06c0.016,0 0.032,0 0.048,0c-0.016,0 -0.032,0 -0.048,0Z" style="fill:url(#_Linear20);"/><path d="M175.297,165.212c-0.234,0 -0.468,-0.006 -0.702,-0.016c0.231,0.01 0.462,0.015 0.693,0.015c1.325,0 2.647,-0.171 3.933,-0.505c-1.284,0.334 -2.602,0.506 -3.924,0.506Zm17.286,-13.542c0.004,-0.011 0.007,-0.022 0.011,-0.033c-0.004,0.011 -0.007,0.022 -0.011,0.033Zm0.014,-0.041c1.079,-3.223 1.317,-6.105 1.365,-7.49c0.001,0 0.002,0.001 0.003,0.001c-0.048,1.382 -0.287,4.265 -1.368,7.489Z" style="fill:#647483;fill-rule:nonzero;"/><path d="M107.876,165.211c-1.59,0 -3.173,-0.246 -4.698,-0.724c-0.339,-0.106 -0.675,-0.223 -1.007,-0.353c-1.884,-0.728 -3.495,-1.658 -4.873,-2.718c0,0 -0.001,-0.001 -0.002,-0.002c-0.021,-0.016 -0.042,-0.033 -0.063,-0.049c-0.005,-0.004 -0.01,-0.008 -0.015,-0.011c-0.017,-0.014 -0.035,-0.027 -0.051,-0.04c-0.007,-0.006 -0.013,-0.011 -0.02,-0.016c-0.017,-0.013 -0.034,-0.026 -0.05,-0.04c-0.012,-0.009 -0.024,-0.018 -0.036,-0.028c-0.013,-0.01 -0.026,-0.021 -0.04,-0.032c-0.012,-0.01 -0.024,-0.019 -0.036,-0.029c-0.009,-0.007 -0.017,-0.013 -0.025,-0.02c-0.013,-0.011 -0.027,-0.022 -0.04,-0.032c-0.007,-0.006 -0.013,-0.011 -0.02,-0.016c-4.52,-3.685 -6.396,-8.799 -7.171,-12.605c0.226,-0.067 0.453,-0.133 0.681,-0.198c3.185,-0.906 6.516,-1.615 9.977,-2.059c2.012,3.38 4.499,6.144 7.404,6.711c1.693,0.33 3.414,0.461 5.083,0.461c6.641,0 12.464,-2.085 12.464,-2.085c0,0 0.001,-0.02 0.002,-0.059c0.006,-0.002 0.009,-0.003 0.009,-0.003c0,0 0.047,-1.267 0.065,-3.253c1.274,0.349 2.559,0.741 3.851,1.179c-0.668,1.511 -1.392,2.881 -2.157,4.123l0,0.001c-0.025,0.041 -0.051,0.083 -0.077,0.124c-5.181,8.325 -12.217,10.844 -16.682,11.57c-0.582,0.097 -1.168,0.158 -1.754,0.186c-0.24,0.012 -0.48,0.017 -0.719,0.017Z" style="fill:#85756a;fill-rule:nonzero;"/><path d="M112.874,153.411c-1.669,0 -3.39,-0.131 -5.083,-0.461c-2.905,-0.567 -5.392,-3.331 -7.404,-6.711c1.608,-0.206 3.245,-0.356 4.907,-0.441c1.502,2.121 3.976,3.506 6.772,3.506c2.486,0 4.715,-1.093 6.235,-2.824c2.077,0.326 4.184,0.762 6.319,1.318c0.053,1.275 0.086,2.524 0.103,3.702c0.378,-0.157 0.574,-0.22 0.617,-0.233c-0.001,0.039 -0.002,0.059 -0.002,0.059c0,0 -5.823,2.085 -12.464,2.085Z" style="fill:#8d8888;fill-rule:nonzero;"/><path d="M124.723,151.5c-0.017,-1.178 -0.05,-2.427 -0.103,-3.702c0.264,0.069 0.529,0.14 0.794,0.213c-0.018,1.986 -0.065,3.253 -0.065,3.253c0,0 -0.003,0.001 -0.009,0.003c-0.043,0.013 -0.239,0.076 -0.617,0.233Z" style="fill:#827269;fill-rule:nonzero;"/><path d="M112.066,149.304c-2.796,0 -5.27,-1.385 -6.772,-3.506c1.06,-0.054 2.13,-0.082 3.211,-0.082l0.045,0c0.348,0 0.699,0.003 1.049,0.009c0.604,0.454 1.314,0.745 2.082,0.809c0.107,0.009 0.213,0.013 0.32,0.013c0.736,0 1.446,-0.212 2.078,-0.585c1.392,0.123 2.8,0.295 4.222,0.518c-1.52,1.731 -3.749,2.824 -6.235,2.824Z" style="fill:#4d3933;fill-rule:nonzero;"/><path d="M112.001,146.547c-0.107,0 -0.213,-0.004 -0.32,-0.013c-0.768,-0.064 -1.478,-0.355 -2.082,-0.809c1.475,0.025 2.969,0.103 4.48,0.237c-0.632,0.373 -1.342,0.585 -2.078,0.585Z" style="fill:#654439;fill-rule:nonzero;"/><path d="M129.265,149.19c-1.292,-0.438 -2.577,-0.83 -3.851,-1.179c1.274,0.349 2.559,0.741 3.851,1.179l-0.001,0l0.001,0Z" style="fill:url(#_Linear21);"/><path d="M124.62,147.798c-2.135,-0.556 -4.242,-0.992 -6.319,-1.318c2.077,0.326 4.184,0.761 6.319,1.318Z" style="fill:url(#_Linear22);"/><path d="M125.414,148.011c-0.265,-0.073 -0.53,-0.144 -0.794,-0.213c0.264,0.069 0.529,0.14 0.794,0.213Z" style="fill:url(#_Linear23);"/><path d="M118.301,146.48c-1.422,-0.223 -2.83,-0.395 -4.222,-0.518c1.393,0.123 2.8,0.294 4.222,0.518Zm-8.702,-0.755c-0.35,-0.006 -0.701,-0.009 -1.049,-0.009c0.348,0 0.699,0.003 1.049,0.009Z" style="fill:url(#_Linear24);"/><path d="M114.079,145.962c-1.511,-0.134 -3.005,-0.212 -4.48,-0.237c1.475,0.025 2.969,0.103 4.48,0.237Z" style="fill:url(#_Linear25);"/><path d="M107.867,165.212c-1.586,0 -3.165,-0.247 -4.689,-0.725c1.525,0.478 3.108,0.724 4.698,0.724c0.239,0 0.479,-0.005 0.719,-0.017c-0.243,0.012 -0.486,0.018 -0.728,0.018Zm-10.569,-3.796c-0.001,-0.001 -0.001,-0.001 -0.002,-0.002c0.001,0.001 0.002,0.002 0.002,0.002Zm-0.065,-0.051c-0.005,-0.004 -0.01,-0.008 -0.015,-0.011c0.005,0.003 0.01,0.007 0.015,0.011Zm-0.066,-0.051c-0.007,-0.006 -0.013,-0.01 -0.02,-0.016c0.007,0.005 0.013,0.01 0.02,0.016Zm-0.07,-0.056c-0.012,-0.009 -0.024,-0.018 -0.036,-0.028c0.012,0.01 0.024,0.019 0.036,0.028Zm-0.076,-0.06c-0.012,-0.009 -0.024,-0.019 -0.036,-0.029c0.012,0.01 0.024,0.019 0.036,0.029Zm-0.061,-0.049c-0.013,-0.011 -0.027,-0.022 -0.04,-0.032c0.013,0.01 0.027,0.021 0.04,0.032Zm-0.06,-0.048c-4.52,-3.684 -6.396,-8.797 -7.173,-12.605c0.001,0 0.002,0 0.002,0c0.775,3.806 2.651,8.92 7.171,12.605Zm30.131,-7.663c0.026,-0.041 0.052,-0.083 0.077,-0.124c-0.025,0.041 -0.051,0.083 -0.077,0.124Zm0.077,-0.125c0.765,-1.242 1.489,-2.612 2.156,-4.123l0.001,0c-0.668,1.511 -1.392,2.881 -2.157,4.123Z" style="fill:#647483;fill-rule:nonzero;"/></g><defs><linearGradient id="_Linear1" x1="0" y1="0" x2="1" y2="0" gradientUnits="userSpaceOnUse" gradientTransform="matrix(-0.482476,-56.9376,56.9376,-0.482476,172.377,171.438)"><stop offset="0" style="stop-color:#f9e8d6;stop-opacity:1"/><stop offset="1" style="stop-color:#5d534b;stop-opacity:1"/></linearGradient><linearGradient id="_Linear2" x1="0" y1="0" x2="1" y2="0" gradientUnits="userSpaceOnUse" gradientTransform="matrix(-0.482476,-56.9376,56.9376,-0.482476,172.377,171.438)"><stop offset="0" style="stop-color:#fff;stop-opacity:1"/><stop offset="1" style="stop-color:#5f5d5d;stop-opacity:1"/></linearGradient><linearGradient id="_Linear3" x1="0" y1="0" x2="1" y2="0" gradientUnits="userSpaceOnUse" gradientTransform="matrix(-0.482476,-56.9376,56.9376,-0.482476,172.377,171.438)"><stop offset="0" style="stop-color:#ead9ca;stop-opacity:1"/><stop offset="1" style="stop-color:#584e46;stop-opacity:1"/></linearGradient><linearGradient id="_Linear4" x1="0" y1="0" x2="1" y2="0" gradientUnits="userSpaceOnUse" gradientTransform="matrix(-0.482476,-56.9376,56.9376,-0.482476,172.377,171.438)"><stop offset="0" style="stop-color:#997f73;stop-opacity:1"/><stop offset="1" style="stop-color:#26160f;stop-opacity:1"/></linearGradient><linearGradient id="_Linear5" x1="0" y1="0" x2="1" y2="0" gradientUnits="userSpaceOnUse" gradientTransform="matrix(-0.482476,-56.9376,56.9376,-0.482476,172.377,171.438)"><stop offset="0" style="stop-color:#b8907c;stop-opacity:1"/><stop offset="1" style="stop-color:#3e261c;stop-opacity:1"/></linearGradient><linearGradient id="_Linear6" x1="0" y1="0" x2="1" y2="0" gradientUnits="userSpaceOnUse" gradientTransform="matrix(-0.482476,-56.9376,56.9376,-0.482476,172.377,171.438)"><stop offset="0" style="stop-color:#817873;stop-opacity:1"/><stop offset="1" style="stop-color:#120e0a;stop-opacity:1"/></linearGradient><linearGradient id="_Linear7" x1="0" y1="0" x2="1" y2="0" gradientUnits="userSpaceOnUse" gradientTransform="matrix(-0.482476,-56.9376,56.9376,-0.482476,172.377,171.438)"><stop offset="0" style="stop-color:#726f6f;stop-opacity:1"/><stop offset="1" style="stop-color:#040505;stop-opacity:1"/></linearGradient><linearGradient id="_Linear8" x1="0" y1="0" x2="1" y2="0" gradientUnits="userSpaceOnUse" gradientTransform="matrix(-0.482476,-56.9376,56.9376,-0.482476,172.377,171.438)"><stop offset="0" style="stop-color:#fff;stop-opacity:1"/><stop offset="1" style="stop-color:#5f5d5d;stop-opacity:1"/></linearGradient><linearGradient id="_Linear9" x1="0" y1="0" x2="1" y2="0" gradientUnits="userSpaceOnUse" gradientTransform="matrix(-0.482476,-56.9376,56.9376,-0.482476,172.377,171.438)"><stop offset="0" style="stop-color:#fff;stop-opacity:1"/><stop offset="1" style="stop-color:#5f5d5d;stop-opacity:1"/></linearGradient><linearGradient id="_Linear10" x1="0" y1="0" x2="1" y2="0" gradientUnits="userSpaceOnUse" gradientTransform="matrix(-0.482477,-56.9376,56.9376,-0.482477,111.341,171.955)"><stop offset="0" style="stop-color:#efdecc;stop-opacity:1"/><stop offset="1" style="stop-color:#5a4f47;stop-opacity:1"/></linearGradient><linearGradient id="_Linear11" x1="0" y1="0" x2="1" y2="0" gradientUnits="userSpaceOnUse" gradientTransform="matrix(-0.482477,-56.9376,56.9376,-0.482477,111.341,171.955)"><stop offset="0" style="stop-color:#fff;stop-opacity:1"/><stop offset="1" style="stop-color:#5f5d5d;stop-opacity:1"/></linearGradient><linearGradient id="_Linear12" x1="0" y1="0" x2="1" y2="0" gradientUnits="userSpaceOnUse" gradientTransform="matrix(-0.482477,-56.9376,56.9376,-0.482477,111.341,171.955)"><stop offset="0" style="stop-color:#ead9ca;stop-opacity:1"/><stop offset="1" style="stop-color:#584e46;stop-opacity:1"/></linearGradient><linearGradient id="_Linear13" x1="0" y1="0" x2="1" y2="0" gradientUnits="userSpaceOnUse" gradientTransform="matrix(-0.482477,-56.9376,56.9376,-0.482477,111.341,171.955)"><stop offset="0" style="stop-color:#997f73;stop-opacity:1"/><stop offset="1" style="stop-color:#26160f;stop-opacity:1"/></linearGradient><linearGradient id="_Linear14" x1="0" y1="0" x2="1" y2="0" gradientUnits="userSpaceOnUse" gradientTransform="matrix(-0.482477,-56.9376,56.9376,-0.482477,111.341,171.955)"><stop offset="0" style="stop-color:#b8907c;stop-opacity:1"/><stop offset="1" style="stop-color:#3e261c;stop-opacity:1"/></linearGradient><linearGradient id="_Linear15" x1="0" y1="0" x2="1" y2="0" gradientUnits="userSpaceOnUse" gradientTransform="matrix(-0.482477,-56.9376,56.9376,-0.482477,111.341,171.955)"><stop offset="0" style="stop-color:#817873;stop-opacity:1"/><stop offset="1" style="stop-color:#120e0a;stop-opacity:1"/></linearGradient><linearGradient id="_Linear16" x1="0" y1="0" x2="1" y2="0" gradientUnits="userSpaceOnUse" gradientTransform="matrix(-0.482477,-56.9376,56.9376,-0.482477,111.341,171.955)"><stop offset="0" style="stop-color:#726f6f;stop-opacity:1"/><stop offset="1" style="stop-color:#040505;stop-opacity:1"/></linearGradient><linearGradient id="_Linear17" x1="0" y1="0" x2="1" y2="0" gradientUnits="userSpaceOnUse" gradientTransform="matrix(-0.482477,-56.9376,56.9376,-0.482477,111.341,171.955)"><stop offset="0" style="stop-color:#fff;stop-opacity:1"/><stop offset="1" style="stop-color:#5f5d5d;stop-opacity:1"/></linearGradient><linearGradient id="_Linear18" x1="0" y1="0" x2="1" y2="0" gradientUnits="userSpaceOnUse" gradientTransform="matrix(-0.482477,-56.9376,56.9376,-0.482477,111.341,171.955)"><stop offset="0" style="stop-color:#fff;stop-opacity:1"/><stop offset="1" style="stop-color:#5f5d5d;stop-opacity:1"/></linearGradient><linearGradient id="_Linear19" x1="0" y1="0" x2="1" y2="0" gradientUnits="userSpaceOnUse" gradientTransform="matrix(-0.482476,-56.9376,56.9376,-0.482476,172.377,171.438)"><stop offset="0" style="stop-color:#8c827d;stop-opacity:1"/><stop offset="1" style="stop-color:#554e4b;stop-opacity:1"/></linearGradient><linearGradient id="_Linear20" x1="0" y1="0" x2="1" y2="0" gradientUnits="userSpaceOnUse" gradientTransform="matrix(-0.482476,-56.9376,56.9376,-0.482476,172.377,171.438)"><stop offset="0" style="stop-color:#8d8889;stop-opacity:1"/><stop offset="1" style="stop-color:#565353;stop-opacity:1"/></linearGradient><linearGradient id="_Linear21" x1="0" y1="0" x2="1" y2="0" gradientUnits="userSpaceOnUse" gradientTransform="matrix(-0.482477,-56.9376,56.9376,-0.482477,111.341,171.955)"><stop offset="0" style="stop-color:#8a7f7a;stop-opacity:1"/><stop offset="1" style="stop-color:#544d49;stop-opacity:1"/></linearGradient><linearGradient id="_Linear22" x1="0" y1="0" x2="1" y2="0" gradientUnits="userSpaceOnUse" gradientTransform="matrix(-0.482477,-56.9376,56.9376,-0.482477,111.341,171.955)"><stop offset="0" style="stop-color:#8d8889;stop-opacity:1"/><stop offset="1" style="stop-color:#565353;stop-opacity:1"/></linearGradient><linearGradient id="_Linear23" x1="0" y1="0" x2="1" y2="0" gradientUnits="userSpaceOnUse" gradientTransform="matrix(-0.482477,-56.9376,56.9376,-0.482477,111.341,171.955)"><stop offset="0" style="stop-color:#897d79;stop-opacity:1"/><stop offset="1" style="stop-color:#534c49;stop-opacity:1"/></linearGradient><linearGradient id="_Linear24" x1="0" y1="0" x2="1" y2="0" gradientUnits="userSpaceOnUse" gradientTransform="matrix(-0.482477,-56.9376,56.9376,-0.482477,111.341,171.955)"><stop offset="0" style="stop-color:#6e605c;stop-opacity:1"/><stop offset="1" style="stop-color:#3d3432;stop-opacity:1"/></linearGradient><linearGradient id="_Linear25" x1="0" y1="0" x2="1" y2="0" gradientUnits="userSpaceOnUse" gradientTransform="matrix(-0.482477,-56.9376,56.9376,-0.482477,111.341,171.955)"><stop offset="0" style="stop-color:#7b6760;stop-opacity:1"/><stop offset="1" style="stop-color:#473936;stop-opacity:1"/></linearGradient></defs></svg>