<?xml version="1.0" encoding="UTF-8" standalone="no"?><!DOCTYPE svg PUBLIC "-//W3C//DTD SVG 1.1//EN" "http://www.w3.org/Graphics/SVG/1.1/DTD/svg11.dtd"><svg width="100%" height="100%" viewBox="0 0 298 300" version="1.1" xmlns="http://www.w3.org/2000/svg" xmlns:xlink="http://www.w3.org/1999/xlink" xml:space="preserve" style="fill-rule:evenodd;clip-rule:evenodd;stroke-linejoin:round;stroke-miterlimit:1.41421;"><g id="_37"><g><rect x="0.17" y="0.07" width="296.87" height="299.705" style="fill:#827177;fill-rule:nonzero;"/><path d="M114.82,242.448c0,0 -4.92,-1.914 -10.53,-7.712c-5.8,-5.614 -7.72,-10.53 -7.72,-10.53c0,0 3.2,-1.546 7.36,-3.376l14.26,14.258c-1.83,4.161 -3.37,7.36 -3.37,7.36Z" style="fill:#36393a;fill-rule:nonzero;"/><path d="M118.19,235.088l-14.26,-14.258c2.89,-1.27 6.24,-2.675 9.31,-3.799l8.75,8.753c-1.12,3.069 -2.53,6.416 -3.8,9.304Z" style="fill:#cf1e4a;fill-rule:nonzero;"/><path d="M189.06,242.448c0,0 4.91,-1.914 10.53,-7.712c5.8,-5.614 7.71,-10.53 7.71,-10.53c0,0 -3.2,-1.546 -7.36,-3.376l-14.26,14.258c1.83,4.161 3.38,7.36 3.38,7.36Z" style="fill:#36393a;fill-rule:nonzero;"/><path d="M185.68,235.088l14.26,-14.258c-2.89,-1.27 -6.24,-2.675 -9.3,-3.799l-8.76,8.753c1.13,3.069 2.53,6.416 3.8,9.304Z" style="fill:#cf1e4a;fill-rule:nonzero;"/><path d="M109.28,209.173c0,10.701 8.64,19.377 19.29,19.377l45.99,0c10.65,0 19.29,-8.676 19.29,-19.377c0,-8.598 -5.58,-15.883 -13.29,-18.417c-2.18,-5.433 -6.98,-9.209 -12.55,-9.209l-32.89,0c-5.57,0 -10.37,3.775 -12.55,9.209c-7.71,2.534 -13.29,9.819 -13.29,18.417Z" style="fill:#36393a;fill-rule:nonzero;"/><path d="M153.81,187.515l0,112.253l-60.74,0c-0.98,-0.391 -1.48,-0.597 -1.48,-0.597c0,-7.16 0.54,-13.558 1.46,-19.216c0.44,-2.613 0.95,-5.082 1.55,-7.386c0.65,-2.737 1.44,-5.267 2.3,-7.613c0.19,-0.473 0.35,-0.946 0.54,-1.399c0.2,-0.514 0.41,-1.008 0.61,-1.502c0.21,-0.494 0.41,-0.967 0.64,-1.44c0.41,-0.967 0.87,-1.872 1.32,-2.757c0.78,-1.522 1.6,-2.963 2.47,-4.3c0.22,-0.37 0.45,-0.72 0.68,-1.049c1.11,-1.646 2.26,-3.169 3.43,-4.547c0.33,-0.37 0.66,-0.761 0.99,-1.111c0.33,-0.37 0.66,-0.72 0.99,-1.07c0.33,-0.329 0.68,-0.679 1,-0.988c0.33,-0.329 0.66,-0.637 0.99,-0.925c0.66,-0.618 1.34,-1.194 2,-1.708c3.23,-2.593 6.34,-4.341 8.97,-5.493c0.33,-0.144 0.66,-0.288 0.99,-0.433c1.02,-0.411 1.95,-0.74 2.77,-0.987c2.14,-0.679 3.46,-0.823 3.46,-0.823c0.25,0 0.45,-0.021 0.68,-0.062c1.91,-0.308 3.46,-1.975 4.71,-4.608c0.93,-1.976 1.69,-4.486 2.33,-7.387c0.24,-1.152 0.45,-2.283 0.63,-3.518c0.31,-2.078 0.6,-4.259 0.85,-6.522c0.1,-1.378 0.24,-2.716 0.39,-4.156c0.55,-6.872 0.7,-14.381 0.7,-21.5c0,0 8.14,0.844 14.77,0.844Z" style="fill:#e0bd9a;fill-rule:nonzero;"/><path d="M216.27,299.171c0,0 -0.53,0.206 -1.44,0.597l-61.02,0l0,-112.253l0.14,0c6.59,0 14.84,-0.844 14.84,-0.844c0,7.057 0.14,14.484 0.68,21.356c0.16,1.337 0.3,2.716 0.41,4.053c0.25,2.366 0.53,4.588 0.88,6.666l0,0.042c0.11,0.946 0.29,1.789 0.46,2.674c0.59,2.922 1.31,5.494 2.2,7.551c1.09,2.572 2.4,4.362 4.03,5.061c0.49,0.226 1.05,0.35 1.62,0.35c0,0 2.33,0.267 5.83,1.646c1.85,0.72 4.03,1.749 6.35,3.21c0.48,0.287 0.97,0.617 1.44,0.946c0.4,0.247 0.79,0.535 1.18,0.823c0.33,0.247 0.7,0.514 1.03,0.782c0.72,0.555 1.46,1.173 2.2,1.851c0.29,0.247 0.55,0.515 0.84,0.782c0.33,0.288 0.64,0.597 0.97,0.947c0.22,0.205 0.43,0.411 0.64,0.637c0.43,0.453 0.88,0.947 1.31,1.461c0.23,0.247 0.46,0.494 0.66,0.761c0.99,1.153 1.96,2.408 2.88,3.786c0.41,0.576 0.78,1.173 1.17,1.79c0.79,1.255 1.55,2.592 2.29,4.012c0.9,1.769 1.77,3.662 2.57,5.699c0.19,0.453 0.37,0.926 0.53,1.399c0.87,2.346 1.65,4.876 2.33,7.613c0.6,2.304 1.11,4.773 1.52,7.386c0.93,5.658 1.46,12.056 1.46,19.216Z" style="fill:#efd0ad;fill-rule:nonzero;"/><path d="M170.76,218.54l0,0.05c-1.53,2.357 -6.67,9.134 -16.85,9.134l-0.1,0c-9.63,-0.049 -15.27,-7.023 -16.7,-9.085c0.3,-2.063 0.59,-4.224 0.84,-6.483c0.1,-1.327 0.25,-2.702 0.4,-4.126c4.69,1.179 9.83,1.916 15.27,2.014l0.19,0c5.64,-0.098 10.82,-0.884 15.67,-2.161c0.15,1.326 0.29,2.701 0.39,4.027c0.25,2.357 0.55,4.568 0.89,6.63Z" style="fill:#be987f;fill-rule:nonzero;"/><path d="M153.12,59.561c-64.33,0 -64.68,53.779 -61.81,88.993c-4.4,-8.349 -17.5,-5.796 -16.41,7.367c1.04,12.671 19.75,19.129 19.22,17.73c9.74,26.043 35.53,45.675 59,45.675l0.5,0l0,-159.765l-0.5,0Z" style="fill:#d2a686;fill-rule:nonzero;"/><path d="M79,150.371c3.16,-5.108 8.1,-2.897 9.29,-1.768c1.29,1.228 2.32,2.8 1.53,5.796c-0.44,1.719 -2.22,1.866 -1.83,4.42c0.5,2.897 1.83,3.045 2.62,3.732c0.74,0.639 1.68,1.13 2.13,2.358c0.49,1.228 0.54,2.505 0.29,3.634c-0.49,2.063 -3.5,0.393 -5.53,-0.491c-1.33,-0.638 -5.58,-4.224 -6.67,-5.402c-2.67,-3.045 -3.95,-8.939 -1.83,-12.279Z" style="fill:#ac8774;fill-rule:nonzero;"/><path d="M153.47,59.561c64.33,0 64.68,53.779 61.86,88.993c4.4,-8.349 17.45,-5.796 16.36,7.367c-0.99,12.671 -19.74,19.134 -19.22,17.73c-9.49,26.043 -35.53,45.675 -59,45.675c-0.15,0 -0.35,0 -0.35,0l-0.15,-159.765c0,0 0.35,0 0.5,0Z" style="fill:#ddb598;fill-rule:nonzero;"/><path d="M227.59,150.371c-3.17,-5.108 -8.06,-2.897 -9.29,-1.768c-1.29,1.228 -2.28,2.8 -1.53,5.796c0.44,1.719 2.22,1.866 1.82,4.42c-0.49,2.897 -1.82,3.045 -2.57,3.732c-0.74,0.639 -1.73,1.13 -2.17,2.358c-0.44,1.228 -0.54,2.505 -0.3,3.634c0.5,2.063 3.51,0.393 5.54,-0.491c1.38,-0.638 5.58,-4.224 6.67,-5.402c2.72,-3.045 3.95,-8.939 1.83,-12.279Z" style="fill:#ac8774;fill-rule:nonzero;"/><path d="M152.61,74.737c-21.14,0 -36.66,6.139 -46,18.221c-13.09,16.944 -12.6,42.777 -7.81,61.342c1.49,5.698 2.28,20.971 3.27,26.571c4.59,25.096 32.31,38.455 50.54,38.455c0,0 0.35,0 0.5,0l0,-144.589c-0.15,0 -0.3,0 -0.3,0l-0.2,0Z" style="fill:#e0bd9a;fill-rule:nonzero;"/><path d="M198.57,93.007c-9.29,-12.033 -24.61,-18.172 -45.46,-18.27l0,144.589c20.85,-0.245 45.81,-14.881 50.05,-38.455c1.04,-5.6 1.78,-20.873 3.27,-26.571c4.84,-18.515 5.33,-44.3 -7.86,-61.293Z" style="fill:#efd0ad;fill-rule:nonzero;"/><path d="M153.3,196.382" style="fill:#bc917b;fill-rule:nonzero;"/><path d="M153.3,196.382" style="fill:#bc917b;fill-rule:nonzero;"/><path d="M149.73,193.695c-0.1,-0.022 -0.2,-0.041 -0.3,-0.065c0.1,0.023 0.19,0.041 0.3,0.065Z" style="fill:#bc917b;fill-rule:nonzero;"/><path d="M153.3,193.503" style="fill:#bc917b;fill-rule:nonzero;"/><path d="M148.95,193.52c-0.09,-0.024 -0.18,-0.051 -0.27,-0.076l-0.01,0.004c0,0 0.1,0.029 0.28,0.072Z" style="fill:#bc917b;fill-rule:nonzero;"/><path d="M153.3,193.503" style="fill:#bc917b;fill-rule:nonzero;"/><path d="M135.15,75.098l-0.27,0.267l0.04,0.089c0.09,-0.133 0.14,-0.267 0.23,-0.356Z" style="fill:#432e1b;fill-rule:nonzero;"/><path d="M94.18,126.046" style="fill:#432e1b;fill-rule:nonzero;"/><path d="M153.57,193.522" style="fill:#ba907b;fill-rule:nonzero;"/><path d="M153.57,193.522" style="fill:#ba907b;fill-rule:nonzero;"/><path d="M149.91,190.762c-0.1,-0.022 -0.21,-0.043 -0.31,-0.066c0.1,0.022 0.19,0.041 0.31,0.066Z" style="fill:#ba907b;fill-rule:nonzero;"/><path d="M153.57,190.565" style="fill:#ba907b;fill-rule:nonzero;"/><path d="M149.1,190.582c-0.09,-0.025 -0.18,-0.052 -0.27,-0.078l-0.01,0.005c0,0 0.1,0.029 0.28,0.073Z" style="fill:#ba907b;fill-rule:nonzero;"/><path d="M153.57,190.565" style="fill:#ba907b;fill-rule:nonzero;"/><path d="M140.54,174.797c-0.25,-5.131 9.42,-1.875 12.61,-1.714c2.52,0.129 10.19,-1.617 10.85,-1.168c4.52,3.043 -4.78,9.171 -11.01,9.171c-1.66,0 -12.3,-3.193 -12.45,-6.289Z" style="fill:#dcb497;fill-rule:nonzero;"/><path d="M106.96,131.17c0,0 4.9,20.136 13.33,21.78c8.43,1.642 17.55,-1.624 17.55,-1.624c0,0 0.87,-23.663 -3.45,-26.755c-4.31,-3.106 -14.24,-7.593 -27.43,6.599Z" style="fill:#fff;fill-rule:nonzero;"/><path d="M137.85,151.264c0,0 -0.19,0.056 -0.63,0.236c-0.11,-7.257 -0.78,-17.227 -3.47,-19.137c-4.01,-2.933 -13.05,-7.061 -25.14,4.23c-1.1,-3.12 -1.65,-5.485 -1.65,-5.485c13.21,-14.22 23.16,-9.74 27.44,-6.632c4.32,3.104 3.45,26.788 3.45,26.788Z" style="fill:#d6b496;fill-rule:nonzero;"/><path d="M132.86,141.01c0,4.581 -3.71,8.294 -8.29,8.294c-4.58,0 -8.3,-3.713 -8.3,-8.294c0,-4.58 3.72,-8.293 8.3,-8.293c4.58,0 8.29,3.713 8.29,8.293Z" style="fill:#482315;fill-rule:nonzero;"/><path d="M124.18,146.534c-2.39,-0.198 -4.23,-2.615 -4.02,-5.272c0.22,-2.657 2.43,-4.736 4.82,-4.536c2.4,0.198 4.24,2.612 4.02,5.268c-0.22,2.658 -2.43,4.74 -4.82,4.54Z" style="fill:#7e3a22;fill-rule:nonzero;"/><path d="M124.39,145.575c-1.67,-0.142 -3.4,-1.971 -3.22,-4.223c0.19,-2.26 2.19,-3.785 3.86,-3.648c1.67,0.141 3.39,1.978 3.21,4.231c-0.18,2.256 -2.19,3.777 -3.85,3.64Z" style="fill:#211a10;fill-rule:nonzero;"/><path d="M123.04,140.017c-0.07,0.815 -0.91,1.41 -1.87,1.331c-0.96,-0.082 -1.68,-0.809 -1.61,-1.618c0.07,-0.818 0.9,-1.414 1.86,-1.335c0.96,0.077 1.68,0.805 1.62,1.622Z" style="fill:#fff;fill-rule:nonzero;"/><path d="M128.41,144.728c-0.03,0.405 -0.45,0.704 -0.93,0.664c-0.48,-0.038 -0.84,-0.405 -0.81,-0.81c0.04,-0.405 0.46,-0.705 0.93,-0.664c0.48,0.037 0.85,0.402 0.81,0.81Z" style="fill:#fff;fill-rule:nonzero;"/><path d="M153.71,195.897" style="fill:#ba907b;fill-rule:nonzero;"/><path d="M153.71,195.897" style="fill:#ba907b;fill-rule:nonzero;"/><path d="M150.04,193.137c-0.1,-0.022 -0.21,-0.043 -0.31,-0.067c0.1,0.023 0.19,0.042 0.31,0.067Z" style="fill:#ba907b;fill-rule:nonzero;"/><path d="M153.71,192.94" style="fill:#ba907b;fill-rule:nonzero;"/><path d="M149.24,192.957c-0.1,-0.025 -0.19,-0.052 -0.28,-0.078l-0.01,0.004c0,0 0.11,0.03 0.29,0.074Z" style="fill:#ba907b;fill-rule:nonzero;"/><path d="M153.71,192.94" style="fill:#ba907b;fill-rule:nonzero;"/><path d="M153.59,195.526" style="fill:#bc917b;fill-rule:nonzero;"/><path d="M153.59,195.526" style="fill:#bc917b;fill-rule:nonzero;"/><path d="M149.67,192.568c-0.12,-0.024 -0.23,-0.045 -0.34,-0.071c0.11,0.024 0.21,0.045 0.34,0.071Z" style="fill:#bc917b;fill-rule:nonzero;"/><path d="M153.59,192.357" style="fill:#bc917b;fill-rule:nonzero;"/><path d="M148.8,192.375c-0.1,-0.026 -0.19,-0.056 -0.3,-0.083l-0.01,0.005c0,0 0.12,0.031 0.31,0.078Z" style="fill:#bc917b;fill-rule:nonzero;"/><path d="M153.59,192.357" style="fill:#bc917b;fill-rule:nonzero;"/><path d="M153.35,194.684" style="fill:#bc917b;fill-rule:nonzero;"/><path d="M153.34,194.684l0.01,0l-0.01,0Z" style="fill:#bc917b;fill-rule:nonzero;"/><path d="M149.42,191.726c-0.11,-0.024 -0.23,-0.045 -0.34,-0.071c0.11,0.024 0.21,0.044 0.34,0.071Z" style="fill:#bc917b;fill-rule:nonzero;"/><path d="M153.35,191.515" style="fill:#bc917b;fill-rule:nonzero;"/><path d="M148.55,191.533c-0.1,-0.026 -0.19,-0.055 -0.29,-0.083l-0.01,0.004c0,0 0.11,0.032 0.3,0.079Z" style="fill:#bc917b;fill-rule:nonzero;"/><path d="M153.34,191.515l0.01,0l-0.01,0Z" style="fill:#bc917b;fill-rule:nonzero;"/><path d="M153.98,194.47" style="fill:#bc917b;fill-rule:nonzero;"/><path d="M153.98,194.47" style="fill:#bc917b;fill-rule:nonzero;"/><path d="M150.19,191.611c-0.11,-0.023 -0.22,-0.044 -0.33,-0.069c0.11,0.024 0.2,0.043 0.33,0.069Z" style="fill:#bc917b;fill-rule:nonzero;"/><path d="M153.98,191.407" style="fill:#bc917b;fill-rule:nonzero;"/><path d="M149.35,191.424c-0.1,-0.025 -0.19,-0.053 -0.28,-0.08l-0.02,0.005c0,0 0.12,0.03 0.3,0.075Z" style="fill:#bc917b;fill-rule:nonzero;"/><path d="M153.98,191.407" style="fill:#bc917b;fill-rule:nonzero;"/><path d="M199.77,130.485c0,0 -4.91,20.136 -13.34,21.78c-8.42,1.642 -17.54,-1.624 -17.54,-1.624c0,0 -0.88,-23.663 3.44,-26.756c4.31,-3.105 14.25,-7.592 27.44,6.6Z" style="fill:#fff;fill-rule:nonzero;"/><path d="M168.87,150.579c0,0 0.2,0.056 0.63,0.236c0.11,-7.257 0.78,-17.227 3.47,-19.137c4.01,-2.933 13.06,-7.062 25.14,4.229c1.1,-3.119 1.65,-5.484 1.65,-5.484c-13.21,-14.22 -23.16,-9.74 -27.44,-6.632c-4.32,3.103 -3.45,26.788 -3.45,26.788Z" style="fill:#d6b496;fill-rule:nonzero;"/><path d="M173.86,140.325c0,4.581 3.72,8.294 8.3,8.294c4.58,0 8.29,-3.713 8.29,-8.294c0,-4.58 -3.71,-8.293 -8.29,-8.293c-4.58,0 -8.3,3.713 -8.3,8.293Z" style="fill:#482315;fill-rule:nonzero;"/><path d="M182.54,145.848c2.4,-0.197 4.24,-2.614 4.02,-5.271c-0.22,-2.657 -2.42,-4.736 -4.82,-4.536c-2.4,0.198 -4.23,2.612 -4.02,5.269c0.22,2.656 2.43,4.739 4.82,4.538Z" style="fill:#7e3a22;fill-rule:nonzero;"/><path d="M182.34,144.89c1.66,-0.142 3.39,-1.971 3.21,-4.223c-0.19,-2.26 -2.19,-3.785 -3.86,-3.648c-1.67,0.141 -3.39,1.978 -3.21,4.231c0.19,2.256 2.19,3.777 3.86,3.64Z" style="fill:#211a10;fill-rule:nonzero;"/><path d="M183.69,139.332c0.07,0.814 0.9,1.41 1.86,1.331c0.96,-0.082 1.68,-0.809 1.62,-1.619c-0.07,-0.818 -0.9,-1.413 -1.86,-1.335c-0.97,0.079 -1.69,0.805 -1.62,1.623Z" style="fill:#fff;fill-rule:nonzero;"/><path d="M178.31,144.043c0.03,0.405 0.45,0.704 0.93,0.664c0.48,-0.038 0.84,-0.405 0.81,-0.81c-0.04,-0.405 -0.45,-0.705 -0.93,-0.664c-0.48,0.037 -0.85,0.401 -0.81,0.81Z" style="fill:#fff;fill-rule:nonzero;"/><path d="M142.9,130.85c-0.06,-0.098 -1.59,-2.424 -4.72,-4.82c-1.96,-1.502 -3.88,-2.646 -5.87,-3.498c-2.42,-1.017 -5.03,-1.736 -7.55,-2.081c-2.29,-0.254 -4.82,-0.187 -7.77,0.211c-2.25,0.429 -4.45,1.099 -6.32,1.923c-1.33,0.458 -2.38,1.102 -3.23,1.62c-0.32,0.198 -0.61,0.377 -0.91,0.537l-4.02,2.531l4.63,-1.09c0.22,-0.054 0.45,-0.116 0.71,-0.183c0.96,-0.254 2.15,-0.571 3.55,-0.777c0.33,-0.047 0.66,-0.113 1,-0.181c0.58,-0.117 1.19,-0.237 1.82,-0.267c0.7,-0.047 1.43,-0.099 2.18,-0.153l0.98,-0.07c2.56,-0.032 4.73,0.163 6.66,0.606c2.11,0.364 4.27,1.044 6.26,1.963c1.88,0.898 3.67,1.788 5.08,2.818c2.83,1.891 4.41,3.469 4.42,3.483l0,0.001c0.39,0.392 0.91,0.594 1.43,0.594c0.39,0 0.77,-0.107 1.1,-0.328c0.94,-0.61 1.2,-1.87 0.6,-2.778l-0.03,-0.061Z" style="fill:#030405;fill-rule:nonzero;"/><path d="M200.6,124.723c-0.27,-0.141 -0.56,-0.321 -0.89,-0.52c-0.84,-0.517 -1.89,-1.16 -3.18,-1.603c-1.91,-0.839 -4.11,-1.509 -6.39,-1.942c-2.93,-0.394 -5.46,-0.462 -7.75,-0.206c-2.52,0.344 -5.12,1.063 -7.55,2.081c-1.96,0.84 -3.93,2.016 -5.86,3.497c-3.07,2.353 -4.6,4.637 -4.71,4.813l-0.03,0.042c-0.52,0.797 -0.41,1.865 0.26,2.537c0.38,0.386 0.89,0.596 1.43,0.596c0.54,0 1.05,-0.212 1.43,-0.596l0.01,-0.016c0.15,-0.148 1.68,-1.645 4.43,-3.481c1.38,-1.013 3.18,-1.905 5.05,-2.801c1.99,-0.922 4.16,-1.602 6.29,-1.971c1.9,-0.438 4.08,-0.629 6.61,-0.602l1.02,0.073c0.75,0.053 1.47,0.104 2.18,0.152c0.62,0.029 1.22,0.149 1.81,0.266c0.34,0.068 0.67,0.134 1,0.181c1.4,0.206 2.59,0.523 3.55,0.777c0.25,0.067 0.49,0.129 0.71,0.185l4.64,1.089l-4.06,-2.551Z" style="fill:#030405;fill-rule:nonzero;"/><path d="M150.71,202.905" style="fill:#be927b;fill-rule:nonzero;"/><path d="M150.71,202.905" style="fill:#be927b;fill-rule:nonzero;"/><path d="M147.07,200.164c-0.11,-0.022 -0.21,-0.042 -0.31,-0.066c0.1,0.023 0.19,0.041 0.31,0.066Z" style="fill:#be927b;fill-rule:nonzero;"/><path d="M150.71,199.968" style="fill:#be927b;fill-rule:nonzero;"/><path d="M146.27,199.985c-0.1,-0.024 -0.19,-0.051 -0.28,-0.077l-0.01,0.004c0,0 0.11,0.029 0.29,0.073Z" style="fill:#be927b;fill-rule:nonzero;"/><path d="M150.71,199.968" style="fill:#be927b;fill-rule:nonzero;"/><path d="M150.48,202.125" style="fill:#be927b;fill-rule:nonzero;"/><path d="M150.48,202.125" style="fill:#be927b;fill-rule:nonzero;"/><path d="M146.84,199.384c-0.11,-0.022 -0.21,-0.042 -0.31,-0.066c0.1,0.022 0.19,0.041 0.31,0.066Z" style="fill:#be927b;fill-rule:nonzero;"/><path d="M150.48,199.188" style="fill:#be927b;fill-rule:nonzero;"/><path d="M146.04,199.205c-0.1,-0.025 -0.19,-0.052 -0.28,-0.077l-0.01,0.004c0,0 0.11,0.029 0.29,0.073Z" style="fill:#be927b;fill-rule:nonzero;"/><path d="M150.48,199.188" style="fill:#be927b;fill-rule:nonzero;"/><path d="M151.07,201.927" style="fill:#be927b;fill-rule:nonzero;"/><path d="M151.07,201.927" style="fill:#be927b;fill-rule:nonzero;"/><path d="M147.55,199.277c-0.1,-0.021 -0.2,-0.041 -0.3,-0.064c0.1,0.022 0.19,0.04 0.3,0.064Z" style="fill:#be927b;fill-rule:nonzero;"/><path d="M151.07,199.088" style="fill:#be927b;fill-rule:nonzero;"/><path d="M146.78,199.104c-0.1,-0.023 -0.18,-0.05 -0.27,-0.074l-0.01,0.004c0,0 0.1,0.028 0.28,0.07Z" style="fill:#be927b;fill-rule:nonzero;"/><path d="M151.07,199.088" style="fill:#be927b;fill-rule:nonzero;"/><path d="M140.81,201.673c-0.24,-3.199 8.91,0.671 11.92,0.763c2.4,0.081 9.6,-0.474 10.27,-0.728c5.03,-1.883 -0.28,5.349 -10.42,5.73c-4.65,0.185 -11.63,-3.824 -11.77,-5.765Z" style="fill:#f0d2ad;fill-rule:nonzero;"/><path d="M170.98,193.988c-5.81,-1.086 -18.03,0.073 -18.03,0.073c-10.09,1.675 -17.98,-0.107 -18.03,-0.038c-0.24,0.024 8.05,11.023 17.89,10.516c9.84,0.507 18.41,-10.516 18.17,-10.551Z" style="fill:#c2646e;fill-rule:nonzero;"/><path d="M158.78,191.666c-2.62,-0.289 -4.48,1.597 -5.82,1.459c-1.37,0.127 -3.14,-1.083 -5.77,-1.109c-3.7,-0.036 -5.51,-0.361 -12.27,2.007c0.24,0.462 4.57,2.972 12.69,3.11c0.12,0 2.3,1.236 5.39,1.214c1.94,-0.012 4.6,-1.306 4.71,-1.306c8.13,-0.127 13.1,-2.544 13.33,-2.994c-8.95,-2.773 -8.24,-2.417 -12.26,-2.381Z" style="fill:#d87475;fill-rule:nonzero;"/><path d="M202.04,287.628c-0.07,-1.263 -0.15,-2.492 -0.25,-3.695c-0.16,-2.149 1.53,-3.978 3.68,-3.978l9.34,0c-0.41,-2.613 -0.92,-5.082 -1.52,-7.386l-12.75,0c-0.54,-4.012 2.51,-7.613 6.57,-7.613l3.85,0c-0.16,-0.474 -0.34,-0.947 -0.53,-1.399c-0.8,-2.037 -1.67,-3.93 -2.57,-5.7c-7,-13.579 -16.79,-19.381 -22.96,-21.788c-0.19,9.794 -13.46,17.694 -29.77,17.694c-0.46,0 -0.89,0 -1.32,-0.02c-15.88,-0.412 -28.54,-8.251 -28.54,-17.88c0,-0.205 0.02,-0.411 0.02,-0.617c-5.7,1.77 -17.3,7.119 -25.28,22.611c-0.91,1.77 -1.77,3.663 -2.57,5.7c-0.19,0.452 -0.35,0.925 -0.54,1.399l3.98,0c4.06,0 7.11,3.6 6.57,7.613l-12.85,0c-0.6,2.304 -1.11,4.773 -1.55,7.386l9.47,0c2.15,0 3.84,1.829 3.68,3.978c-0.1,1.207 -0.18,2.437 -0.25,3.695c-0.1,1.852 -0.18,3.745 -0.22,5.699c-0.06,1.852 -0.08,3.766 -0.08,5.741c0,0 0.39,0.185 1.15,0.699l94.41,0c0.76,-0.514 1.13,-0.699 1.13,-0.699c0,-1.975 -0.02,-3.889 -0.08,-5.741c-0.04,-1.954 -0.12,-3.847 -0.22,-5.699Z" style="fill:#5c4c52;fill-rule:nonzero;"/><path d="M223.7,87.854c-0.2,-0.73 -0.41,-1.425 -0.61,-2.099l0.01,0.001c-1.68,-4.863 1.09,-6.895 1.09,-6.895l-0.05,-0.028c11.31,-0.718 17.66,-11.467 17.66,-11.467c0,0 -4.53,6.569 -20.13,1.448c-15.23,-4.992 -14.85,-21.262 -36.75,-30.34c-6.66,-2.762 -13.89,-3.245 -19.47,-2.825c-1.42,0.106 -1.87,-1.869 -0.56,-2.425c5.21,-2.208 10.8,-4.11 10.8,-4.11c0,0 -10.52,-1.337 -25.92,3.539c-10.82,3.43 -17.3,7.333 -20.93,10.133l6.07,-5.737c0,0 -1.47,0.516 -3.89,1.556c-2.02,0.864 -3.91,-1.459 -2.68,-3.278c3.84,-5.66 7.98,-10.375 7.98,-10.375c-10.53,3.886 -20.07,13.213 -26.64,20.983c-2.2,2.61 -6.38,0.294 -5.32,-2.957c0.73,-2.25 1.25,-3.617 1.25,-3.617c-33.31,24.561 -28.13,68.914 -28.13,68.914c0,16.786 6.68,33.615 11.06,38.615c4.38,4.997 2.98,12.248 4.29,12.248c0,0 2.64,0.093 2.73,-12.57c0.32,-4.276 1.69,-11.144 7.28,-9.09c0.29,0.128 0.6,0.273 0.89,0.389l0.17,0.079c28.04,11.104 42.36,-17.037 42.36,-17.037c0,0 8.57,-18.043 18.17,-24.661c2.82,-1.951 6.52,-3.434 10.99,-4.815c25.54,-7.879 36.14,32.535 33.99,43.195c-3.29,16.423 1.29,25.88 3.04,25.435c0,0 0.07,-4.17 1.66,-7.887c4.71,-11.071 8.67,-3.379 9.4,-18.391c0.38,-7.936 1.15,-13.6 1.8,-18.289c0.42,-2.977 3.5,-4.706 6.3,-3.613c3.21,1.253 7.21,2.045 12.2,2.149c0,0 -11.79,-3.621 -20.11,-26.178Z" style="fill:#36393a;fill-rule:nonzero;"/></g><path d="M208.4,149.329c-0.25,-0.112 -0.5,-0.222 -0.75,-0.331c0.22,-1.079 0.42,-2.174 0.6,-3.284c0,1.285 0.06,2.491 0.15,3.615Z" style="fill:url(#_Linear1);"/><path d="M166.79,152.631c-0.52,-1.8 -0.8,-3.578 -0.94,-5.201c-0.27,-2.124 -0.35,-4.661 0.15,-7.09c0.3,-2.548 1.52,-4.55 3.27,-6.123c-0.72,7.571 -0.4,16.362 -0.4,16.362c0,0 0.01,0.001 0.01,0.003c0,0.039 0.01,0.059 0.01,0.059c0,0 0.28,0.103 0.81,0.264c-0.83,0.453 -1.65,0.936 -2.48,1.452c-0.03,0.019 -0.06,0.039 -0.09,0.058c-0.07,0.044 -0.14,0.088 -0.21,0.133c-0.05,0.028 -0.09,0.055 -0.13,0.083Zm40.86,-3.633c-4.1,-1.765 -8.72,-3.114 -13.75,-3.55c3.78,-6.412 5.87,-14.963 5.87,-14.963c-0.01,-0.006 -0.01,-0.011 -0.02,-0.017c0.01,-0.03 0.01,-0.045 0.01,-0.045c-0.56,-0.607 -1.12,-1.18 -1.67,-1.72c0.75,0.089 1.65,0.234 2.62,0.469c7.44,1.683 8.46,5.595 8.55,5.972c0.01,0.024 0.02,0.047 0.03,0.071c-0.75,3.921 -1.04,7.433 -1.04,10.499c-0.18,1.11 -0.38,2.205 -0.6,3.284Z" style="fill:url(#_Linear2);"/><path d="M169.7,150.905c-0.53,-0.161 -0.81,-0.264 -0.81,-0.264c0,0 -0.01,-0.02 -0.01,-0.059c0.05,0.013 0.24,0.076 0.62,0.233c0.1,-6.963 0.73,-16.423 3.16,-18.866c3.97,-2.022 8.94,-2.878 12.62,-3.237c3.72,0.662 8.04,2.714 12.83,7.195c1.01,-2.867 1.56,-5.097 1.64,-5.439c0.01,0.006 0.01,0.011 0.02,0.017c0,0 -2.09,8.551 -5.87,14.963c-1.13,-0.098 -2.27,-0.15 -3.44,-0.15c-0.01,0 -0.01,0 -0.02,0c-0.01,0 -0.02,0 -0.03,0c-0.54,0 -1.09,0.012 -1.64,0.035c1.05,-1.391 1.68,-3.126 1.68,-5.008c0,-4.58 -3.71,-8.293 -8.29,-8.293c-4.58,0 -8.3,3.713 -8.3,8.293c0,2.967 1.56,5.57 3.9,7.036c-2.63,0.866 -5.32,2.031 -8.06,3.544Z" style="fill:url(#_Linear3);"/><path d="M169.5,150.815c-0.38,-0.157 -0.57,-0.22 -0.62,-0.233c0,-0.002 -0.01,-0.003 -0.01,-0.003c0,0 -0.32,-8.791 0.4,-16.362c0.99,-0.885 2.14,-1.633 3.39,-2.268c-2.43,2.443 -3.06,11.903 -3.16,18.866Zm28.61,-14.908c-4.79,-4.481 -9.11,-6.533 -12.83,-7.195c2.36,-0.23 4.2,-0.258 4.92,-0.258c0.23,-0.006 0.46,-0.012 0.7,-0.012c0.7,-0.026 1.37,-0.039 2.01,-0.039c1.68,0 3.19,0.085 4.54,0.234c0.2,0.017 0.41,0.039 0.64,0.066c0.55,0.54 1.11,1.113 1.67,1.72c0,0 0,0.015 -0.01,0.045c-0.08,0.342 -0.63,2.572 -1.64,5.439Z" style="fill:url(#_Linear4);"/><path d="M177.76,147.361c-2.34,-1.466 -3.9,-4.069 -3.9,-7.036c0,-4.58 3.72,-8.293 8.3,-8.293c4.58,0 8.29,3.713 8.29,8.293c0,1.882 -0.63,3.617 -1.68,5.008c-3.52,0.149 -7.2,0.776 -11.01,2.028Zm1.6,-2.671c0.79,0.73 1.8,1.172 2.86,1.172c0.11,0 0.22,-0.005 0.32,-0.014c2.4,-0.197 4.24,-2.614 4.02,-5.271c-0.01,-0.091 -0.02,-0.18 -0.03,-0.27c0.42,-0.304 0.68,-0.768 0.64,-1.263c-0.07,-0.769 -0.81,-1.342 -1.69,-1.342c-0.03,0 -0.05,0.001 -0.08,0.002c-0.84,-1.027 -2.05,-1.676 -3.34,-1.676c-0.11,0 -0.21,0.004 -0.32,0.013c-2.4,0.198 -4.23,2.612 -4.02,5.269c0.07,0.829 0.33,1.602 0.73,2.268c-0.1,0.134 -0.16,0.295 -0.14,0.465c0.03,0.38 0.4,0.667 0.84,0.667c0.03,0 0.06,-0.001 0.09,-0.003c0.04,-0.004 0.08,-0.009 0.12,-0.017Z" style="fill:url(#_Linear5);"/><path d="M182.22,145.862c-1.06,0 -2.07,-0.442 -2.86,-1.172c0.33,-0.067 0.59,-0.297 0.67,-0.577c0.64,0.501 1.39,0.786 2.1,0.786c0.07,0 0.14,-0.003 0.21,-0.009c1.66,-0.142 3.39,-1.971 3.21,-4.223c0,-0.001 0,-0.002 0,-0.004c0.37,-0.032 0.71,-0.161 0.98,-0.356c0.01,0.09 0.02,0.179 0.03,0.27c0.22,2.657 -1.62,5.074 -4.02,5.271c-0.1,0.009 -0.21,0.014 -0.32,0.014Zm-3.77,-2.284c-0.4,-0.666 -0.66,-1.439 -0.73,-2.268c-0.21,-2.657 1.62,-5.071 4.02,-5.269c0.11,-0.009 0.21,-0.013 0.32,-0.013c1.29,0 2.5,0.649 3.34,1.676c-0.03,0.001 -0.06,0.003 -0.09,0.005c-0.38,0.031 -0.73,0.163 -1,0.362c-0.69,-0.671 -1.58,-1.061 -2.41,-1.061c-0.07,0 -0.14,0.003 -0.21,0.009c-1.67,0.141 -3.39,1.978 -3.21,4.231c0.06,0.753 0.33,1.425 0.72,1.98c-0.03,0 -0.06,0.001 -0.08,0.003c-0.28,0.022 -0.52,0.156 -0.67,0.345Z" style="fill:url(#_Linear6);"/><path d="M182.13,144.899c-0.71,0 -1.46,-0.285 -2.1,-0.786c0.02,-0.07 0.02,-0.142 0.02,-0.216c-0.03,-0.38 -0.4,-0.667 -0.84,-0.667l-0.01,0c-0.39,-0.555 -0.66,-1.227 -0.72,-1.98c-0.18,-2.253 1.54,-4.09 3.21,-4.231c0.07,-0.006 0.14,-0.009 0.21,-0.009c0.83,0 1.72,0.39 2.41,1.061c-0.41,0.305 -0.66,0.766 -0.62,1.261c0.06,0.766 0.8,1.338 1.69,1.338c0.05,0 0.11,-0.002 0.17,-0.007c0,0.002 0,0.003 0,0.004c0.18,2.252 -1.55,4.081 -3.21,4.223c-0.07,0.006 -0.14,0.009 -0.21,0.009Z" style="fill:url(#_Linear7);"/><path d="M185.38,140.67c-0.89,0 -1.63,-0.572 -1.69,-1.338c-0.04,-0.495 0.21,-0.956 0.62,-1.261c0.27,-0.199 0.62,-0.331 1,-0.362c0.03,-0.002 0.06,-0.004 0.09,-0.005c0.03,-0.001 0.05,-0.002 0.08,-0.002c0.88,0 1.62,0.573 1.69,1.342c0.04,0.495 -0.22,0.959 -0.64,1.263c-0.27,0.195 -0.61,0.324 -0.98,0.356c-0.06,0.005 -0.12,0.007 -0.17,0.007Z" style="fill:url(#_Linear8);"/><path d="M179.15,144.71c-0.44,0 -0.81,-0.287 -0.84,-0.667c-0.02,-0.17 0.04,-0.331 0.14,-0.465c0.15,-0.189 0.39,-0.323 0.67,-0.345c0.02,-0.002 0.05,-0.003 0.08,-0.003l0.01,0c0.44,0 0.81,0.287 0.84,0.667c0,0.074 0,0.146 -0.02,0.216c-0.08,0.28 -0.34,0.51 -0.67,0.577c-0.04,0.008 -0.08,0.013 -0.12,0.017c-0.03,0.002 -0.06,0.003 -0.09,0.003Z" style="fill:url(#_Linear9);"/><path d="M210.39,150.277c-0.04,-0.022 -0.09,-0.044 -0.13,-0.066c-0.03,-0.016 -0.06,-0.031 -0.09,-0.047c-0.04,-0.019 -0.08,-0.038 -0.12,-0.058c-0.05,-0.026 -0.11,-0.052 -0.16,-0.078c-0.49,-0.238 -0.98,-0.472 -1.49,-0.699c-0.09,-1.124 -0.15,-2.33 -0.15,-3.615c0,-3.066 0.29,-6.578 1.04,-10.499c0.29,0.616 0.52,1.293 0.67,2.029c1,3.454 1.15,6.79 0.85,9.768c-0.08,1.041 -0.21,2.136 -0.42,3.265Z" style="fill:url(#_Linear10);"/><path d="M99.3,152.696c-0.49,-1.654 -0.92,-3.584 -1.12,-5.69c-0.36,-5.131 0.7,-8.931 0.7,-8.931c0.02,-0.137 0.04,-0.27 0.06,-0.401c0.57,-0.362 1.23,-0.57 1.99,-0.57c0.57,0 1.21,0.117 1.91,0.374c0.29,0.128 0.6,0.273 0.89,0.389l0.17,0.079c2.03,0.801 3.98,1.399 5.86,1.817c0.92,2.296 2.05,4.737 3.38,6.893c-5.15,1.341 -9.72,3.524 -13.54,5.856c-0.1,0.061 -0.2,0.122 -0.3,0.184Zm43.4,-2.636c-0.03,-0.019 -0.07,-0.037 -0.11,-0.056c-0.06,-0.034 -0.13,-0.067 -0.2,-0.101c-0.04,-0.022 -0.09,-0.045 -0.13,-0.066c-0.02,-0.007 -0.03,-0.015 -0.04,-0.022c-1.45,-0.714 -2.89,-1.332 -4.31,-1.863c0.04,-3.819 -0.03,-10.241 -0.73,-15.453c0.51,0.309 0.75,0.503 0.75,0.503c3,1.654 4.46,4.407 5.06,7.326l0,0.053c0,0 0.51,3.071 0.15,7.102l0,0.005c-0.12,0.966 -0.28,1.836 -0.44,2.572Z" style="fill:url(#_Linear11);"/><path d="M137.11,147.661c-2.02,-0.712 -4,-1.246 -5.95,-1.625c1.07,-1.395 1.7,-3.137 1.7,-5.026c0,-1.693 -0.51,-3.269 -1.38,-4.581c1.25,-0.733 2.42,-1.532 3.51,-2.365c1.33,2.895 1.9,8.44 2.12,13.597Zm-23.97,-1.005c-1.33,-2.156 -2.46,-4.597 -3.38,-6.893c2.28,0.506 4.46,0.749 6.53,0.774c-0.01,0.157 -0.02,0.314 -0.02,0.473c0,1.751 0.54,3.374 1.47,4.712c-1.58,0.23 -3.11,0.547 -4.6,0.934Z" style="fill:url(#_Linear12);"/><path d="M137.91,147.952c-0.26,-0.1 -0.53,-0.197 -0.8,-0.291c-0.22,-5.157 -0.79,-10.702 -2.12,-13.597c0.71,-0.541 1.38,-1.096 2.03,-1.66c0.05,0.033 0.1,0.064 0.16,0.095c0.7,5.212 0.77,11.634 0.73,15.453Z" style="fill:url(#_Linear13);"/><path d="M131.16,146.036c-1.32,-0.258 -2.62,-0.444 -3.9,-0.564c0.03,-0.032 0.07,-0.064 0.11,-0.097c0.03,0.008 0.07,0.013 0.11,0.017c0.03,0.002 0.06,0.003 0.09,0.003c0.44,0 0.81,-0.287 0.84,-0.667c0.02,-0.17 -0.04,-0.331 -0.14,-0.465c0.4,-0.666 0.67,-1.439 0.73,-2.269c0.12,-1.41 -0.35,-2.752 -1.17,-3.73c1.29,-0.542 2.5,-1.161 3.65,-1.835c0.87,1.312 1.38,2.888 1.38,4.581c0,1.889 -0.63,3.631 -1.7,5.026Zm-13.42,-0.314c-0.93,-1.338 -1.47,-2.961 -1.47,-4.712c0,-0.159 0.01,-0.316 0.02,-0.473c0.12,0.002 0.23,0.003 0.35,0.003c1.04,0 2.05,-0.056 3.04,-0.159c0.11,0.236 0.29,0.447 0.51,0.611c-0.01,0.089 -0.02,0.179 -0.03,0.27c-0.13,1.586 0.48,3.088 1.49,4.082c-1.33,0.063 -2.63,0.193 -3.91,0.378Z" style="fill:url(#_Linear14);"/><path d="M127.26,145.472c-0.52,-0.048 -1.03,-0.086 -1.53,-0.114c0.33,-0.133 0.66,-0.322 0.96,-0.56c0.08,0.279 0.34,0.51 0.68,0.577c-0.04,0.033 -0.08,0.065 -0.11,0.097Zm-5.61,-0.128c-1.01,-0.994 -1.62,-2.496 -1.49,-4.082c0.01,-0.091 0.02,-0.181 0.03,-0.27c0.27,0.194 0.61,0.324 0.98,0.356c0,0.001 0,0.003 0,0.004c-0.14,1.803 0.94,3.334 2.23,3.947c-0.59,0.002 -1.17,0.017 -1.75,0.045Zm6.62,-1.081c-0.14,-0.189 -0.38,-0.323 -0.67,-0.345c-0.02,-0.002 -0.05,-0.003 -0.07,-0.003c0.38,-0.555 0.65,-1.227 0.71,-1.98c0.11,-1.343 -0.46,-2.538 -1.29,-3.315c0.3,-0.114 0.59,-0.233 0.88,-0.356c0.82,0.978 1.29,2.32 1.17,3.73c-0.06,0.83 -0.33,1.603 -0.73,2.269Z" style="fill:url(#_Linear15);"/><path d="M125.73,145.358c-0.73,-0.04 -1.44,-0.059 -2.15,-0.06c-0.01,0 -0.02,0 -0.03,0c-0.01,0 -0.01,0 -0.02,0c-0.05,0 -0.09,0 -0.13,0.001c-1.29,-0.613 -2.37,-2.144 -2.23,-3.947c0,-0.001 0,-0.003 0,-0.004c0.06,0.005 0.12,0.007 0.17,0.007c0.89,0 1.63,-0.572 1.7,-1.338c0,-0.066 0,-0.132 0,-0.198c1.36,-0.313 2.67,-0.719 3.91,-1.199c0.83,0.777 1.4,1.972 1.29,3.315c-0.06,0.753 -0.33,1.425 -0.71,1.98l-0.01,0c-0.44,0 -0.81,0.287 -0.85,0.667c0,0.074 0.01,0.146 0.02,0.216c-0.3,0.238 -0.63,0.427 -0.96,0.56Z" style="fill:url(#_Linear16);"/><path d="M121.34,141.355c-0.05,0 -0.11,-0.002 -0.17,-0.007c-0.37,-0.032 -0.71,-0.162 -0.98,-0.356c-0.22,-0.164 -0.4,-0.375 -0.51,-0.611c1.16,-0.122 2.27,-0.313 3.36,-0.562c0,0.066 0,0.132 0,0.198c-0.07,0.766 -0.81,1.338 -1.7,1.338Z" style="fill:url(#_Linear17);"/><path d="M127.57,145.395c-0.03,0 -0.06,-0.001 -0.09,-0.003c-0.04,-0.004 -0.08,-0.009 -0.11,-0.017c-0.34,-0.067 -0.6,-0.298 -0.68,-0.577c-0.01,-0.07 -0.02,-0.142 -0.02,-0.216c0.04,-0.38 0.41,-0.667 0.85,-0.667l0.01,0c0.02,0 0.05,0.001 0.07,0.003c0.29,0.022 0.53,0.156 0.67,0.345c0.1,0.134 0.16,0.295 0.14,0.465c-0.03,0.38 -0.4,0.667 -0.84,0.667Z" style="fill:url(#_Linear18);"/><path d="M116.64,140.54c-0.12,0 -0.23,-0.001 -0.35,-0.003c-2.07,-0.025 -4.25,-0.268 -6.53,-0.774c-1.88,-0.418 -3.83,-1.016 -5.86,-1.817l-0.17,-0.079c-0.29,-0.116 -0.6,-0.261 -0.89,-0.389c-0.7,-0.257 -1.34,-0.374 -1.91,-0.374c-0.76,0 -1.42,0.208 -1.99,0.57c0.03,-0.156 0.06,-0.308 0.09,-0.459c0.2,-0.676 0.43,-1.353 0.69,-2.042l0.01,-0.029c1.72,-3.618 5.5,-5.248 8.58,-5.984c0.94,-0.211 1.98,-0.388 3.13,-0.517l0.1,-0.006c0.92,-0.083 1.48,-0.083 1.48,-0.083c1.54,-0.078 2.99,-0.116 4.36,-0.116c0.27,0 0.53,0.001 0.79,0.004c0.1,0.006 0.19,0.006 0.28,0.012l0.32,0c10.64,0.216 16.22,2.766 18.25,3.95c-0.65,0.564 -1.32,1.119 -2.03,1.66c-1.09,0.833 -2.26,1.632 -3.51,2.365c-1.15,0.674 -2.36,1.293 -3.65,1.835c-0.29,0.123 -0.58,0.242 -0.88,0.356c-1.24,0.48 -2.55,0.886 -3.91,1.199c-1.09,0.249 -2.2,0.44 -3.36,0.562c-0.99,0.103 -2,0.159 -3.04,0.159Z" style="fill:url(#_Linear19);"/><path d="M205.27,161.438c0.34,-2.891 0.71,-5.44 1.16,-7.138c0.44,-1.71 0.85,-3.481 1.22,-5.302c0.25,0.109 0.5,0.219 0.75,0.331c0.17,1.985 0.47,3.717 0.84,5.174c-0.49,1.316 -1.1,2.641 -1.88,3.947c-0.12,0.218 -0.19,0.33 -0.19,0.33l-0.11,0.176c-0.47,0.747 -0.99,1.489 -1.57,2.218c-0.07,0.089 -0.15,0.177 -0.22,0.264Z" style="fill:#b4c5b1;fill-rule:nonzero;"/><path d="M189.99,167.077c-4.08,0 -7.77,-0.803 -10.06,-1.437c-0.12,-0.029 -0.84,-0.188 -1.89,-0.582c-0.31,-0.106 -0.48,-0.171 -0.48,-0.171c-6.39,-2.471 -9.41,-7.437 -10.77,-12.256c0.04,-0.028 0.08,-0.055 0.13,-0.083c0.07,-0.045 0.14,-0.089 0.21,-0.133c0.03,-0.019 0.06,-0.039 0.09,-0.058c0.83,-0.516 1.65,-0.999 2.48,-1.452c1.82,0.561 6.49,1.821 11.65,1.821c1.67,0 3.39,-0.131 5.08,-0.461c2.94,-0.573 5.45,-3.389 7.47,-6.817c5.03,0.436 9.65,1.785 13.75,3.55c-0.37,1.821 -0.78,3.592 -1.22,5.302c-0.45,1.698 -0.82,4.247 -1.16,7.138c-0.81,0.969 -1.78,1.8 -2.87,2.443c-0.87,0.518 -2.05,1.112 -3.53,1.642c-2.9,1.151 -5.99,1.554 -8.88,1.554Z" style="fill:#bcd0bb;fill-rule:nonzero;"/><path d="M181.35,152.726c-5.16,0 -9.83,-1.26 -11.65,-1.821c2.74,-1.513 5.43,-2.678 8.06,-3.544c1.28,0.797 2.78,1.258 4.4,1.258c2.7,0 5.09,-1.289 6.61,-3.286c0.55,-0.023 1.1,-0.035 1.64,-0.035l0.05,0c1.17,0 2.31,0.052 3.44,0.15c-2.02,3.428 -4.53,6.244 -7.47,6.817c-1.69,0.33 -3.41,0.461 -5.08,0.461Z" style="fill:#bee4de;fill-rule:nonzero;"/><path d="M182.16,148.619c-1.62,0 -3.12,-0.461 -4.4,-1.258c3.81,-1.252 7.49,-1.879 11.01,-2.028c-1.52,1.997 -3.91,3.286 -6.61,3.286Z" style="fill:#717363;fill-rule:nonzero;"/><path d="M209.24,154.503c-0.37,-1.457 -0.67,-3.189 -0.84,-5.174c0.51,0.227 1,0.461 1.49,0.699c0.05,0.026 0.11,0.052 0.16,0.078c0.04,0.02 0.08,0.039 0.12,0.058c0.03,0.016 0.06,0.031 0.09,0.047c0.04,0.022 0.09,0.044 0.13,0.066c-0.25,1.372 -0.62,2.793 -1.15,4.226Z" style="fill:#607e79;fill-rule:nonzero;"/><path d="M208.4,149.329c-0.25,-0.112 -0.5,-0.222 -0.75,-0.331c0.25,0.109 0.5,0.219 0.75,0.331Z" style="fill:url(#_Linear20);"/><path d="M207.65,148.998c-4.1,-1.765 -8.72,-3.114 -13.75,-3.55c5.03,0.436 9.65,1.785 13.75,3.55Z" style="fill:url(#_Linear21);"/><path d="M193.9,145.448c-1.13,-0.098 -2.27,-0.15 -3.44,-0.15c1.17,0 2.31,0.052 3.44,0.15Z" style="fill:url(#_Linear22);"/><path d="M119.24,167.044c-3.8,0 -6.86,-0.695 -9.18,-1.539l-0.02,-0.006c-3.04,-1.218 -5.88,-3.265 -8.1,-6.531c-0.11,-0.165 -0.21,-0.335 -0.31,-0.506c-0.37,-0.677 -1.26,-2.419 -2.05,-4.866c-0.1,-0.288 -0.19,-0.588 -0.28,-0.9c0.1,-0.062 0.2,-0.123 0.3,-0.184c3.82,-2.332 8.39,-4.515 13.54,-5.856c1.97,3.188 4.37,5.751 7.15,6.294c1.69,0.33 3.41,0.461 5.08,0.461c6.64,0 12.47,-2.085 12.47,-2.085c0,0 0,-0.02 0,-0.059c0.01,-0.002 0.01,-0.003 0.01,-0.003c0,0 0.05,-1.291 0.06,-3.312c1.42,0.531 2.86,1.149 4.31,1.863c0.01,0.007 0.02,0.015 0.04,0.022c0.04,0.021 0.09,0.044 0.13,0.066c0.07,0.034 0.14,0.067 0.2,0.101c0.04,0.019 0.08,0.037 0.11,0.056c-0.19,0.929 -0.38,1.63 -0.5,2.012c-0.06,0.206 -0.1,0.318 -0.1,0.318c-1.94,8.184 -8.02,11.485 -11.16,12.668l-0.01,0.005c-0.4,0.136 -1.03,0.342 -1.85,0.571l-0.03,0.006l-0.02,0.006c-3.68,1.008 -6.94,1.398 -9.79,1.398Z" style="fill:#b5c7b1;fill-rule:nonzero;"/><path d="M125.37,153.411c-1.67,0 -3.39,-0.131 -5.08,-0.461c-2.78,-0.543 -5.18,-3.106 -7.15,-6.294c1.49,-0.387 3.02,-0.703 4.6,-0.933c1.5,2.163 4,3.581 6.83,3.581c2.69,0 5.08,-1.282 6.59,-3.268c1.95,0.379 3.93,0.914 5.95,1.625c0.06,1.322 0.09,2.619 0.11,3.839c0.38,-0.157 0.57,-0.219 0.62,-0.233c0,0.039 0,0.059 0,0.059c0,0 -5.83,2.085 -12.47,2.085Z" style="fill:#bee4de;fill-rule:nonzero;"/><path d="M137.22,151.5c-0.02,-1.22 -0.05,-2.517 -0.11,-3.839c0.27,0.094 0.54,0.191 0.8,0.291c-0.01,2.021 -0.06,3.312 -0.06,3.312c0,0 0,0.001 -0.01,0.003c-0.05,0.014 -0.24,0.076 -0.62,0.233Z" style="fill:#b0c3af;fill-rule:nonzero;"/><path d="M124.57,149.304c-2.83,0 -5.33,-1.418 -6.83,-3.581c1.28,-0.186 2.58,-0.316 3.91,-0.379c0.69,0.67 1.57,1.11 2.53,1.19c0.11,0.009 0.21,0.013 0.32,0.013c1.01,0 1.98,-0.403 2.76,-1.075c1.28,0.121 2.58,0.306 3.9,0.564c-1.51,1.986 -3.9,3.268 -6.59,3.268Z" style="fill:#717363;fill-rule:nonzero;"/><path d="M124.5,146.547c-0.11,0 -0.21,-0.004 -0.32,-0.013c-0.96,-0.08 -1.84,-0.52 -2.53,-1.19c0.58,-0.028 1.16,-0.043 1.75,-0.045c0.32,0.152 0.65,0.248 0.99,0.276c0.07,0.006 0.14,0.009 0.21,0.009c0.37,0 0.75,-0.079 1.13,-0.226c0.5,0.028 1.01,0.066 1.53,0.114c-0.78,0.672 -1.75,1.075 -2.76,1.075Z" style="fill:#8d836b;fill-rule:nonzero;"/><path d="M124.6,145.584c-0.07,0 -0.14,-0.003 -0.21,-0.009c-0.34,-0.028 -0.67,-0.124 -0.99,-0.276c0.04,-0.001 0.08,-0.001 0.13,-0.001l0.05,0c0.71,0.001 1.42,0.02 2.15,0.06c-0.38,0.147 -0.76,0.226 -1.13,0.226Z" style="fill:#596d63;fill-rule:nonzero;"/><path d="M99.3,152.696c0.1,-0.062 0.2,-0.123 0.3,-0.184c-0.1,0.061 -0.2,0.122 -0.3,0.184Zm43.4,-2.636c-0.03,-0.019 -0.07,-0.037 -0.11,-0.056c0.04,0.019 0.08,0.037 0.11,0.056Zm-0.31,-0.157c-0.04,-0.022 -0.09,-0.045 -0.13,-0.066c0.04,0.021 0.09,0.044 0.13,0.066Zm-0.17,-0.088c-1.45,-0.714 -2.89,-1.332 -4.31,-1.863c1.42,0.531 2.86,1.149 4.31,1.863Z" style="fill:url(#_Linear23);"/><path d="M137.11,147.661c-2.02,-0.711 -4,-1.246 -5.95,-1.625c0,-0.001 0,0 0,0c1.95,0.379 3.93,0.913 5.95,1.625Z" style="fill:url(#_Linear24);"/><path d="M137.91,147.952c-0.26,-0.1 -0.53,-0.197 -0.8,-0.291c0.27,0.094 0.54,0.191 0.8,0.291Z" style="fill:url(#_Linear25);"/><path d="M131.16,146.036c-1.32,-0.258 -2.62,-0.443 -3.9,-0.564c1.28,0.12 2.58,0.306 3.9,0.564c0,0 0,-0.001 0,0Z" style="fill:url(#_Linear26);"/><path d="M127.26,145.472c-0.52,-0.048 -1.03,-0.086 -1.53,-0.114c0.5,0.028 1.01,0.066 1.53,0.114Z" style="fill:url(#_Linear27);"/><path d="M125.73,145.358c-0.73,-0.04 -1.44,-0.059 -2.15,-0.06c0.71,0.001 1.42,0.02 2.15,0.06Zm-2.2,-0.06c0.01,0 0.01,0 0.02,0c-0.01,0 -0.01,0 -0.02,0Z" style="fill:url(#_Linear28);"/><path d="M210.81,147.013c-0.08,1.208 -0.25,2.492 -0.53,3.814c-0.03,0.127 -0.05,0.252 -0.08,0.379c-0.09,0.414 -0.2,0.833 -0.31,1.254c-0.03,0.094 -0.06,0.189 -0.08,0.284c-0.11,0.372 -0.23,0.745 -0.35,1.119l-0.09,0.248c-0.15,0.451 -0.33,0.903 -0.51,1.356l-0.06,0.138c-0.17,0.398 -0.36,0.796 -0.55,1.194c-0.06,0.109 -0.11,0.217 -0.16,0.326c-0.22,0.421 -0.45,0.842 -0.69,1.26l-0.04,0.065c-0.11,0.218 -0.19,0.33 -0.19,0.33l-0.09,0.145l-0.02,0.03c-0.08,0.115 -0.16,0.229 -0.23,0.344c-0.41,0.631 -0.85,1.258 -1.34,1.875c-0.22,0.271 -0.45,0.532 -0.68,0.782c-0.71,0.747 -1.52,1.399 -2.41,1.924c-0.71,0.421 -1.64,0.892 -2.75,1.34c-0.25,0.102 -0.5,0.204 -0.78,0.303c-2.09,0.828 -4.27,1.262 -6.4,1.445c-5.03,0.428 -9.8,-0.569 -12.54,-1.329c-0.03,-0.008 -0.13,-0.03 -0.27,-0.065c-0.18,-0.047 -0.45,-0.12 -0.78,-0.226c-0.25,-0.079 -0.53,-0.174 -0.84,-0.292c-0.31,-0.106 -0.48,-0.171 -0.48,-0.171l-0.12,-0.05c-0.3,-0.119 -0.6,-0.245 -0.89,-0.375c-0.1,-0.048 -0.21,-0.097 -0.31,-0.147c-0.27,-0.128 -0.53,-0.261 -0.79,-0.399l-0.16,-0.085c-0.31,-0.167 -0.6,-0.341 -0.88,-0.52l-0.23,-0.149c-0.24,-0.154 -0.47,-0.312 -0.69,-0.475l-0.16,-0.111c-0.26,-0.197 -0.52,-0.4 -0.77,-0.607l-0.16,-0.141c-0.21,-0.179 -0.41,-0.361 -0.6,-0.547l-0.14,-0.132c-0.23,-0.224 -0.45,-0.452 -0.66,-0.685l-0.1,-0.109c-0.19,-0.207 -0.37,-0.417 -0.54,-0.63l-0.11,-0.143c-0.2,-0.248 -0.39,-0.499 -0.57,-0.754l-0.02,-0.033c-0.18,-0.247 -0.34,-0.498 -0.5,-0.75l-0.08,-0.128c-0.34,-0.541 -0.64,-1.094 -0.92,-1.654l-0.03,-0.062c-0.56,-1.172 -1,-2.374 -1.34,-3.568l-0.01,0.002c-0.51,-1.801 -0.79,-3.582 -0.94,-5.205c-0.26,-2.12 -0.34,-4.661 0.16,-7.088c1.36,-11.465 21.35,-11.886 24.2,-11.887c0.23,-0.005 0.47,-0.009 0.7,-0.011c2.51,-0.091 4.68,-0.011 6.55,0.193c0.85,0.077 2,0.231 3.27,0.535c7.43,1.686 8.46,5.596 8.54,5.976c0.3,0.636 0.54,1.334 0.7,2.1c1.01,3.453 1.15,6.791 0.85,9.767Zm-67.67,0.469l0,0.004c-0.28,2.177 -0.74,3.901 -0.94,4.585l-0.04,0.143c-0.04,0.114 -0.06,0.176 -0.06,0.176c-1.94,8.184 -8.02,11.485 -11.16,12.668l-0.01,0.006c-0.26,0.09 -0.64,0.212 -1.1,0.351c-0.23,0.069 -0.48,0.142 -0.75,0.218l-0.03,0.007l-0.02,0.004c-2.53,0.696 -4.87,1.091 -7.01,1.274c-5.11,0.435 -9.1,-0.372 -11.96,-1.413l-0.01,-0.003l-0.01,-0.004c-1.12,-0.448 -2.21,-1.011 -3.25,-1.702c-1.8,-1.189 -3.45,-2.764 -4.85,-4.828l-0.14,-0.218c-0.05,-0.095 -0.11,-0.191 -0.17,-0.286c-0.23,-0.429 -0.67,-1.278 -1.16,-2.46c-0.29,-0.694 -0.6,-1.502 -0.89,-2.408c-0.1,-0.288 -0.19,-0.588 -0.28,-0.9l0,0.001c-0.49,-1.657 -0.92,-3.583 -1.13,-5.693c-0.35,-5.129 0.71,-8.932 0.71,-8.932c0.04,-0.295 0.09,-0.58 0.15,-0.857c0.2,-0.676 0.43,-1.356 0.69,-2.039l0.01,-0.033c1.73,-3.615 5.5,-5.246 8.58,-5.983c0.94,-0.211 1.98,-0.387 3.13,-0.515l0.1,-0.011c0.91,-0.082 1.48,-0.078 1.48,-0.078c1.84,-0.098 3.55,-0.132 5.16,-0.112c0.09,0.003 0.18,0.007 0.27,0.01c0,0 0.11,-0.001 0.31,-0.001l0.01,0c13.91,0.282 19.16,4.55 19.16,4.55c3,1.654 4.46,4.406 5.06,7.325l0.01,0.051c0,0 0.5,3.071 0.14,7.103Zm76.99,-17.082c-0.17,-1.152 -1,-2.101 -2.12,-2.415c-23.26,-6.498 -41.37,-2.69 -41.37,-2.69c-9.7,1.69 -13.87,7.293 -13.87,7.293c-2.76,2.935 -8.28,1.69 -8.28,1.69c0,0 -5.51,1.245 -8.27,-1.69c0,0 -4.18,-5.603 -13.87,-7.293c0,0 -18.11,-3.808 -41.37,2.69c-1.12,0.314 -1.95,1.263 -2.13,2.415c-0.37,2.442 -0.7,6.488 1.07,7.525c0,0 3.56,0.711 3.56,5.692c0,0 2.76,16.365 6.05,19.922c0,0 4.45,8.183 19.48,7.738c0,0 20.56,0.861 24.55,-10.495c0.52,-1.501 1.27,-3.237 1.86,-4.714l3.43,-9.867c0.36,-1.042 1.01,-1.974 1.9,-2.627c0.86,-0.63 2.08,-1.137 3.74,-1.025c1.67,-0.111 2.89,0.396 3.75,1.024c0.89,0.654 1.53,1.585 1.9,2.628l3.43,9.867c0.59,1.477 1.33,3.212 1.86,4.714c3.99,11.357 24.55,10.495 24.55,10.495c15.03,0.445 19.48,-7.738 19.48,-7.738c3.29,-3.557 6.05,-19.922 6.05,-19.922c0,-4.981 3.55,-5.692 3.55,-5.692c1.77,-1.037 1.45,-5.083 1.07,-7.525Z" style="fill:#c92026;fill-rule:nonzero;"/></g><defs><linearGradient id="_Linear1" x1="0" y1="0" x2="1" y2="0" gradientUnits="userSpaceOnUse" gradientTransform="matrix(0.29423,55.3083,-55.3083,0.29423,188.16,120.13)"><stop offset="0" style="stop-color:#eddaca;stop-opacity:1"/><stop offset="1" style="stop-color:#a3bea5;stop-opacity:1"/></linearGradient><linearGradient id="_Linear2" x1="0" y1="0" x2="1" y2="0" gradientUnits="userSpaceOnUse" gradientTransform="matrix(0.29423,55.3083,-55.3083,0.29423,188.16,120.13)"><stop offset="0" style="stop-color:#f8e7d5;stop-opacity:1"/><stop offset="1" style="stop-color:#a9c9ad;stop-opacity:1"/></linearGradient><linearGradient id="_Linear3" x1="0" y1="0" x2="1" y2="0" gradientUnits="userSpaceOnUse" gradientTransform="matrix(0.29423,55.3083,-55.3083,0.29423,188.16,120.13)"><stop offset="0" style="stop-color:#fff;stop-opacity:1"/><stop offset="1" style="stop-color:#acdcd0;stop-opacity:1"/></linearGradient><linearGradient id="_Linear4" x1="0" y1="0" x2="1" y2="0" gradientUnits="userSpaceOnUse" gradientTransform="matrix(0.29423,55.3083,-55.3083,0.29423,188.16,120.13)"><stop offset="0" style="stop-color:#e9d8c9;stop-opacity:1"/><stop offset="1" style="stop-color:#9fbda3;stop-opacity:1"/></linearGradient><linearGradient id="_Linear5" x1="0" y1="0" x2="1" y2="0" gradientUnits="userSpaceOnUse" gradientTransform="matrix(0.29423,55.3083,-55.3083,0.29423,188.16,120.13)"><stop offset="0" style="stop-color:#987e73;stop-opacity:1"/><stop offset="1" style="stop-color:#65705c;stop-opacity:1"/></linearGradient><linearGradient id="_Linear6" x1="0" y1="0" x2="1" y2="0" gradientUnits="userSpaceOnUse" gradientTransform="matrix(0.29423,55.3083,-55.3083,0.29423,188.16,120.13)"><stop offset="0" style="stop-color:#b88f7c;stop-opacity:1"/><stop offset="1" style="stop-color:#808062;stop-opacity:1"/></linearGradient><linearGradient id="_Linear7" x1="0" y1="0" x2="1" y2="0" gradientUnits="userSpaceOnUse" gradientTransform="matrix(0.29423,55.3083,-55.3083,0.29423,188.16,120.13)"><stop offset="0" style="stop-color:#807872;stop-opacity:1"/><stop offset="1" style="stop-color:#4c6a5c;stop-opacity:1"/></linearGradient><linearGradient id="_Linear8" x1="0" y1="0" x2="1" y2="0" gradientUnits="userSpaceOnUse" gradientTransform="matrix(0.29423,55.3083,-55.3083,0.29423,188.16,120.13)"><stop offset="0" style="stop-color:#fff;stop-opacity:1"/><stop offset="1" style="stop-color:#acdcd0;stop-opacity:1"/></linearGradient><linearGradient id="_Linear9" x1="0" y1="0" x2="1" y2="0" gradientUnits="userSpaceOnUse" gradientTransform="matrix(0.29423,55.3083,-55.3083,0.29423,188.16,120.13)"><stop offset="0" style="stop-color:#fff;stop-opacity:1"/><stop offset="1" style="stop-color:#acdcd0;stop-opacity:1"/></linearGradient><linearGradient id="_Linear10" x1="0" y1="0" x2="1" y2="0" gradientUnits="userSpaceOnUse" gradientTransform="matrix(0.29423,55.3083,-55.3083,0.29423,188.16,120.13)"><stop offset="0" style="stop-color:#8c8a8a;stop-opacity:1"/><stop offset="1" style="stop-color:#507a70;stop-opacity:1"/></linearGradient><linearGradient id="_Linear11" x1="0" y1="0" x2="1" y2="0" gradientUnits="userSpaceOnUse" gradientTransform="matrix(0.29423,55.3083,-55.3083,0.29423,120.56,120.489)"><stop offset="0" style="stop-color:#efddcb;stop-opacity:1"/><stop offset="1" style="stop-color:#a4c1a5;stop-opacity:1"/></linearGradient><linearGradient id="_Linear12" x1="0" y1="0" x2="1" y2="0" gradientUnits="userSpaceOnUse" gradientTransform="matrix(0.29423,55.3083,-55.3083,0.29423,120.56,120.489)"><stop offset="0" style="stop-color:#fff;stop-opacity:1"/><stop offset="1" style="stop-color:#acdcd0;stop-opacity:1"/></linearGradient><linearGradient id="_Linear13" x1="0" y1="0" x2="1" y2="0" gradientUnits="userSpaceOnUse" gradientTransform="matrix(0.29423,55.3083,-55.3083,0.29423,120.56,120.489)"><stop offset="0" style="stop-color:#e9d8c9;stop-opacity:1"/><stop offset="1" style="stop-color:#9fbda3;stop-opacity:1"/></linearGradient><linearGradient id="_Linear14" x1="0" y1="0" x2="1" y2="0" gradientUnits="userSpaceOnUse" gradientTransform="matrix(0.29423,55.3083,-55.3083,0.29423,120.56,120.489)"><stop offset="0" style="stop-color:#987e73;stop-opacity:1"/><stop offset="1" style="stop-color:#65705c;stop-opacity:1"/></linearGradient><linearGradient id="_Linear15" x1="0" y1="0" x2="1" y2="0" gradientUnits="userSpaceOnUse" gradientTransform="matrix(0.29423,55.3083,-55.3083,0.29423,120.56,120.489)"><stop offset="0" style="stop-color:#b88f7c;stop-opacity:1"/><stop offset="1" style="stop-color:#808062;stop-opacity:1"/></linearGradient><linearGradient id="_Linear16" x1="0" y1="0" x2="1" y2="0" gradientUnits="userSpaceOnUse" gradientTransform="matrix(0.29423,55.3083,-55.3083,0.29423,120.56,120.489)"><stop offset="0" style="stop-color:#807872;stop-opacity:1"/><stop offset="1" style="stop-color:#4c6a5c;stop-opacity:1"/></linearGradient><linearGradient id="_Linear17" x1="0" y1="0" x2="1" y2="0" gradientUnits="userSpaceOnUse" gradientTransform="matrix(0.29423,55.3083,-55.3083,0.29423,120.56,120.489)"><stop offset="0" style="stop-color:#fff;stop-opacity:1"/><stop offset="1" style="stop-color:#acdcd0;stop-opacity:1"/></linearGradient><linearGradient id="_Linear18" x1="0" y1="0" x2="1" y2="0" gradientUnits="userSpaceOnUse" gradientTransform="matrix(0.29423,55.3083,-55.3083,0.29423,120.56,120.489)"><stop offset="0" style="stop-color:#fff;stop-opacity:1"/><stop offset="1" style="stop-color:#acdcd0;stop-opacity:1"/></linearGradient><linearGradient id="_Linear19" x1="0" y1="0" x2="1" y2="0" gradientUnits="userSpaceOnUse" gradientTransform="matrix(0.29423,55.3083,-55.3083,0.29423,120.56,120.489)"><stop offset="0" style="stop-color:#8c8a8a;stop-opacity:1"/><stop offset="1" style="stop-color:#507a70;stop-opacity:1"/></linearGradient><linearGradient id="_Linear20" x1="0" y1="0" x2="1" y2="0" gradientUnits="userSpaceOnUse" gradientTransform="matrix(0.29423,55.3083,-55.3083,0.29423,188.16,120.13)"><stop offset="0" style="stop-color:#b9d4c8;stop-opacity:1"/><stop offset="1" style="stop-color:#96c7b6;stop-opacity:1"/></linearGradient><linearGradient id="_Linear21" x1="0" y1="0" x2="1" y2="0" gradientUnits="userSpaceOnUse" gradientTransform="matrix(0.29423,55.3083,-55.3083,0.29423,188.16,120.13)"><stop offset="0" style="stop-color:#bddacd;stop-opacity:1"/><stop offset="1" style="stop-color:#98ccbb;stop-opacity:1"/></linearGradient><linearGradient id="_Linear22" x1="0" y1="0" x2="1" y2="0" gradientUnits="userSpaceOnUse" gradientTransform="matrix(0.29423,55.3083,-55.3083,0.29423,188.16,120.13)"><stop offset="0" style="stop-color:#bee4de;stop-opacity:1"/><stop offset="1" style="stop-color:#99d5cb;stop-opacity:1"/></linearGradient><linearGradient id="_Linear23" x1="0" y1="0" x2="1" y2="0" gradientUnits="userSpaceOnUse" gradientTransform="matrix(0.29423,55.3083,-55.3083,0.29423,120.56,120.489)"><stop offset="0" style="stop-color:#bad5c9;stop-opacity:1"/><stop offset="1" style="stop-color:#96c8b7;stop-opacity:1"/></linearGradient><linearGradient id="_Linear24" x1="0" y1="0" x2="1" y2="0" gradientUnits="userSpaceOnUse" gradientTransform="matrix(0.29423,55.3083,-55.3083,0.29423,120.56,120.489)"><stop offset="0" style="stop-color:#bee4de;stop-opacity:1"/><stop offset="1" style="stop-color:#99d5cb;stop-opacity:1"/></linearGradient><linearGradient id="_Linear25" x1="0" y1="0" x2="1" y2="0" gradientUnits="userSpaceOnUse" gradientTransform="matrix(0.29423,55.3083,-55.3083,0.29423,120.56,120.489)"><stop offset="0" style="stop-color:#b9d3c7;stop-opacity:1"/><stop offset="1" style="stop-color:#94c6b5;stop-opacity:1"/></linearGradient><linearGradient id="_Linear26" x1="0" y1="0" x2="1" y2="0" gradientUnits="userSpaceOnUse" gradientTransform="matrix(0.29423,55.3083,-55.3083,0.29423,120.56,120.489)"><stop offset="0" style="stop-color:#97a89c;stop-opacity:1"/><stop offset="1" style="stop-color:#799e8e;stop-opacity:1"/></linearGradient><linearGradient id="_Linear27" x1="0" y1="0" x2="1" y2="0" gradientUnits="userSpaceOnUse" gradientTransform="matrix(0.29423,55.3083,-55.3083,0.29423,120.56,120.489)"><stop offset="0" style="stop-color:#a6b2a1;stop-opacity:1"/><stop offset="1" style="stop-color:#86a792;stop-opacity:1"/></linearGradient><linearGradient id="_Linear28" x1="0" y1="0" x2="1" y2="0" gradientUnits="userSpaceOnUse" gradientTransform="matrix(0.29423,55.3083,-55.3083,0.29423,120.56,120.489)"><stop offset="0" style="stop-color:#8aa49d;stop-opacity:1"/><stop offset="1" style="stop-color:#6b9b8e;stop-opacity:1"/></linearGradient></defs></svg>