<?xml version="1.0" encoding="UTF-8" standalone="no"?><!DOCTYPE svg PUBLIC "-//W3C//DTD SVG 1.1//EN" "http://www.w3.org/Graphics/SVG/1.1/DTD/svg11.dtd"><svg width="100%" height="100%" viewBox="0 0 300 301" version="1.1" xmlns="http://www.w3.org/2000/svg" xmlns:xlink="http://www.w3.org/1999/xlink" xml:space="preserve" style="fill-rule:evenodd;clip-rule:evenodd;stroke-linejoin:round;stroke-miterlimit:1.41421;"><g id="_39"><g><rect x="0.27" y="0.365" width="299.36" height="299.705" style="fill:#c21e51;fill-rule:nonzero;"/><path d="M154.28,187.8l0,112.27l-60.73,0c-0.99,-0.394 -1.48,-0.594 -1.48,-0.594c0,-14.331 2.1,-25.505 5.3,-34.219c7.73,-21.03 21.88,-27.709 28.4,-29.723c2.13,-0.661 3.45,-0.82 3.45,-0.82c0.23,0 0.45,-0.021 0.67,-0.056c1.91,-0.308 3.46,-1.969 4.71,-4.619c0.93,-1.968 1.7,-4.479 2.33,-7.386c0.25,-1.132 0.45,-2.275 0.65,-3.51c0.29,-2.077 0.59,-4.25 0.84,-6.525c0.09,-1.384 0.24,-2.717 0.39,-4.152c0.54,-6.868 0.69,-14.388 0.69,-21.507c0,0 8.16,0.841 14.78,0.841Z" style="fill:#e0bd9a;fill-rule:nonzero;"/><path d="M216.74,299.476c0,0 -0.55,0.2 -1.44,0.594l-61.02,0l0,-112.27l0.14,0c6.58,0 14.83,-0.841 14.83,-0.841c0,7.068 0.15,14.485 0.69,21.358c0.15,1.338 0.3,2.717 0.39,4.055c0.25,2.373 0.55,4.597 0.9,6.673l0,0.046c0.09,0.943 0.29,1.784 0.44,2.671c0.6,2.921 1.33,5.489 2.21,7.549c1.09,2.563 2.41,4.352 4.02,5.06c0.52,0.23 1.06,0.343 1.63,0.343c0,0 2.34,0.282 5.84,1.656c7.15,2.798 19.16,10.143 26.06,28.887c3.2,8.714 5.31,19.888 5.31,34.219Z" style="fill:#efd0ad;fill-rule:nonzero;"/><path d="M171.23,218.835l0,0.05c-1.54,2.357 -6.68,9.134 -16.85,9.134l-0.1,0c-9.64,-0.049 -15.27,-7.023 -16.7,-9.086c0.29,-2.062 0.59,-4.223 0.84,-6.482c0.09,-1.326 0.24,-2.702 0.39,-4.126c4.69,1.179 9.83,1.916 15.27,2.014l0.2,0c5.63,-0.098 10.82,-0.884 15.66,-2.161c0.15,1.326 0.3,2.701 0.4,4.027c0.24,2.357 0.54,4.568 0.89,6.63Z" style="fill:#be987f;fill-rule:nonzero;"/><path d="M153.58,59.856c-64.33,0 -64.68,53.779 -61.81,88.993c-4.4,-8.349 -17.49,-5.795 -16.41,7.367c1.04,12.672 19.75,19.129 19.23,17.73c9.74,26.043 35.52,45.675 58.99,45.675l0.5,0l0,-159.765l-0.5,0Z" style="fill:#d2a686;fill-rule:nonzero;"/><path d="M79.47,150.666c3.16,-5.108 8.1,-2.897 9.28,-1.768c1.29,1.228 2.33,2.8 1.54,5.796c-0.45,1.719 -2.23,1.866 -1.83,4.42c0.49,2.897 1.83,3.045 2.62,3.732c0.74,0.639 1.68,1.13 2.12,2.358c0.5,1.228 0.55,2.505 0.3,3.634c-0.5,2.063 -3.51,0.393 -5.54,-0.491c-1.33,-0.638 -5.58,-4.224 -6.67,-5.402c-2.66,-3.045 -3.95,-8.939 -1.82,-12.279Z" style="fill:#ac8774;fill-rule:nonzero;"/><path d="M153.93,59.856c64.34,0 64.68,53.779 61.87,88.993c4.39,-8.349 17.44,-5.795 16.35,7.367c-0.99,12.672 -19.73,19.133 -19.22,17.73c-9.49,26.043 -35.53,45.675 -59,45.675c-0.15,0 -0.35,0 -0.35,0l-0.14,-159.765c0,0 0.34,0 0.49,0Z" style="fill:#ddb598;fill-rule:nonzero;"/><path d="M228.05,150.666c-3.16,-5.108 -8.05,-2.897 -9.29,-1.768c-1.28,1.228 -2.27,2.8 -1.53,5.796c0.44,1.719 2.22,1.866 1.83,4.42c-0.5,2.897 -1.83,3.045 -2.57,3.732c-0.74,0.639 -1.73,1.13 -2.18,2.358c-0.44,1.228 -0.54,2.505 -0.29,3.634c0.49,2.063 3.51,0.393 5.53,-0.491c1.39,-0.638 5.59,-4.224 6.67,-5.402c2.72,-3.045 3.96,-8.939 1.83,-12.279Z" style="fill:#ac8774;fill-rule:nonzero;"/><path d="M153.08,75.032c-21.15,0 -36.67,6.139 -46.01,18.221c-13.09,16.944 -12.6,42.778 -7.8,61.342c1.48,5.698 2.27,20.972 3.26,26.571c4.59,25.097 32.32,38.455 50.55,38.455c0,0 0.34,0 0.49,0l0,-144.589c-0.15,0 -0.29,0 -0.29,0l-0.2,0Z" style="fill:#e0bd9a;fill-rule:nonzero;"/><path d="M199.03,93.302c-9.29,-12.033 -24.6,-18.172 -45.46,-18.27l0,144.589c20.86,-0.245 45.81,-14.881 50.06,-38.455c1.04,-5.599 1.78,-20.873 3.26,-26.571c4.84,-18.516 5.34,-44.3 -7.86,-61.293Z" style="fill:#efd0ad;fill-rule:nonzero;"/><path d="M153.77,196.677" style="fill:#bc917b;fill-rule:nonzero;"/><path d="M153.77,196.677" style="fill:#bc917b;fill-rule:nonzero;"/><path d="M150.2,193.99c-0.1,-0.022 -0.2,-0.041 -0.3,-0.065c0.09,0.023 0.18,0.041 0.3,0.065Z" style="fill:#bc917b;fill-rule:nonzero;"/><path d="M153.77,193.798" style="fill:#bc917b;fill-rule:nonzero;"/><path d="M149.41,193.815c-0.09,-0.024 -0.17,-0.051 -0.27,-0.076l-0.01,0.004c0,0 0.11,0.029 0.28,0.072Z" style="fill:#bc917b;fill-rule:nonzero;"/><path d="M153.77,193.798" style="fill:#bc917b;fill-rule:nonzero;"/><path d="M129.44,75.393l-0.27,0.267l0.05,0.089c0.09,-0.133 0.13,-0.267 0.22,-0.356Z" style="fill:#432e1b;fill-rule:nonzero;"/><path d="M94.65,126.341" style="fill:#432e1b;fill-rule:nonzero;"/><path d="M154.04,193.817" style="fill:#ba907b;fill-rule:nonzero;"/><path d="M154.04,193.817" style="fill:#ba907b;fill-rule:nonzero;"/><path d="M150.37,191.057c-0.1,-0.022 -0.2,-0.043 -0.31,-0.066c0.1,0.022 0.19,0.041 0.31,0.066Z" style="fill:#ba907b;fill-rule:nonzero;"/><path d="M154.04,190.86" style="fill:#ba907b;fill-rule:nonzero;"/><path d="M149.57,190.877c-0.1,-0.025 -0.18,-0.052 -0.28,-0.078l-0.01,0.005c0,0 0.11,0.029 0.29,0.073Z" style="fill:#ba907b;fill-rule:nonzero;"/><path d="M154.04,190.86" style="fill:#ba907b;fill-rule:nonzero;"/><path d="M141,172.692c-0.25,-5.131 9.43,-1.875 12.62,-1.714c2.52,0.128 10.19,-1.618 10.85,-1.168c4.51,3.042 -4.78,9.17 -11.01,9.17c-1.66,0 -12.31,-3.192 -12.46,-6.288Z" style="fill:#dcb497;fill-rule:nonzero;"/><path d="M107.42,131.466c0,0 4.91,20.135 13.33,21.778c8.43,1.643 17.55,-1.623 17.55,-1.623c0,0 0.87,-23.664 -3.44,-26.755c-4.31,-3.106 -14.25,-7.594 -27.44,6.6Z" style="fill:#fff;fill-rule:nonzero;"/><path d="M138.31,151.559c0,0 -0.19,0.055 -0.62,0.236c-0.11,-7.258 -0.78,-17.227 -3.48,-19.137c-4,-2.933 -13.05,-7.062 -25.13,4.229c-1.1,-3.119 -1.65,-5.484 -1.65,-5.484c13.21,-14.22 23.16,-9.74 27.44,-6.633c4.31,3.105 3.44,26.789 3.44,26.789Z" style="fill:#d6b496;fill-rule:nonzero;"/><path d="M133.32,141.306c0,4.58 -3.71,8.293 -8.29,8.293c-4.58,0 -8.29,-3.713 -8.29,-8.293c0,-4.581 3.71,-8.294 8.29,-8.294c4.58,0 8.29,3.713 8.29,8.294Z" style="fill:#482315;fill-rule:nonzero;"/><path d="M124.64,146.829c-2.39,-0.198 -4.23,-2.615 -4.01,-5.273c0.21,-2.656 2.42,-4.735 4.82,-4.534c2.39,0.196 4.23,2.611 4.02,5.268c-0.22,2.657 -2.43,4.74 -4.83,4.539Z" style="fill:#7e3a22;fill-rule:nonzero;"/><path d="M124.85,145.871c-1.67,-0.142 -3.4,-1.971 -3.21,-4.224c0.19,-2.26 2.19,-3.786 3.85,-3.648c1.67,0.141 3.4,1.978 3.21,4.231c-0.18,2.256 -2.19,3.778 -3.85,3.641Z" style="fill:#211a10;fill-rule:nonzero;"/><path d="M123.5,140.313c-0.07,0.814 -0.9,1.409 -1.86,1.33c-0.96,-0.081 -1.68,-0.809 -1.62,-1.619c0.07,-0.818 0.9,-1.413 1.86,-1.334c0.96,0.077 1.69,0.805 1.62,1.623Z" style="fill:#fff;fill-rule:nonzero;"/><path d="M128.88,145.023c-0.04,0.405 -0.45,0.704 -0.93,0.663c-0.48,-0.037 -0.84,-0.404 -0.81,-0.809c0.03,-0.405 0.45,-0.704 0.93,-0.664c0.48,0.038 0.84,0.401 0.81,0.81Z" style="fill:#fff;fill-rule:nonzero;"/><path d="M154.17,196.192" style="fill:#ba907b;fill-rule:nonzero;"/><path d="M154.17,196.192" style="fill:#ba907b;fill-rule:nonzero;"/><path d="M150.51,193.432c-0.11,-0.022 -0.21,-0.043 -0.32,-0.067c0.11,0.023 0.2,0.042 0.32,0.067Z" style="fill:#ba907b;fill-rule:nonzero;"/><path d="M154.17,193.235" style="fill:#ba907b;fill-rule:nonzero;"/><path d="M149.7,193.252c-0.1,-0.025 -0.18,-0.052 -0.28,-0.078l-0.01,0.004c0,0 0.11,0.03 0.29,0.074Z" style="fill:#ba907b;fill-rule:nonzero;"/><path d="M154.17,193.235" style="fill:#ba907b;fill-rule:nonzero;"/><path d="M154.06,195.821" style="fill:#bc917b;fill-rule:nonzero;"/><path d="M154.06,195.821" style="fill:#bc917b;fill-rule:nonzero;"/><path d="M150.13,192.863c-0.11,-0.024 -0.22,-0.045 -0.33,-0.071c0.1,0.024 0.2,0.045 0.33,0.071Z" style="fill:#bc917b;fill-rule:nonzero;"/><path d="M154.06,192.652" style="fill:#bc917b;fill-rule:nonzero;"/><path d="M149.27,192.67c-0.11,-0.026 -0.2,-0.056 -0.3,-0.083l-0.01,0.005c0,0 0.11,0.031 0.31,0.078Z" style="fill:#bc917b;fill-rule:nonzero;"/><path d="M154.06,192.652" style="fill:#bc917b;fill-rule:nonzero;"/><path d="M153.81,194.979" style="fill:#bc917b;fill-rule:nonzero;"/><path d="M153.81,194.979" style="fill:#bc917b;fill-rule:nonzero;"/><path d="M149.88,192.021c-0.11,-0.024 -0.22,-0.045 -0.33,-0.071c0.11,0.024 0.2,0.044 0.33,0.071Z" style="fill:#bc917b;fill-rule:nonzero;"/><path d="M153.81,191.81" style="fill:#bc917b;fill-rule:nonzero;"/><path d="M149.02,191.828c-0.11,-0.026 -0.2,-0.055 -0.3,-0.083l-0.01,0.004c0,0 0.11,0.032 0.31,0.079Z" style="fill:#bc917b;fill-rule:nonzero;"/><path d="M153.81,191.81" style="fill:#bc917b;fill-rule:nonzero;"/><path d="M154.45,194.765" style="fill:#bc917b;fill-rule:nonzero;"/><path d="M154.45,194.765" style="fill:#bc917b;fill-rule:nonzero;"/><path d="M150.65,191.906c-0.11,-0.023 -0.21,-0.044 -0.32,-0.069c0.1,0.024 0.2,0.043 0.32,0.069Z" style="fill:#bc917b;fill-rule:nonzero;"/><path d="M154.45,191.702" style="fill:#bc917b;fill-rule:nonzero;"/><path d="M149.82,191.719c-0.1,-0.025 -0.19,-0.053 -0.29,-0.08l-0.01,0.005c0,0 0.11,0.03 0.3,0.075Z" style="fill:#bc917b;fill-rule:nonzero;"/><path d="M154.45,191.702" style="fill:#bc917b;fill-rule:nonzero;"/><path d="M200.23,130.781c0,0 -4.91,20.135 -13.33,21.778c-8.43,1.643 -17.55,-1.623 -17.55,-1.623c0,0 -0.87,-23.664 3.44,-26.756c4.31,-3.105 14.25,-7.593 27.44,6.601Z" style="fill:#fff;fill-rule:nonzero;"/><path d="M169.34,150.873c0,0 0.19,0.057 0.62,0.237c0.11,-7.258 0.78,-17.227 3.48,-19.137c4,-2.933 13.05,-7.062 25.14,4.229c1.09,-3.119 1.64,-5.484 1.64,-5.484c-13.21,-14.22 -23.16,-9.74 -27.43,-6.633c-4.32,3.105 -3.45,26.788 -3.45,26.788Z" style="fill:#d6b496;fill-rule:nonzero;"/><path d="M174.33,140.62c0,4.581 3.71,8.294 8.29,8.294c4.58,0 8.29,-3.713 8.29,-8.294c0,-4.58 -3.71,-8.294 -8.29,-8.294c-4.58,0 -8.29,3.714 -8.29,8.294Z" style="fill:#482315;fill-rule:nonzero;"/><path d="M183.01,146.144c2.39,-0.198 4.23,-2.615 4.01,-5.273c-0.21,-2.656 -2.42,-4.736 -4.82,-4.534c-2.39,0.196 -4.23,2.611 -4.02,5.267c0.22,2.658 2.43,4.74 4.83,4.54Z" style="fill:#7e3a22;fill-rule:nonzero;"/><path d="M182.8,145.185c1.67,-0.142 3.4,-1.97 3.21,-4.223c-0.19,-2.26 -2.19,-3.786 -3.85,-3.648c-1.67,0.141 -3.4,1.978 -3.21,4.231c0.18,2.255 2.19,3.778 3.85,3.64Z" style="fill:#211a10;fill-rule:nonzero;"/><path d="M184.15,139.628c0.07,0.814 0.9,1.409 1.86,1.331c0.96,-0.082 1.69,-0.81 1.62,-1.62c-0.07,-0.818 -0.9,-1.413 -1.86,-1.335c-0.96,0.078 -1.69,0.806 -1.62,1.624Z" style="fill:#fff;fill-rule:nonzero;"/><path d="M178.77,144.338c0.04,0.405 0.45,0.704 0.93,0.663c0.48,-0.037 0.84,-0.404 0.81,-0.81c-0.03,-0.404 -0.45,-0.704 -0.93,-0.663c-0.48,0.037 -0.84,0.401 -0.81,0.81Z" style="fill:#fff;fill-rule:nonzero;"/><path d="M143.36,120.858c-0.06,-0.098 -1.59,-2.423 -4.72,-4.82c-1.96,-1.503 -3.87,-2.646 -5.87,-3.498c-2.42,-1.017 -5.02,-1.736 -7.55,-2.081c-2.28,-0.254 -4.81,-0.187 -7.77,0.211c-2.25,0.429 -4.45,1.099 -6.32,1.922c-1.33,0.459 -2.38,1.102 -3.22,1.62c-0.33,0.199 -0.62,0.378 -0.92,0.538l-4.02,2.531l4.64,-1.09c0.21,-0.055 0.45,-0.116 0.7,-0.183c0.96,-0.254 2.15,-0.571 3.55,-0.776c0.33,-0.048 0.67,-0.114 1.01,-0.182c0.58,-0.117 1.18,-0.237 1.81,-0.267c0.71,-0.047 1.44,-0.099 2.18,-0.153l0.98,-0.07c2.57,-0.032 4.74,0.163 6.67,0.607c2.1,0.363 4.27,1.043 6.25,1.963c1.88,0.897 3.68,1.787 5.08,2.817c2.83,1.891 4.41,3.468 4.43,3.483l0,0.001c0.38,0.392 0.91,0.594 1.43,0.594c0.38,0 0.76,-0.108 1.1,-0.328c0.93,-0.611 1.19,-1.87 0.6,-2.778l-0.04,-0.061Z" style="fill:#cd4c27;fill-rule:nonzero;"/><path d="M201.06,114.731c-0.27,-0.141 -0.56,-0.321 -0.88,-0.52c-0.85,-0.517 -1.9,-1.16 -3.19,-1.603c-1.91,-0.839 -4.11,-1.509 -6.39,-1.943c-2.92,-0.393 -5.46,-0.461 -7.75,-0.205c-2.51,0.344 -5.12,1.063 -7.54,2.081c-1.97,0.84 -3.94,2.016 -5.87,3.497c-3.07,2.353 -4.59,4.637 -4.71,4.813l-0.03,0.041c-0.52,0.798 -0.41,1.866 0.26,2.538c0.39,0.385 0.89,0.596 1.43,0.596c0.54,0 1.05,-0.212 1.43,-0.596l0.02,-0.017c0.14,-0.148 1.68,-1.644 4.42,-3.48c1.38,-1.014 3.18,-1.905 5.05,-2.801c2,-0.922 4.16,-1.602 6.3,-1.971c1.9,-0.438 4.07,-0.629 6.61,-0.602l1.02,0.073c0.74,0.053 1.46,0.104 2.17,0.152c0.62,0.029 1.23,0.149 1.81,0.266c0.34,0.068 0.67,0.134 1,0.182c1.4,0.205 2.6,0.522 3.56,0.776c0.25,0.067 0.48,0.129 0.7,0.184l4.64,1.09l-4.06,-2.551Z" style="fill:#cd4c27;fill-rule:nonzero;"/><path d="M151.17,203.2" style="fill:#be927b;fill-rule:nonzero;"/><path d="M151.17,203.2" style="fill:#be927b;fill-rule:nonzero;"/><path d="M147.53,200.459c-0.1,-0.022 -0.21,-0.042 -0.31,-0.066c0.1,0.023 0.19,0.041 0.31,0.066Z" style="fill:#be927b;fill-rule:nonzero;"/><path d="M151.17,200.263" style="fill:#be927b;fill-rule:nonzero;"/><path d="M146.73,200.28c-0.1,-0.024 -0.18,-0.051 -0.28,-0.077l-0.01,0.004c0,0 0.11,0.029 0.29,0.073Z" style="fill:#be927b;fill-rule:nonzero;"/><path d="M151.17,200.263" style="fill:#be927b;fill-rule:nonzero;"/><path d="M150.94,202.42" style="fill:#be927b;fill-rule:nonzero;"/><path d="M150.94,202.42" style="fill:#be927b;fill-rule:nonzero;"/><path d="M147.3,199.679c-0.1,-0.022 -0.21,-0.042 -0.31,-0.066c0.1,0.022 0.19,0.041 0.31,0.066Z" style="fill:#be927b;fill-rule:nonzero;"/><path d="M150.94,199.483" style="fill:#be927b;fill-rule:nonzero;"/><path d="M146.5,199.5c-0.1,-0.025 -0.18,-0.052 -0.28,-0.077l-0.01,0.004c0,0 0.11,0.029 0.29,0.073Z" style="fill:#be927b;fill-rule:nonzero;"/><path d="M150.94,199.483" style="fill:#be927b;fill-rule:nonzero;"/><path d="M151.53,202.222" style="fill:#be927b;fill-rule:nonzero;"/><path d="M151.53,202.222" style="fill:#be927b;fill-rule:nonzero;"/><path d="M148.01,199.572c-0.1,-0.021 -0.2,-0.041 -0.29,-0.064c0.09,0.022 0.18,0.04 0.29,0.064Z" style="fill:#be927b;fill-rule:nonzero;"/><path d="M151.53,199.383" style="fill:#be927b;fill-rule:nonzero;"/><path d="M147.24,199.399c-0.09,-0.023 -0.18,-0.05 -0.27,-0.074l-0.01,0.004c0,0 0.11,0.028 0.28,0.07Z" style="fill:#be927b;fill-rule:nonzero;"/><path d="M151.53,199.383" style="fill:#be927b;fill-rule:nonzero;"/><path d="M141.27,201.969c-0.23,-3.2 8.92,0.67 11.92,0.762c2.4,0.081 9.6,-0.474 10.27,-0.728c5.03,-1.883 -0.28,5.349 -10.42,5.73c-4.64,0.185 -11.63,-3.824 -11.77,-5.764Z" style="fill:#f0d2ad;fill-rule:nonzero;"/><path d="M171.44,194.283c-5.8,-1.086 -18.03,0.073 -18.03,0.073c-10.08,1.675 -17.97,-0.107 -18.03,-0.038c-0.24,0.024 8.05,11.023 17.89,10.516c9.84,0.507 18.41,-10.516 18.17,-10.551Z" style="fill:#c2646e;fill-rule:nonzero;"/><path d="M159.24,191.961c-2.61,-0.289 -4.48,1.597 -5.82,1.459c-1.36,0.127 -3.14,-1.083 -5.77,-1.109c-3.7,-0.036 -5.5,-0.361 -12.27,2.007c0.24,0.462 4.58,2.972 12.7,3.11c0.11,0 2.29,1.236 5.39,1.214c1.94,-0.012 4.6,-1.306 4.7,-1.306c8.13,-0.127 13.1,-2.544 13.33,-2.994c-8.95,-2.773 -8.24,-2.417 -12.26,-2.381Z" style="fill:#d87475;fill-rule:nonzero;"/><path d="M200.22,272.925l0,27.137l-45.94,0l0,-43.103c5.37,-0.103 11.73,-1.44 18.89,-5.061c0.14,-0.268 0.41,-0.453 0.7,-0.412c1.66,0.165 6.33,1.811 10.39,4.136c1.83,1.028 3.49,2.181 4.93,3.25c2.7,2.017 4.51,3.745 4.51,3.745c0,0 6.52,6.028 6.52,10.308Z" style="fill:#c42029;fill-rule:nonzero;"/><path d="M154.28,256.959l0,43.103l-46.5,0l0,-18.434c-0.02,-0.515 -0.02,-1.029 -0.02,-1.502l0,-1.358c0.56,-12.715 8.68,-17.488 8.68,-17.488c0.54,-0.453 1.18,-0.988 1.94,-1.564c1.62,-1.276 3.72,-2.798 6,-4.094c4.9,-2.798 10.68,-4.609 11.01,-4.053c0,0 7.02,5.658 18.89,5.39Z" style="fill:#a91e22;fill-rule:nonzero;"/><path d="M132.87,282.138l-3.46,-3.712l-3.92,4.198l-3.92,-4.198l-3.47,3.712l3.92,4.204l-3.92,4.201l3.47,3.718l3.92,-4.202l3.92,4.202l3.46,-3.718l-3.92,-4.201l3.92,-4.204Z" style="fill:#c42029;"/><path d="M152.38,282.138l-3.46,-3.712l-3.92,4.198l-3.92,-4.198l-3.46,3.712l3.91,4.204l-3.91,4.201l3.46,3.718l3.92,-4.202l3.92,4.202l3.46,-3.718l-3.91,-4.201l3.91,-4.204Z" style="fill:#c42029;"/><path d="M171.9,282.138l-3.47,-3.712l-3.92,4.198l-3.92,-4.198l-3.46,3.712l3.92,4.204l-3.92,4.201l3.46,3.718l3.92,-4.202l3.92,4.202l3.47,-3.718l-3.92,-4.201l3.92,-4.204Z" style="fill:#a91e22;"/><path d="M191.41,282.138l-3.47,-3.712l-3.92,4.198l-3.92,-4.198l-3.46,3.712l3.91,4.204l-3.91,4.201l3.46,3.718l3.92,-4.202l3.92,4.202l3.47,-3.718l-3.92,-4.201l3.92,-4.204Z" style="fill:#a91e22;"/></g><path d="M100.72,164.332c-2.28,-1.922 -4.78,-5.322 -6.41,-11.511c0.2,-0.085 0.4,-0.17 0.6,-0.254c0.02,-0.01 0.05,-0.021 0.07,-0.031c1.13,-0.47 2.29,-0.923 3.47,-1.353c0.26,1.161 0.53,2.3 0.82,3.412c0.57,2.193 1.04,5.805 1.45,9.737Z" style="fill:url(#_Linear1);"/><path d="M114.92,167.962c-4.3,0 -7.91,-0.644 -9.79,-1.211c-0.99,-0.321 -2.63,-0.92 -4.41,-2.419c-0.41,-3.932 -0.88,-7.544 -1.45,-9.737c-0.29,-1.112 -0.56,-2.251 -0.82,-3.412c4.77,-1.732 9.95,-3.102 15.44,-3.782c1.91,2.977 4.21,5.326 6.86,5.843c1.7,0.33 3.42,0.462 5.09,0.462c6.64,0.001 12.46,-2.085 12.46,-2.085c0,0 0,-0.02 0,-0.059c0.01,-0.002 0.01,-0.003 0.01,-0.003c0,0 0.03,-0.756 0.05,-2.016c1.16,0.365 2.32,0.773 3.48,1.225c0.14,0.053 0.27,0.106 0.41,0.16c-5.06,13.918 -17.86,17.035 -27.33,17.034Z" style="fill:url(#_Linear2);"/><path d="M125.84,153.706c-1.67,0 -3.39,-0.132 -5.09,-0.462c-2.65,-0.517 -4.95,-2.866 -6.86,-5.843c1.67,-0.207 3.37,-0.35 5.09,-0.419c1.52,1.611 3.67,2.617 6.05,2.617c2.04,0 3.9,-0.733 5.34,-1.951c2.4,0.384 4.82,0.933 7.26,1.668c0.03,0.85 0.04,1.681 0.06,2.479c0.37,-0.157 0.57,-0.219 0.61,-0.233c0,0.039 0,0.059 0,0.059c0,0 -5.82,2.086 -12.46,2.085Z" style="fill:url(#_Linear3);"/><path d="M137.69,151.795c-0.02,-0.798 -0.03,-1.629 -0.06,-2.479c0.24,0.074 0.49,0.149 0.73,0.227c-0.02,1.26 -0.05,2.016 -0.05,2.016c0,0 0,0.001 -0.01,0.003c-0.04,0.014 -0.24,0.076 -0.61,0.233Z" style="fill:url(#_Linear4);"/><path d="M125.03,149.599c-2.38,0 -4.53,-1.006 -6.05,-2.617c0.78,-0.031 1.57,-0.047 2.35,-0.048l0.05,0c2.94,0.001 5.94,0.224 8.99,0.714c-1.44,1.218 -3.3,1.951 -5.34,1.951Z" style="fill:url(#_Linear5);"/><path d="M205.61,162.786c0.37,-3.32 0.79,-6.289 1.28,-8.191c0.25,-0.958 0.49,-1.935 0.72,-2.93c0.74,0.286 1.47,0.579 2.2,0.88c0,0.003 0.01,0.006 0.02,0.009c0.21,0.089 0.42,0.177 0.63,0.267c-1.26,4.789 -3.05,7.908 -4.85,9.965Z" style="fill:url(#_Linear6);"/><path d="M189.84,167.962c-9.46,0 -22.26,-3.116 -27.32,-17.034c0.11,-0.044 0.22,-0.088 0.33,-0.132c2.16,-0.842 4.31,-1.53 6.44,-2.08c0.02,1.344 0.05,2.157 0.05,2.157c0,0 0,0.001 0.01,0.003c0,0.039 0,0.06 0,0.06c0,0 5.82,2.085 12.46,2.085c1.67,0 3.39,-0.132 5.09,-0.462c2.34,-0.457 4.42,-2.351 6.19,-4.845c5.16,0.822 10.04,2.235 14.52,3.951c-0.23,0.995 -0.47,1.972 -0.72,2.93c-0.49,1.902 -0.91,4.871 -1.28,8.191c-2.33,2.673 -4.7,3.551 -5.97,3.965c-1.88,0.567 -5.49,1.211 -9.8,1.211Z" style="fill:url(#_Linear7);"/><path d="M181.81,153.021c-6.64,0 -12.46,-2.085 -12.46,-2.085c0,0 0,-0.021 0,-0.06c0.04,0.014 0.24,0.076 0.61,0.234c0.02,-0.83 0.04,-1.695 0.07,-2.58c2.55,-0.623 5.08,-1.049 7.58,-1.303c1.39,1.058 3.13,1.687 5.01,1.687c1.96,0 3.76,-0.68 5.18,-1.817c1.79,0.132 3.56,0.341 5.29,0.617c-1.77,2.494 -3.85,4.388 -6.19,4.845c-1.7,0.33 -3.42,0.462 -5.09,0.462Z" style="fill:url(#_Linear8);"/><path d="M169.96,151.11c-0.37,-0.158 -0.57,-0.22 -0.61,-0.234c-0.01,-0.002 -0.01,-0.003 -0.01,-0.003c0,0 -0.03,-0.813 -0.05,-2.157c0.24,-0.064 0.49,-0.126 0.74,-0.186c-0.03,0.885 -0.05,1.75 -0.07,2.58Z" style="fill:url(#_Linear9);"/><path d="M182.62,148.914c-1.88,0 -3.62,-0.629 -5.01,-1.687c1.95,-0.199 3.88,-0.292 5.78,-0.293l0.04,0c1.47,0.001 2.93,0.057 4.37,0.163c-1.42,1.137 -3.22,1.817 -5.18,1.817Z" style="fill:url(#_Linear10);"/><path d="M94.31,152.821c-0.35,-1.306 -0.65,-2.728 -0.91,-4.294c-0.3,-1.837 -0.54,-3.851 -0.68,-6.083c-0.43,-6.718 0.9,-10.407 3.45,-12.559c-0.04,7.404 0.84,14.714 2.28,21.297c-1.18,0.431 -2.34,0.884 -3.47,1.354c-0.02,0.01 -0.05,0.021 -0.07,0.031c-0.2,0.084 -0.4,0.169 -0.6,0.254Z" style="fill:url(#_Linear11);"/><path d="M98.45,151.182c-1.44,-6.583 -2.32,-13.893 -2.28,-21.297c2.74,-2.304 6.87,-2.844 11.74,-3.451c1.91,-0.23 3.76,-0.377 5.54,-0.459c-1.92,1.394 -3.93,3.177 -6.02,5.428c0,0 0,0.015 0.01,0.045c-0.01,0.006 -0.01,0.012 -0.02,0.018c0,0 2.3,9.455 6.47,15.935c-5.49,0.679 -10.67,2.05 -15.44,3.781Zm43.8,-0.254c-0.14,-0.054 -0.27,-0.107 -0.41,-0.16c-1.16,-0.452 -2.32,-0.86 -3.48,-1.225c0.08,-4.377 0.07,-14.83 -1.47,-20.776c3.2,1.105 5.92,2.566 6.41,4.373c1.08,3.855 1.39,8.214 0.16,13.663c-0.13,0.595 -0.29,1.161 -0.44,1.724c-0.23,0.836 -0.49,1.633 -0.77,2.401Z" style="fill:url(#_Linear12);"/><path d="M137.63,149.316c-2.44,-0.735 -4.86,-1.284 -7.26,-1.668c1.81,-1.522 2.95,-3.798 2.95,-6.342c0,-4.581 -3.71,-8.294 -8.29,-8.294c-4.58,0 -8.29,3.713 -8.29,8.294c0,2.196 0.85,4.192 2.24,5.676c-1.72,0.069 -3.42,0.212 -5.09,0.419c-4.17,-6.48 -6.47,-15.935 -6.47,-15.935c0.01,-0.006 0.01,-0.012 0.02,-0.018c0.08,0.339 0.62,2.57 1.64,5.439c6.06,-5.666 11.36,-7.448 15.64,-7.448c4.25,0 7.5,1.758 9.49,3.219c2.4,1.7 3.2,9.783 3.42,16.658Z" style="fill:url(#_Linear13);"/><path d="M138.36,149.543c-0.24,-0.078 -0.49,-0.153 -0.73,-0.227c-0.22,-6.875 -1.02,-14.958 -3.42,-16.658c-1.99,-1.461 -5.24,-3.219 -9.49,-3.219c-4.28,0 -9.58,1.782 -15.64,7.448c-1.02,-2.869 -1.56,-5.1 -1.64,-5.439c-0.01,-0.03 -0.01,-0.045 -0.01,-0.045c2.09,-2.251 4.1,-4.034 6.02,-5.428c1.29,-0.06 2.54,-0.086 3.74,-0.086c3.79,0 7.12,0.259 9.73,0.545c2.42,0.349 6.48,1.131 9.97,2.333c1.54,5.946 1.55,16.399 1.47,20.776Z" style="fill:url(#_Linear14);"/><path d="M130.37,147.648c-3.05,-0.49 -6.05,-0.713 -8.99,-0.714c-0.01,0 -0.02,0 -0.02,0c-0.01,0 -0.02,0 -0.03,0c-0.78,0.001 -1.57,0.017 -2.35,0.048c-1.39,-1.484 -2.24,-3.48 -2.24,-5.676c0,-4.581 3.71,-8.294 8.29,-8.294c4.58,0 8.29,3.713 8.29,8.294c0,2.544 -1.14,4.82 -2.95,6.342Zm-9.71,-6.361c-0.01,0.089 -0.02,0.179 -0.03,0.269c-0.22,2.658 1.62,5.075 4.01,5.273c0.11,0.009 0.22,0.013 0.33,0.013c1.06,0 2.07,-0.442 2.86,-1.172c0.04,0.008 0.08,0.013 0.12,0.016c0.03,0.003 0.06,0.004 0.08,0.004c0.45,0 0.82,-0.287 0.85,-0.667c0.01,-0.17 -0.04,-0.331 -0.14,-0.465c0.4,-0.666 0.66,-1.439 0.73,-2.268c0.21,-2.657 -1.63,-5.072 -4.02,-5.268c-0.11,-0.009 -0.22,-0.014 -0.32,-0.014c-1.29,0 -2.5,0.65 -3.35,1.676c-0.02,-0.001 -0.05,-0.001 -0.07,-0.001c-0.89,0 -1.63,0.572 -1.69,1.341c-0.04,0.494 0.21,0.958 0.64,1.263Z" style="fill:url(#_Linear15);"/><path d="M124.97,146.842c-0.11,0 -0.22,-0.004 -0.33,-0.013c-2.39,-0.198 -4.23,-2.615 -4.01,-5.273c0.01,-0.09 0.02,-0.18 0.03,-0.269c0.27,0.195 0.6,0.325 0.98,0.356c0,0.002 0,0.003 0,0.004c-0.19,2.253 1.54,4.082 3.21,4.224c0.07,0.005 0.14,0.008 0.21,0.008c0.71,0 1.46,-0.285 2.1,-0.786c0.07,0.28 0.33,0.511 0.67,0.577c-0.79,0.73 -1.8,1.172 -2.86,1.172Zm3.77,-2.284c-0.15,-0.189 -0.39,-0.323 -0.67,-0.345c-0.03,-0.002 -0.05,-0.003 -0.08,-0.004c0.39,-0.555 0.65,-1.226 0.71,-1.979c0.19,-2.253 -1.54,-4.09 -3.21,-4.231c-0.07,-0.006 -0.14,-0.009 -0.21,-0.009c-0.82,0 -1.71,0.39 -2.41,1.061c-0.27,-0.199 -0.61,-0.331 -0.99,-0.361c-0.03,-0.003 -0.06,-0.005 -0.1,-0.006c0.85,-1.026 2.06,-1.676 3.35,-1.676c0.1,0 0.21,0.005 0.32,0.014c2.39,0.196 4.23,2.611 4.02,5.268c-0.07,0.829 -0.33,1.602 -0.73,2.268Z" style="fill:url(#_Linear16);"/><path d="M125.06,145.879c-0.07,0 -0.14,-0.003 -0.21,-0.008c-1.67,-0.142 -3.4,-1.971 -3.21,-4.224c0,-0.001 0,-0.002 0,-0.004c0.05,0.005 0.11,0.007 0.17,0.007c0.88,0 1.63,-0.572 1.69,-1.337c0.04,-0.495 -0.21,-0.957 -0.63,-1.262c0.7,-0.671 1.59,-1.061 2.41,-1.061c0.07,0 0.14,0.003 0.21,0.009c1.67,0.141 3.4,1.978 3.21,4.231c-0.06,0.753 -0.32,1.424 -0.71,1.979l-0.01,0c-0.44,0 -0.81,0.288 -0.84,0.668c-0.01,0.074 0,0.146 0.02,0.216c-0.64,0.501 -1.39,0.786 -2.1,0.786Z" style="fill:url(#_Linear17);"/><path d="M121.81,141.65c-0.06,0 -0.12,-0.002 -0.17,-0.007c-0.38,-0.031 -0.71,-0.161 -0.98,-0.356c-0.43,-0.305 -0.68,-0.769 -0.64,-1.263c0.06,-0.769 0.8,-1.341 1.69,-1.341c0.02,0 0.05,0 0.07,0.001c0.04,0.001 0.07,0.003 0.1,0.006c0.38,0.03 0.72,0.162 0.99,0.361c0.42,0.305 0.67,0.767 0.63,1.262c-0.06,0.765 -0.81,1.337 -1.69,1.337Z" style="fill:url(#_Linear18);"/><path d="M128.03,145.69c-0.02,0 -0.05,-0.001 -0.08,-0.004c-0.04,-0.003 -0.08,-0.008 -0.12,-0.016c-0.34,-0.066 -0.6,-0.297 -0.67,-0.577c-0.02,-0.07 -0.03,-0.142 -0.02,-0.216c0.03,-0.38 0.4,-0.668 0.84,-0.668l0.01,0c0.03,0.001 0.05,0.002 0.08,0.004c0.28,0.022 0.52,0.156 0.67,0.345c0.1,0.134 0.15,0.295 0.14,0.465c-0.03,0.38 -0.4,0.667 -0.85,0.667Z" style="fill:url(#_Linear19);"/><clipPath id="_clip20"><path d="M94.31,152.821c0.2,-0.085 0.4,-0.17 0.6,-0.254c-0.2,0.084 -0.4,0.169 -0.6,0.254Zm0.67,-0.285c1.13,-0.47 2.29,-0.923 3.47,-1.354l0,0.001c-1.18,0.43 -2.34,0.883 -3.47,1.353Z"/></clipPath><g clip-path="url(#_clip20)"></g><clipPath id="_clip21"><path d="M98.45,151.183l0,-0.001c4.77,-1.731 9.95,-3.102 15.44,-3.781c-5.49,0.68 -10.67,2.05 -15.44,3.782Z"/></clipPath><g clip-path="url(#_clip21)"></g><clipPath id="_clip22"><path d="M113.89,147.401c1.67,-0.207 3.37,-0.35 5.09,-0.419c-1.72,0.069 -3.42,0.212 -5.09,0.419Z"/></clipPath><g clip-path="url(#_clip22)"></g><clipPath id="_clip23"><path d="M118.98,146.982c0.78,-0.031 1.57,-0.047 2.35,-0.048c-0.78,0.001 -1.57,0.017 -2.35,0.048Z"/></clipPath><g clip-path="url(#_clip23)"></g><path d="M210.46,152.821c-0.21,-0.09 -0.42,-0.178 -0.63,-0.267c-0.01,-0.003 -0.02,-0.006 -0.02,-0.009c-0.73,-0.301 -1.46,-0.595 -2.2,-0.88c1.42,-6.25 2.32,-13.179 2.4,-20.238c1.61,2.262 2.38,5.685 2.04,11.017c-0.15,2.232 -0.38,4.246 -0.68,6.083c-0.26,1.566 -0.57,2.988 -0.91,4.294Z" style="fill:url(#_Linear24);"/><path d="M207.61,151.665c-4.48,-1.716 -9.36,-3.129 -14.52,-3.951c4.59,-6.456 7.14,-16.933 7.14,-16.933c-0.01,-0.006 -0.01,-0.011 -0.02,-0.018c0.01,-0.03 0.01,-0.045 0.01,-0.045c-1.62,-1.749 -3.2,-3.214 -4.72,-4.434c0.45,0.045 0.9,0.095 1.36,0.15c5.81,0.724 10.57,1.353 13.15,4.993c-0.08,7.059 -0.98,13.988 -2.4,20.238Zm-45.09,-0.737c-0.28,-0.768 -0.54,-1.565 -0.77,-2.401c-0.15,-0.563 -0.31,-1.129 -0.44,-1.724c-1.24,-5.449 -0.93,-9.808 0.16,-13.663c0.64,-2.343 5.01,-4.104 9.35,-5.263c-1.58,5.847 -1.6,16.33 -1.53,20.838c-2.13,0.551 -4.28,1.239 -6.44,2.081c-0.11,0.044 -0.22,0.088 -0.33,0.132Z" style="fill:url(#_Linear25);"/><path d="M170.03,148.53c0.22,-6.852 1.02,-14.866 3.41,-16.557c1.99,-1.461 5.24,-3.219 9.49,-3.219c4.28,0 9.58,1.782 15.65,7.448c1,-2.867 1.55,-5.097 1.63,-5.439c0.01,0.007 0.01,0.012 0.02,0.018c0,0 -2.55,10.477 -7.14,16.933c-1.73,-0.276 -3.5,-0.485 -5.29,-0.617c1.9,-1.52 3.11,-3.856 3.11,-6.477c0,-4.58 -3.71,-8.294 -8.29,-8.294c-4.58,0 -8.29,3.714 -8.29,8.294c0,2.696 1.28,5.092 3.28,6.607c-2.5,0.254 -5.03,0.68 -7.58,1.303Z" style="fill:url(#_Linear26);"/><path d="M169.29,148.715c-0.07,-4.508 -0.05,-14.991 1.53,-20.838c2.64,-0.706 5.27,-1.189 7.03,-1.443c2.61,-0.286 5.93,-0.545 9.72,-0.545c2.47,0 5.14,0.11 7.93,0.395c1.52,1.22 3.1,2.685 4.72,4.434c0,0 0,0.015 -0.01,0.045c-0.08,0.342 -0.63,2.572 -1.63,5.439c-6.07,-5.666 -11.37,-7.448 -15.65,-7.448c-4.25,0 -7.5,1.758 -9.49,3.219c-2.39,1.691 -3.19,9.705 -3.41,16.557c-0.25,0.06 -0.5,0.122 -0.74,0.185Z" style="fill:url(#_Linear27);"/><path d="M177.61,147.227c-2,-1.515 -3.28,-3.911 -3.28,-6.607c0,-4.58 3.71,-8.294 8.29,-8.294c4.58,0 8.29,3.714 8.29,8.294c0,2.621 -1.21,4.957 -3.11,6.477c-1.44,-0.106 -2.89,-0.162 -4.37,-0.163c0,0 -0.01,0 -0.02,0c-0.01,0 -0.01,0 -0.02,0c-1.9,0.001 -3.83,0.094 -5.78,0.293Zm2.21,-2.242c0.79,0.73 1.8,1.172 2.87,1.172c0.1,0 0.21,-0.004 0.32,-0.013c2.39,-0.198 4.23,-2.615 4.01,-5.273c-0.01,-0.09 -0.02,-0.18 -0.03,-0.268c0.43,-0.305 0.68,-0.769 0.64,-1.264c-0.07,-0.769 -0.8,-1.342 -1.69,-1.342c-0.02,0 -0.05,0 -0.07,0.001c-0.85,-1.026 -2.06,-1.675 -3.35,-1.675c-0.1,0 -0.21,0.005 -0.32,0.014c-2.39,0.196 -4.23,2.611 -4.02,5.267c0.07,0.83 0.33,1.603 0.73,2.269c-0.1,0.134 -0.15,0.296 -0.14,0.465c0.04,0.38 0.41,0.667 0.84,0.667c0.03,0 0.06,-0.001 0.09,-0.004c0.04,-0.003 0.08,-0.008 0.12,-0.016Z" style="fill:url(#_Linear28);"/><path d="M182.69,146.157c-1.07,0 -2.08,-0.442 -2.87,-1.172c0.34,-0.067 0.6,-0.298 0.67,-0.577c0.64,0.501 1.39,0.786 2.1,0.786c0.07,0 0.14,-0.003 0.21,-0.009c1.67,-0.142 3.4,-1.97 3.21,-4.223c0,-0.001 0,-0.002 0,-0.003c0.38,-0.032 0.71,-0.162 0.98,-0.356c0.01,0.088 0.02,0.178 0.03,0.268c0.22,2.658 -1.62,5.075 -4.01,5.273c-0.11,0.009 -0.22,0.013 -0.32,0.013Zm-3.78,-2.284c-0.4,-0.666 -0.66,-1.439 -0.73,-2.269c-0.21,-2.656 1.63,-5.071 4.02,-5.267c0.11,-0.009 0.22,-0.014 0.32,-0.014c1.29,0 2.5,0.649 3.35,1.675c-0.04,0.002 -0.07,0.003 -0.1,0.006c-0.38,0.031 -0.72,0.163 -0.99,0.362c-0.7,-0.671 -1.58,-1.061 -2.41,-1.061c-0.07,0 -0.14,0.003 -0.21,0.009c-1.67,0.141 -3.4,1.978 -3.21,4.231c0.06,0.753 0.32,1.424 0.71,1.979c-0.03,0.001 -0.05,0.002 -0.08,0.004c-0.28,0.022 -0.52,0.156 -0.67,0.345Z" style="fill:url(#_Linear29);"/><path d="M182.59,145.194c-0.71,0 -1.46,-0.285 -2.1,-0.786c0.02,-0.07 0.03,-0.143 0.02,-0.217c-0.03,-0.379 -0.4,-0.667 -0.84,-0.667l-0.01,0c-0.39,-0.555 -0.65,-1.226 -0.71,-1.979c-0.19,-2.253 1.54,-4.09 3.21,-4.231c0.07,-0.006 0.14,-0.009 0.21,-0.009c0.83,0 1.71,0.39 2.41,1.061c-0.42,0.305 -0.67,0.767 -0.63,1.262c0.06,0.765 0.81,1.337 1.69,1.337c0.06,0 0.11,-0.002 0.17,-0.006c0,0.001 0,0.002 0,0.003c0.19,2.253 -1.54,4.081 -3.21,4.223c-0.07,0.006 -0.14,0.009 -0.21,0.009Z" style="fill:url(#_Linear30);"/><path d="M185.84,140.965c-0.88,0 -1.63,-0.572 -1.69,-1.337c-0.04,-0.495 0.21,-0.957 0.63,-1.262c0.27,-0.199 0.61,-0.331 0.99,-0.362c0.03,-0.003 0.06,-0.004 0.1,-0.006c0.02,-0.001 0.05,-0.001 0.07,-0.001c0.89,0 1.62,0.573 1.69,1.342c0.04,0.495 -0.21,0.959 -0.64,1.264c-0.27,0.194 -0.6,0.324 -0.98,0.356c-0.06,0.004 -0.11,0.006 -0.17,0.006Z" style="fill:url(#_Linear31);"/><path d="M179.61,145.005c-0.43,0 -0.8,-0.287 -0.84,-0.667c-0.01,-0.169 0.04,-0.331 0.14,-0.465c0.15,-0.189 0.39,-0.323 0.67,-0.345c0.03,-0.002 0.05,-0.003 0.08,-0.004l0.01,0c0.44,0 0.81,0.288 0.84,0.667c0.01,0.074 0,0.147 -0.02,0.217c-0.07,0.279 -0.33,0.51 -0.67,0.577c-0.04,0.008 -0.08,0.013 -0.12,0.016c-0.03,0.003 -0.06,0.004 -0.09,0.004Z" style="fill:url(#_Linear32);"/><clipPath id="_clip33"><path d="M210.46,152.821c-0.21,-0.09 -0.42,-0.178 -0.63,-0.267c0.21,0.089 0.42,0.177 0.63,0.267Zm-0.65,-0.276c-0.73,-0.301 -1.46,-0.594 -2.2,-0.88c0.74,0.285 1.47,0.579 2.2,0.88Z"/></clipPath><g clip-path="url(#_clip33)"></g><clipPath id="_clip34"><path d="M207.61,151.665c-4.48,-1.716 -9.36,-3.129 -14.52,-3.951c5.16,0.822 10.04,2.235 14.52,3.951Z"/></clipPath><g clip-path="url(#_clip34)"></g><clipPath id="_clip35"><path d="M193.09,147.714c-1.73,-0.276 -3.5,-0.485 -5.29,-0.617c1.79,0.132 3.56,0.341 5.29,0.617Z"/></clipPath><g clip-path="url(#_clip35)"></g><clipPath id="_clip36"><path d="M187.8,147.097c-1.44,-0.106 -2.9,-0.162 -4.37,-0.163c1.48,0.001 2.93,0.057 4.37,0.163Z"/></clipPath><g clip-path="url(#_clip36)"></g><path d="M218.49,126.52c-0.37,-0.786 -7.49,-1.808 -16.75,-2.752c-7.81,-0.708 -20.42,-0.236 -25.35,0.472c-2.05,0.315 -5.72,1.022 -9.4,2.045c-4.05,1.101 -8.09,2.595 -9.77,2.988c-1.62,0.342 -2.89,0.491 -4.23,0.424l0,-0.031c-0.1,0.011 -0.2,0.008 -0.3,0.016c-0.1,-0.008 -0.2,-0.005 -0.31,-0.016c-0.1,0.011 -0.2,0.008 -0.3,0.016c-0.1,-0.008 -0.2,-0.005 -0.3,-0.016l0,0.031c-1.34,0.067 -2.62,-0.082 -4.23,-0.424c-1.68,-0.393 -5.73,-1.887 -9.77,-2.988c-3.68,-1.023 -7.35,-1.73 -9.4,-2.045c-4.93,-0.708 -17.54,-1.18 -25.35,-0.472c-9.26,0.944 -16.38,1.966 -16.75,2.752c-0.23,0.551 -0.79,7.708 -0.05,8.415c0.75,0.786 3.35,2.281 4,4.797c0.21,0.857 0.65,3.518 1.36,6.849c0.23,1.09 0.99,1.848 1.85,1.848c1.12,0 2,-1.303 1.84,-2.764c-0.1,-0.935 -0.19,-1.915 -0.25,-2.944c-0.8,-13.055 5.21,-13.92 13.72,-15.021c6.88,-0.865 13.02,-0.472 17.16,0c4.19,0.629 13.87,2.752 14.8,6.292c0.97,3.617 1.25,7.706 0.14,12.818l-0.01,0.017c-0.17,0.804 0.29,1.602 0.93,1.602l3.02,0c0.42,-1.384 0.8,-2.828 1.08,-4.372c0.7,-4.01 1.72,-6.369 3.44,-7.077c0.68,-0.216 1.71,-0.422 2.77,-0.458c0.1,-0.003 0.2,-0.014 0.3,-0.014c0.11,0 0.21,0.011 0.31,0.014c1.06,0.036 2.09,0.242 2.76,0.458c1.73,0.708 2.75,3.067 3.45,7.077c0.28,1.544 0.65,2.988 1.07,4.372l3.03,0c0.64,0 1.1,-0.798 0.92,-1.602l0,-0.017c-1.12,-5.112 -0.84,-9.201 0.14,-12.818c0.93,-3.54 10.61,-5.663 14.79,-6.292c4.14,-0.472 10.28,-0.865 17.17,0c8.51,1.101 14.51,1.966 13.72,15.021c-0.06,1.029 -0.15,2.009 -0.25,2.944c-0.16,1.461 0.72,2.764 1.84,2.764c0.86,0 1.61,-0.758 1.85,-1.848c0.71,-3.331 1.15,-5.992 1.35,-6.849c0.66,-2.516 3.26,-4.011 4.01,-4.797c0.74,-0.707 0.18,-7.864 -0.05,-8.415Z" style="fill:#36393a;fill-rule:nonzero;"/><path d="M261.85,133.341c-1.05,-1.822 -3.22,-4.4 -5.5,-4.254c-2.92,0.204 -4.95,4.718 -6.24,7.334c-0.75,1.507 -3.29,8.715 -4.93,8.684c-1.5,-0.038 -2.52,-3.743 -3.03,-5.393c-3.58,-11.722 -4.41,-23 -8.33,-33.951c-0.35,-0.997 -0.79,-2.198 -1.32,-3.417c-0.62,-2.663 -1.4,-5.367 -2.36,-8.106c-0.14,-0.39 -0.73,-1.495 -0.73,-1.495c-9.56,-30.728 -24.25,-46.258 -33.19,-53.301c-4.06,-3.192 -8.89,-5.379 -14.02,-6.482c-95.05,-20.443 -104.91,42.13 -104.91,42.13l-0.01,0c-0.8,7.177 -1.66,4.73 -2.87,16.643c-0.62,6.159 -1.26,8.247 -1.64,10.644c-0.64,3.945 -1.81,7.801 -3.43,11.483c-0.56,1.282 -1.03,2.554 -1.4,3.6c-3.92,10.948 -4.74,22.233 -8.34,33.94c-0.5,1.661 -1.52,5.374 -3.02,5.401c-1.64,0.042 -4.18,-7.17 -4.92,-8.676c-1.3,-2.624 -3.33,-7.132 -6.25,-7.331c-2.28,-0.157 -4.44,2.425 -5.49,4.246c-2.74,4.745 -4.39,12.294 -4.55,18.519c0.72,-1.476 1.72,-3.59 3.03,-5.991c0.87,-1.584 2.23,-4.772 4.17,-4.618c1.96,0.142 3.29,5.957 3.98,8.669c1.97,7.913 2.11,12.823 5.29,19.674c1.45,3.111 3.14,7.33 7.39,6.759c6.34,-0.864 8.34,-12.935 18.93,-11.577c2.63,0.334 2.44,0.645 5.22,2.106c0.7,0.364 2.59,1.036 3.37,1.312c11.18,22.198 27.95,35.359 27.95,35.359c0,0 -3.86,-10.326 -7.28,-20.331c-2.66,-7.748 -10.4,-20.743 -10.4,-40.356c0,-19.613 17.27,-43.89 17.27,-43.89c0,0 -7.96,15.236 -9.53,31.968c-1.59,16.759 6.77,29.72 6.77,29.72c0,0 -10.58,-21.757 6.32,-38.002c5.38,-5.166 9.88,-10.548 13.51,-15.481l-0.01,0.042c-4.25,12.843 4.28,23.614 4.28,23.614c0,0 -0.16,-16.46 8.66,-22.052c21.5,-13.63 24.91,-19.261 27.94,-30.212c0.42,-1.511 0.65,-2.892 0.8,-4.219l19.64,31.707c0.93,1.377 2.42,3.725 4.16,6.736c5.1,8.787 12.14,23.191 12.14,35.726c0,19.617 -3.96,32.919 -6.61,40.679c-3.41,9.985 -11.05,20.005 -11.05,20.005c0,0 27.48,-21.585 35.51,-56.092c7.86,1.186 10.08,10.767 15.71,11.535c4.25,0.579 5.94,-3.641 7.38,-6.752c3.2,-6.85 3.33,-11.764 5.31,-19.674c0.67,-2.708 2.01,-8.527 3.97,-8.681c1.94,-0.133 3.3,3.047 4.17,4.631c1.3,2.401 2.31,4.522 3.03,5.979c-0.16,-6.221 -1.81,-13.763 -4.54,-18.511Z" style="fill:#f16624;fill-rule:nonzero;"/></g><defs><linearGradient id="_Linear1" x1="0" y1="0" x2="1" y2="0" gradientUnits="userSpaceOnUse" gradientTransform="matrix(-3.39944,-99.7173,99.7173,-3.39944,119.29,181.596)"><stop offset="0" style="stop-color:#eedcce;stop-opacity:1"/><stop offset="1" style="stop-color:#7a93a3;stop-opacity:1"/></linearGradient><linearGradient id="_Linear2" x1="0" y1="0" x2="1" y2="0" gradientUnits="userSpaceOnUse" gradientTransform="matrix(-3.39944,-99.7173,99.7173,-3.39944,119.29,181.596)"><stop offset="0" style="stop-color:#f3e6d7;stop-opacity:1"/><stop offset="1" style="stop-color:#7d9aaa;stop-opacity:1"/></linearGradient><linearGradient id="_Linear3" x1="0" y1="0" x2="1" y2="0" gradientUnits="userSpaceOnUse" gradientTransform="matrix(-3.39944,-99.7173,99.7173,-3.39944,119.29,181.596)"><stop offset="0" style="stop-color:#fff;stop-opacity:1"/><stop offset="1" style="stop-color:#80a9c6;stop-opacity:1"/></linearGradient><linearGradient id="_Linear4" x1="0" y1="0" x2="1" y2="0" gradientUnits="userSpaceOnUse" gradientTransform="matrix(-3.39944,-99.7173,99.7173,-3.39944,119.29,181.596)"><stop offset="0" style="stop-color:#eee2d6;stop-opacity:1"/><stop offset="1" style="stop-color:#7a98a9;stop-opacity:1"/></linearGradient><linearGradient id="_Linear5" x1="0" y1="0" x2="1" y2="0" gradientUnits="userSpaceOnUse" gradientTransform="matrix(-3.39944,-99.7173,99.7173,-3.39944,119.29,181.596)"><stop offset="0" style="stop-color:#af9990;stop-opacity:1"/><stop offset="1" style="stop-color:#586671;stop-opacity:1"/></linearGradient><linearGradient id="_Linear6" x1="0" y1="0" x2="1" y2="0" gradientUnits="userSpaceOnUse" gradientTransform="matrix(-3.3897,-99.4317,99.4317,-3.3897,187.41,178.886)"><stop offset="0" style="stop-color:#f2e2d6;stop-opacity:1"/><stop offset="1" style="stop-color:#7c97a9;stop-opacity:1"/></linearGradient><linearGradient id="_Linear7" x1="0" y1="0" x2="1" y2="0" gradientUnits="userSpaceOnUse" gradientTransform="matrix(-3.3897,-99.4317,99.4317,-3.3897,187.41,178.886)"><stop offset="0" style="stop-color:#faeedf;stop-opacity:1"/><stop offset="1" style="stop-color:#80a0b1;stop-opacity:1"/></linearGradient><linearGradient id="_Linear8" x1="0" y1="0" x2="1" y2="0" gradientUnits="userSpaceOnUse" gradientTransform="matrix(-3.3897,-99.4317,99.4317,-3.3897,187.41,178.886)"><stop offset="0" style="stop-color:#fff;stop-opacity:1"/><stop offset="1" style="stop-color:#80a9c6;stop-opacity:1"/></linearGradient><linearGradient id="_Linear9" x1="0" y1="0" x2="1" y2="0" gradientUnits="userSpaceOnUse" gradientTransform="matrix(-3.3897,-99.4317,99.4317,-3.3897,187.41,178.886)"><stop offset="0" style="stop-color:#eee2d6;stop-opacity:1"/><stop offset="1" style="stop-color:#7a98a9;stop-opacity:1"/></linearGradient><linearGradient id="_Linear10" x1="0" y1="0" x2="1" y2="0" gradientUnits="userSpaceOnUse" gradientTransform="matrix(-3.3897,-99.4317,99.4317,-3.3897,187.41,178.886)"><stop offset="0" style="stop-color:#af9990;stop-opacity:1"/><stop offset="1" style="stop-color:#586671;stop-opacity:1"/></linearGradient><linearGradient id="_Linear11" x1="0" y1="0" x2="1" y2="0" gradientUnits="userSpaceOnUse" gradientTransform="matrix(1.12773,-34.96,34.96,1.12773,117.71,163.003)"><stop offset="0" style="stop-color:#ebd8c9;stop-opacity:1"/><stop offset="1" style="stop-color:#8094a1;stop-opacity:1"/></linearGradient><linearGradient id="_Linear12" x1="0" y1="0" x2="1" y2="0" gradientUnits="userSpaceOnUse" gradientTransform="matrix(1.12773,-34.96,34.96,1.12773,117.71,163.003)"><stop offset="0" style="stop-color:#f2e3d4;stop-opacity:1"/><stop offset="1" style="stop-color:#829ba9;stop-opacity:1"/></linearGradient><linearGradient id="_Linear13" x1="0" y1="0" x2="1" y2="0" gradientUnits="userSpaceOnUse" gradientTransform="matrix(1.12773,-34.96,34.96,1.12773,117.71,163.003)"><stop offset="0" style="stop-color:#fff;stop-opacity:1"/><stop offset="1" style="stop-color:#86aec9;stop-opacity:1"/></linearGradient><linearGradient id="_Linear14" x1="0" y1="0" x2="1" y2="0" gradientUnits="userSpaceOnUse" gradientTransform="matrix(1.12773,-34.96,34.96,1.12773,117.71,163.003)"><stop offset="0" style="stop-color:#edded1;stop-opacity:1"/><stop offset="1" style="stop-color:#7f99a7;stop-opacity:1"/></linearGradient><linearGradient id="_Linear15" x1="0" y1="0" x2="1" y2="0" gradientUnits="userSpaceOnUse" gradientTransform="matrix(1.12773,-34.96,34.96,1.12773,117.71,163.003)"><stop offset="0" style="stop-color:#a89086;stop-opacity:1"/><stop offset="1" style="stop-color:#59626b;stop-opacity:1"/></linearGradient><linearGradient id="_Linear16" x1="0" y1="0" x2="1" y2="0" gradientUnits="userSpaceOnUse" gradientTransform="matrix(1.12773,-34.96,34.96,1.12773,117.71,163.003)"><stop offset="0" style="stop-color:#c3a08d;stop-opacity:1"/><stop offset="1" style="stop-color:#6c6d71;stop-opacity:1"/></linearGradient><linearGradient id="_Linear17" x1="0" y1="0" x2="1" y2="0" gradientUnits="userSpaceOnUse" gradientTransform="matrix(1.12773,-34.96,34.96,1.12773,117.71,163.003)"><stop offset="0" style="stop-color:#928a85;stop-opacity:1"/><stop offset="1" style="stop-color:#435f6b;stop-opacity:1"/></linearGradient><linearGradient id="_Linear18" x1="0" y1="0" x2="1" y2="0" gradientUnits="userSpaceOnUse" gradientTransform="matrix(1.12773,-34.96,34.96,1.12773,117.71,163.003)"><stop offset="0" style="stop-color:#fff;stop-opacity:1"/><stop offset="1" style="stop-color:#86aec9;stop-opacity:1"/></linearGradient><linearGradient id="_Linear19" x1="0" y1="0" x2="1" y2="0" gradientUnits="userSpaceOnUse" gradientTransform="matrix(1.12773,-34.96,34.96,1.12773,117.71,163.003)"><stop offset="0" style="stop-color:#fff;stop-opacity:1"/><stop offset="1" style="stop-color:#86aec9;stop-opacity:1"/></linearGradient><linearGradient id="_Linear24" x1="0" y1="0" x2="1" y2="0" gradientUnits="userSpaceOnUse" gradientTransform="matrix(1.13633,-35.2265,35.2265,1.13633,185.49,165.796)"><stop offset="0" style="stop-color:#efdfd2;stop-opacity:1"/><stop offset="1" style="stop-color:#839aa8;stop-opacity:1"/></linearGradient><linearGradient id="_Linear25" x1="0" y1="0" x2="1" y2="0" gradientUnits="userSpaceOnUse" gradientTransform="matrix(1.13633,-35.2265,35.2265,1.13633,185.49,165.796)"><stop offset="0" style="stop-color:#faecdc;stop-opacity:1"/><stop offset="1" style="stop-color:#87a1b0;stop-opacity:1"/></linearGradient><linearGradient id="_Linear26" x1="0" y1="0" x2="1" y2="0" gradientUnits="userSpaceOnUse" gradientTransform="matrix(1.13633,-35.2265,35.2265,1.13633,185.49,165.796)"><stop offset="0" style="stop-color:#fff;stop-opacity:1"/><stop offset="1" style="stop-color:#86aec9;stop-opacity:1"/></linearGradient><linearGradient id="_Linear27" x1="0" y1="0" x2="1" y2="0" gradientUnits="userSpaceOnUse" gradientTransform="matrix(1.13633,-35.2265,35.2265,1.13633,185.49,165.796)"><stop offset="0" style="stop-color:#edded1;stop-opacity:1"/><stop offset="1" style="stop-color:#7f99a7;stop-opacity:1"/></linearGradient><linearGradient id="_Linear28" x1="0" y1="0" x2="1" y2="0" gradientUnits="userSpaceOnUse" gradientTransform="matrix(1.13633,-35.2265,35.2265,1.13633,185.49,165.796)"><stop offset="0" style="stop-color:#a89086;stop-opacity:1"/><stop offset="1" style="stop-color:#59626b;stop-opacity:1"/></linearGradient><linearGradient id="_Linear29" x1="0" y1="0" x2="1" y2="0" gradientUnits="userSpaceOnUse" gradientTransform="matrix(1.13633,-35.2265,35.2265,1.13633,185.49,165.796)"><stop offset="0" style="stop-color:#c3a08d;stop-opacity:1"/><stop offset="1" style="stop-color:#6c6d71;stop-opacity:1"/></linearGradient><linearGradient id="_Linear30" x1="0" y1="0" x2="1" y2="0" gradientUnits="userSpaceOnUse" gradientTransform="matrix(1.13633,-35.2265,35.2265,1.13633,185.49,165.796)"><stop offset="0" style="stop-color:#928a85;stop-opacity:1"/><stop offset="1" style="stop-color:#435f6b;stop-opacity:1"/></linearGradient><linearGradient id="_Linear31" x1="0" y1="0" x2="1" y2="0" gradientUnits="userSpaceOnUse" gradientTransform="matrix(1.13633,-35.2265,35.2265,1.13633,185.49,165.796)"><stop offset="0" style="stop-color:#fff;stop-opacity:1"/><stop offset="1" style="stop-color:#86aec9;stop-opacity:1"/></linearGradient><linearGradient id="_Linear32" x1="0" y1="0" x2="1" y2="0" gradientUnits="userSpaceOnUse" gradientTransform="matrix(1.13633,-35.2265,35.2265,1.13633,185.49,165.796)"><stop offset="0" style="stop-color:#fff;stop-opacity:1"/><stop offset="1" style="stop-color:#86aec9;stop-opacity:1"/></linearGradient></defs></svg>