<?xml version="1.0" encoding="UTF-8" standalone="no"?><!DOCTYPE svg PUBLIC "-//W3C//DTD SVG 1.1//EN" "http://www.w3.org/Graphics/SVG/1.1/DTD/svg11.dtd"><svg width="100%" height="100%" viewBox="0 0 300 300" version="1.1" xmlns="http://www.w3.org/2000/svg" xmlns:xlink="http://www.w3.org/1999/xlink" xml:space="preserve" style="fill-rule:evenodd;clip-rule:evenodd;stroke-linejoin:round;stroke-miterlimit:1.41421;"><g id="_4"><rect x="0.28" y="0.07" width="299.369" height="299.71" style="fill:#491f44;fill-rule:nonzero;"/><path d="M90,202.41c1.17,4.21 2.37,7.46 2.38,7.48c-0.01,-0.01 -0.17,-0.04 -1.81,-0.04c-10.08,0.02 -15.76,9.58 -15.76,9.58c0,0 3.8,-5.46 16.89,-1.2c12.78,4.14 12.45,17.66 30.83,25.2c9.41,3.86 15.02,3.35 18.28,1.95c-3.3,2.65 -10.07,2.42 -10.07,2.42c0,0 8.36,4.51 21.28,0.46c9.08,-2.85 14.52,-6.09 17.57,-8.41l-5.1,4.76c0,0 3.61,-1.26 8.72,-3.81c-3.48,6.61 -9.9,13.86 -9.9,13.86c16.37,-5.99 29.93,-27.52 29.93,-27.52c-1.3,8.12 -4.17,15.55 -4.17,15.55c27.95,-20.4 23.6,-57.24 23.6,-57.24c0,-13.94 -5.6,-27.92 -9.28,-32.07c-3.67,-4.15 -2.5,-10.17 -3.6,-10.17c0,0 -2.21,-0.08 -2.28,10.44c-0.11,1.34 -0.33,2.98 -0.83,4.42c0,0 -3.4,58.79 -44.59,41.69c0,0 -16.67,-7.05 -29.66,-8.17c-9.65,-0.82 -17.59,-7.99 -19.67,-17.36c-0.99,-4.46 -1.24,-8.38 -0.77,-10.67c2.75,-13.64 -1.09,-21.49 -2.56,-21.12c0,0 -0.05,3.46 -1.39,6.55c-3.95,9.19 -7.27,2.8 -7.88,15.27c-0.49,10.01 -1.73,15.67 -2.22,20.75c-3.14,-2.45 -7.82,-4.2 -14.82,-4.34c0,0 9.9,3.01 16.88,21.74Z" style="fill:#101111;fill-rule:nonzero;"/><path d="M150.79,187.68l0,111.76l-60.73,0c-0.99,-0.39 -1.49,-0.6 -1.49,-0.6c0,-7.01 0.5,-13.29 1.42,-18.84c0.46,-2.86 1.01,-5.52 1.67,-8.03c0.66,-2.57 1.4,-4.96 2.22,-7.18c1.09,-2.96 2.31,-5.64 3.64,-8.04c4.18,-7.72 9.26,-12.82 13.97,-16.15c2.41,-1.69 4.72,-2.95 6.73,-3.87c1.54,-0.7 2.92,-1.19 4.05,-1.54c1.32,-0.4 2.31,-0.6 2.88,-0.73c0.37,-0.06 0.58,-0.08 0.58,-0.08c0.23,0 0.45,-0.02 0.68,-0.04c1.89,-0.31 3.46,-1.97 4.71,-4.61c0.93,-1.95 1.69,-4.44 2.33,-7.36c0.24,-1.13 0.45,-2.25 0.63,-3.48c0.31,-2.08 0.6,-4.24 0.85,-6.5c0.1,-1.38 0.24,-2.72 0.39,-4.14c0.53,-6.83 0.7,-14.34 0.7,-21.41c0,0 8.15,0.84 14.77,0.84Z" style="fill:#824a50;fill-rule:nonzero;"/><path d="M213.25,298.84c0,0 -0.55,0.21 -1.44,0.6l-61.02,0l0,-111.76l0.14,0c6.57,0 14.84,-0.84 14.84,-0.84c0,7.03 0.14,14.42 0.68,21.25c0.14,1.36 0.31,2.74 0.39,4.05c0.27,2.37 0.55,4.57 0.9,6.65l0,0.04c0.09,0.94 0.29,1.79 0.44,2.65c0.61,2.92 1.33,5.48 2.22,7.53c1.09,2.53 2.4,4.32 4.01,5.04c0.51,0.23 1.07,0.33 1.63,0.33c0,0 0.34,0.04 0.98,0.19c1.01,0.18 2.72,0.62 4.86,1.46c0.62,0.25 1.27,0.51 1.95,0.82c1.81,0.82 3.83,1.94 5.93,3.36c4.85,3.33 10.18,8.51 14.54,16.54c1.32,2.4 2.56,5.08 3.65,8.04c0.82,2.22 1.56,4.61 2.22,7.18c0.66,2.55 1.23,5.27 1.68,8.17c0.89,5.53 1.4,11.75 1.4,18.7Z" style="fill:#965559;fill-rule:nonzero;"/><path d="M167.74,218.72l0,0.05c-1.53,2.36 -6.67,9.13 -16.85,9.13l-0.1,0c-9.64,-0.05 -15.27,-7.02 -16.7,-9.08c0.29,-2.07 0.59,-4.23 0.84,-6.49c0.1,-1.32 0.24,-2.7 0.39,-4.12c4.7,1.18 9.84,1.91 15.27,2.01l0.2,0c5.63,-0.1 10.82,-0.88 15.66,-2.16c0.15,1.33 0.3,2.7 0.4,4.03c0.25,2.36 0.54,4.57 0.89,6.63Z" style="fill:#563137;fill-rule:nonzero;"/><path d="M150.1,59.74c-64.34,0 -64.68,53.78 -61.82,88.99c-4.4,-8.35 -17.49,-5.79 -16.4,7.37c1.03,12.67 19.74,19.13 19.22,17.73c9.74,26.04 35.53,45.67 59,45.67l0.49,0l0,-159.76l-0.49,0Z" style="fill:#6b3e44;fill-rule:nonzero;"/><path d="M150.44,59.74c64.34,0 64.69,53.78 61.87,88.99c4.4,-8.35 17.44,-5.79 16.35,7.37c-0.98,12.67 -19.73,19.13 -19.22,17.73c-9.49,26.04 -35.52,45.67 -59,45.67c-0.14,0 -0.34,0 -0.34,0l-0.15,-159.76c0,0 0.35,0 0.49,0Z" style="fill:#824a50;fill-rule:nonzero;"/><path d="M149.59,74.92c-21.15,0 -36.66,6.13 -46,18.22c-13.1,16.94 -12.6,42.77 -7.81,61.34c1.48,5.7 2.27,20.97 3.26,26.57c4.6,25.1 32.32,38.45 50.55,38.45c0,0 0.35,0 0.5,0l0,-144.58c-0.15,0 -0.3,0 -0.3,0" style="fill:#824a50;fill-rule:nonzero;"/><path d="M195.55,93.19c-9.29,-12.04 -24.61,-18.18 -45.46,-18.27l0,144.58c20.85,-0.24 45.8,-14.88 50.05,-38.45c1.04,-5.6 1.78,-20.87 3.26,-26.57c4.85,-18.52 5.34,-44.3 -7.85,-61.29Z" style="fill:#965559;fill-rule:nonzero;"/><path d="M132.12,75.28l-0.26,0.26l0.04,0.09c0.09,-0.13 0.14,-0.26 0.22,-0.35Z" style="fill:#432e1b;fill-rule:nonzero;"/><path d="M103.93,131.35c0,0 4.91,20.13 13.34,21.78c8.42,1.64 17.54,-1.63 17.54,-1.63c0,0 0.88,-23.66 -3.44,-26.75c-4.31,-3.11 -14.25,-7.59 -27.44,6.6Z" style="fill:#fff;fill-rule:nonzero;"/><path d="M196.74,130.66c0,0 -4.91,20.14 -13.33,21.78c-8.43,1.65 -17.55,-1.62 -17.55,-1.62c0,0 -0.87,-23.66 3.44,-26.76c4.32,-3.1 14.25,-7.59 27.44,6.6Z" style="fill:#fff;fill-rule:nonzero;"/><path d="M75.98,150.55c3.16,-5.11 8.1,-2.9 9.29,-1.77c1.28,1.23 2.32,2.8 1.53,5.8c-0.45,1.72 -2.22,1.86 -1.83,4.42c0.49,2.9 1.83,3.04 2.62,3.73c0.74,0.64 1.68,1.13 2.12,2.36c0.5,1.23 0.55,2.5 0.3,3.63c-0.49,2.06 -3.51,0.39 -5.53,-0.49c-1.34,-0.64 -5.59,-4.22 -6.67,-5.4c-2.67,-3.05 -3.96,-8.94 -1.83,-12.28Z" style="fill:#563137;fill-rule:nonzero;"/><path d="M224.56,150.55c-3.16,-5.11 -8.05,-2.9 -9.29,-1.77c-1.28,1.23 -2.27,2.8 -1.53,5.8c0.45,1.72 2.23,1.86 1.83,4.42c-0.49,2.9 -1.83,3.04 -2.57,3.73c-0.74,0.64 -1.73,1.13 -2.17,2.36c-0.45,1.23 -0.55,2.5 -0.3,3.63c0.49,2.06 3.51,0.39 5.53,-0.49c1.39,-0.64 5.59,-4.22 6.68,-5.4c2.71,-3.05 3.95,-8.94 1.82,-12.28Z" style="fill:#563137;fill-rule:nonzero;"/><path d="M91.16,126.22" style="fill:#432e1b;fill-rule:nonzero;"/><path d="M134.83,151.44c0,0 -0.2,0.06 -0.63,0.24c-0.11,-7.26 -0.78,-17.23 -3.47,-19.14c-4.01,-2.93 -13.06,-7.06 -25.14,4.23c-1.1,-3.12 -1.65,-5.48 -1.65,-5.48c13.21,-14.22 23.16,-9.74 27.44,-6.64c4.32,3.11 3.45,26.79 3.45,26.79Z" style="fill:#563137;fill-rule:nonzero;"/><path d="M129.84,141.19c0,4.58 -3.72,8.29 -8.3,8.29c-4.58,0 -8.29,-3.71 -8.29,-8.29c0,-4.58 3.71,-8.29 8.29,-8.29c4.58,0 8.3,3.71 8.3,8.29Z" style="fill:#482315;fill-rule:nonzero;"/><path d="M121.16,146.71c-2.4,-0.2 -4.24,-2.61 -4.02,-5.27c0.22,-2.66 2.42,-4.74 4.82,-4.53c2.4,0.19 4.23,2.61 4.02,5.26c-0.22,2.66 -2.43,4.74 -4.82,4.54Z" style="fill:#7e3a22;fill-rule:nonzero;"/><path d="M121.36,145.75c-1.66,-0.14 -3.39,-1.97 -3.21,-4.22c0.19,-2.26 2.19,-3.78 3.86,-3.65c1.66,0.14 3.39,1.98 3.21,4.23c-0.19,2.26 -2.19,3.78 -3.86,3.64Z" style="fill:#211a10;fill-rule:nonzero;"/><path d="M165.85,150.76c0,0 0.19,0.05 0.63,0.23c0.1,-7.25 0.78,-17.22 3.47,-19.13c4.01,-2.94 13.05,-7.06 25.14,4.23c1.1,-3.12 1.65,-5.49 1.65,-5.49c-13.22,-14.22 -23.16,-9.74 -27.44,-6.63c-4.32,3.1 -3.45,26.79 -3.45,26.79Z" style="fill:#563137;fill-rule:nonzero;"/><path d="M170.84,140.5c0,4.58 3.71,8.3 8.29,8.3c4.58,0 8.3,-3.72 8.3,-8.3c0,-4.58 -3.72,-8.29 -8.3,-8.29c-4.58,0 -8.29,3.71 -8.29,8.29Z" style="fill:#482315;fill-rule:nonzero;"/><path d="M179.52,146.03c2.39,-0.2 4.23,-2.62 4.01,-5.27c-0.21,-2.66 -2.42,-4.74 -4.81,-4.54c-2.4,0.2 -4.24,2.61 -4.02,5.27c0.21,2.66 2.42,4.74 4.82,4.54Z" style="fill:#7e3a22;fill-rule:nonzero;"/><path d="M179.31,145.07c1.67,-0.14 3.4,-1.97 3.21,-4.22c-0.18,-2.26 -2.18,-3.79 -3.85,-3.65c-1.67,0.14 -3.39,1.98 -3.21,4.23c0.18,2.25 2.19,3.78 3.85,3.64Z" style="fill:#211a10;fill-rule:nonzero;"/><path d="M139.87,131.03c-0.06,-0.1 -1.59,-2.42 -4.71,-4.82c-1.96,-1.5 -3.88,-2.65 -5.87,-3.5c-2.42,-1.02 -5.03,-1.74 -7.56,-2.08c-2.28,-0.25 -4.81,-0.19 -7.76,0.21c-2.26,0.43 -4.46,1.1 -6.32,1.92c-1.33,0.46 -2.38,1.11 -3.23,1.62c-0.32,0.2 -0.62,0.38 -0.91,0.54l-4.03,2.53l4.64,-1.09c0.22,-0.05 0.45,-0.11 0.7,-0.18c0.96,-0.26 2.16,-0.57 3.56,-0.78c0.32,-0.05 0.66,-0.11 1,-0.18c0.58,-0.12 1.18,-0.24 1.82,-0.27c0.7,-0.04 1.43,-0.1 2.18,-0.15l0.97,-0.07c2.57,-0.03 4.74,0.16 6.67,0.61c2.11,0.36 4.27,1.04 6.26,1.96c1.87,0.9 3.67,1.79 5.07,2.82c2.84,1.89 4.41,3.47 4.43,3.48c0.39,0.39 0.91,0.6 1.43,0.6c0.38,0 0.76,-0.11 1.1,-0.33c0.93,-0.61 1.19,-1.87 0.6,-2.78l-0.04,-0.06Z" style="fill:#030405;fill-rule:nonzero;"/><path d="M197.57,124.9c-0.26,-0.14 -0.56,-0.32 -0.88,-0.52c-0.85,-0.52 -1.9,-1.16 -3.19,-1.6c-1.9,-0.84 -4.1,-1.51 -6.38,-1.94c-2.93,-0.4 -5.46,-0.46 -7.76,-0.21c-2.51,0.34 -5.12,1.06 -7.54,2.08c-1.96,0.84 -3.94,2.02 -5.87,3.5c-3.07,2.35 -4.59,4.64 -4.71,4.81l-0.03,0.04c-0.51,0.8 -0.4,1.87 0.27,2.54c0.38,0.39 0.89,0.6 1.42,0.6l0.01,0c0.54,0 1.04,-0.22 1.42,-0.6l0.02,-0.02c0.15,-0.14 1.68,-1.64 4.43,-3.48c1.38,-1.01 3.18,-1.9 5.05,-2.8c1.99,-0.92 4.16,-1.6 6.29,-1.97c1.9,-0.44 4.07,-0.63 6.61,-0.6l1.02,0.07c0.74,0.06 1.47,0.11 2.17,0.15c0.63,0.03 1.23,0.15 1.81,0.27c0.34,0.07 0.68,0.13 1,0.18c1.4,0.21 2.6,0.52 3.56,0.78c0.25,0.07 0.48,0.13 0.71,0.18l4.63,1.09l-4.06,-2.55Z" style="fill:#030405;fill-rule:nonzero;"/><path d="M120.01,140.2c-0.07,0.81 -0.9,1.41 -1.86,1.33c-0.96,-0.08 -1.68,-0.81 -1.62,-1.62c0.07,-0.82 0.9,-1.42 1.86,-1.34c0.96,0.08 1.69,0.81 1.62,1.63Z" style="fill:#fff;fill-rule:nonzero;"/><path d="M125.39,144.91c-0.03,0.4 -0.45,0.7 -0.93,0.66c-0.48,-0.04 -0.84,-0.4 -0.81,-0.81c0.04,-0.4 0.45,-0.7 0.93,-0.66c0.48,0.03 0.85,0.4 0.81,0.81Z" style="fill:#fff;fill-rule:nonzero;"/><path d="M180.66,139.51c0.07,0.82 0.91,1.41 1.86,1.33c0.96,-0.08 1.69,-0.81 1.62,-1.62c-0.07,-0.82 -0.9,-1.41 -1.86,-1.33c-0.96,0.08 -1.68,0.8 -1.62,1.62Z" style="fill:#fff;fill-rule:nonzero;"/><path d="M175.28,144.22c0.04,0.41 0.46,0.71 0.93,0.67c0.49,-0.04 0.85,-0.41 0.82,-0.81c-0.04,-0.41 -0.46,-0.71 -0.93,-0.67c-0.49,0.04 -0.85,0.4 -0.82,0.81Z" style="fill:#fff;fill-rule:nonzero;"/><path d="M147.92,201.13" style="fill:#be927b;fill-rule:nonzero;"/><path d="M147.92,201.13" style="fill:#be927b;fill-rule:nonzero;"/><path d="M147.69,200.35" style="fill:#be927b;fill-rule:nonzero;"/><path d="M147.69,200.35" style="fill:#be927b;fill-rule:nonzero;"/><path d="M148.28,200.16" style="fill:#be927b;fill-rule:nonzero;"/><path d="M148.28,200.16" style="fill:#be927b;fill-rule:nonzero;"/><path d="M204.3,256.75l-106.78,0c4.18,-7.72 9.26,-12.82 13.97,-16.15c2.41,-1.69 4.72,-2.95 6.73,-3.87c1.54,-0.7 2.92,-1.19 4.05,-1.54c1.32,-0.4 2.31,-0.6 2.88,-0.73c4.98,6.28 13.95,14.98 25.64,14.9c7.69,-0.06 16.58,-3.93 26.23,-14.79c1.01,0.18 2.72,0.62 4.86,1.46c0.62,0.25 1.27,0.51 1.95,0.82c1.81,0.82 3.83,1.94 5.93,3.36c4.85,3.33 10.18,8.51 14.54,16.54Z" style="fill:#3288b6;fill-rule:nonzero;"/><path d="M96.92,299.44l108.65,0c-0.25,-3.92 -0.51,-10.31 -0.55,-18.73l-107.53,0c-0.05,8.42 -0.31,14.81 -0.57,18.73Z" style="fill:#c83c31;fill-rule:nonzero;"/><path d="M210.17,271.97l-5.1,0c-0.05,2.04 -0.05,3.99 -0.05,5.85l0,2.9l-107.52,0l0,-2.9c0,-1.86 -0.02,-3.81 -0.04,-5.85l-5.8,0c0.66,-2.57 1.4,-4.96 2.22,-7.18c1.09,-2.96 2.31,-5.64 3.64,-8.04l106.78,0c1.32,2.4 2.56,5.08 3.65,8.04c0.82,2.22 1.56,4.61 2.22,7.18Z" style="fill:#75bcdb;fill-rule:nonzero;"/><path d="M137.51,174.91c-0.25,-5.14 9.43,-1.88 12.62,-1.72c2.52,0.13 10.19,-1.62 10.85,-1.17c4.51,3.05 -4.78,9.17 -11.01,9.17c-1.66,0 -12.31,-3.19 -12.46,-6.28Z" style="fill:#563137;fill-rule:nonzero;"/><path d="M147.68,201.56" style="fill:#be927b;fill-rule:nonzero;"/><path d="M147.68,201.56" style="fill:#be927b;fill-rule:nonzero;"/><path d="M144.04,198.82c-0.1,-0.03 -0.2,-0.05 -0.31,-0.07c0.1,0.02 0.19,0.04 0.31,0.07Z" style="fill:#be927b;fill-rule:nonzero;"/><path d="M147.45,200.78" style="fill:#be927b;fill-rule:nonzero;"/><path d="M147.45,200.78" style="fill:#be927b;fill-rule:nonzero;"/><path d="M148.05,200.58" style="fill:#be927b;fill-rule:nonzero;"/><path d="M148.04,200.58l0.01,0l-0.01,0Z" style="fill:#be927b;fill-rule:nonzero;"/><path d="M210.43,158.71c1.3,0 -0.09,-6.97 4.25,-11.78c4.34,-4.8 10.96,-20.98 10.96,-37.13c0,-16.16 -5.66,-30.53 -20.43,-45.81c-14.76,-15.28 -36.48,-22.69 -36.48,-22.69l9.99,9.16c0,0 -5.38,-7.44 -24.72,-13.4c-15.26,-4.68 -25.14,0.55 -25.14,0.55c0,0 10.06,-0.36 13.11,4.04c0.77,1.12 3.59,2.82 3.59,2.82c0,0 -4.67,-10.55 -26.4,-1.8c-21.71,8.73 -21.32,24.38 -36.43,29.18c-15.46,4.93 -19.94,-1.39 -19.94,-1.39c0,0 6.71,11.06 18.62,11.09c2.29,0 2.14,-0.05 2.14,-0.05c0,0 -4.47,11.86 -5.32,20.72c-0.88,9.03 1.85,15.21 2.69,32.11c0.72,14.45 4.64,7.04 9.32,17.69c1.57,3.57 1.64,7.59 1.64,7.59c1.73,0.42 6.27,-8.67 3.01,-24.47c-2.12,-10.25 8.37,-49.11 33.69,-41.54c15.49,4.64 19.39,14.08 30.97,5.69c9.99,-7.22 23.95,-11.38 34.37,-5.67c10.43,5.73 16.3,18.58 14.48,39.09c-2.32,26.19 2.03,26 2.03,26Z" style="fill:#101111;fill-rule:nonzero;"/><path d="M138.1,199.86c-0.24,-3.24 9.02,0.68 12.06,0.77c2.42,0.08 9.71,-0.48 10.38,-0.74c5.1,-1.9 -0.27,5.42 -10.53,5.8c-4.7,0.19 -11.77,-3.87 -11.91,-5.83Z" style="fill:#965559;fill-rule:nonzero;"/><path d="M168.25,193.62c-2.52,-0.13 -5.1,1.97 -8.12,1.65c-0.12,-0.06 -0.19,-0.06 -0.32,-0.06c-0.69,-0.12 -1.38,0 -2.13,0.18c-0.94,0.2 -1.89,0.58 -2.78,0.89c-1.51,0.49 -3.21,0.88 -4.96,0.75l0,0.01l-0.1,-0.01l-0.1,0.01l0,-0.01c-1.75,0.13 -3.45,-0.26 -4.96,-0.75c-0.89,-0.31 -1.83,-0.69 -2.78,-0.89c-0.75,-0.18 -1.44,-0.3 -2.13,-0.18c-0.13,0 -0.19,0 -0.32,0.06c-3.02,0.32 -5.6,-1.78 -8.12,-1.65c-0.69,0.06 -1.7,-0.13 -2.26,-0.13c0.12,0.07 0.25,0.13 0.38,0.19c7.16,3.49 13.35,10.04 20.19,9.83l0.2,0c6.85,0.21 13.03,-6.34 20.19,-9.83c0.13,-0.06 0.26,-0.12 0.39,-0.19c-0.57,0 -1.58,0.19 -2.27,0.13Z" style="fill:#824a50;fill-rule:nonzero;"/><path d="M170.35,193.42c0,0 -7.28,-2.81 -12.47,-1.16c0,0 -1.92,0.75 -3.92,1.21c-1.22,0.47 -2.69,0.61 -4.12,0.55c-1.09,-0.04 -2.13,-0.18 -2.98,-0.33c-0.28,-0.04 -0.56,-0.1 -0.85,-0.16c-0.13,-0.03 -0.22,-0.05 -0.33,-0.07c-0.17,-0.04 -0.34,-0.07 -0.51,-0.12c-0.19,-0.04 -0.3,-0.07 -0.3,-0.07l0.01,-0.01c-1.66,-0.45 -3.08,-1 -3.08,-1c-5.19,-1.65 -12.47,1.16 -12.47,1.16c-0.1,0.04 -0.16,0.07 -0.16,0.07c0.56,0 1.57,0.19 2.26,0.13c2.04,-0.1 4.12,1.23 6.43,1.58c0.93,0.26 4.41,1.18 8.88,1.6c0.97,0.19 1.97,0.31 3,0.23l0,0.01l0.1,-0.01l0.1,0.01l0,-0.01c0.54,0.04 1.07,0.02 1.6,-0.03c3.38,-0.04 6.98,-0.51 10.29,-1.78l-0.02,-0.02c2.32,-0.35 4.4,-1.68 6.44,-1.58c0.69,0.06 1.7,-0.13 2.27,-0.13c0,0 -0.07,-0.03 -0.17,-0.07Z" style="fill:#563137;fill-rule:nonzero;"/><rect x="117.12" y="251.59" width="7.4" height="32.41" style="fill:#75bcdb;fill-rule:nonzero;"/><rect x="180.53" y="251.59" width="7.39" height="32.41" style="fill:#75bcdb;fill-rule:nonzero;"/></g></svg>