<?xml version="1.0" encoding="UTF-8" standalone="no"?><!DOCTYPE svg PUBLIC "-//W3C//DTD SVG 1.1//EN" "http://www.w3.org/Graphics/SVG/1.1/DTD/svg11.dtd"><svg width="100%" height="100%" viewBox="0 0 300 300" version="1.1" xmlns="http://www.w3.org/2000/svg" xmlns:xlink="http://www.w3.org/1999/xlink" xml:space="preserve" style="fill-rule:evenodd;clip-rule:evenodd;stroke-linejoin:round;stroke-miterlimit:1.41421;"><g id="_40"><g id="avatar8"><rect x="0.27" y="0.16" width="299.36" height="299.705" style="fill:#ac91c4;fill-rule:nonzero;"/><path d="M152.72,187.595l0,112.27l-60.73,0c-0.99,-0.394 -1.48,-0.594 -1.48,-0.594c0,-14.331 2.1,-25.505 5.3,-34.219c7.73,-21.03 21.88,-27.709 28.4,-29.723c2.13,-0.661 3.45,-0.82 3.45,-0.82c0.23,0 0.45,-0.021 0.67,-0.056c1.91,-0.308 3.46,-1.969 4.71,-4.619c0.93,-1.968 1.7,-4.479 2.33,-7.386c0.25,-1.132 0.45,-2.275 0.65,-3.51c0.29,-2.077 0.59,-4.25 0.84,-6.525c0.09,-1.384 0.24,-2.717 0.39,-4.152c0.54,-6.868 0.69,-14.388 0.69,-21.507c0,0 8.16,0.841 14.78,0.841Z" style="fill:#e0bd9a;fill-rule:nonzero;"/><path d="M215.18,299.271c0,0 -0.55,0.2 -1.44,0.594l-61.02,0l0,-112.27l0.14,0c6.58,0 14.83,-0.841 14.83,-0.841c0,7.068 0.15,14.485 0.69,21.358c0.15,1.338 0.3,2.717 0.39,4.055c0.25,2.373 0.55,4.597 0.9,6.673l0,0.046c0.09,0.943 0.29,1.784 0.44,2.671c0.6,2.921 1.33,5.489 2.2,7.549c1.1,2.563 2.42,4.352 4.03,5.06c0.52,0.23 1.06,0.343 1.63,0.343c0,0 2.34,0.282 5.84,1.656c7.15,2.798 19.16,10.143 26.06,28.887c3.2,8.714 5.31,19.888 5.31,34.219Z" style="fill:#efd0ad;fill-rule:nonzero;"/><path d="M169.67,218.63l0,0.05c-1.54,2.357 -6.68,9.134 -16.85,9.134l-0.1,0c-9.64,-0.049 -15.27,-7.023 -16.71,-9.086c0.3,-2.062 0.6,-4.223 0.84,-6.482c0.1,-1.326 0.25,-2.702 0.4,-4.126c4.69,1.179 9.83,1.916 15.27,2.014l0.2,0c5.63,-0.098 10.82,-0.884 15.66,-2.161c0.15,1.326 0.3,2.701 0.4,4.027c0.24,2.357 0.54,4.568 0.89,6.63Z" style="fill:#be987f;fill-rule:nonzero;"/><path d="M152.02,59.651c-64.33,0 -64.68,53.779 -61.81,88.993c-4.4,-8.349 -17.49,-5.795 -16.41,7.367c1.04,12.671 19.75,19.129 19.23,17.73c9.74,26.043 35.52,45.675 58.99,45.675l0.5,0l0,-159.765l-0.5,0Z" style="fill:#d2a686;fill-rule:nonzero;"/><path d="M77.91,150.461c3.16,-5.108 8.1,-2.897 9.28,-1.768c1.29,1.228 2.33,2.799 1.54,5.796c-0.45,1.718 -2.23,1.865 -1.83,4.42c0.49,2.897 1.83,3.045 2.62,3.732c0.74,0.639 1.68,1.13 2.12,2.358c0.5,1.228 0.55,2.505 0.3,3.634c-0.5,2.063 -3.51,0.393 -5.54,-0.491c-1.33,-0.638 -5.58,-4.224 -6.67,-5.403c-2.67,-3.044 -3.95,-8.938 -1.82,-12.278Z" style="fill:#ac8774;fill-rule:nonzero;"/><path d="M152.37,59.651c64.34,0 64.68,53.779 61.87,88.993c4.39,-8.349 17.44,-5.795 16.35,7.367c-0.99,12.671 -19.73,19.134 -19.22,17.73c-9.49,26.043 -35.53,45.675 -59,45.675c-0.15,0 -0.35,0 -0.35,0l-0.14,-159.765c0,0 0.34,0 0.49,0Z" style="fill:#ddb598;fill-rule:nonzero;"/><path d="M226.49,150.461c-3.16,-5.108 -8.05,-2.897 -9.29,-1.768c-1.28,1.228 -2.27,2.8 -1.53,5.796c0.44,1.719 2.22,1.866 1.83,4.42c-0.5,2.897 -1.83,3.045 -2.57,3.732c-0.74,0.639 -1.73,1.13 -2.18,2.358c-0.44,1.228 -0.54,2.505 -0.29,3.634c0.49,2.063 3.51,0.393 5.53,-0.491c1.39,-0.638 5.59,-4.224 6.67,-5.402c2.72,-3.045 3.96,-8.939 1.83,-12.279Z" style="fill:#ac8774;fill-rule:nonzero;"/><path d="M151.52,74.827c-21.15,0 -36.67,6.139 -46.01,18.221c-13.09,16.944 -12.6,42.778 -7.8,61.342c1.48,5.697 2.27,20.972 3.26,26.571c4.59,25.096 32.31,38.455 50.55,38.455c0,0 0.34,0 0.49,0l0,-144.589c-0.15,0 -0.29,0 -0.29,0l-0.2,0Z" style="fill:#e0bd9a;fill-rule:nonzero;"/><path d="M197.47,93.098c-9.29,-12.033 -24.6,-18.173 -45.46,-18.271l0,144.589c20.86,-0.245 45.81,-14.881 50.06,-38.455c1.04,-5.599 1.78,-20.874 3.26,-26.571c4.84,-18.515 5.34,-44.3 -7.86,-61.292Z" style="fill:#efd0ad;fill-rule:nonzero;"/><path d="M152.21,196.472" style="fill:#bc917b;fill-rule:nonzero;"/><path d="M152.21,196.472" style="fill:#bc917b;fill-rule:nonzero;"/><path d="M148.64,193.785c-0.1,-0.022 -0.2,-0.041 -0.31,-0.065c0.1,0.023 0.19,0.041 0.31,0.065Z" style="fill:#bc917b;fill-rule:nonzero;"/><path d="M152.21,193.593" style="fill:#bc917b;fill-rule:nonzero;"/><path d="M147.85,193.61c-0.09,-0.024 -0.17,-0.051 -0.27,-0.076l-0.01,0.004c0,0 0.11,0.029 0.28,0.072Z" style="fill:#bc917b;fill-rule:nonzero;"/><path d="M152.21,193.593" style="fill:#bc917b;fill-rule:nonzero;"/><path d="M134.05,75.188l-0.27,0.268l0.05,0.089c0.09,-0.134 0.13,-0.268 0.22,-0.357Z" style="fill:#432e1b;fill-rule:nonzero;"/><path d="M93.09,126.136" style="fill:#432e1b;fill-rule:nonzero;"/><path d="M152.48,193.612" style="fill:#ba907b;fill-rule:nonzero;"/><path d="M152.48,193.612" style="fill:#ba907b;fill-rule:nonzero;"/><path d="M148.81,190.852c-0.1,-0.022 -0.2,-0.043 -0.31,-0.066c0.1,0.022 0.19,0.041 0.31,0.066Z" style="fill:#ba907b;fill-rule:nonzero;"/><path d="M152.48,190.655" style="fill:#ba907b;fill-rule:nonzero;"/><path d="M148.01,190.672c-0.1,-0.025 -0.19,-0.052 -0.28,-0.078l-0.01,0.005c0,0 0.11,0.029 0.29,0.073Z" style="fill:#ba907b;fill-rule:nonzero;"/><path d="M152.48,190.655" style="fill:#ba907b;fill-rule:nonzero;"/><path d="M139.44,175.914c-0.25,-5.131 9.43,-1.874 12.62,-1.714c2.52,0.129 10.19,-1.617 10.85,-1.167c4.51,3.042 -4.78,9.17 -11.01,9.17c-1.66,0 -12.31,-3.193 -12.46,-6.289Z" style="fill:#dcb497;fill-rule:nonzero;"/><path d="M105.86,131.261c0,0 4.91,20.135 13.33,21.779c8.43,1.642 17.55,-1.624 17.55,-1.624c0,0 0.87,-23.664 -3.44,-26.756c-4.31,-3.105 -14.25,-7.592 -27.44,6.601Z" style="fill:#fff;fill-rule:nonzero;"/><path d="M136.75,151.354c0,0 -0.19,0.056 -0.62,0.236c-0.11,-7.258 -0.78,-17.227 -3.48,-19.137c-4,-2.933 -13.05,-7.061 -25.13,4.23c-1.1,-3.12 -1.65,-5.485 -1.65,-5.485c13.21,-14.22 23.16,-9.74 27.43,-6.632c4.32,3.104 3.45,26.788 3.45,26.788Z" style="fill:#d6b496;fill-rule:nonzero;"/><path d="M131.76,141.1c0,4.581 -3.71,8.294 -8.29,8.294c-4.58,0 -8.29,-3.713 -8.29,-8.294c0,-4.58 3.71,-8.293 8.29,-8.293c4.58,0 8.29,3.713 8.29,8.293Z" style="fill:#482315;fill-rule:nonzero;"/><path d="M123.08,146.624c-2.39,-0.198 -4.23,-2.615 -4.01,-5.272c0.21,-2.657 2.42,-4.736 4.82,-4.535c2.39,0.197 4.23,2.611 4.02,5.268c-0.22,2.657 -2.43,4.74 -4.83,4.539Z" style="fill:#7e3a22;fill-rule:nonzero;"/><path d="M123.29,145.665c-1.67,-0.141 -3.4,-1.971 -3.21,-4.223c0.19,-2.26 2.19,-3.785 3.85,-3.648c1.67,0.141 3.4,1.978 3.21,4.231c-0.18,2.256 -2.19,3.778 -3.85,3.64Z" style="fill:#211a10;fill-rule:nonzero;"/><path d="M121.94,140.108c-0.07,0.814 -0.9,1.409 -1.86,1.33c-0.96,-0.081 -1.69,-0.809 -1.62,-1.619c0.07,-0.817 0.9,-1.413 1.86,-1.335c0.96,0.078 1.69,0.806 1.62,1.624Z" style="fill:#fff;fill-rule:nonzero;"/><path d="M127.32,144.818c-0.04,0.405 -0.45,0.704 -0.93,0.664c-0.48,-0.038 -0.84,-0.406 -0.81,-0.81c0.03,-0.405 0.45,-0.705 0.93,-0.664c0.48,0.038 0.84,0.401 0.81,0.81Z" style="fill:#fff;fill-rule:nonzero;"/><path d="M152.61,195.987" style="fill:#ba907b;fill-rule:nonzero;"/><path d="M152.61,195.987" style="fill:#ba907b;fill-rule:nonzero;"/><path d="M148.95,193.227c-0.11,-0.022 -0.21,-0.043 -0.32,-0.067c0.11,0.023 0.2,0.042 0.32,0.067Z" style="fill:#ba907b;fill-rule:nonzero;"/><path d="M152.61,193.03" style="fill:#ba907b;fill-rule:nonzero;"/><path d="M148.14,193.047c-0.1,-0.025 -0.18,-0.052 -0.28,-0.078l-0.01,0.004c0,0 0.11,0.03 0.29,0.074Z" style="fill:#ba907b;fill-rule:nonzero;"/><path d="M152.61,193.03" style="fill:#ba907b;fill-rule:nonzero;"/><path d="M152.5,195.616" style="fill:#bc917b;fill-rule:nonzero;"/><path d="M152.5,195.616" style="fill:#bc917b;fill-rule:nonzero;"/><path d="M148.57,192.658c-0.11,-0.024 -0.22,-0.045 -0.34,-0.071c0.11,0.024 0.21,0.045 0.34,0.071Z" style="fill:#bc917b;fill-rule:nonzero;"/><path d="M152.5,192.447" style="fill:#bc917b;fill-rule:nonzero;"/><path d="M147.7,192.465c-0.1,-0.026 -0.19,-0.055 -0.29,-0.083l-0.01,0.005c0,0 0.11,0.031 0.3,0.078Z" style="fill:#bc917b;fill-rule:nonzero;"/><path d="M152.5,192.447" style="fill:#bc917b;fill-rule:nonzero;"/><path d="M152.25,194.774" style="fill:#bc917b;fill-rule:nonzero;"/><path d="M152.25,194.774" style="fill:#bc917b;fill-rule:nonzero;"/><path d="M148.32,191.816c-0.11,-0.024 -0.22,-0.045 -0.33,-0.071c0.11,0.024 0.2,0.044 0.33,0.071Z" style="fill:#bc917b;fill-rule:nonzero;"/><path d="M152.25,191.605" style="fill:#bc917b;fill-rule:nonzero;"/><path d="M147.46,191.623c-0.11,-0.026 -0.2,-0.055 -0.3,-0.083l-0.01,0.004c0,0 0.11,0.032 0.31,0.079Z" style="fill:#bc917b;fill-rule:nonzero;"/><path d="M152.25,191.605" style="fill:#bc917b;fill-rule:nonzero;"/><path d="M152.89,194.56" style="fill:#bc917b;fill-rule:nonzero;"/><path d="M152.89,194.56" style="fill:#bc917b;fill-rule:nonzero;"/><path d="M149.09,191.701c-0.11,-0.023 -0.21,-0.044 -0.32,-0.069c0.1,0.024 0.2,0.043 0.32,0.069Z" style="fill:#bc917b;fill-rule:nonzero;"/><path d="M152.89,191.497" style="fill:#bc917b;fill-rule:nonzero;"/><path d="M148.26,191.514c-0.1,-0.025 -0.19,-0.053 -0.29,-0.08l-0.01,0.005c0,0 0.11,0.03 0.3,0.075Z" style="fill:#bc917b;fill-rule:nonzero;"/><path d="M152.89,191.497" style="fill:#bc917b;fill-rule:nonzero;"/><path d="M198.67,130.576c0,0 -4.91,20.135 -13.33,21.779c-8.43,1.642 -17.55,-1.624 -17.55,-1.624c0,0 -0.87,-23.664 3.44,-26.756c4.31,-3.105 14.25,-7.593 27.44,6.601Z" style="fill:#fff;fill-rule:nonzero;"/><path d="M167.78,150.669c0,0 0.19,0.055 0.62,0.236c0.11,-7.258 0.78,-17.227 3.48,-19.137c4,-2.933 13.05,-7.062 25.13,4.229c1.1,-3.119 1.65,-5.484 1.65,-5.484c-13.21,-14.22 -23.16,-9.74 -27.43,-6.632c-4.32,3.104 -3.45,26.788 -3.45,26.788Z" style="fill:#d6b496;fill-rule:nonzero;"/><path d="M172.77,140.416c0,4.58 3.71,8.293 8.29,8.293c4.58,0 8.29,-3.713 8.29,-8.293c0,-4.581 -3.71,-8.294 -8.29,-8.294c-4.58,0 -8.29,3.713 -8.29,8.294Z" style="fill:#482315;fill-rule:nonzero;"/><path d="M181.45,145.938c2.39,-0.197 4.23,-2.614 4.01,-5.271c-0.21,-2.657 -2.42,-4.736 -4.82,-4.535c-2.39,0.197 -4.23,2.61 -4.02,5.267c0.22,2.657 2.43,4.74 4.83,4.539Z" style="fill:#7e3a22;fill-rule:nonzero;"/><path d="M181.24,144.98c1.67,-0.141 3.4,-1.971 3.21,-4.223c-0.19,-2.26 -2.19,-3.785 -3.85,-3.649c-1.67,0.142 -3.4,1.979 -3.21,4.232c0.18,2.256 2.19,3.778 3.85,3.64Z" style="fill:#211a10;fill-rule:nonzero;"/><path d="M182.59,139.423c0.07,0.814 0.9,1.409 1.86,1.33c0.96,-0.081 1.68,-0.809 1.62,-1.619c-0.07,-0.818 -0.9,-1.413 -1.86,-1.335c-0.96,0.078 -1.69,0.806 -1.62,1.624Z" style="fill:#fff;fill-rule:nonzero;"/><path d="M177.21,144.133c0.04,0.405 0.45,0.704 0.93,0.664c0.48,-0.038 0.84,-0.406 0.81,-0.81c-0.03,-0.405 -0.45,-0.705 -0.93,-0.663c-0.48,0.036 -0.84,0.4 -0.81,0.809Z" style="fill:#fff;fill-rule:nonzero;"/><path d="M141.8,130.94c-0.06,-0.098 -1.59,-2.423 -4.72,-4.82c-1.96,-1.502 -3.87,-2.646 -5.87,-3.498c-2.42,-1.017 -5.02,-1.736 -7.55,-2.081c-2.28,-0.254 -4.81,-0.186 -7.77,0.211c-2.25,0.43 -4.45,1.1 -6.32,1.922c-1.33,0.459 -2.38,1.103 -3.22,1.62c-0.33,0.199 -0.62,0.378 -0.92,0.539l-4.02,2.53l4.64,-1.09c0.21,-0.054 0.45,-0.116 0.7,-0.183c0.96,-0.254 2.15,-0.571 3.55,-0.776c0.33,-0.048 0.67,-0.114 1,-0.182c0.59,-0.116 1.19,-0.237 1.82,-0.267c0.71,-0.047 1.44,-0.099 2.18,-0.153l0.98,-0.07c2.57,-0.032 4.74,0.163 6.66,0.607c2.11,0.363 4.28,1.043 6.26,1.963c1.88,0.897 3.68,1.787 5.08,2.817c2.83,1.891 4.41,3.468 4.42,3.484c0.39,0.392 0.91,0.594 1.44,0.594c0.38,0 0.76,-0.107 1.1,-0.328c0.93,-0.611 1.19,-1.87 0.6,-2.778l-0.04,-0.061Z" style="fill:#030405;fill-rule:nonzero;"/><path d="M199.5,124.814c-0.27,-0.142 -0.56,-0.322 -0.89,-0.52c-0.84,-0.518 -1.89,-1.161 -3.18,-1.604c-1.91,-0.838 -4.11,-1.508 -6.39,-1.942c-2.93,-0.394 -5.46,-0.462 -7.75,-0.206c-2.51,0.344 -5.12,1.063 -7.54,2.081c-1.97,0.84 -3.94,2.016 -5.87,3.497c-3.07,2.353 -4.6,4.637 -4.71,4.813l-0.03,0.041c-0.52,0.798 -0.41,1.866 0.26,2.539c0.39,0.385 0.89,0.595 1.43,0.595c0.54,0 1.05,-0.212 1.43,-0.596l0.02,-0.017c0.14,-0.148 1.68,-1.644 4.42,-3.479c1.38,-1.015 3.18,-1.906 5.05,-2.802c2,-0.922 4.16,-1.602 6.3,-1.971c1.9,-0.438 4.07,-0.629 6.61,-0.602l1.02,0.073c0.74,0.053 1.46,0.104 2.17,0.152c0.62,0.029 1.23,0.15 1.81,0.266c0.34,0.068 0.67,0.134 1,0.182c1.4,0.205 2.6,0.522 3.56,0.776c0.25,0.067 0.48,0.129 0.7,0.185l4.64,1.089l-4.06,-2.55Z" style="fill:#030405;fill-rule:nonzero;"/><path d="M149.61,202.995" style="fill:#be927b;fill-rule:nonzero;"/><path d="M149.61,202.995" style="fill:#be927b;fill-rule:nonzero;"/><path d="M145.97,200.254c-0.1,-0.022 -0.21,-0.042 -0.31,-0.066c0.1,0.023 0.19,0.041 0.31,0.066Z" style="fill:#be927b;fill-rule:nonzero;"/><path d="M149.61,200.058" style="fill:#be927b;fill-rule:nonzero;"/><path d="M145.17,200.075c-0.1,-0.024 -0.18,-0.051 -0.28,-0.077l-0.01,0.004c0,0 0.11,0.029 0.29,0.073Z" style="fill:#be927b;fill-rule:nonzero;"/><path d="M149.61,200.058" style="fill:#be927b;fill-rule:nonzero;"/><path d="M149.38,202.215" style="fill:#be927b;fill-rule:nonzero;"/><path d="M149.38,202.215" style="fill:#be927b;fill-rule:nonzero;"/><path d="M145.74,199.474c-0.1,-0.022 -0.21,-0.042 -0.31,-0.066c0.1,0.022 0.19,0.041 0.31,0.066Z" style="fill:#be927b;fill-rule:nonzero;"/><path d="M149.38,199.278" style="fill:#be927b;fill-rule:nonzero;"/><path d="M144.94,199.295c-0.1,-0.025 -0.18,-0.052 -0.28,-0.077l-0.01,0.004c0,0 0.11,0.029 0.29,0.073Z" style="fill:#be927b;fill-rule:nonzero;"/><path d="M149.38,199.278" style="fill:#be927b;fill-rule:nonzero;"/><path d="M149.97,202.017" style="fill:#be927b;fill-rule:nonzero;"/><path d="M149.97,202.017" style="fill:#be927b;fill-rule:nonzero;"/><path d="M146.45,199.367c-0.1,-0.021 -0.2,-0.041 -0.29,-0.064c0.09,0.022 0.18,0.04 0.29,0.064Z" style="fill:#be927b;fill-rule:nonzero;"/><path d="M149.97,199.178" style="fill:#be927b;fill-rule:nonzero;"/><path d="M145.68,199.194c-0.09,-0.023 -0.18,-0.05 -0.27,-0.074l-0.01,0.004c0,0 0.11,0.028 0.28,0.07Z" style="fill:#be927b;fill-rule:nonzero;"/><path d="M149.97,199.178" style="fill:#be927b;fill-rule:nonzero;"/><path d="M139.71,201.764c-0.24,-3.2 8.92,0.67 11.92,0.762c2.4,0.081 9.6,-0.474 10.27,-0.728c5.03,-1.883 -0.28,5.349 -10.42,5.73c-4.64,0.185 -11.63,-3.824 -11.77,-5.764Z" style="fill:#f0d2ad;fill-rule:nonzero;"/><path d="M169.88,194.078c-5.8,-1.086 -18.03,0.073 -18.03,0.073c-10.08,1.675 -17.97,-0.107 -18.03,-0.038c-0.24,0.024 8.05,11.023 17.89,10.516c9.84,0.507 18.41,-10.516 18.17,-10.551Z" style="fill:#c2646e;fill-rule:nonzero;"/><path d="M157.68,191.756c-2.61,-0.289 -4.48,1.597 -5.82,1.459c-1.36,0.127 -3.14,-1.083 -5.77,-1.109c-3.7,-0.036 -5.5,-0.361 -12.27,2.007c0.24,0.462 4.58,2.972 12.7,3.11c0.11,0 2.29,1.236 5.39,1.214c1.94,-0.012 4.6,-1.306 4.7,-1.306c8.13,-0.127 13.1,-2.544 13.33,-2.994c-8.95,-2.773 -8.24,-2.417 -12.26,-2.381Z" style="fill:#d87475;fill-rule:nonzero;"/><path d="M243.83,66.401c-0.22,0.603 -0.66,1.185 -1.26,1.746c0.83,-1.048 1.26,-1.746 1.26,-1.746c-1.35,0.937 -2.64,1.729 -3.9,2.448c-23.61,13.478 -30.19,-10.198 -30.19,-10.198c2.46,-22.313 27.81,-21.997 27.81,-21.997c0,0 -21.55,-11.157 -29.85,10.717c-1.11,-11.774 4.86,-23.209 4.86,-23.209c-9.62,2.193 -13.66,10.531 -15.35,17.65c-5.94,-12.228 0.21,-21.311 0.21,-21.311l-32.98,14.053c4.28,-3.649 10.97,-10.392 10.97,-10.392c0,0 -10.23,1.126 -26.03,5.925c-11.12,3.379 -17.77,9.376 -21.5,12.13l-0.1,-9.966c0,0 -16.15,11.906 -31.45,27.545c-15.28,15.622 -21.15,30.321 -21.15,46.849c0,16.52 6.85,33.078 11.35,37.996c4.49,4.918 3.05,12.046 4.4,12.046c0,0 3.24,0.13 2.76,-16.158c1.77,-18.496 9.72,-25.888 14.16,-28.602c7.82,-4.413 19.6,-5.213 37.23,4.367l-0.01,-0.029c10.88,6.79 15.26,-2.216 30.63,-6.765c26.21,-7.748 37.09,12.585 34.88,23.079c-3.38,16.157 1.33,25.457 3.13,25.022c0,0 0.07,-4.103 1.69,-7.756c4.85,-10.897 8.9,-3.323 9.66,-18.093c0.87,-17.296 3.7,-23.614 2.79,-32.855c-0.51,-5.217 -2.26,-11.438 -3.65,-15.786c17.6,-0.308 19.63,-16.71 19.63,-16.71Z" style="fill:#3a2817;fill-rule:nonzero;"/><path d="M205.34,260.354l0,39.503l-105.79,0l0,-26.85c-0.02,-0.741 -0.04,-1.481 -0.04,-2.181c0,-0.658 0.02,-1.317 0.02,-1.954c0.64,-18.517 9.94,-25.451 9.94,-25.451c0.59,-0.658 1.34,-1.44 2.2,-2.284c1.85,-1.872 4.26,-4.073 6.87,-5.945c5.95,-4.321 13,-7.037 12.61,-5.741c0,0 20.66,74.664 43.31,0c-0.37,-1.296 6.67,1.42 12.61,5.741c2.08,1.481 4,3.168 5.64,4.711c3.09,2.942 5.17,5.452 5.17,5.452c0,0 7.46,8.785 7.46,14.999Z" style="fill:#f05437;fill-rule:nonzero;"/><path d="M78.27,174.428c0.22,0.365 0.48,0.712 0.77,1.038c0.01,0.013 0.04,-0.069 0.09,-0.221l0.06,-0.17c4.63,-1.016 7.24,-0.093 8.67,1.55c2.14,2.465 1.63,6.547 1.32,8.151c-0.08,0.426 -0.15,0.68 -0.15,0.68c0.7,0.625 1.51,1.092 2.38,1.441c0.85,0.339 1.75,0.563 2.67,0.698l-1.42,-15.641l-15.82,-1.998c0.18,1.596 0.61,3.15 1.43,4.472Z" style="fill:#bc5654;fill-rule:nonzero;"/><path d="M213.4,186.837c0.34,-0.256 0.66,-0.54 0.96,-0.855c0.02,-0.013 -0.07,-0.036 -0.22,-0.073l-0.18,-0.041c-1.41,-4.533 -0.71,-7.211 0.81,-8.773c2.27,-2.343 6.38,-2.182 8,-2.011c0.44,0.045 0.69,0.091 0.69,0.091c0.57,-0.757 0.96,-1.604 1.24,-2.5c0.26,-0.871 0.41,-1.788 0.46,-2.719l-15.46,2.751l-0.64,15.935c1.58,-0.318 3.09,-0.877 4.34,-1.805Z" style="fill:#bc5654;fill-rule:nonzero;"/><path d="M205.34,268.872l0,17.693l-105.79,0l0,-13.558c-0.02,-0.741 -0.04,-1.481 -0.04,-2.181c0,-0.658 0.02,-1.317 0.02,-1.954l105.81,0Z" style="fill:#be3426;fill-rule:nonzero;"/><path d="M98.83,161.162c-2.98,-1.415 -5,-3.869 -6.36,-6.398c0.4,-1.035 0.77,-2.626 1.01,-5.073c0.87,-0.383 1.84,-0.789 2.9,-1.198c0.39,2.03 0.84,4.001 1.33,5.897c0.42,1.626 0.79,4.033 1.12,6.772Z" style="fill:#c77b75;fill-rule:nonzero;"/><path d="M120.78,164.442c-9.2,0 -19.14,-2.34 -19.14,-2.34c-1.02,-0.213 -1.96,-0.534 -2.81,-0.94c-0.33,-2.739 -0.7,-5.146 -1.12,-6.772c-0.49,-1.896 -0.94,-3.867 -1.33,-5.897c3.82,-1.462 8.87,-2.959 14.62,-3.568c2.14,3.994 4.9,7.471 8.19,8.115c1.7,0.33 3.42,0.462 5.09,0.462c6.64,0 12.46,-2.086 12.46,-2.086c0,0 0,-0.02 0,-0.06c0.01,-0.001 0.01,-0.002 0.01,-0.002c0,0 0.03,-0.654 0.05,-1.759c0.67,0.354 1.35,0.729 2.03,1.128c0.09,0.053 0.18,0.107 0.27,0.161c0,0.001 0,0.001 0,0.002c0.03,0.018 0.06,0.036 0.09,0.054c-1.2,2.637 -2.49,5.064 -3.51,6.922c-1.8,3.233 -4.96,5.511 -8.61,6.119c-1.96,0.328 -4.1,0.461 -6.29,0.461Z" style="fill:#ce877f;fill-rule:nonzero;"/><path d="M124.28,153.502c-1.67,0 -3.39,-0.132 -5.09,-0.462c-3.29,-0.644 -6.05,-4.121 -8.19,-8.115c1.61,-0.17 3.26,-0.271 4.97,-0.282c1.33,2.809 4.19,4.751 7.5,4.751c2.45,0 4.66,-1.065 6.17,-2.758c2.14,0.665 4.28,1.518 6.43,2.589c0.03,0.81 0.04,1.603 0.06,2.365c0.38,-0.158 0.57,-0.221 0.61,-0.234c0,0.04 0,0.06 0,0.06c0,0 -5.82,2.086 -12.46,2.086Z" style="fill:#dea8af;fill-rule:nonzero;"/><path d="M136.13,151.59c-0.02,-0.762 -0.03,-1.555 -0.06,-2.365c0.24,0.121 0.48,0.244 0.73,0.37c-0.02,1.105 -0.05,1.759 -0.05,1.759c0,0 0,0.001 -0.01,0.002c-0.04,0.013 -0.23,0.076 -0.61,0.234Z" style="fill:#c9827d;fill-rule:nonzero;"/><path d="M123.47,149.394c-3.31,0 -6.17,-1.942 -7.5,-4.751c0.1,-0.001 0.2,-0.001 0.3,-0.001l0.04,0c1.21,0.001 2.45,0.047 3.7,0.146c0.73,1.027 1.83,1.733 3.07,1.836c0.11,0.009 0.22,0.013 0.32,0.013c0.96,0 1.87,-0.357 2.62,-0.96c1.2,0.263 2.41,0.581 3.62,0.959c-1.51,1.693 -3.72,2.758 -6.17,2.758Z" style="fill:#6e2c30;fill-rule:nonzero;"/><path d="M123.4,146.637c-0.1,0 -0.21,-0.004 -0.32,-0.013c-1.24,-0.103 -2.34,-0.809 -3.07,-1.836c0.52,0.041 1.05,0.092 1.58,0.153c0.52,0.414 1.11,0.674 1.7,0.724c0.07,0.006 0.14,0.009 0.21,0.009c0.4,0 0.82,-0.092 1.22,-0.262c0.43,0.081 0.87,0.17 1.3,0.265c-0.75,0.603 -1.66,0.96 -2.62,0.96Z" style="fill:#933637;fill-rule:nonzero;"/><path d="M123.5,145.674c-0.07,0 -0.14,-0.003 -0.21,-0.009c-0.59,-0.05 -1.18,-0.31 -1.7,-0.724c1.03,0.118 2.08,0.274 3.13,0.471c-0.4,0.17 -0.82,0.262 -1.22,0.262Z" style="fill:#542d31;fill-rule:nonzero;"/><path d="M92.47,154.764c-0.7,-1.298 -1.22,-2.616 -1.61,-3.824c0.02,-0.012 0.05,-0.024 0.07,-0.036c0.02,-0.008 0.03,-0.016 0.05,-0.023c0.07,-0.037 0.14,-0.075 0.22,-0.113c0.64,-0.321 1.41,-0.688 2.28,-1.077c-0.24,2.447 -0.61,4.038 -1.01,5.073Z" style="fill:#643232;fill-rule:nonzero;"/><path d="M93.48,149.691c0.22,-2.252 0.32,-5.228 0.21,-9.162c0.23,-2.429 0.57,-4.667 0.99,-6.728c0.2,5.068 0.81,10.033 1.7,14.692c-1.06,0.409 -2.03,0.815 -2.9,1.198Z" style="fill:url(#_Linear1);"/><path d="M139.19,150.94c-0.03,-0.018 -0.06,-0.036 -0.09,-0.054c0,-0.001 0,-0.001 0,-0.002c-0.09,-0.054 -0.18,-0.108 -0.27,-0.161c-0.68,-0.399 -1.36,-0.774 -2.03,-1.128c0.06,-3.662 0.09,-12.279 -0.94,-18.453c1.83,1.359 2.83,2.358 2.84,2.371c0.39,0.392 0.91,0.594 1.44,0.594c0.38,0 0.76,-0.107 1.1,-0.328c0.34,-0.226 0.59,-0.541 0.75,-0.894c0.72,0.947 1.15,2.189 1.22,3.401c0.24,4.107 -1.77,9.751 -4.02,14.654Zm-42.81,-2.447c-0.89,-4.659 -1.5,-9.624 -1.7,-14.692c0.18,-0.85 0.37,-1.67 0.57,-2.461c4.68,-1.496 9.15,-2.388 13.34,-2.859c-0.89,0.818 -1.8,1.722 -2.72,2.717c0,0 0,0.015 0.01,0.044c-0.01,0.006 -0.02,0.012 -0.02,0.019c0,0 1.82,7.456 5.14,13.664c-5.75,0.609 -10.8,2.106 -14.62,3.568Z" style="fill:url(#_Linear2);"/><path d="M136.07,149.225c-2.15,-1.071 -4.29,-1.924 -6.42,-2.589c1.31,-1.468 2.11,-3.408 2.11,-5.536c0,-4.58 -3.71,-8.293 -8.29,-8.293c-4.58,0 -8.29,3.713 -8.29,8.293c0,1.268 0.28,2.469 0.79,3.543c-1.71,0.011 -3.36,0.112 -4.97,0.282c-3.32,-6.208 -5.14,-13.664 -5.14,-13.664c0,-0.007 0.01,-0.013 0.02,-0.019c0.08,0.338 0.62,2.569 1.64,5.441c6.06,-5.666 11.36,-7.449 15.64,-7.449c4.25,0 7.5,1.758 9.49,3.219c2.41,1.709 3.2,9.873 3.42,16.772Z" style="fill:url(#_Linear3);"/><path d="M136.8,149.595c-0.25,-0.126 -0.49,-0.249 -0.73,-0.37c-0.22,-6.899 -1.01,-15.063 -3.42,-16.772c-1.99,-1.461 -5.24,-3.219 -9.49,-3.219c-4.28,0 -9.58,1.783 -15.64,7.449c-1.02,-2.872 -1.56,-5.103 -1.64,-5.441c-0.01,-0.029 -0.01,-0.044 -0.01,-0.044c0.92,-0.995 1.83,-1.899 2.72,-2.717c2.71,-0.306 5.31,-0.434 7.77,-0.434c7.46,0 13.69,1.177 18.2,2.169c0.47,0.322 0.91,0.632 1.3,0.926c1.03,6.174 1,14.791 0.94,18.453Z" style="fill:url(#_Linear4);"/><path d="M129.65,146.636c-1.22,-0.378 -2.43,-0.697 -3.63,-0.959c0.09,-0.068 0.17,-0.138 0.25,-0.212c0.04,0.008 0.08,0.014 0.12,0.017c0.03,0.002 0.06,0.003 0.08,0.003c0.44,0 0.81,-0.287 0.85,-0.667c0.01,-0.17 -0.04,-0.332 -0.14,-0.465c0.4,-0.666 0.66,-1.439 0.73,-2.268c0.21,-2.657 -1.63,-5.071 -4.02,-5.268c-0.11,-0.009 -0.22,-0.014 -0.32,-0.014c-1.29,0 -2.5,0.649 -3.35,1.676c-0.02,-0.001 -0.05,-0.002 -0.07,-0.002c-0.89,0 -1.62,0.573 -1.69,1.342c-0.04,0.495 0.21,0.959 0.64,1.263c-0.01,0.089 -0.02,0.179 -0.03,0.27c-0.11,1.273 0.26,2.491 0.94,3.436c-1.25,-0.099 -2.49,-0.146 -3.7,-0.146c-0.01,0 -0.01,0 -0.02,0c-0.01,0 -0.01,0 -0.02,0c-0.1,0 -0.2,0 -0.3,0.001c-0.51,-1.074 -0.79,-2.275 -0.79,-3.543c0,-4.58 3.71,-8.293 8.29,-8.293c4.58,0 8.29,3.713 8.29,8.293c0,2.128 -0.8,4.068 -2.11,5.536Z" style="fill:url(#_Linear5);"/><path d="M126.02,145.677c-0.43,-0.096 -0.87,-0.184 -1.3,-0.265c0.3,-0.131 0.6,-0.307 0.88,-0.525c0.07,0.28 0.33,0.511 0.67,0.578c-0.08,0.074 -0.16,0.144 -0.25,0.212Zm-4.43,-0.736c-0.53,-0.061 -1.06,-0.112 -1.58,-0.153c-0.68,-0.945 -1.05,-2.163 -0.94,-3.436c0.01,-0.091 0.02,-0.181 0.03,-0.27c0.27,0.195 0.6,0.324 0.98,0.356c0,0.001 0,0.003 0,0.004c-0.12,1.458 0.56,2.738 1.51,3.499Zm5.59,-0.588c-0.15,-0.189 -0.39,-0.323 -0.67,-0.345c-0.03,-0.002 -0.05,-0.003 -0.08,-0.003c0.39,-0.555 0.65,-1.227 0.71,-1.98c0.19,-2.253 -1.54,-4.09 -3.21,-4.231c-0.07,-0.006 -0.14,-0.009 -0.21,-0.009c-0.83,0 -1.71,0.39 -2.41,1.061c-0.27,-0.199 -0.61,-0.331 -0.99,-0.362c-0.03,-0.002 -0.06,-0.004 -0.1,-0.005c0.85,-1.027 2.06,-1.676 3.35,-1.676c0.1,0 0.21,0.005 0.32,0.014c2.39,0.197 4.23,2.611 4.02,5.268c-0.07,0.829 -0.33,1.602 -0.73,2.268Z" style="fill:url(#_Linear6);"/><path d="M124.72,145.412c-1.05,-0.197 -2.1,-0.353 -3.13,-0.471c-0.95,-0.761 -1.63,-2.041 -1.51,-3.499c0,-0.001 0,-0.003 0,-0.004c0.05,0.005 0.11,0.007 0.17,0.007c0.88,0 1.63,-0.571 1.69,-1.337c0.04,-0.495 -0.21,-0.957 -0.63,-1.262c0.7,-0.671 1.58,-1.061 2.41,-1.061c0.07,0 0.14,0.003 0.21,0.009c1.67,0.141 3.4,1.978 3.21,4.231c-0.06,0.753 -0.32,1.425 -0.71,1.98l-0.01,0c-0.44,0 -0.81,0.287 -0.84,0.667c-0.01,0.074 0,0.146 0.02,0.215c-0.28,0.218 -0.58,0.394 -0.88,0.525Z" style="fill:url(#_Linear7);"/><path d="M120.25,141.445c-0.06,0 -0.12,-0.002 -0.17,-0.007c-0.38,-0.032 -0.71,-0.161 -0.98,-0.356c-0.43,-0.304 -0.68,-0.768 -0.64,-1.263c0.07,-0.769 0.8,-1.342 1.69,-1.342c0.02,0 0.05,0.001 0.07,0.002c0.04,0.001 0.07,0.003 0.1,0.005c0.38,0.031 0.72,0.163 0.99,0.362c0.42,0.305 0.67,0.767 0.63,1.262c-0.06,0.766 -0.81,1.337 -1.69,1.337Z" style="fill:url(#_Linear8);"/><path d="M126.47,145.485c-0.02,0 -0.05,-0.001 -0.08,-0.003c-0.04,-0.003 -0.08,-0.009 -0.12,-0.017c-0.34,-0.067 -0.6,-0.298 -0.67,-0.578c-0.02,-0.069 -0.03,-0.141 -0.02,-0.215c0.03,-0.38 0.4,-0.667 0.84,-0.667l0.01,0c0.03,0 0.05,0.001 0.08,0.003c0.28,0.022 0.52,0.156 0.67,0.345c0.1,0.133 0.15,0.295 0.14,0.465c-0.04,0.38 -0.41,0.667 -0.85,0.667Z" style="fill:url(#_Linear9);"/><path d="M140.14,134.107c-0.53,0 -1.05,-0.202 -1.44,-0.594c-0.01,-0.013 -1.01,-1.012 -2.84,-2.371c-0.39,-0.294 -0.83,-0.604 -1.3,-0.926c2.03,0.448 3.72,0.858 5.01,1.105c0.99,0.189 1.81,0.774 2.42,1.564c-0.16,0.353 -0.41,0.668 -0.75,0.894c-0.34,0.221 -0.72,0.328 -1.1,0.328Z" style="fill:url(#_Linear10);"/><path d="M90.86,150.94c-0.56,-1.746 -0.86,-3.262 -1,-4.151c-0.08,-0.553 -0.17,-1.106 -0.29,-1.653c-2.26,-10.316 1.88,-12.438 2.97,-12.814c0.46,-0.16 0.9,-0.376 1.36,-0.537c0.45,-0.154 0.9,-0.302 1.35,-0.445c-0.2,0.791 -0.39,1.611 -0.57,2.461c-0.42,2.061 -0.76,4.299 -0.99,6.728c0.11,3.934 0.01,6.91 -0.21,9.162c-0.87,0.39 -1.64,0.755 -2.28,1.077c-0.08,0.038 -0.15,0.076 -0.22,0.113c-0.02,0.007 -0.03,0.015 -0.05,0.023c-0.02,0.012 -0.05,0.024 -0.07,0.036Z" style="fill:url(#_Linear11);"/><path d="M138.83,150.723c-0.68,-0.399 -1.36,-0.774 -2.03,-1.128c0.67,0.354 1.35,0.729 2.03,1.128Z" style="fill:url(#_Linear12);"/><path d="M136.07,149.225c-2.15,-1.071 -4.29,-1.924 -6.43,-2.589l0.01,0c2.13,0.665 4.27,1.518 6.42,2.589Z" style="fill:url(#_Linear13);"/><path d="M136.8,149.595c-0.25,-0.126 -0.49,-0.249 -0.73,-0.37c0.24,0.121 0.48,0.244 0.73,0.37Z" style="fill:url(#_Linear14);"/><path d="M129.64,146.636c-1.21,-0.378 -2.42,-0.696 -3.62,-0.959c1.2,0.262 2.41,0.581 3.63,0.959l-0.01,0Zm-9.63,-1.848c-1.25,-0.099 -2.49,-0.145 -3.7,-0.146c1.21,0 2.45,0.047 3.7,0.146Z" style="fill:url(#_Linear15);"/><path d="M126.02,145.677c-0.43,-0.095 -0.87,-0.184 -1.3,-0.265c0.43,0.081 0.87,0.169 1.3,0.265Zm-4.43,-0.736c-0.53,-0.061 -1.06,-0.112 -1.58,-0.153c0.52,0.041 1.05,0.092 1.58,0.153Z" style="fill:url(#_Linear16);"/><path d="M124.72,145.412c-1.05,-0.197 -2.1,-0.353 -3.13,-0.471c1.03,0.118 2.08,0.274 3.13,0.471Z" style="fill:url(#_Linear17);"/><path d="M204.3,160.501c0.3,-2.464 0.64,-4.617 1.03,-6.111c0.42,-1.625 0.82,-3.305 1.17,-5.032c1.52,0.65 2.75,1.254 3.65,1.72c0.11,0.496 0.23,0.964 0.35,1.406c-1.14,2.885 -3.05,6.057 -6.2,8.017Z" style="fill:#cd837e;fill-rule:nonzero;"/><path d="M181.14,164.442c-2.19,0 -4.34,-0.133 -6.3,-0.461c-3.65,-0.608 -6.8,-2.886 -8.6,-6.119c-1.1,-1.985 -2.49,-4.617 -3.76,-7.463c0.07,-0.044 0.15,-0.088 0.23,-0.132c0.02,-0.013 0.04,-0.025 0.07,-0.038c1.64,-0.923 3.29,-1.712 4.94,-2.38c0.02,1.735 0.06,2.82 0.06,2.82c0,0 0,0.001 0.01,0.003c0,0.039 0,0.059 0,0.059c0,0 5.82,2.086 12.46,2.086c1.67,0 3.39,-0.132 5.09,-0.462c2.98,-0.583 5.53,-3.489 7.57,-6.998c5.53,0.921 10.25,2.573 13.59,4.001c-0.35,1.727 -0.75,3.407 -1.17,5.032c-0.39,1.494 -0.73,3.647 -1.03,6.111c-1.17,0.724 -2.5,1.283 -4.03,1.601c0,0 -9.94,2.34 -19.13,2.34Z" style="fill:#d69188;fill-rule:nonzero;"/><path d="M180.25,152.817c-6.64,0 -12.46,-2.086 -12.46,-2.086c0,0 0,-0.02 0,-0.059c0.04,0.013 0.24,0.075 0.61,0.233c0.02,-1.073 0.05,-2.206 0.09,-3.363c2.07,-0.795 4.13,-1.403 6.17,-1.852c1.52,1.844 3.82,3.019 6.4,3.019c2.98,0 5.59,-1.571 7.05,-3.93c1.66,0.122 3.26,0.322 4.8,0.578c-2.04,3.509 -4.59,6.415 -7.57,6.998c-1.7,0.33 -3.42,0.462 -5.09,0.462Z" style="fill:#dea8af;fill-rule:nonzero;"/><path d="M168.4,150.905c-0.37,-0.158 -0.57,-0.22 -0.61,-0.233c-0.01,-0.002 -0.01,-0.003 -0.01,-0.003c0,0 -0.04,-1.085 -0.06,-2.82c0.25,-0.105 0.52,-0.208 0.77,-0.307c-0.04,1.157 -0.07,2.29 -0.09,3.363Z" style="fill:#c9827d;fill-rule:nonzero;"/><path d="M181.06,148.709c-2.58,0 -4.88,-1.175 -6.4,-3.019c1.3,-0.287 2.6,-0.51 3.88,-0.674c0.74,0.588 1.64,0.936 2.59,0.936c0.1,0 0.21,-0.005 0.32,-0.014c1.01,-0.083 1.92,-0.565 2.63,-1.294c0.12,-0.001 0.24,-0.002 0.36,-0.002l0.04,0c1.23,0.001 2.45,0.049 3.63,0.137c-1.46,2.359 -4.07,3.93 -7.05,3.93Z" style="fill:#6e2c30;fill-rule:nonzero;"/><path d="M181.13,145.952c-0.95,0 -1.85,-0.348 -2.59,-0.936c0.53,-0.068 1.05,-0.126 1.58,-0.175c0.3,0.097 0.61,0.147 0.91,0.147c0.07,0.001 0.14,-0.002 0.21,-0.008c0.34,-0.029 0.68,-0.128 1.01,-0.287c0.61,-0.028 1.22,-0.044 1.83,-0.049c-0.71,0.729 -1.62,1.211 -2.63,1.294c-0.11,0.009 -0.22,0.014 -0.32,0.014Z" style="fill:#933637;fill-rule:nonzero;"/><path d="M181.03,144.988c-0.3,0 -0.61,-0.05 -0.91,-0.147c0.71,-0.066 1.43,-0.115 2.13,-0.148c-0.33,0.159 -0.67,0.258 -1.01,0.287c-0.07,0.006 -0.14,0.009 -0.21,0.008Z" style="fill:#542d31;fill-rule:nonzero;"/><path d="M210.5,152.484c-0.12,-0.442 -0.24,-0.91 -0.35,-1.406c0.16,0.082 0.31,0.161 0.44,0.234c0.02,0.006 0.03,0.011 0.04,0.017c0.06,0.032 0.11,0.062 0.17,0.092c0.02,0.015 0.05,0.03 0.08,0.044c-0.12,0.334 -0.24,0.675 -0.38,1.019Z" style="fill:#643232;fill-rule:nonzero;"/><path d="M210.15,151.078c-0.9,-0.466 -2.13,-1.07 -3.65,-1.72c1.11,-5.464 1.83,-11.383 1.94,-17.408c0.31,0.127 0.62,0.262 0.94,0.372c0.25,0.087 0.67,0.268 1.13,0.622c-1.58,7.76 -1.28,13.914 -0.36,18.134Z" style="fill:url(#_Linear18);"/></g><path d="M162.48,150.399c-2.15,-4.777 -4.01,-10.156 -3.77,-14.113c0.12,-2.223 1.45,-4.55 3.63,-4.965c0.22,-0.041 0.44,-0.087 0.68,-0.137c-0.37,0.768 -0.23,1.713 0.38,2.329c0.39,0.385 0.89,0.595 1.43,0.595c0.54,0 1.05,-0.212 1.43,-0.596l0.02,-0.017c0.1,-0.102 0.85,-0.842 2.21,-1.892c-0.77,5.493 -0.82,12.437 -0.77,16.246c-1.65,0.668 -3.3,1.457 -4.94,2.38c-0.03,0.013 -0.05,0.025 -0.07,0.038c-0.08,0.044 -0.16,0.088 -0.23,0.132Zm44.02,-1.041c-3.34,-1.428 -8.06,-3.081 -13.59,-4.001c3.72,-6.391 5.76,-14.781 5.76,-14.781c-0.01,-0.006 -0.01,-0.013 -0.02,-0.019c0.01,-0.029 0.01,-0.044 0.01,-0.044c-0.48,-0.517 -0.95,-1.009 -1.42,-1.477c3.44,0.589 7.04,1.476 10.77,2.749c0.14,0.051 0.29,0.107 0.43,0.165c-0.11,6.025 -0.83,11.944 -1.94,17.408Z" style="fill:url(#_Linear19);"/><path d="M168.49,147.542c0.26,-6.667 1.09,-14.146 3.39,-15.774c1.99,-1.461 5.24,-3.22 9.49,-3.22c4.28,0 9.58,1.783 15.64,7.449c1.02,-2.871 1.56,-5.102 1.64,-5.44c0.01,0.006 0.01,0.013 0.02,0.019c0,0 -2.04,8.39 -5.76,14.781c-1.54,-0.257 -3.14,-0.456 -4.8,-0.578c0.79,-1.268 1.24,-2.763 1.24,-4.363c0,-4.581 -3.71,-8.294 -8.29,-8.294c-4.58,0 -8.29,3.713 -8.29,8.294c0,2.003 0.71,3.841 1.89,5.274c-2.04,0.449 -4.1,1.057 -6.17,1.852Z" style="fill:url(#_Linear20);"/><path d="M167.72,147.849c-0.05,-3.809 0,-10.753 0.77,-16.246c0.62,-0.476 1.36,-1.015 2.21,-1.587c0.32,-0.233 0.66,-0.458 1.01,-0.679c3.88,-0.698 8.55,-1.29 13.84,-1.29c3.62,0 7.53,0.278 11.69,0.989c0.47,0.468 0.94,0.96 1.42,1.477c0,0 0,0.015 -0.01,0.044c-0.08,0.338 -0.62,2.569 -1.64,5.44c-6.06,-5.666 -11.36,-7.449 -15.64,-7.449c-4.25,0 -7.5,1.759 -9.49,3.22c-2.3,1.628 -3.13,9.107 -3.39,15.774c-0.25,0.099 -0.52,0.202 -0.77,0.307Z" style="fill:url(#_Linear21);"/><path d="M174.66,145.69c-1.18,-1.433 -1.89,-3.271 -1.89,-5.274c0,-4.581 3.71,-8.294 8.29,-8.294c4.58,0 8.29,3.713 8.29,8.294c0,1.6 -0.45,3.095 -1.24,4.363c-1.18,-0.088 -2.4,-0.136 -3.63,-0.137c-0.01,0 -0.02,0 -0.03,0l-0.01,0c-0.12,0 -0.24,0.001 -0.36,0.002c0.95,-0.993 1.51,-2.445 1.38,-3.977c-0.01,-0.091 -0.02,-0.18 -0.03,-0.27c0.43,-0.304 0.68,-0.768 0.64,-1.263c-0.06,-0.769 -0.8,-1.342 -1.69,-1.342c-0.02,0 -0.05,0.001 -0.07,0.002c-0.85,-1.026 -2.06,-1.676 -3.35,-1.676c-0.1,0 -0.21,0.005 -0.32,0.014c-2.39,0.197 -4.23,2.61 -4.02,5.267c0.07,0.829 0.33,1.603 0.73,2.268c-0.1,0.134 -0.15,0.296 -0.14,0.466c0.04,0.38 0.4,0.667 0.84,0.667c0.03,0 0.06,-0.001 0.09,-0.003c0.04,-0.003 0.08,-0.009 0.12,-0.017c0.09,0.082 0.18,0.161 0.28,0.236c-1.28,0.164 -2.58,0.387 -3.88,0.674Z" style="fill:url(#_Linear22);"/><path d="M178.54,145.016c-0.1,-0.075 -0.19,-0.154 -0.28,-0.236c0.34,-0.067 0.6,-0.298 0.67,-0.577c0.37,0.289 0.78,0.506 1.19,0.638c-0.52,0.049 -1.05,0.107 -1.58,0.175Zm3.71,-0.323c1.28,-0.619 2.35,-2.144 2.2,-3.936c0,-0.001 0,-0.003 0,-0.004c0.38,-0.032 0.71,-0.161 0.98,-0.356c0.01,0.09 0.02,0.179 0.03,0.27c0.13,1.532 -0.43,2.984 -1.38,3.977c-0.61,0.005 -1.22,0.021 -1.83,0.049Zm-4.9,-1.026c-0.4,-0.665 -0.66,-1.439 -0.73,-2.268c-0.21,-2.657 1.63,-5.07 4.02,-5.267c0.11,-0.009 0.22,-0.014 0.32,-0.014c1.29,0 2.5,0.65 3.35,1.676c-0.04,0.001 -0.07,0.003 -0.1,0.005c-0.38,0.031 -0.72,0.163 -0.99,0.362c-0.7,-0.671 -1.59,-1.061 -2.42,-1.061c-0.07,0 -0.13,0.003 -0.2,0.008c-1.67,0.142 -3.4,1.979 -3.21,4.232c0.06,0.753 0.32,1.425 0.71,1.98c-0.03,0 -0.05,0.001 -0.08,0.004c-0.28,0.021 -0.52,0.154 -0.67,0.343Z" style="fill:url(#_Linear23);"/><path d="M180.12,144.841c-0.41,-0.132 -0.82,-0.349 -1.19,-0.638c0.02,-0.07 0.03,-0.142 0.02,-0.216c-0.03,-0.38 -0.4,-0.667 -0.84,-0.667l-0.01,0c-0.39,-0.555 -0.65,-1.227 -0.71,-1.98c-0.19,-2.253 1.54,-4.09 3.21,-4.232c0.07,-0.005 0.13,-0.008 0.2,-0.008c0.83,0 1.72,0.39 2.42,1.061c-0.42,0.305 -0.67,0.767 -0.63,1.262c0.06,0.765 0.81,1.337 1.69,1.337c0.06,0 0.12,-0.002 0.17,-0.007c0,0.001 0,0.003 0,0.004c0.15,1.792 -0.92,3.317 -2.2,3.936c-0.7,0.033 -1.41,0.082 -2.13,0.148Z" style="fill:url(#_Linear24);"/><path d="M184.28,140.76c-0.88,0 -1.63,-0.572 -1.69,-1.337c-0.04,-0.495 0.21,-0.957 0.63,-1.262c0.27,-0.199 0.61,-0.331 0.99,-0.362c0.03,-0.002 0.06,-0.004 0.1,-0.005c0.02,-0.001 0.05,-0.002 0.07,-0.002c0.89,0 1.63,0.573 1.69,1.342c0.04,0.495 -0.21,0.959 -0.64,1.263c-0.27,0.195 -0.6,0.324 -0.98,0.356c-0.05,0.005 -0.11,0.007 -0.17,0.007Z" style="fill:url(#_Linear25);"/><path d="M178.05,144.8c-0.44,0 -0.8,-0.287 -0.84,-0.667c-0.01,-0.17 0.04,-0.332 0.14,-0.466c0.15,-0.189 0.39,-0.322 0.67,-0.343c0.03,-0.003 0.05,-0.004 0.08,-0.004l0.01,0c0.44,0 0.81,0.287 0.84,0.667c0.01,0.074 0,0.146 -0.02,0.216c-0.07,0.279 -0.33,0.51 -0.67,0.577c-0.04,0.008 -0.08,0.014 -0.12,0.017c-0.03,0.002 -0.06,0.003 -0.09,0.003Z" style="fill:url(#_Linear26);"/><path d="M164.83,134.108c-0.54,0 -1.04,-0.21 -1.43,-0.595c-0.61,-0.616 -0.75,-1.561 -0.38,-2.329c2.1,-0.44 5.05,-1.191 8.69,-1.847c-0.35,0.221 -0.69,0.446 -1.01,0.679c-0.85,0.572 -1.59,1.111 -2.21,1.587c-1.36,1.05 -2.11,1.79 -2.21,1.892l-0.02,0.017c-0.38,0.384 -0.89,0.596 -1.43,0.596Z" style="fill:url(#_Linear27);"/><path d="M210.88,151.465c-0.03,-0.014 -0.06,-0.029 -0.08,-0.044c-0.06,-0.03 -0.11,-0.06 -0.17,-0.092c-0.01,-0.006 -0.02,-0.011 -0.04,-0.017c-0.13,-0.073 -0.28,-0.152 -0.44,-0.234c-0.92,-4.22 -1.22,-10.374 0.36,-18.134c1.53,1.177 3.57,4.266 1.83,12.192c-0.12,0.547 -0.21,1.1 -0.29,1.653c-0.16,0.978 -0.49,2.714 -1.17,4.676Z" style="fill:url(#_Linear28);"/><path d="M210.15,151.078c-0.9,-0.466 -2.13,-1.07 -3.65,-1.72c1.52,0.65 2.75,1.254 3.65,1.72Z" style="fill:url(#_Linear29);"/><path d="M206.5,149.358c-3.34,-1.428 -8.06,-3.08 -13.59,-4.001c5.53,0.92 10.25,2.573 13.59,4.001Z" style="fill:url(#_Linear30);"/><path d="M192.91,145.357c-1.54,-0.256 -3.14,-0.456 -4.8,-0.578c1.66,0.122 3.26,0.321 4.8,0.578Z" style="fill:url(#_Linear31);"/><path d="M188.11,144.779c-1.18,-0.088 -2.4,-0.136 -3.63,-0.137c1.23,0.001 2.45,0.049 3.63,0.137Z" style="fill:url(#_Linear32);"/><path d="M210.59,151.312c-0.13,-0.073 -0.28,-0.152 -0.44,-0.234c0.16,0.082 0.31,0.161 0.44,0.234Z" style="fill:url(#_Linear33);"/><path d="M212.34,145.136c-0.12,0.547 -0.21,1.1 -0.29,1.653c-0.16,0.978 -0.49,2.714 -1.17,4.676c-1.44,4.163 -4.46,9.359 -10.61,10.636c0,0 -15.24,3.588 -25.43,1.88c-3.65,-0.608 -6.8,-2.886 -8.6,-6.12c-1.11,-1.984 -2.49,-4.616 -3.76,-7.463c-2.15,-4.776 -4.01,-10.155 -3.77,-14.113c0.12,-2.222 1.45,-4.549 3.63,-4.964c6.7,-1.282 23.97,-6.937 45.67,0.464c0.46,0.161 0.9,0.377 1.37,0.537c1.09,0.376 5.22,2.498 2.96,12.814Zm-73.15,5.804c-1.2,2.637 -2.49,5.064 -3.51,6.921c-1.8,3.234 -4.96,5.512 -8.61,6.12c-10.19,1.708 -25.43,-1.88 -25.43,-1.88c-6.41,-1.332 -9.41,-6.926 -10.78,-11.161c-0.56,-1.747 -0.86,-3.261 -1,-4.151c-0.08,-0.553 -0.17,-1.106 -0.29,-1.653c-2.26,-10.316 1.88,-12.438 2.97,-12.814c0.46,-0.16 0.9,-0.376 1.36,-0.537c21.7,-7.401 38.97,-1.746 45.67,-0.464c2.19,0.415 3.51,2.742 3.64,4.964c0.24,4.108 -1.77,9.752 -4.02,14.655Zm78.36,-8.751l0.03,-6.628c0,-1.332 -0.68,-2.565 -1.82,-3.256c-4.67,-2.83 -19.01,-10.017 -34.01,-7.921c0,0 -16.37,2.216 -23.46,4.947c-1.07,0.409 -2.18,0.658 -3.32,0.78l-4.01,0.436l-4.02,-0.436c-1.14,-0.122 -2.25,-0.371 -3.31,-0.78c-7.1,-2.731 -23.47,-4.947 -23.47,-4.947c-15,-2.096 -29.33,5.091 -34.01,7.921c-1.14,0.691 -1.82,1.924 -1.82,3.256l0.03,6.628c-0.12,0.498 0.04,0.835 0.33,1.062c1.38,1.089 2.13,2.791 2.38,4.527c1.32,9.116 5.59,13.483 5.59,13.483c5.48,6.827 27.65,6.225 35.87,5.749c3.22,-0.188 6.25,-1.553 8.47,-3.886c5.02,-5.274 7.88,-14.002 8.8,-17.214c0.38,-1.299 1.01,-2.516 1.93,-3.516c1.2,-1.299 2.29,-1.647 2.93,-1.725c0,0 0.16,-0.033 0.44,-0.016l0.15,0.016c0.65,0.078 1.73,0.426 2.93,1.725c0.92,1 1.55,2.217 1.93,3.516c0.93,3.212 3.79,11.94 8.8,17.214c2.22,2.333 5.26,3.698 8.47,3.886c8.23,0.476 30.39,1.078 35.87,-5.749c0,0 4.27,-4.367 5.59,-13.483c0.25,-1.736 1,-3.438 2.39,-4.527c0.28,-0.227 0.44,-0.564 0.32,-1.062Z" style="fill:#fff;fill-rule:nonzero;"/></g><defs><linearGradient id="_Linear1" x1="0" y1="0" x2="1" y2="0" gradientUnits="userSpaceOnUse" gradientTransform="matrix(1.33164,49.8037,-49.8037,1.33164,115.51,117.468)"><stop offset="0" style="stop-color:#e7d1bf;stop-opacity:1"/><stop offset="1" style="stop-color:#de7474;stop-opacity:1"/></linearGradient><linearGradient id="_Linear2" x1="0" y1="0" x2="1" y2="0" gradientUnits="userSpaceOnUse" gradientTransform="matrix(1.33164,49.8037,-49.8037,1.33164,115.51,117.468)"><stop offset="0" style="stop-color:#efdcca;stop-opacity:1"/><stop offset="1" style="stop-color:#e47e7c;stop-opacity:1"/></linearGradient><linearGradient id="_Linear3" x1="0" y1="0" x2="1" y2="0" gradientUnits="userSpaceOnUse" gradientTransform="matrix(1.33164,49.8037,-49.8037,1.33164,115.51,117.468)"><stop offset="0" style="stop-color:#fff;stop-opacity:1"/><stop offset="1" style="stop-color:#f2979f;stop-opacity:1"/></linearGradient><linearGradient id="_Linear4" x1="0" y1="0" x2="1" y2="0" gradientUnits="userSpaceOnUse" gradientTransform="matrix(1.33164,49.8037,-49.8037,1.33164,115.51,117.468)"><stop offset="0" style="stop-color:#e9d7c8;stop-opacity:1"/><stop offset="1" style="stop-color:#e07a7b;stop-opacity:1"/></linearGradient><linearGradient id="_Linear5" x1="0" y1="0" x2="1" y2="0" gradientUnits="userSpaceOnUse" gradientTransform="matrix(1.33164,49.8037,-49.8037,1.33164,115.51,117.468)"><stop offset="0" style="stop-color:#967b70;stop-opacity:1"/><stop offset="1" style="stop-color:#923440;stop-opacity:1"/></linearGradient><linearGradient id="_Linear6" x1="0" y1="0" x2="1" y2="0" gradientUnits="userSpaceOnUse" gradientTransform="matrix(1.33164,49.8037,-49.8037,1.33164,115.51,117.468)"><stop offset="0" style="stop-color:#b78d79;stop-opacity:1"/><stop offset="1" style="stop-color:#b13b45;stop-opacity:1"/></linearGradient><linearGradient id="_Linear7" x1="0" y1="0" x2="1" y2="0" gradientUnits="userSpaceOnUse" gradientTransform="matrix(1.33164,49.8037,-49.8037,1.33164,115.51,117.468)"><stop offset="0" style="stop-color:#7e756f;stop-opacity:1"/><stop offset="1" style="stop-color:#7d3741;stop-opacity:1"/></linearGradient><linearGradient id="_Linear8" x1="0" y1="0" x2="1" y2="0" gradientUnits="userSpaceOnUse" gradientTransform="matrix(1.33164,49.8037,-49.8037,1.33164,115.51,117.468)"><stop offset="0" style="stop-color:#fff;stop-opacity:1"/><stop offset="1" style="stop-color:#f2979f;stop-opacity:1"/></linearGradient><linearGradient id="_Linear9" x1="0" y1="0" x2="1" y2="0" gradientUnits="userSpaceOnUse" gradientTransform="matrix(1.33164,49.8037,-49.8037,1.33164,115.51,117.468)"><stop offset="0" style="stop-color:#fff;stop-opacity:1"/><stop offset="1" style="stop-color:#f2979f;stop-opacity:1"/></linearGradient><linearGradient id="_Linear10" x1="0" y1="0" x2="1" y2="0" gradientUnits="userSpaceOnUse" gradientTransform="matrix(1.33164,49.8037,-49.8037,1.33164,115.51,117.468)"><stop offset="0" style="stop-color:#6f6c6c;stop-opacity:1"/><stop offset="1" style="stop-color:#6f313e;stop-opacity:1"/></linearGradient><linearGradient id="_Linear11" x1="0" y1="0" x2="1" y2="0" gradientUnits="userSpaceOnUse" gradientTransform="matrix(1.33164,49.8037,-49.8037,1.33164,115.51,117.468)"><stop offset="0" style="stop-color:#8d7d71;stop-opacity:1"/><stop offset="1" style="stop-color:#8a3b41;stop-opacity:1"/></linearGradient><linearGradient id="_Linear12" x1="0" y1="0" x2="1" y2="0" gradientUnits="userSpaceOnUse" gradientTransform="matrix(1.33164,49.8037,-49.8037,1.33164,115.51,117.468)"><stop offset="0" style="stop-color:#e5c0b9;stop-opacity:1"/><stop offset="1" style="stop-color:#dc6370;stop-opacity:1"/></linearGradient><linearGradient id="_Linear13" x1="0" y1="0" x2="1" y2="0" gradientUnits="userSpaceOnUse" gradientTransform="matrix(1.33164,49.8037,-49.8037,1.33164,115.51,117.468)"><stop offset="0" style="stop-color:#eed3d5;stop-opacity:1"/><stop offset="1" style="stop-color:#e37384;stop-opacity:1"/></linearGradient><linearGradient id="_Linear14" x1="0" y1="0" x2="1" y2="0" gradientUnits="userSpaceOnUse" gradientTransform="matrix(1.33164,49.8037,-49.8037,1.33164,115.51,117.468)"><stop offset="0" style="stop-color:#e1beb8;stop-opacity:1"/><stop offset="1" style="stop-color:#d9606f;stop-opacity:1"/></linearGradient><linearGradient id="_Linear15" x1="0" y1="0" x2="1" y2="0" gradientUnits="userSpaceOnUse" gradientTransform="matrix(1.33164,49.8037,-49.8037,1.33164,115.51,117.468)"><stop offset="0" style="stop-color:#ad8581;stop-opacity:1"/><stop offset="1" style="stop-color:#a8334b;stop-opacity:1"/></linearGradient><linearGradient id="_Linear16" x1="0" y1="0" x2="1" y2="0" gradientUnits="userSpaceOnUse" gradientTransform="matrix(1.33164,49.8037,-49.8037,1.33164,115.51,117.468)"><stop offset="0" style="stop-color:#c28f86;stop-opacity:1"/><stop offset="1" style="stop-color:#bb354e;stop-opacity:1"/></linearGradient><linearGradient id="_Linear17" x1="0" y1="0" x2="1" y2="0" gradientUnits="userSpaceOnUse" gradientTransform="matrix(1.33164,49.8037,-49.8037,1.33164,115.51,117.468)"><stop offset="0" style="stop-color:#9d8281;stop-opacity:1"/><stop offset="1" style="stop-color:#99374c;stop-opacity:1"/></linearGradient><linearGradient id="_Linear18" x1="0" y1="0" x2="1" y2="0" gradientUnits="userSpaceOnUse" gradientTransform="matrix(1.33164,49.8037,-49.8037,1.33164,185.24,115.603)"><stop offset="0" style="stop-color:#ecd8c9;stop-opacity:1"/><stop offset="1" style="stop-color:#e37a7b;stop-opacity:1"/></linearGradient><linearGradient id="_Linear19" x1="0" y1="0" x2="1" y2="0" gradientUnits="userSpaceOnUse" gradientTransform="matrix(1.33164,49.8037,-49.8037,1.33164,185.24,115.603)"><stop offset="0" style="stop-color:#f7e7d4;stop-opacity:1"/><stop offset="1" style="stop-color:#eb8683;stop-opacity:1"/></linearGradient><linearGradient id="_Linear20" x1="0" y1="0" x2="1" y2="0" gradientUnits="userSpaceOnUse" gradientTransform="matrix(1.33164,49.8037,-49.8037,1.33164,185.24,115.603)"><stop offset="0" style="stop-color:#fff;stop-opacity:1"/><stop offset="1" style="stop-color:#f2979f;stop-opacity:1"/></linearGradient><linearGradient id="_Linear21" x1="0" y1="0" x2="1" y2="0" gradientUnits="userSpaceOnUse" gradientTransform="matrix(1.33164,49.8037,-49.8037,1.33164,185.24,115.603)"><stop offset="0" style="stop-color:#e9d7c8;stop-opacity:1"/><stop offset="1" style="stop-color:#e07a7b;stop-opacity:1"/></linearGradient><linearGradient id="_Linear22" x1="0" y1="0" x2="1" y2="0" gradientUnits="userSpaceOnUse" gradientTransform="matrix(1.33164,49.8037,-49.8037,1.33164,185.24,115.603)"><stop offset="0" style="stop-color:#967b70;stop-opacity:1"/><stop offset="1" style="stop-color:#923440;stop-opacity:1"/></linearGradient><linearGradient id="_Linear23" x1="0" y1="0" x2="1" y2="0" gradientUnits="userSpaceOnUse" gradientTransform="matrix(1.33164,49.8037,-49.8037,1.33164,185.24,115.603)"><stop offset="0" style="stop-color:#b78d79;stop-opacity:1"/><stop offset="1" style="stop-color:#b13b45;stop-opacity:1"/></linearGradient><linearGradient id="_Linear24" x1="0" y1="0" x2="1" y2="0" gradientUnits="userSpaceOnUse" gradientTransform="matrix(1.33164,49.8037,-49.8037,1.33164,185.24,115.603)"><stop offset="0" style="stop-color:#7e756f;stop-opacity:1"/><stop offset="1" style="stop-color:#7d3741;stop-opacity:1"/></linearGradient><linearGradient id="_Linear25" x1="0" y1="0" x2="1" y2="0" gradientUnits="userSpaceOnUse" gradientTransform="matrix(1.33164,49.8037,-49.8037,1.33164,185.24,115.603)"><stop offset="0" style="stop-color:#fff;stop-opacity:1"/><stop offset="1" style="stop-color:#f2979f;stop-opacity:1"/></linearGradient><linearGradient id="_Linear26" x1="0" y1="0" x2="1" y2="0" gradientUnits="userSpaceOnUse" gradientTransform="matrix(1.33164,49.8037,-49.8037,1.33164,185.24,115.603)"><stop offset="0" style="stop-color:#fff;stop-opacity:1"/><stop offset="1" style="stop-color:#f2979f;stop-opacity:1"/></linearGradient><linearGradient id="_Linear27" x1="0" y1="0" x2="1" y2="0" gradientUnits="userSpaceOnUse" gradientTransform="matrix(1.33164,49.8037,-49.8037,1.33164,185.24,115.603)"><stop offset="0" style="stop-color:#6f6c6c;stop-opacity:1"/><stop offset="1" style="stop-color:#6f313e;stop-opacity:1"/></linearGradient><linearGradient id="_Linear28" x1="0" y1="0" x2="1" y2="0" gradientUnits="userSpaceOnUse" gradientTransform="matrix(1.33164,49.8037,-49.8037,1.33164,185.24,115.603)"><stop offset="0" style="stop-color:#8d7d71;stop-opacity:1"/><stop offset="1" style="stop-color:#8a3b41;stop-opacity:1"/></linearGradient><linearGradient id="_Linear29" x1="0" y1="0" x2="1" y2="0" gradientUnits="userSpaceOnUse" gradientTransform="matrix(1.33164,49.8037,-49.8037,1.33164,185.24,115.603)"><stop offset="0" style="stop-color:#e4bfb9;stop-opacity:1"/><stop offset="1" style="stop-color:#db6170;stop-opacity:1"/></linearGradient><linearGradient id="_Linear30" x1="0" y1="0" x2="1" y2="0" gradientUnits="userSpaceOnUse" gradientTransform="matrix(1.33164,49.8037,-49.8037,1.33164,185.24,115.603)"><stop offset="0" style="stop-color:#e9c7bf;stop-opacity:1"/><stop offset="1" style="stop-color:#e06875;stop-opacity:1"/></linearGradient><linearGradient id="_Linear31" x1="0" y1="0" x2="1" y2="0" gradientUnits="userSpaceOnUse" gradientTransform="matrix(1.33164,49.8037,-49.8037,1.33164,185.24,115.603)"><stop offset="0" style="stop-color:#eed3d5;stop-opacity:1"/><stop offset="1" style="stop-color:#e37384;stop-opacity:1"/></linearGradient><linearGradient id="_Linear32" x1="0" y1="0" x2="1" y2="0" gradientUnits="userSpaceOnUse" gradientTransform="matrix(1.33164,49.8037,-49.8037,1.33164,185.24,115.603)"><stop offset="0" style="stop-color:#ad8581;stop-opacity:1"/><stop offset="1" style="stop-color:#a8334b;stop-opacity:1"/></linearGradient><linearGradient id="_Linear33" x1="0" y1="0" x2="1" y2="0" gradientUnits="userSpaceOnUse" gradientTransform="matrix(1.33164,49.8037,-49.8037,1.33164,185.24,115.603)"><stop offset="0" style="stop-color:#a78782;stop-opacity:1"/><stop offset="1" style="stop-color:#a3394c;stop-opacity:1"/></linearGradient></defs></svg>