<?xml version="1.0" encoding="UTF-8" standalone="no"?><!DOCTYPE svg PUBLIC "-//W3C//DTD SVG 1.1//EN" "http://www.w3.org/Graphics/SVG/1.1/DTD/svg11.dtd"><svg width="100%" height="100%" viewBox="0 0 300 301" version="1.1" xmlns="http://www.w3.org/2000/svg" xmlns:xlink="http://www.w3.org/1999/xlink" xml:space="preserve" style="fill-rule:evenodd;clip-rule:evenodd;stroke-linejoin:round;stroke-miterlimit:1.41421;"><g id="_41"><rect x="0.399" y="0.365" width="299.371" height="299.705" style="fill:#7f263f;fill-rule:nonzero;"/><path d="M154.34,187.618l0,112.621l-60.72,0c-0.99,-0.395 -1.48,-0.596 -1.48,-0.596c0,-14.376 2.1,-25.584 5.3,-34.325c7.73,-21.096 21.88,-27.796 28.4,-29.816c2.13,-0.663 3.45,-0.823 3.45,-0.823c0.23,0 0.45,-0.021 0.67,-0.056c1.91,-0.309 3.46,-1.975 4.71,-4.633c0.92,-1.974 1.7,-4.494 2.33,-7.409c0.25,-1.137 0.45,-2.283 0.65,-3.522c0.29,-2.083 0.58,-4.262 0.84,-6.545c0.09,-1.389 0.24,-2.726 0.39,-4.165c0.54,-6.89 0.69,-14.433 0.69,-21.574c0,0 8.16,0.843 14.77,0.843Z" style="fill:#e0bd9a;fill-rule:nonzero;"/><path d="M216.8,299.643c0,0 -0.54,0.201 -1.43,0.596l-61.03,0l0,-112.621l0.15,0c6.57,0 14.83,-0.843 14.83,-0.843c0,7.09 0.14,14.53 0.69,21.425c0.15,1.342 0.3,2.725 0.39,4.067c0.25,2.38 0.55,4.612 0.89,6.694l0,0.047c0.1,0.946 0.3,1.789 0.45,2.678c0.6,2.931 1.33,5.507 2.2,7.574c1.1,2.571 2.42,4.365 4.03,5.075c0.52,0.231 1.06,0.344 1.63,0.344c0,0 2.34,0.283 5.84,1.661c7.15,2.807 19.16,10.175 26.05,28.978c3.21,8.741 5.31,19.949 5.31,34.325Z" style="fill:#efd0ad;fill-rule:nonzero;"/><path d="M171.29,218.751l0,0.049c-1.53,2.365 -6.67,9.164 -16.85,9.164l-0.09,0c-9.64,-0.05 -15.27,-7.045 -16.71,-9.115c0.3,-2.069 0.6,-4.236 0.84,-6.503c0.1,-1.33 0.25,-2.709 0.4,-4.138c4.69,1.182 9.83,1.921 15.27,2.02l0.2,0c5.63,-0.099 10.82,-0.887 15.66,-2.168c0.15,1.33 0.3,2.71 0.4,4.04c0.24,2.365 0.54,4.582 0.88,6.651Z" style="fill:#be987f;fill-rule:nonzero;"/><path d="M153.65,59.274c-64.33,0 -64.68,53.948 -61.81,89.272c-4.4,-8.375 -17.49,-5.814 -16.41,7.39c1.04,12.711 19.75,19.189 19.22,17.785c9.75,26.124 35.53,45.818 59,45.818l0.5,0l0,-160.265l-0.5,0Z" style="fill:#d2a686;fill-rule:nonzero;"/><path d="M79.53,150.369c3.17,-5.124 8.11,-2.907 9.29,-1.774c1.29,1.232 2.33,2.808 1.54,5.814c-0.45,1.724 -2.23,1.872 -1.83,4.434c0.49,2.906 1.83,3.054 2.62,3.744c0.74,0.64 1.68,1.133 2.12,2.365c0.5,1.231 0.54,2.512 0.3,3.645c-0.5,2.07 -3.51,0.394 -5.54,-0.492c-1.33,-0.641 -5.58,-4.237 -6.67,-5.42c-2.67,-3.054 -3.95,-8.966 -1.83,-12.316Z" style="fill:#ac8774;fill-rule:nonzero;"/><path d="M154,59.274c64.34,0 64.68,53.948 61.87,89.272c4.39,-8.375 17.44,-5.814 16.35,7.39c-0.99,12.711 -19.73,19.193 -19.22,17.785c-9.49,26.124 -35.53,45.818 -59,45.818c-0.15,0 -0.35,0 -0.35,0l-0.14,-160.265c0,0 0.34,0 0.49,0Z" style="fill:#ddb598;fill-rule:nonzero;"/><path d="M228.12,150.369c-3.16,-5.124 -8.05,-2.907 -9.29,-1.774c-1.28,1.232 -2.27,2.808 -1.53,5.814c0.44,1.724 2.22,1.872 1.83,4.434c-0.5,2.906 -1.83,3.054 -2.57,3.744c-0.74,0.64 -1.73,1.133 -2.18,2.365c-0.44,1.231 -0.54,2.512 -0.29,3.645c0.49,2.07 3.5,0.394 5.53,-0.492c1.38,-0.641 5.58,-4.237 6.67,-5.42c2.72,-3.054 3.95,-8.966 1.83,-12.316Z" style="fill:#ac8774;fill-rule:nonzero;"/><path d="M153.15,74.498c-21.15,0 -36.67,6.158 -46.01,18.278c-13.09,16.997 -12.6,42.911 -7.8,61.534c1.48,5.715 2.27,21.037 3.26,26.653c4.59,25.175 32.31,38.576 50.55,38.576c0,0 0.34,0 0.49,0l0,-145.041c-0.15,0 -0.29,0 -0.29,0l-0.2,0Z" style="fill:#e0bd9a;fill-rule:nonzero;"/><path d="M199.1,92.826c-9.29,-12.071 -24.61,-18.229 -45.46,-18.328l0,145.041c20.85,-0.246 45.81,-14.928 50.06,-38.576c1.04,-5.616 1.78,-20.938 3.26,-26.653c4.84,-18.574 5.34,-44.438 -7.86,-61.484Z" style="fill:#efd0ad;fill-rule:nonzero;"/><path d="M153.84,191.091" style="fill:#bc917b;fill-rule:nonzero;"/><path d="M153.83,191.091l0.01,0l-0.01,0Z" style="fill:#bc917b;fill-rule:nonzero;"/><path d="M150.27,193.828c-0.1,-0.022 -0.2,-0.042 -0.31,-0.065c0.1,0.022 0.19,0.041 0.31,0.065Z" style="fill:#bc917b;fill-rule:nonzero;"/><path d="M153.84,193.635" style="fill:#bc917b;fill-rule:nonzero;"/><path d="M149.48,193.652c-0.09,-0.024 -0.18,-0.051 -0.27,-0.076l-0.01,0.005c0,0 0.11,0.028 0.28,0.071Z" style="fill:#bc917b;fill-rule:nonzero;"/><path d="M153.83,193.635l0.01,0l-0.01,0Z" style="fill:#bc917b;fill-rule:nonzero;"/><path d="M141.58,175.012c-0.25,-5.012 9.18,-1.831 12.28,-1.674c2.46,0.125 9.93,-1.58 10.57,-1.141c4.39,2.972 -4.66,8.957 -10.72,8.957c-1.62,0 -11.99,-3.119 -12.13,-6.142Z" style="fill:#ddb598;fill-rule:nonzero;"/><path d="M135.68,74.86l-0.27,0.268l0.05,0.09c0.09,-0.135 0.13,-0.269 0.22,-0.358Z" style="fill:#432e1b;fill-rule:nonzero;"/><path d="M94.72,125.968" style="fill:#432e1b;fill-rule:nonzero;"/><path d="M154.11,193.654" style="fill:#ba907b;fill-rule:nonzero;"/><path d="M154.11,193.654" style="fill:#ba907b;fill-rule:nonzero;"/><path d="M150.44,190.886c-0.1,-0.023 -0.2,-0.043 -0.31,-0.067c0.1,0.023 0.19,0.042 0.31,0.067Z" style="fill:#ba907b;fill-rule:nonzero;"/><path d="M154.11,190.688" style="fill:#ba907b;fill-rule:nonzero;"/><path d="M149.64,190.705c-0.1,-0.025 -0.19,-0.052 -0.28,-0.078l-0.01,0.005c0,0 0.11,0.029 0.29,0.073Z" style="fill:#ba907b;fill-rule:nonzero;"/><path d="M154.11,190.688" style="fill:#ba907b;fill-rule:nonzero;"/><path d="M107.49,131.108c0,0 4.91,20.198 13.33,21.847c8.43,1.648 17.55,-1.628 17.55,-1.628c0,0 0.87,-23.738 -3.44,-26.84c-4.31,-3.114 -14.25,-7.617 -27.44,6.621Z" style="fill:#fff;fill-rule:nonzero;"/><path d="M138.38,151.265c0,0 -0.19,0.055 -0.62,0.237c-0.11,-7.282 -0.78,-17.282 -3.48,-19.198c-4,-2.942 -13.05,-7.083 -25.14,4.243c-1.09,-3.13 -1.64,-5.501 -1.64,-5.501c13.21,-14.265 23.16,-9.771 27.43,-6.654c4.32,3.115 3.45,26.873 3.45,26.873Z" style="fill:#d6b496;fill-rule:nonzero;"/><path d="M133.39,140.979c0,4.595 -3.71,8.319 -8.29,8.319c-4.58,0 -8.3,-3.724 -8.3,-8.319c0,-4.595 3.72,-8.32 8.3,-8.32c4.58,0 8.29,3.725 8.29,8.32Z" style="fill:#482315;fill-rule:nonzero;"/><path d="M124.71,146.519c-2.39,-0.198 -4.23,-2.623 -4.01,-5.288c0.21,-2.665 2.42,-4.751 4.82,-4.55c2.39,0.198 4.23,2.62 4.02,5.285c-0.22,2.665 -2.43,4.754 -4.83,4.553Z" style="fill:#7e3a22;fill-rule:nonzero;"/><path d="M124.92,145.558c-1.67,-0.142 -3.4,-1.977 -3.21,-4.237c0.18,-2.267 2.19,-3.797 3.85,-3.66c1.67,0.142 3.4,1.985 3.21,4.245c-0.18,2.263 -2.19,3.79 -3.85,3.652Z" style="fill:#211a10;fill-rule:nonzero;"/><path d="M123.57,139.983c-0.07,0.817 -0.91,1.413 -1.86,1.335c-0.96,-0.083 -1.69,-0.813 -1.62,-1.625c0.07,-0.82 0.9,-1.418 1.86,-1.339c0.96,0.079 1.68,0.808 1.62,1.629Z" style="fill:#fff;fill-rule:nonzero;"/><path d="M128.95,144.708c-0.04,0.406 -0.46,0.706 -0.93,0.666c-0.48,-0.038 -0.84,-0.406 -0.81,-0.812c0.03,-0.406 0.45,-0.708 0.93,-0.666c0.48,0.037 0.84,0.402 0.81,0.812Z" style="fill:#fff;fill-rule:nonzero;"/><path d="M154.24,190.604" style="fill:#ba907b;fill-rule:nonzero;"/><path d="M154.24,190.604" style="fill:#ba907b;fill-rule:nonzero;"/><path d="M150.57,193.268c-0.1,-0.022 -0.2,-0.043 -0.31,-0.067c0.11,0.023 0.2,0.042 0.31,0.067Z" style="fill:#ba907b;fill-rule:nonzero;"/><path d="M154.24,193.07" style="fill:#ba907b;fill-rule:nonzero;"/><path d="M149.77,193.087c-0.1,-0.024 -0.18,-0.052 -0.28,-0.077l-0.01,0.004c0,0 0.11,0.029 0.29,0.073Z" style="fill:#ba907b;fill-rule:nonzero;"/><path d="M154.24,193.07" style="fill:#ba907b;fill-rule:nonzero;"/><path d="M154.13,190.232" style="fill:#bc917b;fill-rule:nonzero;"/><path d="M154.13,190.232" style="fill:#bc917b;fill-rule:nonzero;"/><path d="M150.2,192.698c-0.11,-0.024 -0.22,-0.046 -0.34,-0.072c0.11,0.024 0.21,0.045 0.34,0.072Z" style="fill:#bc917b;fill-rule:nonzero;"/><path d="M154.13,192.486" style="fill:#bc917b;fill-rule:nonzero;"/><path d="M149.33,192.504c-0.1,-0.027 -0.19,-0.056 -0.29,-0.083l-0.01,0.004c0,0 0.11,0.031 0.3,0.079Z" style="fill:#bc917b;fill-rule:nonzero;"/><path d="M154.13,192.486" style="fill:#bc917b;fill-rule:nonzero;"/><path d="M153.88,189.388" style="fill:#bc917b;fill-rule:nonzero;"/><path d="M153.88,189.388" style="fill:#bc917b;fill-rule:nonzero;"/><path d="M149.95,191.853c-0.11,-0.024 -0.22,-0.046 -0.33,-0.071c0.11,0.024 0.2,0.044 0.33,0.071Z" style="fill:#bc917b;fill-rule:nonzero;"/><path d="M153.88,191.641" style="fill:#bc917b;fill-rule:nonzero;"/><path d="M149.09,191.659c-0.11,-0.026 -0.2,-0.056 -0.3,-0.083l-0.01,0.004c0,0 0.11,0.032 0.31,0.079Z" style="fill:#bc917b;fill-rule:nonzero;"/><path d="M153.88,191.641" style="fill:#bc917b;fill-rule:nonzero;"/><path d="M154.52,189.173" style="fill:#bc917b;fill-rule:nonzero;"/><path d="M154.52,189.173" style="fill:#bc917b;fill-rule:nonzero;"/><path d="M150.72,191.737c-0.11,-0.023 -0.22,-0.044 -0.32,-0.069c0.1,0.024 0.2,0.044 0.32,0.069Z" style="fill:#bc917b;fill-rule:nonzero;"/><path d="M154.52,191.533" style="fill:#bc917b;fill-rule:nonzero;"/><path d="M149.89,191.55c-0.1,-0.025 -0.19,-0.054 -0.29,-0.08l-0.01,0.004c0,0 0.11,0.031 0.3,0.076Z" style="fill:#bc917b;fill-rule:nonzero;"/><path d="M154.52,191.533" style="fill:#bc917b;fill-rule:nonzero;"/><path d="M200.3,130.421c0,0 -4.91,20.198 -13.33,21.847c-8.43,1.647 -17.55,-1.629 -17.55,-1.629c0,0 -0.87,-23.738 3.44,-26.839c4.31,-3.115 14.25,-7.617 27.44,6.621Z" style="fill:#fff;fill-rule:nonzero;"/><path d="M169.41,150.577c0,0 0.19,0.056 0.62,0.237c0.11,-7.28 0.78,-17.281 3.48,-19.197c4,-2.942 13.05,-7.084 25.13,4.242c1.1,-3.129 1.65,-5.501 1.65,-5.501c-13.21,-14.264 -23.16,-9.77 -27.44,-6.653c-4.32,3.114 -3.44,26.872 -3.44,26.872Z" style="fill:#d6b496;fill-rule:nonzero;"/><path d="M174.4,140.292c0,4.595 3.71,8.319 8.29,8.319c4.58,0 8.29,-3.724 8.29,-8.319c0,-4.596 -3.71,-8.32 -8.29,-8.32c-4.58,0 -8.29,3.724 -8.29,8.32Z" style="fill:#482315;fill-rule:nonzero;"/><path d="M183.07,145.832c2.4,-0.198 4.24,-2.623 4.02,-5.288c-0.21,-2.666 -2.42,-4.751 -4.82,-4.55c-2.39,0.198 -4.23,2.619 -4.02,5.285c0.22,2.665 2.43,4.755 4.82,4.553Z" style="fill:#7e3a22;fill-rule:nonzero;"/><path d="M182.87,144.87c1.67,-0.142 3.4,-1.976 3.21,-4.236c-0.19,-2.267 -2.19,-3.797 -3.85,-3.66c-1.67,0.142 -3.4,1.985 -3.21,4.245c0.18,2.263 2.19,3.789 3.85,3.651Z" style="fill:#211a10;fill-rule:nonzero;"/><path d="M184.22,139.295c0.07,0.817 0.9,1.414 1.86,1.335c0.96,-0.082 1.68,-0.812 1.62,-1.624c-0.07,-0.82 -0.9,-1.418 -1.86,-1.339c-0.96,0.078 -1.69,0.808 -1.62,1.628Z" style="fill:#fff;fill-rule:nonzero;"/><path d="M178.84,144.021c0.04,0.406 0.45,0.706 0.93,0.666c0.48,-0.039 0.84,-0.406 0.81,-0.813c-0.03,-0.406 -0.45,-0.707 -0.93,-0.665c-0.48,0.037 -0.84,0.402 -0.81,0.812Z" style="fill:#fff;fill-rule:nonzero;"/><path d="M143.43,130.786c-0.06,-0.098 -1.59,-2.43 -4.72,-4.834c-1.96,-1.508 -3.88,-2.655 -5.87,-3.509c-2.42,-1.02 -5.02,-1.742 -7.55,-2.088c-2.28,-0.254 -4.81,-0.187 -7.77,0.212c-2.25,0.43 -4.45,1.103 -6.32,1.928c-1.33,0.46 -2.38,1.106 -3.22,1.625c-0.33,0.199 -0.62,0.379 -0.92,0.54l-4.02,2.538l4.64,-1.093c0.21,-0.055 0.45,-0.116 0.7,-0.184c0.96,-0.254 2.15,-0.572 3.55,-0.778c0.33,-0.048 0.66,-0.115 1,-0.183c0.59,-0.117 1.19,-0.237 1.82,-0.267c0.71,-0.047 1.43,-0.1 2.18,-0.154l0.98,-0.07c2.57,-0.032 4.74,0.163 6.66,0.609c2.11,0.364 4.28,1.046 6.26,1.969c1.88,0.9 3.68,1.792 5.08,2.825c2.83,1.898 4.41,3.48 4.42,3.495l0,0.001c0.39,0.392 0.91,0.596 1.44,0.596c0.38,0 0.76,-0.108 1.09,-0.329c0.94,-0.613 1.2,-1.876 0.61,-2.787l-0.04,-0.062Z" style="fill:#030405;fill-rule:nonzero;"/><path d="M201.13,124.641c-0.27,-0.142 -0.56,-0.323 -0.89,-0.522c-0.84,-0.519 -1.89,-1.164 -3.18,-1.608c-1.91,-0.841 -4.11,-1.514 -6.39,-1.949c-2.93,-0.395 -5.46,-0.462 -7.75,-0.205c-2.51,0.344 -5.12,1.066 -7.54,2.087c-1.97,0.842 -3.94,2.022 -5.87,3.508c-3.07,2.36 -4.6,4.651 -4.71,4.828l-0.03,0.041c-0.52,0.8 -0.41,1.872 0.26,2.546c0.38,0.386 0.89,0.598 1.43,0.598c0.54,-0.001 1.05,-0.213 1.43,-0.598l0.01,-0.017c0.15,-0.149 1.68,-1.65 4.43,-3.491c1.38,-1.017 3.18,-1.911 5.05,-2.81c2,-0.925 4.16,-1.607 6.3,-1.977c1.9,-0.44 4.07,-0.631 6.6,-0.604l1.03,0.073c0.74,0.053 1.46,0.105 2.17,0.152c0.62,0.03 1.22,0.15 1.81,0.267c0.34,0.068 0.67,0.135 1,0.183c1.4,0.206 2.59,0.524 3.55,0.778c0.26,0.068 0.49,0.129 0.71,0.185l4.64,1.093l-4.06,-2.558Z" style="fill:#030405;fill-rule:nonzero;"/><path d="M152.95,198.554" style="fill:#be927b;fill-rule:nonzero;"/><path d="M152.95,198.554" style="fill:#be927b;fill-rule:nonzero;"/><path d="M149.12,195.659c-0.11,-0.023 -0.22,-0.044 -0.33,-0.069c0.11,0.023 0.2,0.043 0.33,0.069Z" style="fill:#be927b;fill-rule:nonzero;"/><path d="M152.95,195.453" style="fill:#be927b;fill-rule:nonzero;"/><path d="M148.28,195.471c-0.11,-0.026 -0.2,-0.055 -0.29,-0.082l-0.01,0.005c0,0 0.11,0.03 0.3,0.077Z" style="fill:#be927b;fill-rule:nonzero;"/><path d="M152.95,195.453" style="fill:#be927b;fill-rule:nonzero;"/><path d="M141.75,199.826c-0.24,-3.247 9.02,0.68 12.06,0.774c2.43,0.082 9.71,-0.481 10.39,-0.739c5.09,-1.911 -0.28,5.429 -10.54,5.815c-4.7,0.188 -11.77,-3.88 -11.91,-5.85Z" style="fill:#f0d2ad;fill-rule:nonzero;"/><path d="M171.9,193.566c-2.51,-0.124 -5.09,1.977 -8.12,1.656c-0.12,-0.062 -0.18,-0.062 -0.31,-0.062c-0.7,-0.123 -1.39,0 -2.14,0.185c-0.94,0.198 -1.89,0.58 -2.77,0.889c-1.51,0.493 -3.22,0.888 -4.97,0.752l0,0.012l-0.1,-0.011l-0.09,0.011l0,-0.012c-1.76,0.136 -3.46,-0.259 -4.97,-0.752c-0.89,-0.309 -1.83,-0.691 -2.77,-0.889c-0.76,-0.185 -1.45,-0.308 -2.14,-0.185c-0.13,0 -0.19,0 -0.31,0.062c-3.03,0.321 -5.61,-1.78 -8.12,-1.656c-0.7,0.061 -1.71,-0.124 -2.27,-0.124c0.12,0.061 0.25,0.124 0.38,0.185c7.17,3.504 13.35,10.068 20.2,9.858l0.19,0c6.85,0.21 13.03,-6.354 20.2,-9.858c0.13,-0.061 0.25,-0.124 0.38,-0.185c-0.57,0 -1.57,0.185 -2.27,0.124Z" style="fill:#dcbf9e;fill-rule:nonzero;"/><path d="M174.01,193.365c0,0 -7.29,-2.815 -12.47,-1.163c0,0 -1.93,0.754 -3.93,1.214c-1.22,0.475 -2.69,0.613 -4.12,0.556c-1.09,-0.044 -2.12,-0.183 -2.97,-0.332c-0.29,-0.043 -0.57,-0.101 -0.86,-0.163c-0.12,-0.026 -0.22,-0.046 -0.32,-0.069c-0.18,-0.041 -0.35,-0.075 -0.52,-0.12c-0.19,-0.046 -0.3,-0.077 -0.3,-0.077l0.01,-0.004c-1.66,-0.45 -3.08,-1.005 -3.08,-1.005c-5.18,-1.652 -12.47,1.163 -12.47,1.163c-0.1,0.046 -0.16,0.077 -0.16,0.077c0.56,0 1.57,0.185 2.27,0.124c2.51,-0.124 5.09,1.977 8.12,1.656c0.12,-0.062 0.18,-0.062 0.31,-0.062c0.69,-0.123 1.38,0 2.14,0.185c0.94,0.198 1.88,0.58 2.77,0.889c1.51,0.493 3.21,0.888 4.97,0.752l0,0.012l0.09,-0.011l0.1,0.011l0,-0.012c1.75,0.136 3.46,-0.259 4.97,-0.752c0.88,-0.309 1.83,-0.691 2.77,-0.889c0.75,-0.185 1.44,-0.308 2.14,-0.185c0.13,0 0.19,0 0.31,0.062c3.03,0.321 5.61,-1.78 8.12,-1.656c0.7,0.061 1.7,-0.124 2.27,-0.124c0,0 -0.06,-0.031 -0.16,-0.077Z" style="fill:#c69f83;fill-rule:nonzero;"/><path d="M141.26,195.08c0.13,0.033 13.65,4.163 24.22,0.09l-1.21,-0.822l-14.3,0l-8.71,0.732Z" style="fill:#c69f83;fill-rule:nonzero;"/><path d="M221.52,91.726c-1.34,-4.849 -2.71,-8.602 -2.72,-8.626c0.01,0.009 0.2,0.045 2.06,0.045c11.52,-0.024 18.02,-11.058 18.02,-11.058c0,0 -4.35,6.296 -19.3,1.388c-14.61,-4.786 -14.23,-20.382 -35.23,-29.084c-10.75,-4.457 -17.17,-3.875 -20.89,-2.249c3.77,-3.066 11.51,-2.794 11.51,-2.794c0,0 -9.55,-5.211 -24.32,-0.537c-10.37,3.288 -16.58,7.03 -20.06,9.713l5.82,-5.498c0,0 -4.13,1.451 -9.96,4.398c3.97,-7.632 11.31,-15.995 11.31,-15.995c-18.71,6.906 -34.2,31.754 -34.2,31.754c1.49,-9.37 4.76,-17.941 4.76,-17.941c-31.93,23.544 -26.96,66.06 -26.96,66.06c0,16.092 6.4,32.224 10.6,37.017c4.2,4.79 2.85,11.74 4.11,11.74c0,0 2.53,0.09 2.61,-12.049c0.12,-1.548 0.38,-3.448 0.95,-5.11c0,0 3.89,-67.846 50.94,-48.111c0,0 19.06,8.14 33.89,9.425c11.03,0.955 20.1,9.23 22.48,20.042c1.13,5.143 1.41,9.673 0.88,12.308c-3.15,15.743 1.24,24.808 2.92,24.382c0,0 0.06,-3.998 1.59,-7.561c4.51,-10.613 8.31,-3.238 9.01,-17.628c0.56,-11.553 1.97,-18.081 2.54,-23.944c3.58,2.833 8.93,4.842 16.92,5.007c0,0 -11.3,-3.47 -19.28,-25.094Z" style="fill:#36393a;fill-rule:nonzero;"/><path d="M145.85,139.458c0,0 -2.86,14.406 -9.73,22.897c0,0 -3.53,4.672 -17.17,3.335c0,0 -6.89,-0.044 -11.88,-1.749c-2.69,-0.918 -4.72,-3.167 -5.34,-5.943c-1.39,-6.171 -4.36,-21.344 -1.19,-25.787c0,0 1.53,-4.77 25.47,-2.77c0,0 20.8,-0.381 19.84,10.017Zm-7.25,-11.289c-19.74,-3.628 -41.49,-0.575 -41.49,-0.575c-2.2,0.575 -2.58,1.526 -2.58,1.526l0,13.804c0,0.896 0.39,1.748 1.07,2.33c0.52,0.451 0.94,1.038 0.94,1.038c0.76,5.15 4.39,15.356 4.39,15.356c2.57,6.106 15.83,6.486 15.83,6.486c16.79,1.527 20.13,-2.384 20.13,-2.384c5.24,-3.145 11.63,-19.361 11.63,-19.361c1.05,-4.107 5.06,-3.721 5.06,-3.721l0,-12.402c-2.29,0.571 -14.98,-2.097 -14.98,-2.097Z" style="fill:#f0e91a;fill-rule:nonzero;"/><path d="M205.43,157.998c-0.63,2.776 -2.65,5.025 -5.34,5.943c-4.99,1.705 -11.88,1.749 -11.88,1.749c-13.64,1.337 -17.18,-3.335 -17.18,-3.335c-6.86,-8.491 -9.72,-22.897 -9.72,-22.897c-0.96,-10.398 19.84,-10.017 19.84,-10.017c23.94,-2 25.47,2.77 25.47,2.77c3.16,4.443 0.19,19.616 -1.19,25.787Zm4.62,-30.404c0,0 -21.75,-3.053 -41.49,0.575c0,0 -12.69,2.668 -14.98,2.097l0,12.402c0,0 4,-0.386 5.05,3.721c0,0 6.4,16.216 11.64,19.361c0,0 3.34,3.911 20.13,2.384c0,0 13.26,-0.38 15.84,-6.486c0,0 3.62,-10.206 4.39,-15.356c0,0 0.41,-0.587 0.92,-1.038c0.68,-0.582 1.07,-1.434 1.07,-2.33l0,-13.804c0,0 -0.38,-0.951 -2.57,-1.526Z" style="fill:#d5cb27;fill-rule:nonzero;"/><path d="M123.61,165.931c-1.41,0 -2.95,-0.073 -4.66,-0.241c0,0 -6.89,-0.044 -11.88,-1.749c-2.69,-0.918 -4.72,-3.167 -5.34,-5.943c-0.72,-3.223 -1.88,-8.901 -2.37,-14.223c0.08,-0.297 0.17,-0.589 0.27,-0.875c0,0 0.27,-4.779 1.55,-11.428c0.91,-0.717 3.07,-1.766 8.09,-2.254c-0.58,0.572 -1.18,1.181 -1.77,1.828c0,0 0,0.015 0.01,0.043c-0.01,0.006 -0.02,0.013 -0.02,0.019c0,0 4.91,20.198 13.33,21.847c1.7,0.331 3.42,0.464 5.09,0.464c6.64,0 12.46,-2.092 12.46,-2.092c0,0 0,-0.021 0,-0.06l0.01,-0.002c0,0 0.45,-12.215 -0.89,-20.276c1.83,1.364 2.83,2.366 2.84,2.378l0,0.001c0.39,0.392 0.91,0.596 1.44,0.596c0.38,0 0.76,-0.108 1.09,-0.329c0.09,-0.054 0.16,-0.113 0.23,-0.176c1.69,1.307 2.8,3.039 2.79,5.333c0,0.217 -0.01,0.438 -0.03,0.666c0,0 -2.86,14.406 -9.73,22.897c0,0 -2.7,3.576 -12.51,3.576Z" style="fill:url(#_Linear1);"/><path d="M125.91,153.419c-1.67,0 -3.39,-0.133 -5.09,-0.464c-8.42,-1.649 -13.33,-21.847 -13.33,-21.847c0,-0.006 0.01,-0.013 0.02,-0.019c0.08,0.337 0.62,2.576 1.63,5.458c5.16,-4.831 9.76,-6.848 13.65,-7.344c1.03,0.065 2.1,0.144 3.22,0.238c0,0 0.1,-0.002 0.28,-0.002c0.37,0 1.08,0.007 2.03,0.052c2.54,0.61 4.56,1.785 5.96,2.813c2.7,1.916 3.37,11.916 3.48,19.198c0.37,-0.159 0.57,-0.221 0.61,-0.235c0,0.039 0,0.06 0,0.06c0,0 -5.82,2.092 -12.46,2.092Zm-0.81,-20.76c-4.58,0 -8.3,3.725 -8.3,8.32c0,4.595 3.72,8.319 8.3,8.319c4.58,0 8.29,-3.724 8.29,-8.319c0,-4.595 -3.71,-8.32 -8.29,-8.32Z" style="fill:url(#_Linear2);"/><path d="M137.76,151.502c-0.11,-7.282 -0.78,-17.282 -3.48,-19.198c-1.4,-1.028 -3.42,-2.203 -5.96,-2.813c2.19,0.104 5.64,0.41 8.89,1.293c0.1,0.069 0.19,0.138 0.28,0.205c1.34,8.061 0.89,20.276 0.89,20.276l-0.01,0.002c-0.04,0.014 -0.24,0.076 -0.61,0.235Zm-28.62,-14.955c-1.01,-2.882 -1.55,-5.121 -1.63,-5.458c-0.01,-0.028 -0.01,-0.043 -0.01,-0.043c0.59,-0.647 1.19,-1.256 1.77,-1.828c1.72,-0.166 3.76,-0.267 6.2,-0.267c2.13,0 4.55,0.076 7.32,0.252c-3.89,0.496 -8.49,2.513 -13.65,7.344Z" style="fill:url(#_Linear3);"/><path d="M125.1,149.298c-4.58,0 -8.3,-3.724 -8.3,-8.319c0,-4.595 3.72,-8.32 8.3,-8.32c4.58,0 8.29,3.725 8.29,8.32c0,4.595 -3.71,8.319 -8.29,8.319Zm-4.37,-8.337c-0.02,0.089 -0.03,0.179 -0.03,0.27c-0.22,2.665 1.62,5.09 4.01,5.288c0.11,0.009 0.22,0.014 0.32,0.014c1.06,0 2.07,-0.443 2.87,-1.176c0.04,0.008 0.08,0.013 0.12,0.017c0.03,0.002 0.05,0.003 0.08,0.003c0.44,0 0.81,-0.288 0.85,-0.669c0.01,-0.17 -0.04,-0.333 -0.15,-0.467c0.41,-0.668 0.67,-1.443 0.74,-2.275c0.21,-2.665 -1.63,-5.087 -4.02,-5.285c-0.11,-0.009 -0.22,-0.013 -0.32,-0.013c-1.29,0 -2.5,0.651 -3.35,1.681c-0.02,-0.001 -0.05,-0.002 -0.07,-0.002c-0.89,0 -1.63,0.575 -1.69,1.346c-0.04,0.496 0.21,0.962 0.64,1.268Z" style="fill:url(#_Linear4);"/><path d="M125.03,146.533c-0.1,0 -0.21,-0.005 -0.32,-0.014c-2.39,-0.198 -4.23,-2.623 -4.01,-5.288c0,-0.091 0.01,-0.181 0.03,-0.27c0.27,0.195 0.6,0.325 0.98,0.357c0,0.001 0,0.002 0,0.003c-0.19,2.26 1.54,4.095 3.21,4.237c0.07,0.006 0.14,0.009 0.21,0.009c0.71,0 1.46,-0.286 2.1,-0.789c0.07,0.28 0.33,0.512 0.67,0.579c-0.8,0.733 -1.81,1.176 -2.87,1.176Zm3.77,-2.292c-0.14,-0.19 -0.38,-0.324 -0.66,-0.345c-0.03,-0.003 -0.05,-0.004 -0.08,-0.004c0.39,-0.557 0.65,-1.23 0.71,-1.986c0.19,-2.26 -1.54,-4.103 -3.21,-4.245c-0.07,-0.005 -0.14,-0.008 -0.21,-0.008c-0.83,0 -1.71,0.391 -2.41,1.064c-0.27,-0.199 -0.61,-0.332 -0.99,-0.363c-0.03,-0.002 -0.07,-0.004 -0.1,-0.005c0.85,-1.03 2.06,-1.681 3.35,-1.681c0.1,0 0.21,0.004 0.32,0.013c2.39,0.198 4.23,2.62 4.02,5.285c-0.07,0.832 -0.33,1.607 -0.74,2.275Z" style="fill:url(#_Linear5);"/><path d="M125.13,145.567c-0.07,0 -0.14,-0.003 -0.21,-0.009c-1.67,-0.142 -3.4,-1.977 -3.21,-4.237c0,-0.001 0,-0.002 0,-0.003c0.05,0.005 0.11,0.007 0.17,0.007c0.88,0 1.63,-0.574 1.69,-1.342c0.04,-0.497 -0.21,-0.96 -0.63,-1.266c0.7,-0.673 1.58,-1.064 2.41,-1.064c0.07,0 0.14,0.003 0.21,0.008c1.67,0.142 3.4,1.985 3.21,4.245c-0.06,0.756 -0.32,1.429 -0.71,1.986l-0.01,0c-0.44,0 -0.81,0.289 -0.84,0.67c-0.01,0.074 0,0.146 0.02,0.216c-0.64,0.503 -1.39,0.789 -2.1,0.789Z" style="fill:url(#_Linear6);"/><path d="M121.88,141.325c-0.06,0 -0.12,-0.002 -0.17,-0.007c-0.38,-0.032 -0.71,-0.162 -0.98,-0.357c-0.43,-0.306 -0.68,-0.772 -0.64,-1.268c0.06,-0.771 0.8,-1.346 1.69,-1.346c0.02,0 0.05,0.001 0.07,0.002c0.03,0.001 0.07,0.003 0.1,0.005c0.38,0.031 0.72,0.164 0.99,0.363c0.42,0.306 0.67,0.769 0.63,1.266c-0.06,0.768 -0.81,1.342 -1.69,1.342Z" style="fill:url(#_Linear7);"/><path d="M128.1,145.377c-0.03,0 -0.05,-0.001 -0.08,-0.003c-0.04,-0.004 -0.08,-0.009 -0.12,-0.017c-0.34,-0.067 -0.6,-0.299 -0.67,-0.579c-0.02,-0.07 -0.03,-0.142 -0.02,-0.216c0.03,-0.381 0.4,-0.67 0.84,-0.67l0.01,0c0.03,0 0.05,0.001 0.08,0.004c0.28,0.021 0.52,0.155 0.66,0.345c0.11,0.134 0.16,0.297 0.15,0.467c-0.04,0.381 -0.41,0.669 -0.85,0.669Z" style="fill:url(#_Linear8);"/><path d="M141.77,133.964c-0.53,0 -1.05,-0.204 -1.44,-0.596l0,-0.001c-0.01,-0.012 -1.01,-1.014 -2.84,-2.378c-0.09,-0.067 -0.18,-0.136 -0.28,-0.205c2.19,0.594 4.3,1.447 5.88,2.675c-0.07,0.063 -0.14,0.122 -0.23,0.176c-0.33,0.221 -0.71,0.329 -1.09,0.329Z" style="fill:url(#_Linear9);"/><path d="M99.36,143.775c-0.14,-1.565 -0.23,-3.099 -0.23,-4.531c0,-3.024 0.38,-5.592 1.41,-7.033c0,0 0.1,-0.31 0.64,-0.739c-1.28,6.649 -1.55,11.428 -1.55,11.428c-0.1,0.286 -0.19,0.578 -0.27,0.875Z" style="fill:url(#_Linear10);"/><path d="M123.61,165.931c-1.41,0 -2.95,-0.073 -4.66,-0.241c0,0 -6.89,-0.044 -11.88,-1.749c-2.69,-0.918 -4.72,-3.167 -5.34,-5.943c-0.94,-4.17 -2.6,-12.451 -2.6,-18.754c0,1.432 0.09,2.966 0.23,4.531c0.49,5.322 1.65,11 2.37,14.223c0.62,2.776 2.65,5.025 5.34,5.943c4.99,1.705 11.88,1.749 11.88,1.749c1.71,0.168 3.25,0.241 4.66,0.241c9.81,0 12.51,-3.576 12.51,-3.576c6.87,-8.491 9.73,-22.897 9.73,-22.897c0.02,-0.228 0.03,-0.449 0.03,-0.666c0,0.217 -0.01,0.438 -0.03,0.666c0,0 -2.86,14.406 -9.73,22.897c0,0 -2.7,3.576 -12.51,3.576Z" style="fill:url(#_Linear11);"/><path d="M183.55,165.931c-9.81,0 -12.52,-3.576 -12.52,-3.576c-6.86,-8.491 -9.72,-22.897 -9.72,-22.897c-0.03,-0.228 -0.04,-0.449 -0.04,-0.666c0,-2.584 1.4,-4.456 3.46,-5.811c0.09,0.139 0.19,0.269 0.3,0.386c0.38,0.386 0.89,0.598 1.43,0.598c0.54,-0.001 1.05,-0.213 1.43,-0.598l0.01,-0.017c0.11,-0.103 0.86,-0.845 2.22,-1.898c-1.12,8.02 -0.71,19.125 -0.71,19.125c0,0 0,0.001 0.01,0.003c0,0.039 0,0.059 0,0.059c0,0 5.82,2.092 12.46,2.092c1.67,0 3.39,-0.132 5.09,-0.463c8.42,-1.649 13.33,-21.847 13.33,-21.847c-0.01,-0.006 -0.01,-0.012 -0.02,-0.018c0.01,-0.03 0.01,-0.045 0.01,-0.045c-0.31,-0.333 -0.61,-0.656 -0.92,-0.969c6.63,0.889 7.25,2.822 7.25,2.822c0.66,0.937 1.06,2.35 1.25,4.055c-0.01,0.102 -0.03,0.202 -0.05,0.298c-1.12,5.613 -1.29,10.376 -0.96,14.164c-0.48,2.867 -1.03,5.457 -1.43,7.27c-0.63,2.776 -2.65,5.025 -5.34,5.943c-4.99,1.705 -11.88,1.749 -11.88,1.749c-1.71,0.167 -3.26,0.241 -4.66,0.241Z" style="fill:url(#_Linear12);"/><path d="M181.88,152.731c-6.64,0 -12.46,-2.092 -12.46,-2.092c0,0 0,-0.02 0,-0.059c0.04,0.012 0.23,0.075 0.61,0.234c0.11,-7.28 0.78,-17.281 3.48,-19.197c0.91,-0.673 2.09,-1.408 3.51,-2.007c1.84,-0.153 3.28,-0.171 3.85,-0.171c0.18,0 0.28,0.002 0.28,0.002c2.33,-0.195 4.45,-0.326 6.38,-0.403c3.31,0.941 7.04,3.001 11.11,6.821c1.01,-2.878 1.56,-5.116 1.64,-5.456c0.01,0.006 0.01,0.012 0.02,0.018c0,0 -4.91,20.198 -13.33,21.847c-1.7,0.331 -3.42,0.463 -5.09,0.463Zm0.81,-20.759c-4.58,0 -8.29,3.724 -8.29,8.32c0,4.595 3.71,8.319 8.29,8.319c4.58,0 8.29,-3.724 8.29,-8.319c0,-4.596 -3.71,-8.32 -8.29,-8.32Z" style="fill:url(#_Linear13);"/><path d="M170.03,150.814c-0.38,-0.159 -0.57,-0.222 -0.61,-0.234c-0.01,-0.002 -0.01,-0.003 -0.01,-0.003c0,0 -0.41,-11.105 0.71,-19.125c0.42,-0.326 0.9,-0.681 1.43,-1.056c1.94,-0.416 3.86,-0.652 5.47,-0.786c-1.42,0.599 -2.6,1.334 -3.51,2.007c-2.7,1.916 -3.37,11.917 -3.48,19.197Zm28.61,-14.955c-4.07,-3.82 -7.8,-5.88 -11.11,-6.821c1.5,-0.06 2.88,-0.087 4.15,-0.087c3.2,0 5.71,0.172 7.69,0.438c0.31,0.313 0.61,0.636 0.92,0.969c0,0 0,0.015 -0.01,0.045c-0.08,0.34 -0.63,2.578 -1.64,5.456Z" style="fill:url(#_Linear14);"/><path d="M182.69,148.611c-4.58,0 -8.29,-3.724 -8.29,-8.319c0,-4.596 3.71,-8.32 8.29,-8.32c4.58,0 8.29,3.724 8.29,8.32c0,4.595 -3.71,8.319 -8.29,8.319Zm-2.8,-3.941c0.79,0.732 1.8,1.175 2.86,1.175c0.11,0 0.22,-0.004 0.32,-0.013c2.4,-0.198 4.24,-2.623 4.02,-5.288c-0.01,-0.091 -0.02,-0.181 -0.03,-0.271c0.42,-0.305 0.68,-0.771 0.64,-1.267c-0.07,-0.772 -0.8,-1.346 -1.69,-1.346c-0.03,0 -0.05,0 -0.08,0.001c-0.84,-1.029 -2.05,-1.68 -3.34,-1.68c-0.1,0 -0.21,0.004 -0.32,0.013c-2.39,0.198 -4.23,2.619 -4.02,5.285c0.07,0.832 0.33,1.607 0.73,2.275c-0.1,0.134 -0.15,0.296 -0.14,0.467c0.03,0.381 0.4,0.669 0.84,0.669c0.03,0 0.06,-0.001 0.09,-0.003c0.04,-0.004 0.08,-0.009 0.12,-0.017Z" style="fill:url(#_Linear15);"/><path d="M182.75,145.845c-1.06,0 -2.07,-0.443 -2.86,-1.175c0.34,-0.068 0.6,-0.299 0.67,-0.58c0.64,0.503 1.39,0.789 2.1,0.789c0.07,0 0.14,-0.003 0.21,-0.009c1.67,-0.142 3.4,-1.976 3.21,-4.236c0,-0.001 0,-0.002 0,-0.004c0.37,-0.032 0.71,-0.162 0.98,-0.357c0.01,0.09 0.02,0.18 0.03,0.271c0.22,2.665 -1.62,5.09 -4.02,5.288c-0.1,0.009 -0.21,0.013 -0.32,0.013Zm-3.77,-2.291c-0.4,-0.668 -0.66,-1.443 -0.73,-2.275c-0.21,-2.666 1.63,-5.087 4.02,-5.285c0.11,-0.009 0.22,-0.013 0.32,-0.013c1.29,0 2.5,0.651 3.34,1.68c-0.03,0.001 -0.06,0.003 -0.09,0.006c-0.38,0.031 -0.72,0.163 -1,0.363c-0.69,-0.673 -1.58,-1.064 -2.41,-1.064c-0.07,0 -0.14,0.003 -0.2,0.008c-1.67,0.142 -3.4,1.985 -3.21,4.245c0.06,0.755 0.32,1.429 0.71,1.986c-0.03,0 -0.05,0.001 -0.08,0.004c-0.28,0.021 -0.52,0.155 -0.67,0.345Z" style="fill:url(#_Linear16);"/><path d="M182.66,144.879c-0.71,0 -1.46,-0.286 -2.1,-0.789c0.02,-0.069 0.03,-0.142 0.02,-0.216c-0.03,-0.381 -0.4,-0.669 -0.84,-0.669l-0.01,0c-0.39,-0.557 -0.65,-1.231 -0.71,-1.986c-0.19,-2.26 1.54,-4.103 3.21,-4.245c0.06,-0.005 0.13,-0.008 0.2,-0.008c0.83,0 1.72,0.391 2.41,1.064c-0.41,0.306 -0.66,0.769 -0.62,1.265c0.06,0.768 0.81,1.342 1.69,1.342c0.06,0 0.11,-0.002 0.17,-0.007c0,0.002 0,0.003 0,0.004c0.19,2.26 -1.54,4.094 -3.21,4.236c-0.07,0.006 -0.14,0.009 -0.21,0.009Z" style="fill:url(#_Linear17);"/><path d="M185.91,140.637c-0.88,0 -1.63,-0.574 -1.69,-1.342c-0.04,-0.496 0.21,-0.959 0.62,-1.265c0.28,-0.2 0.62,-0.332 1,-0.363c0.03,-0.003 0.06,-0.005 0.09,-0.006c0.03,-0.001 0.05,-0.001 0.08,-0.001c0.89,0 1.62,0.574 1.69,1.346c0.04,0.496 -0.22,0.962 -0.64,1.267c-0.27,0.195 -0.61,0.325 -0.98,0.357c-0.06,0.005 -0.11,0.007 -0.17,0.007Z" style="fill:url(#_Linear18);"/><path d="M179.68,144.69c-0.44,0 -0.81,-0.288 -0.84,-0.669c-0.01,-0.171 0.04,-0.333 0.14,-0.467c0.15,-0.19 0.39,-0.324 0.67,-0.345c0.03,-0.003 0.05,-0.004 0.08,-0.004l0.01,0c0.44,0 0.81,0.288 0.84,0.669c0.01,0.074 0,0.147 -0.02,0.216c-0.07,0.281 -0.33,0.512 -0.67,0.58c-0.04,0.008 -0.08,0.013 -0.12,0.017c-0.03,0.002 -0.06,0.003 -0.09,0.003Z" style="fill:url(#_Linear19);"/><path d="M166.46,133.965c-0.54,0 -1.05,-0.212 -1.43,-0.598c-0.11,-0.117 -0.21,-0.247 -0.3,-0.386c1.91,-1.25 4.38,-2.06 6.82,-2.585c-0.53,0.375 -1.01,0.73 -1.43,1.056c-1.36,1.053 -2.11,1.795 -2.22,1.898l-0.01,0.017c-0.38,0.385 -0.89,0.597 -1.43,0.598Z" style="fill:url(#_Linear20);"/><path d="M206.86,150.728c-0.33,-3.788 -0.16,-8.551 0.96,-14.164c0.02,-0.096 0.04,-0.196 0.05,-0.298c0.11,0.918 0.15,1.92 0.15,2.978c0,3.562 -0.53,7.757 -1.16,11.484Z" style="fill:url(#_Linear21);"/><path d="M183.55,165.931c-9.81,0 -12.52,-3.576 -12.52,-3.576c-6.86,-8.491 -9.72,-22.897 -9.72,-22.897c-0.03,-0.228 -0.04,-0.449 -0.04,-0.666c0,0.217 0.01,0.438 0.04,0.666c0,0 2.86,14.406 9.72,22.897c0,0 2.71,3.576 12.52,3.576c1.4,0 2.95,-0.074 4.66,-0.241c0,0 6.89,-0.044 11.88,-1.749c2.69,-0.918 4.71,-3.167 5.34,-5.943c0.4,-1.813 0.95,-4.403 1.43,-7.27c0.63,-3.727 1.16,-7.922 1.16,-11.484c0,6.303 -1.66,14.584 -2.59,18.754c-0.63,2.776 -2.65,5.025 -5.34,5.943c-4.99,1.705 -11.88,1.749 -11.88,1.749c-1.71,0.167 -3.26,0.241 -4.66,0.241Z" style="fill:url(#_Linear22);"/><path d="M195.6,239.392c-1.89,-1.4 -3.94,-2.715 -6.18,-3.898c0,0 -6.26,-2.241 -9.45,-2.728c-0.43,-0.064 -0.81,0.22 -1.14,0.732l0,-0.012l-0.01,0.027c-0.63,0.977 -1.12,2.812 -1.49,4.936c-1.28,4.196 -3.12,10.038 -4.44,13.445c-4.93,12.201 -11.66,17.727 -18.41,17.151c-6.75,0.576 -13.47,-4.95 -18.4,-17.151c-1.32,-3.407 -3.16,-9.249 -4.45,-13.445c-0.37,-2.124 -0.85,-3.959 -1.48,-4.936l-0.01,-0.027l0,0.012c-0.34,-0.512 -0.71,-0.796 -1.14,-0.732c-3.19,0.487 -9.45,2.728 -9.45,2.728c0,0 -0.97,0.529 -2.52,1.545c6.19,20.19 35.26,101.048 78.57,2.353Z" style="fill:#8c5d24;fill-rule:nonzero;"/><path d="M195.6,239.392c-43.31,98.695 -72.38,17.837 -78.57,-2.353c-7.65,5.013 -29.88,22.204 -24.63,49.922l9.92,0c-1.72,5.93 0.85,10.691 2.64,13.109l99.04,0c1.8,-2.418 4.36,-7.179 2.64,-13.109l10.14,0c0,0 1.65,-30.703 -21.18,-47.569Z" style="fill:#f7ac35;fill-rule:nonzero;"/></g><defs><linearGradient id="_Linear1" x1="0" y1="0" x2="1" y2="0" gradientUnits="userSpaceOnUse" gradientTransform="matrix(2.98777,46.7177,-46.7177,2.98777,121.89,129.904)"><stop offset="0" style="stop-color:#f2e3d4;stop-opacity:1"/><stop offset="1" style="stop-color:#829ba9;stop-opacity:1"/></linearGradient><linearGradient id="_Linear2" x1="0" y1="0" x2="1" y2="0" gradientUnits="userSpaceOnUse" gradientTransform="matrix(2.98777,46.7177,-46.7177,2.98777,121.89,129.904)"><stop offset="0" style="stop-color:#fff;stop-opacity:1"/><stop offset="1" style="stop-color:#86aec9;stop-opacity:1"/></linearGradient><linearGradient id="_Linear3" x1="0" y1="0" x2="1" y2="0" gradientUnits="userSpaceOnUse" gradientTransform="matrix(2.98777,46.7177,-46.7177,2.98777,121.89,129.904)"><stop offset="0" style="stop-color:#edded1;stop-opacity:1"/><stop offset="1" style="stop-color:#7f99a7;stop-opacity:1"/></linearGradient><linearGradient id="_Linear4" x1="0" y1="0" x2="1" y2="0" gradientUnits="userSpaceOnUse" gradientTransform="matrix(2.98777,46.7177,-46.7177,2.98777,121.89,129.904)"><stop offset="0" style="stop-color:#a89086;stop-opacity:1"/><stop offset="1" style="stop-color:#59626b;stop-opacity:1"/></linearGradient><linearGradient id="_Linear5" x1="0" y1="0" x2="1" y2="0" gradientUnits="userSpaceOnUse" gradientTransform="matrix(2.98777,46.7177,-46.7177,2.98777,121.89,129.904)"><stop offset="0" style="stop-color:#c3a08d;stop-opacity:1"/><stop offset="1" style="stop-color:#6c6d71;stop-opacity:1"/></linearGradient><linearGradient id="_Linear6" x1="0" y1="0" x2="1" y2="0" gradientUnits="userSpaceOnUse" gradientTransform="matrix(2.98777,46.7177,-46.7177,2.98777,121.89,129.904)"><stop offset="0" style="stop-color:#928a85;stop-opacity:1"/><stop offset="1" style="stop-color:#435f6b;stop-opacity:1"/></linearGradient><linearGradient id="_Linear7" x1="0" y1="0" x2="1" y2="0" gradientUnits="userSpaceOnUse" gradientTransform="matrix(2.98777,46.7177,-46.7177,2.98777,121.89,129.904)"><stop offset="0" style="stop-color:#fff;stop-opacity:1"/><stop offset="1" style="stop-color:#86aec9;stop-opacity:1"/></linearGradient><linearGradient id="_Linear8" x1="0" y1="0" x2="1" y2="0" gradientUnits="userSpaceOnUse" gradientTransform="matrix(2.98777,46.7177,-46.7177,2.98777,121.89,129.904)"><stop offset="0" style="stop-color:#fff;stop-opacity:1"/><stop offset="1" style="stop-color:#86aec9;stop-opacity:1"/></linearGradient><linearGradient id="_Linear9" x1="0" y1="0" x2="1" y2="0" gradientUnits="userSpaceOnUse" gradientTransform="matrix(2.98777,46.7177,-46.7177,2.98777,121.89,129.904)"><stop offset="0" style="stop-color:#858282;stop-opacity:1"/><stop offset="1" style="stop-color:#365969;stop-opacity:1"/></linearGradient><linearGradient id="_Linear10" x1="0" y1="0" x2="1" y2="0" gradientUnits="userSpaceOnUse" gradientTransform="matrix(2.98777,46.7177,-46.7177,2.98777,121.89,129.904)"><stop offset="0" style="stop-color:#9d9a9a;stop-opacity:1"/><stop offset="1" style="stop-color:#436a7d;stop-opacity:1"/></linearGradient><linearGradient id="_Linear11" x1="0" y1="0" x2="1" y2="0" gradientUnits="userSpaceOnUse" gradientTransform="matrix(2.98777,46.7177,-46.7177,2.98777,121.89,129.904)"><stop offset="0" style="stop-color:#f8f5b5;stop-opacity:1"/><stop offset="1" style="stop-color:#86a991;stop-opacity:1"/></linearGradient><linearGradient id="_Linear12" x1="0" y1="0" x2="1" y2="0" gradientUnits="userSpaceOnUse" gradientTransform="matrix(2.98776,46.7175,-46.7175,2.98776,183.84,125.942)"><stop offset="0" style="stop-color:#faecdc;stop-opacity:1"/><stop offset="1" style="stop-color:#87a1b0;stop-opacity:1"/></linearGradient><linearGradient id="_Linear13" x1="0" y1="0" x2="1" y2="0" gradientUnits="userSpaceOnUse" gradientTransform="matrix(2.98776,46.7175,-46.7175,2.98776,183.84,125.942)"><stop offset="0" style="stop-color:#fff;stop-opacity:1"/><stop offset="1" style="stop-color:#86aec9;stop-opacity:1"/></linearGradient><linearGradient id="_Linear14" x1="0" y1="0" x2="1" y2="0" gradientUnits="userSpaceOnUse" gradientTransform="matrix(2.98776,46.7175,-46.7175,2.98776,183.84,125.942)"><stop offset="0" style="stop-color:#edded1;stop-opacity:1"/><stop offset="1" style="stop-color:#7f99a7;stop-opacity:1"/></linearGradient><linearGradient id="_Linear15" x1="0" y1="0" x2="1" y2="0" gradientUnits="userSpaceOnUse" gradientTransform="matrix(2.98776,46.7175,-46.7175,2.98776,183.84,125.942)"><stop offset="0" style="stop-color:#a89086;stop-opacity:1"/><stop offset="1" style="stop-color:#59626b;stop-opacity:1"/></linearGradient><linearGradient id="_Linear16" x1="0" y1="0" x2="1" y2="0" gradientUnits="userSpaceOnUse" gradientTransform="matrix(2.98776,46.7175,-46.7175,2.98776,183.84,125.942)"><stop offset="0" style="stop-color:#c3a08d;stop-opacity:1"/><stop offset="1" style="stop-color:#6c6d71;stop-opacity:1"/></linearGradient><linearGradient id="_Linear17" x1="0" y1="0" x2="1" y2="0" gradientUnits="userSpaceOnUse" gradientTransform="matrix(2.98776,46.7175,-46.7175,2.98776,183.84,125.942)"><stop offset="0" style="stop-color:#928a85;stop-opacity:1"/><stop offset="1" style="stop-color:#435f6b;stop-opacity:1"/></linearGradient><linearGradient id="_Linear18" x1="0" y1="0" x2="1" y2="0" gradientUnits="userSpaceOnUse" gradientTransform="matrix(2.98776,46.7175,-46.7175,2.98776,183.84,125.942)"><stop offset="0" style="stop-color:#fff;stop-opacity:1"/><stop offset="1" style="stop-color:#86aec9;stop-opacity:1"/></linearGradient><linearGradient id="_Linear19" x1="0" y1="0" x2="1" y2="0" gradientUnits="userSpaceOnUse" gradientTransform="matrix(2.98776,46.7175,-46.7175,2.98776,183.84,125.942)"><stop offset="0" style="stop-color:#fff;stop-opacity:1"/><stop offset="1" style="stop-color:#86aec9;stop-opacity:1"/></linearGradient><linearGradient id="_Linear20" x1="0" y1="0" x2="1" y2="0" gradientUnits="userSpaceOnUse" gradientTransform="matrix(2.98776,46.7175,-46.7175,2.98776,183.84,125.942)"><stop offset="0" style="stop-color:#858282;stop-opacity:1"/><stop offset="1" style="stop-color:#365969;stop-opacity:1"/></linearGradient><linearGradient id="_Linear21" x1="0" y1="0" x2="1" y2="0" gradientUnits="userSpaceOnUse" gradientTransform="matrix(2.98776,46.7175,-46.7175,2.98776,183.84,125.942)"><stop offset="0" style="stop-color:#9d9a9a;stop-opacity:1"/><stop offset="1" style="stop-color:#436a7d;stop-opacity:1"/></linearGradient><linearGradient id="_Linear22" x1="0" y1="0" x2="1" y2="0" gradientUnits="userSpaceOnUse" gradientTransform="matrix(2.98776,46.7175,-46.7175,2.98776,183.84,125.942)"><stop offset="0" style="stop-color:#eee7ae;stop-opacity:1"/><stop offset="1" style="stop-color:#7ea08c;stop-opacity:1"/></linearGradient></defs></svg>