<?xml version="1.0" encoding="UTF-8" standalone="no"?><!DOCTYPE svg PUBLIC "-//W3C//DTD SVG 1.1//EN" "http://www.w3.org/Graphics/SVG/1.1/DTD/svg11.dtd"><svg width="100%" height="100%" viewBox="0 0 300 301" version="1.1" xmlns="http://www.w3.org/2000/svg" xmlns:xlink="http://www.w3.org/1999/xlink" xml:space="preserve" style="fill-rule:evenodd;clip-rule:evenodd;stroke-linejoin:round;stroke-miterlimit:1.41421;"><g id="_42"><rect x="0.04" y="0.365" width="299.359" height="299.705" style="fill:#419286;fill-rule:nonzero;"/><path d="M156.77,187.446l0,112.624l-60.71,0c-0.99,-0.391 -1.48,-0.597 -1.48,-0.597c0,-7.9 0.64,-14.834 1.73,-20.924c0.92,-4.999 2.14,-9.464 3.58,-13.394c7.32,-20.059 20.47,-27.096 27.36,-29.482c0.37,-0.124 0.7,-0.227 1.03,-0.33c2.14,-0.679 3.46,-0.823 3.46,-0.823c0.22,0 0.43,-0.02 0.65,-0.061c1.92,-0.309 3.46,-1.975 4.72,-4.63c0.92,-1.975 1.7,-4.505 2.32,-7.406c0.25,-1.152 0.45,-2.284 0.66,-3.539c0.29,-2.078 0.57,-4.259 0.84,-6.543c0.08,-1.378 0.23,-2.715 0.39,-4.156c0.54,-6.892 0.68,-14.443 0.68,-21.582c0,0 8.17,0.843 14.77,0.843Z" style="fill:#e0bd9a;fill-rule:nonzero;"/><path d="M219.24,299.473c0,0 -0.54,0.206 -1.44,0.597l-61.03,0l0,-112.624l0.17,0c6.56,0 14.81,-0.843 14.81,-0.843c0,7.098 0.15,14.525 0.7,21.438c0.15,1.338 0.29,2.716 0.39,4.053c0.25,2.387 0.54,4.609 0.89,6.708l0,0.041c0.1,0.946 0.29,1.79 0.45,2.674c0.6,2.922 1.32,5.514 2.2,7.572c1.09,2.571 2.43,4.361 4.03,5.082c0.52,0.226 1.05,0.349 1.63,0.349c0,0 2.32,0.268 5.82,1.646c0.17,0.062 0.33,0.124 0.5,0.206c7.2,2.963 18.84,10.411 25.57,28.783c1.4,3.807 2.59,8.107 3.5,12.901c1.15,6.213 1.81,13.311 1.81,21.417Z" style="fill:#efd0ad;fill-rule:nonzero;"/><path d="M173.93,218.583l0,0.049c-1.53,2.365 -6.67,9.164 -16.85,9.164l-0.1,0c-9.63,-0.05 -15.27,-7.045 -16.7,-9.115c0.3,-2.069 0.59,-4.236 0.84,-6.503c0.1,-1.33 0.25,-2.709 0.4,-4.138c4.69,1.182 9.83,1.921 15.26,2.02l0.2,0c5.64,-0.099 10.82,-0.887 15.67,-2.168c0.14,1.33 0.29,2.71 0.39,4.04c0.25,2.365 0.55,4.582 0.89,6.651Z" style="fill:#be987f;fill-rule:nonzero;"/><path d="M156.29,59.107c-64.34,0 -64.68,53.947 -61.82,89.271c-4.39,-8.375 -17.49,-5.814 -16.4,7.39c1.04,12.711 19.74,19.189 19.22,17.785c9.74,26.124 35.53,45.818 59,45.818l0.49,0l0,-160.264l-0.49,0Z" style="fill:#d2a686;fill-rule:nonzero;"/><path d="M82.17,150.201c3.16,-5.124 8.1,-2.907 9.29,-1.774c1.29,1.232 2.32,2.808 1.53,5.814c-0.44,1.724 -2.22,1.872 -1.83,4.434c0.5,2.906 1.83,3.054 2.62,3.744c0.74,0.64 1.68,1.133 2.13,2.365c0.49,1.231 0.54,2.512 0.29,3.645c-0.49,2.07 -3.5,0.394 -5.53,-0.492c-1.33,-0.641 -5.58,-4.237 -6.67,-5.42c-2.67,-3.054 -3.95,-8.966 -1.83,-12.316Z" style="fill:#ac8774;fill-rule:nonzero;"/><path d="M156.64,59.107c64.33,0 64.68,53.947 61.86,89.271c4.4,-8.375 17.44,-5.814 16.36,7.39c-0.99,12.711 -19.74,19.193 -19.22,17.785c-9.49,26.124 -35.53,45.818 -59,45.818c-0.15,0 -0.35,0 -0.35,0l-0.15,-160.264c0,0 0.35,0 0.5,0Z" style="fill:#ddb598;fill-rule:nonzero;"/><path d="M230.76,150.201c-3.17,-5.124 -8.06,-2.907 -9.29,-1.774c-1.29,1.232 -2.28,2.808 -1.53,5.814c0.44,1.724 2.22,1.872 1.82,4.434c-0.49,2.906 -1.82,3.054 -2.57,3.744c-0.74,0.64 -1.73,1.133 -2.17,2.365c-0.45,1.231 -0.54,2.512 -0.3,3.645c0.5,2.07 3.51,0.394 5.54,-0.492c1.38,-0.641 5.58,-4.237 6.67,-5.42c2.72,-3.054 3.95,-8.966 1.83,-12.316Z" style="fill:#ac8774;fill-rule:nonzero;"/><path d="M155.78,74.33c-21.14,0 -36.66,6.158 -46,18.278c-13.09,16.997 -12.6,42.911 -7.81,61.534c1.49,5.715 2.28,21.037 3.26,26.653c4.6,25.176 32.32,38.576 50.55,38.576c0,0 0.35,0 0.5,0l0,-145.041c-0.15,0 -0.3,0 -0.3,0" style="fill:#e0bd9a;fill-rule:nonzero;"/><path d="M201.74,92.657c-9.29,-12.07 -24.61,-18.228 -45.46,-18.327l0,145.041c20.85,-0.246 45.8,-14.928 50.05,-38.576c1.04,-5.616 1.78,-20.938 3.27,-26.653c4.84,-18.573 5.33,-44.439 -7.86,-61.485Z" style="fill:#efd0ad;fill-rule:nonzero;"/><path d="M156.47,190.923" style="fill:#bc917b;fill-rule:nonzero;"/><path d="M156.47,190.923" style="fill:#bc917b;fill-rule:nonzero;"/><path d="M152.9,193.66c-0.1,-0.022 -0.2,-0.042 -0.3,-0.065c0.1,0.022 0.19,0.041 0.3,0.065Z" style="fill:#bc917b;fill-rule:nonzero;"/><path d="M156.47,193.467" style="fill:#bc917b;fill-rule:nonzero;"/><path d="M152.12,193.484c-0.09,-0.024 -0.18,-0.051 -0.27,-0.076l-0.01,0.005c0,0 0.1,0.028 0.28,0.071Z" style="fill:#bc917b;fill-rule:nonzero;"/><path d="M156.47,193.467" style="fill:#bc917b;fill-rule:nonzero;"/><path d="M144.28,177.144c-0.25,-5.012 9.17,-1.831 12.28,-1.674c2.45,0.125 9.92,-1.58 10.56,-1.141c4.4,2.972 -4.65,8.957 -10.72,8.957c-1.61,0 -11.98,-3.119 -12.12,-6.142Z" style="fill:#ddb598;fill-rule:nonzero;"/><path d="M138.32,74.692l-0.27,0.268l0.04,0.09c0.09,-0.135 0.14,-0.269 0.23,-0.358Z" style="fill:#432e1b;fill-rule:nonzero;"/><path d="M97.35,125.8" style="fill:#432e1b;fill-rule:nonzero;"/><path d="M156.74,193.486" style="fill:#ba907b;fill-rule:nonzero;"/><path d="M156.74,193.486" style="fill:#ba907b;fill-rule:nonzero;"/><path d="M153.08,190.718c-0.1,-0.023 -0.21,-0.043 -0.31,-0.067c0.1,0.023 0.19,0.042 0.31,0.067Z" style="fill:#ba907b;fill-rule:nonzero;"/><path d="M156.74,190.52" style="fill:#ba907b;fill-rule:nonzero;"/><path d="M152.27,190.537c-0.09,-0.025 -0.18,-0.052 -0.27,-0.078l-0.01,0.004c0,0 0.1,0.03 0.28,0.074Z" style="fill:#ba907b;fill-rule:nonzero;"/><path d="M156.74,190.52" style="fill:#ba907b;fill-rule:nonzero;"/><path d="M110.13,130.94c0,0 4.9,20.199 13.33,21.847c8.43,1.648 17.55,-1.629 17.55,-1.629c0,0 0.87,-23.737 -3.45,-26.839c-4.31,-3.115 -14.25,-7.616 -27.43,6.621Z" style="fill:#fff;fill-rule:nonzero;"/><path d="M141.02,151.096c0,0 -0.2,0.056 -0.63,0.237c-0.11,-7.28 -0.78,-17.281 -3.47,-19.197c-4.01,-2.942 -13.05,-7.083 -25.14,4.243c-1.1,-3.129 -1.65,-5.502 -1.65,-5.502c13.21,-14.264 23.16,-9.77 27.44,-6.653c4.32,3.114 3.45,26.872 3.45,26.872Z" style="fill:#d6b496;fill-rule:nonzero;"/><path d="M136.03,140.811c0,4.594 -3.71,8.319 -8.3,8.319c-4.58,0 -8.29,-3.725 -8.29,-8.319c0,-4.595 3.71,-8.32 8.29,-8.32c4.59,0 8.3,3.725 8.3,8.32Z" style="fill:#482315;fill-rule:nonzero;"/><path d="M127.35,146.351c-2.4,-0.198 -4.23,-2.622 -4.02,-5.288c0.22,-2.665 2.43,-4.751 4.82,-4.55c2.4,0.198 4.23,2.62 4.02,5.285c-0.22,2.665 -2.43,4.755 -4.82,4.553Z" style="fill:#7e3a22;fill-rule:nonzero;"/><path d="M127.56,145.39c-1.67,-0.142 -3.4,-1.977 -3.22,-4.237c0.19,-2.267 2.19,-3.797 3.86,-3.659c1.67,0.141 3.39,1.984 3.21,4.244c-0.18,2.263 -2.19,3.79 -3.85,3.652Z" style="fill:#211a10;fill-rule:nonzero;"/><path d="M126.21,139.815c-0.07,0.816 -0.91,1.413 -1.87,1.335c-0.96,-0.082 -1.68,-0.812 -1.61,-1.624c0.06,-0.821 0.9,-1.418 1.85,-1.339c0.97,0.078 1.69,0.807 1.63,1.628Z" style="fill:#fff;fill-rule:nonzero;"/><path d="M131.58,144.54c-0.03,0.406 -0.45,0.706 -0.93,0.665c-0.48,-0.037 -0.84,-0.406 -0.81,-0.812c0.04,-0.406 0.46,-0.707 0.93,-0.665c0.48,0.037 0.85,0.402 0.81,0.812Z" style="fill:#fff;fill-rule:nonzero;"/><path d="M156.88,190.436" style="fill:#ba907b;fill-rule:nonzero;"/><path d="M156.88,190.436" style="fill:#ba907b;fill-rule:nonzero;"/><path d="M153.21,193.1c-0.1,-0.022 -0.21,-0.043 -0.31,-0.067c0.1,0.023 0.19,0.042 0.31,0.067Z" style="fill:#ba907b;fill-rule:nonzero;"/><path d="M156.88,192.902" style="fill:#ba907b;fill-rule:nonzero;"/><path d="M152.41,192.919c-0.1,-0.025 -0.19,-0.052 -0.28,-0.077l-0.01,0.004c0,0 0.11,0.029 0.29,0.073Z" style="fill:#ba907b;fill-rule:nonzero;"/><path d="M156.88,192.902" style="fill:#ba907b;fill-rule:nonzero;"/><path d="M156.76,190.064" style="fill:#bc917b;fill-rule:nonzero;"/><path d="M156.76,190.064" style="fill:#bc917b;fill-rule:nonzero;"/><path d="M152.83,192.529c-0.11,-0.024 -0.22,-0.045 -0.33,-0.071c0.11,0.024 0.21,0.045 0.33,0.071Z" style="fill:#bc917b;fill-rule:nonzero;"/><path d="M156.76,192.318" style="fill:#bc917b;fill-rule:nonzero;"/><path d="M151.97,192.336c-0.1,-0.027 -0.2,-0.056 -0.3,-0.083l-0.01,0.004c0,0 0.12,0.031 0.31,0.079Z" style="fill:#bc917b;fill-rule:nonzero;"/><path d="M156.76,192.318" style="fill:#bc917b;fill-rule:nonzero;"/><path d="M156.51,189.22" style="fill:#bc917b;fill-rule:nonzero;"/><path d="M156.51,189.22" style="fill:#bc917b;fill-rule:nonzero;"/><path d="M152.59,191.685c-0.12,-0.024 -0.23,-0.046 -0.34,-0.072c0.11,0.025 0.21,0.045 0.34,0.072Z" style="fill:#bc917b;fill-rule:nonzero;"/><path d="M156.51,191.473" style="fill:#bc917b;fill-rule:nonzero;"/><path d="M151.72,191.491c-0.1,-0.026 -0.19,-0.056 -0.29,-0.083l-0.02,0.004c0,0 0.12,0.032 0.31,0.079Z" style="fill:#bc917b;fill-rule:nonzero;"/><path d="M156.51,191.473" style="fill:#bc917b;fill-rule:nonzero;"/><path d="M157.15,189.005" style="fill:#bc917b;fill-rule:nonzero;"/><path d="M157.15,189.005" style="fill:#bc917b;fill-rule:nonzero;"/><path d="M153.36,191.569c-0.11,-0.023 -0.22,-0.044 -0.33,-0.069c0.11,0.024 0.2,0.044 0.33,0.069Z" style="fill:#bc917b;fill-rule:nonzero;"/><path d="M157.15,191.365" style="fill:#bc917b;fill-rule:nonzero;"/><path d="M152.52,191.382c-0.1,-0.025 -0.19,-0.054 -0.29,-0.08l-0.01,0.004c0,0 0.11,0.031 0.3,0.076Z" style="fill:#bc917b;fill-rule:nonzero;"/><path d="M157.15,191.365" style="fill:#bc917b;fill-rule:nonzero;"/><path d="M202.94,130.253c0,0 -4.91,20.198 -13.34,21.847c-8.43,1.647 -17.55,-1.629 -17.55,-1.629c0,0 -0.87,-23.737 3.45,-26.839c4.31,-3.115 14.25,-7.617 27.44,6.621Z" style="fill:#fff;fill-rule:nonzero;"/><path d="M172.04,150.409c0,0 0.2,0.056 0.63,0.237c0.11,-7.281 0.78,-17.281 3.47,-19.197c4.01,-2.942 13.05,-7.084 25.14,4.242c1.1,-3.129 1.65,-5.501 1.65,-5.501c-13.21,-14.264 -23.16,-9.77 -27.44,-6.653c-4.32,3.114 -3.45,26.872 -3.45,26.872Z" style="fill:#d6b496;fill-rule:nonzero;"/><path d="M177.03,140.124c0,4.594 3.72,8.319 8.3,8.319c4.58,0 8.29,-3.725 8.29,-8.319c0,-4.595 -3.71,-8.32 -8.29,-8.32c-4.58,0 -8.3,3.725 -8.3,8.32Z" style="fill:#482315;fill-rule:nonzero;"/><path d="M185.71,145.664c2.4,-0.198 4.24,-2.623 4.02,-5.289c-0.22,-2.665 -2.42,-4.75 -4.82,-4.549c-2.4,0.198 -4.23,2.619 -4.02,5.285c0.22,2.665 2.43,4.754 4.82,4.553Z" style="fill:#7e3a22;fill-rule:nonzero;"/><path d="M185.5,144.702c1.67,-0.142 3.4,-1.976 3.22,-4.236c-0.19,-2.267 -2.19,-3.797 -3.86,-3.66c-1.67,0.142 -3.39,1.985 -3.21,4.245c0.19,2.263 2.19,3.789 3.85,3.651Z" style="fill:#211a10;fill-rule:nonzero;"/><path d="M186.85,139.128c0.07,0.816 0.91,1.413 1.87,1.334c0.96,-0.082 1.68,-0.812 1.62,-1.624c-0.07,-0.82 -0.9,-1.417 -1.86,-1.339c-0.97,0.078 -1.69,0.808 -1.63,1.629Z" style="fill:#fff;fill-rule:nonzero;"/><path d="M181.48,143.853c0.03,0.406 0.45,0.706 0.93,0.665c0.48,-0.038 0.84,-0.406 0.81,-0.812c-0.04,-0.406 -0.45,-0.707 -0.93,-0.665c-0.48,0.037 -0.85,0.402 -0.81,0.812Z" style="fill:#fff;fill-rule:nonzero;"/><path d="M146.07,130.618c-0.07,-0.098 -1.6,-2.43 -4.72,-4.835c-1.96,-1.507 -3.88,-2.654 -5.87,-3.508c-2.42,-1.021 -5.03,-1.742 -7.55,-2.088c-2.29,-0.255 -4.82,-0.187 -7.77,0.212c-2.25,0.43 -4.45,1.103 -6.32,1.928c-1.33,0.46 -2.38,1.106 -3.23,1.625c-0.32,0.199 -0.61,0.379 -0.91,0.54l-4.03,2.538l4.64,-1.093c0.22,-0.055 0.45,-0.116 0.7,-0.183c0.96,-0.256 2.16,-0.574 3.56,-0.779c0.33,-0.048 0.66,-0.115 1,-0.183c0.58,-0.116 1.19,-0.237 1.82,-0.267c0.7,-0.047 1.43,-0.1 2.18,-0.154l0.97,-0.07c2.57,-0.032 4.74,0.163 6.67,0.608c2.11,0.365 4.27,1.047 6.26,1.97c1.87,0.9 3.67,1.792 5.08,2.825c2.83,1.898 4.41,3.48 4.42,3.495l0,0.001c0.39,0.393 0.91,0.595 1.43,0.595c0.38,0 0.77,-0.107 1.1,-0.328c0.93,-0.613 1.2,-1.876 0.6,-2.787l-0.03,-0.062Z" style="fill:#030405;fill-rule:nonzero;"/><path d="M203.76,124.473c-0.26,-0.142 -0.56,-0.322 -0.88,-0.522c-0.84,-0.519 -1.89,-1.164 -3.19,-1.608c-1.9,-0.841 -4.1,-1.514 -6.38,-1.949c-2.93,-0.395 -5.46,-0.462 -7.75,-0.206c-2.52,0.345 -5.12,1.066 -7.55,2.088c-1.96,0.842 -3.93,2.022 -5.86,3.507c-3.07,2.361 -4.6,4.652 -4.71,4.828l-0.03,0.042c-0.52,0.8 -0.41,1.871 0.26,2.546c0.38,0.386 0.89,0.598 1.43,0.598c0.54,-0.001 1.04,-0.213 1.42,-0.598l0.02,-0.017c0.15,-0.149 1.68,-1.65 4.43,-3.491c1.38,-1.017 3.18,-1.911 5.05,-2.81c1.99,-0.925 4.16,-1.607 6.29,-1.977c1.9,-0.44 4.08,-0.631 6.61,-0.604l1.02,0.073c0.75,0.053 1.47,0.105 2.18,0.152c0.62,0.03 1.22,0.151 1.81,0.267c0.34,0.068 0.67,0.135 1,0.183c1.4,0.205 2.59,0.523 3.55,0.779c0.25,0.067 0.49,0.129 0.71,0.184l4.64,1.093l-4.07,-2.558Z" style="fill:#030405;fill-rule:nonzero;"/><path d="M155.59,198.386" style="fill:#be927b;fill-rule:nonzero;"/><path d="M155.59,198.386" style="fill:#be927b;fill-rule:nonzero;"/><path d="M151.75,195.491c-0.1,-0.023 -0.21,-0.044 -0.32,-0.069c0.11,0.023 0.2,0.043 0.32,0.069Z" style="fill:#be927b;fill-rule:nonzero;"/><path d="M155.59,195.285" style="fill:#be927b;fill-rule:nonzero;"/><path d="M150.91,195.302c-0.1,-0.025 -0.19,-0.054 -0.29,-0.081l-0.01,0.005c0,0 0.11,0.03 0.3,0.076Z" style="fill:#be927b;fill-rule:nonzero;"/><path d="M155.59,195.285" style="fill:#be927b;fill-rule:nonzero;"/><path d="M144.39,199.658c-0.24,-3.247 9.02,0.68 12.06,0.774c2.42,0.082 9.71,-0.481 10.38,-0.739c5.1,-1.911 -0.27,5.429 -10.53,5.815c-4.7,0.188 -11.77,-3.88 -11.91,-5.85Z" style="fill:#f0d2ad;fill-rule:nonzero;"/><path d="M174.54,193.397c-2.52,-0.124 -5.1,1.978 -8.12,1.657c-0.13,-0.062 -0.19,-0.062 -0.32,-0.062c-0.69,-0.123 -1.38,0 -2.13,0.185c-0.94,0.198 -1.89,0.58 -2.78,0.889c-1.51,0.493 -3.21,0.888 -4.96,0.752l0,0.012l-0.1,-0.012l-0.1,0.012l0,-0.012c-1.75,0.136 -3.45,-0.259 -4.96,-0.752c-0.89,-0.309 -1.84,-0.691 -2.78,-0.889c-0.75,-0.185 -1.44,-0.308 -2.13,-0.185c-0.13,0 -0.2,0 -0.32,0.062c-3.02,0.321 -5.6,-1.781 -8.12,-1.657c-0.69,0.062 -1.7,-0.124 -2.26,-0.124c0.12,0.062 0.25,0.124 0.38,0.186c7.16,3.504 13.35,10.068 20.19,9.858l0.2,0c6.84,0.21 13.03,-6.354 20.19,-9.858c0.13,-0.062 0.26,-0.124 0.38,-0.186c-0.56,0 -1.57,0.186 -2.26,0.124Z" style="fill:#dcbf9e;fill-rule:nonzero;"/><path d="M176.64,193.197c0,0 -7.28,-2.815 -12.47,-1.164c0,0 -1.93,0.755 -3.92,1.215c-1.22,0.475 -2.69,0.613 -4.12,0.556c-1.09,-0.044 -2.13,-0.183 -2.98,-0.332c-0.28,-0.043 -0.56,-0.101 -0.85,-0.163c-0.13,-0.026 -0.22,-0.046 -0.33,-0.069c-0.17,-0.042 -0.34,-0.075 -0.51,-0.12c-0.19,-0.046 -0.3,-0.077 -0.3,-0.077l0.01,-0.004c-1.66,-0.45 -3.08,-1.006 -3.08,-1.006c-5.19,-1.651 -12.47,1.164 -12.47,1.164c-0.1,0.046 -0.16,0.076 -0.16,0.076c0.56,0 1.57,0.186 2.26,0.124c2.52,-0.124 5.1,1.978 8.12,1.657c0.12,-0.062 0.19,-0.062 0.32,-0.062c0.69,-0.123 1.38,0 2.13,0.185c0.94,0.198 1.89,0.58 2.78,0.889c1.51,0.493 3.21,0.888 4.96,0.752l0,0.012l0.1,-0.012l0.1,0.012l0,-0.012c1.75,0.136 3.45,-0.259 4.96,-0.752c0.89,-0.309 1.84,-0.691 2.78,-0.889c0.75,-0.185 1.44,-0.308 2.13,-0.185c0.13,0 0.19,0 0.32,0.062c3.02,0.321 5.6,-1.781 8.12,-1.657c0.69,0.062 1.7,-0.124 2.26,-0.124c0,0 -0.06,-0.03 -0.16,-0.076Z" style="fill:#c69f83;fill-rule:nonzero;"/><path d="M143.89,194.912c0.13,0.033 13.66,4.163 24.23,0.089l-1.22,-0.821l-14.29,0l-8.72,0.732Z" style="fill:#c69f83;fill-rule:nonzero;"/><path d="M156.7,272.369l0,12.118l-0.23,0.227l-38.41,-44.358c3.5,-2.387 6.73,-3.848 9.2,-4.691l29.44,36.704Z" style="fill:#658bb8;fill-rule:nonzero;"/><path d="M156.7,284.487l0,15.575l-46.04,0l0,-18.105c0,0 -6.73,-1.605 -14.35,-3.416c0.93,-4.999 2.14,-9.464 3.58,-13.393c4.72,-12.921 11.86,-20.431 18.17,-24.792l38.41,44.358l0.23,-0.227Z" style="fill:#37455e;fill-rule:nonzero;"/><path d="M217.44,278.048c-8.4,1.995 -16.4,3.909 -16.4,3.909l0,18.105l-44.34,0l0,-15.575l41.21,-42.506c5.74,4.526 11.83,11.727 16.03,23.167c1.4,3.806 2.59,8.106 3.5,12.9Z" style="fill:#617498;fill-rule:nonzero;"/><path d="M231.86,85.873c-0.19,-0.688 -0.38,-1.347 -0.56,-1.985c10.15,-1.616 15.81,-10.44 15.81,-10.44c0,0 -3.13,4.143 -13.06,2.919c10.39,-1.666 16.2,-11.651 16.2,-11.651c0,0 -4.6,6.783 -20.45,1.495c-15.47,-5.156 -15.08,-21.957 -37.32,-31.332c-11.39,-4.802 -18.19,-4.175 -22.13,-2.423c3.99,-3.303 12.19,-3.01 12.19,-3.01c0,0 -10.12,-5.614 -25.76,-0.579c-10.99,3.541 -17.57,7.571 -21.26,10.464l6.16,-5.923c0,0 -4.36,1.563 -10.55,4.738c4.21,-8.222 11.98,-17.231 11.98,-17.231c-19.81,7.438 -36.22,34.209 -36.22,34.209c1.57,-10.095 5.04,-19.329 5.04,-19.329c-24.48,18.356 -28.49,47.403 -28.84,62.06c-1.11,4.417 -1.64,8.917 -1.64,13.571c0,15.591 6.73,31.221 11.15,35.854c4.42,4.641 3,11.366 4.32,11.366c0,0 0.63,0.024 1.3,-1.322c0.15,1.31 0.29,2.162 0.73,2.162c0,0 2.68,0.096 2.77,-12.982c0.33,-4.416 1.72,-11.508 7.39,-9.387c0.31,0.133 0.61,0.282 0.91,0.402l0.17,0.081l0.01,0c28.47,11.468 43.01,-17.591 43.01,-17.591c0,0 2.44,-5.188 6.15,-11.091c3.34,-5.288 7.7,-11.147 12.3,-14.378c2.87,-2.013 6.63,-3.544 11.17,-4.97c25.94,-8.138 36.7,33.598 34.51,44.602c-2.09,10.629 -1.04,18.432 0.47,22.662c0.9,2.523 1.97,3.777 2.63,3.608c0,0 0.07,-4.307 1.68,-8.147c4.79,-11.432 8.8,-3.488 9.55,-18.991c0.59,-12.443 2.09,-19.475 2.68,-25.792c3.8,3.05 9.47,5.216 17.94,5.393c0,0 -11.98,-3.738 -20.43,-27.032Z" style="fill:#771017;fill-rule:nonzero;"/><path d="M197.91,241.981l-41.21,42.506l0,-12.118l0.08,0.103l0.02,0.021l31.56,-36.129c2.72,1.111 6.07,2.881 9.55,5.617Z" style="fill:#779cd1;fill-rule:nonzero;"/></g></svg>