<?xml version="1.0" encoding="UTF-8" standalone="no"?><!DOCTYPE svg PUBLIC "-//W3C//DTD SVG 1.1//EN" "http://www.w3.org/Graphics/SVG/1.1/DTD/svg11.dtd"><svg width="100%" height="100%" viewBox="0 0 298 301" version="1.1" xmlns="http://www.w3.org/2000/svg" xmlns:xlink="http://www.w3.org/1999/xlink" xml:space="preserve" style="fill-rule:evenodd;clip-rule:evenodd;stroke-linejoin:round;stroke-miterlimit:1.41421;"><g id="_43"><rect x="0.31" y="0.365" width="296.86" height="299.705" style="fill:#a4bd48;fill-rule:nonzero;"/><path d="M149.05,187.449l0,112.621l-60.73,0c-0.99,-0.396 -1.48,-0.596 -1.48,-0.596c0,-14.376 2.1,-25.585 5.3,-34.326c7.73,-21.095 21.89,-27.795 28.4,-29.815c2.14,-0.664 3.45,-0.823 3.45,-0.823c0.24,0 0.45,-0.021 0.67,-0.057c1.91,-0.308 3.47,-1.974 4.71,-4.633c0.93,-1.974 1.7,-4.493 2.33,-7.409c0.26,-1.136 0.45,-2.282 0.65,-3.521c0.3,-2.083 0.59,-4.263 0.84,-6.546c0.1,-1.388 0.25,-2.725 0.39,-4.164c0.54,-6.89 0.7,-14.433 0.7,-21.575c0,0 8.15,0.844 14.77,0.844Z" style="fill:#e0bd9a;fill-rule:nonzero;"/><path d="M211.51,299.474c0,0 -0.54,0.2 -1.44,0.596l-61.02,0l0,-112.621l0.15,0c6.57,0 14.83,-0.844 14.83,-0.844c0,7.091 0.14,14.531 0.68,21.425c0.15,1.342 0.3,2.725 0.4,4.067c0.25,2.381 0.55,4.612 0.89,6.695l0,0.046c0.1,0.946 0.29,1.789 0.44,2.679c0.6,2.931 1.33,5.507 2.21,7.573c1.09,2.571 2.42,4.366 4.03,5.075c0.51,0.232 1.05,0.345 1.62,0.345c0,0 2.34,0.283 5.84,1.66c7.15,2.808 19.16,10.176 26.06,28.978c3.2,8.741 5.31,19.95 5.31,34.326Z" style="fill:#efd0ad;fill-rule:nonzero;"/><path d="M166,218.582l0,0.049c-1.53,2.365 -6.67,9.163 -16.85,9.163l-0.1,0c-9.64,-0.049 -15.27,-7.045 -16.7,-9.114c0.3,-2.069 0.59,-4.237 0.84,-6.503c0.1,-1.33 0.25,-2.71 0.39,-4.138c4.7,1.182 9.84,1.921 15.27,2.019l0.2,0c5.63,-0.098 10.82,-0.886 15.66,-2.167c0.15,1.33 0.3,2.709 0.4,4.04c0.25,2.364 0.54,4.581 0.89,6.651Z" style="fill:#be987f;fill-rule:nonzero;"/><path d="M148.36,59.105c-64.34,0 -64.68,53.948 -61.82,89.272c-4.4,-8.376 -17.49,-5.814 -16.4,7.39c1.03,12.71 19.74,19.188 19.22,17.785c9.74,26.124 35.53,45.818 59,45.818l0.49,0l0,-160.265l-0.49,0Z" style="fill:#d2a686;fill-rule:nonzero;"/><path d="M74.24,150.199c3.16,-5.123 8.1,-2.906 9.29,-1.773c1.28,1.231 2.32,2.808 1.53,5.813c-0.44,1.725 -2.22,1.872 -1.83,4.434c0.5,2.907 1.83,3.055 2.62,3.744c0.74,0.641 1.68,1.134 2.13,2.365c0.49,1.232 0.54,2.513 0.29,3.646c-0.49,2.069 -3.51,0.394 -5.53,-0.493c-1.34,-0.64 -5.59,-4.237 -6.67,-5.419c-2.67,-3.054 -3.96,-8.966 -1.83,-12.317Z" style="fill:#ac8774;fill-rule:nonzero;"/><path d="M148.7,59.105c64.34,0 64.69,53.948 61.87,89.272c4.4,-8.376 17.44,-5.814 16.36,7.39c-0.99,12.71 -19.74,19.193 -19.23,17.785c-9.49,26.124 -35.52,45.818 -59,45.818c-0.14,0 -0.34,0 -0.34,0l-0.15,-160.265c0,0 0.35,0 0.49,0Z" style="fill:#ddb598;fill-rule:nonzero;"/><path d="M222.82,150.199c-3.16,-5.123 -8.05,-2.906 -9.29,-1.773c-1.28,1.231 -2.27,2.808 -1.53,5.813c0.45,1.725 2.23,1.872 1.83,4.434c-0.49,2.907 -1.83,3.055 -2.57,3.744c-0.74,0.641 -1.73,1.134 -2.17,2.365c-0.45,1.232 -0.55,2.513 -0.3,3.646c0.49,2.069 3.51,0.394 5.54,-0.493c1.38,-0.64 5.58,-4.237 6.67,-5.419c2.71,-3.054 3.95,-8.966 1.82,-12.317Z" style="fill:#ac8774;fill-rule:nonzero;"/><path d="M147.85,74.328c-21.15,0 -36.66,6.159 -46,18.279c-13.1,16.996 -12.6,42.911 -7.81,61.534c1.48,5.714 2.27,21.037 3.26,26.653c4.6,25.175 32.32,38.576 50.55,38.576c0,0 0.35,0 0.5,0l0,-145.042c-0.15,0 -0.3,0 -0.3,0l-0.2,0Z" style="fill:#e0bd9a;fill-rule:nonzero;"/><path d="M193.81,92.656c-9.29,-12.07 -24.61,-18.229 -45.46,-18.328l0,145.042c20.85,-0.247 45.8,-14.928 50.05,-38.576c1.04,-5.616 1.78,-20.939 3.26,-26.653c4.85,-18.574 5.34,-44.439 -7.85,-61.485Z" style="fill:#efd0ad;fill-rule:nonzero;"/><path d="M148.54,190.922" style="fill:#bc917b;fill-rule:nonzero;"/><path d="M148.54,190.922" style="fill:#bc917b;fill-rule:nonzero;"/><path d="M144.97,193.658c-0.1,-0.021 -0.2,-0.041 -0.3,-0.064c0.1,0.022 0.18,0.04 0.3,0.064Z" style="fill:#bc917b;fill-rule:nonzero;"/><path d="M148.54,193.466" style="fill:#bc917b;fill-rule:nonzero;"/><path d="M144.19,193.483c-0.1,-0.024 -0.18,-0.051 -0.27,-0.076l-0.01,0.004c0,0 0.1,0.029 0.28,0.072Z" style="fill:#bc917b;fill-rule:nonzero;"/><path d="M148.54,193.466" style="fill:#bc917b;fill-rule:nonzero;"/><path d="M136.34,174.843c-0.24,-5.012 9.18,-1.832 12.29,-1.675c2.45,0.126 9.92,-1.579 10.56,-1.14c4.4,2.971 -4.65,8.956 -10.72,8.956c-1.61,0 -11.98,-3.118 -12.13,-6.141Z" style="fill:#ddb598;fill-rule:nonzero;"/><path d="M130.38,74.691l-0.26,0.268l0.04,0.089c0.09,-0.134 0.14,-0.268 0.22,-0.357Z" style="fill:#432e1b;fill-rule:nonzero;"/><path d="M89.42,125.798" style="fill:#432e1b;fill-rule:nonzero;"/><path d="M148.81,193.485" style="fill:#ba907b;fill-rule:nonzero;"/><path d="M148.81,193.485" style="fill:#ba907b;fill-rule:nonzero;"/><path d="M145.15,190.716c-0.11,-0.022 -0.21,-0.042 -0.31,-0.066c0.1,0.023 0.19,0.041 0.31,0.066Z" style="fill:#ba907b;fill-rule:nonzero;"/><path d="M148.81,190.519" style="fill:#ba907b;fill-rule:nonzero;"/><path d="M144.34,190.536c-0.09,-0.025 -0.18,-0.052 -0.28,-0.078l-0.01,0.004c0,0 0.11,0.029 0.29,0.074Z" style="fill:#ba907b;fill-rule:nonzero;"/><path d="M148.81,190.519" style="fill:#ba907b;fill-rule:nonzero;"/><path d="M102.19,130.939c0,0 4.91,20.199 13.34,21.847c8.42,1.647 17.54,-1.629 17.54,-1.629c0,0 0.88,-23.737 -3.44,-26.839c-4.31,-3.115 -14.25,-7.617 -27.44,6.621Z" style="fill:#fff;fill-rule:nonzero;"/><path d="M133.09,151.095c0,0 -0.2,0.055 -0.63,0.237c-0.11,-7.281 -0.78,-17.281 -3.47,-19.197c-4.01,-2.942 -13.06,-7.084 -25.14,4.242c-1.1,-3.129 -1.65,-5.501 -1.65,-5.501c13.21,-14.264 23.16,-9.771 27.44,-6.654c4.32,3.115 3.45,26.873 3.45,26.873Z" style="fill:#d6b496;fill-rule:nonzero;"/><path d="M128.1,140.809c0,4.595 -3.72,8.32 -8.3,8.32c-4.58,0 -8.29,-3.725 -8.29,-8.32c0,-4.594 3.71,-8.319 8.29,-8.319c4.58,0 8.3,3.725 8.3,8.319Z" style="fill:#482315;fill-rule:nonzero;"/><path d="M119.42,146.35c-2.4,-0.198 -4.24,-2.623 -4.02,-5.289c0.22,-2.665 2.42,-4.751 4.82,-4.549c2.4,0.198 4.23,2.619 4.02,5.285c-0.22,2.665 -2.43,4.755 -4.82,4.553Z" style="fill:#7e3a22;fill-rule:nonzero;"/><path d="M119.62,145.388c-1.66,-0.141 -3.39,-1.977 -3.21,-4.236c0.19,-2.267 2.19,-3.797 3.86,-3.66c1.67,0.142 3.39,1.984 3.21,4.245c-0.19,2.263 -2.19,3.789 -3.86,3.651Z" style="fill:#211a10;fill-rule:nonzero;"/><path d="M118.27,139.814c-0.06,0.816 -0.9,1.413 -1.86,1.334c-0.96,-0.082 -1.68,-0.812 -1.62,-1.624c0.07,-0.82 0.9,-1.417 1.86,-1.339c0.96,0.078 1.69,0.808 1.62,1.629Z" style="fill:#fff;fill-rule:nonzero;"/><path d="M123.65,144.539c-0.03,0.406 -0.45,0.706 -0.93,0.665c-0.48,-0.038 -0.84,-0.406 -0.81,-0.812c0.04,-0.406 0.45,-0.707 0.93,-0.666c0.48,0.038 0.85,0.403 0.81,0.813Z" style="fill:#fff;fill-rule:nonzero;"/><path d="M148.94,190.434" style="fill:#ba907b;fill-rule:nonzero;"/><path d="M148.94,190.434" style="fill:#ba907b;fill-rule:nonzero;"/><path d="M145.28,193.099c-0.11,-0.023 -0.21,-0.043 -0.31,-0.067c0.1,0.023 0.19,0.042 0.31,0.067Z" style="fill:#ba907b;fill-rule:nonzero;"/><path d="M148.94,192.901" style="fill:#ba907b;fill-rule:nonzero;"/><path d="M144.47,192.918c-0.09,-0.025 -0.18,-0.052 -0.27,-0.078l-0.01,0.004c0,0 0.1,0.03 0.28,0.074Z" style="fill:#ba907b;fill-rule:nonzero;"/><path d="M148.94,192.901" style="fill:#ba907b;fill-rule:nonzero;"/><path d="M148.83,190.063" style="fill:#bc917b;fill-rule:nonzero;"/><path d="M148.83,190.063" style="fill:#bc917b;fill-rule:nonzero;"/><path d="M144.9,192.528c-0.11,-0.024 -0.22,-0.046 -0.33,-0.071c0.11,0.024 0.2,0.045 0.33,0.071Z" style="fill:#bc917b;fill-rule:nonzero;"/><path d="M148.83,192.316" style="fill:#bc917b;fill-rule:nonzero;"/><path d="M144.04,192.334c-0.1,-0.026 -0.2,-0.055 -0.3,-0.083l-0.01,0.005c0,0 0.11,0.031 0.31,0.078Z" style="fill:#bc917b;fill-rule:nonzero;"/><path d="M148.83,192.316" style="fill:#bc917b;fill-rule:nonzero;"/><path d="M148.58,189.218" style="fill:#bc917b;fill-rule:nonzero;"/><path d="M148.58,189.218" style="fill:#bc917b;fill-rule:nonzero;"/><path d="M144.65,191.683c-0.11,-0.023 -0.22,-0.045 -0.33,-0.071c0.11,0.024 0.21,0.045 0.33,0.071Z" style="fill:#bc917b;fill-rule:nonzero;"/><path d="M148.58,191.472" style="fill:#bc917b;fill-rule:nonzero;"/><path d="M143.79,191.49c-0.1,-0.027 -0.2,-0.056 -0.3,-0.084l-0.01,0.005c0,0 0.12,0.031 0.31,0.079Z" style="fill:#bc917b;fill-rule:nonzero;"/><path d="M148.58,191.472" style="fill:#bc917b;fill-rule:nonzero;"/><path d="M149.22,189.004" style="fill:#bc917b;fill-rule:nonzero;"/><path d="M149.22,189.004" style="fill:#bc917b;fill-rule:nonzero;"/><path d="M145.42,191.568c-0.1,-0.023 -0.21,-0.044 -0.32,-0.069c0.11,0.024 0.2,0.043 0.32,0.069Z" style="fill:#bc917b;fill-rule:nonzero;"/><path d="M149.22,191.363" style="fill:#bc917b;fill-rule:nonzero;"/><path d="M144.59,191.381c-0.1,-0.026 -0.19,-0.054 -0.29,-0.081l-0.01,0.005c0,0 0.11,0.03 0.3,0.076Z" style="fill:#bc917b;fill-rule:nonzero;"/><path d="M149.22,191.363" style="fill:#bc917b;fill-rule:nonzero;"/><path d="M195,130.251c0,0 -4.9,20.199 -13.33,21.848c-8.43,1.647 -17.55,-1.629 -17.55,-1.629c0,0 -0.87,-23.737 3.45,-26.839c4.31,-3.116 14.25,-7.617 27.43,6.62Z" style="fill:#fff;fill-rule:nonzero;"/><path d="M164.11,150.407c0,0 0.19,0.056 0.63,0.237c0.11,-7.28 0.78,-17.281 3.47,-19.196c4.01,-2.943 13.05,-7.084 25.14,4.242c1.1,-3.129 1.65,-5.502 1.65,-5.502c-13.22,-14.264 -23.16,-9.77 -27.44,-6.652c-4.32,3.114 -3.45,26.871 -3.45,26.871Z" style="fill:#d6b496;fill-rule:nonzero;"/><path d="M169.1,140.122c0,4.595 3.71,8.32 8.29,8.32c4.58,0 8.3,-3.725 8.3,-8.32c0,-4.594 -3.72,-8.32 -8.3,-8.32c-4.58,0 -8.29,3.726 -8.29,8.32Z" style="fill:#482315;fill-rule:nonzero;"/><path d="M177.78,145.663c2.39,-0.199 4.23,-2.623 4.01,-5.289c-0.21,-2.665 -2.42,-4.751 -4.81,-4.549c-2.4,0.198 -4.23,2.619 -4.02,5.284c0.22,2.666 2.43,4.755 4.82,4.554Z" style="fill:#7e3a22;fill-rule:nonzero;"/><path d="M177.57,144.701c1.67,-0.142 3.4,-1.977 3.22,-4.236c-0.19,-2.267 -2.19,-3.797 -3.86,-3.66c-1.67,0.142 -3.39,1.985 -3.21,4.245c0.18,2.262 2.19,3.789 3.85,3.651Z" style="fill:#211a10;fill-rule:nonzero;"/><path d="M178.92,139.126c0.07,0.817 0.91,1.414 1.87,1.335c0.95,-0.082 1.68,-0.812 1.61,-1.624c-0.07,-0.821 -0.9,-1.418 -1.86,-1.339c-0.96,0.078 -1.68,0.808 -1.62,1.628Z" style="fill:#fff;fill-rule:nonzero;"/><path d="M173.55,143.851c0.03,0.407 0.45,0.707 0.93,0.666c0.48,-0.038 0.84,-0.406 0.81,-0.813c-0.04,-0.406 -0.46,-0.706 -0.93,-0.665c-0.49,0.037 -0.85,0.402 -0.81,0.812Z" style="fill:#fff;fill-rule:nonzero;"/><path d="M138.14,130.617c-0.07,-0.098 -1.6,-2.431 -4.72,-4.835c-1.96,-1.507 -3.88,-2.654 -5.87,-3.508c-2.42,-1.021 -5.03,-1.742 -7.55,-2.088c-2.29,-0.255 -4.82,-0.187 -7.77,0.211c-2.26,0.431 -4.46,1.103 -6.32,1.929c-1.33,0.46 -2.38,1.105 -3.23,1.625c-0.32,0.199 -0.61,0.379 -0.91,0.539l-4.03,2.538l4.64,-1.092c0.22,-0.055 0.45,-0.117 0.7,-0.184c0.96,-0.255 2.16,-0.573 3.56,-0.779c0.33,-0.048 0.66,-0.114 1,-0.182c0.58,-0.117 1.19,-0.238 1.82,-0.268c0.7,-0.047 1.43,-0.099 2.18,-0.153l0.97,-0.071c2.57,-0.032 4.74,0.164 6.67,0.609c2.11,0.365 4.27,1.046 6.26,1.969c1.87,0.901 3.67,1.793 5.07,2.826c2.84,1.897 4.41,3.479 4.43,3.495c0.39,0.393 0.91,0.596 1.43,0.596c0.38,0 0.76,-0.108 1.1,-0.329c0.93,-0.612 1.19,-1.876 0.6,-2.787l-0.03,-0.061Z" style="fill:#030405;fill-rule:nonzero;"/><path d="M195.83,124.471c-0.26,-0.141 -0.56,-0.322 -0.88,-0.521c-0.85,-0.519 -1.9,-1.164 -3.19,-1.609c-1.9,-0.841 -4.1,-1.513 -6.38,-1.948c-2.93,-0.395 -5.46,-0.463 -7.76,-0.206c-2.51,0.345 -5.12,1.066 -7.54,2.087c-1.96,0.843 -3.94,2.023 -5.87,3.508c-3.06,2.36 -4.59,4.652 -4.71,4.828l-0.03,0.042c-0.51,0.8 -0.4,1.871 0.27,2.546c0.38,0.385 0.89,0.598 1.43,0.598c0.54,-0.001 1.04,-0.213 1.42,-0.599l0.02,-0.017c0.15,-0.148 1.68,-1.649 4.43,-3.49c1.38,-1.017 3.18,-1.912 5.05,-2.81c1.99,-0.926 4.16,-1.607 6.29,-1.978c1.9,-0.439 4.07,-0.631 6.61,-0.604l1.02,0.074c0.75,0.052 1.47,0.104 2.17,0.152c0.63,0.029 1.23,0.15 1.81,0.267c0.34,0.068 0.68,0.134 1,0.182c1.4,0.206 2.6,0.524 3.56,0.779c0.25,0.067 0.48,0.129 0.71,0.185l4.63,1.093l-4.06,-2.559Z" style="fill:#030405;fill-rule:nonzero;"/><path d="M147.65,198.384" style="fill:#be927b;fill-rule:nonzero;"/><path d="M147.65,198.384" style="fill:#be927b;fill-rule:nonzero;"/><path d="M143.82,195.49c-0.11,-0.024 -0.21,-0.045 -0.32,-0.07c0.1,0.024 0.2,0.044 0.32,0.07Z" style="fill:#be927b;fill-rule:nonzero;"/><path d="M147.65,195.283" style="fill:#be927b;fill-rule:nonzero;"/><path d="M142.98,195.301c-0.1,-0.026 -0.19,-0.054 -0.29,-0.081l-0.01,0.004c0,0 0.11,0.031 0.3,0.077Z" style="fill:#be927b;fill-rule:nonzero;"/><path d="M147.65,195.283" style="fill:#be927b;fill-rule:nonzero;"/><path d="M136.46,199.657c-0.24,-3.247 9.02,0.68 12.06,0.774c2.42,0.082 9.71,-0.481 10.38,-0.739c5.1,-1.911 -0.28,5.429 -10.54,5.815c-4.69,0.188 -11.76,-3.881 -11.9,-5.85Z" style="fill:#f0d2ad;fill-rule:nonzero;"/><path d="M166.6,193.396c-2.51,-0.124 -5.09,1.977 -8.11,1.656c-0.13,-0.061 -0.19,-0.061 -0.32,-0.061c-0.69,-0.123 -1.38,0 -2.14,0.185c-0.94,0.197 -1.88,0.58 -2.77,0.889c-1.51,0.493 -3.21,0.888 -4.96,0.752l0,0.012l-0.1,-0.012l-0.1,0.012l0,-0.012c-1.75,0.136 -3.45,-0.259 -4.97,-0.752c-0.88,-0.309 -1.83,-0.692 -2.77,-0.889c-0.75,-0.185 -1.44,-0.308 -2.14,-0.185c-0.13,0 -0.19,0 -0.31,0.061c-3.02,0.321 -5.6,-1.78 -8.12,-1.656c-0.69,0.061 -1.7,-0.124 -2.27,-0.124c0.13,0.062 0.26,0.124 0.38,0.185c7.17,3.504 13.35,10.068 20.2,9.858l0.2,0c6.84,0.21 13.03,-6.354 20.19,-9.858c0.13,-0.061 0.26,-0.123 0.38,-0.185c-0.56,0 -1.57,0.185 -2.27,0.124Z" style="fill:#dcbf9e;fill-rule:nonzero;"/><path d="M168.71,193.196c0,0 -7.29,-2.815 -12.47,-1.164c0,0 -1.93,0.755 -3.93,1.215c-1.21,0.475 -2.69,0.613 -4.11,0.555c-1.09,-0.043 -2.13,-0.182 -2.98,-0.331c-0.28,-0.044 -0.56,-0.101 -0.85,-0.163c-0.13,-0.026 -0.22,-0.046 -0.33,-0.07c-0.17,-0.041 -0.34,-0.074 -0.52,-0.119c-0.19,-0.046 -0.3,-0.077 -0.3,-0.077l0.01,-0.004c-1.65,-0.45 -3.08,-1.006 -3.08,-1.006c-5.18,-1.651 -12.46,1.164 -12.46,1.164c-0.1,0.045 -0.17,0.076 -0.17,0.076c0.57,0 1.58,0.185 2.27,0.124c2.51,-0.124 5.1,1.977 8.12,1.656c0.12,-0.061 0.18,-0.061 0.31,-0.061c0.7,-0.124 1.39,0 2.14,0.185c0.94,0.197 1.89,0.58 2.77,0.889c1.52,0.493 3.22,0.888 4.97,0.752l0,0.012l0.1,-0.012l0.1,0.012l0,-0.012c1.75,0.136 3.45,-0.259 4.96,-0.752c0.89,-0.309 1.83,-0.692 2.77,-0.889c0.76,-0.185 1.45,-0.309 2.14,-0.185c0.13,0 0.19,0 0.32,0.061c3.02,0.321 5.6,-1.78 8.11,-1.656c0.7,0.061 1.71,-0.124 2.27,-0.124c0,0 -0.06,-0.031 -0.16,-0.076Z" style="fill:#c69f83;fill-rule:nonzero;"/><path d="M135.96,194.91c0.13,0.034 13.65,4.164 24.23,0.09l-1.22,-0.822l-14.29,0l-8.72,0.732Z" style="fill:#c69f83;fill-rule:nonzero;"/><path d="M140.75,252.659l0,47.403l-44.6,0c0.25,-3.621 0.47,-9.485 0.51,-17.22l-11.41,0c-0.13,-11.255 8.84,-30.471 8.84,-30.471c0.87,-1.173 1.75,-2.243 2.64,-3.271c2.32,-2.675 4.73,-4.856 7.11,-6.625c0.27,-0.288 0.6,-0.494 0.89,-0.679c0.76,-0.556 1.54,-1.07 2.3,-1.564c3.46,-2.201 6.73,-3.6 9.28,-4.464c0.6,-0.227 1.15,-0.391 1.69,-0.535c2.39,-0.659 3.87,-0.844 3.87,-0.844c1.27,0 2.36,-0.473 3.35,-1.276l0.04,-0.041c0.33,-0.308 0.66,-0.679 0.99,-1.07c0.12,0.103 0.37,0.433 0.58,1.111c0.92,2.264 6.35,13.806 13.92,19.546Z" style="fill:#5cc7d2;fill-rule:nonzero;"/><path d="M201.78,282.842c0.04,7.715 0.33,13.62 0.57,17.22l-44.79,0l0,-47.3c2.43,-1.79 4.63,-4.218 6.53,-6.728c4.13,-5.432 6.91,-11.357 7.55,-12.921c0.22,-0.678 0.47,-1.008 0.61,-1.111c0.31,0.391 0.64,0.762 0.97,1.07l0.04,0.041c0.97,0.803 2.1,1.276 3.34,1.276c0,0 1.41,0.144 3.68,0.761c0.49,0.185 1.05,0.35 1.66,0.556c3.11,1.029 7.33,2.819 11.73,6.008c0.29,0.226 0.62,0.432 0.87,0.699c3.35,2.469 6.74,5.699 9.83,9.958c0,0 9.14,13.25 8.72,30.471l-11.31,0Z" style="fill:#5cc7d2;fill-rule:nonzero;"/><path d="M105.48,290.297l-21.16,0c-1.95,0 -3.52,-1.579 -3.52,-3.525l0,-9.25c0,-2.885 2.33,-5.223 5.22,-5.223l12.7,0c3.73,0 6.76,3.029 6.76,6.766l0,11.232Z" style="fill:#47989a;fill-rule:nonzero;"/><path d="M215.59,290.297l-21.17,0l0,-11.232c0,-3.737 3.03,-6.766 6.77,-6.766l12.7,0c2.88,0 5.22,2.338 5.22,5.223l0,9.25c0,1.946 -1.58,3.525 -3.52,3.525Z" style="fill:#47989a;fill-rule:nonzero;"/><path d="M225.91,115.5c-1.43,-16.773 -5.2,-30.16 -5.2,-30.16c0,0 -0.11,0.125 -0.32,0.36c-4.52,-16.402 -12.06,-25.264 -12.06,-25.264l0,0.008c-3.66,-5.55 -8.86,-11.376 -15.22,-17.123c-13.03,-11.751 -21.22,-9.333 -32.01,-8.996c0,0 -0.03,0.075 -0.08,0.193c-4.74,-1.023 -30.21,-6.112 -45.36,-0.483c-16.75,6.236 -30.46,16.928 -40.14,45.648c-1.49,4.417 -2.56,8.71 -3.3,12.852c-2.19,4.801 -3.18,9.514 -3.59,13.373l-0.25,-0.038c0,0 -8.44,45.178 -32.2,54.197c0,0 18.05,4.472 32.35,-18.705c0.33,4.591 0.92,9.239 1.84,13.771c-0.79,5.961 -1.74,10.885 -1.74,14.061c0,22.465 16.78,41.08 14.2,63.698c-1.71,14.914 -8.58,26.473 -8.58,26.473c0,0 7.86,-10.211 11.08,-19.778c3.21,-9.571 2.14,-26.805 -3.22,-40.527c-2.75,-7.032 -3.52,-14.735 -3.19,-22.206c0.46,0.672 0.92,1.34 1.42,1.977c0,0 -0.59,-1.9 -1.24,-4.878c0.3,-3.706 0.85,-7.324 1.55,-10.741c0.11,-0.594 0.24,-1.192 0.37,-1.775c0.15,-0.684 0.32,-1.321 0.48,-1.985c1.49,3.085 3.13,5.996 4.87,8.715c0.11,0.367 0.21,0.746 0.33,1.097c1.11,3.603 2.64,6.953 3.97,10.123c1.29,3.183 2.63,6.171 3.64,9.068c0.92,2.889 1.76,5.622 2.18,8.218c0.26,1.297 0.38,2.562 0.48,3.753c0.16,1.213 0.2,2.352 0.19,3.442c0.11,2.163 -0.11,4.071 -0.17,5.661c-0.38,3.162 -0.59,4.987 -0.59,4.987c0,0 0.19,-0.42 0.56,-1.209c0.34,-0.818 0.97,-1.957 1.52,-3.516c0.47,-1.562 1.24,-3.445 1.61,-5.71c0.5,-2.25 0.84,-4.846 0.77,-7.701c0.07,-3.8 -0.65,-8.009 -1.8,-12.321c6.16,6.316 11.07,9.784 11.07,9.784c0,0 -7.2,-8.481 -10.42,-16.944c-2.5,-6.569 -6.23,-17.845 -6.23,-34.451c0,-0.768 0.04,-1.546 0.11,-2.328c0.22,-0.9 0.41,-1.812 0.67,-2.696c1.68,-6.018 3.8,-11.622 5.63,-16.578c4.55,-8.847 9.87,-15.562 9.87,-15.562c0,0 -7.52,12.896 -8.99,27.084c-1.5,14.18 6.38,25.15 6.38,25.15c0,0 -1.58,-16.841 3.93,-30.247c2.77,-6.734 7.31,-12.606 14.76,-15.037l-0.02,0.032c-3.99,10.866 4.04,19.996 4.04,19.996c0,0 0.02,-2.725 0.82,-6.927c2.06,-10.875 9.25,-31.669 34.42,-40.917l0.78,1.132l17.72,25.733c0.87,1.17 2.29,3.146 3.93,5.702c4.8,7.443 11.44,19.646 11.44,30.258c0,16.603 -3.73,27.877 -6.24,34.445c-3.21,8.463 -10.42,16.949 -10.42,16.949c0,0 3.93,-2.771 9.16,-7.871c-0.28,1.938 -0.44,3.825 -0.4,5.614c-0.07,2.855 0.27,5.451 0.77,7.701c0.37,2.265 1.13,4.148 1.6,5.71c0.56,1.559 1.19,2.698 1.53,3.516c0.37,0.789 0.56,1.209 0.56,1.209c0,0 -0.22,-1.825 -0.59,-4.987c-0.06,-1.59 -0.28,-3.498 -0.17,-5.661c-0.01,-1.09 0.03,-2.229 0.18,-3.442c0.1,-1.191 0.23,-2.456 0.49,-3.753c0.42,-2.596 1.25,-5.329 2.18,-8.218c0.92,-2.628 2.1,-5.338 3.28,-8.191c3.74,-4.796 7.44,-10.434 10.43,-16.815c2.21,11.072 2.94,24.221 -1.51,35.611c-5.36,13.722 -6.44,30.956 -3.22,40.527c3.22,9.567 11.08,19.778 11.08,19.778c0,0 -6.87,-11.559 -8.58,-26.473c-2.59,-22.618 14.2,-41.233 14.2,-63.698c0,-2.862 -0.78,-7.142 -1.51,-12.315c1.57,-4.024 2.67,-8.333 3.41,-12.777c13.96,20.064 30.55,15.965 30.55,15.965c-16.79,-6.372 -25.93,-30.782 -29.84,-44.567Z" style="fill:#f0f0f0;fill-rule:nonzero;"/><path d="M158.9,150.575c-0.52,-1.801 -0.8,-3.578 -0.95,-5.201c-0.26,-2.125 -0.34,-4.661 0.16,-7.09c0.22,-1.875 0.94,-3.455 2,-4.786c0.32,0.194 0.68,0.298 1.06,0.298c0.54,-0.001 1.04,-0.213 1.42,-0.599l0.02,-0.017c0.1,-0.102 0.86,-0.845 2.22,-1.898c-0.78,5.559 -0.82,12.6 -0.78,16.398c-1.65,0.808 -3.33,1.743 -5.02,2.812c-0.05,0.028 -0.09,0.055 -0.13,0.083Zm40.06,-3.97c-2.8,-1.149 -5.84,-2.097 -9.07,-2.69c2.88,-5.413 4.62,-11.755 5.02,-13.308c2.24,5.186 3.92,10.768 4.05,15.998Zm-4.47,-16.954c-0.98,-1.033 -1.94,-1.96 -2.89,-2.794c0.39,0.071 0.8,0.156 1.22,0.259c0.19,0.041 0.37,0.085 0.54,0.129c0.39,0.789 0.77,1.592 1.13,2.406Z" style="fill:url(#_Linear1);"/><path d="M164.83,147.31c0.25,-6.698 1.08,-14.227 3.38,-15.862c2,-1.466 5.24,-3.23 9.49,-3.23c4.29,0 9.58,1.788 15.65,7.472c0.83,-2.374 1.35,-4.313 1.55,-5.11c0.01,0.009 0.01,0.018 0.01,0.027c-0.4,1.553 -2.14,7.895 -5.02,13.308c-1.57,-0.287 -3.18,-0.491 -4.84,-0.595c0.41,-0.984 0.64,-2.064 0.64,-3.198c0,-4.594 -3.72,-8.32 -8.3,-8.32c-4.58,0 -8.29,3.726 -8.29,8.32c0,1.84 0.6,3.541 1.6,4.918c-1.92,0.591 -3.88,1.341 -5.87,2.27Z" style="fill:url(#_Linear2);"/><path d="M164.05,147.68c-0.04,-3.798 0,-10.839 0.78,-16.398c0.61,-0.477 1.35,-1.018 2.21,-1.592c0.81,-0.602 1.78,-1.162 2.82,-1.704c5.46,-1.485 11.05,-1.588 12.45,-1.588c0.23,-0.006 0.46,-0.012 0.7,-0.012c0.7,-0.026 1.37,-0.038 2.01,-0.038c1.68,0 3.19,0.084 4.54,0.232c0.57,0.051 1.26,0.136 2.04,0.277c0.95,0.834 1.91,1.761 2.89,2.794c0.14,0.308 0.28,0.618 0.41,0.929c-0.2,0.797 -0.72,2.736 -1.55,5.11c-6.07,-5.684 -11.36,-7.472 -15.65,-7.472c-4.25,0 -7.49,1.764 -9.49,3.23c-2.3,1.635 -3.13,9.164 -3.38,15.862c-0.26,0.12 -0.52,0.243 -0.78,0.37Z" style="fill:url(#_Linear3);"/><path d="M170.7,145.04c-1,-1.377 -1.6,-3.078 -1.6,-4.918c0,-4.594 3.71,-8.32 8.29,-8.32c4.58,0 8.3,3.726 8.3,8.32c0,1.134 -0.23,2.214 -0.64,3.198c-0.81,-0.051 -1.64,-0.078 -2.48,-0.079c-0.01,0 -0.01,0 -0.02,0c-0.01,0 -0.02,0 -0.03,0c-0.43,0.001 -0.88,0.008 -1.32,0.024c0.45,-0.849 0.68,-1.852 0.59,-2.891c0,-0.091 -0.01,-0.181 -0.02,-0.27c0.42,-0.306 0.67,-0.771 0.63,-1.267c-0.06,-0.772 -0.8,-1.346 -1.69,-1.346c-0.02,0 -0.05,0 -0.07,0.001c-0.84,-1.029 -2.05,-1.681 -3.34,-1.681c-0.11,0 -0.22,0.005 -0.32,0.014c-2.4,0.198 -4.23,2.619 -4.02,5.284c0.06,0.832 0.33,1.608 0.73,2.275c-0.1,0.134 -0.16,0.297 -0.14,0.467c0.01,0.146 0.07,0.278 0.17,0.386c-1,0.226 -2,0.493 -3.02,0.803Z" style="fill:url(#_Linear4);"/><path d="M173.69,143.384c-0.4,-0.667 -0.67,-1.443 -0.73,-2.275c-0.21,-2.665 1.62,-5.086 4.02,-5.284c0.1,-0.009 0.21,-0.014 0.32,-0.014c1.29,0 2.5,0.652 3.34,1.681c-0.03,0.001 -0.06,0.003 -0.1,0.006c-0.38,0.031 -0.72,0.163 -0.99,0.363c-0.69,-0.673 -1.58,-1.065 -2.41,-1.065c-0.07,0 -0.14,0.003 -0.21,0.009c-1.67,0.142 -3.39,1.985 -3.21,4.245c0.06,0.755 0.33,1.429 0.71,1.985c-0.02,0.001 -0.05,0.002 -0.07,0.004c-0.29,0.022 -0.53,0.156 -0.67,0.345Zm6.22,-0.054c0.6,-0.754 0.97,-1.759 0.88,-2.865c0,-0.002 0,-0.003 0,-0.004c0.37,-0.032 0.71,-0.162 0.98,-0.357c0.01,0.089 0.02,0.179 0.02,0.27c0.09,1.039 -0.14,2.042 -0.59,2.891c-0.43,0.014 -0.86,0.036 -1.29,0.065Z" style="fill:url(#_Linear5);"/><path d="M175.27,143.917c0.01,-0.069 0.02,-0.14 0.02,-0.213c-0.04,-0.381 -0.41,-0.669 -0.85,-0.669l-0.01,0c-0.38,-0.556 -0.65,-1.23 -0.71,-1.985c-0.18,-2.26 1.54,-4.103 3.21,-4.245c0.07,-0.006 0.14,-0.009 0.21,-0.009c0.83,0 1.72,0.392 2.41,1.065c-0.42,0.306 -0.67,0.769 -0.63,1.265c0.07,0.768 0.81,1.342 1.7,1.342c0.05,0 0.11,-0.003 0.17,-0.007c0,0.001 0,0.002 0,0.004c0.09,1.106 -0.28,2.111 -0.88,2.865c-1.52,0.101 -3.07,0.293 -4.64,0.587Z" style="fill:url(#_Linear6);"/><path d="M180.62,140.468c-0.89,0 -1.63,-0.574 -1.7,-1.342c-0.04,-0.496 0.21,-0.959 0.63,-1.265c0.27,-0.2 0.61,-0.332 0.99,-0.363c0.04,-0.003 0.07,-0.005 0.1,-0.006c0.02,-0.001 0.05,-0.001 0.07,-0.001c0.89,0 1.63,0.574 1.69,1.346c0.04,0.496 -0.21,0.961 -0.63,1.267c-0.27,0.195 -0.61,0.325 -0.98,0.357c-0.06,0.004 -0.12,0.007 -0.17,0.007Z" style="fill:url(#_Linear7);"/><path d="M173.72,144.237c-0.1,-0.108 -0.16,-0.24 -0.17,-0.386c-0.02,-0.17 0.04,-0.333 0.14,-0.467c0.14,-0.189 0.38,-0.323 0.67,-0.345c0.02,-0.002 0.05,-0.003 0.07,-0.004l0.01,0c0.44,0 0.81,0.288 0.85,0.669c0,0.073 -0.01,0.144 -0.02,0.213c-0.52,0.096 -1.03,0.202 -1.55,0.32Z" style="fill:url(#_Linear8);"/><path d="M161.17,133.796c-0.38,0 -0.74,-0.104 -1.06,-0.298c2.23,-2.787 5.96,-4.482 9.75,-5.512c-1.04,0.542 -2.01,1.102 -2.82,1.704c-0.86,0.574 -1.6,1.115 -2.21,1.592c-1.36,1.053 -2.12,1.796 -2.22,1.898l-0.02,0.017c-0.38,0.386 -0.88,0.598 -1.42,0.599Z" style="fill:url(#_Linear9);"/><path d="M202.5,148.221c-0.04,-0.021 -0.09,-0.043 -0.13,-0.065c-0.08,-0.041 -0.16,-0.082 -0.25,-0.123c-0.01,-0.005 -0.02,-0.01 -0.03,-0.015c-0.06,-0.028 -0.11,-0.056 -0.17,-0.083c-0.01,-0.004 -0.01,-0.007 -0.02,-0.011c-0.95,-0.461 -1.93,-0.903 -2.94,-1.319c-0.13,-5.23 -1.81,-10.812 -4.05,-15.998c0,-0.009 0,-0.018 -0.01,-0.027c-0.13,-0.311 -0.27,-0.621 -0.41,-0.929c-0.36,-0.814 -0.74,-1.617 -1.13,-2.406c6.95,1.745 7.93,5.476 8.01,5.843c0.3,0.635 0.54,1.336 0.7,2.1c1,3.454 1.14,6.791 0.85,9.767c-0.08,1.042 -0.21,2.136 -0.42,3.266Z" style="fill:url(#_Linear10);"/><path d="M93.7,149.296c-0.15,-2.173 -0.22,-4.455 -0.22,-6.848c0,-0.768 0.04,-1.546 0.11,-2.328c0.22,-0.9 0.41,-1.812 0.67,-2.696c0.9,-3.213 1.92,-6.308 2.96,-9.25c1.08,-0.482 2.18,-0.825 3.2,-1.07c0.39,-0.087 0.79,-0.169 1.21,-0.243c-0.37,1.796 -0.67,3.64 -0.86,5.507c-0.52,4.91 0.09,9.435 1.1,13.254c-2.97,1.023 -5.7,2.299 -8.17,3.674Zm41.11,-1.293c-0.06,-0.033 -0.13,-0.066 -0.19,-0.099c-0.04,-0.02 -0.08,-0.039 -0.12,-0.059c-0.45,-0.224 -0.9,-0.437 -1.34,-0.643c0.02,-3.725 -0.07,-9.48 -0.67,-14.34c1.4,1.534 2.2,3.434 2.61,5.409l0,0.053c0,0 0.51,3.072 0.15,7.102l0,0.006c-0.12,0.965 -0.28,1.836 -0.44,2.571Z" style="fill:url(#_Linear11);"/><path d="M132.32,146.828c-1.79,-0.783 -3.55,-1.421 -5.29,-1.932c0.68,-1.207 1.07,-2.601 1.07,-4.087c0,-4.594 -3.72,-8.319 -8.3,-8.319c-4.58,0 -8.29,3.725 -8.29,8.319c0,0.911 0.15,1.788 0.41,2.609c-1.59,0.149 -3.14,0.389 -4.64,0.704c0.34,-3.774 0.98,-7.974 2.16,-12.08c3.77,-2.311 7.14,-3.136 10.05,-3.136c4.25,0 7.5,1.763 9.5,3.229c2.16,1.541 3.02,8.313 3.33,14.693Z" style="fill:url(#_Linear12);"/><path d="M133.16,147.202c-0.28,-0.128 -0.56,-0.254 -0.84,-0.374c-0.31,-6.38 -1.17,-13.152 -3.33,-14.693c-2,-1.466 -5.25,-3.229 -9.5,-3.229c-2.91,0 -6.28,0.825 -10.05,3.136c0.46,-1.615 1,-3.216 1.64,-4.771c0.12,-0.288 0.24,-0.575 0.37,-0.86c8.87,0.254 14.11,2.136 16.66,3.395c0.96,1.562 1.75,2.456 1.75,2.456c0,0 0,-0.498 0.07,-1.397c0.07,0.053 0.11,0.081 0.11,0.081c0.97,0.535 1.78,1.184 2.45,1.916c0.6,4.86 0.69,10.615 0.67,14.34Z" style="fill:url(#_Linear13);"/><path d="M127.03,144.896c-1.18,-0.346 -2.35,-0.633 -3.5,-0.865c0.39,-0.658 0.64,-1.419 0.71,-2.234c0.21,-2.666 -1.62,-5.087 -4.02,-5.285c-0.11,-0.009 -0.21,-0.013 -0.32,-0.013c-1.29,0 -2.5,0.651 -3.34,1.68c-0.03,-0.001 -0.05,-0.001 -0.08,-0.001c-0.88,0 -1.62,0.574 -1.69,1.346c-0.04,0.496 0.22,0.961 0.64,1.267c-0.01,0.089 -0.02,0.179 -0.03,0.27c-0.06,0.762 0.05,1.505 0.28,2.181c-0.01,0 -0.01,0 -0.02,0c-0.01,0 -0.02,0 -0.03,0c-1.25,0.001 -2.49,0.062 -3.71,0.176c-0.26,-0.821 -0.41,-1.698 -0.41,-2.609c0,-4.594 3.71,-8.319 8.29,-8.319c4.58,0 8.3,3.725 8.3,8.319c0,1.486 -0.39,2.88 -1.07,4.087Z" style="fill:url(#_Linear14);"/><path d="M123.53,144.031c-0.02,-0.005 -0.04,-0.01 -0.07,-0.014c-0.15,-0.16 -0.37,-0.271 -0.62,-0.291c-0.03,-0.002 -0.05,-0.003 -0.08,-0.004c0.39,-0.556 0.66,-1.23 0.72,-1.985c0.18,-2.261 -1.54,-4.103 -3.21,-4.245c-0.07,-0.006 -0.14,-0.009 -0.21,-0.009c-0.83,0 -1.72,0.392 -2.41,1.065c-0.27,-0.2 -0.62,-0.332 -1,-0.363c-0.03,-0.003 -0.06,-0.004 -0.09,-0.006c0.84,-1.029 2.05,-1.68 3.34,-1.68c0.11,0 0.21,0.004 0.32,0.013c2.4,0.198 4.23,2.619 4.02,5.285c-0.07,0.815 -0.32,1.576 -0.71,2.234Zm-6.72,-0.772c-0.38,-0.011 -0.75,-0.017 -1.13,-0.017c-0.23,-0.676 -0.34,-1.419 -0.28,-2.181c0.01,-0.091 0.02,-0.181 0.03,-0.27c0.27,0.195 0.61,0.325 0.98,0.357c0,0.001 0,0.003 0,0.004c-0.06,0.768 0.1,1.487 0.4,2.107Z" style="fill:url(#_Linear15);"/><path d="M122.35,143.81c-1.89,-0.322 -3.74,-0.499 -5.54,-0.551c-0.3,-0.62 -0.46,-1.339 -0.4,-2.107c0,-0.001 0,-0.003 0,-0.004c0.06,0.005 0.11,0.007 0.17,0.007c0.89,0 1.63,-0.573 1.69,-1.341c0.04,-0.497 -0.21,-0.96 -0.62,-1.266c0.69,-0.673 1.58,-1.065 2.41,-1.065c0.07,0 0.14,0.003 0.21,0.009c1.67,0.142 3.39,1.984 3.21,4.245c-0.06,0.755 -0.33,1.429 -0.72,1.985l-0.01,0c-0.14,0 -0.28,0.032 -0.4,0.088Z" style="fill:url(#_Linear16);"/><path d="M116.58,141.155c-0.06,0 -0.11,-0.002 -0.17,-0.007c-0.37,-0.032 -0.71,-0.162 -0.98,-0.357c-0.42,-0.306 -0.68,-0.771 -0.64,-1.267c0.07,-0.772 0.81,-1.346 1.69,-1.346c0.03,0 0.05,0 0.08,0.001c0.03,0.002 0.06,0.003 0.09,0.006c0.38,0.031 0.73,0.163 1,0.363c0.41,0.306 0.66,0.769 0.62,1.266c-0.06,0.768 -0.8,1.341 -1.69,1.341Z" style="fill:url(#_Linear17);"/><path d="M123.46,144.017c-0.37,-0.075 -0.74,-0.143 -1.11,-0.207c0.12,-0.056 0.26,-0.088 0.4,-0.088l0.01,0c0.03,0.001 0.05,0.002 0.08,0.004c0.25,0.02 0.47,0.131 0.62,0.291Z" style="fill:url(#_Linear18);"/><path d="M91.41,150.64c-0.49,-1.654 -0.92,-3.584 -1.13,-5.69c-0.35,-5.131 0.71,-8.932 0.71,-8.932c0.04,-0.3 0.09,-0.582 0.15,-0.859c0.2,-0.676 0.43,-1.353 0.69,-2.042l0.01,-0.029c1.15,-2.416 3.21,-3.945 5.38,-4.914c-1.04,2.942 -2.06,6.037 -2.96,9.25c-0.26,0.884 -0.45,1.796 -0.67,2.696c-0.07,0.782 -0.11,1.56 -0.11,2.328c0,2.393 0.07,4.675 0.22,6.848c-0.71,0.393 -1.4,0.795 -2.06,1.2c-0.01,0.008 -0.02,0.016 -0.04,0.024c-0.02,0.015 -0.05,0.031 -0.07,0.046c-0.04,0.025 -0.08,0.049 -0.12,0.074Zm10.46,-5.018c-1.01,-3.819 -1.62,-8.344 -1.1,-13.254c0.19,-1.867 0.49,-3.711 0.86,-5.507c0.61,-0.106 1.24,-0.199 1.92,-0.275l0.1,-0.006c0.92,-0.082 1.48,-0.082 1.48,-0.082c1.53,-0.079 2.98,-0.116 4.35,-0.116c0.27,0 0.54,0.001 0.8,0.004c0.1,0.006 0.19,0.006 0.27,0.012l0.33,0c0.19,0.003 0.38,0.008 0.57,0.013c-0.13,0.285 -0.25,0.572 -0.37,0.86c-0.64,1.555 -1.18,3.156 -1.64,4.771c-1.18,4.106 -1.82,8.306 -2.16,12.08c-1.88,0.394 -3.68,0.904 -5.41,1.5Zm27.99,-13.36c0,0 -0.79,-0.894 -1.75,-2.456c1.01,0.496 1.59,0.895 1.82,1.059c-0.07,0.899 -0.07,1.397 -0.07,1.397Z" style="fill:url(#_Linear19);"/><path d="M182.1,165.021c-4.08,0 -7.78,-0.803 -10.06,-1.437c-0.12,-0.03 -0.84,-0.188 -1.89,-0.583c-0.31,-0.106 -0.48,-0.17 -0.48,-0.17c-6.39,-2.472 -9.41,-7.437 -10.77,-12.256c0.04,-0.028 0.08,-0.055 0.13,-0.083c1.69,-1.069 3.37,-2.003 5.02,-2.812c0.02,1.682 0.06,2.727 0.06,2.727c0,0 0,0.001 0.01,0.003c0,0.04 0,0.06 0,0.06c0,0 5.83,2.092 12.47,2.092c1.66,0 3.39,-0.132 5.08,-0.463c3.31,-0.648 6.08,-4.159 8.22,-8.183c3.23,0.593 6.27,1.54 9.07,2.69c0,0.213 0.01,0.425 0.01,0.637c0,3.881 -0.21,7.472 -0.55,10.779c-0.26,0.368 -0.54,0.733 -0.83,1.096c-0.85,1.083 -1.89,2.007 -3.08,2.707c-0.87,0.518 -2.05,1.112 -3.53,1.641c-2.9,1.152 -5.99,1.555 -8.88,1.555Z" style="fill:#bcd0bb;fill-rule:nonzero;"/><path d="M176.59,152.562c-6.64,0 -12.47,-2.092 -12.47,-2.092c0,0 0,-0.02 0,-0.06c0.04,0.014 0.24,0.076 0.62,0.234c0.01,-1.064 0.04,-2.186 0.09,-3.334c1.99,-0.929 3.95,-1.678 5.87,-2.27c1.51,2.063 3.95,3.402 6.69,3.402c3.45,0 6.41,-2.115 7.66,-5.122c1.66,0.104 3.27,0.308 4.84,0.596c-2.14,4.024 -4.91,7.535 -8.22,8.183c-1.69,0.331 -3.42,0.463 -5.08,0.463Z" style="fill:#bee4de;fill-rule:nonzero;"/><path d="M164.74,150.644c-0.38,-0.158 -0.58,-0.22 -0.62,-0.234c-0.01,-0.002 -0.01,-0.003 -0.01,-0.003c0,0 -0.04,-1.045 -0.06,-2.727c0.26,-0.126 0.52,-0.25 0.78,-0.37c-0.05,1.148 -0.08,2.27 -0.09,3.334Z" style="fill:#b0c3af;fill-rule:nonzero;"/><path d="M177.39,148.442c-2.74,0 -5.18,-1.339 -6.69,-3.402c1.02,-0.31 2.02,-0.577 3.02,-0.803c0.15,0.174 0.4,0.284 0.67,0.284c0.03,0 0.06,-0.002 0.09,-0.004c0.04,-0.003 0.08,-0.009 0.11,-0.017c0.8,0.733 1.81,1.176 2.87,1.176c0.11,0 0.21,-0.004 0.32,-0.013c1.46,-0.121 2.71,-1.071 3.42,-2.398c0.44,-0.016 0.89,-0.023 1.32,-0.024l0.05,0c0.84,0.001 1.67,0.028 2.48,0.079c-1.25,3.007 -4.21,5.122 -7.66,5.122Z" style="fill:#717363;fill-rule:nonzero;"/><path d="M177.46,145.676c-1.06,0 -2.07,-0.443 -2.87,-1.176c0.34,-0.067 0.6,-0.298 0.68,-0.579c0.63,0.503 1.38,0.788 2.09,0.788c0.07,0 0.14,-0.002 0.21,-0.008c0.85,-0.073 1.72,-0.586 2.34,-1.371c0.43,-0.029 0.86,-0.051 1.29,-0.065c-0.71,1.327 -1.96,2.277 -3.42,2.398c-0.11,0.009 -0.21,0.013 -0.32,0.013Z" style="fill:#8d836b;fill-rule:nonzero;"/><path d="M177.36,144.709c-0.71,0 -1.46,-0.285 -2.09,-0.788c0,-0.001 0,-0.003 0,-0.004c1.57,-0.293 3.12,-0.486 4.64,-0.587c-0.62,0.785 -1.49,1.298 -2.34,1.371c-0.07,0.006 -0.14,0.008 -0.21,0.008Z" style="fill:#596d63;fill-rule:nonzero;"/><path d="M174.39,144.521c-0.27,0 -0.52,-0.11 -0.67,-0.284c0.52,-0.118 1.03,-0.224 1.55,-0.32c0,0.001 0,0.003 0,0.004c-0.08,0.281 -0.34,0.512 -0.68,0.579c-0.03,0.008 -0.07,0.014 -0.11,0.017c-0.03,0.002 -0.06,0.004 -0.09,0.004Z" style="fill:#bee4de;fill-rule:nonzero;"/><path d="M198.42,158.022c0.34,-3.307 0.55,-6.898 0.55,-10.779c0,-0.212 -0.01,-0.424 -0.01,-0.637c1.01,0.415 1.99,0.857 2.94,1.318c0.01,0.004 0.01,0.007 0.02,0.011c0.06,0.027 0.11,0.055 0.17,0.083c0.01,0.005 0.02,0.01 0.03,0.015c0.09,0.041 0.17,0.082 0.25,0.123c0.04,0.022 0.09,0.044 0.13,0.065c-0.49,2.63 -1.41,5.443 -3.03,8.173c-0.12,0.218 -0.19,0.329 -0.19,0.329l-0.11,0.177c-0.24,0.376 -0.49,0.75 -0.75,1.122Z" style="fill:#b9ded9;fill-rule:nonzero;"/><path d="M198.96,146.606c-2.8,-1.15 -5.84,-2.097 -9.07,-2.69l0,-0.001c3.23,0.593 6.27,1.541 9.07,2.69l0,0.001Z" style="fill:url(#_Linear20);"/><path d="M189.89,143.916c-1.57,-0.288 -3.18,-0.492 -4.84,-0.596c1.66,0.104 3.27,0.308 4.84,0.595l0,0.001Z" style="fill:url(#_Linear21);"/><path d="M185.05,143.32c-0.81,-0.051 -1.64,-0.078 -2.48,-0.079c0.84,0.001 1.67,0.028 2.48,0.079Z" style="fill:url(#_Linear22);"/><path d="M201.9,147.924c-0.95,-0.461 -1.93,-0.903 -2.94,-1.318l0,-0.001c1.01,0.416 1.99,0.858 2.94,1.319Z" style="fill:url(#_Linear23);"/><clipPath id="_clip24"><path d="M182.52,143.241c0.01,0 0.02,0 0.03,0c-0.01,0 -0.02,0 -0.03,0Z"/></clipPath><g clip-path="url(#_clip24)"><path d="M182.52,143.241l0.03,0l-0.03,0Z" style="fill:url(#_Linear25);fill-rule:nonzero;"/></g><path d="M94.76,157.889c-0.06,-0.07 -0.11,-0.14 -0.17,-0.211c-0.14,-0.924 -0.27,-1.874 -0.38,-2.849c0.19,0.872 0.37,1.908 0.55,3.06Z" style="fill:#b0bea8;fill-rule:nonzero;"/><path d="M111.35,164.988c-3.8,0 -6.86,-0.695 -9.18,-1.54l-0.02,-0.005c-2.72,-1.092 -5.29,-2.85 -7.39,-5.554c-0.18,-1.152 -0.36,-2.188 -0.55,-3.06c-0.22,-1.76 -0.39,-3.603 -0.51,-5.533c2.47,-1.375 5.2,-2.651 8.17,-3.674c1.91,7.208 5.28,11.896 5.28,11.896c0,0 -0.53,-5.662 0.1,-13.033c2.15,4.073 4.94,7.647 8.28,8.301c1.69,0.331 3.41,0.463 5.08,0.463c6.64,0 12.46,-2.092 12.46,-2.092c0,0 0.01,-0.02 0.01,-0.059c0,-0.002 0.01,-0.003 0.01,-0.003c0,0 0.05,-1.542 0.07,-3.893c0.44,0.206 0.89,0.419 1.34,0.643c0.04,0.02 0.08,0.039 0.12,0.059c0.06,0.033 0.13,0.066 0.19,0.099c-0.19,0.93 -0.38,1.63 -0.5,2.013c-0.06,0.206 -0.1,0.318 -0.1,0.318c-1.94,8.184 -8.02,11.485 -11.16,12.667l-0.01,0.006c-0.4,0.135 -1.04,0.341 -1.85,0.571l-0.03,0.006l-0.02,0.006c-3.68,1.008 -6.94,1.398 -9.79,1.398Z" style="fill:#b5c7b1;fill-rule:nonzero;"/><path d="M120.61,153.249c-1.67,0 -3.39,-0.132 -5.08,-0.463c-3.34,-0.654 -6.13,-4.228 -8.28,-8.301c0.01,-0.121 0.02,-0.241 0.03,-0.362c1.5,-0.316 3.05,-0.556 4.64,-0.705c1.1,3.316 4.21,5.711 7.88,5.711c3.1,0 5.8,-1.706 7.23,-4.233c1.74,0.511 3.5,1.149 5.29,1.932c0.08,1.551 0.12,3.08 0.14,4.504c0.38,-0.159 0.58,-0.222 0.62,-0.234c0,0.039 -0.01,0.059 -0.01,0.059c0,0 -5.82,2.092 -12.46,2.092Z" style="fill:#bee4de;fill-rule:nonzero;"/><path d="M132.46,151.332c-0.02,-1.424 -0.06,-2.953 -0.14,-4.504c0.28,0.121 0.56,0.246 0.84,0.374c-0.02,2.351 -0.07,3.893 -0.07,3.893c0,0 -0.01,0.001 -0.01,0.003c-0.04,0.012 -0.24,0.075 -0.62,0.234Z" style="fill:#b0c3af;fill-rule:nonzero;"/><path d="M119.8,149.129c-3.67,0 -6.78,-2.395 -7.88,-5.711c1.22,-0.114 2.46,-0.175 3.71,-0.176l0.05,0c0.6,1.69 2.03,2.966 3.74,3.108c0.1,0.009 0.21,0.013 0.32,0.013c1.06,0 2.07,-0.443 2.86,-1.176c0.04,0.008 0.08,0.014 0.12,0.017c0.03,0.002 0.06,0.004 0.09,0.004c0.44,0 0.81,-0.288 0.84,-0.669c0.02,-0.17 -0.04,-0.333 -0.14,-0.467c0.01,-0.014 0.02,-0.027 0.02,-0.041c1.15,0.232 2.32,0.52 3.5,0.865c-1.43,2.527 -4.13,4.233 -7.23,4.233Z" style="fill:#717363;fill-rule:nonzero;"/><path d="M119.74,146.363c-0.11,0 -0.22,-0.004 -0.32,-0.013c-1.71,-0.142 -3.14,-1.418 -3.74,-3.108c0.38,0 0.75,0.006 1.13,0.017c0.59,1.204 1.71,2.036 2.81,2.129c0.07,0.006 0.14,0.009 0.22,0.009c0.7,0 1.45,-0.286 2.09,-0.788c0.08,0.28 0.34,0.511 0.67,0.578c-0.79,0.733 -1.8,1.176 -2.86,1.176Zm3.77,-2.291c-0.02,-0.019 -0.03,-0.037 -0.05,-0.055c0.03,0.005 0.05,0.009 0.07,0.014c0,0.014 -0.01,0.027 -0.02,0.041Z" style="fill:#8d836b;fill-rule:nonzero;"/><path d="M119.84,145.397c-0.08,0 -0.15,-0.003 -0.22,-0.009c-1.1,-0.093 -2.22,-0.925 -2.81,-2.129c1.8,0.052 3.65,0.229 5.54,0.552c-0.24,0.113 -0.42,0.327 -0.44,0.581c-0.01,0.074 0,0.147 0.02,0.217c-0.64,0.502 -1.39,0.788 -2.09,0.788Z" style="fill:#596d63;fill-rule:nonzero;"/><path d="M122.81,145.208c-0.03,0 -0.06,-0.002 -0.09,-0.004c-0.04,-0.003 -0.08,-0.009 -0.12,-0.017c-0.33,-0.067 -0.59,-0.298 -0.67,-0.578c-0.02,-0.07 -0.03,-0.143 -0.02,-0.217c0.02,-0.254 0.2,-0.468 0.44,-0.581c0.37,0.063 0.74,0.132 1.11,0.206c0.02,0.018 0.03,0.036 0.05,0.055c0.1,0.134 0.16,0.297 0.14,0.467c-0.03,0.381 -0.4,0.669 -0.84,0.669Z" style="fill:#bee4de;fill-rule:nonzero;"/><path d="M94.59,157.678c-0.18,-0.248 -0.37,-0.503 -0.55,-0.766c-0.1,-0.165 -0.2,-0.336 -0.3,-0.506c-0.37,-0.677 -1.26,-2.419 -2.06,-4.867c-0.09,-0.288 -0.18,-0.588 -0.27,-0.899c0.04,-0.025 0.08,-0.049 0.12,-0.074c0.02,-0.015 0.05,-0.031 0.07,-0.046c0.02,-0.008 0.03,-0.016 0.04,-0.024c0.66,-0.405 1.35,-0.807 2.06,-1.2c0.12,1.93 0.29,3.773 0.51,5.533c0.11,0.975 0.24,1.925 0.38,2.849Zm12.56,-0.16c0,0 -3.37,-4.688 -5.28,-11.896c1.73,-0.596 3.53,-1.106 5.41,-1.499c-0.01,0.121 -0.02,0.241 -0.03,0.362c-0.63,7.371 -0.1,13.033 -0.1,13.033Z" style="fill:#b9ded9;fill-rule:nonzero;"/><path d="M134.81,148.003c-0.06,-0.033 -0.13,-0.066 -0.19,-0.099c0.06,0.033 0.13,0.066 0.19,0.099Zm-0.31,-0.158c-0.45,-0.224 -0.9,-0.437 -1.34,-0.643c0.44,0.206 0.89,0.419 1.34,0.643Z" style="fill:url(#_Linear26);"/><path d="M132.32,146.828c-1.79,-0.783 -3.55,-1.421 -5.29,-1.932c1.74,0.511 3.5,1.149 5.29,1.932Z" style="fill:url(#_Linear27);"/><path d="M133.16,147.202c-0.28,-0.128 -0.56,-0.253 -0.84,-0.374c0.28,0.12 0.56,0.246 0.84,0.374Z" style="fill:url(#_Linear28);"/><path d="M127.03,144.896c-1.18,-0.345 -2.35,-0.633 -3.5,-0.865c1.15,0.232 2.32,0.519 3.5,0.865Z" style="fill:url(#_Linear29);"/><path d="M123.53,144.031c-0.02,-0.005 -0.04,-0.009 -0.07,-0.014c0.03,0.004 0.05,0.009 0.07,0.014Zm-6.72,-0.772c-0.38,-0.011 -0.75,-0.017 -1.13,-0.017c0.38,0 0.75,0.006 1.13,0.017Z" style="fill:url(#_Linear30);"/><path d="M122.35,143.811c-1.89,-0.323 -3.74,-0.5 -5.54,-0.552c1.8,0.052 3.65,0.229 5.54,0.551l0,0.001Z" style="fill:url(#_Linear31);"/><path d="M123.46,144.017c-0.37,-0.074 -0.74,-0.143 -1.11,-0.206l0,-0.001c0.37,0.064 0.74,0.132 1.11,0.207Z" style="fill:url(#_Linear32);"/><path d="M202.92,144.957c-0.08,1.208 -0.25,2.492 -0.53,3.814c-0.03,0.126 -0.05,0.252 -0.08,0.379c-0.09,0.414 -0.2,0.832 -0.31,1.253c-0.03,0.095 -0.06,0.19 -0.08,0.285c-0.11,0.371 -0.23,0.744 -0.35,1.119l-0.09,0.248c-0.15,0.451 -0.33,0.903 -0.52,1.356l-0.06,0.138c-0.16,0.398 -0.35,0.796 -0.54,1.194c-0.06,0.108 -0.11,0.217 -0.17,0.326c-0.21,0.421 -0.44,0.842 -0.68,1.26l-0.04,0.065c-0.12,0.218 -0.19,0.329 -0.19,0.329l-0.09,0.145l-0.02,0.03c-0.08,0.116 -0.16,0.23 -0.23,0.345c-0.41,0.63 -0.85,1.258 -1.35,1.875c-0.21,0.271 -0.44,0.532 -0.67,0.782c-0.71,0.747 -1.52,1.398 -2.41,1.924c-0.71,0.421 -1.64,0.891 -2.75,1.34c-0.25,0.102 -0.5,0.204 -0.78,0.302c-2.09,0.828 -4.27,1.263 -6.4,1.446c-5.03,0.428 -9.8,-0.57 -12.54,-1.33c-0.03,-0.007 -0.13,-0.029 -0.27,-0.065c-0.18,-0.046 -0.45,-0.12 -0.78,-0.225c-0.25,-0.079 -0.53,-0.174 -0.84,-0.292c-0.31,-0.106 -0.48,-0.171 -0.48,-0.171l-0.12,-0.05c-0.3,-0.12 -0.6,-0.245 -0.89,-0.376c-0.1,-0.048 -0.21,-0.097 -0.31,-0.146c-0.27,-0.129 -0.54,-0.262 -0.79,-0.4l-0.17,-0.085c-0.3,-0.166 -0.59,-0.341 -0.87,-0.519l-0.23,-0.149c-0.24,-0.155 -0.47,-0.313 -0.69,-0.475l-0.16,-0.111c-0.26,-0.197 -0.52,-0.4 -0.77,-0.608l-0.16,-0.14c-0.21,-0.179 -0.41,-0.361 -0.6,-0.547l-0.14,-0.133c-0.23,-0.223 -0.45,-0.451 -0.67,-0.684l-0.09,-0.109c-0.19,-0.207 -0.37,-0.417 -0.54,-0.63l-0.12,-0.143c-0.19,-0.248 -0.38,-0.499 -0.56,-0.754l-0.03,-0.033c-0.17,-0.247 -0.34,-0.498 -0.49,-0.751l-0.08,-0.127c-0.34,-0.541 -0.64,-1.094 -0.92,-1.654l-0.03,-0.063c-0.56,-1.171 -1.01,-2.374 -1.34,-3.567l-0.01,0.002c-0.51,-1.802 -0.79,-3.583 -0.94,-5.205c-0.26,-2.12 -0.34,-4.661 0.16,-7.089c1.36,-11.464 21.35,-11.885 24.2,-11.887c0.23,-0.004 0.46,-0.008 0.7,-0.01c2.51,-0.092 4.68,-0.012 6.55,0.192c0.85,0.078 2,0.232 3.26,0.535c7.44,1.686 8.46,5.597 8.55,5.976c0.3,0.637 0.54,1.335 0.7,2.1c1.01,3.454 1.14,6.792 0.85,9.768Zm-67.67,0.469l0,0.003c-0.28,2.178 -0.74,3.901 -0.94,4.586l-0.04,0.142c-0.04,0.115 -0.06,0.176 -0.06,0.176c-1.94,8.185 -8.02,11.486 -11.16,12.668l-0.01,0.006c-0.27,0.09 -0.64,0.213 -1.1,0.351c-0.23,0.07 -0.48,0.142 -0.75,0.219l-0.03,0.006l0,0.001l-0.02,0.003c-2.53,0.696 -4.87,1.092 -7.01,1.275c-5.11,0.434 -9.1,-0.373 -11.96,-1.413l-0.01,-0.003l-0.01,-0.004c-1.12,-0.449 -2.21,-1.011 -3.25,-1.702c-1.8,-1.189 -3.45,-2.765 -4.86,-4.828l-0.13,-0.218c-0.06,-0.095 -0.11,-0.191 -0.17,-0.286c-0.23,-0.429 -0.67,-1.279 -1.17,-2.46c-0.28,-0.694 -0.59,-1.502 -0.88,-2.408c-0.1,-0.289 -0.19,-0.589 -0.28,-0.901l0,0.002c-0.49,-1.658 -0.92,-3.583 -1.13,-5.694c-0.36,-5.128 0.71,-8.931 0.71,-8.931c0.04,-0.295 0.09,-0.58 0.15,-0.857c0.2,-0.676 0.42,-1.356 0.69,-2.039l0.01,-0.034c1.72,-3.614 5.5,-5.245 8.58,-5.982c0.94,-0.212 1.98,-0.388 3.13,-0.516l0.1,-0.01c0.91,-0.082 1.48,-0.079 1.48,-0.079c1.84,-0.097 3.55,-0.131 5.16,-0.112c0.09,0.004 0.18,0.007 0.27,0.011c0,0 0.11,-0.002 0.31,-0.002l0.01,0c13.91,0.283 19.15,4.55 19.15,4.55c3.01,1.655 4.46,4.407 5.07,7.326l0,0.051c0,0 0.51,3.07 0.15,7.103Zm76.99,-17.082c-0.18,-1.152 -1,-2.101 -2.13,-2.415c-23.25,-6.498 -41.36,-2.69 -41.36,-2.69c-9.7,1.69 -13.88,7.293 -13.88,7.293c-2.75,2.935 -8.27,1.69 -8.27,1.69c0,0 -5.51,1.245 -8.27,-1.69c0,0 -4.18,-5.603 -13.87,-7.293c0,0 -18.11,-3.809 -41.37,2.689c-1.12,0.315 -1.95,1.263 -2.13,2.416c-0.37,2.442 -0.7,6.487 1.07,7.524c0,0 3.56,0.712 3.56,5.693c0,0 2.76,16.364 6.05,19.922c0,0 4.44,8.182 19.48,7.738c0,0 20.55,0.861 24.55,-10.495c0.52,-1.501 1.27,-3.237 1.86,-4.714l3.43,-9.867c0.36,-1.042 1.01,-1.974 1.9,-2.627c0.86,-0.63 2.07,-1.137 3.74,-1.025c1.67,-0.111 2.89,0.395 3.75,1.024c0.89,0.654 1.53,1.585 1.9,2.628l3.42,9.867c0.6,1.477 1.34,3.212 1.87,4.714c3.99,11.356 24.55,10.495 24.55,10.495c15.03,0.444 19.48,-7.738 19.48,-7.738c3.29,-3.558 6.05,-19.923 6.05,-19.923c0,-4.98 3.55,-5.692 3.55,-5.692c1.77,-1.036 1.45,-5.082 1.07,-7.524Z" style="fill:#c92026;fill-rule:nonzero;"/><path d="M157.56,252.762l0,47.3l-16.81,0l0,-47.403c2.62,1.996 5.48,3.292 8.48,3.292c2.96,0 5.78,-1.255 8.33,-3.189Z" style="fill:#346869;fill-rule:nonzero;"/></g><defs><linearGradient id="_Linear1" x1="0" y1="0" x2="1" y2="0" gradientUnits="userSpaceOnUse" gradientTransform="matrix(0.29423,55.3083,-55.3083,0.29423,180.27,118.073)"><stop offset="0" style="stop-color:#f8e7d5;stop-opacity:1"/><stop offset="1" style="stop-color:#a9c9ad;stop-opacity:1"/></linearGradient><linearGradient id="_Linear2" x1="0" y1="0" x2="1" y2="0" gradientUnits="userSpaceOnUse" gradientTransform="matrix(0.29423,55.3083,-55.3083,0.29423,180.27,118.073)"><stop offset="0" style="stop-color:#fff;stop-opacity:1"/><stop offset="1" style="stop-color:#acdcd0;stop-opacity:1"/></linearGradient><linearGradient id="_Linear3" x1="0" y1="0" x2="1" y2="0" gradientUnits="userSpaceOnUse" gradientTransform="matrix(0.29423,55.3083,-55.3083,0.29423,180.27,118.073)"><stop offset="0" style="stop-color:#e9d8c9;stop-opacity:1"/><stop offset="1" style="stop-color:#9fbda3;stop-opacity:1"/></linearGradient><linearGradient id="_Linear4" x1="0" y1="0" x2="1" y2="0" gradientUnits="userSpaceOnUse" gradientTransform="matrix(0.29423,55.3083,-55.3083,0.29423,180.27,118.073)"><stop offset="0" style="stop-color:#987e73;stop-opacity:1"/><stop offset="1" style="stop-color:#65705c;stop-opacity:1"/></linearGradient><linearGradient id="_Linear5" x1="0" y1="0" x2="1" y2="0" gradientUnits="userSpaceOnUse" gradientTransform="matrix(0.29423,55.3083,-55.3083,0.29423,180.27,118.073)"><stop offset="0" style="stop-color:#b88f7c;stop-opacity:1"/><stop offset="1" style="stop-color:#808062;stop-opacity:1"/></linearGradient><linearGradient id="_Linear6" x1="0" y1="0" x2="1" y2="0" gradientUnits="userSpaceOnUse" gradientTransform="matrix(0.29423,55.3083,-55.3083,0.29423,180.27,118.073)"><stop offset="0" style="stop-color:#807872;stop-opacity:1"/><stop offset="1" style="stop-color:#4c6a5c;stop-opacity:1"/></linearGradient><linearGradient id="_Linear7" x1="0" y1="0" x2="1" y2="0" gradientUnits="userSpaceOnUse" gradientTransform="matrix(0.29423,55.3083,-55.3083,0.29423,180.27,118.073)"><stop offset="0" style="stop-color:#fff;stop-opacity:1"/><stop offset="1" style="stop-color:#acdcd0;stop-opacity:1"/></linearGradient><linearGradient id="_Linear8" x1="0" y1="0" x2="1" y2="0" gradientUnits="userSpaceOnUse" gradientTransform="matrix(0.29423,55.3083,-55.3083,0.29423,180.27,118.073)"><stop offset="0" style="stop-color:#fff;stop-opacity:1"/><stop offset="1" style="stop-color:#acdcd0;stop-opacity:1"/></linearGradient><linearGradient id="_Linear9" x1="0" y1="0" x2="1" y2="0" gradientUnits="userSpaceOnUse" gradientTransform="matrix(0.29423,55.3083,-55.3083,0.29423,180.27,118.073)"><stop offset="0" style="stop-color:#716e6e;stop-opacity:1"/><stop offset="1" style="stop-color:#3e6259;stop-opacity:1"/></linearGradient><linearGradient id="_Linear10" x1="0" y1="0" x2="1" y2="0" gradientUnits="userSpaceOnUse" gradientTransform="matrix(0.29423,55.3083,-55.3083,0.29423,180.27,118.073)"><stop offset="0" style="stop-color:#f8f8f8;stop-opacity:1"/><stop offset="1" style="stop-color:#a6d7cb;stop-opacity:1"/></linearGradient><linearGradient id="_Linear11" x1="0" y1="0" x2="1" y2="0" gradientUnits="userSpaceOnUse" gradientTransform="matrix(0.29423,55.3083,-55.3083,0.29423,112.67,118.433)"><stop offset="0" style="stop-color:#efddcb;stop-opacity:1"/><stop offset="1" style="stop-color:#a4c1a5;stop-opacity:1"/></linearGradient><linearGradient id="_Linear12" x1="0" y1="0" x2="1" y2="0" gradientUnits="userSpaceOnUse" gradientTransform="matrix(0.29423,55.3083,-55.3083,0.29423,112.67,118.433)"><stop offset="0" style="stop-color:#fff;stop-opacity:1"/><stop offset="1" style="stop-color:#acdcd0;stop-opacity:1"/></linearGradient><linearGradient id="_Linear13" x1="0" y1="0" x2="1" y2="0" gradientUnits="userSpaceOnUse" gradientTransform="matrix(0.29423,55.3083,-55.3083,0.29423,112.67,118.433)"><stop offset="0" style="stop-color:#e9d8c9;stop-opacity:1"/><stop offset="1" style="stop-color:#9fbda3;stop-opacity:1"/></linearGradient><linearGradient id="_Linear14" x1="0" y1="0" x2="1" y2="0" gradientUnits="userSpaceOnUse" gradientTransform="matrix(0.29423,55.3083,-55.3083,0.29423,112.67,118.433)"><stop offset="0" style="stop-color:#987e73;stop-opacity:1"/><stop offset="1" style="stop-color:#65705c;stop-opacity:1"/></linearGradient><linearGradient id="_Linear15" x1="0" y1="0" x2="1" y2="0" gradientUnits="userSpaceOnUse" gradientTransform="matrix(0.29423,55.3083,-55.3083,0.29423,112.67,118.433)"><stop offset="0" style="stop-color:#b88f7c;stop-opacity:1"/><stop offset="1" style="stop-color:#808062;stop-opacity:1"/></linearGradient><linearGradient id="_Linear16" x1="0" y1="0" x2="1" y2="0" gradientUnits="userSpaceOnUse" gradientTransform="matrix(0.29423,55.3083,-55.3083,0.29423,112.67,118.433)"><stop offset="0" style="stop-color:#807872;stop-opacity:1"/><stop offset="1" style="stop-color:#4c6a5c;stop-opacity:1"/></linearGradient><linearGradient id="_Linear17" x1="0" y1="0" x2="1" y2="0" gradientUnits="userSpaceOnUse" gradientTransform="matrix(0.29423,55.3083,-55.3083,0.29423,112.67,118.433)"><stop offset="0" style="stop-color:#fff;stop-opacity:1"/><stop offset="1" style="stop-color:#acdcd0;stop-opacity:1"/></linearGradient><linearGradient id="_Linear18" x1="0" y1="0" x2="1" y2="0" gradientUnits="userSpaceOnUse" gradientTransform="matrix(0.29423,55.3083,-55.3083,0.29423,112.67,118.433)"><stop offset="0" style="stop-color:#fff;stop-opacity:1"/><stop offset="1" style="stop-color:#acdcd0;stop-opacity:1"/></linearGradient><linearGradient id="_Linear19" x1="0" y1="0" x2="1" y2="0" gradientUnits="userSpaceOnUse" gradientTransform="matrix(0.29423,55.3083,-55.3083,0.29423,112.67,118.433)"><stop offset="0" style="stop-color:#f8f8f8;stop-opacity:1"/><stop offset="1" style="stop-color:#a6d7cb;stop-opacity:1"/></linearGradient><linearGradient id="_Linear20" x1="0" y1="0" x2="1" y2="0" gradientUnits="userSpaceOnUse" gradientTransform="matrix(0.29423,55.3083,-55.3083,0.29423,180.27,118.073)"><stop offset="0" style="stop-color:#bddacd;stop-opacity:1"/><stop offset="1" style="stop-color:#98ccbb;stop-opacity:1"/></linearGradient><linearGradient id="_Linear21" x1="0" y1="0" x2="1" y2="0" gradientUnits="userSpaceOnUse" gradientTransform="matrix(0.29423,55.3083,-55.3083,0.29423,180.27,118.073)"><stop offset="0" style="stop-color:#bee4de;stop-opacity:1"/><stop offset="1" style="stop-color:#99d5cb;stop-opacity:1"/></linearGradient><linearGradient id="_Linear22" x1="0" y1="0" x2="1" y2="0" gradientUnits="userSpaceOnUse" gradientTransform="matrix(0.29423,55.3083,-55.3083,0.29423,180.27,118.073)"><stop offset="0" style="stop-color:#97a89c;stop-opacity:1"/><stop offset="1" style="stop-color:#799e8e;stop-opacity:1"/></linearGradient><linearGradient id="_Linear23" x1="0" y1="0" x2="1" y2="0" gradientUnits="userSpaceOnUse" gradientTransform="matrix(0.29423,55.3083,-55.3083,0.29423,180.27,118.073)"><stop offset="0" style="stop-color:#bbe1db;stop-opacity:1"/><stop offset="1" style="stop-color:#96d3c8;stop-opacity:1"/></linearGradient><linearGradient id="_Linear25" x1="0" y1="0" x2="1" y2="0" gradientUnits="userSpaceOnUse" gradientTransform="matrix(0.29423,55.3083,-55.3083,0.29423,180.27,118.073)"><stop offset="0" style="stop-color:#97a89c;stop-opacity:1"/><stop offset="1" style="stop-color:#799e8e;stop-opacity:1"/></linearGradient><linearGradient id="_Linear26" x1="0" y1="0" x2="1" y2="0" gradientUnits="userSpaceOnUse" gradientTransform="matrix(0.29423,55.3083,-55.3083,0.29423,112.67,118.433)"><stop offset="0" style="stop-color:#bad5c9;stop-opacity:1"/><stop offset="1" style="stop-color:#96c8b7;stop-opacity:1"/></linearGradient><linearGradient id="_Linear27" x1="0" y1="0" x2="1" y2="0" gradientUnits="userSpaceOnUse" gradientTransform="matrix(0.29423,55.3083,-55.3083,0.29423,112.67,118.433)"><stop offset="0" style="stop-color:#bee4de;stop-opacity:1"/><stop offset="1" style="stop-color:#99d5cb;stop-opacity:1"/></linearGradient><linearGradient id="_Linear28" x1="0" y1="0" x2="1" y2="0" gradientUnits="userSpaceOnUse" gradientTransform="matrix(0.29423,55.3083,-55.3083,0.29423,112.67,118.433)"><stop offset="0" style="stop-color:#b9d3c7;stop-opacity:1"/><stop offset="1" style="stop-color:#94c6b5;stop-opacity:1"/></linearGradient><linearGradient id="_Linear29" x1="0" y1="0" x2="1" y2="0" gradientUnits="userSpaceOnUse" gradientTransform="matrix(0.29423,55.3083,-55.3083,0.29423,112.67,118.433)"><stop offset="0" style="stop-color:#97a89c;stop-opacity:1"/><stop offset="1" style="stop-color:#799e8e;stop-opacity:1"/></linearGradient><linearGradient id="_Linear30" x1="0" y1="0" x2="1" y2="0" gradientUnits="userSpaceOnUse" gradientTransform="matrix(0.29423,55.3083,-55.3083,0.29423,112.67,118.433)"><stop offset="0" style="stop-color:#a6b2a1;stop-opacity:1"/><stop offset="1" style="stop-color:#86a792;stop-opacity:1"/></linearGradient><linearGradient id="_Linear31" x1="0" y1="0" x2="1" y2="0" gradientUnits="userSpaceOnUse" gradientTransform="matrix(0.29423,55.3083,-55.3083,0.29423,112.67,118.433)"><stop offset="0" style="stop-color:#8aa49d;stop-opacity:1"/><stop offset="1" style="stop-color:#6b9b8e;stop-opacity:1"/></linearGradient><linearGradient id="_Linear32" x1="0" y1="0" x2="1" y2="0" gradientUnits="userSpaceOnUse" gradientTransform="matrix(0.29423,55.3083,-55.3083,0.29423,112.67,118.433)"><stop offset="0" style="stop-color:#bee4de;stop-opacity:1"/><stop offset="1" style="stop-color:#99d5cb;stop-opacity:1"/></linearGradient></defs></svg>