<?xml version="1.0" encoding="UTF-8" standalone="no"?><!DOCTYPE svg PUBLIC "-//W3C//DTD SVG 1.1//EN" "http://www.w3.org/Graphics/SVG/1.1/DTD/svg11.dtd"><svg width="100%" height="100%" viewBox="0 0 297 301" version="1.1" xmlns="http://www.w3.org/2000/svg" xmlns:xlink="http://www.w3.org/1999/xlink" xml:space="preserve" style="fill-rule:evenodd;clip-rule:evenodd;stroke-linejoin:round;stroke-miterlimit:1.41421;"><g id="_44"><rect x="0.076" y="0.365" width="296.866" height="299.705" style="fill:#a58277;fill-rule:nonzero;"/><path d="M149.473,186.994l0,112.271l-60.728,0c-0.989,-0.395 -1.482,-0.594 -1.482,-0.594c0,-14.332 2.102,-25.505 5.305,-34.219c7.73,-21.03 21.882,-27.709 28.396,-29.723c2.137,-0.661 3.455,-0.82 3.455,-0.82c0.231,0 0.446,-0.021 0.666,-0.057c1.912,-0.307 3.465,-1.968 4.711,-4.618c0.927,-1.968 1.701,-4.48 2.332,-7.386c0.251,-1.133 0.445,-2.275 0.645,-3.511c0.298,-2.076 0.59,-4.249 0.841,-6.525c0.097,-1.384 0.246,-2.716 0.395,-4.151c0.538,-6.868 0.692,-14.388 0.692,-21.507c0,0 8.154,0.84 14.772,0.84Z" style="fill:#e0bd9a;fill-rule:nonzero;"/><path d="M211.933,298.671c0,0 -0.543,0.199 -1.435,0.594l-61.025,0l0,-112.271l0.148,0c6.571,0 14.828,-0.84 14.828,-0.84c0,7.068 0.144,14.485 0.687,21.358c0.149,1.338 0.298,2.716 0.395,4.054c0.251,2.373 0.549,4.598 0.892,6.674l0,0.046c0.097,0.943 0.292,1.784 0.446,2.67c0.6,2.922 1.327,5.49 2.204,7.55c1.092,2.563 2.419,4.352 4.029,5.059c0.512,0.231 1.055,0.344 1.624,0.344c0,0 2.338,0.282 5.838,1.655c7.151,2.799 19.16,10.144 26.059,28.888c3.203,8.714 5.31,19.887 5.31,34.219Z" style="fill:#efd0ad;fill-rule:nonzero;"/><path d="M166.423,218.03l0,0.049c-1.532,2.358 -6.671,9.135 -16.85,9.135l-0.099,0c-9.635,-0.049 -15.269,-7.023 -16.702,-9.086c0.297,-2.062 0.593,-4.223 0.841,-6.482c0.098,-1.327 0.246,-2.702 0.395,-4.126c4.694,1.179 9.833,1.915 15.269,2.013l0.197,0c5.633,-0.098 10.822,-0.883 15.664,-2.16c0.148,1.326 0.297,2.701 0.395,4.027c0.248,2.357 0.544,4.567 0.89,6.63Z" style="fill:#be987f;fill-rule:nonzero;"/><path d="M148.782,59.051c-64.336,0 -64.682,53.779 -61.816,88.993c-4.398,-8.349 -17.492,-5.795 -16.405,7.367c1.038,12.671 19.745,19.129 19.222,17.729c9.742,26.043 35.528,45.676 58.999,45.676l0.495,0l0,-159.765l-0.495,0Z" style="fill:#d2a686;fill-rule:nonzero;"/><path d="M74.663,149.861c3.162,-5.108 8.103,-2.898 9.289,-1.768c1.285,1.228 2.322,2.799 1.532,5.795c-0.445,1.719 -2.224,1.867 -1.828,4.421c0.494,2.897 1.828,3.044 2.618,3.732c0.742,0.639 1.681,1.13 2.125,2.358c0.495,1.227 0.544,2.504 0.297,3.634c-0.495,2.063 -3.508,0.393 -5.534,-0.491c-1.335,-0.639 -5.584,-4.224 -6.671,-5.403c-2.668,-3.045 -3.953,-8.938 -1.828,-12.278Z" style="fill:#ac8774;fill-rule:nonzero;"/><path d="M149.128,59.051c64.336,0 64.682,53.779 61.865,88.993c4.398,-8.349 17.444,-5.795 16.356,7.367c-0.988,12.671 -19.733,19.133 -19.221,17.729c-9.491,26.043 -35.528,45.676 -59,45.676c-0.148,0 -0.346,0 -0.346,0l-0.148,-159.765c0,0 0.346,0 0.494,0Z" style="fill:#ddb598;fill-rule:nonzero;"/><path d="M223.248,149.861c-3.162,-5.108 -8.054,-2.898 -9.29,-1.768c-1.284,1.228 -2.272,2.799 -1.531,5.795c0.444,1.719 2.223,1.867 1.828,4.421c-0.495,2.897 -1.828,3.044 -2.569,3.732c-0.742,0.639 -1.73,1.13 -2.175,2.358c-0.445,1.227 -0.543,2.504 -0.296,3.634c0.494,2.063 3.508,0.393 5.534,-0.491c1.384,-0.639 5.584,-4.224 6.671,-5.403c2.717,-3.045 3.953,-8.938 1.828,-12.278Z" style="fill:#ac8774;fill-rule:nonzero;"/><path d="M148.276,74.226c-21.149,0 -36.665,6.14 -46.003,18.222c-13.095,16.944 -12.601,42.778 -7.808,61.342c1.483,5.697 2.273,20.972 3.261,26.57c4.596,25.097 32.317,38.456 50.55,38.456c0,0 0.346,0 0.494,0l0,-144.59c-0.148,0 -0.296,0 -0.296,0l-0.198,0Z" style="fill:#e0bd9a;fill-rule:nonzero;"/><path d="M194.23,92.497c-9.289,-12.033 -24.607,-18.172 -45.46,-18.271l0,144.59c20.853,-0.245 45.806,-14.881 50.056,-38.456c1.037,-5.598 1.779,-20.873 3.262,-26.57c4.842,-18.516 5.336,-44.3 -7.858,-61.293Z" style="fill:#efd0ad;fill-rule:nonzero;"/><path d="M148.964,190.456" style="fill:#bc917b;fill-rule:nonzero;"/><path d="M148.963,190.456l0.001,0l-0.001,0Z" style="fill:#bc917b;fill-rule:nonzero;"/><path d="M145.396,193.185c-0.102,-0.022 -0.202,-0.041 -0.303,-0.065c0.099,0.022 0.186,0.041 0.303,0.065Z" style="fill:#bc917b;fill-rule:nonzero;"/><path d="M148.964,192.993" style="fill:#bc917b;fill-rule:nonzero;"/><path d="M144.611,193.01c-0.094,-0.025 -0.178,-0.051 -0.27,-0.076l-0.01,0.004c0,0 0.104,0.029 0.28,0.072Z" style="fill:#bc917b;fill-rule:nonzero;"/><path d="M148.963,192.993l0.001,0l-0.001,0Z" style="fill:#bc917b;fill-rule:nonzero;"/><path d="M136.831,174.428c-0.244,-4.997 9.178,-1.826 12.285,-1.67c2.454,0.126 9.923,-1.574 10.564,-1.136c4.393,2.962 -4.654,8.928 -10.721,8.928c-1.616,0 -11.981,-3.109 -12.128,-6.122Z" style="fill:#ddb598;fill-rule:nonzero;"/><path d="M130.809,74.588l-0.268,0.267l0.045,0.089c0.089,-0.134 0.133,-0.267 0.223,-0.356Z" style="fill:#432e1b;fill-rule:nonzero;"/><path d="M89.845,125.536" style="fill:#432e1b;fill-rule:nonzero;"/><path d="M149.236,193.012" style="fill:#ba907b;fill-rule:nonzero;"/><path d="M149.235,193.012l0.001,0l-0.001,0Z" style="fill:#ba907b;fill-rule:nonzero;"/><path d="M145.571,190.252c-0.104,-0.022 -0.207,-0.043 -0.311,-0.067c0.102,0.023 0.192,0.042 0.311,0.067Z" style="fill:#ba907b;fill-rule:nonzero;"/><path d="M149.236,190.055" style="fill:#ba907b;fill-rule:nonzero;"/><path d="M144.765,190.072c-0.096,-0.025 -0.182,-0.052 -0.277,-0.078l-0.01,0.004c0,0 0.107,0.03 0.287,0.074Z" style="fill:#ba907b;fill-rule:nonzero;"/><path d="M149.235,190.055l0.001,0l-0.001,0Z" style="fill:#ba907b;fill-rule:nonzero;"/><path d="M102.617,130.661c0,0 4.908,20.135 13.335,21.778c8.426,1.643 17.547,-1.623 17.547,-1.623c0,0 0.872,-23.664 -3.443,-26.756c-4.311,-3.105 -14.25,-7.593 -27.439,6.601Z" style="fill:#fff;fill-rule:nonzero;"/><path d="M133.51,150.754c0,0 -0.193,0.055 -0.627,0.236c-0.107,-7.258 -0.778,-17.228 -3.472,-19.137c-4.007,-2.933 -13.052,-7.062 -25.138,4.229c-1.099,-3.119 -1.65,-5.484 -1.65,-5.484c13.213,-14.22 23.16,-9.74 27.439,-6.633c4.319,3.105 3.448,26.789 3.448,26.789Z" style="fill:#d6b496;fill-rule:nonzero;"/><path d="M128.52,140.501c0,4.58 -3.713,8.293 -8.293,8.293c-4.58,0 -8.294,-3.713 -8.294,-8.293c0,-4.581 3.714,-8.294 8.294,-8.294c4.58,0 8.293,3.713 8.293,8.294Z" style="fill:#482315;fill-rule:nonzero;"/><path d="M119.841,146.023c-2.394,-0.198 -4.234,-2.614 -4.015,-5.272c0.214,-2.656 2.423,-4.735 4.819,-4.534c2.395,0.196 4.231,2.611 4.019,5.268c-0.218,2.656 -2.428,4.74 -4.823,4.538Z" style="fill:#7e3a22;fill-rule:nonzero;"/><path d="M120.049,145.066c-1.668,-0.142 -3.397,-1.972 -3.214,-4.224c0.188,-2.26 2.189,-3.786 3.857,-3.649c1.667,0.141 3.393,1.979 3.209,4.232c-0.184,2.256 -2.189,3.778 -3.852,3.641Z" style="fill:#211a10;fill-rule:nonzero;"/><path d="M118.699,139.508c-0.07,0.814 -0.906,1.409 -1.864,1.33c-0.959,-0.081 -1.683,-0.81 -1.618,-1.619c0.07,-0.818 0.9,-1.413 1.859,-1.335c0.963,0.078 1.687,0.806 1.623,1.624Z" style="fill:#fff;fill-rule:nonzero;"/><path d="M124.075,144.218c-0.035,0.404 -0.452,0.704 -0.929,0.663c-0.482,-0.037 -0.842,-0.405 -0.811,-0.809c0.034,-0.405 0.452,-0.705 0.929,-0.664c0.482,0.038 0.846,0.401 0.811,0.81Z" style="fill:#fff;fill-rule:nonzero;"/><path d="M149.368,189.971" style="fill:#ba907b;fill-rule:nonzero;"/><path d="M149.367,189.971l0.001,0l-0.001,0Z" style="fill:#ba907b;fill-rule:nonzero;"/><path d="M145.703,192.627c-0.104,-0.023 -0.207,-0.043 -0.311,-0.067c0.102,0.023 0.191,0.042 0.311,0.067Z" style="fill:#ba907b;fill-rule:nonzero;"/><path d="M149.368,192.43" style="fill:#ba907b;fill-rule:nonzero;"/><path d="M144.897,192.447c-0.096,-0.025 -0.183,-0.052 -0.277,-0.078l-0.01,0.004c0,0 0.107,0.029 0.287,0.074Z" style="fill:#ba907b;fill-rule:nonzero;"/><path d="M149.367,192.43l0.001,0l-0.001,0Z" style="fill:#ba907b;fill-rule:nonzero;"/><path d="M149.254,189.6" style="fill:#bc917b;fill-rule:nonzero;"/><path d="M149.254,189.6" style="fill:#bc917b;fill-rule:nonzero;"/><path d="M145.326,192.058c-0.112,-0.024 -0.222,-0.046 -0.334,-0.071c0.11,0.024 0.206,0.045 0.334,0.071Z" style="fill:#bc917b;fill-rule:nonzero;"/><path d="M149.254,191.847" style="fill:#bc917b;fill-rule:nonzero;"/><path d="M144.462,191.865c-0.103,-0.027 -0.196,-0.056 -0.297,-0.083l-0.011,0.005c0,0 0.115,0.031 0.308,0.078Z" style="fill:#bc917b;fill-rule:nonzero;"/><path d="M149.254,191.847" style="fill:#bc917b;fill-rule:nonzero;"/><path d="M149.006,188.759" style="fill:#bc917b;fill-rule:nonzero;"/><path d="M149.006,188.759" style="fill:#bc917b;fill-rule:nonzero;"/><path d="M145.078,191.216c-0.112,-0.024 -0.223,-0.046 -0.334,-0.071c0.11,0.024 0.206,0.044 0.334,0.071Z" style="fill:#bc917b;fill-rule:nonzero;"/><path d="M149.006,191.005" style="fill:#bc917b;fill-rule:nonzero;"/><path d="M144.214,191.023c-0.103,-0.027 -0.196,-0.056 -0.297,-0.083l-0.011,0.004c0,0 0.115,0.032 0.308,0.079Z" style="fill:#bc917b;fill-rule:nonzero;"/><path d="M149.006,191.005" style="fill:#bc917b;fill-rule:nonzero;"/><path d="M149.646,188.544" style="fill:#bc917b;fill-rule:nonzero;"/><path d="M149.645,188.544l0.001,0l-0.001,0Z" style="fill:#bc917b;fill-rule:nonzero;"/><path d="M145.848,191.101c-0.108,-0.023 -0.215,-0.044 -0.322,-0.069c0.106,0.024 0.199,0.043 0.322,0.069Z" style="fill:#bc917b;fill-rule:nonzero;"/><path d="M149.646,190.897" style="fill:#bc917b;fill-rule:nonzero;"/><path d="M145.013,190.914c-0.099,-0.025 -0.189,-0.054 -0.287,-0.08l-0.01,0.004c0,0 0.111,0.031 0.297,0.076Z" style="fill:#bc917b;fill-rule:nonzero;"/><path d="M149.645,190.897l0.001,0l-0.001,0Z" style="fill:#bc917b;fill-rule:nonzero;"/><path d="M195.428,129.975c0,0 -4.908,20.136 -13.335,21.779c-8.427,1.642 -17.547,-1.624 -17.547,-1.624c0,0 -0.871,-23.663 3.443,-26.755c4.311,-3.105 14.251,-7.593 27.439,6.6Z" style="fill:#fff;fill-rule:nonzero;"/><path d="M164.535,150.068c0,0 0.193,0.056 0.626,0.237c0.108,-7.258 0.779,-17.227 3.473,-19.137c4.007,-2.933 13.052,-7.062 25.138,4.229c1.099,-3.119 1.65,-5.484 1.65,-5.484c-13.213,-14.22 -23.161,-9.74 -27.439,-6.633c-4.32,3.105 -3.448,26.788 -3.448,26.788Z" style="fill:#d6b496;fill-rule:nonzero;"/><path d="M169.524,139.815c0,4.58 3.713,8.294 8.294,8.294c4.581,0 8.294,-3.714 8.294,-8.294c0,-4.581 -3.713,-8.294 -8.294,-8.294c-4.581,0 -8.294,3.713 -8.294,8.294Z" style="fill:#482315;fill-rule:nonzero;"/><path d="M178.203,145.338c2.396,-0.198 4.235,-2.614 4.016,-5.272c-0.214,-2.657 -2.422,-4.736 -4.819,-4.534c-2.395,0.196 -4.231,2.61 -4.02,5.267c0.219,2.658 2.429,4.74 4.823,4.539Z" style="fill:#7e3a22;fill-rule:nonzero;"/><path d="M177.996,144.38c1.668,-0.142 3.397,-1.971 3.213,-4.223c-0.187,-2.26 -2.188,-3.786 -3.856,-3.649c-1.668,0.142 -3.393,1.979 -3.209,4.232c0.183,2.255 2.189,3.778 3.852,3.64Z" style="fill:#211a10;fill-rule:nonzero;"/><path d="M179.346,138.823c0.07,0.814 0.906,1.409 1.863,1.33c0.96,-0.081 1.684,-0.81 1.619,-1.619c-0.07,-0.818 -0.901,-1.414 -1.859,-1.335c-0.963,0.078 -1.687,0.806 -1.623,1.624Z" style="fill:#fff;fill-rule:nonzero;"/><path d="M173.969,143.533c0.036,0.404 0.453,0.704 0.93,0.663c0.482,-0.038 0.842,-0.404 0.811,-0.81c-0.034,-0.404 -0.452,-0.704 -0.929,-0.663c-0.482,0.037 -0.846,0.401 -0.812,0.81Z" style="fill:#fff;fill-rule:nonzero;"/><path d="M138.559,130.34c-0.063,-0.099 -1.592,-2.423 -4.719,-4.82c-1.959,-1.503 -3.878,-2.646 -5.869,-3.498c-2.42,-1.017 -5.027,-1.736 -7.551,-2.081c-2.284,-0.254 -4.815,-0.187 -7.769,0.211c-2.254,0.429 -4.452,1.1 -6.319,1.922c-1.331,0.458 -2.382,1.102 -3.227,1.62c-0.323,0.199 -0.616,0.378 -0.913,0.538l-4.025,2.53l4.638,-1.089c0.217,-0.055 0.45,-0.116 0.702,-0.183c0.959,-0.254 2.154,-0.571 3.554,-0.776c0.328,-0.048 0.661,-0.115 1.002,-0.183c0.583,-0.115 1.187,-0.236 1.819,-0.266c0.702,-0.047 1.431,-0.099 2.18,-0.153l0.974,-0.07c2.569,-0.032 4.739,0.162 6.667,0.607c2.107,0.363 4.272,1.043 6.258,1.963c1.876,0.897 3.673,1.787 5.076,2.817c2.834,1.891 4.41,3.468 4.426,3.484c0.389,0.392 0.909,0.594 1.433,0.594c0.381,0 0.763,-0.108 1.097,-0.327c0.933,-0.612 1.195,-1.871 0.602,-2.779l-0.036,-0.061Z" style="fill:#030405;fill-rule:nonzero;"/><path d="M196.256,124.213c-0.266,-0.141 -0.559,-0.321 -0.884,-0.519c-0.844,-0.518 -1.894,-1.162 -3.186,-1.604c-1.905,-0.838 -4.104,-1.509 -6.386,-1.943c-2.928,-0.394 -5.459,-0.46 -7.752,-0.205c-2.513,0.344 -5.12,1.063 -7.543,2.081c-1.963,0.84 -3.937,2.016 -5.866,3.497c-3.07,2.353 -4.597,4.637 -4.712,4.812l-0.028,0.042c-0.518,0.798 -0.407,1.866 0.263,2.539c0.381,0.384 0.888,0.596 1.428,0.596l0.001,0c0.539,-0.001 1.045,-0.213 1.425,-0.597l0.017,-0.017c0.149,-0.148 1.68,-1.645 4.427,-3.48c1.382,-1.014 3.181,-1.905 5.05,-2.801c1.994,-0.922 4.16,-1.602 6.294,-1.971c1.9,-0.439 4.074,-0.629 6.61,-0.602l1.022,0.073c0.743,0.052 1.465,0.104 2.171,0.152c0.623,0.029 1.226,0.15 1.81,0.265c0.341,0.068 0.673,0.135 1,0.183c1.401,0.205 2.596,0.522 3.556,0.776c0.251,0.067 0.485,0.129 0.708,0.184l4.636,1.09l-4.061,-2.551Z" style="fill:#030405;fill-rule:nonzero;"/><path d="M148.078,197.896" style="fill:#be927b;fill-rule:nonzero;"/><path d="M148.078,197.896" style="fill:#be927b;fill-rule:nonzero;"/><path d="M144.246,195.01c-0.109,-0.023 -0.217,-0.044 -0.325,-0.069c0.107,0.024 0.2,0.044 0.325,0.069Z" style="fill:#be927b;fill-rule:nonzero;"/><path d="M148.078,194.805" style="fill:#be927b;fill-rule:nonzero;"/><path d="M143.404,194.822c-0.101,-0.026 -0.192,-0.054 -0.29,-0.081l-0.011,0.005c0,0 0.112,0.03 0.301,0.076Z" style="fill:#be927b;fill-rule:nonzero;"/><path d="M148.078,194.805" style="fill:#be927b;fill-rule:nonzero;"/><path d="M136.883,199.164c-0.244,-3.237 9.016,0.678 12.056,0.772c2.426,0.082 9.713,-0.48 10.386,-0.736c5.094,-1.906 -0.278,5.411 -10.536,5.796c-4.7,0.188 -11.767,-3.868 -11.906,-5.832Z" style="fill:#f0d2ad;fill-rule:nonzero;"/><path d="M167.028,192.923c-2.513,-0.123 -5.095,1.971 -8.118,1.651c-0.123,-0.061 -0.185,-0.061 -0.314,-0.061c-0.694,-0.123 -1.383,0 -2.139,0.184c-0.94,0.197 -1.887,0.579 -2.771,0.886c-1.512,0.492 -3.214,0.886 -4.967,0.75l0,0.012l-0.097,-0.011l-0.098,0.011l0,-0.012c-1.752,0.136 -3.455,-0.258 -4.966,-0.75c-0.885,-0.307 -1.832,-0.689 -2.772,-0.886c-0.756,-0.184 -1.444,-0.307 -2.139,-0.184c-0.129,0 -0.19,0 -0.314,0.061c-3.023,0.32 -5.604,-1.774 -8.118,-1.651c-0.695,0.061 -1.703,-0.123 -2.268,-0.123c0.123,0.061 0.252,0.123 0.381,0.184c7.166,3.493 13.349,10.037 20.196,9.828l0.195,0c6.847,0.209 13.031,-6.335 20.196,-9.828c0.129,-0.061 0.258,-0.123 0.382,-0.184c-0.566,0 -1.574,0.184 -2.269,0.123Z" style="fill:#dcbf9e;fill-rule:nonzero;"/><path d="M169.134,192.723c0,0 -7.286,-2.806 -12.469,-1.16c0,0 -1.929,0.753 -3.928,1.211c-1.216,0.474 -2.689,0.611 -4.115,0.554c-1.091,-0.043 -2.127,-0.182 -2.978,-0.33c-0.283,-0.044 -0.565,-0.101 -0.854,-0.163c-0.125,-0.026 -0.218,-0.046 -0.325,-0.069c-0.175,-0.041 -0.345,-0.074 -0.518,-0.119c-0.188,-0.046 -0.3,-0.077 -0.3,-0.077l0.011,-0.004c-1.658,-0.449 -3.08,-1.003 -3.08,-1.003c-5.182,-1.646 -12.469,1.16 -12.469,1.16c-0.1,0.046 -0.162,0.077 -0.162,0.077c0.565,0 1.573,0.184 2.268,0.123c2.514,-0.123 5.095,1.971 8.118,1.651c0.124,-0.061 0.185,-0.061 0.314,-0.061c0.695,-0.123 1.383,0 2.139,0.184c0.94,0.197 1.887,0.579 2.772,0.886c1.511,0.492 3.214,0.886 4.966,0.75l0,0.012l0.098,-0.011l0.097,0.011l0,-0.012c1.753,0.136 3.455,-0.258 4.967,-0.75c0.884,-0.307 1.831,-0.689 2.771,-0.886c0.756,-0.184 1.445,-0.307 2.139,-0.184c0.129,0 0.191,0 0.314,0.061c3.023,0.32 5.605,-1.774 8.118,-1.651c0.695,0.061 1.703,-0.123 2.268,-0.123c0,0 -0.062,-0.031 -0.162,-0.077Z" style="fill:#c69f83;fill-rule:nonzero;"/><path d="M136.383,194.433c0.133,0.033 13.654,4.15 24.229,0.089l-1.218,-0.819l-14.294,0l-8.717,0.73Z" style="fill:#c69f83;fill-rule:nonzero;"/><path d="M211.919,300.07l-125.396,0c0.016,-3.49 0.146,-6.8 0.375,-9.938c0.348,-4.88 0.94,-9.342 1.723,-13.422c8.023,-41.765 36.245,-43.847 36.245,-43.847l24.222,16.298l24.798,-16.364c24.444,5.644 33.369,26.815 36.533,43.913c0.924,4.981 1.353,9.616 1.538,13.422c0.288,5.995 -0.038,9.938 -0.038,9.938Z" style="fill:#3a2f34;fill-rule:nonzero;"/><path d="M167.631,222.405c-0.322,3.336 -3.445,12.737 -9.903,18.166c-4.279,3.59 -7.186,5.916 -7.96,7.238l-0.052,0c-0.77,-1.322 -3.675,-3.648 -7.953,-7.238c-6.459,-5.429 -9.584,-14.83 -9.907,-18.166c-4.052,3.578 -9.409,17.426 -9.409,17.426c0.04,-0.049 0.114,0 0.212,0.137c0.131,0.186 0.315,0.553 0.542,1.07c0.14,0.326 0.299,0.706 0.475,1.148c0.199,0.504 0.418,1.082 0.66,1.727l0.002,0.005c0.058,0.156 0.116,0.313 0.175,0.476l0.006,0.019c0.07,0.188 0.142,0.38 0.214,0.578c0.502,1.388 1.076,3.017 1.703,4.846l0.008,0.025c0.079,0.228 0.159,0.459 0.239,0.692l0,0.006c0.487,1.421 1.001,2.957 1.543,4.578l0.02,0.062c0.084,0.246 0.166,0.494 0.248,0.744l0.039,0.111c0.08,0.244 0.162,0.492 0.244,0.74l0.044,0.126c0.082,0.245 0.163,0.493 0.243,0.741l0.052,0.149c0.08,0.246 0.159,0.49 0.239,0.739l0.046,0.133c0.349,1.053 0.704,2.14 1.067,3.247c0.032,0.103 0.066,0.206 0.099,0.312c0.068,0.206 0.136,0.415 0.204,0.624c0.04,0.119 0.078,0.237 0.116,0.353c0.063,0.196 0.127,0.39 0.191,0.585c0.048,0.15 0.098,0.303 0.148,0.456c0.055,0.176 0.116,0.355 0.171,0.533c0.052,0.155 0.104,0.31 0.152,0.462c0.059,0.191 0.123,0.377 0.183,0.565l0.021,0.063l-2.083,2.089l12.931,32.088l14.286,0l14.709,-28.915l-4.133,-4.418c0.048,-0.143 0.095,-0.286 0.141,-0.428c0.05,-0.16 0.101,-0.32 0.155,-0.479c0.06,-0.188 0.12,-0.374 0.179,-0.565c0.052,-0.152 0.104,-0.307 0.152,-0.462c0.06,-0.178 0.116,-0.357 0.173,-0.533c0.051,-0.153 0.098,-0.306 0.15,-0.456c0.06,-0.195 0.128,-0.389 0.188,-0.585c0.04,-0.116 0.077,-0.234 0.115,-0.353c0.068,-0.209 0.136,-0.418 0.206,-0.624c0.034,-0.106 0.066,-0.209 0.097,-0.312c0.365,-1.107 0.718,-2.194 1.07,-3.247l0.043,-0.133c0.08,-0.249 0.162,-0.493 0.243,-0.739l0.05,-0.149c0.082,-0.248 0.164,-0.496 0.246,-0.741l0.039,-0.126c0.084,-0.248 0.164,-0.496 0.248,-0.74l0.036,-0.111c0.084,-0.25 0.165,-0.498 0.247,-0.744l0.02,-0.062c0.542,-1.621 1.057,-3.157 1.546,-4.578l0.002,-0.006c0.079,-0.233 0.155,-0.464 0.237,-0.692l0.006,-0.025c0.63,-1.829 1.2,-3.458 1.703,-4.846c0.071,-0.198 0.144,-0.39 0.214,-0.578l0.005,-0.019c0.06,-0.163 0.12,-0.32 0.176,-0.476l0,-0.005c0.243,-0.645 0.465,-1.223 0.662,-1.727c0.176,-0.442 0.335,-0.822 0.475,-1.148c0.227,-0.517 0.412,-0.884 0.544,-1.07c0.097,-0.137 0.169,-0.186 0.209,-0.137c0,0 -5.352,-13.848 -9.409,-17.426Z" style="fill:#efeeee;fill-rule:nonzero;"/><path d="M144.779,300.058l-19.306,-67.261l-14.94,17.619l4.05,2.61l4.16,3.586l2.336,2.004l-2.6,1.521l-7.946,4.647c0,0 3.302,4.934 7.996,11.926c1.879,2.803 3.99,5.941 6.194,9.228c0.923,1.378 1.863,2.78 2.813,4.194c2.221,3.305 4.485,6.669 6.677,9.926l8.293,0l-0.067,-0.21l2.34,0.21Z" style="fill:#fcd372;fill-rule:nonzero;"/><path d="M154.896,300.058l19.305,-67.261l14.941,17.619l-4.05,2.61l-4.16,3.586l-2.336,2.004l2.6,1.521l7.946,4.647c0,0 -3.303,4.934 -7.996,11.926c-1.879,2.803 -3.99,5.941 -6.194,9.228c-0.923,1.378 -1.863,2.78 -2.814,4.194c-2.22,3.305 -4.484,6.669 -6.677,9.926l-8.293,0l0.067,-0.21l-2.339,0.21Z" style="fill:#fcd372;fill-rule:nonzero;"/><path d="M234.236,70.928c2.409,-1.468 1.449,-5.145 -1.37,-5.183c-2.843,-0.038 -6.396,-0.58 -10.789,-1.995c-15.895,-5.098 -15.483,-21.732 -38.322,-31.018c-11.657,-4.736 -18.643,-4.141 -22.693,-2.423c0.236,-0.187 0.487,-0.361 0.749,-0.525c2.297,-1.436 1.17,-5.075 -1.539,-5.077c-3.753,-0.001 -8.193,0.531 -13.18,2.077c-11.281,3.508 -18.033,7.493 -21.826,10.356l6.334,-5.865c0,0 -22.849,7.889 -38.393,24.125c-15.535,16.246 -21.492,31.516 -21.492,48.688c0,17.167 6.966,34.375 11.532,39.478c4.57,5.109 3.105,12.517 4.47,12.517c0,0 4.578,0.204 2.135,-27.633c-0.544,-6.213 -0.428,-11.761 0.268,-16.659c0.435,-3.062 4.744,-3.234 5.477,-0.23c0.03,0.12 0.06,0.24 0.089,0.359c0.719,2.846 4.886,2.71 5.413,-0.177c1.568,-8.592 5.835,-15.905 9.91,-21.236c1.52,-1.989 4.682,-1.118 4.973,1.369c0.233,2 0.602,3.909 1.047,5.69c0.733,2.932 4.898,2.741 5.453,-0.23c0.627,-3.356 1.666,-6.516 2.94,-9.438c0.601,-1.378 2.171,-2.025 3.582,-1.503c0.825,0.304 1.642,0.636 2.453,0.987c0.914,0.397 1.515,1.276 1.623,2.267c0.584,5.367 1.857,10.651 3.35,15.413c0.931,2.968 5.364,2.401 5.452,-0.708c0.062,-2.144 0.271,-4.08 0.602,-5.83c0.382,-2.017 2.782,-2.906 4.414,-1.66c8.291,6.334 23.311,20.071 28.2,39.429c0.74,2.926 4.943,2.831 5.445,-0.145c1.845,-10.91 1.836,-26.52 -8.101,-40.297c-1.61,-2.231 0.579,-5.22 3.167,-4.283c4.551,1.646 9.249,5.662 12.693,14.267c1.175,2.936 5.516,1.972 5.363,-1.186c-0.116,-2.388 -0.321,-4.871 -0.647,-7.385c-0.354,-2.737 3.151,-4.26 4.898,-2.125c9.123,11.159 12.74,29.219 11.368,35.888c-1.545,7.565 -1.425,13.682 -0.659,18.08c0.477,2.74 4.3,3.069 5.312,0.479c0.08,-0.205 0.165,-0.409 0.253,-0.612c4.911,-11.319 9.035,-3.45 9.802,-18.807c0.883,-17.962 3.752,-24.533 2.83,-34.131c-0.901,-9.393 -5.581,-21.971 -5.6,-22.02c0.019,0.017 0.218,0.053 2.248,0.053c4.234,-0.01 7.844,-1.358 10.766,-3.141Z" style="fill:#36393a;fill-rule:nonzero;"/><path d="M90.146,150.281c0.497,-3.674 0.666,-9.672 -0.098,-19.469c0.396,-0.503 0.839,-0.965 1.322,-1.391c-0.013,6.646 0.714,13.209 1.92,19.229c-1.104,0.531 -2.153,1.079 -3.144,1.631Z" style="fill:url(#_Linear1);"/><path d="M135.535,150.473c-0.146,-0.096 -0.293,-0.191 -0.44,-0.285c-0.001,-0.001 -0.002,-0.001 -0.003,-0.002c-0.003,-0.002 -0.004,-0.003 -0.008,-0.005c-0.068,-0.044 -0.139,-0.089 -0.207,-0.132c-0.443,-0.28 -0.885,-0.549 -1.327,-0.808c0.07,-3.508 0.121,-12.383 -0.93,-18.699c1.832,1.359 2.831,2.358 2.843,2.371c0.292,0.294 0.658,0.481 1.043,0.557c-0.333,1.669 -0.008,3.407 0.853,4.893l0.034,0.06c0.905,1.585 1.121,3.474 0.617,5.227c-0.723,2.52 -1.555,4.786 -2.475,6.823Zm-42.245,-1.823c-1.206,-6.02 -1.933,-12.583 -1.92,-19.229c2.278,-2.006 5.444,-3.188 8.714,-3.864l-1.917,1.205l4.638,-1.089c0.217,-0.055 0.45,-0.116 0.702,-0.183c0.864,-0.229 1.919,-0.509 3.143,-0.712c0.873,-0.04 1.711,-0.056 2.496,-0.056c0.044,0 0.088,0.001 0.13,0.001c-2.108,1.453 -4.33,3.374 -6.653,5.875c0,0 0.004,0.015 0.011,0.045c-0.006,0.006 -0.011,0.012 -0.017,0.018c0,0 1.78,7.302 5.036,13.47c-5.357,0.783 -10.232,2.53 -14.363,4.519Z" style="fill:url(#_Linear2);"/><path d="M132.835,148.832c-2.128,-1.194 -4.246,-2.151 -6.341,-2.9c1.262,-1.455 2.026,-3.354 2.026,-5.431c0,-4.581 -3.713,-8.294 -8.293,-8.294c-4.58,0 -8.294,3.713 -8.294,8.294c0,1.136 0.229,2.219 0.642,3.206c-1.678,0.042 -3.322,0.19 -4.922,0.424c-3.256,-6.168 -5.036,-13.47 -5.036,-13.47c0.006,-0.006 0.011,-0.012 0.017,-0.018c0.081,0.339 0.628,2.57 1.639,5.439c6.065,-5.666 11.363,-7.449 15.644,-7.449c4.25,0 7.498,1.759 9.494,3.22c2.435,1.726 3.217,10.037 3.424,16.979Z" style="fill:url(#_Linear3);"/><path d="M133.55,149.241c-0.239,-0.139 -0.477,-0.276 -0.715,-0.409c-0.207,-6.942 -0.989,-15.253 -3.424,-16.979c-1.996,-1.461 -5.244,-3.22 -9.494,-3.22c-4.281,0 -9.579,1.783 -15.644,7.449c-1.011,-2.869 -1.558,-5.1 -1.639,-5.439c-0.007,-0.03 -0.011,-0.045 -0.011,-0.045c2.323,-2.501 4.545,-4.422 6.653,-5.875c3.283,0.007 5.605,0.29 5.605,0.29c3.138,0.05 5.836,0.214 8.154,0.459c0.999,0.32 1.983,0.703 2.926,1.14c1.876,0.897 3.673,1.787 5.076,2.817c0.581,0.388 1.11,0.762 1.583,1.113c1.051,6.316 1,15.191 0.93,18.699Z" style="fill:url(#_Linear4);"/><path d="M126.494,145.932c-1.165,-0.416 -2.325,-0.768 -3.474,-1.061c0.003,-0.002 0.005,-0.004 0.007,-0.006c0.039,0.007 0.078,0.013 0.119,0.016c0.029,0.003 0.058,0.004 0.086,0.004c0.44,0 0.81,-0.287 0.843,-0.667c0.015,-0.17 -0.04,-0.331 -0.142,-0.465c0.401,-0.666 0.663,-1.439 0.731,-2.268c0.212,-2.657 -1.624,-5.072 -4.019,-5.268c-0.107,-0.009 -0.214,-0.014 -0.32,-0.014c-1.29,0 -2.501,0.65 -3.343,1.676c-0.025,-0.001 -0.05,-0.002 -0.075,-0.002c-0.885,0 -1.625,0.573 -1.69,1.342c-0.04,0.495 0.215,0.959 0.638,1.264c-0.012,0.088 -0.021,0.178 -0.029,0.268c-0.091,1.108 0.175,2.173 0.69,3.054c-0.98,-0.075 -1.952,-0.11 -2.911,-0.111l-0.051,0c-0.327,0 -0.654,0.004 -0.979,0.013c-0.413,-0.987 -0.642,-2.07 -0.642,-3.206c0,-4.581 3.714,-8.294 8.294,-8.294c4.58,0 8.293,3.713 8.293,8.294c0,2.077 -0.764,3.976 -2.026,5.431Z" style="fill:url(#_Linear5);"/><path d="M123.02,144.871c-0.377,-0.096 -0.752,-0.185 -1.127,-0.269c0.159,-0.092 0.314,-0.197 0.462,-0.314c0.076,0.279 0.335,0.51 0.672,0.577c-0.002,0.002 -0.004,0.004 -0.007,0.006Zm-5.106,-0.934c-0.468,-0.053 -0.934,-0.097 -1.398,-0.132c-0.515,-0.881 -0.781,-1.946 -0.69,-3.054c0.008,-0.09 0.017,-0.18 0.029,-0.268c0.269,0.194 0.607,0.323 0.98,0.355c0,0.001 0,0.003 0,0.004c-0.1,1.224 0.366,2.324 1.079,3.095Zm6.019,-0.184c-0.145,-0.189 -0.387,-0.323 -0.669,-0.345c-0.025,-0.002 -0.05,-0.003 -0.076,-0.004c0.387,-0.555 0.652,-1.226 0.713,-1.979c0.184,-2.253 -1.542,-4.091 -3.209,-4.232c-0.07,-0.005 -0.14,-0.008 -0.21,-0.008c-0.83,0 -1.717,0.39 -2.411,1.061c-0.272,-0.199 -0.615,-0.331 -0.995,-0.362c-0.032,-0.002 -0.063,-0.004 -0.094,-0.005c0.842,-1.026 2.053,-1.676 3.343,-1.676c0.106,0 0.213,0.005 0.32,0.014c2.395,0.196 4.231,2.611 4.019,5.268c-0.068,0.829 -0.33,1.602 -0.731,2.268Z" style="fill:url(#_Linear6);"/><path d="M121.893,144.602c-1.34,-0.298 -2.667,-0.517 -3.979,-0.665c-0.713,-0.771 -1.179,-1.871 -1.079,-3.095c0,-0.001 0,-0.003 0,-0.004c0.057,0.005 0.113,0.007 0.169,0.007c0.886,0 1.629,-0.572 1.695,-1.337c0.039,-0.496 -0.211,-0.957 -0.628,-1.262c0.694,-0.671 1.581,-1.061 2.411,-1.061c0.07,0 0.14,0.003 0.21,0.008c1.667,0.141 3.393,1.979 3.209,4.232c-0.061,0.753 -0.326,1.424 -0.713,1.979c-0.003,0 -0.007,0 -0.01,0c-0.44,0 -0.811,0.288 -0.843,0.668c-0.006,0.074 0.002,0.146 0.02,0.216c-0.148,0.117 -0.303,0.222 -0.462,0.314Z" style="fill:url(#_Linear7);"/><path d="M117.004,140.845c-0.056,0 -0.112,-0.002 -0.169,-0.007c-0.373,-0.032 -0.711,-0.161 -0.98,-0.355c-0.423,-0.305 -0.678,-0.769 -0.638,-1.264c0.065,-0.769 0.805,-1.342 1.69,-1.342c0.025,0 0.05,0.001 0.075,0.002c0.031,0.001 0.062,0.003 0.094,0.005c0.38,0.031 0.723,0.163 0.995,0.362c0.417,0.305 0.667,0.766 0.628,1.262c-0.066,0.765 -0.809,1.337 -1.695,1.337Z" style="fill:url(#_Linear8);"/><path d="M123.232,144.885c-0.028,0 -0.057,-0.001 -0.086,-0.004c-0.041,-0.003 -0.08,-0.009 -0.119,-0.016c-0.337,-0.067 -0.596,-0.298 -0.672,-0.577c-0.018,-0.07 -0.026,-0.142 -0.02,-0.216c0.032,-0.38 0.403,-0.668 0.843,-0.668c0.003,0 0.007,0 0.01,0c0.026,0.001 0.051,0.002 0.076,0.004c0.282,0.022 0.524,0.156 0.669,0.345c0.102,0.134 0.157,0.295 0.142,0.465c-0.033,0.38 -0.403,0.667 -0.843,0.667Z" style="fill:url(#_Linear9);"/><path d="M136.506,133.47c-0.385,-0.076 -0.751,-0.263 -1.043,-0.557c-0.012,-0.013 -1.011,-1.012 -2.843,-2.371c-0.473,-0.351 -1.002,-0.725 -1.583,-1.113c-1.403,-1.03 -3.2,-1.92 -5.076,-2.817c-0.943,-0.437 -1.927,-0.82 -2.926,-1.14c6.805,0.718 10.349,2.138 12.195,3.434c1.27,0.891 1.856,2.498 1.42,3.987l-0.02,0.064c-0.048,0.17 -0.089,0.341 -0.124,0.513Zm-38.339,-6.708l1.917,-1.205c2.222,-0.459 4.492,-0.685 6.566,-0.779c-1.224,0.203 -2.279,0.483 -3.143,0.712c-0.252,0.067 -0.485,0.128 -0.702,0.183l-4.638,1.089Z" style="fill:url(#_Linear10);"/><path d="M88.266,151.371c-0.691,-2.488 -0.827,-4.238 -0.827,-4.238c-0.119,-0.95 0.945,-2.365 0.945,-2.365c2.839,-2.602 0.593,-4.967 0.593,-4.967c-1.894,-2.485 -0.948,-4.023 -0.948,-4.023c0.238,-1.983 0.958,-3.619 2.019,-4.966c0.764,9.797 0.595,15.795 0.098,19.469c-0.459,0.255 -0.905,0.511 -1.338,0.766c-0.031,0.018 -0.062,0.037 -0.093,0.055c-0.015,0.009 -0.032,0.019 -0.047,0.028c-0.031,0.018 -0.062,0.037 -0.093,0.055c-0.01,0.006 -0.02,0.012 -0.031,0.018c-0.026,0.016 -0.052,0.031 -0.078,0.047c-0.067,0.04 -0.134,0.081 -0.2,0.121Z" style="fill:url(#_Linear11);"/><path d="M95.941,163.721c-3.424,-2.746 -5.485,-6.337 -6.717,-9.476c0.339,-0.858 0.672,-2.117 0.922,-3.964c0.991,-0.552 2.04,-1.1 3.144,-1.631c0.353,1.763 0.747,3.481 1.175,5.14c0.58,2.229 1.054,5.923 1.476,9.931Z" style="fill:#aebeb8;fill-rule:nonzero;"/><path d="M110.106,168.254c-2.779,0 -4.57,-0.42 -4.57,-0.42c-4.02,-0.628 -7.154,-2.155 -9.595,-4.113c-0.422,-4.008 -0.896,-7.702 -1.476,-9.931c-0.428,-1.659 -0.822,-3.377 -1.175,-5.14c4.13,-1.989 9.007,-3.736 14.363,-4.519c2.151,4.074 4.947,7.654 8.299,8.308c1.693,0.33 3.415,0.462 5.084,0.462c6.64,0 12.463,-2.085 12.463,-2.085c0,0 0,-0.02 0.002,-0.059c0.006,-0.002 0.009,-0.003 0.009,-0.003c0,0 0.021,-0.557 0.04,-1.513c0.442,0.259 0.884,0.528 1.327,0.808c0.068,0.043 0.139,0.088 0.207,0.132l0.011,0.007c0.147,0.094 0.294,0.189 0.44,0.285c-6.978,15.468 -18.915,17.781 -25.429,17.781Z" style="fill:#b3c8c2;fill-rule:nonzero;"/><path d="M121.036,152.901c-1.669,0 -3.391,-0.132 -5.084,-0.462c-3.352,-0.654 -6.148,-4.234 -8.299,-8.308c1.6,-0.234 3.244,-0.382 4.922,-0.424c1.254,2.988 4.208,5.087 7.652,5.087c2.502,0 4.746,-1.108 6.267,-2.861c2.094,0.748 4.214,1.705 6.341,2.899c0.022,0.738 0.038,1.461 0.048,2.158c0.379,-0.158 0.574,-0.22 0.618,-0.233c-0.002,0.039 -0.002,0.059 -0.002,0.059c0,0 -5.823,2.085 -12.463,2.085Z" style="fill:#bbe3f0;fill-rule:nonzero;"/><path d="M132.883,150.99c-0.01,-0.697 -0.026,-1.42 -0.048,-2.158c0.238,0.133 0.476,0.27 0.715,0.409c-0.019,0.956 -0.04,1.513 -0.04,1.513c0,0 -0.003,0.001 -0.009,0.003c-0.044,0.013 -0.239,0.075 -0.618,0.233Z" style="fill:#afc3bf;fill-rule:nonzero;"/><path d="M120.227,148.794c-3.444,0 -6.398,-2.099 -7.652,-5.087c0.325,-0.009 0.652,-0.013 0.979,-0.013l0.051,0c0.959,0.001 1.931,0.036 2.911,0.111c0.721,1.233 1.929,2.103 3.325,2.218c0.108,0.009 0.215,0.014 0.321,0.014c1.059,0 2.065,-0.439 2.858,-1.166c1.15,0.293 2.308,0.645 3.474,1.062c-1.521,1.753 -3.765,2.861 -6.267,2.861Z" style="fill:#70736e;fill-rule:nonzero;"/><path d="M120.162,146.037c-0.106,0 -0.213,-0.005 -0.321,-0.014c-1.396,-0.115 -2.604,-0.985 -3.325,-2.218c0.464,0.035 0.93,0.079 1.399,0.132c0.599,0.648 1.373,1.064 2.134,1.129c0.069,0.005 0.139,0.008 0.21,0.008c0.543,0 1.111,-0.167 1.634,-0.471c0.374,0.083 0.751,0.173 1.127,0.268c-0.793,0.727 -1.799,1.166 -2.858,1.166Z" style="fill:#8c8376;fill-rule:nonzero;"/><path d="M120.259,145.074c-0.071,0 -0.141,-0.003 -0.21,-0.008c-0.761,-0.065 -1.535,-0.481 -2.134,-1.129c1.311,0.148 2.638,0.367 3.978,0.666c-0.523,0.304 -1.091,0.471 -1.634,0.471Z" style="fill:#586d6d;fill-rule:nonzero;"/><path d="M89.224,154.245c-0.401,-1.021 -0.714,-1.994 -0.958,-2.874c0.066,-0.04 0.133,-0.081 0.2,-0.121c0.026,-0.016 0.052,-0.031 0.078,-0.047c0.011,-0.006 0.021,-0.012 0.031,-0.018c0.031,-0.018 0.062,-0.037 0.093,-0.055c0.015,-0.009 0.032,-0.019 0.047,-0.028c0.031,-0.018 0.062,-0.037 0.093,-0.055c0.433,-0.255 0.879,-0.511 1.338,-0.766c-0.25,1.847 -0.583,3.106 -0.922,3.964Z" style="fill:#5e7d84;fill-rule:nonzero;"/><path d="M135.535,150.473c-0.146,-0.096 -0.293,-0.191 -0.44,-0.285c0.147,0.094 0.294,0.189 0.44,0.285Zm-0.443,-0.287c-0.003,-0.002 -0.004,-0.003 -0.008,-0.005c0.004,0.002 0.005,0.003 0.008,0.005Zm-0.215,-0.137c-0.443,-0.28 -0.885,-0.549 -1.327,-0.808c0.442,0.259 0.884,0.528 1.327,0.808Z" style="fill:url(#_Linear12);"/><path d="M132.835,148.832c-2.127,-1.194 -4.247,-2.151 -6.341,-2.899l0,-0.001c2.095,0.749 4.213,1.706 6.341,2.9Z" style="fill:url(#_Linear13);"/><path d="M133.55,149.241c-0.239,-0.139 -0.477,-0.276 -0.715,-0.409c0.238,0.133 0.476,0.27 0.715,0.409Z" style="fill:url(#_Linear14);"/><path d="M126.494,145.933c-1.166,-0.417 -2.324,-0.769 -3.474,-1.062c1.149,0.293 2.309,0.645 3.474,1.061l0,0.001Zm-9.978,-2.128c-0.98,-0.075 -1.952,-0.11 -2.911,-0.111c0.959,0.001 1.931,0.036 2.911,0.111Z" style="fill:url(#_Linear15);"/><path d="M123.02,144.871c-0.376,-0.095 -0.753,-0.185 -1.127,-0.268l0,-0.001c0.375,0.084 0.75,0.173 1.127,0.269Zm-5.105,-0.934c-0.469,-0.053 -0.935,-0.097 -1.399,-0.132c0.464,0.035 0.93,0.079 1.398,0.132l0.001,0Z" style="fill:url(#_Linear16);"/><path d="M121.893,144.603c-1.34,-0.299 -2.667,-0.518 -3.978,-0.666l-0.001,0c1.312,0.148 2.639,0.367 3.979,0.665l0,0.001Z" style="fill:url(#_Linear17);"/><path d="M209.397,151.364c-0.083,-0.05 -0.167,-0.101 -0.251,-0.151c-0.027,-0.016 -0.054,-0.032 -0.082,-0.049c-0.036,-0.021 -0.072,-0.042 -0.108,-0.064c-1.674,-0.991 -3.545,-1.993 -5.583,-2.927c1.213,-6.146 1.918,-12.844 1.835,-19.608c1.619,1.131 2.923,2.583 3.704,4.437c-0.481,2.797 -0.732,5.378 -0.81,7.729c-0.256,0.604 -0.418,1.454 -0.019,2.414c0.04,2.241 0.241,4.235 0.542,5.962c0.124,0.71 0.472,1.258 0.937,1.635c-0.051,0.201 -0.106,0.409 -0.165,0.622Z" style="fill:url(#_Linear18);"/><path d="M162.127,150.466c-0.919,-2.037 -1.751,-4.303 -2.475,-6.822c-0.504,-1.753 -0.287,-3.643 0.618,-5.227l0.034,-0.06c0.86,-1.487 1.185,-3.226 0.852,-4.895c0.141,0.031 0.286,0.047 0.434,0.047l0.001,0c0.539,-0.001 1.045,-0.213 1.425,-0.597l0.017,-0.017c0.102,-0.102 0.86,-0.842 2.217,-1.892c-0.913,6.506 -0.814,15.049 -0.745,18.005c-0.661,0.378 -1.323,0.779 -1.985,1.204c-0.066,0.042 -0.133,0.085 -0.198,0.127c-0.065,0.043 -0.129,0.084 -0.195,0.127Zm41.246,-2.293c-3.906,-1.789 -8.425,-3.325 -13.349,-4.047c3.49,-6.298 5.404,-14.151 5.404,-14.151c-0.006,-0.006 -0.011,-0.012 -0.017,-0.018c0.007,-0.029 0.011,-0.044 0.011,-0.044c-1.972,-2.122 -3.872,-3.829 -5.69,-5.184c0.777,0.016 1.593,0.05 2.432,0.107c1.083,0.197 2.024,0.446 2.809,0.654c0.251,0.067 0.485,0.129 0.708,0.184l4.636,1.09l-1.47,-0.923c2.325,0.585 4.543,1.453 6.361,2.724c0.083,6.764 -0.622,13.462 -1.835,19.608Z" style="fill:url(#_Linear19);"/><path d="M165.196,148.62c0.186,-7.031 0.947,-15.687 3.438,-17.452c1.029,-0.753 2.39,-1.585 4.049,-2.214c0.466,1.145 0.899,2.315 1.296,3.507c-2.648,1.386 -4.455,4.159 -4.455,7.354c0,2.281 0.92,4.346 2.41,5.845c-2.223,0.744 -4.475,1.719 -6.738,2.96Zm24.828,-4.494c-1.586,-0.232 -3.214,-0.38 -4.877,-0.425c0.616,-1.159 0.965,-2.482 0.965,-3.886c0,-3.416 -2.066,-6.35 -5.016,-7.621c0.138,-1.259 0.245,-2.564 0.312,-3.903c3.608,0.746 7.766,2.81 12.364,7.106c1.011,-2.87 1.558,-5.102 1.639,-5.44c0.006,0.006 0.011,0.012 0.017,0.018c0,0 -1.914,7.853 -5.404,14.151Z" style="fill:url(#_Linear20);"/><path d="M164.505,149.008c-0.069,-2.956 -0.168,-11.499 0.745,-18.005c0.615,-0.476 1.354,-1.016 2.21,-1.588c1.211,-0.889 2.743,-1.683 4.362,-2.469c0.298,0.66 0.585,1.33 0.861,2.008c-1.659,0.629 -3.02,1.461 -4.049,2.214c-2.491,1.765 -3.252,10.421 -3.438,17.452c-0.231,0.127 -0.46,0.255 -0.691,0.388Zm29.267,-13.611c-4.598,-4.296 -8.756,-6.36 -12.364,-7.106c0.053,-1.064 0.08,-2.151 0.077,-3.257c0.424,-0.011 0.856,-0.02 1.296,-0.027c0,0 2.384,-0.291 5.735,-0.291c0.393,0 0.798,0.004 1.216,0.013c1.818,1.355 3.718,3.062 5.69,5.184c0,0 -0.004,0.015 -0.011,0.044c-0.081,0.338 -0.628,2.57 -1.639,5.44Z" style="fill:url(#_Linear21);"/><path d="M171.934,145.66c-1.49,-1.499 -2.41,-3.564 -2.41,-5.845c0,-3.195 1.807,-5.968 4.455,-7.354c0.415,1.252 0.79,2.529 1.119,3.832c0.016,0.061 0.033,0.121 0.051,0.18c-1.18,0.98 -1.906,2.602 -1.769,4.326c0.069,0.83 0.331,1.603 0.732,2.269c-0.103,0.134 -0.157,0.295 -0.143,0.465c0.033,0.38 0.404,0.667 0.844,0.667c0.028,0 0.057,-0.001 0.086,-0.004c0.041,-0.003 0.08,-0.009 0.119,-0.016c0.182,0.167 0.375,0.319 0.578,0.454c-1.212,0.276 -2.432,0.616 -3.662,1.026Zm9.113,-1.854c0.822,-0.98 1.288,-2.326 1.172,-3.74c-0.007,-0.09 -0.017,-0.18 -0.028,-0.269c0.422,-0.305 0.676,-0.769 0.637,-1.263c-0.066,-0.769 -0.805,-1.342 -1.69,-1.342c-0.025,0 -0.05,0 -0.075,0.001c-0.189,-0.23 -0.396,-0.441 -0.619,-0.63c0.042,-0.132 0.075,-0.27 0.099,-0.415c0.213,-1.259 0.401,-2.58 0.553,-3.954c2.95,1.271 5.016,4.205 5.016,7.621c0,1.404 -0.349,2.727 -0.965,3.886c-0.346,-0.009 -0.693,-0.014 -1.042,-0.014l-0.04,0c-0.996,0 -2,0.039 -3.018,0.119Z" style="fill:url(#_Linear22);"/><path d="M175.596,144.634c-0.203,-0.135 -0.396,-0.287 -0.578,-0.454c0.337,-0.067 0.596,-0.298 0.671,-0.577c0.448,0.352 0.953,0.598 1.459,0.712c-0.515,0.095 -1.032,0.201 -1.552,0.319Zm3.597,-0.637c1.197,-0.671 2.156,-2.134 2.016,-3.84c0,-0.001 0,-0.003 0,-0.004c0.374,-0.031 0.712,-0.161 0.982,-0.356c0.011,0.089 0.021,0.179 0.028,0.269c0.116,1.414 -0.35,2.76 -1.172,3.74c-0.614,0.048 -1.233,0.111 -1.854,0.191Zm-5.081,-0.929c-0.401,-0.666 -0.663,-1.439 -0.732,-2.269c-0.137,-1.724 0.589,-3.346 1.769,-4.326c0.1,0.316 0.242,0.595 0.416,0.834c-0.901,0.771 -1.536,2.02 -1.421,3.433c0.061,0.753 0.325,1.424 0.712,1.979c-0.025,0.001 -0.05,0.002 -0.075,0.004c-0.282,0.022 -0.524,0.155 -0.669,0.345Zm5.862,-5.507c-0.017,-0.017 -0.034,-0.033 -0.052,-0.049c0.226,-0.261 0.406,-0.578 0.522,-0.949c0.223,0.189 0.43,0.4 0.619,0.63c-0.031,0.001 -0.062,0.003 -0.094,0.006c-0.38,0.031 -0.723,0.163 -0.995,0.362Z" style="fill:url(#_Linear23);"/><path d="M177.148,144.315c-0.506,-0.114 -1.011,-0.36 -1.459,-0.712c0.019,-0.07 0.027,-0.143 0.021,-0.217c-0.032,-0.379 -0.402,-0.667 -0.842,-0.667c-0.004,0 -0.008,0 -0.012,0c-0.387,-0.555 -0.651,-1.226 -0.712,-1.979c-0.115,-1.413 0.52,-2.662 1.421,-3.433c0.548,0.754 1.413,1.128 2.271,1.128c0.781,0 1.558,-0.31 2.086,-0.923c0.018,0.016 0.035,0.032 0.052,0.049c-0.417,0.305 -0.667,0.766 -0.628,1.262c0.066,0.765 0.81,1.337 1.694,1.337c0.056,0 0.112,-0.002 0.169,-0.007c0,0.001 0,0.003 0,0.004c0.14,1.706 -0.819,3.169 -2.016,3.84c-0.678,0.086 -1.359,0.192 -2.045,0.318Z" style="fill:url(#_Linear24);"/><path d="M181.04,140.16c-0.884,0 -1.628,-0.572 -1.694,-1.337c-0.039,-0.496 0.211,-0.957 0.628,-1.262c0.272,-0.199 0.615,-0.331 0.995,-0.362c0.032,-0.003 0.063,-0.005 0.094,-0.006c0.025,-0.001 0.05,-0.001 0.075,-0.001c0.885,0 1.624,0.573 1.69,1.342c0.039,0.494 -0.215,0.958 -0.637,1.263c-0.27,0.195 -0.608,0.325 -0.982,0.356c-0.057,0.005 -0.113,0.007 -0.169,0.007Z" style="fill:url(#_Linear25);"/><path d="M174.813,144.2c-0.44,0 -0.811,-0.287 -0.844,-0.667c-0.014,-0.17 0.04,-0.331 0.143,-0.465c0.145,-0.19 0.387,-0.323 0.669,-0.345c0.025,-0.002 0.05,-0.003 0.075,-0.004c0.004,0 0.008,0 0.012,0c0.44,0 0.81,0.288 0.842,0.667c0.006,0.074 -0.002,0.147 -0.021,0.217c-0.075,0.279 -0.334,0.51 -0.671,0.577c-0.039,0.007 -0.078,0.013 -0.119,0.016c-0.029,0.003 -0.058,0.004 -0.086,0.004Z" style="fill:url(#_Linear26);"/><path d="M161.591,133.509l-0.001,0c-0.148,0 -0.293,-0.016 -0.434,-0.047c-0.034,-0.172 -0.075,-0.342 -0.124,-0.511l-0.019,-0.065c-0.437,-1.488 0.149,-3.096 1.419,-3.986c1.523,-1.07 4.201,-2.223 8.909,-2.997c0.163,0.346 0.323,0.692 0.481,1.043c-1.619,0.786 -3.151,1.58 -4.362,2.469c-0.856,0.572 -1.595,1.112 -2.21,1.588c-1.357,1.05 -2.115,1.79 -2.217,1.892l-0.017,0.017c-0.38,0.384 -0.886,0.596 -1.425,0.597Zm38.726,-6.745l-4.636,-1.09c-0.223,-0.055 -0.457,-0.117 -0.708,-0.184c-0.785,-0.208 -1.726,-0.457 -2.809,-0.654c2.157,0.147 4.47,0.447 6.683,1.005l1.47,0.923Z" style="fill:url(#_Linear27);"/><path d="M209.562,150.742c-0.465,-0.377 -0.813,-0.925 -0.937,-1.635c-0.301,-1.727 -0.502,-3.721 -0.542,-5.962c0.214,0.514 0.588,1.06 1.195,1.617c0,0 1.065,1.413 0.946,2.364c0,0 -0.114,1.463 -0.662,3.616Zm-1.46,-10.011c0.078,-2.351 0.329,-4.932 0.81,-7.729c0.354,0.838 0.6,1.758 0.722,2.769c0,0 0.945,1.539 -0.948,4.022c0,0 -0.336,0.354 -0.584,0.938Zm-30.266,-2.296c-0.858,0 -1.723,-0.374 -2.271,-1.128c-0.174,-0.239 -0.316,-0.518 -0.416,-0.834c-0.018,-0.059 -0.035,-0.119 -0.051,-0.18c-0.329,-1.303 -0.704,-2.58 -1.119,-3.832c-0.397,-1.192 -0.83,-2.362 -1.296,-3.507c-0.276,-0.678 -0.563,-1.348 -0.861,-2.008c-0.158,-0.351 -0.318,-0.697 -0.481,-1.043c2.673,-0.44 6.001,-0.757 10.144,-0.869c0.003,1.106 -0.024,2.193 -0.077,3.257c-0.067,1.339 -0.174,2.644 -0.312,3.903c-0.152,1.374 -0.34,2.695 -0.553,3.954c-0.024,0.145 -0.057,0.283 -0.099,0.415c-0.116,0.371 -0.296,0.688 -0.522,0.949c-0.528,0.613 -1.305,0.923 -2.086,0.923Z" style="fill:url(#_Linear28);"/><path d="M200.537,164.591c0.437,-4.337 0.929,-8.412 1.551,-10.801c0.472,-1.808 0.904,-3.685 1.285,-5.617c2.038,0.934 3.909,1.936 5.583,2.927c0.036,0.022 0.072,0.043 0.108,0.064c0.028,0.017 0.055,0.033 0.082,0.049c0.084,0.05 0.168,0.101 0.251,0.151c-1.077,3.886 -3.503,9.576 -8.86,13.227Z" style="fill:#b2c4c0;fill-rule:nonzero;"/><path d="M187.557,168.248c-6.514,-0.001 -18.451,-2.314 -25.43,-17.782c0.066,-0.043 0.13,-0.084 0.195,-0.127c0.065,-0.042 0.132,-0.085 0.198,-0.127c0.662,-0.425 1.324,-0.826 1.985,-1.204c0.016,0.676 0.03,1.06 0.03,1.06c0,0 0.003,0.001 0.009,0.003c0.002,0.039 0.002,0.059 0.002,0.059c0,0 5.824,2.086 12.464,2.086c1.669,0 3.39,-0.132 5.083,-0.462c3.164,-0.617 5.832,-3.841 7.931,-7.628c4.923,0.722 9.444,2.258 13.349,4.047c-0.381,1.932 -0.813,3.809 -1.285,5.617c-0.622,2.389 -1.114,6.464 -1.551,10.801c-2.248,1.533 -5.013,2.706 -8.41,3.236c0,0 -1.791,0.421 -4.57,0.421Z" style="fill:#b9d0cb;fill-rule:nonzero;"/><path d="M177.01,152.216c-6.64,0 -12.464,-2.086 -12.464,-2.086c0,0 0,-0.02 -0.002,-0.059c0.044,0.013 0.239,0.076 0.617,0.234c0.008,-0.548 0.02,-1.111 0.035,-1.684c2.263,-1.242 4.515,-2.217 6.739,-2.96c1.502,1.512 3.583,2.448 5.883,2.448c3.176,0 5.935,-1.786 7.329,-4.408c1.663,0.045 3.291,0.193 4.877,0.425c-2.099,3.787 -4.767,7.011 -7.931,7.628c-1.693,0.33 -3.414,0.462 -5.083,0.462Z" style="fill:#bbe3f0;fill-rule:nonzero;"/><path d="M165.161,150.305c-0.378,-0.158 -0.573,-0.221 -0.617,-0.234c-0.006,-0.002 -0.009,-0.003 -0.009,-0.003c0,0 -0.014,-0.384 -0.03,-1.06c0.231,-0.133 0.46,-0.261 0.691,-0.387c-0.015,0.573 -0.027,1.136 -0.035,1.684Z" style="fill:#afc3bf;fill-rule:nonzero;"/><path d="M177.818,148.109c-2.3,0 -4.381,-0.936 -5.883,-2.448c1.228,-0.411 2.451,-0.751 3.661,-1.027c0.682,0.455 1.469,0.718 2.288,0.718c0.106,0 0.212,-0.005 0.319,-0.014c1.122,-0.092 2.12,-0.671 2.844,-1.532c1.018,-0.08 2.022,-0.119 3.018,-0.119l0.04,0c0.349,0 0.696,0.005 1.042,0.014c-1.394,2.622 -4.153,4.408 -7.329,4.408Z" style="fill:#70736e;fill-rule:nonzero;"/><path d="M177.884,145.352c-0.819,0 -1.606,-0.263 -2.288,-0.718c0.52,-0.118 1.037,-0.224 1.553,-0.319c0.213,0.048 0.427,0.074 0.636,0.074c0.071,0 0.141,-0.003 0.211,-0.009c0.405,-0.035 0.813,-0.168 1.196,-0.383c0.622,-0.08 1.241,-0.143 1.855,-0.191c-0.724,0.861 -1.722,1.44 -2.844,1.532c-0.107,0.009 -0.213,0.014 -0.319,0.014Z" style="fill:#8c8376;fill-rule:nonzero;"/><path d="M177.785,144.389c-0.209,0 -0.423,-0.026 -0.636,-0.074c0.685,-0.126 1.366,-0.231 2.043,-0.318c-0.383,0.215 -0.791,0.348 -1.196,0.383c-0.07,0.006 -0.14,0.009 -0.211,0.009Z" style="fill:#586d6d;fill-rule:nonzero;"/><path d="M162.127,150.466c0.066,-0.043 0.13,-0.084 0.195,-0.127c-0.065,0.043 -0.129,0.084 -0.195,0.127Zm0.393,-0.254c0.662,-0.425 1.324,-0.826 1.985,-1.204c-0.661,0.378 -1.323,0.779 -1.985,1.204Z" style="fill:url(#_Linear29);"/><path d="M165.196,148.621l0,-0.001c2.263,-1.241 4.515,-2.216 6.738,-2.96l0.001,0.001c-2.224,0.743 -4.476,1.718 -6.739,2.96Z" style="fill:url(#_Linear30);"/><path d="M164.505,149.008c0.231,-0.133 0.46,-0.261 0.691,-0.388l0,0.001c-0.231,0.126 -0.46,0.254 -0.691,0.387Z" style="fill:url(#_Linear31);"/><path d="M171.935,145.661l-0.001,-0.001c1.23,-0.41 2.45,-0.75 3.662,-1.026c-1.21,0.276 -2.433,0.616 -3.661,1.027Zm9.112,-1.855c1.018,-0.08 2.022,-0.119 3.018,-0.119c-0.996,0 -2,0.039 -3.018,0.119Z" style="fill:url(#_Linear32);"/><path d="M175.596,144.634c0.52,-0.118 1.037,-0.224 1.552,-0.319l0.001,0c-0.516,0.095 -1.033,0.201 -1.553,0.319Zm3.596,-0.637l0.001,0c0.621,-0.08 1.24,-0.143 1.854,-0.191c-0.614,0.048 -1.233,0.111 -1.855,0.191Z" style="fill:url(#_Linear33);"/><path d="M177.149,144.315l-0.001,0c0.686,-0.126 1.367,-0.232 2.045,-0.318l-0.001,0c-0.677,0.087 -1.358,0.192 -2.043,0.318Z" style="fill:url(#_Linear34);"/><path d="M138.01,143.651c-8.557,29.797 -32.474,24.183 -32.474,24.183c-16.678,-2.603 -18.098,-20.701 -18.098,-20.701c-0.118,-0.951 0.946,-2.365 0.946,-2.365c2.839,-2.602 0.593,-4.968 0.593,-4.968c-1.893,-2.484 -0.948,-4.022 -0.948,-4.022c1.658,-13.839 26.852,-10.764 26.852,-10.764c12.346,0.195 17.874,2.154 20.349,3.892c1.271,0.891 1.856,2.499 1.42,3.987l-0.02,0.064c-0.518,1.822 -0.22,3.767 0.729,5.406l0.034,0.061c0.905,1.584 1.121,3.474 0.617,5.227Zm2.657,-11.067c0,0 -1.065,-10.29 -32.056,-9.581c0,0 -25.431,-2.425 -23.892,20.493c0,0 -0.474,20.906 19.398,26.229c0,0 21.291,4.258 30.991,-14.549c0,0 7.569,-13.129 5.559,-22.592Z" style="fill:#f17c21;fill-rule:nonzero;"/><path d="M135.108,155.176c-9.7,18.807 -30.991,14.549 -30.991,14.549c-19.872,-5.323 -19.398,-26.229 -19.398,-26.229c-1.539,-22.918 23.892,-20.493 23.892,-20.493c30.991,-0.709 32.056,9.581 32.056,9.581c2.01,9.463 -5.559,22.592 -5.559,22.592Zm-0.474,-31.699c0,0 -21.055,-6.98 -40.689,-1.064c0,0 -4.851,1.3 -8.162,6.978c0,0 -1.774,3.429 -6.032,4.139c0,0 -1.42,9.345 0,11.238c0,0 2.484,0.117 3.665,5.085c0,0 3.549,21.884 25.669,22.12c0,0 25.785,3.785 33.947,-30.991c0,0 3.786,-13.839 -8.398,-17.505Z" style="fill:#f17c21;fill-rule:nonzero;"/><rect x="142.618" y="133.117" width="6.21" height="2.543" style="fill:#f17c21;fill-rule:nonzero;"/><path d="M148.828,117.492c-20.457,-0.768 -40.63,1.253 -40.63,1.253l-0.71,2.307l2.484,-1.018c4.505,-1.124 35.21,-1.274 38.856,-1.288l0,-1.254Z" style="fill:#f17c21;fill-rule:nonzero;"/><path d="M160.27,138.417l0.033,-0.061c0.949,-1.639 1.248,-3.584 0.729,-5.406l-0.019,-0.064c-0.436,-1.488 0.149,-3.096 1.419,-3.986c2.475,-1.739 8.004,-3.698 20.349,-3.893c0,0 25.195,-3.075 26.852,10.764c0,0 0.946,1.539 -0.947,4.023c0,0 -2.246,2.365 0.593,4.968c0,0 1.064,1.414 0.945,2.365c0,0 -1.419,18.097 -18.097,20.7c0,0 -23.918,5.614 -32.475,-24.183c-0.504,-1.753 -0.287,-3.643 0.618,-5.227Zm2.285,16.752c9.7,18.808 30.991,14.549 30.991,14.549c19.872,-5.322 19.398,-26.229 19.398,-26.229c1.538,-22.918 -23.892,-20.492 -23.892,-20.492c-30.991,-0.71 -32.056,9.581 -32.056,9.581c-2.01,9.462 5.559,22.591 5.559,22.591Z" style="fill:#f17c21;fill-rule:nonzero;"/><path d="M156.996,132.578c0,0 1.065,-10.291 32.056,-9.581c0,0 25.43,-2.426 23.892,20.492c0,0 0.474,20.907 -19.398,26.229c0,0 -21.291,4.259 -30.991,-14.549c0,0 -7.569,-13.129 -5.559,-22.591Zm-2.365,8.397c8.161,34.776 33.947,30.991 33.947,30.991c22.12,-0.236 25.668,-22.119 25.668,-22.119c1.182,-4.968 3.666,-5.085 3.666,-5.085c1.42,-1.894 0,-11.239 0,-11.239c-4.258,-0.709 -6.032,-4.139 -6.032,-4.139c-3.311,-5.678 -8.162,-6.978 -8.162,-6.978c-19.634,-5.916 -40.689,1.064 -40.689,1.064c-12.184,3.666 -8.398,17.505 -8.398,17.505Z" style="fill:#f17c21;fill-rule:nonzero;"/><rect x="148.834" y="133.11" width="6.21" height="2.543" style="fill:#f17c21;fill-rule:nonzero;"/><path d="M148.834,117.486c20.458,-0.769 40.631,1.252 40.631,1.252l0.71,2.307l-2.484,-1.018c-4.505,-1.124 -35.211,-1.274 -38.857,-1.288l0,-1.253Z" style="fill:#f17c21;fill-rule:nonzero;"/></g><defs><linearGradient id="_Linear1" x1="0" y1="0" x2="1" y2="0" gradientUnits="userSpaceOnUse" gradientTransform="matrix(-3.47127,-90.253,90.253,-3.47127,114.242,180.429)"><stop offset="0" style="stop-color:#e7d2c1;stop-opacity:1"/><stop offset="1" style="stop-color:#8eabb5;stop-opacity:1"/></linearGradient><linearGradient id="_Linear2" x1="0" y1="0" x2="1" y2="0" gradientUnits="userSpaceOnUse" gradientTransform="matrix(-3.47127,-90.253,90.253,-3.47127,114.242,180.429)"><stop offset="0" style="stop-color:#efddcb;stop-opacity:1"/><stop offset="1" style="stop-color:#93b4bf;stop-opacity:1"/></linearGradient><linearGradient id="_Linear3" x1="0" y1="0" x2="1" y2="0" gradientUnits="userSpaceOnUse" gradientTransform="matrix(-3.47127,-90.253,90.253,-3.47127,114.242,180.429)"><stop offset="0" style="stop-color:#fff;stop-opacity:1"/><stop offset="1" style="stop-color:#97cceb;stop-opacity:1"/></linearGradient><linearGradient id="_Linear4" x1="0" y1="0" x2="1" y2="0" gradientUnits="userSpaceOnUse" gradientTransform="matrix(-3.47127,-90.253,90.253,-3.47127,114.242,180.429)"><stop offset="0" style="stop-color:#e9d8c9;stop-opacity:1"/><stop offset="1" style="stop-color:#8eb1bd;stop-opacity:1"/></linearGradient><linearGradient id="_Linear5" x1="0" y1="0" x2="1" y2="0" gradientUnits="userSpaceOnUse" gradientTransform="matrix(-3.47127,-90.253,90.253,-3.47127,114.242,180.429)"><stop offset="0" style="stop-color:#987e73;stop-opacity:1"/><stop offset="1" style="stop-color:#5b686d;stop-opacity:1"/></linearGradient><linearGradient id="_Linear6" x1="0" y1="0" x2="1" y2="0" gradientUnits="userSpaceOnUse" gradientTransform="matrix(-3.47127,-90.253,90.253,-3.47127,114.242,180.429)"><stop offset="0" style="stop-color:#b88f7c;stop-opacity:1"/><stop offset="1" style="stop-color:#747676;stop-opacity:1"/></linearGradient><linearGradient id="_Linear7" x1="0" y1="0" x2="1" y2="0" gradientUnits="userSpaceOnUse" gradientTransform="matrix(-3.47127,-90.253,90.253,-3.47127,114.242,180.429)"><stop offset="0" style="stop-color:#807872;stop-opacity:1"/><stop offset="1" style="stop-color:#42626c;stop-opacity:1"/></linearGradient><linearGradient id="_Linear8" x1="0" y1="0" x2="1" y2="0" gradientUnits="userSpaceOnUse" gradientTransform="matrix(-3.47127,-90.253,90.253,-3.47127,114.242,180.429)"><stop offset="0" style="stop-color:#fff;stop-opacity:1"/><stop offset="1" style="stop-color:#97cceb;stop-opacity:1"/></linearGradient><linearGradient id="_Linear9" x1="0" y1="0" x2="1" y2="0" gradientUnits="userSpaceOnUse" gradientTransform="matrix(-3.47127,-90.253,90.253,-3.47127,114.242,180.429)"><stop offset="0" style="stop-color:#fff;stop-opacity:1"/><stop offset="1" style="stop-color:#97cceb;stop-opacity:1"/></linearGradient><linearGradient id="_Linear10" x1="0" y1="0" x2="1" y2="0" gradientUnits="userSpaceOnUse" gradientTransform="matrix(-3.47127,-90.253,90.253,-3.47127,114.242,180.429)"><stop offset="0" style="stop-color:#716e6e;stop-opacity:1"/><stop offset="1" style="stop-color:#325b68;stop-opacity:1"/></linearGradient><linearGradient id="_Linear11" x1="0" y1="0" x2="1" y2="0" gradientUnits="userSpaceOnUse" gradientTransform="matrix(-3.47127,-90.253,90.253,-3.47127,114.242,180.429)"><stop offset="0" style="stop-color:#8c8a8a;stop-opacity:1"/><stop offset="1" style="stop-color:#447182;stop-opacity:1"/></linearGradient><linearGradient id="_Linear12" x1="0" y1="0" x2="1" y2="0" gradientUnits="userSpaceOnUse" gradientTransform="matrix(-3.47127,-90.253,90.253,-3.47127,114.242,180.429)"><stop offset="0" style="stop-color:#b7d5d9;stop-opacity:1"/><stop offset="1" style="stop-color:#8ac2d2;stop-opacity:1"/></linearGradient><linearGradient id="_Linear13" x1="0" y1="0" x2="1" y2="0" gradientUnits="userSpaceOnUse" gradientTransform="matrix(-3.47127,-90.253,90.253,-3.47127,114.242,180.429)"><stop offset="0" style="stop-color:#bbe3f0;stop-opacity:1"/><stop offset="1" style="stop-color:#8bcee8;stop-opacity:1"/></linearGradient><linearGradient id="_Linear14" x1="0" y1="0" x2="1" y2="0" gradientUnits="userSpaceOnUse" gradientTransform="matrix(-3.47127,-90.253,90.253,-3.47127,114.242,180.429)"><stop offset="0" style="stop-color:#b5d3d7;stop-opacity:1"/><stop offset="1" style="stop-color:#87c0d1;stop-opacity:1"/></linearGradient><linearGradient id="_Linear15" x1="0" y1="0" x2="1" y2="0" gradientUnits="userSpaceOnUse" gradientTransform="matrix(-3.47127,-90.253,90.253,-3.47127,114.242,180.429)"><stop offset="0" style="stop-color:#96a8aa;stop-opacity:1"/><stop offset="1" style="stop-color:#7099a5;stop-opacity:1"/></linearGradient><linearGradient id="_Linear16" x1="0" y1="0" x2="1" y2="0" gradientUnits="userSpaceOnUse" gradientTransform="matrix(-3.47127,-90.253,90.253,-3.47127,114.242,180.429)"><stop offset="0" style="stop-color:#a4b1af;stop-opacity:1"/><stop offset="1" style="stop-color:#7da2ab;stop-opacity:1"/></linearGradient><linearGradient id="_Linear17" x1="0" y1="0" x2="1" y2="0" gradientUnits="userSpaceOnUse" gradientTransform="matrix(-3.47127,-90.253,90.253,-3.47127,114.242,180.429)"><stop offset="0" style="stop-color:#89a4aa;stop-opacity:1"/><stop offset="1" style="stop-color:#6296a5;stop-opacity:1"/></linearGradient><linearGradient id="_Linear18" x1="0" y1="0" x2="1" y2="0" gradientUnits="userSpaceOnUse" gradientTransform="matrix(-3.47126,-90.2528,90.2528,-3.47126,186.102,177.665)"><stop offset="0" style="stop-color:#eddaca;stop-opacity:1"/><stop offset="1" style="stop-color:#92b1be;stop-opacity:1"/></linearGradient><linearGradient id="_Linear19" x1="0" y1="0" x2="1" y2="0" gradientUnits="userSpaceOnUse" gradientTransform="matrix(-3.47126,-90.2528,90.2528,-3.47126,186.102,177.665)"><stop offset="0" style="stop-color:#f8e7d5;stop-opacity:1"/><stop offset="1" style="stop-color:#98bcc8;stop-opacity:1"/></linearGradient><linearGradient id="_Linear20" x1="0" y1="0" x2="1" y2="0" gradientUnits="userSpaceOnUse" gradientTransform="matrix(-3.47126,-90.2528,90.2528,-3.47126,186.102,177.665)"><stop offset="0" style="stop-color:#fff;stop-opacity:1"/><stop offset="1" style="stop-color:#97cceb;stop-opacity:1"/></linearGradient><linearGradient id="_Linear21" x1="0" y1="0" x2="1" y2="0" gradientUnits="userSpaceOnUse" gradientTransform="matrix(-3.47126,-90.2528,90.2528,-3.47126,186.102,177.665)"><stop offset="0" style="stop-color:#e9d8c9;stop-opacity:1"/><stop offset="1" style="stop-color:#8eb1bd;stop-opacity:1"/></linearGradient><linearGradient id="_Linear22" x1="0" y1="0" x2="1" y2="0" gradientUnits="userSpaceOnUse" gradientTransform="matrix(-3.47126,-90.2528,90.2528,-3.47126,186.102,177.665)"><stop offset="0" style="stop-color:#987e73;stop-opacity:1"/><stop offset="1" style="stop-color:#5b686d;stop-opacity:1"/></linearGradient><linearGradient id="_Linear23" x1="0" y1="0" x2="1" y2="0" gradientUnits="userSpaceOnUse" gradientTransform="matrix(-3.47126,-90.2528,90.2528,-3.47126,186.102,177.665)"><stop offset="0" style="stop-color:#b88f7c;stop-opacity:1"/><stop offset="1" style="stop-color:#747676;stop-opacity:1"/></linearGradient><linearGradient id="_Linear24" x1="0" y1="0" x2="1" y2="0" gradientUnits="userSpaceOnUse" gradientTransform="matrix(-3.47126,-90.2528,90.2528,-3.47126,186.102,177.665)"><stop offset="0" style="stop-color:#807872;stop-opacity:1"/><stop offset="1" style="stop-color:#42626c;stop-opacity:1"/></linearGradient><linearGradient id="_Linear25" x1="0" y1="0" x2="1" y2="0" gradientUnits="userSpaceOnUse" gradientTransform="matrix(-3.47126,-90.2528,90.2528,-3.47126,186.102,177.665)"><stop offset="0" style="stop-color:#fff;stop-opacity:1"/><stop offset="1" style="stop-color:#97cceb;stop-opacity:1"/></linearGradient><linearGradient id="_Linear26" x1="0" y1="0" x2="1" y2="0" gradientUnits="userSpaceOnUse" gradientTransform="matrix(-3.47126,-90.2528,90.2528,-3.47126,186.102,177.665)"><stop offset="0" style="stop-color:#fff;stop-opacity:1"/><stop offset="1" style="stop-color:#97cceb;stop-opacity:1"/></linearGradient><linearGradient id="_Linear27" x1="0" y1="0" x2="1" y2="0" gradientUnits="userSpaceOnUse" gradientTransform="matrix(-3.47126,-90.2528,90.2528,-3.47126,186.102,177.665)"><stop offset="0" style="stop-color:#716e6e;stop-opacity:1"/><stop offset="1" style="stop-color:#325b68;stop-opacity:1"/></linearGradient><linearGradient id="_Linear28" x1="0" y1="0" x2="1" y2="0" gradientUnits="userSpaceOnUse" gradientTransform="matrix(-3.47126,-90.2528,90.2528,-3.47126,186.102,177.665)"><stop offset="0" style="stop-color:#8c8a8a;stop-opacity:1"/><stop offset="1" style="stop-color:#447182;stop-opacity:1"/></linearGradient><linearGradient id="_Linear29" x1="0" y1="0" x2="1" y2="0" gradientUnits="userSpaceOnUse" gradientTransform="matrix(-3.47126,-90.2528,90.2528,-3.47126,186.102,177.665)"><stop offset="0" style="stop-color:#bbdadd;stop-opacity:1"/><stop offset="1" style="stop-color:#8cc6d6;stop-opacity:1"/></linearGradient><linearGradient id="_Linear30" x1="0" y1="0" x2="1" y2="0" gradientUnits="userSpaceOnUse" gradientTransform="matrix(-3.47126,-90.2528,90.2528,-3.47126,186.102,177.665)"><stop offset="0" style="stop-color:#bbe3f0;stop-opacity:1"/><stop offset="1" style="stop-color:#8bcee8;stop-opacity:1"/></linearGradient><linearGradient id="_Linear31" x1="0" y1="0" x2="1" y2="0" gradientUnits="userSpaceOnUse" gradientTransform="matrix(-3.47126,-90.2528,90.2528,-3.47126,186.102,177.665)"><stop offset="0" style="stop-color:#b5d3d7;stop-opacity:1"/><stop offset="1" style="stop-color:#87c0d1;stop-opacity:1"/></linearGradient><linearGradient id="_Linear32" x1="0" y1="0" x2="1" y2="0" gradientUnits="userSpaceOnUse" gradientTransform="matrix(-3.47126,-90.2528,90.2528,-3.47126,186.102,177.665)"><stop offset="0" style="stop-color:#96a8aa;stop-opacity:1"/><stop offset="1" style="stop-color:#7099a5;stop-opacity:1"/></linearGradient><linearGradient id="_Linear33" x1="0" y1="0" x2="1" y2="0" gradientUnits="userSpaceOnUse" gradientTransform="matrix(-3.47126,-90.2528,90.2528,-3.47126,186.102,177.665)"><stop offset="0" style="stop-color:#a4b1af;stop-opacity:1"/><stop offset="1" style="stop-color:#7da2ab;stop-opacity:1"/></linearGradient><linearGradient id="_Linear34" x1="0" y1="0" x2="1" y2="0" gradientUnits="userSpaceOnUse" gradientTransform="matrix(-3.47126,-90.2528,90.2528,-3.47126,186.102,177.665)"><stop offset="0" style="stop-color:#89a4aa;stop-opacity:1"/><stop offset="1" style="stop-color:#6296a5;stop-opacity:1"/></linearGradient></defs></svg>