<?xml version="1.0" encoding="UTF-8" standalone="no"?><!DOCTYPE svg PUBLIC "-//W3C//DTD SVG 1.1//EN" "http://www.w3.org/Graphics/SVG/1.1/DTD/svg11.dtd"><svg width="100%" height="100%" viewBox="0 0 298 301" version="1.1" xmlns="http://www.w3.org/2000/svg" xmlns:xlink="http://www.w3.org/1999/xlink" xml:space="preserve" style="fill-rule:evenodd;clip-rule:evenodd;stroke-linejoin:round;stroke-miterlimit:1.41421;"><g id="_45"><rect x="0.366" y="0.365" width="296.866" height="299.705" style="fill:#fcd372;fill-rule:nonzero;"/><path d="M145.774,187.8l0,112.27l-60.728,0c-0.989,-0.394 -1.481,-0.594 -1.481,-0.594c0,-14.331 2.101,-25.505 5.305,-34.219c7.729,-21.03 21.881,-27.709 28.396,-29.723c2.137,-0.661 3.454,-0.82 3.454,-0.82c0.231,0 0.446,-0.021 0.666,-0.056c1.912,-0.308 3.466,-1.969 4.711,-4.619c0.928,-1.968 1.702,-4.479 2.332,-7.386c0.251,-1.132 0.446,-2.275 0.646,-3.51c0.297,-2.077 0.59,-4.25 0.841,-6.525c0.097,-1.384 0.245,-2.717 0.394,-4.152c0.538,-6.868 0.692,-14.388 0.692,-21.507c0,0 8.155,0.841 14.772,0.841Z" style="fill:#e0bd9a;fill-rule:nonzero;"/><path d="M208.234,299.476c0,0 -0.543,0.2 -1.435,0.594l-61.025,0l0,-112.27l0.149,0c6.571,0 14.828,-0.841 14.828,-0.841c0,7.068 0.144,14.485 0.687,21.358c0.148,1.338 0.297,2.717 0.395,4.055c0.251,2.373 0.548,4.597 0.891,6.673l0,0.046c0.098,0.943 0.293,1.784 0.446,2.671c0.6,2.921 1.328,5.489 2.204,7.549c1.092,2.563 2.419,4.352 4.029,5.06c0.513,0.23 1.056,0.343 1.625,0.343c0,0 2.337,0.282 5.838,1.656c7.15,2.798 19.159,10.143 26.058,28.887c3.204,8.714 5.31,19.888 5.31,34.219Z" style="fill:#efd0ad;fill-rule:nonzero;"/><path d="M162.724,218.835l0,0.05c-1.531,2.357 -6.671,9.134 -16.85,9.134l-0.099,0c-9.635,-0.049 -15.268,-7.023 -16.701,-9.086c0.296,-2.062 0.593,-4.223 0.84,-6.482c0.099,-1.326 0.247,-2.702 0.395,-4.126c4.695,1.179 9.833,1.916 15.269,2.014l0.197,0c5.633,-0.098 10.822,-0.884 15.664,-2.161c0.149,1.326 0.297,2.701 0.396,4.027c0.247,2.357 0.543,4.568 0.889,6.63Z" style="fill:#be987f;fill-rule:nonzero;"/><path d="M145.084,59.856c-64.336,0 -64.682,53.779 -61.817,88.993c-4.397,-8.349 -17.491,-5.795 -16.405,7.367c1.038,12.672 19.746,19.129 19.222,17.73c9.743,26.043 35.529,45.675 59,45.675l0.494,0l0,-159.765l-0.494,0Z" style="fill:#d2a686;fill-rule:nonzero;"/><path d="M70.964,150.666c3.162,-5.108 8.104,-2.897 9.29,-1.768c1.284,1.228 2.322,2.8 1.531,5.796c-0.444,1.719 -2.223,1.866 -1.828,4.42c0.494,2.897 1.828,3.045 2.619,3.732c0.741,0.639 1.68,1.13 2.125,2.358c0.494,1.228 0.543,2.505 0.296,3.634c-0.494,2.063 -3.508,0.393 -5.534,-0.491c-1.334,-0.638 -5.584,-4.224 -6.671,-5.402c-2.668,-3.045 -3.953,-8.939 -1.828,-12.279Z" style="fill:#ac8774;fill-rule:nonzero;"/><path d="M145.43,59.856c64.336,0 64.682,53.779 61.865,88.993c4.397,-8.349 17.442,-5.795 16.356,7.367c-0.989,12.672 -19.733,19.133 -19.222,17.73c-9.49,26.043 -35.528,45.675 -58.999,45.675c-0.149,0 -0.346,0 -0.346,0l-0.149,-159.765c0,0 0.346,0 0.495,0Z" style="fill:#ddb598;fill-rule:nonzero;"/><path d="M219.55,150.666c-3.163,-5.108 -8.055,-2.897 -9.29,-1.768c-1.285,1.228 -2.273,2.8 -1.532,5.796c0.445,1.719 2.224,1.866 1.828,4.42c-0.494,2.897 -1.828,3.045 -2.569,3.732c-0.741,0.639 -1.73,1.13 -2.174,2.358c-0.445,1.228 -0.544,2.505 -0.297,3.634c0.494,2.063 3.508,0.393 5.535,-0.491c1.383,-0.638 5.582,-4.224 6.67,-5.402c2.718,-3.045 3.953,-8.939 1.829,-12.279Z" style="fill:#ac8774;fill-rule:nonzero;"/><path d="M144.577,75.032c-21.148,0 -36.664,6.139 -46.003,18.221c-13.094,16.944 -12.6,42.778 -7.807,61.342c1.482,5.698 2.273,20.972 3.261,26.57c4.596,25.098 32.316,38.456 50.549,38.456c0,0 0.347,0 0.495,0l0,-144.589c-0.148,0 -0.297,0 -0.297,0l-0.198,0Z" style="fill:#e0bd9a;fill-rule:nonzero;"/><path d="M190.532,93.302c-9.289,-12.033 -24.608,-18.172 -45.46,-18.27l0,144.589c20.852,-0.245 45.806,-14.881 50.055,-38.456c1.038,-5.598 1.78,-20.872 3.262,-26.57c4.842,-18.516 5.337,-44.3 -7.857,-61.293Z" style="fill:#efd0ad;fill-rule:nonzero;"/><path d="M145.265,196.677" style="fill:#bc917b;fill-rule:nonzero;"/><path d="M145.265,196.677" style="fill:#bc917b;fill-rule:nonzero;"/><path d="M141.697,193.99c-0.102,-0.022 -0.202,-0.041 -0.303,-0.065c0.099,0.023 0.187,0.041 0.303,0.065Z" style="fill:#bc917b;fill-rule:nonzero;"/><path d="M145.265,193.798" style="fill:#bc917b;fill-rule:nonzero;"/><path d="M140.912,193.815c-0.093,-0.024 -0.178,-0.051 -0.269,-0.076l-0.01,0.004c0,0 0.104,0.029 0.279,0.072Z" style="fill:#bc917b;fill-rule:nonzero;"/><path d="M145.265,193.798" style="fill:#bc917b;fill-rule:nonzero;"/><path d="M127.11,75.393l-0.267,0.267l0.044,0.089c0.089,-0.134 0.134,-0.267 0.223,-0.356Z" style="fill:#432e1b;fill-rule:nonzero;"/><path d="M86.146,126.341" style="fill:#432e1b;fill-rule:nonzero;"/><path d="M145.537,193.817" style="fill:#ba907b;fill-rule:nonzero;"/><path d="M145.537,193.817" style="fill:#ba907b;fill-rule:nonzero;"/><path d="M141.873,191.057c-0.105,-0.022 -0.208,-0.043 -0.311,-0.066c0.101,0.022 0.191,0.041 0.311,0.066Z" style="fill:#ba907b;fill-rule:nonzero;"/><path d="M145.537,190.86" style="fill:#ba907b;fill-rule:nonzero;"/><path d="M141.066,190.877c-0.096,-0.025 -0.182,-0.052 -0.277,-0.078l-0.01,0.005c0,0 0.107,0.029 0.287,0.073Z" style="fill:#ba907b;fill-rule:nonzero;"/><path d="M145.537,190.86" style="fill:#ba907b;fill-rule:nonzero;"/><path d="M132.61,175.381c-0.251,-5.131 9.426,-1.875 12.617,-1.714c2.521,0.128 10.191,-1.617 10.849,-1.168c4.513,3.043 -4.779,9.17 -11.009,9.17c-1.661,0 -12.306,-3.192 -12.457,-6.288Z" style="fill:#dcb497;fill-rule:nonzero;"/><path d="M98.919,131.466c0,0 4.908,20.135 13.335,21.778c8.426,1.643 17.546,-1.623 17.546,-1.623c0,0 0.872,-23.664 -3.443,-26.755c-4.311,-3.106 -14.25,-7.594 -27.438,6.6Z" style="fill:#fff;fill-rule:nonzero;"/><path d="M129.812,151.559c0,0 -0.194,0.055 -0.627,0.236c-0.108,-7.258 -0.779,-17.227 -3.474,-19.137c-4.005,-2.933 -13.051,-7.062 -25.137,4.229c-1.099,-3.119 -1.649,-5.484 -1.649,-5.484c13.212,-14.22 23.16,-9.74 27.439,-6.633c4.319,3.105 3.448,26.789 3.448,26.789Z" style="fill:#d6b496;fill-rule:nonzero;"/><path d="M124.822,141.306c0,4.58 -3.713,8.293 -8.294,8.293c-4.58,0 -8.294,-3.713 -8.294,-8.293c0,-4.581 3.714,-8.294 8.294,-8.294c4.581,0 8.294,3.713 8.294,8.294Z" style="fill:#482315;fill-rule:nonzero;"/><path d="M116.143,146.829c-2.395,-0.198 -4.234,-2.615 -4.016,-5.273c0.214,-2.656 2.423,-4.736 4.82,-4.534c2.395,0.196 4.231,2.611 4.018,5.268c-0.218,2.657 -2.428,4.74 -4.822,4.539Z" style="fill:#7e3a22;fill-rule:nonzero;"/><path d="M116.35,145.87c-1.667,-0.141 -3.397,-1.97 -3.213,-4.223c0.187,-2.26 2.189,-3.786 3.856,-3.648c1.668,0.141 3.393,1.978 3.21,4.231c-0.184,2.256 -2.19,3.778 -3.853,3.64Z" style="fill:#211a10;fill-rule:nonzero;"/><path d="M115,140.313c-0.069,0.814 -0.906,1.409 -1.863,1.33c-0.96,-0.081 -1.683,-0.809 -1.618,-1.619c0.069,-0.818 0.9,-1.413 1.859,-1.334c0.963,0.077 1.686,0.805 1.622,1.623Z" style="fill:#fff;fill-rule:nonzero;"/><path d="M120.377,145.023c-0.035,0.405 -0.452,0.704 -0.93,0.663c-0.482,-0.037 -0.841,-0.404 -0.811,-0.809c0.035,-0.405 0.453,-0.704 0.93,-0.664c0.481,0.038 0.846,0.401 0.811,0.81Z" style="fill:#fff;fill-rule:nonzero;"/><path d="M145.669,196.192" style="fill:#ba907b;fill-rule:nonzero;"/><path d="M145.669,196.192" style="fill:#ba907b;fill-rule:nonzero;"/><path d="M142.004,193.432c-0.104,-0.022 -0.207,-0.043 -0.311,-0.067c0.102,0.023 0.192,0.042 0.311,0.067Z" style="fill:#ba907b;fill-rule:nonzero;"/><path d="M145.669,193.235" style="fill:#ba907b;fill-rule:nonzero;"/><path d="M141.198,193.252c-0.095,-0.025 -0.182,-0.052 -0.276,-0.078l-0.011,0.004c0,0 0.107,0.03 0.287,0.074Z" style="fill:#ba907b;fill-rule:nonzero;"/><path d="M145.669,193.235" style="fill:#ba907b;fill-rule:nonzero;"/><path d="M145.556,195.821" style="fill:#bc917b;fill-rule:nonzero;"/><path d="M145.555,195.821l0.001,0l-0.001,0Z" style="fill:#bc917b;fill-rule:nonzero;"/><path d="M141.627,192.863c-0.111,-0.024 -0.222,-0.045 -0.333,-0.071c0.109,0.024 0.206,0.045 0.333,0.071Z" style="fill:#bc917b;fill-rule:nonzero;"/><path d="M145.556,192.652" style="fill:#bc917b;fill-rule:nonzero;"/><path d="M140.764,192.67c-0.103,-0.026 -0.196,-0.056 -0.297,-0.083l-0.011,0.005c0,0 0.114,0.031 0.308,0.078Z" style="fill:#bc917b;fill-rule:nonzero;"/><path d="M145.555,192.652l0.001,0l-0.001,0Z" style="fill:#bc917b;fill-rule:nonzero;"/><path d="M145.308,194.979" style="fill:#bc917b;fill-rule:nonzero;"/><path d="M145.307,194.979l0.001,0l-0.001,0Z" style="fill:#bc917b;fill-rule:nonzero;"/><path d="M141.379,192.021c-0.111,-0.024 -0.222,-0.045 -0.333,-0.071c0.109,0.024 0.205,0.044 0.333,0.071Z" style="fill:#bc917b;fill-rule:nonzero;"/><path d="M145.308,191.81" style="fill:#bc917b;fill-rule:nonzero;"/><path d="M140.516,191.828c-0.103,-0.026 -0.196,-0.055 -0.297,-0.083l-0.011,0.004c0,0 0.114,0.032 0.308,0.079Z" style="fill:#bc917b;fill-rule:nonzero;"/><path d="M145.307,191.81l0.001,0l-0.001,0Z" style="fill:#bc917b;fill-rule:nonzero;"/><path d="M145.947,194.765" style="fill:#bc917b;fill-rule:nonzero;"/><path d="M145.946,194.765l0.001,0l-0.001,0Z" style="fill:#bc917b;fill-rule:nonzero;"/><path d="M142.15,191.906c-0.108,-0.023 -0.215,-0.044 -0.323,-0.069c0.106,0.024 0.199,0.043 0.323,0.069Z" style="fill:#bc917b;fill-rule:nonzero;"/><path d="M145.947,191.702" style="fill:#bc917b;fill-rule:nonzero;"/><path d="M141.315,191.719c-0.099,-0.025 -0.19,-0.053 -0.287,-0.08l-0.011,0.005c0,0 0.111,0.03 0.298,0.075Z" style="fill:#bc917b;fill-rule:nonzero;"/><path d="M145.946,191.702l0.001,0l-0.001,0Z" style="fill:#bc917b;fill-rule:nonzero;"/><path d="M191.73,130.78c0,0 -4.909,20.136 -13.335,21.779c-8.427,1.643 -17.547,-1.623 -17.547,-1.623c0,0 -0.872,-23.664 3.443,-26.756c4.311,-3.105 14.25,-7.593 27.439,6.6Z" style="fill:#fff;fill-rule:nonzero;"/><path d="M160.837,150.873c0,0 0.193,0.057 0.626,0.237c0.107,-7.258 0.779,-17.227 3.473,-19.137c4.006,-2.933 13.052,-7.062 25.138,4.229c1.098,-3.119 1.649,-5.484 1.649,-5.484c-13.212,-14.22 -23.16,-9.74 -27.439,-6.633c-4.319,3.105 -3.447,26.788 -3.447,26.788Z" style="fill:#d6b496;fill-rule:nonzero;"/><path d="M165.826,140.62c0,4.581 3.713,8.294 8.293,8.294c4.581,0 8.294,-3.713 8.294,-8.294c0,-4.58 -3.713,-8.294 -8.294,-8.294c-4.58,0 -8.293,3.714 -8.293,8.294Z" style="fill:#482315;fill-rule:nonzero;"/><path d="M174.505,146.144c2.395,-0.198 4.233,-2.615 4.015,-5.273c-0.214,-2.656 -2.421,-4.736 -4.819,-4.534c-2.394,0.196 -4.23,2.611 -4.019,5.267c0.218,2.658 2.429,4.74 4.823,4.54Z" style="fill:#7e3a22;fill-rule:nonzero;"/><path d="M174.298,145.185c1.667,-0.142 3.397,-1.97 3.213,-4.223c-0.188,-2.26 -2.189,-3.786 -3.856,-3.648c-1.668,0.141 -3.393,1.978 -3.21,4.231c0.183,2.255 2.19,3.778 3.853,3.64Z" style="fill:#211a10;fill-rule:nonzero;"/><path d="M175.648,139.628c0.07,0.814 0.905,1.409 1.863,1.331c0.96,-0.082 1.683,-0.81 1.618,-1.62c-0.069,-0.818 -0.9,-1.413 -1.859,-1.335c-0.963,0.078 -1.687,0.806 -1.622,1.624Z" style="fill:#fff;fill-rule:nonzero;"/><path d="M170.27,144.338c0.036,0.405 0.453,0.704 0.931,0.663c0.481,-0.037 0.841,-0.404 0.811,-0.81c-0.035,-0.404 -0.453,-0.704 -0.93,-0.663c-0.481,0.037 -0.846,0.401 -0.812,0.81Z" style="fill:#fff;fill-rule:nonzero;"/><path d="M134.86,131.145c-0.063,-0.099 -1.592,-2.423 -4.718,-4.82c-1.959,-1.503 -3.878,-2.646 -5.869,-3.497c-2.421,-1.018 -5.027,-1.737 -7.552,-2.082c-2.284,-0.254 -4.815,-0.187 -7.768,0.211c-2.254,0.429 -4.453,1.099 -6.32,1.923c-1.33,0.458 -2.382,1.101 -3.226,1.619c-0.323,0.199 -0.616,0.378 -0.914,0.538l-4.025,2.531l4.639,-1.09c0.216,-0.055 0.45,-0.116 0.701,-0.182c0.96,-0.255 2.154,-0.572 3.554,-0.777c0.328,-0.048 0.662,-0.114 1.002,-0.183c0.583,-0.115 1.187,-0.236 1.82,-0.266c0.702,-0.046 1.43,-0.099 2.179,-0.152l0.975,-0.071c2.568,-0.032 4.738,0.162 6.667,0.607c2.106,0.363 4.272,1.043 6.258,1.963c1.875,0.897 3.673,1.787 5.076,2.817c2.833,1.891 4.41,3.468 4.426,3.484c0.389,0.392 0.909,0.594 1.432,0.594c0.381,0 0.763,-0.108 1.097,-0.327c0.934,-0.612 1.196,-1.871 0.602,-2.779l-0.036,-0.061Z" style="fill:#030405;fill-rule:nonzero;"/><path d="M192.558,125.018c-0.266,-0.141 -0.56,-0.321 -0.884,-0.519c-0.844,-0.518 -1.895,-1.161 -3.186,-1.604c-1.906,-0.839 -4.104,-1.509 -6.386,-1.943c-2.928,-0.393 -5.46,-0.46 -7.753,-0.205c-2.512,0.344 -5.119,1.063 -7.543,2.081c-1.962,0.84 -3.936,2.017 -5.866,3.497c-3.07,2.353 -4.596,4.637 -4.711,4.813l-0.029,0.041c-0.518,0.798 -0.407,1.866 0.263,2.539c0.382,0.384 0.889,0.596 1.428,0.596l0.001,0c0.54,-0.001 1.046,-0.213 1.426,-0.597l0.016,-0.017c0.149,-0.148 1.68,-1.644 4.428,-3.48c1.381,-1.014 3.18,-1.905 5.05,-2.8c1.993,-0.923 4.16,-1.603 6.294,-1.972c1.9,-0.439 4.073,-0.629 6.609,-0.602l1.022,0.073c0.743,0.053 1.465,0.105 2.172,0.152c0.623,0.029 1.225,0.15 1.81,0.265c0.34,0.069 0.673,0.135 1,0.183c1.401,0.205 2.595,0.522 3.555,0.777c0.251,0.066 0.485,0.128 0.708,0.183l4.636,1.09l-4.06,-2.551Z" style="fill:#030405;fill-rule:nonzero;"/><path d="M202.924,265.257c-6.051,0 -10.671,5.312 -9.918,11.316c0.835,6.657 1.307,14.215 1.307,22.795c0,0 -0.379,0.184 -1.143,0.702l-94.418,0c-0.759,-0.518 -1.143,-0.702 -1.143,-0.702c0,-8.575 0.474,-16.131 1.31,-22.798c0.752,-6.003 -3.869,-11.313 -9.919,-11.313l-0.13,0c7.729,-21.03 21.881,-27.709 28.396,-29.723c-0.016,0.205 -0.021,0.415 -0.021,0.625c0,9.626 12.645,17.473 28.529,17.878c0.436,0.016 0.871,0.021 1.307,0.021c16.325,0 29.6,-7.899 29.785,-17.688c7.15,2.798 19.159,10.143 26.058,28.887Z" style="fill:#5d4d53;fill-rule:nonzero;"/><path d="M142.669,203.2" style="fill:#be927b;fill-rule:nonzero;"/><path d="M142.669,203.2" style="fill:#be927b;fill-rule:nonzero;"/><path d="M139.029,200.459c-0.103,-0.022 -0.206,-0.042 -0.309,-0.066c0.101,0.023 0.19,0.041 0.309,0.066Z" style="fill:#be927b;fill-rule:nonzero;"/><path d="M142.669,200.263" style="fill:#be927b;fill-rule:nonzero;"/><path d="M138.228,200.28c-0.095,-0.024 -0.181,-0.051 -0.275,-0.077l-0.01,0.004c0,0 0.106,0.029 0.285,0.073Z" style="fill:#be927b;fill-rule:nonzero;"/><path d="M142.669,200.263" style="fill:#be927b;fill-rule:nonzero;"/><path d="M142.439,202.42" style="fill:#be927b;fill-rule:nonzero;"/><path d="M142.439,202.42" style="fill:#be927b;fill-rule:nonzero;"/><path d="M138.799,199.679c-0.103,-0.022 -0.206,-0.042 -0.309,-0.066c0.101,0.022 0.19,0.041 0.309,0.066Z" style="fill:#be927b;fill-rule:nonzero;"/><path d="M142.439,199.483" style="fill:#be927b;fill-rule:nonzero;"/><path d="M137.999,199.5c-0.096,-0.025 -0.182,-0.052 -0.276,-0.077l-0.01,0.004c0,0 0.106,0.029 0.286,0.073Z" style="fill:#be927b;fill-rule:nonzero;"/><path d="M142.439,199.483" style="fill:#be927b;fill-rule:nonzero;"/><path d="M143.031,202.222" style="fill:#be927b;fill-rule:nonzero;"/><path d="M143.031,202.222" style="fill:#be927b;fill-rule:nonzero;"/><path d="M139.513,199.572c-0.1,-0.021 -0.199,-0.041 -0.299,-0.064c0.098,0.022 0.184,0.04 0.299,0.064Z" style="fill:#be927b;fill-rule:nonzero;"/><path d="M143.031,199.383" style="fill:#be927b;fill-rule:nonzero;"/><path d="M138.739,199.399c-0.092,-0.023 -0.175,-0.05 -0.266,-0.074l-0.01,0.004c0,0 0.103,0.028 0.276,0.07Z" style="fill:#be927b;fill-rule:nonzero;"/><path d="M143.031,199.383" style="fill:#be927b;fill-rule:nonzero;"/><path d="M132.774,201.968c-0.24,-3.199 8.912,0.671 11.918,0.763c2.397,0.081 9.6,-0.474 10.266,-0.728c5.035,-1.883 -0.275,5.349 -10.415,5.73c-4.646,0.185 -11.631,-3.824 -11.769,-5.765Z" style="fill:#f0d2ad;fill-rule:nonzero;"/><path d="M162.941,194.283c-5.804,-1.086 -18.031,0.073 -18.031,0.073c-10.083,1.675 -17.974,-0.107 -18.032,-0.038c-0.24,0.024 8.053,11.023 17.894,10.516c9.842,0.507 18.41,-10.516 18.169,-10.551Z" style="fill:#c2646e;fill-rule:nonzero;"/><path d="M150.741,191.961c-2.615,-0.289 -4.478,1.597 -5.819,1.459c-1.366,0.127 -3.139,-1.083 -5.77,-1.109c-3.7,-0.036 -5.506,-0.361 -12.274,2.007c0.241,0.462 4.577,2.972 12.698,3.11c0.115,0 2.294,1.236 5.391,1.214c1.939,-0.012 4.599,-1.306 4.703,-1.306c8.133,-0.127 13.099,-2.544 13.328,-2.994c-8.946,-2.773 -8.237,-2.417 -12.257,-2.381Z" style="fill:#d87475;fill-rule:nonzero;"/><path d="M111.95,169.312c-10.022,0 -18.472,-6.718 -21.045,-15.882c-0.525,-1.87 -0.808,-3.845 -0.808,-5.882c0,-12.019 9.784,-21.758 21.853,-21.758c12.068,0 21.852,9.739 21.852,21.758c0,2.18 -0.321,4.289 -0.924,6.275c-2.706,8.959 -11.051,15.489 -20.928,15.489Zm25.847,-36.594c-1.157,0.26 -2.612,0.614 -3.624,-0.017c-2.856,-1.776 -6.917,-5.993 -6.917,-5.993c-17.331,-12.91 -45.641,0 -45.641,0c-3.243,10.764 2.755,23.324 5.981,28.974c1.085,1.904 1.86,3.022 1.86,3.022c9.124,18.073 28.857,13.092 28.857,13.092c8.903,-1.577 14.343,-9.263 17.37,-15.566c2.28,-4.731 3.193,-8.682 3.193,-8.682c1.754,-5.993 5.811,-5.622 5.811,-5.622l0,-10.143c-0.913,-0.327 -4.732,0.454 -6.89,0.935Z" style="fill:#79b6e3;fill-rule:nonzero;"/><path d="M111.95,169.312c-10.022,0 -18.472,-6.718 -21.045,-15.882c0.089,-0.056 0.179,-0.112 0.27,-0.168c3.748,-2.327 8.623,-4.725 14.156,-5.947c1.922,3.018 4.245,5.407 6.923,5.929c1.693,0.33 3.415,0.462 5.084,0.462c6.445,0.001 12.12,-1.964 12.447,-2.08c0.896,0.573 1.792,1.199 2.688,1.884c0.031,0.023 0.061,0.047 0.092,0.07c0.073,0.056 0.149,0.115 0.222,0.172c0.031,0.024 0.06,0.047 0.091,0.071c-2.706,8.959 -11.051,15.489 -20.928,15.489Z" style="fill:#cf573c;fill-rule:nonzero;"/><path d="M117.338,153.706c-1.669,0 -3.391,-0.132 -5.084,-0.462c-2.678,-0.522 -5.001,-2.911 -6.923,-5.929c1.553,-0.343 3.16,-0.593 4.806,-0.723c1.521,1.837 3.82,3.007 6.391,3.007c1.934,0 3.713,-0.662 5.124,-1.771c2.481,0.76 5,1.875 7.524,3.418c0.003,0.184 0.006,0.368 0.009,0.549c0.267,-0.111 0.443,-0.175 0.539,-0.208c0.021,0.014 0.041,0.026 0.061,0.039c-0.327,0.116 -6.002,2.081 -12.447,2.08Z" style="fill:#d5664e;fill-rule:nonzero;"/><path d="M129.185,151.795c-0.003,-0.181 -0.006,-0.365 -0.009,-0.549c0.183,0.111 0.365,0.225 0.548,0.341c-0.096,0.033 -0.272,0.097 -0.539,0.208Z" style="fill:#cd553c;fill-rule:nonzero;"/><path d="M116.528,149.599c-2.571,0 -4.87,-1.17 -6.391,-3.007c0.831,-0.066 1.67,-0.1 2.521,-0.101l0.045,0c0.782,0.001 1.572,0.031 2.369,0.092c0.34,0.13 0.699,0.215 1.071,0.246c0.108,0.009 0.214,0.013 0.321,0.013c0.194,0 0.386,-0.015 0.576,-0.043c1.519,0.216 3.058,0.553 4.612,1.029c-1.411,1.109 -3.19,1.771 -5.124,1.771Z" style="fill:#a12d24;fill-rule:nonzero;"/><path d="M116.464,146.842c-0.107,0 -0.213,-0.004 -0.321,-0.013c-0.372,-0.031 -0.731,-0.116 -1.071,-0.246c0.651,0.05 1.308,0.121 1.968,0.216c-0.19,0.028 -0.382,0.043 -0.576,0.043Z" style="fill:#b32e25;fill-rule:nonzero;"/><path d="M132.878,153.823c-0.031,-0.024 -0.06,-0.047 -0.091,-0.071c-0.073,-0.057 -0.149,-0.116 -0.222,-0.172c-0.031,-0.023 -0.061,-0.047 -0.092,-0.07c-0.896,-0.685 -1.792,-1.311 -2.688,-1.884c0.01,-0.003 0.015,-0.005 0.015,-0.005c0,0 0.001,-0.02 0.002,-0.059c0.007,-0.002 0.01,-0.003 0.01,-0.003c0,0 0.348,-9.461 -0.487,-17.208c2.809,3.66 4.477,8.234 4.477,13.197c0,2.18 -0.321,4.289 -0.924,6.275Zm-41.973,-0.393c-0.525,-1.87 -0.808,-3.845 -0.808,-5.882c0,-8.651 5.069,-16.121 12.41,-19.628c-1.165,1.011 -2.36,2.167 -3.582,3.483c0,0 0.003,0.015 0.01,0.045c-0.005,0.006 -0.011,0.012 -0.016,0.018c0,0 2.284,9.371 6.411,15.849c-5.532,1.221 -10.407,3.62 -14.155,5.947c-0.091,0.056 -0.181,0.112 -0.27,0.168Z" style="fill:#d97351;fill-rule:nonzero;"/><path d="M129.785,151.626c-0.02,-0.013 -0.04,-0.025 -0.061,-0.039c0.04,-0.013 0.066,-0.021 0.078,-0.025c-0.001,0.039 -0.002,0.059 -0.002,0.059c0,0 -0.005,0.002 -0.015,0.005Zm-0.609,-0.381c-2.525,-1.543 -5.042,-2.657 -7.524,-3.417c1.93,-1.519 3.17,-3.876 3.17,-6.522c0,-4.581 -3.713,-8.294 -8.294,-8.294c-4.58,0 -8.294,3.713 -8.294,8.294c0,2.009 0.715,3.851 1.903,5.286c-1.647,0.13 -3.252,0.38 -4.807,0.723c-4.127,-6.478 -6.411,-15.849 -6.411,-15.849c0.005,-0.006 0.011,-0.012 0.016,-0.018c0.082,0.339 0.629,2.57 1.639,5.439c6.065,-5.666 11.363,-7.448 15.644,-7.448c4.25,0 7.498,1.758 9.493,3.219c2.628,1.862 3.332,11.385 3.465,18.587Z" style="fill:#e58a71;fill-rule:nonzero;"/><path d="M129.724,151.587c-0.183,-0.116 -0.365,-0.23 -0.548,-0.342c-0.133,-7.202 -0.837,-16.725 -3.465,-18.587c-1.995,-1.461 -5.243,-3.219 -9.493,-3.219c-4.281,0 -9.579,1.782 -15.644,7.448c-1.01,-2.869 -1.557,-5.1 -1.639,-5.439c-0.007,-0.03 -0.01,-0.045 -0.01,-0.045c1.222,-1.316 2.417,-2.472 3.582,-3.483c2.858,-1.366 6.061,-2.13 9.443,-2.13c7.085,0 13.383,3.356 17.375,8.561c0.835,7.747 0.487,17.208 0.487,17.208c0,0 -0.003,0.001 -0.01,0.003c-0.012,0.004 -0.038,0.012 -0.078,0.025Z" style="fill:#d67051;fill-rule:nonzero;"/><path d="M121.652,147.828c-1.553,-0.476 -3.093,-0.813 -4.611,-1.029c0.847,-0.129 1.639,-0.532 2.287,-1.129c0.039,0.008 0.078,0.013 0.119,0.016c0.029,0.003 0.058,0.004 0.087,0.004c0.44,0 0.81,-0.287 0.843,-0.667c0.014,-0.17 -0.04,-0.331 -0.143,-0.465c0.401,-0.666 0.663,-1.439 0.731,-2.268c0.213,-2.657 -1.623,-5.072 -4.018,-5.268c-0.108,-0.009 -0.215,-0.014 -0.321,-0.014c-1.29,0 -2.501,0.65 -3.343,1.676c-0.025,-0.001 -0.05,-0.001 -0.075,-0.001c-0.885,0 -1.624,0.572 -1.689,1.341c-0.04,0.494 0.215,0.958 0.637,1.263c-0.012,0.089 -0.021,0.179 -0.029,0.269c-0.184,2.245 1.099,4.318 2.945,5.027c-0.797,-0.061 -1.587,-0.091 -2.369,-0.092l-0.045,0c-0.851,0.001 -1.69,0.036 -2.521,0.101c-1.188,-1.435 -1.903,-3.277 -1.903,-5.286c0,-4.581 3.714,-8.294 8.294,-8.294c4.581,0 8.294,3.713 8.294,8.294c0,2.646 -1.24,5.003 -3.17,6.522Z" style="fill:#8d3023;fill-rule:nonzero;"/><path d="M117.041,146.799c-0.661,-0.095 -1.317,-0.166 -1.969,-0.216c-1.846,-0.709 -3.129,-2.782 -2.945,-5.027c0.008,-0.09 0.017,-0.18 0.029,-0.269c0.269,0.195 0.607,0.325 0.981,0.356c0,0.002 0,0.003 0,0.004c-0.184,2.253 1.546,4.082 3.213,4.223c0.07,0.006 0.14,0.009 0.211,0.009c0.707,0 1.459,-0.285 2.096,-0.786c0.075,0.279 0.334,0.51 0.671,0.577c-0.648,0.597 -1.44,1 -2.287,1.129Zm3.193,-2.241c-0.145,-0.189 -0.386,-0.323 -0.668,-0.345c-0.026,-0.002 -0.051,-0.003 -0.076,-0.004c0.387,-0.555 0.652,-1.226 0.713,-1.979c0.183,-2.253 -1.542,-4.09 -3.21,-4.231c-0.07,-0.006 -0.14,-0.009 -0.21,-0.009c-0.829,0 -1.717,0.39 -2.41,1.061c-0.272,-0.199 -0.615,-0.331 -0.995,-0.361c-0.032,-0.003 -0.064,-0.005 -0.095,-0.006c0.842,-1.026 2.053,-1.676 3.343,-1.676c0.106,0 0.213,0.005 0.321,0.014c2.395,0.196 4.231,2.611 4.018,5.268c-0.068,0.829 -0.33,1.602 -0.731,2.268Z" style="fill:#ab3526;fill-rule:nonzero;"/><path d="M116.561,145.879c-0.071,0 -0.141,-0.003 -0.211,-0.009c-1.667,-0.141 -3.397,-1.97 -3.213,-4.223c0,-0.001 0,-0.002 0,-0.004c0.057,0.005 0.113,0.007 0.169,0.007c0.885,0 1.629,-0.572 1.694,-1.337c0.039,-0.495 -0.211,-0.957 -0.627,-1.262c0.693,-0.671 1.581,-1.061 2.41,-1.061c0.07,0 0.14,0.003 0.21,0.009c1.668,0.141 3.393,1.978 3.21,4.231c-0.061,0.753 -0.326,1.424 -0.713,1.979c-0.004,0 -0.007,0 -0.01,0c-0.44,0 -0.811,0.288 -0.844,0.668c-0.005,0.074 0.002,0.146 0.021,0.216c-0.637,0.501 -1.389,0.786 -2.096,0.786Z" style="fill:#783224;fill-rule:nonzero;"/><path d="M113.306,141.65c-0.056,0 -0.112,-0.002 -0.169,-0.007c-0.374,-0.031 -0.712,-0.161 -0.981,-0.356c-0.422,-0.305 -0.677,-0.769 -0.637,-1.263c0.065,-0.769 0.804,-1.341 1.689,-1.341c0.025,0 0.05,0 0.075,0.001c0.031,0.001 0.063,0.003 0.095,0.006c0.38,0.03 0.723,0.162 0.995,0.361c0.416,0.305 0.666,0.767 0.627,1.262c-0.065,0.765 -0.809,1.337 -1.694,1.337Z" style="fill:#e58a71;fill-rule:nonzero;"/><path d="M119.534,145.69c-0.029,0 -0.058,-0.001 -0.087,-0.004c-0.041,-0.003 -0.08,-0.008 -0.119,-0.016c-0.337,-0.067 -0.596,-0.298 -0.671,-0.577c-0.019,-0.07 -0.026,-0.142 -0.021,-0.216c0.033,-0.38 0.404,-0.668 0.844,-0.668c0.003,0 0.006,0 0.01,0c0.025,0.001 0.05,0.002 0.076,0.004c0.282,0.022 0.523,0.156 0.668,0.345c0.103,0.134 0.157,0.295 0.143,0.465c-0.033,0.38 -0.403,0.667 -0.843,0.667Z" style="fill:#e58a71;fill-rule:nonzero;"/><path d="M132.787,153.752c-0.073,-0.057 -0.149,-0.116 -0.222,-0.172c0.073,0.056 0.149,0.115 0.222,0.172Zm-0.314,-0.242c-0.896,-0.685 -1.792,-1.311 -2.688,-1.884c0.896,0.573 1.792,1.199 2.688,1.884Z" style="fill:#d23e2f;fill-rule:nonzero;"/><path d="M129.785,151.626c-0.02,-0.013 -0.04,-0.025 -0.061,-0.039c0.021,0.014 0.041,0.026 0.061,0.039Zm-0.609,-0.38c-2.524,-1.543 -5.043,-2.658 -7.524,-3.418c2.482,0.76 4.999,1.874 7.524,3.417l0,0.001Z" style="fill:#d54635;fill-rule:nonzero;"/><path d="M129.724,151.587c-0.183,-0.116 -0.365,-0.23 -0.548,-0.341l0,-0.001c0.183,0.112 0.365,0.226 0.548,0.342Z" style="fill:#d13d2f;fill-rule:nonzero;"/><path d="M121.652,147.828c-1.554,-0.476 -3.093,-0.813 -4.612,-1.029l0.001,0c1.518,0.216 3.058,0.553 4.611,1.029Zm-6.58,-1.245c-0.797,-0.061 -1.587,-0.091 -2.369,-0.092c0.782,0.001 1.572,0.031 2.369,0.092Z" style="fill:#bc2826;fill-rule:nonzero;"/><path d="M117.04,146.799c-0.66,-0.095 -1.317,-0.166 -1.968,-0.216c0.652,0.05 1.308,0.121 1.969,0.216l-0.001,0Z" style="fill:#c32726;fill-rule:nonzero;"/><path d="M177.418,169.312c-9.634,0 -17.813,-6.209 -20.718,-14.831c-0.736,-2.174 -1.134,-4.509 -1.134,-6.933c0,-12.019 9.783,-21.758 21.852,-21.758c12.068,0 21.851,9.739 21.851,21.758c0,1.749 -0.204,3.453 -0.597,5.08c-2.296,9.567 -10.939,16.684 -21.254,16.684Zm30.335,-42.604c0,0 -28.305,-12.91 -45.641,0c0,0 -4.056,4.217 -6.917,5.993c-1.007,0.631 -2.462,0.277 -3.625,0.017c-2.158,-0.481 -5.971,-1.262 -6.883,-0.935l0,10.143c0,0 4.055,-0.371 5.804,5.622c0,0 0.957,4.133 3.353,9.008c3.055,6.237 8.462,13.691 17.21,15.24c0,0 19.733,4.981 28.863,-13.092c0,0 0.886,-1.284 2.103,-3.442c3.265,-5.833 8.898,-18.05 5.733,-28.554Z" style="fill:#79b6e3;fill-rule:nonzero;"/><path d="M177.418,169.312c-9.634,0 -17.813,-6.209 -20.718,-14.831c0.022,-0.015 0.045,-0.03 0.067,-0.045c0.05,-0.034 0.102,-0.069 0.152,-0.103c0.111,-0.074 0.223,-0.149 0.336,-0.223c1.401,-0.926 2.995,-1.888 4.752,-2.805c2.023,0.599 6.445,1.716 11.305,1.716c1.669,0 3.39,-0.132 5.083,-0.462c2.595,-0.506 4.856,-2.766 6.744,-5.652c4.362,0.726 8.887,2.461 13.411,5.635c0.041,0.028 0.082,0.057 0.122,0.086c-2.296,9.567 -10.939,16.684 -21.254,16.684Z" style="fill:#d25b40;fill-rule:nonzero;"/><path d="M173.312,153.021c-4.86,0 -9.282,-1.117 -11.305,-1.716c2.456,-1.281 5.23,-2.474 8.236,-3.351c1.157,0.613 2.476,0.96 3.876,0.96c2.287,0 4.357,-0.925 5.858,-2.422l0.127,0c1.646,0.001 3.328,0.131 5.035,0.415c-1.888,2.886 -4.149,5.146 -6.744,5.652c-1.693,0.33 -3.414,0.462 -5.083,0.462Z" style="fill:#d5664e;fill-rule:nonzero;"/><path d="M174.119,148.914c-1.4,0 -2.719,-0.347 -3.876,-0.96c3.036,-0.886 6.31,-1.451 9.734,-1.462c-1.501,1.497 -3.571,2.422 -5.858,2.422Z" style="fill:#a12d24;fill-rule:nonzero;"/><path d="M156.7,154.481c-0.736,-2.174 -1.134,-4.509 -1.134,-6.933c0,-5.734 2.227,-10.95 5.867,-14.837c-0.974,7.9 -0.596,18.162 -0.596,18.162c0,0 0.003,0.001 0.009,0.003c0.001,0.039 0.002,0.06 0.002,0.06c0,0 0.419,0.149 1.159,0.369c-1.757,0.917 -3.351,1.879 -4.752,2.805c-0.113,0.074 -0.225,0.149 -0.336,0.223c-0.05,0.034 -0.102,0.069 -0.152,0.103c-0.022,0.015 -0.045,0.03 -0.067,0.045Zm41.972,-1.853c-0.04,-0.029 -0.081,-0.058 -0.122,-0.086c-4.525,-3.175 -9.048,-4.909 -13.411,-5.635c3.824,-5.849 6.111,-14.266 6.523,-15.86c4.658,3.989 7.607,9.902 7.607,16.501c0,1.749 -0.204,3.453 -0.597,5.08Z" style="fill:#df7a57;fill-rule:nonzero;"/><path d="M162.007,151.305c-0.74,-0.22 -1.159,-0.369 -1.159,-0.369c0,0 -0.001,-0.021 -0.002,-0.06c0.043,0.014 0.239,0.076 0.617,0.234c0.107,-7.258 0.779,-17.227 3.473,-19.137c1.996,-1.461 5.244,-3.219 9.494,-3.219c4.281,0 9.579,1.782 15.644,7.448c0.861,-2.445 1.386,-4.427 1.572,-5.169c0.006,0.005 0.01,0.009 0.016,0.014c-0.412,1.594 -2.699,10.011 -6.523,15.86c-1.706,-0.284 -3.389,-0.414 -5.035,-0.415l-0.127,0c1.505,-1.501 2.436,-3.578 2.436,-5.872c0,-4.58 -3.713,-8.294 -8.294,-8.294c-4.58,0 -8.293,3.714 -8.293,8.294c0,3.18 1.79,5.942 4.417,7.334c-3.007,0.877 -5.78,2.069 -8.236,3.351Z" style="fill:#e58a71;fill-rule:nonzero;"/><path d="M161.463,151.11c-0.378,-0.158 -0.574,-0.22 -0.617,-0.234c-0.006,-0.002 -0.009,-0.003 -0.009,-0.003c0,0 -0.378,-10.262 0.596,-18.162c3.989,-4.259 9.674,-6.921 15.985,-6.921c5.434,0 10.405,1.975 14.228,5.243c-0.186,0.742 -0.711,2.724 -1.572,5.169c-6.065,-5.666 -11.363,-7.448 -15.644,-7.448c-4.25,0 -7.498,1.758 -9.494,3.219c-2.694,1.91 -3.366,11.879 -3.473,19.137Z" style="fill:#d67051;fill-rule:nonzero;"/><path d="M170.243,147.954c-2.627,-1.392 -4.417,-4.154 -4.417,-7.334c0,-4.58 3.713,-8.294 8.293,-8.294c4.581,0 8.294,3.714 8.294,8.294c0,2.294 -0.931,4.371 -2.436,5.872c-3.424,0.011 -6.698,0.576 -9.734,1.462Zm1.077,-2.969c0.794,0.73 1.803,1.172 2.865,1.172c0.107,0 0.213,-0.004 0.32,-0.013c2.395,-0.198 4.233,-2.615 4.015,-5.273c-0.007,-0.09 -0.017,-0.179 -0.028,-0.268c0.422,-0.305 0.677,-0.769 0.637,-1.264c-0.065,-0.769 -0.804,-1.342 -1.69,-1.342c-0.025,0 -0.05,0 -0.074,0.001c-0.842,-1.026 -2.052,-1.675 -3.342,-1.675c-0.107,0 -0.214,0.005 -0.322,0.014c-2.394,0.196 -4.23,2.611 -4.019,5.267c0.068,0.83 0.33,1.603 0.732,2.268c-0.103,0.135 -0.158,0.296 -0.144,0.466c0.034,0.38 0.404,0.667 0.844,0.667c0.029,0 0.058,-0.001 0.087,-0.004c0.04,-0.003 0.08,-0.008 0.119,-0.016Z" style="fill:#8d3023;fill-rule:nonzero;"/><path d="M174.185,146.157c-1.062,0 -2.071,-0.442 -2.865,-1.172c0.336,-0.067 0.595,-0.297 0.671,-0.577c0.637,0.501 1.388,0.786 2.096,0.786c0.071,0 0.141,-0.003 0.211,-0.009c1.667,-0.142 3.397,-1.97 3.213,-4.223c0,-0.001 0,-0.002 0,-0.003c0.374,-0.032 0.711,-0.162 0.981,-0.356c0.011,0.089 0.021,0.178 0.028,0.268c0.218,2.658 -1.62,5.075 -4.015,5.273c-0.107,0.009 -0.213,0.013 -0.32,0.013Zm-3.771,-2.285c-0.402,-0.665 -0.664,-1.438 -0.732,-2.268c-0.211,-2.656 1.625,-5.071 4.019,-5.267c0.108,-0.009 0.215,-0.014 0.322,-0.014c1.29,0 2.5,0.649 3.342,1.675c-0.032,0.002 -0.063,0.003 -0.095,0.006c-0.38,0.031 -0.723,0.163 -0.995,0.362c-0.693,-0.671 -1.581,-1.061 -2.41,-1.061c-0.071,0 -0.141,0.003 -0.21,0.009c-1.668,0.141 -3.393,1.978 -3.21,4.231c0.062,0.753 0.326,1.424 0.713,1.979c-0.025,0.001 -0.051,0.002 -0.076,0.004c-0.282,0.022 -0.523,0.155 -0.668,0.344Z" style="fill:#ab3526;fill-rule:nonzero;"/><path d="M174.087,145.194c-0.708,0 -1.459,-0.285 -2.096,-0.786c0.019,-0.07 0.026,-0.143 0.021,-0.217c-0.033,-0.379 -0.403,-0.667 -0.843,-0.667c-0.003,0 -0.007,0 -0.011,0c-0.387,-0.555 -0.651,-1.226 -0.713,-1.979c-0.183,-2.253 1.542,-4.09 3.21,-4.231c0.069,-0.006 0.139,-0.009 0.21,-0.009c0.829,0 1.717,0.39 2.41,1.061c-0.416,0.305 -0.666,0.767 -0.627,1.262c0.066,0.765 0.809,1.337 1.694,1.337c0.056,0 0.112,-0.002 0.169,-0.006c0,0.001 0,0.002 0,0.003c0.184,2.253 -1.546,4.081 -3.213,4.223c-0.07,0.006 -0.14,0.009 -0.211,0.009Z" style="fill:#783224;fill-rule:nonzero;"/><path d="M177.342,140.965c-0.885,0 -1.628,-0.572 -1.694,-1.337c-0.039,-0.495 0.211,-0.957 0.627,-1.262c0.272,-0.199 0.615,-0.331 0.995,-0.362c0.032,-0.003 0.063,-0.004 0.095,-0.006c0.024,-0.001 0.049,-0.001 0.074,-0.001c0.886,0 1.625,0.573 1.69,1.342c0.04,0.495 -0.215,0.959 -0.637,1.264c-0.27,0.194 -0.607,0.324 -0.981,0.356c-0.057,0.004 -0.113,0.006 -0.169,0.006Z" style="fill:#e58a71;fill-rule:nonzero;"/><path d="M171.114,145.005c-0.44,0 -0.81,-0.287 -0.844,-0.667c-0.014,-0.17 0.041,-0.331 0.144,-0.466c0.145,-0.189 0.386,-0.322 0.668,-0.344c0.025,-0.002 0.051,-0.003 0.076,-0.004c0.004,0 0.008,0 0.011,0c0.44,0 0.81,0.288 0.843,0.667c0.005,0.074 -0.002,0.147 -0.021,0.217c-0.076,0.28 -0.335,0.51 -0.671,0.577c-0.039,0.008 -0.079,0.013 -0.119,0.016c-0.029,0.003 -0.058,0.004 -0.087,0.004Z" style="fill:#e58a71;fill-rule:nonzero;"/><path d="M198.55,152.542c-4.524,-3.174 -9.049,-4.909 -13.411,-5.635c4.363,0.726 8.886,2.46 13.411,5.635Z" style="fill:#d34130;fill-rule:nonzero;"/><path d="M185.139,146.907c-1.707,-0.284 -3.389,-0.414 -5.035,-0.415c1.646,0.001 3.329,0.131 5.035,0.415Zm-5.081,-0.415c0.008,0 0.015,0 0.022,0c-0.007,0 -0.014,0 -0.022,0Z" style="fill:#d54635;fill-rule:nonzero;"/><path d="M227.406,119.567l-0.271,0.043c-0.435,-4.273 -1.492,-9.489 -3.835,-14.804c-0.79,-4.585 -1.928,-9.336 -3.519,-14.226c-10.344,-31.791 -24.989,-43.627 -42.879,-50.529c-9.214,-3.548 -21.982,-3.246 -32.218,-2.123c-10.236,-1.123 -23.004,-1.425 -32.217,2.123c-17.892,6.902 -32.535,18.738 -42.881,50.529c-1.59,4.89 -2.728,9.641 -3.518,14.226c-2.342,5.315 -3.4,10.531 -3.835,14.804l-0.271,-0.043c0,0 -9.011,50.009 -34.399,59.993c0,0 13.541,3.475 26.911,-10.487c4.907,-5.125 13.254,-3.266 15.455,3.584l0.063,0.197c1.648,5.153 2.923,11.212 3.904,17.715c0.321,-2.572 0.696,-5.105 1.17,-7.529c0.125,-0.657 0.259,-1.318 0.395,-1.964c0.163,-0.757 0.346,-1.463 0.516,-2.197c1.588,3.415 3.346,6.637 5.203,9.646c0.118,0.407 0.228,0.827 0.355,1.215c1.179,3.988 2.82,7.697 4.236,11.205c1.381,3.524 2.808,6.831 3.886,10.038c0.991,3.199 1.882,6.224 2.333,9.097c0.276,1.436 0.411,2.836 0.516,4.155c0.168,1.342 0.212,2.603 0.201,3.81c0.112,2.394 -0.117,4.506 -0.185,6.266c-0.401,3.501 -0.633,5.52 -0.633,5.52c0,0 0.208,-0.464 0.604,-1.339c0.36,-0.905 1.031,-2.166 1.627,-3.891c0.502,-1.729 1.321,-3.814 1.712,-6.32c0.533,-2.491 0.897,-5.365 0.826,-8.525c0.081,-4.207 -0.694,-8.866 -1.922,-13.638c6.583,6.991 11.824,10.83 11.824,10.83c0,0 -7.694,-9.388 -11.134,-18.756c-2.667,-7.272 -6.653,-19.754 -6.653,-38.135c0,-0.851 0.048,-1.711 0.119,-2.578c0.233,-0.995 0.439,-2.006 0.711,-2.984c1.805,-6.661 4.067,-12.865 6.02,-18.35c4.865,-9.794 10.541,-17.226 10.541,-17.226c0,0 -8.026,14.275 -9.603,29.979c-1.6,15.697 6.814,27.84 6.814,27.84c0,0 -1.681,-18.642 4.203,-33.482c2.955,-7.453 7.811,-13.953 15.762,-16.644l-0.013,0.035c-4.27,12.028 4.306,22.135 4.306,22.135c0,0 0.032,-3.017 0.881,-7.668c1.483,-8.123 5.477,-21.243 16.17,-32.064c10.693,10.821 14.687,23.941 16.17,32.064c0.849,4.651 0.881,7.668 0.881,7.668c0,0 8.576,-10.107 4.306,-22.135l-0.013,-0.035c7.951,2.691 12.807,9.191 15.762,16.644c5.885,14.84 4.203,33.482 4.203,33.482c0,0 8.413,-12.143 6.814,-27.84c-1.577,-15.704 -9.602,-29.979 -9.602,-29.979c0,0 5.675,7.432 10.541,17.226c1.952,5.485 4.214,11.689 6.019,18.35c0.273,0.978 0.478,1.989 0.711,2.984c0.071,0.867 0.119,1.727 0.119,2.578c0,18.381 -3.986,30.863 -6.653,38.135c-3.44,9.368 -11.133,18.756 -11.133,18.756c0,0 5.24,-3.839 11.823,-10.83c-1.228,4.772 -2.002,9.431 -1.922,13.638c-0.071,3.16 0.293,6.034 0.827,8.525c0.39,2.506 1.209,4.591 1.711,6.32c0.596,1.725 1.267,2.986 1.628,3.891c0.396,0.875 0.603,1.339 0.603,1.339c0,0 -0.232,-2.019 -0.633,-5.52c-0.068,-1.76 -0.297,-3.872 -0.185,-6.266c-0.011,-1.207 0.034,-2.468 0.202,-3.81c0.104,-1.319 0.239,-2.719 0.515,-4.155c0.451,-2.873 1.341,-5.898 2.333,-9.097c1.079,-3.207 2.505,-6.514 3.885,-10.038c1.417,-3.508 3.058,-7.217 4.237,-11.205c0.127,-0.388 0.238,-0.808 0.355,-1.215c1.857,-3.009 3.615,-6.231 5.203,-9.646c0.171,0.734 0.353,1.44 0.516,2.197c0.136,0.646 0.27,1.307 0.395,1.964c0.473,2.424 0.85,4.957 1.169,7.529c0.982,-6.503 2.256,-12.562 3.904,-17.715l0.065,-0.197c2.2,-6.85 10.547,-8.709 15.454,-3.584c13.371,13.962 26.911,10.487 26.911,10.487c-25.388,-9.984 -34.399,-59.993 -34.399,-59.993Z" style="fill:#b74e6c;fill-rule:nonzero;"/><path d="M123.148,280.916l-3.566,-3.563l-4.033,4.029l-4.033,-4.029l-3.567,3.563l4.033,4.034l-4.033,4.031l3.567,3.568l4.033,-4.032l4.033,4.032l3.566,-3.568l-4.033,-4.031l4.033,-4.034Z" style="fill:#d7878e;"/><path d="M143.228,280.916l-3.566,-3.563l-4.033,4.029l-4.033,-4.029l-3.566,3.563l4.033,4.034l-4.033,4.031l3.566,3.568l4.033,-4.032l4.033,4.032l3.566,-3.568l-4.032,-4.031l4.032,-4.034Z" style="fill:#d7878e;"/><path d="M163.309,280.916l-3.567,-3.563l-4.033,4.029l-4.032,-4.029l-3.567,3.563l4.033,4.034l-4.033,4.031l3.567,3.568l4.032,-4.032l4.033,4.032l3.567,-3.568l-4.033,-4.031l4.033,-4.034Z" style="fill:#d7878e;"/><path d="M183.389,280.916l-3.57,-3.563l-4.033,4.029l-4.032,-4.029l-3.567,3.563l4.033,4.034l-4.033,4.031l3.567,3.568l4.032,-4.032l4.033,4.032l3.57,-3.568l-4.033,-4.031l4.033,-4.034Z" style="fill:#d7878e;"/></g></svg>