<?xml version="1.0" encoding="UTF-8" standalone="no"?><!DOCTYPE svg PUBLIC "-//W3C//DTD SVG 1.1//EN" "http://www.w3.org/Graphics/SVG/1.1/DTD/svg11.dtd"><svg width="100%" height="100%" viewBox="0 0 297 301" version="1.1" xmlns="http://www.w3.org/2000/svg" xmlns:xlink="http://www.w3.org/1999/xlink" xml:space="preserve" style="fill-rule:evenodd;clip-rule:evenodd;stroke-linejoin:round;stroke-miterlimit:1.41421;"><g id="_46"><rect x="0" y="0.365" width="296.866" height="299.705" style="fill:#d6773e;fill-rule:nonzero;"/><path d="M148.148,187.8l0,112.27l-60.729,0c-0.989,-0.394 -1.481,-0.594 -1.481,-0.594c0,-14.331 2.101,-25.505 5.305,-34.219c7.729,-21.03 21.882,-27.709 28.396,-29.723c2.137,-0.661 3.455,-0.82 3.455,-0.82c0.23,0 0.446,-0.021 0.666,-0.057c1.912,-0.307 3.465,-1.968 4.71,-4.618c0.927,-1.968 1.702,-4.479 2.332,-7.386c0.252,-1.132 0.447,-2.275 0.646,-3.51c0.298,-2.077 0.59,-4.25 0.841,-6.525c0.097,-1.384 0.246,-2.717 0.395,-4.152c0.538,-6.868 0.691,-14.388 0.691,-21.507c0,0 8.155,0.841 14.773,0.841Z" style="fill:#e0bd9a;fill-rule:nonzero;"/><path d="M210.608,299.476c0,0 -0.543,0.2 -1.435,0.594l-61.025,0l0,-112.27l0.148,0c6.571,0 14.829,-0.841 14.829,-0.841c0,7.068 0.143,14.485 0.686,21.358c0.149,1.338 0.298,2.717 0.395,4.054c0.251,2.374 0.548,4.598 0.892,6.674l0,0.046c0.097,0.943 0.292,1.784 0.446,2.671c0.599,2.921 1.327,5.489 2.204,7.549c1.092,2.563 2.419,4.352 4.028,5.06c0.513,0.23 1.056,0.343 1.625,0.343c0,0 2.338,0.282 5.838,1.656c7.151,2.798 19.16,10.143 26.059,28.887c3.203,8.714 5.31,19.888 5.31,34.219Z" style="fill:#efd0ad;fill-rule:nonzero;"/><path d="M165.098,218.835l0,0.05c-1.532,2.357 -6.671,9.134 -16.85,9.134l-0.099,0c-9.636,-0.049 -15.269,-7.023 -16.702,-9.086c0.297,-2.062 0.593,-4.223 0.84,-6.482c0.099,-1.327 0.247,-2.702 0.396,-4.126c4.694,1.179 9.833,1.916 15.268,2.014l0.198,0c5.633,-0.098 10.822,-0.884 15.664,-2.161c0.148,1.326 0.296,2.701 0.395,4.027c0.248,2.357 0.544,4.568 0.89,6.63Z" style="fill:#be987f;fill-rule:nonzero;"/><path d="M193.448,265.257c2.003,9.042 3.239,20.241 3.239,34.111c0,0 -0.379,0.184 -1.143,0.702l-94.419,0c-0.758,-0.518 -1.143,-0.702 -1.143,-0.702c0,-13.844 1.236,-25.033 3.235,-34.111l-11.974,0c7.729,-21.03 21.882,-27.709 28.396,-29.723c-0.015,0.205 -0.021,0.415 -0.021,0.625c0,9.626 12.645,17.473 28.53,17.878c0.435,0.016 0.871,0.021 1.307,0.021c16.325,0 29.6,-7.899 29.784,-17.688c7.151,2.798 19.16,10.143 26.059,28.887l-11.85,0Z" style="fill:#554467;fill-rule:nonzero;"/><path d="M147.457,59.856c-64.336,0 -64.682,53.779 -61.816,88.993c-4.398,-8.349 -17.493,-5.795 -16.405,7.367c1.037,12.671 19.745,19.129 19.222,17.73c9.742,26.043 35.528,45.675 58.999,45.675l0.494,0l0,-159.765l-0.494,0Z" style="fill:#d2a686;fill-rule:nonzero;"/><path d="M147.803,59.856c64.336,0 64.682,53.779 61.865,88.993c4.398,-8.349 17.444,-5.795 16.356,7.367c-0.988,12.671 -19.733,19.134 -19.222,17.73c-9.49,26.043 -35.528,45.675 -58.999,45.675c-0.148,0 -0.346,0 -0.346,0l-0.148,-159.765c0,0 0.346,0 0.494,0Z" style="fill:#ddb598;fill-rule:nonzero;"/><path d="M146.951,75.032c-21.149,0 -36.665,6.139 -46.004,18.221c-13.095,16.944 -12.6,42.777 -7.807,61.342c1.482,5.697 2.273,20.971 3.261,26.571c4.596,25.096 32.317,38.455 50.55,38.455c0,0 0.346,0 0.494,0l0,-144.589c-0.148,0 -0.296,0 -0.296,0" style="fill:#e0bd9a;fill-rule:nonzero;"/><path d="M192.906,93.302c-9.29,-12.033 -24.608,-18.172 -45.461,-18.27l0,144.589c20.853,-0.245 45.806,-14.881 50.056,-38.455c1.038,-5.6 1.779,-20.874 3.261,-26.571c4.843,-18.515 5.337,-44.3 -7.856,-61.293Z" style="fill:#efd0ad;fill-rule:nonzero;"/><path d="M129.886,75.902l-0.267,0.268l0.045,0.089c0.09,-0.134 0.134,-0.268 0.222,-0.357Z" style="fill:#432e1b;fill-rule:nonzero;"/><path d="M101.292,131.466c0,0 4.908,20.135 13.335,21.779c8.426,1.642 17.547,-1.624 17.547,-1.624c0,0 0.871,-23.664 -3.443,-26.755c-4.311,-3.106 -14.25,-7.594 -27.439,6.6Z" style="fill:#fff;fill-rule:nonzero;"/><path d="M194.103,130.781c0,0 -4.908,20.135 -13.335,21.779c-8.426,1.642 -17.547,-1.624 -17.547,-1.624c0,0 -0.871,-23.664 3.443,-26.756c4.311,-3.105 14.25,-7.593 27.439,6.601Z" style="fill:#fff;fill-rule:nonzero;"/><path d="M73.337,150.666c3.162,-5.108 8.104,-2.897 9.29,-1.768c1.284,1.228 2.322,2.8 1.531,5.796c-0.444,1.719 -2.223,1.866 -1.828,4.42c0.494,2.897 1.828,3.045 2.619,3.732c0.741,0.639 1.68,1.13 2.125,2.358c0.494,1.228 0.543,2.505 0.296,3.634c-0.494,2.063 -3.508,0.393 -5.534,-0.491c-1.334,-0.638 -5.584,-4.224 -6.671,-5.403c-2.668,-3.044 -3.953,-8.938 -1.828,-12.278Z" style="fill:#ac8774;fill-rule:nonzero;"/><path d="M221.923,150.666c-3.163,-5.108 -8.054,-2.897 -9.29,-1.768c-1.284,1.228 -2.273,2.8 -1.531,5.796c0.444,1.719 2.223,1.866 1.828,4.42c-0.494,2.897 -1.828,3.045 -2.57,3.732c-0.741,0.639 -1.729,1.13 -2.174,2.358c-0.445,1.228 -0.543,2.505 -0.296,3.634c0.494,2.063 3.508,0.393 5.534,-0.491c1.384,-0.638 5.584,-4.224 6.671,-5.403c2.718,-3.044 3.953,-8.938 1.828,-12.278Z" style="fill:#ac8774;fill-rule:nonzero;"/><path d="M147.639,196.677" style="fill:#bc917b;fill-rule:nonzero;"/><path d="M147.638,196.677l0.001,0l-0.001,0Z" style="fill:#bc917b;fill-rule:nonzero;"/><path d="M144.071,193.99c-0.102,-0.022 -0.203,-0.041 -0.304,-0.065c0.1,0.023 0.187,0.041 0.304,0.065Z" style="fill:#bc917b;fill-rule:nonzero;"/><path d="M147.639,193.798" style="fill:#bc917b;fill-rule:nonzero;"/><path d="M143.286,193.815c-0.094,-0.024 -0.178,-0.051 -0.27,-0.076l-0.01,0.004c0,0 0.104,0.029 0.28,0.072Z" style="fill:#bc917b;fill-rule:nonzero;"/><path d="M147.638,193.798l0.001,0l-0.001,0Z" style="fill:#bc917b;fill-rule:nonzero;"/><path d="M135.442,172.704c-0.244,-4.996 9.178,-1.825 12.285,-1.669c2.454,0.125 9.922,-1.575 10.564,-1.137c4.393,2.962 -4.654,8.929 -10.721,8.929c-1.616,0 -11.981,-3.109 -12.128,-6.123Z" style="fill:#ddb598;fill-rule:nonzero;"/><path d="M88.519,126.341" style="fill:#432e1b;fill-rule:nonzero;"/><path d="M147.911,193.817" style="fill:#ba907b;fill-rule:nonzero;"/><path d="M147.91,193.817l0.001,0l-0.001,0Z" style="fill:#ba907b;fill-rule:nonzero;"/><path d="M144.246,191.057c-0.104,-0.022 -0.207,-0.043 -0.311,-0.066c0.102,0.022 0.191,0.041 0.311,0.066Z" style="fill:#ba907b;fill-rule:nonzero;"/><path d="M147.911,190.86" style="fill:#ba907b;fill-rule:nonzero;"/><path d="M143.44,190.877c-0.096,-0.025 -0.183,-0.052 -0.277,-0.078l-0.01,0.005c0,0 0.107,0.029 0.287,0.073Z" style="fill:#ba907b;fill-rule:nonzero;"/><path d="M147.91,190.86l0.001,0l-0.001,0Z" style="fill:#ba907b;fill-rule:nonzero;"/><path d="M132.185,151.559c0,0 -0.193,0.056 -0.626,0.236c-0.108,-7.258 -0.779,-17.227 -3.474,-19.137c-4.006,-2.933 -13.052,-7.061 -25.137,4.229c-1.099,-3.119 -1.65,-5.484 -1.65,-5.484c13.213,-14.22 23.16,-9.74 27.439,-6.632c4.32,3.104 3.448,26.788 3.448,26.788Z" style="fill:#d6b496;fill-rule:nonzero;"/><path d="M127.196,141.305c0,4.581 -3.714,8.294 -8.294,8.294c-4.581,0 -8.294,-3.713 -8.294,-8.294c0,-4.58 3.713,-8.293 8.294,-8.293c4.58,0 8.294,3.713 8.294,8.293Z" style="fill:#482315;fill-rule:nonzero;"/><path d="M118.517,146.829c-2.396,-0.198 -4.234,-2.615 -4.016,-5.272c0.214,-2.657 2.422,-4.736 4.819,-4.535c2.395,0.197 4.231,2.611 4.019,5.268c-0.218,2.657 -2.428,4.74 -4.822,4.539Z" style="fill:#7e3a22;fill-rule:nonzero;"/><path d="M118.723,145.87c-1.667,-0.141 -3.396,-1.971 -3.213,-4.223c0.188,-2.26 2.189,-3.785 3.856,-3.648c1.668,0.141 3.394,1.978 3.21,4.231c-0.183,2.256 -2.189,3.778 -3.853,3.64Z" style="fill:#211a10;fill-rule:nonzero;"/><path d="M148.043,196.192" style="fill:#ba907b;fill-rule:nonzero;"/><path d="M148.042,196.192l0.001,0l-0.001,0Z" style="fill:#ba907b;fill-rule:nonzero;"/><path d="M144.378,193.432c-0.104,-0.022 -0.208,-0.043 -0.311,-0.067c0.102,0.023 0.192,0.042 0.311,0.067Z" style="fill:#ba907b;fill-rule:nonzero;"/><path d="M148.043,193.235" style="fill:#ba907b;fill-rule:nonzero;"/><path d="M143.572,193.252c-0.096,-0.025 -0.183,-0.052 -0.277,-0.078l-0.01,0.004c0,0 0.107,0.03 0.287,0.074Z" style="fill:#ba907b;fill-rule:nonzero;"/><path d="M148.042,193.235l0.001,0l-0.001,0Z" style="fill:#ba907b;fill-rule:nonzero;"/><path d="M147.929,195.821" style="fill:#bc917b;fill-rule:nonzero;"/><path d="M147.929,195.821" style="fill:#bc917b;fill-rule:nonzero;"/><path d="M144.001,192.863c-0.112,-0.024 -0.222,-0.045 -0.334,-0.071c0.11,0.024 0.206,0.045 0.334,0.071Z" style="fill:#bc917b;fill-rule:nonzero;"/><path d="M147.929,192.652" style="fill:#bc917b;fill-rule:nonzero;"/><path d="M143.137,192.67c-0.103,-0.026 -0.196,-0.056 -0.297,-0.083l-0.011,0.005c0,0 0.115,0.031 0.308,0.078Z" style="fill:#bc917b;fill-rule:nonzero;"/><path d="M147.929,192.652" style="fill:#bc917b;fill-rule:nonzero;"/><path d="M147.681,194.979" style="fill:#bc917b;fill-rule:nonzero;"/><path d="M147.681,194.979" style="fill:#bc917b;fill-rule:nonzero;"/><path d="M143.753,192.021c-0.112,-0.024 -0.222,-0.045 -0.334,-0.071c0.11,0.024 0.206,0.044 0.334,0.071Z" style="fill:#bc917b;fill-rule:nonzero;"/><path d="M147.681,191.81" style="fill:#bc917b;fill-rule:nonzero;"/><path d="M142.889,191.828c-0.103,-0.026 -0.196,-0.056 -0.297,-0.083l-0.011,0.004c0,0 0.115,0.032 0.308,0.079Z" style="fill:#bc917b;fill-rule:nonzero;"/><path d="M147.681,191.81" style="fill:#bc917b;fill-rule:nonzero;"/><path d="M148.32,194.765" style="fill:#bc917b;fill-rule:nonzero;"/><path d="M148.32,194.765" style="fill:#bc917b;fill-rule:nonzero;"/><path d="M144.523,191.906c-0.108,-0.023 -0.215,-0.044 -0.322,-0.069c0.106,0.024 0.199,0.043 0.322,0.069Z" style="fill:#bc917b;fill-rule:nonzero;"/><path d="M148.32,191.702" style="fill:#bc917b;fill-rule:nonzero;"/><path d="M143.688,191.719c-0.099,-0.025 -0.189,-0.053 -0.287,-0.08l-0.01,0.005c0,0 0.11,0.03 0.297,0.075Z" style="fill:#bc917b;fill-rule:nonzero;"/><path d="M148.32,191.702" style="fill:#bc917b;fill-rule:nonzero;"/><path d="M163.21,150.874c0,0 0.193,0.056 0.626,0.236c0.108,-7.258 0.779,-17.227 3.474,-19.137c4.006,-2.933 13.052,-7.062 25.137,4.229c1.099,-3.119 1.65,-5.484 1.65,-5.484c-13.213,-14.22 -23.16,-9.74 -27.439,-6.633c-4.32,3.105 -3.448,26.789 -3.448,26.789Z" style="fill:#d6b496;fill-rule:nonzero;"/><path d="M168.199,140.62c0,4.581 3.714,8.294 8.294,8.294c4.58,0 8.294,-3.713 8.294,-8.294c0,-4.58 -3.714,-8.293 -8.294,-8.293c-4.58,0 -8.294,3.713 -8.294,8.293Z" style="fill:#482315;fill-rule:nonzero;"/><path d="M176.878,146.143c2.395,-0.197 4.234,-2.614 4.016,-5.271c-0.214,-2.657 -2.422,-4.736 -4.819,-4.535c-2.395,0.197 -4.231,2.611 -4.019,5.267c0.218,2.657 2.428,4.74 4.822,4.539Z" style="fill:#7e3a22;fill-rule:nonzero;"/><path d="M176.671,145.185c1.668,-0.142 3.397,-1.971 3.214,-4.223c-0.188,-2.26 -2.189,-3.785 -3.857,-3.648c-1.667,0.141 -3.393,1.978 -3.209,4.231c0.183,2.256 2.189,3.778 3.852,3.64Z" style="fill:#211a10;fill-rule:nonzero;"/><path d="M137.234,131.145c-0.063,-0.098 -1.593,-2.423 -4.719,-4.82c-1.958,-1.503 -3.879,-2.646 -5.869,-3.498c-2.42,-1.017 -5.027,-1.736 -7.552,-2.081c-2.283,-0.254 -4.814,-0.187 -7.767,0.211c-2.255,0.429 -4.453,1.099 -6.32,1.923c-1.331,0.458 -2.382,1.102 -3.226,1.619c-0.324,0.199 -0.617,0.378 -0.914,0.538l-4.026,2.531l4.639,-1.09c0.217,-0.055 0.45,-0.116 0.702,-0.183c0.959,-0.254 2.154,-0.571 3.554,-0.776c0.328,-0.048 0.661,-0.114 1.002,-0.182c0.583,-0.116 1.186,-0.237 1.819,-0.267c0.703,-0.047 1.431,-0.099 2.18,-0.153l0.974,-0.07c2.569,-0.032 4.739,0.163 6.667,0.607c2.107,0.363 4.273,1.043 6.258,1.963c1.875,0.897 3.673,1.787 5.076,2.817c2.834,1.891 4.411,3.468 4.426,3.484c0.389,0.392 0.909,0.594 1.433,0.594c0.38,0 0.763,-0.107 1.097,-0.327c0.933,-0.612 1.195,-1.871 0.601,-2.779l-0.035,-0.061Z" style="fill:#030405;fill-rule:nonzero;"/><path d="M194.931,125.018c-0.266,-0.141 -0.56,-0.321 -0.883,-0.519c-0.845,-0.518 -1.896,-1.161 -3.187,-1.604c-1.905,-0.839 -4.104,-1.509 -6.386,-1.942c-2.927,-0.394 -5.459,-0.462 -7.752,-0.206c-2.513,0.344 -5.12,1.063 -7.543,2.081c-1.963,0.84 -3.937,2.016 -5.867,3.497c-3.069,2.353 -4.596,4.637 -4.711,4.813l-0.028,0.041c-0.518,0.798 -0.407,1.866 0.263,2.539c0.382,0.384 0.888,0.595 1.428,0.595l0.001,0c0.539,0 1.045,-0.212 1.425,-0.596l0.017,-0.017c0.149,-0.148 1.68,-1.644 4.428,-3.48c1.381,-1.014 3.18,-1.905 5.05,-2.801c1.993,-0.922 4.159,-1.602 6.293,-1.971c1.9,-0.438 4.074,-0.629 6.609,-0.602l1.023,0.073c0.743,0.053 1.464,0.104 2.171,0.152c0.623,0.029 1.226,0.15 1.81,0.266c0.34,0.068 0.673,0.134 1.001,0.182c1.4,0.205 2.595,0.522 3.555,0.776c0.251,0.067 0.485,0.129 0.707,0.184l4.637,1.09l-4.061,-2.551Z" style="fill:#030405;fill-rule:nonzero;"/><path d="M168.231,192.152c-5.848,-1.707 -20.922,-4.793 -20.922,-4.793c-10.958,1.675 -19.495,4.725 -19.558,4.793c-0.262,0.024 9.826,10.532 20.522,10.024c10.697,0.508 20.22,-9.989 19.958,-10.024Z" style="fill:#c2646e;fill-rule:nonzero;"/><path d="M117.373,140.313c-0.069,0.814 -0.905,1.409 -1.863,1.33c-0.959,-0.081 -1.683,-0.809 -1.618,-1.619c0.07,-0.818 0.9,-1.413 1.859,-1.335c0.963,0.078 1.687,0.806 1.622,1.624Z" style="fill:#fff;fill-rule:nonzero;"/><path d="M122.75,145.023c-0.035,0.405 -0.452,0.704 -0.929,0.663c-0.482,-0.037 -0.842,-0.404 -0.811,-0.809c0.034,-0.405 0.452,-0.705 0.929,-0.664c0.482,0.038 0.846,0.401 0.811,0.81Z" style="fill:#fff;fill-rule:nonzero;"/><path d="M147.766,187.961l0,0.013l-0.11,-0.013l-0.108,0.013l0,-0.013c-1.593,0.123 -3.147,-0.15 -4.58,-0.551l0.004,0.003c-4.88,-1.53 -9.593,2.692 -10.189,3.251c-0.363,0.357 -0.791,0.642 -1.401,0.765l0.24,0.489c0.908,1.852 2.983,2.828 4.985,2.329c2.671,-0.665 6.724,-1.463 11.385,-1.676l0,-4.601l-0.226,-0.009Z" style="fill:#fff;fill-rule:nonzero;"/><path d="M148.218,187.961l0,0.013l0.109,-0.013l0.108,0.013l0,-0.013c1.594,0.123 3.148,-0.15 4.581,-0.551l-0.005,0.003c4.88,-1.53 9.594,2.692 10.189,3.251c0.363,0.357 0.791,0.642 1.401,0.765l-0.24,0.489c-0.907,1.852 -2.983,2.828 -4.985,2.329c-2.671,-0.665 -6.724,-1.463 -11.384,-1.676l0,-4.601l0.226,-0.009Z" style="fill:#fff;fill-rule:nonzero;"/><path d="M157.271,182.656c0,0 -1.581,0.616 -3.425,1.115l0.013,0.005c0,0 -0.125,0.034 -0.335,0.086c-0.191,0.049 -0.38,0.086 -0.575,0.132c-0.118,0.026 -0.223,0.048 -0.361,0.077c-0.322,0.069 -0.635,0.132 -0.95,0.181c-0.947,0.165 -2.098,0.319 -3.311,0.367l-0.001,0c-0.111,0.005 -0.223,0.005 -0.334,0.008c-0.112,-0.003 -0.224,-0.003 -0.335,-0.008l-0.001,0c-1.213,-0.048 -2.364,-0.202 -3.311,-0.367c-0.314,-0.049 -0.628,-0.112 -0.949,-0.181c-0.139,-0.029 -0.243,-0.051 -0.362,-0.077c-0.195,-0.046 -0.384,-0.083 -0.575,-0.132c-0.21,-0.052 -0.334,-0.086 -0.334,-0.086l0.012,-0.005c-1.843,-0.499 -3.425,-1.115 -3.425,-1.115c-5.763,-1.83 -10.961,9.496 -10.961,9.496l0.001,0l0.606,0.086c-0.181,0.97 0.252,-0.342 0.252,-0.342c0.628,0 1.498,-0.338 2.271,-0.406c0.18,-0.009 0.346,-0.03 0.501,-0.061c0.576,-0.117 0.988,-0.38 1.338,-0.709l-0.002,0.006l0.065,-0.062c0.596,-0.559 5.309,-4.781 10.189,-3.251l-0.004,-0.003c1.433,0.401 2.987,0.674 4.58,0.551l0,0.013l0.108,-0.013l0.11,0.013l0,-0.013l0.226,0.009l0.226,-0.009l0,0.013l0.109,-0.013l0.108,0.013l0,-0.013c1.593,0.123 3.148,-0.15 4.581,-0.551l-0.005,0.003c4.88,-1.53 9.594,2.692 10.189,3.251l0.065,0.062l-0.001,-0.006c0.35,0.329 0.761,0.592 1.337,0.709c0.155,0.031 0.321,0.052 0.501,0.061c0.773,0.068 1.643,0.406 2.272,0.406c0,0 0.432,1.312 0.251,0.342l0.606,-0.086l0.001,0c0,0 -5.198,-11.326 -10.961,-9.496Z" style="fill:#d67374;fill-rule:nonzero;"/><path d="M178.022,139.628c0.069,0.813 0.905,1.409 1.863,1.33c0.959,-0.081 1.682,-0.809 1.618,-1.619c-0.07,-0.818 -0.9,-1.413 -1.859,-1.335c-0.963,0.078 -1.687,0.805 -1.622,1.624Z" style="fill:#fff;fill-rule:nonzero;"/><path d="M172.644,144.338c0.035,0.405 0.453,0.704 0.93,0.663c0.482,-0.037 0.842,-0.404 0.811,-0.809c-0.034,-0.405 -0.452,-0.705 -0.93,-0.664c-0.481,0.037 -0.845,0.401 -0.811,0.81Z" style="fill:#fff;fill-rule:nonzero;"/><path d="M148.408,199.593l0,-0.008l0.066,0.007l0.065,-0.007l0,0.008c0.957,-0.074 1.891,0.089 2.752,0.331l-0.002,-0.002c2.932,0.919 5.764,-1.618 6.122,-1.954c0.218,-0.214 0.475,-0.385 0.841,-0.459l-0.144,-0.294c-0.545,-1.113 -1.792,-1.699 -2.995,-1.4c-1.605,0.4 -4.04,0.88 -6.84,1.007l0,2.765l0.135,0.006Z" style="fill:#fff;fill-rule:nonzero;"/><path d="M148.137,199.593l0,-0.008l-0.066,0.007l-0.065,-0.007l0,0.008c-0.957,-0.074 -1.891,0.089 -2.752,0.331l0.003,-0.002c-2.932,0.919 -5.765,-1.618 -6.122,-1.954c-0.218,-0.214 -0.476,-0.385 -0.842,-0.459l0.144,-0.294c0.545,-1.113 1.793,-1.699 2.995,-1.4c1.605,0.4 4.041,0.88 6.841,1.007l0,2.765l-0.136,0.006Z" style="fill:#fff;fill-rule:nonzero;"/><path d="M192.881,208.671c-0.043,-0.323 -0.089,-0.664 -0.135,-1.026c-0.063,-1.487 -0.278,-3.268 -0.173,-5.289c-0.01,-1.019 0.032,-2.083 0.191,-3.218c0.099,-1.111 0.226,-2.295 0.487,-3.506c0.427,-2.426 1.267,-4.979 2.205,-7.679c1.02,-2.706 2.368,-5.498 3.673,-8.47c1.338,-2.962 2.89,-6.093 4.005,-9.46c0.152,-0.418 0.29,-0.864 0.427,-1.308c-0.571,15.001 -4.058,25.404 -6.471,31.675c-1.098,2.861 -2.632,5.717 -4.209,8.281Zm34.628,-79.013c0.056,-9.19 -1.161,-19.569 -4.943,-30.697c-0.883,-2.584 -1.807,-4.984 -2.742,-7.286c0,-0.331 0,-0.657 0,-0.994c0,-9.744 -8.627,-22.375 -22.335,-34.654c-13.716,-12.261 -22.339,-9.737 -33.694,-9.386c0,0 -0.039,0.078 -0.092,0.2c-4.985,-1.066 -31.802,-6.374 -47.751,-0.502c-17.636,6.506 -32.064,17.661 -42.261,47.627c-10.183,29.954 -1.821,54.491 0.148,64.965c6.263,33.15 36.291,54.14 36.291,54.14c0,0 -7.582,-8.848 -10.97,-17.677c-2.632,-6.852 -6.56,-18.621 -6.56,-35.943c0,-17.329 17.139,-38.774 17.139,-38.774c0,0 -7.908,13.454 -9.46,28.255c-1.581,14.796 6.711,26.241 6.711,26.241c0,0 -10.498,-19.223 6.27,-33.569c5.332,-4.564 9.806,-9.334 13.408,-13.676l-0.014,0.033c-4.209,11.335 4.242,20.865 4.242,20.865c0,0 -0.156,-14.548 8.595,-19.491c21.316,-12.037 24.706,-17.011 27.709,-26.703c0.409,-1.325 0.639,-2.54 0.798,-3.725l19.481,28.025c0.917,1.224 2.406,3.285 4.135,5.952c1.002,1.538 2.074,3.273 3.158,5.147c0.247,0.749 0.504,1.482 0.734,2.244c0.935,2.991 1.626,6.107 2.078,9.246c0.194,1.179 0.303,2.367 0.388,3.561c0.123,1.977 0.113,3.958 -0.113,5.93c-0.099,0.741 -0.091,1.633 -0.229,2.295l-0.441,2.523c-0.371,1.519 -0.702,2.992 -1.242,4.575c-0.212,0.629 -0.427,1.254 -0.639,1.886c-0.826,2.473 -1.683,4.944 -2.614,7.398c-0.131,0.367 -0.265,0.742 -0.399,1.113c-0.551,1.508 -1.052,3.025 -1.5,4.528c-1.249,4.209 -2.036,8.326 -1.958,12.028c-0.067,2.669 0.278,5.093 0.783,7.195c0.367,2.116 1.143,3.877 1.616,5.335c0.297,0.766 0.611,1.418 0.893,1.98c-3.049,4.75 -6.009,8.208 -6.009,8.208c0,0 2.939,-2.054 7.166,-5.89l0.06,0.116l-0.021,-0.152c4.446,-4.037 10.303,-10.046 15.684,-17.698c-0.363,1.152 -0.765,2.292 -1.238,3.41c-5.409,12.821 -6.496,28.923 -3.254,37.865c3.254,8.941 11.193,18.48 11.193,18.48c0,0 -6.937,-10.801 -8.663,-24.735c-2.614,-21.132 14.337,-38.525 14.337,-59.514c0,-0.409 -0.021,-0.854 -0.057,-1.321c0.409,-1.545 0.78,-3.108 1.083,-4.711c0.65,-3.451 1.994,-8.44 3.137,-14.64c13.571,15.577 28.606,12.144 28.606,12.144c-13.151,-4.617 -21.644,-19.372 -26.644,-31.772Z" style="fill:#3a2f34;fill-rule:nonzero;"/></g></svg>