<?xml version="1.0" encoding="UTF-8" standalone="no"?><!DOCTYPE svg PUBLIC "-//W3C//DTD SVG 1.1//EN" "http://www.w3.org/Graphics/SVG/1.1/DTD/svg11.dtd"><svg width="100%" height="100%" viewBox="0 0 298 301" version="1.1" xmlns="http://www.w3.org/2000/svg" xmlns:xlink="http://www.w3.org/1999/xlink" xml:space="preserve" style="fill-rule:evenodd;clip-rule:evenodd;stroke-linejoin:round;stroke-miterlimit:1.41421;"><g id="_47"><rect x="0.17" y="0.365" width="296.87" height="299.705" style="fill:#5e3939;fill-rule:nonzero;"/><path d="M113.38,185.972c-1.26,-1.014 -24.32,-16.289 -24.32,-16.289c1.58,9.506 2.76,13.402 0.45,19.853c-2.09,5.807 -6.08,8.055 -8.29,10.087c-2.22,2.042 -6.71,3.569 -8.27,3.569c-1.6,0 -3.38,-0.306 -3.38,-0.306c0,0 3.66,2.173 12.85,1.741c3.86,-0.18 6.31,-1.217 7.9,-2.414c-1.82,3.149 -3.52,7.664 -1.6,11.85c6.93,15.211 -2.32,20.177 -2.32,20.177c0,0 8.2,-0.878 12.9,-5.329c0.03,0.107 0.01,0.265 0.04,0.363c2.09,7.61 7.6,8.458 7.6,8.458c0,0 -3.48,-0.624 -2.82,-7.692c0.18,-1.882 2,-2.624 4.27,-3.898c0.88,6.83 3.75,13.792 -2.18,16.637c0,0 10.02,-2.139 11.86,-8.539c0.33,-1.17 0.51,-2.256 0.68,-3.345c0.16,0.603 0.37,1.159 0.48,1.794c1.42,8.151 -4.34,16.06 -4.34,16.06c0,0 20.81,-2.376 20.97,-11.246c0.02,-1.329 0.28,-6.762 0.91,-8.792c0.63,-2.041 1.9,-12.215 1.9,-12.215c0,0 -24.02,-29.506 -25.29,-30.524Z" style="fill:#aa1f23;fill-rule:nonzero;"/><path d="M194.79,185.972c1.28,-1.014 24.34,-16.289 24.34,-16.289c-1.58,9.506 -2.77,13.402 -0.45,19.853c2.09,5.807 6.07,8.055 8.29,10.087c2.21,2.042 6.7,3.569 8.28,3.569c1.59,0 3.37,-0.306 3.37,-0.306c0,0 -3.67,2.173 -12.85,1.741c-3.86,-0.18 -6.32,-1.217 -7.9,-2.414c1.81,3.149 3.52,7.664 1.6,11.85c-6.94,15.211 2.32,20.177 2.32,20.177c0,0 -8.2,-0.878 -12.91,-5.329c-0.02,0.107 -0.01,0.265 -0.04,0.363c-2.09,7.61 -7.59,8.458 -7.59,8.458c0,0 3.48,-0.624 2.81,-7.692c-0.18,-1.882 -1.99,-2.624 -4.26,-3.898c-0.89,6.83 -3.76,13.792 2.18,16.637c0,0 -10.03,-2.139 -11.87,-8.539c-0.33,-1.17 -0.5,-2.256 -0.67,-3.345c-0.17,0.603 -0.37,1.159 -0.48,1.794c-1.42,8.151 4.34,16.06 4.34,16.06c0,0 -20.81,-2.376 -20.98,-11.246c-0.01,-1.329 -0.27,-6.762 -0.9,-8.792c-0.64,-2.041 -1.9,-12.215 -1.9,-12.215c0,0 24.01,-29.506 25.27,-30.524Z" style="fill:#aa1f23;fill-rule:nonzero;"/><path d="M153.81,187.8l0,112.27l-60.73,0c-0.99,-0.394 -1.48,-0.594 -1.48,-0.594c0,-14.331 2.1,-25.505 5.31,-34.219c7.73,-21.03 21.88,-27.709 28.39,-29.723c2.14,-0.661 3.46,-0.82 3.46,-0.82c0.23,0 0.44,-0.021 0.66,-0.056c1.92,-0.308 3.47,-1.969 4.71,-4.619c0.93,-1.968 1.71,-4.479 2.34,-7.386c0.25,-1.132 0.44,-2.275 0.64,-3.51c0.3,-2.077 0.59,-4.25 0.84,-6.525c0.1,-1.384 0.25,-2.717 0.4,-4.152c0.54,-6.868 0.69,-14.388 0.69,-21.507c0,0 8.15,0.841 14.77,0.841Z" style="fill:#e0bd9a;fill-rule:nonzero;"/><path d="M216.27,299.476c0,0 -0.54,0.2 -1.43,0.594l-61.03,0l0,-112.27l0.15,0c6.57,0 14.83,-0.841 14.83,-0.841c0,7.068 0.14,14.485 0.69,21.358c0.14,1.338 0.29,2.717 0.39,4.055c0.25,2.373 0.55,4.597 0.89,6.673l0,0.046c0.1,0.943 0.29,1.784 0.45,2.671c0.6,2.921 1.33,5.489 2.2,7.549c1.09,2.563 2.42,4.352 4.03,5.06c0.51,0.23 1.06,0.343 1.63,0.343c0,0 2.33,0.282 5.83,1.656c7.15,2.798 19.16,10.143 26.06,28.887c3.21,8.714 5.31,19.888 5.31,34.219Z" style="fill:#efd0ad;fill-rule:nonzero;"/><path d="M170.76,218.835l0,0.05c-1.53,2.357 -6.67,9.134 -16.85,9.134l-0.1,0c-9.63,-0.049 -15.27,-7.023 -16.7,-9.086c0.3,-2.062 0.59,-4.223 0.84,-6.482c0.1,-1.326 0.25,-2.702 0.4,-4.126c4.69,1.179 9.83,1.916 15.27,2.014l0.19,0c5.64,-0.098 10.82,-0.884 15.67,-2.161c0.15,1.326 0.29,2.701 0.39,4.027c0.25,2.357 0.55,4.568 0.89,6.63Z" style="fill:#be987f;fill-rule:nonzero;"/><path d="M153.12,59.856c-64.33,0 -64.68,53.779 -61.81,88.993c-4.4,-8.349 -17.5,-5.795 -16.41,7.367c1.04,12.672 19.75,19.129 19.22,17.73c9.74,26.043 35.53,45.675 59,45.675l0.5,0l0,-159.765l-0.5,0Z" style="fill:#d2a686;fill-rule:nonzero;"/><path d="M79,150.666c3.16,-5.108 8.1,-2.897 9.29,-1.768c1.29,1.228 2.32,2.8 1.53,5.796c-0.44,1.719 -2.22,1.866 -1.83,4.42c0.5,2.897 1.83,3.045 2.62,3.732c0.74,0.639 1.68,1.13 2.13,2.358c0.49,1.228 0.54,2.505 0.29,3.634c-0.49,2.063 -3.5,0.393 -5.53,-0.491c-1.33,-0.638 -5.58,-4.224 -6.67,-5.402c-2.67,-3.045 -3.95,-8.939 -1.83,-12.279Z" style="fill:#ac8774;fill-rule:nonzero;"/><path d="M153.47,59.856c64.33,0 64.68,53.779 61.86,88.993c4.4,-8.349 17.45,-5.795 16.36,7.367c-0.99,12.672 -19.74,19.133 -19.22,17.73c-9.49,26.043 -35.53,45.675 -59,45.675c-0.15,0 -0.35,0 -0.35,0l-0.15,-159.765c0,0 0.35,0 0.5,0Z" style="fill:#ddb598;fill-rule:nonzero;"/><path d="M227.59,150.666c-3.17,-5.108 -8.06,-2.897 -9.29,-1.768c-1.29,1.228 -2.28,2.8 -1.53,5.796c0.44,1.719 2.22,1.866 1.82,4.42c-0.49,2.897 -1.82,3.045 -2.57,3.732c-0.74,0.639 -1.73,1.13 -2.17,2.358c-0.44,1.228 -0.54,2.505 -0.3,3.634c0.5,2.063 3.51,0.393 5.54,-0.491c1.38,-0.638 5.58,-4.224 6.67,-5.402c2.72,-3.045 3.95,-8.939 1.83,-12.279Z" style="fill:#ac8774;fill-rule:nonzero;"/><path d="M152.61,75.032c-21.14,0 -36.66,6.139 -46,18.221c-13.09,16.944 -12.6,42.778 -7.81,61.342c1.49,5.698 2.28,20.972 3.27,26.571c4.59,25.097 32.31,38.455 50.54,38.455c0,0 0.35,0 0.5,0l0,-144.589c-0.15,0 -0.3,0 -0.3,0l-0.2,0Z" style="fill:#e0bd9a;fill-rule:nonzero;"/><path d="M198.57,93.302c-9.29,-12.033 -24.61,-18.172 -45.46,-18.27l0,144.589c20.85,-0.245 45.81,-14.881 50.05,-38.455c1.04,-5.599 1.78,-20.873 3.27,-26.571c4.84,-18.516 5.33,-44.3 -7.86,-61.293Z" style="fill:#efd0ad;fill-rule:nonzero;"/><path d="M153.3,196.677" style="fill:#bc917b;fill-rule:nonzero;"/><path d="M153.3,196.677" style="fill:#bc917b;fill-rule:nonzero;"/><path d="M149.73,193.99c-0.1,-0.022 -0.2,-0.041 -0.3,-0.065c0.1,0.023 0.19,0.041 0.3,0.065Z" style="fill:#bc917b;fill-rule:nonzero;"/><path d="M153.3,193.798" style="fill:#bc917b;fill-rule:nonzero;"/><path d="M148.95,193.815c-0.09,-0.024 -0.18,-0.051 -0.27,-0.076l-0.01,0.004c0,0 0.1,0.029 0.28,0.072Z" style="fill:#bc917b;fill-rule:nonzero;"/><path d="M153.3,193.798" style="fill:#bc917b;fill-rule:nonzero;"/><path d="M135.15,75.393l-0.27,0.267l0.04,0.089c0.09,-0.133 0.14,-0.267 0.23,-0.356Z" style="fill:#432e1b;fill-rule:nonzero;"/><path d="M94.18,126.341" style="fill:#432e1b;fill-rule:nonzero;"/><path d="M153.57,193.817" style="fill:#ba907b;fill-rule:nonzero;"/><path d="M153.57,193.817" style="fill:#ba907b;fill-rule:nonzero;"/><path d="M149.91,191.057c-0.1,-0.022 -0.21,-0.043 -0.31,-0.066c0.1,0.022 0.19,0.041 0.31,0.066Z" style="fill:#ba907b;fill-rule:nonzero;"/><path d="M153.57,190.86" style="fill:#ba907b;fill-rule:nonzero;"/><path d="M149.1,190.877c-0.09,-0.025 -0.18,-0.052 -0.27,-0.078l-0.01,0.005c0,0 0.1,0.029 0.28,0.073Z" style="fill:#ba907b;fill-rule:nonzero;"/><path d="M153.57,190.86" style="fill:#ba907b;fill-rule:nonzero;"/><path d="M140.54,173.721c-0.25,-5.132 9.42,-1.875 12.61,-1.714c2.52,0.128 10.19,-1.618 10.85,-1.168c4.52,3.042 -4.78,9.17 -11.01,9.17c-1.66,0 -12.3,-3.193 -12.45,-6.288Z" style="fill:#dcb497;fill-rule:nonzero;"/><path d="M106.96,131.466c0,0 4.9,20.135 13.33,21.778c8.43,1.643 17.55,-1.623 17.55,-1.623c0,0 0.87,-23.664 -3.45,-26.755c-4.31,-3.106 -14.24,-7.594 -27.43,6.6Z" style="fill:#fff;fill-rule:nonzero;"/><path d="M137.85,151.559c0,0 -0.19,0.055 -0.63,0.236c-0.11,-7.258 -0.78,-17.227 -3.47,-19.137c-4.01,-2.933 -13.05,-7.062 -25.14,4.229c-1.1,-3.119 -1.65,-5.484 -1.65,-5.484c13.21,-14.22 23.16,-9.74 27.44,-6.633c4.32,3.105 3.45,26.789 3.45,26.789Z" style="fill:#d6b496;fill-rule:nonzero;"/><path d="M132.86,141.306c0,4.58 -3.71,8.293 -8.29,8.293c-4.58,0 -8.3,-3.713 -8.3,-8.293c0,-4.581 3.72,-8.294 8.3,-8.294c4.58,0 8.29,3.713 8.29,8.294Z" style="fill:#482315;fill-rule:nonzero;"/><path d="M124.18,146.829c-2.39,-0.198 -4.23,-2.615 -4.02,-5.273c0.22,-2.656 2.43,-4.735 4.82,-4.534c2.4,0.196 4.24,2.611 4.02,5.268c-0.22,2.657 -2.43,4.74 -4.82,4.539Z" style="fill:#7e3a22;fill-rule:nonzero;"/><path d="M124.39,145.87c-1.67,-0.141 -3.4,-1.97 -3.22,-4.223c0.19,-2.26 2.19,-3.786 3.86,-3.648c1.67,0.141 3.39,1.978 3.21,4.231c-0.18,2.256 -2.19,3.778 -3.85,3.64Z" style="fill:#211a10;fill-rule:nonzero;"/><path d="M123.04,140.313c-0.07,0.814 -0.91,1.409 -1.87,1.33c-0.96,-0.081 -1.68,-0.809 -1.61,-1.619c0.07,-0.818 0.9,-1.413 1.86,-1.334c0.96,0.077 1.68,0.805 1.62,1.623Z" style="fill:#fff;fill-rule:nonzero;"/><path d="M128.41,145.023c-0.03,0.405 -0.45,0.704 -0.93,0.663c-0.48,-0.037 -0.84,-0.404 -0.81,-0.809c0.04,-0.405 0.46,-0.704 0.93,-0.664c0.48,0.038 0.85,0.401 0.81,0.81Z" style="fill:#fff;fill-rule:nonzero;"/><path d="M153.71,196.192" style="fill:#ba907b;fill-rule:nonzero;"/><path d="M153.71,196.192" style="fill:#ba907b;fill-rule:nonzero;"/><path d="M150.04,193.432c-0.1,-0.022 -0.21,-0.043 -0.31,-0.067c0.1,0.023 0.19,0.042 0.31,0.067Z" style="fill:#ba907b;fill-rule:nonzero;"/><path d="M153.71,193.235" style="fill:#ba907b;fill-rule:nonzero;"/><path d="M149.24,193.252c-0.1,-0.025 -0.19,-0.052 -0.28,-0.078l-0.01,0.004c0,0 0.11,0.03 0.29,0.074Z" style="fill:#ba907b;fill-rule:nonzero;"/><path d="M153.71,193.235" style="fill:#ba907b;fill-rule:nonzero;"/><path d="M153.59,195.821" style="fill:#bc917b;fill-rule:nonzero;"/><path d="M153.59,195.821" style="fill:#bc917b;fill-rule:nonzero;"/><path d="M149.67,192.863c-0.12,-0.024 -0.23,-0.045 -0.34,-0.071c0.11,0.024 0.21,0.045 0.34,0.071Z" style="fill:#bc917b;fill-rule:nonzero;"/><path d="M153.59,192.652" style="fill:#bc917b;fill-rule:nonzero;"/><path d="M148.8,192.67c-0.1,-0.026 -0.19,-0.056 -0.3,-0.083l-0.01,0.005c0,0 0.12,0.031 0.31,0.078Z" style="fill:#bc917b;fill-rule:nonzero;"/><path d="M153.59,192.652" style="fill:#bc917b;fill-rule:nonzero;"/><path d="M153.35,194.979" style="fill:#bc917b;fill-rule:nonzero;"/><path d="M153.34,194.979l0.01,0l-0.01,0Z" style="fill:#bc917b;fill-rule:nonzero;"/><path d="M149.42,192.021c-0.11,-0.024 -0.23,-0.045 -0.34,-0.071c0.11,0.024 0.21,0.044 0.34,0.071Z" style="fill:#bc917b;fill-rule:nonzero;"/><path d="M153.35,191.81" style="fill:#bc917b;fill-rule:nonzero;"/><path d="M148.55,191.828c-0.1,-0.026 -0.19,-0.055 -0.29,-0.083l-0.01,0.004c0,0 0.11,0.032 0.3,0.079Z" style="fill:#bc917b;fill-rule:nonzero;"/><path d="M153.34,191.81l0.01,0l-0.01,0Z" style="fill:#bc917b;fill-rule:nonzero;"/><path d="M153.98,194.765" style="fill:#bc917b;fill-rule:nonzero;"/><path d="M153.98,194.765" style="fill:#bc917b;fill-rule:nonzero;"/><path d="M150.19,191.906c-0.11,-0.023 -0.22,-0.044 -0.33,-0.069c0.11,0.024 0.2,0.043 0.33,0.069Z" style="fill:#bc917b;fill-rule:nonzero;"/><path d="M153.98,191.702" style="fill:#bc917b;fill-rule:nonzero;"/><path d="M149.35,191.719c-0.1,-0.025 -0.19,-0.053 -0.28,-0.08l-0.02,0.005c0,0 0.12,0.03 0.3,0.075Z" style="fill:#bc917b;fill-rule:nonzero;"/><path d="M153.98,191.702" style="fill:#bc917b;fill-rule:nonzero;"/><path d="M199.77,130.781c0,0 -4.91,20.135 -13.34,21.778c-8.42,1.643 -17.54,-1.623 -17.54,-1.623c0,0 -0.88,-23.664 3.44,-26.756c4.31,-3.105 14.25,-7.593 27.44,6.601Z" style="fill:#fff;fill-rule:nonzero;"/><path d="M168.87,150.873c0,0 0.2,0.057 0.63,0.237c0.11,-7.258 0.78,-17.227 3.47,-19.137c4.01,-2.933 13.06,-7.062 25.14,4.229c1.1,-3.119 1.65,-5.484 1.65,-5.484c-13.21,-14.22 -23.16,-9.74 -27.44,-6.633c-4.32,3.105 -3.45,26.788 -3.45,26.788Z" style="fill:#d6b496;fill-rule:nonzero;"/><path d="M173.86,140.62c0,4.581 3.72,8.294 8.3,8.294c4.58,0 8.29,-3.713 8.29,-8.294c0,-4.58 -3.71,-8.294 -8.29,-8.294c-4.58,0 -8.3,3.714 -8.3,8.294Z" style="fill:#482315;fill-rule:nonzero;"/><path d="M182.54,146.144c2.4,-0.198 4.24,-2.615 4.02,-5.273c-0.22,-2.656 -2.42,-4.736 -4.82,-4.534c-2.4,0.196 -4.23,2.611 -4.02,5.267c0.22,2.658 2.43,4.74 4.82,4.54Z" style="fill:#7e3a22;fill-rule:nonzero;"/><path d="M182.34,145.185c1.66,-0.142 3.39,-1.97 3.21,-4.223c-0.19,-2.26 -2.19,-3.786 -3.86,-3.648c-1.67,0.141 -3.39,1.978 -3.21,4.231c0.19,2.255 2.19,3.778 3.86,3.64Z" style="fill:#211a10;fill-rule:nonzero;"/><path d="M183.69,139.628c0.07,0.814 0.9,1.409 1.86,1.331c0.96,-0.082 1.68,-0.81 1.62,-1.62c-0.07,-0.818 -0.9,-1.413 -1.86,-1.335c-0.97,0.078 -1.69,0.806 -1.62,1.624Z" style="fill:#fff;fill-rule:nonzero;"/><path d="M178.31,144.338c0.03,0.405 0.45,0.704 0.93,0.663c0.48,-0.037 0.84,-0.404 0.81,-0.81c-0.04,-0.404 -0.45,-0.704 -0.93,-0.663c-0.48,0.037 -0.85,0.401 -0.81,0.81Z" style="fill:#fff;fill-rule:nonzero;"/><path d="M142.9,131.145c-0.06,-0.099 -1.59,-2.423 -4.72,-4.82c-1.96,-1.503 -3.88,-2.646 -5.87,-3.497c-2.42,-1.018 -5.03,-1.737 -7.55,-2.082c-2.29,-0.254 -4.82,-0.187 -7.77,0.211c-2.25,0.429 -4.45,1.099 -6.32,1.923c-1.33,0.458 -2.38,1.101 -3.23,1.619c-0.32,0.199 -0.61,0.378 -0.91,0.538l-4.02,2.531l4.63,-1.09c0.22,-0.055 0.45,-0.116 0.71,-0.182c0.96,-0.255 2.15,-0.572 3.55,-0.777c0.33,-0.048 0.66,-0.114 1,-0.183c0.58,-0.115 1.19,-0.236 1.82,-0.266c0.7,-0.046 1.43,-0.099 2.18,-0.152l0.98,-0.071c2.56,-0.032 4.73,0.162 6.66,0.607c2.11,0.363 4.27,1.043 6.26,1.963c1.88,0.898 3.67,1.787 5.08,2.817c2.83,1.891 4.41,3.468 4.42,3.484c0.39,0.392 0.91,0.594 1.43,0.594c0.39,0 0.77,-0.108 1.1,-0.327c0.94,-0.612 1.2,-1.871 0.6,-2.779l-0.03,-0.061Z" style="fill:#030405;fill-rule:nonzero;"/><path d="M200.6,125.018c-0.27,-0.141 -0.56,-0.321 -0.89,-0.519c-0.84,-0.518 -1.89,-1.161 -3.18,-1.604c-1.91,-0.839 -4.11,-1.509 -6.39,-1.943c-2.93,-0.393 -5.46,-0.46 -7.75,-0.205c-2.52,0.344 -5.12,1.063 -7.55,2.081c-1.96,0.84 -3.93,2.017 -5.86,3.497c-3.07,2.353 -4.6,4.637 -4.71,4.813l-0.03,0.041c-0.52,0.798 -0.41,1.866 0.26,2.539c0.38,0.384 0.89,0.596 1.43,0.596c0.54,-0.001 1.05,-0.213 1.43,-0.597l0.01,-0.017c0.15,-0.148 1.68,-1.644 4.43,-3.48c1.38,-1.014 3.18,-1.905 5.05,-2.8c1.99,-0.923 4.16,-1.603 6.29,-1.972c1.9,-0.439 4.08,-0.629 6.61,-0.602l1.02,0.073c0.75,0.053 1.47,0.105 2.18,0.152c0.62,0.029 1.22,0.15 1.81,0.265c0.34,0.069 0.67,0.135 1,0.183c1.4,0.205 2.59,0.522 3.55,0.777c0.25,0.066 0.49,0.128 0.71,0.183l4.64,1.09l-4.06,-2.551Z" style="fill:#030405;fill-rule:nonzero;"/><path d="M202.26,293.622c0.06,1.852 0.08,3.766 0.08,5.741c0,0 -0.37,0.185 -1.13,0.699l-94.41,0c-0.76,-0.514 -1.15,-0.699 -1.15,-0.699c0,-1.975 0.02,-3.889 0.08,-5.741c0.04,-1.954 0.12,-3.847 0.22,-5.699c0.17,-3.209 0.44,-6.275 0.74,-9.176c0.21,-1.975 0.46,-3.868 0.75,-5.699c0.41,-2.757 0.9,-5.349 1.44,-7.797l-11.98,0c0.19,-0.474 0.35,-0.947 0.54,-1.399c0.8,-2.037 1.66,-3.93 2.57,-5.7c7.98,-15.492 19.58,-20.841 25.28,-22.611c0,0.206 -0.02,0.412 -0.02,0.617c0,9.629 12.66,17.468 28.54,17.88c0.43,0.02 0.86,0.02 1.32,0.02c16.31,0 29.58,-7.9 29.77,-17.694c6.17,2.407 15.96,8.209 22.96,21.788c0.9,1.77 1.77,3.663 2.57,5.7c0.19,0.452 0.37,0.925 0.53,1.399l-11.85,0c0.54,2.427 1.03,5.04 1.44,7.797c0.29,1.811 0.54,3.724 0.74,5.699c0.31,2.901 0.58,5.946 0.75,9.176c0.1,1.852 0.18,3.745 0.22,5.699Z" style="fill:#5c4c52;fill-rule:nonzero;"/><path d="M150.71,203.2" style="fill:#be927b;fill-rule:nonzero;"/><path d="M150.71,203.2" style="fill:#be927b;fill-rule:nonzero;"/><path d="M147.07,200.459c-0.11,-0.022 -0.21,-0.042 -0.31,-0.066c0.1,0.023 0.19,0.041 0.31,0.066Z" style="fill:#be927b;fill-rule:nonzero;"/><path d="M150.71,200.263" style="fill:#be927b;fill-rule:nonzero;"/><path d="M146.27,200.28c-0.1,-0.024 -0.19,-0.051 -0.28,-0.077l-0.01,0.004c0,0 0.11,0.029 0.29,0.073Z" style="fill:#be927b;fill-rule:nonzero;"/><path d="M150.71,200.263" style="fill:#be927b;fill-rule:nonzero;"/><path d="M150.48,202.42" style="fill:#be927b;fill-rule:nonzero;"/><path d="M150.48,202.42" style="fill:#be927b;fill-rule:nonzero;"/><path d="M146.84,199.679c-0.11,-0.022 -0.21,-0.042 -0.31,-0.066c0.1,0.022 0.19,0.041 0.31,0.066Z" style="fill:#be927b;fill-rule:nonzero;"/><path d="M150.48,199.483" style="fill:#be927b;fill-rule:nonzero;"/><path d="M146.04,199.5c-0.1,-0.025 -0.19,-0.052 -0.28,-0.077l-0.01,0.004c0,0 0.11,0.029 0.29,0.073Z" style="fill:#be927b;fill-rule:nonzero;"/><path d="M150.48,199.483" style="fill:#be927b;fill-rule:nonzero;"/><path d="M151.07,202.222" style="fill:#be927b;fill-rule:nonzero;"/><path d="M151.07,202.222" style="fill:#be927b;fill-rule:nonzero;"/><path d="M147.55,199.572c-0.1,-0.021 -0.2,-0.041 -0.3,-0.064c0.1,0.022 0.19,0.04 0.3,0.064Z" style="fill:#be927b;fill-rule:nonzero;"/><path d="M151.07,199.383" style="fill:#be927b;fill-rule:nonzero;"/><path d="M146.78,199.399c-0.1,-0.023 -0.18,-0.05 -0.27,-0.074l-0.01,0.004c0,0 0.1,0.028 0.28,0.07Z" style="fill:#be927b;fill-rule:nonzero;"/><path d="M151.07,199.383" style="fill:#be927b;fill-rule:nonzero;"/><path d="M140.81,201.968c-0.24,-3.199 8.91,0.671 11.92,0.763c2.4,0.081 9.6,-0.474 10.27,-0.728c5.03,-1.883 -0.28,5.349 -10.42,5.73c-4.65,0.185 -11.63,-3.824 -11.77,-5.765Z" style="fill:#f0d2ad;fill-rule:nonzero;"/><path d="M170.98,194.283c-5.81,-1.086 -18.03,0.073 -18.03,0.073c-10.09,1.675 -17.98,-0.107 -18.03,-0.038c-0.24,0.024 8.05,11.023 17.89,10.516c9.84,0.507 18.41,-10.516 18.17,-10.551Z" style="fill:#c2646e;fill-rule:nonzero;"/><path d="M158.78,191.961c-2.62,-0.289 -4.48,1.597 -5.82,1.459c-1.37,0.127 -3.14,-1.083 -5.77,-1.109c-3.7,-0.036 -5.51,-0.361 -12.27,2.007c0.24,0.462 4.57,2.972 12.69,3.11c0.12,0 2.3,1.236 5.39,1.214c1.94,-0.012 4.6,-1.306 4.71,-1.306c8.13,-0.127 13.1,-2.544 13.33,-2.994c-8.95,-2.773 -8.24,-2.417 -12.26,-2.381Z" style="fill:#d87475;fill-rule:nonzero;"/><path d="M202.26,293.622l-96.53,0c0.04,-1.954 0.12,-3.847 0.22,-5.699l96.09,0c0.1,1.852 0.18,3.745 0.22,5.699Z" style="fill:#f0f0f0;fill-rule:nonzero;"/><path d="M201.29,278.747l-94.6,0c0.21,-1.975 0.46,-3.868 0.75,-5.699l93.11,0c0.29,1.811 0.54,3.724 0.74,5.699Z" style="fill:#f0f0f0;fill-rule:nonzero;"/><path d="M210.43,263.852l-112.99,0c0.8,-2.037 1.66,-3.93 2.57,-5.7l107.85,0c0.9,1.77 1.77,3.663 2.57,5.7Z" style="fill:#f0f0f0;fill-rule:nonzero;"/><path d="M221.41,95.022c-1.35,-4.642 -2.71,-8.234 -2.72,-8.257c0.01,0.009 0.2,0.043 2.06,0.043c11.51,-0.023 18,-10.585 18,-10.585c0,0 -4.34,6.027 -19.28,1.328c-14.59,-4.582 -14.22,-19.511 -35.2,-27.841c-10.74,-4.266 -17.15,-3.71 -20.87,-2.153c3.77,-2.935 11.5,-2.674 11.5,-2.674c0,0 -9.55,-4.989 -24.3,-0.515c-10.36,3.148 -16.56,6.73 -20.05,9.298l5.82,-5.263c0,0 -4.12,1.389 -9.95,4.21c3.96,-7.306 11.3,-15.311 11.3,-15.311c-18.69,6.611 -34.17,30.397 -34.17,30.397c1.49,-8.97 4.76,-17.175 4.76,-17.175c-31.9,22.539 -26.94,63.237 -26.94,63.237c0,15.404 6.39,30.847 10.59,35.436c4.2,4.584 2.85,11.237 4.11,11.237c0,0 2.52,0.086 2.61,-11.534c0.12,-1.481 0.38,-3.3 0.94,-4.891c0,0 3.89,-64.947 50.9,-46.055c0,0 19.04,7.792 33.86,9.022c11.02,0.915 20.08,8.837 22.46,19.186c1.13,4.923 1.41,9.26 0.88,11.782c-3.14,15.07 1.24,23.747 2.92,23.341c0,0 0.06,-3.828 1.58,-7.239c4.52,-10.159 8.31,-3.1 9.01,-16.875c0.56,-11.058 1.97,-17.307 2.53,-22.921c3.58,2.713 8.93,4.635 16.91,4.794c0,0 -11.29,-3.323 -19.26,-24.022Z" style="fill:#c92026;fill-rule:nonzero;"/><path d="M207.7,152.087c-0.12,0.81 -0.22,1.282 -0.22,1.282c-0.69,3.221 -4.01,4.904 -5.47,5.499c-0.37,0.146 -0.74,0.265 -1.12,0.357c-13,3.003 -23.47,1.293 -28.78,-0.084c-2.68,-0.694 -4.99,-2.384 -6.48,-4.717c-1.01,-1.579 -1.8,-3.186 -2.42,-4.746c-2.48,-6.181 -2.31,-11.633 -2.31,-11.633c-0.13,-6.284 9.94,-6.931 11.46,-6.995c0.14,-0.004 0.29,-0.015 0.43,-0.031c12.82,-1.29 21.34,-0.881 26.54,-0.21c5.28,0.682 9.25,5.173 9.3,10.498c0.03,4.198 -0.59,8.649 -0.93,10.78Zm-62.54,-1.293c-0.72,1.61 -1.64,3.257 -2.78,4.848c-1.12,1.555 -2.75,2.678 -4.59,3.206c-4.89,1.405 -15.99,3.614 -30.01,0.337c-0.22,-0.052 -0.43,-0.115 -0.64,-0.194c-1.22,-0.457 -5.04,-2.139 -5.79,-5.622c0,0 -0.21,-1.088 -0.45,-2.77c-0.42,-2.992 -0.93,-7.875 -0.57,-11.926c0.33,-3.79 3.19,-6.881 6.94,-7.531c4.83,-0.833 13.95,-1.619 28.84,-0.115c0.11,0.012 0.22,0.019 0.33,0.023c1.37,0.052 11.63,0.655 11.49,6.995c0,0 0.19,6.119 -2.77,12.749Zm69.8,-17.681c-0.15,-1.162 -0.98,-2.126 -2.11,-2.427c-17.55,-4.646 -37.15,-3.087 -41.16,-2.698c-0.47,0.043 -0.93,0.126 -1.39,0.242c-3.94,0.995 -7.3,1.694 -9.99,2.178c-3.97,0.715 -8.02,0.712 -11.98,-0.018c-2.62,-0.484 -5.91,-1.177 -9.8,-2.16c-0.46,-0.116 -0.92,-0.199 -1.39,-0.242c-4.01,-0.389 -23.61,-1.948 -41.16,2.698c-1.13,0.301 -1.96,1.265 -2.11,2.427c-0.21,1.667 -0.38,4.23 0.06,6.952c0.12,0.794 0.6,1.48 1.27,1.92c1.15,0.766 2.96,2.543 3.37,6.357c0,0 1.67,7.8 3.02,9.359c0,0 3.53,5.305 18.92,4.888c0,0 22.64,1.047 25.31,-6.603l0.69,-1.984l3.23,-8.247c0,0 1.06,-3.956 4.22,-4.849l0.01,-0.002c0.28,-0.085 0.58,-0.088 0.87,-0.008l0.03,0.01c3.16,0.893 4.22,4.849 4.22,4.849l3.24,8.25c0.26,0.651 0.46,1.32 0.69,1.981c2.66,7.65 25.3,6.603 25.3,6.603c15.39,0.417 18.92,-4.888 18.92,-4.888c1.36,-1.559 3.02,-9.359 3.02,-9.359c0.41,-3.814 2.22,-5.591 3.38,-6.357c0.66,-0.44 1.14,-1.126 1.27,-1.92c0.44,-2.722 0.27,-5.285 0.05,-6.952Z" style="fill:#36b44a;fill-rule:nonzero;"/><path d="M145.16,150.794c-2.18,-0.903 -4.61,-1.676 -7.25,-2.292c0.04,-4.133 -0.03,-11.624 -0.95,-17.155c1.83,1.36 2.83,2.359 2.84,2.371c0.39,0.392 0.91,0.594 1.43,0.594c0.39,0 0.77,-0.108 1.1,-0.327c0.57,-0.372 0.89,-0.984 0.92,-1.611c2.49,0.972 4.69,2.653 4.69,5.56c0,0.037 0,0.074 -0.01,0.111c0,0 0.01,0.073 0.01,0.212c0,1.133 -0.14,6.632 -2.78,12.537Zm-44.26,-0.195c-0.32,-2.29 -0.7,-5.69 -0.7,-8.976c0.01,-1.006 0.04,-2.001 0.13,-2.95c0.33,-3.763 3.15,-6.837 6.86,-7.517c-0.07,0.082 -0.15,0.164 -0.23,0.247c0,0 0.01,0.015 0.01,0.045c0,0.006 -0.01,0.012 -0.01,0.018c0,0 2.31,9.501 6.49,15.983c-4.69,0.626 -8.95,1.713 -12.55,3.15Z" style="fill:url(#_Linear1);"/><path d="M137.13,148.325c-2.14,-0.469 -4.41,-0.835 -6.77,-1.087c1.54,-1.506 2.5,-3.607 2.5,-5.932c0,-4.581 -3.71,-8.294 -8.29,-8.294c-4.58,0 -8.3,3.713 -8.3,8.294c0,2.188 0.85,4.179 2.23,5.661c-1.72,0.102 -3.41,0.264 -5.05,0.482c-4.18,-6.482 -6.49,-15.983 -6.49,-15.983c0,-0.006 0.01,-0.012 0.01,-0.018c0.08,0.339 0.63,2.57 1.64,5.439c3.95,-3.684 7.56,-5.726 10.79,-6.704c0.38,-0.004 0.77,-0.006 1.16,-0.006c2.73,0 5.82,0.095 9.29,0.324c1.59,0.622 2.9,1.427 3.9,2.157c2.28,1.619 3.11,9.027 3.38,15.667Z" style="fill:url(#_Linear2);"/><path d="M137.91,148.502c-0.26,-0.06 -0.52,-0.12 -0.78,-0.177c-0.27,-6.64 -1.1,-14.048 -3.38,-15.667c-1,-0.73 -2.31,-1.535 -3.9,-2.157c1.96,0.13 4.05,0.302 6.26,0.526c0.11,0.012 0.22,0.019 0.33,0.023c0.03,0.002 0.07,0.003 0.12,0.005c0.14,0.099 0.27,0.197 0.4,0.292c0.92,5.531 0.99,13.022 0.95,17.155Zm-29.3,-11.615c-1.01,-2.869 -1.56,-5.1 -1.64,-5.439c0,-0.03 -0.01,-0.045 -0.01,-0.045c0.08,-0.083 0.16,-0.165 0.23,-0.247c0.03,-0.005 0.06,-0.01 0.08,-0.014c2.66,-0.459 6.62,-0.903 12.13,-0.959c-3.23,0.978 -6.84,3.02 -10.79,6.704Z" style="fill:url(#_Linear3);"/><path d="M130.36,147.238c-2.43,-0.259 -4.97,-0.396 -7.57,-0.396c-1.45,0 -2.88,0.043 -4.29,0.125c-1.38,-1.482 -2.23,-3.473 -2.23,-5.661c0,-4.581 3.72,-8.294 8.3,-8.294c4.58,0 8.29,3.713 8.29,8.294c0,2.325 -0.96,4.426 -2.5,5.932Zm-10.17,-5.951c-0.01,0.089 -0.02,0.179 -0.03,0.269c-0.21,2.658 1.63,5.075 4.02,5.273c0.11,0.009 0.21,0.013 0.32,0.013c1.06,0 2.07,-0.442 2.87,-1.172c0.03,0.008 0.07,0.013 0.11,0.016c0.03,0.003 0.06,0.004 0.09,0.004c0.44,0 0.81,-0.287 0.84,-0.667c0.02,-0.17 -0.04,-0.331 -0.14,-0.465c0.4,-0.666 0.67,-1.439 0.73,-2.268c0.22,-2.657 -1.62,-5.072 -4.02,-5.268c-0.1,-0.009 -0.21,-0.014 -0.32,-0.014c-1.29,0 -2.5,0.65 -3.34,1.676c-0.02,-0.001 -0.05,-0.001 -0.07,-0.001c-0.89,0 -1.63,0.572 -1.69,1.341c-0.04,0.494 0.21,0.958 0.63,1.263Z" style="fill:url(#_Linear4);"/><path d="M124.5,146.842c-0.11,0 -0.21,-0.004 -0.32,-0.013c-2.39,-0.198 -4.23,-2.615 -4.02,-5.273c0.01,-0.09 0.02,-0.18 0.03,-0.269c0.27,0.195 0.61,0.325 0.98,0.356c0,0.002 0,0.003 0,0.004c-0.18,2.253 1.55,4.082 3.22,4.223c0.07,0.006 0.14,0.009 0.21,0.009c0.71,0 1.46,-0.285 2.09,-0.786c0.08,0.279 0.34,0.511 0.68,0.577c-0.8,0.73 -1.81,1.172 -2.87,1.172Zm3.77,-2.284c-0.14,-0.189 -0.38,-0.323 -0.67,-0.345c-0.02,-0.002 -0.05,-0.003 -0.07,-0.004c0.38,-0.555 0.65,-1.226 0.71,-1.979c0.18,-2.253 -1.54,-4.09 -3.21,-4.231c-0.07,-0.006 -0.14,-0.009 -0.21,-0.009c-0.83,0 -1.72,0.39 -2.41,1.061c-0.27,-0.199 -0.61,-0.331 -0.99,-0.361c-0.04,-0.003 -0.07,-0.005 -0.1,-0.006c0.84,-1.026 2.05,-1.676 3.34,-1.676c0.11,0 0.22,0.005 0.32,0.014c2.4,0.196 4.24,2.611 4.02,5.268c-0.06,0.829 -0.33,1.602 -0.73,2.268Z" style="fill:url(#_Linear5);"/><path d="M124.6,145.879c-0.07,0 -0.14,-0.003 -0.21,-0.009c-1.67,-0.141 -3.4,-1.97 -3.22,-4.223c0,-0.001 0,-0.002 0,-0.004c0.06,0.005 0.12,0.007 0.17,0.007c0.89,0 1.63,-0.572 1.7,-1.337c0.04,-0.495 -0.21,-0.957 -0.63,-1.262c0.69,-0.671 1.58,-1.061 2.41,-1.061c0.07,0 0.14,0.003 0.21,0.009c1.67,0.141 3.39,1.978 3.21,4.231c-0.06,0.753 -0.33,1.424 -0.71,1.979l-0.01,0c-0.44,0 -0.81,0.288 -0.85,0.668c0,0.074 0.01,0.146 0.02,0.216c-0.63,0.501 -1.38,0.786 -2.09,0.786Z" style="fill:url(#_Linear6);"/><path d="M121.34,141.65c-0.05,0 -0.11,-0.002 -0.17,-0.007c-0.37,-0.031 -0.71,-0.161 -0.98,-0.356c-0.42,-0.305 -0.67,-0.769 -0.63,-1.263c0.06,-0.769 0.8,-1.341 1.69,-1.341c0.02,0 0.05,0 0.07,0.001c0.03,0.001 0.06,0.003 0.1,0.006c0.38,0.03 0.72,0.162 0.99,0.361c0.42,0.305 0.67,0.767 0.63,1.262c-0.07,0.765 -0.81,1.337 -1.7,1.337Z" style="fill:url(#_Linear7);"/><path d="M127.57,145.69c-0.03,0 -0.06,-0.001 -0.09,-0.004c-0.04,-0.003 -0.08,-0.008 -0.11,-0.016c-0.34,-0.066 -0.6,-0.298 -0.68,-0.577c-0.01,-0.07 -0.02,-0.142 -0.02,-0.216c0.04,-0.38 0.41,-0.668 0.85,-0.668l0.01,0c0.02,0.001 0.05,0.002 0.07,0.004c0.29,0.022 0.53,0.156 0.67,0.345c0.1,0.134 0.16,0.295 0.14,0.465c-0.03,0.38 -0.4,0.667 -0.84,0.667Z" style="fill:url(#_Linear8);"/><path d="M141.23,134.312c-0.52,0 -1.04,-0.202 -1.43,-0.594c-0.01,-0.012 -1.01,-1.011 -2.84,-2.371c-0.13,-0.095 -0.26,-0.193 -0.4,-0.292c0.91,0.042 3.97,0.258 6.69,1.319c-0.03,0.627 -0.35,1.239 -0.92,1.611c-0.33,0.219 -0.71,0.327 -1.1,0.327Z" style="fill:url(#_Linear9);"/><path d="M206.77,151.621c-3.82,-1.849 -8.64,-3.26 -14.04,-4.054c4.28,-6.114 6.76,-15.675 7.01,-16.697c3.71,0.626 6.72,3.136 8.09,6.463c-0.04,0.214 -0.07,0.418 -0.11,0.611c-1.13,5.431 -1.29,10.032 -0.95,13.677Zm-43.56,-1.943c-2.19,-5.457 -2.31,-10.345 -2.32,-11.416c0,-0.142 0.01,-0.217 0.01,-0.217c0,-0.037 0,-0.073 0,-0.11c-0.01,-2.298 1.37,-3.83 3.17,-4.852c0.1,0.233 0.25,0.449 0.43,0.635c0.38,0.384 0.89,0.596 1.43,0.596c0.54,-0.001 1.05,-0.213 1.43,-0.597l0.01,-0.017c0.1,-0.101 0.86,-0.842 2.22,-1.892c-0.78,5.563 -0.82,12.615 -0.77,16.39c-1.98,0.411 -3.86,0.908 -5.61,1.48Z" style="fill:url(#_Linear10);"/><path d="M169.58,148.045c0.25,-6.741 1.06,-14.42 3.39,-16.072c0.51,-0.372 1.1,-0.764 1.77,-1.14c5.24,-0.474 9.72,-0.656 13.52,-0.656c0.32,0 0.64,0.001 0.96,0.004c2.73,1.137 5.7,3.042 8.89,6.021c0.94,-2.659 1.48,-4.771 1.62,-5.335c0,0.001 0.01,0.002 0.01,0.003c-0.25,1.022 -2.73,10.583 -7.01,16.697c-1.71,-0.25 -3.47,-0.439 -5.28,-0.561c1.83,-1.522 3,-3.817 3,-6.386c0,-4.58 -3.71,-8.294 -8.29,-8.294c-4.58,0 -8.3,3.714 -8.3,8.294c0,2.599 1.2,4.919 3.07,6.44c-2.56,0.199 -5.02,0.533 -7.35,0.985Z" style="fill:url(#_Linear11);"/><path d="M168.82,148.198c-0.05,-3.775 -0.01,-10.827 0.77,-16.39c0.24,-0.186 0.5,-0.381 0.77,-0.584c0.94,-0.119 1.67,-0.16 2,-0.174c0.14,-0.004 0.29,-0.015 0.43,-0.031c0.66,-0.067 1.31,-0.129 1.95,-0.186c-0.67,0.376 -1.26,0.768 -1.77,1.14c-2.33,1.652 -3.14,9.331 -3.39,16.072c-0.26,0.05 -0.51,0.101 -0.76,0.153Zm29.29,-11.996c-3.19,-2.979 -6.16,-4.884 -8.89,-6.021c4.24,0.035 7.57,0.3 10.11,0.628c0.13,0.017 0.26,0.036 0.4,0.058c-0.14,0.564 -0.68,2.676 -1.62,5.335Z" style="fill:url(#_Linear12);"/><path d="M176.93,147.06c-1.87,-1.521 -3.07,-3.841 -3.07,-6.44c0,-4.58 3.72,-8.294 8.3,-8.294c4.58,0 8.29,3.714 8.29,8.294c0,2.569 -1.17,4.864 -3,6.386c-1.6,-0.108 -3.23,-0.164 -4.89,-0.164c-1.92,0 -3.8,0.075 -5.63,0.218Zm2.43,-2.075c0.79,0.73 1.8,1.172 2.86,1.172c0.11,0 0.22,-0.004 0.32,-0.013c2.4,-0.198 4.24,-2.615 4.02,-5.273c-0.01,-0.09 -0.02,-0.179 -0.03,-0.268c0.42,-0.305 0.68,-0.769 0.64,-1.264c-0.07,-0.769 -0.81,-1.342 -1.69,-1.342c-0.03,0 -0.05,0 -0.08,0.001c-0.84,-1.026 -2.05,-1.675 -3.34,-1.675c-0.11,0 -0.21,0.005 -0.32,0.014c-2.4,0.196 -4.23,2.611 -4.02,5.267c0.07,0.83 0.33,1.603 0.73,2.269c-0.1,0.134 -0.16,0.296 -0.14,0.465c0.03,0.38 0.4,0.667 0.84,0.667c0.03,0 0.06,-0.001 0.09,-0.004c0.04,-0.003 0.08,-0.008 0.12,-0.016Z" style="fill:url(#_Linear13);"/><path d="M182.22,146.157c-1.06,0 -2.07,-0.442 -2.86,-1.172c0.33,-0.067 0.59,-0.297 0.67,-0.577c0.64,0.501 1.39,0.786 2.09,0.786c0.07,0 0.15,-0.003 0.22,-0.009c1.66,-0.142 3.39,-1.97 3.21,-4.223c0,-0.001 0,-0.002 0,-0.003c0.37,-0.032 0.71,-0.162 0.98,-0.356c0.01,0.089 0.02,0.178 0.03,0.268c0.22,2.658 -1.62,5.075 -4.02,5.273c-0.1,0.009 -0.21,0.013 -0.32,0.013Zm-3.77,-2.284c-0.4,-0.666 -0.66,-1.439 -0.73,-2.269c-0.21,-2.656 1.62,-5.071 4.02,-5.267c0.11,-0.009 0.21,-0.014 0.32,-0.014c1.29,0 2.5,0.649 3.34,1.675c-0.03,0.002 -0.06,0.003 -0.09,0.006c-0.38,0.031 -0.73,0.163 -1,0.362c-0.69,-0.671 -1.58,-1.061 -2.41,-1.061c-0.07,0 -0.14,0.003 -0.21,0.009c-1.67,0.141 -3.39,1.978 -3.21,4.231c0.06,0.753 0.33,1.424 0.72,1.979c-0.03,0.001 -0.06,0.002 -0.08,0.004c-0.28,0.022 -0.52,0.156 -0.67,0.345Z" style="fill:url(#_Linear14);"/><path d="M182.12,145.194c-0.7,0 -1.45,-0.285 -2.09,-0.786c0.02,-0.07 0.02,-0.143 0.02,-0.217c-0.03,-0.379 -0.4,-0.667 -0.84,-0.667l-0.01,0c-0.39,-0.555 -0.66,-1.226 -0.72,-1.979c-0.18,-2.253 1.54,-4.09 3.21,-4.231c0.07,-0.006 0.14,-0.009 0.21,-0.009c0.83,0 1.72,0.39 2.41,1.061c-0.41,0.305 -0.66,0.767 -0.62,1.262c0.06,0.765 0.8,1.337 1.69,1.337c0.06,0 0.11,-0.002 0.17,-0.006c0,0.001 0,0.002 0,0.003c0.18,2.253 -1.55,4.081 -3.21,4.223c-0.07,0.006 -0.15,0.009 -0.22,0.009Z" style="fill:url(#_Linear15);"/><path d="M185.38,140.965c-0.89,0 -1.63,-0.572 -1.69,-1.337c-0.04,-0.495 0.21,-0.957 0.62,-1.262c0.27,-0.199 0.62,-0.331 1,-0.362c0.03,-0.003 0.06,-0.004 0.09,-0.006c0.03,-0.001 0.05,-0.001 0.08,-0.001c0.88,0 1.62,0.573 1.69,1.342c0.04,0.495 -0.22,0.959 -0.64,1.264c-0.27,0.194 -0.61,0.324 -0.98,0.356c-0.06,0.004 -0.11,0.006 -0.17,0.006Z" style="fill:url(#_Linear16);"/><path d="M179.15,145.005c-0.44,0 -0.81,-0.287 -0.84,-0.667c-0.02,-0.169 0.04,-0.331 0.14,-0.465c0.15,-0.189 0.39,-0.323 0.67,-0.345c0.02,-0.002 0.05,-0.003 0.08,-0.004l0.01,0c0.44,0 0.81,0.288 0.84,0.667c0,0.074 0,0.147 -0.02,0.217c-0.08,0.28 -0.34,0.51 -0.67,0.577c-0.04,0.008 -0.08,0.013 -0.12,0.016c-0.03,0.003 -0.06,0.004 -0.09,0.004Z" style="fill:url(#_Linear17);"/><path d="M165.93,134.314c-0.54,0 -1.05,-0.212 -1.43,-0.596c-0.18,-0.186 -0.33,-0.402 -0.43,-0.635c2,-1.128 4.52,-1.633 6.29,-1.859c-0.27,0.203 -0.53,0.398 -0.77,0.584c-1.36,1.05 -2.12,1.791 -2.22,1.892l-0.01,0.017c-0.38,0.384 -0.89,0.596 -1.43,0.597Z" style="fill:url(#_Linear18);"/><path d="M207.7,152.087c-0.3,-0.158 -0.61,-0.314 -0.93,-0.466c-0.34,-3.645 -0.18,-8.246 0.95,-13.677c0.04,-0.193 0.07,-0.397 0.11,-0.611c0.5,1.231 0.79,2.574 0.8,3.974c0,0.098 0,0.197 0,0.296c0,4.109 -0.59,8.403 -0.93,10.484Z" style="fill:url(#_Linear19);"/><path d="M122.4,160.89c-4.32,0 -9.26,-0.451 -14.62,-1.705c-0.22,-0.052 -0.43,-0.115 -0.64,-0.194c-1.22,-0.457 -5.04,-2.139 -5.79,-5.622c0,0 -0.21,-1.088 -0.45,-2.77c3.6,-1.437 7.86,-2.524 12.55,-3.15c1.91,2.954 4.2,5.281 6.84,5.795c1.69,0.33 3.42,0.462 5.09,0.462c6.63,0.001 12.46,-2.085 12.46,-2.085c0,0 0,-0.02 0,-0.059c0.01,-0.002 0.01,-0.003 0.01,-0.003c0,0 0.04,-1.184 0.06,-3.057c2.64,0.616 5.07,1.389 7.25,2.292c-0.72,1.61 -1.64,3.257 -2.78,4.848c-1.12,1.555 -2.75,2.678 -4.59,3.206c-3.02,0.867 -8.41,2.042 -15.39,2.042Z" style="fill:url(#_Linear20);"/><path d="M125.38,153.706c-1.67,0 -3.4,-0.132 -5.09,-0.462c-2.64,-0.514 -4.93,-2.841 -6.84,-5.795c1.64,-0.218 3.33,-0.38 5.05,-0.482c1.52,1.62 3.67,2.632 6.07,2.632c2.25,0 4.3,-0.9 5.79,-2.361c2.36,0.252 4.63,0.618 6.77,1.087c0.05,1.194 0.08,2.364 0.09,3.47c0.38,-0.157 0.57,-0.219 0.62,-0.233c0,0.039 0,0.059 0,0.059c0,0 -5.83,2.086 -12.46,2.085Z" style="fill:url(#_Linear21);"/><path d="M137.22,151.795c-0.01,-1.106 -0.04,-2.276 -0.09,-3.47c0.26,0.057 0.52,0.117 0.78,0.177c-0.02,1.873 -0.06,3.057 -0.06,3.057c0,0 0,0.001 -0.01,0.003c-0.05,0.014 -0.24,0.076 -0.62,0.233Z" style="fill:url(#_Linear22);"/><path d="M124.57,149.599c-2.4,0 -4.55,-1.012 -6.07,-2.632c1.41,-0.082 2.84,-0.125 4.29,-0.125c2.6,0 5.14,0.137 7.57,0.396c-1.49,1.461 -3.54,2.361 -5.79,2.361Z" style="fill:url(#_Linear23);"/><path d="M206.1,156.075c0.1,-0.545 0.21,-1.04 0.33,-1.48c0.16,-0.618 0.31,-1.245 0.47,-1.879c0.07,0.587 0.16,1.146 0.26,1.676c-0.27,0.63 -0.64,1.19 -1.06,1.683Z" style="fill:url(#_Linear24);"/><path d="M186.43,160.89c-6.22,0 -11.18,-0.933 -14.32,-1.749c-2.68,-0.694 -4.99,-2.384 -6.48,-4.717c-1.01,-1.579 -1.8,-3.186 -2.42,-4.746c1.75,-0.572 3.63,-1.069 5.61,-1.48c0.02,1.651 0.05,2.675 0.05,2.675c0,0 0.01,0.001 0.01,0.003c0,0.039 0.01,0.06 0.01,0.06c0,0 5.82,2.085 12.46,2.085c1.67,0 3.39,-0.132 5.08,-0.462c2.4,-0.466 4.51,-2.426 6.3,-4.992c5.4,0.794 10.22,2.205 14.04,4.054c0.04,0.375 0.08,0.74 0.13,1.095c-0.16,0.634 -0.31,1.261 -0.47,1.879c-0.12,0.44 -0.23,0.935 -0.33,1.48c-1.3,1.509 -3.11,2.394 -4.09,2.793c-0.37,0.146 -0.74,0.265 -1.12,0.357c-5.3,1.224 -10.18,1.665 -14.46,1.665Z" style="fill:url(#_Linear25);"/><path d="M181.35,153.021c-6.64,0 -12.46,-2.085 -12.46,-2.085c0,0 -0.01,-0.021 -0.01,-0.06c0.05,0.014 0.24,0.076 0.62,0.234c0.01,-0.981 0.04,-2.012 0.08,-3.065c2.33,-0.452 4.79,-0.786 7.35,-0.985c1.43,1.159 3.25,1.854 5.23,1.854c2.01,0 3.85,-0.717 5.29,-1.908c1.81,0.122 3.57,0.311 5.28,0.561c-1.79,2.566 -3.9,4.526 -6.3,4.992c-1.69,0.33 -3.41,0.462 -5.08,0.462Z" style="fill:url(#_Linear26);"/><path d="M169.5,151.11c-0.38,-0.158 -0.57,-0.22 -0.62,-0.234c0,-0.002 -0.01,-0.003 -0.01,-0.003c0,0 -0.03,-1.024 -0.05,-2.675c0.25,-0.052 0.5,-0.103 0.76,-0.153c-0.04,1.053 -0.07,2.084 -0.08,3.065Z" style="fill:url(#_Linear27);"/><path d="M182.16,148.914c-1.98,0 -3.8,-0.695 -5.23,-1.854c1.83,-0.143 3.71,-0.218 5.63,-0.218c1.66,0 3.29,0.056 4.89,0.164c-1.44,1.191 -3.28,1.908 -5.29,1.908Z" style="fill:url(#_Linear28);"/><path d="M207.16,154.392c-0.1,-0.53 -0.19,-1.089 -0.26,-1.676c-0.05,-0.355 -0.09,-0.72 -0.13,-1.095c0.32,0.152 0.63,0.308 0.93,0.466c-0.12,0.81 -0.22,1.282 -0.22,1.282c-0.07,0.36 -0.18,0.7 -0.32,1.023Z" style="fill:url(#_Linear29);"/></g><defs><linearGradient id="_Linear1" x1="0" y1="0" x2="1" y2="0" gradientUnits="userSpaceOnUse" gradientTransform="matrix(47.7318,0,0,47.7318,100.21,145.533)"><stop offset="0" style="stop-color:#e8cdb2;stop-opacity:1"/><stop offset="1" style="stop-color:#baafa1;stop-opacity:1"/></linearGradient><linearGradient id="_Linear2" x1="0" y1="0" x2="1" y2="0" gradientUnits="userSpaceOnUse" gradientTransform="matrix(47.7318,0,0,47.7318,100.21,145.533)"><stop offset="0" style="stop-color:#fff;stop-opacity:1"/><stop offset="1" style="stop-color:#c8d7e6;stop-opacity:1"/></linearGradient><linearGradient id="_Linear3" x1="0" y1="0" x2="1" y2="0" gradientUnits="userSpaceOnUse" gradientTransform="matrix(47.7318,0,0,47.7318,100.21,145.533)"><stop offset="0" style="stop-color:#e0c6ae;stop-opacity:1"/><stop offset="1" style="stop-color:#b4a89f;stop-opacity:1"/></linearGradient><linearGradient id="_Linear4" x1="0" y1="0" x2="1" y2="0" gradientUnits="userSpaceOnUse" gradientTransform="matrix(47.7318,0,0,47.7318,100.21,145.533)"><stop offset="0" style="stop-color:#6d4b3e;stop-opacity:1"/><stop offset="1" style="stop-color:#543e39;stop-opacity:1"/></linearGradient><linearGradient id="_Linear5" x1="0" y1="0" x2="1" y2="0" gradientUnits="userSpaceOnUse" gradientTransform="matrix(47.7318,0,0,47.7318,100.21,145.533)"><stop offset="0" style="stop-color:#996249;stop-opacity:1"/><stop offset="1" style="stop-color:#7c5243;stop-opacity:1"/></linearGradient><linearGradient id="_Linear6" x1="0" y1="0" x2="1" y2="0" gradientUnits="userSpaceOnUse" gradientTransform="matrix(47.7318,0,0,47.7318,100.21,145.533)"><stop offset="0" style="stop-color:#4c433d;stop-opacity:1"/><stop offset="1" style="stop-color:#353837;stop-opacity:1"/></linearGradient><linearGradient id="_Linear7" x1="0" y1="0" x2="1" y2="0" gradientUnits="userSpaceOnUse" gradientTransform="matrix(47.7318,0,0,47.7318,100.21,145.533)"><stop offset="0" style="stop-color:#fff;stop-opacity:1"/><stop offset="1" style="stop-color:#c8d7e6;stop-opacity:1"/></linearGradient><linearGradient id="_Linear8" x1="0" y1="0" x2="1" y2="0" gradientUnits="userSpaceOnUse" gradientTransform="matrix(47.7318,0,0,47.7318,100.21,145.533)"><stop offset="0" style="stop-color:#fff;stop-opacity:1"/><stop offset="1" style="stop-color:#c8d7e6;stop-opacity:1"/></linearGradient><linearGradient id="_Linear9" x1="0" y1="0" x2="1" y2="0" gradientUnits="userSpaceOnUse" gradientTransform="matrix(47.7318,0,0,47.7318,100.21,145.533)"><stop offset="0" style="stop-color:#393838;stop-opacity:1"/><stop offset="1" style="stop-color:#222e32;stop-opacity:1"/></linearGradient><linearGradient id="_Linear10" x1="0" y1="0" x2="1" y2="0" gradientUnits="userSpaceOnUse" gradientTransform="matrix(47.7344,0,0,47.7344,160.89,145.533)"><stop offset="0" style="stop-color:#f3dcc1;stop-opacity:1"/><stop offset="1" style="stop-color:#c4bcaf;stop-opacity:1"/></linearGradient><linearGradient id="_Linear11" x1="0" y1="0" x2="1" y2="0" gradientUnits="userSpaceOnUse" gradientTransform="matrix(47.7344,0,0,47.7344,160.89,145.533)"><stop offset="0" style="stop-color:#fff;stop-opacity:1"/><stop offset="1" style="stop-color:#c8d7e6;stop-opacity:1"/></linearGradient><linearGradient id="_Linear12" x1="0" y1="0" x2="1" y2="0" gradientUnits="userSpaceOnUse" gradientTransform="matrix(47.7344,0,0,47.7344,160.89,145.533)"><stop offset="0" style="stop-color:#e0c6ae;stop-opacity:1"/><stop offset="1" style="stop-color:#b4a89f;stop-opacity:1"/></linearGradient><linearGradient id="_Linear13" x1="0" y1="0" x2="1" y2="0" gradientUnits="userSpaceOnUse" gradientTransform="matrix(47.7344,0,0,47.7344,160.89,145.533)"><stop offset="0" style="stop-color:#6d4b3e;stop-opacity:1"/><stop offset="1" style="stop-color:#543e39;stop-opacity:1"/></linearGradient><linearGradient id="_Linear14" x1="0" y1="0" x2="1" y2="0" gradientUnits="userSpaceOnUse" gradientTransform="matrix(47.7344,0,0,47.7344,160.89,145.533)"><stop offset="0" style="stop-color:#996249;stop-opacity:1"/><stop offset="1" style="stop-color:#7c5243;stop-opacity:1"/></linearGradient><linearGradient id="_Linear15" x1="0" y1="0" x2="1" y2="0" gradientUnits="userSpaceOnUse" gradientTransform="matrix(47.7344,0,0,47.7344,160.89,145.533)"><stop offset="0" style="stop-color:#4c433d;stop-opacity:1"/><stop offset="1" style="stop-color:#353837;stop-opacity:1"/></linearGradient><linearGradient id="_Linear16" x1="0" y1="0" x2="1" y2="0" gradientUnits="userSpaceOnUse" gradientTransform="matrix(47.7344,0,0,47.7344,160.89,145.533)"><stop offset="0" style="stop-color:#fff;stop-opacity:1"/><stop offset="1" style="stop-color:#c8d7e6;stop-opacity:1"/></linearGradient><linearGradient id="_Linear17" x1="0" y1="0" x2="1" y2="0" gradientUnits="userSpaceOnUse" gradientTransform="matrix(47.7344,0,0,47.7344,160.89,145.533)"><stop offset="0" style="stop-color:#fff;stop-opacity:1"/><stop offset="1" style="stop-color:#c8d7e6;stop-opacity:1"/></linearGradient><linearGradient id="_Linear18" x1="0" y1="0" x2="1" y2="0" gradientUnits="userSpaceOnUse" gradientTransform="matrix(47.7344,0,0,47.7344,160.89,145.533)"><stop offset="0" style="stop-color:#393838;stop-opacity:1"/><stop offset="1" style="stop-color:#222e32;stop-opacity:1"/></linearGradient><linearGradient id="_Linear19" x1="0" y1="0" x2="1" y2="0" gradientUnits="userSpaceOnUse" gradientTransform="matrix(47.7344,0,0,47.7344,160.89,145.533)"><stop offset="0" style="stop-color:#d4624a;stop-opacity:1"/><stop offset="1" style="stop-color:#b14e45;stop-opacity:1"/></linearGradient><linearGradient id="_Linear20" x1="0" y1="0" x2="1" y2="0" gradientUnits="userSpaceOnUse" gradientTransform="matrix(-2.44308,-25.8967,25.8967,-2.44308,124.52,166.464)"><stop offset="0" style="stop-color:#eed8c3;stop-opacity:1"/><stop offset="1" style="stop-color:#9ca4a7;stop-opacity:1"/></linearGradient><linearGradient id="_Linear21" x1="0" y1="0" x2="1" y2="0" gradientUnits="userSpaceOnUse" gradientTransform="matrix(-2.44308,-25.8967,25.8967,-2.44308,124.52,166.464)"><stop offset="0" style="stop-color:#fff;stop-opacity:1"/><stop offset="1" style="stop-color:#a4c0d5;stop-opacity:1"/></linearGradient><linearGradient id="_Linear22" x1="0" y1="0" x2="1" y2="0" gradientUnits="userSpaceOnUse" gradientTransform="matrix(-2.44308,-25.8967,25.8967,-2.44308,124.52,166.464)"><stop offset="0" style="stop-color:#e7d3c1;stop-opacity:1"/><stop offset="1" style="stop-color:#97a0a4;stop-opacity:1"/></linearGradient><linearGradient id="_Linear23" x1="0" y1="0" x2="1" y2="0" gradientUnits="userSpaceOnUse" gradientTransform="matrix(-2.44308,-25.8967,25.8967,-2.44308,124.52,166.464)"><stop offset="0" style="stop-color:#8b6e62;stop-opacity:1"/><stop offset="1" style="stop-color:#585253;stop-opacity:1"/></linearGradient><linearGradient id="_Linear24" x1="0" y1="0" x2="1" y2="0" gradientUnits="userSpaceOnUse" gradientTransform="matrix(-2.44308,-25.8967,25.8967,-2.44308,186.37,160.628)"><stop offset="0" style="stop-color:#ebd4c3;stop-opacity:1"/><stop offset="1" style="stop-color:#9ba1a5;stop-opacity:1"/></linearGradient><linearGradient id="_Linear25" x1="0" y1="0" x2="1" y2="0" gradientUnits="userSpaceOnUse" gradientTransform="matrix(-2.44308,-25.8967,25.8967,-2.44308,186.37,160.628)"><stop offset="0" style="stop-color:#f7e5d0;stop-opacity:1"/><stop offset="1" style="stop-color:#a1acb0;stop-opacity:1"/></linearGradient><linearGradient id="_Linear26" x1="0" y1="0" x2="1" y2="0" gradientUnits="userSpaceOnUse" gradientTransform="matrix(-2.44308,-25.8967,25.8967,-2.44308,186.37,160.628)"><stop offset="0" style="stop-color:#fff;stop-opacity:1"/><stop offset="1" style="stop-color:#a4c0d5;stop-opacity:1"/></linearGradient><linearGradient id="_Linear27" x1="0" y1="0" x2="1" y2="0" gradientUnits="userSpaceOnUse" gradientTransform="matrix(-2.44308,-25.8967,25.8967,-2.44308,186.37,160.628)"><stop offset="0" style="stop-color:#e7d3c1;stop-opacity:1"/><stop offset="1" style="stop-color:#97a0a4;stop-opacity:1"/></linearGradient><linearGradient id="_Linear28" x1="0" y1="0" x2="1" y2="0" gradientUnits="userSpaceOnUse" gradientTransform="matrix(-2.44308,-25.8967,25.8967,-2.44308,186.37,160.628)"><stop offset="0" style="stop-color:#8b6e62;stop-opacity:1"/><stop offset="1" style="stop-color:#585253;stop-opacity:1"/></linearGradient><linearGradient id="_Linear29" x1="0" y1="0" x2="1" y2="0" gradientUnits="userSpaceOnUse" gradientTransform="matrix(-2.44308,-25.8967,25.8967,-2.44308,186.37,160.628)"><stop offset="0" style="stop-color:#df8970;stop-opacity:1"/><stop offset="1" style="stop-color:#9c6460;stop-opacity:1"/></linearGradient></defs></svg>