<?xml version="1.0" encoding="UTF-8" standalone="no"?><!DOCTYPE svg PUBLIC "-//W3C//DTD SVG 1.1//EN" "http://www.w3.org/Graphics/SVG/1.1/DTD/svg11.dtd"><svg width="100%" height="100%" viewBox="0 0 300 301" version="1.1" xmlns="http://www.w3.org/2000/svg" xmlns:xlink="http://www.w3.org/1999/xlink" xml:space="preserve" style="fill-rule:evenodd;clip-rule:evenodd;stroke-linejoin:round;stroke-miterlimit:1.41421;"><g id="_48"><g id="avatar7"><rect x="0.399" y="0.16" width="299.371" height="299.705" style="fill:#718faf;fill-rule:nonzero;"/><path d="M154.34,187.413l0,112.621l-60.72,0c-0.99,-0.395 -1.48,-0.596 -1.48,-0.596c0,-14.376 2.1,-25.584 5.3,-34.325c7.73,-21.096 21.88,-27.796 28.4,-29.816c2.13,-0.663 3.45,-0.823 3.45,-0.823c0.23,0 0.45,-0.021 0.67,-0.056c1.91,-0.309 3.46,-1.975 4.71,-4.633c0.92,-1.974 1.7,-4.494 2.33,-7.409c0.25,-1.137 0.45,-2.283 0.65,-3.522c0.29,-2.083 0.58,-4.262 0.84,-6.545c0.09,-1.389 0.24,-2.726 0.39,-4.165c0.54,-6.89 0.69,-14.433 0.69,-21.574c0,0 8.16,0.843 14.77,0.843Z" style="fill:#e0bd9a;fill-rule:nonzero;"/><path d="M216.8,299.438c0,0 -0.54,0.201 -1.43,0.596l-61.03,0l0,-112.621l0.15,0c6.57,0 14.83,-0.843 14.83,-0.843c0,7.09 0.14,14.53 0.69,21.425c0.15,1.342 0.3,2.725 0.39,4.067c0.25,2.38 0.55,4.612 0.89,6.694l0,0.047c0.1,0.946 0.3,1.789 0.45,2.678c0.6,2.931 1.33,5.507 2.2,7.574c1.1,2.571 2.42,4.365 4.03,5.075c0.52,0.231 1.06,0.344 1.63,0.344c0,0 2.34,0.283 5.84,1.661c7.15,2.807 19.16,10.175 26.05,28.978c3.21,8.741 5.31,19.949 5.31,34.325Z" style="fill:#efd0ad;fill-rule:nonzero;"/><path d="M171.29,218.546l0,0.049c-1.53,2.365 -6.67,9.164 -16.85,9.164l-0.09,0c-9.64,-0.05 -15.27,-7.045 -16.71,-9.115c0.3,-2.069 0.6,-4.236 0.84,-6.503c0.1,-1.33 0.25,-2.709 0.4,-4.138c4.69,1.182 9.83,1.921 15.27,2.02l0.2,0c5.63,-0.099 10.82,-0.887 15.66,-2.168c0.15,1.33 0.3,2.71 0.4,4.04c0.24,2.365 0.54,4.582 0.88,6.651Z" style="fill:#be987f;fill-rule:nonzero;"/><path d="M153.65,59.07c-64.33,0 -64.68,53.947 -61.81,89.271c-4.4,-8.375 -17.49,-5.814 -16.41,7.39c1.04,12.711 19.75,19.189 19.22,17.785c9.75,26.124 35.53,45.818 59,45.818l0.5,0l0,-160.264l-0.5,0Z" style="fill:#d2a686;fill-rule:nonzero;"/><path d="M79.53,150.164c3.17,-5.124 8.11,-2.907 9.29,-1.774c1.29,1.232 2.33,2.808 1.54,5.814c-0.45,1.724 -2.23,1.872 -1.83,4.434c0.49,2.906 1.83,3.054 2.62,3.744c0.74,0.64 1.68,1.133 2.12,2.365c0.5,1.231 0.54,2.512 0.3,3.645c-0.5,2.07 -3.51,0.394 -5.54,-0.492c-1.33,-0.641 -5.58,-4.237 -6.67,-5.42c-2.67,-3.054 -3.95,-8.966 -1.83,-12.316Z" style="fill:#ac8774;fill-rule:nonzero;"/><path d="M154,59.07c64.34,0 64.68,53.947 61.87,89.271c4.39,-8.375 17.44,-5.814 16.35,7.39c-0.99,12.711 -19.73,19.193 -19.22,17.785c-9.49,26.124 -35.53,45.818 -59,45.818c-0.15,0 -0.35,0 -0.35,0l-0.14,-160.264c0,0 0.34,0 0.49,0Z" style="fill:#ddb598;fill-rule:nonzero;"/><path d="M228.12,150.164c-3.16,-5.124 -8.05,-2.907 -9.29,-1.774c-1.28,1.232 -2.27,2.808 -1.53,5.814c0.44,1.724 2.22,1.872 1.83,4.434c-0.5,2.906 -1.83,3.054 -2.57,3.744c-0.74,0.64 -1.73,1.133 -2.18,2.365c-0.44,1.231 -0.54,2.512 -0.29,3.645c0.49,2.07 3.5,0.394 5.53,-0.492c1.38,-0.641 5.58,-4.237 6.67,-5.42c2.72,-3.054 3.95,-8.966 1.83,-12.316Z" style="fill:#ac8774;fill-rule:nonzero;"/><path d="M153.15,74.293c-21.15,0 -36.67,6.159 -46.01,18.278c-13.09,16.997 -12.6,42.911 -7.8,61.534c1.48,5.715 2.27,21.037 3.26,26.654c4.59,25.175 32.31,38.575 50.55,38.575c0,0 0.34,0 0.49,0l0,-145.041c-0.15,0 -0.29,0 -0.29,0l-0.2,0Z" style="fill:#e0bd9a;fill-rule:nonzero;"/><path d="M199.1,92.621c-9.29,-12.071 -24.61,-18.229 -45.46,-18.328l0,145.041c20.85,-0.246 45.81,-14.928 50.06,-38.575c1.04,-5.617 1.78,-20.939 3.26,-26.654c4.84,-18.573 5.34,-44.439 -7.86,-61.484Z" style="fill:#efd0ad;fill-rule:nonzero;"/><path d="M153.84,190.886" style="fill:#bc917b;fill-rule:nonzero;"/><path d="M153.84,190.886" style="fill:#bc917b;fill-rule:nonzero;"/><path d="M150.27,193.623c-0.1,-0.022 -0.2,-0.041 -0.31,-0.065c0.1,0.022 0.19,0.041 0.31,0.065Z" style="fill:#bc917b;fill-rule:nonzero;"/><path d="M153.84,193.43" style="fill:#bc917b;fill-rule:nonzero;"/><path d="M149.48,193.447c-0.09,-0.024 -0.18,-0.051 -0.27,-0.076l-0.01,0.005c0,0 0.11,0.028 0.28,0.071Z" style="fill:#bc917b;fill-rule:nonzero;"/><path d="M153.84,193.43" style="fill:#bc917b;fill-rule:nonzero;"/><path d="M135.68,74.655l-0.27,0.269l0.05,0.089c0.09,-0.134 0.13,-0.268 0.22,-0.358Z" style="fill:#432e1b;fill-rule:nonzero;"/><path d="M94.72,125.763" style="fill:#432e1b;fill-rule:nonzero;"/><path d="M154.11,193.449" style="fill:#ba907b;fill-rule:nonzero;"/><path d="M154.11,193.449" style="fill:#ba907b;fill-rule:nonzero;"/><path d="M150.44,190.681c-0.1,-0.023 -0.2,-0.043 -0.31,-0.067c0.1,0.023 0.19,0.042 0.31,0.067Z" style="fill:#ba907b;fill-rule:nonzero;"/><path d="M154.11,190.483" style="fill:#ba907b;fill-rule:nonzero;"/><path d="M149.64,190.5c-0.1,-0.025 -0.19,-0.052 -0.28,-0.078l-0.01,0.005c0,0 0.11,0.029 0.29,0.073Z" style="fill:#ba907b;fill-rule:nonzero;"/><path d="M154.11,190.483" style="fill:#ba907b;fill-rule:nonzero;"/><path d="M142.58,172.258c-0.25,-5.147 9.43,-1.88 12.62,-1.719c2.52,0.129 10.19,-1.623 10.85,-1.172c4.51,3.052 -4.78,9.199 -11.01,9.199c-1.66,0 -12.31,-3.202 -12.46,-6.308Z" style="fill:#dcb497;fill-rule:nonzero;"/><path d="M107.49,130.903c0,0 4.91,20.199 13.33,21.847c8.43,1.648 17.55,-1.629 17.55,-1.629c0,0 0.87,-23.737 -3.44,-26.838c-4.31,-3.116 -14.25,-7.617 -27.44,6.62Z" style="fill:#fff;fill-rule:nonzero;"/><path d="M138.38,151.059c0,0 -0.19,0.056 -0.62,0.237c-0.11,-7.28 -0.78,-17.281 -3.48,-19.196c-4,-2.943 -13.05,-7.084 -25.14,4.242c-1.09,-3.129 -1.64,-5.502 -1.64,-5.502c13.21,-14.264 23.16,-9.77 27.43,-6.653c4.32,3.114 3.45,26.872 3.45,26.872Z" style="fill:#d6b496;fill-rule:nonzero;"/><path d="M133.39,140.774c0,4.594 -3.71,8.32 -8.29,8.32c-4.58,0 -8.3,-3.726 -8.3,-8.32c0,-4.595 3.72,-8.32 8.3,-8.32c4.58,0 8.29,3.725 8.29,8.32Z" style="fill:#482315;fill-rule:nonzero;"/><path d="M124.71,146.315c-2.39,-0.199 -4.23,-2.623 -4.01,-5.289c0.21,-2.665 2.42,-4.751 4.82,-4.549c2.39,0.197 4.23,2.619 4.02,5.284c-0.22,2.666 -2.43,4.755 -4.83,4.554Z" style="fill:#7e3a22;fill-rule:nonzero;"/><path d="M124.92,145.353c-1.67,-0.142 -3.4,-1.977 -3.21,-4.237c0.18,-2.267 2.19,-3.797 3.85,-3.659c1.67,0.142 3.4,1.984 3.21,4.244c-0.18,2.263 -2.19,3.79 -3.85,3.652Z" style="fill:#211a10;fill-rule:nonzero;"/><path d="M123.57,139.778c-0.07,0.817 -0.91,1.414 -1.86,1.335c-0.96,-0.082 -1.69,-0.812 -1.62,-1.624c0.07,-0.821 0.9,-1.418 1.86,-1.339c0.96,0.078 1.68,0.807 1.62,1.628Z" style="fill:#fff;fill-rule:nonzero;"/><path d="M128.95,144.503c-0.04,0.406 -0.46,0.706 -0.93,0.665c-0.48,-0.037 -0.84,-0.406 -0.81,-0.812c0.03,-0.406 0.45,-0.706 0.93,-0.665c0.48,0.037 0.84,0.402 0.81,0.812Z" style="fill:#fff;fill-rule:nonzero;"/><path d="M154.24,190.399" style="fill:#ba907b;fill-rule:nonzero;"/><path d="M154.24,190.399" style="fill:#ba907b;fill-rule:nonzero;"/><path d="M150.57,193.063c-0.1,-0.022 -0.2,-0.043 -0.31,-0.067c0.11,0.023 0.2,0.042 0.31,0.067Z" style="fill:#ba907b;fill-rule:nonzero;"/><path d="M154.24,192.865" style="fill:#ba907b;fill-rule:nonzero;"/><path d="M149.77,192.882c-0.1,-0.024 -0.18,-0.052 -0.28,-0.077l-0.01,0.004c0,0 0.11,0.029 0.29,0.073Z" style="fill:#ba907b;fill-rule:nonzero;"/><path d="M154.24,192.865" style="fill:#ba907b;fill-rule:nonzero;"/><path d="M154.13,190.027" style="fill:#bc917b;fill-rule:nonzero;"/><path d="M154.13,190.027" style="fill:#bc917b;fill-rule:nonzero;"/><path d="M150.2,192.493c-0.11,-0.024 -0.22,-0.046 -0.34,-0.072c0.11,0.024 0.21,0.045 0.34,0.072Z" style="fill:#bc917b;fill-rule:nonzero;"/><path d="M154.13,192.281" style="fill:#bc917b;fill-rule:nonzero;"/><path d="M149.33,192.299c-0.1,-0.027 -0.19,-0.056 -0.29,-0.083l-0.01,0.004c0,0 0.11,0.031 0.3,0.079Z" style="fill:#bc917b;fill-rule:nonzero;"/><path d="M154.13,192.281" style="fill:#bc917b;fill-rule:nonzero;"/><path d="M153.88,189.183" style="fill:#bc917b;fill-rule:nonzero;"/><path d="M153.88,189.183" style="fill:#bc917b;fill-rule:nonzero;"/><path d="M149.95,191.648c-0.11,-0.024 -0.22,-0.046 -0.33,-0.071c0.11,0.024 0.2,0.044 0.33,0.071Z" style="fill:#bc917b;fill-rule:nonzero;"/><path d="M153.88,191.436" style="fill:#bc917b;fill-rule:nonzero;"/><path d="M149.09,191.454c-0.11,-0.026 -0.2,-0.056 -0.3,-0.083l-0.01,0.004c0,0 0.11,0.032 0.31,0.079Z" style="fill:#bc917b;fill-rule:nonzero;"/><path d="M153.88,191.436" style="fill:#bc917b;fill-rule:nonzero;"/><path d="M154.52,188.968" style="fill:#bc917b;fill-rule:nonzero;"/><path d="M154.52,188.968" style="fill:#bc917b;fill-rule:nonzero;"/><path d="M150.72,191.532c-0.11,-0.023 -0.22,-0.044 -0.32,-0.069c0.1,0.024 0.2,0.044 0.32,0.069Z" style="fill:#bc917b;fill-rule:nonzero;"/><path d="M154.52,191.328" style="fill:#bc917b;fill-rule:nonzero;"/><path d="M149.89,191.345c-0.1,-0.025 -0.19,-0.054 -0.29,-0.08l-0.01,0.004c0,0 0.11,0.031 0.3,0.076Z" style="fill:#bc917b;fill-rule:nonzero;"/><path d="M154.52,191.328" style="fill:#bc917b;fill-rule:nonzero;"/><path d="M200.3,130.216c0,0 -4.91,20.198 -13.33,21.847c-8.43,1.648 -17.55,-1.629 -17.55,-1.629c0,0 -0.87,-23.737 3.44,-26.839c4.31,-3.115 14.25,-7.617 27.44,6.621Z" style="fill:#fff;fill-rule:nonzero;"/><path d="M169.41,150.372c0,0 0.19,0.056 0.62,0.237c0.11,-7.281 0.78,-17.281 3.48,-19.197c4,-2.942 13.05,-7.083 25.13,4.243c1.1,-3.129 1.65,-5.502 1.65,-5.502c-13.21,-14.264 -23.16,-9.771 -27.44,-6.653c-4.32,3.114 -3.44,26.872 -3.44,26.872Z" style="fill:#d6b496;fill-rule:nonzero;"/><path d="M174.4,140.087c0,4.594 3.71,8.319 8.29,8.319c4.58,0 8.29,-3.725 8.29,-8.319c0,-4.595 -3.71,-8.32 -8.29,-8.32c-4.58,0 -8.29,3.725 -8.29,8.32Z" style="fill:#482315;fill-rule:nonzero;"/><path d="M183.07,145.627c2.4,-0.198 4.24,-2.622 4.02,-5.288c-0.21,-2.665 -2.42,-4.751 -4.82,-4.55c-2.39,0.198 -4.23,2.62 -4.02,5.284c0.22,2.666 2.43,4.755 4.82,4.554Z" style="fill:#7e3a22;fill-rule:nonzero;"/><path d="M182.87,144.666c1.67,-0.143 3.4,-1.977 3.21,-4.237c-0.19,-2.267 -2.19,-3.797 -3.85,-3.66c-1.67,0.142 -3.4,1.985 -3.21,4.245c0.18,2.263 2.19,3.79 3.85,3.652Z" style="fill:#211a10;fill-rule:nonzero;"/><path d="M184.22,139.091c0.07,0.816 0.9,1.413 1.86,1.335c0.96,-0.083 1.68,-0.812 1.62,-1.625c-0.07,-0.82 -0.9,-1.417 -1.86,-1.339c-0.96,0.079 -1.69,0.808 -1.62,1.629Z" style="fill:#fff;fill-rule:nonzero;"/><path d="M178.84,143.815c0.04,0.407 0.45,0.707 0.93,0.666c0.48,-0.037 0.84,-0.406 0.81,-0.812c-0.03,-0.406 -0.45,-0.707 -0.93,-0.666c-0.48,0.038 -0.84,0.403 -0.81,0.812Z" style="fill:#fff;fill-rule:nonzero;"/><path d="M143.43,130.581c-0.06,-0.098 -1.59,-2.43 -4.72,-4.834c-1.96,-1.508 -3.88,-2.655 -5.87,-3.509c-2.42,-1.021 -5.02,-1.741 -7.55,-2.088c-2.28,-0.255 -4.81,-0.187 -7.77,0.211c-2.25,0.431 -4.45,1.104 -6.32,1.929c-1.33,0.46 -2.38,1.106 -3.22,1.625c-0.33,0.199 -0.62,0.379 -0.92,0.54l-4.02,2.538l4.64,-1.093c0.21,-0.055 0.45,-0.116 0.7,-0.183c0.96,-0.256 2.15,-0.574 3.55,-0.78c0.33,-0.048 0.66,-0.114 1,-0.182c0.59,-0.116 1.19,-0.237 1.82,-0.267c0.71,-0.047 1.43,-0.1 2.18,-0.153l0.98,-0.071c2.57,-0.032 4.74,0.163 6.66,0.608c2.11,0.365 4.28,1.047 6.26,1.969c1.88,0.901 3.68,1.793 5.08,2.827c2.83,1.897 4.41,3.479 4.42,3.494l0,0.001c0.39,0.393 0.91,0.596 1.44,0.596c0.38,0 0.76,-0.109 1.09,-0.329c0.94,-0.613 1.2,-1.876 0.61,-2.788l-0.04,-0.061Z" style="fill:#030405;fill-rule:nonzero;"/><path d="M201.13,124.436c-0.27,-0.142 -0.56,-0.322 -0.89,-0.522c-0.84,-0.519 -1.89,-1.164 -3.18,-1.608c-1.91,-0.841 -4.11,-1.514 -6.39,-1.949c-2.93,-0.395 -5.46,-0.462 -7.75,-0.206c-2.51,0.345 -5.12,1.066 -7.54,2.088c-1.97,0.842 -3.94,2.022 -5.87,3.508c-3.07,2.36 -4.6,4.651 -4.71,4.827l-0.03,0.042c-0.52,0.8 -0.41,1.871 0.26,2.546c0.39,0.386 0.89,0.598 1.43,0.598c0.54,-0.001 1.05,-0.213 1.43,-0.598l0.01,-0.017c0.15,-0.149 1.68,-1.65 4.43,-3.491c1.38,-1.017 3.18,-1.911 5.05,-2.81c2,-0.925 4.16,-1.607 6.3,-1.977c1.9,-0.44 4.07,-0.631 6.61,-0.604l1.02,0.073c0.74,0.053 1.46,0.105 2.17,0.152c0.62,0.03 1.23,0.151 1.81,0.267c0.34,0.068 0.67,0.135 1,0.183c1.4,0.206 2.59,0.523 3.55,0.779c0.26,0.067 0.49,0.129 0.71,0.184l4.64,1.093l-4.06,-2.558Z" style="fill:#030405;fill-rule:nonzero;"/><path d="M152.95,198.349" style="fill:#be927b;fill-rule:nonzero;"/><path d="M152.95,198.349" style="fill:#be927b;fill-rule:nonzero;"/><path d="M149.12,195.454c-0.11,-0.023 -0.22,-0.044 -0.33,-0.069c0.11,0.024 0.2,0.043 0.33,0.069Z" style="fill:#be927b;fill-rule:nonzero;"/><path d="M152.95,195.248" style="fill:#be927b;fill-rule:nonzero;"/><path d="M148.28,195.266c-0.1,-0.026 -0.2,-0.055 -0.29,-0.082l-0.01,0.005c0,0 0.11,0.03 0.3,0.077Z" style="fill:#be927b;fill-rule:nonzero;"/><path d="M152.95,195.248" style="fill:#be927b;fill-rule:nonzero;"/><path d="M141.75,199.621c-0.24,-3.247 9.02,0.68 12.06,0.774c2.43,0.082 9.71,-0.481 10.39,-0.739c5.09,-1.911 -0.28,5.429 -10.54,5.815c-4.7,0.188 -11.77,-3.88 -11.91,-5.85Z" style="fill:#f0d2ad;fill-rule:nonzero;"/><path d="M171.9,193.361c-2.51,-0.124 -5.09,1.977 -8.12,1.656c-0.12,-0.062 -0.18,-0.062 -0.31,-0.062c-0.7,-0.123 -1.39,0 -2.14,0.185c-0.94,0.198 -1.89,0.58 -2.77,0.889c-1.51,0.493 -3.22,0.888 -4.97,0.752l0,0.012l-0.1,-0.011l-0.09,0.011l0,-0.012c-1.76,0.136 -3.46,-0.259 -4.97,-0.752c-0.89,-0.309 -1.83,-0.691 -2.77,-0.889c-0.76,-0.185 -1.45,-0.308 -2.14,-0.185c-0.13,0 -0.19,0 -0.31,0.062c-3.03,0.321 -5.61,-1.78 -8.12,-1.656c-0.7,0.061 -1.71,-0.124 -2.27,-0.124c0.12,0.061 0.25,0.124 0.38,0.185c7.17,3.504 13.35,10.068 20.2,9.858l0.19,0c6.85,0.21 13.03,-6.354 20.2,-9.858c0.13,-0.061 0.25,-0.124 0.38,-0.185c-0.57,0 -1.57,0.185 -2.27,0.124Z" style="fill:#dcbf9e;fill-rule:nonzero;"/><path d="M174.01,193.16c0,0 -7.29,-2.815 -12.47,-1.163c0,0 -1.93,0.754 -3.93,1.214c-1.22,0.475 -2.69,0.613 -4.12,0.556c-1.09,-0.044 -2.12,-0.183 -2.97,-0.332c-0.29,-0.043 -0.57,-0.101 -0.86,-0.163c-0.12,-0.026 -0.22,-0.046 -0.32,-0.069c-0.18,-0.041 -0.35,-0.075 -0.52,-0.12c-0.19,-0.046 -0.3,-0.077 -0.3,-0.077l0.01,-0.004c-1.66,-0.45 -3.08,-1.005 -3.08,-1.005c-5.18,-1.652 -12.47,1.163 -12.47,1.163c-0.1,0.046 -0.16,0.077 -0.16,0.077c0.56,0 1.57,0.185 2.27,0.124c2.51,-0.124 5.09,1.977 8.12,1.656c0.12,-0.062 0.18,-0.062 0.31,-0.062c0.69,-0.123 1.38,0 2.14,0.185c0.94,0.198 1.88,0.58 2.77,0.889c1.51,0.493 3.21,0.888 4.97,0.752l0,0.012l0.09,-0.011l0.1,0.011l0,-0.012c1.75,0.136 3.46,-0.259 4.97,-0.752c0.88,-0.309 1.83,-0.691 2.77,-0.889c0.75,-0.185 1.44,-0.308 2.14,-0.185c0.13,0 0.19,0 0.31,0.062c3.03,0.321 5.61,-1.78 8.12,-1.656c0.7,0.061 1.7,-0.124 2.27,-0.124c0,0 -0.06,-0.031 -0.16,-0.077Z" style="fill:#c69f83;fill-rule:nonzero;"/><path d="M141.26,194.875c0.13,0.033 13.65,4.163 24.22,0.09l-1.21,-0.822l-14.3,0l-8.71,0.732Z" style="fill:#c69f83;fill-rule:nonzero;"/><path d="M99.39,252.34c0,0 -8.97,19.21 -8.86,30.47l11.43,0c-0.04,7.723 -0.28,13.599 -0.52,17.224l52.97,0l-52.38,-50.973c-0.89,1.025 -1.78,2.105 -2.64,3.279Z" style="fill:#7c5a9f;fill-rule:nonzero;"/><path d="M218.39,282.81c0.41,-17.226 -8.72,-30.47 -8.72,-30.47c-3.1,-4.266 -6.48,-7.5 -9.83,-9.965c-0.26,-0.26 -0.59,-0.475 -0.88,-0.695c-4.4,-3.184 -8.62,-4.987 -11.72,-6.004c-0.61,-0.219 -1.17,-0.385 -1.67,-0.56c-2.27,-0.627 -3.67,-0.755 -3.67,-0.755c-1.25,0 -2.37,-0.475 -3.34,-1.283l-0.05,-0.042c-0.33,-0.307 -0.66,-0.67 -0.96,-1.064c-0.15,0.088 -0.38,0.437 -0.62,1.106c-0.64,1.554 -3.41,7.492 -7.54,12.924l37.82,36.808l11.18,0Z" style="fill:#3d2a56;fill-rule:nonzero;"/><path d="M207.66,300.032l-53.25,0l-52.38,-50.963c2.32,-2.674 4.71,-4.855 7.1,-6.625l0.18,-0.144c0.23,-0.226 0.5,-0.391 0.7,-0.535c0.78,-0.555 1.57,-1.069 2.33,-1.563c3.45,-2.202 6.72,-3.601 9.28,-4.485c0.59,-0.206 1.15,-0.391 1.66,-0.515c2.41,-0.679 3.89,-0.843 3.89,-0.843c1.26,0 2.37,-0.474 3.33,-1.276l0.04,-0.041c0.31,-0.288 0.64,-0.659 0.95,-1.029l0.04,-0.041c0.08,0.041 0.17,0.144 0.27,0.329l0.02,0.041c0.1,0.186 0.21,0.432 0.31,0.741c1.25,3.024 10.64,22.837 22.4,22.817c0.27,0 0.54,-0.021 0.81,-0.041c5.41,-0.412 10.28,-4.917 14.05,-9.855l37.81,36.807l-0.12,0c0.04,7.715 0.31,13.6 0.58,17.221Z" style="fill:#554467;fill-rule:nonzero;"/><path d="M154.6,201.342l0,-0.004l-0.04,0.002l-0.05,-0.002l0,0.004c-2.04,0.032 -4,1.063 -5.07,4.271c0,0 -1.29,4.141 -5.54,6.718c-9.95,-3.294 -8.77,-10.006 -5.66,-15.397c4.48,-0.654 10.05,-1.52 16.67,-2.078c0,0 7.79,2.633 15.87,3.525c2.17,4.728 2.28,10.026 -5.16,13.075c-4.78,-1.999 -5.94,-5.843 -5.94,-5.843c-1.07,-3.208 -3.03,-4.239 -5.08,-4.271Zm20.06,-12.557c0,0 -10.49,-13.707 -19.76,-8.222c-9.25,-5.485 -19.75,8.222 -19.75,8.222c-9.11,8.874 -14.98,-1.156 -14.98,-1.156c0.17,3.18 0.89,5.368 2.16,7.029l0.06,0.064c0,0 0.24,0.24 0.58,0.56c0.32,0.319 0.84,0.737 1.55,1.146l0.04,0.021c0.69,0.391 1.59,0.785 2.72,1.074c0.36,0.113 0.79,0.182 1.26,0.23c0.42,7.611 3.71,13.123 6.61,16.553l-0.19,-0.002c0,0 1.47,1.813 4.15,3.858c0.33,0.25 0.52,0.379 0.52,0.379l0,-0.002c3.39,2.479 8.48,5.152 14.88,5.303l0,0.004l0.05,-0.002l0.04,0.002l0,-0.004c6.19,-0.146 11,-3.095 14.24,-5.938c1.78,-1.338 9.54,-7.833 10.61,-19.477c0.82,-0.113 1.63,-0.255 2.38,-0.461c1.4,-0.271 2.68,-0.768 3.78,-1.538c2.27,-1.595 3.79,-4.369 4.03,-8.799c0,0 -5.85,10.03 -14.98,1.156Z" style="fill:#36393a;fill-rule:nonzero;"/><path d="M221.52,91.522c-1.34,-4.85 -2.71,-8.602 -2.72,-8.626c0.01,0.009 0.2,0.045 2.06,0.045c11.52,-0.025 18.02,-11.059 18.02,-11.059c0,0 -4.35,6.297 -19.3,1.388c-14.61,-4.785 -14.23,-20.381 -35.23,-29.084c-10.75,-4.457 -17.17,-3.875 -20.89,-2.249c3.77,-3.066 11.51,-2.793 11.51,-2.793c0,0 -9.55,-5.212 -24.32,-0.538c-10.37,3.288 -16.58,7.03 -20.06,9.714l5.82,-5.499c0,0 -4.13,1.451 -9.96,4.398c3.97,-7.632 11.31,-15.995 11.31,-15.995c-18.71,6.907 -34.2,31.755 -34.2,31.755c1.49,-9.37 4.76,-17.942 4.76,-17.942c-31.93,23.544 -26.96,66.06 -26.96,66.06c0,16.092 6.4,32.224 10.6,37.017c4.2,4.79 2.85,11.74 4.11,11.74c0,0 2.53,0.089 2.61,-12.049c0.12,-1.548 0.38,-3.448 0.95,-5.11c0,0 3.89,-67.846 50.94,-48.111c0,0 19.06,8.14 33.89,9.425c11.03,0.955 20.1,9.23 22.48,20.042c1.13,5.143 1.41,9.673 0.88,12.308c-3.15,15.743 1.24,24.808 2.92,24.383c0,0 0.06,-3.999 1.59,-7.562c4.51,-10.612 8.31,-3.238 9.01,-17.629c0.56,-11.552 1.97,-18.079 2.54,-23.943c3.58,2.833 8.93,4.842 16.92,5.007c0,0 -11.3,-3.471 -19.28,-25.093Z" style="fill:#36393a;fill-rule:nonzero;"/><path d="M199.53,300.032l-32.49,0l-57.73,-57.732c0.23,-0.226 0.5,-0.391 0.7,-0.535c0.78,-0.555 1.57,-1.069 2.33,-1.563c3.45,-2.202 6.72,-3.601 9.28,-4.485c0.59,-0.206 1.15,-0.391 1.66,-0.515c2.41,-0.679 3.89,-0.843 3.89,-0.843c1.26,0 2.37,-0.474 3.33,-1.276l0.04,-0.041c0.31,-0.288 0.64,-0.659 0.95,-1.029l0.31,0.288l0.02,0.041c0.1,0.186 0.21,0.432 0.31,0.741c1.25,3.024 10.64,22.837 22.4,22.817c0.27,0 0.54,-0.021 0.81,-0.041l44.19,44.173Z" style="fill:#ac91c4;fill-rule:nonzero;"/></g><path d="M104.06,154.258c-2.94,-6.935 -2.13,-13.837 -2.13,-13.837c0.88,-4.188 2.99,-7.033 5.71,-8.934c0.66,2.5 3.5,12.408 8.08,17.811c-4.28,1.136 -8.12,2.895 -11.4,4.811c-0.04,0.022 -0.08,0.044 -0.12,0.066c0,0.003 -0.01,0.005 -0.01,0.007c-0.04,0.025 -0.09,0.051 -0.13,0.076Zm39.95,-1.499c-0.17,-0.087 -0.33,-0.172 -0.5,-0.256c-0.03,-0.019 -0.07,-0.038 -0.1,-0.056c-0.02,-0.007 -0.03,-0.014 -0.05,-0.021c-0.01,-0.009 -0.03,-0.019 -0.05,-0.028c-1.66,-0.839 -3.29,-1.542 -4.91,-2.124c0.07,-2.669 0.21,-11.601 -0.73,-18.347c11.19,7.362 6.77,19.327 6.77,19.327c-0.13,0.518 -0.27,1.019 -0.43,1.505Z" style="fill:url(#_Linear1);"/><path d="M137.73,150.038c-3.02,-1.029 -5.95,-1.632 -8.78,-1.895c2.64,-1.392 4.44,-4.17 4.44,-7.369c0,-4.595 -3.71,-8.32 -8.29,-8.32c-4.58,0 -8.3,3.725 -8.3,8.32c0,3.261 1.88,6.084 4.6,7.448c-1.97,0.222 -3.87,0.593 -5.68,1.076c-4.58,-5.403 -7.42,-15.311 -8.08,-17.811c0,-0.003 0.01,-0.007 0.01,-0.01c0.24,0.908 0.74,2.706 1.49,4.865c6.07,-5.683 11.37,-7.472 15.65,-7.472c4.25,0 7.5,1.764 9.49,3.23c2.54,1.807 3.29,10.811 3.45,17.938Z" style="fill:url(#_Linear2);"/><path d="M138.4,150.274c-0.22,-0.081 -0.44,-0.16 -0.67,-0.236c-0.16,-7.127 -0.91,-16.131 -3.45,-17.938c-1.99,-1.466 -5.24,-3.23 -9.49,-3.23c-4.28,0 -9.58,1.789 -15.65,7.472c-0.75,-2.159 -1.25,-3.957 -1.49,-4.865c3.96,-2.754 9.19,-3.522 13.8,-3.522c5.79,0 10.59,1.214 10.59,1.214c2.21,0.8 4.07,1.735 5.63,2.758c0.94,6.746 0.8,15.678 0.73,18.347Z" style="fill:url(#_Linear3);"/><path d="M121.4,148.222c-2.72,-1.364 -4.6,-4.187 -4.6,-7.448c0,-4.595 3.72,-8.32 8.3,-8.32c4.58,0 8.29,3.725 8.29,8.32c0,3.199 -1.8,5.977 -4.44,7.369c-1.14,-0.105 -2.26,-0.155 -3.36,-0.156c-0.01,0 -0.02,0 -0.02,0c-0.01,0 -0.02,0 -0.03,0c-1.41,0.001 -2.79,0.083 -4.14,0.235Zm-0.67,-7.466c-0.02,0.089 -0.03,0.179 -0.03,0.27c-0.22,2.666 1.62,5.09 4.01,5.289c0.11,0.009 0.22,0.013 0.32,0.013c1.07,0 2.07,-0.443 2.87,-1.176c0.04,0.008 0.08,0.013 0.12,0.016c0.03,0.003 0.05,0.004 0.08,0.004c0.44,0 0.81,-0.288 0.85,-0.669c0.01,-0.17 -0.04,-0.333 -0.15,-0.467c0.41,-0.667 0.67,-1.443 0.74,-2.275c0.21,-2.665 -1.63,-5.087 -4.02,-5.284c-0.11,-0.009 -0.22,-0.014 -0.32,-0.014c-1.29,0 -2.5,0.652 -3.35,1.681c-0.02,-0.001 -0.05,-0.001 -0.07,-0.001c-0.89,0 -1.63,0.574 -1.69,1.346c-0.04,0.496 0.21,0.961 0.64,1.267Z" style="fill:url(#_Linear4);"/><path d="M125.03,146.328c-0.1,0 -0.21,-0.004 -0.32,-0.013c-2.39,-0.199 -4.23,-2.623 -4.01,-5.289c0,-0.091 0.01,-0.181 0.03,-0.27c0.27,0.195 0.6,0.325 0.98,0.357c0,0.001 0,0.002 0,0.003c-0.19,2.26 1.54,4.095 3.21,4.237c0.07,0.006 0.14,0.008 0.21,0.008c0.71,0 1.46,-0.285 2.1,-0.788c0.07,0.28 0.33,0.512 0.67,0.579c-0.8,0.733 -1.8,1.176 -2.87,1.176Zm3.77,-2.292c-0.14,-0.189 -0.38,-0.323 -0.66,-0.345c-0.03,-0.002 -0.06,-0.003 -0.08,-0.004c0.39,-0.557 0.65,-1.23 0.71,-1.986c0.19,-2.26 -1.54,-4.102 -3.21,-4.244c-0.07,-0.006 -0.14,-0.009 -0.21,-0.009c-0.83,0 -1.71,0.391 -2.41,1.064c-0.27,-0.199 -0.61,-0.331 -0.99,-0.362c-0.03,-0.003 -0.07,-0.005 -0.1,-0.006c0.85,-1.029 2.06,-1.681 3.35,-1.681c0.1,0 0.21,0.005 0.32,0.014c2.39,0.197 4.23,2.619 4.02,5.284c-0.07,0.832 -0.33,1.608 -0.74,2.275Z" style="fill:url(#_Linear5);"/><path d="M125.13,145.361c-0.07,0 -0.14,-0.002 -0.21,-0.008c-1.67,-0.142 -3.4,-1.977 -3.21,-4.237c0,-0.001 0,-0.002 0,-0.003c0.05,0.004 0.11,0.007 0.17,0.007c0.88,0 1.63,-0.574 1.69,-1.342c0.04,-0.497 -0.21,-0.96 -0.63,-1.266c0.7,-0.673 1.58,-1.064 2.41,-1.064c0.07,0 0.14,0.003 0.21,0.009c1.67,0.142 3.4,1.984 3.21,4.244c-0.06,0.756 -0.32,1.429 -0.71,1.986l-0.01,0c-0.44,0 -0.81,0.288 -0.84,0.669c-0.01,0.074 0,0.147 0.02,0.217c-0.64,0.503 -1.39,0.788 -2.1,0.788Z" style="fill:url(#_Linear6);"/><path d="M121.88,141.12c-0.06,0 -0.12,-0.003 -0.17,-0.007c-0.38,-0.032 -0.71,-0.162 -0.98,-0.357c-0.43,-0.306 -0.68,-0.771 -0.64,-1.267c0.06,-0.772 0.8,-1.346 1.69,-1.346c0.02,0 0.05,0 0.07,0.001c0.03,0.001 0.07,0.003 0.1,0.006c0.38,0.031 0.72,0.163 0.99,0.362c0.42,0.306 0.67,0.769 0.63,1.266c-0.06,0.768 -0.81,1.342 -1.69,1.342Z" style="fill:url(#_Linear7);"/><path d="M128.1,145.172c-0.03,0 -0.05,-0.001 -0.08,-0.004c-0.04,-0.003 -0.08,-0.008 -0.12,-0.016c-0.34,-0.067 -0.6,-0.299 -0.67,-0.579c-0.02,-0.07 -0.03,-0.143 -0.02,-0.217c0.03,-0.381 0.4,-0.669 0.84,-0.669l0.01,0c0.02,0.001 0.05,0.002 0.08,0.004c0.28,0.022 0.52,0.156 0.66,0.345c0.11,0.134 0.16,0.297 0.15,0.467c-0.04,0.381 -0.41,0.669 -0.85,0.669Z" style="fill:url(#_Linear8);"/><path d="M168,154.677c-0.42,-1.052 -0.8,-2.191 -1.12,-3.423c0,0 -3.22,-8.718 2.8,-15.849c-0.56,7.224 -0.27,14.967 -0.27,14.967l0.01,0.002c0,0.04 0,0.06 0,0.06c0,0 1.67,0.603 4.25,1.161c-1.52,0.697 -3.07,1.506 -4.63,2.44c-0.07,0.04 -0.13,0.081 -0.2,0.122c-0.02,0.011 -0.04,0.022 -0.06,0.034c-0.06,0.036 -0.12,0.074 -0.18,0.111c-0.1,0.059 -0.19,0.118 -0.29,0.178c-0.06,0.039 -0.12,0.077 -0.18,0.116c-0.05,0.026 -0.09,0.054 -0.13,0.081Zm39.02,-2.66c-4.23,-1.983 -9.13,-3.527 -14.52,-3.929c5,-6.349 7.8,-17.872 7.8,-17.872c-0.01,-0.006 -0.01,-0.012 -0.02,-0.018c0.01,-0.03 0.01,-0.045 0.01,-0.045c-0.23,-0.248 -0.46,-0.49 -0.68,-0.727c3.38,1.2 6.38,3.274 8.25,6.719c-0.01,0.073 -0.03,0.144 -0.04,0.214c-1.28,6.378 -1.31,11.659 -0.8,15.658Z" style="fill:url(#_Linear9);"/><path d="M173.67,151.595c-2.58,-0.558 -4.25,-1.161 -4.25,-1.161c0,0 0,-0.02 0,-0.06c0.04,0.013 0.23,0.076 0.61,0.235c0.09,-6.17 0.59,-14.293 2.38,-17.794c1.78,-1.373 4.03,-2.619 6.87,-3.646c0,0 2.15,-0.545 5.31,-0.904c3.98,0.406 8.72,2.392 14.05,7.39c1.01,-2.879 1.56,-5.118 1.64,-5.457c0.01,0.006 0.01,0.012 0.02,0.018c0,0 -2.8,11.523 -7.8,17.872c-0.9,-0.067 -1.81,-0.102 -2.73,-0.102c-0.01,0 -0.01,0 -0.02,0c-0.01,0 -0.02,0 -0.03,0c-5.01,0.003 -10.4,1.034 -16.05,3.609Zm9.02,-19.828c-4.58,0 -8.29,3.725 -8.29,8.32c0,4.594 3.71,8.319 8.29,8.319c4.58,0 8.29,-3.725 8.29,-8.319c0,-4.595 -3.71,-8.32 -8.29,-8.32Z" style="fill:url(#_Linear10);"/><path d="M170.03,150.609c-0.38,-0.159 -0.57,-0.222 -0.61,-0.235l-0.01,-0.002c0,0 -0.29,-7.743 0.27,-14.967c0.76,-0.895 1.66,-1.766 2.73,-2.59c-1.79,3.501 -2.29,11.624 -2.38,17.794Zm28.61,-14.954c-5.33,-4.998 -10.07,-6.984 -14.05,-7.39c1.56,-0.178 3.37,-0.31 5.28,-0.31c3.16,0 6.61,0.36 9.74,1.471c0.22,0.237 0.45,0.479 0.68,0.727c0,0 0,0.015 -0.01,0.045c-0.08,0.339 -0.63,2.578 -1.64,5.457Z" style="fill:url(#_Linear11);"/><path d="M182.69,148.406c-4.58,0 -8.29,-3.725 -8.29,-8.319c0,-4.595 3.71,-8.32 8.29,-8.32c4.58,0 8.29,3.725 8.29,8.32c0,4.594 -3.71,8.319 -8.29,8.319Zm-2.8,-3.941c0.79,0.732 1.8,1.175 2.87,1.175c0.1,0 0.21,-0.004 0.31,-0.013c2.4,-0.198 4.24,-2.622 4.02,-5.288c-0.01,-0.091 -0.02,-0.181 -0.03,-0.271c0.42,-0.305 0.68,-0.771 0.64,-1.267c-0.07,-0.771 -0.8,-1.346 -1.69,-1.346c-0.03,0 -0.05,0.001 -0.07,0.002c-0.85,-1.03 -2.06,-1.681 -3.35,-1.681c-0.1,0 -0.21,0.004 -0.32,0.013c-2.39,0.198 -4.23,2.62 -4.02,5.284c0.07,0.832 0.33,1.608 0.73,2.276c-0.1,0.134 -0.15,0.296 -0.14,0.466c0.03,0.382 0.4,0.67 0.84,0.67c0.03,0 0.06,-0.001 0.09,-0.004c0.04,-0.003 0.08,-0.008 0.12,-0.016Z" style="fill:url(#_Linear12);"/><path d="M182.76,145.64c-1.07,0 -2.08,-0.443 -2.87,-1.175c0.34,-0.067 0.6,-0.299 0.67,-0.579c0.64,0.503 1.39,0.788 2.1,0.788c0.07,0 0.14,-0.002 0.21,-0.008c1.67,-0.143 3.4,-1.977 3.21,-4.237c0,-0.001 0,-0.002 0,-0.003c0.37,-0.032 0.71,-0.163 0.98,-0.358c0.01,0.09 0.02,0.18 0.03,0.271c0.22,2.666 -1.62,5.09 -4.02,5.288c-0.1,0.009 -0.21,0.013 -0.31,0.013Zm-3.78,-2.291c-0.4,-0.668 -0.66,-1.444 -0.73,-2.276c-0.21,-2.664 1.63,-5.086 4.02,-5.284c0.11,-0.009 0.22,-0.013 0.32,-0.013c1.29,0 2.5,0.651 3.35,1.681c-0.04,0.001 -0.07,0.003 -0.1,0.005c-0.38,0.031 -0.72,0.164 -0.99,0.363c-0.7,-0.673 -1.59,-1.064 -2.42,-1.064c-0.07,0 -0.14,0.003 -0.2,0.008c-1.67,0.142 -3.4,1.985 -3.21,4.245c0.06,0.756 0.32,1.429 0.71,1.986c-0.03,0 -0.05,0.001 -0.08,0.003c-0.28,0.022 -0.52,0.156 -0.67,0.346Z" style="fill:url(#_Linear13);"/><path d="M182.66,144.674c-0.71,0 -1.46,-0.285 -2.1,-0.788c0.02,-0.07 0.03,-0.143 0.02,-0.217c-0.03,-0.381 -0.4,-0.669 -0.84,-0.669l-0.01,0c-0.39,-0.557 -0.65,-1.23 -0.71,-1.986c-0.19,-2.26 1.54,-4.103 3.21,-4.245c0.06,-0.005 0.13,-0.008 0.2,-0.008c0.83,0 1.72,0.391 2.42,1.064c-0.42,0.306 -0.67,0.769 -0.63,1.266c0.06,0.768 0.81,1.342 1.69,1.342c0.06,0 0.11,-0.003 0.17,-0.007c0,0.001 0,0.002 0,0.003c0.19,2.26 -1.54,4.094 -3.21,4.237c-0.07,0.006 -0.14,0.008 -0.21,0.008Z" style="fill:url(#_Linear14);"/><path d="M185.91,140.433c-0.88,0 -1.63,-0.574 -1.69,-1.342c-0.04,-0.497 0.21,-0.96 0.63,-1.266c0.27,-0.199 0.61,-0.332 0.99,-0.363c0.03,-0.002 0.06,-0.004 0.1,-0.005c0.02,-0.001 0.04,-0.002 0.07,-0.002c0.89,0 1.62,0.575 1.69,1.346c0.04,0.496 -0.22,0.962 -0.64,1.267c-0.27,0.195 -0.61,0.326 -0.98,0.358c-0.06,0.004 -0.11,0.007 -0.17,0.007Z" style="fill:url(#_Linear15);"/><path d="M179.68,144.485c-0.44,0 -0.81,-0.288 -0.84,-0.67c-0.01,-0.17 0.04,-0.332 0.14,-0.466c0.15,-0.19 0.39,-0.324 0.67,-0.346c0.03,-0.002 0.05,-0.003 0.08,-0.003l0.01,0c0.44,0 0.81,0.288 0.84,0.669c0.01,0.074 0,0.147 -0.02,0.217c-0.07,0.28 -0.33,0.512 -0.67,0.579c-0.04,0.008 -0.08,0.013 -0.12,0.016c-0.03,0.003 -0.06,0.004 -0.09,0.004Z" style="fill:url(#_Linear16);"/><path d="M207.94,152.459c-0.15,-0.072 -0.29,-0.144 -0.44,-0.215c-0.03,-0.016 -0.07,-0.032 -0.1,-0.048l0,-0.002c-0.13,-0.06 -0.25,-0.118 -0.38,-0.177c-0.51,-3.999 -0.48,-9.28 0.8,-15.658c0.01,-0.07 0.03,-0.141 0.04,-0.214c0.67,1.24 1.19,2.658 1.53,4.276c0,0 0.68,5.757 -1.45,12.038Z" style="fill:url(#_Linear17);"/><path d="M206.62,155.651c0.11,-0.57 0.22,-1.089 0.34,-1.546c0.08,-0.307 0.16,-0.615 0.24,-0.926c0.04,0.294 0.1,0.581 0.15,0.859c-0.22,0.538 -0.46,1.077 -0.73,1.613Z" style="fill:#c4c4a0;fill-rule:nonzero;"/><path d="M186.59,168.013c-0.26,0 -0.53,-0.01 -0.79,-0.033c-3.53,-0.283 -13.32,-2.099 -17.8,-13.303c0.04,-0.027 0.08,-0.055 0.13,-0.081c0.06,-0.039 0.12,-0.077 0.18,-0.116c0.1,-0.06 0.19,-0.119 0.29,-0.178c0.06,-0.037 0.12,-0.075 0.18,-0.111c0.02,-0.012 0.04,-0.023 0.06,-0.034c0.07,-0.041 0.13,-0.082 0.2,-0.122c1.56,-0.934 3.11,-1.743 4.64,-2.44c2.22,0.482 5.12,0.931 8.2,0.931c1.67,0 3.39,-0.132 5.09,-0.463c2.06,-0.403 3.91,-1.918 5.53,-3.975c5.39,0.402 10.29,1.946 14.52,3.929c0.06,0.4 0.11,0.788 0.18,1.162c-0.08,0.311 -0.16,0.619 -0.24,0.926c-0.12,0.457 -0.23,0.976 -0.34,1.546c-2.78,5.546 -8.17,10.816 -18.53,12.252c-0.49,0.072 -1,0.11 -1.5,0.11Z" style="fill:#cdd1aa;fill-rule:nonzero;"/><path d="M181.88,152.526c-3.08,0 -5.98,-0.449 -8.2,-0.931c5.64,-2.574 11.03,-3.606 16.04,-3.609l0.05,0c0.92,0 1.83,0.035 2.73,0.102c-1.62,2.057 -3.47,3.572 -5.53,3.975c-1.7,0.331 -3.42,0.463 -5.09,0.463Z" style="fill:#d2e7d1;fill-rule:nonzero;"/><path d="M207.35,154.038c-0.05,-0.278 -0.11,-0.565 -0.15,-0.859c-0.07,-0.374 -0.12,-0.762 -0.18,-1.162c0.13,0.059 0.25,0.117 0.38,0.177l0,0.002c0.03,0.016 0.07,0.032 0.1,0.048c0.15,0.071 0.29,0.143 0.44,0.215c-0.18,0.524 -0.37,1.051 -0.59,1.579Z" style="fill:#657668;fill-rule:nonzero;"/><path d="M207.02,152.017c-4.23,-1.983 -9.13,-3.527 -14.52,-3.929c5.39,0.402 10.29,1.946 14.52,3.929Z" style="fill:url(#_Linear18);"/><path d="M192.5,148.088c-0.9,-0.067 -1.81,-0.102 -2.73,-0.102c0.92,0 1.83,0.035 2.73,0.102Z" style="fill:url(#_Linear19);"/><path d="M207.4,152.194c-0.13,-0.06 -0.25,-0.118 -0.38,-0.177c0.13,0.059 0.25,0.117 0.38,0.177Z" style="fill:url(#_Linear20);"/><path d="M124.73,168.013c-0.5,0 -1,-0.038 -1.5,-0.11c-11.22,-1.559 -16.62,-7.616 -19.17,-13.645c0.04,-0.025 0.09,-0.051 0.13,-0.076c0,-0.002 0.01,-0.004 0.01,-0.007c0.04,-0.022 0.08,-0.044 0.12,-0.066c3.28,-1.916 7.12,-3.675 11.4,-4.811c1.51,1.788 3.22,3.084 5.1,3.452c1.7,0.331 3.42,0.463 5.09,0.463c6.64,0.001 12.46,-2.092 12.46,-2.092c0,0 0,-0.02 0,-0.059c0.01,-0.002 0.01,-0.003 0.01,-0.003c0,0 0.01,-0.28 0.02,-0.785c1.62,0.582 3.25,1.285 4.91,2.124c0.02,0.009 0.04,0.019 0.05,0.028c0.02,0.007 0.03,0.014 0.05,0.021c0.03,0.018 0.07,0.037 0.1,0.056c0.17,0.084 0.33,0.169 0.5,0.256c-4.08,12.92 -14.77,14.921 -18.48,15.221c-0.27,0.022 -0.53,0.033 -0.8,0.033Z" style="fill:#c6c8a0;fill-rule:nonzero;"/><path d="M125.91,153.213c-1.67,0 -3.39,-0.132 -5.09,-0.463c-1.88,-0.368 -3.59,-1.664 -5.1,-3.452c1.81,-0.483 3.71,-0.854 5.68,-1.076c1.11,0.558 2.37,0.872 3.7,0.872c1.39,0 2.7,-0.344 3.85,-0.951c2.83,0.263 5.76,0.866 8.78,1.895c0.01,0.427 0.02,0.847 0.03,1.258c0.37,-0.158 0.57,-0.22 0.61,-0.234c0,0.039 0,0.059 0,0.059c0,0 -5.82,2.093 -12.46,2.092Z" style="fill:#d2e7d1;fill-rule:nonzero;"/><path d="M137.76,151.296c-0.01,-0.411 -0.02,-0.831 -0.03,-1.258c0.23,0.076 0.45,0.155 0.67,0.236c-0.01,0.505 -0.02,0.785 -0.02,0.785c0,0 0,0.001 -0.01,0.003c-0.04,0.014 -0.24,0.076 -0.61,0.234Z" style="fill:#c1c39e;fill-rule:nonzero;"/><path d="M125.1,149.094c-1.33,0 -2.59,-0.314 -3.7,-0.872c1.35,-0.152 2.73,-0.234 4.14,-0.235l0.05,0c1.1,0.001 2.22,0.051 3.36,0.156c-1.15,0.607 -2.46,0.951 -3.85,0.951Z" style="fill:#756b51;fill-rule:nonzero;"/><path d="M104.06,154.258c0.04,-0.025 0.09,-0.051 0.13,-0.076c-0.04,0.025 -0.09,0.051 -0.13,0.076Zm0.14,-0.083c0.04,-0.022 0.08,-0.044 0.12,-0.066c-0.04,0.022 -0.08,0.044 -0.12,0.066Zm39.81,-1.416c-0.17,-0.087 -0.33,-0.172 -0.5,-0.256c0.17,0.084 0.33,0.169 0.5,0.256Zm-0.6,-0.312c-0.02,-0.007 -0.03,-0.014 -0.05,-0.021c0.02,0.007 0.03,0.014 0.05,0.021Zm-0.1,-0.049c-1.66,-0.839 -3.29,-1.542 -4.91,-2.124c1.62,0.582 3.25,1.285 4.91,2.124Z" style="fill:url(#_Linear21);"/><path d="M137.73,150.038c-3.02,-1.029 -5.95,-1.632 -8.78,-1.895c2.83,0.263 5.76,0.866 8.78,1.895Z" style="fill:url(#_Linear22);"/><path d="M138.4,150.274c-0.22,-0.081 -0.44,-0.16 -0.67,-0.236c0.23,0.076 0.45,0.155 0.67,0.236Z" style="fill:url(#_Linear23);"/><path d="M128.95,148.143c-1.14,-0.105 -2.26,-0.155 -3.36,-0.156c1.1,0.001 2.22,0.051 3.36,0.156Zm-3.41,-0.156c0.01,0 0.02,0 0.03,0c-0.01,0 -0.02,0 -0.03,0Z" style="fill:url(#_Linear24);"/><path d="M155.68,130.002l0,-0.001l-0.02,0l-0.02,0l0,0.001c-0.56,0.011 -7.04,0.16 -9.53,1.355c0,0 -1.98,1.041 -5.73,-2.294c0,0 -3.01,-1.784 -4.81,-2.281c-0.81,-0.222 -0.74,-1.385 0.08,-1.523c0.4,-0.062 0.92,-0.087 1.6,-0.05l36.82,0c0.68,-0.037 1.21,-0.012 1.6,0.05c0.83,0.138 0.89,1.301 0.08,1.523c-1.8,0.497 -4.8,2.281 -4.8,2.281c-3.75,3.335 -5.73,2.294 -5.73,2.294c-2.49,-1.195 -8.97,-1.344 -9.54,-1.355Zm-53.75,10.42c3.75,-17.922 30.11,-11.252 30.11,-11.252c18.13,6.563 12.4,22.085 12.4,22.085c-0.16,0.614 -0.34,1.197 -0.52,1.767c-0.1,0.301 -0.2,0.601 -0.3,0.89l-0.1,0.237c-0.11,0.305 -0.23,0.607 -0.35,0.898l-0.05,0.113c-0.59,1.402 -1.27,2.653 -2.01,3.766l0,0.01c-0.15,0.221 -0.3,0.431 -0.45,0.641l-0.15,0.206c-0.13,0.183 -0.27,0.356 -0.41,0.531l-0.2,0.262c-0.13,0.16 -0.27,0.312 -0.4,0.465c-0.08,0.091 -0.16,0.186 -0.24,0.274c-0.13,0.143 -0.26,0.278 -0.39,0.414c-0.08,0.093 -0.17,0.187 -0.26,0.277c-0.13,0.127 -0.26,0.249 -0.38,0.371c-0.1,0.09 -0.19,0.182 -0.29,0.27c-0.12,0.115 -0.25,0.225 -0.38,0.336c-0.1,0.086 -0.19,0.174 -0.29,0.258c-0.13,0.105 -0.26,0.205 -0.38,0.305c-0.11,0.082 -0.21,0.164 -0.31,0.243c-0.13,0.095 -0.25,0.186 -0.38,0.277c-0.1,0.077 -0.21,0.155 -0.32,0.229c-0.12,0.086 -0.24,0.168 -0.37,0.25c-0.1,0.072 -0.21,0.144 -0.32,0.213c-0.12,0.078 -0.25,0.153 -0.37,0.227c-0.11,0.067 -0.22,0.133 -0.33,0.197c-0.12,0.07 -0.24,0.138 -0.36,0.204c-0.11,0.062 -0.23,0.123 -0.34,0.182c-0.12,0.063 -0.23,0.123 -0.35,0.183c-0.11,0.057 -0.23,0.112 -0.34,0.166c-0.12,0.056 -0.23,0.111 -0.35,0.164c-0.11,0.052 -0.22,0.102 -0.34,0.151c-0.11,0.05 -0.22,0.098 -0.33,0.145c-0.12,0.048 -0.23,0.093 -0.34,0.138c-0.11,0.044 -0.22,0.086 -0.33,0.127c-0.11,0.043 -0.23,0.084 -0.34,0.124c-0.1,0.038 -0.21,0.076 -0.32,0.112c-0.11,0.038 -0.22,0.074 -0.33,0.11c-0.1,0.033 -0.2,0.066 -0.3,0.098c-0.11,0.033 -0.22,0.065 -0.33,0.097c-0.1,0.028 -0.2,0.057 -0.29,0.084c-0.11,0.029 -0.21,0.056 -0.32,0.083c-0.09,0.025 -0.19,0.051 -0.28,0.074c-0.11,0.025 -0.21,0.048 -0.31,0.071c-0.09,0.021 -0.18,0.043 -0.27,0.062c-0.1,0.022 -0.19,0.041 -0.29,0.06l-0.26,0.054l-0.26,0.048l-0.26,0.045l-0.23,0.037l-0.26,0.039l-0.18,0.024c-0.09,0.013 -0.18,0.026 -0.27,0.037l-0.08,0.008c-0.25,0.03 -0.49,0.054 -0.7,0.071l-0.14,0.007c-0.55,0.037 -1.1,0.028 -1.66,-0.025c-0.16,-0.016 -0.33,-0.034 -0.5,-0.058c-0.64,-0.089 -1.25,-0.194 -1.85,-0.31l-0.21,-0.039c-0.24,-0.048 -0.47,-0.099 -0.7,-0.151c-0.1,-0.023 -0.2,-0.044 -0.3,-0.068c-0.21,-0.05 -0.42,-0.103 -0.63,-0.156c-0.11,-0.029 -0.23,-0.058 -0.34,-0.088c-0.2,-0.053 -0.39,-0.109 -0.58,-0.165c-0.12,-0.034 -0.24,-0.068 -0.35,-0.104c-0.19,-0.056 -0.37,-0.114 -0.55,-0.173c-0.12,-0.04 -0.24,-0.079 -0.35,-0.12c-0.18,-0.059 -0.35,-0.12 -0.51,-0.182c-0.12,-0.044 -0.24,-0.088 -0.36,-0.134c-0.16,-0.062 -0.33,-0.126 -0.48,-0.19c-0.12,-0.049 -0.24,-0.099 -0.36,-0.149c-0.15,-0.064 -0.3,-0.13 -0.45,-0.197c-0.12,-0.054 -0.24,-0.109 -0.36,-0.164c-0.14,-0.066 -0.28,-0.133 -0.42,-0.202c-0.12,-0.059 -0.24,-0.12 -0.36,-0.181c-0.13,-0.068 -0.26,-0.135 -0.39,-0.205c-0.12,-0.066 -0.24,-0.134 -0.36,-0.202c-0.12,-0.067 -0.24,-0.134 -0.36,-0.202c-0.13,-0.077 -0.26,-0.156 -0.38,-0.234c-0.11,-0.063 -0.21,-0.125 -0.31,-0.189c-0.17,-0.106 -0.33,-0.214 -0.49,-0.323l-0.17,-0.116c-0.22,-0.151 -0.44,-0.305 -0.65,-0.461l-0.1,-0.079c-0.17,-0.131 -0.34,-0.263 -0.51,-0.398l-0.16,-0.135c-0.14,-0.118 -0.29,-0.237 -0.43,-0.358l-0.16,-0.15c-0.14,-0.119 -0.27,-0.237 -0.4,-0.357l-0.16,-0.157c-0.13,-0.121 -0.25,-0.242 -0.37,-0.365l-0.16,-0.157c-0.12,-0.125 -0.24,-0.25 -0.36,-0.376l-0.14,-0.157c-0.12,-0.13 -0.23,-0.26 -0.34,-0.391l-0.13,-0.15c-0.12,-0.136 -0.23,-0.273 -0.34,-0.41l-0.11,-0.14c-0.11,-0.145 -0.23,-0.29 -0.33,-0.436l-0.09,-0.121c-0.12,-0.156 -0.23,-0.312 -0.34,-0.47l-0.07,-0.096c-0.11,-0.171 -0.23,-0.343 -0.34,-0.516l-0.04,-0.057c-0.62,-0.975 -1.15,-1.974 -1.6,-2.976l-0.05,-0.109c-3.13,-7.06 -2.3,-14.216 -2.3,-14.216Zm107.46,0c0,0 0.67,5.757 -1.45,12.037c-0.28,0.82 -0.6,1.649 -0.98,2.475l-0.01,0.021c-0.09,0.194 -0.18,0.388 -0.28,0.582l-0.03,0.067c-0.09,0.178 -0.18,0.356 -0.27,0.533l-0.06,0.109c-0.09,0.164 -0.18,0.327 -0.27,0.49l-0.09,0.143c-0.08,0.151 -0.17,0.302 -0.27,0.453l-0.1,0.168c-0.09,0.142 -0.18,0.283 -0.27,0.424l-0.13,0.188c-0.09,0.133 -0.18,0.266 -0.27,0.398l-0.15,0.205c-0.09,0.126 -0.18,0.251 -0.27,0.376l-0.17,0.216c-0.09,0.12 -0.19,0.239 -0.28,0.358l-0.19,0.223c-0.09,0.114 -0.19,0.227 -0.29,0.34l-0.2,0.23c-0.1,0.109 -0.2,0.218 -0.3,0.325l-0.22,0.232c-0.1,0.105 -0.21,0.21 -0.31,0.313l-0.24,0.231c-0.1,0.102 -0.21,0.203 -0.32,0.303l-0.25,0.227c-0.11,0.099 -0.23,0.196 -0.34,0.293l-0.27,0.222c-0.11,0.096 -0.23,0.19 -0.35,0.284c-0.09,0.073 -0.18,0.145 -0.28,0.217c-0.12,0.092 -0.25,0.183 -0.37,0.274c-0.1,0.07 -0.19,0.14 -0.29,0.208c-0.13,0.091 -0.26,0.18 -0.4,0.268c-0.09,0.066 -0.19,0.132 -0.29,0.197c-0.14,0.089 -0.28,0.176 -0.43,0.264c-0.1,0.061 -0.2,0.123 -0.3,0.183c-0.15,0.087 -0.3,0.173 -0.45,0.258c-0.1,0.056 -0.2,0.113 -0.3,0.169c-0.17,0.086 -0.33,0.17 -0.49,0.254c-0.1,0.051 -0.2,0.102 -0.31,0.152c-0.17,0.086 -0.35,0.168 -0.53,0.25c-0.09,0.045 -0.19,0.091 -0.29,0.135c-0.19,0.086 -0.39,0.168 -0.59,0.25c-0.09,0.037 -0.17,0.076 -0.26,0.112c-0.22,0.087 -0.44,0.169 -0.66,0.251l-0.24,0.088c-0.24,0.088 -0.5,0.172 -0.75,0.255l-0.18,0.059c-0.28,0.092 -0.58,0.179 -0.88,0.263l-0.08,0.026c-1.33,0.371 -2.76,0.669 -4.3,0.883c-0.17,0.024 -0.34,0.043 -0.51,0.06c-0.56,0.053 -1.13,0.062 -1.7,0.021l-0.08,-0.005l-0.17,-0.015l-0.2,-0.018l-0.13,-0.015c-0.09,-0.009 -0.18,-0.019 -0.28,-0.031l-0.14,-0.018c-0.1,-0.013 -0.2,-0.026 -0.3,-0.041l-0.16,-0.023c-0.11,-0.016 -0.21,-0.033 -0.32,-0.051l-0.17,-0.029c-0.12,-0.02 -0.23,-0.04 -0.35,-0.062l-0.18,-0.036c-0.11,-0.023 -0.23,-0.048 -0.35,-0.074l-0.2,-0.044c-0.12,-0.027 -0.24,-0.056 -0.37,-0.086l-0.21,-0.051c-0.12,-0.033 -0.25,-0.068 -0.38,-0.103l-0.21,-0.057c-0.14,-0.039 -0.28,-0.081 -0.42,-0.124l-0.2,-0.06c-0.16,-0.051 -0.32,-0.105 -0.48,-0.161l-0.15,-0.049c-0.21,-0.074 -0.43,-0.153 -0.64,-0.236l-0.16,-0.063c-0.16,-0.065 -0.33,-0.131 -0.49,-0.201l-0.27,-0.117c-0.13,-0.058 -0.26,-0.116 -0.4,-0.178c-0.09,-0.046 -0.2,-0.095 -0.29,-0.143c-0.13,-0.06 -0.25,-0.12 -0.38,-0.183c-0.1,-0.054 -0.21,-0.11 -0.31,-0.166c-0.12,-0.064 -0.24,-0.128 -0.36,-0.195c-0.11,-0.06 -0.22,-0.123 -0.33,-0.186c-0.11,-0.068 -0.23,-0.138 -0.35,-0.21c-0.11,-0.067 -0.22,-0.136 -0.33,-0.205c-0.12,-0.075 -0.23,-0.152 -0.35,-0.23c-0.11,-0.073 -0.22,-0.147 -0.33,-0.223c-0.12,-0.082 -0.23,-0.167 -0.35,-0.252c-0.11,-0.079 -0.22,-0.157 -0.32,-0.239c-0.12,-0.091 -0.24,-0.187 -0.36,-0.282c-0.11,-0.083 -0.21,-0.164 -0.31,-0.25c-0.13,-0.106 -0.26,-0.218 -0.38,-0.329c-0.1,-0.082 -0.19,-0.16 -0.28,-0.245c-0.17,-0.148 -0.33,-0.303 -0.49,-0.46l-0.16,-0.158c-0.22,-0.213 -0.43,-0.434 -0.64,-0.662l-0.19,-0.216c-0.14,-0.165 -0.29,-0.33 -0.43,-0.503l-0.22,-0.269c-0.13,-0.165 -0.26,-0.331 -0.39,-0.503c-0.07,-0.096 -0.14,-0.197 -0.21,-0.295c-0.13,-0.174 -0.26,-0.351 -0.38,-0.532c-0.07,-0.102 -0.14,-0.207 -0.2,-0.311c-0.13,-0.188 -0.25,-0.379 -0.37,-0.575c-0.06,-0.105 -0.12,-0.211 -0.19,-0.317c-0.12,-0.208 -0.24,-0.419 -0.36,-0.635c-0.05,-0.103 -0.11,-0.206 -0.16,-0.31c-0.12,-0.234 -0.24,-0.473 -0.36,-0.716c-0.05,-0.095 -0.09,-0.189 -0.14,-0.285c-0.12,-0.273 -0.25,-0.552 -0.37,-0.836l-0.09,-0.222c-0.46,-1.116 -0.87,-2.325 -1.21,-3.639c0,0 -5.73,-15.522 12.4,-22.085c0,0 26.36,-6.67 30.11,11.252Zm-8.33,-14.587c-9.61,-3.78 -44.05,-4.256 -45.38,-4.273l-0.02,0l-0.02,0c-1.32,0.017 -35.77,0.493 -45.37,4.273c0,0 -14.69,6.563 -17.61,7.501l0,7.189c0,0 4.06,0.938 5,6.564c0,0 2.83,18.028 19.45,22.998c4.13,1.234 8.52,1.222 12.67,0.075c7.58,-2.097 19.61,-8.13 20.01,-25.318c0.04,-1.578 -0.45,-3.113 -1.3,-4.441c-1.36,-2.131 -2.22,-5.618 7.15,-5.193l0,0.001l0.04,0l0,-0.001c9.37,-0.425 8.51,3.062 7.15,5.193c-0.85,1.328 -1.34,2.863 -1.3,4.441c0.4,17.188 12.43,23.221 20.02,25.318c4.15,1.147 8.53,1.159 12.66,-0.075c16.63,-4.97 19.45,-22.998 19.45,-22.998c0.94,-5.626 5.01,-6.564 5.01,-6.564l0,-7.189c-2.92,-0.938 -17.61,-7.501 -17.61,-7.501Z" style="fill:#ed2124;fill-rule:nonzero;"/></g><defs><linearGradient id="_Linear1" x1="0" y1="0" x2="1" y2="0" gradientUnits="userSpaceOnUse" gradientTransform="matrix(2.59455e-09,-57.7894,57.7894,2.59455e-09,123.57,170.123)"><stop offset="0" style="stop-color:#efdbc7;stop-opacity:1"/><stop offset="1" style="stop-color:#b7b793;stop-opacity:1"/></linearGradient><linearGradient id="_Linear2" x1="0" y1="0" x2="1" y2="0" gradientUnits="userSpaceOnUse" gradientTransform="matrix(2.59455e-09,-57.7894,57.7894,2.59455e-09,123.57,170.123)"><stop offset="0" style="stop-color:#fff;stop-opacity:1"/><stop offset="1" style="stop-color:#c3d3bf;stop-opacity:1"/></linearGradient><linearGradient id="_Linear3" x1="0" y1="0" x2="1" y2="0" gradientUnits="userSpaceOnUse" gradientTransform="matrix(2.59455e-09,-57.7894,57.7894,2.59455e-09,123.57,170.123)"><stop offset="0" style="stop-color:#e8d5c3;stop-opacity:1"/><stop offset="1" style="stop-color:#b3b391;stop-opacity:1"/></linearGradient><linearGradient id="_Linear4" x1="0" y1="0" x2="1" y2="0" gradientUnits="userSpaceOnUse" gradientTransform="matrix(2.59455e-09,-57.7894,57.7894,2.59455e-09,123.57,170.123)"><stop offset="0" style="stop-color:#907468;stop-opacity:1"/><stop offset="1" style="stop-color:#6d6149;stop-opacity:1"/></linearGradient><linearGradient id="_Linear5" x1="0" y1="0" x2="1" y2="0" gradientUnits="userSpaceOnUse" gradientTransform="matrix(2.59455e-09,-57.7894,57.7894,2.59455e-09,123.57,170.123)"><stop offset="0" style="stop-color:#b48872;stop-opacity:1"/><stop offset="1" style="stop-color:#8b714e;stop-opacity:1"/></linearGradient><linearGradient id="_Linear6" x1="0" y1="0" x2="1" y2="0" gradientUnits="userSpaceOnUse" gradientTransform="matrix(2.59455e-09,-57.7894,57.7894,2.59455e-09,123.57,170.123)"><stop offset="0" style="stop-color:#766e67;stop-opacity:1"/><stop offset="1" style="stop-color:#545c4a;stop-opacity:1"/></linearGradient><linearGradient id="_Linear7" x1="0" y1="0" x2="1" y2="0" gradientUnits="userSpaceOnUse" gradientTransform="matrix(2.59455e-09,-57.7894,57.7894,2.59455e-09,123.57,170.123)"><stop offset="0" style="stop-color:#fff;stop-opacity:1"/><stop offset="1" style="stop-color:#c3d3bf;stop-opacity:1"/></linearGradient><linearGradient id="_Linear8" x1="0" y1="0" x2="1" y2="0" gradientUnits="userSpaceOnUse" gradientTransform="matrix(2.59455e-09,-57.7894,57.7894,2.59455e-09,123.57,170.123)"><stop offset="0" style="stop-color:#fff;stop-opacity:1"/><stop offset="1" style="stop-color:#c3d3bf;stop-opacity:1"/></linearGradient><linearGradient id="_Linear9" x1="0" y1="0" x2="1" y2="0" gradientUnits="userSpaceOnUse" gradientTransform="matrix(2.59455e-09,-57.7894,57.7894,2.59455e-09,187.76,170.122)"><stop offset="0" style="stop-color:#f7e5d2;stop-opacity:1"/><stop offset="1" style="stop-color:#bfc19c;stop-opacity:1"/></linearGradient><linearGradient id="_Linear10" x1="0" y1="0" x2="1" y2="0" gradientUnits="userSpaceOnUse" gradientTransform="matrix(2.59455e-09,-57.7894,57.7894,2.59455e-09,187.76,170.122)"><stop offset="0" style="stop-color:#fff;stop-opacity:1"/><stop offset="1" style="stop-color:#c3d3bf;stop-opacity:1"/></linearGradient><linearGradient id="_Linear11" x1="0" y1="0" x2="1" y2="0" gradientUnits="userSpaceOnUse" gradientTransform="matrix(2.59455e-09,-57.7894,57.7894,2.59455e-09,187.76,170.122)"><stop offset="0" style="stop-color:#e8d5c3;stop-opacity:1"/><stop offset="1" style="stop-color:#b3b391;stop-opacity:1"/></linearGradient><linearGradient id="_Linear12" x1="0" y1="0" x2="1" y2="0" gradientUnits="userSpaceOnUse" gradientTransform="matrix(2.59455e-09,-57.7894,57.7894,2.59455e-09,187.76,170.122)"><stop offset="0" style="stop-color:#907468;stop-opacity:1"/><stop offset="1" style="stop-color:#6d6149;stop-opacity:1"/></linearGradient><linearGradient id="_Linear13" x1="0" y1="0" x2="1" y2="0" gradientUnits="userSpaceOnUse" gradientTransform="matrix(2.59455e-09,-57.7894,57.7894,2.59455e-09,187.76,170.122)"><stop offset="0" style="stop-color:#b48872;stop-opacity:1"/><stop offset="1" style="stop-color:#8b714e;stop-opacity:1"/></linearGradient><linearGradient id="_Linear14" x1="0" y1="0" x2="1" y2="0" gradientUnits="userSpaceOnUse" gradientTransform="matrix(2.59455e-09,-57.7894,57.7894,2.59455e-09,187.76,170.122)"><stop offset="0" style="stop-color:#766e67;stop-opacity:1"/><stop offset="1" style="stop-color:#545c4a;stop-opacity:1"/></linearGradient><linearGradient id="_Linear15" x1="0" y1="0" x2="1" y2="0" gradientUnits="userSpaceOnUse" gradientTransform="matrix(2.59455e-09,-57.7894,57.7894,2.59455e-09,187.76,170.122)"><stop offset="0" style="stop-color:#fff;stop-opacity:1"/><stop offset="1" style="stop-color:#c3d3bf;stop-opacity:1"/></linearGradient><linearGradient id="_Linear16" x1="0" y1="0" x2="1" y2="0" gradientUnits="userSpaceOnUse" gradientTransform="matrix(2.59455e-09,-57.7894,57.7894,2.59455e-09,187.76,170.122)"><stop offset="0" style="stop-color:#fff;stop-opacity:1"/><stop offset="1" style="stop-color:#c3d3bf;stop-opacity:1"/></linearGradient><linearGradient id="_Linear17" x1="0" y1="0" x2="1" y2="0" gradientUnits="userSpaceOnUse" gradientTransform="matrix(2.59455e-09,-57.7894,57.7894,2.59455e-09,187.76,170.122)"><stop offset="0" style="stop-color:#848181;stop-opacity:1"/><stop offset="1" style="stop-color:#5c6d5f;stop-opacity:1"/></linearGradient><linearGradient id="_Linear18" x1="0" y1="0" x2="1" y2="0" gradientUnits="userSpaceOnUse" gradientTransform="matrix(2.59455e-09,-57.7894,57.7894,2.59455e-09,187.76,170.122)"><stop offset="0" style="stop-color:#cfdbbd;stop-opacity:1"/><stop offset="1" style="stop-color:#b5c9a1;stop-opacity:1"/></linearGradient><linearGradient id="_Linear19" x1="0" y1="0" x2="1" y2="0" gradientUnits="userSpaceOnUse" gradientTransform="matrix(2.59455e-09,-57.7894,57.7894,2.59455e-09,187.76,170.122)"><stop offset="0" style="stop-color:#d2e8d2;stop-opacity:1"/><stop offset="1" style="stop-color:#b5d1b4;stop-opacity:1"/></linearGradient><linearGradient id="_Linear20" x1="0" y1="0" x2="1" y2="0" gradientUnits="userSpaceOnUse" gradientTransform="matrix(2.59455e-09,-57.7894,57.7894,2.59455e-09,187.76,170.122)"><stop offset="0" style="stop-color:#94a594;stop-opacity:1"/><stop offset="1" style="stop-color:#7c977e;stop-opacity:1"/></linearGradient><linearGradient id="_Linear21" x1="0" y1="0" x2="1" y2="0" gradientUnits="userSpaceOnUse" gradientTransform="matrix(2.59455e-09,-57.7894,57.7894,2.59455e-09,123.57,170.123)"><stop offset="0" style="stop-color:#cdd6b8;stop-opacity:1"/><stop offset="1" style="stop-color:#b0c59d;stop-opacity:1"/></linearGradient><linearGradient id="_Linear22" x1="0" y1="0" x2="1" y2="0" gradientUnits="userSpaceOnUse" gradientTransform="matrix(2.59455e-09,-57.7894,57.7894,2.59455e-09,123.57,170.123)"><stop offset="0" style="stop-color:#d2e8d2;stop-opacity:1"/><stop offset="1" style="stop-color:#b5d1b4;stop-opacity:1"/></linearGradient><linearGradient id="_Linear23" x1="0" y1="0" x2="1" y2="0" gradientUnits="userSpaceOnUse" gradientTransform="matrix(2.59455e-09,-57.7894,57.7894,2.59455e-09,123.57,170.123)"><stop offset="0" style="stop-color:#c9d4b7;stop-opacity:1"/><stop offset="1" style="stop-color:#aec29c;stop-opacity:1"/></linearGradient><linearGradient id="_Linear24" x1="0" y1="0" x2="1" y2="0" gradientUnits="userSpaceOnUse" gradientTransform="matrix(2.59455e-09,-57.7894,57.7894,2.59455e-09,123.57,170.123)"><stop offset="0" style="stop-color:#9ea087;stop-opacity:1"/><stop offset="1" style="stop-color:#899372;stop-opacity:1"/></linearGradient></defs></svg>