<?xml version="1.0" encoding="UTF-8" standalone="no"?><!DOCTYPE svg PUBLIC "-//W3C//DTD SVG 1.1//EN" "http://www.w3.org/Graphics/SVG/1.1/DTD/svg11.dtd"><svg width="100%" height="100%" viewBox="0 0 300 301" version="1.1" xmlns="http://www.w3.org/2000/svg" xmlns:xlink="http://www.w3.org/1999/xlink" xml:space="preserve" style="fill-rule:evenodd;clip-rule:evenodd;stroke-linejoin:round;stroke-miterlimit:1.41421;"><g id="_49"><g id="avatar6"><rect x="0.04" y="0.16" width="299.359" height="299.705" style="fill:#5c4c52;fill-rule:nonzero;"/><path d="M157.32,187.978l0,112.621l-60.72,0c-0.99,-0.396 -1.49,-0.596 -1.49,-0.596c0,-14.376 2.11,-25.585 5.31,-34.325c7.73,-21.096 21.88,-27.796 28.4,-29.816c2.13,-0.664 3.45,-0.823 3.45,-0.823c0.23,0 0.45,-0.021 0.67,-0.057c1.91,-0.308 3.46,-1.974 4.71,-4.632c0.92,-1.975 1.7,-4.494 2.33,-7.409c0.25,-1.137 0.44,-2.283 0.64,-3.522c0.3,-2.083 0.59,-4.263 0.85,-6.545c0.09,-1.389 0.24,-2.726 0.39,-4.165c0.54,-6.89 0.69,-14.433 0.69,-21.574c0,0 8.16,0.843 14.77,0.843Z" style="fill:#e0bd9a;fill-rule:nonzero;"/><path d="M219.78,300.003c0,0 -0.54,0.2 -1.43,0.596l-61.03,0l0,-112.621l0.15,0c6.57,0 14.83,-0.843 14.83,-0.843c0,7.09 0.14,14.53 0.69,21.425c0.15,1.342 0.29,2.725 0.39,4.067c0.25,2.38 0.55,4.612 0.89,6.694l0,0.046c0.1,0.946 0.3,1.79 0.45,2.679c0.6,2.931 1.33,5.507 2.2,7.574c1.1,2.57 2.42,4.365 4.03,5.074c0.52,0.232 1.06,0.345 1.63,0.345c0,0 2.33,0.283 5.84,1.661c7.15,2.807 19.16,10.175 26.05,28.978c3.21,8.74 5.31,19.949 5.31,34.325Z" style="fill:#efd0ad;fill-rule:nonzero;"/><path d="M174.27,219.111l0,0.049c-1.53,2.365 -6.67,9.163 -16.85,9.163l-0.09,0c-9.64,-0.049 -15.27,-7.045 -16.71,-9.114c0.3,-2.069 0.6,-4.237 0.84,-6.503c0.1,-1.33 0.25,-2.71 0.4,-4.138c4.69,1.182 9.83,1.921 15.27,2.019l0.2,0c5.63,-0.098 10.82,-0.886 15.66,-2.167c0.15,1.33 0.3,2.709 0.39,4.04c0.25,2.364 0.55,4.581 0.89,6.651Z" style="fill:#be987f;fill-rule:nonzero;"/><path d="M156.63,59.635c-64.33,0 -64.68,53.947 -61.81,89.271c-4.4,-8.376 -17.5,-5.814 -16.41,7.39c1.04,12.71 19.75,19.188 19.22,17.785c9.75,26.124 35.53,45.818 59,45.818l0.5,0l0,-160.264l-0.5,0Z" style="fill:#d2a686;fill-rule:nonzero;"/><path d="M82.51,150.728c3.17,-5.123 8.11,-2.906 9.29,-1.773c1.29,1.231 2.33,2.808 1.53,5.813c-0.44,1.725 -2.22,1.872 -1.82,4.434c0.49,2.907 1.82,3.055 2.62,3.745c0.74,0.64 1.68,1.133 2.12,2.365c0.49,1.231 0.54,2.512 0.3,3.645c-0.5,2.07 -3.51,0.394 -5.54,-0.492c-1.33,-0.641 -5.58,-4.237 -6.67,-5.42c-2.67,-3.054 -3.95,-8.966 -1.83,-12.317Z" style="fill:#ac8774;fill-rule:nonzero;"/><path d="M156.98,59.635c64.34,0 64.68,53.947 61.86,89.271c4.4,-8.376 17.45,-5.814 16.36,7.39c-0.99,12.71 -19.73,19.193 -19.22,17.785c-9.49,26.124 -35.53,45.818 -59,45.818c-0.15,0 -0.35,0 -0.35,0l-0.15,-160.264c0,0 0.35,0 0.5,0Z" style="fill:#ddb598;fill-rule:nonzero;"/><path d="M231.1,150.728c-3.16,-5.123 -8.06,-2.906 -9.29,-1.773c-1.29,1.231 -2.27,2.808 -1.53,5.813c0.44,1.725 2.22,1.872 1.83,4.434c-0.5,2.907 -1.83,3.055 -2.57,3.745c-0.74,0.64 -1.73,1.133 -2.18,2.365c-0.44,1.231 -0.54,2.512 -0.29,3.645c0.49,2.07 3.5,0.394 5.53,-0.492c1.38,-0.641 5.58,-4.237 6.67,-5.42c2.72,-3.054 3.95,-8.966 1.83,-12.317Z" style="fill:#ac8774;fill-rule:nonzero;"/><path d="M156.13,74.858c-21.15,0 -36.67,6.158 -46.01,18.278c-13.09,16.997 -12.6,42.911 -7.8,61.534c1.48,5.715 2.27,21.037 3.26,26.653c4.59,25.175 32.31,38.576 50.55,38.576c0,0 0.34,0 0.49,0l0,-145.041c-0.15,0 -0.29,0 -0.29,0l-0.2,0Z" style="fill:#e0bd9a;fill-rule:nonzero;"/><path d="M202.08,93.185c-9.29,-12.07 -24.61,-18.229 -45.46,-18.327l0,145.041c20.85,-0.246 45.81,-14.928 50.06,-38.576c1.03,-5.616 1.78,-20.938 3.26,-26.653c4.84,-18.574 5.33,-44.439 -7.86,-61.485Z" style="fill:#efd0ad;fill-rule:nonzero;"/><path d="M156.81,191.451" style="fill:#bc917b;fill-rule:nonzero;"/><path d="M156.81,191.451" style="fill:#bc917b;fill-rule:nonzero;"/><path d="M153.25,194.188c-0.1,-0.022 -0.21,-0.042 -0.31,-0.065c0.1,0.022 0.19,0.041 0.31,0.065Z" style="fill:#bc917b;fill-rule:nonzero;"/><path d="M156.81,193.995" style="fill:#bc917b;fill-rule:nonzero;"/><path d="M152.46,194.012c-0.09,-0.024 -0.18,-0.051 -0.27,-0.076l-0.01,0.004c0,0 0.11,0.029 0.28,0.072Z" style="fill:#bc917b;fill-rule:nonzero;"/><path d="M156.81,193.995" style="fill:#bc917b;fill-rule:nonzero;"/><path d="M144.35,175.372c-0.25,-5.012 9.17,-1.831 12.28,-1.675c2.45,0.126 9.92,-1.579 10.56,-1.14c4.4,2.972 -4.65,8.957 -10.72,8.957c-1.61,0 -11.98,-3.119 -12.12,-6.142Z" style="fill:#ddb598;fill-rule:nonzero;"/><path d="M138.66,75.22l-0.27,0.268l0.05,0.09c0.09,-0.134 0.13,-0.268 0.22,-0.358Z" style="fill:#432e1b;fill-rule:nonzero;"/><path d="M97.7,126.327" style="fill:#432e1b;fill-rule:nonzero;"/><path d="M157.09,194.014" style="fill:#ba907b;fill-rule:nonzero;"/><path d="M157.09,194.014" style="fill:#ba907b;fill-rule:nonzero;"/><path d="M153.42,191.245c-0.1,-0.022 -0.21,-0.042 -0.31,-0.066c0.1,0.023 0.19,0.042 0.31,0.066Z" style="fill:#ba907b;fill-rule:nonzero;"/><path d="M157.09,191.048" style="fill:#ba907b;fill-rule:nonzero;"/><path d="M152.62,191.065c-0.1,-0.025 -0.19,-0.052 -0.28,-0.078l-0.01,0.004c0,0 0.11,0.03 0.29,0.074Z" style="fill:#ba907b;fill-rule:nonzero;"/><path d="M157.09,191.048" style="fill:#ba907b;fill-rule:nonzero;"/><path d="M110.47,131.468c0,0 4.91,20.199 13.33,21.847c8.43,1.647 17.55,-1.629 17.55,-1.629c0,0 0.87,-23.737 -3.44,-26.839c-4.31,-3.115 -14.25,-7.616 -27.44,6.621Z" style="fill:#fff;fill-rule:nonzero;"/><path d="M141.36,151.624c0,0 -0.19,0.056 -0.63,0.237c-0.1,-7.28 -0.77,-17.281 -3.47,-19.197c-4,-2.942 -13.05,-7.084 -25.14,4.243c-1.09,-3.13 -1.65,-5.502 -1.65,-5.502c13.22,-14.264 23.16,-9.77 27.44,-6.653c4.32,3.114 3.45,26.872 3.45,26.872Z" style="fill:#d6b496;fill-rule:nonzero;"/><path d="M136.37,141.338c0,4.595 -3.71,8.32 -8.29,8.32c-4.58,0 -8.3,-3.725 -8.3,-8.32c0,-4.594 3.72,-8.319 8.3,-8.319c4.58,0 8.29,3.725 8.29,8.319Z" style="fill:#482315;fill-rule:nonzero;"/><path d="M127.69,146.879c-2.39,-0.198 -4.23,-2.623 -4.01,-5.289c0.21,-2.665 2.42,-4.75 4.82,-4.549c2.39,0.198 4.23,2.62 4.02,5.285c-0.22,2.665 -2.43,4.755 -4.83,4.553Z" style="fill:#7e3a22;fill-rule:nonzero;"/><path d="M127.9,145.917c-1.67,-0.141 -3.4,-1.976 -3.21,-4.236c0.18,-2.267 2.19,-3.797 3.85,-3.659c1.67,0.141 3.4,1.984 3.21,4.244c-0.18,2.263 -2.19,3.789 -3.85,3.651Z" style="fill:#211a10;fill-rule:nonzero;"/><path d="M126.55,140.343c-0.07,0.816 -0.91,1.413 -1.86,1.334c-0.96,-0.081 -1.69,-0.812 -1.62,-1.624c0.07,-0.82 0.9,-1.417 1.86,-1.338c0.96,0.077 1.68,0.808 1.62,1.628Z" style="fill:#fff;fill-rule:nonzero;"/><path d="M131.93,145.068c-0.04,0.406 -0.46,0.706 -0.93,0.665c-0.48,-0.037 -0.84,-0.406 -0.81,-0.812c0.03,-0.406 0.45,-0.706 0.93,-0.665c0.48,0.037 0.84,0.402 0.81,0.812Z" style="fill:#fff;fill-rule:nonzero;"/><path d="M157.22,190.964" style="fill:#ba907b;fill-rule:nonzero;"/><path d="M157.22,190.964" style="fill:#ba907b;fill-rule:nonzero;"/><path d="M153.55,193.628c-0.1,-0.023 -0.2,-0.043 -0.31,-0.067c0.1,0.023 0.19,0.042 0.31,0.067Z" style="fill:#ba907b;fill-rule:nonzero;"/><path d="M157.22,193.43" style="fill:#ba907b;fill-rule:nonzero;"/><path d="M152.75,193.447c-0.1,-0.025 -0.18,-0.052 -0.28,-0.078l-0.01,0.005c0,0 0.11,0.029 0.29,0.073Z" style="fill:#ba907b;fill-rule:nonzero;"/><path d="M157.22,193.43" style="fill:#ba907b;fill-rule:nonzero;"/><path d="M157.11,190.592" style="fill:#bc917b;fill-rule:nonzero;"/><path d="M157.1,190.592l0.01,0l-0.01,0Z" style="fill:#bc917b;fill-rule:nonzero;"/><path d="M153.18,193.057c-0.11,-0.024 -0.23,-0.045 -0.34,-0.071c0.11,0.024 0.21,0.045 0.34,0.071Z" style="fill:#bc917b;fill-rule:nonzero;"/><path d="M157.11,192.846" style="fill:#bc917b;fill-rule:nonzero;"/><path d="M152.31,192.864c-0.1,-0.027 -0.19,-0.056 -0.29,-0.083l-0.01,0.004c0,0 0.11,0.031 0.3,0.079Z" style="fill:#bc917b;fill-rule:nonzero;"/><path d="M157.1,192.846l0.01,0l-0.01,0Z" style="fill:#bc917b;fill-rule:nonzero;"/><path d="M156.86,189.748" style="fill:#bc917b;fill-rule:nonzero;"/><path d="M156.86,189.748" style="fill:#bc917b;fill-rule:nonzero;"/><path d="M152.93,192.213c-0.11,-0.024 -0.22,-0.046 -0.33,-0.072c0.11,0.025 0.2,0.045 0.33,0.072Z" style="fill:#bc917b;fill-rule:nonzero;"/><path d="M156.86,192.001" style="fill:#bc917b;fill-rule:nonzero;"/><path d="M152.06,192.019c-0.1,-0.026 -0.19,-0.056 -0.29,-0.083l-0.01,0.004c0,0 0.11,0.032 0.3,0.079Z" style="fill:#bc917b;fill-rule:nonzero;"/><path d="M156.86,192.001" style="fill:#bc917b;fill-rule:nonzero;"/><path d="M157.5,189.533" style="fill:#bc917b;fill-rule:nonzero;"/><path d="M157.5,189.533" style="fill:#bc917b;fill-rule:nonzero;"/><path d="M153.7,192.097c-0.11,-0.023 -0.22,-0.044 -0.32,-0.069c0.1,0.024 0.2,0.043 0.32,0.069Z" style="fill:#bc917b;fill-rule:nonzero;"/><path d="M157.5,191.892" style="fill:#bc917b;fill-rule:nonzero;"/><path d="M152.86,191.91c-0.09,-0.026 -0.19,-0.054 -0.28,-0.08l-0.01,0.004c0,0 0.11,0.03 0.29,0.076Z" style="fill:#bc917b;fill-rule:nonzero;"/><path d="M157.5,191.892" style="fill:#bc917b;fill-rule:nonzero;"/><path d="M203.28,130.781c0,0 -4.91,20.199 -13.34,21.847c-8.42,1.647 -17.54,-1.629 -17.54,-1.629c0,0 -0.87,-23.737 3.44,-26.839c4.31,-3.115 14.25,-7.617 27.44,6.621Z" style="fill:#fff;fill-rule:nonzero;"/><path d="M172.39,150.936c0,0 0.19,0.056 0.62,0.237c0.11,-7.28 0.78,-17.28 3.48,-19.196c4,-2.942 13.05,-7.084 25.13,4.242c1.1,-3.129 1.65,-5.502 1.65,-5.502c-13.21,-14.263 -23.16,-9.77 -27.44,-6.652c-4.32,3.114 -3.44,26.871 -3.44,26.871Z" style="fill:#d6b496;fill-rule:nonzero;"/><path d="M177.38,140.651c0,4.595 3.71,8.32 8.29,8.32c4.58,0 8.29,-3.725 8.29,-8.32c0,-4.594 -3.71,-8.319 -8.29,-8.319c-4.58,0 -8.29,3.725 -8.29,8.319Z" style="fill:#482315;fill-rule:nonzero;"/><path d="M186.05,146.192c2.4,-0.198 4.24,-2.623 4.02,-5.289c-0.21,-2.665 -2.42,-4.751 -4.82,-4.549c-2.39,0.198 -4.23,2.619 -4.02,5.284c0.22,2.666 2.43,4.755 4.82,4.554Z" style="fill:#7e3a22;fill-rule:nonzero;"/><path d="M185.85,145.23c1.66,-0.142 3.39,-1.977 3.21,-4.236c-0.19,-2.267 -2.19,-3.797 -3.86,-3.66c-1.66,0.142 -3.39,1.985 -3.2,4.245c0.18,2.263 2.18,3.789 3.85,3.651Z" style="fill:#211a10;fill-rule:nonzero;"/><path d="M187.2,139.656c0.07,0.816 0.9,1.413 1.86,1.334c0.96,-0.082 1.68,-0.812 1.62,-1.624c-0.07,-0.82 -0.9,-1.417 -1.86,-1.339c-0.96,0.078 -1.69,0.808 -1.62,1.629Z" style="fill:#fff;fill-rule:nonzero;"/><path d="M181.82,144.38c0.04,0.407 0.45,0.707 0.93,0.666c0.48,-0.038 0.84,-0.406 0.81,-0.812c-0.03,-0.407 -0.45,-0.707 -0.93,-0.666c-0.48,0.037 -0.84,0.403 -0.81,0.812Z" style="fill:#fff;fill-rule:nonzero;"/><path d="M146.41,131.146c-0.06,-0.098 -1.59,-2.431 -4.72,-4.835c-1.96,-1.507 -3.88,-2.654 -5.87,-3.508c-2.42,-1.021 -5.02,-1.742 -7.55,-2.088c-2.28,-0.255 -4.81,-0.187 -7.77,0.211c-2.25,0.431 -4.45,1.103 -6.32,1.929c-1.33,0.46 -2.38,1.105 -3.22,1.625c-0.33,0.199 -0.62,0.379 -0.92,0.54l-4.02,2.538l4.64,-1.093c0.21,-0.055 0.45,-0.117 0.7,-0.184c0.96,-0.255 2.15,-0.573 3.55,-0.778c0.33,-0.048 0.66,-0.115 1,-0.183c0.59,-0.117 1.19,-0.237 1.82,-0.267c0.71,-0.048 1.43,-0.1 2.18,-0.154l0.98,-0.07c2.57,-0.032 4.74,0.163 6.66,0.608c2.11,0.365 4.28,1.046 6.26,1.969c1.88,0.901 3.68,1.794 5.08,2.826c2.83,1.897 4.41,3.48 4.42,3.495c0.39,0.394 0.91,0.596 1.44,0.596c0.38,0 0.76,-0.108 1.09,-0.328c0.94,-0.613 1.2,-1.877 0.61,-2.788l-0.04,-0.061Z" style="fill:#030405;fill-rule:nonzero;"/><path d="M204.11,125.001c-0.27,-0.142 -0.56,-0.322 -0.89,-0.522c-0.84,-0.519 -1.89,-1.164 -3.18,-1.609c-1.91,-0.841 -4.11,-1.513 -6.39,-1.948c-2.93,-0.395 -5.46,-0.463 -7.75,-0.206c-2.51,0.345 -5.12,1.066 -7.54,2.087c-1.97,0.843 -3.94,2.023 -5.87,3.508c-3.07,2.36 -4.6,4.652 -4.71,4.828l-0.03,0.042c-0.52,0.8 -0.41,1.871 0.26,2.546c0.38,0.386 0.89,0.598 1.43,0.598c0.54,-0.001 1.05,-0.213 1.43,-0.599l0.01,-0.016c0.15,-0.149 1.68,-1.65 4.43,-3.491c1.38,-1.017 3.18,-1.912 5.05,-2.81c1.99,-0.926 4.16,-1.607 6.29,-1.977c1.91,-0.44 4.08,-0.632 6.61,-0.605l1.03,0.074c0.74,0.053 1.46,0.104 2.17,0.152c0.62,0.03 1.22,0.15 1.81,0.267c0.34,0.068 0.67,0.135 1,0.183c1.4,0.205 2.59,0.523 3.55,0.778c0.25,0.067 0.49,0.13 0.71,0.185l4.64,1.093l-4.06,-2.558Z" style="fill:#030405;fill-rule:nonzero;"/><path d="M155.93,198.914" style="fill:#be927b;fill-rule:nonzero;"/><path d="M155.93,198.914" style="fill:#be927b;fill-rule:nonzero;"/><path d="M152.1,196.019c-0.11,-0.023 -0.22,-0.044 -0.33,-0.07c0.11,0.024 0.2,0.044 0.33,0.07Z" style="fill:#be927b;fill-rule:nonzero;"/><path d="M155.93,195.813" style="fill:#be927b;fill-rule:nonzero;"/><path d="M151.25,195.83c-0.1,-0.026 -0.19,-0.054 -0.29,-0.081l-0.01,0.004c0,0 0.12,0.031 0.3,0.077Z" style="fill:#be927b;fill-rule:nonzero;"/><path d="M155.93,195.813" style="fill:#be927b;fill-rule:nonzero;"/><path d="M144.73,200.186c-0.24,-3.247 9.02,0.68 12.06,0.774c2.43,0.082 9.71,-0.481 10.39,-0.739c5.09,-1.911 -0.28,5.429 -10.54,5.815c-4.7,0.188 -11.77,-3.881 -11.91,-5.85Z" style="fill:#f0d2ad;fill-rule:nonzero;"/><path d="M174.88,193.925c-2.51,-0.124 -5.1,1.978 -8.12,1.657c-0.12,-0.062 -0.18,-0.062 -0.31,-0.062c-0.7,-0.123 -1.39,0 -2.14,0.185c-0.94,0.198 -1.89,0.58 -2.77,0.889c-1.51,0.493 -3.22,0.888 -4.97,0.752l0,0.012l-0.1,-0.012l-0.09,0.012l0,-0.012c-1.76,0.136 -3.46,-0.259 -4.97,-0.752c-0.89,-0.309 -1.83,-0.691 -2.77,-0.889c-0.76,-0.185 -1.45,-0.308 -2.14,-0.185c-0.13,0 -0.19,0 -0.32,0.062c-3.02,0.321 -5.6,-1.781 -8.11,-1.657c-0.7,0.062 -1.71,-0.124 -2.27,-0.124c0.12,0.062 0.25,0.124 0.38,0.186c7.17,3.503 13.35,10.067 20.2,9.857l0.19,0c6.85,0.21 13.03,-6.354 20.2,-9.857c0.13,-0.062 0.25,-0.124 0.38,-0.186c-0.57,0 -1.58,0.186 -2.27,0.124Z" style="fill:#dcbf9e;fill-rule:nonzero;"/><path d="M176.98,193.725l0.01,0c0,0 -7.29,-2.815 -12.47,-1.164c0,0 -1.93,0.755 -3.93,1.215c-1.22,0.475 -2.69,0.613 -4.12,0.556c-1.09,-0.044 -2.12,-0.183 -2.98,-0.332c-0.28,-0.043 -0.56,-0.101 -0.85,-0.163c-0.12,-0.026 -0.22,-0.046 -0.32,-0.07c-0.18,-0.041 -0.35,-0.074 -0.52,-0.119c-0.19,-0.046 -0.3,-0.077 -0.3,-0.077l0.01,-0.004c-1.66,-0.45 -3.08,-1.006 -3.08,-1.006c-5.18,-1.651 -12.47,1.164 -12.47,1.164c-0.1,0.046 -0.16,0.076 -0.16,0.076c0.56,0 1.57,0.186 2.27,0.124c2.51,-0.124 5.09,1.978 8.11,1.657c0.13,-0.062 0.19,-0.062 0.32,-0.062c0.69,-0.124 1.38,0 2.14,0.185c0.94,0.198 1.88,0.58 2.77,0.889c1.51,0.493 3.21,0.888 4.97,0.752l0,0.012l0.09,-0.012l0.1,0.012l0,-0.012c1.75,0.136 3.46,-0.259 4.97,-0.752c0.88,-0.309 1.83,-0.691 2.77,-0.889c0.75,-0.185 1.44,-0.309 2.14,-0.185c0.13,0 0.19,0 0.31,0.062c3.02,0.321 5.61,-1.781 8.12,-1.657c0.69,0.062 1.7,-0.124 2.27,-0.124c0,0 -0.06,-0.03 -0.17,-0.076Z" style="fill:#c69f83;fill-rule:nonzero;"/><path d="M144.23,195.439c0.14,0.034 13.66,4.164 24.23,0.09l-1.21,-0.822l-14.3,0l-8.72,0.732Z" style="fill:#c69f83;fill-rule:nonzero;"/><path d="M102.37,252.905c0,0 -8.97,19.209 -8.86,30.47l11.43,0c-0.04,7.723 -0.28,13.599 -0.52,17.224l52.97,0l-52.38,-50.973c-0.89,1.025 -1.78,2.105 -2.64,3.279Z" style="fill:#739c5a;fill-rule:nonzero;"/><path d="M221.37,283.375c0.41,-17.226 -8.72,-30.47 -8.72,-30.47c-3.1,-4.266 -6.48,-7.5 -9.83,-9.966c-0.26,-0.259 -0.59,-0.475 -0.88,-0.694c-4.41,-3.184 -8.62,-4.987 -11.72,-6.004c-0.61,-0.219 -1.17,-0.385 -1.67,-0.56c-2.27,-0.627 -3.68,-0.755 -3.68,-0.755c-1.24,0 -2.36,-0.475 -3.33,-1.283l-0.05,-0.042c-0.33,-0.307 -0.66,-0.67 -0.96,-1.064c-0.15,0.087 -0.38,0.436 -0.62,1.106c-0.64,1.554 -3.41,7.492 -7.54,12.924l37.82,36.808l11.18,0Z" style="fill:#77c043;fill-rule:nonzero;"/><path d="M210.64,300.597l-53.25,0l-52.38,-50.963c2.32,-2.675 4.71,-4.856 7.1,-6.625l0.18,-0.144c0.23,-0.226 0.5,-0.391 0.7,-0.535c0.78,-0.555 1.56,-1.07 2.33,-1.564c3.45,-2.201 6.72,-3.6 9.27,-4.485c0.6,-0.205 1.16,-0.391 1.67,-0.514c2.41,-0.679 3.89,-0.844 3.89,-0.844c1.25,0 2.37,-0.473 3.33,-1.275l0.04,-0.041c0.31,-0.288 0.64,-0.659 0.95,-1.029l0.04,-0.041c0.08,0.041 0.17,0.144 0.27,0.329l0.02,0.041c0.1,0.185 0.21,0.432 0.31,0.741c1.25,3.024 10.64,22.837 22.4,22.817c0.27,0 0.54,-0.021 0.81,-0.041c5.41,-0.412 10.28,-4.918 14.05,-9.856l37.81,36.808l-0.12,0c0.04,7.715 0.31,13.599 0.58,17.221Z" style="fill:#5fbb46;fill-rule:nonzero;"/><path d="M202.51,300.597l-32.49,0l-57.73,-57.732c0.23,-0.226 0.5,-0.391 0.7,-0.535c0.78,-0.555 1.56,-1.07 2.33,-1.564c3.45,-2.201 6.72,-3.6 9.27,-4.485c0.6,-0.205 1.16,-0.391 1.67,-0.514c2.41,-0.679 3.89,-0.844 3.89,-0.844c1.25,0 2.37,-0.473 3.33,-1.275l0.04,-0.041c0.31,-0.288 0.64,-0.659 0.95,-1.029l0.31,0.288l0.02,0.041c0.1,0.185 0.21,0.432 0.31,0.741c1.25,3.024 10.64,22.837 22.4,22.817c0.27,0 0.54,-0.021 0.81,-0.041l44.19,44.173Z" style="fill:#135b2e;fill-rule:nonzero;"/><path d="M174.53,77.379c-0.08,-0.112 -0.16,-0.241 -0.25,-0.349l0.28,0.281l-0.03,0.068Zm40.33,-17.56c-7.17,-10.416 -24.75,-19.642 -47.34,-22.403c-22.59,-2.757 -42.26,13.281 -42.26,13.281c0,0 -3.5,-5.216 -6.49,-6.751c-2.99,-1.531 -11.58,0.293 -11.58,0.293c0,0 5.82,1.644 6.97,3.179c2.17,2.885 1.16,5.634 1.16,5.634c0,0 -6.81,-2.962 -9.8,-3.031c-5.47,-0.156 -11.61,6.804 -11.61,6.804c0,0 5.13,-3.629 10.02,-3.488c1.61,0.044 6.05,2.162 6.05,2.162c0,0 -8.09,0.86 -23.25,17.516c-11.45,12.562 -11.45,29.166 -11.45,29.166l9.59,-5.513c0,0 -2.48,2.913 -3.7,5.946c-7.06,17.637 2.6,35.327 2.6,35.327c0,0 3.16,0.317 6.04,7.104c3.9,9.194 6.35,20.584 6.35,20.584l3.37,0c0,0 -7.27,-28.388 -2.37,-43.847c1.19,-3.725 4.13,-10.888 8.27,-12.805c-0.68,24.657 7.91,48.378 7.91,48.378c0.5,-86.494 50.84,-75.715 52,-75.453c3.14,3.687 5.27,8.217 6.5,11.398c2.62,6.739 1.27,10.11 1.27,10.11c0,0 5.09,-8.274 4.49,-16.559c-0.18,-2.652 -0.73,-4.699 -1.37,-6.297c1.56,0.787 5.08,1.317 6.48,19.035c0.66,8.39 -4.59,12.344 -4.59,12.344c0,0 17.78,-3.857 14.31,-25.388c0,0 39.37,20.652 20.81,79.084l3.37,0c0,0 2.44,-11.39 6.34,-20.584c0,0 37.42,-25.893 -8.09,-85.226Z" style="fill:#f0f0f0;fill-rule:nonzero;"/></g><path d="M212.72,151.571c-0.04,-0.021 -0.07,-0.042 -0.11,-0.063c-0.09,-0.049 -0.18,-0.097 -0.27,-0.145c-0.47,-0.254 -0.95,-0.504 -1.44,-0.748c1.31,-6.135 2.13,-12.876 2.16,-19.725c1.24,1.524 2.33,3.909 2.33,7.592c0,0.867 -0.05,1.806 -0.19,2.823l0,0.026c-0.03,0.282 -0.31,2.814 -1.2,6.181c-0.01,0.019 -0.01,0.038 -0.02,0.057c0,0.004 0,0.008 0,0.012c-0.01,0.016 -0.01,0.031 -0.01,0.048c0,0.003 -0.01,0.007 -0.01,0.01c0,0.016 -0.01,0.031 -0.01,0.047c0,0.007 0,0.014 0,0.021c-0.01,0.012 -0.01,0.026 -0.02,0.038c0,0.006 0,0.013 0,0.018c0,0.013 -0.01,0.026 -0.01,0.039c0,0.009 -0.01,0.019 -0.01,0.029c0,0.008 0,0.016 -0.01,0.024c0,0.012 0,0.023 0,0.035c-0.01,0.006 -0.01,0.013 -0.01,0.02c-0.32,1.15 -0.7,2.388 -1.17,3.661Z" style="fill:url(#_Linear1);"/><path d="M169.86,154.278c-1.12,-2.049 -2.13,-4.401 -3.01,-7.103c0,-0.014 -0.01,-0.028 -0.01,-0.041c0,-0.009 -0.01,-0.019 -0.01,-0.027c-0.3,-0.941 -0.59,-1.925 -0.86,-2.952c0,0 -0.85,-2.286 -0.85,-5.126c0,-2.192 0.51,-4.715 2.31,-6.772c-0.01,0.536 0.19,1.072 0.58,1.47c0.38,0.386 0.89,0.598 1.43,0.598c0.54,-0.001 1.05,-0.213 1.43,-0.599l0.01,-0.016c0.11,-0.102 0.86,-0.845 2.22,-1.898c-1.12,8.02 -0.71,19.124 -0.71,19.124c0,0 0,0.001 0.01,0.003c0,0.04 0,0.06 0,0.06c0,0 0.64,0.232 1.75,0.541c-1.37,0.779 -2.76,1.657 -4.15,2.64c-0.05,0.033 -0.1,0.065 -0.14,0.099l0,-0.001Zm41.04,-3.663c-4.01,-1.998 -8.7,-3.623 -13.88,-4.176c4.03,-6.487 6.26,-15.658 6.26,-15.658c-0.01,-0.006 -0.01,-0.012 -0.02,-0.018c0.01,-0.03 0.01,-0.046 0.01,-0.046c-1.83,-1.978 -3.6,-3.595 -5.3,-4.905c3.73,0.358 7.62,1.145 11.53,2.55c0,0 1.92,0.502 3.56,2.528c-0.03,6.849 -0.85,13.59 -2.16,19.725Z" style="fill:url(#_Linear2);"/><path d="M174.15,151.54c-1.11,-0.309 -1.75,-0.541 -1.75,-0.541c0,0 0,-0.02 0,-0.06c0.04,0.013 0.23,0.075 0.61,0.234c0.11,-7.28 0.78,-17.28 3.48,-19.196c1.99,-1.466 5.24,-3.229 9.49,-3.229c4.28,0 9.58,1.788 15.64,7.471c1.01,-2.876 1.56,-5.114 1.64,-5.456c0.01,0.006 0.01,0.012 0.02,0.018c0,0 -2.23,9.171 -6.26,15.658c-1.24,-0.132 -2.5,-0.203 -3.79,-0.204c0,0 -0.01,0 -0.02,0c-0.01,0 -0.02,0 -0.02,0.001c-0.47,0 -0.93,0.009 -1.4,0.028c1.35,-1.479 2.17,-3.45 2.17,-5.613c0,-4.594 -3.71,-8.319 -8.29,-8.319c-4.58,0 -8.29,3.725 -8.29,8.319c0,3.238 1.84,6.044 4.53,7.418c-2.53,0.83 -5.12,1.969 -7.76,3.471Z" style="fill:url(#_Linear3);"/><path d="M173.01,151.173c-0.38,-0.159 -0.57,-0.221 -0.61,-0.234c-0.01,-0.002 -0.01,-0.003 -0.01,-0.003c0,0 -0.41,-11.104 0.71,-19.124c0.62,-0.478 1.36,-1.019 2.21,-1.593c1.38,-1.017 3.18,-1.912 5.05,-2.81c0.74,-0.341 1.49,-0.649 2.26,-0.92c3.06,-0.537 6.54,-0.917 10.27,-0.917c1.65,0 3.35,0.074 5.08,0.24c1.7,1.31 3.47,2.927 5.3,4.905c0,0 0,0.016 -0.01,0.046c-0.08,0.342 -0.63,2.58 -1.64,5.456c-6.06,-5.683 -11.36,-7.471 -15.64,-7.471c-4.25,0 -7.5,1.763 -9.49,3.229c-2.7,1.916 -3.37,11.916 -3.48,19.196Z" style="fill:url(#_Linear4);"/><path d="M181.91,148.069c-2.69,-1.374 -4.53,-4.18 -4.53,-7.418c0,-4.594 3.71,-8.319 8.29,-8.319c4.58,0 8.29,3.725 8.29,8.319c0,2.163 -0.82,4.134 -2.17,5.613c-3.16,0.127 -6.46,0.685 -9.88,1.805Zm0.96,-3.04c0.79,0.733 1.8,1.176 2.86,1.176c0.11,0 0.22,-0.004 0.32,-0.013c2.4,-0.198 4.24,-2.623 4.02,-5.289c-0.01,-0.09 -0.02,-0.18 -0.03,-0.269c0.42,-0.306 0.68,-0.771 0.64,-1.268c-0.07,-0.772 -0.81,-1.346 -1.69,-1.346c-0.03,0 -0.05,0.001 -0.08,0.001c-0.84,-1.029 -2.05,-1.68 -3.34,-1.68c-0.1,0 -0.21,0.004 -0.32,0.013c-2.39,0.198 -4.23,2.619 -4.02,5.284c0.07,0.832 0.33,1.608 0.73,2.276c-0.1,0.134 -0.15,0.296 -0.14,0.466c0.03,0.382 0.4,0.67 0.84,0.67c0.03,0 0.06,-0.001 0.09,-0.004c0.04,-0.003 0.08,-0.009 0.12,-0.017Z" style="fill:url(#_Linear5);"/><path d="M185.73,146.205c-1.06,0 -2.07,-0.443 -2.86,-1.176c0.34,-0.067 0.6,-0.298 0.67,-0.579c0.64,0.503 1.39,0.789 2.1,0.789c0.07,0 0.14,-0.003 0.21,-0.009c1.66,-0.142 3.39,-1.977 3.21,-4.236c0,-0.001 0,-0.002 0,-0.004c0.37,-0.032 0.71,-0.162 0.98,-0.356c0.01,0.089 0.02,0.179 0.03,0.269c0.22,2.666 -1.62,5.091 -4.02,5.289c-0.1,0.009 -0.21,0.013 -0.32,0.013Zm-3.77,-2.291c-0.4,-0.668 -0.66,-1.444 -0.73,-2.276c-0.21,-2.665 1.63,-5.086 4.02,-5.284c0.11,-0.009 0.22,-0.013 0.32,-0.013c1.29,0 2.5,0.651 3.34,1.68c-0.03,0.002 -0.06,0.003 -0.09,0.006c-0.38,0.031 -0.72,0.163 -1,0.363c-0.69,-0.673 -1.58,-1.065 -2.41,-1.065c-0.07,0 -0.14,0.003 -0.21,0.009c-1.66,0.142 -3.39,1.985 -3.2,4.245c0.06,0.755 0.32,1.429 0.71,1.985c-0.03,0.001 -0.05,0.002 -0.08,0.004c-0.28,0.022 -0.52,0.156 -0.67,0.346Z" style="fill:url(#_Linear6);"/><path d="M185.64,145.239c-0.71,0 -1.46,-0.286 -2.1,-0.789c0.02,-0.069 0.03,-0.142 0.02,-0.216c-0.03,-0.381 -0.4,-0.67 -0.84,-0.67l-0.01,0c-0.39,-0.556 -0.65,-1.23 -0.71,-1.985c-0.19,-2.26 1.54,-4.103 3.2,-4.245c0.07,-0.006 0.14,-0.009 0.21,-0.009c0.83,0 1.72,0.392 2.41,1.065c-0.41,0.306 -0.66,0.769 -0.62,1.266c0.06,0.767 0.81,1.341 1.69,1.341c0.06,0 0.11,-0.002 0.17,-0.007c0,0.002 0,0.003 0,0.004c0.18,2.259 -1.55,4.094 -3.21,4.236c-0.07,0.006 -0.14,0.009 -0.21,0.009Z" style="fill:url(#_Linear7);"/><path d="M188.89,140.997c-0.88,0 -1.63,-0.574 -1.69,-1.341c-0.04,-0.497 0.21,-0.96 0.62,-1.266c0.28,-0.2 0.62,-0.332 1,-0.363c0.03,-0.003 0.06,-0.004 0.09,-0.006c0.03,0 0.05,-0.001 0.08,-0.001c0.88,0 1.62,0.574 1.69,1.346c0.04,0.497 -0.22,0.962 -0.64,1.268c-0.27,0.194 -0.61,0.324 -0.98,0.356c-0.06,0.005 -0.11,0.007 -0.17,0.007Z" style="fill:url(#_Linear8);"/><path d="M182.66,145.05c-0.44,0 -0.81,-0.288 -0.84,-0.67c-0.01,-0.17 0.04,-0.332 0.14,-0.466c0.15,-0.19 0.39,-0.324 0.67,-0.346c0.03,-0.002 0.05,-0.003 0.08,-0.004l0.01,0c0.44,0 0.81,0.289 0.84,0.67c0.01,0.074 0,0.147 -0.02,0.216c-0.07,0.281 -0.33,0.512 -0.67,0.579c-0.04,0.008 -0.08,0.014 -0.12,0.017c-0.03,0.003 -0.06,0.004 -0.09,0.004Z" style="fill:url(#_Linear9);"/><path d="M169.44,134.325c-0.54,0 -1.05,-0.212 -1.43,-0.598c-0.39,-0.398 -0.59,-0.934 -0.58,-1.47c0.74,-0.847 1.7,-1.615 2.93,-2.249c0,0 4.88,-2.22 12.26,-3.519c-0.77,0.271 -1.52,0.579 -2.26,0.92c-1.87,0.898 -3.67,1.793 -5.05,2.81c-0.85,0.574 -1.59,1.115 -2.21,1.593c-1.36,1.053 -2.11,1.796 -2.22,1.898l-0.01,0.016c-0.38,0.386 -0.89,0.598 -1.43,0.599Z" style="fill:url(#_Linear10);"/><path d="M209.2,158.632c0.22,-1.562 0.47,-2.921 0.74,-3.962c0.34,-1.317 0.66,-2.67 0.96,-4.055c0.49,0.244 0.97,0.494 1.44,0.748c0.09,0.048 0.18,0.096 0.27,0.145c0.04,0.021 0.07,0.042 0.11,0.063c-0.01,0.02 -0.01,0.039 -0.02,0.059c-0.86,2.332 -2,4.775 -3.5,7.002Z" style="fill:#bb799c;fill-rule:nonzero;"/><path d="M191.02,167.474c-4.39,0 -10.07,-1.093 -15.13,-5.494c0,-0.003 0,-0.003 0,-0.005c-0.01,-0.01 -0.02,-0.02 -0.04,-0.03c0,-0.005 -0.01,-0.011 -0.01,-0.016c-0.01,-0.008 -0.02,-0.015 -0.03,-0.023c-0.02,-0.014 -0.03,-0.027 -0.05,-0.041c0,-0.001 0,-0.001 0,-0.002c-0.02,-0.015 -0.03,-0.028 -0.05,-0.043c0,-0.002 0,-0.004 0,-0.006c-2.11,-1.875 -4.11,-4.334 -5.85,-7.536c0.04,-0.033 0.09,-0.065 0.14,-0.098c1.39,-0.983 2.78,-1.861 4.15,-2.64c2.21,0.62 6.28,1.551 10.71,1.551c1.67,0 3.39,-0.132 5.08,-0.463c2.75,-0.538 5.13,-3.049 7.08,-6.189c5.18,0.553 9.87,2.178 13.88,4.176c-0.3,1.385 -0.62,2.738 -0.96,4.055c-0.27,1.041 -0.52,2.4 -0.74,3.962c-1.56,2.304 -3.5,4.377 -5.92,5.853c0,0.003 -0.01,0.007 -0.02,0.01c-0.01,0.008 -0.02,0.017 -0.04,0.025c-0.01,0.007 -0.02,0.013 -0.03,0.019c-0.01,0.007 -0.02,0.014 -0.03,0.021c-0.02,0.007 -0.03,0.015 -0.04,0.023c-0.01,0.006 -0.02,0.011 -0.03,0.017c-0.01,0.008 -0.03,0.017 -0.05,0.026c0,0.005 -0.01,0.01 -0.02,0.015c-0.02,0.01 -0.03,0.019 -0.05,0.029c-0.01,0.004 -0.01,0.007 -0.02,0.011c-0.02,0.011 -0.04,0.022 -0.06,0.033c0,0.002 -0.01,0.005 -0.01,0.008c-0.02,0.012 -0.04,0.024 -0.06,0.036c-0.01,0.001 -0.01,0.003 -0.01,0.003c-0.02,0.014 -0.05,0.027 -0.07,0.04c0,0.001 0,0.001 0,0.002c-1.2,0.667 -2.52,1.19 -3.95,1.528c-0.03,0.007 -0.06,0.014 -0.09,0.021c-0.03,0.007 -0.06,0.014 -0.09,0.02l0,0.001c-0.03,0.006 -0.06,0.012 -0.09,0.018c0,0.001 0,0.001 0,0.002c-0.03,0.006 -0.06,0.013 -0.09,0.019c0,0.001 -0.01,0.001 -0.01,0.002c-0.14,0.05 -3.18,1.06 -7.4,1.06Z" style="fill:#c283a4;fill-rule:nonzero;"/><path d="M184.86,153.091c-4.43,0 -8.5,-0.931 -10.71,-1.551c2.64,-1.501 5.23,-2.641 7.76,-3.47c1.13,0.576 2.41,0.901 3.76,0.901c2.42,0 4.6,-1.044 6.12,-2.707c0.47,-0.019 0.93,-0.028 1.4,-0.028c0,0 0.01,-0.001 0.02,-0.001c0.01,0 0.02,0 0.02,0c1.29,0.001 2.55,0.072 3.79,0.204c-1.95,3.14 -4.33,5.651 -7.08,6.189c-1.69,0.331 -3.41,0.463 -5.08,0.463Z" style="fill:#c592c2;fill-rule:nonzero;"/><path d="M185.67,148.971c-1.35,0 -2.63,-0.325 -3.76,-0.901c3.42,-1.121 6.72,-1.679 9.88,-1.806c-1.52,1.663 -3.7,2.707 -6.12,2.707Z" style="fill:#7a3958;fill-rule:nonzero;"/><path d="M169.86,154.278c0.04,-0.033 0.09,-0.065 0.14,-0.098c-0.05,0.033 -0.1,0.065 -0.14,0.099l0,-0.001Z" style="fill:url(#_Linear11);"/><path d="M212.72,151.571c-0.04,-0.021 -0.07,-0.042 -0.11,-0.063c0.04,0.021 0.07,0.042 0.11,0.063Zm-0.38,-0.208c-0.47,-0.254 -0.95,-0.504 -1.44,-0.748c0.49,0.244 0.97,0.494 1.44,0.748Z" style="fill:url(#_Linear12);"/><path d="M210.9,150.615c-4.01,-1.998 -8.7,-3.623 -13.88,-4.176c5.18,0.553 9.87,2.178 13.88,4.176Z" style="fill:url(#_Linear13);"/><path d="M197.02,146.439c-1.24,-0.132 -2.5,-0.203 -3.79,-0.204c1.29,0.001 2.55,0.072 3.79,0.204Zm-3.83,-0.203c0,-0.001 0.01,-0.001 0.02,-0.001c-0.01,0 -0.02,0.001 -0.02,0.001Z" style="fill:url(#_Linear14);"/><path d="M215.2,141.305c0,0 -2.19,22.035 -16.77,25.107c0,0 -24.45,8.44 -32.46,-22.257c0,0 -3.72,-9.982 4.39,-14.147c0,0 19.3,-8.772 39.14,-1.646c0,0 7.13,1.867 5.7,12.943Zm-66.03,2.85c-8,30.697 -32.45,22.257 -32.45,22.257c-14.59,-3.072 -16.78,-25.107 -16.78,-25.107c-1.42,-11.076 5.7,-12.943 5.7,-12.943c19.85,-7.126 39.15,1.646 39.15,1.646c8.11,4.165 4.38,14.147 4.38,14.147Zm70.09,-16.776c0,0 -32.89,-11.407 -52.3,0.878c0,0 -6.2,4.649 -9.13,4.107l0,-0.162l-0.25,0.099l-0.01,0l-0.26,-0.099l0,0.162c-2.92,0.542 -9.13,-4.107 -9.13,-4.107c-19.4,-12.285 -52.3,-0.878 -52.3,-0.878c-3.11,0.888 -2.4,3.934 -2.02,5.059c0.07,0.215 0.18,0.415 0.29,0.61c0.97,1.762 3.07,11.175 3.79,14.468c0.19,0.883 0.42,1.761 0.7,2.624c7.1,22.151 24.34,20.063 28.69,19.148c0.78,-0.163 1.56,-0.268 2.35,-0.368c17.17,-2.198 23.11,-25.753 23.11,-25.753c1.25,-4.161 3.51,-4.533 4.52,-4.465l0,0.078c0,0 0.1,-0.031 0.27,-0.057c0.16,0.026 0.25,0.057 0.25,0.057l0,-0.078c1.01,-0.068 3.27,0.304 4.53,4.465c0,0 5.94,23.555 23.1,25.753c0.79,0.1 1.58,0.205 2.36,0.368c4.34,0.915 21.58,3.003 28.69,-19.148c0.27,-0.863 0.5,-1.741 0.69,-2.624c0.72,-3.293 2.83,-12.706 3.8,-14.468c0.11,-0.195 0.22,-0.395 0.28,-0.61c0.39,-1.125 1.09,-4.171 -2.02,-5.059Z" style="fill:#de2b74;fill-rule:nonzero;"/><path d="M103.24,153.616c-1.53,-3.546 -2.39,-7.049 -2.84,-9.406c-0.01,-0.006 -0.01,-0.011 -0.01,-0.017c0,-0.008 0,-0.017 0,-0.025c0,-0.011 -0.01,-0.021 -0.01,-0.032c0,-0.003 0,-0.006 0,-0.009c-0.3,-1.563 -0.42,-2.604 -0.44,-2.791l0,-0.029c0,0 0,-0.001 0,-0.002c-0.13,-1.017 -0.19,-1.956 -0.19,-2.823c0.01,-8.58 5.89,-10.12 5.89,-10.12c0.3,-0.105 0.59,-0.206 0.88,-0.305c1.14,8.571 2.93,16.129 4.39,21.421c-2.7,1.151 -5.14,2.505 -7.28,3.888c-0.03,0.018 -0.06,0.038 -0.09,0.056c-0.02,0.017 -0.05,0.033 -0.08,0.05c-0.02,0.014 -0.04,0.029 -0.06,0.043c-0.01,0.005 -0.02,0.011 -0.03,0.016c-0.04,0.029 -0.08,0.057 -0.13,0.085Zm43.09,-1.414c-0.05,-0.034 -0.11,-0.068 -0.17,-0.101c-1.6,-0.962 -3.18,-1.787 -4.75,-2.49c0.06,-3.802 0.07,-12.205 -0.94,-18.262c1.83,1.364 2.83,2.366 2.84,2.378c0.39,0.394 0.91,0.596 1.44,0.596c0.38,0 0.76,-0.108 1.09,-0.328c0.94,-0.613 1.2,-1.877 0.61,-2.788l-0.04,-0.061c-0.01,-0.017 -0.06,-0.1 -0.16,-0.238c3.01,2.215 3.78,5.419 3.78,8.121c0,2.84 -0.86,5.126 -0.86,5.126c-0.48,1.84 -1.02,3.541 -1.61,5.11c-0.39,1.035 -0.8,2.013 -1.23,2.937Zm-32.75,-3.763c0.11,-2.256 0.26,-4.439 0.45,-6.548c0.83,1.899 1.79,3.819 2.89,5.534c-1.15,0.294 -2.26,0.635 -3.34,1.014Zm2.7,-22.319c0.01,-0.075 0.03,-0.145 0.04,-0.219c0.1,-0.011 0.2,-0.022 0.3,-0.033c-0.11,0.083 -0.23,0.166 -0.34,0.252Z" style="fill:url(#_Linear15);"/><path d="M140.67,149.289c-2.25,-0.963 -4.47,-1.672 -6.63,-2.163c1.44,-1.498 2.33,-3.538 2.33,-5.788c0,-4.594 -3.71,-8.319 -8.29,-8.319c-4.58,0 -8.3,3.725 -8.3,8.319c0,1.961 0.68,3.764 1.81,5.187c-1.61,0.205 -3.17,0.512 -4.67,0.9c-1.1,-1.715 -2.06,-3.635 -2.89,-5.534c0.22,-2.545 0.49,-4.977 0.81,-7.316c4.94,-3.856 9.3,-5.14 12.93,-5.14c4.25,0 7.5,1.763 9.49,3.229c2.39,1.698 3.19,9.748 3.41,16.625Z" style="fill:url(#_Linear16);"/><path d="M141.41,149.611c-0.25,-0.11 -0.49,-0.218 -0.74,-0.322c-0.22,-6.877 -1.02,-14.927 -3.41,-16.625c-1.99,-1.466 -5.24,-3.229 -9.49,-3.229c-3.63,0 -7.99,1.284 -12.93,5.14c0.4,-2.977 0.89,-5.797 1.44,-8.455c0.11,-0.086 0.23,-0.169 0.34,-0.252c1.93,-0.206 3.81,-0.296 5.63,-0.296c3,0 5.83,0.244 8.4,0.617c1.08,0.336 2.15,0.745 3.16,1.217c1.88,0.901 3.68,1.794 5.08,2.826c0.58,0.39 1.11,0.766 1.58,1.117c1.01,6.057 1,14.46 0.94,18.262Z" style="fill:url(#_Linear17);"/><path d="M134.04,147.126c-1.42,-0.321 -2.81,-0.549 -4.18,-0.694c0.37,-0.188 0.71,-0.43 1.02,-0.715c0.04,0.007 0.08,0.013 0.12,0.016c0.03,0.003 0.06,0.004 0.08,0.004c0.44,0 0.81,-0.288 0.85,-0.669c0.01,-0.17 -0.04,-0.333 -0.15,-0.467c0.41,-0.667 0.67,-1.443 0.74,-2.275c0.21,-2.665 -1.63,-5.087 -4.02,-5.285c-0.11,-0.009 -0.22,-0.013 -0.32,-0.013c-1.29,0 -2.51,0.651 -3.35,1.681c-0.02,-0.001 -0.05,-0.001 -0.07,-0.001c-0.89,0 -1.63,0.574 -1.69,1.345c-0.04,0.496 0.21,0.962 0.64,1.268c-0.02,0.089 -0.03,0.179 -0.03,0.269c-0.16,1.922 0.75,3.719 2.17,4.646c-1.45,0.012 -2.87,0.113 -4.26,0.289c-1.13,-1.423 -1.81,-3.226 -1.81,-5.187c0,-4.594 3.72,-8.319 8.3,-8.319c4.58,0 8.29,3.725 8.29,8.319c0,2.25 -0.89,4.29 -2.33,5.788Z" style="fill:url(#_Linear18);"/><path d="M129.86,146.432c-1.25,-0.133 -2.49,-0.196 -3.7,-0.197c-0.01,0 -0.02,0 -0.03,0c0,0 -0.01,0 -0.02,0c-0.08,0 -0.17,0.001 -0.26,0.001c-1.42,-0.927 -2.33,-2.724 -2.17,-4.646c0,-0.09 0.01,-0.18 0.03,-0.269c0.27,0.194 0.6,0.325 0.98,0.356c0,0.001 0,0.003 0,0.004c-0.19,2.26 1.54,4.095 3.21,4.236c0.07,0.006 0.14,0.009 0.21,0.009c0.71,0 1.46,-0.286 2.1,-0.789c0.07,0.281 0.33,0.513 0.67,0.58c-0.31,0.285 -0.65,0.527 -1.02,0.715Zm1.92,-1.831c-0.14,-0.19 -0.38,-0.324 -0.66,-0.345c-0.03,-0.003 -0.06,-0.004 -0.08,-0.004c0.39,-0.557 0.65,-1.231 0.71,-1.986c0.19,-2.26 -1.54,-4.103 -3.21,-4.244c-0.07,-0.006 -0.14,-0.009 -0.21,-0.009c-0.83,0 -1.71,0.391 -2.41,1.064c-0.27,-0.199 -0.61,-0.332 -0.99,-0.362c-0.03,-0.003 -0.07,-0.005 -0.1,-0.006c0.84,-1.03 2.06,-1.681 3.35,-1.681c0.1,0 0.21,0.004 0.32,0.013c2.39,0.198 4.23,2.62 4.02,5.285c-0.07,0.832 -0.33,1.608 -0.74,2.275Z" style="fill:url(#_Linear19);"/><path d="M128.11,145.926c-0.07,0 -0.14,-0.003 -0.21,-0.009c-1.67,-0.141 -3.4,-1.976 -3.21,-4.236c0,-0.001 0,-0.003 0,-0.004c0.05,0.005 0.11,0.007 0.17,0.007c0.88,0 1.62,-0.573 1.69,-1.341c0.04,-0.497 -0.21,-0.96 -0.63,-1.266c0.7,-0.673 1.58,-1.064 2.41,-1.064c0.07,0 0.14,0.003 0.21,0.009c1.67,0.141 3.4,1.984 3.21,4.244c-0.06,0.755 -0.32,1.429 -0.71,1.986l-0.01,0c-0.44,0 -0.81,0.288 -0.84,0.669c-0.01,0.074 0,0.147 0.02,0.216c-0.64,0.503 -1.39,0.789 -2.1,0.789Z" style="fill:url(#_Linear20);"/><path d="M124.86,141.684c-0.06,0 -0.12,-0.002 -0.17,-0.007c-0.38,-0.031 -0.71,-0.162 -0.98,-0.356c-0.43,-0.306 -0.68,-0.772 -0.64,-1.268c0.06,-0.771 0.8,-1.345 1.69,-1.345c0.02,0 0.05,0 0.07,0.001c0.03,0.001 0.07,0.003 0.1,0.006c0.38,0.03 0.72,0.163 0.99,0.362c0.42,0.306 0.67,0.769 0.63,1.266c-0.07,0.768 -0.81,1.341 -1.69,1.341Z" style="fill:url(#_Linear21);"/><path d="M131.08,145.737c-0.02,0 -0.05,-0.001 -0.08,-0.004c-0.04,-0.003 -0.08,-0.009 -0.12,-0.016c-0.34,-0.067 -0.6,-0.299 -0.67,-0.58c-0.02,-0.069 -0.03,-0.142 -0.02,-0.216c0.03,-0.381 0.4,-0.669 0.84,-0.669l0.01,0c0.02,0 0.05,0.001 0.08,0.004c0.28,0.021 0.52,0.155 0.66,0.345c0.11,0.134 0.16,0.297 0.15,0.467c-0.04,0.381 -0.41,0.669 -0.85,0.669Z" style="fill:url(#_Linear22);"/><path d="M144.75,134.323c-0.53,0 -1.05,-0.202 -1.44,-0.596c-0.01,-0.012 -1.01,-1.014 -2.84,-2.378c-0.47,-0.351 -1,-0.727 -1.58,-1.117c-1.4,-1.032 -3.2,-1.925 -5.08,-2.826c-1.01,-0.472 -2.08,-0.881 -3.16,-1.217c8.42,1.219 14.14,3.819 14.14,3.819c0.53,0.276 1.02,0.577 1.46,0.9c0.1,0.138 0.15,0.221 0.16,0.238l0.04,0.061c0.59,0.911 0.33,2.175 -0.61,2.788c-0.33,0.22 -0.71,0.328 -1.09,0.328Z" style="fill:url(#_Linear23);"/><path d="M110.91,149.478c-1.46,-5.292 -3.25,-12.85 -4.39,-21.421c3.32,-1.115 6.62,-1.796 9.8,-2.156c-0.01,0.074 -0.03,0.144 -0.04,0.219c-0.55,2.658 -1.04,5.478 -1.44,8.455c-0.32,2.339 -0.59,4.771 -0.81,7.316c-0.19,2.109 -0.34,4.292 -0.45,6.548c-0.91,0.321 -1.8,0.67 -2.67,1.039Z" style="fill:url(#_Linear24);"/><path d="M147.56,149.265c0.59,-1.569 1.13,-3.27 1.61,-5.11c0,0 0.86,-2.286 0.86,-5.126c0,2.84 -0.86,5.126 -0.86,5.126c-0.48,1.842 -1.02,3.541 -1.61,5.11Zm-47.16,-5.055c-0.01,-0.005 -0.01,-0.011 -0.01,-0.017c0,0.006 0,0.011 0.01,0.017Zm-0.01,-0.042c0,-0.011 -0.01,-0.022 -0.01,-0.032c0,0.011 0.01,0.021 0.01,0.032Zm-0.01,-0.041c-0.3,-1.563 -0.42,-2.604 -0.44,-2.791c0.02,0.187 0.14,1.228 0.44,2.791Zm-0.44,-2.797c0,-0.002 0,-0.003 0,-0.004c0,0.001 0,0.002 0,0.004Zm0,-0.009c0,-0.003 0,-0.005 0,-0.007c0,0.002 0,0.004 0,0.007Zm0,-0.013l0,-0.001l0,0.001Zm0,-0.003c-0.13,-1.017 -0.19,-1.956 -0.19,-2.823c0,0.867 0.06,1.806 0.19,2.823Z" style="fill:url(#_Linear25);"/><path d="M124.13,167.474c-4.13,0 -7.12,-0.965 -7.39,-1.055c-0.01,-0.003 -0.01,-0.005 -0.02,-0.006l0,-0.001c-0.03,-0.006 -0.06,-0.012 -0.08,-0.018c-0.02,-0.003 -0.03,-0.006 -0.05,-0.009c-0.01,-0.003 -0.02,-0.006 -0.04,-0.009c-0.01,-0.004 -0.03,-0.007 -0.05,-0.011c-0.01,-0.002 -0.02,-0.005 -0.03,-0.007c-0.02,-0.004 -0.03,-0.008 -0.05,-0.012c-0.01,-0.003 -0.02,-0.005 -0.03,-0.007c-0.02,-0.004 -0.04,-0.009 -0.06,-0.014c-0.01,-0.001 -0.01,-0.003 -0.02,-0.004c-0.02,-0.005 -0.04,-0.01 -0.06,-0.015c-0.01,-0.002 -0.01,-0.003 -0.02,-0.005c-0.02,-0.005 -0.04,-0.01 -0.06,-0.015c-0.01,-0.001 -0.01,-0.003 -0.02,-0.005c-0.02,-0.005 -0.04,-0.01 -0.06,-0.015c-0.01,-0.002 -0.01,-0.003 -0.02,-0.005c-0.02,-0.005 -0.04,-0.011 -0.06,-0.016c-0.01,-0.001 -0.01,-0.003 -0.02,-0.004c-0.02,-0.006 -0.04,-0.011 -0.06,-0.017c-0.01,-0.001 -0.01,-0.003 -0.02,-0.004c-0.02,-0.006 -0.04,-0.012 -0.06,-0.018c-0.01,-0.001 -0.01,-0.002 -0.01,-0.003c-0.03,-0.006 -0.05,-0.012 -0.07,-0.019l-0.01,-0.002c-0.03,-0.007 -0.05,-0.014 -0.07,-0.02l0,-0.001c-1.3,-0.366 -2.49,-0.887 -3.59,-1.529c0,-0.001 0,-0.001 0,-0.002c-0.02,-0.011 -0.04,-0.022 -0.06,-0.034c0,-0.002 0,-0.004 -0.01,-0.006c-0.02,-0.011 -0.03,-0.021 -0.05,-0.032c-0.01,-0.003 -0.01,-0.005 -0.01,-0.008c-0.02,-0.01 -0.04,-0.02 -0.05,-0.03c-0.01,-0.004 -0.02,-0.007 -0.02,-0.011c-0.02,-0.009 -0.03,-0.019 -0.05,-0.028c0,-0.004 -0.01,-0.009 -0.02,-0.013c-0.01,-0.009 -0.03,-0.018 -0.04,-0.027c-0.01,-0.005 -0.02,-0.01 -0.03,-0.015c-0.01,-0.008 -0.02,-0.016 -0.04,-0.025c-0.01,-0.005 -0.02,-0.011 -0.02,-0.017c-0.02,-0.008 -0.03,-0.015 -0.04,-0.023c-0.01,-0.007 -0.02,-0.013 -0.03,-0.02c-0.01,-0.007 -0.02,-0.014 -0.04,-0.021c-0.01,-0.007 -0.02,-0.015 -0.03,-0.022c-0.01,-0.006 -0.02,-0.013 -0.03,-0.019c-0.01,-0.009 -0.03,-0.017 -0.04,-0.025c-0.01,-0.006 -0.02,-0.012 -0.02,-0.017c-0.02,-0.01 -0.03,-0.019 -0.05,-0.028c0,-0.005 -0.01,-0.01 -0.02,-0.015c-0.02,-0.011 -0.03,-0.022 -0.05,-0.033c0,-0.003 -0.01,-0.006 -0.01,-0.009c-1.86,-1.236 -3.43,-2.829 -4.74,-4.597c0,-0.005 -0.01,-0.01 -0.01,-0.014c-0.01,-0.015 -0.02,-0.029 -0.03,-0.044c-0.01,-0.008 -0.01,-0.017 -0.02,-0.026c-0.01,-0.01 -0.02,-0.021 -0.02,-0.031c-0.01,-0.012 -0.02,-0.025 -0.03,-0.037c-0.01,-0.007 -0.01,-0.012 -0.01,-0.019c-0.02,-0.017 -0.03,-0.033 -0.04,-0.05c0,-0.001 0,-0.002 0,-0.003c-1.3,-1.794 -2.35,-3.759 -3.2,-5.711c0.05,-0.028 0.09,-0.056 0.13,-0.085c0.01,-0.005 0.02,-0.011 0.03,-0.016c0.02,-0.014 0.04,-0.029 0.06,-0.043c0.03,-0.017 0.06,-0.033 0.08,-0.05c0.03,-0.018 0.06,-0.038 0.09,-0.056c2.14,-1.383 4.59,-2.737 7.28,-3.888c1.36,4.916 2.43,7.877 2.43,7.877c0.02,-3.094 0.1,-6.066 0.24,-8.916c1.08,-0.378 2.19,-0.719 3.34,-1.014c1.91,2.999 4.22,5.369 6.88,5.89c1.7,0.331 3.42,0.463 5.09,0.463c6.64,0 12.46,-2.092 12.46,-2.092c0,0 0,-0.02 0,-0.059c0.01,-0.002 0.01,-0.003 0.01,-0.003c0,0 0.03,-0.755 0.05,-2.013c1.57,0.703 3.15,1.528 4.75,2.49c0.06,0.033 0.12,0.067 0.17,0.101c-1.98,4.26 -4.37,7.379 -6.93,9.642l0,0.002c-0.01,0.01 -0.02,0.021 -0.03,0.032c-0.01,0.006 -0.02,0.013 -0.03,0.019c0,0.007 -0.01,0.013 -0.02,0.02c-0.01,0.012 -0.03,0.026 -0.04,0.038c0,0.001 0,0.002 0,0.003c-5.07,4.419 -10.76,5.516 -15.15,5.516Z" style="fill:#bd7b9d;fill-rule:nonzero;"/><path d="M128.89,153.778c-1.67,0 -3.39,-0.132 -5.09,-0.463c-2.66,-0.521 -4.97,-2.891 -6.88,-5.89c1.5,-0.388 3.06,-0.695 4.67,-0.9c1.52,1.909 3.86,3.133 6.49,3.133c2.34,0 4.45,-0.97 5.96,-2.532c2.16,0.491 4.38,1.2 6.63,2.163c0.03,0.882 0.05,1.745 0.06,2.572c0.38,-0.158 0.58,-0.221 0.62,-0.234c0,0.039 0,0.059 0,0.059c0,0 -5.82,2.092 -12.46,2.092Z" style="fill:#c592c2;fill-rule:nonzero;"/><path d="M140.73,151.861c-0.01,-0.827 -0.03,-1.69 -0.06,-2.572c0.25,0.104 0.49,0.212 0.74,0.322c-0.02,1.258 -0.05,2.013 -0.05,2.013c0,0 0,0.001 -0.01,0.003c-0.04,0.013 -0.24,0.076 -0.62,0.234Z" style="fill:#b9789b;fill-rule:nonzero;"/><path d="M128.08,149.658c-2.63,0 -4.97,-1.224 -6.49,-3.133c1.39,-0.176 2.81,-0.277 4.26,-0.289c0.55,0.359 1.17,0.588 1.84,0.643c0.11,0.009 0.22,0.014 0.32,0.014c0.65,0 1.28,-0.165 1.85,-0.461c1.37,0.145 2.76,0.373 4.18,0.694c-1.51,1.562 -3.62,2.532 -5.96,2.532Z" style="fill:#7a3958;fill-rule:nonzero;"/><path d="M128.01,146.893c-0.1,0 -0.21,-0.005 -0.32,-0.014c-0.67,-0.055 -1.29,-0.284 -1.84,-0.643c0.09,0 0.18,-0.001 0.26,-0.001l0.05,0c1.21,0.001 2.45,0.064 3.7,0.197c-0.57,0.296 -1.2,0.461 -1.85,0.461Z" style="fill:#944160;fill-rule:nonzero;"/><path d="M113.34,157.355c0,0 -1.07,-2.961 -2.43,-7.877c0.87,-0.369 1.76,-0.717 2.67,-1.039c-0.14,2.85 -0.22,5.822 -0.24,8.916Z" style="fill:#c18ebd;fill-rule:nonzero;"/><path d="M124.13,167.475c-4.13,0 -7.12,-0.966 -7.39,-1.056c0.27,0.09 3.26,1.055 7.39,1.055c4.39,0 10.08,-1.097 15.15,-5.516c-5.07,4.42 -10.76,5.517 -15.15,5.517Zm-7.39,-1.056c-0.01,-0.003 -0.01,-0.005 -0.02,-0.006c0.01,0.001 0.01,0.003 0.02,0.006Zm-0.02,-0.007c-0.03,-0.006 -0.06,-0.012 -0.08,-0.018c0.02,0.006 0.05,0.012 0.08,0.018Zm-0.13,-0.027c-0.01,-0.003 -0.02,-0.006 -0.04,-0.009c0.02,0.003 0.03,0.006 0.04,0.009Zm-0.09,-0.02c-0.01,-0.002 -0.02,-0.005 -0.03,-0.007c0.01,0.002 0.02,0.005 0.03,0.007Zm-0.08,-0.019c-0.01,-0.003 -0.02,-0.005 -0.03,-0.007c0.01,0.002 0.02,0.004 0.03,0.007Zm-0.09,-0.021c-0.01,-0.001 -0.01,-0.003 -0.02,-0.004c0.01,0.001 0.01,0.003 0.02,0.004Zm-0.08,-0.019c-0.01,-0.002 -0.01,-0.003 -0.02,-0.005c0.01,0.002 0.01,0.003 0.02,0.005Zm-0.08,-0.02c-0.01,-0.001 -0.01,-0.003 -0.02,-0.005c0.01,0.002 0.01,0.004 0.02,0.005Zm-0.08,-0.02c-0.01,-0.002 -0.01,-0.003 -0.02,-0.005c0.01,0.002 0.01,0.003 0.02,0.005Zm-0.08,-0.021c-0.01,-0.001 -0.01,-0.003 -0.02,-0.004c0.01,0.001 0.01,0.003 0.02,0.004Zm-0.08,-0.021c-0.01,-0.001 -0.01,-0.003 -0.02,-0.004c0.01,0.001 0.01,0.003 0.02,0.004Zm-0.08,-0.022c-0.01,-0.001 -0.01,-0.002 -0.01,-0.003c0,0.001 0,0.002 0.01,0.003Zm-0.08,-0.022c-0.01,-0.001 -0.01,-0.001 -0.01,-0.002l0.01,0.002Zm-0.08,-0.022l0,-0.001l0,0.001Zm-3.59,-1.53c0,-0.001 0,-0.001 0,-0.002c0,0.001 0,0.001 0,0.002Zm-0.06,-0.036c0,-0.002 0,-0.004 -0.01,-0.006c0.01,0.002 0.01,0.004 0.01,0.006Zm-0.06,-0.038c0,-0.003 -0.01,-0.005 -0.01,-0.008c0,0.003 0,0.005 0.01,0.008Zm-0.06,-0.038c-0.01,-0.004 -0.02,-0.007 -0.02,-0.011c0,0.004 0.01,0.007 0.02,0.011Zm-0.07,-0.039c0,-0.004 -0.01,-0.009 -0.02,-0.013c0.01,0.004 0.02,0.009 0.02,0.013Zm-0.06,-0.04c-0.01,-0.005 -0.02,-0.01 -0.03,-0.015c0.01,0.005 0.02,0.01 0.03,0.015Zm-0.07,-0.04c-0.01,-0.005 -0.02,-0.011 -0.02,-0.017c0,0.006 0.01,0.012 0.02,0.017Zm-0.06,-0.04c-0.01,-0.007 -0.02,-0.013 -0.03,-0.02c0.01,0.007 0.02,0.013 0.03,0.02Zm-0.07,-0.041c-0.01,-0.007 -0.02,-0.015 -0.03,-0.022c0.01,0.007 0.02,0.015 0.03,0.022Zm-0.06,-0.041c-0.01,-0.009 -0.03,-0.017 -0.04,-0.025c0.01,0.008 0.03,0.016 0.04,0.025Zm-0.06,-0.042c-0.02,-0.01 -0.03,-0.019 -0.05,-0.028c0.02,0.009 0.03,0.018 0.05,0.028Zm-0.07,-0.043c-0.02,-0.011 -0.03,-0.021 -0.05,-0.033c0.02,0.011 0.03,0.022 0.05,0.033Zm-0.06,-0.042c-1.86,-1.236 -3.43,-2.828 -4.74,-4.597c1.31,1.768 2.88,3.361 4.74,4.597Zm27.94,-2.193c0.01,-0.012 0.03,-0.026 0.04,-0.038c-0.01,0.012 -0.03,0.026 -0.04,0.038Zm0.06,-0.058c0.01,-0.006 0.02,-0.013 0.03,-0.019c-0.01,0.006 -0.02,0.013 -0.03,0.019Zm0.06,-0.051l0,-0.002c0,0.001 0,0.001 0,0.002Zm-32.81,-2.309c-0.01,-0.015 -0.02,-0.029 -0.03,-0.044c0.01,0.015 0.02,0.029 0.03,0.044Zm-0.05,-0.07c-0.01,-0.01 -0.02,-0.02 -0.02,-0.031c0,0.01 0.01,0.021 0.02,0.031Zm-0.05,-0.068c-0.01,-0.006 -0.01,-0.013 -0.01,-0.019c0,0.007 0,0.012 0.01,0.019Zm-0.05,-0.069c0,-0.001 0,-0.002 0,-0.003c0,0.001 0,0.002 0,0.003Z" style="fill:#bf3a87;fill-rule:nonzero;"/><path d="M103.24,153.616c0.05,-0.028 0.09,-0.056 0.13,-0.085c-0.04,0.029 -0.08,0.057 -0.13,0.085Zm0.16,-0.101c0.02,-0.014 0.04,-0.029 0.06,-0.043c-0.02,0.014 -0.04,0.029 -0.06,0.043Zm0.14,-0.093c0.03,-0.018 0.06,-0.038 0.09,-0.056c-0.03,0.018 -0.06,0.038 -0.09,0.056Zm42.62,-1.321c-1.6,-0.962 -3.18,-1.787 -4.75,-2.49c1.57,0.703 3.15,1.528 4.75,2.49Z" style="fill:url(#_Linear26);"/><path d="M140.67,149.289c-2.25,-0.963 -4.47,-1.672 -6.63,-2.163c2.16,0.491 4.38,1.2 6.63,2.163Z" style="fill:url(#_Linear27);"/><path d="M141.41,149.611c-0.25,-0.11 -0.49,-0.218 -0.74,-0.322c0.25,0.104 0.49,0.212 0.74,0.322Z" style="fill:url(#_Linear28);"/><path d="M134.04,147.126c-1.42,-0.321 -2.81,-0.549 -4.18,-0.694c1.37,0.145 2.76,0.373 4.18,0.694Z" style="fill:url(#_Linear29);"/><path d="M129.86,146.432c-1.25,-0.133 -2.49,-0.196 -3.7,-0.197c1.21,0.001 2.45,0.064 3.7,0.197Zm-3.75,-0.197c0.01,0 0.02,0 0.02,0c0,0 -0.01,0 -0.02,0Z" style="fill:url(#_Linear30);"/></g><defs><linearGradient id="_Linear1" x1="0" y1="0" x2="1" y2="0" gradientUnits="userSpaceOnUse" gradientTransform="matrix(2.62949,-46.2798,46.2798,2.62949,188.51,169.593)"><stop offset="0" style="stop-color:#eddaca;stop-opacity:1"/><stop offset="1" style="stop-color:#cc86a1;stop-opacity:1"/></linearGradient><linearGradient id="_Linear2" x1="0" y1="0" x2="1" y2="0" gradientUnits="userSpaceOnUse" gradientTransform="matrix(2.62949,-46.2798,46.2798,2.62949,188.51,169.593)"><stop offset="0" style="stop-color:#f8e7d5;stop-opacity:1"/><stop offset="1" style="stop-color:#d391a9;stop-opacity:1"/></linearGradient><linearGradient id="_Linear3" x1="0" y1="0" x2="1" y2="0" gradientUnits="userSpaceOnUse" gradientTransform="matrix(2.62949,-46.2798,46.2798,2.62949,188.51,169.593)"><stop offset="0" style="stop-color:#fff;stop-opacity:1"/><stop offset="1" style="stop-color:#d7a2c9;stop-opacity:1"/></linearGradient><linearGradient id="_Linear4" x1="0" y1="0" x2="1" y2="0" gradientUnits="userSpaceOnUse" gradientTransform="matrix(2.62949,-46.2798,46.2798,2.62949,188.51,169.593)"><stop offset="0" style="stop-color:#e9d8c9;stop-opacity:1"/><stop offset="1" style="stop-color:#ca86a0;stop-opacity:1"/></linearGradient><linearGradient id="_Linear5" x1="0" y1="0" x2="1" y2="0" gradientUnits="userSpaceOnUse" gradientTransform="matrix(2.62949,-46.2798,46.2798,2.62949,188.51,169.593)"><stop offset="0" style="stop-color:#987e73;stop-opacity:1"/><stop offset="1" style="stop-color:#85435b;stop-opacity:1"/></linearGradient><linearGradient id="_Linear6" x1="0" y1="0" x2="1" y2="0" gradientUnits="userSpaceOnUse" gradientTransform="matrix(2.62949,-46.2798,46.2798,2.62949,188.51,169.593)"><stop offset="0" style="stop-color:#b88f7c;stop-opacity:1"/><stop offset="1" style="stop-color:#a14c63;stop-opacity:1"/></linearGradient><linearGradient id="_Linear7" x1="0" y1="0" x2="1" y2="0" gradientUnits="userSpaceOnUse" gradientTransform="matrix(2.62949,-46.2798,46.2798,2.62949,188.51,169.593)"><stop offset="0" style="stop-color:#807872;stop-opacity:1"/><stop offset="1" style="stop-color:#70435b;stop-opacity:1"/></linearGradient><linearGradient id="_Linear8" x1="0" y1="0" x2="1" y2="0" gradientUnits="userSpaceOnUse" gradientTransform="matrix(2.62949,-46.2798,46.2798,2.62949,188.51,169.593)"><stop offset="0" style="stop-color:#fff;stop-opacity:1"/><stop offset="1" style="stop-color:#d7a2c9;stop-opacity:1"/></linearGradient><linearGradient id="_Linear9" x1="0" y1="0" x2="1" y2="0" gradientUnits="userSpaceOnUse" gradientTransform="matrix(2.62949,-46.2798,46.2798,2.62949,188.51,169.593)"><stop offset="0" style="stop-color:#fff;stop-opacity:1"/><stop offset="1" style="stop-color:#d7a2c9;stop-opacity:1"/></linearGradient><linearGradient id="_Linear10" x1="0" y1="0" x2="1" y2="0" gradientUnits="userSpaceOnUse" gradientTransform="matrix(2.62949,-46.2798,46.2798,2.62949,188.51,169.593)"><stop offset="0" style="stop-color:#716e6e;stop-opacity:1"/><stop offset="1" style="stop-color:#633d58;stop-opacity:1"/></linearGradient><linearGradient id="_Linear11" x1="0" y1="0" x2="1" y2="0" gradientUnits="userSpaceOnUse" gradientTransform="matrix(2.62949,-46.2798,46.2798,2.62949,188.51,169.593)"><stop offset="0" style="stop-color:#c48bb3;stop-opacity:1"/><stop offset="1" style="stop-color:#b968a0;stop-opacity:1"/></linearGradient><linearGradient id="_Linear12" x1="0" y1="0" x2="1" y2="0" gradientUnits="userSpaceOnUse" gradientTransform="matrix(2.62949,-46.2798,46.2798,2.62949,188.51,169.593)"><stop offset="0" style="stop-color:#c186af;stop-opacity:1"/><stop offset="1" style="stop-color:#b5639c;stop-opacity:1"/></linearGradient><linearGradient id="_Linear13" x1="0" y1="0" x2="1" y2="0" gradientUnits="userSpaceOnUse" gradientTransform="matrix(2.62949,-46.2798,46.2798,2.62949,188.51,169.593)"><stop offset="0" style="stop-color:#c48bb3;stop-opacity:1"/><stop offset="1" style="stop-color:#b968a0;stop-opacity:1"/></linearGradient><linearGradient id="_Linear14" x1="0" y1="0" x2="1" y2="0" gradientUnits="userSpaceOnUse" gradientTransform="matrix(2.62949,-46.2798,46.2798,2.62949,188.51,169.593)"><stop offset="0" style="stop-color:#c592c2;stop-opacity:1"/><stop offset="1" style="stop-color:#ba6fae;stop-opacity:1"/></linearGradient><linearGradient id="_Linear15" x1="0" y1="0" x2="1" y2="0" gradientUnits="userSpaceOnUse" gradientTransform="matrix(2.6295,-46.2798,46.2798,2.6295,123.35,165.89)"><stop offset="0" style="stop-color:#efddcb;stop-opacity:1"/><stop offset="1" style="stop-color:#ce89a2;stop-opacity:1"/></linearGradient><linearGradient id="_Linear16" x1="0" y1="0" x2="1" y2="0" gradientUnits="userSpaceOnUse" gradientTransform="matrix(2.6295,-46.2798,46.2798,2.6295,123.35,165.89)"><stop offset="0" style="stop-color:#fff;stop-opacity:1"/><stop offset="1" style="stop-color:#d7a2c9;stop-opacity:1"/></linearGradient><linearGradient id="_Linear17" x1="0" y1="0" x2="1" y2="0" gradientUnits="userSpaceOnUse" gradientTransform="matrix(2.6295,-46.2798,46.2798,2.6295,123.35,165.89)"><stop offset="0" style="stop-color:#e9d8c9;stop-opacity:1"/><stop offset="1" style="stop-color:#ca86a0;stop-opacity:1"/></linearGradient><linearGradient id="_Linear18" x1="0" y1="0" x2="1" y2="0" gradientUnits="userSpaceOnUse" gradientTransform="matrix(2.6295,-46.2798,46.2798,2.6295,123.35,165.89)"><stop offset="0" style="stop-color:#987e73;stop-opacity:1"/><stop offset="1" style="stop-color:#85435b;stop-opacity:1"/></linearGradient><linearGradient id="_Linear19" x1="0" y1="0" x2="1" y2="0" gradientUnits="userSpaceOnUse" gradientTransform="matrix(2.6295,-46.2798,46.2798,2.6295,123.35,165.89)"><stop offset="0" style="stop-color:#b88f7c;stop-opacity:1"/><stop offset="1" style="stop-color:#a14c63;stop-opacity:1"/></linearGradient><linearGradient id="_Linear20" x1="0" y1="0" x2="1" y2="0" gradientUnits="userSpaceOnUse" gradientTransform="matrix(2.6295,-46.2798,46.2798,2.6295,123.35,165.89)"><stop offset="0" style="stop-color:#807872;stop-opacity:1"/><stop offset="1" style="stop-color:#70435b;stop-opacity:1"/></linearGradient><linearGradient id="_Linear21" x1="0" y1="0" x2="1" y2="0" gradientUnits="userSpaceOnUse" gradientTransform="matrix(2.6295,-46.2798,46.2798,2.6295,123.35,165.89)"><stop offset="0" style="stop-color:#fff;stop-opacity:1"/><stop offset="1" style="stop-color:#d7a2c9;stop-opacity:1"/></linearGradient><linearGradient id="_Linear22" x1="0" y1="0" x2="1" y2="0" gradientUnits="userSpaceOnUse" gradientTransform="matrix(2.6295,-46.2798,46.2798,2.6295,123.35,165.89)"><stop offset="0" style="stop-color:#fff;stop-opacity:1"/><stop offset="1" style="stop-color:#d7a2c9;stop-opacity:1"/></linearGradient><linearGradient id="_Linear23" x1="0" y1="0" x2="1" y2="0" gradientUnits="userSpaceOnUse" gradientTransform="matrix(2.6295,-46.2798,46.2798,2.6295,123.35,165.89)"><stop offset="0" style="stop-color:#716e6e;stop-opacity:1"/><stop offset="1" style="stop-color:#633d58;stop-opacity:1"/></linearGradient><linearGradient id="_Linear24" x1="0" y1="0" x2="1" y2="0" gradientUnits="userSpaceOnUse" gradientTransform="matrix(2.6295,-46.2798,46.2798,2.6295,123.35,165.89)"><stop offset="0" style="stop-color:#f8f8f8;stop-opacity:1"/><stop offset="1" style="stop-color:#d39dc4;stop-opacity:1"/></linearGradient><linearGradient id="_Linear25" x1="0" y1="0" x2="1" y2="0" gradientUnits="userSpaceOnUse" gradientTransform="matrix(2.6295,-46.2798,46.2798,2.6295,123.35,165.89)"><stop offset="0" style="stop-color:#eda3b4;stop-opacity:1"/><stop offset="1" style="stop-color:#ce4a8c;stop-opacity:1"/></linearGradient><linearGradient id="_Linear26" x1="0" y1="0" x2="1" y2="0" gradientUnits="userSpaceOnUse" gradientTransform="matrix(2.6295,-46.2798,46.2798,2.6295,123.35,165.89)"><stop offset="0" style="stop-color:#c187af;stop-opacity:1"/><stop offset="1" style="stop-color:#b6659d;stop-opacity:1"/></linearGradient><linearGradient id="_Linear27" x1="0" y1="0" x2="1" y2="0" gradientUnits="userSpaceOnUse" gradientTransform="matrix(2.6295,-46.2798,46.2798,2.6295,123.35,165.89)"><stop offset="0" style="stop-color:#c592c2;stop-opacity:1"/><stop offset="1" style="stop-color:#ba6fae;stop-opacity:1"/></linearGradient><linearGradient id="_Linear28" x1="0" y1="0" x2="1" y2="0" gradientUnits="userSpaceOnUse" gradientTransform="matrix(2.6295,-46.2798,46.2798,2.6295,123.35,165.89)"><stop offset="0" style="stop-color:#c086ae;stop-opacity:1"/><stop offset="1" style="stop-color:#b4639c;stop-opacity:1"/></linearGradient><linearGradient id="_Linear29" x1="0" y1="0" x2="1" y2="0" gradientUnits="userSpaceOnUse" gradientTransform="matrix(2.6295,-46.2798,46.2798,2.6295,123.35,165.89)"><stop offset="0" style="stop-color:#a06689;stop-opacity:1"/><stop offset="1" style="stop-color:#97447a;stop-opacity:1"/></linearGradient><linearGradient id="_Linear30" x1="0" y1="0" x2="1" y2="0" gradientUnits="userSpaceOnUse" gradientTransform="matrix(2.6295,-46.2798,46.2798,2.6295,123.35,165.89)"><stop offset="0" style="stop-color:#ad6b8e;stop-opacity:1"/><stop offset="1" style="stop-color:#a3477f;stop-opacity:1"/></linearGradient></defs></svg>