<?xml version="1.0" encoding="UTF-8" standalone="no"?><!DOCTYPE svg PUBLIC "-//W3C//DTD SVG 1.1//EN" "http://www.w3.org/Graphics/SVG/1.1/DTD/svg11.dtd"><svg width="100%" height="100%" viewBox="0 0 298 300" version="1.1" xmlns="http://www.w3.org/2000/svg" xmlns:xlink="http://www.w3.org/1999/xlink" xml:space="preserve" style="fill-rule:evenodd;clip-rule:evenodd;stroke-linejoin:round;stroke-miterlimit:1.41421;"><g id="_5"><g><rect x="0.31" y="0.1" width="296.86" height="299.7" style="fill:#41845e;fill-rule:nonzero;"/><path d="M149.05,187.17l0,112.63l-60.74,0c-0.99,-0.4 -1.48,-0.6 -1.48,-0.6c0,-10.99 1.23,-20.12 3.25,-27.74c0.62,-2.34 1.3,-4.52 2.06,-6.58c4.46,-12.16 11.05,-19.52 17.07,-23.99c4.45,-3.27 8.56,-4.96 11.32,-5.82c2.14,-0.68 3.46,-0.82 3.46,-0.82c0.24,0 0.45,-0.03 0.68,-0.07c0.24,-0.04 0.47,-0.1 0.7,-0.18c1.6,-0.56 2.92,-2.12 4.01,-4.45c0.92,-1.97 1.68,-4.5 2.32,-7.4c0.25,-1.15 0.45,-2.29 0.64,-3.52c0.31,-2.1 0.6,-4.28 0.84,-6.56c0.11,-1.38 0.25,-2.72 0.42,-4.16c0.53,-6.89 0.67,-14.44 0.67,-21.58c0,0 8.15,0.84 14.78,0.84Z" style="fill:#e0bd9a;fill-rule:nonzero;"/><path d="M211.51,299.2c0,0 -0.53,0.2 -1.44,0.6l-61.02,0l0,-112.63l0.14,0c6.58,0 14.83,-0.84 14.83,-0.84c0,7.1 0.15,14.54 0.68,21.44c0.17,1.33 0.31,2.71 0.41,4.05c0.25,2.39 0.54,4.63 0.89,6.71l0,0.04c0.1,0.94 0.29,1.79 0.45,2.67c0.6,2.94 1.32,5.52 2.2,7.57c1.09,2.58 2.41,4.37 4.04,5.09c0.49,0.22 1.05,0.35 1.62,0.35c0,0 0.1,0 0.27,0.04c0.72,0.1 2.76,0.49 5.55,1.6c3.25,1.3 7.49,3.5 11.81,7.28l0,0.03c5.21,4.54 10.5,11.41 14.26,21.68c0.76,2.06 1.44,4.24 2.06,6.58c2.02,7.62 3.25,16.75 3.25,27.74Z" style="fill:#efd0ad;fill-rule:nonzero;"/><path d="M166,218.31l0,0.05c-1.53,2.37 -6.67,9.16 -16.85,9.16l-0.1,0c-9.64,-0.05 -15.27,-7.04 -16.7,-9.11c0.3,-2.07 0.59,-4.24 0.84,-6.5c0.1,-1.33 0.25,-2.71 0.39,-4.14c4.7,1.18 9.84,1.92 15.27,2.02l0.2,0c5.63,-0.1 10.82,-0.89 15.66,-2.17c0.15,1.33 0.3,2.71 0.4,4.04c0.25,2.37 0.54,4.58 0.89,6.65Z" style="fill:#be987f;fill-rule:nonzero;"/><path d="M148.36,58.84c-64.34,0 -64.68,53.94 -61.82,89.27c-4.4,-8.38 -17.49,-5.82 -16.4,7.39c1.03,12.71 19.74,19.19 19.22,17.78c9.74,26.13 35.53,45.82 59,45.82l0.49,0l0,-160.26l-0.49,0Z" style="fill:#d2a686;fill-rule:nonzero;"/><path d="M74.24,149.93c3.16,-5.12 8.1,-2.91 9.29,-1.77c1.28,1.23 2.32,2.8 1.53,5.81c-0.44,1.72 -2.22,1.87 -1.83,4.43c0.5,2.91 1.83,3.06 2.62,3.75c0.74,0.64 1.68,1.13 2.13,2.36c0.49,1.23 0.54,2.51 0.29,3.65c-0.49,2.07 -3.51,0.39 -5.53,-0.49c-1.34,-0.65 -5.59,-4.24 -6.67,-5.42c-2.67,-3.06 -3.96,-8.97 -1.83,-12.32Z" style="fill:#ac8774;fill-rule:nonzero;"/><path d="M148.7,58.84c64.34,0 64.69,53.94 61.87,89.27c4.4,-8.38 17.44,-5.82 16.36,7.39c-0.99,12.71 -19.74,19.19 -19.23,17.78c-9.49,26.13 -35.52,45.82 -59,45.82c-0.14,0 -0.34,0 -0.34,0l-0.15,-160.26c0,0 0.35,0 0.49,0Z" style="fill:#ddb598;fill-rule:nonzero;"/><path d="M222.82,149.93c-3.16,-5.12 -8.05,-2.91 -9.29,-1.77c-1.28,1.23 -2.27,2.8 -1.53,5.81c0.45,1.72 2.23,1.87 1.83,4.43c-0.49,2.91 -1.83,3.06 -2.57,3.75c-0.74,0.64 -1.73,1.13 -2.17,2.36c-0.45,1.23 -0.55,2.51 -0.3,3.65c0.49,2.07 3.51,0.39 5.54,-0.49c1.38,-0.65 5.58,-4.24 6.67,-5.42c2.71,-3.06 3.95,-8.97 1.82,-12.32Z" style="fill:#ac8774;fill-rule:nonzero;"/><path d="M147.85,74.06c-21.15,0 -36.66,6.16 -46,18.28c-13.1,16.99 -12.6,42.91 -7.81,61.53c1.48,5.72 2.27,21.04 3.26,26.65c4.6,25.18 32.32,38.58 50.55,38.58c0,0 0.35,0 0.5,0l0,-145.04c-0.15,0 -0.3,0 -0.3,0" style="fill:#e0bd9a;fill-rule:nonzero;"/><path d="M193.81,92.39c-9.29,-12.07 -24.61,-18.23 -45.46,-18.33l0,145.04c20.85,-0.25 45.8,-14.93 50.05,-38.58c1.04,-5.61 1.78,-20.93 3.26,-26.65c4.85,-18.57 5.34,-44.44 -7.85,-61.48Z" style="fill:#efd0ad;fill-rule:nonzero;"/><path d="M148.54,190.65" style="fill:#bc917b;fill-rule:nonzero;"/><path d="M148.54,190.65" style="fill:#bc917b;fill-rule:nonzero;"/><path d="M144.97,193.39c-0.1,-0.02 -0.2,-0.04 -0.3,-0.07c0.1,0.03 0.19,0.04 0.3,0.07Z" style="fill:#bc917b;fill-rule:nonzero;"/><path d="M148.54,193.2" style="fill:#bc917b;fill-rule:nonzero;"/><path d="M144.19,193.21c-0.1,-0.02 -0.18,-0.05 -0.27,-0.07l-0.01,0c0,0 0.1,0.03 0.28,0.07Z" style="fill:#bc917b;fill-rule:nonzero;"/><path d="M148.54,193.2" style="fill:#bc917b;fill-rule:nonzero;"/><path d="M136.34,174.57c-0.24,-5.01 9.18,-1.83 12.29,-1.67c2.45,0.12 9.92,-1.58 10.56,-1.14c4.4,2.97 -4.65,8.95 -10.72,8.95c-1.61,0 -11.98,-3.11 -12.13,-6.14Z" style="fill:#ddb598;fill-rule:nonzero;"/><path d="M130.38,74.42l-0.26,0.27l0.04,0.09c0.09,-0.14 0.14,-0.27 0.22,-0.36Z" style="fill:#432e1b;fill-rule:nonzero;"/><path d="M89.42,125.53" style="fill:#432e1b;fill-rule:nonzero;"/><path d="M148.81,193.21" style="fill:#ba907b;fill-rule:nonzero;"/><path d="M148.81,193.21" style="fill:#ba907b;fill-rule:nonzero;"/><path d="M145.15,190.45c-0.11,-0.03 -0.21,-0.05 -0.31,-0.07c0.1,0.02 0.19,0.04 0.31,0.07Z" style="fill:#ba907b;fill-rule:nonzero;"/><path d="M148.81,190.25" style="fill:#ba907b;fill-rule:nonzero;"/><path d="M144.34,190.27c-0.09,-0.03 -0.18,-0.06 -0.28,-0.08l-0.01,0c0,0 0.11,0.03 0.29,0.08Z" style="fill:#ba907b;fill-rule:nonzero;"/><path d="M148.81,190.25" style="fill:#ba907b;fill-rule:nonzero;"/><path d="M102.19,130.67c0,0 4.91,20.2 13.34,21.85c8.42,1.64 17.54,-1.63 17.54,-1.63c0,0 0.88,-23.74 -3.44,-26.84c-4.31,-3.12 -14.25,-7.62 -27.44,6.62Z" style="fill:#fff;fill-rule:nonzero;"/><path d="M133.09,150.82c0,0 -0.2,0.06 -0.63,0.24c-0.11,-7.28 -0.78,-17.28 -3.47,-19.2c-4.01,-2.94 -13.06,-7.08 -25.14,4.25c-1.1,-3.13 -1.65,-5.5 -1.65,-5.5c13.21,-14.27 23.16,-9.77 27.44,-6.66c4.32,3.12 3.45,26.87 3.45,26.87Z" style="fill:#d6b496;fill-rule:nonzero;"/><path d="M128.1,140.54c0,4.59 -3.72,8.32 -8.3,8.32c-4.58,0 -8.29,-3.73 -8.29,-8.32c0,-4.6 3.71,-8.32 8.29,-8.32c4.58,0 8.3,3.72 8.3,8.32Z" style="fill:#482315;fill-rule:nonzero;"/><path d="M119.42,146.08c-2.4,-0.2 -4.24,-2.62 -4.02,-5.29c0.22,-2.66 2.42,-4.75 4.82,-4.55c2.4,0.2 4.23,2.62 4.02,5.29c-0.22,2.66 -2.43,4.75 -4.82,4.55Z" style="fill:#7e3a22;fill-rule:nonzero;"/><path d="M119.62,145.12c-1.66,-0.14 -3.39,-1.98 -3.21,-4.24c0.19,-2.27 2.19,-3.8 3.86,-3.66c1.67,0.14 3.39,1.99 3.21,4.25c-0.19,2.26 -2.19,3.79 -3.86,3.65Z" style="fill:#211a10;fill-rule:nonzero;"/><path d="M118.27,139.54c-0.06,0.82 -0.9,1.42 -1.86,1.34c-0.96,-0.08 -1.68,-0.81 -1.62,-1.63c0.07,-0.82 0.9,-1.41 1.86,-1.33c0.97,0.07 1.69,0.8 1.62,1.62Z" style="fill:#fff;fill-rule:nonzero;"/><path d="M123.65,144.27c-0.03,0.4 -0.45,0.7 -0.93,0.66c-0.48,-0.03 -0.84,-0.4 -0.81,-0.81c0.04,-0.4 0.45,-0.7 0.93,-0.66c0.48,0.03 0.85,0.4 0.81,0.81Z" style="fill:#fff;fill-rule:nonzero;"/><path d="M148.94,190.16" style="fill:#ba907b;fill-rule:nonzero;"/><path d="M148.94,190.16" style="fill:#ba907b;fill-rule:nonzero;"/><path d="M145.28,192.83c-0.11,-0.02 -0.21,-0.04 -0.31,-0.07c0.1,0.02 0.19,0.04 0.31,0.07Z" style="fill:#ba907b;fill-rule:nonzero;"/><path d="M148.94,192.63" style="fill:#ba907b;fill-rule:nonzero;"/><path d="M144.47,192.65c-0.09,-0.03 -0.18,-0.05 -0.27,-0.08l-0.01,0c0,0 0.1,0.03 0.28,0.08Z" style="fill:#ba907b;fill-rule:nonzero;"/><path d="M148.94,192.63" style="fill:#ba907b;fill-rule:nonzero;"/><path d="M148.83,189.79" style="fill:#bc917b;fill-rule:nonzero;"/><path d="M148.83,189.79" style="fill:#bc917b;fill-rule:nonzero;"/><path d="M144.9,192.26c-0.11,-0.03 -0.22,-0.05 -0.33,-0.07c0.11,0.02 0.2,0.04 0.33,0.07Z" style="fill:#bc917b;fill-rule:nonzero;"/><path d="M148.83,192.05" style="fill:#bc917b;fill-rule:nonzero;"/><path d="M144.04,192.06c-0.1,-0.02 -0.2,-0.05 -0.3,-0.08l-0.01,0.01c0,0 0.11,0.03 0.31,0.07Z" style="fill:#bc917b;fill-rule:nonzero;"/><path d="M148.83,192.05" style="fill:#bc917b;fill-rule:nonzero;"/><path d="M148.58,188.95" style="fill:#bc917b;fill-rule:nonzero;"/><path d="M148.58,188.95" style="fill:#bc917b;fill-rule:nonzero;"/><path d="M144.65,191.41c-0.11,-0.02 -0.22,-0.04 -0.33,-0.07c0.11,0.03 0.21,0.05 0.33,0.07Z" style="fill:#bc917b;fill-rule:nonzero;"/><path d="M148.58,191.2" style="fill:#bc917b;fill-rule:nonzero;"/><path d="M143.79,191.22c-0.1,-0.03 -0.2,-0.06 -0.3,-0.08l-0.01,0c0,0 0.12,0.03 0.31,0.08Z" style="fill:#bc917b;fill-rule:nonzero;"/><path d="M148.58,191.2" style="fill:#bc917b;fill-rule:nonzero;"/><path d="M149.22,188.73" style="fill:#bc917b;fill-rule:nonzero;"/><path d="M149.22,188.73" style="fill:#bc917b;fill-rule:nonzero;"/><path d="M145.42,191.3c-0.1,-0.03 -0.21,-0.05 -0.32,-0.07c0.11,0.02 0.2,0.04 0.32,0.07Z" style="fill:#bc917b;fill-rule:nonzero;"/><path d="M149.22,191.09" style="fill:#bc917b;fill-rule:nonzero;"/><path d="M144.59,191.11c-0.1,-0.02 -0.19,-0.05 -0.29,-0.08l-0.01,0c0,0 0.11,0.04 0.3,0.08Z" style="fill:#bc917b;fill-rule:nonzero;"/><path d="M149.22,191.09" style="fill:#bc917b;fill-rule:nonzero;"/><path d="M195,129.98c0,0 -4.9,20.2 -13.33,21.85c-8.43,1.65 -17.55,-1.63 -17.55,-1.63c0,0 -0.87,-23.74 3.45,-26.84c4.31,-3.11 14.25,-7.62 27.43,6.62Z" style="fill:#fff;fill-rule:nonzero;"/><path d="M164.11,150.14c0,0 0.19,0.05 0.63,0.23c0.11,-7.28 0.78,-17.28 3.47,-19.19c4.01,-2.94 13.05,-7.09 25.14,4.24c1.1,-3.13 1.65,-5.5 1.65,-5.5c-13.21,-14.27 -23.16,-9.77 -27.44,-6.65c-4.32,3.11 -3.45,26.87 -3.45,26.87Z" style="fill:#d6b496;fill-rule:nonzero;"/><path d="M169.1,139.85c0,4.6 3.71,8.32 8.29,8.32c4.58,0 8.3,-3.72 8.3,-8.32c0,-4.59 -3.72,-8.32 -8.3,-8.32c-4.58,0 -8.29,3.73 -8.29,8.32Z" style="fill:#482315;fill-rule:nonzero;"/><path d="M177.78,145.39c2.39,-0.2 4.23,-2.62 4.01,-5.29c-0.21,-2.66 -2.42,-4.75 -4.81,-4.54c-2.4,0.19 -4.23,2.61 -4.02,5.28c0.21,2.66 2.43,4.75 4.82,4.55Z" style="fill:#7e3a22;fill-rule:nonzero;"/><path d="M177.57,144.43c1.67,-0.14 3.4,-1.98 3.22,-4.24c-0.19,-2.26 -2.19,-3.79 -3.86,-3.65c-1.67,0.14 -3.39,1.98 -3.21,4.24c0.18,2.26 2.19,3.79 3.85,3.65Z" style="fill:#211a10;fill-rule:nonzero;"/><path d="M178.92,138.86c0.07,0.81 0.91,1.41 1.87,1.33c0.96,-0.08 1.68,-0.81 1.61,-1.62c-0.07,-0.82 -0.9,-1.42 -1.86,-1.34c-0.96,0.08 -1.68,0.81 -1.62,1.63Z" style="fill:#fff;fill-rule:nonzero;"/><path d="M173.55,143.58c0.03,0.41 0.45,0.71 0.93,0.67c0.48,-0.04 0.84,-0.41 0.81,-0.82c-0.04,-0.4 -0.46,-0.7 -0.93,-0.66c-0.48,0.04 -0.85,0.4 -0.81,0.81Z" style="fill:#fff;fill-rule:nonzero;"/><path d="M138.14,130.35c-0.07,-0.1 -1.6,-2.43 -4.72,-4.84c-1.96,-1.51 -3.88,-2.65 -5.87,-3.51c-2.42,-1.02 -5.03,-1.74 -7.55,-2.08c-2.29,-0.26 -4.82,-0.19 -7.77,0.21c-2.26,0.43 -4.46,1.1 -6.32,1.93c-1.33,0.46 -2.38,1.1 -3.23,1.62c-0.32,0.2 -0.61,0.38 -0.91,0.54l-4.03,2.54l4.64,-1.09c0.22,-0.06 0.45,-0.12 0.7,-0.19c0.96,-0.25 2.16,-0.57 3.56,-0.78c0.33,-0.04 0.66,-0.11 1,-0.18c0.58,-0.12 1.19,-0.24 1.82,-0.27c0.7,-0.04 1.43,-0.1 2.18,-0.15l0.97,-0.07c2.57,-0.03 4.74,0.16 6.67,0.61c2.11,0.36 4.27,1.04 6.26,1.97c1.87,0.9 3.67,1.79 5.07,2.82c2.84,1.9 4.41,3.48 4.43,3.5c0.39,0.39 0.91,0.59 1.43,0.59c0.38,0 0.76,-0.1 1.1,-0.32c0.93,-0.62 1.19,-1.88 0.6,-2.79l-0.03,-0.06Z" style="fill:#030405;fill-rule:nonzero;"/><path d="M195.83,124.2c-0.26,-0.14 -0.56,-0.32 -0.88,-0.52c-0.85,-0.52 -1.9,-1.16 -3.19,-1.61c-1.9,-0.84 -4.1,-1.51 -6.38,-1.95c-2.93,-0.39 -5.46,-0.46 -7.76,-0.2c-2.51,0.34 -5.12,1.06 -7.54,2.08c-1.96,0.85 -3.94,2.03 -5.87,3.51c-3.06,2.36 -4.59,4.65 -4.71,4.83l-0.03,0.04c-0.51,0.8 -0.4,1.87 0.27,2.55c0.38,0.38 0.89,0.6 1.43,0.6c0.54,-0.01 1.04,-0.22 1.42,-0.6l0.02,-0.02c0.15,-0.15 1.68,-1.65 4.43,-3.49c1.38,-1.02 3.18,-1.91 5.05,-2.81c1.99,-0.93 4.16,-1.61 6.29,-1.98c1.9,-0.44 4.07,-0.63 6.61,-0.6l1.02,0.07c0.74,0.05 1.47,0.11 2.17,0.15c0.63,0.03 1.23,0.15 1.81,0.27c0.34,0.07 0.68,0.14 1,0.18c1.4,0.21 2.6,0.53 3.56,0.78c0.25,0.07 0.48,0.13 0.71,0.19l4.63,1.09l-4.06,-2.56Z" style="fill:#030405;fill-rule:nonzero;"/><path d="M147.65,198.11" style="fill:#be927b;fill-rule:nonzero;"/><path d="M147.65,198.11" style="fill:#be927b;fill-rule:nonzero;"/><path d="M143.82,195.22c-0.11,-0.02 -0.21,-0.04 -0.32,-0.07c0.1,0.02 0.2,0.04 0.32,0.07Z" style="fill:#be927b;fill-rule:nonzero;"/><path d="M147.65,195.01" style="fill:#be927b;fill-rule:nonzero;"/><path d="M142.98,195.03c-0.1,-0.02 -0.19,-0.05 -0.29,-0.08l-0.01,0c0,0 0.11,0.03 0.3,0.08Z" style="fill:#be927b;fill-rule:nonzero;"/><path d="M147.65,195.01" style="fill:#be927b;fill-rule:nonzero;"/></g><path d="M137.06,200.95c-0.24,-3.2 8.91,0.67 11.92,0.76c2.4,0.08 9.6,-0.47 10.26,-0.72c5.04,-1.89 -0.27,5.34 -10.41,5.73c-4.65,0.18 -11.63,-3.83 -11.77,-5.77Z" style="fill:#f0d2ad;fill-rule:nonzero;"/><path d="M167.23,193.27c-5.81,-1.09 -18.03,0.07 -18.03,0.07c-10.09,1.67 -17.98,-0.11 -18.04,-0.04c-0.24,0.02 8.06,11.02 17.9,10.52c9.84,0.5 18.41,-10.52 18.17,-10.55Z" style="fill:#c2646e;fill-rule:nonzero;"/><path d="M155.03,190.94c-2.62,-0.29 -4.48,1.6 -5.82,1.46c-1.37,0.13 -3.14,-1.08 -5.77,-1.11c-3.7,-0.03 -5.51,-0.36 -12.28,2.01c0.25,0.46 4.58,2.97 12.7,3.11c0.12,0 2.3,1.24 5.39,1.21c1.94,-0.01 4.6,-1.3 4.71,-1.3c8.13,-0.13 13.1,-2.55 13.32,-3c-8.94,-2.77 -8.23,-2.41 -12.25,-2.38Z" style="fill:#d87475;fill-rule:nonzero;"/><path d="M202.79,277.49c-0.02,10.17 0.26,17.82 0.53,22.31l-105.77,0c0.27,-4.49 0.58,-12.14 0.55,-22.31c0,-1.93 0,-3.93 -0.02,-6.03l-8,0c0.62,-2.34 1.3,-4.52 2.06,-6.58c4.46,-12.16 11.05,-19.52 17.07,-23.99l18.79,23.91l0.1,0.1c5.47,6.91 13.13,10.62 20.95,11.01c8.21,0.41 16.56,-2.8 22.69,-9.75l0.06,-0.07l20.14,-22.89c5.21,4.54 10.5,11.41 14.26,21.68c0.76,2.06 1.44,4.24 2.06,6.58l-5.43,0c-0.02,2.1 -0.04,4.1 -0.04,6.03Z" style="fill:#f9ad3a;fill-rule:nonzero;"/><path d="M126.3,231.79c0,0 -4.19,19.32 22.53,19.48l0,3.7c0,0 -16.91,2.44 -37.42,-16.56c0,0 6.06,-5.94 14.89,-6.62Z" style="fill:#a31d2e;fill-rule:nonzero;"/><path d="M171.11,231.52c0,0 4.47,19.59 -22.25,19.75l0,3.7c0,0 17.67,2.51 38.17,-16.48c0,0 -5.81,-5.74 -15.92,-6.97Z" style="fill:#77111e;fill-rule:nonzero;"/><path d="M228.37,95.51c-0.95,-2.59 -1.94,-4.99 -2.95,-7.29c0,-0.33 0,-0.66 0,-1c0,-9.75 -9.27,-22.4 -24.01,-34.7c-14.74,-12.28 -24.01,-9.75 -36.22,-9.4c0,0 -0.03,0.08 -0.09,0.2c-5.36,-1.07 -34.19,-6.38 -51.34,-0.5c-18.95,6.52 -34.46,17.68 -45.42,47.69c-10.95,30 -1.96,54.57 0.16,65.05c6.73,33.2 39.01,54.22 39.01,54.22c0,0 -8.15,-8.86 -11.79,-17.7c-2.83,-6.86 -7.05,-18.65 -7.05,-35.99c0,-1.43 0.13,-2.88 0.36,-4.34c4.61,-70.41 69.56,-37.72 69.56,-37.72l-0.02,0.04c0,0 36.78,9.55 31.37,58.32c0,0 13.52,-16.99 7,-40.19c5.14,7.82 11.1,19.02 11.1,28.9c0,17.34 -4.23,29.12 -7.05,35.98c-3.64,8.84 -11.8,17.71 -11.8,17.71c0,0 32.29,-21.02 39.01,-54.22c2.12,-10.49 11.11,-35.06 0.17,-65.06Z" style="fill:#f27068;fill-rule:nonzero;"/></g></svg>