<?xml version="1.0" encoding="UTF-8" standalone="no"?><!DOCTYPE svg PUBLIC "-//W3C//DTD SVG 1.1//EN" "http://www.w3.org/Graphics/SVG/1.1/DTD/svg11.dtd"><svg width="100%" height="100%" viewBox="0 0 298 300" version="1.1" xmlns="http://www.w3.org/2000/svg" xmlns:xlink="http://www.w3.org/1999/xlink" xml:space="preserve" style="fill-rule:evenodd;clip-rule:evenodd;stroke-linejoin:round;stroke-miterlimit:1.41421;"><g id="_50"><rect x="0.31" y="0.16" width="296.86" height="299.705" style="fill:#ef837c;fill-rule:nonzero;"/><path d="M149.05,187.244l0,112.621l-60.73,0c-0.99,-0.396 -1.48,-0.596 -1.48,-0.596c0,-14.376 2.1,-25.585 5.3,-34.325c7.73,-21.096 21.89,-27.796 28.4,-29.816c2.14,-0.664 3.45,-0.823 3.45,-0.823c0.24,0 0.45,-0.021 0.67,-0.057c1.91,-0.308 3.47,-1.974 4.71,-4.633c0.93,-1.974 1.7,-4.493 2.33,-7.409c0.26,-1.136 0.45,-2.282 0.65,-3.521c0.3,-2.083 0.59,-4.263 0.84,-6.546c0.1,-1.388 0.25,-2.725 0.39,-4.164c0.54,-6.89 0.7,-14.433 0.7,-21.575c0,0 8.15,0.844 14.77,0.844Z" style="fill:#e0bd9a;fill-rule:nonzero;"/><path d="M211.51,299.269c0,0 -0.54,0.2 -1.44,0.596l-61.02,0l0,-112.621l0.15,0c6.57,0 14.83,-0.844 14.83,-0.844c0,7.091 0.14,14.531 0.68,21.425c0.15,1.342 0.3,2.725 0.4,4.067c0.25,2.381 0.55,4.613 0.89,6.695l0,0.046c0.1,0.946 0.29,1.789 0.44,2.679c0.6,2.931 1.33,5.507 2.21,7.573c1.09,2.571 2.42,4.366 4.03,5.075c0.51,0.232 1.05,0.345 1.62,0.345c0,0 2.34,0.283 5.84,1.66c7.15,2.808 19.16,10.176 26.06,28.979c3.2,8.74 5.31,19.949 5.31,34.325Z" style="fill:#efd0ad;fill-rule:nonzero;"/><path d="M166,218.377l0,0.049c-1.53,2.365 -6.67,9.163 -16.85,9.163l-0.1,0c-9.64,-0.049 -15.27,-7.045 -16.7,-9.114c0.3,-2.069 0.59,-4.237 0.84,-6.503c0.1,-1.33 0.25,-2.71 0.39,-4.138c4.7,1.182 9.84,1.921 15.27,2.019l0.2,0c5.63,-0.098 10.82,-0.886 15.66,-2.167c0.15,1.33 0.3,2.709 0.4,4.04c0.25,2.364 0.54,4.581 0.89,6.651Z" style="fill:#be987f;fill-rule:nonzero;"/><path d="M148.36,58.901c-64.34,0 -64.68,53.946 -61.82,89.271c-4.4,-8.376 -17.49,-5.814 -16.4,7.39c1.03,12.71 19.74,19.188 19.22,17.785c9.74,26.124 35.53,45.818 59,45.818l0.49,0l0,-160.264l-0.49,0Z" style="fill:#d2a686;fill-rule:nonzero;"/><path d="M74.24,149.994c3.16,-5.123 8.1,-2.906 9.29,-1.773c1.28,1.231 2.32,2.808 1.53,5.813c-0.44,1.725 -2.22,1.872 -1.83,4.434c0.5,2.907 1.83,3.055 2.62,3.744c0.74,0.641 1.68,1.134 2.13,2.365c0.49,1.232 0.54,2.513 0.29,3.646c-0.49,2.069 -3.51,0.394 -5.53,-0.493c-1.34,-0.64 -5.59,-4.237 -6.67,-5.419c-2.67,-3.054 -3.96,-8.966 -1.83,-12.317Z" style="fill:#ac8774;fill-rule:nonzero;"/><path d="M148.7,58.901c64.34,0 64.69,53.946 61.87,89.271c4.4,-8.376 17.44,-5.814 16.36,7.39c-0.99,12.71 -19.74,19.193 -19.23,17.785c-9.49,26.124 -35.52,45.818 -59,45.818c-0.14,0 -0.34,0 -0.34,0l-0.15,-160.264c0,0 0.35,0 0.49,0Z" style="fill:#ddb598;fill-rule:nonzero;"/><path d="M222.82,149.994c-3.16,-5.123 -8.05,-2.906 -9.29,-1.773c-1.28,1.231 -2.27,2.808 -1.53,5.813c0.45,1.725 2.23,1.872 1.83,4.434c-0.49,2.907 -1.83,3.055 -2.57,3.744c-0.74,0.641 -1.73,1.134 -2.17,2.365c-0.45,1.232 -0.55,2.513 -0.3,3.646c0.49,2.069 3.51,0.394 5.54,-0.493c1.38,-0.64 5.58,-4.237 6.67,-5.419c2.71,-3.054 3.95,-8.966 1.82,-12.317Z" style="fill:#ac8774;fill-rule:nonzero;"/><path d="M147.85,74.124c-21.15,0 -36.66,6.158 -46,18.278c-13.1,16.997 -12.6,42.911 -7.81,61.534c1.48,5.715 2.27,21.036 3.26,26.653c4.6,25.175 32.32,38.576 50.55,38.576c0,0 0.35,0 0.5,0l0,-145.041c-0.15,0 -0.3,0 -0.3,0" style="fill:#e0bd9a;fill-rule:nonzero;"/><path d="M193.81,92.451c-9.29,-12.07 -24.61,-18.228 -45.46,-18.327l0,145.041c20.85,-0.246 45.8,-14.928 50.05,-38.576c1.04,-5.617 1.78,-20.938 3.26,-26.653c4.85,-18.574 5.34,-44.439 -7.85,-61.485Z" style="fill:#efd0ad;fill-rule:nonzero;"/><path d="M148.54,190.717" style="fill:#bc917b;fill-rule:nonzero;"/><path d="M148.54,190.717" style="fill:#bc917b;fill-rule:nonzero;"/><path d="M144.97,193.453c-0.1,-0.021 -0.2,-0.041 -0.3,-0.064c0.1,0.022 0.19,0.04 0.3,0.064Z" style="fill:#bc917b;fill-rule:nonzero;"/><path d="M148.54,193.261" style="fill:#bc917b;fill-rule:nonzero;"/><path d="M144.19,193.278c-0.1,-0.024 -0.18,-0.051 -0.27,-0.076l-0.01,0.004c0,0 0.1,0.029 0.28,0.072Z" style="fill:#bc917b;fill-rule:nonzero;"/><path d="M148.54,193.261" style="fill:#bc917b;fill-rule:nonzero;"/><path d="M136.07,173.609c-0.24,-5.012 9.18,-1.831 12.29,-1.674c2.45,0.125 9.92,-1.58 10.56,-1.141c4.39,2.972 -4.65,8.957 -10.72,8.957c-1.62,0 -11.98,-3.119 -12.13,-6.142Z" style="fill:#ddb598;fill-rule:nonzero;"/><path d="M130.38,74.486l-0.26,0.268l0.04,0.09c0.09,-0.135 0.14,-0.269 0.22,-0.358Z" style="fill:#432e1b;fill-rule:nonzero;"/><path d="M89.42,125.593" style="fill:#432e1b;fill-rule:nonzero;"/><path d="M148.81,193.28" style="fill:#ba907b;fill-rule:nonzero;"/><path d="M148.81,193.28" style="fill:#ba907b;fill-rule:nonzero;"/><path d="M145.15,190.511c-0.11,-0.022 -0.21,-0.042 -0.31,-0.066c0.1,0.023 0.19,0.041 0.31,0.066Z" style="fill:#ba907b;fill-rule:nonzero;"/><path d="M148.81,190.314" style="fill:#ba907b;fill-rule:nonzero;"/><path d="M144.34,190.331c-0.09,-0.025 -0.18,-0.052 -0.28,-0.078l-0.01,0.004c0,0 0.11,0.029 0.29,0.074Z" style="fill:#ba907b;fill-rule:nonzero;"/><path d="M148.81,190.314" style="fill:#ba907b;fill-rule:nonzero;"/><path d="M102.19,130.734c0,0 4.91,20.198 13.34,21.847c8.42,1.647 17.54,-1.629 17.54,-1.629c0,0 0.88,-23.738 -3.44,-26.839c-4.31,-3.115 -14.25,-7.617 -27.44,6.621Z" style="fill:#fff;fill-rule:nonzero;"/><path d="M133.09,150.89c0,0 -0.2,0.056 -0.63,0.237c-0.11,-7.281 -0.78,-17.281 -3.47,-19.197c-4.01,-2.942 -13.06,-7.084 -25.14,4.243c-1.1,-3.13 -1.65,-5.502 -1.65,-5.502c13.21,-14.265 23.16,-9.771 27.44,-6.653c4.32,3.114 3.45,26.872 3.45,26.872Z" style="fill:#d6b496;fill-rule:nonzero;"/><path d="M128.1,140.604c0,4.595 -3.72,8.32 -8.3,8.32c-4.58,0 -8.29,-3.725 -8.29,-8.32c0,-4.594 3.71,-8.319 8.29,-8.319c4.58,0 8.3,3.725 8.3,8.319Z" style="fill:#482315;fill-rule:nonzero;"/><path d="M119.42,146.145c-2.4,-0.199 -4.24,-2.623 -4.02,-5.289c0.22,-2.665 2.42,-4.75 4.82,-4.549c2.4,0.198 4.23,2.62 4.02,5.285c-0.22,2.665 -2.43,4.754 -4.82,4.553Z" style="fill:#7e3a22;fill-rule:nonzero;"/><path d="M119.62,145.184c-1.66,-0.143 -3.39,-1.978 -3.21,-4.237c0.19,-2.267 2.19,-3.797 3.86,-3.66c1.67,0.142 3.39,1.985 3.21,4.245c-0.19,2.263 -2.19,3.789 -3.86,3.652Z" style="fill:#211a10;fill-rule:nonzero;"/><path d="M118.27,139.608c-0.06,0.817 -0.9,1.414 -1.86,1.335c-0.96,-0.082 -1.68,-0.812 -1.62,-1.624c0.07,-0.82 0.9,-1.418 1.86,-1.339c0.97,0.078 1.69,0.808 1.62,1.628Z" style="fill:#fff;fill-rule:nonzero;"/><path d="M123.65,144.333c-0.03,0.407 -0.45,0.707 -0.93,0.666c-0.48,-0.038 -0.84,-0.406 -0.81,-0.812c0.04,-0.406 0.45,-0.707 0.93,-0.666c0.48,0.038 0.85,0.402 0.81,0.812Z" style="fill:#fff;fill-rule:nonzero;"/><path d="M148.94,190.229" style="fill:#ba907b;fill-rule:nonzero;"/><path d="M148.94,190.229" style="fill:#ba907b;fill-rule:nonzero;"/><path d="M145.28,192.894c-0.11,-0.023 -0.21,-0.043 -0.31,-0.067c0.1,0.023 0.19,0.042 0.31,0.067Z" style="fill:#ba907b;fill-rule:nonzero;"/><path d="M148.94,192.696" style="fill:#ba907b;fill-rule:nonzero;"/><path d="M144.47,192.713c-0.09,-0.025 -0.18,-0.052 -0.27,-0.078l-0.01,0.004c0,0 0.1,0.03 0.28,0.074Z" style="fill:#ba907b;fill-rule:nonzero;"/><path d="M148.94,192.696" style="fill:#ba907b;fill-rule:nonzero;"/><path d="M148.83,189.858" style="fill:#bc917b;fill-rule:nonzero;"/><path d="M148.83,189.858" style="fill:#bc917b;fill-rule:nonzero;"/><path d="M144.9,192.323c-0.11,-0.024 -0.22,-0.046 -0.33,-0.071c0.11,0.024 0.2,0.045 0.33,0.071Z" style="fill:#bc917b;fill-rule:nonzero;"/><path d="M148.83,192.111" style="fill:#bc917b;fill-rule:nonzero;"/><path d="M144.04,192.129c-0.1,-0.026 -0.2,-0.055 -0.3,-0.083l-0.01,0.005c0,0 0.11,0.031 0.31,0.078Z" style="fill:#bc917b;fill-rule:nonzero;"/><path d="M148.83,192.111" style="fill:#bc917b;fill-rule:nonzero;"/><path d="M148.58,189.013" style="fill:#bc917b;fill-rule:nonzero;"/><path d="M148.58,189.013" style="fill:#bc917b;fill-rule:nonzero;"/><path d="M144.65,191.478c-0.11,-0.023 -0.22,-0.045 -0.33,-0.071c0.11,0.024 0.21,0.045 0.33,0.071Z" style="fill:#bc917b;fill-rule:nonzero;"/><path d="M148.58,191.267" style="fill:#bc917b;fill-rule:nonzero;"/><path d="M143.79,191.285c-0.1,-0.027 -0.2,-0.056 -0.3,-0.084l-0.01,0.005c0,0 0.12,0.031 0.31,0.079Z" style="fill:#bc917b;fill-rule:nonzero;"/><path d="M148.58,191.267" style="fill:#bc917b;fill-rule:nonzero;"/><path d="M149.22,188.799" style="fill:#bc917b;fill-rule:nonzero;"/><path d="M149.22,188.799" style="fill:#bc917b;fill-rule:nonzero;"/><path d="M145.42,191.363c-0.1,-0.023 -0.21,-0.044 -0.32,-0.069c0.11,0.024 0.2,0.043 0.32,0.069Z" style="fill:#bc917b;fill-rule:nonzero;"/><path d="M149.22,191.158" style="fill:#bc917b;fill-rule:nonzero;"/><path d="M144.59,191.176c-0.1,-0.026 -0.19,-0.054 -0.29,-0.081l-0.01,0.005c0,0 0.11,0.03 0.3,0.076Z" style="fill:#bc917b;fill-rule:nonzero;"/><path d="M149.22,191.158" style="fill:#bc917b;fill-rule:nonzero;"/><path d="M195,130.047c0,0 -4.9,20.198 -13.33,21.847c-8.43,1.647 -17.55,-1.629 -17.55,-1.629c0,0 -0.87,-23.738 3.45,-26.839c4.31,-3.115 14.25,-7.617 27.43,6.621Z" style="fill:#fff;fill-rule:nonzero;"/><path d="M164.11,150.202c0,0 0.19,0.056 0.63,0.238c0.11,-7.281 0.78,-17.281 3.47,-19.197c4.01,-2.943 13.05,-7.084 25.14,4.242c1.1,-3.129 1.65,-5.501 1.65,-5.501c-13.21,-14.265 -23.16,-9.771 -27.44,-6.653c-4.32,3.114 -3.45,26.871 -3.45,26.871Z" style="fill:#d6b496;fill-rule:nonzero;"/><path d="M169.1,139.917c0,4.595 3.71,8.32 8.29,8.32c4.58,0 8.3,-3.725 8.3,-8.32c0,-4.595 -3.72,-8.319 -8.3,-8.319c-4.58,0 -8.29,3.724 -8.29,8.319Z" style="fill:#482315;fill-rule:nonzero;"/><path d="M177.78,145.457c2.39,-0.198 4.23,-2.622 4.01,-5.288c-0.21,-2.665 -2.42,-4.751 -4.81,-4.549c-2.4,0.198 -4.23,2.619 -4.02,5.284c0.21,2.666 2.43,4.755 4.82,4.553Z" style="fill:#7e3a22;fill-rule:nonzero;"/><path d="M177.57,144.496c1.67,-0.142 3.4,-1.977 3.22,-4.236c-0.19,-2.267 -2.19,-3.797 -3.86,-3.66c-1.67,0.142 -3.39,1.985 -3.21,4.245c0.18,2.262 2.19,3.789 3.85,3.651Z" style="fill:#211a10;fill-rule:nonzero;"/><path d="M178.92,138.921c0.07,0.817 0.91,1.414 1.87,1.335c0.96,-0.082 1.68,-0.812 1.61,-1.624c-0.07,-0.821 -0.9,-1.418 -1.86,-1.339c-0.96,0.078 -1.68,0.808 -1.62,1.628Z" style="fill:#fff;fill-rule:nonzero;"/><path d="M173.55,143.646c0.03,0.406 0.45,0.707 0.93,0.666c0.48,-0.038 0.84,-0.406 0.81,-0.812c-0.04,-0.406 -0.46,-0.707 -0.93,-0.666c-0.48,0.037 -0.85,0.402 -0.81,0.812Z" style="fill:#fff;fill-rule:nonzero;"/><path d="M138.14,130.412c-0.07,-0.099 -1.6,-2.431 -4.72,-4.835c-1.96,-1.507 -3.88,-2.654 -5.87,-3.508c-2.42,-1.021 -5.03,-1.742 -7.55,-2.088c-2.29,-0.255 -4.82,-0.187 -7.77,0.211c-2.26,0.431 -4.46,1.103 -6.32,1.929c-1.33,0.459 -2.38,1.105 -3.23,1.625c-0.32,0.199 -0.61,0.379 -0.91,0.539l-4.03,2.539l4.64,-1.093c0.22,-0.055 0.45,-0.117 0.7,-0.184c0.96,-0.255 2.16,-0.573 3.56,-0.779c0.33,-0.048 0.66,-0.114 1,-0.182c0.58,-0.117 1.19,-0.238 1.82,-0.268c0.7,-0.047 1.43,-0.099 2.18,-0.153l0.97,-0.07c2.57,-0.033 4.74,0.163 6.67,0.608c2.11,0.365 4.27,1.047 6.26,1.969c1.87,0.901 3.67,1.793 5.07,2.826c2.84,1.897 4.41,3.479 4.43,3.495c0.39,0.393 0.91,0.596 1.43,0.596c0.38,0 0.76,-0.108 1.1,-0.328c0.93,-0.613 1.19,-1.877 0.6,-2.788l-0.03,-0.061Z" style="fill:#030405;fill-rule:nonzero;"/><path d="M195.83,124.266c-0.26,-0.141 -0.56,-0.322 -0.88,-0.521c-0.85,-0.519 -1.9,-1.165 -3.19,-1.609c-1.9,-0.841 -4.1,-1.513 -6.38,-1.948c-2.93,-0.395 -5.46,-0.463 -7.76,-0.206c-2.51,0.345 -5.12,1.066 -7.54,2.087c-1.96,0.843 -3.94,2.023 -5.87,3.508c-3.06,2.36 -4.59,4.652 -4.71,4.828l-0.03,0.042c-0.51,0.8 -0.4,1.871 0.27,2.546c0.38,0.386 0.89,0.597 1.43,0.597c0.54,0 1.04,-0.212 1.42,-0.598l0.02,-0.017c0.15,-0.148 1.68,-1.649 4.43,-3.49c1.38,-1.018 3.18,-1.912 5.05,-2.81c1.99,-0.925 4.16,-1.607 6.29,-1.978c1.9,-0.439 4.07,-0.631 6.61,-0.604l1.02,0.074c0.74,0.053 1.47,0.104 2.17,0.152c0.63,0.029 1.23,0.15 1.81,0.267c0.34,0.068 0.68,0.134 1,0.182c1.4,0.206 2.6,0.524 3.56,0.779c0.25,0.067 0.48,0.129 0.71,0.185l4.63,1.093l-4.06,-2.559Z" style="fill:#030405;fill-rule:nonzero;"/><path d="M147.65,198.18" style="fill:#be927b;fill-rule:nonzero;"/><path d="M147.65,198.18" style="fill:#be927b;fill-rule:nonzero;"/><path d="M143.82,195.285c-0.11,-0.024 -0.21,-0.045 -0.32,-0.07c0.1,0.024 0.2,0.044 0.32,0.07Z" style="fill:#be927b;fill-rule:nonzero;"/><path d="M147.65,195.078" style="fill:#be927b;fill-rule:nonzero;"/><path d="M142.98,195.096c-0.1,-0.026 -0.19,-0.054 -0.29,-0.081l-0.01,0.004c0,0 0.11,0.031 0.3,0.077Z" style="fill:#be927b;fill-rule:nonzero;"/><path d="M147.65,195.078" style="fill:#be927b;fill-rule:nonzero;"/><path d="M136.46,199.452c-0.24,-3.247 9.02,0.68 12.06,0.774c2.42,0.082 9.71,-0.481 10.38,-0.739c5.1,-1.911 -0.28,5.429 -10.54,5.815c-4.69,0.188 -11.76,-3.881 -11.9,-5.85Z" style="fill:#f0d2ad;fill-rule:nonzero;"/><path d="M166.6,193.191c-2.51,-0.124 -5.09,1.977 -8.11,1.656c-0.13,-0.061 -0.19,-0.061 -0.32,-0.061c-0.69,-0.123 -1.38,0 -2.14,0.185c-0.94,0.197 -1.88,0.58 -2.77,0.889c-1.51,0.493 -3.21,0.888 -4.96,0.752l0,0.012l-0.1,-0.012l-0.1,0.012l0,-0.012c-1.75,0.136 -3.45,-0.259 -4.97,-0.752c-0.88,-0.309 -1.83,-0.692 -2.77,-0.889c-0.75,-0.185 -1.44,-0.308 -2.14,-0.185c-0.13,0 -0.19,0 -0.31,0.061c-3.02,0.321 -5.6,-1.78 -8.12,-1.656c-0.69,0.061 -1.7,-0.124 -2.27,-0.124c0.13,0.062 0.26,0.124 0.38,0.185c7.17,3.504 13.35,10.068 20.2,9.858l0.2,0c6.84,0.21 13.03,-6.354 20.19,-9.858c0.13,-0.061 0.26,-0.123 0.38,-0.185c-0.56,0 -1.57,0.185 -2.27,0.124Z" style="fill:#dcbf9e;fill-rule:nonzero;"/><path d="M168.71,192.991c0,0 -7.29,-2.815 -12.47,-1.164c0,0 -1.93,0.755 -3.93,1.215c-1.21,0.475 -2.69,0.613 -4.11,0.555c-1.09,-0.043 -2.13,-0.182 -2.98,-0.331c-0.28,-0.044 -0.56,-0.101 -0.85,-0.163c-0.13,-0.026 -0.22,-0.046 -0.33,-0.07c-0.17,-0.041 -0.34,-0.074 -0.52,-0.119c-0.19,-0.046 -0.3,-0.077 -0.3,-0.077l0.01,-0.004c-1.65,-0.45 -3.08,-1.006 -3.08,-1.006c-5.18,-1.651 -12.46,1.164 -12.46,1.164c-0.1,0.045 -0.17,0.076 -0.17,0.076c0.57,0 1.58,0.185 2.27,0.124c2.51,-0.124 5.1,1.977 8.12,1.656c0.12,-0.061 0.18,-0.061 0.31,-0.061c0.7,-0.124 1.39,0 2.14,0.185c0.94,0.197 1.89,0.58 2.77,0.889c1.52,0.493 3.22,0.888 4.97,0.752l0,0.012l0.1,-0.012l0.1,0.012l0,-0.012c1.75,0.136 3.45,-0.259 4.96,-0.752c0.89,-0.309 1.83,-0.692 2.77,-0.889c0.76,-0.185 1.45,-0.309 2.14,-0.185c0.13,0 0.19,0 0.32,0.061c3.02,0.321 5.6,-1.78 8.11,-1.656c0.7,0.061 1.71,-0.124 2.27,-0.124c0,0 -0.06,-0.031 -0.16,-0.076Z" style="fill:#c69f83;fill-rule:nonzero;"/><path d="M135.96,194.705c0.13,0.034 13.65,4.164 24.23,0.09l-1.22,-0.822l-14.29,0l-8.72,0.732Z" style="fill:#c69f83;fill-rule:nonzero;"/><path d="M201.92,282.641l11.18,0c0.4,-17.226 -8.72,-30.47 -8.72,-30.47c-3.1,-4.267 -6.49,-7.5 -9.84,-9.966c-0.26,-0.26 -0.59,-0.475 -0.87,-0.694c-4.41,-3.185 -8.62,-4.987 -11.72,-6.004c-0.62,-0.219 -1.17,-0.386 -1.68,-0.56c-2.26,-0.627 -3.67,-0.755 -3.67,-0.755c-1.25,0 -2.37,-0.475 -3.34,-1.283l-0.05,-0.042c-0.32,-0.307 -0.66,-0.67 -0.96,-1.064c-0.14,0.087 -0.38,0.436 -0.61,1.106c-0.64,1.554 -3.42,7.491 -7.55,12.924c-3.94,5.182 -9.1,9.905 -14.85,9.906c-11.78,0.004 -21.15,-19.793 -22.41,-22.83c-0.22,-0.67 -0.46,-1.019 -0.58,-1.106c-0.34,0.394 -0.67,0.757 -0.99,1.064l-0.05,0.042c-0.97,0.808 -2.08,1.283 -3.34,1.283c0,0 -1.47,0.17 -3.88,0.84c-0.52,0.13 -1.08,0.305 -1.68,0.524c-2.55,0.868 -5.81,2.275 -9.28,4.477c-0.76,0.487 -1.53,0.999 -2.31,1.565c-0.28,0.175 -0.6,0.388 -0.88,0.672c-2.39,1.765 -4.79,3.957 -7.11,6.622c-0.89,1.025 -1.77,2.105 -2.64,3.279c0,0 -8.96,19.209 -8.85,30.47l11.43,0c-0.04,7.723 -0.28,13.599 -0.53,17.224l106.21,0c-0.25,-3.617 -0.52,-9.503 -0.56,-17.224l0.13,0Z" style="fill:#5ba6ac;fill-rule:nonzero;"/><rect x="80.8" y="272.094" width="24.68" height="17.998" style="fill:#47989a;fill-rule:nonzero;"/><rect x="194.42" y="272.094" width="24.69" height="17.998" style="fill:#47989a;fill-rule:nonzero;"/><path d="M85.3,156.607c0.19,0.444 0.33,0.896 0.48,1.345l1.72,0c2,0 3.78,-1.628 3.64,-3.63c-0.01,-0.176 -0.01,-0.342 0.01,-0.494c-0.1,0.106 -0.2,0.213 -0.3,0.318c0.36,-3.886 0.21,-8.808 -0.96,-14.631c-2.1,-10.382 8.25,-49.728 33.19,-42.058c2.41,0.735 4.5,1.599 6.41,2.487c-23.83,23.807 -9.06,57.652 -9.06,57.652c-0.48,-24.061 16.52,-41.416 26.37,-49.423c-5.87,14.101 -0.58,28.845 -0.58,28.845c1.18,-24.267 26.47,-37.548 26.47,-37.548l-1.93,-4.102c5.82,-1.145 11.67,-0.716 16.7,2.112c10.27,5.796 16.06,18.806 14.27,39.575c-0.84,9.714 -0.8,15.84 -0.4,19.708c-0.09,0.392 -0.18,0.792 -0.27,1.189l3.99,0l-0.1,-0.16c0.43,-2.065 1.24,-4.377 2.97,-6.335c4.27,-4.862 10.79,-21.255 10.79,-37.607c0,-16.358 -5.58,-30.901 -20.13,-46.377c-14.55,-15.471 -35.95,-22.98 -35.95,-22.98l5.93,5.584c-3.54,-2.726 -9.87,-6.523 -20.43,-9.866c-15.04,-4.748 -24.77,0.545 -24.77,0.545c0,0 7.84,-0.272 11.69,2.813c-3.8,-1.634 -10.33,-2.202 -21.25,2.312c-21.38,8.841 -21,24.688 -35.88,29.544c-15.24,4.989 -19.65,-1.41 -19.65,-1.41c0,0 6.6,11.213 18.34,11.239c1.9,0 2.09,-0.039 2.1,-0.052c-0.01,0.049 -4.4,12.029 -5.24,20.976c-0.87,9.142 1.82,15.402 2.65,32.516c0.72,14.628 4.58,7.129 9.18,17.913Z" style="fill:#3d3d3b;fill-rule:nonzero;"/><path d="M164.97,204.406c-1.78,0.802 -3.89,1.483 -6.22,2.021l0.03,-0.225c0,-2.2 -5.33,-3.985 -11.97,-4.039c-6.63,0.054 -11.96,1.839 -11.96,4.039l0.03,0.225c-2.33,-0.538 -4.44,-1.219 -6.22,-2.021c-1.03,-2.318 -1.65,-5.097 -1.65,-8.11c0,-0.988 0.09,-1.945 0.21,-2.879c3.66,-3.579 9.05,1.004 15.3,0.188c1.4,-0.182 2.82,-0.285 4.29,-0.286c1.48,0.001 2.9,0.104 4.3,0.286c6.25,0.816 11.64,-3.767 15.3,-0.188c0.12,0.934 0.21,1.891 0.21,2.879c0,3.013 -0.62,5.792 -1.65,8.11Zm41.33,-4.877c-0.62,-2.88 -0.92,-4.519 -0.97,-5.677l-1.12,0c3.9,-5.381 6.09,-11.389 6.09,-17.737c0,-5.731 -1.13,-11.157 -3.95,-16.105l-5.73,0c-0.1,0.526 -0.17,1.021 -0.17,1.416c0,19.429 -11.67,33.974 -29.01,42.117c0.81,-2.138 1.29,-4.599 1.29,-7.247c0,-4.943 -1.62,-9.307 -4.1,-11.925c-4.07,-5.816 -12.3,-0.892 -21.82,-0.879c-9.52,-0.013 -17.74,-4.937 -21.81,0.879c-2.48,2.618 -4.1,6.982 -4.1,11.925c0,2.648 0.48,5.109 1.29,7.247c-17.34,-8.143 -29.01,-22.688 -29.01,-42.117c0,-0.396 -0.11,-0.888 -0.26,-1.416l-6.57,0c0.03,0.12 0.07,0.25 0.1,0.367c-2.43,4.849 -3.12,10.149 -3.12,15.738c0,6.348 2.19,12.356 6.09,17.737l-1.12,0.2c-0.05,1.158 -0.35,2.597 -0.97,5.477c-1.68,7.9 -6.69,9.973 -6.69,9.973c0,0 7.73,-3.018 9.6,-5.065c0.91,-0.995 3.32,-3.749 4.05,-4.582l0.05,0.072c-0.42,0.904 -1.44,3.847 -0.01,9.516c1.87,7.403 9.53,12.393 9.53,12.393c0,0 -1,-1.287 -1.94,-3.315c0.58,1.212 1.23,2.345 1.94,3.315c0,0 11.17,9.158 25.02,12.654l0.18,0.046c-0.1,-0.219 -0.24,-8.224 -0.33,-11.143c5.45,1.513 11.13,2.379 17.04,2.379c0.35,0 0.69,-0.012 1.04,-0.022c0.36,0.01 0.71,0.022 1.05,0.022c5.91,0 11.59,-0.866 17.04,-2.379c-0.09,2.919 -0.23,12.711 -0.33,12.931c0.09,-0.007 0.26,-0.079 0.5,-0.209c2.66,-1.136 15.52,-6.819 24.82,-14.441c-0.08,0.106 -0.12,0.162 -0.12,0.162c0,0 6.77,-4.407 9.13,-11.083c0.47,-1.172 0.77,-2.359 0.87,-3.553c0.68,-4.217 -0.12,-6.498 -0.48,-7.273l0.05,-0.072c0.73,0.833 3.14,3.587 4.05,4.582c1.87,2.047 9.6,5.065 9.6,5.065c0,0 -5.01,-2.073 -6.69,-9.973Z" style="fill:#51504f;fill-rule:nonzero;"/><path d="M160.06,276.26l-11.52,9.648l-11.91,-9.648l0,-13.412l11.96,10.549l11.47,-9.495l0,12.358Z" style="fill:#f0f0f0;fill-rule:nonzero;"/></g></svg>