<?xml version="1.0" encoding="UTF-8" standalone="no"?><!DOCTYPE svg PUBLIC "-//W3C//DTD SVG 1.1//EN" "http://www.w3.org/Graphics/SVG/1.1/DTD/svg11.dtd"><svg width="100%" height="100%" viewBox="0 0 298 301" version="1.1" xmlns="http://www.w3.org/2000/svg" xmlns:xlink="http://www.w3.org/1999/xlink" xml:space="preserve" style="fill-rule:evenodd;clip-rule:evenodd;stroke-linejoin:round;stroke-miterlimit:1.41421;"><g id="_51"><rect x="0.442" y="0.16" width="296.868" height="299.705" style="fill:#5ba6ac;fill-rule:nonzero;"/><path d="M149.18,187.244l0,112.621l-60.725,0c-0.989,-0.396 -1.482,-0.596 -1.482,-0.596c0,-14.376 2.102,-25.585 5.305,-34.325c7.73,-21.096 21.882,-27.796 28.392,-29.816c2.14,-0.664 3.46,-0.823 3.46,-0.823c0.23,0 0.44,-0.021 0.67,-0.057c1.91,-0.308 3.46,-1.974 4.71,-4.633c0.92,-1.974 1.7,-4.493 2.33,-7.409c0.25,-1.136 0.44,-2.282 0.64,-3.521c0.3,-2.083 0.59,-4.263 0.84,-6.546c0.1,-1.388 0.25,-2.725 0.4,-4.164c0.54,-6.89 0.69,-14.433 0.69,-21.575c0,0 8.159,0.844 14.77,0.844Z" style="fill:#e0bd9a;fill-rule:nonzero;"/><path d="M211.64,299.269c0,0 -0.54,0.2 -1.43,0.596l-61.03,0l0,-112.621l0.149,0c6.571,0 14.831,-0.844 14.831,-0.844c0,7.091 0.14,14.531 0.69,21.425c0.15,1.342 0.29,2.725 0.39,4.067c0.25,2.381 0.55,4.613 0.89,6.695l0,0.046c0.1,0.946 0.3,1.789 0.45,2.679c0.6,2.931 1.33,5.507 2.2,7.573c1.09,2.571 2.42,4.366 4.03,5.075c0.51,0.232 1.06,0.345 1.63,0.345c0,0 2.33,0.283 5.83,1.66c7.15,2.808 19.16,10.176 26.06,28.979c3.21,8.74 5.31,19.949 5.31,34.325Z" style="fill:#efd0ad;fill-rule:nonzero;"/><path d="M166.13,218.377l0,0.049c-1.53,2.365 -6.67,9.163 -16.85,9.163l-0.1,0c-9.63,-0.049 -15.26,-7.045 -16.7,-9.114c0.3,-2.069 0.6,-4.237 0.84,-6.503c0.1,-1.33 0.25,-2.71 0.4,-4.138c4.69,1.182 9.83,1.921 15.27,2.019l0.19,0c5.639,-0.098 10.83,-0.886 15.67,-2.167c0.15,1.33 0.29,2.709 0.39,4.04c0.25,2.364 0.55,4.581 0.89,6.651Z" style="fill:#be987f;fill-rule:nonzero;"/><path d="M148.49,58.901c-64.334,0 -64.679,53.946 -61.814,89.271c-4.398,-8.376 -17.492,-5.814 -16.405,7.39c1.038,12.71 19.745,19.188 19.222,17.785c9.743,26.124 35.527,45.818 58.997,45.818l0.5,0l0,-160.264l-0.5,0Z" style="fill:#d2a686;fill-rule:nonzero;"/><path d="M74.373,149.994c3.162,-5.123 8.103,-2.906 9.289,-1.773c1.285,1.231 2.322,2.808 1.532,5.813c-0.445,1.725 -2.224,1.872 -1.828,4.434c0.494,2.907 1.828,3.055 2.618,3.744c0.742,0.641 1.681,1.134 2.125,2.365c0.495,1.232 0.544,2.513 0.297,3.646c-0.495,2.069 -3.509,0.394 -5.534,-0.493c-1.335,-0.64 -5.584,-4.237 -6.671,-5.419c-2.669,-3.054 -3.953,-8.966 -1.828,-12.317Z" style="fill:#ac8774;fill-rule:nonzero;"/><path d="M148.839,58.901c64.331,0 64.681,53.946 61.861,89.271c4.4,-8.376 17.45,-5.814 16.36,7.39c-0.99,12.71 -19.73,19.193 -19.22,17.785c-9.49,26.124 -35.53,45.818 -59.001,45.818c-0.15,0 -0.349,0 -0.349,0l-0.151,-160.264c0,0 0.35,0 0.5,0Z" style="fill:#ddb598;fill-rule:nonzero;"/><path d="M222.96,149.994c-3.16,-5.123 -8.06,-2.906 -9.29,-1.773c-1.29,1.231 -2.27,2.808 -1.53,5.813c0.44,1.725 2.22,1.872 1.82,4.434c-0.49,2.907 -1.82,3.055 -2.56,3.744c-0.75,0.641 -1.73,1.134 -2.18,2.365c-0.44,1.232 -0.54,2.513 -0.3,3.646c0.5,2.069 3.51,0.394 5.54,-0.493c1.38,-0.64 5.58,-4.237 6.67,-5.419c2.72,-3.054 3.95,-8.966 1.83,-12.317Z" style="fill:#ac8774;fill-rule:nonzero;"/><path d="M147.99,74.124c-21.15,0 -36.67,6.158 -46.008,18.278c-13.094,16.997 -12.6,42.911 -7.807,61.534c1.483,5.715 2.273,21.036 3.261,26.653c4.596,25.175 32.314,38.576 50.554,38.576c0,0 0.339,0 0.49,0l0,-145.041c-0.151,0 -0.3,0 -0.3,0" style="fill:#e0bd9a;fill-rule:nonzero;"/><path d="M193.94,92.451c-9.29,-12.07 -24.61,-18.228 -45.46,-18.327l0,145.041c20.85,-0.246 45.81,-14.928 50.06,-38.576c1.03,-5.617 1.77,-20.938 3.26,-26.653c4.84,-18.574 5.33,-44.439 -7.86,-61.485Z" style="fill:#efd0ad;fill-rule:nonzero;"/><path d="M148.67,190.717" style="fill:#bc917b;fill-rule:nonzero;"/><path d="M148.67,190.717" style="fill:#bc917b;fill-rule:nonzero;"/><path d="M145.11,193.453c-0.11,-0.021 -0.21,-0.041 -0.31,-0.064c0.1,0.022 0.19,0.04 0.31,0.064Z" style="fill:#bc917b;fill-rule:nonzero;"/><path d="M148.67,193.261" style="fill:#bc917b;fill-rule:nonzero;"/><path d="M144.319,193.278c-0.089,-0.024 -0.179,-0.051 -0.269,-0.076l-0.01,0.004c0,0 0.11,0.029 0.279,0.072Z" style="fill:#bc917b;fill-rule:nonzero;"/><path d="M148.67,193.261" style="fill:#bc917b;fill-rule:nonzero;"/><path d="M136.199,175.838c-0.24,-5.012 9.181,-1.831 12.291,-1.675c2.449,0.126 9.92,-1.579 10.56,-1.14c4.4,2.972 -4.65,8.957 -10.721,8.957c-1.609,0 -11.979,-3.119 -12.13,-6.142Z" style="fill:#ddb598;fill-rule:nonzero;"/><path d="M130.52,74.486l-0.27,0.268l0.05,0.09c0.08,-0.135 0.13,-0.269 0.22,-0.358Z" style="fill:#432e1b;fill-rule:nonzero;"/><path d="M89.555,125.593" style="fill:#432e1b;fill-rule:nonzero;"/><path d="M148.949,193.28" style="fill:#ba907b;fill-rule:nonzero;"/><path d="M148.949,193.28" style="fill:#ba907b;fill-rule:nonzero;"/><path d="M145.28,190.511c-0.1,-0.022 -0.211,-0.042 -0.31,-0.066c0.099,0.023 0.19,0.041 0.31,0.066Z" style="fill:#ba907b;fill-rule:nonzero;"/><path d="M148.949,190.314" style="fill:#ba907b;fill-rule:nonzero;"/><path d="M144.47,190.331c-0.09,-0.025 -0.18,-0.052 -0.271,-0.078l-0.01,0.004c0,0 0.101,0.029 0.281,0.074Z" style="fill:#ba907b;fill-rule:nonzero;"/><path d="M148.949,190.314" style="fill:#ba907b;fill-rule:nonzero;"/><path d="M102.327,130.734c0,0 4.908,20.198 13.333,21.847c8.43,1.647 17.55,-1.629 17.55,-1.629c0,0 0.87,-23.738 -3.44,-26.839c-4.32,-3.115 -14.25,-7.617 -27.443,6.621Z" style="fill:#fff;fill-rule:nonzero;"/><path d="M133.22,150.89c0,0 -0.19,0.056 -0.63,0.237c-0.1,-7.281 -0.78,-17.281 -3.47,-19.197c-4.01,-2.942 -13.05,-7.084 -25.137,4.243c-1.099,-3.13 -1.65,-5.502 -1.65,-5.502c13.217,-14.265 23.157,-9.771 27.437,-6.653c4.32,3.114 3.45,26.872 3.45,26.872Z" style="fill:#d6b496;fill-rule:nonzero;"/><path d="M128.23,140.604c0,4.595 -3.71,8.32 -8.29,8.32c-4.58,0 -8.3,-3.725 -8.3,-8.32c0,-4.594 3.72,-8.319 8.3,-8.319c4.58,0 8.29,3.725 8.29,8.319Z" style="fill:#482315;fill-rule:nonzero;"/><path d="M119.55,146.145c-2.39,-0.199 -4.23,-2.623 -4.01,-5.289c0.21,-2.665 2.42,-4.75 4.82,-4.549c2.39,0.198 4.23,2.62 4.01,5.285c-0.21,2.665 -2.42,4.754 -4.82,4.553Z" style="fill:#7e3a22;fill-rule:nonzero;"/><path d="M119.76,145.184c-1.67,-0.143 -3.4,-1.978 -3.21,-4.237c0.18,-2.267 2.18,-3.797 3.85,-3.66c1.67,0.142 3.39,1.985 3.21,4.245c-0.18,2.263 -2.19,3.789 -3.85,3.652Z" style="fill:#211a10;fill-rule:nonzero;"/><path d="M118.41,139.608c-0.07,0.817 -0.91,1.414 -1.86,1.335c-0.96,-0.082 -1.69,-0.812 -1.62,-1.624c0.07,-0.82 0.9,-1.418 1.86,-1.339c0.96,0.078 1.68,0.808 1.62,1.628Z" style="fill:#fff;fill-rule:nonzero;"/><path d="M123.79,144.333c-0.04,0.407 -0.46,0.707 -0.93,0.666c-0.49,-0.038 -0.85,-0.406 -0.82,-0.812c0.04,-0.406 0.46,-0.707 0.93,-0.666c0.49,0.038 0.85,0.402 0.82,0.812Z" style="fill:#fff;fill-rule:nonzero;"/><path d="M149.079,190.229" style="fill:#ba907b;fill-rule:nonzero;"/><path d="M149.079,190.229" style="fill:#ba907b;fill-rule:nonzero;"/><path d="M145.41,192.894c-0.1,-0.023 -0.201,-0.043 -0.31,-0.067c0.099,0.023 0.19,0.042 0.31,0.067Z" style="fill:#ba907b;fill-rule:nonzero;"/><path d="M149.079,192.696" style="fill:#ba907b;fill-rule:nonzero;"/><path d="M144.61,192.713c-0.1,-0.025 -0.19,-0.052 -0.281,-0.078l-0.01,0.004c0,0 0.111,0.03 0.291,0.074Z" style="fill:#ba907b;fill-rule:nonzero;"/><path d="M149.079,192.696" style="fill:#ba907b;fill-rule:nonzero;"/><path d="M148.959,189.858" style="fill:#bc917b;fill-rule:nonzero;"/><path d="M148.959,189.858" style="fill:#bc917b;fill-rule:nonzero;"/><path d="M145.04,192.323c-0.12,-0.024 -0.23,-0.046 -0.341,-0.071c0.111,0.024 0.211,0.045 0.341,0.071Z" style="fill:#bc917b;fill-rule:nonzero;"/><path d="M148.959,192.111" style="fill:#bc917b;fill-rule:nonzero;"/><path d="M144.17,192.129c-0.101,-0.026 -0.19,-0.055 -0.29,-0.083l-0.02,0.005c0,0 0.12,0.031 0.31,0.078Z" style="fill:#bc917b;fill-rule:nonzero;"/><path d="M148.959,192.111" style="fill:#bc917b;fill-rule:nonzero;"/><path d="M148.72,189.013" style="fill:#bc917b;fill-rule:nonzero;"/><path d="M148.72,189.013" style="fill:#bc917b;fill-rule:nonzero;"/><path d="M144.79,191.478c-0.11,-0.023 -0.221,-0.045 -0.341,-0.071c0.111,0.024 0.211,0.045 0.341,0.071Z" style="fill:#bc917b;fill-rule:nonzero;"/><path d="M148.72,191.267" style="fill:#bc917b;fill-rule:nonzero;"/><path d="M143.92,191.285c-0.101,-0.027 -0.19,-0.056 -0.29,-0.084l-0.01,0.005c0,0 0.11,0.031 0.3,0.079Z" style="fill:#bc917b;fill-rule:nonzero;"/><path d="M148.72,191.267" style="fill:#bc917b;fill-rule:nonzero;"/><path d="M149.36,188.799" style="fill:#bc917b;fill-rule:nonzero;"/><path d="M149.35,188.799l0.01,0l-0.01,0Z" style="fill:#bc917b;fill-rule:nonzero;"/><path d="M145.56,191.363c-0.111,-0.023 -0.221,-0.044 -0.32,-0.069c0.099,0.024 0.19,0.043 0.32,0.069Z" style="fill:#bc917b;fill-rule:nonzero;"/><path d="M149.36,191.158" style="fill:#bc917b;fill-rule:nonzero;"/><path d="M144.72,191.176c-0.1,-0.026 -0.19,-0.054 -0.281,-0.081l-0.009,0.005c0,0 0.11,0.03 0.29,0.076Z" style="fill:#bc917b;fill-rule:nonzero;"/><path d="M149.35,191.158l0.01,0l-0.01,0Z" style="fill:#bc917b;fill-rule:nonzero;"/><path d="M195.14,130.047c0,0 -4.91,20.198 -13.34,21.847c-8.42,1.647 -17.54,-1.629 -17.54,-1.629c0,0 -0.88,-23.738 3.44,-26.839c4.31,-3.115 14.25,-7.617 27.44,6.621Z" style="fill:#fff;fill-rule:nonzero;"/><path d="M164.24,150.202c0,0 0.2,0.056 0.63,0.238c0.11,-7.281 0.78,-17.281 3.47,-19.197c4.01,-2.943 13.06,-7.084 25.14,4.242c1.1,-3.129 1.65,-5.501 1.65,-5.501c-13.21,-14.265 -23.16,-9.771 -27.44,-6.653c-4.32,3.114 -3.45,26.871 -3.45,26.871Z" style="fill:#d6b496;fill-rule:nonzero;"/><path d="M169.23,139.917c0,4.595 3.72,8.32 8.3,8.32c4.58,0 8.29,-3.725 8.29,-8.32c0,-4.595 -3.71,-8.319 -8.29,-8.319c-4.58,0 -8.3,3.724 -8.3,8.319Z" style="fill:#482315;fill-rule:nonzero;"/><path d="M177.91,145.457c2.4,-0.198 4.24,-2.622 4.02,-5.288c-0.22,-2.665 -2.42,-4.751 -4.82,-4.549c-2.4,0.198 -4.23,2.619 -4.02,5.284c0.22,2.666 2.43,4.755 4.82,4.553Z" style="fill:#7e3a22;fill-rule:nonzero;"/><path d="M177.71,144.496c1.66,-0.142 3.39,-1.977 3.21,-4.236c-0.19,-2.267 -2.19,-3.797 -3.86,-3.66c-1.66,0.142 -3.39,1.985 -3.21,4.245c0.19,2.262 2.19,3.789 3.86,3.651Z" style="fill:#211a10;fill-rule:nonzero;"/><path d="M179.06,138.921c0.07,0.817 0.9,1.414 1.86,1.335c0.96,-0.082 1.68,-0.812 1.62,-1.624c-0.07,-0.821 -0.9,-1.418 -1.86,-1.339c-0.96,0.078 -1.69,0.808 -1.62,1.628Z" style="fill:#fff;fill-rule:nonzero;"/><path d="M173.68,143.646c0.03,0.406 0.45,0.707 0.93,0.666c0.48,-0.038 0.84,-0.406 0.81,-0.812c-0.03,-0.406 -0.45,-0.707 -0.93,-0.666c-0.48,0.037 -0.84,0.402 -0.81,0.812Z" style="fill:#fff;fill-rule:nonzero;"/><path d="M138.27,130.412c-0.061,-0.099 -1.59,-2.431 -4.72,-4.835c-1.96,-1.507 -3.88,-2.654 -5.87,-3.508c-2.42,-1.021 -5.03,-1.742 -7.55,-2.088c-2.28,-0.255 -4.82,-0.187 -7.77,0.211c-2.253,0.431 -4.452,1.103 -6.318,1.929c-1.331,0.459 -2.382,1.105 -3.227,1.625c-0.323,0.199 -0.616,0.379 -0.913,0.539l-4.025,2.539l4.638,-1.093c0.217,-0.055 0.451,-0.117 0.702,-0.184c0.959,-0.255 2.154,-0.573 3.554,-0.779c0.328,-0.048 0.661,-0.114 1.002,-0.182c0.583,-0.117 1.186,-0.238 1.819,-0.268c0.702,-0.047 1.428,-0.099 2.178,-0.153l0.98,-0.07c2.57,-0.033 4.73,0.163 6.66,0.608c2.11,0.365 4.28,1.047 6.26,1.969c1.88,0.901 3.67,1.793 5.08,2.826c2.83,1.897 4.41,3.479 4.42,3.495c0.39,0.393 0.909,0.596 1.44,0.596c0.38,0 0.76,-0.108 1.089,-0.328c0.941,-0.613 1.201,-1.877 0.601,-2.788l-0.03,-0.061Z" style="fill:#030405;fill-rule:nonzero;"/><path d="M195.97,124.266c-0.27,-0.141 -0.56,-0.322 -0.89,-0.521c-0.84,-0.519 -1.89,-1.165 -3.18,-1.609c-1.91,-0.841 -4.11,-1.513 -6.39,-1.948c-2.93,-0.395 -5.46,-0.463 -7.75,-0.206c-2.51,0.345 -5.12,1.066 -7.55,2.087c-1.96,0.843 -3.93,2.023 -5.86,3.508c-3.07,2.36 -4.6,4.652 -4.71,4.828l-0.03,0.042c-0.52,0.8 -0.41,1.871 0.26,2.546c0.38,0.386 0.89,0.597 1.43,0.597c0.54,0 1.05,-0.212 1.43,-0.598l0.01,-0.017c0.15,-0.148 1.68,-1.649 4.43,-3.49c1.38,-1.018 3.18,-1.912 5.05,-2.81c1.99,-0.925 4.16,-1.607 6.29,-1.978c1.9,-0.439 4.08,-0.631 6.61,-0.604l1.03,0.074c0.74,0.053 1.46,0.104 2.17,0.152c0.62,0.029 1.22,0.15 1.81,0.267c0.34,0.068 0.67,0.134 1,0.182c1.4,0.206 2.59,0.524 3.55,0.779c0.25,0.067 0.49,0.129 0.71,0.185l4.64,1.093l-4.06,-2.559Z" style="fill:#030405;fill-rule:nonzero;"/><path d="M147.79,198.18" style="fill:#be927b;fill-rule:nonzero;"/><path d="M147.79,198.18" style="fill:#be927b;fill-rule:nonzero;"/><path d="M143.959,195.285c-0.109,-0.024 -0.219,-0.045 -0.329,-0.07c0.11,0.024 0.199,0.044 0.329,0.07Z" style="fill:#be927b;fill-rule:nonzero;"/><path d="M147.79,195.078" style="fill:#be927b;fill-rule:nonzero;"/><path d="M143.11,195.096c-0.1,-0.026 -0.19,-0.054 -0.291,-0.081l-0.009,0.004c0,0 0.12,0.031 0.3,0.077Z" style="fill:#be927b;fill-rule:nonzero;"/><path d="M147.79,195.078" style="fill:#be927b;fill-rule:nonzero;"/><path d="M136.589,199.452c-0.239,-3.247 9.021,0.68 12.061,0.774c2.419,0.082 9.71,-0.481 10.39,-0.739c5.09,-1.911 -0.28,5.429 -10.54,5.815c-4.7,0.188 -11.77,-3.881 -11.911,-5.85Z" style="fill:#f0d2ad;fill-rule:nonzero;"/><path d="M166.74,193.191c-2.52,-0.124 -5.1,1.977 -8.12,1.656c-0.12,-0.061 -0.181,-0.061 -0.31,-0.061c-0.7,-0.123 -1.39,0 -2.14,0.185c-0.94,0.197 -1.89,0.58 -2.77,0.889c-1.52,0.493 -3.22,0.888 -4.97,0.752l0,0.012l-0.101,-0.012l-0.099,0.012l0,-0.012c-1.75,0.136 -3.45,-0.259 -4.96,-0.752c-0.89,-0.309 -1.831,-0.692 -2.77,-0.889c-0.76,-0.185 -1.45,-0.308 -2.14,-0.185c-0.13,0 -0.19,0 -0.32,0.061c-3.02,0.321 -5.6,-1.78 -8.11,-1.656c-0.7,0.061 -1.71,-0.124 -2.27,-0.124c0.12,0.062 0.25,0.124 0.38,0.185c7.159,3.504 13.35,10.068 20.19,9.858l0.2,0c6.85,0.21 13.03,-6.354 20.2,-9.858c0.12,-0.061 0.25,-0.123 0.38,-0.185c-0.57,0 -1.58,0.185 -2.27,0.124Z" style="fill:#dcbf9e;fill-rule:nonzero;"/><path d="M168.84,192.991c0,0 -7.28,-2.815 -12.46,-1.164c0,0 -1.931,0.755 -3.931,1.215c-1.219,0.475 -2.689,0.613 -4.12,0.555c-1.089,-0.043 -2.12,-0.182 -2.979,-0.331c-0.281,-0.044 -0.56,-0.101 -0.85,-0.163c-0.12,-0.026 -0.22,-0.046 -0.33,-0.07c-0.17,-0.041 -0.341,-0.074 -0.51,-0.119c-0.19,-0.046 -0.3,-0.077 -0.3,-0.077l0.01,-0.004c-1.661,-0.45 -3.08,-1.006 -3.08,-1.006c-5.18,-1.651 -12.47,1.164 -12.47,1.164c-0.1,0.045 -0.16,0.076 -0.16,0.076c0.56,0 1.57,0.185 2.27,0.124c2.51,-0.124 5.09,1.977 8.11,1.656c0.13,-0.061 0.19,-0.061 0.32,-0.061c0.69,-0.124 1.38,0 2.14,0.185c0.939,0.197 1.88,0.58 2.77,0.889c1.51,0.493 3.21,0.888 4.96,0.752l0,0.012l0.099,-0.012l0.101,0.012l0,-0.012c1.75,0.136 3.45,-0.259 4.97,-0.752c0.88,-0.309 1.83,-0.692 2.77,-0.889c0.75,-0.185 1.44,-0.309 2.14,-0.185c0.129,0 0.19,0 0.31,0.061c3.02,0.321 5.6,-1.78 8.12,-1.656c0.69,0.061 1.7,-0.124 2.27,-0.124c0,0 -0.07,-0.031 -0.17,-0.076Z" style="fill:#c69f83;fill-rule:nonzero;"/><path d="M136.089,194.705c0.141,0.034 13.661,4.164 24.231,0.09l-1.22,-0.822l-14.29,0l-8.721,0.732Z" style="fill:#c69f83;fill-rule:nonzero;"/><path d="M94.228,252.171c0,0 -8.965,19.209 -8.856,30.47l11.43,0c-0.04,7.723 -0.28,13.599 -0.526,17.224l52.974,0l-52.382,-50.973c-0.892,1.025 -1.776,2.105 -2.64,3.279Z" style="fill:#975459;fill-rule:nonzero;"/><path d="M213.23,282.641c0.41,-17.226 -8.72,-30.47 -8.72,-30.47c-3.1,-4.267 -6.48,-7.5 -9.83,-9.966c-0.26,-0.26 -0.59,-0.475 -0.88,-0.694c-4.41,-3.185 -8.62,-4.987 -11.72,-6.004c-0.61,-0.219 -1.17,-0.386 -1.68,-0.56c-2.26,-0.627 -3.67,-0.755 -3.67,-0.755c-1.24,0 -2.36,-0.475 -3.33,-1.283l-0.05,-0.042c-0.33,-0.307 -0.66,-0.67 -0.97,-1.064c-0.14,0.087 -0.38,0.436 -0.61,1.106c-0.64,1.554 -3.42,7.491 -7.54,12.924l37.82,36.808l11.18,0Z" style="fill:#975459;fill-rule:nonzero;"/><path d="M202.05,282.641l-37.82,-36.808c-3.94,5.182 -9.11,9.905 -14.86,9.906c-11.781,0.004 -21.15,-19.794 -22.4,-22.83c-0.23,-0.67 -0.47,-1.019 -0.59,-1.106c-0.33,0.394 -0.66,0.757 -0.99,1.064l-0.05,0.042c-0.97,0.808 -2.07,1.283 -3.34,1.283c0,0 -1.47,0.17 -3.87,0.84c-0.53,0.13 -1.09,0.305 -1.68,0.524c-2.55,0.869 -5.82,2.275 -9.283,4.477c-0.763,0.487 -1.532,0.999 -2.31,1.565c-0.28,0.175 -0.605,0.388 -0.885,0.672c-2.386,1.765 -4.784,3.957 -7.104,6.622l52.382,50.973l53.24,0c-0.25,-3.617 -0.53,-9.503 -0.57,-17.224l0.13,0Z" style="fill:#632f33;fill-rule:nonzero;"/><path d="M192.48,244.568c-0.04,-0.398 -0.09,-0.818 -0.13,-1.264c-0.07,-1.831 -0.29,-4.023 -0.18,-6.51c-0.02,-1.254 0.03,-2.564 0.19,-3.96c0.11,-1.368 0.24,-2.825 0.51,-4.316c0.44,-2.986 1.31,-6.128 2.29,-9.451c1.05,-3.331 2.45,-6.767 3.81,-10.426c1.38,-3.645 3,-7.498 4.15,-11.643c0.16,-0.515 0.3,-1.063 0.45,-1.61c-0.6,18.463 -4.21,31.268 -6.72,38.987c-1.14,3.52 -2.73,7.036 -4.37,10.193Zm31.11,-114.218c0.05,-11.312 3.62,-7.12 -0.31,-20.817c-0.91,-3.181 -1.87,-6.134 -2.84,-8.967c0,-0.408 0,-0.81 0,-1.224c0,-11.993 -8.95,-27.54 -23.17,-42.653c-14.23,-15.091 -23.18,-11.985 -34.96,-11.553c0,0 -0.04,0.096 -0.1,0.247c-5.17,-1.312 -32.99,-7.846 -49.54,-0.619c-18.293,8.009 -33.261,21.738 -43.841,58.621c-10.564,36.869 -1.889,67.069 0.154,79.96c6.498,40.803 37.65,66.638 37.65,66.638c0,0 -7.866,-10.89 -11.381,-21.758c-2.731,-8.433 -6.805,-22.919 -6.805,-44.239c0,-21.33 17.78,-47.725 17.78,-47.725c0,0 -8.204,16.56 -9.814,34.778c-1.64,18.211 6.962,32.298 6.962,32.298c0,0 -10.89,-23.661 6.505,-41.318c5.53,-5.617 10.17,-11.488 13.91,-16.833l-0.01,0.04c-4.37,13.952 4.4,25.682 4.4,25.682c0,0 -0.16,-17.906 8.909,-23.99c22.121,-14.816 25.641,-20.938 28.751,-32.867c0.43,-1.631 0.66,-3.126 0.83,-4.585l20.21,34.495c0.95,1.506 2.5,4.042 4.29,7.325c1.04,1.893 2.15,4.029 3.28,6.335c0.25,0.922 0.52,1.825 0.76,2.763c0.97,3.681 1.69,7.516 2.15,11.38c0.21,1.451 0.32,2.913 0.41,4.382c0.13,2.433 0.11,4.872 -0.12,7.299c-0.1,0.913 -0.1,2.01 -0.24,2.826l-0.46,3.104c-0.38,1.87 -0.72,3.683 -1.28,5.632c-0.22,0.773 -0.45,1.543 -0.67,2.32c-0.85,3.044 -1.74,6.086 -2.71,9.106c-0.14,0.452 -0.27,0.914 -0.41,1.37c-0.57,1.857 -1.09,3.723 -1.56,5.574c-1.3,5.18 -2.11,10.247 -2.03,14.804c-0.07,3.285 0.29,6.268 0.81,8.856c0.38,2.604 1.19,4.772 1.68,6.566c0.31,0.943 0.63,1.746 0.92,2.437c-3.16,5.847 -6.23,10.103 -6.23,10.103c0,0 3.05,-2.528 7.44,-7.249l0.06,0.142c0,0 -0.01,-0.076 -0.02,-0.187c4.61,-4.968 10.68,-12.364 16.27,-21.784c-0.38,1.419 -0.8,2.821 -1.29,4.198c-5.61,15.78 -6.74,35.599 -3.37,46.605c3.37,11.005 11.61,22.746 11.61,22.746c0,0 -7.2,-13.294 -8.99,-30.445c-2.71,-26.009 14.88,-47.417 14.88,-73.252c0,-0.502 -0.03,-1.051 -0.06,-1.625c0.42,-1.901 0.81,-3.826 1.12,-5.799c0.67,-4.247 2.07,-10.387 3.26,-18.018c14.07,19.171 29.67,14.946 29.67,14.946c-13.64,-5.682 -27.28,-40.809 -32.46,-56.071Z" style="fill:#844c1f;fill-rule:nonzero;"/></g></svg>