<?xml version="1.0" encoding="UTF-8" standalone="no"?><!DOCTYPE svg PUBLIC "-//W3C//DTD SVG 1.1//EN" "http://www.w3.org/Graphics/SVG/1.1/DTD/svg11.dtd"><svg width="100%" height="100%" viewBox="0 0 297 300" version="1.1" xmlns="http://www.w3.org/2000/svg" xmlns:xlink="http://www.w3.org/1999/xlink" xml:space="preserve" style="fill-rule:evenodd;clip-rule:evenodd;stroke-linejoin:round;stroke-miterlimit:1.41421;"><g id="_52"><rect x="0.076" y="0.16" width="296.866" height="299.705" style="fill:#41845e;fill-rule:nonzero;"/><path d="M148.816,186.789l0,112.271l-60.727,0c-0.99,-0.395 -1.482,-0.594 -1.482,-0.594c0,-14.332 2.102,-25.505 5.305,-34.219c7.73,-21.03 21.881,-27.709 28.396,-29.723c2.137,-0.661 3.454,-0.82 3.454,-0.82c0.231,0 0.446,-0.021 0.667,-0.057c1.912,-0.307 3.465,-1.968 4.71,-4.618c0.928,-1.968 1.702,-4.48 2.332,-7.386c0.252,-1.133 0.446,-2.275 0.646,-3.511c0.298,-2.076 0.59,-4.249 0.841,-6.525c0.097,-1.383 0.246,-2.716 0.395,-4.151c0.538,-6.868 0.691,-14.388 0.691,-21.507c0,0 8.155,0.84 14.772,0.84Z" style="fill:#e0bd9a;fill-rule:nonzero;"/><path d="M211.277,298.466c0,0 -0.544,0.199 -1.435,0.594l-61.026,0l0,-112.271l0.149,0c6.571,0 14.828,-0.84 14.828,-0.84c0,7.068 0.144,14.485 0.687,21.358c0.149,1.338 0.298,2.716 0.395,4.054c0.251,2.373 0.548,4.598 0.892,6.674l0,0.046c0.097,0.943 0.292,1.784 0.446,2.67c0.599,2.922 1.327,5.49 2.204,7.55c1.092,2.563 2.419,4.352 4.028,5.059c0.513,0.231 1.056,0.344 1.625,0.344c0,0 2.337,0.282 5.838,1.655c7.151,2.799 19.16,10.144 26.059,28.888c3.203,8.714 5.31,19.887 5.31,34.219Z" style="fill:#efd0ad;fill-rule:nonzero;"/><clipPath id="_clip1"><rect x="132.116" y="207.167" width="33.65" height="19.842"/></clipPath><g clip-path="url(#_clip1)"><path d="M165.767,217.825l0,0.049c-1.532,2.358 -6.671,9.135 -16.85,9.135l-0.099,0c-9.636,-0.049 -15.269,-7.023 -16.702,-9.086c0.297,-2.062 0.593,-4.223 0.84,-6.482c0.099,-1.327 0.247,-2.702 0.396,-4.126c4.694,1.179 9.833,1.915 15.268,2.013l0.198,0c5.633,-0.098 10.821,-0.883 15.664,-2.16c0.148,1.326 0.296,2.701 0.395,4.027c0.248,2.357 0.544,4.567 0.89,6.63Z" style="fill:#be987f;fill-rule:nonzero;"/></g><path d="M148.126,58.846c-64.336,0 -64.681,53.779 -61.816,88.993c-4.398,-8.35 -17.492,-5.796 -16.405,7.367c1.037,12.671 19.745,19.129 19.222,17.73c9.742,26.043 35.528,45.675 58.999,45.675l0.494,0l0,-159.765l-0.494,0Z" style="fill:#d2a686;fill-rule:nonzero;"/><path d="M74.006,149.656c3.163,-5.108 8.104,-2.898 9.29,-1.768c1.285,1.228 2.322,2.799 1.532,5.795c-0.445,1.719 -2.224,1.867 -1.828,4.421c0.493,2.897 1.828,3.044 2.618,3.732c0.741,0.639 1.68,1.13 2.125,2.358c0.494,1.227 0.544,2.504 0.297,3.634c-0.495,2.063 -3.509,0.393 -5.535,-0.491c-1.334,-0.639 -5.583,-4.224 -6.671,-5.403c-2.668,-3.045 -3.952,-8.938 -1.828,-12.278Z" style="fill:#ac8774;fill-rule:nonzero;"/><path d="M148.472,58.846c64.336,0 64.682,53.779 61.865,88.993c4.398,-8.35 17.444,-5.796 16.356,7.367c-0.988,12.671 -19.733,19.134 -19.222,17.73c-9.49,26.043 -35.528,45.675 -58.999,45.675c-0.148,0 -0.346,0 -0.346,0l-0.148,-159.765c0,0 0.346,0 0.494,0Z" style="fill:#ddb598;fill-rule:nonzero;"/><path d="M222.592,149.656c-3.163,-5.108 -8.054,-2.898 -9.29,-1.768c-1.284,1.228 -2.273,2.799 -1.531,5.795c0.444,1.719 2.223,1.867 1.828,4.421c-0.495,2.897 -1.828,3.044 -2.57,3.732c-0.741,0.639 -1.729,1.13 -2.174,2.358c-0.445,1.227 -0.543,2.504 -0.296,3.634c0.493,2.063 3.508,0.393 5.534,-0.491c1.384,-0.639 5.584,-4.224 6.671,-5.403c2.717,-3.045 3.953,-8.938 1.828,-12.278Z" style="fill:#ac8774;fill-rule:nonzero;"/><path d="M147.62,74.022c-21.149,0 -36.665,6.139 -46.004,18.221c-13.095,16.944 -12.6,42.777 -7.807,61.342c1.482,5.697 2.273,20.971 3.262,26.571c4.595,25.096 32.315,38.455 50.549,38.455c0,0 0.346,0 0.494,0l0,-144.589c-0.148,0 -0.296,0 -0.296,0l-0.198,0Z" style="fill:#e0bd9a;fill-rule:nonzero;"/><path d="M193.574,92.292c-9.289,-12.032 -24.607,-18.172 -45.46,-18.27l0,144.589c20.853,-0.245 45.806,-14.881 50.056,-38.455c1.037,-5.6 1.778,-20.874 3.261,-26.571c4.843,-18.515 5.337,-44.3 -7.857,-61.293Z" style="fill:#efd0ad;fill-rule:nonzero;"/><path d="M148.308,190.251" style="fill:#bc917b;fill-rule:nonzero;"/><path d="M148.307,190.251l0.001,0l-0.001,0Z" style="fill:#bc917b;fill-rule:nonzero;"/><path d="M144.739,192.98c-0.101,-0.022 -0.202,-0.041 -0.303,-0.065c0.1,0.022 0.187,0.041 0.303,0.065Z" style="fill:#bc917b;fill-rule:nonzero;"/><path d="M148.308,192.788" style="fill:#bc917b;fill-rule:nonzero;"/><path d="M143.955,192.805c-0.094,-0.025 -0.178,-0.051 -0.27,-0.076l-0.01,0.004c0,0 0.104,0.029 0.28,0.072Z" style="fill:#bc917b;fill-rule:nonzero;"/><path d="M148.307,192.788l0.001,0l-0.001,0Z" style="fill:#bc917b;fill-rule:nonzero;"/><path d="M135.962,174.223c-0.244,-4.997 9.178,-1.826 12.285,-1.67c2.454,0.126 9.922,-1.574 10.564,-1.136c4.393,2.962 -4.654,8.928 -10.721,8.928c-1.616,0 -11.981,-3.109 -12.128,-6.122Z" style="fill:#ddb598;fill-rule:nonzero;"/><path d="M130.153,74.383l-0.268,0.267l0.045,0.09c0.089,-0.134 0.133,-0.268 0.223,-0.357Z" style="fill:#432e1b;fill-rule:nonzero;"/><path d="M148.58,192.807" style="fill:#ba907b;fill-rule:nonzero;"/><path d="M148.579,192.807l0.001,0l-0.001,0Z" style="fill:#ba907b;fill-rule:nonzero;"/><path d="M144.915,190.047c-0.104,-0.022 -0.207,-0.043 -0.311,-0.067c0.102,0.023 0.191,0.042 0.311,0.067Z" style="fill:#ba907b;fill-rule:nonzero;"/><path d="M148.58,189.85" style="fill:#ba907b;fill-rule:nonzero;"/><path d="M144.109,189.867c-0.096,-0.025 -0.183,-0.052 -0.277,-0.078l-0.01,0.004c0,0 0.107,0.03 0.287,0.074Z" style="fill:#ba907b;fill-rule:nonzero;"/><path d="M148.579,189.85l0.001,0l-0.001,0Z" style="fill:#ba907b;fill-rule:nonzero;"/><path d="M101.961,130.455c0,0 4.908,20.136 13.335,21.78c8.426,1.642 17.547,-1.624 17.547,-1.624c0,0 0.871,-23.664 -3.443,-26.756c-4.311,-3.105 -14.251,-7.593 -27.439,6.6Z" style="fill:#fff;fill-rule:nonzero;"/><path d="M132.854,150.549c0,0 -0.194,0.056 -0.627,0.236c-0.107,-7.258 -0.779,-17.227 -3.473,-19.137c-4.006,-2.933 -13.052,-7.061 -25.137,4.23c-1.099,-3.121 -1.65,-5.485 -1.65,-5.485c13.213,-14.22 23.16,-9.74 27.439,-6.632c4.32,3.104 3.448,26.788 3.448,26.788Z" style="fill:#d6b496;fill-rule:nonzero;"/><path d="M127.864,140.295c0,4.581 -3.713,8.294 -8.293,8.294c-4.581,0 -8.294,-3.713 -8.294,-8.294c0,-4.58 3.713,-8.293 8.294,-8.293c4.58,0 8.293,3.713 8.293,8.293Z" style="fill:#482315;fill-rule:nonzero;"/><path d="M119.186,145.819c-2.396,-0.198 -4.234,-2.615 -4.016,-5.272c0.214,-2.657 2.422,-4.736 4.819,-4.536c2.395,0.198 4.231,2.612 4.019,5.268c-0.218,2.657 -2.428,4.74 -4.822,4.54Z" style="fill:#7e3a22;fill-rule:nonzero;"/><path d="M119.392,144.86c-1.667,-0.142 -3.396,-1.971 -3.213,-4.224c0.188,-2.259 2.189,-3.784 3.856,-3.647c1.668,0.141 3.394,1.978 3.21,4.231c-0.183,2.256 -2.19,3.777 -3.853,3.64Z" style="fill:#211a10;fill-rule:nonzero;"/><path d="M118.042,139.302c-0.069,0.815 -0.905,1.409 -1.863,1.331c-0.959,-0.082 -1.683,-0.809 -1.618,-1.619c0.069,-0.817 0.901,-1.413 1.859,-1.335c0.963,0.078 1.687,0.806 1.622,1.623Z" style="fill:#fff;fill-rule:nonzero;"/><path d="M123.42,144.013c-0.036,0.405 -0.453,0.704 -0.931,0.664c-0.481,-0.038 -0.841,-0.406 -0.811,-0.81c0.035,-0.405 0.453,-0.705 0.93,-0.664c0.482,0.037 0.846,0.401 0.812,0.81Z" style="fill:#fff;fill-rule:nonzero;"/><path d="M148.712,189.766" style="fill:#ba907b;fill-rule:nonzero;"/><path d="M148.711,189.766l0.001,0l-0.001,0Z" style="fill:#ba907b;fill-rule:nonzero;"/><path d="M145.047,192.422c-0.104,-0.023 -0.208,-0.043 -0.311,-0.067c0.102,0.023 0.191,0.042 0.311,0.067Z" style="fill:#ba907b;fill-rule:nonzero;"/><path d="M148.712,192.225" style="fill:#ba907b;fill-rule:nonzero;"/><path d="M144.241,192.242c-0.096,-0.025 -0.183,-0.052 -0.277,-0.078l-0.01,0.004c0,0 0.107,0.029 0.287,0.074Z" style="fill:#ba907b;fill-rule:nonzero;"/><path d="M148.711,192.225l0.001,0l-0.001,0Z" style="fill:#ba907b;fill-rule:nonzero;"/><path d="M148.598,189.396" style="fill:#bc917b;fill-rule:nonzero;"/><path d="M148.598,189.396" style="fill:#bc917b;fill-rule:nonzero;"/><path d="M144.67,191.853c-0.112,-0.024 -0.222,-0.046 -0.334,-0.071c0.11,0.024 0.206,0.045 0.334,0.071Z" style="fill:#bc917b;fill-rule:nonzero;"/><path d="M148.598,191.642" style="fill:#bc917b;fill-rule:nonzero;"/><path d="M143.806,191.66c-0.103,-0.027 -0.196,-0.056 -0.297,-0.083l-0.011,0.005c0,0 0.115,0.031 0.308,0.078Z" style="fill:#bc917b;fill-rule:nonzero;"/><path d="M148.598,191.642" style="fill:#bc917b;fill-rule:nonzero;"/><path d="M148.35,188.554" style="fill:#bc917b;fill-rule:nonzero;"/><path d="M148.35,188.554" style="fill:#bc917b;fill-rule:nonzero;"/><path d="M144.422,191.011c-0.112,-0.024 -0.223,-0.046 -0.334,-0.071c0.11,0.024 0.206,0.044 0.334,0.071Z" style="fill:#bc917b;fill-rule:nonzero;"/><path d="M148.35,190.8" style="fill:#bc917b;fill-rule:nonzero;"/><path d="M143.558,190.818c-0.103,-0.026 -0.196,-0.056 -0.297,-0.083l-0.011,0.004c0,0 0.115,0.032 0.308,0.079Z" style="fill:#bc917b;fill-rule:nonzero;"/><path d="M148.35,190.8" style="fill:#bc917b;fill-rule:nonzero;"/><path d="M148.989,188.339" style="fill:#bc917b;fill-rule:nonzero;"/><path d="M148.989,188.339" style="fill:#bc917b;fill-rule:nonzero;"/><path d="M145.192,190.896c-0.108,-0.023 -0.215,-0.044 -0.322,-0.069c0.106,0.024 0.199,0.043 0.322,0.069Z" style="fill:#bc917b;fill-rule:nonzero;"/><path d="M148.989,190.692" style="fill:#bc917b;fill-rule:nonzero;"/><path d="M144.357,190.709c-0.099,-0.025 -0.189,-0.054 -0.287,-0.08l-0.01,0.004c0,0 0.11,0.031 0.297,0.076Z" style="fill:#bc917b;fill-rule:nonzero;"/><path d="M148.989,190.692" style="fill:#bc917b;fill-rule:nonzero;"/><path d="M194.772,129.77c0,0 -4.909,20.136 -13.335,21.78c-8.427,1.642 -17.547,-1.624 -17.547,-1.624c0,0 -0.872,-23.664 3.443,-26.756c4.311,-3.105 14.25,-7.593 27.439,6.6Z" style="fill:#fff;fill-rule:nonzero;"/><path d="M163.879,149.864c0,0 0.193,0.055 0.626,0.236c0.108,-7.258 0.779,-17.227 3.474,-19.137c4.006,-2.933 13.051,-7.062 25.137,4.229c1.099,-3.119 1.65,-5.484 1.65,-5.484c-13.213,-14.22 -23.161,-9.74 -27.439,-6.632c-4.32,3.104 -3.448,26.788 -3.448,26.788Z" style="fill:#d6b496;fill-rule:nonzero;"/><path d="M168.868,139.61c0,4.581 3.713,8.293 8.294,8.293c4.58,0 8.294,-3.712 8.294,-8.293c0,-4.58 -3.714,-8.293 -8.294,-8.293c-4.581,0 -8.294,3.713 -8.294,8.293Z" style="fill:#482315;fill-rule:nonzero;"/><path d="M177.548,145.133c2.394,-0.197 4.233,-2.614 4.015,-5.271c-0.214,-2.657 -2.423,-4.736 -4.819,-4.536c-2.395,0.198 -4.231,2.611 -4.019,5.268c0.218,2.657 2.428,4.74 4.823,4.539Z" style="fill:#7e3a22;fill-rule:nonzero;"/><path d="M177.34,144.175c1.667,-0.142 3.397,-1.971 3.214,-4.224c-0.188,-2.259 -2.19,-3.784 -3.857,-3.648c-1.668,0.142 -3.393,1.979 -3.209,4.231c0.183,2.257 2.189,3.778 3.852,3.641Z" style="fill:#211a10;fill-rule:nonzero;"/><path d="M178.69,138.617c0.069,0.814 0.906,1.409 1.864,1.331c0.959,-0.082 1.682,-0.809 1.617,-1.619c-0.069,-0.818 -0.9,-1.413 -1.858,-1.335c-0.963,0.078 -1.687,0.805 -1.623,1.623Z" style="fill:#fff;fill-rule:nonzero;"/><path d="M173.313,143.328c0.035,0.405 0.453,0.704 0.93,0.664c0.482,-0.038 0.842,-0.406 0.811,-0.81c-0.035,-0.405 -0.452,-0.705 -0.93,-0.664c-0.481,0.037 -0.846,0.401 -0.811,0.81Z" style="fill:#fff;fill-rule:nonzero;"/><path d="M137.903,130.135c-0.064,-0.098 -1.593,-2.423 -4.718,-4.82c-1.959,-1.502 -3.879,-2.646 -5.87,-3.498c-2.42,-1.017 -5.027,-1.736 -7.552,-2.081c-2.284,-0.254 -4.814,-0.186 -7.767,0.211c-2.255,0.429 -4.453,1.099 -6.32,1.922c-1.331,0.459 -2.382,1.103 -3.226,1.62c-0.324,0.199 -0.617,0.378 -0.914,0.538l-4.026,2.531l4.64,-1.09c0.216,-0.055 0.449,-0.116 0.701,-0.183c0.959,-0.255 2.153,-0.571 3.554,-0.777c0.328,-0.048 0.661,-0.113 1.001,-0.181c0.584,-0.117 1.187,-0.237 1.82,-0.267c0.702,-0.047 1.431,-0.099 2.18,-0.153l0.974,-0.07c2.569,-0.033 4.739,0.163 6.667,0.606c2.106,0.364 4.273,1.044 6.259,1.963c1.874,0.898 3.672,1.788 5.074,2.818c2.835,1.891 4.412,3.468 4.426,3.483l0,0.001c0.389,0.392 0.91,0.594 1.434,0.594c0.38,0 0.762,-0.107 1.096,-0.328c0.934,-0.611 1.196,-1.87 0.602,-2.779l-0.035,-0.06Z" style="fill:#030405;fill-rule:nonzero;"/><path d="M195.6,124.008c-0.266,-0.141 -0.56,-0.321 -0.883,-0.52c-0.845,-0.517 -1.896,-1.16 -3.187,-1.603c-1.905,-0.839 -4.104,-1.509 -6.386,-1.942c-2.927,-0.394 -5.459,-0.462 -7.752,-0.206c-2.513,0.344 -5.12,1.063 -7.544,2.081c-1.962,0.839 -3.936,2.016 -5.866,3.497c-3.069,2.353 -4.596,4.637 -4.711,4.813l-0.029,0.041c-0.518,0.798 -0.406,1.866 0.264,2.538c0.381,0.386 0.888,0.596 1.427,0.596l0.001,0c0.54,0 1.046,-0.212 1.426,-0.596l0.017,-0.017c0.149,-0.148 1.68,-1.644 4.428,-3.48c1.381,-1.014 3.18,-1.905 5.049,-2.801c1.994,-0.922 4.16,-1.602 6.294,-1.971c1.9,-0.438 4.073,-0.629 6.609,-0.602l1.023,0.072c0.742,0.054 1.464,0.105 2.172,0.152c0.622,0.03 1.225,0.15 1.809,0.267c0.34,0.068 0.673,0.133 1.001,0.181c1.401,0.206 2.595,0.522 3.555,0.777c0.25,0.067 0.485,0.128 0.708,0.185l4.636,1.089l-4.061,-2.551Z" style="fill:#030405;fill-rule:nonzero;"/><path d="M147.422,197.691" style="fill:#be927b;fill-rule:nonzero;"/><path d="M147.422,197.691" style="fill:#be927b;fill-rule:nonzero;"/><path d="M143.59,194.805c-0.109,-0.023 -0.217,-0.044 -0.325,-0.069c0.106,0.024 0.2,0.044 0.325,0.069Z" style="fill:#be927b;fill-rule:nonzero;"/><path d="M147.422,194.6" style="fill:#be927b;fill-rule:nonzero;"/><path d="M142.747,194.617c-0.1,-0.026 -0.191,-0.054 -0.289,-0.081l-0.011,0.005c0,0 0.112,0.03 0.3,0.076Z" style="fill:#be927b;fill-rule:nonzero;"/><path d="M147.422,194.6" style="fill:#be927b;fill-rule:nonzero;"/><path d="M136.226,198.959c-0.243,-3.237 9.017,0.678 12.057,0.772c2.426,0.082 9.713,-0.48 10.386,-0.736c5.094,-1.906 -0.278,5.411 -10.536,5.796c-4.7,0.188 -11.767,-3.868 -11.907,-5.832Z" style="fill:#f0d2ad;fill-rule:nonzero;"/><path d="M166.372,192.718c-2.514,-0.123 -5.095,1.971 -8.119,1.651c-0.123,-0.061 -0.184,-0.061 -0.313,-0.061c-0.694,-0.123 -1.383,0 -2.139,0.184c-0.94,0.197 -1.887,0.579 -2.772,0.886c-1.511,0.492 -3.214,0.886 -4.966,0.75l0,0.012l-0.098,-0.011l-0.097,0.011l0,-0.012c-1.752,0.136 -3.455,-0.258 -4.966,-0.75c-0.885,-0.307 -1.832,-0.689 -2.772,-0.886c-0.756,-0.184 -1.444,-0.307 -2.139,-0.184c-0.129,0 -0.19,0 -0.314,0.061c-3.023,0.32 -5.604,-1.774 -8.118,-1.651c-0.695,0.061 -1.703,-0.123 -2.268,-0.123c0.123,0.061 0.252,0.123 0.381,0.184c7.166,3.493 13.349,10.037 20.196,9.828l0.195,0c6.847,0.209 13.03,-6.335 20.196,-9.828c0.129,-0.061 0.258,-0.123 0.382,-0.184c-0.566,0 -1.574,0.184 -2.269,0.123Z" style="fill:#dcbf9e;fill-rule:nonzero;"/><path d="M168.478,192.518c0,0 -7.287,-2.806 -12.469,-1.16c0,0 -1.929,0.753 -3.928,1.211c-1.216,0.474 -2.689,0.611 -4.115,0.554l-0.001,0c-1.09,-0.043 -2.126,-0.182 -2.978,-0.33c-0.282,-0.044 -0.564,-0.101 -0.853,-0.163c-0.125,-0.026 -0.219,-0.046 -0.325,-0.069c-0.176,-0.041 -0.346,-0.074 -0.518,-0.119c-0.188,-0.046 -0.3,-0.077 -0.3,-0.077l0.011,-0.004c-1.658,-0.449 -3.08,-1.003 -3.08,-1.003c-5.182,-1.646 -12.469,1.16 -12.469,1.16c-0.1,0.046 -0.162,0.077 -0.162,0.077c0.565,0 1.573,0.184 2.268,0.123c2.513,-0.123 5.095,1.971 8.118,1.651c0.124,-0.061 0.185,-0.061 0.314,-0.061c0.695,-0.123 1.383,0 2.139,0.184c0.94,0.197 1.887,0.579 2.772,0.886c1.511,0.492 3.214,0.886 4.966,0.75l0,0.012l0.097,-0.011l0.098,0.011l0,-0.012c1.752,0.136 3.455,-0.258 4.966,-0.75c0.885,-0.307 1.832,-0.689 2.772,-0.886c0.756,-0.184 1.445,-0.307 2.139,-0.184c0.129,0 0.19,0 0.314,0.061c3.023,0.32 5.604,-1.774 8.118,-1.651c0.695,0.061 1.703,-0.123 2.268,-0.123c0,0 -0.062,-0.031 -0.162,-0.077Z" style="fill:#c69f83;fill-rule:nonzero;"/><path d="M135.727,194.228c0.133,0.033 13.654,4.15 24.229,0.089l-1.218,-0.819l-14.294,0l-8.717,0.73Z" style="fill:#c69f83;fill-rule:nonzero;"/><path d="M211.263,299.865l-125.396,0c0.016,-3.49 0.146,-6.8 0.375,-9.938c0.348,-4.88 0.94,-9.342 1.723,-13.422c8.023,-41.765 36.245,-43.847 36.245,-43.847l24.222,16.298l24.797,-16.364c24.445,5.644 33.37,26.815 36.534,43.913c0.924,4.981 1.353,9.616 1.538,13.422c0.288,5.995 -0.038,9.938 -0.038,9.938Z" style="fill:#9270b1;fill-rule:nonzero;"/><path d="M129.014,267.767l20.098,-20.163l21.828,23.336l-14.709,28.915l-14.286,0l-12.931,-32.088Z" style="fill:#dbdcdb;fill-rule:nonzero;"/><path d="M166.975,222.2c-0.323,3.336 -3.446,12.737 -9.903,18.166c-4.279,3.59 -7.187,5.916 -7.96,7.238l-0.052,0c-0.77,-1.322 -3.676,-3.648 -7.953,-7.238c-6.459,-5.429 -9.584,-14.83 -9.908,-18.166c-4.051,3.578 -9.408,17.426 -9.408,17.426c0.04,-0.049 0.114,0 0.212,0.137c0.131,0.186 0.314,0.553 0.542,1.07c0.14,0.326 0.299,0.706 0.475,1.148c0.199,0.504 0.418,1.082 0.66,1.727l0.002,0.004c0.057,0.157 0.115,0.314 0.175,0.477l0.006,0.019c0.07,0.188 0.141,0.38 0.213,0.578c0.503,1.388 1.077,3.017 1.703,4.846l0.009,0.025c0.079,0.228 0.159,0.459 0.239,0.692l0,0.006c0.487,1.421 1.001,2.957 1.543,4.578l0.02,0.062c0.084,0.246 0.166,0.494 0.247,0.744l0.04,0.111c0.08,0.244 0.162,0.492 0.244,0.74l0.043,0.126c0.082,0.245 0.164,0.493 0.244,0.741l0.052,0.149c0.08,0.246 0.159,0.49 0.239,0.739l0.046,0.133c0.349,1.053 0.704,2.14 1.067,3.247c0.032,0.103 0.065,0.206 0.099,0.312c0.068,0.206 0.136,0.415 0.204,0.624c0.04,0.119 0.078,0.237 0.116,0.353c0.063,0.197 0.127,0.39 0.191,0.585c0.048,0.15 0.098,0.303 0.148,0.456c0.055,0.176 0.115,0.355 0.171,0.533c0.052,0.155 0.103,0.31 0.151,0.462c0.06,0.191 0.124,0.377 0.184,0.565c0.052,0.159 0.104,0.319 0.156,0.479c0.055,0.174 0.111,0.349 0.167,0.523c0.064,0.196 0.127,0.394 0.192,0.59c0.047,0.147 0.096,0.289 0.139,0.436c0.112,0.345 0.224,0.69 0.335,1.035c0.084,-0.103 0.168,-0.207 0.251,-0.314c2.031,-2.434 6.663,-8.914 10.534,-13.737c2.385,-2.974 4.479,-5.321 5.492,-5.703c0,0 0.478,-0.242 1.491,0c1.017,0.382 3.111,2.729 5.497,5.703c3.868,4.823 8.503,11.303 10.529,13.737c0.088,0.107 0.167,0.211 0.253,0.314c0.11,-0.345 0.221,-0.69 0.333,-1.035c0.048,-0.147 0.094,-0.289 0.142,-0.436c0.061,-0.196 0.125,-0.394 0.189,-0.59c0.06,-0.174 0.116,-0.349 0.172,-0.523c0.05,-0.16 0.101,-0.32 0.155,-0.479c0.06,-0.188 0.12,-0.374 0.179,-0.565c0.052,-0.152 0.104,-0.307 0.152,-0.462c0.06,-0.178 0.116,-0.357 0.173,-0.533c0.05,-0.153 0.098,-0.306 0.15,-0.456c0.06,-0.195 0.128,-0.388 0.188,-0.585c0.039,-0.116 0.077,-0.234 0.115,-0.353c0.068,-0.209 0.136,-0.418 0.205,-0.624c0.035,-0.106 0.066,-0.209 0.098,-0.312c0.365,-1.107 0.718,-2.194 1.069,-3.247l0.044,-0.133c0.08,-0.249 0.161,-0.493 0.243,-0.739l0.05,-0.149c0.082,-0.248 0.164,-0.496 0.245,-0.741l0.04,-0.126c0.084,-0.248 0.164,-0.496 0.248,-0.74l0.036,-0.111c0.083,-0.25 0.165,-0.498 0.247,-0.744l0.02,-0.062c0.542,-1.621 1.057,-3.157 1.545,-4.578l0.002,-0.006c0.08,-0.233 0.156,-0.464 0.238,-0.692l0.006,-0.025c0.63,-1.829 1.2,-3.458 1.703,-4.846c0.071,-0.198 0.143,-0.39 0.213,-0.578l0.006,-0.019c0.06,-0.163 0.12,-0.32 0.175,-0.477l0,-0.004c0.244,-0.645 0.465,-1.223 0.663,-1.727c0.175,-0.442 0.334,-0.822 0.475,-1.148c0.227,-0.517 0.412,-0.884 0.544,-1.07c0.097,-0.137 0.169,-0.186 0.209,-0.137c0,0 -5.352,-13.848 -9.409,-17.426Z" style="fill:#efeeee;fill-rule:nonzero;"/><path d="M127.167,289.927l-37.61,0c0.32,-4.88 0.865,-9.342 1.585,-13.422l27.832,0c1.709,2.803 3.629,5.941 5.633,9.228c0.84,1.378 1.695,2.78 2.56,4.194Z" style="fill:#9c78b6;fill-rule:nonzero;"/><path d="M204.559,289.927l-37.024,0c0.864,-1.414 1.719,-2.816 2.559,-4.194c2.004,-3.287 3.924,-6.425 5.633,-9.228l27.417,0c0.85,4.981 1.245,9.616 1.415,13.422Z" style="fill:#9c78b6;fill-rule:nonzero;"/><path d="M139.927,293.804c-0.407,-1.276 -0.819,-2.571 -1.237,-3.877c-1.401,-4.403 -2.852,-8.948 -4.297,-13.422c-0.852,-2.649 -1.698,-5.274 -2.534,-7.827c-0.11,-0.346 -0.225,-0.692 -0.34,-1.032c-0.045,-0.15 -0.089,-0.292 -0.138,-0.442c-0.066,-0.191 -0.132,-0.394 -0.193,-0.59c-0.06,-0.173 -0.115,-0.346 -0.169,-0.519c-0.056,-0.162 -0.105,-0.322 -0.16,-0.478c-0.061,-0.19 -0.127,-0.375 -0.187,-0.567c-0.044,-0.154 -0.099,-0.309 -0.154,-0.465c-0.055,-0.173 -0.115,-0.352 -0.17,-0.531c-0.05,-0.155 -0.099,-0.304 -0.149,-0.453c-0.065,-0.197 -0.131,-0.394 -0.192,-0.585c-0.038,-0.119 -0.077,-0.238 -0.121,-0.357c-0.066,-0.209 -0.137,-0.418 -0.203,-0.621c-0.033,-0.107 -0.072,-0.209 -0.099,-0.316c-0.368,-1.103 -0.731,-2.189 -1.083,-3.245l-0.043,-0.132c-0.083,-0.25 -0.165,-0.495 -0.242,-0.739l-0.055,-0.149c-0.078,-0.245 -0.16,-0.496 -0.248,-0.74l-0.044,-0.125c-0.082,-0.251 -0.164,-0.496 -0.242,-0.74l-0.044,-0.113c-0.082,-0.251 -0.164,-0.495 -0.247,-0.746l-0.022,-0.06c-0.549,-1.622 -1.066,-3.156 -1.561,-4.575l0,-0.006c-0.076,-0.239 -0.159,-0.465 -0.242,-0.693l-0.005,-0.029c-0.638,-1.825 -1.214,-3.454 -1.725,-4.844c-0.072,-0.197 -0.144,-0.388 -0.215,-0.579l-0.005,-0.018c-0.061,-0.16 -0.121,-0.322 -0.176,-0.477l0,-0.006c-0.248,-0.644 -0.467,-1.223 -0.671,-1.724c-0.175,-0.442 -0.34,-0.823 -0.478,-1.151c-0.231,-0.513 -0.626,-1.014 -0.764,-1.205c-4.533,5.536 -7.545,13.195 -7.545,13.195l4.16,3.586l2.336,2.004l-2.6,1.521l-7.946,4.647c0,0 3.302,4.934 7.996,11.926c1.879,2.803 3.989,5.941 6.193,9.228c0.924,1.378 1.863,2.78 2.814,4.194c2.22,3.305 4.485,6.669 6.677,9.926l8.293,0c-0.621,-1.956 -1.264,-3.979 -1.923,-6.049Z" style="fill:#6e5389;fill-rule:nonzero;"/><path d="M180.314,259.932l-2.599,-1.521l2.336,-2.004l4.165,-3.586c0,0 -3.017,-7.659 -7.551,-13.195c-0.132,0.191 -0.533,0.692 -0.759,1.205c-0.142,0.328 -0.302,0.709 -0.483,1.151c-0.198,0.501 -0.423,1.08 -0.665,1.724l0,0.006c-0.061,0.155 -0.121,0.317 -0.181,0.477l-0.006,0.018c-0.071,0.191 -0.143,0.382 -0.214,0.579c-0.512,1.39 -1.083,3.019 -1.72,4.844l-0.006,0.029c-0.088,0.228 -0.159,0.454 -0.241,0.693l0,0.006c-0.495,1.419 -1.017,2.953 -1.567,4.575l-0.016,0.06c-0.088,0.251 -0.171,0.495 -0.253,0.746l-0.038,0.113c-0.083,0.244 -0.166,0.489 -0.248,0.74l-0.039,0.125c-0.082,0.244 -0.17,0.495 -0.252,0.74l-0.05,0.149c-0.082,0.244 -0.165,0.489 -0.241,0.739l-0.05,0.132c-0.352,1.056 -0.709,2.142 -1.077,3.245c-0.033,0.107 -0.066,0.209 -0.099,0.316c-0.071,0.203 -0.137,0.412 -0.209,0.621c-0.038,0.119 -0.077,0.238 -0.115,0.357c-0.061,0.191 -0.132,0.388 -0.192,0.585c-0.05,0.149 -0.099,0.298 -0.149,0.453c-0.061,0.179 -0.116,0.358 -0.176,0.531c-0.049,0.156 -0.099,0.311 -0.154,0.465c-0.06,0.192 -0.121,0.377 -0.181,0.567c-0.055,0.156 -0.105,0.316 -0.159,0.478c-0.055,0.173 -0.11,0.346 -0.171,0.519c-0.066,0.196 -0.131,0.399 -0.192,0.59c-0.049,0.15 -0.094,0.292 -0.143,0.442c-0.116,0.34 -0.225,0.686 -0.335,1.032c-0.836,2.553 -1.687,5.178 -2.539,7.827c-1.446,4.474 -2.896,9.019 -4.298,13.422c-0.417,1.306 -0.83,2.601 -1.236,3.877c-0.66,2.07 -1.297,4.093 -1.918,6.049l8.293,0c2.187,-3.257 4.456,-6.621 6.677,-9.926c0.95,-1.414 1.89,-2.816 2.814,-4.194c2.203,-3.287 4.313,-6.425 6.193,-9.228c4.693,-6.992 7.996,-11.926 7.996,-11.926l-7.952,-4.647Z" style="fill:#6e5389;fill-rule:nonzero;"/><path d="M205.468,67.571c-6.153,-5.889 -13.943,-7.991 -13.943,-7.991c0,0 -17.221,-8.843 -30.339,-15.156c-13.118,-6.304 -34.446,-1.259 -45.512,1.683c-11.071,2.947 -24.258,19.097 -28.355,27.928c-4.093,8.847 -14.291,28.037 -17.563,41.913c-3.279,13.885 7.743,27.357 14.616,30.23c4.47,1.869 4.755,12.652 4.755,12.652c2.29,1.041 4.865,-0.669 4.915,-3.28c0.132,-6.764 0.679,-18.575 2.781,-28.588c1.357,-6.463 7.585,-10.589 13.71,-8.928c2.517,0.683 4.937,1.174 7.264,1.493c4.026,0.553 5.288,5.942 1.973,8.393c-0.635,0.469 -1.29,0.832 -1.963,1.034c0,0 9.794,2.881 23.124,-8.426c1.049,-0.471 2.068,-0.968 3.049,-1.513c-2.068,6.997 -7.282,9.4 -14.708,13.636c0,0 28.858,13.52 34.29,-37.863c0,0 6.119,-35.962 34.552,1.613c4.24,5.282 5.364,27.855 5.364,38.16c0,3.777 -1.147,12.742 -1.977,18.736c-0.33,2.381 2.097,4.113 4.101,2.933c0,0 0,-6.674 7.36,-10.849c5.857,-3.339 7.349,-14.685 7.349,-19.369c0,-31.333 -8.689,-52.548 -14.843,-58.441Z" style="fill:#36393a;fill-rule:nonzero;"/><path d="M157.106,150.422c-2.377,-4.045 -3.621,-7.384 -3.621,-7.384c-0.757,-2.04 -1.701,-3.245 -2.62,-3.945c-0.357,-2.283 -0.524,-4.422 -0.524,-6.442c0,-0.465 0.009,-0.92 0.026,-1.372c3.299,-1.005 6.839,-4.252 6.839,-4.252c4.737,-2.833 9.571,-4.835 14.319,-6.213c-1.724,0.634 -3.136,1.49 -4.198,2.262c-0.007,0.004 -0.013,0.009 -0.02,0.014c-1.115,0.639 -2.227,1.383 -3.325,2.225c-3.069,2.353 -4.596,4.637 -4.711,4.813l-0.029,0.041c-0.518,0.798 -0.406,1.866 0.264,2.538c0.381,0.386 0.888,0.596 1.427,0.596l0.001,0c0.54,0 1.046,-0.212 1.426,-0.596l0.017,-0.017c0.102,-0.102 0.859,-0.842 2.217,-1.892c-0.863,6.149 -0.822,14.118 -0.756,17.469c-0.865,0.233 -1.732,0.483 -2.601,0.752c-0.29,0.091 -0.576,0.181 -0.867,0.277c-0.193,0.062 -0.383,0.124 -0.576,0.188c-0.127,0.039 -0.25,0.081 -0.375,0.122c-0.366,0.121 -0.733,0.248 -1.103,0.381c-0.402,0.14 -0.807,0.285 -1.21,0.435Zm45.177,-3.014c-0.037,-0.008 -0.074,-0.015 -0.111,-0.023c-0.329,-0.067 -0.662,-0.133 -0.994,-0.195c-0.333,-0.064 -0.666,-0.129 -1.003,-0.188c-0.335,-0.06 -0.671,-0.122 -1.007,-0.179c-0.617,-0.104 -1.239,-0.204 -1.866,-0.295l-0.231,-0.038c-0.248,-0.036 -0.497,-0.072 -0.752,-0.105c-0.336,-0.048 -0.674,-0.093 -1.011,-0.136c-0.237,-0.031 -0.474,-0.062 -0.714,-0.088c-0.183,-0.021 -0.369,-0.043 -0.555,-0.065c-0.369,-0.042 -0.738,-0.081 -1.108,-0.116c-0.146,-0.017 -0.293,-0.031 -0.443,-0.043c-0.307,-0.031 -0.617,-0.057 -0.925,-0.081c-0.333,-0.031 -0.666,-0.059 -0.997,-0.078c-0.225,-0.02 -0.448,-0.034 -0.672,-0.051c-0.467,-0.028 -0.932,-0.057 -1.401,-0.074c-0.05,-0.002 -0.099,-0.005 -0.149,-0.008c4.137,-6.479 6.428,-15.875 6.428,-15.875c-0.006,-0.006 -0.011,-0.011 -0.017,-0.018c0.007,-0.029 0.011,-0.044 0.011,-0.044c-2.178,-2.345 -4.268,-4.181 -6.258,-5.599c0.427,0.053 0.844,0.136 1.253,0.218c0.34,0.068 0.673,0.133 1.001,0.181c1.401,0.206 2.595,0.522 3.555,0.777c0.25,0.067 0.485,0.128 0.708,0.185l4.636,1.089l-4.061,-2.551c-0.266,-0.141 -0.56,-0.321 -0.883,-0.52c-0.845,-0.517 -1.896,-1.16 -3.187,-1.603c-1.905,-0.839 -4.104,-1.509 -6.386,-1.942c-1.771,-0.239 -3.398,-0.357 -4.914,-0.357c-0.99,0 -1.933,0.05 -2.838,0.151c-0.289,0.04 -0.579,0.084 -0.87,0.134c-0.779,0.014 -1.524,0.088 -2.232,0.207c5.927,-1.439 11.66,-1.953 16.82,-1.953c4.416,0 8.415,0.376 11.762,0.869c0.441,5.882 0.606,11.623 0.606,15.567c0,2.66 -0.569,7.891 -1.195,12.847Z" style="fill:#31302e;fill-rule:nonzero;"/><path d="M164.549,148.078c0.201,-6.969 0.978,-15.377 3.43,-17.115c1.995,-1.461 5.243,-3.22 9.493,-3.22c4.281,0 9.579,1.783 15.644,7.449c1.011,-2.869 1.558,-5.1 1.639,-5.44c0.006,0.007 0.011,0.012 0.017,0.018c0,0 -2.291,9.396 -6.428,15.875c-0.342,-0.017 -0.685,-0.031 -1.028,-0.042l-0.102,-0.002c-0.436,-0.019 -0.87,-0.026 -1.306,-0.035l-0.062,0c-0.459,-0.01 -0.919,-0.013 -1.379,-0.013c-0.298,0 -0.598,0.003 -0.896,0.005c-0.203,0 -0.403,0.003 -0.605,0.01c-0.012,0 -0.023,0 -0.034,0c1.556,-1.508 2.524,-3.62 2.524,-5.958c0,-4.58 -3.714,-8.293 -8.294,-8.293c-4.581,0 -8.294,3.713 -8.294,8.293c0,2.839 1.426,5.344 3.601,6.839c-0.128,0.02 -0.257,0.039 -0.386,0.059c-0.243,0.039 -0.488,0.08 -0.731,0.122c-0.1,0.014 -0.203,0.029 -0.307,0.05c-0.195,0.034 -0.396,0.067 -0.593,0.103c-0.19,0.033 -0.381,0.071 -0.575,0.104c-0.383,0.072 -0.766,0.146 -1.155,0.227c-0.574,0.114 -1.153,0.238 -1.734,0.371c-0.229,0.053 -0.46,0.103 -0.689,0.16c-0.14,0.031 -0.278,0.065 -0.417,0.098c-0.257,0.064 -0.519,0.126 -0.778,0.193c-0.185,0.046 -0.37,0.094 -0.555,0.142Z" style="fill:#323132;fill-rule:nonzero;"/><path d="M163.838,148.267c-0.066,-3.351 -0.107,-11.32 0.756,-17.469c0.615,-0.476 1.354,-1.015 2.211,-1.588c1.381,-1.014 3.18,-1.905 5.049,-2.801c1.994,-0.922 4.16,-1.602 6.294,-1.971c1.783,-0.411 3.806,-0.605 6.144,-0.605c0.154,0 0.309,0.001 0.465,0.003l1.023,0.072c0.742,0.054 1.464,0.105 2.172,0.152c0.187,0.009 0.372,0.027 0.556,0.049c1.99,1.418 4.08,3.254 6.258,5.599c0,0 -0.004,0.015 -0.011,0.044c-0.081,0.34 -0.628,2.571 -1.639,5.44c-6.065,-5.666 -11.363,-7.449 -15.644,-7.449c-4.25,0 -7.498,1.759 -9.493,3.22c-2.452,1.738 -3.229,10.146 -3.43,17.115c-0.13,0.034 -0.259,0.069 -0.389,0.103c-0.108,0.028 -0.215,0.057 -0.322,0.086Zm3.469,-25.177c0.007,-0.005 0.013,-0.01 0.02,-0.014c1.062,-0.772 2.474,-1.628 4.198,-2.262c0.926,-0.269 1.848,-0.514 2.765,-0.736c0.708,-0.119 1.453,-0.193 2.232,-0.207c-2.24,0.379 -4.529,1.046 -6.674,1.947c-0.846,0.362 -1.694,0.787 -2.541,1.272Z" style="fill:#302e2d;fill-rule:nonzero;"/><path d="M172.469,146.449c-2.175,-1.495 -3.601,-4 -3.601,-6.839c0,-4.58 3.713,-8.293 8.294,-8.293c4.58,0 8.294,3.713 8.294,8.293c0,2.338 -0.968,4.45 -2.524,5.958c-0.144,0.001 -0.287,0.007 -0.43,0.009c-0.244,0.005 -0.489,0.012 -0.734,0.022c-0.269,0.009 -0.538,0.016 -0.808,0.028c-0.371,0.017 -0.746,0.034 -1.117,0.055c-0.57,0.033 -1.142,0.074 -1.715,0.119c-0.222,0.014 -0.439,0.033 -0.66,0.055c-0.203,0.014 -0.405,0.033 -0.61,0.055l-0.128,0.012c-0.244,0.023 -0.49,0.047 -0.737,0.073c-0.188,0.019 -0.379,0.041 -0.567,0.063l-0.158,0.016c-0.271,0.031 -0.547,0.065 -0.818,0.1c-0.659,0.082 -1.318,0.174 -1.981,0.274Zm1.894,-2.474c0.794,0.73 1.803,1.171 2.865,1.172c0.106,0 0.212,-0.005 0.32,-0.014c2.394,-0.197 4.233,-2.614 4.015,-5.271c-0.008,-0.091 -0.017,-0.181 -0.029,-0.27c0.423,-0.305 0.677,-0.768 0.637,-1.263c-0.064,-0.77 -0.804,-1.342 -1.689,-1.342c-0.025,0 -0.05,0.001 -0.075,0.002c-0.843,-1.027 -2.053,-1.676 -3.343,-1.676c-0.106,0 -0.213,0.004 -0.32,0.013c-2.395,0.198 -4.231,2.611 -4.019,5.268c0.068,0.829 0.33,1.603 0.731,2.268c-0.103,0.134 -0.157,0.296 -0.143,0.466c0.033,0.38 0.403,0.667 0.843,0.667c0.029,0 0.058,-0.001 0.087,-0.003c0.041,-0.004 0.081,-0.009 0.12,-0.017Z" style="fill:#221e1d;fill-rule:nonzero;"/><path d="M177.228,145.147c-1.062,-0.001 -2.071,-0.442 -2.865,-1.172c0.336,-0.067 0.595,-0.298 0.671,-0.577c0.636,0.501 1.388,0.785 2.095,0.785c0.071,0 0.141,-0.003 0.211,-0.008c1.667,-0.142 3.397,-1.971 3.214,-4.224c-0.001,-0.001 -0.001,-0.002 -0.001,-0.003l0.001,0c0.373,-0.032 0.711,-0.161 0.98,-0.356c0.012,0.089 0.021,0.179 0.029,0.27c0.218,2.657 -1.621,5.074 -4.015,5.271c-0.108,0.009 -0.214,0.014 -0.32,0.014Zm-3.772,-2.285c-0.401,-0.665 -0.663,-1.439 -0.731,-2.268c-0.212,-2.657 1.624,-5.07 4.019,-5.268c0.107,-0.009 0.214,-0.013 0.32,-0.013c1.29,0 2.5,0.649 3.343,1.676c-0.031,0.001 -0.063,0.003 -0.094,0.005c-0.38,0.031 -0.724,0.163 -0.996,0.362c-0.693,-0.671 -1.581,-1.061 -2.411,-1.061c-0.07,0 -0.14,0.002 -0.209,0.008c-1.668,0.142 -3.393,1.979 -3.209,4.231c0.061,0.754 0.326,1.425 0.713,1.981c-0.026,0 -0.051,0.001 -0.077,0.003c-0.282,0.022 -0.523,0.155 -0.668,0.344Z" style="fill:#292321;fill-rule:nonzero;"/><path d="M177.129,144.183c-0.707,0 -1.459,-0.284 -2.095,-0.785c0.018,-0.07 0.026,-0.142 0.02,-0.216c-0.033,-0.38 -0.402,-0.667 -0.842,-0.667c-0.004,0 -0.008,0 -0.011,0c-0.387,-0.556 -0.652,-1.227 -0.713,-1.981c-0.184,-2.252 1.541,-4.089 3.209,-4.231c0.069,-0.006 0.139,-0.008 0.209,-0.008c0.83,0 1.718,0.39 2.411,1.061c-0.416,0.305 -0.666,0.766 -0.627,1.261c0.065,0.766 0.809,1.338 1.694,1.338c0.056,0 0.112,-0.002 0.169,-0.007c0,0.001 0,0.002 0.001,0.003c0.183,2.253 -1.547,4.082 -3.214,4.224c-0.07,0.005 -0.14,0.008 -0.211,0.008Z" style="fill:#1b1c1c;fill-rule:nonzero;"/><path d="M180.384,139.955c-0.885,0 -1.629,-0.572 -1.694,-1.338c-0.039,-0.495 0.211,-0.956 0.627,-1.261c0.272,-0.199 0.616,-0.331 0.996,-0.362c0.031,-0.002 0.063,-0.004 0.094,-0.005c0.025,-0.001 0.05,-0.002 0.075,-0.002c0.885,0 1.625,0.572 1.689,1.342c0.04,0.495 -0.214,0.958 -0.637,1.263c-0.269,0.195 -0.607,0.324 -0.98,0.356l-0.001,0c-0.057,0.005 -0.113,0.007 -0.169,0.007Z" style="fill:#323132;fill-rule:nonzero;"/><path d="M174.156,143.995c-0.44,0 -0.81,-0.287 -0.843,-0.667c-0.014,-0.17 0.04,-0.332 0.143,-0.466c0.145,-0.189 0.386,-0.322 0.668,-0.344c0.026,-0.002 0.051,-0.003 0.077,-0.003c0.003,0 0.007,0 0.011,0c0.44,0 0.809,0.287 0.842,0.667c0.006,0.074 -0.002,0.146 -0.02,0.216c-0.076,0.279 -0.335,0.51 -0.671,0.577c-0.039,0.008 -0.079,0.013 -0.12,0.017c-0.029,0.002 -0.058,0.003 -0.087,0.003Z" style="fill:#323132;fill-rule:nonzero;"/><path d="M160.934,133.303l-0.001,0c-0.539,0 -1.046,-0.21 -1.427,-0.596c-0.67,-0.672 -0.782,-1.74 -0.264,-2.538l0.029,-0.041c0.115,-0.176 1.642,-2.46 4.711,-4.813c1.098,-0.842 2.21,-1.586 3.325,-2.225c0.847,-0.485 1.695,-0.91 2.541,-1.272c2.145,-0.901 4.434,-1.568 6.674,-1.947c0.291,-0.05 0.581,-0.094 0.87,-0.134c0.905,-0.101 1.848,-0.151 2.838,-0.151c1.516,0 3.143,0.118 4.914,0.357c2.282,0.433 4.481,1.103 6.386,1.942c1.291,0.443 2.342,1.086 3.187,1.603c0.323,0.199 0.617,0.379 0.883,0.52l4.061,2.551l-4.636,-1.089c-0.223,-0.057 -0.458,-0.118 -0.708,-0.185c-0.96,-0.255 -2.154,-0.571 -3.555,-0.777c-0.328,-0.048 -0.661,-0.113 -1.001,-0.181c-0.409,-0.082 -0.826,-0.165 -1.253,-0.218c-0.184,-0.022 -0.369,-0.04 -0.556,-0.049c-0.708,-0.047 -1.43,-0.098 -2.172,-0.152l-1.023,-0.072c-0.156,-0.002 -0.311,-0.003 -0.465,-0.003c-2.338,0 -4.361,0.194 -6.144,0.605c-2.134,0.369 -4.3,1.049 -6.294,1.971c-1.869,0.896 -3.668,1.787 -5.049,2.801c-0.857,0.573 -1.596,1.112 -2.211,1.588c-1.358,1.05 -2.115,1.79 -2.217,1.892l-0.017,0.017c-0.38,0.384 -0.886,0.596 -1.426,0.596Z" style="fill:#17191a;fill-rule:nonzero;"/><path d="M207.385,148.598l-0.087,-0.024c-0.4,-0.105 -0.805,-0.207 -1.209,-0.305c-0.244,-0.06 -0.49,-0.121 -0.734,-0.179c-0.165,-0.037 -0.329,-0.078 -0.493,-0.114l-0.079,-0.019c-0.827,-0.196 -1.659,-0.377 -2.5,-0.549c0.626,-4.956 1.195,-10.187 1.195,-12.847c0,-3.944 -0.165,-9.685 -0.606,-15.567c6.401,0.945 10.418,2.319 10.418,2.319c2.251,0.953 1.298,6.926 1.298,6.926c-2.596,2.249 -3.461,5.365 -3.461,5.365c-0.853,6.115 -2.178,11.035 -3.742,14.994Z" style="fill:#1e2121;fill-rule:nonzero;"/><path d="M200.379,159.859c0.31,-2.532 0.655,-4.747 1.052,-6.274c0.021,-0.081 0.043,-0.165 0.064,-0.246c-0.179,1.433 0.64,2.625 1.757,3.076c-0.953,1.353 -1.922,2.489 -2.873,3.444Z" style="fill:#4a423f;fill-rule:nonzero;"/><path d="M182.846,165.845c-9.111,0 -14.474,-3.332 -14.474,-3.332c-4.943,-2.718 -8.741,-7.795 -11.266,-12.085c0.403,-0.153 0.808,-0.298 1.21,-0.441c0.37,-0.133 0.737,-0.26 1.103,-0.381c0.125,-0.041 0.248,-0.083 0.375,-0.122c0.193,-0.064 0.383,-0.126 0.576,-0.188c0.291,-0.096 0.577,-0.186 0.867,-0.277c0.869,-0.269 1.736,-0.519 2.601,-0.752c0.019,1.006 0.041,1.597 0.041,1.597c0,0 0.003,0.001 0.009,0.002c0.002,0.04 0.002,0.06 0.002,0.06c0,0 5.824,2.085 12.464,2.085c1.669,0 3.39,-0.131 5.083,-0.461c2.67,-0.521 4.987,-2.899 6.907,-5.905c0.05,0.003 0.099,0.006 0.149,0.008c0.469,0.017 0.934,0.046 1.401,0.074c0.224,0.017 0.447,0.031 0.672,0.051c0.331,0.019 0.664,0.047 0.997,0.078c0.308,0.024 0.618,0.05 0.925,0.081c0.15,0.012 0.297,0.026 0.443,0.043c0.37,0.035 0.739,0.074 1.108,0.116c0.186,0.022 0.372,0.044 0.555,0.065c0.24,0.026 0.477,0.057 0.714,0.088c0.337,0.043 0.675,0.088 1.011,0.136c0.255,0.033 0.504,0.069 0.752,0.105l0.231,0.038c0.627,0.091 1.249,0.191 1.866,0.295c0.336,0.057 0.672,0.119 1.007,0.179c0.337,0.059 0.67,0.124 1.003,0.188c0.332,0.062 0.665,0.128 0.994,0.195c0.037,0.008 0.074,0.015 0.111,0.023c-0.263,2.082 -0.537,4.115 -0.782,5.889c-0.002,0.014 -0.004,0.028 -0.006,0.042c-0.021,0.081 -0.043,0.165 -0.064,0.246c-0.397,1.527 -0.742,3.742 -1.052,6.274c-4.57,4.59 -8.724,4.988 -8.724,4.988c-3.224,0.719 -6.173,0.998 -8.809,0.998Z" style="fill:#4c4641;fill-rule:nonzero;"/><path d="M176.354,152.011c-6.64,0 -12.464,-2.085 -12.464,-2.085c0,0 0,-0.02 -0.002,-0.06c0.044,0.014 0.239,0.076 0.617,0.234c0.01,-0.654 0.024,-1.331 0.044,-2.022c0.185,-0.048 0.37,-0.096 0.555,-0.142c0.259,-0.067 0.521,-0.129 0.778,-0.193c0.139,-0.033 0.277,-0.067 0.417,-0.098c0.229,-0.057 0.46,-0.107 0.689,-0.16c0.581,-0.133 1.16,-0.257 1.734,-0.371c0.389,-0.081 0.772,-0.155 1.155,-0.227c0.194,-0.033 0.385,-0.071 0.575,-0.104c0.197,-0.036 0.398,-0.069 0.593,-0.103c0.104,-0.021 0.207,-0.036 0.307,-0.05c0.243,-0.042 0.488,-0.083 0.731,-0.122c0.129,-0.02 0.258,-0.039 0.386,-0.059c1.335,0.917 2.951,1.454 4.693,1.454c2.242,0 4.277,-0.89 5.77,-2.335c0.011,0 0.022,0 0.034,0c0.202,-0.007 0.402,-0.01 0.605,-0.01c0.298,-0.002 0.598,-0.005 0.896,-0.005c0.46,0 0.92,0.003 1.379,0.013l0.062,0c0.436,0.009 0.87,0.016 1.306,0.035l0.102,0.002c0.343,0.011 0.686,0.025 1.028,0.042c-1.92,3.006 -4.237,5.384 -6.907,5.905c-1.693,0.33 -3.414,0.461 -5.083,0.461Z" style="fill:#4d4c4c;fill-rule:nonzero;"/><path d="M164.505,150.1c-0.378,-0.158 -0.573,-0.22 -0.617,-0.234c-0.006,-0.001 -0.009,-0.002 -0.009,-0.002c0,0 -0.022,-0.591 -0.041,-1.597c0.107,-0.029 0.214,-0.058 0.322,-0.086c0.13,-0.034 0.259,-0.069 0.389,-0.103c-0.02,0.691 -0.034,1.368 -0.044,2.022Z" style="fill:#49423f;fill-rule:nonzero;"/><path d="M177.162,147.903c-1.742,0 -3.358,-0.537 -4.693,-1.454c0.663,-0.1 1.322,-0.192 1.981,-0.274c0.271,-0.035 0.547,-0.069 0.818,-0.1l0.158,-0.016c0.188,-0.022 0.379,-0.044 0.567,-0.063c0.247,-0.026 0.493,-0.05 0.737,-0.073l0.128,-0.012c0.205,-0.022 0.407,-0.041 0.61,-0.055c0.221,-0.022 0.438,-0.041 0.66,-0.055c0.573,-0.045 1.145,-0.086 1.715,-0.119c0.371,-0.021 0.746,-0.038 1.117,-0.055c0.27,-0.012 0.539,-0.019 0.808,-0.028c0.245,-0.01 0.49,-0.017 0.734,-0.022c0.143,-0.002 0.286,-0.008 0.43,-0.009c-1.493,1.445 -3.528,2.335 -5.77,2.335Z" style="fill:#2a1f1c;fill-rule:nonzero;"/><path d="M203.252,156.415c-1.117,-0.451 -1.936,-1.643 -1.757,-3.076c0.002,-0.014 0.004,-0.028 0.006,-0.042c0.245,-1.774 0.519,-3.807 0.782,-5.889c0.841,0.172 1.673,0.353 2.5,0.549l0.079,0.019c0.164,0.036 0.328,0.077 0.493,0.114c0.244,0.058 0.49,0.119 0.734,0.179c0.404,0.098 0.809,0.2 1.209,0.305l0.087,0.024c-1.261,3.188 -2.679,5.754 -4.133,7.817Z" style="fill:#232627;fill-rule:nonzero;"/><path d="M140.099,151.211l-0.029,-0.009c-0.368,-0.131 -0.738,-0.26 -1.105,-0.381c-0.314,-0.106 -0.631,-0.208 -0.948,-0.31c-0.191,-0.062 -0.381,-0.124 -0.569,-0.184l-0.3,-0.092c-0.977,-0.303 -1.951,-0.582 -2.924,-0.839c-0.314,-0.084 -0.629,-0.167 -0.943,-0.246c-0.13,-0.032 -0.259,-0.064 -0.388,-0.096c0.059,-2.915 0.106,-9.584 -0.491,-15.387c1.355,0.32 3.079,0.592 5.019,0.592c3.055,0 6.65,-0.674 10.203,-2.894c0.114,0.03 0.228,0.057 0.342,0.081l0.004,0.076c0.138,2.082 0.093,4.293 -0.166,6.663c-0.013,0.112 -0.024,0.224 -0.039,0.336c-1.181,0.527 -2.547,1.758 -3.571,4.517c0,0 -1.407,3.785 -4.095,8.173Zm-45.833,-2.193c0.323,-6.549 1.029,-14.778 2.557,-22.056c0.912,-4.34 4.019,-7.626 7.817,-8.813c0.633,-0.016 1.278,-0.024 1.929,-0.024c1.585,0 3.225,0.048 4.906,0.157c2.18,0.555 4.287,0.966 6.322,1.245c0.164,0.023 0.322,0.053 0.476,0.091c-0.433,-0.021 -0.875,-0.032 -1.328,-0.032c-1.52,0 -3.157,0.12 -4.949,0.361c-2.255,0.429 -4.453,1.099 -6.32,1.922c-1.331,0.459 -2.382,1.103 -3.226,1.62c-0.324,0.199 -0.617,0.378 -0.914,0.538l-4.026,2.531l4.64,-1.09c0.216,-0.055 0.449,-0.116 0.701,-0.183c0.959,-0.255 2.153,-0.571 3.554,-0.777c0.328,-0.048 0.661,-0.113 1.001,-0.181c0.584,-0.117 1.187,-0.237 1.82,-0.267c0.029,-0.002 0.058,-0.004 0.087,-0.006c-2.312,1.5 -4.767,3.563 -7.346,6.339c0,0 0.004,0.015 0.011,0.044c-0.006,0.006 -0.011,0.012 -0.017,0.018c0,0 2.435,9.989 6.819,16.47c-0.096,0.006 -0.191,0.011 -0.286,0.017c-0.224,0.017 -0.449,0.031 -0.672,0.05c-0.334,0.022 -0.668,0.048 -0.999,0.079c-0.309,0.024 -0.616,0.049 -0.926,0.081c-0.148,0.012 -0.296,0.026 -0.442,0.043c-0.368,0.036 -0.737,0.076 -1.107,0.117c-0.188,0.021 -0.371,0.042 -0.557,0.064c-0.238,0.026 -0.474,0.057 -0.713,0.088c-0.335,0.043 -0.676,0.088 -1.012,0.135c-0.253,0.034 -0.505,0.07 -0.753,0.106l-0.229,0.038c-0.626,0.09 -1.25,0.19 -1.867,0.295c-0.336,0.057 -0.672,0.119 -1.008,0.179c-0.336,0.059 -0.667,0.123 -1.001,0.188c-0.333,0.062 -0.664,0.129 -0.995,0.195c-0.652,0.133 -1.302,0.271 -1.947,0.418Zm37.812,-17.954c-0.036,-0.245 -0.075,-0.488 -0.114,-0.727c0.21,0.156 0.409,0.308 0.597,0.453c-0.159,0.091 -0.32,0.182 -0.483,0.274Zm4.448,-2.665c-0.701,-0.783 -1.673,-1.756 -2.926,-2.758c0.668,-0.367 1.35,-0.768 2.047,-1.208c1.215,0.582 2.424,1.213 3.63,1.897c-0.834,0.729 -1.754,1.407 -2.751,2.069Z" style="fill:#302e2d;fill-rule:nonzero;"/><path d="M132.187,148.884c-0.033,-0.008 -0.066,-0.015 -0.099,-0.021c-0.231,-0.06 -0.46,-0.11 -0.692,-0.163c-0.58,-0.133 -1.157,-0.257 -1.734,-0.371c-0.386,-0.081 -0.769,-0.155 -1.155,-0.226c-0.193,-0.034 -0.384,-0.07 -0.574,-0.103c-0.196,-0.038 -0.396,-0.072 -0.594,-0.105c-0.102,-0.019 -0.204,-0.036 -0.304,-0.05c-0.245,-0.043 -0.491,-0.081 -0.732,-0.121c-0.793,-0.125 -1.579,-0.236 -2.365,-0.334c-0.019,-0.002 -0.038,-0.005 -0.058,-0.007c2.389,-1.456 3.984,-4.086 3.984,-7.088c0,-4.58 -3.713,-8.293 -8.293,-8.293c-4.581,0 -8.294,3.713 -8.294,8.293c0,2.62 1.214,4.955 3.11,6.475c-0.156,-0.001 -0.312,-0.001 -0.467,-0.001c-0.459,0 -0.919,0.002 -1.379,0.011l-0.064,0c-0.437,0.01 -0.867,0.017 -1.303,0.036l-0.103,0.003c-0.393,0.011 -0.788,0.028 -1.177,0.05c-0.373,0.012 -0.744,0.033 -1.114,0.056c-4.384,-6.481 -6.819,-16.47 -6.819,-16.47c0.006,-0.006 0.011,-0.012 0.017,-0.018c0.081,0.34 0.628,2.571 1.639,5.441c5.939,-5.549 11.143,-7.374 15.377,-7.447c-0.389,0.224 -0.785,0.402 -1.187,0.523c0,0 1.116,0.329 3.106,0.329c0.792,0 1.721,-0.052 2.773,-0.197c2.127,0.645 3.836,1.66 5.068,2.562c0.282,0.2 0.542,0.488 0.782,0.853c-0.088,0.05 -0.176,0.1 -0.264,0.15c0,0 0.166,0.078 0.474,0.199c1.691,3.042 2.274,10.083 2.441,16.034Z" style="fill:#323132;fill-rule:nonzero;"/><path d="M132.893,149.054c-0.13,-0.032 -0.26,-0.064 -0.389,-0.096c-0.107,-0.026 -0.212,-0.051 -0.317,-0.074c-0.167,-5.951 -0.75,-12.992 -2.441,-16.034c0.518,0.203 1.44,0.529 2.656,0.817c0.597,5.803 0.55,12.472 0.491,15.387Zm-29.276,-13.176c-1.011,-2.87 -1.558,-5.101 -1.639,-5.441c-0.007,-0.029 -0.011,-0.044 -0.011,-0.044c2.579,-2.776 5.034,-4.839 7.346,-6.339c0.675,-0.045 1.375,-0.095 2.093,-0.147l0.974,-0.07c0.182,-0.002 0.363,-0.004 0.541,-0.004c2.335,0 4.334,0.198 6.126,0.61c0.842,0.146 1.694,0.342 2.54,0.583c-0.202,1.093 -0.79,2.134 -1.817,2.894c-0.256,0.188 -0.514,0.36 -0.776,0.511c-4.234,0.073 -9.438,1.898 -15.377,7.447Zm25.919,-3.377c-0.24,-0.365 -0.5,-0.653 -0.782,-0.853c-1.232,-0.902 -2.941,-1.917 -5.068,-2.562c1.367,-0.188 2.942,-0.533 4.691,-1.125c0.724,0.403 1.4,0.82 2.003,1.263c0.582,0.388 1.111,0.763 1.584,1.113c0.039,0.239 0.078,0.482 0.114,0.727c-0.814,0.461 -1.663,0.937 -2.542,1.437Z" style="fill:#302e2d;fill-rule:nonzero;"/><path d="M123.88,147.383c-0.255,-0.033 -0.509,-0.064 -0.764,-0.093l-0.157,-0.017c-0.187,-0.021 -0.377,-0.042 -0.566,-0.061c-0.247,-0.027 -0.492,-0.05 -0.738,-0.075l-0.125,-0.011c-0.208,-0.022 -0.41,-0.041 -0.612,-0.055c-0.223,-0.021 -0.44,-0.041 -0.661,-0.055c-0.574,-0.045 -1.146,-0.086 -1.715,-0.119c-0.372,-0.019 -0.743,-0.038 -1.115,-0.052c-0.269,-0.015 -0.538,-0.022 -0.808,-0.031c-0.245,-0.01 -0.49,-0.017 -0.736,-0.022c-0.155,-0.002 -0.307,-0.009 -0.462,-0.009c-0.203,-0.005 -0.403,-0.01 -0.605,-0.01c-0.143,-0.001 -0.286,-0.002 -0.429,-0.003c-1.896,-1.52 -3.11,-3.855 -3.11,-6.475c0,-4.58 3.713,-8.293 8.294,-8.293c4.58,0 8.293,3.713 8.293,8.293c0,3.002 -1.595,5.632 -3.984,7.088Zm-8.682,-7.106c-0.011,0.089 -0.021,0.179 -0.028,0.27c-0.218,2.657 1.62,5.074 4.016,5.272c0.107,0.009 0.213,0.013 0.319,0.013c1.062,0 2.071,-0.442 2.865,-1.172c0.039,0.008 0.079,0.013 0.119,0.017c0.029,0.002 0.058,0.003 0.087,0.003c0.44,0 0.811,-0.287 0.844,-0.667c0.014,-0.17 -0.041,-0.332 -0.143,-0.466c0.401,-0.665 0.663,-1.438 0.731,-2.268c0.212,-2.656 -1.624,-5.07 -4.019,-5.268c-0.108,-0.009 -0.214,-0.013 -0.321,-0.013c-1.289,0 -2.5,0.649 -3.342,1.676c-0.025,-0.001 -0.05,-0.002 -0.075,-0.002c-0.885,0 -1.625,0.573 -1.69,1.342c-0.039,0.495 0.215,0.958 0.637,1.263Z" style="fill:#221e1d;fill-rule:nonzero;"/><path d="M119.505,145.832c-0.106,0 -0.212,-0.004 -0.319,-0.013c-2.396,-0.198 -4.234,-2.615 -4.016,-5.272c0.007,-0.091 0.017,-0.181 0.028,-0.27c0.27,0.195 0.608,0.324 0.981,0.356c0,0.001 0,0.002 0,0.003c-0.183,2.253 1.546,4.082 3.213,4.224c0.07,0.006 0.14,0.009 0.211,0.009c0.707,0 1.459,-0.285 2.096,-0.786c0.076,0.279 0.335,0.51 0.671,0.577c-0.794,0.73 -1.803,1.172 -2.865,1.172Zm3.772,-2.285c-0.146,-0.189 -0.387,-0.322 -0.669,-0.344c-0.025,-0.002 -0.051,-0.003 -0.076,-0.003c0.387,-0.555 0.652,-1.227 0.713,-1.98c0.184,-2.253 -1.542,-4.09 -3.21,-4.231c-0.069,-0.006 -0.139,-0.009 -0.21,-0.009c-0.829,0 -1.716,0.39 -2.41,1.061c-0.272,-0.199 -0.615,-0.331 -0.995,-0.362c-0.032,-0.002 -0.063,-0.004 -0.094,-0.005c0.842,-1.027 2.053,-1.676 3.342,-1.676c0.107,0 0.213,0.004 0.321,0.013c2.395,0.198 4.231,2.612 4.019,5.268c-0.068,0.83 -0.33,1.603 -0.731,2.268Z" style="fill:#292321;fill-rule:nonzero;"/><path d="M119.603,144.869c-0.071,0 -0.141,-0.003 -0.211,-0.009c-1.667,-0.142 -3.396,-1.971 -3.213,-4.224c0,-0.001 0,-0.002 0,-0.003c0.057,0.005 0.113,0.007 0.169,0.007c0.885,0 1.629,-0.571 1.694,-1.338c0.039,-0.494 -0.21,-0.956 -0.627,-1.261c0.694,-0.671 1.581,-1.061 2.41,-1.061c0.071,0 0.141,0.003 0.21,0.009c1.668,0.141 3.394,1.978 3.21,4.231c-0.061,0.753 -0.326,1.425 -0.713,1.98c-0.004,0 -0.007,0 -0.011,0c-0.44,0 -0.81,0.287 -0.843,0.667c-0.005,0.073 0.002,0.146 0.021,0.216c-0.637,0.501 -1.389,0.786 -2.096,0.786Z" style="fill:#1b1c1c;fill-rule:nonzero;"/><path d="M116.348,140.64c-0.056,0 -0.112,-0.002 -0.169,-0.007c-0.373,-0.032 -0.711,-0.161 -0.981,-0.356c-0.422,-0.305 -0.676,-0.768 -0.637,-1.263c0.065,-0.769 0.805,-1.342 1.69,-1.342c0.025,0 0.05,0.001 0.075,0.002c0.031,0.001 0.062,0.003 0.094,0.005c0.38,0.031 0.723,0.163 0.995,0.362c0.417,0.305 0.666,0.767 0.627,1.261c-0.065,0.767 -0.809,1.338 -1.694,1.338Z" style="fill:#323132;fill-rule:nonzero;"/><path d="M122.576,144.68c-0.029,0 -0.058,-0.001 -0.087,-0.003c-0.04,-0.004 -0.08,-0.009 -0.119,-0.017c-0.336,-0.067 -0.595,-0.298 -0.671,-0.577c-0.019,-0.07 -0.026,-0.143 -0.021,-0.216c0.033,-0.38 0.403,-0.667 0.843,-0.667c0.004,0 0.007,0 0.011,0c0.025,0 0.051,0.001 0.076,0.003c0.282,0.022 0.523,0.155 0.669,0.344c0.102,0.134 0.157,0.296 0.143,0.466c-0.033,0.38 -0.404,0.667 -0.844,0.667Z" style="fill:#323132;fill-rule:nonzero;"/><path d="M132.561,130.79c-0.188,-0.145 -0.387,-0.297 -0.597,-0.453c-0.473,-0.35 -1.002,-0.725 -1.584,-1.113c-0.603,-0.443 -1.279,-0.86 -2.003,-1.263c1.603,-0.543 3.352,-1.293 5.223,-2.32c1.253,1.002 2.225,1.975 2.926,2.758c-1.209,0.8 -2.533,1.577 -3.965,2.391Zm-35.051,-4.232l4.026,-2.531c0.297,-0.16 0.59,-0.339 0.914,-0.538c0.844,-0.517 1.895,-1.161 3.226,-1.62c1.867,-0.823 4.065,-1.493 6.32,-1.922c1.792,-0.241 3.429,-0.361 4.949,-0.361c0.453,0 0.895,0.011 1.328,0.032c2.467,0.605 3.738,3.119 3.314,5.408c-0.846,-0.241 -1.698,-0.437 -2.54,-0.583c-1.792,-0.412 -3.791,-0.61 -6.126,-0.61c-0.178,0 -0.359,0.002 -0.541,0.004l-0.974,0.07c-0.718,0.052 -1.418,0.102 -2.093,0.147c-0.029,0.002 -0.058,0.004 -0.087,0.006c-0.633,0.03 -1.236,0.15 -1.82,0.267c-0.34,0.068 -0.673,0.133 -1.001,0.181c-1.401,0.206 -2.595,0.522 -3.554,0.777c-0.252,0.067 -0.485,0.128 -0.701,0.183l-4.64,1.09Z" style="fill:#17191a;fill-rule:nonzero;"/><path d="M90.817,149.861c-1.792,-4.162 -3.319,-9.475 -4.265,-16.257c0,0 -0.864,-3.116 -3.461,-5.365c0,0 -0.953,-5.973 1.299,-6.926c0,0 8.398,-2.873 20.25,-3.164c-3.798,1.187 -6.905,4.473 -7.817,8.813c-1.528,7.278 -2.234,15.507 -2.557,22.056c-0.222,0.05 -0.443,0.102 -0.664,0.154l-0.245,0.057c-0.11,0.024 -0.218,0.05 -0.327,0.076c-0.245,0.057 -0.488,0.12 -0.731,0.179c-0.405,0.098 -0.811,0.2 -1.211,0.305c-0.09,0.024 -0.181,0.048 -0.271,0.072Zm46.604,-15.602c-1.94,0 -3.664,-0.272 -5.019,-0.592c-1.216,-0.288 -2.138,-0.614 -2.656,-0.817c-0.308,-0.121 -0.474,-0.199 -0.474,-0.199c0.088,-0.05 0.176,-0.1 0.264,-0.15c0.879,-0.5 1.728,-0.976 2.542,-1.437c0.163,-0.092 0.324,-0.183 0.483,-0.274c1.432,-0.814 2.756,-1.591 3.965,-2.391c0.997,-0.662 1.917,-1.34 2.751,-2.069c0.399,0.226 0.798,0.459 1.196,0.697c0,0 3.765,3.452 7.151,4.338c-3.553,2.22 -7.148,2.894 -10.203,2.894Zm-16.508,-4.976c-1.99,0 -3.106,-0.329 -3.106,-0.329c0.402,-0.121 0.798,-0.299 1.187,-0.523c0.262,-0.151 0.52,-0.323 0.776,-0.511c1.027,-0.76 1.615,-1.801 1.817,-2.894c0.424,-2.289 -0.847,-4.803 -3.314,-5.408c-0.154,-0.038 -0.312,-0.068 -0.476,-0.091c-2.035,-0.279 -4.142,-0.69 -6.322,-1.245c7.521,0.486 15.901,2.181 24.172,6.151c-0.697,0.44 -1.379,0.841 -2.047,1.208c-1.871,1.027 -3.62,1.777 -5.223,2.32c-1.749,0.592 -3.324,0.937 -4.691,1.125c-1.052,0.145 -1.981,0.197 -2.773,0.197Z" style="fill:#1e2121;fill-rule:nonzero;"/><path d="M94.367,156.329c-0.113,-0.162 -0.227,-0.329 -0.34,-0.497c0.008,-0.093 0.013,-0.187 0.015,-0.282c0.006,-0.284 0.012,-0.576 0.019,-0.877c0.106,0.507 0.208,1.062 0.306,1.656Z" style="fill:#48403c;fill-rule:nonzero;"/><path d="M114.834,165.845c-2.636,0 -5.584,-0.278 -8.808,-0.998c0,0 -6.11,-0.585 -11.659,-8.518c-0.098,-0.594 -0.2,-1.149 -0.306,-1.656c0.039,-1.659 0.103,-3.572 0.205,-5.655c0.645,-0.147 1.295,-0.285 1.947,-0.418c0.331,-0.066 0.662,-0.133 0.995,-0.195c0.334,-0.065 0.665,-0.129 1.001,-0.188c0.336,-0.06 0.672,-0.122 1.008,-0.179c0.617,-0.105 1.241,-0.205 1.867,-0.295l0.229,-0.038c0.248,-0.036 0.5,-0.072 0.753,-0.106c0.336,-0.047 0.677,-0.092 1.012,-0.135c0.239,-0.031 0.475,-0.062 0.713,-0.088c0.186,-0.022 0.369,-0.043 0.557,-0.064c0.37,-0.041 0.739,-0.081 1.107,-0.117c0.146,-0.017 0.294,-0.031 0.442,-0.043c0.31,-0.032 0.617,-0.057 0.926,-0.081c0.331,-0.031 0.665,-0.057 0.999,-0.079c0.223,-0.019 0.448,-0.033 0.672,-0.05c0.095,-0.006 0.19,-0.011 0.286,-0.017c1.84,2.721 4.024,4.824 6.516,5.31c1.693,0.33 3.414,0.461 5.083,0.461c6.64,0 12.464,-2.085 12.464,-2.085c0,0 0,-0.02 0.002,-0.06c0.006,-0.002 0.009,-0.002 0.009,-0.002c0,0 0.02,-0.55 0.039,-1.495c0.129,0.032 0.258,0.064 0.388,0.096c0.314,0.079 0.629,0.162 0.943,0.246c0.973,0.257 1.947,0.536 2.924,0.839l0.3,0.092c0.188,0.06 0.378,0.122 0.569,0.184c0.317,0.102 0.634,0.204 0.948,0.31c0.367,0.121 0.737,0.25 1.105,0.381l0.029,0.009c-2.511,4.112 -6.146,8.748 -10.791,11.302c0,0 -5.364,3.332 -14.474,3.332Z" style="fill:#4a443f;fill-rule:nonzero;"/><path d="M120.379,152.696c-1.669,0 -3.39,-0.131 -5.083,-0.461c-2.492,-0.486 -4.676,-2.589 -6.516,-5.31c0.37,-0.023 0.741,-0.044 1.114,-0.056c0.389,-0.022 0.784,-0.039 1.177,-0.05l0.103,-0.003c0.436,-0.019 0.866,-0.026 1.303,-0.036l0.064,0c0.46,-0.009 0.92,-0.011 1.379,-0.011c0.155,0 0.311,0 0.467,0.001c1.42,1.138 3.222,1.819 5.184,1.819c1.578,0 3.053,-0.441 4.309,-1.206c0.02,0.002 0.039,0.005 0.058,0.007c0.786,0.098 1.572,0.209 2.365,0.334c0.241,0.04 0.487,0.078 0.732,0.121c0.1,0.014 0.202,0.031 0.304,0.05c0.198,0.033 0.398,0.067 0.594,0.105c0.19,0.033 0.381,0.069 0.574,0.103c0.386,0.071 0.769,0.145 1.155,0.226c0.577,0.114 1.154,0.238 1.734,0.371c0.232,0.053 0.461,0.103 0.692,0.163c0.033,0.006 0.066,0.013 0.099,0.021c0.018,0.648 0.031,1.285 0.04,1.901c0.38,-0.158 0.576,-0.221 0.618,-0.234c-0.002,0.04 -0.002,0.06 -0.002,0.06c0,0 -5.824,2.085 -12.464,2.085Z" style="fill:#4d4c4c;fill-rule:nonzero;"/><path d="M132.227,150.785c-0.009,-0.616 -0.022,-1.253 -0.04,-1.901c0.105,0.023 0.21,0.048 0.317,0.074c0.129,0.032 0.259,0.064 0.389,0.096c-0.019,0.945 -0.039,1.495 -0.039,1.495c0,0 -0.003,0 -0.009,0.002c-0.042,0.013 -0.238,0.076 -0.618,0.234Z" style="fill:#49423f;fill-rule:nonzero;"/><path d="M119.571,148.589c-1.962,0 -3.764,-0.681 -5.184,-1.819c0.143,0.001 0.286,0.002 0.429,0.003c0.202,0 0.402,0.005 0.605,0.01c0.155,0 0.307,0.007 0.462,0.009c0.246,0.005 0.491,0.012 0.736,0.022c0.27,0.009 0.539,0.016 0.808,0.031c0.372,0.014 0.743,0.033 1.115,0.052c0.569,0.033 1.141,0.074 1.715,0.119c0.221,0.014 0.438,0.034 0.661,0.055c0.202,0.014 0.404,0.033 0.612,0.055l0.125,0.011c0.246,0.025 0.491,0.048 0.738,0.075c0.189,0.019 0.379,0.04 0.566,0.061l0.157,0.017c0.255,0.029 0.509,0.06 0.764,0.093c-1.256,0.765 -2.731,1.206 -4.309,1.206Z" style="fill:#2a1f1c;fill-rule:nonzero;"/><path d="M94.027,155.832c-1.117,-1.666 -2.205,-3.637 -3.21,-5.971c0.09,-0.024 0.181,-0.048 0.271,-0.072c0.4,-0.105 0.806,-0.207 1.211,-0.305c0.243,-0.059 0.486,-0.122 0.731,-0.179c0.109,-0.026 0.217,-0.052 0.327,-0.076l0.245,-0.057c0.221,-0.052 0.442,-0.104 0.664,-0.154c-0.102,2.083 -0.166,3.996 -0.205,5.655c-0.007,0.301 -0.013,0.593 -0.019,0.877c-0.002,0.095 -0.007,0.189 -0.015,0.282Z" style="fill:#232627;fill-rule:nonzero;"/><path d="M207.268,140.279l-0.055,0.217c-0.124,0.595 -0.822,3.747 -2.351,7.48c-2.037,4.972 -5.546,10.975 -11.138,13.35c-0.116,0.05 -0.238,0.093 -0.362,0.132c-2.287,0.681 -24.154,6.696 -32.708,-10.368l-0.081,-0.148c-0.103,-0.178 -0.391,-0.693 -0.78,-1.458c-2.067,-4.064 -6.932,-15.175 -1.143,-19.937c0,0 13.612,-10.999 38.827,-8.138c3.964,0.45 7.499,2.818 9.312,6.375c1.436,2.821 2.082,6.842 0.479,12.495Zm-69.82,10.048c-0.165,0.303 -0.284,0.515 -0.341,0.615l-0.078,0.148c-8.555,17.064 -30.425,11.049 -32.712,10.368c-0.124,-0.039 -0.245,-0.082 -0.362,-0.132c-5.129,-2.177 -8.505,-7.411 -10.599,-12.097c-1.906,-4.262 -2.751,-8.073 -2.889,-8.733l-0.055,-0.217c-1.601,-5.653 -0.958,-9.674 0.481,-12.495c1.811,-3.557 5.346,-5.925 9.312,-6.375c25.212,-2.861 38.825,8.138 38.825,8.138c6.258,5.148 0.064,17.717 -1.582,20.78Zm75.842,-29.013c0,0 -29.6,-10.127 -56.084,5.712c0,0 -3.54,3.247 -6.839,4.253c-0.517,0.157 -1.027,0.259 -1.518,0.286l-0.009,0c-0.286,-0.015 -0.579,-0.055 -0.874,-0.12c-3.469,-0.729 -7.493,-4.419 -7.493,-4.419c-26.484,-15.839 -56.084,-5.712 -56.084,-5.712c-2.251,0.953 -1.298,6.925 -1.298,6.925c2.597,2.249 3.461,5.365 3.461,5.365c0.946,6.782 2.473,12.095 4.265,16.257c6.075,14.11 15.208,14.986 15.208,14.986c14.368,3.205 23.283,-2.334 23.283,-2.334c4.645,-2.554 8.28,-7.19 10.791,-11.302c2.688,-4.388 4.095,-8.173 4.095,-8.173c1.025,-2.759 2.39,-3.991 3.571,-4.517c0.381,-0.169 0.744,-0.264 1.07,-0.314l0.009,0c0.589,0.09 1.299,0.331 2.021,0.886c0.919,0.7 1.863,1.905 2.62,3.945c0,0 1.244,3.34 3.621,7.385l0,0.005c2.525,4.29 6.323,9.367 11.266,12.085c0,0 8.915,5.539 23.282,2.334c0,0 9.672,-0.929 15.731,-16.249c1.564,-3.96 2.889,-8.879 3.742,-14.994c0,0 0.865,-3.116 3.461,-5.365c0,0 0.953,-5.972 -1.298,-6.925Z" style="fill:#fff;fill-rule:nonzero;"/></g></svg>