<?xml version="1.0" encoding="UTF-8" standalone="no"?><!DOCTYPE svg PUBLIC "-//W3C//DTD SVG 1.1//EN" "http://www.w3.org/Graphics/SVG/1.1/DTD/svg11.dtd"><svg width="100%" height="100%" viewBox="0 0 298 300" version="1.1" xmlns="http://www.w3.org/2000/svg" xmlns:xlink="http://www.w3.org/1999/xlink" xml:space="preserve" style="fill-rule:evenodd;clip-rule:evenodd;stroke-linejoin:round;stroke-miterlimit:1.41421;"><g id="_53"><g id="avatar1"><rect x="0.21" y="0.16" width="296.865" height="299.705" style="fill:#554467;fill-rule:nonzero;"/><path d="M158.583,74.107c6.223,3.374 12.399,8.732 14.954,8.732c2.554,0 1.95,0.943 13.653,3.126c11.657,2.183 16.998,1.588 31.952,16.968c14.907,15.381 14.815,55.568 14.815,55.568c0,0 -0.093,-7.987 -5.388,-15.132c-2.507,-3.423 -3.577,-5.061 -4.04,-5.855c1.486,2.977 7.337,15.728 7.059,29.472c-0.557,27.635 5.898,31.455 5.898,31.455c0,0 -3.948,-0.645 -9.474,-6.747c0.604,3.423 0.882,6.648 0.557,8.881c-4.644,29.322 5.016,39.295 5.016,39.295c0,0 -9.567,-5.954 -15.14,-17.316c-2.183,-4.465 -3.436,-8.881 -4.133,-12.751c-0.093,2.282 -0.279,4.813 -0.558,7.69c-1.346,14.339 8.917,25.105 8.917,25.105c0,0 -12.4,-4.763 -17.554,-14.735c-0.372,4.019 -0.511,7.988 -0.372,11.659c0.279,9.427 4.087,11.908 4.087,11.908c-5.434,-3.176 -8.638,-9.576 -10.728,-18.556c-0.883,-3.82 -1.579,-8.087 -2.136,-12.751c-3.205,9.327 -5.573,27.139 11.053,47.58c0,0 -17.137,-5.358 -24.475,-30.066c0,0 -26.889,14.884 -14.071,34.383c0,0 -28.329,-8.335 -33.345,-26.395l1.579,0.794c0,0 1.858,20.987 -21.084,27.536c0,0 13.839,-24.857 4.783,-34.482c0,0 -13.468,37.756 -35.109,37.111c0,0 19.459,-10.567 23.917,-37.459c0,-0.347 0.093,-16.422 -6.409,-22.177c0.79,1.934 1.115,4.465 1.161,7.293c1.393,14.239 -4.458,27.635 -4.458,27.635l0,-0.049c-1.068,2.679 -2.508,4.812 -4.273,6.4c0.558,-0.695 2.833,-3.969 2.276,-12.453c-0.232,-3.87 -0.79,-8.038 -1.44,-12.156c-3.483,10.767 -13.7,16.82 -13.7,16.82c0,0 7.802,-12.057 5.294,-26.793c-0.511,-2.976 -0.928,-5.606 -1.254,-7.987c-0.185,4.118 -0.836,8.781 -2.322,13.644c-3.715,12.205 -11.378,19.151 -11.378,19.151c0,0 7.338,-11.114 0.604,-41.18c-0.511,-2.283 -0.557,-5.607 -0.371,-9.179c-0.883,1.488 -1.812,2.679 -2.601,3.672c0.418,4.515 2.322,8.335 2.09,7.987c-0.233,-0.347 -1.997,-2.431 -3.994,-6.003c-1.811,1.737 -3.019,2.134 -3.019,2.134c0,0 1.022,-0.894 1.858,-4.317c-3.251,-6.748 -6.456,-17.316 -3.669,-30.662c0.975,-4.664 2.462,-9.575 4.133,-14.14c0.047,-0.298 0.047,-0.546 0.093,-0.843c-6.595,2.48 -15.093,2.282 -15.093,2.282c0,0 8.452,-2.183 13.653,-14.438c5.155,-12.255 3.298,-17.018 5.248,-24.46c1.904,-7.145 5.945,-12.205 9.196,-15.232c-0.186,0.099 -0.372,0.198 -0.372,0.198c-14.165,7.691 -14.815,14.389 -14.861,15.183c0.046,-0.893 0.278,-14.934 12.957,-23.468c3.019,-2.034 6.966,-3.969 11.099,-5.705c-18.112,0.595 -30.326,-9.03 -30.326,-9.03c0,0 20.295,8.335 40.869,0c12.028,-4.862 26.053,-13.545 33.53,-13.545" style="fill:#a04464;fill-rule:nonzero;"/><path d="M145.618,187.595l0,112.27l-60.728,0c-0.989,-0.394 -1.481,-0.594 -1.481,-0.594c0,-14.331 2.101,-25.505 5.305,-34.219c7.729,-21.03 21.881,-27.709 28.395,-29.723c2.138,-0.661 3.455,-0.82 3.455,-0.82c0.231,0 0.446,-0.021 0.666,-0.056c1.912,-0.308 3.465,-1.969 4.711,-4.619c0.927,-1.968 1.701,-4.479 2.332,-7.386c0.251,-1.132 0.446,-2.275 0.646,-3.51c0.297,-2.077 0.589,-4.25 0.841,-6.525c0.097,-1.384 0.245,-2.717 0.394,-4.152c0.538,-6.868 0.692,-14.388 0.692,-21.507c0,0 8.155,0.841 14.772,0.841Z" style="fill:#e0bd9a;fill-rule:nonzero;"/><path d="M208.078,299.271c0,0 -0.543,0.2 -1.435,0.594l-61.025,0l0,-112.27l0.149,0c6.571,0 14.828,-0.841 14.828,-0.841c0,7.068 0.143,14.485 0.687,21.358c0.148,1.338 0.297,2.717 0.395,4.055c0.25,2.373 0.548,4.597 0.891,6.673l0,0.046c0.098,0.943 0.292,1.784 0.446,2.671c0.6,2.921 1.328,5.489 2.204,7.549c1.092,2.563 2.419,4.352 4.029,5.06c0.512,0.23 1.056,0.343 1.625,0.343c0,0 2.337,0.282 5.838,1.656c7.15,2.798 19.159,10.143 26.058,28.887c3.204,8.714 5.31,19.888 5.31,34.219Z" style="fill:#efd0ad;fill-rule:nonzero;"/><path d="M162.568,218.63l0,0.05c-1.532,2.357 -6.671,9.134 -16.85,9.134l-0.099,0c-9.635,-0.049 -15.268,-7.023 -16.701,-9.086c0.296,-2.062 0.592,-4.223 0.84,-6.482c0.099,-1.326 0.247,-2.702 0.395,-4.126c4.694,1.179 9.833,1.916 15.269,2.014l0.197,0c5.633,-0.098 10.822,-0.884 15.664,-2.161c0.149,1.326 0.297,2.701 0.396,4.027c0.247,2.357 0.543,4.568 0.889,6.63Z" style="fill:#be987f;fill-rule:nonzero;"/><path d="M144.928,59.651c-64.336,0 -64.682,53.779 -61.816,88.993c-4.398,-8.349 -17.493,-5.795 -16.405,7.367c1.037,12.671 19.745,19.129 19.221,17.73c9.743,26.043 35.528,45.675 59,45.675l0.494,0l0,-159.765l-0.494,0Z" style="fill:#d2a686;fill-rule:nonzero;"/><path d="M70.808,150.461c3.162,-5.108 8.104,-2.897 9.289,-1.768c1.285,1.228 2.323,2.8 1.532,5.796c-0.445,1.719 -2.223,1.866 -1.828,4.42c0.494,2.897 1.828,3.045 2.619,3.732c0.741,0.639 1.68,1.13 2.125,2.358c0.494,1.228 0.543,2.505 0.296,3.634c-0.494,2.063 -3.508,0.393 -5.534,-0.491c-1.334,-0.638 -5.584,-4.224 -6.671,-5.402c-2.668,-3.045 -3.953,-8.939 -1.828,-12.279Z" style="fill:#ac8774;fill-rule:nonzero;"/><path d="M145.273,59.651c64.337,0 64.682,53.779 61.866,88.993c4.398,-8.349 17.442,-5.795 16.356,7.367c-0.988,12.671 -19.734,19.134 -19.222,17.73c-9.49,26.043 -35.528,45.675 -59,45.675c-0.148,0 -0.345,0 -0.345,0l-0.149,-159.765c0,0 0.346,0 0.494,0Z" style="fill:#ddb598;fill-rule:nonzero;"/><path d="M219.393,150.461c-3.162,-5.108 -8.054,-2.897 -9.289,-1.768c-1.285,1.228 -2.273,2.8 -1.532,5.796c0.445,1.719 2.223,1.866 1.828,4.42c-0.494,2.897 -1.828,3.045 -2.569,3.732c-0.742,0.639 -1.73,1.13 -2.175,2.358c-0.444,1.228 -0.543,2.505 -0.296,3.634c0.494,2.063 3.508,0.393 5.534,-0.491c1.384,-0.638 5.584,-4.224 6.671,-5.402c2.718,-3.045 3.953,-8.939 1.828,-12.279Z" style="fill:#ac8774;fill-rule:nonzero;"/><path d="M144.421,74.827c-21.148,0 -36.664,6.139 -46.003,18.221c-13.095,16.944 -12.601,42.777 -7.808,61.342c1.483,5.697 2.274,20.971 3.262,26.571c4.595,25.096 32.316,38.455 50.549,38.455c0,0 0.346,0 0.495,0l0,-144.589c-0.149,0 -0.297,0 -0.297,0" style="fill:#e0bd9a;fill-rule:nonzero;"/><path d="M190.376,93.097c-9.29,-12.032 -24.608,-18.171 -45.46,-18.27l0,144.589c20.852,-0.245 45.806,-14.881 50.055,-38.455c1.038,-5.6 1.779,-20.874 3.262,-26.571c4.842,-18.515 5.336,-44.3 -7.857,-61.293Z" style="fill:#efd0ad;fill-rule:nonzero;"/><path d="M145.109,196.472" style="fill:#bc917b;fill-rule:nonzero;"/><path d="M145.109,196.472" style="fill:#bc917b;fill-rule:nonzero;"/><path d="M141.541,193.785c-0.102,-0.022 -0.202,-0.041 -0.303,-0.065c0.099,0.023 0.186,0.041 0.303,0.065Z" style="fill:#bc917b;fill-rule:nonzero;"/><path d="M145.109,193.593" style="fill:#bc917b;fill-rule:nonzero;"/><path d="M140.756,193.61c-0.093,-0.024 -0.178,-0.051 -0.27,-0.076l-0.01,0.004c0,0 0.105,0.029 0.28,0.072Z" style="fill:#bc917b;fill-rule:nonzero;"/><path d="M145.109,193.593" style="fill:#bc917b;fill-rule:nonzero;"/><path d="M126.954,75.188l-0.267,0.268l0.044,0.089c0.089,-0.134 0.134,-0.268 0.223,-0.357Z" style="fill:#432e1b;fill-rule:nonzero;"/><path d="M85.99,126.136" style="fill:#432e1b;fill-rule:nonzero;"/><path d="M145.381,193.612" style="fill:#ba907b;fill-rule:nonzero;"/><path d="M145.381,193.612" style="fill:#ba907b;fill-rule:nonzero;"/><path d="M141.716,190.852c-0.104,-0.022 -0.207,-0.043 -0.311,-0.066c0.102,0.022 0.192,0.041 0.311,0.066Z" style="fill:#ba907b;fill-rule:nonzero;"/><path d="M145.381,190.655" style="fill:#ba907b;fill-rule:nonzero;"/><path d="M140.91,190.672c-0.096,-0.025 -0.182,-0.052 -0.277,-0.078l-0.01,0.005c0,0 0.107,0.029 0.287,0.073Z" style="fill:#ba907b;fill-rule:nonzero;"/><path d="M145.381,190.655" style="fill:#ba907b;fill-rule:nonzero;"/><path d="M132.343,173.859c-0.251,-5.132 9.426,-1.875 12.616,-1.714c2.521,0.128 10.192,-1.618 10.85,-1.168c4.513,3.042 -4.78,9.17 -11.01,9.17c-1.66,0 -12.306,-3.193 -12.456,-6.288Z" style="fill:#dcb497;fill-rule:nonzero;"/><path d="M98.762,131.261c0,0 4.909,20.135 13.335,21.779c8.427,1.642 17.547,-1.624 17.547,-1.624c0,0 0.872,-23.664 -3.443,-26.755c-4.311,-3.106 -14.25,-7.594 -27.439,6.6Z" style="fill:#fff;fill-rule:nonzero;"/><path d="M129.655,151.354c0,0 -0.193,0.056 -0.626,0.236c-0.108,-7.258 -0.779,-17.227 -3.473,-19.137c-4.006,-2.933 -13.052,-7.061 -25.138,4.229c-1.099,-3.119 -1.649,-5.484 -1.649,-5.484c13.212,-14.22 23.16,-9.74 27.439,-6.632c4.319,3.104 3.447,26.788 3.447,26.788Z" style="fill:#d6b496;fill-rule:nonzero;"/><path d="M124.666,141.1c0,4.581 -3.713,8.294 -8.294,8.294c-4.58,0 -8.294,-3.713 -8.294,-8.294c0,-4.58 3.714,-8.293 8.294,-8.293c4.581,0 8.294,3.713 8.294,8.293Z" style="fill:#482315;fill-rule:nonzero;"/><path d="M115.987,146.624c-2.395,-0.198 -4.234,-2.615 -4.016,-5.272c0.214,-2.657 2.423,-4.736 4.82,-4.535c2.395,0.197 4.23,2.611 4.019,5.268c-0.218,2.657 -2.429,4.74 -4.823,4.539Z" style="fill:#7e3a22;fill-rule:nonzero;"/><path d="M116.194,145.665c-1.667,-0.141 -3.397,-1.971 -3.213,-4.223c0.187,-2.26 2.189,-3.785 3.856,-3.648c1.668,0.141 3.393,1.978 3.209,4.231c-0.183,2.256 -2.189,3.778 -3.852,3.64Z" style="fill:#211a10;fill-rule:nonzero;"/><path d="M114.844,140.108c-0.07,0.814 -0.906,1.409 -1.863,1.33c-0.96,-0.081 -1.683,-0.809 -1.618,-1.619c0.069,-0.818 0.9,-1.413 1.858,-1.334c0.964,0.077 1.687,0.805 1.623,1.623Z" style="fill:#fff;fill-rule:nonzero;"/><path d="M120.221,144.818c-0.035,0.405 -0.453,0.704 -0.93,0.664c-0.481,-0.038 -0.841,-0.405 -0.811,-0.81c0.035,-0.405 0.453,-0.705 0.93,-0.664c0.481,0.038 0.845,0.401 0.811,0.81Z" style="fill:#fff;fill-rule:nonzero;"/><path d="M145.513,195.987" style="fill:#ba907b;fill-rule:nonzero;"/><path d="M145.513,195.987" style="fill:#ba907b;fill-rule:nonzero;"/><path d="M141.848,193.227c-0.104,-0.022 -0.207,-0.043 -0.311,-0.067c0.102,0.023 0.192,0.042 0.311,0.067Z" style="fill:#ba907b;fill-rule:nonzero;"/><path d="M145.513,193.03" style="fill:#ba907b;fill-rule:nonzero;"/><path d="M141.042,193.047c-0.095,-0.025 -0.182,-0.052 -0.276,-0.078l-0.011,0.004c0,0 0.107,0.03 0.287,0.074Z" style="fill:#ba907b;fill-rule:nonzero;"/><path d="M145.513,193.03" style="fill:#ba907b;fill-rule:nonzero;"/><path d="M145.4,195.616" style="fill:#bc917b;fill-rule:nonzero;"/><path d="M145.399,195.616l0.001,0l-0.001,0Z" style="fill:#bc917b;fill-rule:nonzero;"/><path d="M141.471,192.658c-0.111,-0.024 -0.222,-0.045 -0.333,-0.071c0.109,0.024 0.205,0.045 0.333,0.071Z" style="fill:#bc917b;fill-rule:nonzero;"/><path d="M145.4,192.447" style="fill:#bc917b;fill-rule:nonzero;"/><path d="M140.607,192.465c-0.102,-0.026 -0.195,-0.056 -0.296,-0.083l-0.011,0.005c0,0 0.114,0.031 0.307,0.078Z" style="fill:#bc917b;fill-rule:nonzero;"/><path d="M145.399,192.447l0.001,0l-0.001,0Z" style="fill:#bc917b;fill-rule:nonzero;"/><path d="M145.152,194.774" style="fill:#bc917b;fill-rule:nonzero;"/><path d="M145.151,194.774l0.001,0l-0.001,0Z" style="fill:#bc917b;fill-rule:nonzero;"/><path d="M141.223,191.816c-0.111,-0.024 -0.222,-0.045 -0.333,-0.071c0.109,0.024 0.205,0.044 0.333,0.071Z" style="fill:#bc917b;fill-rule:nonzero;"/><path d="M145.152,191.605" style="fill:#bc917b;fill-rule:nonzero;"/><path d="M140.359,191.623c-0.102,-0.026 -0.195,-0.055 -0.296,-0.083l-0.012,0.004c0,0 0.115,0.032 0.308,0.079Z" style="fill:#bc917b;fill-rule:nonzero;"/><path d="M145.151,191.605l0.001,0l-0.001,0Z" style="fill:#bc917b;fill-rule:nonzero;"/><path d="M145.791,194.56" style="fill:#bc917b;fill-rule:nonzero;"/><path d="M145.79,194.56l0.001,0l-0.001,0Z" style="fill:#bc917b;fill-rule:nonzero;"/><path d="M141.994,191.701c-0.109,-0.023 -0.215,-0.044 -0.323,-0.069c0.106,0.024 0.199,0.043 0.323,0.069Z" style="fill:#bc917b;fill-rule:nonzero;"/><path d="M145.791,191.497" style="fill:#bc917b;fill-rule:nonzero;"/><path d="M141.159,191.514c-0.1,-0.025 -0.19,-0.053 -0.287,-0.08l-0.011,0.005c0,0 0.111,0.03 0.298,0.075Z" style="fill:#bc917b;fill-rule:nonzero;"/><path d="M145.79,191.497l0.001,0l-0.001,0Z" style="fill:#bc917b;fill-rule:nonzero;"/><path d="M191.573,130.576c0,0 -4.908,20.135 -13.335,21.779c-8.426,1.642 -17.546,-1.624 -17.546,-1.624c0,0 -0.872,-23.664 3.443,-26.756c4.311,-3.105 14.25,-7.593 27.438,6.601Z" style="fill:#fff;fill-rule:nonzero;"/><path d="M160.68,150.669c0,0 0.194,0.056 0.627,0.236c0.107,-7.258 0.778,-17.227 3.473,-19.137c4.006,-2.933 13.052,-7.062 25.137,4.229c1.099,-3.119 1.65,-5.484 1.65,-5.484c-13.213,-14.22 -23.16,-9.74 -27.439,-6.632c-4.319,3.104 -3.448,26.788 -3.448,26.788Z" style="fill:#d6b496;fill-rule:nonzero;"/><path d="M165.67,140.415c0,4.581 3.713,8.294 8.293,8.294c4.581,0 8.294,-3.713 8.294,-8.294c0,-4.58 -3.713,-8.293 -8.294,-8.293c-4.58,0 -8.293,3.713 -8.293,8.293Z" style="fill:#482315;fill-rule:nonzero;"/><path d="M174.349,145.938c2.395,-0.197 4.234,-2.614 4.015,-5.271c-0.214,-2.657 -2.422,-4.736 -4.819,-4.535c-2.395,0.197 -4.231,2.611 -4.019,5.267c0.218,2.657 2.428,4.74 4.823,4.539Z" style="fill:#7e3a22;fill-rule:nonzero;"/><path d="M174.142,144.98c1.667,-0.142 3.397,-1.971 3.213,-4.223c-0.188,-2.26 -2.189,-3.785 -3.856,-3.648c-1.668,0.141 -3.394,1.978 -3.21,4.231c0.183,2.256 2.19,3.778 3.853,3.64Z" style="fill:#211a10;fill-rule:nonzero;"/><path d="M175.492,139.423c0.069,0.814 0.905,1.409 1.863,1.33c0.959,-0.081 1.683,-0.809 1.618,-1.619c-0.069,-0.818 -0.9,-1.413 -1.859,-1.335c-0.963,0.078 -1.687,0.806 -1.622,1.624Z" style="fill:#fff;fill-rule:nonzero;"/><path d="M170.115,144.133c0.035,0.405 0.452,0.704 0.929,0.663c0.482,-0.037 0.842,-0.404 0.811,-0.809c-0.034,-0.405 -0.452,-0.705 -0.929,-0.664c-0.482,0.037 -0.846,0.401 -0.811,0.81Z" style="fill:#fff;fill-rule:nonzero;"/><path d="M134.704,130.94c-0.063,-0.098 -1.592,-2.423 -4.718,-4.82c-1.959,-1.503 -3.878,-2.646 -5.87,-3.498c-2.42,-1.017 -5.026,-1.736 -7.551,-2.081c-2.284,-0.254 -4.815,-0.186 -7.768,0.211c-2.255,0.429 -4.453,1.1 -6.32,1.923c-1.331,0.458 -2.382,1.102 -3.226,1.619c-0.324,0.199 -0.616,0.378 -0.914,0.538l-4.025,2.531l4.639,-1.09c0.216,-0.055 0.45,-0.116 0.701,-0.183c0.959,-0.254 2.154,-0.571 3.554,-0.776c0.328,-0.048 0.662,-0.114 1.002,-0.182c0.583,-0.116 1.187,-0.237 1.819,-0.267c0.703,-0.047 1.431,-0.099 2.18,-0.153l0.974,-0.07c2.569,-0.032 4.739,0.163 6.667,0.607c2.107,0.363 4.273,1.043 6.259,1.963c1.875,0.897 3.673,1.787 5.075,2.817c2.834,1.891 4.411,3.468 4.426,3.484c0.389,0.392 0.91,0.594 1.433,0.594c0.381,0 0.763,-0.107 1.097,-0.327c0.933,-0.612 1.195,-1.871 0.602,-2.779l-0.036,-0.061Z" style="fill:#030405;fill-rule:nonzero;"/><path d="M192.402,124.813c-0.267,-0.141 -0.56,-0.321 -0.884,-0.519c-0.844,-0.518 -1.895,-1.161 -3.186,-1.604c-1.906,-0.838 -4.105,-1.509 -6.386,-1.942c-2.928,-0.394 -5.46,-0.462 -7.753,-0.206c-2.512,0.344 -5.12,1.063 -7.543,2.081c-1.963,0.84 -3.937,2.016 -5.866,3.497c-3.07,2.353 -4.596,4.637 -4.711,4.813l-0.029,0.041c-0.518,0.798 -0.407,1.866 0.263,2.539c0.382,0.384 0.889,0.595 1.428,0.595l0.001,0c0.539,0 1.045,-0.212 1.426,-0.596l0.016,-0.017c0.149,-0.148 1.68,-1.644 4.428,-3.479c1.381,-1.015 3.18,-1.906 5.05,-2.802c1.993,-0.922 4.16,-1.602 6.293,-1.971c1.901,-0.438 4.074,-0.629 6.61,-0.602l1.022,0.073c0.743,0.053 1.465,0.104 2.172,0.152c0.623,0.029 1.226,0.15 1.81,0.266c0.34,0.068 0.672,0.134 1,0.182c1.401,0.205 2.595,0.522 3.555,0.776c0.251,0.067 0.485,0.129 0.708,0.185l4.636,1.089l-4.06,-2.551Z" style="fill:#030405;fill-rule:nonzero;"/><path d="M190.918,265.052c2.004,9.042 3.239,20.241 3.239,34.111c0,0 -0.379,0.184 -1.143,0.702l-94.418,0c-0.759,-0.518 -1.143,-0.702 -1.143,-0.702c0,-13.844 1.235,-25.033 3.234,-34.111l-11.973,0c7.729,-21.03 21.881,-27.709 28.395,-29.723c-0.015,0.205 -0.02,0.415 -0.02,0.625c0,9.626 12.645,17.473 28.529,17.878c0.435,0.016 0.871,0.021 1.307,0.021c16.325,0 29.6,-7.899 29.785,-17.688c7.15,2.798 19.159,10.143 26.058,28.887l-11.85,0Z" style="fill:#8869ae;fill-rule:nonzero;"/><path d="M189.852,59.924c-0.707,-0.571 -1.419,-1.123 -2.132,-1.661l2.247,-3.901c0,0 11.09,-19.628 -24.861,-28.219c0,0 20.304,15.074 12.066,25.198c-8.476,-4.846 -15.258,-7.233 -15.258,-7.233l5.824,5.491c-3.486,-2.68 -9.695,-6.411 -20.065,-9.695c-14.764,-4.665 -24.321,0.531 -24.321,0.531c0,0 7.706,-0.264 11.478,2.768c-3.723,-1.607 -10.145,-2.165 -20.86,2.268c-20.996,8.695 -20.618,24.266 -35.23,29.038c-14.956,4.903 -19.295,-1.386 -19.295,-1.386c0,0 6.488,11.02 18.015,11.046c1.864,0 2.047,-0.034 2.067,-0.049c-0.02,0.045 -4.323,11.821 -5.152,20.614c-0.844,8.985 1.791,15.136 2.604,31.952c0.703,14.376 4.494,7.01 9.011,17.605c1.528,3.551 1.591,7.549 1.591,7.549c1.678,0.417 6.073,-8.628 2.919,-24.349c-2.058,-10.198 8.094,-48.866 32.585,-41.332c2.36,0.725 4.41,1.573 6.285,2.447c-23.383,23.399 -8.893,56.655 -8.893,56.655c-0.559,-28.087 23.112,-46.884 30.434,-52.016c0.687,-0.405 1.39,-0.87 2.133,-1.428c4.025,-2.993 8.714,-5.44 13.548,-6.884c3.219,6.575 5.338,14.635 3.784,23.555c0,0 6.896,-11.028 6.082,-24.143c5.957,6.33 16.53,20.328 13.551,37.495c0,0 7.393,-11.806 5.977,-25.513c3.699,6.884 5.368,16.414 4.306,28.751c-2.245,26.06 1.963,25.869 1.963,25.869c1.256,0 -0.092,-6.935 4.109,-11.718c4.196,-4.777 10.602,-20.886 10.602,-36.957c0,-8.571 -1.577,-16.634 -5.195,-24.6c0.333,-12.555 3.287,-29.651 17.436,-25.054c0,0 -14.814,-20.06 -39.355,-2.694Z" style="fill:#b74e6c;fill-rule:nonzero;"/><path d="M142.513,202.995" style="fill:#be927b;fill-rule:nonzero;"/><path d="M142.512,202.995l0.001,0l-0.001,0Z" style="fill:#be927b;fill-rule:nonzero;"/><path d="M138.873,200.254c-0.104,-0.022 -0.206,-0.042 -0.309,-0.066c0.101,0.023 0.19,0.041 0.309,0.066Z" style="fill:#be927b;fill-rule:nonzero;"/><path d="M142.513,200.058" style="fill:#be927b;fill-rule:nonzero;"/><path d="M138.072,200.075c-0.095,-0.024 -0.181,-0.051 -0.275,-0.077l-0.01,0.004c0,0 0.106,0.029 0.285,0.073Z" style="fill:#be927b;fill-rule:nonzero;"/><path d="M142.512,200.058l0.001,0l-0.001,0Z" style="fill:#be927b;fill-rule:nonzero;"/><path d="M142.283,202.215" style="fill:#be927b;fill-rule:nonzero;"/><path d="M142.283,202.215" style="fill:#be927b;fill-rule:nonzero;"/><path d="M138.643,199.474c-0.104,-0.022 -0.206,-0.042 -0.309,-0.066c0.101,0.022 0.19,0.041 0.309,0.066Z" style="fill:#be927b;fill-rule:nonzero;"/><path d="M142.283,199.278" style="fill:#be927b;fill-rule:nonzero;"/><path d="M137.842,199.295c-0.095,-0.025 -0.181,-0.052 -0.275,-0.077l-0.01,0.004c0,0 0.106,0.029 0.285,0.073Z" style="fill:#be927b;fill-rule:nonzero;"/><path d="M142.283,199.278" style="fill:#be927b;fill-rule:nonzero;"/><path d="M142.875,202.017" style="fill:#be927b;fill-rule:nonzero;"/><path d="M142.875,202.017" style="fill:#be927b;fill-rule:nonzero;"/><path d="M139.357,199.367c-0.1,-0.021 -0.199,-0.041 -0.299,-0.064c0.098,0.022 0.184,0.04 0.299,0.064Z" style="fill:#be927b;fill-rule:nonzero;"/><path d="M142.875,199.178" style="fill:#be927b;fill-rule:nonzero;"/><path d="M138.583,199.194c-0.092,-0.023 -0.176,-0.05 -0.266,-0.074l-0.01,0.004c0,0 0.103,0.028 0.276,0.07Z" style="fill:#be927b;fill-rule:nonzero;"/><path d="M142.875,199.178" style="fill:#be927b;fill-rule:nonzero;"/><path d="M132.618,201.763c-0.241,-3.199 8.912,0.671 11.917,0.763c2.398,0.081 9.601,-0.474 10.267,-0.728c5.035,-1.883 -0.276,5.349 -10.416,5.73c-4.645,0.185 -11.63,-3.824 -11.768,-5.765Z" style="fill:#f0d2ad;fill-rule:nonzero;"/><path d="M162.785,194.078c-5.804,-1.086 -18.032,0.073 -18.032,0.073c-10.082,1.675 -17.973,-0.107 -18.031,-0.038c-0.241,0.024 8.052,11.023 17.894,10.516c9.841,0.507 18.41,-10.516 18.169,-10.551Z" style="fill:#c2646e;fill-rule:nonzero;"/><path d="M150.585,191.756c-2.615,-0.289 -4.478,1.597 -5.82,1.459c-1.365,0.127 -3.139,-1.083 -5.769,-1.109c-3.7,-0.036 -5.506,-0.361 -12.274,2.007c0.241,0.462 4.577,2.972 12.698,3.11c0.115,0 2.294,1.236 5.391,1.214c1.939,-0.012 4.599,-1.306 4.703,-1.306c8.132,-0.127 13.099,-2.544 13.328,-2.994c-8.946,-2.773 -8.237,-2.417 -12.257,-2.381Z" style="fill:#d87475;fill-rule:nonzero;"/></g><path d="M165.67,282.811c-2.553,0 -4.623,-2.069 -4.623,-4.623c0,-2.552 2.07,-4.622 4.623,-4.622c2.553,0 4.622,2.07 4.622,4.622c0,2.554 -2.069,4.623 -4.622,4.623Zm10.606,-5.96c-0.491,-0.085 -0.979,-0.091 -1.456,-0.044c-0.029,-0.191 -0.056,-0.382 -0.095,-0.568c0.426,-0.17 0.84,-0.379 1.221,-0.659c2.876,-2.121 4.147,-5.185 2.876,-6.927c-1.275,-1.699 -4.572,-1.368 -7.446,0.753c-0.344,0.253 -0.635,0.555 -0.903,0.872c-0.406,-0.247 -0.828,-0.47 -1.273,-0.654c0.056,-0.286 0.093,-0.578 0.101,-0.877c0.048,-3.583 -1.602,-6.456 -3.769,-6.505c-2.12,-0.045 -3.865,2.782 -3.959,6.363c-0.011,0.417 0.047,0.822 0.132,1.22c-0.408,0.194 -0.803,0.408 -1.176,0.657c-0.309,-0.396 -0.654,-0.77 -1.077,-1.076c-2.825,-2.121 -6.171,-2.452 -7.443,-0.753c-1.273,1.742 0.046,4.806 2.874,6.927c0.521,0.384 1.099,0.651 1.696,0.835c-0.052,0.268 -0.096,0.539 -0.124,0.815c-0.469,-0.045 -0.948,-0.038 -1.43,0.046c-3.488,0.564 -6.079,2.733 -5.703,4.852c0.33,2.075 3.44,3.3 6.975,2.733c0.79,-0.137 1.508,-0.46 2.156,-0.871c0.228,0.284 0.472,0.555 0.733,0.81c-0.49,0.465 -0.936,0.987 -1.241,1.617c-1.554,3.204 -1.224,6.551 0.66,7.492c1.933,0.895 4.713,-0.941 6.269,-4.145c0.358,-0.74 0.515,-1.536 0.545,-2.324l0.251,0.013c0.169,0 0.334,-0.017 0.501,-0.026c0.025,0.792 0.178,1.593 0.539,2.337c1.556,3.204 4.384,5.04 6.268,4.145c1.932,-0.941 2.26,-4.288 0.707,-7.492c-0.337,-0.694 -0.837,-1.264 -1.391,-1.759c0.296,-0.302 0.565,-0.628 0.818,-0.969c0.58,0.342 1.201,0.628 1.892,0.747c3.535,0.568 6.645,-0.658 7.021,-2.779c0.331,-2.072 -2.214,-4.241 -5.749,-4.806Z" style="fill:#6e5389;fill-rule:nonzero;"/><path d="M112.528,259.993c-1.394,0 -2.524,-1.13 -2.524,-2.523c0,-1.394 1.13,-2.524 2.524,-2.524c1.393,0 2.523,1.13 2.523,2.524c0,1.393 -1.13,2.523 -2.523,2.523Zm5.79,-3.254c-0.269,-0.046 -0.535,-0.049 -0.795,-0.024c-0.016,-0.104 -0.031,-0.208 -0.052,-0.31c0.232,-0.092 0.458,-0.206 0.666,-0.36c1.57,-1.157 2.264,-2.83 1.57,-3.781c-0.696,-0.927 -2.496,-0.746 -4.064,0.411c-0.188,0.139 -0.347,0.303 -0.493,0.476c-0.222,-0.135 -0.452,-0.256 -0.695,-0.356c0.03,-0.157 0.051,-0.316 0.055,-0.479c0.026,-1.956 -0.875,-3.525 -2.057,-3.551c-1.158,-0.025 -2.11,1.518 -2.161,3.473c-0.006,0.228 0.025,0.449 0.071,0.666c-0.222,0.106 -0.438,0.223 -0.641,0.359c-0.169,-0.216 -0.357,-0.42 -0.588,-0.588c-1.542,-1.157 -3.369,-1.338 -4.063,-0.411c-0.695,0.951 0.025,2.624 1.569,3.781c0.284,0.21 0.6,0.356 0.925,0.456c-0.028,0.147 -0.052,0.295 -0.067,0.446c-0.257,-0.025 -0.518,-0.021 -0.781,0.024c-1.904,0.309 -3.319,1.493 -3.113,2.649c0.18,1.133 1.878,1.802 3.807,1.492c0.432,-0.075 0.824,-0.251 1.177,-0.476c0.125,0.156 0.258,0.303 0.401,0.443c-0.268,0.253 -0.511,0.538 -0.678,0.883c-0.848,1.749 -0.668,3.575 0.361,4.089c1.055,0.489 2.572,-0.514 3.421,-2.263c0.196,-0.403 0.282,-0.838 0.298,-1.268l0.137,0.007c0.092,0 0.182,-0.009 0.273,-0.014c0.014,0.432 0.098,0.869 0.295,1.275c0.849,1.749 2.393,2.752 3.421,2.263c1.055,-0.514 1.234,-2.34 0.386,-4.089c-0.184,-0.379 -0.457,-0.69 -0.759,-0.961c0.161,-0.165 0.308,-0.343 0.446,-0.529c0.317,0.187 0.656,0.343 1.033,0.408c1.93,0.31 3.628,-0.359 3.833,-1.517c0.18,-1.131 -1.209,-2.315 -3.138,-2.624Z" style="fill:#6e5389;fill-rule:nonzero;"/><path d="M128.918,284.397c-1.941,0 -3.514,-1.574 -3.514,-3.515c0,-1.94 1.573,-3.514 3.514,-3.514c1.941,0 3.514,1.574 3.514,3.514c0,1.941 -1.573,3.515 -3.514,3.515Zm8.062,-4.531c-0.373,-0.065 -0.744,-0.069 -1.107,-0.034c-0.021,-0.145 -0.042,-0.29 -0.072,-0.432c0.324,-0.129 0.639,-0.287 0.928,-0.501c2.187,-1.612 3.153,-3.941 2.187,-5.265c-0.969,-1.291 -3.476,-1.04 -5.661,0.572c-0.261,0.193 -0.482,0.422 -0.686,0.663c-0.309,-0.188 -0.63,-0.357 -0.968,-0.497c0.043,-0.217 0.071,-0.44 0.077,-0.667c0.037,-2.723 -1.218,-4.907 -2.865,-4.944c-1.612,-0.035 -2.938,2.114 -3.009,4.836c-0.009,0.317 0.035,0.625 0.1,0.928c-0.31,0.147 -0.611,0.31 -0.894,0.5c-0.235,-0.302 -0.497,-0.586 -0.818,-0.819c-2.148,-1.612 -4.692,-1.863 -5.658,-0.572c-0.968,1.324 0.034,3.653 2.184,5.265c0.396,0.293 0.836,0.495 1.289,0.635c-0.039,0.204 -0.072,0.41 -0.094,0.62c-0.357,-0.034 -0.721,-0.029 -1.087,0.035c-2.652,0.429 -4.621,2.078 -4.336,3.688c0.252,1.577 2.616,2.509 5.303,2.078c0.6,-0.104 1.146,-0.35 1.639,-0.663c0.173,0.217 0.359,0.422 0.557,0.617c-0.373,0.353 -0.711,0.75 -0.944,1.229c-1.181,2.435 -0.93,4.979 0.503,5.694c1.469,0.681 3.582,-0.715 4.765,-3.15c0.272,-0.563 0.391,-1.168 0.414,-1.767l0.191,0.01c0.128,0 0.254,-0.013 0.381,-0.019c0.019,0.602 0.135,1.21 0.409,1.776c1.183,2.435 3.333,3.831 4.765,3.15c1.469,-0.715 1.719,-3.259 0.537,-5.694c-0.256,-0.528 -0.636,-0.961 -1.056,-1.338c0.224,-0.229 0.429,-0.477 0.621,-0.736c0.441,0.26 0.913,0.477 1.439,0.568c2.687,0.431 5.051,-0.501 5.337,-2.113c0.251,-1.575 -1.684,-3.224 -4.371,-3.653Z" style="fill:#6e5389;fill-rule:nonzero;"/></g></svg>