<?xml version="1.0" encoding="UTF-8" standalone="no"?><!DOCTYPE svg PUBLIC "-//W3C//DTD SVG 1.1//EN" "http://www.w3.org/Graphics/SVG/1.1/DTD/svg11.dtd"><svg width="100%" height="100%" viewBox="0 0 298 300" version="1.1" xmlns="http://www.w3.org/2000/svg" xmlns:xlink="http://www.w3.org/1999/xlink" xml:space="preserve" style="fill-rule:evenodd;clip-rule:evenodd;stroke-linejoin:round;stroke-miterlimit:1.41421;"><g id="_54"><rect x="0.344" y="0.16" width="296.866" height="299.705" style="fill:#8869ae;fill-rule:nonzero;"/><path d="M225.833,133.106c-3.374,6.223 -8.732,12.399 -8.732,14.954c0,2.554 -0.943,1.95 -3.126,13.653c-2.183,11.657 -1.587,16.998 -16.968,31.952c-15.381,14.907 -55.568,14.815 -55.568,14.815c0,0 7.987,-0.094 15.132,-5.387c3.423,-2.509 5.061,-3.576 5.855,-4.041c-2.977,1.487 -15.728,7.338 -29.472,7.059c-27.635,-0.558 -31.455,5.898 -31.455,5.898c0,0 0.645,-3.947 6.747,-9.474c-3.423,0.604 -6.648,0.883 -8.881,0.558c-29.323,-4.644 -39.295,5.015 -39.295,5.015c0,0 5.954,-9.567 17.315,-15.14c4.466,-2.182 8.881,-3.437 12.751,-4.133c-2.281,-0.093 -4.812,-0.279 -7.69,-0.557c-14.339,-1.347 -25.105,8.916 -25.105,8.916c0,0 4.763,-12.399 14.735,-17.554c-4.018,-0.372 -7.987,-0.511 -11.659,-0.372c-9.427,0.279 -11.907,4.087 -11.907,4.087c3.175,-5.433 9.576,-8.638 18.556,-10.728c3.82,-0.882 8.087,-1.578 12.751,-2.136c-9.328,-3.204 -27.139,-5.573 -47.581,11.053c0,0 5.358,-17.137 30.067,-24.475c0,0 -14.885,-26.889 -34.384,-14.071c0,0 8.336,-28.33 26.396,-33.344l-0.794,1.578c0,0 -20.987,1.858 -27.536,-21.084c0,0 24.857,13.839 34.482,4.783c0,0 -37.757,-13.467 -37.112,-35.108c0,0 10.568,19.458 37.459,23.917c0.347,0 16.422,0.092 22.178,-6.409c-1.935,0.789 -4.465,1.114 -7.294,1.16c-14.239,1.394 -27.635,-4.458 -27.635,-4.458l0.05,0c-2.679,-1.068 -4.813,-2.507 -6.401,-4.272c0.695,0.557 3.969,2.833 12.454,2.275c3.87,-0.232 8.037,-0.789 12.155,-1.439c-10.766,-3.484 -16.819,-13.701 -16.819,-13.701c0,0 12.056,7.802 26.792,5.295c2.977,-0.511 5.606,-0.929 7.988,-1.254c-4.118,-0.186 -8.782,-0.836 -13.644,-2.322c-12.205,-3.715 -19.151,-11.378 -19.151,-11.378c0,0 11.114,7.338 41.18,0.604c2.282,-0.511 5.606,-0.558 9.179,-0.372c-1.489,-0.882 -2.68,-1.811 -3.672,-2.6c-4.515,0.418 -8.335,2.321 -7.988,2.089c0.347,-0.232 2.431,-1.997 6.003,-3.994c-1.736,-1.811 -2.133,-3.018 -2.133,-3.018c0,0 0.893,1.022 4.317,1.857c6.748,-3.25 17.316,-6.455 30.662,-3.668c4.664,0.975 9.575,2.461 14.14,4.133c0.298,0.046 0.545,0.046 0.843,0.092c-2.48,-6.594 -2.282,-15.093 -2.282,-15.093c0,0 2.183,8.453 14.438,13.654c12.255,5.155 17.018,3.297 24.46,5.248c7.144,1.904 12.205,5.944 15.232,9.195c-0.099,-0.186 -0.199,-0.372 -0.199,-0.372c-7.69,-14.164 -14.388,-14.814 -15.181,-14.861c0.892,0.047 14.933,0.279 23.467,12.958c2.034,3.018 3.969,6.965 5.706,11.099c-0.596,-18.112 9.03,-30.326 9.03,-30.326c0,0 -8.336,20.295 0,40.868c4.861,12.028 13.544,26.053 13.544,33.53l-6.4,24.846Z" style="fill:#3a2f34;fill-rule:nonzero;"/><path d="M155.137,187.6l0,112.271l-60.729,0c-0.989,-0.395 -1.481,-0.594 -1.481,-0.594c0,-14.332 2.101,-25.505 5.305,-34.219c7.73,-21.03 21.882,-27.709 28.396,-29.723c2.137,-0.661 3.454,-0.82 3.454,-0.82c0.231,0 0.447,-0.021 0.666,-0.057c1.913,-0.307 3.466,-1.968 4.712,-4.618c0.927,-1.968 1.701,-4.479 2.332,-7.386c0.251,-1.133 0.446,-2.275 0.646,-3.51c0.297,-2.077 0.589,-4.25 0.84,-6.525c0.097,-1.384 0.246,-2.717 0.395,-4.152c0.538,-6.868 0.692,-14.388 0.692,-21.507c0,0 8.154,0.84 14.772,0.84Z" style="fill:#e0bd9a;fill-rule:nonzero;"/><path d="M217.597,299.277c0,0 -0.543,0.199 -1.435,0.594l-61.025,0l0,-112.271l0.148,0c6.571,0 14.829,-0.84 14.829,-0.84c0,7.068 0.143,14.485 0.687,21.358c0.148,1.338 0.297,2.717 0.394,4.054c0.251,2.374 0.549,4.598 0.892,6.674l0,0.046c0.097,0.943 0.292,1.784 0.446,2.671c0.6,2.921 1.327,5.489 2.204,7.549c1.092,2.563 2.419,4.352 4.029,5.059c0.512,0.231 1.055,0.344 1.624,0.344c0,0 2.338,0.282 5.838,1.655c7.151,2.799 19.16,10.144 26.059,28.888c3.203,8.714 5.31,19.887 5.31,34.219Z" style="fill:#efd0ad;fill-rule:nonzero;"/><path d="M172.087,218.636l0,0.049c-1.532,2.358 -6.671,9.135 -16.85,9.135l-0.099,0c-9.635,-0.049 -15.269,-7.023 -16.701,-9.086c0.296,-2.062 0.592,-4.223 0.839,-6.482c0.099,-1.327 0.247,-2.702 0.396,-4.126c4.694,1.179 9.833,1.915 15.268,2.014l0.198,0c5.633,-0.099 10.822,-0.884 15.664,-2.161c0.148,1.326 0.296,2.701 0.396,4.027c0.247,2.357 0.543,4.567 0.889,6.63Z" style="fill:#be987f;fill-rule:nonzero;"/><path d="M154.447,59.657c-64.337,0 -64.683,53.779 -61.817,88.993c-4.398,-8.349 -17.492,-5.795 -16.405,7.367c1.037,12.671 19.745,19.129 19.221,17.729c9.744,26.043 35.529,45.676 59.001,45.676l0.493,0l0,-159.765l-0.493,0Z" style="fill:#d2a686;fill-rule:nonzero;"/><path d="M80.326,150.467c3.163,-5.108 8.104,-2.898 9.29,-1.768c1.284,1.228 2.322,2.8 1.531,5.795c-0.444,1.719 -2.223,1.867 -1.828,4.421c0.494,2.897 1.828,3.045 2.619,3.732c0.741,0.639 1.68,1.13 2.125,2.358c0.494,1.228 0.543,2.505 0.296,3.634c-0.494,2.063 -3.508,0.393 -5.534,-0.491c-1.334,-0.638 -5.584,-4.224 -6.671,-5.403c-2.668,-3.044 -3.953,-8.938 -1.828,-12.278Z" style="fill:#ac8774;fill-rule:nonzero;"/><path d="M154.792,59.657c64.336,0 64.682,53.779 61.866,88.993c4.397,-8.349 17.443,-5.795 16.355,7.367c-0.988,12.671 -19.733,19.133 -19.222,17.729c-9.49,26.043 -35.527,45.676 -58.999,45.676c-0.148,0 -0.345,0 -0.345,0l-0.149,-159.765c0,0 0.346,0 0.494,0Z" style="fill:#ddb598;fill-rule:nonzero;"/><path d="M228.912,150.467c-3.162,-5.108 -8.054,-2.898 -9.29,-1.768c-1.284,1.228 -2.272,2.8 -1.531,5.795c0.444,1.719 2.223,1.867 1.828,4.421c-0.494,2.897 -1.828,3.045 -2.569,3.732c-0.742,0.639 -1.73,1.13 -2.175,2.358c-0.445,1.228 -0.543,2.505 -0.296,3.634c0.494,2.063 3.508,0.393 5.534,-0.491c1.384,-0.638 5.584,-4.224 6.671,-5.403c2.718,-3.044 3.953,-8.938 1.828,-12.278Z" style="fill:#ac8774;fill-rule:nonzero;"/><path d="M153.94,74.833c-21.148,0 -36.665,6.139 -46.003,18.221c-13.095,16.944 -12.601,42.778 -7.808,61.342c1.482,5.697 2.273,20.972 3.261,26.571c4.596,25.096 32.316,38.455 50.55,38.455c0,0 0.346,0 0.494,0l0,-144.589c-0.148,0 -0.296,0 -0.296,0l-0.198,0Z" style="fill:#e0bd9a;fill-rule:nonzero;"/><path d="M199.895,93.104c-9.29,-12.034 -24.608,-18.173 -45.461,-18.271l0,144.589c20.853,-0.245 45.806,-14.881 50.056,-38.455c1.037,-5.599 1.778,-20.874 3.261,-26.571c4.843,-18.516 5.337,-44.3 -7.856,-61.292Z" style="fill:#efd0ad;fill-rule:nonzero;"/><path d="M154.628,196.478" style="fill:#bc917b;fill-rule:nonzero;"/><path d="M154.627,196.478l0.001,0l-0.001,0Z" style="fill:#bc917b;fill-rule:nonzero;"/><path d="M151.06,193.791c-0.102,-0.022 -0.202,-0.041 -0.304,-0.065c0.1,0.023 0.187,0.041 0.304,0.065Z" style="fill:#bc917b;fill-rule:nonzero;"/><path d="M154.628,193.599" style="fill:#bc917b;fill-rule:nonzero;"/><path d="M150.275,193.616c-0.094,-0.024 -0.178,-0.051 -0.27,-0.076l-0.01,0.004c0,0 0.104,0.029 0.28,0.072Z" style="fill:#bc917b;fill-rule:nonzero;"/><path d="M154.627,193.599l0.001,0l-0.001,0Z" style="fill:#bc917b;fill-rule:nonzero;"/><path d="M136.473,75.194l-0.268,0.267l0.045,0.09c0.089,-0.134 0.134,-0.268 0.223,-0.357Z" style="fill:#432e1b;fill-rule:nonzero;"/><path d="M154.9,193.618" style="fill:#ba907b;fill-rule:nonzero;"/><path d="M154.899,193.618l0.001,0l-0.001,0Z" style="fill:#ba907b;fill-rule:nonzero;"/><path d="M151.235,190.858c-0.104,-0.022 -0.207,-0.043 -0.311,-0.067c0.102,0.023 0.192,0.042 0.311,0.067Z" style="fill:#ba907b;fill-rule:nonzero;"/><path d="M154.9,190.661" style="fill:#ba907b;fill-rule:nonzero;"/><path d="M150.429,190.678c-0.096,-0.025 -0.183,-0.052 -0.277,-0.078l-0.01,0.004c0,0 0.107,0.03 0.287,0.074Z" style="fill:#ba907b;fill-rule:nonzero;"/><path d="M154.899,190.661l0.001,0l-0.001,0Z" style="fill:#ba907b;fill-rule:nonzero;"/><path d="M143.372,172.493c-0.251,-5.132 9.426,-1.875 12.616,-1.714c2.521,0.128 10.192,-1.618 10.85,-1.168c4.512,3.042 -4.78,9.17 -11.01,9.17c-1.66,0 -12.306,-3.193 -12.456,-6.288Z" style="fill:#dcb497;fill-rule:nonzero;"/><path d="M108.281,131.267c0,0 4.908,20.135 13.335,21.778c8.426,1.643 17.547,-1.623 17.547,-1.623c0,0 0.871,-23.664 -3.443,-26.756c-4.311,-3.105 -14.25,-7.593 -27.439,6.601Z" style="fill:#fff;fill-rule:nonzero;"/><path d="M139.174,151.36c0,0 -0.194,0.055 -0.627,0.236c-0.107,-7.258 -0.778,-17.227 -3.472,-19.137c-4.008,-2.933 -13.053,-7.062 -25.138,4.229c-1.099,-3.119 -1.65,-5.484 -1.65,-5.484c13.213,-14.22 23.16,-9.74 27.44,-6.633c4.319,3.105 3.447,26.789 3.447,26.789Z" style="fill:#d6b496;fill-rule:nonzero;"/><path d="M134.184,141.107c0,4.58 -3.714,8.293 -8.293,8.293c-4.581,0 -8.294,-3.713 -8.294,-8.293c0,-4.581 3.713,-8.294 8.294,-8.294c4.579,0 8.293,3.713 8.293,8.294Z" style="fill:#482315;fill-rule:nonzero;"/><path d="M125.506,146.629c-2.396,-0.197 -4.234,-2.614 -4.016,-5.272c0.214,-2.656 2.422,-4.735 4.82,-4.534c2.394,0.197 4.229,2.611 4.018,5.268c-0.218,2.656 -2.428,4.74 -4.822,4.538Z" style="fill:#7e3a22;fill-rule:nonzero;"/><path d="M125.712,145.672c-1.667,-0.142 -3.397,-1.972 -3.213,-4.224c0.188,-2.26 2.189,-3.785 3.856,-3.649c1.668,0.142 3.393,1.979 3.21,4.232c-0.183,2.256 -2.19,3.778 -3.853,3.641Z" style="fill:#211a10;fill-rule:nonzero;"/><path d="M124.362,140.114c-0.069,0.814 -0.905,1.409 -1.863,1.33c-0.959,-0.081 -1.683,-0.81 -1.618,-1.619c0.07,-0.818 0.901,-1.413 1.859,-1.335c0.963,0.078 1.687,0.806 1.622,1.624Z" style="fill:#fff;fill-rule:nonzero;"/><path d="M129.74,144.824c-0.035,0.404 -0.453,0.704 -0.93,0.663c-0.482,-0.037 -0.841,-0.404 -0.811,-0.809c0.034,-0.405 0.453,-0.705 0.929,-0.663c0.482,0.037 0.846,0.4 0.812,0.809Z" style="fill:#fff;fill-rule:nonzero;"/><path d="M155.032,195.992" style="fill:#ba907b;fill-rule:nonzero;"/><path d="M155.031,195.992l0.001,0l-0.001,0Z" style="fill:#ba907b;fill-rule:nonzero;"/><path d="M151.367,193.233c-0.104,-0.023 -0.208,-0.043 -0.311,-0.067c0.102,0.023 0.192,0.042 0.311,0.067Z" style="fill:#ba907b;fill-rule:nonzero;"/><path d="M155.032,193.036" style="fill:#ba907b;fill-rule:nonzero;"/><path d="M150.561,193.053c-0.096,-0.025 -0.183,-0.052 -0.277,-0.078l-0.01,0.004c0,0 0.107,0.029 0.287,0.074Z" style="fill:#ba907b;fill-rule:nonzero;"/><path d="M155.031,193.036l0.001,0l-0.001,0Z" style="fill:#ba907b;fill-rule:nonzero;"/><path d="M154.918,195.622" style="fill:#bc917b;fill-rule:nonzero;"/><path d="M154.918,195.622" style="fill:#bc917b;fill-rule:nonzero;"/><path d="M150.99,192.664c-0.112,-0.024 -0.222,-0.046 -0.334,-0.071c0.11,0.024 0.206,0.045 0.334,0.071Z" style="fill:#bc917b;fill-rule:nonzero;"/><path d="M154.918,192.453" style="fill:#bc917b;fill-rule:nonzero;"/><path d="M150.126,192.471c-0.103,-0.026 -0.196,-0.056 -0.297,-0.083l-0.011,0.005c0,0 0.115,0.031 0.308,0.078Z" style="fill:#bc917b;fill-rule:nonzero;"/><path d="M154.918,192.453" style="fill:#bc917b;fill-rule:nonzero;"/><path d="M154.67,194.78" style="fill:#bc917b;fill-rule:nonzero;"/><path d="M154.67,194.78" style="fill:#bc917b;fill-rule:nonzero;"/><path d="M150.742,191.822c-0.112,-0.024 -0.222,-0.046 -0.334,-0.071c0.11,0.024 0.206,0.044 0.334,0.071Z" style="fill:#bc917b;fill-rule:nonzero;"/><path d="M154.67,191.611" style="fill:#bc917b;fill-rule:nonzero;"/><path d="M149.878,191.629c-0.103,-0.026 -0.196,-0.056 -0.297,-0.083l-0.011,0.004c0,0 0.115,0.032 0.308,0.079Z" style="fill:#bc917b;fill-rule:nonzero;"/><path d="M154.67,191.611" style="fill:#bc917b;fill-rule:nonzero;"/><path d="M155.309,194.566" style="fill:#bc917b;fill-rule:nonzero;"/><path d="M155.309,194.566" style="fill:#bc917b;fill-rule:nonzero;"/><path d="M151.512,191.707c-0.108,-0.023 -0.215,-0.044 -0.322,-0.069c0.106,0.024 0.199,0.043 0.322,0.069Z" style="fill:#bc917b;fill-rule:nonzero;"/><path d="M155.309,191.503" style="fill:#bc917b;fill-rule:nonzero;"/><path d="M150.677,191.52c-0.099,-0.025 -0.189,-0.054 -0.287,-0.08l-0.01,0.005c0,0 0.111,0.03 0.297,0.075Z" style="fill:#bc917b;fill-rule:nonzero;"/><path d="M155.309,191.503" style="fill:#bc917b;fill-rule:nonzero;"/><path d="M154.982,192.371l0,16.198c-6.489,-0.049 -12.306,-1.521 -16.353,-3.853c-3.64,-2.095 -5.44,-4.908 -5.44,-7.987c0,-1.706 0.288,-3.307 1.551,-4.777l0.607,0.088c-0.179,0.969 0.252,-0.343 0.252,-0.343c0.628,0 1.5,-0.337 2.271,-0.407c0.179,-0.009 0.346,-0.03 0.501,-0.061l0.24,0.489c0.908,1.852 2.984,2.827 4.985,2.329c2.672,-0.665 6.725,-1.463 11.386,-1.676Z" style="fill:#5c443b;fill-rule:nonzero;"/><path d="M154.755,187.762l0,0.013l-0.109,-0.013l-0.109,0.013l0,-0.013c-1.593,0.123 -3.147,-0.15 -4.58,-0.551l0.004,0.003c-4.88,-1.53 -9.593,2.692 -10.189,3.251c-0.363,0.357 -0.791,0.641 -1.401,0.764l0.24,0.49c0.908,1.852 2.983,2.828 4.985,2.329c2.671,-0.665 6.724,-1.463 11.385,-1.676l0,-4.601l-0.226,-0.009Z" style="fill:#fff;fill-rule:nonzero;"/><path d="M177.188,196.755c0,3.079 -2.216,5.869 -5.857,7.964c-4.05,2.329 -9.864,3.801 -16.349,3.85l0,-16.198c4.66,0.213 8.713,1.011 11.382,1.676c2.004,0.498 4.078,-0.477 4.986,-2.329l0.239,-0.489c0.155,0.031 0.322,0.052 0.502,0.061c0.774,0.07 1.642,0.407 2.27,0.407c0,0 0.435,1.312 0.252,0.343l0.608,-0.088c1.263,1.47 1.967,3.097 1.967,4.803Z" style="fill:#5c443b;fill-rule:nonzero;"/><path d="M155.207,187.762l0,0.013l0.109,-0.013l0.109,0.013l0,-0.013c1.593,0.123 3.147,-0.15 4.58,-0.551l-0.005,0.003c4.88,-1.53 9.594,2.692 10.189,3.251c0.364,0.357 0.791,0.641 1.401,0.764l-0.24,0.49c-0.907,1.852 -2.983,2.828 -4.985,2.329c-2.671,-0.665 -6.724,-1.463 -11.384,-1.676l0,-4.601l0.226,-0.009Z" style="fill:#fff;fill-rule:nonzero;"/><path d="M164.26,182.457c0,0 -1.581,0.616 -3.425,1.115l0.013,0.005c0,0 -0.125,0.034 -0.334,0.085c-0.192,0.05 -0.381,0.087 -0.576,0.133c-0.118,0.026 -0.222,0.048 -0.361,0.077c-0.322,0.069 -0.635,0.132 -0.95,0.181c-0.947,0.165 -2.098,0.319 -3.311,0.367l-0.001,0c-0.111,0.004 -0.223,0.005 -0.334,0.008c-0.112,-0.003 -0.224,-0.004 -0.335,-0.008c-1.214,-0.048 -2.365,-0.202 -3.312,-0.367c-0.314,-0.049 -0.627,-0.112 -0.949,-0.181c-0.139,-0.029 -0.243,-0.051 -0.362,-0.077c-0.195,-0.046 -0.384,-0.083 -0.575,-0.133c-0.21,-0.051 -0.334,-0.085 -0.334,-0.085l0.012,-0.005c-1.843,-0.499 -3.425,-1.115 -3.425,-1.115c-5.763,-1.83 -10.961,9.496 -10.961,9.496l0.001,0l0.607,0.086c-0.181,0.97 0.251,-0.342 0.251,-0.342c0.628,0 1.498,-0.338 2.271,-0.406c0.18,-0.009 0.347,-0.03 0.501,-0.061c0.576,-0.117 0.988,-0.38 1.338,-0.709l-0.002,0.006l0.065,-0.062c0.596,-0.559 5.309,-4.781 10.189,-3.251l-0.004,-0.003c1.433,0.401 2.987,0.674 4.58,0.551l0,0.013l0.109,-0.013l0.109,0.013l0,-0.013l0.226,0.009l0.226,-0.009l0,0.013l0.109,-0.013l0.109,0.013l0,-0.013c1.592,0.123 3.147,-0.15 4.58,-0.551l-0.005,0.003c4.88,-1.53 9.594,2.692 10.189,3.251l0.065,0.062l-0.001,-0.006c0.35,0.329 0.761,0.592 1.337,0.709c0.155,0.031 0.321,0.052 0.501,0.061c0.773,0.068 1.643,0.406 2.272,0.406c0,0 0.432,1.312 0.251,0.342l0.606,-0.086l0.001,0c0,0 -5.198,-11.326 -10.961,-9.496Z" style="fill:#d67374;fill-rule:nonzero;"/><path d="M171.331,204.719c-4.05,2.329 -9.864,3.801 -16.349,3.85l0,-4.469c4.66,-0.213 8.713,-1.011 11.382,-1.676c1.992,-0.495 4.053,0.464 4.967,2.295Z" style="fill:#fff;fill-rule:nonzero;"/><path d="M154.982,204.1l0,4.469c-6.489,-0.049 -12.306,-1.521 -16.353,-3.853c0.917,-1.828 2.978,-2.787 4.967,-2.292c2.672,0.665 6.725,1.463 11.386,1.676Z" style="fill:#fff;fill-rule:nonzero;"/><path d="M135.599,191.697c0,0 -3.226,8.599 4.108,11.645c0,0 16.465,8.346 30.547,0.003c0,0 6.684,-4.478 4.109,-11.648c0,0 1.951,-0.247 2.8,4.515c0,0 1.586,10.762 -18.569,12.656c0,0 -20.561,1.26 -25.418,-9.87c0,0 -1.669,-6.602 2.423,-7.301Z" style="fill:#c1646e;fill-rule:nonzero;"/><path d="M201.091,130.582c0,0 -4.908,20.135 -13.334,21.778c-8.427,1.643 -17.546,-1.623 -17.546,-1.623c0,0 -0.872,-23.664 3.443,-26.756c4.311,-3.105 14.249,-7.593 27.437,6.601Z" style="fill:#fff;fill-rule:nonzero;"/><path d="M170.199,150.674c0,0 0.193,0.056 0.626,0.237c0.108,-7.258 0.779,-17.227 3.474,-19.137c4.005,-2.933 13.052,-7.062 25.138,4.229c1.098,-3.119 1.648,-5.484 1.648,-5.484c-13.212,-14.22 -23.16,-9.74 -27.438,-6.633c-4.319,3.105 -3.448,26.788 -3.448,26.788Z" style="fill:#d6b496;fill-rule:nonzero;"/><path d="M175.188,140.422c0,4.58 3.713,8.293 8.294,8.293c4.581,0 8.294,-3.713 8.294,-8.293c0,-4.581 -3.713,-8.294 -8.294,-8.294c-4.581,0 -8.294,3.713 -8.294,8.294Z" style="fill:#482315;fill-rule:nonzero;"/><path d="M183.868,145.944c2.394,-0.197 4.233,-2.614 4.015,-5.272c-0.214,-2.657 -2.422,-4.736 -4.819,-4.534c-2.395,0.196 -4.231,2.61 -4.019,5.267c0.218,2.658 2.428,4.74 4.823,4.539Z" style="fill:#7e3a22;fill-rule:nonzero;"/><path d="M183.66,144.986c1.668,-0.142 3.397,-1.97 3.214,-4.223c-0.187,-2.26 -2.19,-3.786 -3.857,-3.649c-1.668,0.142 -3.393,1.979 -3.209,4.232c0.183,2.255 2.189,3.778 3.852,3.64Z" style="fill:#211a10;fill-rule:nonzero;"/><path d="M185.011,139.429c0.069,0.814 0.905,1.409 1.863,1.33c0.96,-0.081 1.682,-0.81 1.617,-1.619c-0.068,-0.818 -0.899,-1.413 -1.858,-1.335c-0.963,0.078 -1.687,0.806 -1.622,1.624Z" style="fill:#fff;fill-rule:nonzero;"/><path d="M179.633,144.139c0.036,0.404 0.453,0.704 0.93,0.663c0.482,-0.038 0.841,-0.404 0.811,-0.81c-0.035,-0.404 -0.452,-0.704 -0.93,-0.663c-0.481,0.037 -0.845,0.401 -0.811,0.81Z" style="fill:#fff;fill-rule:nonzero;"/><path d="M100.853,58.564c0.546,-0.604 1.142,-1.208 1.687,-1.765c-0.743,-5.155 1.886,-11.889 15.927,-17.694c0,0 -4.416,4.551 -7.839,10.774c13.296,-10.031 27.288,-14.908 27.288,-14.908l-6.103,5.713c3.622,-2.786 10.121,-6.687 21.037,-10.124c15.529,-4.877 25.552,0.557 25.552,0.557c0,0 -8.088,-0.279 -12.057,2.88c3.92,-1.673 10.667,-2.23 21.93,2.414c0.645,0.279 1.339,0.557 1.984,0.883c4.069,-0.604 8.385,-1.626 12.85,-3.297c0,0 -2.827,3.064 -7.541,6.083c3.671,2.322 6.5,4.83 8.931,7.384c5.755,0.186 12.205,-0.372 19.201,-2.368c0,0 -5.756,5.293 -14.24,8.22c1.29,1.672 2.531,3.25 3.771,4.737c5.606,1.439 12.057,2.275 19.399,1.858c0,0 -5.209,2.971 -12.502,4.411c1.488,0.976 3.174,1.765 5.11,2.415c15.728,5.108 20.292,-1.486 20.292,-1.486c0,0 -6.847,11.517 -18.953,11.564c-1.934,0 -2.133,-0.047 -2.133,-0.047c0,0 2.927,7.988 4.515,15.93c3.622,1.347 7.591,2.46 12.007,3.158c0,0 -4.764,1.439 -11.213,1.578c0,0 0.049,0.557 0.099,0.836c0.893,9.381 -1.886,15.836 -2.729,33.391c-0.744,15.001 -4.763,7.291 -9.477,18.345c-1.587,3.715 -1.686,7.894 -1.686,7.894c-1.737,0.465 -6.351,-9.01 -3.076,-25.403c0.645,-3.065 0.198,-8.499 -1.34,-14.582c-4.267,-1.486 -18.606,-4.552 -22.128,17.926c0,0 -2.58,-3.483 0.149,-15.279c0.148,-0.604 0.297,-1.208 0.446,-1.812c4.416,-18.251 -1.736,-14.86 -5.507,-11.471c0,0 -1.786,1.765 -4.763,4.041c0,0 -0.893,0.743 -2.63,1.904c-3.324,2.229 -7.591,4.644 -12.403,6.223c-13.247,5.202 -35.376,9.938 -66.782,4.18c-0.397,-0.047 -0.596,-0.047 -0.596,-0.047c0,2.044 0.1,4.18 0.298,6.409c2.332,27.168 -2.084,26.982 -2.084,26.982c-1.339,0 0.1,-7.244 -4.316,-12.213c-4.416,-5.016 -11.163,-21.828 -11.163,-38.593c0,-16.811 5.755,-31.719 20.788,-47.601Z" style="fill:#3a2f34;fill-rule:nonzero;"/><path d="M144.223,130.946c-0.064,-0.098 -1.592,-2.423 -4.718,-4.82c-1.959,-1.503 -3.878,-2.646 -5.87,-3.498c-2.42,-1.017 -5.027,-1.736 -7.552,-2.081c-2.284,-0.254 -4.814,-0.187 -7.767,0.211c-2.255,0.429 -4.454,1.1 -6.32,1.922c-1.331,0.458 -2.382,1.102 -3.226,1.62c-0.324,0.199 -0.616,0.378 -0.914,0.538l-4.026,2.531l4.64,-1.09c0.215,-0.055 0.45,-0.116 0.701,-0.183c0.959,-0.254 2.153,-0.571 3.554,-0.776c0.328,-0.048 0.662,-0.115 1.002,-0.182c0.583,-0.116 1.186,-0.237 1.819,-0.267c0.703,-0.047 1.431,-0.099 2.18,-0.153l0.974,-0.07c2.569,-0.032 4.739,0.162 6.667,0.607c2.106,0.363 4.273,1.043 6.259,1.963c1.874,0.897 3.672,1.787 5.075,2.817c2.834,1.891 4.411,3.468 4.426,3.484c0.389,0.392 0.909,0.594 1.432,0.594c0.381,0 0.764,-0.107 1.098,-0.327c0.933,-0.612 1.196,-1.871 0.601,-2.779l-0.035,-0.061Z" style="fill:#030405;fill-rule:nonzero;"/><path d="M201.92,124.819c-0.267,-0.141 -0.56,-0.321 -0.883,-0.519c-0.845,-0.518 -1.896,-1.162 -3.187,-1.604c-1.905,-0.838 -4.104,-1.509 -6.386,-1.943c-2.927,-0.393 -5.459,-0.46 -7.752,-0.205c-2.512,0.344 -5.12,1.063 -7.544,2.081c-1.962,0.84 -3.936,2.016 -5.866,3.497c-3.07,2.353 -4.596,4.637 -4.71,4.812l-0.029,0.042c-0.518,0.798 -0.407,1.866 0.263,2.539c0.382,0.384 0.888,0.596 1.428,0.596l0.001,0c0.539,-0.001 1.045,-0.213 1.426,-0.597l0.016,-0.017c0.149,-0.148 1.68,-1.644 4.428,-3.479c1.381,-1.015 3.18,-1.906 5.05,-2.802c1.993,-0.922 4.159,-1.602 6.293,-1.971c1.9,-0.439 4.073,-0.629 6.609,-0.602l1.023,0.073c0.742,0.053 1.464,0.104 2.172,0.152c0.623,0.029 1.225,0.15 1.809,0.266c0.34,0.067 0.673,0.134 1.001,0.182c1.401,0.205 2.595,0.522 3.555,0.776c0.25,0.067 0.485,0.129 0.708,0.184l4.636,1.09l-4.061,-2.551Z" style="fill:#030405;fill-rule:nonzero;"/><path d="M200.437,265.058c2.003,9.042 3.239,20.241 3.239,34.111c0,0 -0.379,0.184 -1.143,0.702l-94.418,0c-0.759,-0.518 -1.143,-0.702 -1.143,-0.702c0,-13.844 1.235,-25.033 3.234,-34.111l-11.974,0c7.73,-21.03 21.882,-27.709 28.396,-29.723c-0.015,0.205 -0.02,0.415 -0.02,0.625c0,9.626 12.644,17.473 28.529,17.878c0.435,0.016 0.871,0.021 1.307,0.021c16.325,0 29.6,-7.899 29.784,-17.689c7.151,2.799 19.16,10.144 26.059,28.888l-11.85,0Z" style="fill:#5d4d53;fill-rule:nonzero;"/><path d="M162.229,281.351c-1.874,0 -3.374,-1.405 -3.374,-3.139c0,-1.781 1.5,-3.186 3.374,-3.186c1.874,0 3.42,1.405 3.42,3.186c0,1.734 -1.546,3.139 -3.42,3.139Zm-10.402,0.656c-1.874,0 -3.42,-1.406 -3.42,-3.186c0,-1.734 1.546,-3.139 3.42,-3.139c1.875,0 3.374,1.405 3.374,3.139c0,1.78 -1.499,3.186 -3.374,3.186Zm7.45,4.92c-2.952,1.874 -4.357,-1.078 -4.357,-1.078l1.78,-4.966c0,0 5.576,4.123 2.577,6.044Zm-15.04,-7.872c0.703,3.046 3.092,4.498 3.046,8.856c2.483,0.89 4.873,1.921 6.044,4.216l0,1.594l7.169,0l0,-1.453c1.218,-2.343 3.748,-3.42 6.371,-4.357c0.047,-5.67 2.578,-6.607 3.046,-11.058c1.733,-17.898 -30.174,-17.195 -25.676,2.202Z" style="fill:#f1f2f2;fill-rule:nonzero;"/><path d="M139.915,232.284c0,1.633 -1.345,2.962 -3.047,2.962c-1.701,0 -3.046,-1.329 -3.046,-2.962c0,-1.594 1.345,-2.924 3.046,-2.924c1.702,0 3.047,1.33 3.047,2.924Z" style="fill:#37393a;fill-rule:nonzero;"/><path d="M142.883,237.411c0,1.595 -1.385,2.924 -3.086,2.924c-1.662,0 -3.047,-1.329 -3.047,-2.924c0,-1.633 1.385,-2.962 3.047,-2.962c1.701,0 3.086,1.329 3.086,2.962Z" style="fill:#b998c6;fill-rule:nonzero;"/><path d="M146.563,242.082c0,1.594 -1.385,2.923 -3.047,2.923c-1.701,0 -3.047,-1.329 -3.047,-2.923c0,-1.633 1.346,-2.924 3.047,-2.924c1.662,0 3.047,1.291 3.047,2.924Z" style="fill:#37393a;fill-rule:nonzero;"/><path d="M151.193,245.841c0,1.633 -1.385,2.924 -3.047,2.924c-1.701,0 -3.047,-1.291 -3.047,-2.924c0,-1.595 1.346,-2.924 3.047,-2.924c1.662,0 3.047,1.329 3.047,2.924Z" style="fill:#b998c6;fill-rule:nonzero;"/><path d="M156.892,248.043c0,1.595 -1.385,2.924 -3.047,2.924c-1.702,0 -3.047,-1.329 -3.047,-2.924c0,-1.633 1.345,-2.924 3.047,-2.924c1.662,0 3.047,1.291 3.047,2.924Z" style="fill:#37393a;fill-rule:nonzero;"/><path d="M159.939,243.98c1.701,0 3.047,1.329 3.047,2.924c0,1.633 -1.346,2.962 -3.047,2.962c-1.702,0 -3.047,-1.329 -3.047,-2.962c0,-1.595 1.345,-2.924 3.047,-2.924Z" style="fill:#b998c6;fill-rule:nonzero;"/><path d="M165.241,241.17c1.702,0 3.047,1.291 3.047,2.924c0,1.595 -1.345,2.924 -3.047,2.924c-1.662,0 -3.047,-1.329 -3.047,-2.924c0,-1.633 1.385,-2.924 3.047,-2.924Z" style="fill:#37393a;fill-rule:nonzero;"/><path d="M170.109,237.639c1.701,0 3.047,1.291 3.047,2.924c0,1.594 -1.346,2.923 -3.047,2.923c-1.662,0 -3.047,-1.329 -3.047,-2.923c0,-1.633 1.385,-2.924 3.047,-2.924Z" style="fill:#b998c6;fill-rule:nonzero;"/><path d="M174.066,233.158c1.662,0 3.047,1.329 3.047,2.924c0,1.632 -1.385,2.962 -3.047,2.962c-1.702,0 -3.047,-1.33 -3.047,-2.962c0,-1.595 1.345,-2.924 3.047,-2.924Z" style="fill:#37393a;fill-rule:nonzero;"/><path d="M176.322,227.728c1.701,0 3.046,1.291 3.046,2.924c0,1.594 -1.345,2.924 -3.046,2.924c-1.663,0 -3.048,-1.33 -3.048,-2.924c0,-1.633 1.385,-2.924 3.048,-2.924Z" style="fill:#b998c6;fill-rule:nonzero;"/><path d="M211.914,147.389c-0.401,-0.087 -0.804,-0.171 -1.208,-0.253c-0.329,-0.067 -0.663,-0.134 -0.994,-0.195c-0.107,-0.021 -0.213,-0.041 -0.32,-0.062c1.573,-8.889 2.062,-18.791 0.662,-28.322c0.587,0.077 1.156,0.157 1.707,0.241c1.362,5.724 1.736,10.783 1.123,13.699c-1.181,5.911 -1.336,10.922 -0.97,14.892Z" style="fill:#302e2d;fill-rule:nonzero;"/><path d="M165.64,150.173c-2.378,-4.045 -3.621,-7.385 -3.621,-7.385c-0.757,-2.039 -1.701,-3.245 -2.621,-3.945c-0.357,-2.282 -0.524,-4.421 -0.524,-6.442c0,-0.464 0.01,-0.92 0.026,-1.371c3.3,-1.006 6.84,-4.253 6.84,-4.253c8.134,-4.865 16.561,-7.281 24.335,-8.292c-0.021,0.088 -0.042,0.176 -0.064,0.265c-0.147,0.597 -0.294,1.193 -0.441,1.789c-1.057,-0.095 -2.061,-0.142 -3.021,-0.142c-0.99,0 -1.932,0.05 -2.837,0.151c-0.29,0.04 -0.58,0.084 -0.872,0.134c-4.097,0.076 -7.237,1.784 -9.193,3.204c-0.008,0.006 -0.016,0.012 -0.024,0.017c-1.114,0.639 -2.224,1.382 -3.321,2.223c-3.07,2.353 -4.596,4.637 -4.71,4.812l-0.029,0.042c-0.518,0.798 -0.407,1.866 0.263,2.539c0.382,0.384 0.888,0.596 1.428,0.596l0.001,0c0.539,-0.001 1.045,-0.213 1.426,-0.597l0.016,-0.017c0.103,-0.102 0.859,-0.842 2.217,-1.892c-0.828,5.903 -0.823,13.483 -0.764,17.045c-0.126,0.038 -0.253,0.077 -0.379,0.116c-0.291,0.091 -0.576,0.181 -0.867,0.276c-0.193,0.062 -0.384,0.125 -0.577,0.189c-0.126,0.038 -0.25,0.081 -0.374,0.121c-0.367,0.121 -0.734,0.248 -1.103,0.381c-0.403,0.141 -0.807,0.286 -1.21,0.436Zm43.752,-3.294c-0.227,-0.043 -0.454,-0.086 -0.683,-0.127c-0.336,-0.059 -0.671,-0.121 -1.007,-0.179c-0.618,-0.104 -1.24,-0.204 -1.866,-0.295l-0.231,-0.038c-0.248,-0.035 -0.498,-0.071 -0.753,-0.105c-0.336,-0.047 -0.674,-0.093 -1.01,-0.135c-0.238,-0.031 -0.474,-0.062 -0.715,-0.089c-0.183,-0.021 -0.368,-0.042 -0.554,-0.064c-0.37,-0.043 -0.739,-0.081 -1.109,-0.117c-0.145,-0.016 -0.292,-0.031 -0.443,-0.043c-0.306,-0.03 -0.617,-0.057 -0.924,-0.081c-0.334,-0.03 -0.667,-0.059 -0.998,-0.078c-0.224,-0.019 -0.448,-0.033 -0.672,-0.05c-0.467,-0.029 -0.931,-0.057 -1.401,-0.074c-0.39,-0.022 -0.783,-0.038 -1.176,-0.05l-0.103,-0.003c-0.134,-0.005 -0.268,-0.01 -0.402,-0.014c3.707,-6.387 5.746,-14.755 5.746,-14.755c-0.005,-0.006 -0.011,-0.012 -0.016,-0.018c0.007,-0.03 0.01,-0.045 0.01,-0.045c-2.178,-2.344 -4.268,-4.181 -6.258,-5.599c0.428,0.053 0.845,0.137 1.254,0.218c0.34,0.067 0.673,0.134 1.001,0.182c1.401,0.205 2.595,0.522 3.555,0.776c0.25,0.067 0.485,0.129 0.708,0.184l4.636,1.09l-4.061,-2.551c-0.267,-0.141 -0.56,-0.321 -0.883,-0.519c-0.845,-0.518 -1.896,-1.162 -3.187,-1.604c-0.878,-0.386 -1.818,-0.737 -2.801,-1.045c1.609,-1.859 3.391,-3.048 5.187,-3.774c3.607,0.028 6.923,0.303 9.818,0.68c1.4,9.531 0.911,19.433 -0.662,28.322Z" style="fill:#31302e;fill-rule:nonzero;"/><path d="M170.883,148.435c0.222,-6.875 1.017,-14.961 3.416,-16.661c1.995,-1.461 5.243,-3.219 9.493,-3.219c1.404,0 2.918,0.191 4.533,0.649c-0.066,2.184 0.137,3.731 0.386,4.779c-1.427,-1.16 -3.247,-1.855 -5.229,-1.855c-4.581,0 -8.294,3.713 -8.294,8.294c0,2.51 1.116,4.76 2.879,6.281c-0.269,0.051 -0.539,0.105 -0.811,0.161c-0.574,0.115 -1.153,0.238 -1.734,0.372c-0.229,0.052 -0.46,0.102 -0.689,0.159c-0.141,0.031 -0.278,0.065 -0.417,0.098c-0.257,0.065 -0.519,0.127 -0.779,0.193c-0.314,0.079 -0.629,0.162 -0.943,0.246c-0.603,0.159 -1.207,0.327 -1.811,0.503Zm19.267,-3.081c1.021,-1.378 1.626,-3.085 1.626,-4.932c0,-2.165 -0.83,-4.136 -2.188,-5.613c0.31,-1.744 0.687,-3.324 1.122,-4.757c2.683,1.145 5.603,3.033 8.727,5.951c1.01,-2.869 1.556,-5.1 1.638,-5.439c0.005,0.006 0.011,0.012 0.016,0.018c0,0 -2.039,8.368 -5.746,14.755c-0.301,-0.009 -0.602,-0.014 -0.903,-0.021l-0.062,0c-0.46,-0.01 -0.92,-0.012 -1.38,-0.012c-0.297,0 -0.597,0.002 -0.895,0.005c-0.203,0 -0.403,0.002 -0.606,0.009c-0.154,0 -0.309,0.008 -0.464,0.01c-0.243,0.004 -0.489,0.012 -0.734,0.021c-0.05,0.002 -0.101,0.004 -0.151,0.005Z" style="fill:#323132;fill-rule:nonzero;"/><path d="M170.15,148.654c-0.059,-3.562 -0.064,-11.142 0.764,-17.045c0.615,-0.476 1.354,-1.015 2.211,-1.587c1.381,-1.015 3.18,-1.906 5.05,-2.802c1.993,-0.922 4.159,-1.602 6.293,-1.971c1.295,-0.299 2.717,-0.483 4.294,-0.561c-0.268,1.742 -0.399,3.238 -0.437,4.516c-1.615,-0.458 -3.129,-0.649 -4.533,-0.649c-4.25,0 -7.498,1.758 -9.493,3.219c-2.399,1.7 -3.194,9.786 -3.416,16.661c-0.244,0.072 -0.488,0.144 -0.733,0.219Zm29.287,-12.651c-3.124,-2.918 -6.044,-4.806 -8.727,-5.951c0.621,-2.048 1.358,-3.792 2.18,-5.276c0.468,0.033 0.928,0.065 1.382,0.096c0.187,0.009 0.372,0.026 0.555,0.048c1.99,1.418 4.08,3.255 6.258,5.599c0,0 -0.003,0.015 -0.01,0.045c-0.082,0.339 -0.628,2.57 -1.638,5.439Zm-25.814,-12.1c0.008,-0.005 0.016,-0.011 0.024,-0.017c1.956,-1.42 5.096,-3.128 9.193,-3.204c-2.239,0.38 -4.527,1.046 -6.672,1.947c-0.847,0.363 -1.697,0.789 -2.545,1.274Z" style="fill:#302e2d;fill-rule:nonzero;"/><path d="M178.067,146.703c-1.763,-1.521 -2.879,-3.771 -2.879,-6.281c0,-4.581 3.713,-8.294 8.294,-8.294c1.982,0 3.802,0.695 5.229,1.855c0.316,1.333 0.705,1.858 0.705,1.858c0.054,-0.35 0.112,-0.695 0.172,-1.032c1.358,1.477 2.188,3.448 2.188,5.613c0,1.847 -0.605,3.554 -1.626,4.932c-0.219,0.008 -0.438,0.014 -0.656,0.024c-0.372,0.017 -0.746,0.033 -1.117,0.054c-0.57,0.034 -1.142,0.074 -1.716,0.119c-0.222,0.015 -0.438,0.034 -0.659,0.055c-0.203,0.015 -0.406,0.034 -0.61,0.055l-0.129,0.012c-0.115,0.011 -0.23,0.022 -0.346,0.034c1.857,-0.701 3.151,-2.781 2.966,-5.035c-0.007,-0.09 -0.017,-0.18 -0.029,-0.269c0.423,-0.304 0.677,-0.768 0.637,-1.263c-0.064,-0.769 -0.803,-1.341 -1.689,-1.341c-0.025,0 -0.049,0 -0.074,0.001c-0.842,-1.027 -2.053,-1.676 -3.343,-1.676c-0.106,0 -0.213,0.005 -0.321,0.014c-2.395,0.196 -4.231,2.61 -4.019,5.267c0.068,0.829 0.33,1.603 0.731,2.268c-0.103,0.134 -0.157,0.296 -0.143,0.466c0.034,0.38 0.403,0.667 0.844,0.667c0.028,0 0.057,-0.001 0.086,-0.004c0.041,-0.003 0.081,-0.009 0.119,-0.016c0.661,0.607 1.47,1.015 2.335,1.135c-0.011,0.002 -0.023,0.003 -0.034,0.005c-0.786,0.097 -1.572,0.209 -2.366,0.333c-0.243,0.039 -0.488,0.079 -0.731,0.122c-0.1,0.014 -0.203,0.028 -0.308,0.05c-0.195,0.033 -0.395,0.067 -0.593,0.102c-0.19,0.034 -0.381,0.071 -0.574,0.105c-0.115,0.021 -0.229,0.043 -0.344,0.065Z" style="fill:#221e1d;fill-rule:nonzero;"/><path d="M183.017,145.921c-0.865,-0.12 -1.674,-0.528 -2.335,-1.135c0.337,-0.067 0.596,-0.298 0.671,-0.577c0.637,0.501 1.389,0.786 2.096,0.786c0.071,0 0.142,-0.003 0.211,-0.009c1.668,-0.142 3.397,-1.97 3.214,-4.223c0,-0.001 -0.001,-0.003 -0.001,-0.004l0.001,0c0.373,-0.031 0.711,-0.161 0.98,-0.356c0.012,0.089 0.022,0.179 0.029,0.269c0.185,2.254 -1.109,4.334 -2.966,5.035c-0.13,0.013 -0.26,0.026 -0.391,0.04c-0.187,0.019 -0.378,0.04 -0.566,0.062l-0.158,0.017c-0.26,0.029 -0.524,0.061 -0.785,0.095Zm-3.241,-2.248c-0.401,-0.665 -0.663,-1.439 -0.731,-2.268c-0.212,-2.657 1.624,-5.071 4.019,-5.267c0.108,-0.009 0.215,-0.014 0.321,-0.014c1.29,0 2.501,0.649 3.343,1.676c-0.032,0.001 -0.064,0.003 -0.095,0.005c-0.38,0.031 -0.723,0.163 -0.995,0.362c-0.694,-0.671 -1.582,-1.061 -2.411,-1.061c-0.07,0 -0.14,0.003 -0.21,0.008c-1.668,0.142 -3.393,1.979 -3.209,4.232c0.061,0.753 0.326,1.424 0.713,1.979c-0.026,0.001 -0.051,0.002 -0.077,0.004c-0.281,0.022 -0.523,0.155 -0.668,0.344Z" style="fill:#292321;fill-rule:nonzero;"/><path d="M183.449,144.995c-0.707,0 -1.459,-0.285 -2.096,-0.786c0.019,-0.07 0.027,-0.143 0.021,-0.217c-0.033,-0.38 -0.403,-0.667 -0.843,-0.667c-0.004,0 -0.007,0 -0.01,0c-0.387,-0.555 -0.652,-1.226 -0.713,-1.979c-0.184,-2.253 1.541,-4.09 3.209,-4.232c0.07,-0.005 0.14,-0.008 0.21,-0.008c0.829,0 1.717,0.39 2.411,1.061c-0.417,0.305 -0.667,0.767 -0.627,1.262c0.065,0.765 0.808,1.337 1.694,1.337c0.055,0 0.112,-0.002 0.168,-0.007c0,0.001 0.001,0.003 0.001,0.004c0.183,2.253 -1.546,4.081 -3.214,4.223c-0.069,0.006 -0.14,0.009 -0.211,0.009Z" style="fill:#1b1c1c;fill-rule:nonzero;"/><path d="M186.705,140.766c-0.886,0 -1.629,-0.572 -1.694,-1.337c-0.04,-0.495 0.21,-0.957 0.627,-1.262c0.272,-0.199 0.615,-0.331 0.995,-0.362c0.031,-0.002 0.063,-0.004 0.095,-0.005c0.025,-0.001 0.049,-0.001 0.074,-0.001c0.886,0 1.625,0.572 1.689,1.341c0.04,0.495 -0.214,0.959 -0.637,1.263c-0.269,0.195 -0.607,0.325 -0.98,0.356l-0.001,0c-0.056,0.005 -0.113,0.007 -0.168,0.007Z" style="fill:#323132;fill-rule:nonzero;"/><path d="M180.477,144.806c-0.441,0 -0.81,-0.287 -0.844,-0.667c-0.014,-0.17 0.04,-0.332 0.143,-0.466c0.145,-0.189 0.387,-0.322 0.668,-0.344c0.026,-0.002 0.051,-0.003 0.077,-0.004c0.003,0 0.006,0 0.01,0c0.44,0 0.81,0.287 0.843,0.667c0.006,0.074 -0.002,0.147 -0.021,0.217c-0.075,0.279 -0.334,0.51 -0.671,0.577c-0.038,0.007 -0.078,0.013 -0.119,0.016c-0.029,0.003 -0.058,0.004 -0.086,0.004Z" style="fill:#323132;fill-rule:nonzero;"/><path d="M215.918,148.349l-0.086,-0.024c-0.4,-0.105 -0.805,-0.207 -1.21,-0.305c-0.243,-0.06 -0.489,-0.122 -0.734,-0.179c-0.164,-0.038 -0.328,-0.079 -0.493,-0.115l-0.078,-0.018c-0.466,-0.111 -0.933,-0.217 -1.403,-0.319c-0.366,-3.97 -0.211,-8.981 0.97,-14.892c0.613,-2.916 0.239,-7.975 -1.123,-13.699c6.193,0.942 10.063,2.266 10.063,2.266c2.251,0.953 1.298,6.925 1.298,6.925c-2.597,2.25 -3.462,5.366 -3.462,5.366c-0.852,6.115 -2.177,11.034 -3.742,14.994Zm-26.502,-12.508c0,0 -0.389,-0.525 -0.705,-1.858c-0.249,-1.048 -0.452,-2.595 -0.386,-4.779c0.038,-1.278 0.169,-2.774 0.437,-4.516c0.594,-0.029 1.21,-0.044 1.849,-0.044c0.154,0 0.309,0.001 0.466,0.003l1.023,0.073c0.266,0.019 0.529,0.038 0.79,0.056c-0.822,1.484 -1.559,3.228 -2.18,5.276c-0.435,1.433 -0.812,3.013 -1.122,4.757c-0.06,0.337 -0.118,0.682 -0.172,1.032Zm5.633,-14.19c-1.149,-0.361 -2.354,-0.664 -3.585,-0.898c-0.65,-0.087 -1.281,-0.158 -1.894,-0.214c0.147,-0.596 0.294,-1.192 0.441,-1.789c0.022,-0.089 0.043,-0.177 0.064,-0.265c3.334,-0.434 6.549,-0.61 9.567,-0.61c0.199,0 0.397,0.001 0.594,0.002c-1.796,0.726 -3.578,1.915 -5.187,3.774Z" style="fill:#1f1f20;fill-rule:nonzero;"/><path d="M167.255,134.115l-0.001,0c-0.54,0 -1.046,-0.212 -1.428,-0.596c-0.67,-0.673 -0.781,-1.741 -0.263,-2.539l0.029,-0.042c0.114,-0.175 1.64,-2.459 4.71,-4.812c1.097,-0.841 2.207,-1.584 3.321,-2.223c0.848,-0.485 1.698,-0.911 2.545,-1.274c2.145,-0.901 4.433,-1.567 6.672,-1.947c0.292,-0.05 0.582,-0.094 0.872,-0.134c0.905,-0.101 1.847,-0.151 2.837,-0.151c0.96,0 1.964,0.047 3.021,0.142c0.613,0.056 1.244,0.127 1.894,0.214c1.231,0.234 2.436,0.537 3.585,0.898c0.983,0.308 1.923,0.659 2.801,1.045c1.291,0.442 2.342,1.086 3.187,1.604c0.323,0.198 0.616,0.378 0.883,0.519l4.061,2.551l-4.636,-1.09c-0.223,-0.055 -0.458,-0.117 -0.708,-0.184c-0.96,-0.254 -2.154,-0.571 -3.555,-0.776c-0.328,-0.048 -0.661,-0.115 -1.001,-0.182c-0.409,-0.081 -0.826,-0.165 -1.254,-0.218c-0.183,-0.022 -0.368,-0.039 -0.555,-0.048c-0.454,-0.031 -0.914,-0.063 -1.382,-0.096c-0.261,-0.018 -0.524,-0.037 -0.79,-0.056l-1.023,-0.073c-0.157,-0.002 -0.312,-0.003 -0.466,-0.003c-0.639,0 -1.255,0.015 -1.849,0.044c-1.577,0.078 -2.999,0.262 -4.294,0.561c-2.134,0.369 -4.3,1.049 -6.293,1.971c-1.87,0.896 -3.669,1.787 -5.05,2.802c-0.857,0.572 -1.596,1.111 -2.211,1.587c-1.358,1.05 -2.114,1.79 -2.217,1.892l-0.016,0.017c-0.381,0.384 -0.887,0.596 -1.426,0.597Z" style="fill:#17191a;fill-rule:nonzero;"/><path d="M206.582,161.646c0.341,-2.936 0.721,-5.53 1.169,-7.25c0.627,-2.396 1.18,-4.912 1.641,-7.517c0.107,0.021 0.213,0.041 0.32,0.062c0.331,0.061 0.665,0.128 0.994,0.195c0.404,0.082 0.807,0.166 1.208,0.253c0.246,2.677 0.729,4.879 1.295,6.566c-2.174,3.692 -4.527,6.111 -6.627,7.691Z" style="fill:#4a423f;fill-rule:nonzero;"/><path d="M191.38,165.596c-9.112,0 -14.474,-3.332 -14.474,-3.332c-4.944,-2.718 -8.741,-7.795 -11.266,-12.086c0.403,-0.152 0.807,-0.297 1.21,-0.441c0.369,-0.133 0.736,-0.26 1.103,-0.381c0.124,-0.04 0.248,-0.083 0.374,-0.121c0.193,-0.064 0.384,-0.127 0.577,-0.189c0.291,-0.095 0.576,-0.185 0.867,-0.276c0.126,-0.039 0.253,-0.078 0.379,-0.116c0.021,1.262 0.049,2.02 0.049,2.02c0,0 0.003,0.001 0.009,0.003c0.002,0.04 0.003,0.06 0.003,0.06c0,0 5.822,2.085 12.462,2.085c1.669,0 3.391,-0.132 5.084,-0.462c2.994,-0.584 5.544,-3.502 7.588,-7.023c0.134,0.004 0.268,0.009 0.402,0.014l0.103,0.003c0.393,0.012 0.786,0.028 1.176,0.05c0.47,0.017 0.934,0.045 1.401,0.074c0.224,0.017 0.448,0.031 0.672,0.05c0.331,0.019 0.664,0.048 0.998,0.078c0.307,0.024 0.618,0.051 0.924,0.081c0.151,0.012 0.298,0.027 0.443,0.043c0.37,0.036 0.739,0.074 1.109,0.117c0.186,0.022 0.371,0.043 0.554,0.064c0.241,0.027 0.477,0.058 0.715,0.089c0.336,0.042 0.674,0.088 1.01,0.135c0.255,0.034 0.505,0.07 0.753,0.105l0.231,0.038c0.626,0.091 1.248,0.191 1.866,0.295c0.336,0.058 0.671,0.12 1.007,0.179c0.229,0.041 0.456,0.084 0.683,0.127c-0.461,2.605 -1.014,5.121 -1.641,7.517c-0.448,1.72 -0.828,4.314 -1.169,7.25c-3.56,2.68 -6.394,2.952 -6.394,2.952c-3.223,0.719 -6.173,0.998 -8.808,0.998Z" style="fill:#4c4641;fill-rule:nonzero;"/><path d="M182.673,152.822c-6.64,0 -12.462,-2.085 -12.462,-2.085c0,0 -0.001,-0.02 -0.003,-0.06c0.044,0.013 0.239,0.076 0.617,0.234c0.012,-0.797 0.031,-1.627 0.058,-2.476c0.604,-0.176 1.208,-0.344 1.811,-0.503c0.314,-0.084 0.629,-0.167 0.943,-0.246c0.26,-0.066 0.522,-0.128 0.779,-0.193c0.139,-0.033 0.276,-0.067 0.417,-0.098c0.229,-0.057 0.46,-0.107 0.689,-0.159c0.581,-0.134 1.16,-0.257 1.734,-0.372c0.272,-0.056 0.542,-0.11 0.811,-0.161c1.453,1.253 3.345,2.012 5.415,2.012c2.733,0 5.157,-1.322 6.668,-3.361c0.05,-0.001 0.101,-0.003 0.151,-0.005c0.245,-0.009 0.491,-0.017 0.734,-0.021c0.155,-0.002 0.31,-0.01 0.464,-0.01c0.203,-0.007 0.403,-0.009 0.606,-0.009c0.298,-0.003 0.598,-0.005 0.895,-0.005c0.46,0 0.92,0.002 1.38,0.012l0.062,0c0.301,0.007 0.602,0.012 0.903,0.021c-2.044,3.521 -4.594,6.439 -7.588,7.023c-1.693,0.33 -3.415,0.462 -5.084,0.462Z" style="fill:#4d4c4c;fill-rule:nonzero;"/><path d="M170.825,150.911c-0.378,-0.158 -0.573,-0.221 -0.617,-0.234c-0.006,-0.002 -0.009,-0.003 -0.009,-0.003c0,0 -0.028,-0.758 -0.049,-2.02c0.245,-0.075 0.489,-0.147 0.733,-0.219c-0.027,0.849 -0.046,1.679 -0.058,2.476Z" style="fill:#49423f;fill-rule:nonzero;"/><path d="M183.482,148.715c-2.07,0 -3.962,-0.759 -5.415,-2.012c0.115,-0.022 0.229,-0.044 0.344,-0.065c0.193,-0.034 0.384,-0.071 0.574,-0.105c0.198,-0.035 0.398,-0.069 0.593,-0.102c0.105,-0.022 0.208,-0.036 0.308,-0.05c0.243,-0.043 0.488,-0.083 0.731,-0.122c0.794,-0.124 1.58,-0.236 2.366,-0.333c0.011,-0.002 0.023,-0.003 0.034,-0.005c0.175,0.024 0.352,0.037 0.531,0.037c0.106,0 0.213,-0.005 0.32,-0.014c0.364,-0.03 0.716,-0.111 1.049,-0.237c0.116,-0.012 0.231,-0.023 0.346,-0.034l0.129,-0.012c0.204,-0.021 0.407,-0.04 0.61,-0.055c0.221,-0.021 0.437,-0.04 0.659,-0.055c0.574,-0.045 1.146,-0.085 1.716,-0.119c0.371,-0.021 0.745,-0.037 1.117,-0.054c0.218,-0.01 0.437,-0.016 0.656,-0.024c-1.511,2.039 -3.935,3.361 -6.668,3.361Z" style="fill:#2a1f1c;fill-rule:nonzero;"/><path d="M183.548,145.958c-0.179,0 -0.356,-0.013 -0.531,-0.037c0.261,-0.034 0.525,-0.066 0.785,-0.095l0.158,-0.017c0.188,-0.022 0.379,-0.043 0.566,-0.062c0.131,-0.014 0.261,-0.027 0.391,-0.04c-0.333,0.126 -0.685,0.207 -1.049,0.237c-0.107,0.009 -0.214,0.014 -0.32,0.014Z" style="fill:#392923;fill-rule:nonzero;"/><path d="M213.209,153.955c-0.566,-1.687 -1.049,-3.889 -1.295,-6.566c0.47,0.102 0.937,0.208 1.403,0.319l0.078,0.018c0.165,0.036 0.329,0.077 0.493,0.115c0.245,0.057 0.491,0.119 0.734,0.179c0.405,0.098 0.81,0.2 1.21,0.305l0.086,0.024c-0.845,2.136 -1.76,3.992 -2.709,5.606Z" style="fill:#242325;fill-rule:nonzero;"/><path d="M98.727,148.087c-0.161,-0.414 -0.32,-0.839 -0.475,-1.275c0.015,-0.397 0.027,-0.809 0.036,-1.238c0.137,0.846 0.283,1.685 0.439,2.513Z" style="fill:#2f2d2c;fill-rule:nonzero;"/><path d="M148.633,150.962l-0.029,-0.009c-0.369,-0.131 -0.738,-0.26 -1.106,-0.382c-0.314,-0.105 -0.63,-0.207 -0.947,-0.309c-0.191,-0.063 -0.381,-0.124 -0.57,-0.184l-0.3,-0.093c-0.976,-0.302 -1.951,-0.581 -2.923,-0.839c-0.314,-0.083 -0.629,-0.167 -0.943,-0.245c-0.26,-0.064 -0.52,-0.128 -0.777,-0.193c-0.14,-0.033 -0.279,-0.066 -0.417,-0.095c-0.231,-0.06 -0.46,-0.11 -0.691,-0.162c-0.231,-0.053 -0.462,-0.105 -0.693,-0.155c0.043,-4.135 -0.033,-11.621 -0.953,-17.148c1.832,1.359 2.831,2.358 2.843,2.371c0.389,0.392 0.909,0.594 1.432,0.594c0.381,0 0.764,-0.107 1.098,-0.327c0.933,-0.612 1.196,-1.871 0.601,-2.779l-0.035,-0.061c-0.064,-0.098 -1.592,-2.423 -4.718,-4.82c-0.245,-0.187 -0.489,-0.369 -0.732,-0.546c2.252,-0.238 4.411,-0.533 6.473,-0.873c1.259,0.635 2.513,1.323 3.761,2.07c0,0 2.604,2.387 5.427,3.701l0,9.238c-0.609,0.717 -1.199,1.708 -1.706,3.072c0,0 -1.408,3.785 -4.095,8.174Zm-49.283,-1.351c-0.212,-0.492 -0.419,-0.999 -0.623,-1.524c-0.156,-0.828 -0.302,-1.667 -0.439,-2.513c0.082,-3.793 -0.081,-8.848 -0.66,-15.585c-0.198,-2.229 -0.298,-4.365 -0.298,-6.409c0,0 0.199,0 0.596,0.047c3.274,0.6 6.445,1.086 9.518,1.47l-3.614,2.272l4.64,-1.09c0.215,-0.055 0.45,-0.116 0.701,-0.183c0.653,-0.173 1.414,-0.375 2.276,-0.551c0.954,0.094 1.897,0.179 2.831,0.253c-1.91,1.391 -3.91,3.167 -5.991,5.406c0,0 0.004,0.015 0.011,0.045c-0.006,0.006 -0.011,0.012 -0.017,0.018c0,0 2.233,9.156 6.27,15.623c-0.04,0.004 -0.08,0.008 -0.121,0.012c-0.148,0.012 -0.295,0.027 -0.441,0.044c-0.369,0.035 -0.738,0.076 -1.107,0.116c-0.188,0.021 -0.371,0.043 -0.558,0.065c-0.238,0.025 -0.474,0.056 -0.712,0.087c-0.336,0.044 -0.677,0.089 -1.012,0.136c-0.253,0.033 -0.506,0.07 -0.754,0.105l-0.228,0.038c-0.627,0.091 -1.251,0.191 -1.868,0.296c-0.335,0.057 -0.671,0.118 -1.007,0.178c-0.336,0.06 -0.667,0.124 -1.001,0.188c-0.334,0.062 -0.665,0.129 -0.996,0.196c-0.876,0.179 -1.748,0.367 -2.611,0.572l-0.245,0.056c-0.11,0.025 -0.217,0.05 -0.326,0.077c-0.246,0.057 -0.489,0.119 -0.733,0.179c-0.404,0.097 -0.809,0.2 -1.209,0.304c-0.091,0.024 -0.181,0.048 -0.272,0.072Z" style="fill:#302e2d;fill-rule:nonzero;"/><path d="M154.434,139.716l0,-9.238c0.687,0.319 1.387,0.575 2.065,0.718l0.005,0.076c0.138,2.083 0.093,4.293 -0.167,6.663c-0.012,0.112 -0.023,0.224 -0.038,0.337c-0.597,0.265 -1.241,0.712 -1.865,1.444Z" style="fill:#31302e;fill-rule:nonzero;"/><path d="M138.454,148.131c-0.086,-0.017 -0.172,-0.035 -0.258,-0.052c-0.386,-0.08 -0.769,-0.155 -1.156,-0.226c-0.192,-0.033 -0.383,-0.069 -0.574,-0.102c-0.195,-0.039 -0.395,-0.072 -0.593,-0.106c-0.102,-0.019 -0.204,-0.035 -0.304,-0.05c-0.246,-0.042 -0.492,-0.08 -0.732,-0.121c-0.793,-0.124 -1.579,-0.236 -2.366,-0.333c-0.263,-0.035 -0.526,-0.067 -0.79,-0.097c1.544,-1.506 2.503,-3.61 2.503,-5.937c0,-4.581 -3.714,-8.294 -8.293,-8.294c-4.581,0 -8.294,3.713 -8.294,8.294c0,2.091 0.774,4.002 2.052,5.461l-0.044,0.001c-0.394,0.012 -0.789,0.029 -1.177,0.05c-0.47,0.016 -0.936,0.045 -1.401,0.074c-0.224,0.016 -0.448,0.031 -0.672,0.05c-0.333,0.021 -0.667,0.047 -0.998,0.078c-0.27,0.021 -0.537,0.043 -0.806,0.069c-4.037,-6.467 -6.27,-15.623 -6.27,-15.623c0.006,-0.006 0.011,-0.012 0.017,-0.018c0.081,0.339 0.628,2.57 1.639,5.439c6.065,-5.666 11.363,-7.449 15.644,-7.449c4.249,0 7.498,1.759 9.494,3.22c2.284,1.619 3.114,9.031 3.379,15.672Z" style="fill:#323132;fill-rule:nonzero;"/><path d="M139.237,148.296c-0.261,-0.057 -0.522,-0.112 -0.783,-0.165c-0.265,-6.641 -1.095,-14.053 -3.379,-15.672c-1.996,-1.461 -5.245,-3.22 -9.494,-3.22c-4.281,0 -9.579,1.783 -15.644,7.449c-1.011,-2.869 -1.558,-5.1 -1.639,-5.439c-0.007,-0.03 -0.011,-0.045 -0.011,-0.045c2.081,-2.239 4.081,-4.015 5.991,-5.406c3.958,0.318 7.73,0.462 11.323,0.462c1.19,0 2.36,-0.016 3.509,-0.047c0.858,0.291 1.702,0.628 2.516,1.005c1.874,0.897 3.672,1.787 5.075,2.817c0.582,0.388 1.11,0.762 1.583,1.113c0.92,5.527 0.996,13.013 0.953,17.148Z" style="fill:#302e2d;fill-rule:nonzero;"/><path d="M131.681,147.044c-0.011,-0.001 -0.021,-0.002 -0.032,-0.003l-0.157,-0.017c-0.186,-0.022 -0.376,-0.043 -0.565,-0.062c-0.248,-0.026 -0.493,-0.05 -0.739,-0.074l-0.125,-0.011c-0.209,-0.023 -0.41,-0.041 -0.612,-0.056c-0.222,-0.021 -0.44,-0.04 -0.66,-0.054c-0.575,-0.046 -1.146,-0.086 -1.715,-0.119c-0.251,-0.013 -0.501,-0.026 -0.751,-0.038c0.876,-0.114 1.697,-0.524 2.366,-1.139c0.038,0.007 0.078,0.013 0.119,0.016c0.029,0.003 0.058,0.004 0.086,0.004c0.441,0 0.811,-0.287 0.844,-0.667c0.014,-0.17 -0.04,-0.332 -0.143,-0.466c0.401,-0.665 0.662,-1.438 0.731,-2.267c0.211,-2.657 -1.624,-5.071 -4.018,-5.268c-0.108,-0.009 -0.214,-0.014 -0.321,-0.014c-1.29,0 -2.501,0.65 -3.343,1.676c-0.025,-0.001 -0.05,-0.002 -0.075,-0.002c-0.885,0 -1.624,0.573 -1.69,1.342c-0.039,0.494 0.215,0.958 0.638,1.263c-0.012,0.089 -0.022,0.179 -0.029,0.269c-0.203,2.478 1.381,4.746 3.537,5.202c-0.204,-0.007 -0.407,-0.012 -0.61,-0.016c-0.155,-0.003 -0.308,-0.01 -0.462,-0.01c-0.203,-0.005 -0.403,-0.01 -0.605,-0.01c-0.3,-0.002 -0.601,-0.004 -0.896,-0.004c-0.46,0 -0.92,0.002 -1.38,0.012l-0.064,0c-0.436,0.009 -0.867,0.017 -1.303,0.036l-0.058,0.001c-1.278,-1.459 -2.052,-3.37 -2.052,-5.461c0,-4.581 3.713,-8.294 8.294,-8.294c4.579,0 8.293,3.713 8.293,8.294c0,2.327 -0.959,4.431 -2.503,5.937Z" style="fill:#221e1d;fill-rule:nonzero;"/><path d="M126.325,146.61c-0.122,-0.005 -0.243,-0.01 -0.364,-0.015c-0.27,-0.014 -0.539,-0.022 -0.808,-0.031c-0.042,-0.002 -0.084,-0.003 -0.126,-0.005c-2.156,-0.456 -3.74,-2.724 -3.537,-5.202c0.007,-0.09 0.017,-0.18 0.029,-0.269c0.269,0.195 0.607,0.324 0.98,0.356c0,0.001 0,0.003 0,0.004c-0.184,2.252 1.546,4.082 3.213,4.224c0.07,0.005 0.14,0.008 0.211,0.008c0.707,0 1.46,-0.285 2.097,-0.786c0.075,0.279 0.334,0.51 0.671,0.577c-0.669,0.615 -1.49,1.025 -2.366,1.139Zm3.272,-2.252c-0.146,-0.188 -0.387,-0.322 -0.669,-0.343c-0.025,-0.003 -0.051,-0.004 -0.076,-0.004c0.387,-0.555 0.652,-1.227 0.713,-1.98c0.183,-2.253 -1.542,-4.09 -3.21,-4.232c-0.069,-0.005 -0.139,-0.008 -0.209,-0.008c-0.829,0 -1.717,0.39 -2.411,1.061c-0.271,-0.199 -0.614,-0.331 -0.995,-0.362c-0.031,-0.002 -0.063,-0.004 -0.094,-0.005c0.842,-1.026 2.053,-1.676 3.343,-1.676c0.107,0 0.213,0.005 0.321,0.014c2.394,0.197 4.229,2.611 4.018,5.268c-0.069,0.829 -0.33,1.602 -0.731,2.267Z" style="fill:#292321;fill-rule:nonzero;"/><path d="M125.923,145.68c-0.071,0 -0.141,-0.003 -0.211,-0.008c-1.667,-0.142 -3.397,-1.972 -3.213,-4.224c0,-0.001 0,-0.003 0,-0.004c0.057,0.005 0.113,0.007 0.169,0.007c0.885,0 1.629,-0.572 1.694,-1.337c0.039,-0.495 -0.21,-0.957 -0.627,-1.262c0.694,-0.671 1.582,-1.061 2.411,-1.061c0.07,0 0.14,0.003 0.209,0.008c1.668,0.142 3.393,1.979 3.21,4.232c-0.061,0.753 -0.326,1.425 -0.713,1.98c-0.004,0 -0.007,0 -0.011,0c-0.44,0 -0.81,0.287 -0.842,0.667c-0.006,0.074 0.002,0.146 0.021,0.216c-0.637,0.501 -1.39,0.786 -2.097,0.786Z" style="fill:#1b1c1c;fill-rule:nonzero;"/><path d="M122.668,141.451c-0.056,0 -0.112,-0.002 -0.169,-0.007c-0.373,-0.032 -0.711,-0.161 -0.98,-0.356c-0.423,-0.305 -0.677,-0.769 -0.638,-1.263c0.066,-0.769 0.805,-1.342 1.69,-1.342c0.025,0 0.05,0.001 0.075,0.002c0.031,0.001 0.063,0.003 0.094,0.005c0.381,0.031 0.724,0.163 0.995,0.362c0.417,0.305 0.666,0.767 0.627,1.262c-0.065,0.765 -0.809,1.337 -1.694,1.337Z" style="fill:#323132;fill-rule:nonzero;"/><path d="M128.896,145.491c-0.028,0 -0.057,-0.001 -0.086,-0.004c-0.041,-0.003 -0.081,-0.009 -0.119,-0.016c-0.337,-0.067 -0.596,-0.298 -0.671,-0.577c-0.019,-0.07 -0.027,-0.142 -0.021,-0.216c0.032,-0.38 0.402,-0.667 0.842,-0.667c0.004,0 0.007,0 0.011,0c0.025,0 0.051,0.001 0.076,0.004c0.282,0.021 0.523,0.155 0.669,0.343c0.103,0.134 0.157,0.296 0.143,0.466c-0.033,0.38 -0.403,0.667 -0.844,0.667Z" style="fill:#323132;fill-rule:nonzero;"/><path d="M98.252,146.812c-1.313,-3.676 -2.421,-8.11 -3.166,-13.457c0,0 -0.865,-3.116 -3.462,-5.366c0,0 -0.953,-5.972 1.298,-6.925c0,0 9.323,-3.189 22.182,-3.189c8.979,0 19.68,1.554 30.142,6.832c-2.062,0.34 -4.221,0.635 -6.473,0.873c-1.707,-1.237 -3.395,-2.206 -5.138,-2.952c-2.42,-1.017 -5.027,-1.736 -7.552,-2.081c-0.897,-0.1 -1.833,-0.15 -2.817,-0.15c-1.521,0 -3.157,0.119 -4.95,0.361c-2.255,0.429 -4.454,1.1 -6.32,1.922c-1.331,0.458 -2.382,1.102 -3.226,1.62c-0.324,0.199 -0.616,0.378 -0.914,0.538l-0.412,0.259c-3.073,-0.384 -6.244,-0.87 -9.518,-1.47c-0.397,-0.047 -0.596,-0.047 -0.596,-0.047c0,2.044 0.1,4.18 0.298,6.409c0.579,6.737 0.742,11.792 0.66,15.585c-0.009,0.429 -0.021,0.841 -0.036,1.238Zm27.349,-20.552c-3.593,0 -7.365,-0.144 -11.323,-0.462c-0.934,-0.074 -1.877,-0.159 -2.831,-0.253c0.404,-0.083 0.831,-0.16 1.278,-0.225c0.328,-0.048 0.662,-0.115 1.002,-0.182c0.583,-0.116 1.186,-0.237 1.819,-0.267c0.703,-0.047 1.431,-0.099 2.18,-0.153l0.974,-0.07c0.183,-0.002 0.364,-0.003 0.543,-0.003c2.334,0 4.333,0.197 6.124,0.61c1.244,0.214 2.508,0.539 3.743,0.958c-1.149,0.031 -2.319,0.047 -3.509,0.047Z" style="fill:#1f1f20;fill-rule:nonzero;"/><path d="M142.559,134.113c-0.523,0 -1.043,-0.202 -1.432,-0.594c-0.012,-0.013 -1.011,-1.012 -2.843,-2.371c-0.473,-0.351 -1.001,-0.725 -1.583,-1.113c-1.403,-1.03 -3.201,-1.92 -5.075,-2.817c-0.814,-0.377 -1.658,-0.714 -2.516,-1.005c-1.235,-0.419 -2.499,-0.744 -3.743,-0.958c-1.791,-0.413 -3.79,-0.61 -6.124,-0.61c-0.179,0 -0.36,0.001 -0.543,0.003l-0.974,0.07c-0.749,0.054 -1.477,0.106 -2.18,0.153c-0.633,0.03 -1.236,0.151 -1.819,0.267c-0.34,0.067 -0.674,0.134 -1.002,0.182c-0.447,0.065 -0.874,0.142 -1.278,0.225c-0.862,0.176 -1.623,0.378 -2.276,0.551c-0.251,0.067 -0.486,0.128 -0.701,0.183l-4.64,1.09l3.614,-2.272l0.412,-0.259c0.298,-0.16 0.59,-0.339 0.914,-0.538c0.844,-0.518 1.895,-1.162 3.226,-1.62c1.866,-0.822 4.065,-1.493 6.32,-1.922c1.793,-0.242 3.429,-0.361 4.95,-0.361c0.984,0 1.92,0.05 2.817,0.15c2.525,0.345 5.132,1.064 7.552,2.081c1.743,0.746 3.431,1.715 5.138,2.952c0.243,0.177 0.487,0.359 0.732,0.546c3.126,2.397 4.654,4.722 4.718,4.82l0.035,0.061c0.595,0.908 0.332,2.167 -0.601,2.779c-0.334,0.22 -0.717,0.327 -1.098,0.327Z" style="fill:#17191a;fill-rule:nonzero;"/><path d="M123.366,165.596c-2.635,0 -5.584,-0.279 -8.807,-0.998c0,0 -9.134,-0.877 -15.209,-14.987c0.091,-0.024 0.181,-0.048 0.272,-0.072c0.4,-0.104 0.805,-0.207 1.209,-0.304c0.244,-0.06 0.487,-0.122 0.733,-0.179c0.109,-0.027 0.216,-0.052 0.326,-0.077l0.245,-0.056c0.863,-0.205 1.735,-0.393 2.611,-0.572c0.331,-0.067 0.662,-0.134 0.996,-0.196c0.334,-0.064 0.665,-0.128 1.001,-0.188c0.336,-0.06 0.672,-0.121 1.007,-0.178c0.617,-0.105 1.241,-0.205 1.868,-0.296l0.228,-0.038c0.248,-0.035 0.501,-0.072 0.754,-0.105c0.335,-0.047 0.676,-0.092 1.012,-0.136c0.238,-0.031 0.474,-0.062 0.712,-0.087c0.187,-0.022 0.37,-0.044 0.558,-0.065c0.369,-0.04 0.738,-0.081 1.107,-0.116c0.146,-0.017 0.293,-0.032 0.441,-0.044c0.041,-0.004 0.081,-0.008 0.121,-0.012c1.95,3.124 4.321,5.62 7.065,6.155c1.693,0.33 3.415,0.462 5.085,0.462c6.639,0 12.462,-2.085 12.462,-2.085c0,0 0.001,-0.02 0.002,-0.059c0.006,-0.002 0.009,-0.003 0.009,-0.003c0,0 0.044,-1.187 0.063,-3.064c0.231,0.05 0.462,0.102 0.693,0.155c0.231,0.052 0.46,0.102 0.691,0.162c0.138,0.029 0.277,0.062 0.417,0.095c0.257,0.065 0.517,0.129 0.777,0.193c0.314,0.078 0.629,0.162 0.943,0.245c0.972,0.258 1.947,0.537 2.923,0.839l0.3,0.093c0.189,0.06 0.379,0.121 0.57,0.184c0.317,0.102 0.633,0.204 0.947,0.309c0.368,0.122 0.737,0.251 1.106,0.382l0.029,0.009c-2.511,4.112 -6.147,8.748 -10.792,11.302c0,0 -5.364,3.332 -14.475,3.332Z" style="fill:#4a443f;fill-rule:nonzero;"/><path d="M126.701,153.507c-1.67,0 -3.392,-0.132 -5.085,-0.462c-2.744,-0.535 -5.115,-3.031 -7.065,-6.155c0.269,-0.026 0.536,-0.048 0.806,-0.069c0.331,-0.031 0.665,-0.057 0.998,-0.078c0.224,-0.019 0.448,-0.034 0.672,-0.05c0.465,-0.029 0.931,-0.058 1.401,-0.074c0.388,-0.021 0.783,-0.038 1.177,-0.05l0.044,-0.001c1.52,1.736 3.753,2.832 6.242,2.832c2.253,0 4.295,-0.898 5.79,-2.356c0.264,0.03 0.527,0.062 0.79,0.097c0.787,0.097 1.573,0.209 2.366,0.333c0.24,0.041 0.486,0.079 0.732,0.121c0.1,0.015 0.202,0.031 0.304,0.05c0.198,0.034 0.398,0.067 0.593,0.106c0.191,0.033 0.382,0.069 0.574,0.102c0.387,0.071 0.77,0.146 1.156,0.226c0.086,0.017 0.172,0.035 0.258,0.052c0.048,1.193 0.077,2.36 0.093,3.465c0.379,-0.158 0.574,-0.22 0.618,-0.233c-0.001,0.039 -0.002,0.059 -0.002,0.059c0,0 -5.823,2.085 -12.462,2.085Z" style="fill:#4d4c4c;fill-rule:nonzero;"/><path d="M138.547,151.596c-0.016,-1.105 -0.045,-2.272 -0.093,-3.465c0.261,0.053 0.522,0.108 0.783,0.165c-0.019,1.877 -0.063,3.064 -0.063,3.064c0,0 -0.003,0.001 -0.009,0.003c-0.044,0.013 -0.239,0.075 -0.618,0.233Z" style="fill:#49423f;fill-rule:nonzero;"/><path d="M125.891,149.4c-2.489,0 -4.722,-1.096 -6.242,-2.832l0.058,-0.001c0.436,-0.019 0.867,-0.027 1.303,-0.036l0.064,0c0.46,-0.01 0.92,-0.012 1.38,-0.012c0.295,0 0.596,0.002 0.896,0.004c0.202,0 0.402,0.005 0.605,0.01c0.154,0 0.307,0.007 0.462,0.01c0.203,0.004 0.406,0.009 0.61,0.016c0.157,0.033 0.316,0.057 0.479,0.07c0.107,0.009 0.214,0.014 0.32,0.014c0.168,0 0.334,-0.011 0.499,-0.033c0.25,0.012 0.5,0.025 0.751,0.038c0.569,0.033 1.14,0.073 1.715,0.119c0.22,0.014 0.438,0.033 0.66,0.054c0.202,0.015 0.403,0.033 0.612,0.056l0.125,0.011c0.246,0.024 0.491,0.048 0.739,0.074c0.189,0.019 0.379,0.04 0.565,0.062l0.157,0.017c0.011,0.001 0.021,0.002 0.032,0.003c-1.495,1.458 -3.537,2.356 -5.79,2.356Z" style="fill:#2a1f1c;fill-rule:nonzero;"/><path d="M125.826,146.643c-0.106,0 -0.213,-0.005 -0.32,-0.014c-0.163,-0.013 -0.322,-0.037 -0.479,-0.07c0.042,0.002 0.084,0.003 0.126,0.005c0.269,0.009 0.538,0.017 0.808,0.031c0.121,0.005 0.242,0.01 0.364,0.015c-0.165,0.022 -0.331,0.033 -0.499,0.033Z" style="fill:#392923;fill-rule:nonzero;"/><path d="M215.802,140.03l-0.056,0.216c-0.123,0.596 -0.821,3.748 -2.351,7.481c-2.037,4.972 -5.546,10.975 -11.137,13.35c-0.117,0.05 -0.238,0.093 -0.362,0.131c-2.287,0.681 -24.154,6.697 -32.709,-10.368l-0.081,-0.147c-0.102,-0.179 -0.391,-0.694 -0.779,-1.458c-2.068,-4.065 -6.932,-15.176 -1.143,-19.938c0,0 13.612,-10.999 38.826,-8.138c3.964,0.451 7.5,2.819 9.313,6.375c1.436,2.821 2.082,6.842 0.479,12.496Zm-69.821,10.048c-0.164,0.302 -0.283,0.515 -0.34,0.615l-0.079,0.147c-8.555,17.065 -30.424,11.049 -32.711,10.368c-0.124,-0.038 -0.246,-0.081 -0.362,-0.131c-5.129,-2.177 -8.505,-7.411 -10.599,-12.097c-1.906,-4.262 -2.752,-8.074 -2.89,-8.734l-0.055,-0.216c-1.601,-5.654 -0.958,-9.675 0.481,-12.496c1.811,-3.556 5.347,-5.924 9.313,-6.375c25.212,-2.861 38.824,8.138 38.824,8.138c6.258,5.148 0.064,17.717 -1.582,20.781Zm75.843,-29.014c0,0 -29.6,-10.127 -56.084,5.713c0,0 -3.54,3.247 -6.84,4.252c-0.516,0.157 -1.026,0.26 -1.517,0.286l-0.009,0c-0.286,-0.014 -0.58,-0.055 -0.875,-0.119c-3.468,-0.729 -7.492,-4.419 -7.492,-4.419c-26.484,-15.84 -56.085,-5.713 -56.085,-5.713c-2.251,0.953 -1.298,6.925 -1.298,6.925c2.597,2.249 3.462,5.365 3.462,5.365c0.946,6.783 2.473,12.095 4.264,16.257c6.075,14.11 15.209,14.987 15.209,14.987c14.368,3.204 23.282,-2.335 23.282,-2.335c4.645,-2.554 8.281,-7.189 10.792,-11.301c2.687,-4.388 4.095,-8.174 4.095,-8.174c1.024,-2.758 2.389,-3.99 3.571,-4.517c0.381,-0.169 0.743,-0.264 1.07,-0.314l0.009,0c0.589,0.09 1.299,0.331 2.02,0.886c0.92,0.7 1.863,1.906 2.621,3.945c0,0 1.243,3.34 3.621,7.385l0,0.005c2.525,4.291 6.322,9.367 11.266,12.085c0,0 8.914,5.539 23.282,2.335c0,0 9.672,-0.929 15.73,-16.25c1.565,-3.959 2.89,-8.878 3.742,-14.994c0,0 0.865,-3.116 3.462,-5.365c0,0 0.953,-5.972 -1.298,-6.925Z" style="fill:#d67374;fill-rule:nonzero;"/></g></svg>