<?xml version="1.0" encoding="UTF-8" standalone="no"?><!DOCTYPE svg PUBLIC "-//W3C//DTD SVG 1.1//EN" "http://www.w3.org/Graphics/SVG/1.1/DTD/svg11.dtd"><svg width="100%" height="100%" viewBox="0 0 297 300" version="1.1" xmlns="http://www.w3.org/2000/svg" xmlns:xlink="http://www.w3.org/1999/xlink" xml:space="preserve" style="fill-rule:evenodd;clip-rule:evenodd;stroke-linejoin:round;stroke-miterlimit:1.41421;"><g id="_55"><path d="M160.756,207.79c0,0 0.321,7.363 -1.36,7.602c-1.2,-4 -1.84,-8.845 -4.082,-11.045c-3.523,4.082 -6.803,6.603 -6.803,6.603c0,0 -3.122,-2.599 -6.405,-6.681c-2.479,2.32 -4.643,5.762 -6.003,10.164c-0.32,-0.243 -1.2,-5.123 -1.2,-5.123c0,0 -5.762,7.085 -6.882,11.848c-1.122,4.721 2.881,9.761 2.881,9.761c0,0 1.922,-0.958 3.763,-2.561c1.679,11.847 13.203,21.211 13.203,21.211c0,0 11.687,-8.725 14.007,-20.331c1.423,1.001 2.705,1.603 2.705,1.603c0,0 4.241,-5.045 2.881,-9.766c-2.323,-8.245 -6.705,-13.285 -6.705,-13.285Z" style="fill:#e6a52f;fill-rule:nonzero;"/><rect x="0.076" y="0.07" width="296.866" height="299.705" style="fill:#1c87a1;fill-rule:nonzero;"/><path d="M149.473,186.699l0,112.271l-60.728,0c-0.989,-0.395 -1.482,-0.594 -1.482,-0.594c0,-14.332 2.102,-25.505 5.305,-34.219c7.73,-21.03 21.882,-27.709 28.396,-29.723c2.137,-0.661 3.455,-0.82 3.455,-0.82c0.231,0 0.446,-0.021 0.666,-0.057c1.912,-0.307 3.465,-1.968 4.711,-4.618c0.927,-1.968 1.701,-4.48 2.332,-7.386c0.251,-1.133 0.445,-2.276 0.645,-3.511c0.298,-2.076 0.59,-4.249 0.841,-6.525c0.097,-1.383 0.246,-2.716 0.395,-4.151c0.538,-6.869 0.692,-14.388 0.692,-21.507c0,0 8.154,0.84 14.772,0.84Z" style="fill:#e0bd9a;fill-rule:nonzero;"/><path d="M211.933,298.376c0,0 -0.543,0.199 -1.435,0.594l-61.025,0l0,-112.271l0.148,0c6.571,0 14.828,-0.84 14.828,-0.84c0,7.068 0.144,14.485 0.687,21.358c0.149,1.338 0.298,2.716 0.395,4.054c0.251,2.373 0.549,4.598 0.892,6.674l0,0.046c0.097,0.943 0.292,1.784 0.446,2.67c0.6,2.922 1.327,5.49 2.204,7.55c1.092,2.563 2.419,4.352 4.029,5.059c0.512,0.231 1.055,0.344 1.624,0.344c0,0 2.338,0.282 5.838,1.655c7.151,2.799 19.16,10.144 26.059,28.888c3.203,8.714 5.31,19.887 5.31,34.219Z" style="fill:#efd0ad;fill-rule:nonzero;"/><path d="M166.423,217.735l0,0.049c-1.532,2.358 -6.671,9.135 -16.85,9.135l-0.099,0c-9.635,-0.049 -15.269,-7.023 -16.702,-9.086c0.297,-2.062 0.593,-4.223 0.841,-6.483c0.098,-1.326 0.246,-2.701 0.395,-4.125c4.694,1.179 9.833,1.915 15.269,2.013l0.197,0c5.633,-0.098 10.822,-0.883 15.664,-2.16c0.148,1.326 0.297,2.701 0.395,4.027c0.248,2.357 0.544,4.567 0.89,6.63Z" style="fill:#be987f;fill-rule:nonzero;"/><path d="M148.782,58.755c-64.336,0 -64.682,53.78 -61.816,88.994c-4.398,-8.349 -17.492,-5.796 -16.405,7.367c1.038,12.671 19.745,19.129 19.222,17.73c9.742,26.043 35.528,45.675 58.999,45.675l0.495,0l0,-159.766l-0.495,0Z" style="fill:#d2a686;fill-rule:nonzero;"/><path d="M74.663,149.566c3.162,-5.108 8.103,-2.898 9.289,-1.768c1.285,1.228 2.322,2.799 1.532,5.795c-0.445,1.719 -2.224,1.867 -1.828,4.421c0.494,2.897 1.828,3.044 2.618,3.732c0.742,0.639 1.681,1.13 2.125,2.358c0.495,1.227 0.544,2.504 0.297,3.634c-0.495,2.063 -3.508,0.393 -5.534,-0.491c-1.335,-0.639 -5.584,-4.224 -6.671,-5.403c-2.668,-3.045 -3.953,-8.938 -1.828,-12.278Z" style="fill:#ac8774;fill-rule:nonzero;"/><path d="M149.128,58.755c64.336,0 64.682,53.78 61.865,88.994c4.398,-8.349 17.444,-5.796 16.356,7.367c-0.988,12.671 -19.733,19.133 -19.221,17.73c-9.491,26.043 -35.528,45.675 -59,45.675c-0.148,0 -0.346,0 -0.346,0l-0.148,-159.766c0,0 0.346,0 0.494,0Z" style="fill:#ddb598;fill-rule:nonzero;"/><path d="M223.248,149.566c-3.162,-5.108 -8.054,-2.898 -9.29,-1.768c-1.284,1.228 -2.272,2.799 -1.531,5.795c0.444,1.719 2.223,1.867 1.828,4.421c-0.495,2.897 -1.828,3.044 -2.569,3.732c-0.742,0.639 -1.73,1.13 -2.175,2.358c-0.445,1.227 -0.543,2.504 -0.296,3.634c0.494,2.063 3.508,0.393 5.534,-0.491c1.384,-0.639 5.584,-4.224 6.671,-5.403c2.717,-3.045 3.953,-8.938 1.828,-12.278Z" style="fill:#ac8774;fill-rule:nonzero;"/><path d="M148.276,73.932c-21.149,0 -36.665,6.139 -46.003,18.22c-13.095,16.945 -12.601,42.778 -7.808,61.343c1.483,5.697 2.273,20.971 3.261,26.57c4.596,25.097 32.317,38.456 50.55,38.456c0,0 0.346,0 0.494,0l0,-144.589c-0.148,0 -0.296,0 -0.296,0l-0.198,0Z" style="fill:#e0bd9a;fill-rule:nonzero;"/><path d="M194.23,92.202c-9.289,-12.033 -24.607,-18.172 -45.46,-18.27l0,144.589c20.853,-0.246 45.806,-14.882 50.056,-38.456c1.037,-5.599 1.779,-20.873 3.262,-26.57c4.842,-18.516 5.336,-44.3 -7.858,-61.293Z" style="fill:#efd0ad;fill-rule:nonzero;"/><path d="M148.964,190.161" style="fill:#bc917b;fill-rule:nonzero;"/><path d="M148.963,190.161l0.001,0l-0.001,0Z" style="fill:#bc917b;fill-rule:nonzero;"/><path d="M145.396,192.89c-0.102,-0.022 -0.202,-0.041 -0.303,-0.065c0.099,0.022 0.186,0.041 0.303,0.065Z" style="fill:#bc917b;fill-rule:nonzero;"/><path d="M148.964,192.698" style="fill:#bc917b;fill-rule:nonzero;"/><path d="M144.611,192.715c-0.094,-0.025 -0.178,-0.051 -0.27,-0.076l-0.01,0.004c0,0 0.104,0.029 0.28,0.072Z" style="fill:#bc917b;fill-rule:nonzero;"/><path d="M148.963,192.698l0.001,0l-0.001,0Z" style="fill:#bc917b;fill-rule:nonzero;"/><path d="M136.495,174.133c-0.245,-4.997 9.178,-1.826 12.284,-1.67c2.455,0.126 9.923,-1.574 10.564,-1.136c4.394,2.962 -4.654,8.928 -10.72,8.928c-1.616,0 -11.982,-3.109 -12.128,-6.122Z" style="fill:#ddb598;fill-rule:nonzero;"/><path d="M130.809,74.293l-0.268,0.267l0.045,0.089c0.089,-0.134 0.133,-0.267 0.223,-0.356Z" style="fill:#432e1b;fill-rule:nonzero;"/><path d="M89.845,125.241" style="fill:#432e1b;fill-rule:nonzero;"/><path d="M149.236,192.717" style="fill:#ba907b;fill-rule:nonzero;"/><path d="M149.235,192.717l0.001,0l-0.001,0Z" style="fill:#ba907b;fill-rule:nonzero;"/><path d="M145.571,189.957c-0.104,-0.023 -0.207,-0.043 -0.311,-0.067c0.102,0.023 0.192,0.042 0.311,0.067Z" style="fill:#ba907b;fill-rule:nonzero;"/><path d="M149.236,189.76" style="fill:#ba907b;fill-rule:nonzero;"/><path d="M144.765,189.777c-0.096,-0.025 -0.182,-0.052 -0.277,-0.078l-0.01,0.004c0,0 0.107,0.03 0.287,0.074Z" style="fill:#ba907b;fill-rule:nonzero;"/><path d="M149.235,189.76l0.001,0l-0.001,0Z" style="fill:#ba907b;fill-rule:nonzero;"/><path d="M102.617,130.365c0,0 4.908,20.136 13.335,21.779c8.426,1.643 17.547,-1.623 17.547,-1.623c0,0 0.872,-23.664 -3.443,-26.755c-4.311,-3.106 -14.25,-7.594 -27.439,6.599Z" style="fill:#fff;fill-rule:nonzero;"/><path d="M133.51,150.458c0,0 -0.193,0.056 -0.627,0.238c-0.107,-7.259 -0.778,-17.228 -3.472,-19.138c-4.007,-2.934 -13.052,-7.062 -25.138,4.229c-1.099,-3.119 -1.65,-5.484 -1.65,-5.484c13.213,-14.22 23.16,-9.741 27.439,-6.633c4.319,3.105 3.448,26.788 3.448,26.788Z" style="fill:#d6b496;fill-rule:nonzero;"/><path d="M128.52,140.205c0,4.581 -3.713,8.294 -8.293,8.294c-4.58,0 -8.294,-3.713 -8.294,-8.294c0,-4.58 3.714,-8.294 8.294,-8.294c4.58,0 8.293,3.714 8.293,8.294Z" style="fill:#482315;fill-rule:nonzero;"/><path d="M119.841,145.729c-2.394,-0.198 -4.234,-2.615 -4.015,-5.273c0.214,-2.656 2.423,-4.736 4.819,-4.535c2.395,0.197 4.231,2.612 4.019,5.268c-0.218,2.658 -2.428,4.74 -4.823,4.54Z" style="fill:#7e3a22;fill-rule:nonzero;"/><path d="M120.049,144.77c-1.668,-0.142 -3.397,-1.971 -3.214,-4.223c0.188,-2.26 2.189,-3.786 3.857,-3.648c1.667,0.141 3.393,1.978 3.209,4.231c-0.184,2.256 -2.189,3.777 -3.852,3.64Z" style="fill:#211a10;fill-rule:nonzero;"/><path d="M118.699,139.212c-0.07,0.815 -0.906,1.41 -1.864,1.331c-0.959,-0.082 -1.683,-0.809 -1.618,-1.619c0.07,-0.818 0.9,-1.413 1.859,-1.334c0.963,0.077 1.687,0.805 1.623,1.622Z" style="fill:#fff;fill-rule:nonzero;"/><path d="M124.075,143.922c-0.035,0.406 -0.452,0.705 -0.929,0.664c-0.482,-0.037 -0.842,-0.404 -0.811,-0.809c0.034,-0.405 0.452,-0.705 0.929,-0.664c0.482,0.037 0.846,0.401 0.811,0.809Z" style="fill:#fff;fill-rule:nonzero;"/><path d="M149.368,189.676" style="fill:#ba907b;fill-rule:nonzero;"/><path d="M149.367,189.676l0.001,0l-0.001,0Z" style="fill:#ba907b;fill-rule:nonzero;"/><path d="M145.703,192.332c-0.104,-0.023 -0.207,-0.043 -0.311,-0.067c0.102,0.023 0.191,0.042 0.311,0.067Z" style="fill:#ba907b;fill-rule:nonzero;"/><path d="M149.368,192.135" style="fill:#ba907b;fill-rule:nonzero;"/><path d="M144.897,192.152c-0.096,-0.025 -0.183,-0.052 -0.277,-0.078l-0.01,0.004c0,0 0.107,0.029 0.287,0.074Z" style="fill:#ba907b;fill-rule:nonzero;"/><path d="M149.367,192.135l0.001,0l-0.001,0Z" style="fill:#ba907b;fill-rule:nonzero;"/><path d="M149.254,189.306" style="fill:#bc917b;fill-rule:nonzero;"/><path d="M149.254,189.306" style="fill:#bc917b;fill-rule:nonzero;"/><path d="M145.326,191.763c-0.112,-0.024 -0.222,-0.046 -0.334,-0.071c0.11,0.024 0.206,0.045 0.334,0.071Z" style="fill:#bc917b;fill-rule:nonzero;"/><path d="M149.254,191.552" style="fill:#bc917b;fill-rule:nonzero;"/><path d="M144.462,191.57c-0.103,-0.027 -0.196,-0.056 -0.297,-0.083l-0.011,0.005c0,0 0.115,0.031 0.308,0.078Z" style="fill:#bc917b;fill-rule:nonzero;"/><path d="M149.254,191.552" style="fill:#bc917b;fill-rule:nonzero;"/><path d="M149.006,188.464" style="fill:#bc917b;fill-rule:nonzero;"/><path d="M149.006,188.464" style="fill:#bc917b;fill-rule:nonzero;"/><path d="M145.078,190.921c-0.112,-0.024 -0.223,-0.046 -0.334,-0.071c0.11,0.024 0.206,0.044 0.334,0.071Z" style="fill:#bc917b;fill-rule:nonzero;"/><path d="M149.006,190.71" style="fill:#bc917b;fill-rule:nonzero;"/><path d="M144.214,190.728c-0.103,-0.026 -0.196,-0.056 -0.297,-0.083l-0.011,0.004c0,0 0.115,0.032 0.308,0.079Z" style="fill:#bc917b;fill-rule:nonzero;"/><path d="M149.006,190.71" style="fill:#bc917b;fill-rule:nonzero;"/><path d="M149.646,188.249" style="fill:#bc917b;fill-rule:nonzero;"/><path d="M149.645,188.249l0.001,0l-0.001,0Z" style="fill:#bc917b;fill-rule:nonzero;"/><path d="M145.848,190.806c-0.108,-0.023 -0.215,-0.044 -0.322,-0.069c0.106,0.024 0.199,0.043 0.322,0.069Z" style="fill:#bc917b;fill-rule:nonzero;"/><path d="M149.646,190.602" style="fill:#bc917b;fill-rule:nonzero;"/><path d="M145.013,190.619c-0.099,-0.025 -0.189,-0.054 -0.287,-0.08l-0.01,0.004c0,0 0.111,0.031 0.297,0.076Z" style="fill:#bc917b;fill-rule:nonzero;"/><path d="M149.645,190.602l0.001,0l-0.001,0Z" style="fill:#bc917b;fill-rule:nonzero;"/><path d="M195.428,129.68c0,0 -4.908,20.136 -13.335,21.779c-8.427,1.643 -17.547,-1.623 -17.547,-1.623c0,0 -0.871,-23.664 3.443,-26.756c4.311,-3.105 14.251,-7.593 27.439,6.6Z" style="fill:#fff;fill-rule:nonzero;"/><path d="M164.535,149.773c0,0 0.193,0.057 0.626,0.237c0.108,-7.258 0.779,-17.227 3.473,-19.137c4.007,-2.934 13.052,-7.062 25.138,4.229c1.099,-3.119 1.65,-5.485 1.65,-5.485c-13.213,-14.219 -23.161,-9.74 -27.439,-6.632c-4.32,3.104 -3.448,26.788 -3.448,26.788Z" style="fill:#d6b496;fill-rule:nonzero;"/><path d="M169.524,139.52c0,4.581 3.713,8.294 8.294,8.294c4.581,0 8.294,-3.713 8.294,-8.294c0,-4.58 -3.713,-8.294 -8.294,-8.294c-4.581,0 -8.294,3.714 -8.294,8.294Z" style="fill:#482315;fill-rule:nonzero;"/><path d="M178.203,145.043c2.396,-0.197 4.235,-2.614 4.016,-5.272c-0.214,-2.656 -2.422,-4.735 -4.819,-4.535c-2.395,0.197 -4.231,2.612 -4.02,5.268c0.219,2.657 2.429,4.74 4.823,4.539Z" style="fill:#7e3a22;fill-rule:nonzero;"/><path d="M177.996,144.085c1.668,-0.142 3.397,-1.971 3.213,-4.223c-0.187,-2.26 -2.188,-3.785 -3.856,-3.648c-1.668,0.141 -3.393,1.978 -3.209,4.231c0.183,2.255 2.189,3.777 3.852,3.64Z" style="fill:#211a10;fill-rule:nonzero;"/><path d="M179.346,138.527c0.07,0.814 0.906,1.41 1.863,1.331c0.96,-0.082 1.684,-0.809 1.619,-1.619c-0.07,-0.818 -0.901,-1.413 -1.859,-1.335c-0.963,0.078 -1.687,0.805 -1.623,1.623Z" style="fill:#fff;fill-rule:nonzero;"/><path d="M173.969,143.237c0.036,0.406 0.453,0.705 0.93,0.664c0.482,-0.037 0.842,-0.404 0.811,-0.81c-0.034,-0.404 -0.452,-0.704 -0.929,-0.663c-0.482,0.037 -0.846,0.401 -0.812,0.809Z" style="fill:#fff;fill-rule:nonzero;"/><path d="M138.559,130.045c-0.063,-0.099 -1.592,-2.423 -4.718,-4.82c-1.959,-1.503 -3.878,-2.646 -5.87,-3.498c-2.42,-1.017 -5.027,-1.736 -7.552,-2.081c-2.283,-0.254 -4.814,-0.187 -7.767,0.211c-2.255,0.429 -4.454,1.099 -6.32,1.922c-1.331,0.459 -2.382,1.102 -3.227,1.62c-0.323,0.199 -0.616,0.378 -0.913,0.538l-4.025,2.531l4.638,-1.09c0.217,-0.055 0.451,-0.116 0.702,-0.183c0.959,-0.254 2.154,-0.571 3.554,-0.777c0.328,-0.047 0.661,-0.113 1.002,-0.182c0.583,-0.116 1.187,-0.236 1.819,-0.266c0.702,-0.047 1.431,-0.099 2.18,-0.153l0.974,-0.07c2.569,-0.032 4.739,0.163 6.667,0.606c2.107,0.364 4.273,1.044 6.259,1.964c1.874,0.897 3.672,1.787 5.075,2.817c2.834,1.891 4.411,3.468 4.426,3.483l0,0.001c0.389,0.392 0.909,0.594 1.433,0.594c0.38,0 0.763,-0.108 1.097,-0.328c0.933,-0.611 1.195,-1.87 0.601,-2.778l-0.035,-0.061Z" style="fill:#030405;fill-rule:nonzero;"/><path d="M196.256,123.918c-0.266,-0.141 -0.559,-0.321 -0.883,-0.52c-0.845,-0.517 -1.895,-1.16 -3.187,-1.603c-1.905,-0.839 -4.104,-1.509 -6.386,-1.943c-2.927,-0.393 -5.459,-0.461 -7.752,-0.205c-2.513,0.344 -5.12,1.063 -7.543,2.081c-1.963,0.84 -3.937,2.016 -5.866,3.497c-3.07,2.353 -4.597,4.637 -4.712,4.813l-0.028,0.041c-0.518,0.798 -0.407,1.866 0.263,2.538c0.381,0.385 0.888,0.596 1.428,0.596l0.001,0c0.539,0 1.045,-0.212 1.425,-0.596l0.017,-0.017c0.149,-0.148 1.68,-1.644 4.428,-3.48c1.381,-1.014 3.18,-1.905 5.05,-2.801c1.993,-0.922 4.159,-1.602 6.293,-1.971c1.9,-0.438 4.074,-0.629 6.61,-0.602l1.022,0.073c0.742,0.053 1.465,0.104 2.171,0.152c0.623,0.029 1.226,0.149 1.81,0.265c0.34,0.069 0.673,0.135 1.001,0.182c1.401,0.206 2.595,0.523 3.555,0.777c0.251,0.067 0.485,0.129 0.708,0.184l4.636,1.09l-4.061,-2.551Z" style="fill:#030405;fill-rule:nonzero;"/><path d="M148.078,197.601" style="fill:#be927b;fill-rule:nonzero;"/><path d="M148.078,197.601" style="fill:#be927b;fill-rule:nonzero;"/><path d="M144.246,194.715c-0.109,-0.023 -0.217,-0.044 -0.325,-0.069c0.107,0.024 0.2,0.044 0.325,0.069Z" style="fill:#be927b;fill-rule:nonzero;"/><path d="M148.078,194.51" style="fill:#be927b;fill-rule:nonzero;"/><path d="M143.404,194.527c-0.101,-0.026 -0.192,-0.054 -0.29,-0.081l-0.011,0.005c0,0 0.112,0.03 0.301,0.076Z" style="fill:#be927b;fill-rule:nonzero;"/><path d="M148.078,194.51" style="fill:#be927b;fill-rule:nonzero;"/><path d="M136.883,198.869c-0.244,-3.237 9.016,0.678 12.056,0.772c2.426,0.082 9.713,-0.48 10.386,-0.736c5.094,-1.906 -0.278,5.411 -10.536,5.796c-4.7,0.188 -11.767,-3.868 -11.906,-5.832Z" style="fill:#f0d2ad;fill-rule:nonzero;"/><path d="M167.028,192.628c-2.513,-0.123 -5.095,1.971 -8.118,1.651c-0.123,-0.061 -0.185,-0.061 -0.314,-0.061c-0.694,-0.123 -1.383,0 -2.139,0.184c-0.94,0.197 -1.887,0.578 -2.771,0.886c-1.512,0.492 -3.214,0.886 -4.967,0.75l0,0.012l-0.097,-0.011l-0.098,0.011l0,-0.012c-1.752,0.136 -3.455,-0.258 -4.966,-0.75c-0.885,-0.308 -1.832,-0.689 -2.772,-0.886c-0.756,-0.184 -1.444,-0.307 -2.139,-0.184c-0.129,0 -0.19,0 -0.314,0.061c-3.023,0.32 -5.604,-1.774 -8.118,-1.651c-0.695,0.061 -1.703,-0.123 -2.268,-0.123c0.123,0.061 0.252,0.123 0.381,0.184c7.166,3.493 13.349,10.037 20.196,9.828l0.195,0c6.847,0.209 13.031,-6.335 20.196,-9.828c0.129,-0.061 0.258,-0.123 0.382,-0.184c-0.566,0 -1.574,0.184 -2.269,0.123Z" style="fill:#dcbf9e;fill-rule:nonzero;"/><path d="M169.134,192.428c0,0 -7.286,-2.806 -12.469,-1.16c0,0 -1.929,0.753 -3.928,1.211c-1.216,0.474 -2.689,0.611 -4.115,0.554c-1.091,-0.043 -2.127,-0.182 -2.978,-0.33c-0.283,-0.044 -0.565,-0.101 -0.854,-0.163c-0.125,-0.026 -0.218,-0.046 -0.325,-0.069c-0.175,-0.041 -0.345,-0.074 -0.518,-0.119c-0.188,-0.046 -0.3,-0.077 -0.3,-0.077l0.011,-0.004c-1.658,-0.449 -3.08,-1.003 -3.08,-1.003c-5.182,-1.646 -12.469,1.16 -12.469,1.16c-0.1,0.046 -0.162,0.077 -0.162,0.077c0.565,0 1.573,0.184 2.268,0.123c2.514,-0.123 5.095,1.971 8.118,1.651c0.124,-0.061 0.185,-0.061 0.314,-0.061c0.695,-0.123 1.383,0 2.139,0.184c0.94,0.197 1.887,0.578 2.772,0.886c1.511,0.492 3.214,0.886 4.966,0.75l0,0.012l0.098,-0.011l0.097,0.011l0,-0.012c1.753,0.136 3.455,-0.258 4.967,-0.75c0.884,-0.308 1.831,-0.689 2.771,-0.886c0.756,-0.184 1.445,-0.307 2.139,-0.184c0.129,0 0.191,0 0.314,0.061c3.023,0.32 5.605,-1.774 8.118,-1.651c0.695,0.061 1.703,-0.123 2.268,-0.123c0,0 -0.062,-0.031 -0.162,-0.077Z" style="fill:#c69f83;fill-rule:nonzero;"/><path d="M136.383,194.138c0.133,0.033 13.654,4.15 24.229,0.089l-1.218,-0.819l-14.294,0l-8.717,0.73Z" style="fill:#c69f83;fill-rule:nonzero;"/><path d="M234.236,70.633c2.409,-1.468 1.449,-5.145 -1.37,-5.183c-2.843,-0.038 -6.396,-0.581 -10.789,-1.995c-15.895,-5.099 -15.483,-21.732 -38.322,-31.019c-11.657,-4.735 -18.643,-4.139 -22.693,-2.422c0.236,-0.187 0.487,-0.362 0.749,-0.525c2.297,-1.436 1.17,-5.075 -1.539,-5.076c-3.753,-0.002 -8.193,0.53 -13.18,2.077c-11.281,3.508 -18.033,7.492 -21.826,10.356l6.334,-5.866c0,0 -22.849,7.889 -38.393,24.126c-15.535,16.245 -21.492,31.516 -21.492,48.687c0,17.167 6.966,34.375 11.532,39.477c4.57,5.111 3.105,12.518 4.47,12.518c0,0 4.578,0.204 2.135,-27.633c-0.544,-6.214 -0.428,-11.76 0.268,-16.66c0.435,-3.06 4.744,-3.233 5.477,-0.229c0.03,0.121 0.06,0.24 0.089,0.359c0.719,2.845 4.886,2.71 5.413,-0.177c1.568,-8.592 5.835,-15.905 9.91,-21.236c1.52,-1.99 4.682,-1.118 4.973,1.369c0.233,2 0.602,3.909 1.047,5.69c0.733,2.933 4.898,2.742 5.453,-0.229c0.627,-3.357 1.666,-6.517 2.94,-9.438c0.601,-1.38 2.171,-2.025 3.582,-1.504c0.825,0.305 1.642,0.636 2.453,0.988c0.914,0.395 1.515,1.274 1.623,2.266c0.584,5.367 1.857,10.651 3.35,15.413c0.931,2.968 5.364,2.401 5.452,-0.708c0.062,-2.144 0.271,-4.081 0.602,-5.83c0.382,-2.017 2.782,-2.906 4.414,-1.659c8.291,6.333 23.311,20.07 28.2,39.428c0.74,2.926 4.943,2.831 5.445,-0.145c1.845,-10.91 1.836,-26.52 -8.101,-40.297c-1.61,-2.232 0.579,-5.219 3.167,-4.283c4.551,1.646 9.249,5.662 12.693,14.267c1.175,2.935 5.516,1.972 5.363,-1.186c-0.116,-2.388 -0.321,-4.87 -0.647,-7.385c-0.354,-2.737 3.151,-4.261 4.898,-2.125c9.123,11.159 12.74,29.218 11.368,35.889c-1.545,7.564 -1.425,13.681 -0.659,18.079c0.477,2.739 4.3,3.069 5.312,0.479c0.08,-0.205 0.165,-0.409 0.253,-0.613c4.911,-11.317 9.035,-3.45 9.802,-18.806c0.883,-17.963 3.752,-24.534 2.83,-34.131c-0.901,-9.392 -5.581,-21.971 -5.6,-22.02c0.019,0.016 0.218,0.053 2.248,0.053c4.234,-0.01 7.844,-1.359 10.766,-3.141Z" style="fill:#36393a;fill-rule:nonzero;"/><path d="M211.915,299.768l-125.38,0c0,-3.477 0.144,-6.79 0.37,-9.937c0.35,-4.877 0.926,-9.341 1.708,-13.415c0.597,-3.148 1.317,-6.069 2.14,-8.765c3.868,-12.879 9.834,-21.047 15.719,-26.232l42.897,39.462l46.148,-36.334c6.275,6.501 10.205,14.628 12.653,22.611c0.967,3.148 1.687,6.254 2.243,9.258c0.926,4.979 1.358,9.608 1.543,13.415c0.288,6.007 -0.041,9.937 -0.041,9.937Z" style="fill:#d22727;fill-rule:nonzero;"/><path d="M195.515,244.547l-46.148,36.334l-42.898,-39.462c9.32,-8.188 18.394,-8.847 18.394,-8.847l0.452,0.288c1.873,-4.073 4.383,-8.847 6.543,-10.76c0.329,3.354 3.436,12.756 9.896,18.167c4.28,3.601 7.201,5.925 7.962,7.242l0.062,0c0.762,-1.317 3.662,-3.641 7.942,-7.242c6.46,-5.411 9.588,-14.813 9.917,-18.167c2.098,1.852 4.526,6.44 6.398,10.452c9.176,2.139 16.172,6.501 21.48,11.995Z" style="fill:#3a2f34;fill-rule:nonzero;"/><path d="M160.967,259.677l-11.241,11.945l-11.403,-11.945l22.644,0Z" style="fill:#d22727;fill-rule:nonzero;"/><path d="M185.667,170.484c-19.504,-0.437 -22.27,-18.34 -22.27,-18.34c-3.784,-20.378 22.27,-23.58 22.27,-23.58c22.124,-2.184 22.853,17.758 22.853,17.758c-2.184,24.162 -22.853,24.162 -22.853,24.162Zm-48.761,-18.34c0,0 -2.766,17.903 -22.27,18.34c0,0 -20.669,0 -22.852,-24.162c0,0 0.728,-19.942 22.852,-17.758c0,0 26.055,3.202 22.27,23.58Zm77.605,-22.724c-23.51,-9.118 -38.596,-3.476 -38.596,-3.476c-8.621,2.616 -13.112,6.956 -15.41,11.175l-2.254,-1.912c-0.624,-0.53 -1.417,-0.821 -2.235,-0.821l-5.864,0l-5.864,0c-0.819,0 -1.611,0.291 -2.236,0.821l-2.253,1.912c-2.299,-4.219 -6.789,-8.559 -15.411,-11.175c0,0 -15.085,-5.642 -38.596,3.476c-0.686,0.268 -1.14,0.943 -1.14,1.682l0,7.104c0,0.402 0.139,0.786 0.384,1.111c0.704,0.956 2.236,3.872 3.109,11.953c0,0 3.347,19.942 26.491,22.125c0,0 21.251,2.038 27.219,-24.308c0,0 0.917,-4.221 -0.842,-9.234l1.638,-2.077c0.6,-0.762 1.516,-1.206 2.486,-1.206l10.029,0c0.97,0 1.886,0.444 2.487,1.206l1.637,2.077c-1.758,5.013 -0.841,9.234 -0.841,9.234c5.967,26.346 27.218,24.308 27.218,24.308c23.144,-2.183 26.492,-22.125 26.492,-22.125c0.873,-8.074 2.404,-10.997 3.109,-11.953c0.244,-0.325 0.384,-0.709 0.384,-1.111l0,-7.104c0,-0.739 -0.454,-1.414 -1.141,-1.682Z" style="fill:#fff;fill-rule:nonzero;"/><path d="M95.409,158.864c-0.97,-1.725 -1.805,-3.705 -2.443,-5.981c-0.559,-1.962 -0.961,-4.139 -1.182,-6.561c0,0 0,-0.007 0.001,-0.021c0.009,-0.181 0.087,-1.561 0.558,-3.483c0.531,3.733 1.256,7.323 2.122,10.677c0.35,1.342 0.66,3.215 0.944,5.369Z" style="fill:#9eb365;fill-rule:nonzero;"/><path d="M114.636,170.484c0,0 -0.004,0 -0.013,0l-0.033,0c-0.002,0 -0.005,0 -0.007,-0.001l-0.045,0c-0.001,0 -0.001,0 -0.002,0c0,-0.001 -0.001,-0.001 -0.002,-0.001c-0.003,0 -0.005,0 -0.008,0c-0.011,0 -0.022,0 -0.035,-0.001c0,0 -0.001,0 -0.002,0c-0.011,0 -0.023,-0.001 -0.035,-0.001c-0.007,0 -0.014,0 -0.021,-0.001l-0.018,0c-0.001,0 -0.003,0 -0.005,-0.001c-0.004,0 -0.007,0 -0.011,0c-0.006,0 -0.013,0 -0.02,-0.001l-0.014,0c-0.003,0 -0.005,-0.001 -0.007,-0.001c-0.015,0 -0.031,-0.001 -0.047,-0.002c-0.001,0 -0.002,0 -0.004,0c-0.004,0 -0.008,0 -0.013,-0.001l-0.001,0c-0.004,0 -0.009,0 -0.013,0c-0.004,0 -0.008,-0.001 -0.012,-0.001c-0.001,0 -0.001,0 -0.002,0c-0.003,0 -0.006,0 -0.008,0c-0.005,-0.001 -0.011,-0.001 -0.016,-0.001c-0.001,0 -0.002,0 -0.003,0c-0.024,-0.002 -0.048,-0.003 -0.074,-0.004c-0.002,0 -0.004,-0.001 -0.006,-0.001c-0.005,0 -0.009,0 -0.014,-0.001c-0.01,0 -0.021,-0.001 -0.031,-0.001c-0.002,-0.001 -0.004,-0.001 -0.006,-0.001c-0.004,0 -0.007,0 -0.011,0c-0.003,-0.001 -0.007,-0.001 -0.01,-0.001c-0.003,0 -0.006,0 -0.009,-0.001c-0.005,0 -0.011,0 -0.017,-0.001c-0.001,0 -0.002,0 -0.002,0c-0.006,0 -0.012,-0.001 -0.018,-0.001c-0.001,0 -0.003,0 -0.004,0c-0.022,-0.002 -0.045,-0.003 -0.068,-0.005c0,0 -0.001,0 -0.002,0c-0.006,0 -0.012,-0.001 -0.019,-0.001c-0.003,-0.001 -0.005,-0.001 -0.008,-0.001c-0.006,0 -0.012,-0.001 -0.018,-0.001c-0.023,-0.002 -0.046,-0.004 -0.069,-0.005c-0.003,-0.001 -0.006,-0.001 -0.009,-0.001c-0.006,-0.001 -0.012,-0.001 -0.017,-0.001c-0.002,-0.001 -0.004,-0.001 -0.006,-0.001c-0.005,0 -0.01,-0.001 -0.015,-0.001c-0.006,-0.001 -0.012,-0.001 -0.018,-0.001c-0.008,-0.001 -0.017,-0.002 -0.025,-0.002c-0.011,-0.001 -0.023,-0.002 -0.035,-0.003c-0.003,-0.001 -0.005,-0.001 -0.008,-0.001c-0.006,-0.001 -0.011,-0.001 -0.018,-0.002c-0.001,0 -0.003,0 -0.005,0c-0.006,0 -0.012,-0.001 -0.018,-0.002c-0.003,0 -0.007,0 -0.011,0c-0.004,-0.001 -0.009,-0.001 -0.014,-0.002c-0.004,0 -0.007,0 -0.011,-0.001c-0.005,0 -0.01,-0.001 -0.015,-0.001c-0.005,0 -0.009,-0.001 -0.014,-0.001c-0.004,-0.001 -0.008,-0.001 -0.012,-0.001c-0.007,-0.001 -0.013,-0.002 -0.019,-0.002c-0.003,0 -0.005,-0.001 -0.007,-0.001c-0.028,-0.002 -0.056,-0.005 -0.086,-0.008c-0.001,0 -0.004,0 -0.005,0c-0.008,-0.001 -0.016,-0.002 -0.024,-0.003c-0.003,0 -0.005,0 -0.007,0c-0.008,-0.001 -0.016,-0.002 -0.023,-0.003c-0.002,0 -0.004,0 -0.006,0c-0.007,-0.001 -0.014,-0.002 -0.022,-0.002c-0.004,-0.001 -0.009,-0.001 -0.013,-0.002c-0.006,0 -0.011,-0.001 -0.016,-0.001c-0.004,-0.001 -0.007,-0.001 -0.011,-0.001c-0.006,-0.001 -0.012,-0.002 -0.018,-0.002c-0.005,-0.001 -0.01,-0.001 -0.015,-0.002c-0.007,-0.001 -0.014,-0.001 -0.021,-0.002c-0.002,0 -0.004,-0.001 -0.006,-0.001c-0.006,0 -0.012,-0.001 -0.019,-0.002c-0.011,-0.001 -0.023,-0.002 -0.034,-0.003c-0.004,-0.001 -0.007,-0.001 -0.011,-0.002c-0.015,-0.001 -0.031,-0.003 -0.047,-0.005c-0.004,0 -0.01,-0.001 -0.015,-0.001c-0.005,-0.001 -0.01,-0.002 -0.015,-0.002c-0.005,-0.001 -0.011,-0.001 -0.016,-0.002c-0.005,0 -0.01,-0.001 -0.015,-0.002c-0.006,0 -0.013,-0.001 -0.019,-0.002c-0.004,0 -0.007,-0.001 -0.011,-0.001c-0.009,-0.001 -0.018,-0.002 -0.027,-0.003c-0.001,0 -0.002,0 -0.003,-0.001c-0.01,-0.001 -0.02,-0.002 -0.03,-0.003c-0.001,0 -0.004,0 -0.005,-0.001c-0.008,-0.001 -0.015,-0.001 -0.023,-0.002c-0.005,-0.001 -0.009,-0.001 -0.014,-0.002c-0.022,-0.003 -0.043,-0.005 -0.066,-0.008c-0.002,0 -0.005,-0.001 -0.007,-0.001c-0.009,-0.001 -0.017,-0.002 -0.026,-0.003c-0.006,-0.001 -0.012,-0.002 -0.019,-0.003c-0.005,0 -0.009,-0.001 -0.014,-0.001c-0.008,-0.001 -0.015,-0.002 -0.023,-0.003c-0.003,-0.001 -0.007,-0.001 -0.011,-0.002c-0.006,0 -0.013,-0.001 -0.019,-0.002c-0.006,-0.001 -0.011,-0.002 -0.017,-0.002c-0.007,-0.001 -0.013,-0.002 -0.019,-0.003c-0.005,0 -0.01,-0.001 -0.015,-0.002c-0.007,-0.001 -0.014,-0.002 -0.021,-0.002c-0.003,-0.001 -0.007,-0.001 -0.01,-0.002c-0.021,-0.003 -0.041,-0.005 -0.061,-0.008c-0.001,0 -0.002,0 -0.003,0c-0.041,-0.006 -0.083,-0.012 -0.125,-0.018c-0.005,0 -0.009,-0.001 -0.014,-0.002c-0.007,-0.001 -0.014,-0.002 -0.021,-0.003c-0.004,0 -0.01,-0.001 -0.015,-0.002c-0.007,-0.001 -0.015,-0.002 -0.022,-0.003c-0.005,-0.001 -0.01,-0.001 -0.015,-0.002c-0.008,-0.001 -0.016,-0.002 -0.023,-0.004c-0.004,0 -0.008,-0.001 -0.011,-0.001c-0.009,-0.001 -0.018,-0.003 -0.027,-0.004c-0.004,-0.001 -0.008,-0.001 -0.013,-0.002c-0.008,-0.001 -0.017,-0.002 -0.025,-0.004c-0.002,0 -0.004,0 -0.006,-0.001c-0.082,-0.012 -0.167,-0.025 -0.252,-0.039c-0.001,0 -0.003,0 -0.003,0c-0.024,-0.004 -0.048,-0.008 -0.072,-0.012c-0.002,0 -0.006,-0.001 -0.008,-0.001c-4.066,-0.667 -11.917,-3.025 -16.607,-11.357c-0.284,-2.154 -0.594,-4.027 -0.944,-5.369c-0.866,-3.354 -1.591,-6.944 -2.122,-10.677c0.97,-3.954 3.606,-10.197 10.726,-12.989c-0.148,0.155 -0.297,0.313 -0.446,0.474c0,0 0.004,0.015 0.011,0.044c-0.006,0.006 -0.011,0.012 -0.017,0.018c0,0 4.908,20.136 13.335,21.779c1.692,0.33 3.414,0.462 5.083,0.462c6.64,0 12.464,-2.085 12.464,-2.085c0,0 0,-0.021 0.002,-0.06c0.006,-0.002 0.009,-0.003 0.009,-0.003c0,0 0.233,-6.326 -0.138,-12.867c2.868,3.329 4.603,7.838 3.644,13.914c-0.035,0.21 -0.071,0.423 -0.11,0.639c0,0 -2.766,17.903 -22.27,18.34Z" style="fill:#a3bc6d;fill-rule:nonzero;"/><path d="M121.035,152.606c-1.669,0 -3.391,-0.132 -5.083,-0.462c-8.427,-1.643 -13.335,-21.779 -13.335,-21.779c0.006,-0.006 0.011,-0.012 0.017,-0.018c0.081,0.338 0.628,2.57 1.639,5.44c4.367,-4.079 8.335,-6.146 11.814,-6.983c3.039,0.58 10.217,2.358 15.378,6.873c1.02,4.058 1.346,10.149 1.418,15.019c0.379,-0.159 0.574,-0.221 0.618,-0.235c-0.002,0.039 -0.002,0.06 -0.002,0.06c0,0 -5.824,2.085 -12.464,2.085Zm-0.808,-20.695c-4.58,0 -8.294,3.714 -8.294,8.294c0,4.581 3.714,8.294 8.294,8.294c4.58,0 8.293,-3.713 8.293,-8.294c0,-4.58 -3.713,-8.294 -8.293,-8.294Z" style="fill:#acd694;fill-rule:nonzero;"/><path d="M132.883,150.696c-0.072,-4.87 -0.398,-10.961 -1.418,-15.019c0.674,0.59 1.315,1.228 1.907,1.914c0.371,6.541 0.138,12.867 0.138,12.867c0,0 -0.003,0.001 -0.009,0.003c-0.044,0.014 -0.239,0.076 -0.618,0.235Zm-28.61,-14.909c-1.011,-2.87 -1.558,-5.102 -1.639,-5.44c-0.007,-0.029 -0.011,-0.044 -0.011,-0.044c0.149,-0.161 0.298,-0.319 0.446,-0.474c2.272,-0.891 5.002,-1.43 8.279,-1.432l0.016,0c0.979,0 2.01,0.048 3.088,0.149c0.062,0.006 0.122,0.012 0.184,0.018c0,0 0.001,0 0.004,0c0.049,0.006 0.579,0.074 1.447,0.24c-3.479,0.837 -7.447,2.904 -11.814,6.983Z" style="fill:#9fb96c;fill-rule:nonzero;"/><path d="M120.227,148.499c-4.58,0 -8.294,-3.713 -8.294,-8.294c0,-4.58 3.714,-8.294 8.294,-8.294c4.58,0 8.293,3.714 8.293,8.294c0,4.581 -3.713,8.294 -8.293,8.294Zm-4.372,-8.312c-0.012,0.089 -0.021,0.179 -0.029,0.269c-0.219,2.658 1.621,5.075 4.015,5.273c0.108,0.009 0.214,0.013 0.32,0.013c1.062,0 2.072,-0.442 2.866,-1.172c0.039,0.008 0.078,0.013 0.119,0.016c0.029,0.003 0.058,0.004 0.086,0.004c0.44,0 0.81,-0.287 0.843,-0.668c0.015,-0.169 -0.039,-0.331 -0.142,-0.464c0.401,-0.666 0.663,-1.439 0.731,-2.269c0.212,-2.656 -1.624,-5.071 -4.019,-5.268c-0.107,-0.009 -0.214,-0.013 -0.32,-0.013c-1.29,0 -2.501,0.649 -3.343,1.676c-0.026,-0.001 -0.051,-0.001 -0.076,-0.001c-0.885,0 -1.624,0.572 -1.689,1.341c-0.04,0.495 0.215,0.959 0.638,1.263Z" style="fill:#646e34;fill-rule:nonzero;"/><path d="M120.161,145.742c-0.106,0 -0.212,-0.004 -0.32,-0.013c-2.394,-0.198 -4.234,-2.615 -4.015,-5.273c0.008,-0.09 0.017,-0.18 0.029,-0.269c0.269,0.194 0.607,0.324 0.98,0.356c0,0.001 0,0.002 0,0.004c-0.183,2.252 1.546,4.081 3.214,4.223c0.069,0.006 0.14,0.009 0.21,0.009c0.708,0 1.46,-0.285 2.096,-0.786c0.076,0.279 0.335,0.51 0.672,0.577c-0.794,0.73 -1.804,1.172 -2.866,1.172Zm3.772,-2.284c-0.145,-0.189 -0.387,-0.323 -0.669,-0.345c-0.025,-0.002 -0.05,-0.003 -0.076,-0.004c0.387,-0.555 0.652,-1.226 0.713,-1.979c0.184,-2.253 -1.542,-4.09 -3.209,-4.231c-0.07,-0.006 -0.14,-0.009 -0.21,-0.009c-0.83,0 -1.717,0.39 -2.411,1.061c-0.272,-0.199 -0.615,-0.331 -0.995,-0.361c-0.032,-0.003 -0.063,-0.005 -0.094,-0.006c0.842,-1.027 2.053,-1.676 3.343,-1.676c0.106,0 0.213,0.004 0.32,0.013c2.395,0.197 4.231,2.612 4.019,5.268c-0.068,0.83 -0.33,1.603 -0.731,2.269Z" style="fill:#7e7e35;fill-rule:nonzero;"/><path d="M120.259,144.779c-0.07,0 -0.141,-0.003 -0.21,-0.009c-1.668,-0.142 -3.397,-1.971 -3.214,-4.223c0,-0.002 0,-0.003 0,-0.004c0.057,0.005 0.114,0.007 0.17,0.007c0.886,0 1.628,-0.572 1.694,-1.338c0.039,-0.495 -0.211,-0.956 -0.628,-1.261c0.694,-0.671 1.581,-1.061 2.411,-1.061c0.07,0 0.14,0.003 0.21,0.009c1.667,0.141 3.393,1.978 3.209,4.231c-0.061,0.753 -0.326,1.424 -0.713,1.979c-0.004,0 -0.007,0 -0.011,0c-0.44,0 -0.81,0.288 -0.842,0.668c-0.006,0.074 0.002,0.146 0.02,0.216c-0.636,0.501 -1.388,0.786 -2.096,0.786Z" style="fill:#4b6836;fill-rule:nonzero;"/><path d="M117.005,140.55c-0.056,0 -0.113,-0.002 -0.17,-0.007c-0.373,-0.032 -0.711,-0.162 -0.98,-0.356c-0.423,-0.304 -0.678,-0.768 -0.638,-1.263c0.065,-0.769 0.804,-1.341 1.689,-1.341c0.025,0 0.05,0 0.076,0.001c0.031,0.001 0.062,0.003 0.094,0.006c0.38,0.03 0.723,0.162 0.995,0.361c0.417,0.305 0.667,0.766 0.628,1.261c-0.066,0.766 -0.808,1.338 -1.694,1.338Z" style="fill:#acd694;fill-rule:nonzero;"/><path d="M123.232,144.59c-0.028,0 -0.057,-0.001 -0.086,-0.004c-0.041,-0.003 -0.08,-0.008 -0.119,-0.016c-0.337,-0.067 -0.596,-0.298 -0.672,-0.577c-0.018,-0.07 -0.026,-0.142 -0.02,-0.216c0.032,-0.38 0.402,-0.668 0.842,-0.668c0.004,0 0.007,0 0.011,0c0.026,0.001 0.051,0.002 0.076,0.004c0.282,0.022 0.524,0.156 0.669,0.345c0.103,0.133 0.157,0.295 0.142,0.464c-0.033,0.381 -0.403,0.668 -0.843,0.668Z" style="fill:#acd694;fill-rule:nonzero;"/><path d="M114.636,170.484c0,0 -0.004,0 -0.013,0c0.009,0 0.013,0 0.013,0c19.504,-0.437 22.27,-18.34 22.27,-18.34c0,0 -2.766,17.903 -22.27,18.34Zm-0.02,0c-0.003,0 -0.007,0 -0.01,0c0.003,0 0.007,0 0.01,0Zm-0.026,0c-0.002,0 -0.005,0 -0.007,-0.001c0.002,0.001 0.005,0.001 0.007,0.001Zm-0.015,-0.001c-0.009,0 -0.019,0 -0.03,0c0.011,0 0.021,0 0.03,0Zm-0.037,0c-0.001,0 -0.001,0 -0.002,0c0.001,0 0.001,0 0.002,0Zm-0.004,-0.001c-0.003,0 -0.005,0 -0.008,0c0.003,0 0.005,0 0.008,0Zm-0.043,-0.001c0,0 -0.001,0 -0.002,0c0.001,0 0.002,0 0.002,0Zm-0.037,-0.001c-0.007,0 -0.014,0 -0.021,-0.001c0.007,0.001 0.014,0.001 0.021,0.001Zm-0.025,-0.001c-0.004,0 -0.007,0 -0.011,0c0.003,0 0.007,0 0.011,0Zm-0.014,0c-0.001,0 -0.003,0 -0.005,-0.001c0.002,0.001 0.004,0.001 0.005,0.001Zm-0.016,-0.001c-0.006,0 -0.013,0 -0.02,-0.001c0.007,0.001 0.014,0.001 0.02,0.001Zm-0.027,-0.001c-0.002,0 -0.005,0 -0.007,0c0.002,0 0.004,0 0.007,0Zm-0.014,-0.001c-0.015,0 -0.03,-0.001 -0.047,-0.002c0.016,0.001 0.032,0.002 0.047,0.002Zm-0.051,-0.002c-0.004,0 -0.008,0 -0.013,-0.001c0.005,0.001 0.009,0.001 0.013,0.001Zm-0.014,-0.001c-0.004,0 -0.009,0 -0.013,0c0.004,0 0.009,0 0.013,0Zm-0.025,-0.001c-0.001,0 -0.001,0 -0.002,0c0.001,0 0.001,0 0.002,0Zm-0.01,0c-0.005,-0.001 -0.011,-0.001 -0.016,-0.001c0.005,0 0.011,0 0.016,0.001Zm-0.019,-0.001c-0.023,-0.002 -0.048,-0.003 -0.074,-0.004c0.026,0.001 0.05,0.002 0.074,0.004Zm-0.08,-0.005c-0.005,0 -0.009,0 -0.014,-0.001c0.005,0.001 0.009,0.001 0.014,0.001Zm-0.045,-0.002c-0.002,0 -0.004,-0.001 -0.006,-0.001c0.002,0 0.004,0 0.006,0.001Zm-0.017,-0.001c-0.003,-0.001 -0.007,-0.001 -0.01,-0.001c0.003,0 0.007,0 0.01,0.001Zm-0.019,-0.002c-0.005,0 -0.011,0 -0.017,-0.001c0.006,0.001 0.012,0.001 0.017,0.001Zm-0.019,-0.001c-0.006,0 -0.012,-0.001 -0.018,-0.001c0.006,0 0.012,0.001 0.018,0.001Zm-0.022,-0.001c-0.022,-0.002 -0.045,-0.003 -0.068,-0.005c0.023,0.002 0.046,0.003 0.068,0.005Zm-0.07,-0.005c-0.006,0 -0.013,-0.001 -0.019,-0.001c0.007,0 0.013,0.001 0.019,0.001Zm-0.027,-0.002c-0.006,0 -0.012,-0.001 -0.018,-0.001c0.006,0 0.012,0.001 0.018,0.001Zm-0.018,-0.001c-0.023,-0.002 -0.046,-0.004 -0.069,-0.005c0.023,0.001 0.046,0.003 0.069,0.005Zm-0.078,-0.006c-0.006,-0.001 -0.012,-0.001 -0.017,-0.001c0.005,0 0.011,0 0.017,0.001Zm-0.023,-0.002c-0.005,0 -0.01,-0.001 -0.015,-0.001c0.005,0 0.01,0.001 0.015,0.001Zm-0.033,-0.002c-0.008,-0.001 -0.017,-0.002 -0.025,-0.002c0.008,0 0.017,0.001 0.025,0.002Zm-0.06,-0.005c-0.002,-0.001 -0.005,-0.001 -0.008,-0.001c0.003,0 0.005,0 0.008,0.001Zm-0.026,-0.003c-0.001,0 -0.003,0 -0.005,0c0.002,0 0.004,0 0.005,0Zm-0.023,-0.002c-0.003,0 -0.007,0 -0.011,0c0.004,0 0.008,0 0.011,0Zm-0.025,-0.002c-0.004,0 -0.007,0 -0.011,-0.001c0.004,0.001 0.007,0.001 0.011,0.001Zm-0.026,-0.002c-0.004,0 -0.009,-0.001 -0.014,-0.001c0.005,0 0.009,0.001 0.014,0.001Zm-0.026,-0.002c-0.007,-0.001 -0.013,-0.002 -0.019,-0.002c0.006,0 0.012,0.001 0.019,0.002Zm-0.026,-0.003c-0.028,-0.002 -0.057,-0.005 -0.086,-0.008c0.03,0.003 0.058,0.006 0.086,0.008Zm-0.091,-0.008c-0.008,-0.001 -0.016,-0.002 -0.024,-0.003c0.008,0.001 0.016,0.002 0.024,0.003Zm-0.031,-0.003c-0.008,-0.001 -0.015,-0.002 -0.023,-0.003c0.007,0.001 0.015,0.002 0.023,0.003Zm-0.029,-0.003c-0.007,-0.001 -0.014,-0.002 -0.022,-0.002c0.008,0 0.015,0.001 0.022,0.002Zm-0.035,-0.004c-0.005,0 -0.011,-0.001 -0.016,-0.001c0.005,0 0.01,0.001 0.016,0.001Zm-0.027,-0.002c-0.006,-0.001 -0.012,-0.002 -0.018,-0.002c0.006,0 0.012,0.001 0.018,0.002Zm-0.033,-0.004c-0.007,-0.001 -0.014,-0.001 -0.021,-0.002c0.007,0.001 0.014,0.001 0.021,0.002Zm-0.027,-0.003c-0.006,0 -0.013,-0.001 -0.019,-0.002c0.007,0.001 0.013,0.002 0.019,0.002Zm-0.053,-0.005c-0.004,-0.001 -0.007,-0.001 -0.011,-0.002c0.004,0.001 0.007,0.001 0.011,0.002Zm-0.058,-0.007c-0.005,0 -0.01,-0.001 -0.015,-0.001c0.005,0 0.011,0.001 0.015,0.001Zm-0.03,-0.003c-0.005,-0.001 -0.011,-0.001 -0.016,-0.002c0.005,0.001 0.011,0.001 0.016,0.002Zm-0.031,-0.004c-0.006,0 -0.013,-0.001 -0.019,-0.002c0.006,0.001 0.013,0.002 0.019,0.002Zm-0.03,-0.003c-0.009,-0.001 -0.018,-0.002 -0.027,-0.003c0.009,0.001 0.018,0.002 0.027,0.003Zm-0.03,-0.004c-0.01,-0.001 -0.02,-0.002 -0.03,-0.003c0.01,0.001 0.02,0.002 0.03,0.003Zm-0.035,-0.004c-0.008,-0.001 -0.015,-0.001 -0.023,-0.002c0.008,0.001 0.015,0.001 0.023,0.002Zm-0.037,-0.004c-0.022,-0.003 -0.044,-0.005 -0.066,-0.008c0.023,0.003 0.044,0.005 0.066,0.008Zm-0.073,-0.009c-0.008,-0.001 -0.017,-0.002 -0.026,-0.003c0.009,0.001 0.017,0.002 0.026,0.003Zm-0.045,-0.006c-0.004,0 -0.009,-0.001 -0.014,-0.001c0.005,0 0.009,0.001 0.014,0.001Zm-0.037,-0.004c-0.003,-0.001 -0.007,-0.001 -0.011,-0.002c0.004,0.001 0.008,0.001 0.011,0.002Zm-0.03,-0.004c-0.006,-0.001 -0.012,-0.002 -0.017,-0.002c0.006,0 0.011,0.001 0.017,0.002Zm-0.036,-0.005c-0.005,0 -0.01,-0.001 -0.015,-0.002c0.005,0.001 0.01,0.002 0.015,0.002Zm-0.036,-0.004c-0.003,-0.001 -0.007,-0.001 -0.01,-0.002c0.003,0.001 0.007,0.001 0.01,0.002Zm-0.071,-0.01c-0.001,0 -0.002,0 -0.003,0c0.001,0 0.002,0 0.003,0Zm-0.128,-0.018c-0.004,0 -0.01,-0.001 -0.014,-0.002c0.005,0.001 0.009,0.002 0.014,0.002Zm-0.035,-0.005c-0.005,0 -0.01,-0.001 -0.015,-0.002c0.005,0.001 0.011,0.002 0.015,0.002Zm-0.037,-0.005c-0.005,-0.001 -0.01,-0.001 -0.015,-0.002c0.005,0.001 0.01,0.001 0.015,0.002Zm-0.038,-0.006c-0.004,0 -0.008,-0.001 -0.011,-0.001c0.003,0 0.007,0.001 0.011,0.001Zm-0.038,-0.005c-0.004,-0.001 -0.008,-0.001 -0.013,-0.002c0.005,0.001 0.009,0.001 0.013,0.002Zm-0.038,-0.006c-0.002,0 -0.004,0 -0.006,-0.001c0.002,0.001 0.004,0.001 0.006,0.001Zm-0.258,-0.04c-0.001,0 -0.002,0 -0.003,0c0,0 0.002,0 0.003,0Zm-0.075,-0.012c-0.002,0 -0.005,-0.001 -0.008,-0.001c0.002,0 0.006,0.001 0.008,0.001Zm24.992,-18.717c0.959,-6.076 -0.776,-10.585 -3.644,-13.914c-0.592,-0.686 -1.233,-1.324 -1.907,-1.914c-5.161,-4.515 -12.339,-6.293 -15.378,-6.873c-0.868,-0.166 -1.398,-0.234 -1.447,-0.24c0.344,0.043 25.297,3.244 22.412,22.724c-0.012,0.072 -0.024,0.145 -0.036,0.217Zm-45.231,-5.204c0.032,-0.672 1.021,-17.896 19.563,-17.904c-3.277,0.002 -6.007,0.541 -8.279,1.432c-7.12,2.792 -9.756,9.035 -10.726,12.989c-0.471,1.922 -0.549,3.302 -0.558,3.483Zm22.855,-17.737c-0.003,0 -0.004,0 -0.004,0c0,0 0.001,0 0.004,0Zm-0.004,0c-0.062,-0.006 -0.122,-0.012 -0.184,-0.018c0.062,0.006 0.122,0.012 0.184,0.018Zm-3.272,-0.167c-0.001,0 -0.001,0 -0.003,0c0.002,0 0.002,0 0.003,0Z" style="fill:#acd694;fill-rule:nonzero;"/><path d="M200.526,164.406c0.44,-4.379 0.935,-8.502 1.562,-10.911c1.401,-5.358 2.438,-11.323 2.884,-17.509c1.231,1.797 2.037,3.669 2.563,5.319c0.241,0.755 0.423,1.463 0.561,2.097c0.044,1.439 0.154,2.77 0.313,3.99c-0.004,0.037 -0.009,0.078 -0.013,0.115c-0.234,1.953 -0.591,3.74 -1.057,5.376c-1.474,5.253 -3.997,8.937 -6.813,11.523Z" style="fill:#a2ba6e;fill-rule:nonzero;"/><path d="M185.668,170.484c-19.505,-0.437 -22.27,-18.34 -22.27,-18.34c-0.046,-0.259 -0.088,-0.513 -0.13,-0.763c-0.61,-4 -0.048,-7.316 1.235,-10.062c-0.106,4.708 0.032,8.454 0.032,8.454c0,0 0.003,0.001 0.009,0.003c0.002,0.04 0.002,0.06 0.002,0.06c0,0 5.824,2.085 12.464,2.085c1.669,0 3.39,-0.132 5.083,-0.462c8.427,-1.643 13.335,-21.779 13.335,-21.779c-0.006,-0.006 -0.011,-0.012 -0.017,-0.018c0.007,-0.029 0.011,-0.045 0.011,-0.045c-0.165,-0.178 -0.331,-0.353 -0.495,-0.525c0.815,0.205 1.58,0.452 2.301,0.734c3.613,1.414 6.072,3.718 7.744,6.16c-0.446,6.186 -1.483,12.151 -2.884,17.509c-0.627,2.409 -1.122,6.532 -1.562,10.911c-1.755,1.611 -3.624,2.795 -5.422,3.665l-0.001,0c-0.037,0.018 -0.073,0.036 -0.111,0.054c-0.003,0.002 -0.008,0.004 -0.011,0.005c-0.015,0.007 -0.03,0.015 -0.044,0.021c-0.012,0.006 -0.024,0.011 -0.036,0.017c-0.007,0.003 -0.014,0.007 -0.021,0.01c-0.041,0.02 -0.082,0.039 -0.123,0.058c-0.001,0 -0.003,0.001 -0.004,0.001c-4.799,2.227 -9.008,2.247 -9.085,2.247Z" style="fill:#a9c475;fill-rule:nonzero;"/><path d="M177.01,151.921c-6.64,0 -12.464,-2.085 -12.464,-2.085c0,0 0,-0.02 -0.002,-0.06c0.044,0.014 0.239,0.076 0.617,0.234c0.051,-3.45 0.23,-7.512 0.692,-11.03c1.857,-2.667 4.429,-4.677 7.106,-6.182c-2.081,1.507 -3.435,3.956 -3.435,6.722c0,4.581 3.713,8.294 8.294,8.294c4.581,0 8.294,-3.713 8.294,-8.294c0,-3.416 -2.066,-6.35 -5.017,-7.621c0.088,-0.793 0.162,-1.601 0.223,-2.427c0.535,-0.144 1.035,-0.267 1.493,-0.372c0.001,0 0.003,-0.001 0.005,-0.001c0.013,-0.003 0.026,-0.006 0.039,-0.009c0.007,-0.002 0.013,-0.003 0.02,-0.005c0.01,-0.002 0.019,-0.004 0.029,-0.006c0.006,-0.002 0.014,-0.004 0.02,-0.005c0.005,-0.001 0.01,-0.002 0.014,-0.003c0.47,-0.106 0.892,-0.193 1.255,-0.263c2.913,1.096 6.122,3.064 9.579,6.294c1.011,-2.869 1.558,-5.1 1.639,-5.44c0.006,0.006 0.011,0.012 0.017,0.018c0,0 -4.908,20.136 -13.335,21.779c-1.693,0.33 -3.414,0.462 -5.083,0.462Z" style="fill:#acd694;fill-rule:nonzero;"/><path d="M165.161,150.01c-0.378,-0.158 -0.573,-0.22 -0.617,-0.234c-0.006,-0.002 -0.009,-0.003 -0.009,-0.003c0,0 -0.138,-3.746 -0.032,-8.454c0.388,-0.831 0.842,-1.61 1.35,-2.339c-0.462,3.518 -0.641,7.58 -0.692,11.03Zm28.611,-14.908c-3.457,-3.23 -6.666,-5.198 -9.579,-6.294c0.927,-0.177 1.475,-0.244 1.475,-0.244c1.15,-0.114 2.238,-0.167 3.274,-0.167c2.242,0 4.226,0.251 5.985,0.695c0.164,0.172 0.33,0.347 0.495,0.525c0,0 -0.004,0.016 -0.011,0.045c-0.081,0.34 -0.628,2.571 -1.639,5.44Z" style="fill:#9fb96c;fill-rule:nonzero;"/><path d="M177.818,147.814c-4.581,0 -8.294,-3.713 -8.294,-8.294c0,-2.766 1.354,-5.215 3.435,-6.722c0.347,-0.195 0.694,-0.381 1.043,-0.559c0.407,1.228 0.773,2.481 1.096,3.759c0.016,0.061 0.033,0.121 0.051,0.18c-1.181,0.98 -1.906,2.602 -1.769,4.326c0.069,0.83 0.331,1.603 0.732,2.268c-0.103,0.134 -0.157,0.296 -0.143,0.465c0.033,0.381 0.404,0.668 0.844,0.668c0.028,0 0.057,-0.001 0.086,-0.004c0.041,-0.003 0.08,-0.008 0.119,-0.016c0.794,0.73 1.803,1.171 2.865,1.171c0.106,0 0.213,-0.004 0.32,-0.013c2.396,-0.197 4.235,-2.614 4.016,-5.272c-0.007,-0.09 -0.017,-0.18 -0.029,-0.269c0.423,-0.305 0.677,-0.769 0.638,-1.263c-0.066,-0.77 -0.805,-1.342 -1.69,-1.342c-0.025,0 -0.05,0 -0.075,0.001c-0.189,-0.23 -0.396,-0.441 -0.619,-0.63c0.041,-0.132 0.075,-0.27 0.099,-0.415c0.213,-1.259 0.401,-2.58 0.552,-3.954c2.951,1.271 5.017,4.205 5.017,7.621c0,4.581 -3.713,8.294 -8.294,8.294Z" style="fill:#646e34;fill-rule:nonzero;"/><path d="M177.883,145.056c-1.062,0 -2.071,-0.441 -2.865,-1.171c0.337,-0.067 0.596,-0.298 0.671,-0.577c0.637,0.501 1.389,0.786 2.097,0.786c0.071,0 0.14,-0.003 0.21,-0.009c1.668,-0.142 3.397,-1.971 3.213,-4.223c0,-0.001 0,-0.003 0,-0.004c0.374,-0.032 0.712,-0.162 0.981,-0.356c0.012,0.089 0.022,0.179 0.029,0.269c0.219,2.658 -1.62,5.075 -4.016,5.272c-0.107,0.009 -0.214,0.013 -0.32,0.013Zm-3.771,-2.284c-0.401,-0.665 -0.663,-1.438 -0.732,-2.268c-0.137,-1.724 0.588,-3.346 1.769,-4.326c0.1,0.316 0.242,0.595 0.416,0.835c-0.901,0.77 -1.536,2.019 -1.421,3.432c0.061,0.753 0.325,1.424 0.712,1.979c-0.025,0.001 -0.05,0.002 -0.075,0.004c-0.282,0.022 -0.524,0.155 -0.669,0.344Zm5.862,-5.506c-0.017,-0.017 -0.034,-0.033 -0.052,-0.049c0.226,-0.262 0.406,-0.578 0.522,-0.949c0.223,0.189 0.43,0.4 0.619,0.63c-0.031,0.002 -0.062,0.003 -0.094,0.006c-0.38,0.031 -0.723,0.163 -0.995,0.362Z" style="fill:#7e7e35;fill-rule:nonzero;"/><path d="M177.786,144.094c-0.708,0 -1.46,-0.285 -2.097,-0.786c0.019,-0.07 0.027,-0.143 0.021,-0.217c-0.032,-0.379 -0.402,-0.667 -0.842,-0.667c-0.004,0 -0.008,0 -0.012,0c-0.387,-0.555 -0.651,-1.226 -0.712,-1.979c-0.115,-1.413 0.52,-2.662 1.421,-3.432c0.548,0.753 1.413,1.127 2.271,1.127c0.781,0 1.557,-0.31 2.086,-0.923c0.018,0.016 0.035,0.032 0.052,0.049c-0.417,0.304 -0.667,0.766 -0.628,1.261c0.066,0.765 0.809,1.338 1.693,1.338c0.056,0 0.113,-0.002 0.17,-0.007c0,0.001 0,0.003 0,0.004c0.184,2.252 -1.545,4.081 -3.213,4.223c-0.07,0.006 -0.139,0.009 -0.21,0.009Z" style="fill:#4b6836;fill-rule:nonzero;"/><path d="M181.039,139.865c-0.884,0 -1.627,-0.573 -1.693,-1.338c-0.039,-0.495 0.211,-0.957 0.628,-1.261c0.272,-0.199 0.615,-0.331 0.995,-0.362c0.032,-0.003 0.063,-0.004 0.094,-0.006c0.025,-0.001 0.05,-0.001 0.075,-0.001c0.885,0 1.624,0.572 1.69,1.342c0.039,0.494 -0.215,0.958 -0.638,1.263c-0.269,0.194 -0.607,0.324 -0.981,0.356c-0.057,0.005 -0.114,0.007 -0.17,0.007Z" style="fill:#acd694;fill-rule:nonzero;"/><path d="M174.813,143.905c-0.44,0 -0.811,-0.287 -0.844,-0.668c-0.014,-0.169 0.04,-0.331 0.143,-0.465c0.145,-0.189 0.387,-0.322 0.669,-0.344c0.025,-0.002 0.05,-0.003 0.075,-0.004c0.004,0 0.008,0 0.012,0c0.44,0 0.81,0.288 0.842,0.667c0.006,0.074 -0.002,0.147 -0.021,0.217c-0.075,0.279 -0.334,0.51 -0.671,0.577c-0.039,0.008 -0.078,0.013 -0.119,0.016c-0.029,0.003 -0.058,0.004 -0.086,0.004Z" style="fill:#acd694;fill-rule:nonzero;"/><path d="M208.409,147.392c-0.159,-1.22 -0.269,-2.551 -0.313,-3.99c0.381,1.746 0.424,2.92 0.424,2.92c-0.033,0.362 -0.07,0.718 -0.111,1.07Zm-30.573,-9.252c-0.858,0 -1.723,-0.374 -2.271,-1.127c-0.174,-0.24 -0.316,-0.519 -0.416,-0.835c-0.018,-0.059 -0.035,-0.119 -0.051,-0.18c-0.323,-1.278 -0.689,-2.531 -1.096,-3.759c2.597,-1.327 5.218,-2.204 7.316,-2.767c-0.061,0.826 -0.135,1.634 -0.223,2.427c-0.151,1.374 -0.339,2.695 -0.552,3.954c-0.024,0.145 -0.058,0.283 -0.099,0.415c-0.116,0.371 -0.296,0.687 -0.522,0.949c-0.529,0.613 -1.305,0.923 -2.086,0.923Z" style="fill:#507848;fill-rule:nonzero;"/><path d="M185.668,170.484c0.077,0 4.286,-0.02 9.085,-2.247c-4.843,2.247 -9.085,2.247 -9.085,2.247Zm9.089,-2.248c0.041,-0.019 0.082,-0.038 0.123,-0.058c-0.041,0.02 -0.082,0.039 -0.123,0.058Zm0.144,-0.068c0.012,-0.006 0.024,-0.011 0.036,-0.017c-0.012,0.006 -0.024,0.011 -0.036,0.017Zm0.08,-0.038c0.003,-0.001 0.008,-0.003 0.011,-0.005c-0.004,0.002 -0.007,0.003 -0.011,0.005Zm0.122,-0.059l0.001,0l-0.001,0Zm-31.835,-16.69c-0.005,-0.031 -0.01,-0.062 -0.015,-0.093c-2.295,-15.493 13.02,-20.689 19.558,-22.188c-0.458,0.105 -0.958,0.228 -1.493,0.372c-2.098,0.563 -4.719,1.44 -7.316,2.767c-0.349,0.178 -0.696,0.364 -1.043,0.559c-2.677,1.505 -5.249,3.515 -7.106,6.182c-0.508,0.729 -0.962,1.508 -1.35,2.339c-1.283,2.746 -1.845,6.062 -1.235,10.062Zm45.128,-3.874c0.004,-0.037 0.009,-0.078 0.013,-0.115c0.041,-0.352 0.078,-0.708 0.111,-1.07c0,0 -0.043,-1.174 -0.424,-2.92c-0.138,-0.634 -0.32,-1.342 -0.561,-2.097c0.905,2.838 0.985,5.017 0.985,5.017c-0.036,0.401 -0.078,0.796 -0.124,1.185Zm-11.168,-17.681c-0.721,-0.282 -1.486,-0.529 -2.301,-0.734c-1.759,-0.444 -3.743,-0.695 -5.985,-0.695l0.001,0c3.279,0 6.011,0.538 8.285,1.429Zm-14.412,-0.727c0.013,-0.003 0.026,-0.006 0.039,-0.009c-0.013,0.003 -0.026,0.006 -0.039,0.009Zm0.059,-0.014c0.01,-0.002 0.019,-0.004 0.029,-0.006c-0.01,0.002 -0.019,0.004 -0.029,0.006Zm0.049,-0.011c0.005,-0.001 0.009,-0.002 0.014,-0.003c-0.004,0.001 -0.009,0.002 -0.014,0.003Z" style="fill:#acd694;fill-rule:nonzero;"/></g></svg>