<?xml version="1.0" encoding="UTF-8" standalone="no"?><!DOCTYPE svg PUBLIC "-//W3C//DTD SVG 1.1//EN" "http://www.w3.org/Graphics/SVG/1.1/DTD/svg11.dtd"><svg width="100%" height="100%" viewBox="0 0 298 300" version="1.1" xmlns="http://www.w3.org/2000/svg" xmlns:xlink="http://www.w3.org/1999/xlink" xml:space="preserve" style="fill-rule:evenodd;clip-rule:evenodd;stroke-linejoin:round;stroke-miterlimit:1.41421;"><g id="_56"><g id="avatar6"><rect x="0.17" y="0.16" width="296.87" height="299.705" style="fill:#554467;fill-rule:nonzero;"/><path d="M228.71,192.09c-2.49,-10.908 -0.97,-6.953 2.19,-16.891c0,0 -0.41,0.199 -1.08,0.539c4.65,-10.047 7.29,-21.154 7.29,-32.876c0,-44.49 -37.22,-80.541 -83.15,-80.541c-45.92,0 -83.14,36.051 -83.14,80.541c0,11.59 2.57,22.576 7.12,32.525c-0.23,-0.111 -0.39,-0.188 -0.39,-0.188c3.16,9.938 4.67,5.983 2.18,16.891c-2.14,9.431 -8.51,11.898 -8.51,11.898c0,0 9.82,-3.58 12.19,-6.026c1.17,-1.201 4.24,-4.484 5.16,-5.465l0.07,0.088c-0.54,1.068 -1.84,4.573 -0.02,11.338c2.37,8.836 12.12,14.785 12.12,14.785c0,0 -5.85,-7.029 -4.22,-14.72c0,0 -0.35,3.097 9.14,11.658c9.49,8.571 27.22,16.086 27.22,16.086c0,0 -0.35,-5.333 -0.56,-11.172c6.92,1.807 14.14,2.853 21.64,2.853c7.7,0 15.11,-1.091 22.17,-2.985c-0.2,5.905 -0.56,11.304 -0.56,11.304c0,0 17.75,-7.515 27.22,-16.086c9.48,-8.561 9.14,-11.658 9.14,-11.658c1.63,7.691 -4.22,14.72 -4.22,14.72c0,0 9.76,-5.949 12.12,-14.785c2.22,-8.264 -0.22,-11.713 -0.23,-11.723c0.01,0.01 4.06,4.341 5.44,5.762c2.37,2.446 12.19,6.026 12.19,6.026c0,0 -6.38,-2.467 -8.52,-11.898Z" style="fill:#414042;fill-rule:nonzero;"/><path d="M153.81,187.595l0,112.27l-60.73,0c-0.99,-0.394 -1.48,-0.594 -1.48,-0.594c0,-14.331 2.1,-25.505 5.31,-34.219c7.73,-21.03 21.88,-27.709 28.39,-29.723c2.14,-0.661 3.46,-0.82 3.46,-0.82c0.23,0 0.44,-0.021 0.66,-0.056c1.92,-0.308 3.47,-1.969 4.71,-4.619c0.93,-1.968 1.71,-4.479 2.34,-7.386c0.25,-1.132 0.44,-2.275 0.64,-3.51c0.3,-2.077 0.59,-4.25 0.84,-6.525c0.1,-1.384 0.25,-2.717 0.4,-4.152c0.54,-6.868 0.69,-14.388 0.69,-21.507c0,0 8.15,0.841 14.77,0.841Z" style="fill:#e0bd9a;fill-rule:nonzero;"/><path d="M216.27,299.271c0,0 -0.54,0.2 -1.43,0.594l-61.03,0l0,-112.27l0.15,0c6.57,0 14.83,-0.841 14.83,-0.841c0,7.068 0.14,14.485 0.69,21.358c0.14,1.338 0.29,2.717 0.39,4.055c0.25,2.373 0.55,4.597 0.89,6.673l0,0.046c0.1,0.943 0.29,1.784 0.45,2.671c0.6,2.921 1.33,5.489 2.2,7.549c1.09,2.563 2.42,4.352 4.03,5.06c0.51,0.23 1.06,0.343 1.63,0.343c0,0 2.33,0.282 5.83,1.656c7.15,2.798 19.16,10.143 26.06,28.887c3.21,8.714 5.31,19.888 5.31,34.219Z" style="fill:#efd0ad;fill-rule:nonzero;"/><path d="M170.76,218.63l0,0.05c-1.53,2.357 -6.67,9.134 -16.85,9.134l-0.1,0c-9.63,-0.049 -15.27,-7.023 -16.7,-9.086c0.3,-2.062 0.59,-4.223 0.84,-6.482c0.1,-1.326 0.25,-2.702 0.4,-4.126c4.69,1.179 9.83,1.916 15.27,2.014l0.19,0c5.64,-0.098 10.82,-0.884 15.67,-2.161c0.15,1.326 0.29,2.701 0.39,4.027c0.25,2.357 0.55,4.568 0.89,6.63Z" style="fill:#be987f;fill-rule:nonzero;"/><path d="M153.12,59.651c-64.33,0 -64.68,53.779 -61.81,88.993c-4.4,-8.349 -17.5,-5.795 -16.41,7.367c1.04,12.671 19.75,19.129 19.22,17.73c9.74,26.043 35.53,45.675 59,45.675l0.5,0l0,-159.765l-0.5,0Z" style="fill:#d2a686;fill-rule:nonzero;"/><path d="M79,150.461c3.16,-5.108 8.11,-2.897 9.29,-1.768c1.29,1.228 2.32,2.8 1.53,5.796c-0.44,1.719 -2.22,1.866 -1.83,4.42c0.5,2.897 1.83,3.045 2.62,3.732c0.74,0.639 1.68,1.13 2.13,2.358c0.49,1.228 0.54,2.505 0.29,3.634c-0.49,2.063 -3.5,0.393 -5.53,-0.491c-1.33,-0.638 -5.58,-4.224 -6.67,-5.402c-2.67,-3.045 -3.95,-8.939 -1.83,-12.279Z" style="fill:#ac8774;fill-rule:nonzero;"/><path d="M153.47,59.651c64.33,0 64.68,53.779 61.86,88.993c4.4,-8.349 17.45,-5.795 16.36,7.367c-0.99,12.671 -19.74,19.134 -19.22,17.73c-9.49,26.043 -35.53,45.675 -59,45.675c-0.15,0 -0.35,0 -0.35,0l-0.15,-159.765c0,0 0.35,0 0.5,0Z" style="fill:#ddb598;fill-rule:nonzero;"/><path d="M227.59,150.461c-3.17,-5.108 -8.06,-2.897 -9.29,-1.768c-1.29,1.228 -2.28,2.8 -1.53,5.796c0.44,1.719 2.22,1.866 1.82,4.42c-0.49,2.897 -1.82,3.045 -2.57,3.732c-0.74,0.639 -1.73,1.13 -2.17,2.358c-0.44,1.228 -0.54,2.505 -0.3,3.634c0.5,2.063 3.51,0.393 5.54,-0.491c1.38,-0.638 5.58,-4.224 6.67,-5.402c2.72,-3.045 3.95,-8.939 1.83,-12.279Z" style="fill:#ac8774;fill-rule:nonzero;"/><path d="M152.61,74.827c-21.14,0 -36.66,6.139 -46,18.221c-13.09,16.944 -12.6,42.778 -7.81,61.342c1.49,5.697 2.28,20.972 3.27,26.571c4.59,25.096 32.31,38.455 50.54,38.455c0,0 0.35,0 0.5,0l0,-144.589c-0.15,0 -0.3,0 -0.3,0l-0.2,0Z" style="fill:#e0bd9a;fill-rule:nonzero;"/><path d="M198.57,93.098c-9.29,-12.033 -24.61,-18.173 -45.46,-18.271l0,144.589c20.85,-0.245 45.81,-14.881 50.05,-38.455c1.04,-5.599 1.78,-20.874 3.27,-26.571c4.84,-18.515 5.33,-44.3 -7.86,-61.292Z" style="fill:#efd0ad;fill-rule:nonzero;"/><path d="M153.3,196.472" style="fill:#bc917b;fill-rule:nonzero;"/><path d="M153.3,196.472" style="fill:#bc917b;fill-rule:nonzero;"/><path d="M149.73,193.785c-0.1,-0.022 -0.2,-0.041 -0.3,-0.065c0.1,0.023 0.19,0.041 0.3,0.065Z" style="fill:#bc917b;fill-rule:nonzero;"/><path d="M153.3,193.593" style="fill:#bc917b;fill-rule:nonzero;"/><path d="M148.95,193.61c-0.09,-0.024 -0.18,-0.051 -0.27,-0.076l-0.01,0.004c0,0 0.1,0.029 0.28,0.072Z" style="fill:#bc917b;fill-rule:nonzero;"/><path d="M153.3,193.593" style="fill:#bc917b;fill-rule:nonzero;"/><path d="M135.15,75.188l-0.27,0.268l0.04,0.089c0.09,-0.134 0.14,-0.268 0.23,-0.357Z" style="fill:#432e1b;fill-rule:nonzero;"/><path d="M94.18,126.136" style="fill:#432e1b;fill-rule:nonzero;"/><path d="M153.57,193.612" style="fill:#ba907b;fill-rule:nonzero;"/><path d="M153.57,193.612" style="fill:#ba907b;fill-rule:nonzero;"/><path d="M149.91,190.852c-0.1,-0.022 -0.21,-0.043 -0.31,-0.066c0.1,0.022 0.19,0.041 0.31,0.066Z" style="fill:#ba907b;fill-rule:nonzero;"/><path d="M153.57,190.655" style="fill:#ba907b;fill-rule:nonzero;"/><path d="M149.1,190.672c-0.09,-0.025 -0.18,-0.052 -0.27,-0.078l-0.01,0.005c0,0 0.1,0.029 0.28,0.073Z" style="fill:#ba907b;fill-rule:nonzero;"/><path d="M153.57,190.655" style="fill:#ba907b;fill-rule:nonzero;"/><path d="M140.54,175.573c-0.25,-5.131 9.42,-1.875 12.61,-1.714c2.52,0.128 10.19,-1.617 10.85,-1.168c4.52,3.043 -4.78,9.17 -11.01,9.17c-1.66,0 -12.3,-3.192 -12.45,-6.288Z" style="fill:#dcb497;fill-rule:nonzero;"/><path d="M106.96,131.261c0,0 4.9,20.135 13.33,21.779c8.43,1.642 17.55,-1.624 17.55,-1.624c0,0 0.87,-23.664 -3.45,-26.756c-4.31,-3.105 -14.24,-7.593 -27.43,6.601Z" style="fill:#fff;fill-rule:nonzero;"/><path d="M137.85,151.354c0,0 -0.19,0.056 -0.63,0.236c-0.11,-7.258 -0.78,-17.227 -3.47,-19.137c-4.01,-2.933 -13.05,-7.061 -25.14,4.23c-1.1,-3.12 -1.65,-5.485 -1.65,-5.485c13.21,-14.22 23.16,-9.74 27.44,-6.632c4.32,3.104 3.45,26.788 3.45,26.788Z" style="fill:#d6b496;fill-rule:nonzero;"/><path d="M132.86,141.1c0,4.581 -3.71,8.294 -8.29,8.294c-4.58,0 -8.3,-3.713 -8.3,-8.294c0,-4.58 3.72,-8.293 8.3,-8.293c4.58,0 8.29,3.713 8.29,8.293Z" style="fill:#482315;fill-rule:nonzero;"/><path d="M124.18,146.624c-2.39,-0.198 -4.23,-2.615 -4.02,-5.272c0.22,-2.657 2.43,-4.736 4.82,-4.535c2.4,0.197 4.24,2.611 4.02,5.268c-0.22,2.657 -2.43,4.74 -4.82,4.539Z" style="fill:#7e3a22;fill-rule:nonzero;"/><path d="M124.39,145.665c-1.67,-0.141 -3.4,-1.971 -3.22,-4.223c0.19,-2.26 2.19,-3.785 3.86,-3.648c1.67,0.141 3.39,1.978 3.21,4.231c-0.18,2.256 -2.19,3.778 -3.85,3.64Z" style="fill:#211a10;fill-rule:nonzero;"/><path d="M123.04,140.108c-0.07,0.814 -0.91,1.409 -1.87,1.33c-0.96,-0.081 -1.68,-0.809 -1.61,-1.619c0.07,-0.817 0.9,-1.413 1.86,-1.335c0.96,0.078 1.68,0.806 1.62,1.624Z" style="fill:#fff;fill-rule:nonzero;"/><path d="M128.41,144.818c-0.03,0.405 -0.45,0.704 -0.93,0.664c-0.48,-0.038 -0.84,-0.406 -0.81,-0.81c0.04,-0.405 0.46,-0.705 0.93,-0.664c0.48,0.038 0.85,0.401 0.81,0.81Z" style="fill:#fff;fill-rule:nonzero;"/><path d="M153.71,195.987" style="fill:#ba907b;fill-rule:nonzero;"/><path d="M153.71,195.987" style="fill:#ba907b;fill-rule:nonzero;"/><path d="M150.04,193.227c-0.1,-0.022 -0.21,-0.043 -0.31,-0.067c0.1,0.023 0.19,0.042 0.31,0.067Z" style="fill:#ba907b;fill-rule:nonzero;"/><path d="M153.71,193.03" style="fill:#ba907b;fill-rule:nonzero;"/><path d="M149.24,193.047c-0.1,-0.025 -0.19,-0.052 -0.28,-0.078l-0.01,0.004c0,0 0.11,0.03 0.29,0.074Z" style="fill:#ba907b;fill-rule:nonzero;"/><path d="M153.71,193.03" style="fill:#ba907b;fill-rule:nonzero;"/><path d="M153.59,195.616" style="fill:#bc917b;fill-rule:nonzero;"/><path d="M153.59,195.616" style="fill:#bc917b;fill-rule:nonzero;"/><path d="M149.67,192.658c-0.12,-0.024 -0.23,-0.045 -0.34,-0.071c0.11,0.024 0.21,0.045 0.34,0.071Z" style="fill:#bc917b;fill-rule:nonzero;"/><path d="M153.59,192.447" style="fill:#bc917b;fill-rule:nonzero;"/><path d="M148.8,192.465c-0.1,-0.026 -0.19,-0.055 -0.3,-0.083l-0.01,0.005c0,0 0.12,0.031 0.31,0.078Z" style="fill:#bc917b;fill-rule:nonzero;"/><path d="M153.59,192.447" style="fill:#bc917b;fill-rule:nonzero;"/><path d="M153.35,194.774" style="fill:#bc917b;fill-rule:nonzero;"/><path d="M153.34,194.774l0.01,0l-0.01,0Z" style="fill:#bc917b;fill-rule:nonzero;"/><path d="M149.42,191.816c-0.11,-0.024 -0.23,-0.045 -0.34,-0.071c0.11,0.024 0.21,0.044 0.34,0.071Z" style="fill:#bc917b;fill-rule:nonzero;"/><path d="M153.35,191.605" style="fill:#bc917b;fill-rule:nonzero;"/><path d="M148.55,191.623c-0.1,-0.026 -0.19,-0.055 -0.29,-0.083l-0.01,0.004c0,0 0.11,0.032 0.3,0.079Z" style="fill:#bc917b;fill-rule:nonzero;"/><path d="M153.34,191.605l0.01,0l-0.01,0Z" style="fill:#bc917b;fill-rule:nonzero;"/><path d="M153.98,194.56" style="fill:#bc917b;fill-rule:nonzero;"/><path d="M153.98,194.56" style="fill:#bc917b;fill-rule:nonzero;"/><path d="M150.19,191.701c-0.11,-0.023 -0.22,-0.044 -0.33,-0.069c0.11,0.024 0.2,0.043 0.33,0.069Z" style="fill:#bc917b;fill-rule:nonzero;"/><path d="M153.98,191.497" style="fill:#bc917b;fill-rule:nonzero;"/><path d="M149.35,191.514c-0.1,-0.025 -0.19,-0.053 -0.28,-0.08l-0.02,0.005c0,0 0.12,0.03 0.3,0.075Z" style="fill:#bc917b;fill-rule:nonzero;"/><path d="M153.98,191.497" style="fill:#bc917b;fill-rule:nonzero;"/><path d="M199.77,130.576c0,0 -4.91,20.135 -13.34,21.779c-8.42,1.642 -17.54,-1.624 -17.54,-1.624c0,0 -0.88,-23.664 3.44,-26.756c4.31,-3.105 14.25,-7.593 27.44,6.601Z" style="fill:#fff;fill-rule:nonzero;"/><path d="M168.87,150.669c0,0 0.2,0.055 0.63,0.236c0.11,-7.258 0.78,-17.227 3.47,-19.137c4.01,-2.933 13.06,-7.062 25.14,4.229c1.1,-3.119 1.65,-5.484 1.65,-5.484c-13.21,-14.22 -23.16,-9.74 -27.44,-6.632c-4.32,3.104 -3.45,26.788 -3.45,26.788Z" style="fill:#d6b496;fill-rule:nonzero;"/><path d="M173.86,140.416c0,4.58 3.72,8.293 8.3,8.293c4.58,0 8.29,-3.713 8.29,-8.293c0,-4.581 -3.71,-8.294 -8.29,-8.294c-4.58,0 -8.3,3.713 -8.3,8.294Z" style="fill:#482315;fill-rule:nonzero;"/><path d="M182.54,145.938c2.4,-0.197 4.24,-2.614 4.02,-5.271c-0.22,-2.657 -2.42,-4.736 -4.82,-4.535c-2.4,0.197 -4.23,2.61 -4.02,5.267c0.22,2.657 2.43,4.74 4.82,4.539Z" style="fill:#7e3a22;fill-rule:nonzero;"/><path d="M182.34,144.98c1.66,-0.141 3.39,-1.971 3.21,-4.223c-0.19,-2.26 -2.19,-3.785 -3.86,-3.649c-1.67,0.142 -3.39,1.979 -3.21,4.232c0.19,2.256 2.19,3.778 3.86,3.64Z" style="fill:#211a10;fill-rule:nonzero;"/><path d="M183.69,139.423c0.07,0.814 0.9,1.409 1.86,1.33c0.96,-0.081 1.68,-0.809 1.62,-1.619c-0.07,-0.818 -0.9,-1.413 -1.86,-1.335c-0.97,0.078 -1.69,0.806 -1.62,1.624Z" style="fill:#fff;fill-rule:nonzero;"/><path d="M178.31,144.133c0.03,0.405 0.45,0.704 0.93,0.664c0.48,-0.038 0.84,-0.406 0.81,-0.81c-0.04,-0.405 -0.45,-0.705 -0.93,-0.663c-0.48,0.036 -0.85,0.4 -0.81,0.809Z" style="fill:#fff;fill-rule:nonzero;"/><path d="M142.9,130.94c-0.06,-0.098 -1.59,-2.423 -4.72,-4.82c-1.96,-1.502 -3.88,-2.646 -5.87,-3.498c-2.42,-1.017 -5.03,-1.736 -7.55,-2.081c-2.29,-0.254 -4.82,-0.186 -7.77,0.211c-2.25,0.43 -4.45,1.1 -6.32,1.922c-1.33,0.459 -2.38,1.103 -3.23,1.62c-0.32,0.199 -0.61,0.378 -0.91,0.538l-4.02,2.531l4.63,-1.09c0.22,-0.054 0.45,-0.116 0.71,-0.183c0.96,-0.254 2.15,-0.571 3.55,-0.776c0.33,-0.048 0.66,-0.114 1,-0.182c0.58,-0.116 1.19,-0.237 1.82,-0.267c0.7,-0.047 1.43,-0.099 2.18,-0.153l0.98,-0.07c2.56,-0.032 4.73,0.163 6.66,0.607c2.11,0.363 4.27,1.043 6.26,1.963c1.88,0.897 3.67,1.787 5.08,2.817c2.83,1.891 4.41,3.468 4.42,3.484c0.39,0.392 0.91,0.594 1.43,0.594c0.39,0 0.77,-0.107 1.1,-0.328c0.94,-0.611 1.2,-1.87 0.6,-2.778l-0.03,-0.061Z" style="fill:#030405;fill-rule:nonzero;"/><path d="M200.6,124.814c-0.27,-0.142 -0.56,-0.322 -0.89,-0.52c-0.84,-0.518 -1.89,-1.161 -3.18,-1.604c-1.91,-0.838 -4.11,-1.508 -6.39,-1.942c-2.93,-0.394 -5.46,-0.462 -7.75,-0.206c-2.52,0.344 -5.12,1.063 -7.55,2.081c-1.96,0.84 -3.93,2.016 -5.86,3.497c-3.07,2.353 -4.6,4.637 -4.71,4.813l-0.03,0.041c-0.52,0.798 -0.41,1.866 0.26,2.539c0.38,0.385 0.89,0.595 1.43,0.595c0.54,0 1.05,-0.212 1.43,-0.596l0.01,-0.017c0.15,-0.148 1.68,-1.644 4.43,-3.479c1.38,-1.015 3.18,-1.906 5.05,-2.802c1.99,-0.922 4.16,-1.602 6.29,-1.971c1.9,-0.438 4.08,-0.629 6.61,-0.602l1.02,0.073c0.75,0.053 1.47,0.104 2.18,0.152c0.62,0.029 1.22,0.15 1.81,0.266c0.34,0.068 0.67,0.134 1,0.182c1.4,0.205 2.59,0.522 3.55,0.776c0.25,0.067 0.49,0.129 0.71,0.185l4.64,1.089l-4.06,-2.55Z" style="fill:#030405;fill-rule:nonzero;"/><path d="M199.11,265.052c2.01,9.042 3.24,20.241 3.24,34.111c0,0 -0.38,0.185 -1.14,0.702l-94.42,0c-0.76,-0.517 -1.14,-0.702 -1.14,-0.702c0,-13.844 1.23,-25.033 3.23,-34.111l-11.97,0c7.73,-21.03 21.88,-27.709 28.39,-29.723c-0.01,0.205 -0.02,0.415 -0.02,0.625c0,9.626 12.65,17.473 28.53,17.878c0.44,0.016 0.87,0.021 1.31,0.021c16.32,0 29.6,-7.899 29.78,-17.688c7.15,2.798 19.16,10.143 26.06,28.887l-11.85,0Z" style="fill:#5c4c52;fill-rule:nonzero;"/><path d="M150.71,202.995" style="fill:#be927b;fill-rule:nonzero;"/><path d="M150.71,202.995" style="fill:#be927b;fill-rule:nonzero;"/><path d="M147.07,200.254c-0.11,-0.022 -0.21,-0.042 -0.31,-0.066c0.1,0.023 0.19,0.041 0.31,0.066Z" style="fill:#be927b;fill-rule:nonzero;"/><path d="M150.71,200.058" style="fill:#be927b;fill-rule:nonzero;"/><path d="M146.27,200.075c-0.1,-0.024 -0.19,-0.051 -0.28,-0.077l-0.01,0.004c0,0 0.11,0.029 0.29,0.073Z" style="fill:#be927b;fill-rule:nonzero;"/><path d="M150.71,200.058" style="fill:#be927b;fill-rule:nonzero;"/><path d="M150.48,202.215" style="fill:#be927b;fill-rule:nonzero;"/><path d="M150.48,202.215" style="fill:#be927b;fill-rule:nonzero;"/><path d="M146.84,199.474c-0.11,-0.022 -0.21,-0.042 -0.31,-0.066c0.1,0.022 0.19,0.041 0.31,0.066Z" style="fill:#be927b;fill-rule:nonzero;"/><path d="M150.48,199.278" style="fill:#be927b;fill-rule:nonzero;"/><path d="M146.04,199.295c-0.1,-0.025 -0.19,-0.052 -0.28,-0.077l-0.01,0.004c0,0 0.11,0.029 0.29,0.073Z" style="fill:#be927b;fill-rule:nonzero;"/><path d="M150.48,199.278" style="fill:#be927b;fill-rule:nonzero;"/><path d="M151.07,202.017" style="fill:#be927b;fill-rule:nonzero;"/><path d="M151.07,202.017" style="fill:#be927b;fill-rule:nonzero;"/><path d="M147.55,199.367c-0.1,-0.021 -0.2,-0.041 -0.3,-0.064c0.1,0.022 0.19,0.04 0.3,0.064Z" style="fill:#be927b;fill-rule:nonzero;"/><path d="M151.07,199.178" style="fill:#be927b;fill-rule:nonzero;"/><path d="M146.78,199.194c-0.1,-0.023 -0.18,-0.05 -0.27,-0.074l-0.01,0.004c0,0 0.1,0.028 0.28,0.07Z" style="fill:#be927b;fill-rule:nonzero;"/><path d="M151.07,199.178" style="fill:#be927b;fill-rule:nonzero;"/><path d="M140.81,201.764c-0.24,-3.2 8.91,0.67 11.92,0.762c2.4,0.081 9.6,-0.474 10.27,-0.728c5.03,-1.883 -0.28,5.349 -10.42,5.73c-4.65,0.185 -11.63,-3.824 -11.77,-5.764Z" style="fill:#f0d2ad;fill-rule:nonzero;"/><path d="M170.98,194.078c-5.81,-1.086 -18.03,0.073 -18.03,0.073c-10.09,1.675 -17.98,-0.107 -18.03,-0.038c-0.24,0.024 8.05,11.023 17.89,10.516c9.84,0.507 18.41,-10.516 18.17,-10.551Z" style="fill:#c2646e;fill-rule:nonzero;"/><path d="M158.78,191.756c-2.62,-0.289 -4.48,1.597 -5.82,1.459c-1.37,0.127 -3.14,-1.083 -5.77,-1.109c-3.7,-0.036 -5.51,-0.361 -12.27,2.007c0.24,0.462 4.57,2.972 12.69,3.11c0.12,0 2.3,1.236 5.39,1.214c1.94,-0.012 4.6,-1.306 4.71,-1.306c8.13,-0.127 13.1,-2.544 13.33,-2.994c-8.95,-2.773 -8.24,-2.417 -12.26,-2.381Z" style="fill:#d87475;fill-rule:nonzero;"/><path d="M228.03,172.684c18.49,-28.849 3.07,-83.537 3.07,-83.537c0,0 -0.12,0.131 -0.34,0.381c-4.75,-17.231 -12.67,-26.542 -12.67,-26.542l0,0.007c-3.85,-5.827 -9.31,-11.95 -15.99,-17.987c-13.68,-12.345 -22.29,-9.804 -33.62,-9.45c0,0 -0.04,0.077 -0.09,0.202c-4.98,-1.076 -31.74,-6.421 -47.66,-0.507c-17.59,6.552 -31.99,17.783 -42.16,47.954c-2.57,7.619 -3.95,14.887 -4.56,21.669c-0.25,-0.235 -0.38,-0.364 -0.38,-0.364c0,0 -10.81,56.067 10,82.854c0,0 -5,-16.126 -2.43,-29.273c9.37,27.848 33.73,45.039 33.73,45.039c0,0 -7.57,-8.909 -10.95,-17.8c-2.62,-6.9 -6.54,-18.747 -6.54,-36.187c0,-17.448 17.1,-39.044 17.1,-39.044c0,0 -7.89,13.549 -9.45,28.452c-1.57,14.895 6.71,26.42 6.71,26.42c0,0 -1.66,-17.69 4.13,-31.774c2.9,-7.074 7.68,-13.244 15.5,-15.796l-0.01,0.033c-4.2,11.414 4.23,21.008 4.23,21.008c0,0 0.03,-2.865 0.87,-7.279c2.16,-11.424 9.72,-33.269 36.15,-42.984l0.82,1.191l18.62,27.028c0.92,1.234 2.4,3.308 4.13,5.993c5.04,7.817 12.01,20.638 12.01,31.788c0,17.44 -3.92,29.284 -6.54,36.184c-3.39,8.891 -10.95,17.807 -10.95,17.807c0,0 22.47,-15.867 32.55,-41.809l0,0.014c2.44,-5.812 4.39,-11.403 5.94,-16.777c1.36,11.354 -1.22,23.086 -1.22,23.086Z" style="fill:#f0f0f0;fill-rule:nonzero;"/><path d="M143.29,289.261l-9.65,-11.521l9.65,-11.906l13.41,0l-10.55,11.959l9.49,11.468l-12.35,0Z" style="fill:#f0f0f0;fill-rule:nonzero;"/><path d="M162.5,285.602l-6.63,-7.922l6.63,-8.187l9.23,0l-7.26,8.223l6.53,7.886l-8.5,0Z" style="fill:#f0f0f0;fill-rule:nonzero;"/><path d="M173.58,281.406l-3.18,-3.795l3.18,-3.922l4.42,0l-3.48,3.939l3.13,3.778l-4.07,0Z" style="fill:#f0f0f0;fill-rule:nonzero;"/></g><path d="M143.49,149.714c-2.81,9.319 -11.96,16.145 -22.79,16.145c-11.9,0 -21.74,-8.223 -23.44,-18.933c-0.18,-1.073 -0.26,-2.175 -0.26,-3.296c0,-12.28 10.61,-22.23 23.7,-22.23c13.08,0 23.69,9.95 23.69,22.23c0,2.107 -0.31,4.148 -0.9,6.084Zm10.41,-16.231c-2.02,0 -3.97,-0.717 -5.5,-2.029c-6.81,-5.845 -16.52,-11.444 -16.52,-11.444c-14.78,-8.273 -30.98,-6.06 -38.1,-4.455c-2.26,0.508 -3.87,2.475 -3.97,4.785c-0.57,12.243 0.84,21.298 3.29,28.038c5.28,14.54 15.38,18.314 20.78,20.109c0.79,0.263 7.19,0.95 8.02,0.944c11.99,-0.056 18.71,-6.428 22.23,-11.728c1.92,-2.885 3.14,-6.163 3.78,-9.564c1.96,-10.465 7.05,-9.387 7.05,-9.387l0,-5.269l-1.06,0Z" style="fill:#8d5422;fill-rule:nonzero;"/><path d="M143.49,149.714c-1.79,-1.254 -3.65,-2.299 -5.57,-3.162c0,-4.278 -0.16,-10.589 -0.96,-15.409c1.83,1.358 2.83,2.357 2.84,2.37c0.39,0.392 0.91,0.594 1.43,0.594c0.28,0 0.55,-0.054 0.8,-0.165c1.52,2.928 2.36,6.215 2.36,9.688c0,2.107 -0.31,4.148 -0.9,6.084Zm-45.96,-2.875c0.48,-5.97 2.72,-12.28 5.43,-17.956c0.74,-0.779 1.53,-1.51 2.38,-2.185l1.8,-0.425c0.19,-0.046 0.38,-0.096 0.59,-0.151c-1.19,3.823 -2.18,8.068 -2.64,12.429c-0.23,2.167 -0.25,4.264 -0.11,6.263c-2.59,0.58 -4.97,1.245 -7.07,1.904c-0.02,0.007 -0.04,0.015 -0.07,0.022c-0.03,0.01 -0.06,0.021 -0.1,0.031c-0.05,0.016 -0.1,0.033 -0.15,0.049c-0.02,0.007 -0.04,0.013 -0.06,0.019Z" style="fill:#e4c4ae;fill-rule:nonzero;"/><path d="M137.03,146.167c-1.6,-0.672 -3.24,-1.22 -4.9,-1.659c0.47,-1.039 0.73,-2.193 0.73,-3.408c0,-4.58 -3.71,-8.293 -8.29,-8.293c-4.58,0 -8.3,3.713 -8.3,8.293c0,0.704 0.09,1.387 0.25,2.039c-1.2,0.072 -2.39,0.178 -3.56,0.312c0.66,-3.434 1.61,-6.943 2.97,-10.254c0.32,-0.778 0.66,-1.546 1.03,-2.299c2.67,-1.202 5.12,-1.664 7.3,-1.664c2.91,0 5.36,0.828 7.25,1.82c1.6,4.496 4.14,7.388 4.14,7.388c0,0 0.01,-0.722 0.12,-1.998c0.69,2.651 1.06,6.205 1.26,9.723Z" style="fill:#f0ded4;fill-rule:nonzero;"/><path d="M137.92,146.552c-0.29,-0.133 -0.59,-0.261 -0.89,-0.385c-0.2,-3.518 -0.57,-7.072 -1.26,-9.723c0.11,-1.268 0.33,-3.082 0.75,-5.281c0.01,-0.1 0.03,-0.201 0.05,-0.302c0.14,0.095 0.26,0.189 0.39,0.282c0.8,4.82 0.96,11.131 0.96,15.409Zm-6.41,-15.498c-1.89,-0.992 -4.34,-1.82 -7.25,-1.82c-2.18,0 -4.63,0.462 -7.3,1.664c1.07,-2.202 2.35,-4.279 3.87,-6.141c1.15,0.099 2.21,0.262 3.21,0.492c2.11,0.363 4.27,1.043 6.26,1.963c0.08,0.036 0.15,0.073 0.23,0.11c0.23,1.334 0.57,2.585 0.98,3.732Z" style="fill:#e0c0ac;fill-rule:nonzero;"/><path d="M132.13,144.508c-1.17,-0.31 -2.35,-0.566 -3.54,-0.772c0.22,-0.511 0.37,-1.067 0.41,-1.651c0.22,-2.657 -1.62,-5.071 -4.02,-5.268c-0.1,-0.009 -0.21,-0.014 -0.32,-0.014c-1.29,0 -2.5,0.649 -3.34,1.676c-0.02,-0.001 -0.05,-0.002 -0.07,-0.002c-0.89,0 -1.63,0.573 -1.69,1.342c-0.04,0.495 0.21,0.959 0.63,1.263c-0.01,0.089 -0.02,0.179 -0.03,0.27c-0.04,0.578 0.01,1.145 0.14,1.68c-0.07,-0.001 -0.13,-0.001 -0.2,-0.001c-0.01,0 -0.02,0 -0.03,0c0,0 -0.01,0 -0.02,0c-1.18,0 -2.36,0.038 -3.53,0.108c-0.16,-0.652 -0.25,-1.335 -0.25,-2.039c0,-4.58 3.72,-8.293 8.3,-8.293c4.58,0 8.29,3.713 8.29,8.293c0,1.215 -0.26,2.369 -0.73,3.408Z" style="fill:#997566;fill-rule:nonzero;"/><path d="M128.59,143.736c-0.27,-0.047 -0.54,-0.092 -0.82,-0.134c0.26,-0.467 0.42,-0.998 0.47,-1.577c0.18,-2.253 -1.54,-4.09 -3.21,-4.231c-0.07,-0.006 -0.14,-0.009 -0.21,-0.009c-0.83,0 -1.72,0.39 -2.41,1.061c-0.27,-0.199 -0.61,-0.331 -0.99,-0.362c-0.04,-0.002 -0.07,-0.004 -0.1,-0.005c0.84,-1.027 2.05,-1.676 3.34,-1.676c0.11,0 0.22,0.005 0.32,0.014c2.4,0.197 4.24,2.611 4.02,5.268c-0.04,0.584 -0.19,1.14 -0.41,1.651Zm-7.22,-0.69c-0.36,-0.008 -0.72,-0.013 -1.07,-0.014c-0.13,-0.535 -0.18,-1.102 -0.14,-1.68c0.01,-0.091 0.02,-0.181 0.03,-0.27c0.27,0.195 0.61,0.324 0.98,0.356c0,0.001 0,0.003 0,0.004c-0.04,0.568 0.03,1.11 0.2,1.604Z" style="fill:#b5836d;fill-rule:nonzero;"/><path d="M127.77,143.602c-2.13,-0.331 -4.27,-0.506 -6.4,-0.556c-0.17,-0.494 -0.24,-1.036 -0.2,-1.604c0,-0.001 0,-0.003 0,-0.004c0.06,0.005 0.12,0.007 0.17,0.007c0.89,0 1.63,-0.571 1.7,-1.337c0.04,-0.495 -0.21,-0.957 -0.63,-1.262c0.69,-0.671 1.58,-1.061 2.41,-1.061c0.07,0 0.14,0.003 0.21,0.009c1.67,0.141 3.39,1.978 3.21,4.231c-0.05,0.579 -0.21,1.11 -0.47,1.577Z" style="fill:#847167;fill-rule:nonzero;"/><path d="M121.34,141.445c-0.05,0 -0.11,-0.002 -0.17,-0.007c-0.37,-0.032 -0.71,-0.161 -0.98,-0.356c-0.42,-0.304 -0.67,-0.768 -0.63,-1.263c0.06,-0.769 0.8,-1.342 1.69,-1.342c0.02,0 0.05,0.001 0.07,0.002c0.03,0.001 0.06,0.003 0.1,0.005c0.38,0.031 0.72,0.163 0.99,0.362c0.42,0.305 0.67,0.767 0.63,1.262c-0.07,0.766 -0.81,1.337 -1.7,1.337Z" style="fill:#f0ded4;fill-rule:nonzero;"/><path d="M141.23,134.107c-0.52,0 -1.04,-0.202 -1.43,-0.594c-0.01,-0.013 -1.01,-1.012 -2.84,-2.37c-0.13,-0.093 -0.25,-0.187 -0.39,-0.282c0.19,-0.974 0.42,-2.019 0.7,-3.124c1.94,1.785 3.56,3.882 4.76,6.205c-0.25,0.111 -0.52,0.165 -0.8,0.165Zm-10.7,-6.785c-0.08,-0.037 -0.15,-0.074 -0.23,-0.11c-1.99,-0.92 -4.15,-1.6 -6.26,-1.963c-1,-0.23 -2.06,-0.393 -3.21,-0.492c0.93,-1.139 1.96,-2.196 3.08,-3.153c2.23,0.283 4.36,0.857 6.35,1.68c-0.05,1.409 0.05,2.762 0.27,4.038Zm-25.19,-0.624c0.89,-0.709 1.83,-1.358 2.82,-1.939c-0.14,0.448 -0.29,0.902 -0.43,1.363c-0.21,0.055 -0.4,0.105 -0.59,0.151l-1.8,0.425Z" style="fill:#766964;fill-rule:nonzero;"/><path d="M97.26,146.926c-0.18,-1.073 -0.26,-2.175 -0.26,-3.296c0,-5.66 2.25,-10.824 5.96,-14.747c-2.71,5.676 -4.95,11.986 -5.43,17.956c-0.09,0.029 -0.18,0.058 -0.27,0.087Zm7.72,-2.112c-0.14,-1.999 -0.12,-4.096 0.11,-6.263c0.46,-4.361 1.45,-8.606 2.64,-12.429c0.14,-0.461 0.29,-0.915 0.43,-1.363c3.64,-2.129 7.93,-3.359 12.54,-3.359c1.09,0 2.16,0.07 3.21,0.204c-1.12,0.957 -2.15,2.014 -3.08,3.153c-1.52,1.862 -2.8,3.939 -3.87,6.141c-0.37,0.753 -0.71,1.521 -1.03,2.299c-1.36,3.311 -2.31,6.82 -2.97,10.254c-2.8,0.321 -5.48,0.802 -7.98,1.363Zm30.67,-6.372c0,0 -2.54,-2.892 -4.14,-7.388c-0.41,-1.147 -0.75,-2.398 -0.98,-3.732c-0.22,-1.276 -0.32,-2.629 -0.27,-4.038c2.62,1.084 4.99,2.601 7.01,4.453c-0.28,1.105 -0.51,2.15 -0.7,3.124c-0.02,0.101 -0.04,0.202 -0.05,0.302c-0.42,2.199 -0.64,4.013 -0.75,5.281c-0.11,1.276 -0.12,1.998 -0.12,1.998Z" style="fill:#ebd9cf;fill-rule:nonzero;"/><path d="M120.7,165.859c-3.17,0 -6.2,-0.584 -8.96,-1.644c-0.16,-2.363 -0.51,-9.965 0.82,-18.447c2.07,3.631 4.67,6.674 7.73,7.272c1.69,0.33 3.41,0.462 5.08,0.462c6.64,0 12.47,-2.086 12.47,-2.086c0,0 0,-0.02 0,-0.059c0.01,-0.002 0.01,-0.003 0.01,-0.003c0,0 0.07,-1.949 0.07,-4.802c1.92,0.863 3.78,1.908 5.57,3.162c-2.81,9.319 -11.96,16.145 -22.79,16.145Zm-9.55,-1.879c-6.96,-2.878 -12.16,-8.805 -13.69,-15.973c0.02,-0.387 0.04,-0.778 0.07,-1.168c0.02,-0.006 0.04,-0.012 0.06,-0.019c0.05,-0.016 0.1,-0.033 0.15,-0.049c0.04,-0.01 0.07,-0.021 0.1,-0.031c0.03,-0.007 0.05,-0.015 0.07,-0.022c2.1,-0.659 4.48,-1.324 7.07,-1.904c0.62,9.368 4.59,16.616 6.17,19.166Z" style="fill:url(#_Linear1);"/><path d="M125.37,153.502c-1.67,0 -3.39,-0.132 -5.08,-0.462c-3.06,-0.598 -5.66,-3.641 -7.73,-7.272c0.12,-0.766 0.25,-1.54 0.4,-2.317c1.17,-0.134 2.36,-0.24 3.56,-0.312c0.91,3.595 4.17,6.255 8.05,6.255c3.36,0 6.26,-2.005 7.56,-4.886c1.66,0.439 3.3,0.987 4.9,1.659c0.11,1.865 0.17,3.719 0.19,5.423c0.38,-0.157 0.57,-0.219 0.62,-0.233c0,0.039 0,0.059 0,0.059c0,0 -5.83,2.086 -12.47,2.086Z" style="fill:url(#_Linear2);"/><path d="M137.22,151.59c-0.02,-1.704 -0.08,-3.558 -0.19,-5.423c0.3,0.125 0.6,0.253 0.89,0.385c0,2.853 -0.07,4.802 -0.07,4.802c0,0 0,0.001 -0.01,0.003c-0.05,0.014 -0.24,0.076 -0.62,0.233Z" style="fill:url(#_Linear3);"/><path d="M124.57,149.394c-3.88,0 -7.14,-2.66 -8.05,-6.255c1.17,-0.07 2.35,-0.107 3.53,-0.108l0.05,0c0.07,0 0.13,0 0.2,0.001c0.47,1.924 2.01,3.437 3.88,3.592c0.11,0.009 0.21,0.013 0.32,0.013c1.06,0 2.07,-0.441 2.87,-1.172c0.03,0.008 0.07,0.014 0.11,0.017c0.03,0.002 0.06,0.003 0.09,0.003c0.44,0 0.81,-0.287 0.84,-0.667c0.02,-0.17 -0.04,-0.331 -0.14,-0.465c0.12,-0.197 0.23,-0.403 0.32,-0.617c1.19,0.206 2.37,0.462 3.54,0.772c-1.3,2.881 -4.2,4.886 -7.56,4.886Z" style="fill:url(#_Linear4);"/><path d="M124.5,146.637c-0.11,0 -0.21,-0.004 -0.32,-0.013c-1.87,-0.155 -3.41,-1.668 -3.88,-3.592c0.35,0.001 0.71,0.006 1.07,0.014c0.49,1.464 1.77,2.513 3.02,2.619c0.07,0.006 0.14,0.009 0.21,0.009c0.71,0 1.46,-0.285 2.09,-0.786c0.08,0.279 0.34,0.51 0.68,0.577c-0.8,0.731 -1.81,1.172 -2.87,1.172Zm3.77,-2.284c-0.14,-0.189 -0.38,-0.323 -0.67,-0.345c-0.02,-0.002 -0.05,-0.003 -0.07,-0.003c0.09,-0.128 0.17,-0.263 0.24,-0.403c0.28,0.042 0.55,0.087 0.82,0.134c-0.09,0.214 -0.2,0.42 -0.32,0.617Z" style="fill:url(#_Linear5);"/><path d="M124.6,145.674c-0.07,0 -0.14,-0.003 -0.21,-0.009c-1.25,-0.106 -2.53,-1.155 -3.02,-2.619c2.13,0.05 4.27,0.225 6.4,0.556c-0.07,0.14 -0.15,0.275 -0.24,0.403l-0.01,0c-0.44,0 -0.81,0.287 -0.85,0.667c0,0.074 0.01,0.146 0.02,0.216c-0.63,0.501 -1.38,0.786 -2.09,0.786Z" style="fill:url(#_Linear6);"/><path d="M127.57,145.485c-0.03,0 -0.06,-0.001 -0.09,-0.003c-0.04,-0.003 -0.08,-0.009 -0.11,-0.017c-0.34,-0.067 -0.6,-0.298 -0.68,-0.577c-0.01,-0.07 -0.02,-0.142 -0.02,-0.216c0.04,-0.38 0.41,-0.667 0.85,-0.667l0.01,0c0.02,0 0.05,0.001 0.07,0.003c0.29,0.022 0.53,0.156 0.67,0.345c0.1,0.134 0.16,0.295 0.14,0.465c-0.03,0.38 -0.4,0.667 -0.84,0.667Z" style="fill:url(#_Linear7);"/><path d="M111.74,164.215c-0.2,-0.076 -0.4,-0.154 -0.59,-0.235c-1.58,-2.55 -5.55,-9.798 -6.17,-19.166c2.5,-0.561 5.18,-1.042 7.98,-1.363c-0.15,0.777 -0.28,1.551 -0.4,2.317c-1.33,8.482 -0.98,16.084 -0.82,18.447Zm-14.28,-16.208c-0.08,-0.358 -0.14,-0.718 -0.2,-1.081c0.09,-0.029 0.18,-0.058 0.27,-0.087c-0.03,0.39 -0.05,0.781 -0.07,1.168Z" style="fill:url(#_Linear8);"/><path d="M120.7,165.859c-11.9,0 -21.74,-8.223 -23.44,-18.933c0.06,0.363 0.12,0.723 0.2,1.081c1.53,7.168 6.73,13.095 13.69,15.973c0.19,0.081 0.39,0.159 0.59,0.235c2.76,1.06 5.79,1.644 8.96,1.644c10.83,0 19.98,-6.826 22.79,-16.145c-2.81,9.319 -11.96,16.145 -22.79,16.145Z" style="fill:url(#_Linear9);"/><path d="M143.49,149.714c-1.79,-1.254 -3.65,-2.299 -5.57,-3.162c1.92,0.863 3.78,1.908 5.57,3.162Z" style="fill:url(#_Linear10);"/><path d="M137.03,146.167c-1.6,-0.672 -3.24,-1.22 -4.9,-1.659c1.66,0.439 3.3,0.987 4.9,1.659Z" style="fill:url(#_Linear11);"/><path d="M137.92,146.552c-0.29,-0.132 -0.59,-0.26 -0.89,-0.385c0.3,0.124 0.6,0.252 0.89,0.385Z" style="fill:url(#_Linear12);"/><path d="M132.13,144.508c-1.17,-0.31 -2.35,-0.566 -3.54,-0.772c1.19,0.206 2.37,0.462 3.54,0.772Zm-11.83,-1.476c-0.07,-0.001 -0.13,-0.001 -0.2,-0.001c0.07,0 0.13,0 0.2,0.001Z" style="fill:url(#_Linear13);"/><path d="M128.59,143.736c-0.27,-0.047 -0.54,-0.092 -0.82,-0.134c0.28,0.042 0.55,0.087 0.82,0.134Zm-7.22,-0.69c-0.36,-0.008 -0.72,-0.013 -1.07,-0.014c0.35,0.001 0.71,0.006 1.07,0.014Z" style="fill:url(#_Linear14);"/><path d="M127.77,143.602c-2.13,-0.331 -4.27,-0.506 -6.4,-0.556c2.13,0.05 4.27,0.225 6.4,0.556Z" style="fill:url(#_Linear15);"/><path d="M165.53,143.63c0,-12.28 10.62,-22.23 23.7,-22.23c13.09,0 23.7,9.95 23.7,22.23c0,1.121 -0.08,2.223 -0.26,3.296c-1.7,10.71 -11.54,18.933 -23.44,18.933c-10.84,0 -19.98,-6.826 -22.8,-16.145c-0.58,-1.936 -0.9,-3.977 -0.9,-6.084Zm-10.57,-10.147l0,5.269c0,0 5.1,-1.078 7.06,9.387c0.63,3.401 1.86,6.679 3.78,9.564c3.51,5.3 10.24,11.672 22.23,11.728c0.83,0.006 7.23,-0.681 8.02,-0.944c5.4,-1.795 15.5,-5.569 20.78,-20.109c2.45,-6.74 3.86,-15.795 3.29,-28.038c-0.1,-2.31 -1.72,-4.277 -3.97,-4.785c-7.13,-1.605 -23.32,-3.818 -38.11,4.455c0,0 -9.7,5.599 -16.51,11.444c-1.54,1.312 -3.48,2.029 -5.51,2.029l-1.06,0Z" style="fill:#8d5422;fill-rule:nonzero;"/><path d="M166.43,149.714c-0.58,-1.936 -0.9,-3.977 -0.9,-6.084c0,-4.225 1.26,-8.175 3.44,-11.538c0.19,-0.154 0.4,-0.317 0.62,-0.489c-0.8,5.661 -0.82,12.865 -0.77,16.587c-0.77,0.445 -1.52,0.923 -2.26,1.436c-0.04,0.029 -0.08,0.058 -0.13,0.088Zm40.58,-4.412c-3.58,-0.896 -7.62,-1.666 -11.88,-2.036c3,-5.987 4.64,-12.69 4.64,-12.69c-0.01,-0.006 -0.01,-0.012 -0.02,-0.018c0.01,-0.03 0.01,-0.045 0.01,-0.045c-2.18,-2.344 -4.27,-4.181 -6.26,-5.599c0.43,0.053 0.85,0.137 1.26,0.218c0.34,0.068 0.67,0.134 1,0.182c0.98,0.143 1.86,0.342 2.63,0.536c3.27,5.478 6.79,12.455 8.62,19.452Zm-10.61,-22.668c-0.49,-0.21 -0.99,-0.409 -1.51,-0.596c0.45,0.104 0.9,0.221 1.35,0.349c0,0.002 0,0.003 0,0.004c0.05,0.08 0.1,0.161 0.16,0.243Z" style="fill:#eaccb6;fill-rule:nonzero;"/><path d="M169.58,147.76c0.25,-6.722 1.07,-14.347 3.39,-15.992c2,-1.461 5.25,-3.22 9.5,-3.22c4.28,0 9.58,1.783 15.64,7.449c1.01,-2.867 1.56,-5.097 1.64,-5.439c0.01,0.006 0.01,0.012 0.02,0.018c0,0 -1.64,6.703 -4.64,12.69c-1.67,-0.146 -3.38,-0.229 -5.1,-0.235c0.27,-0.822 0.42,-1.702 0.42,-2.615c0,-4.581 -3.71,-8.294 -8.29,-8.294c-4.58,0 -8.3,3.713 -8.3,8.294c0,1.793 0.57,3.453 1.54,4.81c-1.98,0.665 -3.93,1.5 -5.82,2.534Z" style="fill:#f0ded4;fill-rule:nonzero;"/><path d="M168.82,148.19c-0.05,-3.722 -0.03,-10.926 0.77,-16.587c0.61,-0.476 1.35,-1.015 2.21,-1.587c1.38,-1.015 3.18,-1.906 5.05,-2.802c1.99,-0.922 4.16,-1.602 6.29,-1.971c1.79,-0.411 3.81,-0.605 6.15,-0.605c0.15,0 0.31,0.001 0.46,0.003l1.02,0.073c0.75,0.053 1.47,0.104 2.18,0.152c0.18,0.009 0.37,0.026 0.55,0.048c1.99,1.418 4.08,3.255 6.26,5.599c0,0 0,0.015 -0.01,0.045c-0.08,0.342 -0.63,2.572 -1.64,5.439c-6.06,-5.666 -11.36,-7.449 -15.64,-7.449c-4.25,0 -7.5,1.759 -9.5,3.22c-2.32,1.645 -3.14,9.27 -3.39,15.992c-0.25,0.139 -0.51,0.283 -0.76,0.43Z" style="fill:#e0c0ac;fill-rule:nonzero;"/><path d="M175.4,145.226c-0.97,-1.357 -1.54,-3.017 -1.54,-4.81c0,-4.581 3.72,-8.294 8.3,-8.294c4.58,0 8.29,3.713 8.29,8.294c0,0.913 -0.15,1.793 -0.42,2.615c-0.05,0 -0.1,0 -0.16,0l-0.01,0c-0.01,0 -0.02,0 -0.03,0c-1.22,0.001 -2.45,0.041 -3.68,0.126c0.33,-0.755 0.48,-1.61 0.41,-2.49c-0.01,-0.091 -0.02,-0.18 -0.03,-0.269c0.42,-0.305 0.68,-0.769 0.64,-1.264c-0.07,-0.769 -0.81,-1.342 -1.69,-1.342c-0.03,0 -0.05,0.001 -0.08,0.002c-0.84,-1.027 -2.05,-1.676 -3.34,-1.676c-0.11,0 -0.21,0.005 -0.32,0.014c-2.4,0.197 -4.23,2.61 -4.02,5.267c0.07,0.83 0.33,1.603 0.73,2.268c-0.1,0.134 -0.16,0.296 -0.14,0.466c0.01,0.081 0.03,0.157 0.06,0.228c-1,0.248 -1.99,0.536 -2.97,0.865Z" style="fill:#997566;fill-rule:nonzero;"/><path d="M178.45,143.667c-0.4,-0.665 -0.66,-1.438 -0.73,-2.268c-0.21,-2.657 1.62,-5.07 4.02,-5.267c0.11,-0.009 0.21,-0.014 0.32,-0.014c1.29,0 2.5,0.649 3.34,1.676c-0.03,0.001 -0.06,0.003 -0.09,0.005c-0.38,0.031 -0.73,0.163 -1,0.362c-0.69,-0.671 -1.58,-1.061 -2.41,-1.061c-0.07,0 -0.14,0.003 -0.21,0.008c-1.67,0.142 -3.39,1.979 -3.21,4.232c0.06,0.753 0.33,1.425 0.72,1.98c-0.03,0 -0.05,0.001 -0.08,0.004c-0.28,0.021 -0.52,0.154 -0.67,0.343Zm6.48,-0.409c0.44,-0.7 0.7,-1.564 0.62,-2.501c0,-0.001 0,-0.003 0,-0.004c0.37,-0.032 0.71,-0.161 0.98,-0.355c0.01,0.089 0.02,0.178 0.03,0.269c0.07,0.88 -0.08,1.735 -0.41,2.49c-0.41,0.029 -0.81,0.062 -1.22,0.101Z" style="fill:#b5836d;fill-rule:nonzero;"/><path d="M180.05,143.98c-0.04,-0.376 -0.41,-0.66 -0.84,-0.66l-0.01,0c-0.39,-0.555 -0.66,-1.227 -0.72,-1.98c-0.18,-2.253 1.54,-4.09 3.21,-4.232c0.07,-0.005 0.14,-0.008 0.21,-0.008c0.83,0 1.72,0.39 2.41,1.061c-0.41,0.305 -0.66,0.767 -0.62,1.262c0.06,0.765 0.8,1.337 1.69,1.337c0.06,0 0.11,-0.002 0.17,-0.007c0,0.001 0,0.003 0,0.004c0.08,0.937 -0.18,1.801 -0.62,2.501c-1.63,0.153 -3.26,0.39 -4.88,0.722Z" style="fill:#847167;fill-rule:nonzero;"/><path d="M185.38,140.76c-0.89,0 -1.63,-0.572 -1.69,-1.337c-0.04,-0.495 0.21,-0.957 0.62,-1.262c0.27,-0.199 0.62,-0.331 1,-0.362c0.03,-0.002 0.06,-0.004 0.09,-0.005c0.03,-0.001 0.05,-0.002 0.08,-0.002c0.88,0 1.62,0.573 1.69,1.342c0.04,0.495 -0.22,0.959 -0.64,1.264c-0.27,0.194 -0.61,0.323 -0.98,0.355c-0.06,0.005 -0.11,0.007 -0.17,0.007Z" style="fill:#f0ded4;fill-rule:nonzero;"/><path d="M178.37,144.361c-0.03,-0.071 -0.05,-0.147 -0.06,-0.228c-0.02,-0.17 0.04,-0.332 0.14,-0.466c0.15,-0.189 0.39,-0.322 0.67,-0.343c0.03,-0.003 0.05,-0.004 0.08,-0.004l0.01,0c0.43,0 0.8,0.284 0.84,0.66c-0.56,0.116 -1.12,0.242 -1.68,0.381Z" style="fill:#f0ded4;fill-rule:nonzero;"/><path d="M168.97,132.092c4.16,-6.411 11.68,-10.692 20.26,-10.692c1.95,0 3.85,0.221 5.66,0.638c0.52,0.187 1.02,0.386 1.51,0.596c0.64,0.998 1.31,2.074 1.99,3.216c-0.77,-0.194 -1.65,-0.393 -2.63,-0.536c-0.33,-0.048 -0.66,-0.114 -1,-0.182c-0.41,-0.081 -0.83,-0.165 -1.26,-0.218c-0.18,-0.022 -0.37,-0.039 -0.55,-0.048c-0.71,-0.048 -1.43,-0.099 -2.18,-0.152l-1.02,-0.073c-0.15,-0.002 -0.31,-0.003 -0.46,-0.003c-2.34,0 -4.36,0.194 -6.15,0.605c-2.13,0.369 -4.3,1.049 -6.29,1.971c-1.87,0.896 -3.67,1.787 -5.05,2.802c-0.86,0.572 -1.6,1.111 -2.21,1.587c-0.22,0.172 -0.43,0.335 -0.62,0.489Z" style="fill:#766964;fill-rule:nonzero;"/><path d="M212.67,146.926c-0.11,-0.035 -0.22,-0.07 -0.33,-0.106c-0.05,-0.016 -0.1,-0.033 -0.16,-0.049c-0.03,-0.012 -0.07,-0.024 -0.11,-0.036c-0.01,-0.004 -0.03,-0.009 -0.04,-0.013c-0.04,-0.013 -0.08,-0.025 -0.12,-0.038c0,-0.001 -0.01,-0.002 -0.01,-0.003c-1.5,-0.469 -3.14,-0.939 -4.89,-1.379c-1.83,-6.997 -5.35,-13.974 -8.62,-19.452c-0.68,-1.142 -1.35,-2.218 -1.99,-3.216c-0.06,-0.082 -0.11,-0.163 -0.16,-0.243c0,-0.001 0,-0.002 0,-0.004c9.67,2.801 16.69,11.251 16.69,21.243c0,1.121 -0.08,2.223 -0.26,3.296Z" style="fill:#ebd9cf;fill-rule:nonzero;"/><path d="M205.48,159.808c0.28,-2.174 0.59,-4.066 0.95,-5.418c0.48,-1.849 0.92,-3.771 1.31,-5.749c0.33,1.871 0.51,3.726 0.51,5.538c0,0.933 -0.01,1.851 -0.03,2.752c-0.82,1.032 -1.74,1.995 -2.74,2.877Z" style="fill:url(#_Linear16);"/><path d="M189.23,165.859c-10.84,0 -19.98,-6.826 -22.8,-16.145c0.05,-0.03 0.09,-0.059 0.13,-0.088c0.74,-0.513 1.49,-0.991 2.26,-1.436c0.02,1.535 0.05,2.479 0.05,2.479c0,0 0.01,0.001 0.01,0.003c0,0.039 0.01,0.059 0.01,0.059c0,0 5.82,2.086 12.46,2.086c1.67,0 3.39,-0.132 5.08,-0.462c3.57,-0.695 6.5,-4.7 8.7,-9.089c4.26,0.37 8.3,1.14 11.88,2.036c0.29,1.114 0.53,2.23 0.73,3.339c-0.39,1.978 -0.83,3.9 -1.31,5.749c-0.36,1.352 -0.67,3.244 -0.95,5.418c-4.24,3.751 -9.96,6.051 -16.25,6.051Z" style="fill:url(#_Linear17);"/><path d="M181.35,152.817c-6.64,0 -12.46,-2.086 -12.46,-2.086c0,0 -0.01,-0.02 -0.01,-0.059c0.05,0.013 0.24,0.075 0.62,0.233c0.02,-1.006 0.04,-2.064 0.08,-3.145c1.89,-1.034 3.84,-1.869 5.82,-2.534c1.5,2.108 3.97,3.483 6.76,3.483c3.66,0 6.77,-2.379 7.87,-5.678c1.72,0.006 3.43,0.089 5.1,0.235c-2.2,4.389 -5.13,8.394 -8.7,9.089c-1.69,0.33 -3.41,0.462 -5.08,0.462Z" style="fill:url(#_Linear18);"/><path d="M169.5,150.905c-0.38,-0.158 -0.57,-0.22 -0.62,-0.233c0,-0.002 -0.01,-0.003 -0.01,-0.003c0,0 -0.03,-0.944 -0.05,-2.479c0.25,-0.147 0.51,-0.291 0.76,-0.43c-0.04,1.081 -0.06,2.139 -0.08,3.145Z" style="fill:url(#_Linear19);"/><path d="M182.16,148.709c-2.79,0 -5.26,-1.375 -6.76,-3.483c0.98,-0.329 1.98,-0.616 2.97,-0.865c0.13,0.262 0.43,0.439 0.78,0.439c0.03,0 0.06,-0.001 0.09,-0.003c0.04,-0.003 0.08,-0.009 0.12,-0.017c0.79,0.73 1.8,1.172 2.86,1.172c0.11,0 0.22,-0.005 0.32,-0.014c1.6,-0.132 2.96,-1.256 3.61,-2.781c1.23,-0.085 2.46,-0.125 3.68,-0.126l0.2,0c-1.1,3.299 -4.21,5.678 -7.87,5.678Z" style="fill:url(#_Linear20);"/><path d="M182.22,145.952c-1.06,0 -2.07,-0.442 -2.86,-1.172c0.33,-0.067 0.59,-0.298 0.67,-0.577c0.64,0.501 1.39,0.785 2.09,0.785c0.08,0.001 0.15,-0.002 0.22,-0.008c0.97,-0.083 1.96,-0.74 2.59,-1.722c0.41,-0.039 0.81,-0.072 1.22,-0.101c-0.65,1.525 -2.01,2.649 -3.61,2.781c-0.1,0.009 -0.21,0.014 -0.32,0.014Z" style="fill:url(#_Linear21);"/><path d="M182.12,144.988c-0.7,0 -1.45,-0.284 -2.09,-0.785c0.02,-0.07 0.02,-0.142 0.02,-0.216c0,-0.002 0,-0.004 0,-0.006c1.62,-0.333 3.25,-0.57 4.88,-0.723c-0.63,0.982 -1.62,1.639 -2.59,1.722c-0.07,0.006 -0.14,0.009 -0.22,0.008Z" style="fill:url(#_Linear22);"/><path d="M179.15,144.8c-0.35,0 -0.65,-0.177 -0.78,-0.439c0.56,-0.139 1.12,-0.265 1.68,-0.38c0,0.002 0,0.004 0,0.006c0,0.074 0,0.146 -0.02,0.216c-0.08,0.279 -0.34,0.51 -0.67,0.577c-0.04,0.008 -0.08,0.014 -0.12,0.017c-0.03,0.002 -0.06,0.003 -0.09,0.003Z" style="fill:url(#_Linear23);"/><path d="M208.22,156.931c0.02,-0.901 0.03,-1.819 0.03,-2.752c0,-1.812 -0.18,-3.667 -0.51,-5.538c-0.2,-1.109 -0.44,-2.225 -0.73,-3.339c1.75,0.44 3.39,0.91 4.89,1.379c0,0.001 0.01,0.002 0.01,0.003c0.04,0.013 0.08,0.025 0.12,0.038c0.01,0.004 0.03,0.009 0.04,0.013c0.04,0.012 0.08,0.024 0.11,0.036c0.06,0.016 0.11,0.033 0.16,0.049c0.11,0.036 0.22,0.071 0.33,0.106c-0.59,3.714 -2.16,7.129 -4.45,10.005Z" style="fill:url(#_Linear24);"/><path d="M189.23,165.859c-10.84,0 -19.98,-6.826 -22.8,-16.145c2.82,9.319 11.96,16.145 22.8,16.145c6.29,0 12.01,-2.3 16.25,-6.051c1,-0.882 1.92,-1.845 2.74,-2.877c2.29,-2.876 3.86,-6.291 4.45,-10.005c-1.7,10.71 -11.54,18.933 -23.44,18.933Z" style="fill:url(#_Linear25);"/><path d="M166.56,149.626c0.74,-0.513 1.49,-0.991 2.26,-1.436c-0.77,0.445 -1.52,0.923 -2.26,1.436Z" style="fill:url(#_Linear26);"/><path d="M169.58,147.76c1.89,-1.034 3.84,-1.869 5.82,-2.534c-1.98,0.665 -3.93,1.5 -5.82,2.534Z" style="fill:url(#_Linear27);"/><path d="M168.82,148.19c0.25,-0.147 0.51,-0.291 0.76,-0.43c-0.25,0.139 -0.51,0.283 -0.76,0.43Z" style="fill:url(#_Linear28);"/><path d="M175.4,145.226c0.98,-0.329 1.97,-0.617 2.97,-0.865c-0.99,0.249 -1.99,0.536 -2.97,0.865Zm10.75,-2.069c1.23,-0.085 2.46,-0.125 3.68,-0.126c-1.22,0.001 -2.45,0.041 -3.68,0.126Z" style="fill:url(#_Linear29);"/><path d="M184.93,143.258c0.41,-0.039 0.81,-0.072 1.22,-0.101c-0.41,0.029 -0.81,0.062 -1.22,0.101Z" style="fill:url(#_Linear30);"/><path d="M180.05,143.981l0,-0.001c1.62,-0.332 3.25,-0.569 4.88,-0.722c-1.63,0.153 -3.26,0.39 -4.88,0.723Z" style="fill:url(#_Linear31);"/><path d="M178.37,144.361c0.56,-0.139 1.12,-0.265 1.68,-0.381l0,0.001c-0.56,0.115 -1.12,0.241 -1.68,0.38Z" style="fill:url(#_Linear32);"/><clipPath id="_clip33"><path d="M189.87,143.031l-0.01,0l0.01,0Z"/></clipPath><g clip-path="url(#_clip33)"><path d="M189.86,143.031l0.01,0l-0.01,0Z" style="fill:url(#_Linear34);fill-rule:nonzero;"/></g></g><defs><linearGradient id="_Linear1" x1="0" y1="0" x2="1" y2="0" gradientUnits="userSpaceOnUse" gradientTransform="matrix(8.42486,56.8293,-56.8293,8.42486,116.75,123.869)"><stop offset="0" style="stop-color:#f1e0d0;stop-opacity:1"/><stop offset="1" style="stop-color:#e4c4ae;stop-opacity:1"/></linearGradient><linearGradient id="_Linear2" x1="0" y1="0" x2="1" y2="0" gradientUnits="userSpaceOnUse" gradientTransform="matrix(8.42486,56.8293,-56.8293,8.42486,116.75,123.869)"><stop offset="0" style="stop-color:#fff;stop-opacity:1"/><stop offset="1" style="stop-color:#f0ded4;stop-opacity:1"/></linearGradient><linearGradient id="_Linear3" x1="0" y1="0" x2="1" y2="0" gradientUnits="userSpaceOnUse" gradientTransform="matrix(8.42486,56.8293,-56.8293,8.42486,116.75,123.869)"><stop offset="0" style="stop-color:#ebdcce;stop-opacity:1"/><stop offset="1" style="stop-color:#e0c0ac;stop-opacity:1"/></linearGradient><linearGradient id="_Linear4" x1="0" y1="0" x2="1" y2="0" gradientUnits="userSpaceOnUse" gradientTransform="matrix(8.42486,56.8293,-56.8293,8.42486,116.75,123.869)"><stop offset="0" style="stop-color:#a1897e;stop-opacity:1"/><stop offset="1" style="stop-color:#997566;stop-opacity:1"/></linearGradient><linearGradient id="_Linear5" x1="0" y1="0" x2="1" y2="0" gradientUnits="userSpaceOnUse" gradientTransform="matrix(8.42486,56.8293,-56.8293,8.42486,116.75,123.869)"><stop offset="0" style="stop-color:#bf9986;stop-opacity:1"/><stop offset="1" style="stop-color:#b5836d;stop-opacity:1"/></linearGradient><linearGradient id="_Linear6" x1="0" y1="0" x2="1" y2="0" gradientUnits="userSpaceOnUse" gradientTransform="matrix(8.42486,56.8293,-56.8293,8.42486,116.75,123.869)"><stop offset="0" style="stop-color:#8a827d;stop-opacity:1"/><stop offset="1" style="stop-color:#847167;stop-opacity:1"/></linearGradient><linearGradient id="_Linear7" x1="0" y1="0" x2="1" y2="0" gradientUnits="userSpaceOnUse" gradientTransform="matrix(8.42486,56.8293,-56.8293,8.42486,116.75,123.869)"><stop offset="0" style="stop-color:#fff;stop-opacity:1"/><stop offset="1" style="stop-color:#f0ded4;stop-opacity:1"/></linearGradient><linearGradient id="_Linear8" x1="0" y1="0" x2="1" y2="0" gradientUnits="userSpaceOnUse" gradientTransform="matrix(8.42486,56.8293,-56.8293,8.42486,116.75,123.869)"><stop offset="0" style="stop-color:#f9f9f9;stop-opacity:1"/><stop offset="1" style="stop-color:#ebd9cf;stop-opacity:1"/></linearGradient><linearGradient id="_Linear9" x1="0" y1="0" x2="1" y2="0" gradientUnits="userSpaceOnUse" gradientTransform="matrix(8.42486,56.8293,-56.8293,8.42486,116.75,123.869)"><stop offset="0" style="stop-color:#c7a789;stop-opacity:1"/><stop offset="1" style="stop-color:#bc906f;stop-opacity:1"/></linearGradient><linearGradient id="_Linear10" x1="0" y1="0" x2="1" y2="0" gradientUnits="userSpaceOnUse" gradientTransform="matrix(8.42486,56.8293,-56.8293,8.42486,116.75,123.869)"><stop offset="0" style="stop-color:#f3e4d9;stop-opacity:1"/><stop offset="1" style="stop-color:#e5c7b6;stop-opacity:1"/></linearGradient><linearGradient id="_Linear11" x1="0" y1="0" x2="1" y2="0" gradientUnits="userSpaceOnUse" gradientTransform="matrix(8.42486,56.8293,-56.8293,8.42486,116.75,123.869)"><stop offset="0" style="stop-color:#f9f0eb;stop-opacity:1"/><stop offset="1" style="stop-color:#ebd2c5;stop-opacity:1"/></linearGradient><linearGradient id="_Linear12" x1="0" y1="0" x2="1" y2="0" gradientUnits="userSpaceOnUse" gradientTransform="matrix(8.42486,56.8293,-56.8293,8.42486,116.75,123.869)"><stop offset="0" style="stop-color:#f0e1d7;stop-opacity:1"/><stop offset="1" style="stop-color:#e4c5b5;stop-opacity:1"/></linearGradient><linearGradient id="_Linear13" x1="0" y1="0" x2="1" y2="0" gradientUnits="userSpaceOnUse" gradientTransform="matrix(8.42486,56.8293,-56.8293,8.42486,116.75,123.869)"><stop offset="0" style="stop-color:#cdbbb2;stop-opacity:1"/><stop offset="1" style="stop-color:#c3a294;stop-opacity:1"/></linearGradient><linearGradient id="_Linear14" x1="0" y1="0" x2="1" y2="0" gradientUnits="userSpaceOnUse" gradientTransform="matrix(8.42486,56.8293,-56.8293,8.42486,116.75,123.869)"><stop offset="0" style="stop-color:#dbc4b6;stop-opacity:1"/><stop offset="1" style="stop-color:#d0a997;stop-opacity:1"/></linearGradient><linearGradient id="_Linear15" x1="0" y1="0" x2="1" y2="0" gradientUnits="userSpaceOnUse" gradientTransform="matrix(8.42486,56.8293,-56.8293,8.42486,116.75,123.869)"><stop offset="0" style="stop-color:#c2b8b2;stop-opacity:1"/><stop offset="1" style="stop-color:#b9a195;stop-opacity:1"/></linearGradient><linearGradient id="_Linear16" x1="0" y1="0" x2="1" y2="0" gradientUnits="userSpaceOnUse" gradientTransform="matrix(8.42485,56.8292,-56.8292,8.42485,184.44,113.834)"><stop offset="0" style="stop-color:#eedcce;stop-opacity:1"/><stop offset="1" style="stop-color:#e2c1ad;stop-opacity:1"/></linearGradient><linearGradient id="_Linear17" x1="0" y1="0" x2="1" y2="0" gradientUnits="userSpaceOnUse" gradientTransform="matrix(8.42485,56.8292,-56.8292,8.42485,184.44,113.834)"><stop offset="0" style="stop-color:#f8e9d8;stop-opacity:1"/><stop offset="1" style="stop-color:#eaccb6;stop-opacity:1"/></linearGradient><linearGradient id="_Linear18" x1="0" y1="0" x2="1" y2="0" gradientUnits="userSpaceOnUse" gradientTransform="matrix(8.42485,56.8292,-56.8292,8.42485,184.44,113.834)"><stop offset="0" style="stop-color:#fff;stop-opacity:1"/><stop offset="1" style="stop-color:#f0ded4;stop-opacity:1"/></linearGradient><linearGradient id="_Linear19" x1="0" y1="0" x2="1" y2="0" gradientUnits="userSpaceOnUse" gradientTransform="matrix(8.42485,56.8292,-56.8292,8.42485,184.44,113.834)"><stop offset="0" style="stop-color:#ebdcce;stop-opacity:1"/><stop offset="1" style="stop-color:#e0c0ac;stop-opacity:1"/></linearGradient><linearGradient id="_Linear20" x1="0" y1="0" x2="1" y2="0" gradientUnits="userSpaceOnUse" gradientTransform="matrix(8.42485,56.8292,-56.8292,8.42485,184.44,113.834)"><stop offset="0" style="stop-color:#a1897e;stop-opacity:1"/><stop offset="1" style="stop-color:#997566;stop-opacity:1"/></linearGradient><linearGradient id="_Linear21" x1="0" y1="0" x2="1" y2="0" gradientUnits="userSpaceOnUse" gradientTransform="matrix(8.42485,56.8292,-56.8292,8.42485,184.44,113.834)"><stop offset="0" style="stop-color:#bf9986;stop-opacity:1"/><stop offset="1" style="stop-color:#b5836d;stop-opacity:1"/></linearGradient><linearGradient id="_Linear22" x1="0" y1="0" x2="1" y2="0" gradientUnits="userSpaceOnUse" gradientTransform="matrix(8.42485,56.8292,-56.8292,8.42485,184.44,113.834)"><stop offset="0" style="stop-color:#8a827d;stop-opacity:1"/><stop offset="1" style="stop-color:#847167;stop-opacity:1"/></linearGradient><linearGradient id="_Linear23" x1="0" y1="0" x2="1" y2="0" gradientUnits="userSpaceOnUse" gradientTransform="matrix(8.42485,56.8292,-56.8292,8.42485,184.44,113.834)"><stop offset="0" style="stop-color:#fff;stop-opacity:1"/><stop offset="1" style="stop-color:#f0ded4;stop-opacity:1"/></linearGradient><linearGradient id="_Linear24" x1="0" y1="0" x2="1" y2="0" gradientUnits="userSpaceOnUse" gradientTransform="matrix(8.42485,56.8292,-56.8292,8.42485,184.44,113.834)"><stop offset="0" style="stop-color:#f9f9f9;stop-opacity:1"/><stop offset="1" style="stop-color:#ebd9cf;stop-opacity:1"/></linearGradient><linearGradient id="_Linear25" x1="0" y1="0" x2="1" y2="0" gradientUnits="userSpaceOnUse" gradientTransform="matrix(8.42485,56.8292,-56.8292,8.42485,184.44,113.834)"><stop offset="0" style="stop-color:#c7a789;stop-opacity:1"/><stop offset="1" style="stop-color:#bc906f;stop-opacity:1"/></linearGradient><linearGradient id="_Linear26" x1="0" y1="0" x2="1" y2="0" gradientUnits="userSpaceOnUse" gradientTransform="matrix(8.42485,56.8292,-56.8292,8.42485,184.44,113.834)"><stop offset="0" style="stop-color:#f6e7dc;stop-opacity:1"/><stop offset="1" style="stop-color:#e8cab9;stop-opacity:1"/></linearGradient><linearGradient id="_Linear27" x1="0" y1="0" x2="1" y2="0" gradientUnits="userSpaceOnUse" gradientTransform="matrix(8.42485,56.8292,-56.8292,8.42485,184.44,113.834)"><stop offset="0" style="stop-color:#f9f0eb;stop-opacity:1"/><stop offset="1" style="stop-color:#ebd2c5;stop-opacity:1"/></linearGradient><linearGradient id="_Linear28" x1="0" y1="0" x2="1" y2="0" gradientUnits="userSpaceOnUse" gradientTransform="matrix(8.42485,56.8292,-56.8292,8.42485,184.44,113.834)"><stop offset="0" style="stop-color:#f0e1d7;stop-opacity:1"/><stop offset="1" style="stop-color:#e4c5b5;stop-opacity:1"/></linearGradient><linearGradient id="_Linear29" x1="0" y1="0" x2="1" y2="0" gradientUnits="userSpaceOnUse" gradientTransform="matrix(8.42485,56.8292,-56.8292,8.42485,184.44,113.834)"><stop offset="0" style="stop-color:#cdbbb2;stop-opacity:1"/><stop offset="1" style="stop-color:#c3a294;stop-opacity:1"/></linearGradient><linearGradient id="_Linear30" x1="0" y1="0" x2="1" y2="0" gradientUnits="userSpaceOnUse" gradientTransform="matrix(8.42485,56.8292,-56.8292,8.42485,184.44,113.834)"><stop offset="0" style="stop-color:#dbc4b6;stop-opacity:1"/><stop offset="1" style="stop-color:#d0a997;stop-opacity:1"/></linearGradient><linearGradient id="_Linear31" x1="0" y1="0" x2="1" y2="0" gradientUnits="userSpaceOnUse" gradientTransform="matrix(8.42485,56.8292,-56.8292,8.42485,184.44,113.834)"><stop offset="0" style="stop-color:#c2b8b2;stop-opacity:1"/><stop offset="1" style="stop-color:#b9a195;stop-opacity:1"/></linearGradient><linearGradient id="_Linear32" x1="0" y1="0" x2="1" y2="0" gradientUnits="userSpaceOnUse" gradientTransform="matrix(8.42485,56.8292,-56.8292,8.42485,184.44,113.834)"><stop offset="0" style="stop-color:#f9f0eb;stop-opacity:1"/><stop offset="1" style="stop-color:#ebd2c5;stop-opacity:1"/></linearGradient><linearGradient id="_Linear34" x1="0" y1="0" x2="1" y2="0" gradientUnits="userSpaceOnUse" gradientTransform="matrix(8.42485,56.8292,-56.8292,8.42485,184.44,113.834)"><stop offset="0" style="stop-color:#cdbbb2;stop-opacity:1"/><stop offset="1" style="stop-color:#c3a294;stop-opacity:1"/></linearGradient></defs></svg>