<?xml version="1.0" encoding="UTF-8" standalone="no"?><!DOCTYPE svg PUBLIC "-//W3C//DTD SVG 1.1//EN" "http://www.w3.org/Graphics/SVG/1.1/DTD/svg11.dtd"><svg width="100%" height="100%" viewBox="0 0 298 300" version="1.1" xmlns="http://www.w3.org/2000/svg" xmlns:xlink="http://www.w3.org/1999/xlink" xml:space="preserve" style="fill-rule:evenodd;clip-rule:evenodd;stroke-linejoin:round;stroke-miterlimit:1.41421;"><g id="_58"><rect x="0.31" y="0.07" width="296.86" height="299.705" style="fill:#617498;fill-rule:nonzero;"/><path d="M121.74,201.487c-0.8,-0.641 -15.4,-10.31 -15.4,-10.31c1,6.017 1.74,8.483 0.28,12.567c-1.32,3.675 -3.84,5.098 -5.25,6.385c-1.4,1.292 -4.24,2.259 -5.23,2.259c-1.01,0 -2.14,-0.194 -2.14,-0.194c0,0 2.32,1.375 8.13,1.102c2.45,-0.114 4,-0.77 5.01,-1.528c-1.15,1.994 -2.23,4.851 -1.02,7.501c4.39,9.629 -1.47,12.772 -1.47,12.772c0,0 5.19,-0.556 8.17,-3.374l0.03,0.231c1.32,4.817 4.8,5.353 4.8,5.353c0,0 -2.19,-0.395 -1.78,-4.868c0.12,-1.192 1.27,-1.662 2.7,-2.468c0.56,4.323 2.38,8.73 -1.38,10.531c0,0 6.35,-1.354 7.51,-5.405c0.21,-0.741 0.32,-1.428 0.43,-2.117c0.1,0.381 0.23,0.733 0.31,1.135c0.9,5.16 -2.75,10.166 -2.75,10.166c0,0 13.17,-1.504 13.27,-7.119c0.01,-0.841 0.18,-4.28 0.58,-5.565c0.4,-1.292 1.2,-7.732 1.2,-7.732c0,0 -15.2,-18.677 -16,-19.322Z" style="fill:#3e2a12;fill-rule:nonzero;"/><path d="M173.27,201.487c0.8,-0.641 15.4,-10.31 15.4,-10.31c-1,6.017 -1.75,8.483 -0.28,12.567c1.32,3.675 3.84,5.098 5.24,6.385c1.4,1.292 4.25,2.259 5.25,2.259c1,0 2.13,-0.194 2.13,-0.194c0,0 -2.32,1.375 -8.14,1.102c-2.44,-0.114 -3.99,-0.77 -5,-1.528c1.15,1.994 2.23,4.851 1.02,7.501c-4.39,9.629 1.47,12.772 1.47,12.772c0,0 -5.2,-0.556 -8.18,-3.374l-0.02,0.231c-1.32,4.817 -4.8,5.353 -4.8,5.353c0,0 2.2,-0.395 1.77,-4.868c-0.11,-1.192 -1.26,-1.662 -2.7,-2.468c-0.56,4.323 -2.37,8.73 1.38,10.531c0,0 -6.34,-1.354 -7.5,-5.405c-0.21,-0.741 -0.33,-1.428 -0.43,-2.117c-0.11,0.381 -0.24,0.733 -0.31,1.135c-0.9,5.16 2.75,10.166 2.75,10.166c0,0 -13.17,-1.504 -13.28,-7.119c0,-0.841 -0.17,-4.28 -0.57,-5.565c-0.4,-1.292 -1.2,-7.732 -1.2,-7.732c0,0 15.2,-18.677 16,-19.322Z" style="fill:#3e2a12;fill-rule:nonzero;"/><path d="M149.05,187.154l0,112.621l-60.73,0c-0.99,-0.396 -1.48,-0.596 -1.48,-0.596c0,-14.376 2.1,-25.585 5.3,-34.326c7.73,-21.095 21.89,-27.795 28.4,-29.815c2.14,-0.664 3.45,-0.823 3.45,-0.823c0.24,0 0.45,-0.021 0.67,-0.057c1.91,-0.308 3.47,-1.974 4.71,-4.633c0.93,-1.974 1.7,-4.493 2.33,-7.409c0.26,-1.136 0.45,-2.282 0.65,-3.521c0.3,-2.083 0.59,-4.263 0.84,-6.546c0.1,-1.388 0.25,-2.725 0.39,-4.165c0.54,-6.889 0.7,-14.432 0.7,-21.574c0,0 8.15,0.844 14.77,0.844Z" style="fill:#e0bd9a;fill-rule:nonzero;"/><path d="M211.51,299.179c0,0 -0.54,0.2 -1.44,0.596l-61.02,0l0,-112.621l0.15,0c6.57,0 14.83,-0.844 14.83,-0.844c0,7.091 0.14,14.531 0.68,21.425c0.15,1.342 0.3,2.725 0.4,4.067c0.25,2.381 0.55,4.613 0.89,6.695l0,0.046c0.1,0.946 0.29,1.789 0.44,2.679c0.6,2.931 1.33,5.507 2.21,7.573c1.09,2.571 2.42,4.366 4.03,5.075c0.51,0.232 1.05,0.345 1.62,0.345c0,0 2.34,0.283 5.84,1.661c7.15,2.807 19.16,10.175 26.06,28.977c3.2,8.741 5.31,19.95 5.31,34.326Z" style="fill:#efd0ad;fill-rule:nonzero;"/><path d="M166,218.287l0,0.049c-1.53,2.365 -6.67,9.163 -16.85,9.163l-0.1,0c-9.64,-0.049 -15.27,-7.045 -16.7,-9.114c0.3,-2.069 0.59,-4.237 0.84,-6.503c0.1,-1.33 0.25,-2.71 0.39,-4.139c4.7,1.183 9.84,1.922 15.27,2.02l0.2,0c5.63,-0.098 10.82,-0.886 15.66,-2.167c0.15,1.33 0.3,2.709 0.4,4.04c0.25,2.364 0.54,4.581 0.89,6.651Z" style="fill:#be987f;fill-rule:nonzero;"/><path d="M148.36,58.81c-64.34,0 -64.68,53.947 -61.82,89.272c-4.4,-8.376 -17.49,-5.814 -16.4,7.39c1.03,12.71 19.74,19.188 19.22,17.785c9.74,26.124 35.53,45.818 59,45.818l0.49,0l0,-160.265l-0.49,0Z" style="fill:#d2a686;fill-rule:nonzero;"/><path d="M74.24,149.904c3.16,-5.123 8.1,-2.906 9.29,-1.773c1.28,1.231 2.32,2.808 1.53,5.813c-0.44,1.725 -2.22,1.872 -1.83,4.434c0.5,2.907 1.83,3.055 2.62,3.744c0.74,0.641 1.68,1.134 2.13,2.365c0.49,1.232 0.54,2.513 0.29,3.646c-0.49,2.069 -3.51,0.394 -5.53,-0.493c-1.34,-0.64 -5.59,-4.237 -6.67,-5.419c-2.67,-3.054 -3.96,-8.966 -1.83,-12.317Z" style="fill:#ac8774;fill-rule:nonzero;"/><path d="M148.7,58.81c64.34,0 64.69,53.947 61.87,89.272c4.4,-8.376 17.44,-5.814 16.36,7.39c-0.99,12.71 -19.74,19.193 -19.23,17.785c-9.49,26.124 -35.52,45.818 -59,45.818c-0.14,0 -0.34,0 -0.34,0l-0.15,-160.265c0,0 0.35,0 0.49,0Z" style="fill:#ddb598;fill-rule:nonzero;"/><path d="M222.82,149.904c-3.16,-5.123 -8.05,-2.906 -9.29,-1.773c-1.28,1.231 -2.27,2.808 -1.53,5.813c0.45,1.725 2.23,1.872 1.83,4.434c-0.49,2.907 -1.83,3.055 -2.57,3.744c-0.74,0.641 -1.73,1.134 -2.17,2.365c-0.45,1.232 -0.55,2.513 -0.3,3.646c0.49,2.069 3.51,0.394 5.54,-0.493c1.38,-0.64 5.58,-4.237 6.67,-5.419c2.71,-3.054 3.95,-8.966 1.82,-12.317Z" style="fill:#ac8774;fill-rule:nonzero;"/><path d="M147.85,74.034c-21.15,0 -36.66,6.158 -46,18.278c-13.1,16.997 -12.6,42.911 -7.81,61.534c1.48,5.715 2.27,21.036 3.26,26.653c4.6,25.175 32.32,38.576 50.55,38.576c0,0 0.35,0 0.5,0l0,-145.041c-0.15,0 -0.3,0 -0.3,0" style="fill:#e0bd9a;fill-rule:nonzero;"/><path d="M193.81,92.361c-9.29,-12.07 -24.61,-18.229 -45.46,-18.327l0,145.041c20.85,-0.246 45.8,-14.928 50.05,-38.576c1.04,-5.617 1.78,-20.938 3.26,-26.653c4.85,-18.574 5.34,-44.439 -7.85,-61.485Z" style="fill:#efd0ad;fill-rule:nonzero;"/><path d="M148.54,190.627" style="fill:#bc917b;fill-rule:nonzero;"/><path d="M148.54,190.627" style="fill:#bc917b;fill-rule:nonzero;"/><path d="M144.97,193.363c-0.1,-0.021 -0.2,-0.041 -0.3,-0.064c0.1,0.022 0.18,0.04 0.3,0.064Z" style="fill:#bc917b;fill-rule:nonzero;"/><path d="M148.54,193.171" style="fill:#bc917b;fill-rule:nonzero;"/><path d="M144.19,193.188c-0.1,-0.024 -0.18,-0.051 -0.27,-0.076l-0.01,0.004c0,0 0.1,0.029 0.28,0.072Z" style="fill:#bc917b;fill-rule:nonzero;"/><path d="M148.54,193.171" style="fill:#bc917b;fill-rule:nonzero;"/><path d="M136.34,174.548c-0.24,-5.012 9.18,-1.832 12.29,-1.675c2.45,0.126 9.92,-1.579 10.56,-1.14c4.4,2.971 -4.65,8.956 -10.72,8.956c-1.61,0 -11.98,-3.118 -12.13,-6.141Z" style="fill:#ddb598;fill-rule:nonzero;"/><path d="M130.38,74.396l-0.26,0.268l0.04,0.089c0.09,-0.134 0.14,-0.268 0.22,-0.357Z" style="fill:#432e1b;fill-rule:nonzero;"/><path d="M89.42,125.503" style="fill:#432e1b;fill-rule:nonzero;"/><path d="M148.81,193.19" style="fill:#ba907b;fill-rule:nonzero;"/><path d="M148.81,193.19" style="fill:#ba907b;fill-rule:nonzero;"/><path d="M145.15,190.421c-0.11,-0.022 -0.21,-0.042 -0.31,-0.066c0.1,0.022 0.19,0.041 0.31,0.066Z" style="fill:#ba907b;fill-rule:nonzero;"/><path d="M148.81,190.224" style="fill:#ba907b;fill-rule:nonzero;"/><path d="M144.34,190.241c-0.09,-0.025 -0.18,-0.052 -0.28,-0.078l-0.01,0.004c0,0 0.11,0.029 0.29,0.074Z" style="fill:#ba907b;fill-rule:nonzero;"/><path d="M148.81,190.224" style="fill:#ba907b;fill-rule:nonzero;"/><path d="M102.19,130.644c0,0 4.91,20.198 13.34,21.847c8.42,1.647 17.54,-1.629 17.54,-1.629c0,0 0.88,-23.738 -3.44,-26.839c-4.31,-3.115 -14.25,-7.617 -27.44,6.621Z" style="fill:#fff;fill-rule:nonzero;"/><path d="M133.09,150.8c0,0 -0.2,0.056 -0.63,0.237c-0.11,-7.281 -0.78,-17.281 -3.47,-19.197c-4.01,-2.942 -13.06,-7.084 -25.14,4.243c-1.1,-3.13 -1.65,-5.502 -1.65,-5.502c13.21,-14.265 23.16,-9.771 27.44,-6.653c4.32,3.114 3.45,26.872 3.45,26.872Z" style="fill:#d6b496;fill-rule:nonzero;"/><path d="M128.1,140.514c0,4.595 -3.72,8.32 -8.3,8.32c-4.58,0 -8.29,-3.725 -8.29,-8.32c0,-4.594 3.71,-8.319 8.29,-8.319c4.58,0 8.3,3.725 8.3,8.319Z" style="fill:#482315;fill-rule:nonzero;"/><path d="M119.42,146.055c-2.4,-0.199 -4.24,-2.623 -4.02,-5.289c0.22,-2.665 2.42,-4.75 4.82,-4.549c2.4,0.198 4.23,2.62 4.02,5.285c-0.22,2.665 -2.43,4.754 -4.82,4.553Z" style="fill:#7e3a22;fill-rule:nonzero;"/><path d="M119.62,145.094c-1.66,-0.143 -3.39,-1.978 -3.21,-4.237c0.19,-2.267 2.19,-3.797 3.86,-3.66c1.67,0.142 3.39,1.985 3.21,4.245c-0.19,2.263 -2.19,3.789 -3.86,3.652Z" style="fill:#211a10;fill-rule:nonzero;"/><path d="M118.27,139.518c-0.06,0.817 -0.9,1.414 -1.86,1.335c-0.96,-0.082 -1.68,-0.812 -1.62,-1.624c0.07,-0.82 0.9,-1.418 1.86,-1.339c0.97,0.078 1.69,0.808 1.62,1.628Z" style="fill:#fff;fill-rule:nonzero;"/><path d="M123.65,144.243c-0.03,0.407 -0.45,0.707 -0.93,0.666c-0.48,-0.038 -0.84,-0.406 -0.81,-0.812c0.04,-0.406 0.45,-0.707 0.93,-0.666c0.48,0.038 0.85,0.402 0.81,0.812Z" style="fill:#fff;fill-rule:nonzero;"/><path d="M148.94,190.139" style="fill:#ba907b;fill-rule:nonzero;"/><path d="M148.94,190.139" style="fill:#ba907b;fill-rule:nonzero;"/><path d="M145.28,192.803c-0.11,-0.022 -0.21,-0.042 -0.31,-0.066c0.1,0.023 0.19,0.042 0.31,0.066Z" style="fill:#ba907b;fill-rule:nonzero;"/><path d="M148.94,192.606" style="fill:#ba907b;fill-rule:nonzero;"/><path d="M144.47,192.623c-0.09,-0.025 -0.18,-0.052 -0.27,-0.078l-0.01,0.004c0,0 0.1,0.03 0.28,0.074Z" style="fill:#ba907b;fill-rule:nonzero;"/><path d="M148.94,192.606" style="fill:#ba907b;fill-rule:nonzero;"/><path d="M148.83,189.768" style="fill:#bc917b;fill-rule:nonzero;"/><path d="M148.83,189.768" style="fill:#bc917b;fill-rule:nonzero;"/><path d="M144.9,192.233c-0.11,-0.024 -0.22,-0.046 -0.33,-0.071c0.11,0.024 0.2,0.045 0.33,0.071Z" style="fill:#bc917b;fill-rule:nonzero;"/><path d="M148.83,192.021" style="fill:#bc917b;fill-rule:nonzero;"/><path d="M144.04,192.039c-0.1,-0.026 -0.2,-0.055 -0.3,-0.083l-0.01,0.005c0,0 0.11,0.031 0.31,0.078Z" style="fill:#bc917b;fill-rule:nonzero;"/><path d="M148.83,192.021" style="fill:#bc917b;fill-rule:nonzero;"/><path d="M148.58,188.923" style="fill:#bc917b;fill-rule:nonzero;"/><path d="M148.58,188.923" style="fill:#bc917b;fill-rule:nonzero;"/><path d="M144.65,191.388c-0.11,-0.023 -0.22,-0.045 -0.33,-0.071c0.11,0.024 0.21,0.045 0.33,0.071Z" style="fill:#bc917b;fill-rule:nonzero;"/><path d="M148.58,191.177" style="fill:#bc917b;fill-rule:nonzero;"/><path d="M143.79,191.195c-0.1,-0.027 -0.2,-0.056 -0.3,-0.084l-0.01,0.005c0,0 0.12,0.031 0.31,0.079Z" style="fill:#bc917b;fill-rule:nonzero;"/><path d="M148.58,191.177" style="fill:#bc917b;fill-rule:nonzero;"/><path d="M149.22,188.709" style="fill:#bc917b;fill-rule:nonzero;"/><path d="M149.22,188.709" style="fill:#bc917b;fill-rule:nonzero;"/><path d="M145.42,191.273c-0.1,-0.023 -0.21,-0.044 -0.32,-0.069c0.11,0.024 0.2,0.043 0.32,0.069Z" style="fill:#bc917b;fill-rule:nonzero;"/><path d="M149.22,191.068" style="fill:#bc917b;fill-rule:nonzero;"/><path d="M144.59,191.086c-0.1,-0.026 -0.19,-0.054 -0.29,-0.081l-0.01,0.005c0,0 0.11,0.03 0.3,0.076Z" style="fill:#bc917b;fill-rule:nonzero;"/><path d="M149.22,191.068" style="fill:#bc917b;fill-rule:nonzero;"/><path d="M195,129.957c0,0 -4.9,20.198 -13.33,21.847c-8.43,1.647 -17.55,-1.629 -17.55,-1.629c0,0 -0.87,-23.738 3.45,-26.839c4.31,-3.115 14.25,-7.617 27.43,6.621Z" style="fill:#fff;fill-rule:nonzero;"/><path d="M164.11,150.112c0,0 0.19,0.056 0.63,0.238c0.11,-7.281 0.78,-17.281 3.47,-19.197c4.01,-2.943 13.05,-7.084 25.14,4.242c1.1,-3.129 1.65,-5.501 1.65,-5.501c-13.21,-14.265 -23.16,-9.771 -27.44,-6.653c-4.32,3.114 -3.45,26.871 -3.45,26.871Z" style="fill:#d6b496;fill-rule:nonzero;"/><path d="M169.1,139.827c0,4.595 3.71,8.32 8.29,8.32c4.58,0 8.3,-3.725 8.3,-8.32c0,-4.595 -3.72,-8.319 -8.3,-8.319c-4.58,0 -8.29,3.724 -8.29,8.319Z" style="fill:#482315;fill-rule:nonzero;"/><path d="M177.78,145.367c2.39,-0.198 4.23,-2.622 4.01,-5.288c-0.21,-2.665 -2.42,-4.751 -4.81,-4.549c-2.4,0.198 -4.23,2.619 -4.02,5.284c0.21,2.666 2.43,4.755 4.82,4.553Z" style="fill:#7e3a22;fill-rule:nonzero;"/><path d="M177.57,144.406c1.67,-0.142 3.4,-1.977 3.22,-4.236c-0.19,-2.267 -2.19,-3.797 -3.86,-3.66c-1.67,0.142 -3.39,1.985 -3.21,4.245c0.18,2.262 2.19,3.789 3.85,3.651Z" style="fill:#211a10;fill-rule:nonzero;"/><path d="M178.92,138.831c0.07,0.817 0.91,1.414 1.87,1.335c0.96,-0.082 1.68,-0.812 1.61,-1.624c-0.07,-0.821 -0.9,-1.418 -1.86,-1.339c-0.96,0.078 -1.68,0.808 -1.62,1.628Z" style="fill:#fff;fill-rule:nonzero;"/><path d="M173.55,143.556c0.03,0.406 0.45,0.707 0.93,0.666c0.48,-0.038 0.84,-0.406 0.81,-0.812c-0.04,-0.406 -0.46,-0.707 -0.93,-0.666c-0.48,0.037 -0.85,0.402 -0.81,0.812Z" style="fill:#fff;fill-rule:nonzero;"/><path d="M138.14,130.322c-0.07,-0.099 -1.6,-2.431 -4.72,-4.835c-1.96,-1.507 -3.88,-2.654 -5.87,-3.509c-2.42,-1.02 -5.03,-1.741 -7.55,-2.087c-2.29,-0.255 -4.82,-0.187 -7.77,0.211c-2.26,0.431 -4.46,1.103 -6.32,1.929c-1.33,0.459 -2.38,1.105 -3.23,1.625c-0.32,0.199 -0.61,0.379 -0.91,0.539l-4.03,2.539l4.64,-1.093c0.22,-0.055 0.45,-0.117 0.7,-0.184c0.96,-0.255 2.16,-0.573 3.56,-0.779c0.33,-0.048 0.66,-0.114 1,-0.182c0.58,-0.117 1.19,-0.237 1.82,-0.268c0.7,-0.047 1.43,-0.099 2.18,-0.153l0.97,-0.07c2.57,-0.033 4.74,0.163 6.67,0.608c2.11,0.365 4.27,1.047 6.26,1.969c1.87,0.901 3.67,1.793 5.07,2.826c2.84,1.897 4.41,3.479 4.43,3.495c0.39,0.393 0.91,0.596 1.43,0.596c0.38,0 0.76,-0.108 1.1,-0.328c0.93,-0.613 1.19,-1.877 0.6,-2.788l-0.03,-0.061Z" style="fill:#030405;fill-rule:nonzero;"/><path d="M195.83,124.176c-0.26,-0.141 -0.56,-0.322 -0.88,-0.521c-0.85,-0.519 -1.9,-1.165 -3.19,-1.609c-1.9,-0.841 -4.1,-1.513 -6.38,-1.948c-2.93,-0.395 -5.46,-0.463 -7.76,-0.206c-2.51,0.345 -5.12,1.066 -7.54,2.087c-1.96,0.843 -3.94,2.023 -5.87,3.508c-3.06,2.36 -4.59,4.652 -4.71,4.828l-0.03,0.042c-0.51,0.8 -0.4,1.871 0.27,2.546c0.38,0.386 0.89,0.597 1.43,0.597c0.54,0 1.04,-0.212 1.42,-0.598l0.02,-0.017c0.15,-0.148 1.68,-1.649 4.43,-3.49c1.38,-1.018 3.18,-1.912 5.05,-2.81c1.99,-0.925 4.16,-1.607 6.29,-1.978c1.9,-0.439 4.07,-0.631 6.61,-0.604l1.02,0.074c0.74,0.053 1.47,0.104 2.17,0.152c0.63,0.03 1.23,0.15 1.81,0.267c0.34,0.068 0.68,0.134 1,0.182c1.4,0.206 2.6,0.524 3.56,0.779c0.25,0.067 0.48,0.129 0.71,0.185l4.63,1.093l-4.06,-2.559Z" style="fill:#030405;fill-rule:nonzero;"/><path d="M147.65,198.09" style="fill:#be927b;fill-rule:nonzero;"/><path d="M147.65,198.09" style="fill:#be927b;fill-rule:nonzero;"/><path d="M143.82,195.195c-0.11,-0.024 -0.21,-0.045 -0.32,-0.07c0.1,0.024 0.2,0.044 0.32,0.07Z" style="fill:#be927b;fill-rule:nonzero;"/><path d="M147.65,194.988" style="fill:#be927b;fill-rule:nonzero;"/><path d="M142.98,195.006c-0.1,-0.026 -0.19,-0.054 -0.29,-0.081l-0.01,0.004c0,0 0.11,0.031 0.3,0.077Z" style="fill:#be927b;fill-rule:nonzero;"/><path d="M147.65,194.988" style="fill:#be927b;fill-rule:nonzero;"/><path d="M136.46,199.362c-0.24,-3.247 9.02,0.68 12.06,0.774c2.42,0.082 9.71,-0.481 10.38,-0.739c5.1,-1.911 -0.28,5.429 -10.54,5.815c-4.69,0.188 -11.76,-3.881 -11.9,-5.85Z" style="fill:#f0d2ad;fill-rule:nonzero;"/><path d="M166.6,193.101c-2.51,-0.124 -5.09,1.977 -8.11,1.656c-0.13,-0.061 -0.19,-0.061 -0.32,-0.061c-0.69,-0.123 -1.38,0 -2.14,0.185c-0.94,0.197 -1.88,0.58 -2.77,0.889c-1.51,0.493 -3.21,0.888 -4.96,0.752l0,0.012l-0.1,-0.012l-0.1,0.012l0,-0.012c-1.75,0.136 -3.45,-0.259 -4.97,-0.752c-0.88,-0.309 -1.83,-0.692 -2.77,-0.889c-0.75,-0.185 -1.44,-0.308 -2.14,-0.185c-0.13,0 -0.19,0 -0.31,0.061c-3.02,0.321 -5.6,-1.78 -8.12,-1.656c-0.69,0.061 -1.7,-0.124 -2.27,-0.124c0.13,0.062 0.26,0.124 0.38,0.185c7.17,3.504 13.35,10.068 20.2,9.858l0.2,0c6.84,0.21 13.03,-6.354 20.19,-9.858c0.13,-0.061 0.26,-0.123 0.38,-0.185c-0.56,0 -1.57,0.185 -2.27,0.124Z" style="fill:#dcbf9e;fill-rule:nonzero;"/><path d="M168.71,192.901c0,0 -7.29,-2.815 -12.47,-1.164c0,0 -1.93,0.755 -3.93,1.215c-1.21,0.475 -2.69,0.613 -4.11,0.555c-1.09,-0.043 -2.13,-0.182 -2.98,-0.331c-0.28,-0.044 -0.56,-0.101 -0.85,-0.163c-0.13,-0.026 -0.22,-0.046 -0.33,-0.07c-0.17,-0.041 -0.34,-0.074 -0.52,-0.119c-0.19,-0.046 -0.3,-0.077 -0.3,-0.077l0.01,-0.004c-1.65,-0.45 -3.08,-1.006 -3.08,-1.006c-5.18,-1.651 -12.46,1.164 -12.46,1.164c-0.1,0.045 -0.17,0.076 -0.17,0.076c0.57,0 1.58,0.185 2.27,0.124c2.51,-0.124 5.1,1.977 8.12,1.656c0.12,-0.061 0.18,-0.061 0.31,-0.061c0.7,-0.124 1.39,0 2.14,0.185c0.94,0.197 1.89,0.58 2.77,0.889c1.52,0.493 3.22,0.888 4.97,0.752l0,0.012l0.1,-0.012l0.1,0.012l0,-0.012c1.75,0.136 3.45,-0.259 4.96,-0.752c0.89,-0.309 1.83,-0.692 2.77,-0.889c0.76,-0.185 1.45,-0.309 2.14,-0.185c0.13,0 0.19,0 0.32,0.061c3.02,0.321 5.6,-1.78 8.11,-1.656c0.7,0.061 1.71,-0.124 2.27,-0.124c0,0 -0.06,-0.031 -0.16,-0.076Z" style="fill:#c69f83;fill-rule:nonzero;"/><path d="M135.96,194.615c0.13,0.034 13.65,4.164 24.23,0.09l-1.22,-0.822l-14.29,0l-8.72,0.732Z" style="fill:#c69f83;fill-rule:nonzero;"/><path d="M140.75,252.364l0,47.403l-44.6,0c0.25,-3.621 0.47,-9.485 0.51,-17.22l-11.41,0c-0.13,-11.255 8.84,-30.471 8.84,-30.471c0.87,-1.173 1.75,-2.243 2.64,-3.271c2.32,-2.675 4.73,-4.856 7.11,-6.625c0.27,-0.288 0.6,-0.494 0.89,-0.679c0.76,-0.556 1.54,-1.07 2.3,-1.564c3.46,-2.201 6.73,-3.6 9.28,-4.464c0.6,-0.227 1.15,-0.391 1.69,-0.535c2.39,-0.659 3.87,-0.844 3.87,-0.844c1.27,0 2.36,-0.473 3.35,-1.275l0.04,-0.042c0.33,-0.308 0.66,-0.679 0.99,-1.07c0.12,0.103 0.37,0.432 0.58,1.112c0.92,2.263 6.35,13.805 13.92,19.545Z" style="fill:#3a2f34;fill-rule:nonzero;"/><path d="M201.78,282.547c0.04,7.715 0.33,13.62 0.57,17.22l-44.79,0l0,-47.3c2.43,-1.79 4.63,-4.218 6.53,-6.728c4.13,-5.432 6.91,-11.357 7.55,-12.92c0.22,-0.68 0.47,-1.009 0.61,-1.112c0.31,0.391 0.64,0.762 0.97,1.07l0.04,0.042c0.97,0.802 2.1,1.275 3.34,1.275c0,0 1.41,0.144 3.68,0.761c0.49,0.185 1.05,0.35 1.66,0.556c3.11,1.029 7.33,2.819 11.73,6.008c0.29,0.226 0.62,0.431 0.87,0.699c3.35,2.469 6.74,5.699 9.83,9.958c0,0 9.14,13.25 8.72,30.471l-11.31,0Z" style="fill:#3a2f34;fill-rule:nonzero;"/><path d="M140.75,270.518c0,0 7.04,8.744 16.81,0l0,29.249l-16.81,0l0,-29.249Z" style="fill:#827177;fill-rule:nonzero;"/><path d="M125.77,49.658c-3.98,-2.222 -20.98,-9.014 -20.98,-9.014c0,0 5.78,3.596 6.5,6.792c0.74,3.198 -38.38,18.106 -43.81,58.836c-5.43,40.728 8.4,56.971 8.4,56.971l-2.56,-28.441c0,0.076 -1.09,12.763 0,22.752c1.08,9.965 4.33,21.546 0,33.129c-4.34,11.581 -6.14,12.454 -6.14,12.454c0,0 12.92,-12.327 15.44,-20.184c4.34,-13.585 2.6,-19.235 4.05,-26.836c1.44,-7.576 2.57,-28.018 2.57,-28.018c0,0 -6.48,16.513 1.08,32.73c2.29,4.931 5.25,8.385 5.25,8.385c0,0 -4.56,-10.273 -3.67,-21.136c0.57,-6.804 4.65,-7.857 13.7,-32.82c4.29,-11.837 0.64,-34.577 -0.09,-29.043c-0.72,5.534 -1.25,19.375 3.26,26.308c6.82,10.465 16.7,13.933 16.7,13.933c0,0 -10.78,-8.347 -10.91,-23.126c-0.08,-7.999 2.89,-14.368 2.89,-14.368c0,0 -2.78,16.641 22.26,26.619c7.21,2.862 12.82,0.936 12.82,0.936c0,0 -10.41,-6.137 -10.49,-16.769c0,0 15.77,20.403 44.48,27.144c11.09,2.607 18.65,1.888 18.65,1.888c0,0 1.15,-2.427 0.79,8.833c-0.36,11.262 -2.3,16.064 -4.95,19.941c-1.07,1.567 -4.36,4.482 -4.36,4.482c0,0 8.31,-3.095 13.51,-13.7c3.56,-7.269 2.41,-17.052 2.41,-17.052c0,0 1.07,11.941 0,28.35c-1.56,23.704 -9.76,34.04 -9.76,34.04c0,0 8.09,-6.946 13.25,-20.814c3.96,-10.605 3.01,-17.219 3.01,-17.219c0,0 -0.68,16.578 18.44,27.773c0,0 -5.39,-3.697 -7.95,-22.188c-3.26,-23.497 2.32,-41.806 -2.01,-60.168c-4.35,-18.362 -5.52,-20.159 -12.75,-30.123c-7.23,-9.99 -14.18,-18.016 -33.71,-24.615c-19.53,-6.612 -23.66,-4.367 -31.13,-4.263c-11.9,0.154 -19.49,5.778 -19.49,5.778c0,0 -1.1,-4.134 0.71,-9.733c1.8,-5.585 3.26,-8.231 3.26,-8.231c0,0 -4.75,7.332 -5.78,9.181c-4.22,7.576 -2.89,10.606 -2.89,10.606Z" style="fill:#3e2a12;fill-rule:nonzero;"/></g></svg>