<?xml version="1.0" encoding="UTF-8" standalone="no"?><!DOCTYPE svg PUBLIC "-//W3C//DTD SVG 1.1//EN" "http://www.w3.org/Graphics/SVG/1.1/DTD/svg11.dtd"><svg width="100%" height="100%" viewBox="0 0 300 300" version="1.1" xmlns="http://www.w3.org/2000/svg" xmlns:xlink="http://www.w3.org/1999/xlink" xml:space="preserve" style="fill-rule:evenodd;clip-rule:evenodd;stroke-linejoin:round;stroke-miterlimit:1.41421;"><g id="_59"><rect x="0.399" y="0.07" width="299.371" height="299.705" style="fill:#8868ad;fill-rule:nonzero;"/><path d="M198.2,249.957c6.17,-5.123 13.78,-13.311 17.09,-24.339l16.67,16.665l-26.29,18.929l-7.47,-11.255Z" style="fill:#c17d2a;fill-rule:nonzero;"/><path d="M77.43,242.283l17.05,-17.056c2.45,8.415 7.18,18.023 16.22,25.451l-6.98,10.534l-26.29,-18.929Z" style="fill:#c17d2a;fill-rule:nonzero;"/><path d="M154.34,187.323l0,112.621l-60.72,0c-0.99,-0.395 -1.48,-0.596 -1.48,-0.596c0,-14.376 2.1,-25.584 5.3,-34.325c7.73,-21.096 21.88,-27.796 28.4,-29.816c2.13,-0.664 3.45,-0.823 3.45,-0.823c0.23,0 0.45,-0.021 0.67,-0.056c1.91,-0.309 3.46,-1.975 4.71,-4.633c0.92,-1.974 1.7,-4.494 2.33,-7.409c0.25,-1.136 0.45,-2.283 0.65,-3.522c0.29,-2.083 0.58,-4.262 0.84,-6.545c0.09,-1.389 0.24,-2.726 0.39,-4.165c0.54,-6.89 0.69,-14.433 0.69,-21.574c0,0 8.16,0.843 14.77,0.843Z" style="fill:#e0bd9a;fill-rule:nonzero;"/><path d="M216.8,299.348c0,0 -0.54,0.201 -1.43,0.596l-61.03,0l0,-112.621l0.15,0c6.57,0 14.83,-0.843 14.83,-0.843c0,7.09 0.14,14.53 0.69,21.425c0.15,1.342 0.3,2.725 0.39,4.067c0.25,2.38 0.55,4.612 0.89,6.694l0,0.047c0.1,0.946 0.3,1.789 0.45,2.678c0.6,2.931 1.33,5.507 2.2,7.574c1.1,2.571 2.42,4.365 4.03,5.075c0.52,0.231 1.06,0.344 1.63,0.344c0,0 2.34,0.283 5.84,1.661c7.15,2.807 19.16,10.175 26.05,28.978c3.21,8.741 5.31,19.949 5.31,34.325Z" style="fill:#efd0ad;fill-rule:nonzero;"/><path d="M171.29,218.456l0,0.049c-1.53,2.365 -6.67,9.164 -16.85,9.164l-0.09,0c-9.64,-0.05 -15.27,-7.045 -16.71,-9.115c0.3,-2.069 0.6,-4.236 0.84,-6.503c0.1,-1.33 0.25,-2.709 0.4,-4.138c4.69,1.182 9.83,1.921 15.27,2.02l0.2,0c5.63,-0.099 10.82,-0.887 15.66,-2.168c0.15,1.33 0.3,2.71 0.4,4.04c0.24,2.365 0.54,4.582 0.88,6.651Z" style="fill:#be987f;fill-rule:nonzero;"/><path d="M153.65,58.98c-64.33,0 -64.68,53.947 -61.81,89.271c-4.4,-8.375 -17.49,-5.814 -16.41,7.39c1.04,12.711 19.75,19.189 19.22,17.785c9.75,26.124 35.53,45.818 59,45.818l0.5,0l0,-160.264l-0.5,0Z" style="fill:#d2a686;fill-rule:nonzero;"/><path d="M79.53,150.074c3.17,-5.124 8.11,-2.907 9.29,-1.774c1.29,1.232 2.33,2.808 1.54,5.814c-0.45,1.724 -2.23,1.872 -1.83,4.434c0.49,2.906 1.83,3.054 2.62,3.744c0.74,0.64 1.68,1.133 2.12,2.365c0.5,1.231 0.54,2.512 0.3,3.645c-0.5,2.07 -3.51,0.394 -5.54,-0.492c-1.33,-0.641 -5.58,-4.237 -6.67,-5.42c-2.67,-3.054 -3.95,-8.966 -1.83,-12.316Z" style="fill:#ac8774;fill-rule:nonzero;"/><path d="M154,58.98c64.34,0 64.68,53.947 61.87,89.271c4.39,-8.375 17.44,-5.814 16.35,7.39c-0.99,12.711 -19.73,19.193 -19.22,17.785c-9.49,26.124 -35.53,45.818 -59,45.818c-0.15,0 -0.35,0 -0.35,0l-0.14,-160.264c0,0 0.34,0 0.49,0Z" style="fill:#ddb598;fill-rule:nonzero;"/><path d="M228.12,150.074c-3.16,-5.124 -8.05,-2.907 -9.29,-1.774c-1.28,1.232 -2.27,2.808 -1.53,5.814c0.44,1.724 2.22,1.872 1.83,4.434c-0.5,2.906 -1.83,3.054 -2.57,3.744c-0.74,0.64 -1.73,1.133 -2.18,2.365c-0.44,1.231 -0.54,2.512 -0.29,3.645c0.49,2.07 3.5,0.394 5.53,-0.492c1.38,-0.641 5.58,-4.237 6.67,-5.42c2.72,-3.054 3.95,-8.966 1.83,-12.316Z" style="fill:#ac8774;fill-rule:nonzero;"/><path d="M153.15,74.203c-21.15,0 -36.67,6.158 -46.01,18.278c-13.09,16.997 -12.6,42.911 -7.8,61.534c1.48,5.715 2.27,21.037 3.26,26.653c4.59,25.176 32.31,38.576 50.55,38.576c0,0 0.34,0 0.49,0l0,-145.041c-0.15,0 -0.29,0 -0.29,0" style="fill:#e0bd9a;fill-rule:nonzero;"/><path d="M199.1,92.53c-9.29,-12.07 -24.61,-18.228 -45.46,-18.327l0,145.041c20.85,-0.246 45.81,-14.928 50.06,-38.576c1.04,-5.616 1.78,-20.938 3.26,-26.653c4.84,-18.573 5.34,-44.438 -7.86,-61.485Z" style="fill:#efd0ad;fill-rule:nonzero;"/><path d="M153.84,190.796" style="fill:#bc917b;fill-rule:nonzero;"/><path d="M153.83,190.796l0.01,0l-0.01,0Z" style="fill:#bc917b;fill-rule:nonzero;"/><path d="M150.27,193.533c-0.1,-0.022 -0.2,-0.042 -0.31,-0.065c0.1,0.022 0.19,0.041 0.31,0.065Z" style="fill:#bc917b;fill-rule:nonzero;"/><path d="M153.84,193.34" style="fill:#bc917b;fill-rule:nonzero;"/><path d="M149.48,193.357c-0.09,-0.024 -0.18,-0.051 -0.27,-0.076l-0.01,0.005c0,0 0.11,0.028 0.28,0.071Z" style="fill:#bc917b;fill-rule:nonzero;"/><path d="M153.83,193.34l0.01,0l-0.01,0Z" style="fill:#bc917b;fill-rule:nonzero;"/><path d="M141.37,175.746c-0.25,-5.012 9.17,-1.831 12.28,-1.675c2.46,0.126 9.92,-1.579 10.56,-1.14c4.4,2.971 -4.65,8.956 -10.72,8.956c-1.61,0 -11.98,-3.118 -12.12,-6.141Z" style="fill:#ddb598;fill-rule:nonzero;"/><path d="M135.68,74.565l-0.27,0.268l0.05,0.09c0.09,-0.135 0.13,-0.269 0.22,-0.358Z" style="fill:#432e1b;fill-rule:nonzero;"/><path d="M94.72,125.673" style="fill:#432e1b;fill-rule:nonzero;"/><path d="M154.11,193.359" style="fill:#ba907b;fill-rule:nonzero;"/><path d="M154.11,193.359" style="fill:#ba907b;fill-rule:nonzero;"/><path d="M150.44,190.591c-0.1,-0.023 -0.2,-0.043 -0.31,-0.067c0.1,0.023 0.19,0.042 0.31,0.067Z" style="fill:#ba907b;fill-rule:nonzero;"/><path d="M154.11,190.393" style="fill:#ba907b;fill-rule:nonzero;"/><path d="M149.64,190.41c-0.1,-0.025 -0.19,-0.052 -0.28,-0.078l-0.01,0.005c0,0 0.11,0.029 0.29,0.073Z" style="fill:#ba907b;fill-rule:nonzero;"/><path d="M154.11,190.393" style="fill:#ba907b;fill-rule:nonzero;"/><path d="M107.49,130.813c0,0 4.91,20.199 13.33,21.847c8.43,1.648 17.55,-1.629 17.55,-1.629c0,0 0.87,-23.737 -3.44,-26.839c-4.31,-3.115 -14.25,-7.616 -27.44,6.621Z" style="fill:#fff;fill-rule:nonzero;"/><path d="M138.38,150.969c0,0 -0.19,0.056 -0.62,0.237c-0.11,-7.28 -0.78,-17.281 -3.48,-19.197c-4,-2.942 -13.05,-7.083 -25.14,4.243c-1.09,-3.129 -1.64,-5.502 -1.64,-5.502c13.21,-14.264 23.16,-9.77 27.43,-6.653c4.32,3.114 3.45,26.872 3.45,26.872Z" style="fill:#d6b496;fill-rule:nonzero;"/><path d="M133.39,140.684c0,4.595 -3.71,8.319 -8.29,8.319c-4.58,0 -8.3,-3.724 -8.3,-8.319c0,-4.595 3.72,-8.32 8.3,-8.32c4.58,0 8.29,3.725 8.29,8.32Z" style="fill:#482315;fill-rule:nonzero;"/><path d="M124.71,146.224c-2.39,-0.198 -4.23,-2.622 -4.01,-5.288c0.21,-2.665 2.42,-4.751 4.82,-4.549c2.39,0.197 4.23,2.619 4.02,5.284c-0.22,2.665 -2.43,4.755 -4.83,4.553Z" style="fill:#7e3a22;fill-rule:nonzero;"/><path d="M124.92,145.263c-1.67,-0.142 -3.4,-1.977 -3.21,-4.237c0.18,-2.267 2.19,-3.797 3.85,-3.659c1.67,0.141 3.4,1.984 3.21,4.244c-0.18,2.263 -2.19,3.79 -3.85,3.652Z" style="fill:#211a10;fill-rule:nonzero;"/><path d="M123.57,139.688c-0.07,0.817 -0.9,1.413 -1.86,1.335c-0.96,-0.082 -1.69,-0.812 -1.62,-1.624c0.07,-0.821 0.9,-1.418 1.86,-1.339c0.96,0.078 1.68,0.807 1.62,1.628Z" style="fill:#fff;fill-rule:nonzero;"/><path d="M128.95,144.413c-0.04,0.406 -0.46,0.706 -0.93,0.665c-0.48,-0.037 -0.84,-0.406 -0.81,-0.812c0.03,-0.406 0.45,-0.707 0.93,-0.665c0.48,0.037 0.84,0.402 0.81,0.812Z" style="fill:#fff;fill-rule:nonzero;"/><path d="M154.24,190.309" style="fill:#ba907b;fill-rule:nonzero;"/><path d="M154.24,190.309" style="fill:#ba907b;fill-rule:nonzero;"/><path d="M150.57,192.973c-0.1,-0.022 -0.2,-0.043 -0.31,-0.067c0.11,0.023 0.2,0.042 0.31,0.067Z" style="fill:#ba907b;fill-rule:nonzero;"/><path d="M154.24,192.775" style="fill:#ba907b;fill-rule:nonzero;"/><path d="M149.77,192.792c-0.1,-0.024 -0.18,-0.052 -0.28,-0.077l-0.01,0.004c0,0 0.11,0.029 0.29,0.073Z" style="fill:#ba907b;fill-rule:nonzero;"/><path d="M154.24,192.775" style="fill:#ba907b;fill-rule:nonzero;"/><path d="M154.13,189.937" style="fill:#bc917b;fill-rule:nonzero;"/><path d="M154.13,189.937" style="fill:#bc917b;fill-rule:nonzero;"/><path d="M150.2,192.402c-0.11,-0.023 -0.22,-0.045 -0.34,-0.071c0.11,0.024 0.21,0.045 0.34,0.071Z" style="fill:#bc917b;fill-rule:nonzero;"/><path d="M154.13,192.191" style="fill:#bc917b;fill-rule:nonzero;"/><path d="M149.33,192.209c-0.1,-0.027 -0.19,-0.056 -0.29,-0.083l-0.01,0.004c0,0 0.11,0.031 0.3,0.079Z" style="fill:#bc917b;fill-rule:nonzero;"/><path d="M154.13,192.191" style="fill:#bc917b;fill-rule:nonzero;"/><path d="M153.88,189.093" style="fill:#bc917b;fill-rule:nonzero;"/><path d="M153.88,189.093" style="fill:#bc917b;fill-rule:nonzero;"/><path d="M149.95,191.558c-0.11,-0.024 -0.22,-0.046 -0.33,-0.071c0.11,0.024 0.2,0.044 0.33,0.071Z" style="fill:#bc917b;fill-rule:nonzero;"/><path d="M153.88,191.346" style="fill:#bc917b;fill-rule:nonzero;"/><path d="M149.09,191.364c-0.11,-0.026 -0.2,-0.056 -0.3,-0.083l-0.01,0.004c0,0 0.11,0.032 0.31,0.079Z" style="fill:#bc917b;fill-rule:nonzero;"/><path d="M153.88,191.346" style="fill:#bc917b;fill-rule:nonzero;"/><path d="M154.52,188.878" style="fill:#bc917b;fill-rule:nonzero;"/><path d="M154.52,188.878" style="fill:#bc917b;fill-rule:nonzero;"/><path d="M150.72,191.442c-0.11,-0.023 -0.22,-0.044 -0.32,-0.069c0.1,0.024 0.2,0.044 0.32,0.069Z" style="fill:#bc917b;fill-rule:nonzero;"/><path d="M154.52,191.238" style="fill:#bc917b;fill-rule:nonzero;"/><path d="M149.89,191.255c-0.1,-0.025 -0.19,-0.054 -0.29,-0.08l-0.01,0.004c0,0 0.11,0.031 0.3,0.076Z" style="fill:#bc917b;fill-rule:nonzero;"/><path d="M154.52,191.238" style="fill:#bc917b;fill-rule:nonzero;"/><path d="M200.3,130.126c0,0 -4.91,20.198 -13.34,21.847c-8.42,1.647 -17.54,-1.629 -17.54,-1.629c0,0 -0.87,-23.737 3.44,-26.839c4.31,-3.115 14.25,-7.617 27.44,6.621Z" style="fill:#fff;fill-rule:nonzero;"/><path d="M169.41,150.282c0,0 0.19,0.056 0.62,0.237c0.11,-7.281 0.78,-17.281 3.48,-19.197c4,-2.942 13.05,-7.084 25.13,4.242c1.1,-3.129 1.65,-5.501 1.65,-5.501c-13.21,-14.264 -23.16,-9.77 -27.44,-6.653c-4.31,3.114 -3.44,26.872 -3.44,26.872Z" style="fill:#d6b496;fill-rule:nonzero;"/><path d="M174.4,139.997c0,4.594 3.71,8.319 8.29,8.319c4.58,0 8.29,-3.725 8.29,-8.319c0,-4.595 -3.71,-8.32 -8.29,-8.32c-4.58,0 -8.29,3.725 -8.29,8.32Z" style="fill:#482315;fill-rule:nonzero;"/><path d="M183.08,145.537c2.39,-0.198 4.23,-2.623 4.01,-5.289c-0.21,-2.665 -2.42,-4.75 -4.82,-4.549c-2.39,0.198 -4.23,2.62 -4.02,5.285c0.22,2.665 2.43,4.754 4.83,4.553Z" style="fill:#7e3a22;fill-rule:nonzero;"/><path d="M182.87,144.575c1.67,-0.142 3.4,-1.976 3.21,-4.236c-0.19,-2.267 -2.19,-3.797 -3.85,-3.66c-1.67,0.142 -3.4,1.985 -3.21,4.245c0.18,2.263 2.19,3.789 3.85,3.651Z" style="fill:#211a10;fill-rule:nonzero;"/><path d="M184.22,139.001c0.07,0.816 0.9,1.413 1.86,1.334c0.96,-0.081 1.68,-0.812 1.62,-1.624c-0.07,-0.82 -0.9,-1.417 -1.86,-1.339c-0.96,0.078 -1.69,0.808 -1.62,1.629Z" style="fill:#fff;fill-rule:nonzero;"/><path d="M178.84,143.726c0.04,0.406 0.45,0.706 0.93,0.665c0.48,-0.038 0.84,-0.406 0.81,-0.812c-0.03,-0.406 -0.45,-0.707 -0.93,-0.665c-0.48,0.037 -0.84,0.402 -0.81,0.812Z" style="fill:#fff;fill-rule:nonzero;"/><path d="M143.43,130.491c-0.06,-0.098 -1.59,-2.43 -4.72,-4.834c-1.96,-1.508 -3.88,-2.655 -5.87,-3.509c-2.42,-1.021 -5.02,-1.742 -7.55,-2.088c-2.28,-0.254 -4.81,-0.187 -7.77,0.212c-2.25,0.43 -4.45,1.103 -6.32,1.928c-1.33,0.46 -2.38,1.106 -3.22,1.625c-0.33,0.199 -0.62,0.379 -0.92,0.54l-4.02,2.538l4.64,-1.093c0.21,-0.055 0.45,-0.116 0.7,-0.183c0.96,-0.256 2.15,-0.574 3.55,-0.779c0.33,-0.048 0.66,-0.115 1,-0.183c0.59,-0.116 1.19,-0.237 1.82,-0.267c0.71,-0.047 1.44,-0.1 2.18,-0.153l0.98,-0.071c2.57,-0.032 4.74,0.163 6.66,0.608c2.11,0.365 4.28,1.047 6.26,1.97c1.88,0.9 3.68,1.793 5.08,2.826c2.83,1.897 4.41,3.479 4.42,3.494l0,0.001c0.39,0.393 0.91,0.595 1.44,0.595c0.38,0 0.76,-0.107 1.09,-0.328c0.94,-0.613 1.2,-1.876 0.61,-2.787l-0.04,-0.062Z" style="fill:#030405;fill-rule:nonzero;"/><path d="M201.13,124.346c-0.27,-0.142 -0.56,-0.322 -0.89,-0.522c-0.84,-0.519 -1.89,-1.164 -3.18,-1.608c-1.91,-0.841 -4.11,-1.514 -6.39,-1.949c-2.93,-0.395 -5.46,-0.462 -7.75,-0.206c-2.51,0.345 -5.12,1.066 -7.54,2.088c-1.97,0.842 -3.94,2.022 -5.87,3.508c-3.07,2.36 -4.6,4.651 -4.71,4.827l-0.03,0.042c-0.52,0.8 -0.41,1.871 0.26,2.546c0.39,0.386 0.89,0.598 1.43,0.598c0.54,-0.001 1.05,-0.213 1.43,-0.598l0.01,-0.017c0.15,-0.149 1.68,-1.65 4.43,-3.491c1.38,-1.017 3.18,-1.911 5.05,-2.81c2,-0.925 4.16,-1.607 6.3,-1.977c1.9,-0.44 4.07,-0.631 6.61,-0.604l1.02,0.073c0.74,0.053 1.46,0.105 2.17,0.152c0.62,0.03 1.23,0.151 1.81,0.267c0.34,0.068 0.67,0.135 1,0.183c1.4,0.205 2.59,0.523 3.55,0.779c0.26,0.067 0.49,0.129 0.71,0.184l4.64,1.093l-4.06,-2.558Z" style="fill:#030405;fill-rule:nonzero;"/><path d="M152.95,198.259" style="fill:#be927b;fill-rule:nonzero;"/><path d="M152.95,198.259" style="fill:#be927b;fill-rule:nonzero;"/><path d="M149.12,195.364c-0.11,-0.023 -0.22,-0.044 -0.33,-0.069c0.11,0.024 0.2,0.043 0.33,0.069Z" style="fill:#be927b;fill-rule:nonzero;"/><path d="M152.95,195.158" style="fill:#be927b;fill-rule:nonzero;"/><path d="M148.28,195.176c-0.11,-0.026 -0.2,-0.055 -0.29,-0.082l-0.01,0.005c0,0 0.11,0.03 0.3,0.077Z" style="fill:#be927b;fill-rule:nonzero;"/><path d="M152.95,195.158" style="fill:#be927b;fill-rule:nonzero;"/><path d="M141.75,199.531c-0.24,-3.247 9.02,0.68 12.06,0.774c2.43,0.082 9.71,-0.481 10.39,-0.739c5.09,-1.911 -0.28,5.429 -10.54,5.815c-4.7,0.188 -11.77,-3.88 -11.91,-5.85Z" style="fill:#f0d2ad;fill-rule:nonzero;"/><path d="M171.9,193.271c-2.51,-0.124 -5.09,1.977 -8.12,1.656c-0.12,-0.062 -0.18,-0.062 -0.31,-0.062c-0.7,-0.123 -1.39,0 -2.14,0.185c-0.94,0.198 -1.89,0.58 -2.77,0.889c-1.51,0.493 -3.22,0.888 -4.97,0.752l0,0.012l-0.1,-0.012l-0.09,0.012l0,-0.012c-1.76,0.136 -3.46,-0.259 -4.97,-0.752c-0.89,-0.309 -1.83,-0.691 -2.77,-0.889c-0.76,-0.185 -1.45,-0.308 -2.14,-0.185c-0.13,0 -0.19,0 -0.31,0.062c-3.03,0.321 -5.61,-1.78 -8.12,-1.656c-0.7,0.061 -1.71,-0.124 -2.27,-0.124c0.12,0.061 0.25,0.124 0.38,0.185c7.17,3.504 13.35,10.068 20.2,9.858l0.19,0c6.85,0.21 13.03,-6.354 20.2,-9.858c0.13,-0.061 0.25,-0.124 0.38,-0.185c-0.57,0 -1.57,0.185 -2.27,0.124Z" style="fill:#dcbf9e;fill-rule:nonzero;"/><path d="M174.01,193.07c0,0 -7.29,-2.815 -12.47,-1.164c0,0 -1.93,0.755 -3.93,1.215c-1.22,0.475 -2.69,0.613 -4.12,0.556c-1.09,-0.044 -2.12,-0.183 -2.97,-0.332c-0.29,-0.043 -0.57,-0.101 -0.86,-0.163c-0.12,-0.026 -0.22,-0.046 -0.32,-0.069c-0.18,-0.041 -0.35,-0.075 -0.52,-0.12c-0.19,-0.046 -0.3,-0.077 -0.3,-0.077l0.01,-0.004c-1.66,-0.45 -3.08,-1.006 -3.08,-1.006c-5.18,-1.651 -12.47,1.164 -12.47,1.164c-0.1,0.046 -0.16,0.077 -0.16,0.077c0.56,0 1.57,0.185 2.27,0.124c2.51,-0.124 5.09,1.977 8.12,1.656c0.12,-0.062 0.18,-0.062 0.31,-0.062c0.69,-0.123 1.38,0 2.14,0.185c0.94,0.198 1.88,0.58 2.77,0.889c1.51,0.493 3.21,0.888 4.97,0.752l0,0.012l0.09,-0.012l0.1,0.012l0,-0.012c1.75,0.136 3.46,-0.259 4.97,-0.752c0.88,-0.309 1.83,-0.691 2.77,-0.889c0.75,-0.185 1.44,-0.308 2.14,-0.185c0.13,0 0.19,0 0.31,0.062c3.03,0.321 5.61,-1.78 8.12,-1.656c0.7,0.061 1.7,-0.124 2.27,-0.124c0,0 -0.06,-0.031 -0.16,-0.077Z" style="fill:#c69f83;fill-rule:nonzero;"/><path d="M141.26,194.785c0.13,0.033 13.65,4.163 24.22,0.09l-1.21,-0.822l-14.3,0l-8.71,0.732Z" style="fill:#c69f83;fill-rule:nonzero;"/><path d="M216.78,286.971l-4.71,0c-2.65,0 -4.73,2.078 -4.89,4.65c-0.21,3.621 -1.9,6.46 -3.17,8.147l-99.05,0c-1.27,-1.687 -2.96,-4.526 -3.19,-8.147c-0.14,-2.572 -2.22,-4.65 -4.87,-4.65l-4.49,0c-1.42,-7.284 -0.84,-13.847 0.93,-19.608c3.31,-11.027 10.92,-19.216 17.1,-24.339c2.59,-2.16 4.93,-3.786 6.58,-4.835c1.56,-1.008 2.53,-1.522 2.53,-1.522c0,0 6.25,-2.181 9.44,-2.654c0.43,-0.062 0.78,0.205 1.16,0.699l0,0.021c0.63,0.967 1.11,2.757 1.48,4.834c1.29,4.095 3.12,9.794 4.44,13.127c4.94,11.933 11.67,17.324 18.41,16.768c6.75,0.556 13.48,-4.835 18.42,-16.768c1.32,-3.333 3.15,-9.032 4.44,-13.127c0.35,-2.077 0.85,-3.867 1.48,-4.834c0.35,-0.515 0.72,-0.782 1.16,-0.72c3.19,0.473 9.44,2.654 9.44,2.654c2.24,1.172 4.28,2.448 6.17,3.806c0.8,0.596 1.59,1.193 2.35,1.831c9.03,7.427 13.76,17.036 16.21,25.45c3.11,10.555 2.63,19.217 2.63,19.217Z" style="fill:#f7ac35;fill-rule:nonzero;"/><path d="M110.44,243.024l37.63,56.744l-22.33,0l-32.4,-32.405c3.31,-11.027 10.92,-19.216 17.1,-24.339Z" style="fill:#e39725;fill-rule:nonzero;"/><path d="M214.15,267.754l-32.03,32.014l-22.33,0l38.15,-57.464c9.03,7.427 13.76,17.036 16.21,25.45Z" style="fill:#e39725;fill-rule:nonzero;"/><path d="M77.43,242.283l-42.62,-38.356l11.32,-23.593l48.35,44.893l-17.05,17.056Z" style="fill:#030405;fill-rule:nonzero;"/><path d="M232.13,242.283l42.62,-38.356l-11.32,-23.593l-48.35,44.893l17.05,17.056Z" style="fill:#030405;fill-rule:nonzero;"/><path d="M114.85,67.909c0,0 30.4,38.771 74.7,0c0,0 -42.26,-34.37 -74.7,0Z" style="fill:#36393a;fill-rule:nonzero;"/><path d="M164.57,34.689c0,0 -5.34,-2.346 -14.26,-2.203c-8.92,-0.143 -14.26,2.203 -14.26,2.203c0,0 1.3,3.71 3.12,8.391l22.28,0c1.83,-4.682 3.12,-8.391 3.12,-8.391Z" style="fill:#36393a;fill-rule:nonzero;"/><path d="M161.45,43.08l-22.28,0c1.26,3.25 2.78,6.965 4.3,10.241l13.68,0c1.52,-3.276 3.04,-6.991 4.3,-10.241Z" style="fill:#cf1e4a;fill-rule:nonzero;"/></g></svg>