<?xml version="1.0" encoding="UTF-8" standalone="no"?><!DOCTYPE svg PUBLIC "-//W3C//DTD SVG 1.1//EN" "http://www.w3.org/Graphics/SVG/1.1/DTD/svg11.dtd"><svg width="100%" height="100%" viewBox="0 0 300 301" version="1.1" xmlns="http://www.w3.org/2000/svg" xmlns:xlink="http://www.w3.org/1999/xlink" xml:space="preserve" style="fill-rule:evenodd;clip-rule:evenodd;stroke-linejoin:round;stroke-miterlimit:1.41421;"><g id="_63"><g><rect x="0.01" y="0.37" width="299.36" height="299.7" style="fill:#9b3939;fill-rule:nonzero;"/><path d="M74.63,111.29c4.56,-4.47 14.66,20.36 16.03,20.36c0,0 3.29,-0.12 2.8,14.69c1.8,16.81 9.86,23.52 14.37,25.99c7.93,4.01 19.89,4.74 37.77,-3.97l-0.01,0.03c2.28,-1.28 4.28,-1.91 6.15,-2.12l0,80.92c-0.59,-0.16 -1.17,-0.31 -1.78,-0.47c-11.28,-3.07 -13.91,2.69 -17.7,0.18l-18.4,5.75c0,0 4.18,18.43 -11.35,4.21c-15.51,-14.2 -5.37,-48.82 -27.88,-70.36c-15.27,-14.62 -4.56,-70.74 0,-75.21Z" style="fill:#3a393b;fill-rule:nonzero;"/><path d="M231.28,111.29c-4.56,-4.47 -14.66,20.36 -16.03,20.36c0,0 -3.29,-0.12 -2.8,14.69c-1.8,16.81 -9.86,23.52 -14.37,25.99c-7.93,4.01 -19.89,4.74 -37.77,-3.97l0.01,0.03c-2.28,-1.28 -4.28,-1.91 -6.15,-2.12l0,80.92c0.59,-0.16 1.17,-0.31 1.78,-0.47c11.28,-3.07 13.91,2.69 17.7,0.18l18.41,5.75c0,0 -4.18,18.43 11.34,4.21c15.51,-14.2 5.38,-48.82 27.88,-70.36c15.27,-14.62 4.56,-70.74 0,-75.21Z" style="fill:#3a393b;fill-rule:nonzero;"/></g><path d="M137.41,75.39l-0.27,0.27l0.05,0.09c0.09,-0.13 0.13,-0.27 0.22,-0.36Z" style="fill:#432e1b;fill-rule:nonzero;"/><path d="M156.07,187.8l0,112.28l-60.72,0c-0.98,-0.41 -1.48,-0.6 -1.48,-0.6c0,-10.29 1.07,-18.93 2.88,-26.21c0.7,-2.88 1.53,-5.56 2.43,-8c2.12,-5.78 4.71,-10.48 7.51,-14.28c7.41,-10.08 16.15,-13.99 20.88,-15.45c2.14,-0.66 3.46,-0.83 3.46,-0.83c0.23,0 0.43,-0.02 0.66,-0.06c1.05,-0.16 1.97,-0.74 2.82,-1.64c0.7,-0.77 1.31,-1.75 1.89,-2.97c0.93,-1.97 1.71,-4.48 2.32,-7.38c0.27,-1.13 0.46,-2.29 0.66,-3.52c0.29,-2.08 0.58,-4.24 0.85,-6.52c0.08,-1.38 0.22,-2.72 0.39,-4.16c0.53,-6.87 0.68,-14.38 0.68,-21.5c0,0 8.16,0.84 14.77,0.84Z" style="fill:#e0bd9a;fill-rule:nonzero;"/><path d="M218.53,299.48c0,0 -0.53,0.19 -1.44,0.6l-61.02,0l0,-112.28l0.16,0c6.57,0 14.82,-0.84 14.82,-0.84c0,7.08 0.14,14.49 0.7,21.36c0.14,1.33 0.28,2.71 0.39,4.05c0.24,2.37 0.55,4.61 0.88,6.69l0,0.04c0.11,0.94 0.29,1.77 0.45,2.67c0.6,2.92 1.32,5.48 2.21,7.53c0.59,1.4 1.25,2.57 2.03,3.46c0.6,0.74 1.26,1.3 2,1.6c0.51,0.25 1.05,0.35 1.62,0.35c0,0 2.33,0.29 5.85,1.67c7.14,2.8 19.15,10.14 26.04,28.89c0.91,2.44 1.73,5.12 2.43,8c1.81,7.28 2.88,15.92 2.88,26.21Z" style="fill:#efd0ad;fill-rule:nonzero;"/><path d="M173.03,218.84l0,0.05c-1.54,2.35 -6.68,9.13 -16.85,9.13l-0.1,0c-9.64,-0.05 -15.27,-7.02 -16.7,-9.09c0.29,-2.06 0.59,-4.22 0.84,-6.48c0.09,-1.32 0.24,-2.7 0.39,-4.12c4.7,1.18 9.83,1.91 15.27,2.01l0.2,0c5.63,-0.1 10.82,-0.88 15.66,-2.16c0.15,1.33 0.3,2.7 0.4,4.03c0.24,2.35 0.54,4.56 0.89,6.63Z" style="fill:#be987f;fill-rule:nonzero;"/><path d="M155.39,59.86c-64.34,0 -64.69,53.78 -61.82,88.99c-4.4,-8.35 -17.49,-5.79 -16.41,7.37c1.04,12.67 19.75,19.13 19.23,17.73c9.74,26.04 35.52,45.67 59,45.67l0.49,0l0,-159.76l-0.49,0Z" style="fill:#d2a686;fill-rule:nonzero;"/><path d="M81.27,150.67c3.16,-5.11 8.1,-2.9 9.29,-1.77c1.28,1.23 2.32,2.8 1.53,5.8c-0.45,1.71 -2.23,1.86 -1.83,4.42c0.49,2.89 1.83,3.04 2.62,3.73c0.74,0.64 1.68,1.13 2.12,2.36c0.5,1.22 0.55,2.5 0.3,3.63c-0.5,2.06 -3.51,0.39 -5.54,-0.49c-1.33,-0.64 -5.58,-4.23 -6.67,-5.4c-2.66,-3.05 -3.95,-8.94 -1.82,-12.28Z" style="fill:#ac8774;fill-rule:nonzero;"/><path d="M155.73,59.86c64.34,0 64.68,53.78 61.87,88.99c4.39,-8.35 17.44,-5.79 16.35,7.37c-0.99,12.67 -19.73,19.13 -19.22,17.73c-9.49,26.04 -35.53,45.67 -59,45.67c-0.15,0 -0.34,0 -0.34,0l-0.15,-159.76c0,0 0.34,0 0.49,0Z" style="fill:#ddb598;fill-rule:nonzero;"/><path d="M229.85,150.67c-3.16,-5.11 -8.05,-2.9 -9.29,-1.77c-1.28,1.23 -2.27,2.8 -1.53,5.8c0.44,1.71 2.22,1.86 1.83,4.42c-0.5,2.89 -1.83,3.04 -2.57,3.73c-0.74,0.64 -1.73,1.13 -2.18,2.36c-0.44,1.22 -0.54,2.5 -0.29,3.63c0.49,2.06 3.51,0.39 5.53,-0.49c1.39,-0.64 5.59,-4.23 6.67,-5.4c2.72,-3.05 3.96,-8.94 1.83,-12.28Z" style="fill:#ac8774;fill-rule:nonzero;"/><path d="M154.88,75.03c-21.15,0 -36.67,6.14 -46,18.22c-13.1,16.95 -12.6,42.78 -7.81,61.35c1.48,5.69 2.27,20.97 3.26,26.57c4.59,25.09 32.32,38.45 50.55,38.45c0,0 0.35,0 0.49,0l0,-144.59c-0.14,0 -0.29,0 -0.29,0" style="fill:#e0bd9a;fill-rule:nonzero;"/><path d="M200.83,93.3c-9.29,-12.03 -24.6,-18.17 -45.46,-18.27l0,144.59c20.86,-0.24 45.81,-14.88 50.06,-38.45c1.04,-5.6 1.78,-20.88 3.26,-26.57c4.84,-18.52 5.34,-44.3 -7.86,-61.3Z" style="fill:#efd0ad;fill-rule:nonzero;"/><path d="M155.57,196.68" style="fill:#bc917b;fill-rule:nonzero;"/><path d="M155.57,196.68" style="fill:#bc917b;fill-rule:nonzero;"/><path d="M152,193.99c-0.1,-0.02 -0.2,-0.04 -0.3,-0.06c0.09,0.02 0.18,0.04 0.3,0.06Z" style="fill:#bc917b;fill-rule:nonzero;"/><path d="M155.57,193.8" style="fill:#bc917b;fill-rule:nonzero;"/><path d="M151.21,193.82c-0.09,-0.03 -0.17,-0.05 -0.27,-0.08l-0.01,0c0,0 0.11,0.03 0.28,0.08Z" style="fill:#bc917b;fill-rule:nonzero;"/><path d="M155.57,193.8" style="fill:#bc917b;fill-rule:nonzero;"/><path d="M96.45,126.34" style="fill:#432e1b;fill-rule:nonzero;"/><path d="M155.84,193.82" style="fill:#ba907b;fill-rule:nonzero;"/><path d="M155.84,193.82" style="fill:#ba907b;fill-rule:nonzero;"/><path d="M152.17,191.06c-0.1,-0.02 -0.2,-0.04 -0.31,-0.07c0.1,0.02 0.19,0.04 0.31,0.07Z" style="fill:#ba907b;fill-rule:nonzero;"/><path d="M155.84,190.86" style="fill:#ba907b;fill-rule:nonzero;"/><path d="M151.37,190.88c-0.1,-0.03 -0.18,-0.05 -0.28,-0.08l-0.01,0.01c0,0 0.11,0.02 0.29,0.07Z" style="fill:#ba907b;fill-rule:nonzero;"/><path d="M155.84,190.86" style="fill:#ba907b;fill-rule:nonzero;"/><path d="M144.31,172.69c-0.25,-5.13 9.43,-1.87 12.62,-1.71c2.52,0.13 10.19,-1.62 10.85,-1.17c4.51,3.04 -4.78,9.17 -11.01,9.17c-1.66,0 -12.31,-3.19 -12.46,-6.29Z" style="fill:#dcb497;fill-rule:nonzero;"/><path d="M155.97,196.19" style="fill:#ba907b;fill-rule:nonzero;"/><path d="M155.97,196.19" style="fill:#ba907b;fill-rule:nonzero;"/><path d="M152.31,193.43c-0.11,-0.02 -0.21,-0.04 -0.31,-0.06c0.1,0.02 0.19,0.04 0.31,0.06Z" style="fill:#ba907b;fill-rule:nonzero;"/><path d="M155.97,193.24" style="fill:#ba907b;fill-rule:nonzero;"/><path d="M151.5,193.25c-0.1,-0.02 -0.18,-0.05 -0.28,-0.07l-0.01,0c0,0 0.11,0.03 0.29,0.07Z" style="fill:#ba907b;fill-rule:nonzero;"/><path d="M155.97,193.24" style="fill:#ba907b;fill-rule:nonzero;"/><path d="M155.86,195.82" style="fill:#bc917b;fill-rule:nonzero;"/><path d="M155.86,195.82" style="fill:#bc917b;fill-rule:nonzero;"/><path d="M151.93,192.86c-0.11,-0.02 -0.22,-0.04 -0.33,-0.07c0.11,0.03 0.2,0.05 0.33,0.07Z" style="fill:#bc917b;fill-rule:nonzero;"/><path d="M155.86,192.65" style="fill:#bc917b;fill-rule:nonzero;"/><path d="M151.07,192.67c-0.11,-0.02 -0.2,-0.05 -0.3,-0.08l-0.01,0c0,0 0.11,0.03 0.31,0.08Z" style="fill:#bc917b;fill-rule:nonzero;"/><path d="M155.86,192.65" style="fill:#bc917b;fill-rule:nonzero;"/><path d="M155.61,194.98" style="fill:#bc917b;fill-rule:nonzero;"/><path d="M155.61,194.98" style="fill:#bc917b;fill-rule:nonzero;"/><path d="M151.68,192.02c-0.11,-0.02 -0.22,-0.04 -0.33,-0.07c0.11,0.03 0.2,0.05 0.33,0.07Z" style="fill:#bc917b;fill-rule:nonzero;"/><path d="M155.61,191.81" style="fill:#bc917b;fill-rule:nonzero;"/><path d="M150.82,191.83c-0.11,-0.03 -0.2,-0.06 -0.3,-0.08l-0.01,0c0,0 0.11,0.03 0.31,0.08Z" style="fill:#bc917b;fill-rule:nonzero;"/><path d="M155.61,191.81" style="fill:#bc917b;fill-rule:nonzero;"/><path d="M156.25,194.77" style="fill:#bc917b;fill-rule:nonzero;"/><path d="M156.25,194.77" style="fill:#bc917b;fill-rule:nonzero;"/><path d="M152.45,191.91c-0.11,-0.03 -0.21,-0.05 -0.32,-0.07c0.1,0.02 0.2,0.04 0.32,0.07Z" style="fill:#bc917b;fill-rule:nonzero;"/><path d="M156.25,191.7" style="fill:#bc917b;fill-rule:nonzero;"/><path d="M151.62,191.72c-0.1,-0.02 -0.19,-0.05 -0.29,-0.08l-0.01,0.01c0,0 0.11,0.03 0.3,0.07Z" style="fill:#bc917b;fill-rule:nonzero;"/><path d="M156.25,191.7" style="fill:#bc917b;fill-rule:nonzero;"/><path d="M152.97,203.2" style="fill:#be927b;fill-rule:nonzero;"/><path d="M152.97,203.2" style="fill:#be927b;fill-rule:nonzero;"/><path d="M149.33,200.46c-0.1,-0.02 -0.21,-0.04 -0.31,-0.07c0.1,0.03 0.19,0.05 0.31,0.07Z" style="fill:#be927b;fill-rule:nonzero;"/><path d="M152.97,200.26" style="fill:#be927b;fill-rule:nonzero;"/><path d="M148.53,200.28c-0.1,-0.02 -0.18,-0.05 -0.28,-0.08l-0.01,0.01c0,0 0.11,0.03 0.29,0.07Z" style="fill:#be927b;fill-rule:nonzero;"/><path d="M152.97,200.26" style="fill:#be927b;fill-rule:nonzero;"/><path d="M152.74,202.42" style="fill:#be927b;fill-rule:nonzero;"/><path d="M152.74,202.42" style="fill:#be927b;fill-rule:nonzero;"/><path d="M149.1,199.68c-0.1,-0.02 -0.21,-0.04 -0.31,-0.07c0.1,0.03 0.19,0.05 0.31,0.07Z" style="fill:#be927b;fill-rule:nonzero;"/><path d="M152.74,199.48" style="fill:#be927b;fill-rule:nonzero;"/><path d="M148.3,199.5c-0.09,-0.02 -0.18,-0.05 -0.28,-0.08l-0.01,0.01c0,0 0.11,0.03 0.29,0.07Z" style="fill:#be927b;fill-rule:nonzero;"/><path d="M152.74,199.48" style="fill:#be927b;fill-rule:nonzero;"/><path d="M153.33,202.22" style="fill:#be927b;fill-rule:nonzero;"/><path d="M153.33,202.22" style="fill:#be927b;fill-rule:nonzero;"/><path d="M149.81,199.57c-0.1,-0.02 -0.19,-0.04 -0.29,-0.06c0.09,0.02 0.18,0.04 0.29,0.06Z" style="fill:#be927b;fill-rule:nonzero;"/><path d="M153.33,199.38" style="fill:#be927b;fill-rule:nonzero;"/><path d="M149.04,199.4c-0.09,-0.02 -0.17,-0.05 -0.27,-0.07c0,0 0.1,0.03 0.27,0.07Z" style="fill:#be927b;fill-rule:nonzero;"/><path d="M153.33,199.38" style="fill:#be927b;fill-rule:nonzero;"/><path d="M143.08,201.97c-0.25,-3.2 8.91,0.67 11.91,0.76c2.4,0.08 9.6,-0.47 10.27,-0.73c5.03,-1.88 -0.28,5.35 -10.42,5.73c-4.64,0.19 -11.63,-3.82 -11.76,-5.76Z" style="fill:#f0d2ad;fill-rule:nonzero;"/><path d="M173.24,194.28c-5.8,-1.08 -18.03,0.08 -18.03,0.08c-10.08,1.67 -17.97,-0.11 -18.03,-0.04c-0.24,0.02 8.05,11.02 17.89,10.52c9.85,0.5 18.41,-10.52 18.17,-10.56Z" style="fill:#c2646e;fill-rule:nonzero;"/><path d="M161.04,191.96c-2.61,-0.29 -4.48,1.6 -5.82,1.46c-1.36,0.13 -3.14,-1.08 -5.77,-1.11c-3.7,-0.03 -5.5,-0.36 -12.27,2.01c0.24,0.46 4.58,2.97 12.7,3.11c0.11,0 2.29,1.24 5.39,1.21c1.94,-0.01 4.6,-1.3 4.7,-1.3c8.13,-0.13 13.1,-2.55 13.33,-3c-8.95,-2.77 -8.24,-2.41 -12.26,-2.38Z" style="fill:#d87475;fill-rule:nonzero;"/><path d="M109.22,131.07c0,0 4.91,20.2 13.34,21.85c8.42,1.65 17.54,-1.63 17.54,-1.63c0,0 0.87,-23.74 -3.44,-26.84c-4.31,-3.11 -14.25,-7.62 -27.44,6.62Z" style="fill:#fff;fill-rule:nonzero;"/><path d="M140.11,151.23c0,0 -0.19,0.05 -0.62,0.24c-0.11,-7.29 -0.78,-17.29 -3.48,-19.2c-4,-2.94 -13.05,-7.09 -25.13,4.24c-1.1,-3.13 -1.65,-5.5 -1.65,-5.5c13.21,-14.27 23.16,-9.77 27.44,-6.65c4.31,3.11 3.44,26.87 3.44,26.87Z" style="fill:#d6b496;fill-rule:nonzero;"/><path d="M135.12,140.94c0,4.6 -3.71,8.32 -8.29,8.32c-4.58,0 -8.29,-3.72 -8.29,-8.32c0,-4.59 3.71,-8.32 8.29,-8.32c4.58,0 8.29,3.73 8.29,8.32Z" style="fill:#482315;fill-rule:nonzero;"/><path d="M126.44,146.48c-2.39,-0.19 -4.23,-2.62 -4.01,-5.29c0.21,-2.66 2.42,-4.75 4.82,-4.54c2.39,0.19 4.23,2.61 4.02,5.28c-0.22,2.67 -2.43,4.75 -4.83,4.55Z" style="fill:#7e3a22;fill-rule:nonzero;"/><path d="M126.65,145.52c-1.67,-0.14 -3.4,-1.97 -3.21,-4.23c0.19,-2.27 2.19,-3.8 3.85,-3.66c1.67,0.14 3.4,1.98 3.21,4.24c-0.18,2.26 -2.19,3.79 -3.85,3.65Z" style="fill:#211a10;fill-rule:nonzero;"/><path d="M125.3,135.83c-0.07,0.82 -0.9,1.42 -1.86,1.34c-0.96,-0.08 -1.68,-0.82 -1.62,-1.63c0.07,-0.82 0.9,-1.41 1.86,-1.34c0.96,0.08 1.69,0.81 1.62,1.63Z" style="fill:#fff;fill-rule:nonzero;"/><path d="M130.68,144.67c-0.04,0.41 -0.45,0.71 -0.93,0.67c-0.48,-0.04 -0.84,-0.41 -0.81,-0.81c0.03,-0.41 0.45,-0.71 0.93,-0.67c0.48,0.04 0.84,0.4 0.81,0.81Z" style="fill:#fff;fill-rule:nonzero;"/><path d="M202.03,130.39c0,0 -4.91,20.19 -13.33,21.84c-8.43,1.65 -17.55,-1.63 -17.55,-1.63c0,0 -0.87,-23.73 3.44,-26.84c4.31,-3.11 14.25,-7.61 27.44,6.63Z" style="fill:#fff;fill-rule:nonzero;"/><path d="M171.14,150.54c0,0 0.19,0.06 0.62,0.24c0.11,-7.28 0.78,-17.28 3.48,-19.2c4,-2.94 13.05,-7.08 25.14,4.24c1.09,-3.13 1.64,-5.5 1.64,-5.5c-13.21,-14.26 -23.16,-9.77 -27.43,-6.65c-4.32,3.11 -3.45,26.87 -3.45,26.87Z" style="fill:#d6b496;fill-rule:nonzero;"/><path d="M176.13,140.26c0,4.59 3.71,8.32 8.29,8.32c4.58,0 8.29,-3.73 8.29,-8.32c0,-4.6 -3.71,-8.32 -8.29,-8.32c-4.58,0 -8.29,3.72 -8.29,8.32Z" style="fill:#482315;fill-rule:nonzero;"/><path d="M184.81,145.8c2.39,-0.2 4.23,-2.63 4.01,-5.29c-0.21,-2.67 -2.42,-4.75 -4.82,-4.55c-2.39,0.2 -4.23,2.62 -4.02,5.28c0.22,2.67 2.43,4.76 4.83,4.56Z" style="fill:#7e3a22;fill-rule:nonzero;"/><path d="M184.6,144.83c1.67,-0.14 3.4,-1.97 3.21,-4.23c-0.18,-2.27 -2.19,-3.8 -3.85,-3.66c-1.67,0.14 -3.4,1.98 -3.21,4.24c0.18,2.27 2.19,3.79 3.85,3.65Z" style="fill:#211a10;fill-rule:nonzero;"/><path d="M185.95,139.26c0.07,0.82 0.9,1.41 1.86,1.33c0.96,-0.08 1.69,-0.81 1.62,-1.62c-0.07,-0.82 -0.9,-1.42 -1.86,-1.34c-0.96,0.08 -1.69,0.81 -1.62,1.63Z" style="fill:#fff;fill-rule:nonzero;"/><path d="M180.57,143.98c0.04,0.41 0.45,0.71 0.93,0.67c0.48,-0.04 0.84,-0.41 0.81,-0.81c-0.03,-0.41 -0.45,-0.71 -0.93,-0.67c-0.48,0.04 -0.84,0.4 -0.81,0.81Z" style="fill:#fff;fill-rule:nonzero;"/><path d="M145.16,130.75c-0.06,-0.1 -1.59,-2.43 -4.72,-4.83c-1.96,-1.51 -3.87,-2.66 -5.87,-3.51c-2.42,-1.02 -5.02,-1.74 -7.55,-2.09c-2.28,-0.26 -4.81,-0.19 -7.77,0.21c-2.25,0.43 -4.45,1.1 -6.31,1.93c-1.34,0.46 -2.39,1.1 -3.23,1.62c-0.32,0.2 -0.62,0.38 -0.92,0.54l-4.02,2.54l4.64,-1.09c0.21,-0.06 0.45,-0.12 0.7,-0.18c0.96,-0.26 2.15,-0.58 3.55,-0.78c0.33,-0.05 0.67,-0.12 1.01,-0.19c0.58,-0.11 1.18,-0.23 1.81,-0.26c0.71,-0.05 1.44,-0.1 2.19,-0.16l0.97,-0.07c2.57,-0.03 4.74,0.17 6.67,0.61c2.1,0.37 4.27,1.05 6.25,1.97c1.88,0.9 3.68,1.79 5.08,2.83c2.83,1.89 4.41,3.48 4.43,3.49c0.39,0.39 0.91,0.6 1.43,0.6c0.38,0 0.76,-0.11 1.1,-0.33c0.93,-0.61 1.19,-1.88 0.6,-2.79l-0.04,-0.06Z" style="fill:#030405;fill-rule:nonzero;"/><path d="M202.86,124.6c-0.27,-0.14 -0.56,-0.32 -0.88,-0.52c-0.85,-0.52 -1.9,-1.16 -3.19,-1.61c-1.91,-0.84 -4.1,-1.51 -6.39,-1.94c-2.92,-0.4 -5.46,-0.47 -7.75,-0.21c-2.51,0.35 -5.12,1.07 -7.54,2.09c-1.96,0.84 -3.94,2.02 -5.87,3.51c-3.07,2.36 -4.59,4.65 -4.71,4.82l-0.03,0.05c-0.52,0.8 -0.4,1.87 0.27,2.54c0.38,0.39 0.88,0.6 1.42,0.6c0.54,0 1.05,-0.21 1.43,-0.6l0.02,-0.02c0.15,-0.14 1.68,-1.65 4.42,-3.49c1.38,-1.01 3.18,-1.91 5.05,-2.81c2,-0.92 4.16,-1.6 6.3,-1.97c1.9,-0.44 4.07,-0.64 6.61,-0.61l1.02,0.07c0.74,0.06 1.46,0.11 2.17,0.16c0.62,0.03 1.23,0.15 1.81,0.26c0.34,0.07 0.67,0.14 1,0.19c1.4,0.2 2.6,0.52 3.56,0.78c0.25,0.06 0.48,0.12 0.7,0.18l4.64,1.09l-4.06,-2.56Z" style="fill:#030405;fill-rule:nonzero;"/><path d="M208.88,284.85c0.09,6.61 0.31,11.71 0.52,15l-17.7,0l-31.52,-54.66c5.52,-1.03 11.5,-4.59 17.53,-12.43c0.6,0.74 1.26,1.3 2,1.6c0.51,0.25 1.05,0.35 1.62,0.35c0,0 2.33,0.29 5.85,1.67c7.14,2.8 19.15,10.14 26.04,28.89c0.91,2.44 1.73,5.12 2.43,8l-6.75,0c-0.06,4.26 -0.06,8.13 -0.02,11.58Z" style="fill:#7a151d;fill-rule:nonzero;"/><path d="M145.88,299.85l-43.04,0c0.21,-3.29 0.43,-8.39 0.54,-15c0.04,-3.47 0.04,-7.32 0,-11.58l-6.63,0c0.7,-2.88 1.53,-5.56 2.43,-8c2.12,-5.78 4.71,-10.48 7.51,-14.28l39.19,48.86Z" style="fill:#e1702b;fill-rule:nonzero;"/><path d="M191.7,299.85l-45.82,0l-39.19,-48.86c7.41,-10.08 16.15,-13.99 20.88,-15.45c2.14,-0.66 3.46,-0.83 3.46,-0.83c0.23,0 0.43,-0.02 0.66,-0.06c1.05,-0.16 1.97,-0.74 2.82,-1.64c2.57,3.16 10.88,12.18 21.56,12.48c1.34,0.05 2.71,-0.04 4.11,-0.3l31.52,54.66Z" style="fill:#ee3336;fill-rule:nonzero;"/><path d="M232.82,112.1c-0.55,-7.66 -1.74,-14.52 -3.3,-20.44c-2.45,-17.92 -12.31,-28.44 -18.35,-33.33l-0.11,-0.09c-2.77,-2.23 -4.71,-3.26 -4.71,-3.26c-3.38,-2.06 -7.24,-3.93 -11.62,-5.77c0,-0.21 0.04,-0.41 0.04,-0.6c0,-2.3 -0.38,-4.52 -1,-6.65l11.8,0c0.24,1.35 1.54,2.39 3.12,2.39c1.75,0 3.17,-1.26 3.17,-2.83c0,-1.56 -1.42,-2.83 -3.17,-2.83c-1.58,0 -2.88,1.05 -3.12,2.4l-12.08,0c-4.05,-11.98 -17.46,-20.79 -33.45,-20.79c-15.97,0 -29.4,8.81 -33.44,20.79l-28.47,0l-1,0c-0.24,-1.35 -1.54,-2.4 -3.12,-2.4c-1.75,0 -3.17,1.27 -3.17,2.83c0,1.57 1.42,2.83 3.17,2.83c1.58,0 2.88,-1.04 3.12,-2.39l29.23,0c-0.41,1.37 -0.73,2.76 -0.88,4.2c-8.87,2.12 -15.65,6.86 -20.78,12.53c-5.51,5.08 -10.1,10.85 -12.27,14.93c-4.33,8.14 -15.12,25.82 -18.58,38.6c-3.48,12.79 8.19,25.19 15.46,27.84c3.59,1.31 5.04,7.8 5.34,10.64c0,0 -0.17,8.27 4.8,8.27c0,0 -2.39,-19.26 10.72,-21.04c-2.95,13.74 22.06,24.89 22.06,24.89c-25.76,-21.27 6.44,-28.03 6.44,-28.03c1.4,-0.37 2.74,-0.78 4.07,-1.21c3.96,-1.3 7.57,-2.88 10.84,-4.66c2.23,-1.21 4.3,-2.51 6.21,-3.87c14.53,-10.29 20.47,-23.81 21.59,-26.64c1.22,16.84 -8.33,30.38 -11.67,34.56c-0.7,0.87 -1.15,1.36 -1.15,1.36c1.11,-0.58 2.18,-1.17 3.22,-1.76c5.44,-1.16 9.56,-3.12 15.82,-6.2c-4.41,10.62 -17.86,16.17 -17.86,16.17c18.79,-2.81 27.41,-9.4 31.38,-15.02c12.86,-1.27 10.63,32.83 10.63,32.83c2.32,-0.36 4.28,-1.8 4.99,-3.8c0.13,-0.36 0.23,-0.73 0.3,-1.1c2.34,-12.01 3.77,-12.77 4.02,-13.09c1.07,-1.06 2.47,-2.11 4.33,-3.03c2.37,-1.18 4.06,-3.45 5.26,-6.04c2.13,-3.6 2.8,-8.13 2.8,-10.49c0,-3.77 -0.24,-7.33 -0.63,-10.7Z" style="fill:#3a393b;fill-rule:nonzero;"/></g></svg>