<?xml version="1.0" encoding="UTF-8" standalone="no"?><!DOCTYPE svg PUBLIC "-//W3C//DTD SVG 1.1//EN" "http://www.w3.org/Graphics/SVG/1.1/DTD/svg11.dtd"><svg width="100%" height="100%" viewBox="0 0 300 301" version="1.1" xmlns="http://www.w3.org/2000/svg" xmlns:xlink="http://www.w3.org/1999/xlink" xml:space="preserve" style="fill-rule:evenodd;clip-rule:evenodd;stroke-linejoin:round;stroke-miterlimit:1.41421;"><g id="_6"><g><rect x="0.28" y="0.37" width="299.369" height="299.7" style="fill:#225b67;fill-rule:nonzero;"/><path d="M226.66,197.54c-0.73,-3.75 -1.08,-5.88 -1.14,-7.38l-0.71,0c2.42,-3.74 4.26,-7.71 5.47,-11.86l0.01,0.01c0.06,-0.21 0.11,-0.44 0.16,-0.66c0.45,-1.66 0.81,-3.35 1.05,-5.07c4.04,-25.2 -6.81,-58.07 -6.81,-58.07c1.09,7.98 -9.98,11.8 -11.72,20.97c-1.39,7.27 6.81,20.12 5.25,25.41c-1.46,4.94 -2.68,8.49 -3.1,9.67c-5.6,13.64 -15.59,24.8 -28.18,31.69c0.84,-2.66 1.34,-5.68 1.34,-8.91c0,-1.43 -0.12,-2.8 -0.29,-4.13c1.24,-0.16 2.44,-0.37 3.56,-0.7c1.78,-0.37 3.4,-1.05 4.79,-2.11c2.89,-2.19 4.81,-6 5.12,-12.08c0,0 -7.43,13.77 -19,1.59c0,0 -13.3,-18.82 -25.06,-11.29c-11.74,-7.53 -25.04,11.29 -25.04,11.29c-11.56,12.18 -19,-1.59 -19,-1.59c0.21,4.37 1.12,7.37 2.74,9.65l0.08,0.09c0,0 0.3,0.33 0.73,0.77c0.4,0.44 1.06,1.01 1.96,1.57l0.05,0.03c0.88,0.54 2.02,1.08 3.45,1.47c1.14,0.38 2.68,0.47 4.59,0.37c-0.27,1.62 -0.43,3.31 -0.43,5.07c0,3.23 0.49,6.25 1.34,8.91c-12.58,-6.89 -22.58,-18.05 -28.18,-31.69c-0.41,-1.18 -1.64,-4.73 -3.1,-9.67c-1.56,-5.29 2.4,-12.46 1.01,-19.73c-1.75,-9.18 1.24,-21.62 -7.48,-26.65c0,0 -10.85,32.87 -6.81,58.07c0.24,1.72 0.6,3.41 1.05,5.07c0.06,0.22 0.11,0.45 0.17,0.66l0.01,-0.01c1.2,4.15 3.04,8.12 5.46,11.86l-0.71,0c-0.06,1.5 -0.41,3.63 -1.14,7.38c-1.95,10.28 -7.78,12.97 -7.78,12.97c0,0 9,-3.92 11.17,-6.58c1.06,-1.29 3.84,-4.83 4.69,-5.94l0.1,0.08c-0.51,1.18 -1.68,5.01 -0.03,12.37c2.18,9.63 11.1,16.11 11.1,16.11c0,0 -2.26,-3.23 -3.43,-7.8c-0.46,-1.79 1.88,-2.95 2.98,-1.46c1.19,1.63 2.8,3.59 4.98,5.93c8.3,8.93 18.6,18.52 19.94,18.63c-0.11,-0.28 7.03,-5.43 6.92,-9.21c6.34,1.96 10.52,10.66 17.39,10.66c0.41,0 0.82,-0.02 1.22,-0.03l0.01,0c0.4,0.01 0.81,0.03 1.22,0.03c6.87,0 12.3,-10.89 18.65,-12.85c-0.11,3.79 5.56,12.71 5.45,13c1.34,-0.12 11.85,-11.3 20.16,-20.23c2.17,-2.34 3.78,-4.3 4.98,-5.93c1.09,-1.49 3.44,-0.33 2.98,1.46c-1.18,4.57 -3.44,7.8 -3.44,7.8c0,0 8.92,-6.48 11.1,-16.11c1.66,-7.36 0.48,-11.19 -0.02,-12.37l0.09,-0.08c0.86,1.11 3.64,4.65 4.69,5.94c2.17,2.66 11.17,6.58 11.17,6.58c0,0 -5.83,-2.69 -7.78,-12.97Z" style="fill:#ef7422;fill-rule:nonzero;"/><path d="M157.03,187.44l0,112.63l-60.72,0c-0.99,-0.4 -1.48,-0.6 -1.48,-0.6c0,-7.9 0.64,-14.83 1.73,-20.92c0.92,-5 2.14,-9.47 3.58,-13.4c3.21,-8.76 7.51,-15.04 11.93,-19.54c1.46,-1.49 2.94,-2.78 4.38,-3.89c2.45,-1.9 4.84,-3.32 6.98,-4.34c1.11,-0.56 2.16,-1.01 3.12,-1.36c0.33,-0.13 0.64,-0.25 0.95,-0.35c0.37,-0.13 0.7,-0.23 1.03,-0.33c0.93,-0.29 1.69,-0.49 2.26,-0.6c0.76,-0.18 1.2,-0.22 1.2,-0.22c0.22,0 0.43,-0.02 0.66,-0.07c1.91,-0.3 3.45,-1.97 4.71,-4.62c0.92,-1.98 1.7,-4.51 2.32,-7.41c0.25,-1.15 0.45,-2.29 0.66,-3.54c0.29,-2.08 0.58,-4.26 0.84,-6.54c0.09,-1.38 0.23,-2.72 0.39,-4.16c0.54,-6.89 0.68,-14.44 0.68,-21.58c0,0 8.17,0.84 14.78,0.84Z" style="fill:#e0bd9a;fill-rule:nonzero;"/><path d="M219.49,299.47c0,0 -0.54,0.2 -1.44,0.6l-61.02,0l0,-112.63l0.16,0c6.56,0 14.81,-0.84 14.81,-0.84c0,7.1 0.15,14.52 0.7,21.44c0.15,1.33 0.29,2.71 0.39,4.05c0.25,2.39 0.54,4.61 0.89,6.71l0,0.04c0.1,0.95 0.29,1.79 0.45,2.67c0.6,2.92 1.32,5.52 2.2,7.57c1.09,2.58 2.43,4.37 4.04,5.09c0.51,0.22 1.04,0.35 1.62,0.35c0,0 0.29,0.04 0.8,0.14c0.85,0.16 2.29,0.49 4.14,1.17c0.29,0.11 0.57,0.21 0.88,0.33c0.17,0.06 0.33,0.13 0.5,0.21c0.43,0.16 0.86,0.37 1.31,0.57c2.27,1.03 4.86,2.49 7.58,4.55c1.02,0.76 2.05,1.63 3.1,2.57l0,0.02c4.98,4.55 9.98,11.24 13.58,21.07c1.4,3.81 2.59,8.11 3.5,12.9c1.15,6.21 1.81,13.31 1.81,21.42Z" style="fill:#efd0ad;fill-rule:nonzero;"/><path d="M174.17,218.58l0,0.05c-1.53,2.37 -6.67,9.17 -16.85,9.17l-0.09,0c-9.64,-0.05 -15.27,-7.05 -16.71,-9.12c0.3,-2.07 0.6,-4.23 0.84,-6.5c0.1,-1.33 0.25,-2.71 0.4,-4.14c4.69,1.18 9.83,1.92 15.27,2.02l0.2,0c5.63,-0.1 10.82,-0.89 15.66,-2.17c0.15,1.33 0.3,2.71 0.39,4.04c0.25,2.37 0.55,4.59 0.89,6.65Z" style="fill:#be987f;fill-rule:nonzero;"/><path d="M156.53,59.11c-64.33,0 -64.68,53.95 -61.81,89.27c-4.4,-8.38 -17.49,-5.81 -16.41,7.39c1.04,12.71 19.75,19.19 19.22,17.78c9.75,26.13 35.53,45.82 59,45.82l0.5,0l0,-160.26l-0.5,0Z" style="fill:#d2a686;fill-rule:nonzero;"/><path d="M82.41,150.2c3.17,-5.12 8.11,-2.9 9.29,-1.77c1.29,1.23 2.33,2.81 1.53,5.81c-0.44,1.73 -2.22,1.87 -1.82,4.44c0.49,2.9 1.82,3.05 2.62,3.74c0.74,0.64 1.68,1.13 2.12,2.37c0.49,1.23 0.54,2.51 0.3,3.64c-0.5,2.07 -3.51,0.39 -5.54,-0.49c-1.33,-0.64 -5.58,-4.24 -6.67,-5.42c-2.67,-3.06 -3.95,-8.97 -1.83,-12.32Z" style="fill:#ac8774;fill-rule:nonzero;"/><path d="M156.88,59.11c64.34,0 64.68,53.95 61.86,89.27c4.4,-8.38 17.45,-5.81 16.36,7.39c-0.99,12.71 -19.73,19.19 -19.22,17.78c-9.49,26.13 -35.53,45.82 -59,45.82c-0.15,0 -0.35,0 -0.35,0l-0.14,-160.26c0,0 0.34,0 0.49,0Z" style="fill:#ddb598;fill-rule:nonzero;"/><path d="M231,150.2c-3.16,-5.12 -8.06,-2.9 -9.29,-1.77c-1.29,1.23 -2.27,2.81 -1.53,5.81c0.44,1.73 2.22,1.87 1.83,4.44c-0.5,2.9 -1.83,3.05 -2.57,3.74c-0.74,0.64 -1.73,1.13 -2.18,2.37c-0.44,1.23 -0.54,2.51 -0.29,3.64c0.49,2.07 3.5,0.39 5.53,-0.49c1.38,-0.64 5.58,-4.24 6.67,-5.42c2.72,-3.06 3.95,-8.97 1.83,-12.32Z" style="fill:#ac8774;fill-rule:nonzero;"/><path d="M156.03,74.33c-21.15,0 -36.67,6.16 -46.01,18.28c-13.09,17 -12.6,42.91 -7.8,61.53c1.48,5.72 2.27,21.04 3.26,26.66c4.59,25.17 32.31,38.57 50.55,38.57c0,0 0.34,0 0.49,0l0,-145.04c-0.15,0 -0.29,0 -0.29,0" style="fill:#e0bd9a;fill-rule:nonzero;"/><path d="M201.98,92.66c-9.29,-12.07 -24.61,-18.23 -45.46,-18.33l0,145.04c20.85,-0.24 45.81,-14.93 50.06,-38.57c1.03,-5.62 1.78,-20.94 3.26,-26.66c4.84,-18.57 5.33,-44.44 -7.86,-61.48Z" style="fill:#efd0ad;fill-rule:nonzero;"/><path d="M156.71,190.92" style="fill:#bc917b;fill-rule:nonzero;"/><path d="M156.71,190.92" style="fill:#bc917b;fill-rule:nonzero;"/><path d="M153.15,193.66c-0.11,-0.02 -0.21,-0.04 -0.31,-0.06c0.1,0.02 0.19,0.04 0.31,0.06Z" style="fill:#bc917b;fill-rule:nonzero;"/><path d="M156.71,193.47" style="fill:#bc917b;fill-rule:nonzero;"/><path d="M152.36,193.49c-0.09,-0.03 -0.18,-0.06 -0.27,-0.08l-0.01,0c0,0 0.11,0.03 0.28,0.08Z" style="fill:#bc917b;fill-rule:nonzero;"/><path d="M156.71,193.47" style="fill:#bc917b;fill-rule:nonzero;"/><path d="M144.52,174.85c-0.25,-5.02 9.18,-1.84 12.28,-1.68c2.46,0.13 9.93,-1.58 10.57,-1.14c4.39,2.97 -4.66,8.96 -10.72,8.96c-1.62,0 -11.98,-3.12 -12.13,-6.14Z" style="fill:#ddb598;fill-rule:nonzero;"/><path d="M138.56,74.69l-0.27,0.27l0.05,0.09c0.09,-0.13 0.13,-0.27 0.22,-0.36Z" style="fill:#432e1b;fill-rule:nonzero;"/><path d="M97.6,125.8" style="fill:#432e1b;fill-rule:nonzero;"/><path d="M156.99,193.49" style="fill:#ba907b;fill-rule:nonzero;"/><path d="M156.99,193.49" style="fill:#ba907b;fill-rule:nonzero;"/><path d="M153.32,190.72c-0.1,-0.02 -0.21,-0.04 -0.31,-0.07c0.1,0.03 0.19,0.04 0.31,0.07Z" style="fill:#ba907b;fill-rule:nonzero;"/><path d="M156.99,190.52" style="fill:#ba907b;fill-rule:nonzero;"/><path d="M152.52,190.54c-0.1,-0.03 -0.19,-0.05 -0.28,-0.08l-0.01,0c0,0 0.11,0.03 0.29,0.08Z" style="fill:#ba907b;fill-rule:nonzero;"/><path d="M156.99,190.52" style="fill:#ba907b;fill-rule:nonzero;"/><path d="M110.37,130.94c0,0 4.91,20.2 13.33,21.85c8.43,1.65 17.55,-1.63 17.55,-1.63c0,0 0.87,-23.74 -3.44,-26.84c-4.31,-3.11 -14.25,-7.62 -27.44,6.62Z" style="fill:#fff;fill-rule:nonzero;"/><path d="M141.26,151.1c0,0 -0.19,0.05 -0.63,0.23c-0.1,-7.28 -0.77,-17.28 -3.47,-19.19c-4,-2.94 -13.05,-7.09 -25.14,4.24c-1.09,-3.13 -1.65,-5.5 -1.65,-5.5c13.22,-14.27 23.16,-9.77 27.44,-6.65c4.32,3.11 3.45,26.87 3.45,26.87Z" style="fill:#d6b496;fill-rule:nonzero;"/><path d="M136.27,140.81c0,4.6 -3.71,8.32 -8.29,8.32c-4.58,0 -8.3,-3.72 -8.3,-8.32c0,-4.59 3.72,-8.32 8.3,-8.32c4.58,0 8.29,3.73 8.29,8.32Z" style="fill:#482315;fill-rule:nonzero;"/><path d="M127.59,146.35c-2.39,-0.2 -4.23,-2.62 -4.01,-5.29c0.21,-2.66 2.42,-4.75 4.82,-4.55c2.39,0.2 4.23,2.62 4.02,5.29c-0.22,2.66 -2.43,4.75 -4.83,4.55Z" style="fill:#7e3a22;fill-rule:nonzero;"/><path d="M127.8,145.39c-1.67,-0.14 -3.4,-1.98 -3.21,-4.24c0.18,-2.26 2.19,-3.79 3.85,-3.66c1.67,0.15 3.4,1.99 3.21,4.25c-0.18,2.26 -2.19,3.79 -3.85,3.65Z" style="fill:#211a10;fill-rule:nonzero;"/><path d="M126.45,139.82c-0.07,0.81 -0.91,1.41 -1.86,1.33c-0.96,-0.08 -1.69,-0.81 -1.62,-1.62c0.07,-0.82 0.9,-1.42 1.86,-1.34c0.96,0.08 1.68,0.81 1.62,1.63Z" style="fill:#fff;fill-rule:nonzero;"/><path d="M131.83,144.54c-0.04,0.41 -0.46,0.71 -0.93,0.67c-0.48,-0.04 -0.84,-0.41 -0.81,-0.82c0.03,-0.4 0.45,-0.7 0.93,-0.66c0.48,0.04 0.84,0.4 0.81,0.81Z" style="fill:#fff;fill-rule:nonzero;"/><path d="M157.12,190.44" style="fill:#ba907b;fill-rule:nonzero;"/><path d="M157.12,190.44" style="fill:#ba907b;fill-rule:nonzero;"/><path d="M153.45,193.1c-0.1,-0.02 -0.2,-0.04 -0.31,-0.07c0.11,0.03 0.19,0.05 0.31,0.07Z" style="fill:#ba907b;fill-rule:nonzero;"/><path d="M157.12,192.9" style="fill:#ba907b;fill-rule:nonzero;"/><path d="M152.65,192.92c-0.1,-0.02 -0.18,-0.05 -0.28,-0.08l-0.01,0.01c0,0 0.11,0.03 0.29,0.07Z" style="fill:#ba907b;fill-rule:nonzero;"/><path d="M157.12,192.9" style="fill:#ba907b;fill-rule:nonzero;"/><path d="M157.01,190.07" style="fill:#bc917b;fill-rule:nonzero;"/><path d="M157,190.07l0.01,0l-0.01,0Z" style="fill:#bc917b;fill-rule:nonzero;"/><path d="M153.08,192.53c-0.11,-0.02 -0.23,-0.04 -0.34,-0.07c0.11,0.02 0.21,0.04 0.34,0.07Z" style="fill:#bc917b;fill-rule:nonzero;"/><path d="M157.01,192.32" style="fill:#bc917b;fill-rule:nonzero;"/><path d="M152.21,192.34c-0.1,-0.03 -0.19,-0.06 -0.29,-0.09l-0.01,0.01c0,0 0.11,0.03 0.3,0.08Z" style="fill:#bc917b;fill-rule:nonzero;"/><path d="M157,192.32l0.01,0l-0.01,0Z" style="fill:#bc917b;fill-rule:nonzero;"/><path d="M156.76,189.22" style="fill:#bc917b;fill-rule:nonzero;"/><path d="M156.76,189.22" style="fill:#bc917b;fill-rule:nonzero;"/><path d="M152.83,191.69c-0.11,-0.03 -0.22,-0.05 -0.33,-0.07c0.1,0.02 0.2,0.04 0.33,0.07Z" style="fill:#bc917b;fill-rule:nonzero;"/><path d="M156.76,191.47" style="fill:#bc917b;fill-rule:nonzero;"/><path d="M151.97,191.49c-0.11,-0.02 -0.2,-0.05 -0.3,-0.08l-0.01,0c0,0 0.11,0.04 0.31,0.08Z" style="fill:#bc917b;fill-rule:nonzero;"/><path d="M156.76,191.47" style="fill:#bc917b;fill-rule:nonzero;"/><path d="M157.4,189.01" style="fill:#bc917b;fill-rule:nonzero;"/><path d="M157.4,189.01" style="fill:#bc917b;fill-rule:nonzero;"/><path d="M153.6,191.57c-0.11,-0.02 -0.22,-0.04 -0.32,-0.07c0.1,0.03 0.2,0.05 0.32,0.07Z" style="fill:#bc917b;fill-rule:nonzero;"/><path d="M157.4,191.37" style="fill:#bc917b;fill-rule:nonzero;"/><path d="M152.76,191.38c-0.09,-0.02 -0.19,-0.05 -0.28,-0.08l-0.01,0.01c0,0 0.11,0.03 0.29,0.07Z" style="fill:#bc917b;fill-rule:nonzero;"/><path d="M157.4,191.37" style="fill:#bc917b;fill-rule:nonzero;"/><path d="M203.18,130.25c0,0 -4.91,20.2 -13.34,21.85c-8.42,1.65 -17.54,-1.63 -17.54,-1.63c0,0 -0.87,-23.73 3.44,-26.84c4.31,-3.11 14.25,-7.61 27.44,6.62Z" style="fill:#fff;fill-rule:nonzero;"/><path d="M172.29,150.41c0,0 0.19,0.06 0.62,0.24c0.11,-7.28 0.78,-17.28 3.48,-19.2c4,-2.94 13.05,-7.08 25.13,4.24c1.1,-3.13 1.65,-5.5 1.65,-5.5c-13.21,-14.26 -23.16,-9.77 -27.44,-6.65c-4.32,3.11 -3.44,26.87 -3.44,26.87Z" style="fill:#d6b496;fill-rule:nonzero;"/><path d="M177.28,140.13c0,4.59 3.71,8.31 8.29,8.31c4.58,0 8.29,-3.72 8.29,-8.31c0,-4.6 -3.71,-8.32 -8.29,-8.32c-4.58,0 -8.29,3.72 -8.29,8.32Z" style="fill:#482315;fill-rule:nonzero;"/><path d="M185.95,145.67c2.4,-0.2 4.24,-2.63 4.02,-5.29c-0.21,-2.67 -2.42,-4.75 -4.82,-4.55c-2.39,0.2 -4.23,2.62 -4.02,5.28c0.22,2.67 2.43,4.76 4.82,4.56Z" style="fill:#7e3a22;fill-rule:nonzero;"/><path d="M185.75,144.7c1.66,-0.14 3.39,-1.97 3.21,-4.23c-0.19,-2.27 -2.19,-3.8 -3.86,-3.66c-1.66,0.14 -3.39,1.98 -3.2,4.24c0.18,2.27 2.18,3.79 3.85,3.65Z" style="fill:#211a10;fill-rule:nonzero;"/><path d="M187.1,139.13c0.07,0.82 0.9,1.41 1.86,1.33c0.96,-0.08 1.68,-0.81 1.62,-1.62c-0.07,-0.82 -0.9,-1.42 -1.86,-1.34c-0.96,0.08 -1.69,0.81 -1.62,1.63Z" style="fill:#fff;fill-rule:nonzero;"/><path d="M181.72,143.85c0.04,0.41 0.45,0.71 0.93,0.67c0.48,-0.04 0.84,-0.41 0.81,-0.81c-0.03,-0.41 -0.45,-0.71 -0.93,-0.67c-0.48,0.04 -0.84,0.4 -0.81,0.81Z" style="fill:#fff;fill-rule:nonzero;"/><path d="M155.83,198.39" style="fill:#be927b;fill-rule:nonzero;"/><path d="M155.83,198.39" style="fill:#be927b;fill-rule:nonzero;"/><path d="M152,195.49c-0.11,-0.02 -0.22,-0.04 -0.33,-0.07c0.11,0.03 0.2,0.05 0.33,0.07Z" style="fill:#be927b;fill-rule:nonzero;"/><path d="M155.83,195.29" style="fill:#be927b;fill-rule:nonzero;"/><path d="M151.15,195.3c-0.1,-0.02 -0.19,-0.05 -0.29,-0.08l-0.01,0.01c0,0 0.12,0.03 0.3,0.07Z" style="fill:#be927b;fill-rule:nonzero;"/><path d="M155.83,195.29" style="fill:#be927b;fill-rule:nonzero;"/><path d="M144.63,199.66c-0.24,-3.25 9.02,0.68 12.06,0.77c2.43,0.09 9.71,-0.48 10.39,-0.74c5.09,-1.91 -0.28,5.43 -10.54,5.82c-4.7,0.19 -11.77,-3.88 -11.91,-5.85Z" style="fill:#f0d2ad;fill-rule:nonzero;"/><path d="M174.78,193.4c-2.51,-0.13 -5.1,1.98 -8.12,1.66c-0.12,-0.07 -0.18,-0.07 -0.31,-0.07c-0.7,-0.12 -1.39,0 -2.14,0.19c-0.94,0.2 -1.89,0.58 -2.77,0.89c-1.51,0.49 -3.22,0.89 -4.97,0.75l0,0.01l-0.1,-0.01l-0.1,0.01l0,-0.01c-1.75,0.14 -3.45,-0.26 -4.96,-0.75c-0.89,-0.31 -1.83,-0.69 -2.77,-0.89c-0.76,-0.19 -1.45,-0.31 -2.14,-0.19c-0.13,0 -0.19,0 -0.32,0.07c-3.02,0.32 -5.6,-1.79 -8.11,-1.66c-0.7,0.06 -1.71,-0.13 -2.27,-0.13c0.12,0.07 0.25,0.13 0.38,0.19c7.17,3.5 13.35,10.07 20.19,9.86l0.2,0c6.85,0.21 13.03,-6.36 20.2,-9.86c0.12,-0.06 0.25,-0.12 0.38,-0.19c-0.57,0 -1.58,0.19 -2.27,0.13Z" style="fill:#dcbf9e;fill-rule:nonzero;"/><path d="M176.88,193.2l0.01,0c0,0 -7.29,-2.82 -12.47,-1.16c0,0 -1.93,0.75 -3.93,1.21c-1.22,0.47 -2.69,0.61 -4.12,0.56c-1.09,-0.05 -2.12,-0.19 -2.98,-0.34c-0.28,-0.04 -0.56,-0.1 -0.85,-0.16c-0.12,-0.03 -0.22,-0.05 -0.32,-0.07c-0.18,-0.04 -0.35,-0.07 -0.52,-0.12c-0.19,-0.04 -0.3,-0.07 -0.3,-0.07l0.01,-0.01c-1.66,-0.45 -3.08,-1 -3.08,-1c-5.18,-1.66 -12.47,1.16 -12.47,1.16c-0.1,0.04 -0.16,0.07 -0.16,0.07c0.56,0 1.57,0.19 2.27,0.13c2.51,-0.13 5.09,1.98 8.11,1.66c0.13,-0.07 0.19,-0.07 0.32,-0.07c0.69,-0.12 1.38,0 2.14,0.19c0.94,0.2 1.88,0.58 2.77,0.89c1.51,0.49 3.21,0.89 4.96,0.75l0,0.01l0.1,-0.01l0.1,0.01l0,-0.01c1.75,0.14 3.46,-0.26 4.97,-0.75c0.88,-0.31 1.83,-0.69 2.77,-0.89c0.75,-0.19 1.44,-0.31 2.14,-0.19c0.13,0 0.19,0 0.31,0.07c3.02,0.32 5.61,-1.79 8.12,-1.66c0.69,0.06 1.7,-0.13 2.27,-0.13c0,0 -0.06,-0.03 -0.17,-0.07Z" style="fill:#c69f83;fill-rule:nonzero;"/><path d="M144.13,194.91c0.14,0.04 13.66,4.17 24.23,0.09l-1.21,-0.82l-14.3,0l-8.72,0.73Z" style="fill:#c69f83;fill-rule:nonzero;"/><path d="M138.79,245.56l-24.49,9.25c0.93,-3.66 1.69,-7.94 2.16,-13.1c2.45,-1.89 4.82,-3.31 6.98,-4.34c1.11,-0.56 2.16,-1.01 3.1,-1.36c0.35,-0.12 0.64,-0.25 0.97,-0.35c0.37,-0.12 0.68,-0.23 1.03,-0.33c0.93,-0.29 1.69,-0.49 2.24,-0.6c2.25,3.21 5.02,7.08 8.01,10.83Z" style="fill:#878633;fill-rule:nonzero;"/><path d="M199.46,253.99l-24.71,-8.21c3.13,-3.87 6.05,-7.86 8.35,-11.13c0.85,0.17 2.29,0.5 4.12,1.17c0.29,0.11 0.59,0.21 0.88,0.33c0.17,0.07 0.35,0.13 0.52,0.21c0.41,0.16 0.86,0.37 1.29,0.58c2.29,1.02 4.88,2.49 7.6,4.54c0.43,4.9 1.11,8.97 1.95,12.51Z" style="fill:#878633;fill-rule:nonzero;"/><path d="M204.95,269.26l-95.93,0c1.81,-4.06 3.76,-8.44 5.28,-14.45l24.49,-9.25c6.27,7.94 13.39,15.45 17.92,15.49l0.02,0c0.1,0 0.16,0 0.29,-0.02c4.54,-0.29 11.54,-7.55 17.73,-15.25l24.71,8.21c1.54,6.42 3.6,11.01 5.49,15.27Z" style="fill:#acbb37;fill-rule:nonzero;"/><path d="M204.97,269.27l-95.97,0c-2.22,4.97 -4.22,9.46 -4.93,15.84c-0.05,0.4 -0.09,0.83 -0.14,1.3l106.11,0c-0.04,-0.47 -0.09,-0.9 -0.14,-1.3c-0.7,-6.38 -2.71,-10.88 -4.93,-15.84Z" style="fill:#6c692d;fill-rule:nonzero;"/><path d="M146.31,132.68c-0.06,-0.1 -1.59,-2.43 -4.72,-4.84c-1.96,-1.5 -3.88,-2.65 -5.87,-3.51c-2.42,-1.02 -5.02,-1.74 -7.55,-2.08c-2.28,-0.26 -4.81,-0.19 -7.77,0.21c-2.25,0.43 -4.45,1.1 -6.32,1.93c-1.33,0.46 -2.38,1.1 -3.22,1.62c-0.33,0.2 -0.62,0.38 -0.92,0.54l-4.02,2.54l4.64,-1.09c0.21,-0.06 0.45,-0.12 0.7,-0.19c0.96,-0.25 2.15,-0.57 3.55,-0.78c0.33,-0.04 0.66,-0.11 1,-0.18c0.59,-0.12 1.19,-0.24 1.82,-0.27c0.71,-0.04 1.43,-0.1 2.18,-0.15l0.98,-0.07c2.57,-0.03 4.74,0.16 6.66,0.61c2.11,0.36 4.28,1.04 6.26,1.97c1.88,0.9 3.68,1.79 5.08,2.82c2.83,1.9 4.41,3.48 4.42,3.5c0.39,0.39 0.91,0.59 1.44,0.59c0.38,0 0.76,-0.1 1.09,-0.32c0.94,-0.62 1.2,-1.88 0.61,-2.79l-0.04,-0.06Z" style="fill:#030405;fill-rule:nonzero;"/><path d="M204.01,126.53c-0.27,-0.14 -0.56,-0.32 -0.89,-0.52c-0.84,-0.52 -1.89,-1.16 -3.18,-1.61c-1.91,-0.84 -4.11,-1.51 -6.39,-1.95c-2.93,-0.39 -5.46,-0.46 -7.75,-0.2c-2.51,0.34 -5.12,1.06 -7.54,2.08c-1.97,0.85 -3.94,2.03 -5.87,3.51c-3.07,2.36 -4.6,4.65 -4.71,4.83l-0.03,0.04c-0.52,0.8 -0.41,1.87 0.26,2.55c0.38,0.38 0.89,0.6 1.43,0.6c0.54,0 1.05,-0.22 1.43,-0.6l0.01,-0.02c0.15,-0.15 1.68,-1.65 4.43,-3.49c1.38,-1.02 3.18,-1.91 5.05,-2.81c1.99,-0.93 4.16,-1.61 6.3,-1.98c1.9,-0.44 4.07,-0.63 6.6,-0.6l1.03,0.07c0.74,0.05 1.46,0.11 2.17,0.15c0.62,0.03 1.22,0.15 1.81,0.27c0.34,0.07 0.67,0.14 1,0.18c1.4,0.21 2.59,0.53 3.55,0.78c0.25,0.07 0.49,0.13 0.71,0.19l4.64,1.09l-4.06,-2.56Z" style="fill:#030405;fill-rule:nonzero;"/><path d="M93.82,146.97l9.16,11.22c0,0 -5.74,-19.56 6.04,-25.7l-15.93,-7.94l0.73,22.42Z" style="fill:#ef7422;fill-rule:nonzero;"/><path d="M220.2,146.41l-9.15,11.22c0,0 5.73,-19.57 -6.04,-25.7l15.92,-7.94l-0.73,22.42Z" style="fill:#ef7422;fill-rule:nonzero;"/><path d="M68.94,96.97c0.06,12.62 39.45,47.95 87.87,47.72c48.42,-0.23 89.4,-30.09 89.34,-42.72c-0.06,-12.62 -41.14,-27.91 -89.57,-27.68c-48.42,0.23 -87.7,10.05 -87.64,22.68Z" style="fill:#878633;fill-rule:nonzero;"/><path d="M207.66,21.31l0.02,4.6l0.01,2.31l0.33,71.04c0.03,7.01 -4.86,13.06 -11.72,14.54c-15.49,3.35 -44.83,7.31 -79.36,0.18c-6.82,-1.41 -11.69,-7.46 -11.72,-14.42l-0.33,-70.09l-0.01,-3.08l-0.03,-4.6c58.27,9.91 102.81,-0.48 102.81,-0.48Z" style="fill:#acbb37;fill-rule:nonzero;"/><path d="M104.85,21.79c0.03,4.61 23.05,8.24 51.45,8.11c28.38,-0.13 51.38,-3.98 51.36,-8.59c-0.02,-4.62 -23.06,-8.25 -51.44,-8.12c-28.4,0.14 -51.39,3.98 -51.37,8.6Z" style="fill:#635d26;fill-rule:nonzero;"/><path d="M207.96,85.39c0,0 -36.77,17.35 -102.8,1.13l0.04,8.83c0,0 44.95,15.84 102.8,-0.49l-0.04,-9.47Z" style="fill:#635d26;fill-rule:nonzero;"/><path d="M149.12,43.2l6.96,11.07l0.11,0.16c0.66,0.99 1.79,1.59 3,1.59c1.19,0 2.31,-0.58 2.98,-1.56c0.06,-0.09 0.12,-0.18 0.17,-0.27l4,-6.36l2.76,-4.4l0.2,-0.3l0.09,-0.15l-0.01,0l0.06,-0.07c0.37,-0.53 0.55,-1.24 0.55,-1.92c0,-1.99 -1.63,-3.63 -3.64,-3.63l-14.34,0c-2.01,0 -3.63,1.64 -3.63,3.63c0,1 0.54,1.91 0.74,2.21Z" style="fill:#878633;fill-rule:nonzero;"/><path d="M148.38,81.16c0,2 1.62,3.63 3.63,3.63l14.34,0c2.01,0 3.64,-1.63 3.64,-3.63c0,-0.68 -0.18,-1.39 -0.55,-1.91l-0.06,-0.07l0.01,-0.01l-0.09,-0.14l-0.2,-0.3l-2.76,-4.4l-4,-6.36c-0.05,-0.09 -0.11,-0.18 -0.17,-0.27c-0.67,-0.98 -1.79,-1.56 -2.98,-1.56c-1.21,0 -2.34,0.59 -3,1.58l-0.11,0.17l-6.96,11.06c-0.2,0.31 -0.74,1.22 -0.74,2.21Z" style="fill:#878633;fill-rule:nonzero;"/><path d="M141.31,71.14l11.07,-6.96l0.16,-0.11c0.99,-0.66 1.59,-1.79 1.59,-3c0,-1.19 -0.58,-2.31 -1.56,-2.98c-0.09,-0.06 -0.18,-0.12 -0.27,-0.17l-6.36,-4l-4.4,-2.76l-0.31,-0.2l-0.14,-0.09l0,0.01l-0.07,-0.06c-0.53,-0.37 -1.24,-0.55 -1.92,-0.55c-2,0 -3.63,1.63 -3.63,3.64l0,14.34c0,2.01 1.63,3.63 3.63,3.63c1,0 1.9,-0.54 2.21,-0.74Z" style="fill:#878633;fill-rule:nonzero;"/><path d="M179.27,71.88c2,0 3.63,-1.62 3.63,-3.63l0,-14.34c0,-2.01 -1.63,-3.64 -3.63,-3.64c-0.68,0 -1.39,0.18 -1.91,0.55l-0.07,0.06l-0.01,-0.01l-0.14,0.09l-0.31,0.2l-4.39,2.76l-6.36,4c-0.09,0.05 -0.19,0.11 -0.27,0.17c-0.98,0.67 -1.56,1.79 -1.56,2.98c0,1.21 0.59,2.34 1.58,3l0.17,0.11l11.06,6.96c0.3,0.2 1.21,0.74 2.21,0.74Z" style="fill:#878633;fill-rule:nonzero;"/></g><path d="M102.93,300.07l108.12,0c-0.26,-4.09 -0.62,-9.87 -1.01,-13.66l-106.11,0c-0.38,3.79 -0.75,9.57 -1,13.66Z" style="fill:#acbb37;fill-rule:nonzero;"/></g></svg>