<?xml version="1.0" encoding="UTF-8" standalone="no"?><!DOCTYPE svg PUBLIC "-//W3C//DTD SVG 1.1//EN" "http://www.w3.org/Graphics/SVG/1.1/DTD/svg11.dtd"><svg width="100%" height="100%" viewBox="0 0 298 301" version="1.1" xmlns="http://www.w3.org/2000/svg" xmlns:xlink="http://www.w3.org/1999/xlink" xml:space="preserve" style="fill-rule:evenodd;clip-rule:evenodd;stroke-linejoin:round;stroke-miterlimit:1.41421;"><g id="_60"><rect x="0.21" y="0.48" width="296.865" height="299.71" style="fill:#1c87a1;fill-rule:nonzero;"/><path d="M203.749,173.57c0,0 34.773,64.57 -30.035,69.83c0,0 -58.714,-41.37 30.035,-69.83Z" style="fill:#32283f;fill-rule:nonzero;"/><path d="M146.272,187.93l0,112.25l-60.714,0c-1.008,-0.39 -1.482,-0.6 -1.482,-0.6c0,-4.71 0.226,-9.07 0.659,-13.12c0.843,-8.27 2.489,-15.23 4.629,-21.09c4.732,-12.9 11.912,-20.39 18.229,-24.73c0.103,-0.06 0.205,-0.15 0.308,-0.21c3.868,-2.59 7.428,-4.01 9.876,-4.77c0.823,-0.27 1.523,-0.45 2.057,-0.56c0.885,-0.2 1.379,-0.26 1.379,-0.26c0.103,0 0.205,0 0.308,-0.03c0.124,0 0.247,-0.02 0.371,-0.04c1.193,-0.18 2.242,-0.9 3.148,-2.05c0.576,-0.7 1.09,-1.55 1.563,-2.55c0.926,-1.98 1.708,-4.49 2.325,-7.39c0.247,-1.15 0.453,-2.28 0.659,-3.52c0.288,-2.08 0.576,-4.26 0.822,-6.52c0.103,-1.38 0.247,-2.72 0.412,-4.16c0.535,-6.87 0.679,-14.38 0.679,-21.5c0,0 8.168,0.85 14.772,0.85Z" style="fill:#e0bd9a;fill-rule:nonzero;"/><path d="M208.736,299.58c0,0 -0.535,0.21 -1.44,0.6l-61.024,0l0,-112.25l0.144,0c6.584,0 14.834,-0.85 14.834,-0.85c0,7.06 0.144,14.49 0.7,21.36c0.144,1.34 0.288,2.71 0.391,4.05c0.247,2.37 0.535,4.59 0.885,6.67l0,0.04c0.102,0.95 0.288,1.79 0.452,2.67c0.597,2.93 1.317,5.5 2.202,7.55c0.411,0.97 0.864,1.84 1.337,2.58c0.802,1.19 1.687,2.05 2.695,2.49c0.515,0.22 1.049,0.35 1.626,0.35c0,0 0.185,0.02 0.535,0.08c0.246,0.04 0.576,0.1 0.967,0.2c1.008,0.23 2.51,0.64 4.32,1.36c2.16,0.84 4.773,2.1 7.53,3.95c0.391,0.27 0.803,0.54 1.193,0.82c6.111,4.45 12.818,11.83 17.345,24.12c2.16,5.86 3.806,12.82 4.67,21.09c0.412,4.05 0.638,8.41 0.638,13.12Z" style="fill:#efd0ad;fill-rule:nonzero;"/><path d="M163.224,218.95l0,0.05c-1.531,2.36 -6.671,9.13 -16.849,9.13l-0.1,0c-9.635,-0.04 -15.268,-7.02 -16.701,-9.08c0.296,-2.06 0.593,-4.23 0.84,-6.48c0.099,-1.33 0.247,-2.71 0.395,-4.13c4.695,1.18 9.834,1.92 15.269,2.01l0.197,0c5.633,-0.09 10.822,-0.88 15.664,-2.16c0.149,1.33 0.297,2.7 0.396,4.03c0.247,2.36 0.543,4.57 0.889,6.63Z" style="fill:#be987f;fill-rule:nonzero;"/><path d="M145.584,59.97c-64.336,0 -64.682,53.78 -61.816,88.99c-4.398,-8.35 -17.493,-5.79 -16.405,7.37c1.037,12.67 19.745,19.13 19.221,17.73c9.743,26.04 35.529,45.68 59,45.68l0.494,0l0,-159.77l-0.494,0Z" style="fill:#d2a686;fill-rule:nonzero;"/><path d="M71.464,150.78c3.162,-5.11 8.104,-2.9 9.29,-1.77c1.284,1.23 2.322,2.8 1.531,5.8c-0.444,1.72 -2.223,1.86 -1.828,4.42c0.494,2.9 1.828,3.04 2.619,3.73c0.741,0.64 1.68,1.13 2.125,2.36c0.494,1.23 0.543,2.5 0.296,3.63c-0.494,2.07 -3.508,0.4 -5.534,-0.49c-1.334,-0.64 -5.584,-4.22 -6.671,-5.4c-2.668,-3.05 -3.953,-8.94 -1.828,-12.28Z" style="fill:#ac8774;fill-rule:nonzero;"/><path d="M145.93,59.97c64.336,0 64.682,53.78 61.865,88.99c4.398,-8.35 17.442,-5.79 16.356,7.37c-0.988,12.67 -19.733,19.13 -19.222,17.73c-9.49,26.04 -35.528,45.68 -58.999,45.68c-0.149,0 -0.346,0 -0.346,0l-0.148,-159.77c0,0 0.345,0 0.494,0Z" style="fill:#ddb598;fill-rule:nonzero;"/><path d="M220.05,150.78c-3.163,-5.11 -8.055,-2.9 -9.29,-1.77c-1.285,1.23 -2.273,2.8 -1.532,5.8c0.445,1.72 2.224,1.86 1.828,4.42c-0.494,2.9 -1.828,3.04 -2.569,3.73c-0.741,0.64 -1.729,1.13 -2.174,2.36c-0.445,1.23 -0.544,2.5 -0.297,3.63c0.494,2.07 3.508,0.4 5.535,-0.49c1.383,-0.64 5.582,-4.22 6.67,-5.4c2.718,-3.05 3.953,-8.94 1.829,-12.28Z" style="fill:#ac8774;fill-rule:nonzero;"/><path d="M145.078,75.15c-21.149,0 -36.665,6.14 -46.004,18.22c-13.095,16.94 -12.6,42.78 -7.807,61.34c1.482,5.7 2.273,20.97 3.261,26.57c4.595,25.1 32.316,38.46 50.55,38.46c0,0 0.346,0 0.494,0l0,-144.59c-0.148,0 -0.297,0 -0.297,0" style="fill:#e0bd9a;fill-rule:nonzero;"/><path d="M191.032,93.42c-9.29,-12.04 -24.608,-18.17 -45.46,-18.27l0,144.59c20.852,-0.25 45.806,-14.89 50.055,-38.46c1.038,-5.6 1.779,-20.87 3.262,-26.57c4.842,-18.52 5.336,-44.3 -7.857,-61.29Z" style="fill:#efd0ad;fill-rule:nonzero;"/><path d="M145.765,196.79" style="fill:#bc917b;fill-rule:nonzero;"/><path d="M145.765,196.79" style="fill:#bc917b;fill-rule:nonzero;"/><path d="M142.197,194.1c-0.101,-0.02 -0.202,-0.04 -0.303,-0.06c0.099,0.02 0.187,0.04 0.303,0.06Z" style="fill:#bc917b;fill-rule:nonzero;"/><path d="M145.765,193.91" style="fill:#bc917b;fill-rule:nonzero;"/><path d="M141.412,193.93c-0.093,-0.02 -0.178,-0.05 -0.269,-0.08l-0.01,0.01c0,0 0.104,0.03 0.279,0.07Z" style="fill:#bc917b;fill-rule:nonzero;"/><path d="M145.765,193.91" style="fill:#bc917b;fill-rule:nonzero;"/><path d="M127.61,75.51l-0.267,0.27l0.044,0.08c0.089,-0.13 0.134,-0.26 0.223,-0.35Z" style="fill:#432e1b;fill-rule:nonzero;"/><path d="M86.646,126.46" style="fill:#432e1b;fill-rule:nonzero;"/><path d="M146.037,193.93" style="fill:#ba907b;fill-rule:nonzero;"/><path d="M146.037,193.93" style="fill:#ba907b;fill-rule:nonzero;"/><path d="M142.373,191.17c-0.105,-0.02 -0.208,-0.04 -0.311,-0.06c0.101,0.02 0.191,0.04 0.311,0.06Z" style="fill:#ba907b;fill-rule:nonzero;"/><path d="M146.037,190.97" style="fill:#ba907b;fill-rule:nonzero;"/><path d="M141.566,190.99c-0.096,-0.02 -0.182,-0.05 -0.276,-0.08l-0.011,0.01c0,0 0.107,0.03 0.287,0.07Z" style="fill:#ba907b;fill-rule:nonzero;"/><path d="M146.037,190.97" style="fill:#ba907b;fill-rule:nonzero;"/><path d="M132.999,176.66c-0.251,-5.13 9.426,-1.87 12.616,-1.71c2.521,0.13 10.192,-1.62 10.85,-1.17c4.513,3.05 -4.779,9.17 -11.01,9.17c-1.66,0 -12.306,-3.19 -12.456,-6.29Z" style="fill:#dcb497;fill-rule:nonzero;"/><path d="M99.419,131.58c0,0 4.908,20.14 13.335,21.78c8.426,1.64 17.546,-1.62 17.546,-1.62c0,0 0.872,-23.67 -3.443,-26.76c-4.311,-3.1 -14.25,-7.59 -27.438,6.6Z" style="fill:#fff;fill-rule:nonzero;"/><path d="M130.312,151.67c0,0 -0.194,0.06 -0.627,0.24c-0.107,-7.26 -0.779,-17.23 -3.473,-19.14c-4.006,-2.93 -13.052,-7.06 -25.138,4.23c-1.098,-3.12 -1.649,-5.48 -1.649,-5.48c13.212,-14.22 23.16,-9.74 27.439,-6.63c4.319,3.1 3.448,26.78 3.448,26.78Z" style="fill:#d6b496;fill-rule:nonzero;"/><path d="M125.322,141.42c0,4.58 -3.713,8.29 -8.294,8.29c-4.58,0 -8.293,-3.71 -8.293,-8.29c0,-4.58 3.713,-8.29 8.293,-8.29c4.581,0 8.294,3.71 8.294,8.29Z" style="fill:#482315;fill-rule:nonzero;"/><path d="M116.643,146.94c-2.395,-0.19 -4.234,-2.61 -4.015,-5.27c0.214,-2.65 2.422,-4.73 4.819,-4.53c2.395,0.19 4.23,2.61 4.019,5.26c-0.218,2.66 -2.429,4.74 -4.823,4.54Z" style="fill:#7e3a22;fill-rule:nonzero;"/><path d="M116.85,145.99c-1.667,-0.15 -3.397,-1.98 -3.213,-4.23c0.187,-2.26 2.189,-3.78 3.856,-3.65c1.668,0.14 3.393,1.98 3.21,4.23c-0.184,2.26 -2.19,3.78 -3.853,3.65Z" style="fill:#211a10;fill-rule:nonzero;"/><path d="M115.5,140.43c-0.07,0.81 -0.906,1.41 -1.863,1.33c-0.96,-0.08 -1.683,-0.81 -1.618,-1.62c0.069,-0.82 0.9,-1.41 1.859,-1.34c0.963,0.08 1.687,0.81 1.622,1.63Z" style="fill:#fff;fill-rule:nonzero;"/><path d="M120.877,145.14c-0.035,0.4 -0.452,0.7 -0.93,0.66c-0.481,-0.04 -0.841,-0.4 -0.811,-0.81c0.035,-0.4 0.453,-0.7 0.93,-0.66c0.481,0.04 0.846,0.4 0.811,0.81Z" style="fill:#fff;fill-rule:nonzero;"/><path d="M146.169,196.31" style="fill:#ba907b;fill-rule:nonzero;"/><path d="M146.169,196.31" style="fill:#ba907b;fill-rule:nonzero;"/><path d="M142.504,193.55c-0.104,-0.03 -0.207,-0.05 -0.311,-0.07c0.102,0.02 0.192,0.04 0.311,0.07Z" style="fill:#ba907b;fill-rule:nonzero;"/><path d="M146.169,193.35" style="fill:#ba907b;fill-rule:nonzero;"/><path d="M141.699,193.37c-0.096,-0.03 -0.183,-0.06 -0.277,-0.08l-0.011,0c0,0 0.107,0.03 0.288,0.08Z" style="fill:#ba907b;fill-rule:nonzero;"/><path d="M146.169,193.35" style="fill:#ba907b;fill-rule:nonzero;"/><path d="M146.056,195.94" style="fill:#bc917b;fill-rule:nonzero;"/><path d="M146.055,195.94l0.001,0l-0.001,0Z" style="fill:#bc917b;fill-rule:nonzero;"/><path d="M142.127,192.98c-0.111,-0.03 -0.222,-0.05 -0.333,-0.07c0.109,0.02 0.206,0.04 0.333,0.07Z" style="fill:#bc917b;fill-rule:nonzero;"/><path d="M146.056,192.77" style="fill:#bc917b;fill-rule:nonzero;"/><path d="M141.264,192.79c-0.103,-0.03 -0.196,-0.06 -0.297,-0.09l-0.011,0.01c0,0 0.114,0.03 0.308,0.08Z" style="fill:#bc917b;fill-rule:nonzero;"/><path d="M146.055,192.77l0.001,0l-0.001,0Z" style="fill:#bc917b;fill-rule:nonzero;"/><path d="M145.808,195.09" style="fill:#bc917b;fill-rule:nonzero;"/><path d="M145.807,195.09l0.001,0l-0.001,0Z" style="fill:#bc917b;fill-rule:nonzero;"/><path d="M141.879,192.14c-0.111,-0.03 -0.222,-0.05 -0.333,-0.07c0.109,0.02 0.205,0.04 0.333,0.07Z" style="fill:#bc917b;fill-rule:nonzero;"/><path d="M145.808,191.93" style="fill:#bc917b;fill-rule:nonzero;"/><path d="M141.016,191.94c-0.103,-0.02 -0.196,-0.05 -0.297,-0.08l-0.011,0c0,0 0.114,0.04 0.308,0.08Z" style="fill:#bc917b;fill-rule:nonzero;"/><path d="M145.807,191.93l0.001,0l-0.001,0Z" style="fill:#bc917b;fill-rule:nonzero;"/><path d="M146.447,194.88" style="fill:#bc917b;fill-rule:nonzero;"/><path d="M146.446,194.88l0.001,0l-0.001,0Z" style="fill:#bc917b;fill-rule:nonzero;"/><path d="M142.65,192.02c-0.108,-0.02 -0.215,-0.04 -0.323,-0.07c0.106,0.03 0.199,0.05 0.323,0.07Z" style="fill:#bc917b;fill-rule:nonzero;"/><path d="M146.447,191.82" style="fill:#bc917b;fill-rule:nonzero;"/><path d="M141.815,191.83c-0.099,-0.02 -0.19,-0.05 -0.287,-0.08l-0.011,0.01c0,0 0.111,0.03 0.298,0.07Z" style="fill:#bc917b;fill-rule:nonzero;"/><path d="M146.446,191.82l0.001,0l-0.001,0Z" style="fill:#bc917b;fill-rule:nonzero;"/><path d="M192.229,130.9c0,0 -4.908,20.13 -13.334,21.77c-8.427,1.65 -17.547,-1.62 -17.547,-1.62c0,0 -0.872,-23.66 3.443,-26.75c4.311,-3.11 14.25,-7.6 27.438,6.6Z" style="fill:#fff;fill-rule:nonzero;"/><path d="M161.336,150.99c0,0 0.194,0.05 0.627,0.24c0.107,-7.26 0.778,-17.23 3.473,-19.14c4.006,-2.94 13.052,-7.06 25.138,4.23c1.098,-3.12 1.649,-5.49 1.649,-5.49c-13.212,-14.22 -23.16,-9.74 -27.439,-6.63c-4.319,3.1 -3.448,26.79 -3.448,26.79Z" style="fill:#d6b496;fill-rule:nonzero;"/><path d="M166.326,140.74c0,4.58 3.713,8.29 8.294,8.29c4.58,0 8.293,-3.71 8.293,-8.29c0,-4.59 -3.713,-8.3 -8.293,-8.3c-4.581,0 -8.294,3.71 -8.294,8.3Z" style="fill:#482315;fill-rule:nonzero;"/><path d="M175.005,146.26c2.395,-0.2 4.234,-2.62 4.015,-5.27c-0.214,-2.66 -2.422,-4.74 -4.819,-4.54c-2.395,0.2 -4.231,2.61 -4.019,5.27c0.218,2.66 2.429,4.74 4.823,4.54Z" style="fill:#7e3a22;fill-rule:nonzero;"/><path d="M174.798,145.3c1.667,-0.14 3.397,-1.97 3.213,-4.22c-0.187,-2.26 -2.189,-3.79 -3.856,-3.65c-1.668,0.14 -3.393,1.98 -3.21,4.23c0.184,2.26 2.19,3.78 3.853,3.64Z" style="fill:#211a10;fill-rule:nonzero;"/><path d="M176.148,139.74c0.07,0.82 0.905,1.41 1.863,1.33c0.96,-0.08 1.683,-0.81 1.618,-1.62c-0.069,-0.81 -0.9,-1.41 -1.859,-1.33c-0.963,0.08 -1.687,0.8 -1.622,1.62Z" style="fill:#fff;fill-rule:nonzero;"/><path d="M170.771,144.45c0.035,0.41 0.452,0.71 0.93,0.67c0.481,-0.04 0.841,-0.41 0.811,-0.81c-0.035,-0.41 -0.453,-0.71 -0.93,-0.67c-0.481,0.04 -0.846,0.4 -0.811,0.81Z" style="fill:#fff;fill-rule:nonzero;"/><path d="M135.361,131.26c-0.064,-0.1 -1.593,-2.42 -4.719,-4.82c-1.959,-1.5 -3.878,-2.65 -5.87,-3.5c-2.419,-1.01 -5.026,-1.73 -7.551,-2.08c-2.284,-0.25 -4.815,-0.19 -7.768,0.21c-2.254,0.43 -4.453,1.1 -6.319,1.92c-1.331,0.46 -2.382,1.11 -3.227,1.62c-0.323,0.2 -0.616,0.38 -0.914,0.54l-4.025,2.53l4.639,-1.09c0.216,-0.05 0.45,-0.11 0.701,-0.18c0.96,-0.25 2.154,-0.57 3.555,-0.78c0.327,-0.04 0.661,-0.11 1.001,-0.18c0.584,-0.11 1.187,-0.23 1.819,-0.26c0.703,-0.05 1.432,-0.1 2.181,-0.16l0.973,-0.07c2.57,-0.03 4.739,0.16 6.667,0.61c2.107,0.36 4.273,1.04 6.259,1.96c1.875,0.9 3.673,1.79 5.076,2.82c2.833,1.89 4.41,3.47 4.425,3.48c0.39,0.39 0.91,0.6 1.433,0.6c0.381,0 0.763,-0.11 1.097,-0.33c0.934,-0.61 1.196,-1.87 0.602,-2.78l-0.035,-0.06Z" style="fill:#030405;fill-rule:nonzero;"/><path d="M193.058,125.13c-0.267,-0.14 -0.56,-0.32 -0.884,-0.52c-0.844,-0.51 -1.895,-1.16 -3.186,-1.6c-1.906,-0.84 -4.105,-1.51 -6.386,-1.94c-2.928,-0.4 -5.459,-0.46 -7.753,-0.21c-2.512,0.35 -5.119,1.07 -7.543,2.08c-1.963,0.84 -3.936,2.02 -5.866,3.5c-3.07,2.35 -4.596,4.64 -4.711,4.81l-0.029,0.04c-0.518,0.8 -0.407,1.87 0.263,2.54c0.382,0.39 0.889,0.6 1.428,0.6l0.001,0c0.54,0 1.046,-0.21 1.426,-0.6l0.016,-0.01c0.15,-0.15 1.68,-1.65 4.428,-3.48c1.381,-1.02 3.18,-1.91 5.05,-2.81c1.993,-0.92 4.16,-1.6 6.293,-1.97c1.901,-0.44 4.074,-0.63 6.61,-0.6l1.022,0.07c0.743,0.06 1.465,0.11 2.172,0.16c0.623,0.03 1.226,0.15 1.81,0.26c0.34,0.07 0.673,0.14 1,0.18c1.401,0.21 2.595,0.53 3.556,0.78c0.25,0.07 0.484,0.13 0.707,0.18l4.636,1.09l-4.06,-2.55Z" style="fill:#030405;fill-rule:nonzero;"/><path d="M143.169,203.32" style="fill:#be927b;fill-rule:nonzero;"/><path d="M143.169,203.32" style="fill:#be927b;fill-rule:nonzero;"/><path d="M139.529,200.57c-0.103,-0.02 -0.206,-0.04 -0.309,-0.06c0.101,0.02 0.19,0.04 0.309,0.06Z" style="fill:#be927b;fill-rule:nonzero;"/><path d="M143.169,200.38" style="fill:#be927b;fill-rule:nonzero;"/><path d="M138.729,200.4c-0.096,-0.03 -0.182,-0.06 -0.276,-0.08l-0.01,0c0,0 0.106,0.03 0.286,0.08Z" style="fill:#be927b;fill-rule:nonzero;"/><path d="M143.169,200.38" style="fill:#be927b;fill-rule:nonzero;"/><path d="M142.939,202.54" style="fill:#be927b;fill-rule:nonzero;"/><path d="M142.939,202.54" style="fill:#be927b;fill-rule:nonzero;"/><path d="M139.299,199.79c-0.103,-0.02 -0.206,-0.04 -0.309,-0.06c0.101,0.02 0.19,0.04 0.309,0.06Z" style="fill:#be927b;fill-rule:nonzero;"/><path d="M142.939,199.6" style="fill:#be927b;fill-rule:nonzero;"/><path d="M138.499,199.61c-0.096,-0.02 -0.182,-0.05 -0.276,-0.07l-0.01,0c0,0 0.106,0.03 0.286,0.07Z" style="fill:#be927b;fill-rule:nonzero;"/><path d="M142.939,199.6" style="fill:#be927b;fill-rule:nonzero;"/><path d="M143.531,202.34" style="fill:#be927b;fill-rule:nonzero;"/><path d="M143.531,202.34" style="fill:#be927b;fill-rule:nonzero;"/><path d="M140.013,199.69c-0.1,-0.02 -0.199,-0.04 -0.299,-0.07c0.098,0.03 0.184,0.04 0.299,0.07Z" style="fill:#be927b;fill-rule:nonzero;"/><path d="M143.531,199.5" style="fill:#be927b;fill-rule:nonzero;"/><path d="M139.239,199.51c-0.092,-0.02 -0.175,-0.05 -0.266,-0.07l-0.01,0c0,0 0.103,0.03 0.276,0.07Z" style="fill:#be927b;fill-rule:nonzero;"/><path d="M143.531,199.5" style="fill:#be927b;fill-rule:nonzero;"/><path d="M133.274,202.08c-0.24,-3.2 8.912,0.67 11.918,0.77c2.397,0.08 9.6,-0.48 10.266,-0.73c5.035,-1.88 -0.275,5.35 -10.415,5.73c-4.646,0.18 -11.631,-3.83 -11.769,-5.77Z" style="fill:#f0d2ad;fill-rule:nonzero;"/><path d="M163.441,194.4c-5.804,-1.09 -18.031,0.07 -18.031,0.07c-10.083,1.68 -17.974,-0.11 -18.032,-0.04c-0.24,0.03 8.053,11.03 17.894,10.52c9.842,0.51 18.41,-10.52 18.169,-10.55Z" style="fill:#c2646e;fill-rule:nonzero;"/><path d="M151.241,192.08c-2.615,-0.29 -4.478,1.59 -5.819,1.46c-1.366,0.12 -3.139,-1.09 -5.77,-1.11c-3.7,-0.04 -5.506,-0.37 -12.274,2c0.241,0.46 4.577,2.97 12.698,3.11c0.115,0 2.294,1.24 5.391,1.22c1.939,-0.01 4.599,-1.31 4.703,-1.31c8.133,-0.13 13.099,-2.54 13.328,-2.99c-8.946,-2.78 -8.237,-2.42 -12.257,-2.38Z" style="fill:#d87475;fill-rule:nonzero;"/><path d="M214.808,64.27c-13.484,-24.86 -59.331,-44.22 -119.153,-22.96l0.019,-0.02c-3.365,1.98 -6.68,4.2 -9.711,6.68c-1.921,1.57 -3.642,3.13 -5.189,4.68c0,0 -1.007,0.91 -2.529,2.71c-2.61,2.99 -4.612,5.96 -6.162,8.94c-6.545,11.66 -12.94,31.85 -3.665,59.71l0.005,0c1.02,3.1 2.151,5.9 3.36,8.41c4.979,10.33 11.148,15.91 15.374,18.75c2.94,1.97 4.941,2.63 4.941,2.63c0,0 -2.315,-3.54 -4.483,-8.68c-0.035,-2.76 -0.37,-5.88 -1.173,-9.38c-1.129,-4.87 1.174,-16.7 7.194,-26.15c4.778,-7.51 11.907,-13.5 21.536,-13.35c0.911,0.02 1.845,0.09 2.802,0.22c1.103,0.15 2.226,0.35 3.39,0.66c4.598,1.23 8.394,2.56 11.298,4.3c3.484,2.09 6.826,5.46 9.705,8.94c5.268,6.37 8.961,13.11 8.961,13.11c0,0 14.714,25.17 43.527,15.24l0.006,0l0.167,-0.07c0.306,-0.11 0.617,-0.23 0.923,-0.35c5.74,-1.84 7.148,4.3 7.48,8.13c0.091,11.32 2.8,11.24 2.8,11.24c1.348,0 -0.096,-6.49 4.411,-10.95c3.892,-3.87 9.542,-15.64 11.004,-28.45c5.94,-33.58 -6.835,-53.98 -6.838,-53.99Z" style="fill:#32283f;fill-rule:nonzero;"/><path d="M198.757,300.18l0,0.21l-38.042,0l-0.061,-0.21l-27.652,0l-0.082,0.21l-38.042,0l0.02,-0.21c0.268,-4.82 0.659,-11.75 1.07,-15.53c1.523,-15.23 9.403,-20.23 11.625,-44.01c0.103,-0.06 0.205,-0.15 0.308,-0.21c3.868,-2.59 7.428,-4.01 9.876,-4.77c0.823,-0.27 1.523,-0.45 2.057,-0.56c0.885,-0.2 1.379,-0.26 1.379,-0.26c0.103,0 0.205,0 0.308,-0.03c5.206,10.46 14.176,24.63 24.751,25.74c0.186,0.04 0.371,0.04 0.556,0.06c0.185,-0.02 0.37,-0.02 0.535,-0.06c10.534,-1.11 19.484,-15.18 24.71,-25.63c0.246,0.04 0.576,0.1 0.967,0.2c1.008,0.23 2.51,0.64 4.32,1.36c2.16,0.84 4.773,2.1 7.53,3.95c0.391,0.27 0.803,0.54 1.193,0.82c2.305,23.25 10.061,28.31 11.584,43.4c0.411,3.78 0.802,10.71 1.09,15.53Z" style="fill:#30718a;fill-rule:nonzero;"/></g></svg>