<?xml version="1.0" encoding="UTF-8" standalone="no"?><!DOCTYPE svg PUBLIC "-//W3C//DTD SVG 1.1//EN" "http://www.w3.org/Graphics/SVG/1.1/DTD/svg11.dtd"><svg width="100%" height="100%" viewBox="0 0 300 301" version="1.1" xmlns="http://www.w3.org/2000/svg" xmlns:xlink="http://www.w3.org/1999/xlink" xml:space="preserve" style="fill-rule:evenodd;clip-rule:evenodd;stroke-linejoin:round;stroke-miterlimit:1.41421;"><g id="_61"><rect x="0.04" y="0.48" width="299.359" height="299.7" style="fill:#5ba6ac;fill-rule:nonzero;"/><path d="M223.72,203.26c2.2,2.18 11.36,5.39 11.36,5.39c0,0 -5.93,-2.21 -7.92,-10.6c-0.73,-3.06 -1.09,-4.8 -1.16,-6.03l-1.31,0c4.61,-5.72 7.2,-12.1 7.2,-18.85c0,-8.74 -2.74,-16.82 -10.23,-23.67c0.26,1.97 -1.42,6.04 -1.42,8.07c0,20.64 -13.81,36.09 -34.34,44.74c0.96,-2.27 1.53,-4.88 1.53,-7.7c0,-5.25 -1.92,-9.88 -4.85,-12.66c-4.81,-6.18 -14.55,-0.95 -25.82,-0.94c-11.26,-0.01 -21,-5.24 -25.82,0.94c-2.93,2.78 -4.85,7.41 -4.85,12.66c0,2.82 0.58,5.43 1.53,7.7c-20.52,-8.65 -34.33,-24.1 -34.33,-44.74c0,-2.03 -1.69,-6.1 -1.43,-8.07c-7.48,6.85 -10.23,14.93 -10.23,23.67c0,6.75 2.59,13.13 7.21,18.85l-1.32,0c-0.06,1.23 -0.43,2.97 -1.16,6.03c-1.99,8.39 -7.91,10.6 -7.91,10.6c0,0 9.15,-3.21 11.36,-5.39c1.07,-1.05 3.93,-3.98 4.79,-4.87l0.07,0.08c-0.5,0.96 -1.71,4.09 -0.02,10.11c2.21,7.87 11.28,13.17 11.28,13.17c0,0 -5.43,-6.26 -3.93,-13.1c0,0 -0.32,2.74 8.52,10.37c8.45,7.3 23.88,16.13 25.23,16.22c-0.12,-0.23 6.17,-7.13 6.06,-10.23c6.45,1.61 6.72,0.92 13.71,0.92c0.41,0 0.83,-0.02 1.24,-0.02c0.42,0 0.83,0.02 1.24,0.02c6.99,0 7.26,0.69 13.71,-0.92c-0.11,3.1 6.18,11.89 6.06,12.13c1.35,-0.09 16.78,-10.82 25.23,-18.12c8.84,-7.63 8.52,-10.37 8.52,-10.37c1.51,6.84 -3.93,13.1 -3.93,13.1c0,0 9.07,-5.3 11.29,-13.17c1.69,-6.02 0.48,-9.15 -0.02,-10.11l0.06,-0.08c0.86,0.89 3.72,3.82 4.8,4.87Z" style="fill:#231f20;fill-rule:nonzero;"/><path d="M156.78,187.56l0,112.62l-60.71,0c-0.99,-0.39 -1.48,-0.6 -1.48,-0.6c0,-7.9 0.63,-14.83 1.72,-20.92c0.93,-5 2.14,-9.47 3.58,-13.4c3.21,-8.76 7.51,-15.04 11.94,-19.54c1.46,-1.48 2.94,-2.78 4.38,-3.89c2.45,-1.89 4.83,-3.31 6.98,-4.34c1.11,-0.56 2.16,-1.01 3.12,-1.36c0.33,-0.12 0.64,-0.25 0.95,-0.35c0.37,-0.12 0.7,-0.22 1.03,-0.33c0.92,-0.29 1.68,-0.49 2.26,-0.59c0.76,-0.19 1.19,-0.23 1.19,-0.23c0.23,0 0.44,-0.02 0.66,-0.06c1.92,-0.31 3.46,-1.98 4.71,-4.63c0.93,-1.98 1.71,-4.51 2.33,-7.41c0.25,-1.15 0.45,-2.28 0.66,-3.54c0.28,-2.07 0.57,-4.26 0.84,-6.54c0.08,-1.38 0.23,-2.72 0.39,-4.16c0.54,-6.89 0.68,-14.44 0.68,-21.58c0,0 8.17,0.85 14.77,0.85Z" style="fill:#e0bd9a;fill-rule:nonzero;"/><path d="M219.25,299.58c0,0 -0.54,0.21 -1.44,0.6l-61.03,0l0,-112.62l0.17,0c6.56,0 14.81,-0.85 14.81,-0.85c0,7.1 0.14,14.53 0.7,21.44c0.14,1.34 0.29,2.72 0.39,4.05c0.25,2.39 0.54,4.61 0.89,6.71l0,0.04c0.1,0.95 0.28,1.79 0.45,2.68c0.6,2.92 1.32,5.51 2.2,7.57c1.09,2.57 2.43,4.36 4.03,5.08c0.52,0.23 1.05,0.35 1.63,0.35c0,0 0.29,0.04 0.8,0.14c0.84,0.17 2.28,0.5 4.14,1.18c0.28,0.1 0.57,0.2 0.88,0.33c0.17,0.06 0.33,0.12 0.49,0.2c0.44,0.17 0.87,0.37 1.32,0.58c2.26,1.03 4.86,2.49 7.57,4.54c1.03,0.77 2.06,1.63 3.11,2.58l0,0.02c4.98,4.54 9.98,11.23 13.58,21.06c1.4,3.81 2.59,8.11 3.5,12.9c1.15,6.22 1.81,13.32 1.81,21.42Z" style="fill:#efd0ad;fill-rule:nonzero;"/><path d="M173.93,218.7l0,0.05c-1.53,2.36 -6.67,9.16 -16.85,9.16l-0.1,0c-9.63,-0.05 -15.27,-7.04 -16.7,-9.11c0.3,-2.07 0.59,-4.24 0.84,-6.51c0.1,-1.33 0.25,-2.71 0.4,-4.14c4.69,1.19 9.83,1.93 15.26,2.02l0.2,0c5.64,-0.09 10.82,-0.88 15.67,-2.16c0.14,1.33 0.29,2.71 0.39,4.04c0.25,2.36 0.55,4.58 0.89,6.65Z" style="fill:#be987f;fill-rule:nonzero;"/><path d="M156.29,59.22c-64.34,0 -64.68,53.95 -61.82,89.27c-4.39,-8.37 -17.49,-5.81 -16.4,7.39c1.04,12.71 19.74,19.19 19.22,17.79c9.74,26.12 35.53,45.82 59,45.82l0.49,0l0,-160.27l-0.49,0Z" style="fill:#d2a686;fill-rule:nonzero;"/><path d="M82.17,150.32c3.16,-5.13 8.1,-2.91 9.29,-1.78c1.29,1.23 2.32,2.81 1.53,5.82c-0.44,1.72 -2.22,1.87 -1.83,4.43c0.5,2.91 1.83,3.05 2.62,3.74c0.74,0.64 1.68,1.14 2.13,2.37c0.49,1.23 0.54,2.51 0.29,3.64c-0.49,2.07 -3.5,0.4 -5.53,-0.49c-1.33,-0.64 -5.58,-4.24 -6.67,-5.42c-2.67,-3.05 -3.95,-8.96 -1.83,-12.31Z" style="fill:#ac8774;fill-rule:nonzero;"/><path d="M156.64,59.22c64.33,0 64.68,53.95 61.86,89.27c4.4,-8.37 17.45,-5.81 16.36,7.39c-0.99,12.71 -19.74,19.2 -19.22,17.79c-9.49,26.12 -35.53,45.82 -59,45.82c-0.15,0 -0.35,0 -0.35,0l-0.15,-160.27c0,0 0.35,0 0.5,0Z" style="fill:#ddb598;fill-rule:nonzero;"/><path d="M230.76,150.32c-3.17,-5.13 -8.06,-2.91 -9.29,-1.78c-1.29,1.23 -2.28,2.81 -1.53,5.82c0.44,1.72 2.22,1.87 1.82,4.43c-0.49,2.91 -1.82,3.05 -2.57,3.74c-0.74,0.64 -1.73,1.14 -2.17,2.37c-0.45,1.23 -0.54,2.51 -0.3,3.64c0.5,2.07 3.51,0.4 5.54,-0.49c1.38,-0.64 5.58,-4.24 6.67,-5.42c2.72,-3.05 3.95,-8.96 1.83,-12.31Z" style="fill:#ac8774;fill-rule:nonzero;"/><path d="M155.78,74.44c-21.14,0 -36.66,6.16 -46,18.28c-13.09,17 -12.6,42.91 -7.81,61.54c1.49,5.71 2.28,21.03 3.26,26.65c4.6,25.18 32.32,38.58 50.55,38.58c0,0 0.35,0 0.5,0l0,-145.05c-0.15,0 -0.3,0 -0.3,0l-0.2,0Z" style="fill:#e0bd9a;fill-rule:nonzero;"/><path d="M201.74,92.77c-9.29,-12.07 -24.61,-18.23 -45.46,-18.33l0,145.05c20.85,-0.25 45.8,-14.93 50.05,-38.58c1.04,-5.62 1.78,-20.94 3.27,-26.65c4.84,-18.58 5.33,-44.44 -7.86,-61.49Z" style="fill:#efd0ad;fill-rule:nonzero;"/><path d="M156.47,191.04" style="fill:#bc917b;fill-rule:nonzero;"/><path d="M156.47,191.04" style="fill:#bc917b;fill-rule:nonzero;"/><path d="M152.9,193.77c-0.1,-0.02 -0.2,-0.04 -0.3,-0.06c0.1,0.02 0.19,0.04 0.3,0.06Z" style="fill:#bc917b;fill-rule:nonzero;"/><path d="M156.47,193.58" style="fill:#bc917b;fill-rule:nonzero;"/><path d="M152.12,193.6c-0.09,-0.03 -0.18,-0.05 -0.27,-0.08l-0.01,0.01c0,0 0.1,0.03 0.28,0.07Z" style="fill:#bc917b;fill-rule:nonzero;"/><path d="M156.47,193.58" style="fill:#bc917b;fill-rule:nonzero;"/><path d="M144.28,174.96c-0.25,-5.01 9.17,-1.83 12.28,-1.68c2.45,0.13 9.92,-1.58 10.56,-1.14c4.4,2.98 -4.65,8.96 -10.72,8.96c-1.61,0 -11.98,-3.12 -12.12,-6.14Z" style="fill:#ddb598;fill-rule:nonzero;"/><path d="M138.32,74.81l-0.27,0.27l0.04,0.08c0.09,-0.13 0.14,-0.26 0.23,-0.35Z" style="fill:#432e1b;fill-rule:nonzero;"/><path d="M97.35,125.91" style="fill:#432e1b;fill-rule:nonzero;"/><path d="M156.74,193.6" style="fill:#ba907b;fill-rule:nonzero;"/><path d="M156.74,193.6" style="fill:#ba907b;fill-rule:nonzero;"/><path d="M153.08,190.83c-0.1,-0.02 -0.21,-0.04 -0.31,-0.06c0.1,0.02 0.19,0.04 0.31,0.06Z" style="fill:#ba907b;fill-rule:nonzero;"/><path d="M156.74,190.64" style="fill:#ba907b;fill-rule:nonzero;"/><path d="M152.27,190.65c-0.09,-0.02 -0.18,-0.05 -0.27,-0.08l-0.01,0.01c0,0 0.1,0.03 0.28,0.07Z" style="fill:#ba907b;fill-rule:nonzero;"/><path d="M156.74,190.64" style="fill:#ba907b;fill-rule:nonzero;"/><path d="M110.13,131.05c0,0 4.9,20.2 13.33,21.85c8.43,1.65 17.55,-1.63 17.55,-1.63c0,0 0.87,-23.73 -3.45,-26.84c-4.31,-3.11 -14.25,-7.61 -27.43,6.62Z" style="fill:#fff;fill-rule:nonzero;"/><path d="M141.02,151.21c0,0 -0.2,0.06 -0.63,0.24c-0.11,-7.28 -0.78,-17.28 -3.47,-19.2c-4.01,-2.94 -13.05,-7.08 -25.14,4.24c-1.1,-3.13 -1.65,-5.5 -1.65,-5.5c13.21,-14.26 23.16,-9.77 27.44,-6.65c4.32,3.11 3.45,26.87 3.45,26.87Z" style="fill:#d6b496;fill-rule:nonzero;"/><path d="M136.03,140.93c0,4.59 -3.71,8.31 -8.3,8.31c-4.58,0 -8.29,-3.72 -8.29,-8.31c0,-4.6 3.71,-8.32 8.29,-8.32c4.59,0 8.3,3.72 8.3,8.32Z" style="fill:#482315;fill-rule:nonzero;"/><path d="M127.35,146.47c-2.4,-0.2 -4.23,-2.63 -4.02,-5.29c0.22,-2.67 2.43,-4.75 4.82,-4.55c2.4,0.2 4.23,2.62 4.02,5.28c-0.22,2.67 -2.43,4.76 -4.82,4.56Z" style="fill:#7e3a22;fill-rule:nonzero;"/><path d="M127.56,145.5c-1.67,-0.14 -3.4,-1.97 -3.22,-4.23c0.19,-2.27 2.19,-3.8 3.86,-3.66c1.67,0.14 3.39,1.98 3.21,4.24c-0.18,2.27 -2.19,3.79 -3.85,3.65Z" style="fill:#211a10;fill-rule:nonzero;"/><path d="M126.21,139.93c-0.07,0.82 -0.91,1.41 -1.87,1.33c-0.96,-0.08 -1.68,-0.81 -1.61,-1.62c0.07,-0.82 0.9,-1.42 1.85,-1.34c0.97,0.08 1.69,0.81 1.63,1.63Z" style="fill:#fff;fill-rule:nonzero;"/><path d="M131.58,144.65c-0.03,0.41 -0.45,0.71 -0.93,0.67c-0.48,-0.04 -0.84,-0.41 -0.81,-0.81c0.04,-0.41 0.46,-0.71 0.93,-0.67c0.48,0.04 0.85,0.4 0.81,0.81Z" style="fill:#fff;fill-rule:nonzero;"/><path d="M156.88,190.55" style="fill:#ba907b;fill-rule:nonzero;"/><path d="M156.88,190.55" style="fill:#ba907b;fill-rule:nonzero;"/><path d="M153.21,193.21c-0.1,-0.02 -0.21,-0.04 -0.31,-0.06c0.1,0.02 0.19,0.04 0.31,0.06Z" style="fill:#ba907b;fill-rule:nonzero;"/><path d="M156.88,193.02" style="fill:#ba907b;fill-rule:nonzero;"/><path d="M152.41,193.03c-0.1,-0.02 -0.19,-0.05 -0.28,-0.07l-0.01,0c0,0 0.11,0.03 0.29,0.07Z" style="fill:#ba907b;fill-rule:nonzero;"/><path d="M156.88,193.02" style="fill:#ba907b;fill-rule:nonzero;"/><path d="M156.76,190.18" style="fill:#bc917b;fill-rule:nonzero;"/><path d="M156.76,190.18" style="fill:#bc917b;fill-rule:nonzero;"/><path d="M152.83,192.64c-0.11,-0.02 -0.22,-0.04 -0.33,-0.07c0.11,0.03 0.21,0.05 0.33,0.07Z" style="fill:#bc917b;fill-rule:nonzero;"/><path d="M156.76,192.43" style="fill:#bc917b;fill-rule:nonzero;"/><path d="M151.97,192.45c-0.1,-0.03 -0.2,-0.06 -0.3,-0.08l-0.01,0c0,0 0.12,0.03 0.31,0.08Z" style="fill:#bc917b;fill-rule:nonzero;"/><path d="M156.76,192.43" style="fill:#bc917b;fill-rule:nonzero;"/><path d="M156.51,189.33" style="fill:#bc917b;fill-rule:nonzero;"/><path d="M156.51,189.33" style="fill:#bc917b;fill-rule:nonzero;"/><path d="M152.59,191.8c-0.12,-0.02 -0.23,-0.05 -0.34,-0.07c0.11,0.02 0.21,0.04 0.34,0.07Z" style="fill:#bc917b;fill-rule:nonzero;"/><path d="M156.51,191.59" style="fill:#bc917b;fill-rule:nonzero;"/><path d="M151.72,191.61c-0.1,-0.03 -0.19,-0.06 -0.29,-0.09l-0.02,0.01c0,0 0.12,0.03 0.31,0.08Z" style="fill:#bc917b;fill-rule:nonzero;"/><path d="M156.51,191.59" style="fill:#bc917b;fill-rule:nonzero;"/><path d="M157.15,189.12" style="fill:#bc917b;fill-rule:nonzero;"/><path d="M157.15,189.12" style="fill:#bc917b;fill-rule:nonzero;"/><path d="M153.36,191.68c-0.11,-0.02 -0.22,-0.04 -0.33,-0.06c0.11,0.02 0.2,0.04 0.33,0.06Z" style="fill:#bc917b;fill-rule:nonzero;"/><path d="M157.15,191.48" style="fill:#bc917b;fill-rule:nonzero;"/><path d="M152.52,191.5c-0.1,-0.03 -0.19,-0.06 -0.29,-0.08l-0.01,0c0,0 0.11,0.03 0.3,0.08Z" style="fill:#bc917b;fill-rule:nonzero;"/><path d="M157.15,191.48" style="fill:#bc917b;fill-rule:nonzero;"/><path d="M202.94,130.37c0,0 -4.91,20.2 -13.34,21.85c-8.43,1.64 -17.55,-1.63 -17.55,-1.63c0,0 -0.87,-23.74 3.45,-26.84c4.31,-3.12 14.25,-7.62 27.44,6.62Z" style="fill:#fff;fill-rule:nonzero;"/><path d="M172.04,150.52c0,0 0.2,0.06 0.63,0.24c0.11,-7.28 0.78,-17.28 3.47,-19.2c4.01,-2.94 13.05,-7.08 25.14,4.25c1.1,-3.13 1.65,-5.51 1.65,-5.51c-13.21,-14.26 -23.16,-9.77 -27.44,-6.65c-4.32,3.12 -3.45,26.87 -3.45,26.87Z" style="fill:#d6b496;fill-rule:nonzero;"/><path d="M177.03,140.24c0,4.59 3.72,8.32 8.3,8.32c4.58,0 8.29,-3.73 8.29,-8.32c0,-4.6 -3.71,-8.32 -8.29,-8.32c-4.58,0 -8.3,3.72 -8.3,8.32Z" style="fill:#482315;fill-rule:nonzero;"/><path d="M185.71,145.78c2.4,-0.2 4.24,-2.62 4.02,-5.29c-0.22,-2.66 -2.42,-4.75 -4.82,-4.55c-2.4,0.2 -4.23,2.62 -4.02,5.29c0.22,2.66 2.43,4.75 4.82,4.55Z" style="fill:#7e3a22;fill-rule:nonzero;"/><path d="M185.5,144.82c1.67,-0.14 3.4,-1.98 3.22,-4.24c-0.19,-2.27 -2.19,-3.8 -3.86,-3.66c-1.67,0.14 -3.39,1.99 -3.21,4.25c0.19,2.26 2.19,3.79 3.85,3.65Z" style="fill:#211a10;fill-rule:nonzero;"/><path d="M186.85,139.24c0.07,0.82 0.91,1.42 1.87,1.34c0.96,-0.08 1.68,-0.81 1.62,-1.63c-0.07,-0.82 -0.9,-1.41 -1.86,-1.34c-0.97,0.08 -1.69,0.81 -1.63,1.63Z" style="fill:#fff;fill-rule:nonzero;"/><path d="M181.48,143.97c0.03,0.4 0.45,0.7 0.93,0.66c0.48,-0.03 0.84,-0.4 0.81,-0.81c-0.04,-0.41 -0.45,-0.71 -0.93,-0.66c-0.48,0.03 -0.85,0.4 -0.81,0.81Z" style="fill:#fff;fill-rule:nonzero;"/><path d="M146.07,130.73c-0.07,-0.1 -1.6,-2.43 -4.72,-4.83c-1.96,-1.51 -3.88,-2.66 -5.87,-3.51c-2.42,-1.02 -5.03,-1.74 -7.55,-2.09c-2.29,-0.25 -4.82,-0.19 -7.77,0.21c-2.25,0.43 -4.45,1.11 -6.32,1.93c-1.33,0.46 -2.38,1.11 -3.23,1.63c-0.32,0.2 -0.61,0.38 -0.91,0.54l-4.03,2.53l4.64,-1.09c0.22,-0.05 0.45,-0.11 0.7,-0.18c0.96,-0.26 2.16,-0.57 3.56,-0.78c0.33,-0.05 0.66,-0.11 1,-0.18c0.58,-0.12 1.19,-0.24 1.82,-0.27c0.7,-0.05 1.43,-0.1 2.18,-0.15l0.97,-0.07c2.57,-0.04 4.74,0.16 6.67,0.6c2.11,0.37 4.27,1.05 6.26,1.97c1.87,0.9 3.67,1.8 5.08,2.83c2.83,1.9 4.41,3.48 4.42,3.49c0.39,0.4 0.91,0.6 1.43,0.6c0.38,0 0.77,-0.11 1.1,-0.33c0.93,-0.61 1.2,-1.87 0.6,-2.79l-0.03,-0.06Z" style="fill:#030405;fill-rule:nonzero;"/><path d="M203.76,124.59c-0.26,-0.14 -0.56,-0.32 -0.88,-0.52c-0.84,-0.52 -1.89,-1.17 -3.19,-1.61c-1.9,-0.84 -4.1,-1.52 -6.38,-1.95c-2.93,-0.4 -5.46,-0.46 -7.75,-0.21c-2.52,0.35 -5.12,1.07 -7.55,2.09c-1.96,0.84 -3.93,2.02 -5.86,3.51c-3.07,2.36 -4.6,4.65 -4.71,4.83l-0.03,0.04c-0.52,0.8 -0.41,1.87 0.26,2.54c0.38,0.39 0.89,0.6 1.43,0.6c0.54,0 1.04,-0.21 1.42,-0.6l0.02,-0.01c0.15,-0.15 1.68,-1.65 4.43,-3.49c1.38,-1.02 3.18,-1.92 5.05,-2.81c1.99,-0.93 4.16,-1.61 6.29,-1.98c1.9,-0.44 4.08,-0.63 6.61,-0.61l1.02,0.08c0.75,0.05 1.47,0.1 2.18,0.15c0.62,0.03 1.22,0.15 1.81,0.27c0.34,0.07 0.67,0.13 1,0.18c1.4,0.21 2.59,0.52 3.55,0.78c0.25,0.07 0.49,0.13 0.71,0.18l4.63,1.1l-4.06,-2.56Z" style="fill:#030405;fill-rule:nonzero;"/><path d="M155.59,198.5" style="fill:#be927b;fill-rule:nonzero;"/><path d="M155.59,198.5" style="fill:#be927b;fill-rule:nonzero;"/><path d="M151.75,195.61c-0.1,-0.03 -0.21,-0.05 -0.32,-0.07c0.11,0.02 0.2,0.04 0.32,0.07Z" style="fill:#be927b;fill-rule:nonzero;"/><path d="M155.59,195.4" style="fill:#be927b;fill-rule:nonzero;"/><path d="M150.91,195.42c-0.1,-0.03 -0.19,-0.06 -0.29,-0.08l-0.01,0c0,0 0.11,0.03 0.3,0.08Z" style="fill:#be927b;fill-rule:nonzero;"/><path d="M155.59,195.4" style="fill:#be927b;fill-rule:nonzero;"/><path d="M144.39,199.77c-0.24,-3.24 9.02,0.68 12.06,0.78c2.42,0.08 9.71,-0.48 10.38,-0.74c5.1,-1.91 -0.27,5.43 -10.53,5.81c-4.7,0.19 -11.77,-3.88 -11.91,-5.85Z" style="fill:#f0d2ad;fill-rule:nonzero;"/><path d="M174.54,193.51c-2.52,-0.12 -5.1,1.98 -8.12,1.66c-0.13,-0.06 -0.19,-0.06 -0.32,-0.06c-0.69,-0.13 -1.38,0 -2.13,0.18c-0.94,0.2 -1.89,0.58 -2.78,0.89c-1.51,0.49 -3.21,0.89 -4.96,0.75l0,0.02l-0.1,-0.02l-0.1,0.02l0,-0.02c-1.75,0.14 -3.45,-0.26 -4.96,-0.75c-0.89,-0.31 -1.84,-0.69 -2.78,-0.89c-0.75,-0.18 -1.44,-0.31 -2.13,-0.18c-0.13,0 -0.2,0 -0.32,0.06c-3.02,0.32 -5.6,-1.78 -8.12,-1.66c-0.69,0.06 -1.7,-0.12 -2.26,-0.12c0.12,0.06 0.25,0.12 0.38,0.18c7.16,3.51 13.35,10.07 20.19,9.86l0.2,0c6.84,0.21 13.03,-6.35 20.19,-9.86c0.13,-0.06 0.26,-0.12 0.38,-0.18c-0.56,0 -1.57,0.18 -2.26,0.12Z" style="fill:#dcbf9e;fill-rule:nonzero;"/><path d="M176.64,193.31c0,0 -7.28,-2.81 -12.47,-1.16c0,0 -1.93,0.75 -3.92,1.21c-1.22,0.48 -2.69,0.62 -4.12,0.56c-1.09,-0.04 -2.13,-0.18 -2.98,-0.33c-0.28,-0.05 -0.56,-0.1 -0.85,-0.17c-0.13,-0.02 -0.22,-0.04 -0.33,-0.07c-0.17,-0.04 -0.34,-0.07 -0.51,-0.11c-0.19,-0.05 -0.3,-0.08 -0.3,-0.08l0.01,-0.01c-1.66,-0.45 -3.08,-1 -3.08,-1c-5.19,-1.65 -12.47,1.16 -12.47,1.16c-0.1,0.05 -0.16,0.08 -0.16,0.08c0.56,0 1.57,0.18 2.26,0.12c2.52,-0.12 5.1,1.98 8.12,1.66c0.12,-0.06 0.19,-0.06 0.32,-0.06c0.69,-0.13 1.38,0 2.13,0.18c0.94,0.2 1.89,0.58 2.78,0.89c1.51,0.49 3.21,0.89 4.96,0.75l0,0.02l0.1,-0.02l0.1,0.02l0,-0.02c1.75,0.14 3.45,-0.26 4.96,-0.75c0.89,-0.31 1.84,-0.69 2.78,-0.89c0.75,-0.18 1.44,-0.31 2.13,-0.18c0.13,0 0.19,0 0.32,0.06c3.02,0.32 5.6,-1.78 8.12,-1.66c0.69,0.06 1.7,-0.12 2.26,-0.12c0,0 -0.06,-0.03 -0.16,-0.08Z" style="fill:#c69f83;fill-rule:nonzero;"/><path d="M143.89,195.03c0.13,0.03 13.66,4.16 24.23,0.09l-1.22,-0.83l-14.29,0l-8.72,0.74Z" style="fill:#c69f83;fill-rule:nonzero;"/><path d="M101.01,150.71c-0.9,-2.92 -1.33,-5.98 -1.46,-9.13c-0.01,-0.19 -0.02,-0.39 -0.03,-0.59c0.39,3.34 0.93,6.59 1.6,9.68c-0.03,0.01 -0.07,0.02 -0.11,0.04Z" style="fill:#766359;fill-rule:nonzero;"/><path d="M101.12,150.67c-0.67,-3.09 -1.21,-6.34 -1.6,-9.68c-0.01,-0.66 0.02,-1.31 0.09,-1.93c0.02,-0.5 0.09,-0.99 0.22,-1.46c0.13,-0.68 0.29,-1.27 0.41,-1.71c0.02,-0.15 0.07,-0.31 0.13,-0.48l0.09,-0.22c0.03,-0.11 0.05,-0.16 0.05,-0.16l0.01,0c1.59,-4.09 4.86,-6.19 9.12,-7.17c1.55,-0.35 3.11,-0.64 4.67,-0.87c-1.36,1.13 -2.75,2.46 -4.18,4c0,0 0.01,0.02 0.01,0.05l-0.01,0.01c0,0 2.32,9.59 6.53,16.09c-5.57,0.7 -10.8,1.98 -15.54,3.53Zm44.84,-1.03c-1.64,-0.52 -3.26,-0.97 -4.88,-1.35c0.05,-4.12 -0.02,-11.74 -0.95,-17.35c1.83,1.36 2.83,2.36 2.84,2.37c0.39,0.4 0.91,0.6 1.43,0.6c0.38,0 0.77,-0.11 1.1,-0.33c0.14,-0.09 0.26,-0.19 0.37,-0.31c0.87,1.17 1.48,2.51 1.76,4.09c0.63,3.59 0.06,7.09 -1.06,10.51c-0.19,0.59 -0.4,1.19 -0.61,1.77Z" style="fill:#7b6c60;fill-rule:nonzero;"/><path d="M140.3,148.11c-2.31,-0.51 -4.6,-0.89 -6.86,-1.14c1.59,-1.52 2.59,-3.67 2.59,-6.04c0,-4.6 -3.71,-8.32 -8.3,-8.32c-4.58,0 -8.29,3.72 -8.29,8.32c0,2.22 0.87,4.25 2.29,5.74c-1.72,0.1 -3.41,0.26 -5.07,0.47c-4.21,-6.5 -6.53,-16.09 -6.53,-16.09l0.01,-0.01c0.08,0.33 0.63,2.57 1.64,5.45c6.07,-5.68 11.36,-7.47 15.65,-7.47c4.25,0 7.49,1.77 9.49,3.23c2.3,1.64 3.12,9.16 3.38,15.86Z" style="fill:#858285;fill-rule:nonzero;"/><path d="M141.08,148.29c-0.26,-0.06 -0.52,-0.12 -0.78,-0.18c-0.26,-6.7 -1.08,-14.22 -3.38,-15.86c-2,-1.46 -5.24,-3.23 -9.49,-3.23c-4.29,0 -9.58,1.79 -15.65,7.47c-1.01,-2.88 -1.56,-5.12 -1.64,-5.45c0,-0.03 -0.01,-0.05 -0.01,-0.05c1.43,-1.54 2.82,-2.87 4.18,-4c3.01,-0.43 6.03,-0.63 9.07,-0.63c2.67,0 5.35,0.16 8.04,0.43c0.73,0.08 1.47,0.17 2.2,0.28c1.82,0.87 3.56,1.74 4.93,2.75c0.58,0.39 1.1,0.76 1.58,1.12c0.93,5.61 1,13.23 0.95,17.35Z" style="fill:#77685f;fill-rule:nonzero;"/><path d="M133.44,146.97c-2.55,-0.29 -5.07,-0.42 -7.54,-0.42c-0.01,0 -0.02,0 -0.03,0c0,0 -0.01,0 -0.02,0c-1.39,0 -2.76,0.04 -4.12,0.12c-1.42,-1.49 -2.29,-3.52 -2.29,-5.74c0,-4.6 3.71,-8.32 8.29,-8.32c4.59,0 8.3,3.72 8.3,8.32c0,2.37 -1,4.52 -2.59,6.04Zm-10.08,-6.06c-0.01,0.09 -0.02,0.18 -0.03,0.27c-0.21,2.66 1.62,5.09 4.02,5.29c0.11,0.01 0.21,0.01 0.32,0.01c1.06,0 2.07,-0.44 2.86,-1.18c0.04,0.01 0.08,0.02 0.12,0.02c0.03,0 0.06,0 0.09,0c0.44,0 0.81,-0.28 0.84,-0.67c0.02,-0.17 -0.04,-0.33 -0.14,-0.46c0.4,-0.67 0.66,-1.45 0.73,-2.28c0.21,-2.66 -1.62,-5.08 -4.02,-5.28c-0.1,-0.01 -0.21,-0.02 -0.32,-0.02c-1.29,0 -2.5,0.66 -3.34,1.69c-0.02,-0.01 -0.05,-0.01 -0.07,-0.01c-0.89,0 -1.63,0.58 -1.69,1.35c-0.04,0.5 0.21,0.96 0.63,1.27Z" style="fill:#35201a;fill-rule:nonzero;"/><path d="M127.67,146.48c-0.11,0 -0.21,0 -0.32,-0.01c-2.4,-0.2 -4.23,-2.63 -4.02,-5.29c0.01,-0.09 0.02,-0.18 0.03,-0.27c0.27,0.19 0.61,0.32 0.98,0.35l0,0.01c-0.18,2.26 1.55,4.09 3.22,4.23c0.07,0.01 0.14,0.01 0.21,0.01c0.7,0 1.46,-0.28 2.09,-0.78c0.08,0.28 0.34,0.51 0.67,0.57c-0.79,0.74 -1.8,1.18 -2.86,1.18Zm3.77,-2.29c-0.14,-0.19 -0.39,-0.33 -0.67,-0.35c-0.02,0 -0.05,0 -0.07,0c0.38,-0.56 0.65,-1.23 0.71,-1.99c0.18,-2.26 -1.54,-4.1 -3.21,-4.24c-0.07,-0.01 -0.14,-0.01 -0.21,-0.01c-0.83,0 -1.72,0.39 -2.41,1.06c-0.27,-0.2 -0.62,-0.33 -1,-0.36c-0.03,0 -0.06,0 -0.09,0c0.84,-1.03 2.05,-1.69 3.34,-1.69c0.11,0 0.22,0.01 0.32,0.02c2.4,0.2 4.23,2.62 4.02,5.28c-0.07,0.83 -0.33,1.61 -0.73,2.28Z" style="fill:#512f24;fill-rule:nonzero;"/><path d="M127.77,145.51c-0.07,0 -0.14,0 -0.21,-0.01c-1.67,-0.14 -3.4,-1.97 -3.22,-4.23l0,-0.01c0.06,0.01 0.12,0.01 0.17,0.01c0.89,0 1.63,-0.57 1.7,-1.34c0.04,-0.5 -0.21,-0.96 -0.63,-1.27c0.69,-0.67 1.58,-1.06 2.41,-1.06c0.07,0 0.14,0 0.21,0.01c1.67,0.14 3.39,1.98 3.21,4.24c-0.06,0.76 -0.33,1.43 -0.71,1.99l-0.01,0c-0.44,0 -0.81,0.29 -0.85,0.67c0,0.07 0,0.15 0.02,0.22c-0.63,0.5 -1.39,0.78 -2.09,0.78Z" style="fill:#1d1916;fill-rule:nonzero;"/><path d="M124.51,141.27c-0.05,0 -0.11,0 -0.17,-0.01c-0.37,-0.03 -0.71,-0.16 -0.98,-0.35c-0.42,-0.31 -0.67,-0.77 -0.63,-1.27c0.06,-0.77 0.8,-1.35 1.69,-1.35c0.02,0 0.05,0 0.07,0.01c0.03,0 0.06,0 0.09,0c0.38,0.03 0.73,0.16 1,0.36c0.42,0.31 0.67,0.77 0.63,1.27c-0.07,0.77 -0.81,1.34 -1.7,1.34Z" style="fill:#858285;fill-rule:nonzero;"/><path d="M130.74,145.32c-0.03,0 -0.06,0 -0.09,0c-0.04,0 -0.08,-0.01 -0.12,-0.02c-0.33,-0.06 -0.59,-0.29 -0.67,-0.57c-0.02,-0.07 -0.02,-0.15 -0.02,-0.22c0.04,-0.38 0.41,-0.67 0.85,-0.67l0.08,0c0.28,0.02 0.53,0.16 0.67,0.35c0.1,0.13 0.16,0.29 0.14,0.46c-0.03,0.39 -0.4,0.67 -0.84,0.67Z" style="fill:#858285;fill-rule:nonzero;"/><path d="M144.4,133.91c-0.52,0 -1.04,-0.2 -1.43,-0.6c-0.01,-0.01 -1.01,-1.01 -2.84,-2.37c-0.48,-0.36 -1,-0.73 -1.58,-1.12c-1.37,-1.01 -3.11,-1.88 -4.93,-2.75c3.07,0.45 6.04,1.26 8.7,3c1.41,0.91 2.62,1.96 3.55,3.2c-0.11,0.12 -0.23,0.22 -0.37,0.31c-0.33,0.22 -0.72,0.33 -1.1,0.33Z" style="fill:#090b0c;fill-rule:nonzero;"/><path d="M213.15,152.03c-0.11,-0.04 -0.22,-0.08 -0.33,-0.12c-0.16,-0.06 -0.33,-0.12 -0.49,-0.19c-0.03,0 -0.05,-0.01 -0.08,-0.02c-0.61,-0.23 -1.24,-0.45 -1.88,-0.66c1.29,-5.77 2.15,-12.1 2.32,-18.58c0.55,0.76 1.02,1.61 1.39,2.57l0.01,0c0,0 0.02,0.05 0.05,0.16l0.09,0.22c0.06,0.17 0.11,0.33 0.13,0.48c0.12,0.44 0.27,1.03 0.41,1.71c0.13,0.47 0.2,0.96 0.22,1.46c0.09,0.81 0.12,1.67 0.06,2.52c-0.15,3.63 -0.69,7.14 -1.9,10.45Z" style="fill:#7a6960;fill-rule:nonzero;"/><path d="M210.37,151.04c-4.46,-1.52 -9.38,-2.81 -14.62,-3.62c4.61,-6.47 7.19,-17.05 7.19,-17.05c-0.01,-0.01 -0.02,-0.01 -0.02,-0.02c0.01,-0.03 0.01,-0.05 0.01,-0.05c-1.2,-1.29 -2.37,-2.43 -3.51,-3.43c1.85,0.24 3.7,0.57 5.54,0.99c3.26,0.75 5.94,2.15 7.73,4.6c-0.17,6.48 -1.03,12.81 -2.32,18.58Zm-42.12,-2.49c-0.07,-0.23 -0.15,-0.46 -0.22,-0.68c-1.12,-3.42 -1.69,-6.92 -1.06,-10.51c0.24,-1.36 0.73,-2.54 1.41,-3.58c0.22,0.09 0.47,0.13 0.72,0.13c0.54,0 1.04,-0.21 1.42,-0.6l0.02,-0.01c0.1,-0.11 0.86,-0.85 2.22,-1.9c-0.77,5.52 -0.82,12.5 -0.78,16.32c-1.1,0.21 -2.21,0.45 -3.32,0.72c-0.01,0.01 -0.03,0.01 -0.04,0.01c-0.07,0.02 -0.14,0.04 -0.2,0.05c-0.06,0.02 -0.11,0.03 -0.17,0.05Z" style="fill:#807368;fill-rule:nonzero;"/><path d="M172.75,147.58c0.25,-6.74 1.08,-14.37 3.39,-16.02c2,-1.46 5.25,-3.23 9.5,-3.23c4.28,0 9.58,1.79 15.64,7.48c1.01,-2.88 1.56,-5.12 1.64,-5.46c0,0.01 0.01,0.01 0.02,0.02c0,0 -2.58,10.58 -7.19,17.05c-1.74,-0.26 -3.51,-0.48 -5.32,-0.63c1.94,-1.52 3.19,-3.89 3.19,-6.55c0,-4.6 -3.71,-8.32 -8.29,-8.32c-4.58,0 -8.3,3.72 -8.3,8.32c0,2.6 1.19,4.92 3.06,6.45c-2.41,0.16 -4.86,0.44 -7.34,0.89Z" style="fill:#858285;fill-rule:nonzero;"/><path d="M171.98,147.72c-0.04,-3.82 0.01,-10.8 0.78,-16.32c0.61,-0.48 1.35,-1.02 2.21,-1.59c1.19,-0.88 2.69,-1.67 4.29,-2.44c1.29,-0.27 2.6,-0.44 3.92,-0.58c2.69,-0.27 5.37,-0.43 8.04,-0.43c2.74,0 5.48,0.16 8.2,0.51c1.14,1 2.31,2.14 3.51,3.43c0,0 0,0.02 -0.01,0.05c-0.08,0.34 -0.63,2.58 -1.64,5.46c-6.06,-5.69 -11.36,-7.48 -15.64,-7.48c-4.25,0 -7.5,1.77 -9.5,3.23c-2.31,1.65 -3.14,9.28 -3.39,16.02c-0.25,0.04 -0.51,0.09 -0.77,0.14Z" style="fill:#77685f;fill-rule:nonzero;"/><path d="M190.43,146.79c-1.93,-0.15 -3.9,-0.24 -5.89,-0.24c-0.01,0 -0.02,0 -0.03,0l-0.01,0c-1.46,0 -2.93,0.04 -4.41,0.14c-1.87,-1.53 -3.06,-3.85 -3.06,-6.45c0,-4.6 3.72,-8.32 8.3,-8.32c4.58,0 8.29,3.72 8.29,8.32c0,2.66 -1.25,5.03 -3.19,6.55Zm-7.9,-2.17c0.79,0.73 1.8,1.17 2.86,1.17c0.11,0 0.21,0 0.32,-0.01c2.4,-0.2 4.24,-2.62 4.02,-5.29c-0.01,-0.09 -0.02,-0.18 -0.03,-0.27c0.42,-0.31 0.68,-0.77 0.64,-1.27c-0.07,-0.77 -0.81,-1.34 -1.69,-1.34c-0.03,0 -0.05,0 -0.08,0c-0.84,-1.03 -2.05,-1.68 -3.34,-1.68c-0.11,0 -0.21,0 -0.32,0.01c-2.4,0.2 -4.23,2.62 -4.02,5.29c0.07,0.83 0.33,1.6 0.73,2.27c-0.1,0.13 -0.16,0.3 -0.14,0.47c0.03,0.38 0.4,0.67 0.84,0.67c0.03,0 0.06,0 0.09,-0.01c0.04,0 0.08,-0.01 0.12,-0.01Z" style="fill:#35201a;fill-rule:nonzero;"/><path d="M185.39,145.79c-1.06,0 -2.07,-0.44 -2.86,-1.17c0.33,-0.07 0.59,-0.3 0.67,-0.58c0.63,0.5 1.39,0.79 2.09,0.79c0.07,0 0.14,-0.01 0.21,-0.01c1.67,-0.14 3.4,-1.98 3.22,-4.24c0.37,-0.03 0.71,-0.16 0.98,-0.36c0.01,0.09 0.02,0.18 0.03,0.27c0.22,2.67 -1.62,5.09 -4.02,5.29c-0.11,0.01 -0.21,0.01 -0.32,0.01Zm-3.77,-2.29c-0.4,-0.67 -0.66,-1.44 -0.73,-2.27c-0.21,-2.67 1.62,-5.09 4.02,-5.29c0.11,-0.01 0.21,-0.01 0.32,-0.01c1.29,0 2.5,0.65 3.34,1.68c-0.03,0 -0.06,0 -0.09,0c-0.38,0.03 -0.73,0.17 -1,0.37c-0.69,-0.68 -1.58,-1.07 -2.41,-1.07c-0.07,0 -0.14,0.01 -0.21,0.01c-1.67,0.14 -3.39,1.99 -3.21,4.25c0.06,0.75 0.33,1.42 0.71,1.98c-0.02,0 -0.05,0 -0.07,0.01c-0.28,0.02 -0.52,0.15 -0.67,0.34Z" style="fill:#512f24;fill-rule:nonzero;"/><path d="M185.29,144.83c-0.7,0 -1.46,-0.29 -2.09,-0.79c0.02,-0.07 0.02,-0.15 0.02,-0.22c-0.03,-0.38 -0.4,-0.67 -0.84,-0.67c-0.01,0 -0.01,0 -0.02,0c-0.38,-0.56 -0.65,-1.23 -0.71,-1.98c-0.18,-2.26 1.54,-4.11 3.21,-4.25c0.07,0 0.14,-0.01 0.21,-0.01c0.83,0 1.72,0.39 2.41,1.07c-0.41,0.3 -0.66,0.77 -0.63,1.26c0.07,0.77 0.81,1.34 1.7,1.34c0.05,0 0.11,0 0.17,0c0.18,2.26 -1.55,4.1 -3.22,4.24c-0.07,0 -0.14,0.01 -0.21,0.01Z" style="fill:#1d1916;fill-rule:nonzero;"/><path d="M188.55,140.58c-0.89,0 -1.63,-0.57 -1.7,-1.34c-0.03,-0.49 0.22,-0.96 0.63,-1.26c0.27,-0.2 0.62,-0.34 1,-0.37l0.17,0c0.88,0 1.62,0.57 1.69,1.34c0.04,0.5 -0.22,0.96 -0.64,1.27c-0.27,0.2 -0.61,0.33 -0.98,0.36c-0.06,0 -0.12,0 -0.17,0Z" style="fill:#858285;fill-rule:nonzero;"/><path d="M182.32,144.64c-0.44,0 -0.81,-0.29 -0.84,-0.67c-0.02,-0.17 0.04,-0.34 0.14,-0.47c0.15,-0.19 0.39,-0.32 0.67,-0.34c0.02,-0.01 0.05,-0.01 0.07,-0.01c0.01,0 0.01,0 0.02,0c0.44,0 0.81,0.29 0.84,0.67c0,0.07 0,0.15 -0.02,0.22c-0.08,0.28 -0.34,0.51 -0.67,0.58c-0.04,0 -0.08,0.01 -0.12,0.01c-0.03,0.01 -0.06,0.01 -0.09,0.01Z" style="fill:#858285;fill-rule:nonzero;"/><path d="M169.1,133.91c-0.25,0 -0.5,-0.04 -0.72,-0.13c0.96,-1.47 2.31,-2.67 3.9,-3.71c2.16,-1.41 4.52,-2.21 6.98,-2.7c-1.6,0.77 -3.1,1.56 -4.29,2.44c-0.86,0.57 -1.6,1.11 -2.21,1.59c-1.36,1.05 -2.12,1.79 -2.22,1.9l-0.02,0.01c-0.38,0.39 -0.88,0.6 -1.42,0.6Z" style="fill:#090b0c;fill-rule:nonzero;"/><path d="M101.38,151.82c-0.13,-0.37 -0.25,-0.74 -0.37,-1.11c0.04,-0.02 0.08,-0.03 0.11,-0.04c0.09,0.38 0.17,0.77 0.26,1.15Z" style="fill:#ada19a;fill-rule:nonzero;"/><path d="M121.85,166.74c-6.47,0 -12.05,-2.27 -16.34,-7.54c-1.86,-2.3 -3.2,-4.77 -4.13,-7.38c-0.09,-0.38 -0.17,-0.77 -0.26,-1.15c4.74,-1.55 9.97,-2.83 15.54,-3.53c1.9,2.94 4.18,5.25 6.8,5.76c1.69,0.33 3.41,0.47 5.08,0.47c6.64,0 12.47,-2.1 12.47,-2.1c0,0 0,-0.02 0,-0.06l0.01,0c0,0 0.04,-1.13 0.06,-2.92c1.62,0.38 3.25,0.83 4.88,1.35c-1.74,4.77 -4.19,9.13 -8.53,12.3c-3.76,2.76 -8.04,4.2 -12.67,4.65c-0.99,0.1 -1.96,0.15 -2.91,0.15Z" style="fill:#b0a6a0;fill-rule:nonzero;"/><path d="M128.54,153.37c-1.67,0 -3.39,-0.14 -5.08,-0.47c-2.62,-0.51 -4.9,-2.82 -6.8,-5.76c1.66,-0.21 3.36,-0.37 5.07,-0.47c1.51,1.59 3.64,2.57 6,2.57c2.21,0 4.22,-0.86 5.71,-2.27c2.26,0.25 4.55,0.63 6.86,1.14c0.05,1.15 0.08,2.27 0.09,3.34c0.38,-0.16 0.58,-0.22 0.62,-0.24c0,0.04 0,0.06 0,0.06c0,0 -5.83,2.1 -12.47,2.1Z" style="fill:#b5b4b5;fill-rule:nonzero;"/><path d="M140.39,151.45c-0.01,-1.07 -0.04,-2.19 -0.09,-3.34c0.26,0.06 0.52,0.12 0.78,0.18c-0.02,1.79 -0.06,2.92 -0.06,2.92l-0.01,0c-0.04,0.02 -0.24,0.08 -0.62,0.24Z" style="fill:#aea49e;fill-rule:nonzero;"/><path d="M127.73,149.24c-2.36,0 -4.49,-0.98 -6,-2.57c1.36,-0.08 2.73,-0.12 4.12,-0.12l0.05,0c2.47,0 4.99,0.13 7.54,0.42c-1.49,1.41 -3.5,2.27 -5.71,2.27Z" style="fill:#867671;fill-rule:nonzero;"/><path d="M101.12,150.67c4.74,-1.55 9.97,-2.83 15.54,-3.53c-5.57,0.7 -10.8,1.98 -15.54,3.53Z" style="fill:#96908e;fill-rule:nonzero;"/><path d="M116.66,147.14c1.66,-0.21 3.35,-0.37 5.07,-0.47c-1.71,0.1 -3.41,0.26 -5.07,0.47Z" style="fill:#989799;fill-rule:nonzero;"/><path d="M121.73,146.67c1.36,-0.08 2.73,-0.12 4.12,-0.12c-1.39,0 -2.76,0.04 -4.12,0.12Zm4.17,-0.12c-0.01,0 -0.02,0 -0.03,0c0.01,0 0.02,0 0.03,0Z" style="fill:#7e7472;fill-rule:nonzero;"/><path d="M208.65,159.72c0.28,-2.19 0.59,-4.1 0.95,-5.46c0.27,-1.05 0.53,-2.13 0.77,-3.22c0.64,0.21 1.27,0.43 1.88,0.66c0.03,0.01 0.05,0.02 0.08,0.02c0.16,0.07 0.33,0.13 0.49,0.19c0.11,0.04 0.22,0.08 0.33,0.12c-0.93,2.53 -2.24,4.93 -4.06,7.17c-0.15,0.18 -0.29,0.35 -0.44,0.52Z" style="fill:#afa49f;fill-rule:nonzero;"/><path d="M192.75,166.74c-0.95,0 -1.92,-0.05 -2.91,-0.15c-4.63,-0.45 -8.91,-1.89 -12.67,-4.65c-4.67,-3.41 -7.15,-8.2 -8.92,-13.39c0.06,-0.02 0.11,-0.03 0.17,-0.05c0.06,-0.01 0.13,-0.03 0.2,-0.05c0.01,0 0.03,0 0.04,-0.01c1.11,-0.27 2.22,-0.51 3.32,-0.72c0.02,1.73 0.06,2.8 0.06,2.8c0,0 0.01,0 0.01,0.01c0,0.04 0,0.06 0,0.06c0,0 5.83,2.09 12.47,2.09c1.67,0 3.39,-0.13 5.08,-0.46c2.33,-0.46 4.39,-2.33 6.15,-4.8c5.24,0.81 10.16,2.1 14.62,3.62c-0.24,1.09 -0.5,2.17 -0.77,3.22c-0.36,1.36 -0.67,3.27 -0.95,5.46c-4.23,4.9 -9.65,7.02 -15.9,7.02Z" style="fill:#b3aaa4;fill-rule:nonzero;"/><path d="M184.52,152.68c-6.64,0 -12.47,-2.09 -12.47,-2.09c0,0 0,-0.02 0,-0.06c0.05,0.01 0.24,0.07 0.62,0.23c0.01,-1.02 0.04,-2.09 0.08,-3.18c2.48,-0.45 4.93,-0.73 7.34,-0.89c1.43,1.17 3.25,1.87 5.24,1.87c1.92,0 3.7,-0.66 5.1,-1.77c1.81,0.15 3.58,0.37 5.32,0.63c-1.76,2.47 -3.82,4.34 -6.15,4.8c-1.69,0.33 -3.41,0.46 -5.08,0.46Z" style="fill:#b5b4b5;fill-rule:nonzero;"/><path d="M172.67,150.76c-0.38,-0.16 -0.57,-0.22 -0.62,-0.23c0,-0.01 -0.01,-0.01 -0.01,-0.01c0,0 -0.04,-1.07 -0.06,-2.8c0.26,-0.05 0.52,-0.1 0.77,-0.14c-0.04,1.09 -0.07,2.16 -0.08,3.18Z" style="fill:#aea49e;fill-rule:nonzero;"/><path d="M185.33,148.56c-1.99,0 -3.81,-0.7 -5.24,-1.87c1.48,-0.1 2.95,-0.14 4.41,-0.14l0.04,0c1.99,0 3.96,0.09 5.89,0.24c-1.4,1.11 -3.18,1.77 -5.1,1.77Z" style="fill:#867671;fill-rule:nonzero;"/><path d="M168.42,148.5c0.06,-0.01 0.13,-0.03 0.2,-0.05c-0.07,0.02 -0.14,0.04 -0.2,0.05Zm0.24,-0.06c1.11,-0.27 2.22,-0.51 3.32,-0.72c-1.1,0.21 -2.21,0.45 -3.32,0.72Z" style="fill:#979290;fill-rule:nonzero;"/><path d="M172.75,147.58c2.48,-0.45 4.93,-0.73 7.34,-0.89c-2.41,0.16 -4.86,0.44 -7.34,0.89Z" style="fill:#989799;fill-rule:nonzero;"/><path d="M171.98,147.72c0.26,-0.05 0.52,-0.1 0.77,-0.14c-0.25,0.04 -0.51,0.09 -0.77,0.14Z" style="fill:#948e8d;fill-rule:nonzero;"/><path d="M180.09,146.69c1.48,-0.1 2.95,-0.14 4.41,-0.14c-1.46,0 -2.93,0.04 -4.41,0.14Zm4.45,-0.14c-0.01,0 -0.02,0 -0.03,0c0.01,0 0.02,0 0.03,0Z" style="fill:#7e7472;fill-rule:nonzero;"/><path d="M215.05,141.58c-0.15,3.63 -0.69,7.14 -1.9,10.45c-0.93,2.53 -2.24,4.93 -4.06,7.17c-4.92,6.04 -11.54,8.14 -19.25,7.39c-4.63,-0.45 -8.91,-1.89 -12.67,-4.64c-4.67,-3.42 -7.15,-8.21 -8.92,-13.4c-0.07,-0.23 -0.15,-0.46 -0.22,-0.68c-1.12,-3.42 -1.69,-6.92 -1.06,-10.51c0.57,-3.26 2.59,-5.52 5.31,-7.29c3.3,-2.15 7.07,-2.88 10.9,-3.28c7.31,-0.75 14.59,-0.58 21.78,1.07c4.26,0.98 7.53,3.08 9.12,7.17l0.01,0c0,0 0.02,0.05 0.05,0.16l0.09,0.22c0.06,0.17 0.11,0.33 0.13,0.48c0.12,0.44 0.28,1.03 0.41,1.71c0.13,0.47 0.2,0.96 0.22,1.46c0.09,0.81 0.12,1.67 0.06,2.52Zm-68.48,6.29c-0.19,0.59 -0.4,1.19 -0.61,1.77c-1.74,4.77 -4.19,9.13 -8.53,12.31c-3.76,2.75 -8.04,4.19 -12.67,4.64c-7.71,0.75 -14.33,-1.35 -19.25,-7.39c-2.13,-2.63 -3.57,-5.48 -4.5,-8.49c-0.9,-2.92 -1.33,-5.98 -1.46,-9.13c-0.06,-0.85 -0.03,-1.71 0.06,-2.52c0.02,-0.5 0.09,-0.99 0.22,-1.46c0.14,-0.68 0.29,-1.27 0.41,-1.71c0.02,-0.15 0.07,-0.31 0.13,-0.48l0.09,-0.22c0.03,-0.11 0.05,-0.16 0.05,-0.16l0.01,0c1.59,-4.09 4.86,-6.19 9.12,-7.17c7.19,-1.65 14.47,-1.82 21.78,-1.07c3.83,0.4 7.6,1.13 10.9,3.28c2.72,1.77 4.74,4.03 5.31,7.29c0.63,3.59 0.06,7.09 -1.06,10.51Zm77.12,-16.74c-0.08,-1.63 -0.22,-1.8 -1.88,-2.17c-0.84,-0.18 -1.68,-0.37 -2.52,-0.56c-4.52,-1.01 -9.02,-2.08 -13.57,-2.91c-12.55,-2.32 -24.98,-2.95 -36.82,3.07c-1.95,1 -4.04,1.19 -6.27,0.73c-1.76,-0.36 -3.55,-0.57 -5.33,-0.59c-1.78,0.02 -3.57,0.23 -5.33,0.59c-2.23,0.46 -4.32,0.27 -6.28,-0.73c-11.83,-6.02 -24.26,-5.39 -36.81,-3.07c-4.3,0.79 -8.55,1.78 -12.82,2.74c-1.09,0.25 -2.18,0.49 -3.27,0.73c-1.66,0.37 -1.8,0.54 -1.88,2.17c-0.08,1.5 -0.19,3.01 1.31,4.03c0.09,0.06 0.13,0.18 0.21,0.26c1.69,1.92 2.94,3.99 3.63,6.38c0.21,0.73 0.37,1.5 0.47,2.3c0.33,2.59 0.9,5.11 1.76,7.54c0.88,2.5 2.06,4.9 3.56,7.17c3.81,5.73 9.26,9.24 16.18,10.05c11.24,1.33 20.41,-2.37 26.88,-11.6c1.49,-2.12 2.8,-4.33 3.93,-6.62c1.52,-3.08 2.7,-6.32 3.49,-9.71c0.14,-0.59 0.05,-1.34 -0.2,-1.9c-1.07,-2.38 -0.27,-4.19 2.33,-4.8c0.94,-0.22 1.89,-0.34 2.84,-0.36c0.95,0.02 1.9,0.14 2.85,0.36c2.59,0.61 3.39,2.42 2.32,4.8c-0.25,0.56 -0.34,1.31 -0.2,1.9c0.68,2.94 1.66,5.77 2.9,8.48c1.25,2.73 2.77,5.35 4.52,7.85c6.47,9.23 15.64,12.93 26.88,11.6c6.92,-0.81 12.37,-4.32 16.18,-10.05c1.22,-1.84 2.22,-3.76 3.02,-5.76c1.16,-2.86 1.91,-5.86 2.3,-8.95c0.19,-1.57 0.61,-2.99 1.22,-4.32c0.71,-1.57 1.68,-3 2.88,-4.36c0.08,-0.08 0.12,-0.2 0.21,-0.26c1.5,-1.02 1.39,-2.53 1.31,-4.03Z" style="fill:#fff;fill-rule:nonzero;"/><path d="M240.68,112.53c-0.56,-5.43 -1.8,-10.43 -3.39,-14.89c-0.13,-0.38 -0.21,-0.58 -0.21,-0.58l0,0.01c-5.01,-13.74 -13.06,-22.23 -13.06,-22.23l0,0.01c-3.73,-4.77 -8.94,-9.75 -15.26,-14.7l-0.07,-0.05c-0.61,-0.48 -1.21,-0.95 -1.83,-1.43c-1.4,-1.05 -2.74,-1.96 -4.04,-2.78c-2.49,-1.42 -5,-2.67 -7.52,-3.79c-0.47,-0.18 -0.93,-0.34 -1.39,-0.49c-1.13,-0.45 -2.26,-0.86 -3.41,-1.26l-0.02,-0.21c-27.39,-10.23 -54.88,-4.68 -67.96,-0.83l-0.02,0.14c-0.72,0.18 -1.45,0.35 -2.13,0.56c-18.7,5.82 -34,15.79 -44.82,42.57c-10.8,26.77 -1.93,48.71 0.16,58.07c6.64,29.63 38.49,48.39 38.49,48.39c0,0 -8.04,-7.91 -11.64,-15.8c-2.79,-6.13 -6.95,-16.64 -6.95,-32.13c0,-11.52 10.05,-25.07 15.2,-31.26c1.05,-1.64 2.05,-2.84 2.97,-3.4c0,0 30.62,-42.42 61.79,-19.45l20.66,25.05c0.98,1.09 2.56,2.93 4.39,5.32c5.37,6.94 12.77,18.32 12.77,28.21c0,15.49 -4.17,26 -6.96,32.12c-3.59,7.9 -11.63,15.81 -11.63,15.81c0,0 0.85,-0.51 2.29,-1.47c44.51,-28.83 46.54,-68.11 43.59,-89.51Z" style="fill:#231f20;fill-rule:nonzero;"/><path d="M241.11,118.34c0.68,-7.21 0.94,-23.22 -6,-38.77c-6.95,-15.56 -15.23,-33.07 -32.43,-42.52c-15.79,-8.68 -32.72,-15.44 -47.18,-13.48c0.72,-1.38 1.14,-2.9 1.14,-4.52c0,-5.95 -5.37,-10.77 -11.99,-10.77c-6.62,0 -11.98,4.82 -11.98,10.77c0,2.86 1.25,5.43 3.26,7.36c-9.61,0.78 -19.62,1.93 -32.25,10.55c-19.52,13.33 -22.77,10.27 -35.03,39.29c-6.89,16.37 -1,29.72 -2.31,38.6c-1.34,8.89 -0.67,16.19 -0.23,22.21c1.39,19.3 23.83,39.89 23.83,39.89c-9.62,-15.58 -12.97,-23.43 -10.55,-35.1c0.8,-3.83 5.12,-14.23 4.42,-19.5c-1.09,-8.24 21.46,-47.72 38.99,-55.22c17.55,-7.51 34.23,-9.18 45.17,-8.06c10.9,1.11 28.42,7.17 38.02,22.73c9.59,15.55 13.74,16.8 14.39,21.52c0.68,4.72 3.13,10.09 4.24,16.19c1.22,6.69 9.26,20.61 9.26,32.47c0,11.49 -11.9,28.44 -11.9,28.44c0,0 12.12,-15.03 14.85,-17.6c3.39,-3.24 7.02,-6.28 8.34,-14.34c1.32,-8.05 -4.72,-22.9 -4.06,-30.14Z" style="fill:#c0524f;fill-rule:nonzero;"/><path d="M84.13,100.52c6.89,-19.31 19.94,-39.85 31.85,-45.4c11.91,-5.56 27.79,-10.84 44.68,-9.18c16.86,1.68 37.39,8.07 44.67,15.57c7.27,7.5 16.88,21.95 17.86,29.17c0.99,7.23 0.76,11.31 1.42,15.47c0.67,4.18 6.22,29.19 6.22,29.19c0,0 -10.69,-25.12 -11.74,-29.89c-2.29,-10.5 -10.82,-19.28 -16.53,-24.95c-3.9,-3.89 -15.2,-10.84 -15.2,-10.84c0,0 -7.2,-5 -28.59,-4.48c-31.59,0.8 -41.26,9.71 -41.26,9.71c0,0 -5.89,4.75 -8.66,7.6c-7.31,7.52 -19.15,21.34 -21.99,33.56c-3.18,13.74 -5.27,18.46 -5.27,18.46c0,0 -0.49,-3.53 0.35,-12.97c0.46,-5.13 -1.01,-12.04 2.19,-21.02Z" style="fill:#f9ad3a;fill-rule:nonzero;"/><path d="M178.18,182.37c-5.28,-1.65 -14.31,-2.1 -20.23,-2.21l-0.01,-0.02c0,0 -1.1,-0.02 -2.89,-0.02c-1.79,0 -2.9,0.02 -2.9,0.02l-0.01,0.02c-5.91,0.11 -14.94,0.56 -20.22,2.21c-8.33,2.61 -10.92,12.85 -20.56,20.72c0,0 13.27,-1.06 21.08,-4.18c7.82,-3.12 8.79,-5.63 19.86,-8.98c1.09,-0.33 1.98,-0.7 2.75,-1.11c0.77,0.41 1.65,0.78 2.74,1.11c11.07,3.35 12.05,5.86 19.86,8.98c7.81,3.12 21.08,4.18 21.08,4.18c-9.63,-7.87 -12.21,-18.11 -20.55,-20.72Z" style="fill:#231f20;fill-rule:nonzero;"/><path d="M204.72,269.38l-95.96,0c2.92,-6.54 6.24,-13.93 7.45,-27.55c2.45,-1.89 4.83,-3.31 6.98,-4.34c1.11,-0.56 2.16,-1.01 3.12,-1.36c0.33,-0.12 0.64,-0.25 0.95,-0.35c0.37,-0.12 0.7,-0.22 1.03,-0.33c0.92,-0.29 1.68,-0.49 2.26,-0.59c6.95,10 19.24,26.25 25.9,26.31l0.02,0c0.11,0 0.19,0 0.31,-0.02c6.83,-0.43 19.2,-16.62 26.07,-26.38c0.84,0.17 2.28,0.5 4.14,1.18c0.28,0.1 0.57,0.2 0.88,0.33c0.17,0.06 0.33,0.12 0.49,0.2c0.44,0.17 0.87,0.37 1.32,0.58c2.26,1.03 4.86,2.49 7.57,4.54c1.22,13.79 4.53,21.2 7.47,27.78Z" style="fill:#46433f;fill-rule:nonzero;"/><path d="M102.68,300.18l108.12,0c-0.25,-4.09 -0.62,-9.87 -1,-13.66l-106.11,0c-0.39,3.79 -0.75,9.57 -1.01,13.66Z" style="fill:#46433f;fill-rule:nonzero;"/><path d="M204.73,269.38l-95.97,0c-2.22,4.97 -4.23,9.46 -4.93,15.84c-0.05,0.4 -0.1,0.84 -0.14,1.3l106.11,0c-0.05,-0.46 -0.09,-0.9 -0.14,-1.3c-0.71,-6.38 -2.71,-10.87 -4.93,-15.84Z" style="fill:#f9ad3a;fill-rule:nonzero;"/></g></svg>