<?xml version="1.0" encoding="UTF-8" standalone="no"?><!DOCTYPE svg PUBLIC "-//W3C//DTD SVG 1.1//EN" "http://www.w3.org/Graphics/SVG/1.1/DTD/svg11.dtd"><svg width="100%" height="100%" viewBox="0 0 298 301" version="1.1" xmlns="http://www.w3.org/2000/svg" xmlns:xlink="http://www.w3.org/1999/xlink" xml:space="preserve" style="fill-rule:evenodd;clip-rule:evenodd;stroke-linejoin:round;stroke-miterlimit:1.41421;"><g id="_62"><g><rect x="0.17" y="0.1" width="296.87" height="299.7" style="fill:#7a1b25;fill-rule:nonzero;"/><path d="M123.4,199.21c-0.94,-0.75 -18.09,-12.11 -18.09,-12.11c1.18,7.07 2.06,9.96 0.34,14.76c-1.55,4.32 -4.52,5.99 -6.17,7.5c-1.64,1.52 -4.98,2.66 -6.15,2.66c-1.18,0 -2.51,-0.23 -2.51,-0.23c0,0 2.73,1.61 9.56,1.29c2.87,-0.13 4.69,-0.9 5.87,-1.79c-1.35,2.34 -2.62,5.7 -1.19,8.81c5.16,11.31 -1.72,15.01 -1.72,15.01c0,0 6.09,-0.66 9.59,-3.97l0.03,0.27c1.55,5.66 5.65,6.29 5.65,6.29c0,0 -2.58,-0.46 -2.09,-5.72c0.13,-1.4 1.48,-1.95 3.17,-2.9c0.66,5.08 2.79,10.26 -1.62,12.37c0,0 7.45,-1.59 8.82,-6.34c0.24,-0.88 0.38,-1.68 0.5,-2.49c0.12,0.45 0.28,0.86 0.36,1.33c1.06,6.06 -3.23,11.94 -3.23,11.94c0,0 15.48,-1.76 15.6,-8.36c0.01,-0.99 0.2,-5.03 0.68,-6.54c0.47,-1.51 1.41,-9.08 1.41,-9.08c0,0 -17.86,-21.94 -18.81,-22.7Z" style="fill:#e5a424;fill-rule:nonzero;"/><path d="M183.94,199.21c0.95,-0.75 18.1,-12.11 18.1,-12.11c-1.17,7.07 -2.06,9.96 -0.34,14.76c1.56,4.32 4.52,5.99 6.17,7.5c1.64,1.52 4.98,2.66 6.16,2.66c1.18,0 2.5,-0.23 2.5,-0.23c0,0 -2.73,1.61 -9.56,1.29c-2.87,-0.13 -4.69,-0.9 -5.87,-1.79c1.35,2.34 2.62,5.7 1.19,8.81c-5.16,11.31 1.73,15.01 1.73,15.01c0,0 -6.1,-0.66 -9.6,-3.97l-0.03,0.27c-1.55,5.66 -5.64,6.29 -5.64,6.29c0,0 2.58,-0.46 2.08,-5.72c-0.13,-1.4 -1.48,-1.95 -3.17,-2.9c-0.66,5.08 -2.79,10.26 1.62,12.37c0,0 -7.45,-1.59 -8.82,-6.34c-0.24,-0.88 -0.37,-1.68 -0.5,-2.49c-0.12,0.45 -0.28,0.86 -0.36,1.33c-1.05,6.06 3.23,11.94 3.23,11.94c0,0 -15.48,-1.76 -15.6,-8.36c-0.01,-0.99 -0.2,-5.03 -0.67,-6.54c-0.48,-1.51 -1.41,-9.08 -1.41,-9.08c0,0 17.86,-21.94 18.79,-22.7Z" style="fill:#e5a424;fill-rule:nonzero;"/><path d="M153.55,188.31l0,112.26l-60.73,0c-0.99,-0.39 -1.48,-0.6 -1.48,-0.6c0,-5.41 0.3,-10.39 0.86,-14.94c0.16,-1.48 0.37,-2.9 0.6,-4.28c0.43,-2.61 0.94,-5.08 1.54,-7.38c0.66,-2.74 1.44,-5.27 2.3,-7.61c0.19,-0.48 0.35,-0.95 0.54,-1.4c0.2,-0.52 0.41,-1.01 0.62,-1.51c0.2,-0.49 0.41,-0.96 0.63,-1.44c0.42,-0.96 0.87,-1.87 1.32,-2.75c0.78,-1.53 1.61,-2.97 2.47,-4.3c0.23,-0.37 0.45,-0.72 0.68,-1.05c1.11,-1.65 2.26,-3.17 3.43,-4.55c0.33,-0.37 0.66,-0.76 0.99,-1.11c0.33,-0.37 0.66,-0.72 0.99,-1.07c0.33,-0.33 0.68,-0.68 1.01,-0.99c0.33,-0.33 0.66,-0.64 0.99,-0.92c0.65,-0.62 1.33,-1.2 1.99,-1.71c0.31,-0.25 0.62,-0.49 0.93,-0.7c2.9,-2.22 5.65,-3.74 8.04,-4.79c0.33,-0.15 0.66,-0.29 0.99,-0.44c1.03,-0.41 1.95,-0.74 2.78,-0.98c2.14,-0.68 3.45,-0.83 3.45,-0.83c0.25,0 0.46,-0.02 0.68,-0.06c1.91,-0.31 3.46,-1.97 4.71,-4.61c0.93,-1.97 1.69,-4.48 2.33,-7.38c0.25,-1.16 0.45,-2.29 0.64,-3.52c0.3,-2.08 0.59,-4.26 0.84,-6.52c0.1,-1.38 0.25,-2.72 0.39,-4.16c0.56,-6.87 0.7,-14.38 0.7,-21.5c0,0 8.15,0.84 14.77,0.84Z" style="fill:#e0bd9a;fill-rule:nonzero;"/><path d="M216.02,299.97c0,0 -0.54,0.21 -1.44,0.6l-61.03,0l0,-112.26l0.15,0c6.58,0 14.83,-0.84 14.83,-0.84c0,7.06 0.14,14.48 0.68,21.36c0.16,1.33 0.31,2.71 0.41,4.05c0.25,2.37 0.54,4.59 0.89,6.67l0,0.04c0.1,0.94 0.28,1.79 0.45,2.67c0.59,2.92 1.31,5.49 2.2,7.55c1.09,2.57 2.41,4.36 4.03,5.06c0.5,0.23 1.05,0.35 1.63,0.35c0,0 2.32,0.27 5.82,1.65c1.85,0.72 4.03,1.75 6.36,3.21c0.47,0.29 0.96,0.62 1.44,0.95c0.39,0.24 0.78,0.53 1.17,0.82c0.21,0.14 0.43,0.31 0.64,0.49c0.14,0.08 0.27,0.19 0.39,0.29c0.72,0.56 1.46,1.17 2.2,1.85c0.29,0.25 0.56,0.52 0.84,0.78c0.33,0.29 0.64,0.6 0.97,0.95c0.23,0.21 0.43,0.41 0.64,0.64c0.43,0.45 0.88,0.94 1.32,1.46c0.22,0.25 0.45,0.49 0.65,0.76c0.99,1.15 1.96,2.41 2.88,3.79c0.42,0.57 0.79,1.17 1.18,1.79c0.78,1.25 1.54,2.59 2.28,4.01c0.91,1.77 1.77,3.66 2.57,5.7c0.19,0.45 0.37,0.92 0.54,1.4c0.86,2.34 1.64,4.87 2.32,7.61c0.6,2.3 1.11,4.77 1.53,7.38c0.22,1.38 0.43,2.8 0.59,4.28c0.56,4.55 0.87,9.53 0.87,14.94Z" style="fill:#efd0ad;fill-rule:nonzero;"/><path d="M170.5,219.34l0,0.05c-1.53,2.35 -6.67,9.13 -16.85,9.13l-0.09,0c-9.64,-0.05 -15.27,-7.02 -16.71,-9.09c0.3,-2.06 0.6,-4.22 0.84,-6.48c0.1,-1.32 0.25,-2.7 0.4,-4.12c4.69,1.18 9.83,1.91 15.27,2.01l0.2,0c5.63,-0.1 10.82,-0.88 15.66,-2.16c0.15,1.33 0.3,2.7 0.4,4.03c0.24,2.35 0.54,4.56 0.88,6.63Z" style="fill:#be987f;fill-rule:nonzero;"/><path d="M152.86,60.36c-64.33,0 -64.68,53.78 -61.81,88.99c-4.4,-8.35 -17.49,-5.8 -16.41,7.37c1.04,12.67 19.75,19.13 19.22,17.73c9.75,26.04 35.53,45.67 59,45.67l0.5,0l0,-159.76l-0.5,0Z" style="fill:#d2a686;fill-rule:nonzero;"/><path d="M78.74,151.17c3.17,-5.11 8.11,-2.9 9.29,-1.77c1.29,1.23 2.33,2.8 1.54,5.8c-0.45,1.71 -2.23,1.86 -1.83,4.42c0.49,2.89 1.83,3.04 2.62,3.73c0.74,0.64 1.68,1.13 2.12,2.36c0.5,1.22 0.54,2.5 0.3,3.63c-0.5,2.06 -3.51,0.39 -5.54,-0.49c-1.33,-0.64 -5.58,-4.23 -6.67,-5.4c-2.67,-3.05 -3.95,-8.94 -1.83,-12.28Z" style="fill:#ac8774;fill-rule:nonzero;"/><path d="M153.21,60.36c64.34,0 64.68,53.78 61.87,88.99c4.39,-8.35 17.44,-5.8 16.35,7.37c-0.99,12.67 -19.73,19.13 -19.22,17.73c-9.49,26.04 -35.53,45.67 -59,45.67c-0.15,0 -0.35,0 -0.35,0l-0.14,-159.76c0,0 0.34,0 0.49,0Z" style="fill:#ddb598;fill-rule:nonzero;"/><path d="M227.33,151.17c-3.16,-5.11 -8.05,-2.9 -9.29,-1.77c-1.28,1.23 -2.27,2.8 -1.53,5.8c0.44,1.71 2.22,1.86 1.83,4.42c-0.5,2.89 -1.83,3.04 -2.57,3.73c-0.74,0.64 -1.73,1.13 -2.18,2.36c-0.44,1.22 -0.54,2.5 -0.29,3.63c0.49,2.06 3.5,0.39 5.53,-0.49c1.38,-0.64 5.58,-4.23 6.67,-5.4c2.72,-3.05 3.95,-8.94 1.83,-12.28Z" style="fill:#ac8774;fill-rule:nonzero;"/><path d="M152.36,75.53c-21.15,0 -36.67,6.14 -46.01,18.22c-13.09,16.95 -12.6,42.78 -7.8,61.35c1.48,5.69 2.27,20.97 3.26,26.57c4.59,25.09 32.31,38.45 50.55,38.45c0,0 0.34,0 0.49,0l0,-144.59c-0.15,0 -0.29,0 -0.29,0l-0.2,0Z" style="fill:#e0bd9a;fill-rule:nonzero;"/><path d="M198.31,93.8c-9.29,-12.03 -24.61,-18.17 -45.46,-18.27l0,144.59c20.85,-0.24 45.81,-14.88 50.06,-38.45c1.03,-5.6 1.78,-20.88 3.26,-26.57c4.84,-18.52 5.34,-44.3 -7.86,-61.3Z" style="fill:#efd0ad;fill-rule:nonzero;"/><path d="M153.05,197.18" style="fill:#bc917b;fill-rule:nonzero;"/><path d="M153.05,197.18" style="fill:#bc917b;fill-rule:nonzero;"/><path d="M149.48,194.49c-0.1,-0.02 -0.2,-0.04 -0.31,-0.06c0.1,0.02 0.19,0.04 0.31,0.06Z" style="fill:#bc917b;fill-rule:nonzero;"/><path d="M153.05,194.3" style="fill:#bc917b;fill-rule:nonzero;"/><path d="M148.69,194.32c-0.09,-0.03 -0.18,-0.05 -0.27,-0.08l-0.01,0c0,0 0.11,0.03 0.28,0.08Z" style="fill:#bc917b;fill-rule:nonzero;"/><path d="M153.05,194.3" style="fill:#bc917b;fill-rule:nonzero;"/><path d="M134.89,75.89l-0.27,0.27l0.05,0.09c0.09,-0.13 0.13,-0.27 0.22,-0.36Z" style="fill:#432e1b;fill-rule:nonzero;"/><path d="M93.93,126.84" style="fill:#432e1b;fill-rule:nonzero;"/><path d="M153.32,194.32" style="fill:#ba907b;fill-rule:nonzero;"/><path d="M153.32,194.32" style="fill:#ba907b;fill-rule:nonzero;"/><path d="M149.65,191.56c-0.1,-0.02 -0.2,-0.04 -0.31,-0.07c0.1,0.02 0.19,0.04 0.31,0.07Z" style="fill:#ba907b;fill-rule:nonzero;"/><path d="M153.32,191.36" style="fill:#ba907b;fill-rule:nonzero;"/><path d="M148.85,191.38c-0.1,-0.03 -0.19,-0.05 -0.28,-0.08l-0.01,0.01c0,0 0.11,0.02 0.29,0.07Z" style="fill:#ba907b;fill-rule:nonzero;"/><path d="M153.32,191.36" style="fill:#ba907b;fill-rule:nonzero;"/><path d="M140.28,175.59c-0.25,-5.13 9.43,-1.87 12.62,-1.71c2.52,0.13 10.19,-1.62 10.85,-1.17c4.51,3.04 -4.78,9.17 -11.01,9.17c-1.66,0 -12.31,-3.19 -12.46,-6.29Z" style="fill:#dcb497;fill-rule:nonzero;"/><path d="M106.7,131.97c0,0 4.91,20.13 13.33,21.78c8.43,1.64 17.55,-1.63 17.55,-1.63c0,0 0.87,-23.66 -3.44,-26.75c-4.31,-3.11 -14.25,-7.6 -27.44,6.6Z" style="fill:#fff;fill-rule:nonzero;"/></g><path d="M137.59,152.06c0,0 -0.19,0.06 -0.62,0.24c-0.11,-7.26 -0.78,-17.23 -3.48,-19.14c-4,-2.93 -13.05,-7.06 -25.14,4.23c-1.09,-3.12 -1.65,-5.49 -1.65,-5.49c13.22,-14.22 23.16,-9.74 27.44,-6.63c4.32,3.11 3.45,26.79 3.45,26.79Z" style="fill:#d6b496;fill-rule:nonzero;"/><path d="M132.6,141.81c0,4.58 -3.71,8.29 -8.29,8.29c-4.58,0 -8.29,-3.71 -8.29,-8.29c0,-4.58 3.71,-8.3 8.29,-8.3c4.58,0 8.29,3.72 8.29,8.3Z" style="fill:#482315;fill-rule:nonzero;"/><path d="M123.92,147.33c-2.39,-0.2 -4.23,-2.61 -4.01,-5.27c0.21,-2.66 2.42,-4.74 4.82,-4.54c2.39,0.2 4.23,2.61 4.02,5.27c-0.22,2.66 -2.43,4.74 -4.83,4.54Z" style="fill:#7e3a22;fill-rule:nonzero;"/><path d="M124.13,146.37c-1.67,-0.14 -3.4,-1.97 -3.21,-4.22c0.18,-2.26 2.19,-3.79 3.85,-3.65c1.67,0.14 3.4,1.98 3.21,4.23c-0.18,2.26 -2.19,3.78 -3.85,3.64Z" style="fill:#211a10;fill-rule:nonzero;"/><path d="M122.78,140.81c-0.07,0.82 -0.9,1.41 -1.86,1.33c-0.96,-0.08 -1.69,-0.8 -1.62,-1.61c0.07,-0.82 0.9,-1.42 1.86,-1.34c0.96,0.08 1.69,0.81 1.62,1.62Z" style="fill:#fff;fill-rule:nonzero;"/><path d="M128.16,145.52c-0.04,0.41 -0.46,0.71 -0.93,0.67c-0.48,-0.04 -0.84,-0.41 -0.81,-0.81c0.03,-0.41 0.45,-0.71 0.93,-0.67c0.48,0.04 0.84,0.41 0.81,0.81Z" style="fill:#fff;fill-rule:nonzero;"/><path d="M153.45,196.69" style="fill:#ba907b;fill-rule:nonzero;"/><path d="M153.45,196.69" style="fill:#ba907b;fill-rule:nonzero;"/><path d="M149.78,193.93c-0.1,-0.02 -0.2,-0.04 -0.31,-0.06c0.11,0.02 0.2,0.04 0.31,0.06Z" style="fill:#ba907b;fill-rule:nonzero;"/><path d="M153.45,193.74" style="fill:#ba907b;fill-rule:nonzero;"/><path d="M148.98,193.75c-0.1,-0.02 -0.18,-0.05 -0.28,-0.07l-0.01,0c0,0 0.11,0.03 0.29,0.07Z" style="fill:#ba907b;fill-rule:nonzero;"/><path d="M153.45,193.74" style="fill:#ba907b;fill-rule:nonzero;"/><path d="M153.34,196.32" style="fill:#bc917b;fill-rule:nonzero;"/><path d="M153.34,196.32" style="fill:#bc917b;fill-rule:nonzero;"/><path d="M149.41,193.36c-0.11,-0.02 -0.22,-0.04 -0.34,-0.07c0.11,0.03 0.21,0.05 0.34,0.07Z" style="fill:#bc917b;fill-rule:nonzero;"/><path d="M153.34,193.15" style="fill:#bc917b;fill-rule:nonzero;"/><path d="M148.54,193.17c-0.1,-0.02 -0.19,-0.05 -0.29,-0.08l-0.01,0c0,0 0.11,0.03 0.3,0.08Z" style="fill:#bc917b;fill-rule:nonzero;"/><path d="M153.34,193.15" style="fill:#bc917b;fill-rule:nonzero;"/><path d="M153.09,195.48" style="fill:#bc917b;fill-rule:nonzero;"/><path d="M153.09,195.48" style="fill:#bc917b;fill-rule:nonzero;"/><path d="M149.16,192.52c-0.11,-0.02 -0.22,-0.04 -0.33,-0.07c0.11,0.03 0.2,0.05 0.33,0.07Z" style="fill:#bc917b;fill-rule:nonzero;"/><path d="M153.09,192.31" style="fill:#bc917b;fill-rule:nonzero;"/><path d="M148.3,192.33c-0.11,-0.03 -0.2,-0.06 -0.3,-0.08l-0.01,0c0,0 0.11,0.03 0.31,0.08Z" style="fill:#bc917b;fill-rule:nonzero;"/><path d="M153.09,192.31" style="fill:#bc917b;fill-rule:nonzero;"/><path d="M153.73,195.27" style="fill:#bc917b;fill-rule:nonzero;"/><path d="M153.73,195.27" style="fill:#bc917b;fill-rule:nonzero;"/><path d="M149.93,192.41c-0.11,-0.03 -0.21,-0.05 -0.32,-0.07c0.1,0.02 0.2,0.04 0.32,0.07Z" style="fill:#bc917b;fill-rule:nonzero;"/><path d="M153.73,192.2" style="fill:#bc917b;fill-rule:nonzero;"/><path d="M149.1,192.22c-0.1,-0.02 -0.19,-0.05 -0.29,-0.08l-0.01,0.01c0,0 0.11,0.03 0.3,0.07Z" style="fill:#bc917b;fill-rule:nonzero;"/><path d="M153.73,192.2" style="fill:#bc917b;fill-rule:nonzero;"/><path d="M199.51,131.28c0,0 -4.91,20.14 -13.34,21.78c-8.42,1.64 -17.54,-1.62 -17.54,-1.62c0,0 -0.87,-23.67 3.44,-26.76c4.31,-3.1 14.25,-7.59 27.44,6.6Z" style="fill:#fff;fill-rule:nonzero;"/><path d="M168.62,151.37c0,0 0.19,0.06 0.62,0.24c0.11,-7.26 0.78,-17.23 3.48,-19.14c4,-2.93 13.05,-7.06 25.13,4.23c1.1,-3.12 1.65,-5.48 1.65,-5.48c-13.21,-14.22 -23.16,-9.74 -27.44,-6.63c-4.31,3.1 -3.44,26.78 -3.44,26.78Z" style="fill:#d6b496;fill-rule:nonzero;"/><path d="M173.61,141.12c0,4.58 3.71,8.3 8.29,8.3c4.58,0 8.29,-3.72 8.29,-8.3c0,-4.58 -3.71,-8.29 -8.29,-8.29c-4.58,0 -8.29,3.71 -8.29,8.29Z" style="fill:#482315;fill-rule:nonzero;"/><path d="M182.29,146.65c2.39,-0.2 4.23,-2.62 4.01,-5.28c-0.21,-2.65 -2.42,-4.73 -4.82,-4.53c-2.39,0.19 -4.23,2.61 -4.02,5.27c0.22,2.65 2.43,4.74 4.83,4.54Z" style="fill:#7e3a22;fill-rule:nonzero;"/><path d="M182.08,145.69c1.67,-0.15 3.39,-1.97 3.21,-4.23c-0.19,-2.26 -2.19,-3.78 -3.86,-3.64c-1.66,0.14 -3.39,1.97 -3.2,4.23c0.18,2.25 2.18,3.77 3.85,3.64Z" style="fill:#211a10;fill-rule:nonzero;"/><path d="M183.43,140.13c0.07,0.81 0.9,1.41 1.86,1.33c0.96,-0.08 1.68,-0.81 1.62,-1.62c-0.07,-0.82 -0.9,-1.41 -1.86,-1.33c-0.96,0.07 -1.69,0.8 -1.62,1.62Z" style="fill:#fff;fill-rule:nonzero;"/><path d="M178.05,144.84c0.04,0.4 0.45,0.7 0.93,0.66c0.48,-0.04 0.84,-0.4 0.81,-0.81c-0.03,-0.4 -0.45,-0.7 -0.93,-0.66c-0.48,0.04 -0.84,0.4 -0.81,0.81Z" style="fill:#fff;fill-rule:nonzero;"/><path d="M142.64,131.65c-0.06,-0.1 -1.59,-2.43 -4.72,-4.82c-1.96,-1.51 -3.88,-2.65 -5.87,-3.5c-2.42,-1.02 -5.02,-1.74 -7.55,-2.08c-2.28,-0.26 -4.81,-0.19 -7.77,0.21c-2.25,0.43 -4.45,1.1 -6.32,1.92c-1.33,0.46 -2.38,1.1 -3.22,1.62c-0.33,0.2 -0.62,0.38 -0.92,0.54l-4.02,2.53l4.64,-1.09c0.21,-0.06 0.45,-0.12 0.7,-0.18c0.96,-0.26 2.15,-0.57 3.55,-0.78c0.33,-0.05 0.66,-0.11 1,-0.18c0.59,-0.12 1.19,-0.24 1.82,-0.27c0.71,-0.05 1.44,-0.1 2.18,-0.15l0.98,-0.07c2.57,-0.03 4.74,0.16 6.66,0.61c2.11,0.36 4.28,1.04 6.26,1.96c1.88,0.9 3.68,1.79 5.08,2.82c2.83,1.89 4.41,3.46 4.42,3.48c0.39,0.39 0.91,0.59 1.44,0.59c0.38,0 0.76,-0.1 1.09,-0.32c0.94,-0.62 1.2,-1.87 0.61,-2.78l-0.04,-0.06Z" style="fill:#030405;fill-rule:nonzero;"/><path d="M200.34,125.52c-0.27,-0.14 -0.56,-0.32 -0.89,-0.52c-0.84,-0.52 -1.89,-1.16 -3.18,-1.6c-1.91,-0.84 -4.11,-1.51 -6.39,-1.95c-2.93,-0.39 -5.46,-0.46 -7.75,-0.2c-2.51,0.34 -5.12,1.06 -7.54,2.08c-1.97,0.84 -3.94,2.02 -5.87,3.5c-3.07,2.35 -4.6,4.63 -4.71,4.81l-0.03,0.04c-0.52,0.8 -0.41,1.87 0.26,2.54c0.39,0.38 0.89,0.6 1.43,0.6c0.54,-0.01 1.05,-0.22 1.43,-0.6l0.01,-0.02c0.15,-0.15 1.68,-1.64 4.43,-3.48c1.38,-1.01 3.18,-1.9 5.05,-2.8c2,-0.92 4.16,-1.6 6.3,-1.97c1.9,-0.44 4.07,-0.63 6.6,-0.6l1.03,0.07c0.74,0.05 1.46,0.1 2.17,0.15c0.62,0.03 1.23,0.15 1.81,0.27c0.34,0.07 0.67,0.13 1,0.18c1.4,0.21 2.59,0.52 3.55,0.78c0.26,0.06 0.49,0.13 0.71,0.18l4.64,1.09l-4.06,-2.55Z" style="fill:#030405;fill-rule:nonzero;"/><path d="M150.45,203.7" style="fill:#be927b;fill-rule:nonzero;"/><path d="M150.45,203.7" style="fill:#be927b;fill-rule:nonzero;"/><path d="M146.81,200.96c-0.1,-0.02 -0.21,-0.04 -0.31,-0.07c0.1,0.03 0.19,0.05 0.31,0.07Z" style="fill:#be927b;fill-rule:nonzero;"/><path d="M150.45,200.76" style="fill:#be927b;fill-rule:nonzero;"/><path d="M146.01,200.78c-0.1,-0.02 -0.18,-0.05 -0.28,-0.08l-0.01,0.01c0,0 0.11,0.03 0.29,0.07Z" style="fill:#be927b;fill-rule:nonzero;"/><path d="M150.45,200.76" style="fill:#be927b;fill-rule:nonzero;"/><path d="M150.22,202.92" style="fill:#be927b;fill-rule:nonzero;"/><path d="M150.22,202.92" style="fill:#be927b;fill-rule:nonzero;"/><path d="M146.58,200.18c-0.1,-0.02 -0.21,-0.04 -0.31,-0.07c0.1,0.03 0.19,0.05 0.31,0.07Z" style="fill:#be927b;fill-rule:nonzero;"/><path d="M150.22,199.98" style="fill:#be927b;fill-rule:nonzero;"/><path d="M145.78,200c-0.1,-0.02 -0.18,-0.05 -0.28,-0.08l-0.01,0.01c0,0 0.11,0.03 0.29,0.07Z" style="fill:#be927b;fill-rule:nonzero;"/><path d="M150.22,199.98" style="fill:#be927b;fill-rule:nonzero;"/><path d="M150.81,202.72" style="fill:#be927b;fill-rule:nonzero;"/><path d="M150.81,202.72" style="fill:#be927b;fill-rule:nonzero;"/><path d="M147.29,200.07c-0.1,-0.02 -0.2,-0.04 -0.3,-0.06c0.1,0.02 0.19,0.04 0.3,0.06Z" style="fill:#be927b;fill-rule:nonzero;"/><path d="M150.81,199.88" style="fill:#be927b;fill-rule:nonzero;"/><path d="M146.52,199.9c-0.09,-0.02 -0.18,-0.05 -0.27,-0.07l-0.01,0c0,0 0.11,0.03 0.28,0.07Z" style="fill:#be927b;fill-rule:nonzero;"/><path d="M150.81,199.88" style="fill:#be927b;fill-rule:nonzero;"/><path d="M140.55,202.47c-0.24,-3.2 8.92,0.67 11.92,0.76c2.4,0.08 9.6,-0.47 10.27,-0.73c5.03,-1.88 -0.28,5.35 -10.42,5.73c-4.64,0.19 -11.63,-3.82 -11.77,-5.76Z" style="fill:#f0d2ad;fill-rule:nonzero;"/><path d="M170.72,194.78c-5.8,-1.08 -18.03,0.08 -18.03,0.08c-10.08,1.67 -17.97,-0.11 -18.03,-0.04c-0.24,0.02 8.05,11.02 17.89,10.52c9.84,0.5 18.41,-10.52 18.17,-10.56Z" style="fill:#c2646e;fill-rule:nonzero;"/><path d="M158.52,192.46c-2.61,-0.29 -4.48,1.6 -5.82,1.46c-1.36,0.13 -3.14,-1.08 -5.77,-1.11c-3.7,-0.03 -5.5,-0.36 -12.27,2.01c0.24,0.46 4.58,2.97 12.7,3.11c0.11,0 2.29,1.24 5.39,1.21c1.94,-0.01 4.6,-1.3 4.7,-1.3c8.13,-0.13 13.1,-2.55 13.33,-3c-8.95,-2.77 -8.24,-2.41 -12.26,-2.38Z" style="fill:#d87475;fill-rule:nonzero;"/><path d="M95.44,156.28c-0.9,-2.91 -1.33,-5.98 -1.45,-9.12c-0.07,-0.86 -0.03,-1.72 0.06,-2.52c0.01,-0.51 0.08,-1 0.22,-1.47c0.13,-0.68 0.28,-1.27 0.4,-1.71c0.03,-0.15 0.07,-0.3 0.13,-0.48l0.09,-0.22c0.03,-0.1 0.05,-0.16 0.05,-0.16l0.01,0c0.24,-0.62 0.53,-1.2 0.84,-1.73c0.49,5.72 1.47,11.24 2.76,16.23c0.01,0.07 0.03,0.14 0.05,0.21c-1.07,0.31 -2.13,0.63 -3.16,0.97Z" style="fill:#766359;fill-rule:nonzero;"/><path d="M98.6,155.31c-0.02,-0.07 -0.04,-0.14 -0.05,-0.21c-1.29,-4.99 -2.27,-10.51 -2.76,-16.23c1.77,-2.97 4.68,-4.6 8.28,-5.43c0.96,-0.22 1.91,-0.42 2.86,-0.58c0.9,3.31 4.4,14.99 9.94,19.34c-6.53,0.32 -12.69,1.5 -18.27,3.11Zm41.79,-0.1c-0.15,-0.04 -0.3,-0.09 -0.45,-0.14c-0.02,0 -0.03,-0.01 -0.04,-0.01c-2.3,-0.72 -4.58,-1.29 -6.84,-1.73c2.73,-0.57 4.52,-1.21 4.52,-1.21c0,0 0,-0.02 0,-0.06l0.01,0c0,0 0.32,-8.6 -0.37,-16.11c2.48,1.73 4.3,3.91 4.84,6.98c0.64,3.6 0.06,7.1 -1.05,10.51c-0.2,0.6 -0.4,1.19 -0.62,1.77Z" style="fill:#7b6c60;fill-rule:nonzero;"/><path d="M133.06,153.33c-4.33,-0.84 -8.59,-1.21 -12.73,-1.21c-0.01,0 -0.02,0 -0.03,0c0,0 -0.01,0 -0.02,0c-1.15,0 -2.29,0.03 -3.41,0.08c-5.54,-4.35 -9.04,-16.03 -9.94,-19.34c0.01,-0.01 0.01,-0.01 0.02,-0.01c0.26,0.97 0.73,2.61 1.4,4.54c2.69,-2.51 5.23,-4.26 7.59,-5.43c0.63,-0.02 1.25,-0.02 1.87,-0.02c2.67,0 5.35,0.15 8.04,0.43c2.99,0.3 5.95,0.82 8.67,2.05c1.84,3.41 2.35,11.64 2.45,17.88c0.37,-0.16 0.57,-0.22 0.61,-0.24c0,0.04 0,0.06 0,0.06c0,0 -1.79,0.64 -4.52,1.21Zm-8.75,-19.82c-4.58,0 -8.29,3.72 -8.29,8.3c0,4.58 3.71,8.29 8.29,8.29c4.58,0 8.29,-3.71 8.29,-8.29c0,-4.58 -3.71,-8.3 -8.29,-8.3Z" style="fill:#858285;fill-rule:nonzero;"/><path d="M136.97,152.3c-0.1,-6.24 -0.61,-14.47 -2.45,-17.88c0.76,0.35 1.51,0.75 2.24,1.22c0.15,0.1 0.3,0.21 0.46,0.31c0.69,7.51 0.37,16.11 0.37,16.11l-0.01,0c-0.04,0.02 -0.24,0.08 -0.61,0.24Zm-28.62,-14.91c-0.67,-1.93 -1.14,-3.57 -1.4,-4.54c2.98,-0.52 5.98,-0.81 8.99,-0.89c-2.36,1.17 -4.9,2.92 -7.59,5.43Z" style="fill:#77685f;fill-rule:nonzero;"/><path d="M124.31,150.1c-4.58,0 -8.29,-3.71 -8.29,-8.29c0,-4.58 3.71,-8.3 8.29,-8.3c4.58,0 8.29,3.72 8.29,8.3c0,4.58 -3.71,8.29 -8.29,8.29Zm-4.37,-8.31c-0.02,0.09 -0.03,0.18 -0.03,0.27c-0.22,2.66 1.62,5.07 4.01,5.27c0.11,0.01 0.22,0.01 0.32,0.01c1.07,0 2.07,-0.44 2.87,-1.17c0.04,0.01 0.08,0.01 0.12,0.02c0.03,0 0.06,0 0.08,0c0.44,0 0.81,-0.29 0.85,-0.67c0.01,-0.17 -0.04,-0.33 -0.15,-0.46c0.41,-0.67 0.67,-1.44 0.74,-2.27c0.21,-2.66 -1.63,-5.07 -4.02,-5.27c-0.11,-0.01 -0.22,-0.01 -0.32,-0.01c-1.29,0 -2.5,0.65 -3.35,1.68c-0.02,-0.01 -0.05,-0.01 -0.07,-0.01c-0.89,0 -1.63,0.58 -1.69,1.35c-0.04,0.49 0.21,0.95 0.64,1.26Z" style="fill:#35201a;fill-rule:nonzero;"/><path d="M124.24,147.34c-0.1,0 -0.21,0 -0.32,-0.01c-2.39,-0.2 -4.23,-2.61 -4.01,-5.27c0,-0.09 0.01,-0.18 0.03,-0.27c0.27,0.19 0.6,0.32 0.98,0.35l0,0.01c-0.19,2.25 1.54,4.08 3.21,4.22c0.07,0.01 0.14,0.01 0.21,0.01c0.71,0 1.46,-0.28 2.1,-0.79c0.07,0.28 0.33,0.51 0.67,0.58c-0.8,0.73 -1.8,1.17 -2.87,1.17Zm3.77,-2.28c-0.14,-0.19 -0.38,-0.32 -0.66,-0.35c-0.03,0 -0.05,0 -0.08,0c0.39,-0.55 0.65,-1.23 0.71,-1.98c0.19,-2.25 -1.54,-4.09 -3.21,-4.23c-0.07,-0.01 -0.14,-0.01 -0.21,-0.01c-0.83,0 -1.71,0.39 -2.41,1.06c-0.27,-0.2 -0.61,-0.33 -0.99,-0.36c-0.03,0 -0.07,0 -0.1,0c0.85,-1.03 2.06,-1.68 3.35,-1.68c0.1,0 0.21,0 0.32,0.01c2.39,0.2 4.23,2.61 4.02,5.27c-0.07,0.83 -0.33,1.6 -0.74,2.27Z" style="fill:#512f24;fill-rule:nonzero;"/><path d="M124.34,146.38c-0.07,0 -0.14,0 -0.21,-0.01c-1.67,-0.14 -3.4,-1.97 -3.21,-4.22l0,-0.01c0.05,0.01 0.11,0.01 0.17,0.01c0.88,0 1.62,-0.57 1.69,-1.34c0.04,-0.49 -0.21,-0.95 -0.63,-1.26c0.7,-0.67 1.58,-1.06 2.41,-1.06c0.07,0 0.14,0 0.21,0.01c1.67,0.14 3.4,1.98 3.21,4.23c-0.06,0.75 -0.32,1.43 -0.71,1.98l-0.01,0c-0.44,0 -0.81,0.29 -0.84,0.67c-0.01,0.07 0,0.14 0.02,0.21c-0.64,0.51 -1.39,0.79 -2.1,0.79Z" style="fill:#1d1916;fill-rule:nonzero;"/><path d="M121.09,142.15c-0.06,0 -0.12,0 -0.17,-0.01c-0.38,-0.03 -0.71,-0.16 -0.98,-0.35c-0.43,-0.31 -0.68,-0.77 -0.64,-1.26c0.06,-0.77 0.8,-1.35 1.69,-1.35c0.02,0 0.05,0 0.07,0.01c0.03,0 0.07,0 0.1,0c0.38,0.03 0.72,0.16 0.99,0.36c0.42,0.31 0.67,0.77 0.63,1.26c-0.07,0.77 -0.81,1.34 -1.69,1.34Z" style="fill:#858285;fill-rule:nonzero;"/><path d="M127.31,146.19c-0.02,0 -0.05,0 -0.08,0c-0.04,-0.01 -0.08,-0.01 -0.12,-0.02c-0.34,-0.07 -0.6,-0.3 -0.67,-0.58c-0.02,-0.07 -0.03,-0.14 -0.02,-0.21c0.03,-0.38 0.4,-0.67 0.84,-0.67l0.09,0c0.28,0.03 0.52,0.16 0.66,0.35c0.11,0.13 0.16,0.29 0.15,0.46c-0.04,0.38 -0.41,0.67 -0.85,0.67Z" style="fill:#858285;fill-rule:nonzero;"/><path d="M207.58,157.6c-0.11,-0.04 -0.21,-0.08 -0.32,-0.12c-0.17,-0.06 -0.33,-0.12 -0.5,-0.18c-0.03,-0.01 -0.05,-0.02 -0.07,-0.03c-0.31,-0.11 -0.61,-0.22 -0.92,-0.33c0.13,-0.69 0.26,-1.31 0.4,-1.84c1.13,-4.32 2.02,-9.02 2.56,-13.92c0.03,0.1 0.05,0.19 0.06,0.28c0.13,0.44 0.28,1.03 0.41,1.71c0.13,0.47 0.21,0.96 0.22,1.47c0.09,0.8 0.13,1.66 0.06,2.52c-0.14,3.62 -0.69,7.14 -1.9,10.44Z" style="fill:#7a6960;fill-rule:nonzero;"/><path d="M205.77,156.94c-5.45,-1.91 -11.62,-3.52 -18.25,-4.31c6.02,-2.65 10.02,-14.48 11.43,-19.3c0.15,0.04 0.29,0.07 0.44,0.11c4.26,0.98 7.53,3.07 9.13,7.16c0,0 0.02,0.06 0.06,0.16l0.08,0.22c0.03,0.07 0.05,0.13 0.07,0.2c-0.54,4.9 -1.43,9.6 -2.56,13.92c-0.14,0.53 -0.27,1.15 -0.4,1.84Zm-43.08,-2.82c-0.08,-0.23 -0.15,-0.45 -0.23,-0.68c-1.11,-3.41 -1.69,-6.91 -1.06,-10.51c0.58,-3.25 2.59,-5.51 5.31,-7.29c0.77,-0.5 1.56,-0.92 2.37,-1.28c-0.81,7.71 -0.46,17.01 -0.46,17.01c0,0 0,0.01 0.01,0.01c0,0.04 0,0.06 0,0.06c0,0 1.4,0.5 3.61,1.01c-3.01,0.3 -6.06,0.81 -9.14,1.57c-0.02,0 -0.03,0 -0.05,0.01c-0.06,0.01 -0.13,0.03 -0.2,0.05c-0.05,0.01 -0.11,0.02 -0.16,0.04Z" style="fill:#807368;fill-rule:nonzero;"/><path d="M187.52,152.63c-2.77,-0.32 -5.63,-0.51 -8.55,-0.51c-0.01,0 -0.01,0 -0.02,0c-0.01,0 -0.01,0 -0.02,0c-2.2,0 -4.43,0.11 -6.69,0.33c-2.21,-0.51 -3.61,-1.01 -3.61,-1.01c0,0 0,-0.02 0,-0.06c0.04,0.01 0.23,0.07 0.61,0.23c0.1,-6.47 0.64,-15.11 2.67,-18.25c1.85,-0.51 3.77,-0.8 5.71,-0.99c2.68,-0.28 5.36,-0.43 8.03,-0.43c2.13,0 4.26,0.09 6.38,0.3c1.85,1.11 3.79,2.57 5.82,4.46c0.46,-1.29 0.82,-2.45 1.09,-3.37l0.01,0c-1.41,4.82 -5.41,16.65 -11.43,19.3Zm-5.62,-19.8c-4.58,0 -8.29,3.71 -8.29,8.29c0,4.58 3.71,8.3 8.29,8.3c4.58,0 8.29,-3.72 8.29,-8.3c0,-4.58 -3.71,-8.29 -8.29,-8.29Z" style="fill:#858285;fill-rule:nonzero;"/><path d="M169.24,151.61c-0.38,-0.16 -0.57,-0.22 -0.61,-0.23c-0.01,0 -0.01,-0.01 -0.01,-0.01c0,0 -0.35,-9.3 0.46,-17.01c0.92,-0.41 1.87,-0.74 2.83,-1c-2.03,3.14 -2.57,11.78 -2.67,18.25Zm28.61,-14.91c-2.03,-1.89 -3.97,-3.35 -5.82,-4.46c2.31,0.23 4.61,0.58 6.91,1.09c-0.27,0.92 -0.63,2.08 -1.09,3.37Z" style="fill:#77685f;fill-rule:nonzero;"/><path d="M181.9,149.42c-4.58,0 -8.29,-3.72 -8.29,-8.3c0,-4.58 3.71,-8.29 8.29,-8.29c4.58,0 8.29,3.71 8.29,8.29c0,4.58 -3.71,8.3 -8.29,8.3Zm-2.8,-3.93c0.79,0.73 1.8,1.17 2.87,1.17c0.1,0 0.21,-0.01 0.32,-0.01c2.39,-0.2 4.23,-2.62 4.01,-5.28c-0.01,-0.09 -0.02,-0.18 -0.03,-0.27c0.42,-0.3 0.68,-0.76 0.64,-1.26c-0.07,-0.77 -0.8,-1.34 -1.69,-1.34c-0.03,0 -0.05,0 -0.08,0c-0.84,-1.03 -2.05,-1.68 -3.34,-1.68c-0.1,0 -0.21,0.01 -0.32,0.02c-2.39,0.19 -4.23,2.61 -4.02,5.27c0.07,0.83 0.33,1.6 0.73,2.26c-0.1,0.14 -0.15,0.3 -0.14,0.47c0.03,0.38 0.4,0.67 0.84,0.67c0.03,0 0.06,0 0.09,-0.01c0.04,0 0.08,-0.01 0.12,-0.01Z" style="fill:#35201a;fill-rule:nonzero;"/><path d="M181.97,146.66c-1.07,0 -2.08,-0.44 -2.87,-1.17c0.34,-0.07 0.6,-0.3 0.67,-0.58c0.64,0.5 1.39,0.78 2.1,0.79c0.07,0 0.14,-0.01 0.21,-0.01c1.67,-0.15 3.39,-1.97 3.21,-4.23c0.37,-0.03 0.71,-0.16 0.98,-0.36c0.01,0.09 0.02,0.18 0.03,0.27c0.22,2.66 -1.62,5.08 -4.01,5.28c-0.11,0 -0.22,0.01 -0.32,0.01Zm-3.78,-2.29c-0.4,-0.66 -0.66,-1.43 -0.73,-2.26c-0.21,-2.66 1.63,-5.08 4.02,-5.27c0.11,-0.01 0.22,-0.02 0.32,-0.02c1.29,0 2.5,0.65 3.34,1.68c-0.03,0 -0.06,0 -0.09,0.01c-0.38,0.03 -0.72,0.16 -0.99,0.36c-0.7,-0.67 -1.59,-1.06 -2.41,-1.06c-0.08,0 -0.15,0 -0.22,0.01c-1.66,0.14 -3.39,1.97 -3.2,4.23c0.06,0.75 0.32,1.42 0.71,1.98c-0.03,0 -0.05,0 -0.08,0c-0.28,0.02 -0.52,0.16 -0.67,0.34Z" style="fill:#512f24;fill-rule:nonzero;"/><path d="M181.87,145.7c-0.71,-0.01 -1.46,-0.29 -2.1,-0.79c0.02,-0.07 0.03,-0.14 0.02,-0.22c-0.03,-0.38 -0.4,-0.66 -0.84,-0.66l-0.01,0c-0.39,-0.56 -0.65,-1.23 -0.71,-1.98c-0.19,-2.26 1.54,-4.09 3.2,-4.23c0.07,-0.01 0.14,-0.01 0.22,-0.01c0.82,0 1.71,0.39 2.41,1.06c-0.42,0.3 -0.67,0.76 -0.63,1.26c0.06,0.76 0.81,1.34 1.69,1.34c0.06,0 0.11,-0.01 0.17,-0.01c0.18,2.26 -1.54,4.08 -3.21,4.23c-0.07,0 -0.14,0.01 -0.21,0.01Z" style="fill:#1d1916;fill-rule:nonzero;"/><path d="M185.12,141.47c-0.88,0 -1.63,-0.58 -1.69,-1.34c-0.04,-0.5 0.21,-0.96 0.63,-1.26c0.27,-0.2 0.61,-0.33 0.99,-0.36c0.03,-0.01 0.06,-0.01 0.09,-0.01c0.03,0 0.05,0 0.08,0c0.89,0 1.62,0.57 1.69,1.34c0.04,0.5 -0.22,0.96 -0.64,1.26c-0.27,0.2 -0.61,0.33 -0.98,0.36c-0.06,0 -0.11,0.01 -0.17,0.01Z" style="fill:#858285;fill-rule:nonzero;"/><path d="M178.89,145.51c-0.44,0 -0.81,-0.29 -0.84,-0.67c-0.01,-0.17 0.04,-0.33 0.14,-0.47c0.15,-0.18 0.39,-0.32 0.67,-0.34l0.09,0c0.44,0 0.81,0.28 0.84,0.66c0.01,0.08 0,0.15 -0.02,0.22c-0.07,0.28 -0.33,0.51 -0.67,0.58c-0.04,0 -0.08,0.01 -0.12,0.01c-0.03,0.01 -0.06,0.01 -0.09,0.01Z" style="fill:#858285;fill-rule:nonzero;"/><path d="M100,164.84c-0.02,-0.02 -0.03,-0.05 -0.05,-0.07c-2.14,-2.62 -3.57,-5.48 -4.51,-8.49c1.03,-0.34 2.09,-0.66 3.16,-0.97c0.55,2.21 1,5.72 1.4,9.53Z" style="fill:#ada19a;fill-rule:nonzero;"/><path d="M116.28,172.31c-6.44,0 -12,-2.25 -16.28,-7.47c-0.4,-3.81 -0.85,-7.32 -1.4,-9.53c5.58,-1.61 11.74,-2.79 18.27,-3.11c0.99,0.78 2.05,1.33 3.16,1.55c1.7,0.33 3.42,0.46 5.09,0.46c2.96,0 5.75,-0.42 7.94,-0.88c2.26,0.44 4.54,1.01 6.84,1.73c0.01,0 0.02,0.01 0.04,0.01c0.15,0.05 0.3,0.1 0.45,0.14c-1.74,4.77 -4.18,9.13 -8.53,12.31c-3.76,2.75 -8.04,4.2 -12.67,4.65c-0.99,0.09 -1.96,0.14 -2.91,0.14Z" style="fill:#b0a6a0;fill-rule:nonzero;"/><path d="M125.12,154.21c-1.67,0 -3.39,-0.13 -5.09,-0.46c-1.11,-0.22 -2.17,-0.77 -3.16,-1.55c1.12,-0.05 2.26,-0.08 3.41,-0.08l0.05,0c4.14,0 8.4,0.37 12.73,1.21c-2.19,0.46 -4.98,0.88 -7.94,0.88Z" style="fill:#b5b4b5;fill-rule:nonzero;"/><path d="M98.6,155.31c5.58,-1.61 11.74,-2.79 18.27,-3.11c-6.53,0.32 -12.69,1.5 -18.27,3.11Z" style="fill:#96908e;fill-rule:nonzero;"/><path d="M116.87,152.2c1.12,-0.05 2.26,-0.08 3.41,-0.08c-1.15,0 -2.29,0.03 -3.41,0.08Z" style="fill:#989799;fill-rule:nonzero;"/><path d="M204.94,162.83c0.25,-2.21 0.53,-4.24 0.83,-5.89c0.31,0.11 0.61,0.22 0.92,0.33c0.02,0.01 0.04,0.02 0.07,0.03c0.17,0.06 0.33,0.12 0.5,0.18c0.11,0.04 0.21,0.08 0.32,0.12c-0.67,1.81 -1.53,3.56 -2.64,5.23Z" style="fill:#afa49f;fill-rule:nonzero;"/><path d="M187.19,172.31c-0.95,0 -1.93,-0.05 -2.91,-0.14c-4.64,-0.45 -8.91,-1.9 -12.67,-4.65c-4.68,-3.42 -7.16,-8.21 -8.92,-13.4c0.05,-0.02 0.11,-0.03 0.16,-0.04c0.07,-0.02 0.14,-0.04 0.2,-0.05c0.02,-0.01 0.03,-0.01 0.05,-0.01c3.08,-0.76 6.13,-1.27 9.14,-1.57c2.3,0.53 5.47,1.07 8.85,1.07c1.67,0 3.39,-0.13 5.08,-0.46c0.46,-0.09 0.91,-0.23 1.35,-0.43c6.63,0.79 12.8,2.4 18.25,4.31c-0.3,1.65 -0.58,3.68 -0.83,5.89c-0.43,0.66 -0.91,1.31 -1.42,1.94c-4.28,5.27 -9.87,7.54 -16.33,7.54Z" style="fill:#b3aaa4;fill-rule:nonzero;"/><path d="M181.09,153.52c-3.38,0 -6.55,-0.54 -8.85,-1.07c2.26,-0.22 4.49,-0.33 6.69,-0.33l0.04,0c2.92,0 5.78,0.19 8.55,0.51c-0.44,0.2 -0.89,0.34 -1.35,0.43c-1.69,0.33 -3.41,0.46 -5.08,0.46Z" style="fill:#b5b4b5;fill-rule:nonzero;"/><path d="M162.85,154.08c0.07,-0.02 0.14,-0.04 0.2,-0.05c-0.06,0.01 -0.13,0.03 -0.2,0.05Zm0.25,-0.06c3.08,-0.76 6.13,-1.27 9.14,-1.57c-3.01,0.3 -6.06,0.81 -9.14,1.57Z" style="fill:#979290;fill-rule:nonzero;"/><path d="M172.24,152.45c2.26,-0.22 4.49,-0.33 6.69,-0.33c-2.2,0 -4.43,0.11 -6.69,0.33Zm6.73,-0.33c-0.01,0 -0.01,0 -0.02,0c0.01,0 0.01,0 0.02,0Z" style="fill:#989799;fill-rule:nonzero;"/><path d="M209.48,147.16c-0.14,3.62 -0.69,7.14 -1.9,10.44c-0.93,2.53 -2.24,4.93 -4.06,7.17c-4.92,6.04 -11.54,8.15 -19.24,7.4c-4.64,-0.45 -8.91,-1.9 -12.67,-4.65c-4.68,-3.42 -7.15,-8.21 -8.92,-13.4c-0.08,-0.23 -0.15,-0.45 -0.23,-0.68c-1.11,-3.42 -1.69,-6.91 -1.06,-10.51c0.58,-3.25 2.59,-5.51 5.31,-7.29c3.3,-2.15 7.07,-2.88 10.91,-3.28c7.3,-0.75 14.58,-0.58 21.77,1.07c4.26,0.99 7.53,3.08 9.13,7.17c0,0 0.02,0.06 0.06,0.16l0.08,0.22c0.07,0.18 0.11,0.34 0.13,0.48c0.13,0.44 0.28,1.03 0.41,1.71c0.13,0.47 0.21,0.96 0.22,1.47c0.09,0.8 0.13,1.66 0.06,2.52Zm-68.47,6.28c-0.2,0.6 -0.4,1.19 -0.62,1.77c-1.74,4.77 -4.18,9.13 -8.53,12.31c-3.76,2.75 -8.04,4.2 -12.67,4.65c-7.7,0.75 -14.33,-1.36 -19.24,-7.4c-2.14,-2.62 -3.57,-5.48 -4.51,-8.49c-0.9,-2.91 -1.33,-5.98 -1.45,-9.12c-0.07,-0.86 -0.03,-1.72 0.06,-2.52c0.01,-0.51 0.08,-1 0.22,-1.47c0.13,-0.68 0.28,-1.27 0.4,-1.71c0.03,-0.14 0.07,-0.3 0.13,-0.48l0.09,-0.22c0.03,-0.1 0.05,-0.16 0.05,-0.16l0.01,0c1.59,-4.09 4.87,-6.18 9.12,-7.17c7.2,-1.65 14.47,-1.82 21.78,-1.07c3.84,0.4 7.61,1.13 10.91,3.28c2.72,1.78 4.73,4.04 5.3,7.29c0.64,3.6 0.06,7.09 -1.05,10.51Zm77.12,-16.74c-0.09,-1.63 -0.22,-1.8 -1.89,-2.17c-0.84,-0.18 -1.68,-0.37 -2.52,-0.56c-4.52,-1.01 -9.02,-2.07 -13.57,-2.91c-12.54,-2.31 -24.97,-2.95 -36.81,3.08c-1.96,0.99 -4.05,1.18 -6.27,0.73c-1.77,-0.36 -3.55,-0.58 -5.34,-0.6c-1.78,0.02 -3.57,0.24 -5.33,0.6c-2.23,0.45 -4.31,0.26 -6.27,-0.73c-11.84,-6.03 -24.27,-5.39 -36.81,-3.08c-4.3,0.79 -8.56,1.78 -12.83,2.74c-1.09,0.25 -2.18,0.5 -3.27,0.73c-1.66,0.37 -1.8,0.54 -1.88,2.17c-0.08,1.5 -0.19,3.01 1.31,4.03c0.09,0.06 0.14,0.18 0.21,0.27c1.7,1.92 2.95,3.98 3.63,6.37c0.21,0.74 0.38,1.5 0.48,2.31c0.32,2.58 0.9,5.1 1.75,7.53c0.88,2.5 2.06,4.9 3.57,7.17c3.81,5.73 9.25,9.24 16.18,10.06c11.23,1.33 20.41,-2.38 26.88,-11.61c1.48,-2.12 2.8,-4.33 3.92,-6.62c1.52,-3.08 2.7,-6.31 3.5,-9.7c0.14,-0.6 0.04,-1.34 -0.21,-1.91c-1.07,-2.38 -0.26,-4.19 2.33,-4.79c0.94,-0.23 1.89,-0.35 2.84,-0.37c0.95,0.02 1.9,0.14 2.85,0.37c2.59,0.6 3.4,2.41 2.33,4.79c-0.26,0.57 -0.35,1.31 -0.21,1.91c0.69,2.94 1.67,5.76 2.9,8.47c1.25,2.73 2.77,5.35 4.52,7.85c6.47,9.23 15.64,12.94 26.88,11.61c6.93,-0.82 12.37,-4.33 16.18,-10.06c1.22,-1.84 2.22,-3.76 3.03,-5.75c1.15,-2.87 1.9,-5.87 2.29,-8.95c0.2,-1.57 0.61,-3 1.22,-4.33c0.71,-1.56 1.69,-2.99 2.88,-4.35l0.22,-0.27c1.49,-1.02 1.38,-2.53 1.31,-4.03Z" style="fill:#fff;fill-rule:nonzero;"/><path d="M206.54,256.69c-55.67,32.59 -92.6,7.55 -104.17,-2.59c0.17,-0.29 0.35,-0.55 0.54,-0.8c1.09,-1.65 2.24,-3.17 3.41,-4.55c0.35,-0.37 0.66,-0.76 1.01,-1.11c0.31,-0.37 0.64,-0.72 0.99,-1.07c0.31,-0.33 0.68,-0.68 0.99,-0.99c0.33,-0.33 0.68,-0.63 0.98,-0.92c0.66,-0.62 1.36,-1.2 2.02,-1.71c0.29,-0.25 0.6,-0.49 0.93,-0.7c6.58,6.28 19.5,16.23 36.17,17.74l9.09,0l0,-0.05c10.86,-1.09 22.96,-6.09 35.74,-17.61l0.02,0c0.84,0.64 1.71,1.36 2.57,2.14c0.29,0.25 0.56,0.52 0.86,0.78c0.31,0.29 0.64,0.6 0.95,0.95c0.25,0.21 0.45,0.41 0.64,0.64c0.43,0.45 0.88,0.94 1.32,1.46c0.22,0.25 0.47,0.49 0.65,0.76c0.99,1.15 1.98,2.41 2.9,3.79c0.4,0.57 0.79,1.17 1.16,1.79c0.41,0.65 0.82,1.35 1.23,2.05Z" style="fill:#fff;fill-rule:nonzero;"/><path d="M215.14,285.02l-5.62,1.34c-2.55,0.62 -4.36,2.9 -4.36,5.54l0,8.66l-102.99,0l0,-8.66c0,-2.64 -1.81,-4.92 -4.38,-5.54l-5.6,-1.34c0.18,-1.48 0.37,-2.9 0.62,-4.28c0.41,-2.61 0.92,-5.08 1.54,-7.38c0.64,-2.74 1.42,-5.27 2.3,-7.61c0.17,-0.48 0.35,-0.95 0.52,-1.4c0.22,-0.52 0.41,-1.01 0.64,-1.5c0.18,-0.5 0.39,-0.97 0.63,-1.45c0.39,-0.96 0.87,-1.87 1.3,-2.75c0.78,-1.52 1.63,-2.96 2.47,-4.3l0.16,-0.25c11.57,10.14 48.5,35.18 104.17,2.59c0.35,0.64 0.72,1.3 1.07,1.96c0.91,1.77 1.77,3.66 2.57,5.7c0.17,0.45 0.37,0.92 0.54,1.4c0.86,2.34 1.64,4.87 2.3,7.61c0.62,2.3 1.13,4.77 1.55,7.38c0.22,1.38 0.41,2.8 0.57,4.28Z" style="fill:#aeb736;fill-rule:nonzero;"/><path d="M222.59,92.11c-2.83,-7.72 -10.65,-16.67 -21.73,-25.43c-14.08,-11.11 -22.93,-8.82 -34.58,-8.51c0,0 -0.04,0.07 -0.1,0.19c-5.12,-0.97 -32.63,-5.78 -49,-0.46c-18.1,5.89 -32.91,16 -43.37,43.14c-10.45,27.13 -1.87,49.35 0.15,58.84c6.43,30.03 37.24,49.04 37.24,49.04c0,0 -7.78,-8.02 -11.26,-16.01c-2.69,-6.21 -6.73,-16.87 -6.73,-32.56c0,-6.27 2.81,-13.13 6.18,-19.11c2.44,-5.94 6.15,-11.35 11.23,-15.8c0.12,-0.14 0.18,-0.21 0.18,-0.21l-0.07,0.11c0.45,-0.39 0.88,-0.8 1.35,-1.18c15.7,-12.51 37.21,-14.98 56.69,-9.07c0.35,-0.83 0.68,-5.29 1,-6.2c0.42,-1.2 0.66,-2.3 0.82,-3.38l19.99,25.39c0.94,1.11 2.47,2.97 4.25,5.39c5.19,7.03 12.35,18.56 12.35,28.59c0,15.69 -4.03,26.35 -6.73,32.55c-3.48,8 -11.26,16.02 -11.26,16.02c0,0 0.42,-0.26 1.14,-0.74c64.2,-41.33 44.58,-97.22 32.26,-120.6Z" style="fill:#fcba13;fill-rule:nonzero;"/></g></svg>