<?xml version="1.0" encoding="UTF-8" standalone="no"?><!DOCTYPE svg PUBLIC "-//W3C//DTD SVG 1.1//EN" "http://www.w3.org/Graphics/SVG/1.1/DTD/svg11.dtd"><svg width="100%" height="100%" viewBox="0 0 300 301" version="1.1" xmlns="http://www.w3.org/2000/svg" xmlns:xlink="http://www.w3.org/1999/xlink" xml:space="preserve" style="fill-rule:evenodd;clip-rule:evenodd;stroke-linejoin:round;stroke-miterlimit:1.41421;"><g id="_7"><rect x="0.01" y="0.39" width="299.36" height="300.48" style="fill:#7f8e9f;fill-rule:nonzero;"/><path d="M137.41,75.61l-0.27,0.27l0.05,0.09c0.09,-0.14 0.13,-0.27 0.22,-0.36Z" style="fill:#432e1b;fill-rule:nonzero;"/><path d="M156.08,188.31l0,112.56l-60.73,0c-0.99,-0.4 -1.48,-0.6 -1.48,-0.6c0,-14.37 2.1,-25.57 5.3,-34.31c7.73,-21.08 21.88,-27.78 28.4,-29.8c2.13,-0.66 3.45,-0.82 3.45,-0.82c0.23,0 0.45,-0.02 0.67,-0.05c1.91,-0.31 3.46,-1.98 4.71,-4.63c0.93,-1.98 1.7,-4.5 2.33,-7.41c0.25,-1.14 0.45,-2.28 0.65,-3.52c0.29,-2.08 0.59,-4.26 0.84,-6.54c0.09,-1.39 0.24,-2.73 0.39,-4.16c0.54,-6.89 0.69,-14.43 0.69,-21.57c0,0 8.16,0.85 14.78,0.85Z" style="fill:#e0bd9a;fill-rule:nonzero;"/><path d="M218.54,300.27c0,0 -0.55,0.2 -1.44,0.6l-61.02,0l0,-112.56l0.14,0c6.58,0 14.83,-0.85 14.83,-0.85c0,7.09 0.15,14.53 0.69,21.42c0.15,1.34 0.3,2.72 0.39,4.06c0.26,2.38 0.55,4.61 0.9,6.69l0,0.05c0.09,0.94 0.29,1.79 0.44,2.68c0.6,2.93 1.33,5.5 2.21,7.57c1.09,2.56 2.42,4.36 4.02,5.07c0.52,0.23 1.06,0.34 1.63,0.34c0,0 2.34,0.28 5.84,1.66c7.15,2.81 19.16,10.17 26.06,28.96c3.2,8.74 5.31,19.94 5.31,34.31Z" style="fill:#efd0ad;fill-rule:nonzero;"/><path d="M173.03,219.42l0,0.05c-1.54,2.37 -6.68,9.16 -16.85,9.16l-0.1,0c-9.64,-0.05 -15.27,-7.04 -16.7,-9.11c0.29,-2.07 0.59,-4.23 0.84,-6.5c0.09,-1.33 0.24,-2.71 0.39,-4.13c4.7,1.18 9.83,1.92 15.27,2.01l0.2,0c5.63,-0.09 10.82,-0.88 15.66,-2.16c0.15,1.33 0.3,2.71 0.4,4.04c0.24,2.36 0.54,4.57 0.89,6.64Z" style="fill:#be987f;fill-rule:nonzero;"/><path d="M155.39,60.03c-64.34,0 -64.69,53.92 -61.82,89.23c-4.4,-8.37 -17.49,-5.81 -16.41,7.38c1.04,12.71 19.75,19.18 19.23,17.78c9.74,26.11 35.52,45.79 59,45.79l0.49,0l0,-160.18l-0.49,0Z" style="fill:#d2a686;fill-rule:nonzero;"/><path d="M81.27,151.08c3.16,-5.12 8.1,-2.91 9.29,-1.77c1.28,1.23 2.32,2.8 1.53,5.81c-0.45,1.72 -2.23,1.87 -1.83,4.43c0.49,2.9 1.83,3.05 2.62,3.74c0.74,0.64 1.68,1.13 2.12,2.36c0.5,1.23 0.55,2.51 0.3,3.65c-0.5,2.06 -3.51,0.39 -5.54,-0.5c-1.33,-0.64 -5.58,-4.23 -6.67,-5.41c-2.66,-3.05 -3.95,-8.96 -1.82,-12.31Z" style="fill:#ac8774;fill-rule:nonzero;"/><path d="M155.73,60.03c64.34,0 64.68,53.92 61.87,89.23c4.39,-8.37 17.44,-5.81 16.35,7.38c-0.99,12.71 -19.73,19.18 -19.22,17.78c-9.49,26.11 -35.53,45.79 -59,45.79c-0.15,0 -0.34,0 -0.34,0l-0.15,-160.18c0,0 0.34,0 0.49,0Z" style="fill:#ddb598;fill-rule:nonzero;"/><path d="M229.85,151.08c-3.16,-5.12 -8.05,-2.91 -9.29,-1.77c-1.28,1.23 -2.27,2.8 -1.53,5.81c0.44,1.72 2.22,1.87 1.83,4.43c-0.5,2.9 -1.83,3.05 -2.57,3.74c-0.74,0.64 -1.73,1.13 -2.18,2.36c-0.44,1.23 -0.54,2.51 -0.29,3.65c0.49,2.06 3.51,0.39 5.53,-0.5c1.39,-0.64 5.59,-4.23 6.67,-5.41c2.72,-3.05 3.96,-8.96 1.83,-12.31Z" style="fill:#ac8774;fill-rule:nonzero;"/><path d="M154.88,75.25c-21.15,0 -36.67,6.15 -46,18.27c-13.1,16.98 -12.6,42.88 -7.81,61.5c1.48,5.71 2.27,21.02 3.26,26.64c4.59,25.16 32.32,38.55 50.55,38.55c0,0 0.35,0 0.49,0l0,-144.96c-0.14,0 -0.29,0 -0.29,0" style="fill:#e0bd9a;fill-rule:nonzero;"/><path d="M200.83,93.57c-9.29,-12.07 -24.6,-18.22 -45.46,-18.32l0,144.96c20.86,-0.25 45.81,-14.92 50.06,-38.55c1.04,-5.62 1.78,-20.93 3.26,-26.64c4.84,-18.57 5.34,-44.42 -7.86,-61.45Z" style="fill:#efd0ad;fill-rule:nonzero;"/><path d="M155.57,197.21" style="fill:#bc917b;fill-rule:nonzero;"/><path d="M155.57,197.21" style="fill:#bc917b;fill-rule:nonzero;"/><path d="M152,194.51c-0.1,-0.02 -0.2,-0.04 -0.3,-0.06c0.09,0.02 0.18,0.04 0.3,0.06Z" style="fill:#bc917b;fill-rule:nonzero;"/><path d="M155.57,194.32" style="fill:#bc917b;fill-rule:nonzero;"/><path d="M151.21,194.34c-0.09,-0.03 -0.17,-0.05 -0.27,-0.08l-0.01,0.01c0,0 0.11,0.02 0.28,0.07Z" style="fill:#bc917b;fill-rule:nonzero;"/><path d="M155.57,194.32" style="fill:#bc917b;fill-rule:nonzero;"/><path d="M96.45,126.69" style="fill:#432e1b;fill-rule:nonzero;"/><path d="M155.84,194.34" style="fill:#ba907b;fill-rule:nonzero;"/><path d="M155.84,194.34" style="fill:#ba907b;fill-rule:nonzero;"/><path d="M152.17,191.57c-0.1,-0.02 -0.2,-0.04 -0.31,-0.06c0.1,0.02 0.19,0.04 0.31,0.06Z" style="fill:#ba907b;fill-rule:nonzero;"/><path d="M155.84,191.38" style="fill:#ba907b;fill-rule:nonzero;"/><path d="M151.37,191.39c-0.1,-0.02 -0.18,-0.05 -0.28,-0.08l-0.01,0.01c0,0 0.11,0.03 0.29,0.07Z" style="fill:#ba907b;fill-rule:nonzero;"/><path d="M155.84,191.38" style="fill:#ba907b;fill-rule:nonzero;"/><path d="M144.31,173.16c-0.25,-5.14 9.43,-1.88 12.62,-1.72c2.52,0.13 10.19,-1.62 10.85,-1.17c4.51,3.05 -4.78,9.19 -11.01,9.19c-1.66,0 -12.31,-3.2 -12.46,-6.3Z" style="fill:#dcb497;fill-rule:nonzero;"/><path d="M155.97,196.72" style="fill:#ba907b;fill-rule:nonzero;"/><path d="M155.97,196.72" style="fill:#ba907b;fill-rule:nonzero;"/><path d="M152.31,193.95c-0.11,-0.02 -0.21,-0.04 -0.31,-0.06c0.1,0.02 0.19,0.04 0.31,0.06Z" style="fill:#ba907b;fill-rule:nonzero;"/><path d="M155.97,193.76" style="fill:#ba907b;fill-rule:nonzero;"/><path d="M151.5,193.77c-0.1,-0.02 -0.18,-0.05 -0.28,-0.07l-0.01,0c0,0 0.11,0.03 0.29,0.07Z" style="fill:#ba907b;fill-rule:nonzero;"/><path d="M155.97,193.76" style="fill:#ba907b;fill-rule:nonzero;"/><path d="M155.86,196.35" style="fill:#bc917b;fill-rule:nonzero;"/><path d="M155.86,196.35" style="fill:#bc917b;fill-rule:nonzero;"/><path d="M151.93,193.38c-0.11,-0.02 -0.22,-0.04 -0.33,-0.07c0.11,0.03 0.2,0.05 0.33,0.07Z" style="fill:#bc917b;fill-rule:nonzero;"/><path d="M155.86,193.17" style="fill:#bc917b;fill-rule:nonzero;"/><path d="M151.07,193.19c-0.11,-0.03 -0.2,-0.06 -0.3,-0.08l-0.01,0c0,0 0.11,0.03 0.31,0.08Z" style="fill:#bc917b;fill-rule:nonzero;"/><path d="M155.86,193.17" style="fill:#bc917b;fill-rule:nonzero;"/><path d="M155.61,195.51" style="fill:#bc917b;fill-rule:nonzero;"/><path d="M155.61,195.51" style="fill:#bc917b;fill-rule:nonzero;"/><path d="M151.68,192.54c-0.11,-0.02 -0.22,-0.05 -0.33,-0.07c0.11,0.02 0.2,0.04 0.33,0.07Z" style="fill:#bc917b;fill-rule:nonzero;"/><path d="M155.61,192.33" style="fill:#bc917b;fill-rule:nonzero;"/><path d="M150.82,192.35c-0.11,-0.03 -0.2,-0.06 -0.3,-0.09l-0.01,0.01c0,0 0.11,0.03 0.31,0.08Z" style="fill:#bc917b;fill-rule:nonzero;"/><path d="M155.61,192.33" style="fill:#bc917b;fill-rule:nonzero;"/><path d="M156.25,195.29" style="fill:#bc917b;fill-rule:nonzero;"/><path d="M156.25,195.29" style="fill:#bc917b;fill-rule:nonzero;"/><path d="M152.45,192.42c-0.11,-0.02 -0.21,-0.04 -0.32,-0.07c0.1,0.03 0.2,0.05 0.32,0.07Z" style="fill:#bc917b;fill-rule:nonzero;"/><path d="M156.25,192.22" style="fill:#bc917b;fill-rule:nonzero;"/><path d="M151.62,192.24c-0.1,-0.03 -0.19,-0.06 -0.29,-0.08l-0.01,0c0,0 0.11,0.03 0.3,0.08Z" style="fill:#bc917b;fill-rule:nonzero;"/><path d="M156.25,192.22" style="fill:#bc917b;fill-rule:nonzero;"/><path d="M152.97,203.75" style="fill:#be927b;fill-rule:nonzero;"/><path d="M152.97,203.75" style="fill:#be927b;fill-rule:nonzero;"/><path d="M149.33,201c-0.1,-0.02 -0.21,-0.04 -0.31,-0.07c0.1,0.03 0.19,0.04 0.31,0.07Z" style="fill:#be927b;fill-rule:nonzero;"/><path d="M152.97,200.8" style="fill:#be927b;fill-rule:nonzero;"/><path d="M148.53,200.82c-0.1,-0.02 -0.18,-0.05 -0.28,-0.08l-0.01,0.01c0,0 0.11,0.03 0.29,0.07Z" style="fill:#be927b;fill-rule:nonzero;"/><path d="M152.97,200.8" style="fill:#be927b;fill-rule:nonzero;"/><path d="M152.74,202.96" style="fill:#be927b;fill-rule:nonzero;"/><path d="M152.74,202.96" style="fill:#be927b;fill-rule:nonzero;"/><path d="M149.1,200.22c-0.1,-0.03 -0.21,-0.05 -0.31,-0.07c0.1,0.02 0.19,0.04 0.31,0.07Z" style="fill:#be927b;fill-rule:nonzero;"/><path d="M152.74,200.02" style="fill:#be927b;fill-rule:nonzero;"/><path d="M148.3,200.04c-0.09,-0.03 -0.18,-0.05 -0.28,-0.08l-0.01,0c0,0 0.11,0.03 0.29,0.08Z" style="fill:#be927b;fill-rule:nonzero;"/><path d="M152.74,200.02" style="fill:#be927b;fill-rule:nonzero;"/><path d="M153.33,202.77" style="fill:#be927b;fill-rule:nonzero;"/><path d="M153.33,202.77" style="fill:#be927b;fill-rule:nonzero;"/><path d="M149.81,200.11c-0.1,-0.02 -0.19,-0.04 -0.29,-0.06c0.09,0.02 0.18,0.04 0.29,0.06Z" style="fill:#be927b;fill-rule:nonzero;"/><path d="M153.33,199.92" style="fill:#be927b;fill-rule:nonzero;"/><path d="M149.04,199.94c-0.09,-0.03 -0.17,-0.05 -0.27,-0.08l0,0.01c0,0 0.1,0.02 0.27,0.07Z" style="fill:#be927b;fill-rule:nonzero;"/><path d="M153.33,199.92" style="fill:#be927b;fill-rule:nonzero;"/><path d="M143.08,202.51c-0.25,-3.21 8.91,0.67 11.91,0.77c2.4,0.08 9.6,-0.48 10.27,-0.73c5.03,-1.89 -0.28,5.36 -10.42,5.74c-4.64,0.19 -11.63,-3.83 -11.76,-5.78Z" style="fill:#f0d2ad;fill-rule:nonzero;"/><path d="M173.24,194.81c-5.8,-1.09 -18.03,0.07 -18.03,0.07c-10.08,1.68 -17.97,-0.11 -18.03,-0.04c-0.24,0.03 8.05,11.05 17.89,10.54c9.85,0.51 18.41,-10.54 18.17,-10.57Z" style="fill:#c2646e;fill-rule:nonzero;"/><path d="M161.04,192.48c-2.61,-0.29 -4.48,1.6 -5.82,1.46c-1.36,0.13 -3.14,-1.08 -5.77,-1.11c-3.7,-0.04 -5.5,-0.36 -12.27,2.01c0.24,0.47 4.58,2.98 12.7,3.12c0.11,0 2.29,1.24 5.39,1.22c1.94,-0.01 4.6,-1.31 4.7,-1.31c8.13,-0.13 13.1,-2.55 13.33,-3c-8.95,-2.78 -8.24,-2.43 -12.26,-2.39Z" style="fill:#d87475;fill-rule:nonzero;"/><path d="M109.22,131.43c0,0 4.91,20.25 13.34,21.91c8.42,1.65 17.54,-1.64 17.54,-1.64c0,0 0.87,-23.8 -3.44,-26.91c-4.31,-3.12 -14.25,-7.63 -27.44,6.64Z" style="fill:#fff;fill-rule:nonzero;"/><path d="M140.11,151.64c0,0 -0.19,0.06 -0.62,0.24c-0.11,-7.3 -0.78,-17.33 -3.48,-19.25c-4,-2.95 -13.05,-7.1 -25.13,4.25c-1.1,-3.13 -1.65,-5.51 -1.65,-5.51c13.21,-14.3 23.16,-9.8 27.44,-6.67c4.31,3.12 3.44,26.94 3.44,26.94Z" style="fill:#d6b496;fill-rule:nonzero;"/><path d="M135.12,141.33c0,4.6 -3.71,8.34 -8.29,8.34c-4.58,0 -8.29,-3.74 -8.29,-8.34c0,-4.61 3.71,-8.34 8.29,-8.34c4.58,0 8.29,3.73 8.29,8.34Z" style="fill:#482315;fill-rule:nonzero;"/><path d="M126.44,146.88c-2.39,-0.2 -4.23,-2.63 -4.01,-5.3c0.21,-2.67 2.42,-4.76 4.82,-4.56c2.39,0.2 4.23,2.63 4.02,5.3c-0.22,2.67 -2.43,4.76 -4.83,4.56Z" style="fill:#7e3a22;fill-rule:nonzero;"/><path d="M126.65,145.92c-1.67,-0.14 -3.4,-1.98 -3.21,-4.25c0.19,-2.27 2.19,-3.81 3.85,-3.67c1.67,0.14 3.4,1.99 3.21,4.26c-0.18,2.27 -2.19,3.8 -3.85,3.66Z" style="fill:#211a10;fill-rule:nonzero;"/><path d="M125.3,136.2c-0.07,0.82 -0.9,1.42 -1.86,1.34c-0.96,-0.08 -1.68,-0.81 -1.62,-1.63c0.07,-0.82 0.9,-1.42 1.86,-1.34c0.96,0.08 1.69,0.81 1.62,1.63Z" style="fill:#fff;fill-rule:nonzero;"/><path d="M130.68,145.07c-0.04,0.4 -0.45,0.7 -0.93,0.66c-0.48,-0.03 -0.84,-0.4 -0.81,-0.81c0.03,-0.41 0.45,-0.71 0.93,-0.67c0.48,0.04 0.84,0.41 0.81,0.82Z" style="fill:#fff;fill-rule:nonzero;"/><path d="M202.03,130.74c0,0 -4.91,20.25 -13.33,21.91c-8.43,1.65 -17.55,-1.64 -17.55,-1.64c0,0 -0.87,-23.8 3.44,-26.9c4.31,-3.13 14.25,-7.64 27.44,6.63Z" style="fill:#fff;fill-rule:nonzero;"/><path d="M171.14,150.95c0,0 0.19,0.06 0.62,0.24c0.11,-7.3 0.78,-17.33 3.48,-19.25c4,-2.95 13.05,-7.1 25.14,4.26c1.09,-3.14 1.64,-5.52 1.64,-5.52c-13.21,-14.3 -23.16,-9.8 -27.43,-6.67c-4.32,3.12 -3.45,26.94 -3.45,26.94Z" style="fill:#d6b496;fill-rule:nonzero;"/><path d="M176.13,140.64c0,4.61 3.71,8.34 8.29,8.34c4.58,0 8.29,-3.73 8.29,-8.34c0,-4.61 -3.71,-8.34 -8.29,-8.34c-4.58,0 -8.29,3.73 -8.29,8.34Z" style="fill:#482315;fill-rule:nonzero;"/><path d="M184.81,146.19c2.39,-0.2 4.23,-2.63 4.01,-5.3c-0.21,-2.67 -2.42,-4.76 -4.82,-4.56c-2.39,0.2 -4.23,2.63 -4.02,5.3c0.22,2.67 2.43,4.77 4.83,4.56Z" style="fill:#7e3a22;fill-rule:nonzero;"/><path d="M184.6,145.23c1.67,-0.14 3.4,-1.98 3.21,-4.25c-0.18,-2.27 -2.19,-3.8 -3.85,-3.67c-1.67,0.15 -3.4,1.99 -3.21,4.26c0.18,2.27 2.19,3.8 3.85,3.66Z" style="fill:#211a10;fill-rule:nonzero;"/><path d="M185.95,139.64c0.07,0.82 0.9,1.42 1.86,1.34c0.96,-0.08 1.69,-0.82 1.62,-1.63c-0.07,-0.82 -0.9,-1.42 -1.86,-1.34c-0.96,0.08 -1.69,0.81 -1.62,1.63Z" style="fill:#fff;fill-rule:nonzero;"/><path d="M180.57,144.38c0.04,0.41 0.45,0.71 0.93,0.67c0.48,-0.04 0.84,-0.41 0.81,-0.82c-0.03,-0.41 -0.45,-0.71 -0.93,-0.67c-0.48,0.04 -0.84,0.41 -0.81,0.82Z" style="fill:#fff;fill-rule:nonzero;"/><path d="M145.16,131.11c-0.06,-0.1 -1.59,-2.44 -4.72,-4.85c-1.96,-1.51 -3.87,-2.66 -5.87,-3.52c-2.42,-1.02 -5.02,-1.74 -7.55,-2.09c-2.28,-0.25 -4.81,-0.19 -7.77,0.21c-2.25,0.44 -4.45,1.11 -6.31,1.94c-1.34,0.46 -2.39,1.11 -3.23,1.63c-0.32,0.2 -0.62,0.38 -0.92,0.54l-4.02,2.54l4.64,-1.09c0.21,-0.06 0.45,-0.12 0.7,-0.19c0.96,-0.25 2.15,-0.57 3.55,-0.78c0.33,-0.05 0.67,-0.11 1.01,-0.18c0.58,-0.12 1.18,-0.24 1.81,-0.27c0.71,-0.05 1.44,-0.1 2.19,-0.15l0.97,-0.07c2.57,-0.04 4.74,0.16 6.67,0.61c2.1,0.36 4.27,1.05 6.25,1.97c1.88,0.9 3.68,1.8 5.08,2.83c2.83,1.91 4.41,3.49 4.43,3.51c0.39,0.39 0.91,0.59 1.43,0.59c0.38,0 0.76,-0.1 1.1,-0.32c0.93,-0.62 1.19,-1.89 0.6,-2.8l-0.04,-0.06Z" style="fill:#030405;fill-rule:nonzero;"/><path d="M202.86,124.95c-0.27,-0.14 -0.56,-0.33 -0.88,-0.52c-0.85,-0.53 -1.9,-1.17 -3.19,-1.62c-1.91,-0.84 -4.1,-1.51 -6.39,-1.95c-2.92,-0.4 -5.46,-0.46 -7.75,-0.21c-2.51,0.35 -5.12,1.07 -7.54,2.1c-1.96,0.84 -3.94,2.02 -5.87,3.51c-3.07,2.37 -4.59,4.67 -4.71,4.84l-0.03,0.04c-0.52,0.81 -0.4,1.88 0.27,2.56c0.38,0.38 0.88,0.6 1.42,0.6c0.54,0 1.05,-0.22 1.43,-0.6l0.02,-0.02c0.15,-0.15 1.68,-1.65 4.42,-3.5c1.38,-1.02 3.18,-1.92 5.05,-2.82c2,-0.92 4.16,-1.61 6.3,-1.98c1.9,-0.44 4.07,-0.63 6.61,-0.61l1.02,0.08c0.74,0.05 1.46,0.1 2.17,0.15c0.62,0.03 1.23,0.15 1.81,0.27c0.34,0.07 0.67,0.13 1,0.18c1.4,0.21 2.6,0.53 3.56,0.78c0.25,0.07 0.48,0.13 0.7,0.19l4.64,1.09l-4.06,-2.56Z" style="fill:#030405;fill-rule:nonzero;"/><path d="M215.06,159.75c1.29,0 -0.09,-7.22 4.23,-12.2c4.32,-4.97 10.9,-21.73 10.9,-38.46c0,-16.73 -5.63,-31.61 -20.32,-47.44c-14.7,-15.82 -36.3,-23.5 -36.3,-23.5l9.94,9.48c0,0 -5.36,-7.7 -24.6,-13.87c-15.18,-4.85 -25.01,0.56 -25.01,0.56c0,0 10.01,-0.36 13.05,4.2c0.75,1.16 3.57,2.91 3.57,2.91c0,0 -4.66,-10.92 -26.27,-1.87c-21.6,9.05 -21.21,25.26 -36.24,30.23c-15.39,5.1 -19.85,-1.44 -19.85,-1.44c0,0 6.67,11.46 18.53,11.49c2.28,0 2.12,-0.06 2.12,-0.06c0,0 -4.44,12.29 -5.29,21.47c-0.87,9.35 1.84,15.75 2.68,33.25c0.72,14.96 4.62,7.29 9.27,18.32c1.57,3.7 1.63,7.86 1.63,7.86c1.73,0.43 6.25,-8.98 3,-25.34c-2.11,-10.62 8.33,-50.87 33.52,-43.02c15.41,4.8 19.3,14.58 30.82,5.89c9.93,-7.48 23.82,-11.78 34.19,-5.87c10.38,5.93 16.22,19.24 14.41,40.49c-2.31,27.12 2.02,26.92 2.02,26.92Z" style="fill:#fff;fill-rule:nonzero;"/><path d="M183.6,230.53l-0.01,0c-1.95,-4.52 -4.09,-9.29 -4.4,-9.55c-0.53,-0.44 -6.21,-1.27 -6.11,-0.85c0.15,0.58 0.79,6.02 0.79,6.02l-15.6,16.41l-3,10.211l-3.47,-10.211l-13.72,-14.9c0,0 1.13,-6.43 1.11,-6.78c-0.03,-0.43 -6.72,0.38 -7.24,0.83c-0.29,0.24 -2.12,4.3 -3.93,8.46l27.26,38.69l28.32,-38.33Z" style="fill:#9c3232;fill-rule:nonzero;"/><path d="M183.6,230.53l-21.57,29.19c-3.33,4.5 -10.08,4.43 -13.3,-0.15l-20.71,-29.4l0,70.7l55.58,0l0,-70.34Z" style="fill:#7f2828;fill-rule:nonzero;"/><path d="M95.43,278.62c-0.49,3.141 -0.87,6.49 -1.14,10.04c-0.26,3.621 -0.42,7.43 -0.42,11.51c0,0 0.5,0.23 1.48,0.7l19.42,0l0,-62.67c-7.7,6.74 -15.98,18.831 -19.34,40.42Z" style="fill:#7f2828;fill-rule:nonzero;"/><path d="M218.54,300.17c0,-4.07 -0.18,-7.88 -0.47,-11.51c-0.28,-3.56 -0.7,-6.889 -1.22,-10.04c-3.59,-21.49 -12.3,-33.6 -20,-40.3l0,62.55l19.38,0c0.86,-0.03 2.31,-0.7 2.31,-0.7Z" style="fill:#7f2828;fill-rule:nonzero;"/><path d="M127.83,230.62c-2.99,0.94 -7.9,3.06 -13.06,7.58l0,62.67l13.25,0l0,-70.7c-0.06,0.15 -0.13,0.3 -0.19,0.45Z" style="fill:#343839;fill-rule:nonzero;"/><path d="M196.43,237.95c-0.33,-0.32 -0.67,-0.61 -1.06,-0.89c-2.58,-2.09 -5.1,-3.63 -7.27,-4.7c-0.38,-0.18 -0.71,-0.37 -1.06,-0.51c-1.32,-0.6 -2.47,-1.02 -3.44,-1.32l0,70.34l13.25,0l0,-62.55c-0.14,-0.12 -0.28,-0.26 -0.42,-0.37Z" style="fill:#343839;fill-rule:nonzero;"/></g></svg>