<?xml version="1.0" encoding="UTF-8" standalone="no"?><!DOCTYPE svg PUBLIC "-//W3C//DTD SVG 1.1//EN" "http://www.w3.org/Graphics/SVG/1.1/DTD/svg11.dtd"><svg width="100%" height="100%" viewBox="0 0 298 301" version="1.1" xmlns="http://www.w3.org/2000/svg" xmlns:xlink="http://www.w3.org/1999/xlink" xml:space="preserve" style="fill-rule:evenodd;clip-rule:evenodd;stroke-linejoin:round;stroke-miterlimit:1.41421;"><g id="_8"><rect x="0.17" y="0.39" width="296.87" height="299.71" style="fill:#6b557b;fill-rule:nonzero;"/><path d="M153.55,188.61l0,112.25l-60.73,0c-0.99,-0.39 -1.48,-0.59 -1.48,-0.59c0,-5.42 0.3,-10.39 0.86,-14.94c0.16,-1.48 0.37,-2.9 0.6,-4.28c0.43,-2.61 0.94,-5.08 1.54,-7.39c0.66,-2.73 1.44,-5.26 2.3,-7.61c0.19,-0.47 0.35,-0.95 0.54,-1.4c0.2,-0.51 0.41,-1.01 0.62,-1.5c0.2,-0.49 0.41,-0.97 0.63,-1.44c0.42,-0.969 0.87,-1.87 1.32,-2.76c0.78,-1.52 1.61,-2.959 2.47,-4.3c0.23,-0.369 0.45,-0.72 0.68,-1.05c1.11,-1.64 2.26,-3.17 3.43,-4.54c0.33,-0.37 0.66,-0.76 0.99,-1.11c0.33,-0.38 0.66,-0.72 0.99,-1.07c0.33,-0.33 0.68,-0.68 1.01,-0.99c0.33,-0.33 0.66,-0.64 0.99,-0.93c0.65,-0.62 1.33,-1.19 1.99,-1.71c0.31,-0.24 0.62,-0.49 0.93,-0.7c2.9,-2.22 5.65,-3.74 8.04,-4.79c0.33,-0.14 0.66,-0.29 0.99,-0.43c1.03,-0.41 1.95,-0.74 2.78,-0.99c2.14,-0.68 3.45,-0.82 3.45,-0.82c0.25,0 0.46,-0.02 0.68,-0.06c1.91,-0.31 3.46,-1.98 4.71,-4.61c0.93,-1.98 1.69,-4.49 2.33,-7.39c0.25,-1.15 0.45,-2.28 0.64,-3.52c0.3,-2.07 0.59,-4.26 0.84,-6.52c0.1,-1.38 0.25,-2.71 0.39,-4.15c0.56,-6.88 0.7,-14.39 0.7,-21.5c0,0 8.15,0.84 14.77,0.84Z" style="fill:#e0bd9a;fill-rule:nonzero;"/><path d="M216.02,300.27c0,0 -0.54,0.2 -1.44,0.59l-61.03,0l0,-112.25l0.15,0c6.58,0 14.83,-0.84 14.83,-0.84c0,7.05 0.14,14.48 0.68,21.35c0.16,1.34 0.31,2.72 0.41,4.05c0.25,2.37 0.54,4.59 0.89,6.67l0,0.04c0.1,0.95 0.28,1.79 0.45,2.68c0.59,2.92 1.31,5.49 2.2,7.55c1.09,2.57 2.41,4.36 4.03,5.06c0.5,0.22 1.05,0.35 1.63,0.35c0,0 2.32,0.27 5.82,1.64c1.85,0.72 4.03,1.75 6.36,3.21c0.47,0.29 0.96,0.62 1.44,0.95c0.39,0.25 0.78,0.54 1.17,0.82c0.21,0.15 0.43,0.31 0.64,0.5c0.14,0.08 0.27,0.18 0.39,0.29c0.72,0.55 1.46,1.17 2.2,1.85c0.29,0.24 0.56,0.51 0.84,0.78c0.33,0.29 0.64,0.6 0.97,0.94c0.23,0.21 0.43,0.42 0.64,0.64c0.43,0.46 0.88,0.95 1.32,1.46c0.22,0.25 0.45,0.5 0.65,0.76c0.99,1.161 1.96,2.411 2.88,3.79c0.42,0.581 0.79,1.17 1.18,1.79c0.78,1.26 1.54,2.591 2.28,4.01c0.91,1.77 1.77,3.66 2.57,5.7c0.19,0.45 0.37,0.93 0.54,1.4c0.86,2.35 1.64,4.88 2.32,7.61c0.6,2.31 1.11,4.78 1.53,7.39c0.22,1.38 0.43,2.8 0.59,4.28c0.56,4.55 0.87,9.52 0.87,14.94Z" style="fill:#efd0ad;fill-rule:nonzero;"/><path d="M170.5,219.63l0,0.05c-1.53,2.36 -6.67,9.14 -16.85,9.14l-0.09,0c-9.64,-0.05 -15.27,-7.03 -16.71,-9.09c0.3,-2.06 0.6,-4.22 0.84,-6.48c0.1,-1.33 0.25,-2.7 0.4,-4.13c4.69,1.18 9.83,1.92 15.27,2.02l0.2,0c5.63,-0.1 10.82,-0.89 15.66,-2.17c0.15,1.33 0.3,2.71 0.4,4.03c0.24,2.36 0.54,4.57 0.88,6.63Z" style="fill:#be987f;fill-rule:nonzero;"/><path d="M152.86,60.65c-64.33,0 -64.68,53.78 -61.81,89c-4.4,-8.35 -17.49,-5.8 -16.41,7.36c1.04,12.67 19.75,19.13 19.22,17.73c9.75,26.05 35.53,45.68 59,45.68l0.5,0l0,-159.77l-0.5,0Z" style="fill:#d2a686;fill-rule:nonzero;"/><path d="M78.74,151.46c3.17,-5.11 8.11,-2.89 9.29,-1.77c1.29,1.23 2.33,2.8 1.54,5.8c-0.45,1.72 -2.23,1.87 -1.83,4.42c0.49,2.9 1.83,3.05 2.62,3.73c0.74,0.64 1.68,1.13 2.12,2.36c0.5,1.23 0.54,2.51 0.3,3.63c-0.5,2.07 -3.51,0.4 -5.54,-0.49c-1.33,-0.63 -5.58,-4.22 -6.67,-5.4c-2.67,-3.04 -3.95,-8.94 -1.83,-12.28Z" style="fill:#ac8774;fill-rule:nonzero;"/><path d="M153.21,60.65c64.34,0 64.68,53.78 61.87,89c4.39,-8.35 17.44,-5.8 16.35,7.36c-0.99,12.67 -19.73,19.14 -19.22,17.73c-9.49,26.05 -35.53,45.68 -59,45.68c-0.15,0 -0.35,0 -0.35,0l-0.14,-159.77c0,0 0.34,0 0.49,0Z" style="fill:#ddb598;fill-rule:nonzero;"/><path d="M227.33,151.46c-3.16,-5.11 -8.05,-2.89 -9.29,-1.77c-1.28,1.23 -2.27,2.8 -1.53,5.8c0.44,1.72 2.22,1.87 1.83,4.42c-0.5,2.9 -1.83,3.05 -2.57,3.73c-0.74,0.64 -1.73,1.13 -2.18,2.36c-0.44,1.23 -0.54,2.51 -0.29,3.63c0.49,2.07 3.5,0.4 5.53,-0.49c1.38,-0.63 5.58,-4.22 6.67,-5.4c2.72,-3.04 3.95,-8.94 1.83,-12.28Z" style="fill:#ac8774;fill-rule:nonzero;"/><path d="M152.36,75.83c-21.15,0 -36.67,6.14 -46.01,18.22c-13.09,16.94 -12.6,42.78 -7.8,61.34c1.48,5.7 2.27,20.97 3.26,26.57c4.59,25.1 32.31,38.46 50.55,38.46c0,0 0.34,0 0.49,0l0,-144.59c-0.15,0 -0.29,0 -0.29,0" style="fill:#e0bd9a;fill-rule:nonzero;"/><path d="M198.31,94.1c-9.29,-12.03 -24.61,-18.17 -45.46,-18.27l0,144.59c20.85,-0.25 45.81,-14.88 50.06,-38.46c1.04,-5.6 1.78,-20.87 3.26,-26.57c4.84,-18.51 5.34,-44.3 -7.86,-61.29Z" style="fill:#efd0ad;fill-rule:nonzero;"/><path d="M153.05,197.47" style="fill:#bc917b;fill-rule:nonzero;"/><path d="M153.05,197.47" style="fill:#bc917b;fill-rule:nonzero;"/><path d="M149.48,194.79c-0.1,-0.03 -0.2,-0.04 -0.31,-0.07c0.1,0.02 0.19,0.04 0.31,0.07Z" style="fill:#bc917b;fill-rule:nonzero;"/><path d="M153.05,194.59" style="fill:#bc917b;fill-rule:nonzero;"/><path d="M148.69,194.61c-0.09,-0.02 -0.18,-0.05 -0.27,-0.07l-0.01,0c0,0 0.11,0.03 0.28,0.07Z" style="fill:#bc917b;fill-rule:nonzero;"/><path d="M153.05,194.59" style="fill:#bc917b;fill-rule:nonzero;"/><path d="M134.89,76.19l-0.27,0.27l0.05,0.09c0.09,-0.14 0.13,-0.27 0.22,-0.36Z" style="fill:#432e1b;fill-rule:nonzero;"/><path d="M93.93,127.14" style="fill:#432e1b;fill-rule:nonzero;"/><path d="M153.32,194.61" style="fill:#ba907b;fill-rule:nonzero;"/><path d="M153.32,194.61" style="fill:#ba907b;fill-rule:nonzero;"/><path d="M149.65,191.85c-0.1,-0.02 -0.2,-0.04 -0.31,-0.06c0.1,0.02 0.19,0.04 0.31,0.06Z" style="fill:#ba907b;fill-rule:nonzero;"/><path d="M153.32,191.66" style="fill:#ba907b;fill-rule:nonzero;"/><path d="M148.85,191.67c-0.1,-0.02 -0.19,-0.05 -0.28,-0.07l-0.01,0c0,0 0.11,0.03 0.29,0.07Z" style="fill:#ba907b;fill-rule:nonzero;"/><path d="M153.32,191.66" style="fill:#ba907b;fill-rule:nonzero;"/><path d="M140.28,175.89c-0.25,-5.13 9.43,-1.88 12.62,-1.72c2.52,0.13 10.19,-1.61 10.85,-1.16c4.51,3.04 -4.78,9.17 -11.01,9.17c-1.66,0 -12.31,-3.2 -12.46,-6.29Z" style="fill:#dcb497;fill-rule:nonzero;"/><path d="M106.7,132.26c0,0 4.91,20.14 13.33,21.78c8.43,1.64 17.55,-1.62 17.55,-1.62c0,0 0.87,-23.67 -3.44,-26.76c-4.31,-3.1 -14.25,-7.59 -27.44,6.6Z" style="fill:#fff;fill-rule:nonzero;"/><path d="M137.59,152.36c0,0 -0.19,0.05 -0.62,0.23c-0.11,-7.26 -0.78,-17.23 -3.48,-19.14c-4,-2.93 -13.05,-7.06 -25.14,4.23c-1.09,-3.12 -1.64,-5.48 -1.64,-5.48c13.21,-14.22 23.16,-9.74 27.43,-6.63c4.32,3.1 3.45,26.79 3.45,26.79Z" style="fill:#d6b496;fill-rule:nonzero;"/><path d="M132.6,142.1c0,4.58 -3.71,8.3 -8.29,8.3c-4.58,0 -8.29,-3.72 -8.29,-8.3c0,-4.58 3.71,-8.29 8.29,-8.29c4.58,0 8.29,3.71 8.29,8.29Z" style="fill:#482315;fill-rule:nonzero;"/><path d="M123.92,147.63c-2.39,-0.2 -4.23,-2.62 -4.01,-5.28c0.21,-2.65 2.42,-4.73 4.82,-4.53c2.39,0.2 4.23,2.61 4.02,5.27c-0.22,2.65 -2.43,4.74 -4.83,4.54Z" style="fill:#7e3a22;fill-rule:nonzero;"/><path d="M124.13,146.67c-1.67,-0.14 -3.4,-1.97 -3.21,-4.23c0.18,-2.26 2.19,-3.78 3.85,-3.64c1.67,0.14 3.4,1.97 3.21,4.23c-0.18,2.25 -2.19,3.77 -3.85,3.64Z" style="fill:#211a10;fill-rule:nonzero;"/><path d="M122.78,141.11c-0.07,0.81 -0.9,1.41 -1.86,1.33c-0.96,-0.08 -1.69,-0.81 -1.62,-1.62c0.07,-0.82 0.9,-1.41 1.86,-1.33c0.96,0.07 1.69,0.8 1.62,1.62Z" style="fill:#fff;fill-rule:nonzero;"/><path d="M128.16,145.82c-0.04,0.4 -0.45,0.7 -0.93,0.66c-0.48,-0.03 -0.84,-0.4 -0.81,-0.81c0.03,-0.4 0.45,-0.7 0.93,-0.66c0.48,0.04 0.84,0.4 0.81,0.81Z" style="fill:#fff;fill-rule:nonzero;"/><path d="M153.45,196.99" style="fill:#ba907b;fill-rule:nonzero;"/><path d="M153.45,196.99" style="fill:#ba907b;fill-rule:nonzero;"/><path d="M149.78,194.23c-0.1,-0.02 -0.2,-0.04 -0.31,-0.07c0.11,0.02 0.2,0.04 0.31,0.07Z" style="fill:#ba907b;fill-rule:nonzero;"/><path d="M153.45,194.03" style="fill:#ba907b;fill-rule:nonzero;"/><path d="M148.98,194.05c-0.1,-0.03 -0.18,-0.05 -0.28,-0.08l-0.01,0c0,0 0.11,0.03 0.29,0.08Z" style="fill:#ba907b;fill-rule:nonzero;"/><path d="M153.45,194.03" style="fill:#ba907b;fill-rule:nonzero;"/><path d="M153.34,196.62" style="fill:#bc917b;fill-rule:nonzero;"/><path d="M153.34,196.62" style="fill:#bc917b;fill-rule:nonzero;"/><path d="M149.41,193.66c-0.11,-0.02 -0.22,-0.05 -0.34,-0.07c0.11,0.02 0.21,0.04 0.34,0.07Z" style="fill:#bc917b;fill-rule:nonzero;"/><path d="M153.34,193.45" style="fill:#bc917b;fill-rule:nonzero;"/><path d="M148.54,193.47c-0.1,-0.03 -0.19,-0.06 -0.29,-0.09l-0.01,0.01c0,0 0.11,0.03 0.3,0.08Z" style="fill:#bc917b;fill-rule:nonzero;"/><path d="M153.34,193.45" style="fill:#bc917b;fill-rule:nonzero;"/><path d="M153.09,195.78" style="fill:#bc917b;fill-rule:nonzero;"/><path d="M153.09,195.78" style="fill:#bc917b;fill-rule:nonzero;"/><path d="M149.16,192.82c-0.11,-0.03 -0.22,-0.05 -0.33,-0.07c0.11,0.02 0.2,0.04 0.33,0.07Z" style="fill:#bc917b;fill-rule:nonzero;"/><path d="M153.09,192.61" style="fill:#bc917b;fill-rule:nonzero;"/><path d="M148.3,192.62c-0.11,-0.02 -0.2,-0.05 -0.3,-0.08l-0.01,0.01c0,0 0.11,0.03 0.31,0.07Z" style="fill:#bc917b;fill-rule:nonzero;"/><path d="M153.09,192.61" style="fill:#bc917b;fill-rule:nonzero;"/><path d="M153.73,195.56" style="fill:#bc917b;fill-rule:nonzero;"/><path d="M153.73,195.56" style="fill:#bc917b;fill-rule:nonzero;"/><path d="M149.93,192.7c-0.11,-0.02 -0.21,-0.04 -0.32,-0.07c0.1,0.03 0.2,0.05 0.32,0.07Z" style="fill:#bc917b;fill-rule:nonzero;"/><path d="M153.73,192.5" style="fill:#bc917b;fill-rule:nonzero;"/><path d="M149.1,192.52c-0.1,-0.03 -0.19,-0.06 -0.29,-0.08l-0.01,0c0,0 0.11,0.03 0.3,0.08Z" style="fill:#bc917b;fill-rule:nonzero;"/><path d="M153.73,192.5" style="fill:#bc917b;fill-rule:nonzero;"/><path d="M199.51,131.58c0,0 -4.91,20.13 -13.34,21.78c-8.42,1.64 -17.54,-1.63 -17.54,-1.63c0,0 -0.87,-23.66 3.44,-26.75c4.31,-3.11 14.25,-7.6 27.44,6.6Z" style="fill:#fff;fill-rule:nonzero;"/><path d="M168.62,151.67c0,0 0.19,0.06 0.62,0.24c0.11,-7.26 0.78,-17.23 3.48,-19.14c4,-2.93 13.05,-7.06 25.13,4.23c1.1,-3.12 1.65,-5.49 1.65,-5.49c-13.21,-14.22 -23.16,-9.74 -27.44,-6.63c-4.31,3.11 -3.44,26.79 -3.44,26.79Z" style="fill:#d6b496;fill-rule:nonzero;"/><path d="M173.61,141.42c0,4.58 3.71,8.29 8.29,8.29c4.58,0 8.29,-3.71 8.29,-8.29c0,-4.58 -3.71,-8.3 -8.29,-8.3c-4.58,0 -8.29,3.72 -8.29,8.3Z" style="fill:#482315;fill-rule:nonzero;"/><path d="M182.29,146.94c2.39,-0.2 4.23,-2.61 4.01,-5.27c-0.21,-2.66 -2.42,-4.74 -4.82,-4.54c-2.39,0.2 -4.23,2.61 -4.02,5.27c0.22,2.66 2.43,4.74 4.83,4.54Z" style="fill:#7e3a22;fill-rule:nonzero;"/><path d="M182.08,145.98c1.67,-0.14 3.4,-1.97 3.21,-4.22c-0.19,-2.26 -2.19,-3.79 -3.85,-3.65c-1.67,0.14 -3.4,1.98 -3.21,4.23c0.18,2.26 2.19,3.78 3.85,3.64Z" style="fill:#211a10;fill-rule:nonzero;"/><path d="M183.43,140.42c0.07,0.82 0.9,1.41 1.86,1.33c0.96,-0.08 1.68,-0.8 1.62,-1.61c-0.07,-0.82 -0.9,-1.42 -1.86,-1.34c-0.96,0.08 -1.69,0.81 -1.62,1.62Z" style="fill:#fff;fill-rule:nonzero;"/><path d="M178.05,145.13c0.04,0.41 0.45,0.71 0.93,0.67c0.48,-0.04 0.84,-0.41 0.81,-0.81c-0.03,-0.41 -0.45,-0.71 -0.93,-0.67c-0.48,0.04 -0.84,0.41 -0.81,0.81Z" style="fill:#fff;fill-rule:nonzero;"/><path d="M142.64,131.94c-0.06,-0.1 -1.59,-2.42 -4.72,-4.82c-1.96,-1.5 -3.88,-2.64 -5.87,-3.5c-2.42,-1.01 -5.02,-1.73 -7.55,-2.08c-2.28,-0.25 -4.81,-0.18 -7.77,0.21c-2.25,0.43 -4.45,1.1 -6.32,1.93c-1.33,0.45 -2.38,1.1 -3.22,1.62c-0.33,0.19 -0.62,0.37 -0.92,0.53l-4.02,2.53l4.64,-1.09c0.21,-0.05 0.45,-0.11 0.7,-0.18c0.96,-0.25 2.15,-0.57 3.55,-0.77c0.33,-0.05 0.66,-0.12 1,-0.19c0.59,-0.11 1.19,-0.23 1.82,-0.26c0.71,-0.05 1.44,-0.1 2.18,-0.16l0.98,-0.07c2.57,-0.03 4.74,0.17 6.66,0.61c2.11,0.36 4.28,1.04 6.26,1.96c1.88,0.9 3.68,1.79 5.08,2.82c2.83,1.89 4.41,3.47 4.42,3.48c0.39,0.4 0.91,0.6 1.44,0.6c0.38,0 0.76,-0.11 1.09,-0.33c0.94,-0.61 1.2,-1.87 0.61,-2.78l-0.04,-0.06Z" style="fill:#030405;fill-rule:nonzero;"/><path d="M200.34,125.81c-0.27,-0.14 -0.56,-0.32 -0.89,-0.51c-0.84,-0.52 -1.89,-1.17 -3.18,-1.61c-1.91,-0.84 -4.11,-1.51 -6.39,-1.94c-2.93,-0.39 -5.46,-0.46 -7.75,-0.21c-2.51,0.35 -5.12,1.07 -7.54,2.08c-1.97,0.84 -3.94,2.02 -5.87,3.5c-3.07,2.35 -4.6,4.64 -4.71,4.81l-0.03,0.05c-0.52,0.79 -0.41,1.86 0.26,2.53c0.39,0.39 0.89,0.6 1.43,0.6c0.54,0 1.05,-0.21 1.43,-0.6l0.01,-0.01c0.15,-0.15 1.68,-1.65 4.43,-3.48c1.38,-1.02 3.18,-1.91 5.05,-2.8c2,-0.93 4.16,-1.61 6.3,-1.98c1.9,-0.43 4.07,-0.62 6.61,-0.6l1.02,0.08c0.74,0.05 1.46,0.1 2.17,0.15c0.62,0.03 1.23,0.15 1.81,0.26c0.34,0.07 0.67,0.14 1,0.19c1.4,0.2 2.59,0.52 3.55,0.77c0.26,0.07 0.49,0.13 0.71,0.19l4.64,1.09l-4.06,-2.56Z" style="fill:#030405;fill-rule:nonzero;"/><path d="M150.45,204" style="fill:#be927b;fill-rule:nonzero;"/><path d="M150.45,204" style="fill:#be927b;fill-rule:nonzero;"/><path d="M146.81,201.26c-0.1,-0.03 -0.21,-0.05 -0.31,-0.07c0.1,0.02 0.19,0.04 0.31,0.07Z" style="fill:#be927b;fill-rule:nonzero;"/><path d="M150.45,201.06" style="fill:#be927b;fill-rule:nonzero;"/><path d="M146.01,201.08c-0.1,-0.03 -0.18,-0.05 -0.28,-0.08l-0.01,0c0,0 0.11,0.03 0.29,0.08Z" style="fill:#be927b;fill-rule:nonzero;"/><path d="M150.45,201.06" style="fill:#be927b;fill-rule:nonzero;"/><path d="M150.22,203.22" style="fill:#be927b;fill-rule:nonzero;"/><path d="M150.22,203.22" style="fill:#be927b;fill-rule:nonzero;"/><path d="M146.58,200.48c-0.1,-0.03 -0.21,-0.05 -0.31,-0.07c0.1,0.02 0.19,0.04 0.31,0.07Z" style="fill:#be927b;fill-rule:nonzero;"/><path d="M150.22,200.28" style="fill:#be927b;fill-rule:nonzero;"/><path d="M145.78,200.3c-0.1,-0.03 -0.18,-0.06 -0.28,-0.08l-0.01,0c0,0 0.11,0.03 0.29,0.08Z" style="fill:#be927b;fill-rule:nonzero;"/><path d="M150.22,200.28" style="fill:#be927b;fill-rule:nonzero;"/><path d="M150.81,203.02" style="fill:#be927b;fill-rule:nonzero;"/><path d="M150.81,203.02" style="fill:#be927b;fill-rule:nonzero;"/><path d="M147.29,200.37c-0.1,-0.02 -0.2,-0.04 -0.3,-0.07c0.1,0.03 0.19,0.04 0.3,0.07Z" style="fill:#be927b;fill-rule:nonzero;"/><path d="M150.81,200.18" style="fill:#be927b;fill-rule:nonzero;"/><path d="M146.52,200.2c-0.09,-0.03 -0.18,-0.05 -0.27,-0.08l-0.01,0.01c0,0 0.11,0.02 0.28,0.07Z" style="fill:#be927b;fill-rule:nonzero;"/><path d="M150.81,200.18" style="fill:#be927b;fill-rule:nonzero;"/><path d="M140.55,202.76c-0.24,-3.19 8.92,0.68 11.92,0.77c2.4,0.08 9.6,-0.48 10.27,-0.73c5.03,-1.88 -0.28,5.35 -10.42,5.73c-4.64,0.18 -11.63,-3.82 -11.77,-5.77Z" style="fill:#f0d2ad;fill-rule:nonzero;"/><path d="M170.72,195.08c-5.8,-1.09 -18.03,0.07 -18.03,0.07c-10.08,1.68 -17.97,-0.1 -18.03,-0.04c-0.24,0.03 8.05,11.03 17.89,10.52c9.84,0.51 18.41,-10.52 18.17,-10.55Z" style="fill:#c2646e;fill-rule:nonzero;"/><path d="M158.52,192.76c-2.61,-0.29 -4.48,1.59 -5.82,1.46c-1.36,0.12 -3.14,-1.09 -5.77,-1.11c-3.7,-0.04 -5.5,-0.36 -12.27,2c0.24,0.47 4.58,2.98 12.7,3.11c0.11,0 2.29,1.24 5.39,1.22c1.94,-0.01 4.6,-1.31 4.7,-1.31c8.13,-0.12 13.1,-2.54 13.33,-2.99c-8.95,-2.77 -8.24,-2.42 -12.26,-2.38Z" style="fill:#d87475;fill-rule:nonzero;"/><path d="M98.42,54.94c15.18,-17.16 37.51,-25.5 37.51,-25.5l-6.18,6.2c3.7,-3.03 10.29,-7.24 21.31,-10.95c15.69,-5.27 25.85,0.6 25.85,0.6c0,0 -8.19,-0.29 -12.2,3.13c3.96,-1.82 10.78,-2.45 22.17,2.56c22.31,9.81 15.66,26.26 31.19,31.65c15.89,5.53 -14.42,8.04 -14.42,8.04c0,0 16.85,2.33 19.84,3.95c1.74,0.94 0.01,0.01 0,0c0.01,0.05 4.59,13.34 5.47,23.27c0.9,10.14 -1.91,17.09 -2.77,36.08c-0.75,16.23 -4.78,7.91 -9.58,19.87c-1.62,4.01 -1.69,8.52 -1.69,8.52c-1.78,0.47 -6.45,-9.74 -3.1,-27.48c1.74,-9.16 -4.74,-38.63 -20.56,-46.04c0.35,0.77 10.86,24.52 -0.01,51.03c0,0 1.09,-47.46 -20.74,-48.89c24.86,26.41 9.45,63.96 9.45,63.96c0.51,-26.7 -17.24,-45.95 -27.51,-54.84c6.12,15.65 0.61,32.01 0.61,32.01c-1.24,-26.92 -27.63,-41.67 -27.63,-41.67l2.03,-4.54c-6.08,-1.28 -12.19,-0.8 -17.43,2.34c-10.71,6.43 -16.75,20.86 -14.88,43.91c2.38,29.42 -2.09,29.21 -2.09,29.21c-1.33,0 0.1,-7.83 -4.37,-13.23c-4.46,-5.4 -11.26,-24.57 -11.26,-42.72c0,-18.15 5.82,-33.3 20.99,-50.47Z" style="fill:#f9ad3a;fill-rule:nonzero;"/><path d="M214.56,281.05c-0.42,-2.61 -0.93,-5.08 -1.53,-7.39c-0.68,-2.73 -1.46,-5.26 -2.32,-7.61c-0.17,-0.47 -0.35,-0.95 -0.54,-1.4c-0.8,-2.04 -1.66,-3.93 -2.57,-5.7c-0.74,-1.419 -1.5,-2.75 -2.28,-4.01c-0.39,-0.62 -0.76,-1.209 -1.18,-1.79c-0.92,-1.379 -1.89,-2.629 -2.88,-3.79c-0.2,-0.26 -0.43,-0.51 -0.65,-0.76c-0.44,-0.51 -0.89,-1 -1.32,-1.46c-0.21,-0.22 -0.41,-0.43 -0.64,-0.64c-0.33,-0.34 -0.64,-0.65 -0.97,-0.94c-0.28,-0.27 -0.55,-0.54 -0.84,-0.78c-0.87,-0.8 -1.74,-1.52 -2.58,-2.14l-0.01,0c-12.78,11.52 -24.88,16.52 -35.74,17.611l0,0.039l-9.09,0c-16.69,-1.5 -29.59,-11.46 -36.19,-17.74c-0.31,0.21 -0.62,0.46 -0.93,0.7c-0.66,0.52 -1.34,1.09 -1.99,1.71c-0.33,0.29 -0.66,0.6 -0.99,0.93c-0.33,0.31 -0.68,0.66 -1.01,0.99c-0.33,0.35 -0.66,0.69 -0.99,1.07c-0.33,0.35 -0.66,0.74 -0.99,1.11c-1.17,1.37 -2.32,2.9 -3.43,4.54c-0.23,0.33 -0.45,0.681 -0.68,1.05c-0.86,1.341 -1.69,2.78 -2.47,4.3c-0.45,0.89 -0.9,1.791 -1.32,2.76c-0.22,0.47 -0.43,0.95 -0.63,1.44c-0.21,0.49 -0.42,0.99 -0.62,1.5c-0.19,0.45 -0.35,0.93 -0.54,1.4c-0.86,2.35 -1.64,4.88 -2.3,7.61c-0.6,2.31 -1.11,4.78 -1.54,7.39c-0.23,1.38 -0.44,2.8 -0.6,4.28l5.59,1.33c2.56,0.601 4.37,2.89 4.37,5.53l0,8.67l102.99,0l0,-8.67c0,-2.63 1.81,-4.919 4.38,-5.53l5.62,-1.33c-0.16,-1.48 -0.37,-2.9 -0.59,-4.28Z" style="fill:#be1e2d;fill-rule:nonzero;"/><path d="M129.17,235.46c0,0 -4.49,20.69 24.15,20.87l0,3.96c0,0 -18.12,2.61 -40.09,-17.74c0,0 6.48,-6.37 15.94,-7.09Z" style="fill:#a31d2e;fill-rule:nonzero;"/><path d="M177.19,235.17c0,0 4.79,20.98 -23.84,21.16l0,3.96c0,0 18.92,2.691 40.9,-17.65c0,0 -6.23,-6.16 -17.06,-7.47Z" style="fill:#77111e;fill-rule:nonzero;"/></g></svg>