<?xml version="1.0" encoding="UTF-8" standalone="no"?><!DOCTYPE svg PUBLIC "-//W3C//DTD SVG 1.1//EN" "http://www.w3.org/Graphics/SVG/1.1/DTD/svg11.dtd"><svg width="100%" height="100%" viewBox="0 0 298 301" version="1.1" xmlns="http://www.w3.org/2000/svg" xmlns:xlink="http://www.w3.org/1999/xlink" xml:space="preserve" style="fill-rule:evenodd;clip-rule:evenodd;stroke-linejoin:round;stroke-miterlimit:1.41421;"><g id="_9"><rect x="0.31" y="0.39" width="296.86" height="299.71" style="fill:#cac6b3;fill-rule:nonzero;"/><path d="M149.05,187.47l0,112.62l-60.74,0c-0.99,-0.39 -1.48,-0.6 -1.48,-0.6c0,-10.979 1.23,-20.12 3.25,-27.729c0.62,-2.351 1.3,-4.53 2.06,-6.581c4.46,-12.159 11.05,-19.53 17.07,-23.99c4.45,-3.28 8.56,-4.96 11.32,-5.83c2.14,-0.68 3.46,-0.82 3.46,-0.82c0.24,0 0.45,-0.02 0.68,-0.06c0.24,-0.04 0.47,-0.1 0.7,-0.19c1.6,-0.55 2.92,-2.12 4.01,-4.44c0.92,-1.98 1.68,-4.51 2.32,-7.41c0.25,-1.15 0.45,-2.28 0.64,-3.52c0.31,-2.09 0.6,-4.28 0.84,-6.56c0.11,-1.38 0.25,-2.71 0.42,-4.15c0.53,-6.9 0.67,-14.45 0.67,-21.59c0,0 8.15,0.85 14.78,0.85Z" style="fill:#e0bd9a;fill-rule:nonzero;"/><path d="M211.51,299.49c0,0 -0.53,0.21 -1.44,0.6l-61.02,0l0,-112.62l0.14,0c6.58,0 14.83,-0.85 14.83,-0.85c0,7.1 0.15,14.55 0.68,21.44c0.17,1.34 0.31,2.72 0.41,4.05c0.25,2.39 0.54,4.63 0.89,6.71l0,0.04c0.1,0.95 0.29,1.79 0.45,2.68c0.6,2.94 1.32,5.51 2.2,7.57c1.09,2.57 2.41,4.36 4.04,5.08c0.49,0.23 1.05,0.35 1.62,0.35c0,0 0.1,0 0.27,0.04c0.72,0.1 2.76,0.5 5.55,1.61c3.25,1.29 7.49,3.49 11.81,7.28l0,0.02c5.21,4.55 10.5,11.42 14.26,21.69c0.76,2.051 1.44,4.23 2.06,6.581c2.02,7.609 3.25,16.75 3.25,27.729Z" style="fill:#efd0ad;fill-rule:nonzero;"/><path d="M166,218.61l0,0.05c-1.53,2.36 -6.67,9.16 -16.85,9.16l-0.1,0c-9.64,-0.05 -15.27,-7.05 -16.7,-9.12c0.3,-2.06 0.59,-4.23 0.84,-6.5c0.1,-1.33 0.25,-2.71 0.39,-4.14c4.7,1.19 9.84,1.92 15.27,2.02l0.2,0c5.63,-0.1 10.82,-0.88 15.66,-2.16c0.15,1.33 0.3,2.71 0.4,4.04c0.25,2.36 0.54,4.58 0.89,6.65Z" style="fill:#be987f;fill-rule:nonzero;"/><path d="M148.36,59.13c-64.34,0 -64.68,53.95 -61.82,89.27c-4.4,-8.37 -17.49,-5.81 -16.4,7.39c1.03,12.71 19.74,19.19 19.22,17.79c9.74,26.12 35.53,45.81 59,45.81l0.49,0l0,-160.26l-0.49,0Z" style="fill:#d2a686;fill-rule:nonzero;"/><path d="M74.24,150.22c3.16,-5.12 8.1,-2.9 9.29,-1.77c1.28,1.23 2.32,2.81 1.53,5.81c-0.44,1.73 -2.22,1.88 -1.83,4.44c0.5,2.9 1.83,3.05 2.62,3.74c0.74,0.64 1.68,1.14 2.13,2.37c0.49,1.23 0.54,2.51 0.29,3.64c-0.49,2.07 -3.51,0.4 -5.53,-0.49c-1.34,-0.64 -5.59,-4.24 -6.67,-5.42c-2.67,-3.05 -3.96,-8.97 -1.83,-12.32Z" style="fill:#ac8774;fill-rule:nonzero;"/><path d="M148.7,59.13c64.34,0 64.69,53.95 61.87,89.27c4.4,-8.37 17.44,-5.81 16.36,7.39c-0.99,12.71 -19.74,19.19 -19.23,17.79c-9.49,26.12 -35.52,45.81 -59,45.81c-0.14,0 -0.34,0 -0.34,0l-0.15,-160.26c0,0 0.35,0 0.49,0Z" style="fill:#ddb598;fill-rule:nonzero;"/><path d="M222.82,150.22c-3.16,-5.12 -8.05,-2.9 -9.29,-1.77c-1.28,1.23 -2.27,2.81 -1.53,5.81c0.45,1.73 2.23,1.88 1.83,4.44c-0.49,2.9 -1.83,3.05 -2.57,3.74c-0.74,0.64 -1.73,1.14 -2.17,2.37c-0.45,1.23 -0.55,2.51 -0.3,3.64c0.49,2.07 3.51,0.4 5.54,-0.49c1.38,-0.64 5.58,-4.24 6.67,-5.42c2.71,-3.05 3.95,-8.97 1.82,-12.32Z" style="fill:#ac8774;fill-rule:nonzero;"/><path d="M147.85,74.35c-21.15,0 -36.66,6.16 -46,18.28c-13.1,17 -12.6,42.91 -7.81,61.54c1.48,5.71 2.27,21.03 3.26,26.65c4.6,25.17 32.32,38.57 50.55,38.57c0,0 0.35,0 0.5,0l0,-145.04c-0.15,0 -0.3,0 -0.3,0" style="fill:#e0bd9a;fill-rule:nonzero;"/><path d="M193.81,92.68c-9.29,-12.07 -24.61,-18.23 -45.46,-18.33l0,145.04c20.85,-0.24 45.8,-14.92 50.05,-38.57c1.04,-5.62 1.78,-20.94 3.26,-26.65c4.85,-18.58 5.34,-44.44 -7.85,-61.49Z" style="fill:#efd0ad;fill-rule:nonzero;"/><path d="M148.54,190.95" style="fill:#bc917b;fill-rule:nonzero;"/><path d="M148.54,190.95" style="fill:#bc917b;fill-rule:nonzero;"/><path d="M144.97,193.68c-0.1,-0.02 -0.2,-0.04 -0.3,-0.06c0.1,0.02 0.19,0.04 0.3,0.06Z" style="fill:#bc917b;fill-rule:nonzero;"/><path d="M148.54,193.49" style="fill:#bc917b;fill-rule:nonzero;"/><path d="M144.19,193.51c-0.1,-0.03 -0.18,-0.05 -0.27,-0.08l-0.01,0.01c0,0 0.1,0.02 0.28,0.07Z" style="fill:#bc917b;fill-rule:nonzero;"/><path d="M148.54,193.49" style="fill:#bc917b;fill-rule:nonzero;"/><path d="M136.34,174.87c-0.24,-5.01 9.18,-1.83 12.29,-1.68c2.45,0.13 9.92,-1.58 10.56,-1.14c4.4,2.97 -4.65,8.96 -10.72,8.96c-1.61,0 -11.98,-3.12 -12.13,-6.14Z" style="fill:#ddb598;fill-rule:nonzero;"/><path d="M130.38,74.72l-0.26,0.26l0.04,0.09c0.09,-0.13 0.14,-0.26 0.22,-0.35Z" style="fill:#432e1b;fill-rule:nonzero;"/><path d="M89.42,125.82" style="fill:#432e1b;fill-rule:nonzero;"/><path d="M148.81,193.51" style="fill:#ba907b;fill-rule:nonzero;"/><path d="M148.81,193.51" style="fill:#ba907b;fill-rule:nonzero;"/><path d="M145.15,190.74c-0.11,-0.02 -0.21,-0.04 -0.31,-0.07c0.1,0.03 0.19,0.05 0.31,0.07Z" style="fill:#ba907b;fill-rule:nonzero;"/><path d="M148.81,190.54" style="fill:#ba907b;fill-rule:nonzero;"/><path d="M144.34,190.56c-0.09,-0.02 -0.18,-0.05 -0.28,-0.08l-0.01,0.01c0,0 0.11,0.03 0.29,0.07Z" style="fill:#ba907b;fill-rule:nonzero;"/><path d="M148.81,190.54" style="fill:#ba907b;fill-rule:nonzero;"/><path d="M102.19,130.96c0,0 4.91,20.2 13.34,21.85c8.42,1.65 17.54,-1.63 17.54,-1.63c0,0 0.88,-23.74 -3.44,-26.84c-4.31,-3.11 -14.25,-7.61 -27.44,6.62Z" style="fill:#fff;fill-rule:nonzero;"/><path d="M133.09,151.12c0,0 -0.2,0.06 -0.63,0.24c-0.11,-7.28 -0.78,-17.28 -3.47,-19.2c-4.01,-2.94 -13.06,-7.08 -25.14,4.24c-1.1,-3.13 -1.65,-5.5 -1.65,-5.5c13.21,-14.26 23.16,-9.77 27.44,-6.65c4.32,3.11 3.45,26.87 3.45,26.87Z" style="fill:#d6b496;fill-rule:nonzero;"/><path d="M128.1,140.83c0,4.6 -3.72,8.32 -8.3,8.32c-4.58,0 -8.29,-3.72 -8.29,-8.32c0,-4.59 3.71,-8.32 8.29,-8.32c4.58,0 8.3,3.73 8.3,8.32Z" style="fill:#482315;fill-rule:nonzero;"/><path d="M119.42,146.37c-2.4,-0.19 -4.24,-2.62 -4.02,-5.28c0.22,-2.67 2.42,-4.75 4.82,-4.55c2.4,0.19 4.23,2.62 4.02,5.28c-0.22,2.67 -2.43,4.76 -4.82,4.55Z" style="fill:#7e3a22;fill-rule:nonzero;"/><path d="M119.62,145.41c-1.66,-0.14 -3.39,-1.97 -3.21,-4.23c0.19,-2.27 2.19,-3.8 3.86,-3.66c1.67,0.14 3.39,1.98 3.21,4.24c-0.19,2.26 -2.19,3.79 -3.86,3.65Z" style="fill:#211a10;fill-rule:nonzero;"/><path d="M118.27,139.84c-0.06,0.82 -0.9,1.41 -1.86,1.33c-0.96,-0.08 -1.68,-0.81 -1.62,-1.62c0.07,-0.82 0.9,-1.42 1.86,-1.34c0.97,0.08 1.69,0.81 1.62,1.63Z" style="fill:#fff;fill-rule:nonzero;"/><path d="M123.65,144.56c-0.03,0.41 -0.45,0.71 -0.93,0.67c-0.48,-0.04 -0.84,-0.41 -0.81,-0.81c0.04,-0.41 0.45,-0.71 0.93,-0.67c0.48,0.04 0.85,0.4 0.81,0.81Z" style="fill:#fff;fill-rule:nonzero;"/><path d="M148.94,190.46" style="fill:#ba907b;fill-rule:nonzero;"/><path d="M148.94,190.46" style="fill:#ba907b;fill-rule:nonzero;"/><path d="M145.28,193.12c-0.11,-0.02 -0.21,-0.04 -0.31,-0.06c0.1,0.02 0.19,0.04 0.31,0.06Z" style="fill:#ba907b;fill-rule:nonzero;"/><path d="M148.94,192.93" style="fill:#ba907b;fill-rule:nonzero;"/><path d="M144.47,192.94c-0.09,-0.02 -0.18,-0.05 -0.27,-0.07l-0.01,0c0,0 0.1,0.03 0.28,0.07Z" style="fill:#ba907b;fill-rule:nonzero;"/><path d="M148.94,192.93" style="fill:#ba907b;fill-rule:nonzero;"/><path d="M148.83,190.09" style="fill:#bc917b;fill-rule:nonzero;"/><path d="M148.83,190.09" style="fill:#bc917b;fill-rule:nonzero;"/><path d="M144.9,192.55c-0.11,-0.02 -0.22,-0.04 -0.33,-0.07c0.11,0.03 0.2,0.05 0.33,0.07Z" style="fill:#bc917b;fill-rule:nonzero;"/><path d="M148.83,192.34" style="fill:#bc917b;fill-rule:nonzero;"/><path d="M144.04,192.36c-0.1,-0.03 -0.2,-0.06 -0.3,-0.08l-0.01,0c0,0 0.11,0.03 0.31,0.08Z" style="fill:#bc917b;fill-rule:nonzero;"/><path d="M148.83,192.34" style="fill:#bc917b;fill-rule:nonzero;"/><path d="M148.58,189.24" style="fill:#bc917b;fill-rule:nonzero;"/><path d="M148.58,189.24" style="fill:#bc917b;fill-rule:nonzero;"/><path d="M144.65,191.71c-0.11,-0.03 -0.22,-0.05 -0.33,-0.07c0.11,0.02 0.21,0.04 0.33,0.07Z" style="fill:#bc917b;fill-rule:nonzero;"/><path d="M148.58,191.5" style="fill:#bc917b;fill-rule:nonzero;"/><path d="M143.79,191.51c-0.1,-0.02 -0.2,-0.05 -0.3,-0.08l-0.01,0.01c0,0 0.12,0.03 0.31,0.07Z" style="fill:#bc917b;fill-rule:nonzero;"/><path d="M148.58,191.5" style="fill:#bc917b;fill-rule:nonzero;"/><path d="M149.22,189.03" style="fill:#bc917b;fill-rule:nonzero;"/><path d="M149.22,189.03" style="fill:#bc917b;fill-rule:nonzero;"/><path d="M145.42,191.59c-0.1,-0.02 -0.21,-0.04 -0.32,-0.07c0.11,0.03 0.2,0.05 0.32,0.07Z" style="fill:#bc917b;fill-rule:nonzero;"/><path d="M149.22,191.39" style="fill:#bc917b;fill-rule:nonzero;"/><path d="M144.59,191.41c-0.1,-0.03 -0.19,-0.06 -0.29,-0.08l-0.01,0c0,0 0.11,0.03 0.3,0.08Z" style="fill:#bc917b;fill-rule:nonzero;"/><path d="M149.22,191.39" style="fill:#bc917b;fill-rule:nonzero;"/><path d="M195,130.28c0,0 -4.9,20.2 -13.33,21.84c-8.43,1.65 -17.55,-1.63 -17.55,-1.63c0,0 -0.87,-23.73 3.45,-26.83c4.31,-3.12 14.25,-7.62 27.43,6.62Z" style="fill:#fff;fill-rule:nonzero;"/><path d="M164.11,150.43c0,0 0.19,0.06 0.63,0.24c0.11,-7.28 0.78,-17.28 3.47,-19.2c4.01,-2.94 13.05,-7.08 25.14,4.25c1.1,-3.13 1.65,-5.51 1.65,-5.51c-13.21,-14.26 -23.16,-9.77 -27.44,-6.65c-4.32,3.11 -3.45,26.87 -3.45,26.87Z" style="fill:#d6b496;fill-rule:nonzero;"/><path d="M169.1,140.15c0,4.59 3.71,8.32 8.29,8.32c4.58,0 8.3,-3.73 8.3,-8.32c0,-4.6 -3.72,-8.32 -8.3,-8.32c-4.58,0 -8.29,3.72 -8.29,8.32Z" style="fill:#482315;fill-rule:nonzero;"/><path d="M177.78,145.69c2.39,-0.2 4.23,-2.63 4.01,-5.29c-0.21,-2.67 -2.42,-4.75 -4.81,-4.55c-2.4,0.2 -4.23,2.62 -4.02,5.28c0.21,2.67 2.43,4.76 4.82,4.56Z" style="fill:#7e3a22;fill-rule:nonzero;"/><path d="M177.57,144.73c1.67,-0.15 3.4,-1.98 3.22,-4.24c-0.19,-2.27 -2.19,-3.8 -3.86,-3.66c-1.67,0.14 -3.39,1.98 -3.21,4.24c0.18,2.27 2.19,3.79 3.85,3.66Z" style="fill:#211a10;fill-rule:nonzero;"/><path d="M178.92,139.15c0.07,0.82 0.91,1.41 1.87,1.34c0.96,-0.09 1.68,-0.82 1.61,-1.63c-0.07,-0.82 -0.9,-1.42 -1.86,-1.34c-0.96,0.08 -1.68,0.81 -1.62,1.63Z" style="fill:#fff;fill-rule:nonzero;"/><path d="M173.55,143.88c0.03,0.4 0.45,0.7 0.93,0.66c0.48,-0.04 0.84,-0.4 0.81,-0.81c-0.04,-0.41 -0.46,-0.71 -0.93,-0.67c-0.48,0.04 -0.85,0.41 -0.81,0.82Z" style="fill:#fff;fill-rule:nonzero;"/><path d="M138.14,130.64c-0.07,-0.1 -1.6,-2.43 -4.72,-4.83c-1.96,-1.51 -3.88,-2.66 -5.87,-3.51c-2.42,-1.02 -5.03,-1.74 -7.55,-2.09c-2.29,-0.25 -4.82,-0.19 -7.77,0.21c-2.26,0.43 -4.46,1.11 -6.32,1.93c-1.33,0.46 -2.38,1.11 -3.23,1.63c-0.32,0.19 -0.61,0.37 -0.91,0.54l-4.03,2.53l4.64,-1.09c0.22,-0.05 0.45,-0.12 0.7,-0.18c0.96,-0.26 2.16,-0.58 3.56,-0.78c0.33,-0.05 0.66,-0.12 1,-0.18c0.58,-0.12 1.19,-0.24 1.82,-0.27c0.7,-0.05 1.43,-0.1 2.18,-0.15l0.97,-0.08c2.57,-0.03 4.74,0.17 6.67,0.61c2.11,0.37 4.27,1.05 6.26,1.97c1.87,0.9 3.67,1.8 5.07,2.83c2.84,1.9 4.41,3.48 4.43,3.49c0.39,0.4 0.91,0.6 1.43,0.6c0.38,0 0.76,-0.11 1.1,-0.33c0.93,-0.61 1.19,-1.88 0.6,-2.79l-0.03,-0.06Z" style="fill:#030405;fill-rule:nonzero;"/><path d="M195.83,124.5c-0.26,-0.15 -0.56,-0.33 -0.88,-0.53c-0.85,-0.51 -1.9,-1.16 -3.19,-1.6c-1.9,-0.84 -4.1,-1.52 -6.38,-1.95c-2.93,-0.4 -5.46,-0.46 -7.76,-0.21c-2.51,0.35 -5.12,1.07 -7.54,2.09c-1.96,0.84 -3.94,2.02 -5.87,3.51c-3.06,2.36 -4.59,4.65 -4.71,4.82l-0.03,0.05c-0.51,0.8 -0.4,1.87 0.27,2.54c0.38,0.39 0.89,0.6 1.43,0.6c0.54,0 1.04,-0.21 1.42,-0.6l0.02,-0.01c0.15,-0.15 1.68,-1.65 4.43,-3.5c1.38,-1.01 3.18,-1.91 5.05,-2.81c1.99,-0.92 4.16,-1.6 6.29,-1.97c1.9,-0.44 4.07,-0.63 6.61,-0.61l1.02,0.08c0.74,0.05 1.47,0.1 2.17,0.15c0.63,0.03 1.23,0.15 1.81,0.27c0.34,0.06 0.68,0.13 1,0.18c1.4,0.2 2.6,0.52 3.56,0.78c0.25,0.06 0.48,0.13 0.71,0.18l4.63,1.09l-4.06,-2.55Z" style="fill:#030405;fill-rule:nonzero;"/><path d="M147.65,198.41" style="fill:#be927b;fill-rule:nonzero;"/><path d="M147.65,198.41" style="fill:#be927b;fill-rule:nonzero;"/><path d="M143.82,195.51c-0.11,-0.02 -0.21,-0.04 -0.32,-0.06c0.1,0.02 0.2,0.04 0.32,0.06Z" style="fill:#be927b;fill-rule:nonzero;"/><path d="M147.65,195.31" style="fill:#be927b;fill-rule:nonzero;"/><path d="M142.98,195.33c-0.1,-0.03 -0.19,-0.06 -0.29,-0.09l-0.01,0.01c0,0 0.11,0.03 0.3,0.08Z" style="fill:#be927b;fill-rule:nonzero;"/><path d="M147.65,195.31" style="fill:#be927b;fill-rule:nonzero;"/><path d="M137.06,201.25c-0.24,-3.2 8.91,0.67 11.92,0.76c2.4,0.08 9.6,-0.48 10.26,-0.73c5.04,-1.88 -0.27,5.35 -10.41,5.73c-4.65,0.19 -11.63,-3.82 -11.77,-5.76Z" style="fill:#f0d2ad;fill-rule:nonzero;"/><path d="M167.23,193.56c-5.81,-1.09 -18.03,0.07 -18.03,0.07c-10.09,1.68 -17.98,-0.1 -18.04,-0.04c-0.24,0.03 8.06,11.03 17.9,10.52c9.84,0.51 18.41,-10.52 18.17,-10.55Z" style="fill:#c2646e;fill-rule:nonzero;"/><path d="M155.03,191.24c-2.62,-0.29 -4.48,1.6 -5.82,1.46c-1.37,0.12 -3.14,-1.09 -5.77,-1.11c-3.7,-0.04 -5.51,-0.36 -12.28,2c0.25,0.47 4.58,2.98 12.7,3.12c0.12,0 2.3,1.23 5.39,1.21c1.94,-0.01 4.6,-1.31 4.71,-1.31c8.13,-0.12 13.1,-2.54 13.32,-2.99c-8.94,-2.77 -8.23,-2.42 -12.25,-2.38Z" style="fill:#d87475;fill-rule:nonzero;"/><path d="M191.94,243.47l0,0.02l-20.14,22.9l-0.06,0.06l-22.53,25.64l-0.16,-0.21l-20.95,-26.68l-0.1,-0.11l-18.79,-23.9c4.45,-3.28 8.56,-4.96 11.32,-5.83c2.14,-0.68 3.46,-0.82 3.46,-0.82c0.24,0 0.45,-0.02 0.68,-0.06c0.24,-0.04 0.47,-0.1 0.7,-0.19c4.77,8.25 13.08,21.4 23.68,21.92l0.04,0c7.51,0.321 16.05,-9.24 25.49,-21.63c0.72,0.1 2.76,0.5 5.55,1.61c3.25,1.29 7.49,3.49 11.81,7.28Z" style="fill:#6b557b;fill-rule:nonzero;"/><path d="M202.79,277.79c-0.02,10.16 0.26,17.81 0.53,22.3l-105.77,0c0.27,-4.49 0.58,-12.14 0.55,-22.3c0,-1.94 0,-3.93 -0.02,-6.029l-8,0c0.62,-2.351 1.3,-4.53 2.06,-6.581c4.46,-12.159 11.05,-19.53 17.07,-23.99l18.79,23.9l0.1,0.11c5.47,6.91 13.13,10.61 20.95,11c8.21,0.41 16.56,-2.79 22.69,-9.75l0.06,-0.06l20.14,-22.9c5.21,4.55 10.5,11.42 14.26,21.69c0.76,2.051 1.44,4.23 2.06,6.581l-5.43,0c-0.02,2.099 -0.04,4.089 -0.04,6.029Z" style="fill:#433151;fill-rule:nonzero;"/><path d="M99.52,215.32l-7.59,-1.1l-2.55,-5.16l0,-30.07c1.58,-0.38 2.76,-1.8 2.76,-3.5c0,-1.99 -1.62,-3.61 -3.61,-3.61c-1.99,0 -3.61,1.62 -3.61,3.61c0,1.7 1.18,3.12 2.76,3.5l0,30.07l-2.55,5.16l-7.59,1.1l5.49,5.36l-1.29,7.56l6.79,-3.57l6.79,3.57l-1.29,-7.56l5.49,-5.36Z" style="fill:#fff;fill-rule:nonzero;"/><path d="M218.17,215.32l-7.6,-1.1l-2.55,-5.16l0,-30.07c1.59,-0.38 2.77,-1.8 2.77,-3.5c0,-1.99 -1.62,-3.61 -3.62,-3.61c-1.99,0 -3.61,1.62 -3.61,3.61c0,1.7 1.18,3.12 2.76,3.5l0,30.07l-2.54,5.16l-7.6,1.1l5.5,5.36l-1.3,7.56l6.79,-3.57l6.8,3.57l-1.3,-7.56l5.5,-5.36Z" style="fill:#fff;fill-rule:nonzero;"/><path d="M234.83,63.65c0,0 -4.27,6.9 -18.99,1.52c-14.39,-5.24 -14.02,-22.34 -34.69,-31.87c-10.55,-4.87 -16.87,-4.26 -20.54,-2.49c3.72,-3.33 11.3,-3.04 11.3,-3.04c0,0 -9.4,-5.72 -23.94,-0.59c-7.95,2.8 -9.71,3.43 -12.66,4.04c-1.8,0.38 -3.66,-0.36 -4.78,-1.91c-3.23,-4.46 -8.4,-6.82 -13.58,-6.04c-3.12,0.47 -6.1,1.2 -8.77,2.29c-17.85,7.23 -32.47,19.66 -42.78,53.02c-10.32,33.35 -1.94,61.24 0.06,72.89c6.31,36.92 46.72,72.88 46.72,72.88c0,0 -17.57,-22.99 -21,-32.83c-0.87,-2.48 -1.87,-5.54 -2.83,-9.2c7.34,13.43 16.66,21.67 16.66,21.67c-17.44,-41.21 7.01,-82.04 19.63,-99.15c0,0 2.45,-3.77 6.7,-8.42c-0.53,-0.42 -1.05,-0.81 -1.57,-1.17c0.52,0.36 1.04,0.75 1.57,1.17c11.06,-12.09 34.43,-30.06 59.3,-2.94c1,0.98 1.95,2.07 2.84,3.25l0,0.01c8.62,11.4 12.04,30.58 10.78,37.57c-3.11,17.25 1.22,27.18 2.87,26.72c0,0 0.07,-4.39 1.57,-8.29c4.45,-11.63 8.18,-3.54 8.87,-19.32c0.79,-18.46 3.4,-25.21 2.57,-35.07c-0.37,-4.31 -1.42,-9.26 -2.46,-13.44c-1.58,-7.64 0.78,-9.08 1.85,-9.35c0.09,-0.02 0.17,-0.04 0.26,-0.05c0.13,-0.02 0.22,-0.02 0.22,-0.02l-0.03,-0.02c9.53,-1.8 14.85,-11.82 14.85,-11.82Z" style="fill:#2b3233;fill-rule:nonzero;"/></g></svg>