<svg viewBox="0 0 297 300" xmlns="http://www.w3.org/2000/svg" fill-rule="evenodd" clip-rule="evenodd" stroke-linejoin="round" stroke-miterlimit="1.414"><path fill="#41845e" fill-rule="nonzero" d="M.076.16h296.866v299.705H.076z"/><path d="M148.816 186.789V299.06H88.089c-.99-.395-1.482-.594-1.482-.594 0-14.332 2.102-25.505 5.305-34.219 7.73-21.03 21.881-27.709 28.396-29.723 2.137-.661 3.454-.82 3.454-.82.231 0 .446-.021.667-.057 1.912-.307 3.465-1.968 4.71-4.618.928-1.968 1.702-4.48 2.332-7.386.252-1.133.446-2.275.646-3.511a199.8 199.8 0 0 0 .841-6.525c.097-1.383.246-2.716.395-4.151.538-6.868.691-14.388.691-21.507 0 0 8.155.84 14.772.84z" fill="#e0bd9a" fill-rule="nonzero"/><path d="M211.277 298.466s-.544.199-1.435.594h-61.026V186.789h.149c6.571 0 14.828-.84 14.828-.84 0 7.068.144 14.485.687 21.358.149 1.338.298 2.716.395 4.054.251 2.373.548 4.598.892 6.674v.046c.097.943.292 1.784.446 2.67.599 2.922 1.327 5.49 2.204 7.55 1.092 2.563 2.419 4.352 4.028 5.059a3.915 3.915 0 0 0 1.625.344s2.337.282 5.838 1.655c7.151 2.799 19.16 10.144 26.059 28.888 3.203 8.714 5.31 19.887 5.31 34.219z" fill="#efd0ad" fill-rule="nonzero"/><clipPath id="a"><path d="M132.116 207.167h33.65v19.842h-33.65z"/></clipPath><g clip-path="url(#a)"><path d="M165.767 217.825v.049c-1.532 2.358-6.671 9.135-16.85 9.135h-.099c-9.636-.049-15.269-7.023-16.702-9.086.297-2.062.593-4.223.84-6.482.099-1.327.247-2.702.396-4.126a67.813 67.813 0 0 0 15.268 2.013h.198a65.505 65.505 0 0 0 15.664-2.16c.148 1.326.296 2.701.395 4.027.248 2.357.544 4.567.89 6.63z" fill="#be987f" fill-rule="nonzero"/></g><path d="M148.126 58.846c-64.336 0-64.681 53.779-61.816 88.993-4.398-8.35-17.492-5.796-16.405 7.367 1.037 12.671 19.745 19.129 19.222 17.73 9.742 26.043 35.528 45.675 58.999 45.675h.494V58.846h-.494z" fill="#d2a686" fill-rule="nonzero"/><path d="M74.006 149.656c3.163-5.108 8.104-2.898 9.29-1.768 1.285 1.228 2.322 2.799 1.532 5.795-.445 1.719-2.224 1.867-1.828 4.421.493 2.897 1.828 3.044 2.618 3.732.741.639 1.68 1.13 2.125 2.358a6.196 6.196 0 0 1 .297 3.634c-.495 2.063-3.509.393-5.535-.491-1.334-.639-5.583-4.224-6.671-5.403-2.668-3.045-3.952-8.938-1.828-12.278z" fill="#ac8774" fill-rule="nonzero"/><path d="M148.472 58.846c64.336 0 64.682 53.779 61.865 88.993 4.398-8.35 17.444-5.796 16.356 7.367-.988 12.671-19.733 19.134-19.222 17.73-9.49 26.043-35.528 45.675-58.999 45.675h-.346l-.148-159.765h.494z" fill="#ddb598" fill-rule="nonzero"/><path d="M222.592 149.656c-3.163-5.108-8.054-2.898-9.29-1.768-1.284 1.228-2.273 2.799-1.531 5.795.444 1.719 2.223 1.867 1.828 4.421-.495 2.897-1.828 3.044-2.57 3.732-.741.639-1.729 1.13-2.174 2.358-.445 1.227-.543 2.504-.296 3.634.493 2.063 3.508.393 5.534-.491 1.384-.639 5.584-4.224 6.671-5.403 2.717-3.045 3.953-8.938 1.828-12.278z" fill="#ac8774" fill-rule="nonzero"/><path d="M147.62 74.022c-21.149 0-36.665 6.139-46.004 18.221-13.095 16.944-12.6 42.777-7.807 61.342 1.482 5.697 2.273 20.971 3.262 26.571 4.595 25.096 32.315 38.455 50.549 38.455h.494V74.022h-.494z" fill="#e0bd9a" fill-rule="nonzero"/><path d="M193.574 92.292c-9.289-12.032-24.607-18.172-45.46-18.27v144.589c20.853-.245 45.806-14.881 50.056-38.455 1.037-5.6 1.778-20.874 3.261-26.571 4.843-18.515 5.337-44.3-7.857-61.293z" fill="#efd0ad" fill-rule="nonzero"/><path d="M148.307 190.251h.001-.001zm-3.568 2.729c-.101-.022-.202-.041-.303-.065l.303.065zm-.784-.175c-.094-.025-.178-.051-.27-.076l-.01.004s.104.029.28.072zm4.352-.017h.001-.001z" fill="#bc917b" fill-rule="nonzero"/><path d="M135.962 174.223c-.244-4.997 9.178-1.826 12.285-1.67 2.454.126 9.922-1.574 10.564-1.136 4.393 2.962-4.654 8.928-10.721 8.928-1.616 0-11.981-3.109-12.128-6.122z" fill="#ddb598" fill-rule="nonzero"/><path d="M130.153 74.383l-.268.267.045.09c.089-.134.133-.268.223-.357z" fill="#432e1b" fill-rule="nonzero"/><path d="M148.579 192.807h.001-.001zm-3.664-2.76c-.104-.022-.207-.043-.311-.067.102.023.191.042.311.067zm-.806-.18c-.096-.025-.183-.052-.277-.078l-.01.004s.107.03.287.074zm4.47-.017h.001-.001z" fill="#ba907b" fill-rule="nonzero"/><path d="M101.961 130.455s4.908 20.136 13.335 21.78c8.426 1.642 17.547-1.624 17.547-1.624s.871-23.664-3.443-26.756c-4.311-3.105-14.251-7.593-27.439 6.6z" fill="#fff" fill-rule="nonzero"/><path d="M132.854 150.549s-.194.056-.627.236c-.107-7.258-.779-17.227-3.473-19.137-4.006-2.933-13.052-7.061-25.137 4.23-1.099-3.121-1.65-5.485-1.65-5.485 13.213-14.22 23.16-9.74 27.439-6.632 4.32 3.104 3.448 26.788 3.448 26.788z" fill="#d6b496" fill-rule="nonzero"/><path d="M127.864 140.295a8.293 8.293 0 1 1-16.587 0 8.293 8.293 0 0 1 8.294-8.293 8.293 8.293 0 0 1 8.293 8.293z" fill="#482315" fill-rule="nonzero"/><path d="M119.186 145.819c-2.396-.198-4.234-2.615-4.016-5.272.214-2.657 2.422-4.736 4.819-4.536 2.395.198 4.231 2.612 4.019 5.268-.218 2.657-2.428 4.74-4.822 4.54z" fill="#7e3a22" fill-rule="nonzero"/><path d="M119.392 144.86c-1.667-.142-3.396-1.971-3.213-4.224.188-2.259 2.189-3.784 3.856-3.647 1.668.141 3.394 1.978 3.21 4.231-.183 2.256-2.19 3.777-3.853 3.64z" fill="#211a10" fill-rule="nonzero"/><path d="M118.042 139.302c-.069.815-.905 1.409-1.863 1.331-.959-.082-1.683-.809-1.618-1.619.069-.817.901-1.413 1.859-1.335.963.078 1.687.806 1.622 1.623zm5.378 4.711c-.036.405-.453.704-.931.664-.481-.038-.841-.406-.811-.81.035-.405.453-.705.93-.664.482.037.846.401.812.81z" fill="#fff" fill-rule="nonzero"/><path d="M148.711 189.766h.001-.001zm-3.664 2.656c-.104-.023-.208-.043-.311-.067.102.023.191.042.311.067zm-.806-.18c-.096-.025-.183-.052-.277-.078l-.01.004s.107.029.287.074zm4.47-.017h.001-.001z" fill="#ba907b" fill-rule="nonzero"/><path d="M144.67 191.853c-.112-.024-.222-.046-.334-.071.11.024.206.045.334.071zm-.864-.193c-.103-.027-.196-.056-.297-.083l-.011.005s.115.031.308.078zm.616-.649c-.112-.024-.223-.046-.334-.071l.334.071zm-.864-.193c-.103-.026-.196-.056-.297-.083l-.011.004s.115.032.308.079zm1.634.078c-.108-.023-.215-.044-.322-.069.106.024.199.043.322.069zm-.835-.187c-.099-.025-.189-.054-.287-.08l-.01.004s.11.031.297.076z" fill="#bc917b" fill-rule="nonzero"/><path d="M194.772 129.77s-4.909 20.136-13.335 21.78c-8.427 1.642-17.547-1.624-17.547-1.624s-.872-23.664 3.443-26.756c4.311-3.105 14.25-7.593 27.439 6.6z" fill="#fff" fill-rule="nonzero"/><path d="M163.879 149.864s.193.055.626.236c.108-7.258.779-17.227 3.474-19.137 4.006-2.933 13.051-7.062 25.137 4.229 1.099-3.119 1.65-5.484 1.65-5.484-13.213-14.22-23.161-9.74-27.439-6.632-4.32 3.104-3.448 26.788-3.448 26.788z" fill="#d6b496" fill-rule="nonzero"/><path d="M168.868 139.61a8.293 8.293 0 0 0 8.294 8.293 8.293 8.293 0 1 0 0-16.586 8.293 8.293 0 0 0-8.294 8.293z" fill="#482315" fill-rule="nonzero"/><path d="M177.548 145.133c2.394-.197 4.233-2.614 4.015-5.271-.214-2.657-2.423-4.736-4.819-4.536-2.395.198-4.231 2.611-4.019 5.268.218 2.657 2.428 4.74 4.823 4.539z" fill="#7e3a22" fill-rule="nonzero"/><path d="M177.34 144.175c1.667-.142 3.397-1.971 3.214-4.224-.188-2.259-2.19-3.784-3.857-3.648-1.668.142-3.393 1.979-3.209 4.231.183 2.257 2.189 3.778 3.852 3.641z" fill="#211a10" fill-rule="nonzero"/><path d="M178.69 138.617c.069.814.906 1.409 1.864 1.331.959-.082 1.682-.809 1.617-1.619-.069-.818-.9-1.413-1.858-1.335-.963.078-1.687.805-1.623 1.623zm-5.377 4.711c.035.405.453.704.93.664.482-.038.842-.406.811-.81-.035-.405-.452-.705-.93-.664-.481.037-.846.401-.811.81z" fill="#fff" fill-rule="nonzero"/><path d="M137.903 130.135c-.064-.098-1.593-2.423-4.718-4.82-1.959-1.502-3.879-2.646-5.87-3.498a30.394 30.394 0 0 0-7.552-2.081c-2.284-.254-4.814-.186-7.767.211-2.255.429-4.453 1.099-6.32 1.922-1.331.459-2.382 1.103-3.226 1.62-.324.199-.617.378-.914.538l-4.026 2.531 4.64-1.09c.216-.055.449-.116.701-.183.959-.255 2.153-.571 3.554-.777a19.66 19.66 0 0 0 1.001-.181c.584-.117 1.187-.237 1.82-.267.702-.047 1.431-.099 2.18-.153l.974-.07c2.569-.033 4.739.163 6.667.606a25.47 25.47 0 0 1 6.259 1.963c1.874.898 3.672 1.788 5.074 2.818 2.835 1.891 4.412 3.468 4.426 3.483v.001a2.018 2.018 0 0 0 2.53.266c.934-.611 1.196-1.87.602-2.779l-.035-.06zm57.697-6.127c-.266-.141-.56-.321-.883-.52-.845-.517-1.896-1.16-3.187-1.603-1.905-.839-4.104-1.509-6.386-1.942-2.927-.394-5.459-.462-7.752-.206a30.439 30.439 0 0 0-7.544 2.081c-1.962.839-3.936 2.016-5.866 3.497-3.069 2.353-4.596 4.637-4.711 4.813l-.029.041a2.04 2.04 0 0 0 .264 2.538 1.99 1.99 0 0 0 1.427.596h.001c.54 0 1.046-.212 1.426-.596l.017-.017c.149-.148 1.68-1.644 4.428-3.48 1.381-1.014 3.18-1.905 5.049-2.801a25.564 25.564 0 0 1 6.294-1.971c1.9-.438 4.073-.629 6.609-.602l1.023.072c.742.054 1.464.105 2.172.152.622.03 1.225.15 1.809.267.34.068.673.133 1.001.181 1.401.206 2.595.522 3.555.777.25.067.485.128.708.185l4.636 1.089-4.061-2.551z" fill="#030405" fill-rule="nonzero"/><path d="M143.59 194.805c-.109-.023-.217-.044-.325-.069.106.024.2.044.325.069zm-.843-.188c-.1-.026-.191-.054-.289-.081l-.011.005s.112.03.3.076z" fill="#be927b" fill-rule="nonzero"/><path d="M136.226 198.959c-.243-3.237 9.017.678 12.057.772 2.426.082 9.713-.48 10.386-.736 5.094-1.906-.278 5.411-10.536 5.796-4.7.188-11.767-3.868-11.907-5.832z" fill="#f0d2ad" fill-rule="nonzero"/><path d="M166.372 192.718c-2.514-.123-5.095 1.971-8.119 1.651-.123-.061-.184-.061-.313-.061-.694-.123-1.383 0-2.139.184-.94.197-1.887.579-2.772.886-1.511.492-3.214.886-4.966.75v.012l-.098-.011-.097.011v-.012c-1.752.136-3.455-.258-4.966-.75-.885-.307-1.832-.689-2.772-.886-.756-.184-1.444-.307-2.139-.184-.129 0-.19 0-.314.061-3.023.32-5.604-1.774-8.118-1.651-.695.061-1.703-.123-2.268-.123.123.061.252.123.381.184 7.166 3.493 13.349 10.037 20.196 9.828h.195c6.847.209 13.03-6.335 20.196-9.828.129-.061.258-.123.382-.184-.566 0-1.574.184-2.269.123z" fill="#dcbf9e" fill-rule="nonzero"/><path d="M168.478 192.518s-7.287-2.806-12.469-1.16c0 0-1.929.753-3.928 1.211-1.216.474-2.689.611-4.115.554h-.001a22.87 22.87 0 0 1-2.978-.33 15.362 15.362 0 0 1-.853-.163 36.316 36.316 0 0 1-.325-.069c-.176-.041-.346-.074-.518-.119-.188-.046-.3-.077-.3-.077l.011-.004c-1.658-.449-3.08-1.003-3.08-1.003-5.182-1.646-12.469 1.16-12.469 1.16-.1.046-.162.077-.162.077.565 0 1.573.184 2.268.123 2.513-.123 5.095 1.971 8.118 1.651.124-.061.185-.061.314-.061.695-.123 1.383 0 2.139.184.94.197 1.887.579 2.772.886 1.511.492 3.214.886 4.966.75v.012l.097-.011.098.011v-.012c1.752.136 3.455-.258 4.966-.75.885-.307 1.832-.689 2.772-.886.756-.184 1.445-.307 2.139-.184.129 0 .19 0 .314.061 3.023.32 5.604-1.774 8.118-1.651.695.061 1.703-.123 2.268-.123 0 0-.062-.031-.162-.077z" fill="#c69f83" fill-rule="nonzero"/><path d="M135.727 194.228c.133.033 13.654 4.15 24.229.089l-1.218-.819h-14.294l-8.717.73z" fill="#c69f83" fill-rule="nonzero"/><path d="M211.263 299.865H85.867c.016-3.49.146-6.8.375-9.938.348-4.88.94-9.342 1.723-13.422 8.023-41.765 36.245-43.847 36.245-43.847l24.222 16.298 24.797-16.364c24.445 5.644 33.37 26.815 36.534 43.913.924 4.981 1.353 9.616 1.538 13.422.288 5.995-.038 9.938-.038 9.938z" fill="#9270b1" fill-rule="nonzero"/><path d="M129.014 267.767l20.098-20.163 21.828 23.336-14.709 28.915h-14.286l-12.931-32.088z" fill="#dbdcdb" fill-rule="nonzero"/><path d="M166.975 222.2c-.323 3.336-3.446 12.737-9.903 18.166-4.279 3.59-7.187 5.916-7.96 7.238h-.052c-.77-1.322-3.676-3.648-7.953-7.238-6.459-5.429-9.584-14.83-9.908-18.166-4.051 3.578-9.408 17.426-9.408 17.426.04-.049.114 0 .212.137.131.186.314.553.542 1.07.14.326.299.706.475 1.148.199.504.418 1.082.66 1.727l.002.004.175.477.006.019.213.578a290.22 290.22 0 0 1 1.703 4.846l.009.025.239.692v.006a660.888 660.888 0 0 1 1.543 4.578l.02.062c.084.246.166.494.247.744l.04.111.244.74.043.126c.082.245.164.493.244.741l.052.149.239.739.046.133c.349 1.053.704 2.14 1.067 3.247l.099.312.204.624.116.353c.063.197.127.39.191.585l.148.456c.055.176.115.355.171.533.052.155.103.31.151.462.06.191.124.377.184.565l.156.479.167.523c.064.196.127.394.192.59.047.147.096.289.139.436l.335 1.035c.084-.103.168-.207.251-.314 2.031-2.434 6.663-8.914 10.534-13.737 2.385-2.974 4.479-5.321 5.492-5.703 0 0 .478-.242 1.491 0 1.017.382 3.111 2.729 5.497 5.703 3.868 4.823 8.503 11.303 10.529 13.737.088.107.167.211.253.314l.333-1.035.142-.436c.061-.196.125-.394.189-.59.06-.174.116-.349.172-.523.05-.16.101-.32.155-.479.06-.188.12-.374.179-.565.052-.152.104-.307.152-.462.06-.178.116-.357.173-.533.05-.153.098-.306.15-.456.06-.195.128-.388.188-.585.039-.116.077-.234.115-.353.068-.209.136-.418.205-.624.035-.106.066-.209.098-.312.365-1.107.718-2.194 1.069-3.247l.044-.133c.08-.249.161-.493.243-.739l.05-.149.245-.741.04-.126c.084-.248.164-.496.248-.74l.036-.111.247-.744.02-.062a607.887 607.887 0 0 1 1.545-4.578l.002-.006c.08-.233.156-.464.238-.692l.006-.025c.63-1.829 1.2-3.458 1.703-4.846.071-.198.143-.39.213-.578l.006-.019c.06-.163.12-.32.175-.477v-.004c.244-.645.465-1.223.663-1.727.175-.442.334-.822.475-1.148.227-.517.412-.884.544-1.07.097-.137.169-.186.209-.137 0 0-5.352-13.848-9.409-17.426z" fill="#efeeee" fill-rule="nonzero"/><path d="M127.167 289.927h-37.61c.32-4.88.865-9.342 1.585-13.422h27.832c1.709 2.803 3.629 5.941 5.633 9.228.84 1.378 1.695 2.78 2.56 4.194zm77.392 0h-37.024a4633.02 4633.02 0 0 0 2.559-4.194c2.004-3.287 3.924-6.425 5.633-9.228h27.417c.85 4.981 1.245 9.616 1.415 13.422z" fill="#9c78b6" fill-rule="nonzero"/><path d="M139.927 293.804c-.407-1.276-.819-2.571-1.237-3.877a3268.208 3268.208 0 0 0-4.297-13.422 1572.413 1572.413 0 0 0-2.874-8.859c-.045-.15-.089-.292-.138-.442a20.368 20.368 0 0 1-.193-.59c-.06-.173-.115-.346-.169-.519-.056-.162-.105-.322-.16-.478-.061-.19-.127-.375-.187-.567-.044-.154-.099-.309-.154-.465-.055-.173-.115-.352-.17-.531l-.149-.453c-.065-.197-.131-.394-.192-.585a8.336 8.336 0 0 0-.121-.357c-.066-.209-.137-.418-.203-.621-.033-.107-.072-.209-.099-.316l-1.083-3.245-.043-.132c-.083-.25-.165-.495-.242-.739l-.055-.149a20.72 20.72 0 0 0-.248-.74l-.044-.125c-.082-.251-.164-.496-.242-.74l-.044-.113c-.082-.251-.164-.495-.247-.746l-.022-.06c-.549-1.622-1.066-3.156-1.561-4.575v-.006c-.076-.239-.159-.465-.242-.693l-.005-.029a333.77 333.77 0 0 0-1.725-4.844c-.072-.197-.144-.388-.215-.579l-.005-.018c-.061-.16-.121-.322-.176-.477v-.006c-.248-.644-.467-1.223-.671-1.724-.175-.442-.34-.823-.478-1.151-.231-.513-.626-1.014-.764-1.205-4.533 5.536-7.545 13.195-7.545 13.195l4.16 3.586 2.336 2.004-2.6 1.521-7.946 4.647s3.302 4.934 7.996 11.926c1.879 2.803 3.989 5.941 6.193 9.228.924 1.378 1.863 2.78 2.814 4.194 2.22 3.305 4.485 6.669 6.677 9.926h8.293l-1.923-6.049zm40.387-33.872l-2.599-1.521 2.336-2.004 4.165-3.586s-3.017-7.659-7.551-13.195c-.132.191-.533.692-.759 1.205-.142.328-.302.709-.483 1.151-.198.501-.423 1.08-.665 1.724v.006c-.061.155-.121.317-.181.477l-.006.018c-.071.191-.143.382-.214.579a315.891 315.891 0 0 0-1.72 4.844l-.006.029c-.088.228-.159.454-.241.693v.006a566.49 566.49 0 0 0-1.567 4.575l-.016.06c-.088.251-.171.495-.253.746l-.038.113c-.083.244-.166.489-.248.74l-.039.125c-.082.244-.17.495-.252.74l-.05.149c-.082.244-.165.489-.241.739l-.05.132c-.352 1.056-.709 2.142-1.077 3.245l-.099.316c-.071.203-.137.412-.209.621l-.115.357c-.061.191-.132.388-.192.585l-.149.453c-.061.179-.116.358-.176.531-.049.156-.099.311-.154.465-.06.192-.121.377-.181.567-.055.156-.105.316-.159.478-.055.173-.11.346-.171.519-.066.196-.131.399-.192.59l-.143.442c-.116.34-.225.686-.335 1.032-.836 2.553-1.687 5.178-2.539 7.827a3269.233 3269.233 0 0 0-4.298 13.422l-1.236 3.877c-.66 2.07-1.297 4.093-1.918 6.049h8.293c2.187-3.257 4.456-6.621 6.677-9.926.95-1.414 1.89-2.816 2.814-4.194 2.203-3.287 4.313-6.425 6.193-9.228 4.693-6.992 7.996-11.926 7.996-11.926l-7.952-4.647z" fill="#6e5389" fill-rule="nonzero"/><path d="M205.468 67.571c-6.153-5.889-13.943-7.991-13.943-7.991s-17.221-8.843-30.339-15.156c-13.118-6.304-34.446-1.259-45.512 1.683-11.071 2.947-24.258 19.097-28.355 27.928-4.093 8.847-14.291 28.037-17.563 41.913-3.279 13.885 7.743 27.357 14.616 30.23 4.47 1.869 4.755 12.652 4.755 12.652 2.29 1.041 4.865-.669 4.915-3.28.132-6.764.679-18.575 2.781-28.588 1.357-6.463 7.585-10.589 13.71-8.928a57.613 57.613 0 0 0 7.264 1.493c4.026.553 5.288 5.942 1.973 8.393-.635.469-1.29.832-1.963 1.034 0 0 9.794 2.881 23.124-8.426a40.03 40.03 0 0 0 3.049-1.513c-2.068 6.997-7.282 9.4-14.708 13.636 0 0 28.858 13.52 34.29-37.863 0 0 6.119-35.962 34.552 1.613 4.24 5.282 5.364 27.855 5.364 38.16 0 3.777-1.147 12.742-1.977 18.736-.33 2.381 2.097 4.113 4.101 2.933 0 0 0-6.674 7.36-10.849 5.857-3.339 7.349-14.685 7.349-19.369 0-31.333-8.689-52.548-14.843-58.441z" fill="#36393a" fill-rule="nonzero"/><path d="M157.106 150.422c-2.377-4.045-3.621-7.384-3.621-7.384-.757-2.04-1.701-3.245-2.62-3.945a41.643 41.643 0 0 1-.524-6.442c0-.465.009-.92.026-1.372 3.299-1.005 6.839-4.252 6.839-4.252a60.85 60.85 0 0 1 14.319-6.213 17.372 17.372 0 0 0-4.198 2.262l-.02.014a29.97 29.97 0 0 0-3.325 2.225c-3.069 2.353-4.596 4.637-4.711 4.813l-.029.041a2.04 2.04 0 0 0 .264 2.538 1.99 1.99 0 0 0 1.427.596h.001c.54 0 1.046-.212 1.426-.596l.017-.017c.102-.102.859-.842 2.217-1.892-.863 6.149-.822 14.118-.756 17.469-.865.233-1.732.483-2.601.752-.29.091-.576.181-.867.277l-.576.188c-.127.039-.25.081-.375.122-.366.121-.733.248-1.103.381-.402.14-.807.285-1.21.435zm45.177-3.014l-.111-.023a62.368 62.368 0 0 0-.994-.195c-.333-.064-.666-.129-1.003-.188-.335-.06-.671-.122-1.007-.179a82.605 82.605 0 0 0-1.866-.295l-.231-.038a48.785 48.785 0 0 0-.752-.105 68.166 68.166 0 0 0-1.011-.136c-.237-.031-.474-.062-.714-.088l-.555-.065a58.55 58.55 0 0 0-1.108-.116 12.313 12.313 0 0 0-.443-.043 40.706 40.706 0 0 0-.925-.081 28.235 28.235 0 0 0-.997-.078c-.225-.02-.448-.034-.672-.051-.467-.028-.932-.057-1.401-.074l-.149-.008c4.137-6.479 6.428-15.875 6.428-15.875l-.017-.018a2.14 2.14 0 0 1 .011-.044c-2.178-2.345-4.268-4.181-6.258-5.599.427.053.844.136 1.253.218.34.068.673.133 1.001.181 1.401.206 2.595.522 3.555.777.25.067.485.128.708.185l4.636 1.089-4.061-2.551c-.266-.141-.56-.321-.883-.52-.845-.517-1.896-1.16-3.187-1.603-1.905-.839-4.104-1.509-6.386-1.942-1.771-.239-3.398-.357-4.914-.357-.99 0-1.933.05-2.838.151-.289.04-.579.084-.87.134-.779.014-1.524.088-2.232.207 5.927-1.439 11.66-1.953 16.82-1.953 4.416 0 8.415.376 11.762.869.441 5.882.606 11.623.606 15.567 0 2.66-.569 7.891-1.195 12.847z" fill="#31302e" fill-rule="nonzero"/><path d="M164.549 148.078c.201-6.969.978-15.377 3.43-17.115 1.995-1.461 5.243-3.22 9.493-3.22 4.281 0 9.579 1.783 15.644 7.449a58.481 58.481 0 0 0 1.639-5.44.298.298 0 0 0 .017.018s-2.291 9.396-6.428 15.875a58.46 58.46 0 0 0-1.028-.042l-.102-.002c-.436-.019-.87-.026-1.306-.035h-.062c-.459-.01-.919-.013-1.379-.013-.298 0-.598.003-.896.005-.203 0-.403.003-.605.01h-.034a8.294 8.294 0 1 0-10.463.881l-.386.059c-.243.039-.488.08-.731.122-.1.014-.203.029-.307.05-.195.034-.396.067-.593.103-.19.033-.381.071-.575.104-.383.072-.766.146-1.155.227-.574.114-1.153.238-1.734.371-.229.053-.46.103-.689.16-.14.031-.278.065-.417.098-.257.064-.519.126-.778.193-.185.046-.37.094-.555.142z" fill="#323132" fill-rule="nonzero"/><path d="M163.838 148.267c-.066-3.351-.107-11.32.756-17.469a39.412 39.412 0 0 1 2.211-1.588c1.381-1.014 3.18-1.905 5.049-2.801a25.564 25.564 0 0 1 6.294-1.971c1.783-.411 3.806-.605 6.144-.605l.465.003 1.023.072c.742.054 1.464.105 2.172.152.187.009.372.027.556.049 1.99 1.418 4.08 3.254 6.258 5.599l-.011.044c-.081.34-.628 2.571-1.639 5.44-6.065-5.666-11.363-7.449-15.644-7.449-4.25 0-7.498 1.759-9.493 3.22-2.452 1.738-3.229 10.146-3.43 17.115l-.389.103-.322.086zm3.469-25.177l.02-.014a17.372 17.372 0 0 1 4.198-2.262 63.318 63.318 0 0 1 2.765-.736 15.089 15.089 0 0 1 2.232-.207 30.628 30.628 0 0 0-6.674 1.947c-.846.362-1.694.787-2.541 1.272z" fill="#302e2d" fill-rule="nonzero"/><path d="M172.469 146.449a8.293 8.293 0 0 1 4.693-15.132 8.294 8.294 0 0 1 5.77 14.251c-.144.001-.287.007-.43.009-.244.005-.489.012-.734.022-.269.009-.538.016-.808.028-.371.017-.746.034-1.117.055a83.746 83.746 0 0 0-2.375.174c-.203.014-.405.033-.61.055l-.128.012a67.975 67.975 0 0 0-1.304.136l-.158.016a77.143 77.143 0 0 0-2.799.374zm1.894-2.474c.794.73 1.803 1.171 2.865 1.172.106 0 .212-.005.32-.014 2.394-.197 4.233-2.614 4.015-5.271a5.866 5.866 0 0 0-.029-.27c.423-.305.677-.768.637-1.263-.064-.77-.804-1.342-1.689-1.342l-.075.002c-.843-1.027-2.053-1.676-3.343-1.676a3.82 3.82 0 0 0-.32.013c-2.395.198-4.231 2.611-4.019 5.268.068.829.33 1.603.731 2.268a.67.67 0 0 0-.143.466c.033.38.403.667.843.667l.087-.003c.041-.004.081-.009.12-.017z" fill="#221e1d" fill-rule="nonzero"/><path d="M177.228 145.147c-1.062-.001-2.071-.442-2.865-1.172.336-.067.595-.298.671-.577.636.501 1.388.785 2.095.785.071 0 .141-.003.211-.008 1.667-.142 3.397-1.971 3.214-4.224l-.001-.003h.001c.373-.032.711-.161.98-.356.012.089.021.179.029.27.218 2.657-1.621 5.074-4.015 5.271a3.842 3.842 0 0 1-.32.014zm-3.772-2.285a5.221 5.221 0 0 1-.731-2.268c-.212-2.657 1.624-5.07 4.019-5.268a3.82 3.82 0 0 1 .32-.013c1.29 0 2.5.649 3.343 1.676a1.957 1.957 0 0 0-1.09.367c-.693-.671-1.581-1.061-2.411-1.061-.07 0-.14.002-.209.008-1.668.142-3.393 1.979-3.209 4.231a4.02 4.02 0 0 0 .713 1.981.929.929 0 0 0-.745.347z" fill="#292321" fill-rule="nonzero"/><path d="M177.129 144.183c-.707 0-1.459-.284-2.095-.785a.65.65 0 0 0 .02-.216c-.033-.38-.402-.667-.842-.667h-.011a4.02 4.02 0 0 1-.713-1.981c-.184-2.252 1.541-4.089 3.209-4.231.069-.006.139-.008.209-.008.83 0 1.718.39 2.411 1.061-.416.305-.666.766-.627 1.261.065.766.809 1.338 1.694 1.338.056 0 .112-.002.169-.007l.001.003c.183 2.253-1.547 4.082-3.214 4.224-.07.005-.14.008-.211.008z" fill="#1b1c1c" fill-rule="nonzero"/><path d="M180.384 139.955c-.885 0-1.629-.572-1.694-1.338-.039-.495.211-.956.627-1.261a1.957 1.957 0 0 1 1.09-.367l.075-.002c.885 0 1.625.572 1.689 1.342.04.495-.214.958-.637 1.263a1.954 1.954 0 0 1-.98.356h-.001a1.926 1.926 0 0 1-.169.007zm-6.228 4.04c-.44 0-.81-.287-.843-.667a.67.67 0 0 1 .143-.466.929.929 0 0 1 .745-.347h.011c.44 0 .809.287.842.667a.65.65 0 0 1-.02.216c-.076.279-.335.51-.671.577a1.155 1.155 0 0 1-.207.02z" fill="#323132" fill-rule="nonzero"/><path d="M160.934 133.303h-.001a1.99 1.99 0 0 1-1.427-.596 2.04 2.04 0 0 1-.264-2.538l.029-.041c.115-.176 1.642-2.46 4.711-4.813a29.97 29.97 0 0 1 3.325-2.225c.847-.485 1.695-.91 2.541-1.272a30.628 30.628 0 0 1 6.674-1.947c.291-.05.581-.094.87-.134a25.559 25.559 0 0 1 2.838-.151c1.516 0 3.143.118 4.914.357 2.282.433 4.481 1.103 6.386 1.942 1.291.443 2.342 1.086 3.187 1.603.323.199.617.379.883.52l4.061 2.551-4.636-1.089a62.593 62.593 0 0 1-.708-.185c-.96-.255-2.154-.571-3.555-.777a19.66 19.66 0 0 1-1.001-.181 17.037 17.037 0 0 0-1.253-.218 7.862 7.862 0 0 0-.556-.049c-.708-.047-1.43-.098-2.172-.152l-1.023-.072a36.274 36.274 0 0 0-.465-.003c-2.338 0-4.361.194-6.144.605a25.564 25.564 0 0 0-6.294 1.971c-1.869.896-3.668 1.787-5.049 2.801a39.412 39.412 0 0 0-2.211 1.588c-1.358 1.05-2.115 1.79-2.217 1.892l-.017.017c-.38.384-.886.596-1.426.596z" fill="#17191a" fill-rule="nonzero"/><path d="M207.385 148.598l-.087-.024c-.4-.105-.805-.207-1.209-.305-.244-.06-.49-.121-.734-.179-.165-.037-.329-.078-.493-.114l-.079-.019a82.586 82.586 0 0 0-2.5-.549c.626-4.956 1.195-10.187 1.195-12.847 0-3.944-.165-9.685-.606-15.567 6.401.945 10.418 2.319 10.418 2.319 2.251.953 1.298 6.926 1.298 6.926-2.596 2.249-3.461 5.365-3.461 5.365-.853 6.115-2.178 11.035-3.742 14.994z" fill="#1e2121" fill-rule="nonzero"/><path d="M200.379 159.859c.31-2.532.655-4.747 1.052-6.274l.064-.246c-.179 1.433.64 2.625 1.757 3.076a26.437 26.437 0 0 1-2.873 3.444z" fill="#4a423f" fill-rule="nonzero"/><path d="M182.846 165.845c-9.111 0-14.474-3.332-14.474-3.332-4.943-2.718-8.741-7.795-11.266-12.085a61.07 61.07 0 0 1 1.21-.441c.37-.133.737-.26 1.103-.381.125-.041.248-.083.375-.122l.576-.188c.291-.096.577-.186.867-.277a73.007 73.007 0 0 1 2.601-.752c.019 1.006.041 1.597.041 1.597l.009.002.002.06s5.824 2.085 12.464 2.085c1.669 0 3.39-.131 5.083-.461 2.67-.521 4.987-2.899 6.907-5.905l.149.008c.469.017.934.046 1.401.074.224.017.447.031.672.051.331.019.664.047.997.078.308.024.618.05.925.081.15.012.297.026.443.043a58.55 58.55 0 0 1 1.663.181c.24.026.477.057.714.088.337.043.675.088 1.011.136.255.033.504.069.752.105l.231.038c.627.091 1.249.191 1.866.295.336.057.672.119 1.007.179.337.059.67.124 1.003.188.332.062.665.128.994.195l.111.023a517.457 517.457 0 0 1-.782 5.889l-.006.042-.064.246c-.397 1.527-.742 3.742-1.052 6.274-4.57 4.59-8.724 4.988-8.724 4.988-3.224.719-6.173.998-8.809.998z" fill="#4c4641" fill-rule="nonzero"/><path d="M176.354 152.011c-6.64 0-12.464-2.085-12.464-2.085l-.002-.06c.044.014.239.076.617.234.01-.654.024-1.331.044-2.022.185-.048.37-.096.555-.142.259-.067.521-.129.778-.193.139-.033.277-.067.417-.098.229-.057.46-.107.689-.16.581-.133 1.16-.257 1.734-.371.389-.081.772-.155 1.155-.227.194-.033.385-.071.575-.104.197-.036.398-.069.593-.103.104-.021.207-.036.307-.05.243-.042.488-.083.731-.122l.386-.059a8.26 8.26 0 0 0 4.693 1.454c2.242 0 4.277-.89 5.77-2.335h.034c.202-.007.402-.01.605-.01.298-.002.598-.005.896-.005.46 0 .92.003 1.379.013h.062c.436.009.87.016 1.306.035l.102.002c.343.011.686.025 1.028.042-1.92 3.006-4.237 5.384-6.907 5.905-1.693.33-3.414.461-5.083.461z" fill="#4d4c4c" fill-rule="nonzero"/><path d="M164.505 150.1c-.378-.158-.573-.22-.617-.234a.066.066 0 0 1-.009-.002s-.022-.591-.041-1.597l.322-.086.389-.103c-.02.691-.034 1.368-.044 2.022z" fill="#49423f" fill-rule="nonzero"/><path d="M177.162 147.903a8.26 8.26 0 0 1-4.693-1.454 77.143 77.143 0 0 1 2.799-.374l.158-.016a67.975 67.975 0 0 1 1.304-.136l.128-.012c.205-.022.407-.041.61-.055a83.746 83.746 0 0 1 2.375-.174c.371-.021.746-.038 1.117-.055.27-.012.539-.019.808-.028.245-.01.49-.017.734-.022.143-.002.286-.008.43-.009a8.271 8.271 0 0 1-5.77 2.335z" fill="#2a1f1c" fill-rule="nonzero"/><path d="M203.252 156.415c-1.117-.451-1.936-1.643-1.757-3.076l.006-.042c.245-1.774.519-3.807.782-5.889.841.172 1.673.353 2.5.549l.079.019c.164.036.328.077.493.114.244.058.49.119.734.179.404.098.809.2 1.209.305l.087.024c-1.261 3.188-2.679 5.754-4.133 7.817z" fill="#232627" fill-rule="nonzero"/><path d="M140.099 151.211l-.029-.009c-.368-.131-.738-.26-1.105-.381-.314-.106-.631-.208-.948-.31l-.569-.184-.3-.092a71.554 71.554 0 0 0-2.924-.839 65.438 65.438 0 0 0-.943-.246l-.388-.096c.059-2.915.106-9.584-.491-15.387 1.355.32 3.079.592 5.019.592 3.055 0 6.65-.674 10.203-2.894.114.03.228.057.342.081l.004.076a38.028 38.028 0 0 1-.166 6.663c-.013.112-.024.224-.039.336-1.181.527-2.547 1.758-3.571 4.517 0 0-1.407 3.785-4.095 8.173zm-45.833-2.193c.323-6.549 1.029-14.778 2.557-22.056.912-4.34 4.019-7.626 7.817-8.813a76.469 76.469 0 0 1 6.835.133c2.18.555 4.287.966 6.322 1.245.164.023.322.053.476.091a27.39 27.39 0 0 0-1.328-.032c-1.52 0-3.157.12-4.949.361-2.255.429-4.453 1.099-6.32 1.922-1.331.459-2.382 1.103-3.226 1.62-.324.199-.617.378-.914.538l-4.026 2.531 4.64-1.09c.216-.055.449-.116.701-.183.959-.255 2.153-.571 3.554-.777a19.66 19.66 0 0 0 1.001-.181c.584-.117 1.187-.237 1.82-.267l.087-.006c-2.312 1.5-4.767 3.563-7.346 6.339l.011.044-.017.018s2.435 9.989 6.819 16.47l-.286.017c-.224.017-.449.031-.672.05-.334.022-.668.048-.999.079a36.54 36.54 0 0 0-.926.081 86.737 86.737 0 0 0-2.106.224c-.238.026-.474.057-.713.088a90.658 90.658 0 0 0-1.765.241l-.229.038c-.626.09-1.25.19-1.867.295-.336.057-.672.119-1.008.179-.336.059-.667.123-1.001.188-.333.062-.664.129-.995.195a87.21 87.21 0 0 0-1.947.418zm37.812-17.954a46.363 46.363 0 0 0-.114-.727c.21.156.409.308.597.453l-.483.274zm4.448-2.665a24.362 24.362 0 0 0-2.926-2.758 39.12 39.12 0 0 0 2.047-1.208 59.145 59.145 0 0 1 3.63 1.897 26.085 26.085 0 0 1-2.751 2.069z" fill="#302e2d" fill-rule="nonzero"/><path d="M132.187 148.884a1.745 1.745 0 0 0-.099-.021c-.231-.06-.46-.11-.692-.163a58.389 58.389 0 0 0-1.734-.371 47.047 47.047 0 0 0-1.155-.226c-.193-.034-.384-.07-.574-.103a23.008 23.008 0 0 0-.594-.105 6.865 6.865 0 0 0-.304-.05c-.245-.043-.491-.081-.732-.121a73.836 73.836 0 0 0-2.365-.334l-.058-.007a8.293 8.293 0 0 0-4.309-15.381 8.293 8.293 0 0 0-5.184 14.768l-.467-.001c-.459 0-.919.002-1.379.011h-.064c-.437.01-.867.017-1.303.036l-.103.003c-.393.011-.788.028-1.177.05a37.24 37.24 0 0 0-1.114.056c-4.384-6.481-6.819-16.47-6.819-16.47l.017-.018c.081.34.628 2.571 1.639 5.441 5.939-5.549 11.143-7.374 15.377-7.447a5.654 5.654 0 0 1-1.187.523s1.116.329 3.106.329c.792 0 1.721-.052 2.773-.197 2.127.645 3.836 1.66 5.068 2.562.282.2.542.488.782.853l-.264.15s.166.078.474.199c1.691 3.042 2.274 10.083 2.441 16.034z" fill="#323132" fill-rule="nonzero"/><path d="M132.893 149.054l-.389-.096a14.319 14.319 0 0 0-.317-.074c-.167-5.951-.75-12.992-2.441-16.034.518.203 1.44.529 2.656.817.597 5.803.55 12.472.491 15.387zm-29.276-13.176a58.553 58.553 0 0 1-1.65-5.485c2.579-2.776 5.034-4.839 7.346-6.339.675-.045 1.375-.095 2.093-.147l.974-.07c.182-.002.363-.004.541-.004 2.335 0 4.334.198 6.126.61.842.146 1.694.342 2.54.583a4.604 4.604 0 0 1-1.817 2.894c-.256.188-.514.36-.776.511-4.234.073-9.438 1.898-15.377 7.447zm25.919-3.377c-.24-.365-.5-.653-.782-.853-1.232-.902-2.941-1.917-5.068-2.562a25.46 25.46 0 0 0 4.691-1.125c.724.403 1.4.82 2.003 1.263a39.5 39.5 0 0 1 1.584 1.113c.039.239.078.482.114.727-.814.461-1.663.937-2.542 1.437z" fill="#302e2d" fill-rule="nonzero"/><path d="M123.88 147.383a49.727 49.727 0 0 0-.764-.093l-.157-.017a49.04 49.04 0 0 0-.566-.061c-.247-.027-.492-.05-.738-.075l-.125-.011c-.208-.022-.41-.041-.612-.055a84.743 84.743 0 0 0-2.376-.174c-.372-.019-.743-.038-1.115-.052-.269-.015-.538-.022-.808-.031-.245-.01-.49-.017-.736-.022-.155-.002-.307-.009-.462-.009-.203-.005-.403-.01-.605-.01l-.429-.003a8.293 8.293 0 0 1 5.184-14.768 8.293 8.293 0 0 1 4.309 15.381zm-8.682-7.106a5.87 5.87 0 0 0-.028.27c-.218 2.657 1.62 5.074 4.016 5.272.107.009.213.013.319.013 1.062 0 2.071-.442 2.865-1.172a1.175 1.175 0 0 0 .206.02c.44 0 .811-.287.844-.667a.675.675 0 0 0-.143-.466 5.217 5.217 0 0 0 .731-2.268c.212-2.656-1.624-5.07-4.019-5.268a3.845 3.845 0 0 0-.321-.013c-1.289 0-2.5.649-3.342 1.676l-.075-.002c-.885 0-1.625.573-1.69 1.342-.039.495.215.958.637 1.263z" fill="#221e1d" fill-rule="nonzero"/><path d="M119.505 145.832c-.106 0-.212-.004-.319-.013-2.396-.198-4.234-2.615-4.016-5.272a5.87 5.87 0 0 1 .028-.27c.27.195.608.324.981.356v.003c-.183 2.253 1.546 4.082 3.213 4.224.07.006.14.009.211.009.707 0 1.459-.285 2.096-.786.076.279.335.51.671.577-.794.73-1.803 1.172-2.865 1.172zm3.772-2.285a.933.933 0 0 0-.745-.347 4.017 4.017 0 0 0 .713-1.98c.184-2.253-1.542-4.09-3.21-4.231a2.423 2.423 0 0 0-.21-.009c-.829 0-1.716.39-2.41 1.061a1.953 1.953 0 0 0-.995-.362l-.094-.005c.842-1.027 2.053-1.676 3.342-1.676.107 0 .213.004.321.013 2.395.198 4.231 2.612 4.019 5.268a5.217 5.217 0 0 1-.731 2.268z" fill="#292321" fill-rule="nonzero"/><path d="M119.603 144.869c-.071 0-.141-.003-.211-.009-1.667-.142-3.396-1.971-3.213-4.224v-.003c.057.005.113.007.169.007.885 0 1.629-.571 1.694-1.338.039-.494-.21-.956-.627-1.261.694-.671 1.581-1.061 2.41-1.061.071 0 .141.003.21.009 1.668.141 3.394 1.978 3.21 4.231a4.017 4.017 0 0 1-.713 1.98h-.011c-.44 0-.81.287-.843.667a.654.654 0 0 0 .021.216c-.637.501-1.389.786-2.096.786z" fill="#1b1c1c" fill-rule="nonzero"/><path d="M116.348 140.64a1.961 1.961 0 0 1-1.15-.363c-.422-.305-.676-.768-.637-1.263.065-.769.805-1.342 1.69-1.342l.075.002.094.005c.38.031.723.163.995.362.417.305.666.767.627 1.261-.065.767-.809 1.338-1.694 1.338zm6.228 4.04l-.087-.003a1.175 1.175 0 0 1-.119-.017c-.336-.067-.595-.298-.671-.577a.654.654 0 0 1-.021-.216c.033-.38.403-.667.843-.667h.011a.933.933 0 0 1 .745.347.675.675 0 0 1 .143.466c-.033.38-.404.667-.844.667z" fill="#323132" fill-rule="nonzero"/><path d="M132.561 130.79a39.5 39.5 0 0 0-2.181-1.566 19.006 19.006 0 0 0-2.003-1.263 32.596 32.596 0 0 0 5.223-2.32 24.362 24.362 0 0 1 2.926 2.758c-1.209.8-2.533 1.577-3.965 2.391zm-35.051-4.232l4.026-2.531c.297-.16.59-.339.914-.538.844-.517 1.895-1.161 3.226-1.62 1.867-.823 4.065-1.493 6.32-1.922 1.792-.241 3.429-.361 4.949-.361.453 0 .895.011 1.328.032 2.467.605 3.738 3.119 3.314 5.408a24.704 24.704 0 0 0-2.54-.583c-1.792-.412-3.791-.61-6.126-.61-.178 0-.359.002-.541.004l-.974.07c-.718.052-1.418.102-2.093.147l-.087.006c-.633.03-1.236.15-1.82.267-.34.068-.673.133-1.001.181-1.401.206-2.595.522-3.554.777a69.39 69.39 0 0 1-.701.183l-4.64 1.09z" fill="#17191a" fill-rule="nonzero"/><path d="M90.817 149.861c-1.792-4.162-3.319-9.475-4.265-16.257 0 0-.864-3.116-3.461-5.365 0 0-.953-5.973 1.299-6.926 0 0 8.398-2.873 20.25-3.164-3.798 1.187-6.905 4.473-7.817 8.813-1.528 7.278-2.234 15.507-2.557 22.056-.222.05-.443.102-.664.154l-.245.057c-.11.024-.218.05-.327.076-.245.057-.488.12-.731.179-.405.098-.811.2-1.211.305l-.271.072zm46.604-15.602c-1.94 0-3.664-.272-5.019-.592a20.062 20.062 0 0 1-2.656-.817c-.308-.121-.474-.199-.474-.199l.264-.15c.879-.5 1.728-.976 2.542-1.437l.483-.274c1.432-.814 2.756-1.591 3.965-2.391a26.085 26.085 0 0 0 2.751-2.069c.399.226.798.459 1.196.697 0 0 3.765 3.452 7.151 4.338-3.553 2.22-7.148 2.894-10.203 2.894zm-16.508-4.976c-1.99 0-3.106-.329-3.106-.329a5.654 5.654 0 0 0 1.187-.523c.262-.151.52-.323.776-.511a4.604 4.604 0 0 0 1.817-2.894c.424-2.289-.847-4.803-3.314-5.408a4.715 4.715 0 0 0-.476-.091 57.019 57.019 0 0 1-6.322-1.245c7.521.486 15.901 2.181 24.172 6.151a39.12 39.12 0 0 1-2.047 1.208 32.596 32.596 0 0 1-5.223 2.32 25.46 25.46 0 0 1-4.691 1.125 20.327 20.327 0 0 1-2.773.197z" fill="#1e2121" fill-rule="nonzero"/><path d="M94.367 156.329a35.678 35.678 0 0 1-.34-.497 4.36 4.36 0 0 0 .015-.282l.019-.877c.106.507.208 1.062.306 1.656z" fill="#48403c" fill-rule="nonzero"/><path d="M114.834 165.845c-2.636 0-5.584-.278-8.808-.998 0 0-6.11-.585-11.659-8.518-.098-.594-.2-1.149-.306-1.656.039-1.659.103-3.572.205-5.655a87.21 87.21 0 0 1 1.947-.418c.331-.066.662-.133.995-.195.334-.065.665-.129 1.001-.188.336-.06.672-.122 1.008-.179a73.42 73.42 0 0 1 1.867-.295l.229-.038a90.658 90.658 0 0 1 1.765-.241c.239-.031.475-.062.713-.088a85.762 85.762 0 0 1 1.664-.181c.146-.017.294-.031.442-.043.31-.032.617-.057.926-.081.331-.031.665-.057.999-.079.223-.019.448-.033.672-.05l.286-.017c1.84 2.721 4.024 4.824 6.516 5.31 1.693.33 3.414.461 5.083.461 6.64 0 12.464-2.085 12.464-2.085l.002-.06.009-.002s.02-.55.039-1.495l.388.096c.314.079.629.162.943.246.973.257 1.947.536 2.924.839l.3.092.569.184a70.043 70.043 0 0 1 2.053.691l.029.009c-2.511 4.112-6.146 8.748-10.791 11.302 0 0-5.364 3.332-14.474 3.332z" fill="#4a443f" fill-rule="nonzero"/><path d="M120.379 152.696c-1.669 0-3.39-.131-5.083-.461-2.492-.486-4.676-2.589-6.516-5.31.37-.023.741-.044 1.114-.056.389-.022.784-.039 1.177-.05l.103-.003c.436-.019.866-.026 1.303-.036h.064c.46-.009.92-.011 1.379-.011l.467.001a8.26 8.26 0 0 0 5.184 1.819 8.257 8.257 0 0 0 4.309-1.206l.058.007c.786.098 1.572.209 2.365.334.241.04.487.078.732.121.1.014.202.031.304.05.198.033.398.067.594.105.19.033.381.069.574.103.386.071.769.145 1.155.226.577.114 1.154.238 1.734.371.232.053.461.103.692.163l.099.021c.018.648.031 1.285.04 1.901.38-.158.576-.221.618-.234l-.002.06s-5.824 2.085-12.464 2.085z" fill="#4d4c4c" fill-rule="nonzero"/><path d="M132.227 150.785c-.009-.616-.022-1.253-.04-1.901.105.023.21.048.317.074l.389.096c-.019.945-.039 1.495-.039 1.495l-.009.002a7.559 7.559 0 0 0-.618.234z" fill="#49423f" fill-rule="nonzero"/><path d="M119.571 148.589a8.26 8.26 0 0 1-5.184-1.819l.429.003c.202 0 .402.005.605.01.155 0 .307.007.462.009.246.005.491.012.736.022.27.009.539.016.808.031.372.014.743.033 1.115.052a84.743 84.743 0 0 1 2.376.174c.202.014.404.033.612.055l.125.011c.246.025.491.048.738.075.189.019.379.04.566.061l.157.017c.255.029.509.06.764.093a8.257 8.257 0 0 1-4.309 1.206z" fill="#2a1f1c" fill-rule="nonzero"/><path d="M94.027 155.832c-1.117-1.666-2.205-3.637-3.21-5.971l.271-.072c.4-.105.806-.207 1.211-.305.243-.059.486-.122.731-.179.109-.026.217-.052.327-.076l.245-.057c.221-.052.442-.104.664-.154a223.54 223.54 0 0 0-.205 5.655l-.019.877a4.36 4.36 0 0 1-.015.282z" fill="#232627" fill-rule="nonzero"/><path d="M207.268 140.279l-.055.217c-.124.595-.822 3.747-2.351 7.48-2.037 4.972-5.546 10.975-11.138 13.35-.116.05-.238.093-.362.132-2.287.681-24.154 6.696-32.708-10.368l-.081-.148a33.647 33.647 0 0 1-.78-1.458c-2.067-4.064-6.932-15.175-1.143-19.937 0 0 13.612-10.999 38.827-8.138 3.964.45 7.499 2.818 9.312 6.375 1.436 2.821 2.082 6.842.479 12.495zm-69.82 10.048c-.165.303-.284.515-.341.615l-.078.148c-8.555 17.064-30.425 11.049-32.712 10.368a3.89 3.89 0 0 1-.362-.132c-5.129-2.177-8.505-7.411-10.599-12.097-1.906-4.262-2.751-8.073-2.889-8.733l-.055-.217c-1.601-5.653-.958-9.674.481-12.495 1.811-3.557 5.346-5.925 9.312-6.375 25.212-2.861 38.825 8.138 38.825 8.138 6.258 5.148.064 17.717-1.582 20.78zm75.842-29.013s-29.6-10.127-56.084 5.712c0 0-3.54 3.247-6.839 4.253a6.489 6.489 0 0 1-1.518.286h-.009a5.378 5.378 0 0 1-.874-.12c-3.469-.729-7.493-4.419-7.493-4.419-26.484-15.839-56.084-5.712-56.084-5.712-2.251.953-1.298 6.925-1.298 6.925 2.597 2.249 3.461 5.365 3.461 5.365.946 6.782 2.473 12.095 4.265 16.257 6.075 14.11 15.208 14.986 15.208 14.986 14.368 3.205 23.283-2.334 23.283-2.334 4.645-2.554 8.28-7.19 10.791-11.302 2.688-4.388 4.095-8.173 4.095-8.173 1.025-2.759 2.39-3.991 3.571-4.517a4.204 4.204 0 0 1 1.07-.314h.009c.589.09 1.299.331 2.021.886.919.7 1.863 1.905 2.62 3.945 0 0 1.244 3.34 3.621 7.385v.005c2.525 4.29 6.323 9.367 11.266 12.085 0 0 8.915 5.539 23.282 2.334 0 0 9.672-.929 15.731-16.249 1.564-3.96 2.889-8.879 3.742-14.994 0 0 .865-3.116 3.461-5.365 0 0 .953-5.972-1.298-6.925z" fill="#fff" fill-rule="nonzero"/></svg>