<svg viewBox="0 0 298 301" xmlns="http://www.w3.org/2000/svg" fill-rule="evenodd" clip-rule="evenodd" stroke-linejoin="round" stroke-miterlimit="1.414"><g fill-rule="nonzero"><path fill="#6b557b" d="M.17.39h296.87V300.1H.17z"/><path d="M153.55 188.61v112.25H92.82c-.99-.39-1.48-.59-1.48-.59 0-5.42.3-10.39.86-14.94.16-1.48.37-2.9.6-4.28.43-2.61.94-5.08 1.54-7.39a69.9 69.9 0 0 1 2.3-7.61c.19-.47.35-.95.54-1.4.2-.51.41-1.01.62-1.5.2-.49.41-.97.63-1.44.42-.969.87-1.87 1.32-2.76a51.72 51.72 0 0 1 2.47-4.3c.23-.369.45-.72.68-1.05 1.11-1.64 2.26-3.17 3.43-4.54.33-.37.66-.76.99-1.11.33-.38.66-.72.99-1.07.33-.33.68-.68 1.01-.99.33-.33.66-.64.99-.93.65-.62 1.33-1.19 1.99-1.71.31-.24.62-.49.93-.7 2.9-2.22 5.65-3.74 8.04-4.79.33-.14.66-.29.99-.43 1.03-.41 1.95-.74 2.78-.99 2.14-.68 3.45-.82 3.45-.82.25 0 .46-.02.68-.06 1.91-.31 3.46-1.98 4.71-4.61.93-1.98 1.69-4.49 2.33-7.39.25-1.15.45-2.28.64-3.52.3-2.07.59-4.26.84-6.52.1-1.38.25-2.71.39-4.15.56-6.88.7-14.39.7-21.5 0 0 8.15.84 14.77.84z" fill="#e0bd9a"/><path d="M216.02 300.27s-.54.2-1.44.59h-61.03V188.61h.15c6.58 0 14.83-.84 14.83-.84 0 7.05.14 14.48.68 21.35.16 1.34.31 2.72.41 4.05.25 2.37.54 4.59.89 6.67v.04c.1.95.28 1.79.45 2.68.59 2.92 1.31 5.49 2.2 7.55 1.09 2.57 2.41 4.36 4.03 5.06.5.22 1.05.35 1.63.35 0 0 2.32.27 5.82 1.64a37.913 37.913 0 0 1 7.8 4.16c.39.25.78.54 1.17.82.21.15.43.31.64.5.14.08.27.18.39.29.72.55 1.46 1.17 2.2 1.85.29.24.56.51.84.78.33.29.64.6.97.94.23.21.43.42.64.64.43.46.88.95 1.32 1.46.22.25.45.5.65.76a40.272 40.272 0 0 1 2.88 3.79c.42.581.79 1.17 1.18 1.79.78 1.26 1.54 2.591 2.28 4.01a61.69 61.69 0 0 1 2.57 5.7c.19.45.37.93.54 1.4.86 2.35 1.64 4.88 2.32 7.61.6 2.31 1.11 4.78 1.53 7.39.22 1.38.43 2.8.59 4.28.56 4.55.87 9.52.87 14.94z" fill="#efd0ad"/><path d="M170.5 219.63v.05c-1.53 2.36-6.67 9.14-16.85 9.14h-.09c-9.64-.05-15.27-7.03-16.71-9.09.3-2.06.6-4.22.84-6.48.1-1.33.25-2.7.4-4.13 4.69 1.18 9.83 1.92 15.27 2.02h.2c5.63-.1 10.82-.89 15.66-2.17.15 1.33.3 2.71.4 4.03.24 2.36.54 4.57.88 6.63z" fill="#be987f"/><path d="M152.86 60.65c-64.33 0-64.68 53.78-61.81 89-4.4-8.35-17.49-5.8-16.41 7.36 1.04 12.67 19.75 19.13 19.22 17.73 9.75 26.05 35.53 45.68 59 45.68h.5V60.65h-.5z" fill="#d2a686"/><path d="M78.74 151.46c3.17-5.11 8.11-2.89 9.29-1.77 1.29 1.23 2.33 2.8 1.54 5.8-.45 1.72-2.23 1.87-1.83 4.42.49 2.9 1.83 3.05 2.62 3.73.74.64 1.68 1.13 2.12 2.36a6.2 6.2 0 0 1 .3 3.63c-.5 2.07-3.51.4-5.54-.49-1.33-.63-5.58-4.22-6.67-5.4-2.67-3.04-3.95-8.94-1.83-12.28z" fill="#ac8774"/><path d="M153.21 60.65c64.34 0 64.68 53.78 61.87 89 4.39-8.35 17.44-5.8 16.35 7.36-.99 12.67-19.73 19.14-19.22 17.73-9.49 26.05-35.53 45.68-59 45.68h-.35l-.14-159.77h.49z" fill="#ddb598"/><path d="M227.33 151.46c-3.16-5.11-8.05-2.89-9.29-1.77-1.28 1.23-2.27 2.8-1.53 5.8.44 1.72 2.22 1.87 1.83 4.42-.5 2.9-1.83 3.05-2.57 3.73-.74.64-1.73 1.13-2.18 2.36-.44 1.23-.54 2.51-.29 3.63.49 2.07 3.5.4 5.53-.49 1.38-.63 5.58-4.22 6.67-5.4 2.72-3.04 3.95-8.94 1.83-12.28z" fill="#ac8774"/><path d="M152.36 75.83c-21.15 0-36.67 6.14-46.01 18.22-13.09 16.94-12.6 42.78-7.8 61.34 1.48 5.7 2.27 20.97 3.26 26.57 4.59 25.1 32.31 38.46 50.55 38.46h.49V75.83h-.29" fill="#e0bd9a"/><path d="M198.31 94.1c-9.29-12.03-24.61-18.17-45.46-18.27v144.59c20.85-.25 45.81-14.88 50.06-38.46 1.04-5.6 1.78-20.87 3.26-26.57 4.84-18.51 5.34-44.3-7.86-61.29z" fill="#efd0ad"/><path d="M149.48 194.79c-.1-.03-.2-.04-.31-.07.1.02.19.04.31.07zm-.79-.18c-.09-.02-.18-.05-.27-.07h-.01s.11.03.28.07z" fill="#bc917b"/><path d="M134.89 76.19l-.27.27.05.09c.09-.14.13-.27.22-.36z" fill="#432e1b"/><path d="M149.65 191.85c-.1-.02-.2-.04-.31-.06.1.02.19.04.31.06zm-.8-.18c-.1-.02-.19-.05-.28-.07h-.01s.11.03.29.07z" fill="#ba907b"/><path d="M140.28 175.89c-.25-5.13 9.43-1.88 12.62-1.72 2.52.13 10.19-1.61 10.85-1.16 4.51 3.04-4.78 9.17-11.01 9.17-1.66 0-12.31-3.2-12.46-6.29z" fill="#dcb497"/><path d="M106.7 132.26s4.91 20.14 13.33 21.78c8.43 1.64 17.55-1.62 17.55-1.62s.87-23.67-3.44-26.76c-4.31-3.1-14.25-7.59-27.44 6.6z" fill="#fff"/><path d="M137.59 152.36s-.19.05-.62.23c-.11-7.26-.78-17.23-3.48-19.14-4-2.93-13.05-7.06-25.14 4.23-1.09-3.12-1.64-5.48-1.64-5.48 13.21-14.22 23.16-9.74 27.43-6.63 4.32 3.1 3.45 26.79 3.45 26.79z" fill="#d6b496"/><path d="M132.6 142.1c0 4.58-3.71 8.3-8.29 8.3-4.58 0-8.29-3.72-8.29-8.3s3.71-8.29 8.29-8.29c4.58 0 8.29 3.71 8.29 8.29z" fill="#482315"/><path d="M123.92 147.63c-2.39-.2-4.23-2.62-4.01-5.28.21-2.65 2.42-4.73 4.82-4.53 2.39.2 4.23 2.61 4.02 5.27-.22 2.65-2.43 4.74-4.83 4.54z" fill="#7e3a22"/><path d="M124.13 146.67c-1.67-.14-3.4-1.97-3.21-4.23.18-2.26 2.19-3.78 3.85-3.64 1.67.14 3.4 1.97 3.21 4.23-.18 2.25-2.19 3.77-3.85 3.64z" fill="#211a10"/><path d="M122.78 141.11c-.07.81-.9 1.41-1.86 1.33-.96-.08-1.69-.81-1.62-1.62.07-.82.9-1.41 1.86-1.33.96.07 1.69.8 1.62 1.62zm5.38 4.71c-.04.4-.45.7-.93.66-.48-.03-.84-.4-.81-.81.03-.4.45-.7.93-.66.48.04.84.4.81.81z" fill="#fff"/><path d="M149.78 194.23c-.1-.02-.2-.04-.31-.07.11.02.2.04.31.07zm-.8-.18c-.1-.03-.18-.05-.28-.08h-.01l.29.08z" fill="#ba907b"/><path d="M149.41 193.66c-.11-.02-.22-.05-.34-.07.11.02.21.04.34.07zm-.87-.19l-.29-.09-.01.01.3.08zm.62-.65zm-.86-.2c-.11-.02-.2-.05-.3-.08l-.01.01s.11.03.31.07zm1.63.08zm-.83-.18c-.1-.03-.19-.06-.29-.08h-.01l.3.08z" fill="#bc917b"/><path d="M199.51 131.58s-4.91 20.13-13.34 21.78c-8.42 1.64-17.54-1.63-17.54-1.63s-.87-23.66 3.44-26.75c4.31-3.11 14.25-7.6 27.44 6.6z" fill="#fff"/><path d="M168.62 151.67s.19.06.62.24c.11-7.26.78-17.23 3.48-19.14 4-2.93 13.05-7.06 25.13 4.23 1.1-3.12 1.65-5.49 1.65-5.49-13.21-14.22-23.16-9.74-27.44-6.63-4.31 3.11-3.44 26.79-3.44 26.79z" fill="#d6b496"/><path d="M173.61 141.42c0 4.58 3.71 8.29 8.29 8.29 4.58 0 8.29-3.71 8.29-8.29 0-4.58-3.71-8.3-8.29-8.3-4.58 0-8.29 3.72-8.29 8.3z" fill="#482315"/><path d="M182.29 146.94c2.39-.2 4.23-2.61 4.01-5.27-.21-2.66-2.42-4.74-4.82-4.54-2.39.2-4.23 2.61-4.02 5.27.22 2.66 2.43 4.74 4.83 4.54z" fill="#7e3a22"/><path d="M182.08 145.98c1.67-.14 3.4-1.97 3.21-4.22-.19-2.26-2.19-3.79-3.85-3.65-1.67.14-3.4 1.98-3.21 4.23.18 2.26 2.19 3.78 3.85 3.64z" fill="#211a10"/><path d="M183.43 140.42c.07.82.9 1.41 1.86 1.33.96-.08 1.68-.8 1.62-1.61-.07-.82-.9-1.42-1.86-1.34-.96.08-1.69.81-1.62 1.62zm-5.38 4.71c.04.41.45.71.93.67.48-.04.84-.41.81-.81-.03-.41-.45-.71-.93-.67-.48.04-.84.41-.81.81z" fill="#fff"/><path d="M142.64 131.94c-.06-.1-1.59-2.42-4.72-4.82-1.96-1.5-3.88-2.64-5.87-3.5a30.841 30.841 0 0 0-7.55-2.08c-2.28-.25-4.81-.18-7.77.21-2.25.43-4.45 1.1-6.32 1.93-1.33.45-2.38 1.1-3.22 1.62-.33.19-.62.37-.92.53l-4.02 2.53 4.64-1.09c.21-.05.45-.11.7-.18.96-.25 2.15-.57 3.55-.77.33-.05.66-.12 1-.19.59-.11 1.19-.23 1.82-.26.71-.05 1.44-.1 2.18-.16l.98-.07c2.57-.03 4.74.17 6.66.61 2.11.36 4.28 1.04 6.26 1.96 1.88.9 3.68 1.79 5.08 2.82 2.83 1.89 4.41 3.47 4.42 3.48.39.4.91.6 1.44.6.38 0 .76-.11 1.09-.33.94-.61 1.2-1.87.61-2.78l-.04-.06zm57.7-6.13c-.27-.14-.56-.32-.89-.51-.84-.52-1.89-1.17-3.18-1.61-1.91-.84-4.11-1.51-6.39-1.94-2.93-.39-5.46-.46-7.75-.21-2.51.35-5.12 1.07-7.54 2.08-1.97.84-3.94 2.02-5.87 3.5-3.07 2.35-4.6 4.64-4.71 4.81l-.03.05a2.027 2.027 0 0 0 1.69 3.13c.54 0 1.05-.21 1.43-.6l.01-.01c.15-.15 1.68-1.65 4.43-3.48 1.38-1.02 3.18-1.91 5.05-2.8 2-.93 4.16-1.61 6.3-1.98 1.9-.43 4.07-.62 6.61-.6l1.02.08c.74.05 1.46.1 2.17.15.62.03 1.23.15 1.81.26.34.07.67.14 1 .19 1.4.2 2.59.52 3.55.77.26.07.49.13.71.19l4.64 1.09-4.06-2.56z" fill="#030405"/><path d="M146.81 201.26c-.1-.03-.21-.05-.31-.07.1.02.19.04.31.07zm-.8-.18c-.1-.03-.18-.05-.28-.08h-.01l.29.08zm.57-.6c-.1-.03-.21-.05-.31-.07.1.02.19.04.31.07zm-.8-.18c-.1-.03-.18-.06-.28-.08h-.01l.29.08zm1.51.07c-.1-.02-.2-.04-.3-.07.1.03.19.04.3.07zm-.77-.17c-.09-.03-.18-.05-.27-.08l-.01.01s.11.02.28.07z" fill="#be927b"/><path d="M140.55 202.76c-.24-3.19 8.92.68 11.92.77 2.4.08 9.6-.48 10.27-.73 5.03-1.88-.28 5.35-10.42 5.73-4.64.18-11.63-3.82-11.77-5.77z" fill="#f0d2ad"/><path d="M170.72 195.08c-5.8-1.09-18.03.07-18.03.07-10.08 1.68-17.97-.1-18.03-.04-.24.03 8.05 11.03 17.89 10.52 9.84.51 18.41-10.52 18.17-10.55z" fill="#c2646e"/><path d="M158.52 192.76c-2.61-.29-4.48 1.59-5.82 1.46-1.36.12-3.14-1.09-5.77-1.11-3.7-.04-5.5-.36-12.27 2 .24.47 4.58 2.98 12.7 3.11.11 0 2.29 1.24 5.39 1.22 1.94-.01 4.6-1.31 4.7-1.31 8.13-.12 13.1-2.54 13.33-2.99-8.95-2.77-8.24-2.42-12.26-2.38z" fill="#d87475"/><path d="M98.42 54.94c15.18-17.16 37.51-25.5 37.51-25.5l-6.18 6.2c3.7-3.03 10.29-7.24 21.31-10.95 15.69-5.27 25.85.6 25.85.6s-8.19-.29-12.2 3.13c3.96-1.82 10.78-2.45 22.17 2.56 22.31 9.81 15.66 26.26 31.19 31.65 15.89 5.53-14.42 8.04-14.42 8.04s16.85 2.33 19.84 3.95c1.74.94.01.01 0 0 .01.05 4.59 13.34 5.47 23.27.9 10.14-1.91 17.09-2.77 36.08-.75 16.23-4.78 7.91-9.58 19.87-1.62 4.01-1.69 8.52-1.69 8.52-1.78.47-6.45-9.74-3.1-27.48 1.74-9.16-4.74-38.63-20.56-46.04.35.77 10.86 24.52-.01 51.03 0 0 1.09-47.46-20.74-48.89 24.86 26.41 9.45 63.96 9.45 63.96.51-26.7-17.24-45.95-27.51-54.84 6.12 15.65.61 32.01.61 32.01-1.24-26.92-27.63-41.67-27.63-41.67l2.03-4.54c-6.08-1.28-12.19-.8-17.43 2.34-10.71 6.43-16.75 20.86-14.88 43.91 2.38 29.42-2.09 29.21-2.09 29.21-1.33 0 .1-7.83-4.37-13.23-4.46-5.4-11.26-24.57-11.26-42.72s5.82-33.3 20.99-50.47z" fill="#f9ad3a"/><path d="M214.56 281.05c-.42-2.61-.93-5.08-1.53-7.39-.68-2.73-1.46-5.26-2.32-7.61-.17-.47-.35-.95-.54-1.4a61.69 61.69 0 0 0-2.57-5.7c-.74-1.419-1.5-2.75-2.28-4.01-.39-.62-.76-1.209-1.18-1.79a40.272 40.272 0 0 0-2.88-3.79c-.2-.26-.43-.51-.65-.76-.44-.51-.89-1-1.32-1.46-.21-.22-.41-.43-.64-.64-.33-.34-.64-.65-.97-.94-.28-.27-.55-.54-.84-.78-.87-.8-1.74-1.52-2.58-2.14h-.01c-12.78 11.52-24.88 16.52-35.74 17.611v.039h-9.09c-16.69-1.5-29.59-11.46-36.19-17.74-.31.21-.62.46-.93.7-.66.52-1.34 1.09-1.99 1.71-.33.29-.66.6-.99.93-.33.31-.68.66-1.01.99-.33.35-.66.69-.99 1.07-.33.35-.66.74-.99 1.11-1.17 1.37-2.32 2.9-3.43 4.54-.23.33-.45.681-.68 1.05a51.72 51.72 0 0 0-2.47 4.3c-.45.89-.9 1.791-1.32 2.76-.22.47-.43.95-.63 1.44-.21.49-.42.99-.62 1.5-.19.45-.35.93-.54 1.4a69.9 69.9 0 0 0-2.3 7.61c-.6 2.31-1.11 4.78-1.54 7.39-.23 1.38-.44 2.8-.6 4.28l5.59 1.33a5.673 5.673 0 0 1 4.37 5.53v8.67h102.99v-8.67c0-2.63 1.81-4.919 4.38-5.53l5.62-1.33c-.16-1.48-.37-2.9-.59-4.28z" fill="#be1e2d"/><path d="M129.17 235.46s-4.49 20.69 24.15 20.87v3.96s-18.12 2.61-40.09-17.74c0 0 6.48-6.37 15.94-7.09z" fill="#a31d2e"/><path d="M177.19 235.17s4.79 20.98-23.84 21.16v3.96s18.92 2.691 40.9-17.65c0 0-6.23-6.16-17.06-7.47z" fill="#77111e"/></g></svg>