<svg viewBox="0 0 300 300" xmlns="http://www.w3.org/2000/svg" fill-rule="evenodd" clip-rule="evenodd" stroke-linejoin="round" stroke-miterlimit="1.414"><g fill-rule="nonzero"><path fill="#7a6a64" d="M.27.275h299.36V299.98H.27z"/><path d="M137.67 75.303l-.27.267.05.089c.09-.134.13-.267.22-.356z" fill="#432e1b"/><path d="M213.28 207.73c1.82 2.17 9.39 5.38 9.39 5.38s-4.9-2.21-6.55-10.6c-.6-3.06-.9-4.8-.95-6.03h-1.09c3.82-5.72 5.95-12.1 5.95-18.85 0-8.74-2.26-16.82-8.45-23.67.21 1.97-1.18 6.04-1.18 8.07 0 20.64-11.42 36.09-28.39 44.75.79-2.28 1.26-4.89 1.26-7.7 0-5.26-1.59-9.89-4.01-12.67-3.98-6.18-12.03-.95-21.34-.94-9.32-.01-17.37-5.24-21.35.94-2.42 2.78-4.01 7.41-4.01 12.67 0 2.81.47 5.42 1.26 7.7-16.97-8.66-28.39-24.11-28.39-44.75 0-2.03-1.39-6.1-1.18-8.07-6.19 6.85-8.46 14.93-8.46 23.67 0 6.75 2.14 13.13 5.96 18.85h-1.09c-.05 1.23-.35 2.97-.96 6.03-1.64 8.39-6.54 10.6-6.54 10.6s7.57-3.21 9.39-5.38c.89-1.06 3.26-3.99 3.97-4.87l.05.07c-.41.96-1.41 4.09-.01 10.11 1.83 7.87 9.33 13.17 9.33 13.17s-4.5-6.26-3.25-13.1c0 0-.27 2.74 7.04 10.37 6.99 7.3 19.75 16.13 20.86 16.22-.1-.23-.23-8.74-.32-11.84 5.33 1.61 10.89 2.53 16.67 2.53.34 0 .68-.01 1.03-.02.34.01.68.02 1.02.02 5.78 0 11.34-.92 16.67-2.53-.09 3.1-.22 13.5-.32 13.74 1.11-.09 13.87-10.82 20.86-18.12 7.31-7.63 7.04-10.37 7.04-10.37 1.25 6.84-3.25 13.1-3.25 13.1s7.5-5.3 9.33-13.17c1.4-6.02.4-9.15-.01-10.11l.05-.07c.71.88 3.08 3.81 3.97 4.87z" fill="#e39725"/><path d="M156.33 187.71v112.27H95.6l-1.48-.59c0-14.34 2.11-25.51 5.31-34.22 7.73-21.03 21.88-27.71 28.39-29.73 2.14-.66 3.46-.82 3.46-.82.23 0 .44-.02.67-.05 1.91-.31 3.46-1.97 4.71-4.62.92-1.97 1.7-4.48 2.33-7.39.25-1.13.44-2.27.64-3.51.3-2.07.59-4.25.84-6.52.1-1.39.25-2.72.4-4.15.54-6.87.69-14.39.69-21.51 0 0 8.16.84 14.77.84z" fill="#e0bd9a"/><path d="M218.79 299.39s-.54.2-1.43.59h-61.03V187.71h.15c6.57 0 14.83-.84 14.83-.84 0 7.07.14 14.48.69 21.36.15 1.34.29 2.71.39 4.05.25 2.37.55 4.6.89 6.68v.04c.1.94.3 1.79.45 2.67.6 2.92 1.33 5.49 2.2 7.55 1.09 2.56 2.42 4.35 4.03 5.06.51.23 1.06.34 1.63.34 0 0 2.33.29 5.83 1.66 7.15 2.8 19.16 10.14 26.06 28.89 3.21 8.71 5.31 19.88 5.31 34.22z" fill="#efd0ad"/><path d="M173.28 218.75v.04c-1.53 2.36-6.67 9.14-16.85 9.14h-.1c-9.63-.05-15.26-7.02-16.7-9.09.3-2.06.6-4.22.84-6.48.1-1.33.25-2.7.4-4.12 4.69 1.17 9.83 1.91 15.27 2.01h.19c5.64-.1 10.83-.89 15.67-2.16.15 1.32.29 2.7.39 4.03.25 2.35.55 4.56.89 6.63z" fill="#be987f"/><path d="M155.64 59.766c-64.33 0-64.68 53.784-61.81 88.994-4.4-8.35-17.5-5.8-16.41 7.37 1.04 12.67 19.75 19.12 19.22 17.73 9.75 26.04 35.53 45.67 59 45.67h.5V59.766h-.5z" fill="#d2a686"/><path d="M81.52 150.58c3.17-5.11 8.11-2.9 9.29-1.77 1.29 1.23 2.32 2.8 1.53 5.79-.44 1.72-2.22 1.87-1.82 4.42.49 2.9 1.82 3.05 2.61 3.74.75.63 1.68 1.13 2.13 2.35.49 1.23.54 2.51.3 3.64-.5 2.06-3.51.39-5.54-.49-1.33-.64-5.58-4.23-6.67-5.41-2.67-3.04-3.95-8.93-1.83-12.27z" fill="#ac8774"/><path d="M155.99 59.766c64.33 0 64.68 53.784 61.86 88.994 4.4-8.35 17.45-5.8 16.36 7.37-.99 12.67-19.73 19.13-19.22 17.73-9.49 26.04-35.53 45.67-59 45.67h-.35l-.15-159.764h.5z" fill="#ddb598"/><path d="M230.11 150.58c-3.16-5.11-8.06-2.9-9.29-1.77-1.29 1.23-2.27 2.8-1.53 5.79.44 1.72 2.22 1.87 1.83 4.42-.5 2.9-1.83 3.05-2.57 3.74-.75.63-1.73 1.13-2.18 2.35-.44 1.23-.54 2.51-.29 3.64.49 2.06 3.5.39 5.53-.49 1.38-.64 5.58-4.23 6.67-5.41 2.72-3.04 3.95-8.93 1.83-12.27z" fill="#ac8774"/><path d="M155.14 74.942c-21.15 0-36.67 6.139-46.01 18.221-13.09 16.947-12.6 42.777-7.81 61.347 1.49 5.69 2.28 20.97 3.27 26.57 4.59 25.09 32.31 38.45 50.55 38.45h.49V74.942h-.49z" fill="#e0bd9a"/><path d="M201.09 93.212c-9.29-12.032-24.61-18.172-45.46-18.27V219.53c20.85-.24 45.81-14.88 50.06-38.45 1.03-5.6 1.77-20.88 3.26-26.57 4.84-18.52 5.33-44.31-7.86-61.298z" fill="#efd0ad"/><path d="M152.26 193.9c-.11-.02-.21-.04-.31-.06.1.02.19.04.31.06zm-.79-.18c-.09-.02-.18-.05-.27-.07h-.01s.11.03.28.07z" fill="#bc917b"/><path d="M152.43 190.97c-.1-.03-.21-.05-.31-.07.1.02.19.04.31.07zm-.8-.18c-.1-.03-.19-.06-.28-.08h-.01l.29.08z" fill="#ba907b"/><path d="M144.57 172.6c-.25-5.13 9.42-1.87 12.61-1.71 2.53.13 10.2-1.62 10.85-1.17 4.52 3.04-4.78 9.17-11.01 9.17-1.66 0-12.3-3.19-12.45-6.29z" fill="#dcb497"/><path d="M152.56 193.34c-.1-.02-.2-.04-.31-.06.1.02.19.04.31.06zm-.8-.18c-.1-.02-.19-.05-.28-.08l-.01.01s.11.03.29.07z" fill="#ba907b"/><path d="M152.19 192.77zm-.87-.19c-.1-.03-.19-.06-.29-.08h-.02l.31.08zm.62-.65c-.11-.02-.22-.04-.34-.07.11.02.21.04.34.07zm-.87-.19l-.29-.09-.01.01.3.08zm5.43 2.94h.01-.01zm-3.79-2.86c-.11-.03-.22-.05-.32-.07.1.02.19.04.32.07zm-.84-.19c-.1-.03-.19-.05-.28-.08h-.01l.29.08zm4.63-.02h.01-.01z" fill="#bc917b"/><path d="M149.59 200.37c-.11-.02-.21-.04-.31-.07.1.03.19.04.31.07zm-.8-.18c-.1-.02-.18-.05-.28-.08l-.01.01s.11.03.29.07zm.57-.6c-.11-.02-.21-.04-.31-.07.1.03.19.04.31.07zm-.8-.18c-.1-.02-.18-.05-.28-.08l-.01.01s.11.03.29.07zm1.51.07l-.3-.06c.1.02.19.04.3.06zm-.77-.17c-.09-.02-.18-.05-.27-.08l-.01.01s.11.03.28.07z" fill="#be927b"/><path d="M143.33 201.88c-.24-3.2 8.92.67 11.92.76 2.4.08 9.6-.47 10.27-.73 5.03-1.88-.28 5.35-10.42 5.73-4.64.19-11.63-3.82-11.77-5.76z" fill="#f0d2ad"/><path d="M173.5 194.19c-5.8-1.08-18.03.08-18.03.08-10.08 1.67-17.97-.11-18.03-.04-.24.02 8.05 11.02 17.89 10.51 9.84.51 18.41-10.51 18.17-10.55z" fill="#c2646e"/><path d="M161.3 191.87c-2.62-.29-4.48 1.6-5.82 1.46-1.36.13-3.14-1.08-5.77-1.11-3.7-.04-5.5-.36-12.27 2.01.24.46 4.57 2.97 12.69 3.11.12 0 2.3 1.23 5.4 1.21 1.93-.01 4.6-1.3 4.7-1.3 8.13-.13 13.1-2.55 13.33-3-8.95-2.77-8.24-2.42-12.26-2.38z" fill="#d87475"/><path d="M109.48 130.98s4.91 20.2 13.33 21.85c8.43 1.65 17.55-1.63 17.55-1.63s.87-23.74-3.44-26.84c-4.31-3.11-14.25-7.62-27.44 6.62z" fill="#fff"/><path d="M140.37 151.14s-.19.05-.63.23c-.1-7.28-.78-17.28-3.47-19.19-4.01-2.95-13.05-7.09-25.14 4.24-1.1-3.13-1.65-5.5-1.65-5.5 13.22-14.27 23.16-9.77 27.44-6.66 4.32 3.12 3.45 26.88 3.45 26.88z" fill="#d6b496"/><path d="M135.38 140.85c0 4.6-3.71 8.32-8.29 8.32-4.58 0-8.3-3.72-8.3-8.32 0-4.59 3.72-8.32 8.3-8.32s8.29 3.73 8.29 8.32z" fill="#482315"/><path d="M126.7 146.39c-2.39-.2-4.23-2.62-4.01-5.29.21-2.66 2.42-4.75 4.82-4.55 2.39.2 4.23 2.62 4.01 5.29-.21 2.66-2.42 4.75-4.82 4.55z" fill="#7e3a22"/><path d="M126.91 145.43c-1.67-.14-3.4-1.98-3.21-4.24.18-2.26 2.18-3.79 3.85-3.66 1.67.15 3.39 1.99 3.21 4.25-.18 2.26-2.19 3.79-3.85 3.65z" fill="#211a10"/><path d="M125.56 135.74c-.07.82-.91 1.41-1.86 1.34-.96-.09-1.69-.82-1.62-1.63.07-.82.9-1.42 1.86-1.34.96.08 1.68.81 1.62 1.63zm5.38 8.84c-.04.41-.46.71-.93.67-.49-.04-.85-.41-.82-.82.04-.4.46-.7.93-.66.49.04.85.4.82.81zm71.35-14.29s-4.91 20.2-13.34 21.85c-8.42 1.65-17.54-1.63-17.54-1.63s-.88-23.74 3.44-26.84c4.31-3.11 14.25-7.61 27.44 6.62z" fill="#fff"/><path d="M171.39 150.45s.2.06.63.24c.11-7.28.78-17.28 3.47-19.2 4.01-2.94 13.06-7.08 25.14 4.24 1.1-3.13 1.65-5.5 1.65-5.5-13.21-14.26-23.16-9.77-27.44-6.65-4.32 3.11-3.45 26.87-3.45 26.87z" fill="#d6b496"/><path d="M176.38 140.16c0 4.6 3.72 8.32 8.3 8.32s8.29-3.72 8.29-8.32c0-4.59-3.71-8.32-8.29-8.32-4.58 0-8.3 3.73-8.3 8.32z" fill="#482315"/><path d="M185.06 145.7c2.4-.19 4.24-2.62 4.02-5.28-.22-2.67-2.42-4.75-4.82-4.55-2.4.19-4.23 2.62-4.02 5.28.22 2.67 2.43 4.76 4.82 4.55z" fill="#7e3a22"/><path d="M184.86 144.74c1.66-.14 3.39-1.97 3.21-4.23-.19-2.27-2.19-3.8-3.86-3.66-1.66.14-3.39 1.98-3.21 4.24.19 2.26 2.19 3.79 3.86 3.65z" fill="#211a10"/><path d="M186.21 139.17c.07.81.9 1.41 1.86 1.33.96-.08 1.68-.81 1.62-1.62-.07-.82-.9-1.42-1.86-1.34-.96.08-1.69.81-1.62 1.63zm-5.38 4.72c.03.41.45.71.93.67.48-.04.84-.41.81-.81-.03-.41-.45-.71-.93-.67-.48.04-.85.4-.81.81z" fill="#fff"/><path d="M145.42 130.66c-.06-.1-1.59-2.43-4.72-4.84-1.96-1.5-3.88-2.65-5.87-3.5-2.42-1.02-5.03-1.75-7.55-2.09-2.28-.26-4.81-.19-7.77.21-2.25.43-4.45 1.1-6.32 1.93-1.33.46-2.38 1.1-3.22 1.62-.33.2-.62.38-.92.54l-4.02 2.54 4.64-1.09c.21-.06.45-.12.7-.19.96-.25 2.15-.57 3.55-.77.33-.05.66-.12 1-.19.59-.11 1.19-.23 1.82-.26.7-.05 1.43-.1 2.18-.16l.98-.07c2.57-.03 4.74.16 6.66.61 2.11.37 4.28 1.05 6.26 1.97 1.88.9 3.67 1.79 5.08 2.82 2.83 1.9 4.41 3.48 4.42 3.5.39.39.91.6 1.44.6.38 0 .76-.11 1.09-.33.94-.62 1.2-1.88.6-2.79l-.03-.06zm57.7-6.15c-.27-.14-.56-.32-.89-.52-.84-.52-1.89-1.16-3.18-1.61-1.91-.84-4.11-1.51-6.39-1.95-2.93-.39-5.46-.46-7.75-.2-2.51.34-5.12 1.07-7.55 2.09-1.96.84-3.93 2.02-5.86 3.5-3.07 2.36-4.6 4.66-4.71 4.83l-.03.04c-.52.8-.41 1.88.26 2.55.38.39.89.6 1.43.6.54 0 1.05-.22 1.43-.6l.01-.02c.15-.15 1.68-1.65 4.43-3.49 1.38-1.02 3.18-1.91 5.05-2.81 1.99-.92 4.16-1.6 6.29-1.98 1.9-.44 4.08-.63 6.61-.6l1.03.07c.74.06 1.46.11 2.17.16.62.03 1.22.15 1.81.26.34.07.67.14 1 .19 1.4.2 2.59.52 3.55.77.25.07.49.13.71.19l4.64 1.09-4.06-2.56z" fill="#030405"/><path d="M81.61 94.438c9.58-26.756 23.17-36.72 39.77-42.525 2.49-.87 5.25-1.459 8.16-1.836 4.81-.627 9.62 1.267 12.62 4.846 1.04 1.24 2.77 1.835 4.45 1.533 2.74-.494 4.38-.993 11.77-3.242 13.51-4.11 22.26.47 22.26.47s-7.05-.231-10.51 2.44c3.41-1.414 9.29-1.91 19.1 1.997 19.22 7.647 18.87 21.36 32.25 25.565 13.69 4.315 17.66-1.223 17.66-1.223s-4.95 8.034-13.81 9.481l.02.02s-.07-.003-.2.01l-.24.042c-.99.217-3.19 1.372-1.72 7.503v-.002c.97 3.353 1.95 7.323 2.28 10.773.78 7.91-1.64 13.33-2.38 28.14-.64 12.65-4.11 6.17-8.25 15.49-1.4 3.13-1.46 6.65-1.46 6.65-1.53.37-5.55-7.6-2.66-21.43 1.88-8.99-7.41-43.031-29.83-36.4l-.07.02c-2.79.83-3.83 3.91-2.09 6.08 16.21 20.19 4.54 45.94 4.54 45.94.31-14.92-7.45-26.86-15.13-34.98-2.22-2.34-6.38-.72-6.17 2.37.57 8.23-1.88 14.81-1.88 14.81-.68-13.52-10.34-23.1-17.14-28.2-3.68-2.77-8.79-3.39-13.05-1.44-6.98 3.18-13.7 7.57-19.05 13.6-4.95 5.59-8.71 12.61-10.41 21.39-.47 2.47-.8 5.08-.92 7.85-.07.88-.12 1.79-.12 2.75 0 15.47 3.7 25.98 6.17 32.09 3.19 7.9 19.53 26.34 19.53 26.34s-37.57-28.84-43.44-58.45c-1.86-9.35-9.65-31.72-.05-58.472z" fill="#faa830"/><path fill="#351b1f" d="M152.53 269.11h8.3v30.83h-8.3z"/><path d="M146.73 244.5c-.28-.16-.55-.32-.82-.5l-14.67-9.35s-28.96 2.02-37.19 42.62c-.34 1.68-.64 3.45-.91 5.28l10.01 2.6c3.68.96 6.26 4.39 6.26 8.34v6.48h43.12v-45.53c0-4.18-2.28-7.94-5.8-9.94zm72.28 32.77c-3.25-16.62-12.4-37.2-37.48-42.69l-15.22 9.52-.24.15c-3.26 2.02-5.24 5.67-5.24 9.61v46.11h42.56v-6.48c0-3.95 2.58-7.38 6.26-8.34l10.22-2.66c-.23-1.68-.51-3.43-.86-5.22z" fill="#60373b"/><path d="M147.89 278.88c0 4.25-3.32 7.7-7.41 7.7s-7.41-3.45-7.41-7.7c0-4.26 3.32-7.71 7.41-7.71s7.41 3.45 7.41 7.71zm30.42 0c0 4.25-3.32 7.7-7.41 7.7s-7.41-3.45-7.41-7.7c0-4.26 3.32-7.71 7.41-7.71s7.41 3.45 7.41 7.71z" fill="#351b1f"/><path d="M171.89 282.56h-32.08c-1.95 0-3.54-1.66-3.54-3.68 0-2.03 1.59-3.68 3.54-3.68h32.08c1.94 0 3.54 1.65 3.54 3.68 0 2.02-1.6 3.68-3.54 3.68z" fill="#442125"/><path d="M102.9 165.42c-1.07-.87-2.07-1.84-3.01-2.91-.31-2.95-.49-6.14-.49-9.58 0-.96.05-1.87.12-2.75.04-1.02.12-2.03.22-3.01.45 2.54.98 5 1.58 7.34.63 2.41 1.14 6.53 1.58 10.91z" fill="#66564e"/><path d="M116.71 170.42c-5.18 0-9.92-1.83-13.81-5-.44-4.38-.95-8.5-1.58-10.91-.6-2.34-1.13-4.8-1.58-7.34.16-1.67.4-3.28.7-4.84 1.16-5.99 3.28-11.16 6.07-15.61l3.16-.74c.21-.06.45-.12.7-.19.96-.25 2.15-.57 3.55-.77.33-.05.66-.12 1-.19.59-.11 1.19-.23 1.82-.26.03-.01.06-.01.09-.01-2.31 1.5-4.77 3.57-7.35 6.36 0 0 .01.01.01.04 0 .01-.01.01-.01.02 0 0 4.91 20.2 13.33 21.85 1.7.33 3.42.46 5.09.46 6.64 0 12.46-2.09 12.46-2.09v-.06h.01s.45-12.22-.89-20.28c1.83 1.37 2.83 2.37 2.84 2.38.39.39.91.6 1.44.6.38 0 .76-.11 1.09-.33.94-.62 1.2-1.88.6-2.79l-.03-.06c-.06-.1-1.59-2.43-4.72-4.84-1.96-1.5-3.88-2.65-5.87-3.5-2.33-.99-4.83-1.69-7.27-2.05 12.84.68 23.55 3.64 23.55 15.51 0 16.04-20.83 34.64-34.4 34.64zm-9.55-44.69c1.13-1.7 2.37-3.3 3.69-4.79.11-.12.21-.23.31-.35 2.31-.34 4.85-.51 7.6-.51 1.43 0 2.86 0 4.28.03-1.11.05-2.28.16-3.53.33-2.25.43-4.45 1.1-6.32 1.93-1.33.46-2.38 1.1-3.22 1.62-.33.2-.62.38-.92.54l-1.89 1.2z" fill="#695c53"/><path d="M127.9 153.29c-1.67 0-3.39-.13-5.09-.46-8.42-1.65-13.33-21.85-13.33-21.85 0-.01.01-.01.01-.02.08.34.63 2.58 1.64 5.46 6.07-5.68 11.37-7.47 15.65-7.47 4.25 0 7.49 1.76 9.49 3.23 2.69 1.91 3.37 11.91 3.47 19.19.38-.15.58-.22.62-.23v.06s-5.82 2.09-12.46 2.09zm-.81-20.76c-4.58 0-8.3 3.73-8.3 8.32 0 4.6 3.72 8.32 8.3 8.32s8.29-3.72 8.29-8.32c0-4.59-3.71-8.32-8.29-8.32z" fill="#706d6e"/><path d="M139.74 151.37c-.1-7.28-.78-17.28-3.47-19.19-2-1.47-5.24-3.23-9.49-3.23-4.28 0-9.58 1.79-15.65 7.47-1.01-2.88-1.56-5.12-1.64-5.46 0-.03-.01-.04-.01-.04 2.58-2.79 5.04-4.86 7.35-6.36.67-.05 1.37-.1 2.09-.15l.98-.07h.54c2.33 0 4.33.2 6.12.61 2.11.37 4.28 1.05 6.26 1.97 1.88.9 3.67 1.79 5.08 2.82.58.39 1.11.77 1.58 1.12 1.34 8.06.89 20.28.89 20.28h-.01c-.04.01-.24.08-.62.23z" fill="#665a52"/><path d="M127.09 149.17c-4.58 0-8.3-3.72-8.3-8.32 0-4.59 3.72-8.32 8.3-8.32s8.29 3.73 8.29 8.32c0 4.6-3.71 8.32-8.29 8.32zm.09-12.63c-2.26 0-4.29 2.02-4.49 4.56-.22 2.67 1.62 5.09 4.01 5.29.11.01.21.02.32.02 1.06 0 2.07-.45 2.87-1.18.04.01.08.01.12.02h.08c.44 0 .81-.29.85-.67a.68.68 0 0 0-.15-.47c.4-.66.67-1.44.73-2.27.22-2.67-1.62-5.09-4.01-5.29-.11-.01-.22-.01-.33-.01zm-3.41-2.43c-.89 0-1.63.57-1.69 1.34-.07.81.66 1.54 1.62 1.63h.17c.88 0 1.62-.57 1.69-1.34.06-.82-.66-1.55-1.62-1.63h-.17z" fill="#32201a"/><path d="M127.02 146.41c-.11 0-.21-.01-.32-.02-2.39-.2-4.23-2.62-4.01-5.29.2-2.54 2.23-4.56 4.49-4.56.11 0 .22 0 .33.01 2.39.2 4.23 2.62 4.01 5.29-.06.83-.33 1.61-.73 2.27a.896.896 0 0 0-.67-.34c-.02 0-.05-.01-.07-.01.39-.55.65-1.23.71-1.98.18-2.26-1.54-4.1-3.21-4.25h-.21c-1.62 0-3.47 1.49-3.64 3.66-.19 2.26 1.54 4.1 3.21 4.24.07.01.14.01.21.01.71 0 1.46-.29 2.1-.79.07.28.33.51.67.58-.8.73-1.81 1.18-2.87 1.18z" fill="#492e24"/><path d="M127.12 145.44c-.07 0-.14 0-.21-.01-1.67-.14-3.4-1.98-3.21-4.24.17-2.17 2.02-3.66 3.64-3.66h.21c1.67.15 3.39 1.99 3.21 4.25-.06.75-.32 1.43-.71 1.98h-.01c-.44 0-.81.29-.85.67 0 .08.01.15.03.22-.64.5-1.39.79-2.1.79z" fill="#1e1b18"/><path d="M123.87 137.08h-.17c-.96-.09-1.69-.82-1.62-1.63.06-.77.8-1.34 1.69-1.34h.17c.96.08 1.68.81 1.62 1.63-.07.77-.81 1.34-1.69 1.34zm6.22 8.17h-.08c-.04-.01-.08-.01-.12-.02-.34-.07-.6-.3-.67-.58a.78.78 0 0 1-.03-.22c.04-.38.41-.67.85-.67h.01c.02 0 .05.01.07.01.29.02.53.15.67.34.11.14.16.3.15.47-.04.38-.41.67-.85.67z" fill="#706d6e"/><path d="M143.76 133.84c-.53 0-1.05-.21-1.44-.6-.01-.01-1.01-1.01-2.84-2.38-.47-.35-1-.73-1.58-1.12-1.41-1.03-3.2-1.92-5.08-2.82-1.98-.92-4.15-1.6-6.26-1.97-1.79-.41-3.79-.61-6.12-.61h-.54l-.98.07c-.72.05-1.42.1-2.09.15-.03 0-.06 0-.09.01-.63.03-1.23.15-1.82.26-.34.07-.67.14-1 .19-1.4.2-2.59.52-3.55.77-.25.07-.49.13-.7.19l-3.16.74c.22-.34.43-.67.65-.99l1.89-1.2c.3-.16.59-.34.92-.54.84-.52 1.89-1.16 3.22-1.62 1.87-.83 4.07-1.5 6.32-1.93 1.25-.17 2.42-.28 3.53-.33 1.53.03 3.04.08 4.52.16 2.44.36 4.94 1.06 7.27 2.05 1.99.85 3.91 2 5.87 3.5 3.13 2.41 4.66 4.74 4.72 4.84l.03.06c.6.91.34 2.17-.6 2.79-.33.22-.71.33-1.09.33z" fill="#0f1111"/><path d="M99.89 162.51c-4.55-5.19-7.33-12.52-7.33-20.76 0-12.32 6.08-19.29 18.6-21.16-.1.12-.2.23-.31.35a43.782 43.782 0 0 0-3.69 4.79c-.22.32-.43.65-.65.99-2.79 4.45-4.91 9.62-6.07 15.61-.3 1.56-.54 3.17-.7 4.84-.1.98-.18 1.99-.22 3.01-.07.88-.12 1.79-.12 2.75 0 3.44.18 6.63.49 9.58z" fill="#725636"/><path d="M207.13 168.07c.5-5.31 1.06-10.67 1.82-13.56.29-1.14.58-2.31.84-3.49.45 6.16 2.43 9.56 3.49 9.56.03 0 .07 0 .1-.01 0 0 .06-3.52 1.46-6.65 2.56-5.77 4.86-5.48 6.4-7.43-.11.78-.24 1.54-.39 2.29l-.03.03c-1.24 1.18-2.2 2.68-1.61 5.45-2.48 6.19-6.76 11.09-12.08 13.81z" fill="#685a53"/><path d="M219.21 154.26c-.59-2.77.37-4.27 1.61-5.45l.03-.03c-.39 1.92-.95 3.75-1.64 5.48z" fill="#5a4d47"/><path d="M197.36 170.42c-13.57 0-34.39-18.6-34.39-34.64 0-6.48 3.2-10.31 8.2-12.56.48.59.96 1.18 1.43 1.79-.37.26-.74.53-1.1.81-3.07 2.36-4.6 4.66-4.71 4.83l-.03.04c-.52.8-.41 1.88.26 2.55.38.39.89.6 1.43.6.54 0 1.05-.22 1.43-.6l.01-.02c.11-.1.86-.84 2.22-1.9-1.12 8.02-.72 19.13-.72 19.13h.01c.01.04.01.06.01.06s5.47 1.97 11.85 2.09c.02.72.03 1.45.01 2.18 0 0 .35-.78.85-2.18 1.59-.01 3.23-.15 4.83-.46 8.43-1.65 13.34-21.85 13.34-21.85-.01 0-.01-.01-.02-.01.01-.03.01-.05.01-.05-2.18-2.35-4.27-4.19-6.26-5.62.43.06.85.14 1.26.22.34.07.67.14 1 .19 1.4.2 2.59.52 3.55.77.25.07.49.13.71.19l4.64 1.09-4.06-2.56c-.27-.14-.56-.32-.89-.52-.84-.52-1.89-1.16-3.18-1.61-1.91-.84-4.11-1.51-6.39-1.95-1.02-.13-1.99-.23-2.92-.29 1.85-.05 3.73-.06 5.62-.06 4.88 0 9.07.54 12.58 1.64 2.6 7.02 3.49 14.02 2.78 17.42-.98 4.65-1.17 8.64-.93 11.88-.26 1.18-.55 2.35-.84 3.49-.76 2.89-1.32 8.25-1.82 13.56a21.341 21.341 0 0 1-9.77 2.35z" fill="#6d6258"/><path d="M184.12 152.6c.38-1.05.84-2.46 1.29-4.15 4.24-.37 7.56-3.94 7.56-8.29 0-3.68-2.38-6.8-5.68-7.89-.05-1.28-.16-2.57-.33-3.89 3.9.5 8.51 2.51 13.67 7.35 1.01-2.88 1.56-5.11 1.64-5.45.01 0 .01.01.02.01 0 0-4.91 20.2-13.34 21.85-1.6.31-3.24.45-4.83.46zm-.86 0c-6.38-.12-11.85-2.09-11.85-2.09s0-.02-.01-.06c.05.02.24.08.62.24.11-7.28.78-17.28 3.47-19.2.32-.23.67-.48 1.06-.72.72 1.21 1.4 2.46 2.04 3.74a8.317 8.317 0 0 0-2.21 5.65c0 3.99 2.79 7.31 6.52 8.13.19 1.41.31 2.84.36 4.31z" fill="#706d6e"/><path d="M172.02 150.69c-.38-.16-.57-.22-.62-.24h-.01s-.4-11.11.72-19.13c.62-.47 1.35-1.01 2.21-1.59.35-.25.72-.5 1.11-.74.38.58.75 1.18 1.12 1.78-.39.24-.74.49-1.06.72-2.69 1.92-3.36 11.92-3.47 19.2zm28.61-14.96c-5.16-4.84-9.77-6.85-13.67-7.35-.15-1.18-.36-2.37-.62-3.58 1.61-.31 3.42-.46 5.47-.46h.46l1.03.07c.74.06 1.46.11 2.17.16.18 0 .37.02.55.04 1.99 1.43 4.08 3.27 6.26 5.62 0 0 0 .02-.01.05-.08.34-.63 2.57-1.64 5.45z" fill="#665a52"/><path d="M185.41 148.45c.25-.92.49-1.92.72-2.99 1.85-.71 3.13-2.79 2.95-5.04l-.03-.27c.42-.31.68-.78.64-1.27-.07-.77-.81-1.35-1.69-1.35h-.08c-.2-.24-.42-.46-.65-.66.07-1.48.09-3.03.02-4.6a8.301 8.301 0 0 1 5.68 7.89c0 4.35-3.32 7.92-7.56 8.29zm-2.51-.16a8.316 8.316 0 0 1-6.52-8.13c0-2.18.84-4.16 2.21-5.65.71 1.44 1.36 2.93 1.93 4.47a5.39 5.39 0 0 0-.28 2.17c.07.83.33 1.61.73 2.28-.1.13-.15.29-.14.46.03.38.4.67.84.67h.09c.04 0 .08-.01.12-.02.13.12.26.23.4.34.25 1.11.46 2.25.62 3.41z" fill="#32201a"/><path d="M186.13 145.46c.09-.43.18-.87.26-1.32a4.071 4.071 0 0 0 1.68-3.63v-.01c.37-.03.71-.16.98-.35l.03.27c.18 2.25-1.1 4.33-2.95 5.04zm-3.85-.58a6.52 6.52 0 0 1-.4-.34c.11-.02.21-.06.3-.11.03.15.07.3.1.45zm-1.31-1.45c-.4-.67-.66-1.45-.73-2.28-.06-.76.05-1.5.28-2.17.17.45.34.9.49 1.36-.02.25-.03.5-.01.75.06.76.33 1.43.72 1.99h-.08c-.28.02-.52.16-.67.35zm6.25-5.74c.02-.27.03-.54.05-.82.23.2.45.42.65.66-.03.01-.06.01-.09.01-.22.02-.42.07-.61.15z" fill="#492e24"/><path d="M186.39 144.14c.23-1.21.43-2.5.59-3.86.27.15.58.23.92.23.06 0 .11 0 .17-.01v.01c.13 1.54-.64 2.89-1.68 3.63zm-4.55-1.06h-.12c-.39-.56-.66-1.23-.72-1.99-.02-.25-.01-.5.01-.75.31.9.58 1.81.83 2.74z" fill="#1e1b18"/><path d="M187.9 140.51c-.34 0-.65-.08-.92-.23.1-.84.18-1.71.24-2.59.19-.08.39-.13.61-.15.03 0 .06 0 .09-.01h.08c.88 0 1.62.58 1.69 1.35.04.49-.22.96-.64 1.27-.27.19-.61.32-.98.35-.06.01-.11.01-.17.01zm-6.23 4.05c-.44 0-.81-.29-.84-.67-.01-.17.04-.33.14-.46.15-.19.39-.33.67-.35h.2c.12.45.23.9.34 1.35-.09.05-.19.09-.3.11-.04.01-.08.02-.12.02h-.09z" fill="#706d6e"/><path d="M168.45 133.84c-.54 0-1.05-.21-1.43-.6-.67-.67-.78-1.75-.26-2.55l.03-.04c.11-.17 1.64-2.47 4.71-4.83.36-.28.73-.55 1.1-.81a56.59 56.59 0 0 1 2.83 3.98c-.39.24-.76.49-1.11.74-.86.58-1.59 1.12-2.21 1.59-1.36 1.06-2.11 1.8-2.22 1.9l-.01.02c-.38.38-.89.6-1.43.6zm38.73-6.77l-4.64-1.09c-.22-.06-.46-.12-.71-.19-.96-.25-2.15-.57-3.55-.77-.33-.05-.66-.12-1-.19-.41-.08-.83-.16-1.26-.22-.18-.02-.37-.04-.55-.04-.71-.05-1.43-.1-2.17-.16l-1.03-.07h-.46c-2.05 0-3.86.15-5.47.46-.32-1.47-.73-2.96-1.25-4.44 1.52-.11 3.08-.18 4.65-.22.93.06 1.9.16 2.92.29 2.28.44 4.48 1.11 6.39 1.95 1.29.45 2.34 1.09 3.18 1.61.33.2.62.38.89.52l4.06 2.56z" fill="#0f1111"/><path d="M213.28 160.58c-1.06 0-3.04-3.4-3.49-9.56-.24-3.24-.05-7.23.93-11.88.71-3.4-.18-10.4-2.78-17.42 9.14 2.86 13.62 9.48 13.62 20.03 0 1.62-.11 3.2-.32 4.74-1.54 1.95-3.84 1.66-6.4 7.43-1.4 3.13-1.46 6.65-1.46 6.65-.03.01-.07.01-.1.01zm-30.01-5.8c.02-.73.01-1.46-.01-2.18-.05-1.47-.17-2.9-.36-4.31-.16-1.16-.37-2.3-.62-3.41-.03-.15-.07-.3-.1-.45-.11-.45-.22-.9-.34-1.35-.25-.93-.52-1.84-.83-2.74-.15-.46-.32-.91-.49-1.36-.57-1.54-1.22-3.03-1.93-4.47-.64-1.28-1.32-2.53-2.04-3.74-.37-.6-.74-1.2-1.12-1.78a56.59 56.59 0 0 0-2.83-3.98c-.47-.61-.95-1.2-1.43-1.79 3.81-1.71 8.65-2.5 13.92-2.86.52 1.48.93 2.97 1.25 4.44a43.742 43.742 0 0 1 .95 7.47c.07 1.57.05 3.12-.02 4.6-.02.28-.03.55-.05.82a55.308 55.308 0 0 1-.83 6.45c-.08.45-.17.89-.26 1.32-.23 1.07-.47 2.07-.72 2.99-.45 1.69-.91 3.1-1.29 4.15-.5 1.4-.85 2.18-.85 2.18z" fill="#725636"/><path d="M197.36 170.42c-13.57 0-34.35-18.6-34.35-34.64 0-14.51 16-15.7 32.35-15.7 17.62 0 26.2 7.08 26.2 21.67 0 16.05-10.63 28.67-24.2 28.67zm-40.33-40.66c-3.23 0-4.69.94-5.25 2.93-.57-3.27-2.07-5.75-4.21-7.63 7.65 2.27 16.27.63 18.99.01-2.27 2.01-3.82 4.71-4.29 8.31-.56-2.07-1.85-3.62-5.24-3.62zm-40.28 40.66c-13.57 0-24.19-12.62-24.19-28.67 0-14.59 8.58-21.67 26.2-21.67 16.39 0 32.35 1.19 32.35 15.7 0 1.43-.18 2.88-.49 4.34-.14.39-.24.76-.27 1.11-3.82 14.52-21.54 29.19-33.6 29.19zm78.61-51.29c-9.11 0-19.85.21-26.6 4.32-13.73 3.83-23.3.03-23.37 0-6.77-4.11-17.52-4.32-26.63-4.32-17.07 0-27.14 6.49-27.14 22.62 0 16.13 10.58 29.62 25.13 29.62 12.9 0 30.65-15.29 34.52-30v-.04c.5-1.87.77-3.73.77-5.55l-.01-.15c.89-2.48 2.54-3.52 5-3.52 2.48 0 4.19 1.01 5.09 3.62v.05c0 1.76.25 3.57.71 5.38l.01.21h.05c3.85 14.71 21.57 30 34.47 30 14.59 0 25.13-13.49 25.13-29.62 0-16.13-10.03-22.62-27.13-22.62z" fill="#f17c21"/><path d="M157.03 128.71c2.13 0 3.73.56 4.83 1.71a13.49 13.49 0 0 1 1.86-3.74c-3.28.51-8.24.95-13.19.13.69 1 1.24 2.08 1.65 3.25 1.32-1.15 3.2-1.35 4.85-1.35zm0 2.1c-2.67 0-3.58.68-4 1.51 1.04-.84 2.38-1.26 4-1.26 1.23 0 2.29.22 3.17.68-.62-.56-1.59-.93-3.17-.93zm-38.27-9.69c-17.16 0-25.15 6.56-25.15 20.63 0 15.49 10.16 27.63 23.14 27.63 11.97 0 29.03-14.88 32.59-28.42 0-.22.1-.66.29-1.2.27-1.31.43-2.69.43-3.98 0-13.52-15.46-14.66-31.3-14.66zm76.6 0c-15.84 0-31.3 1.14-31.3 14.66 0 15.58 20.15 33.6 33.3 33.6 12.98 0 23.15-12.14 23.15-27.63 0-14.07-8-20.63-25.15-20.63zm2 51.3c-13.09 0-30.93-15.28-35.27-30h-.25l-.05-1.05c-.46-1.86-.71-3.71-.72-5.46-.71-1.93-1.93-2.75-4.04-2.75-2.04 0-3.23.79-3.95 2.66-.01 1.88-.27 3.74-.76 5.65v.91l-.25.01c-4.33 14.73-22.21 30.03-35.32 30.03-14.68 0-26.18-13.47-26.18-30.67 0-15.7 9.48-23.67 28.19-23.67 10.03 0 20.39.35 27.17 4.48.23.06 9.38 3.51 22.41-.08 6.77-4.05 17.06-4.4 27.02-4.4 18.7 0 28.18 7.97 28.18 23.67 0 17.2-11.5 30.67-26.18 30.67z" fill="#f17c21"/></g></svg>