<svg viewBox="0 0 300 301" xmlns="http://www.w3.org/2000/svg" fill-rule="evenodd" clip-rule="evenodd" stroke-linejoin="round" stroke-miterlimit="1.414"><g fill-rule="nonzero"><path fill="#2f616c" d="M.399.275H299.77V299.98H.399z"/><path d="M154.34 187.53v112.62H93.62c-.99-.4-1.48-.6-1.48-.6 0-14.37 2.1-25.58 5.3-34.32 7.73-21.1 21.88-27.8 28.4-29.82 2.13-.66 3.45-.82 3.45-.82.23 0 .45-.02.67-.06 1.91-.31 3.46-1.97 4.71-4.63.92-1.97 1.7-4.49 2.33-7.41.25-1.14.45-2.28.65-3.52.29-2.08.58-4.26.84-6.55.09-1.38.24-2.72.39-4.16.54-6.89.69-14.43.69-21.58 0 0 8.16.85 14.77.85z" fill="#e0bd9a"/><path d="M216.8 299.55s-.54.2-1.43.6h-61.03V187.53h.15c6.57 0 14.83-.85 14.83-.85 0 7.1.14 14.53.69 21.43.15 1.34.3 2.72.39 4.07.25 2.38.55 4.61.89 6.69v.05c.1.94.3 1.79.45 2.68.6 2.93 1.33 5.5 2.2 7.57 1.1 2.57 2.42 4.36 4.03 5.07.52.24 1.06.35 1.63.35 0 0 2.34.28 5.84 1.66 7.15 2.81 19.16 10.18 26.05 28.98 3.21 8.74 5.31 19.95 5.31 34.32z" fill="#efd0ad"/><path d="M171.29 218.66v.05c-1.53 2.37-6.67 9.16-16.85 9.16h-.09c-9.64-.05-15.27-7.04-16.71-9.11.3-2.07.6-4.24.84-6.5.1-1.33.25-2.71.4-4.14 4.69 1.18 9.83 1.92 15.27 2.02h.2c5.63-.1 10.82-.89 15.66-2.17.15 1.33.3 2.71.4 4.04.24 2.36.54 4.58.88 6.65z" fill="#be987f"/><path d="M153.65 59.185c-64.33 0-64.68 53.945-61.81 89.275-4.4-8.38-17.49-5.82-16.41 7.39 1.04 12.71 19.75 19.18 19.22 17.78 9.75 26.13 35.53 45.82 59 45.82h.5V59.185h-.5z" fill="#d2a686"/><path d="M79.53 150.28c3.17-5.13 8.11-2.91 9.29-1.77 1.29 1.23 2.33 2.8 1.54 5.81-.45 1.72-2.23 1.87-1.83 4.43.49 2.91 1.83 3.06 2.62 3.75.74.64 1.68 1.13 2.12 2.36.5 1.23.54 2.51.3 3.65-.5 2.07-3.51.39-5.54-.5-1.33-.64-5.58-4.23-6.67-5.41-2.67-3.06-3.95-8.97-1.83-12.32z" fill="#ac8774"/><path d="M154 59.185c64.34 0 64.68 53.945 61.87 89.275 4.39-8.38 17.44-5.82 16.35 7.39-.99 12.71-19.73 19.19-19.22 17.78-9.49 26.13-35.53 45.82-59 45.82h-.35l-.14-160.265h.49z" fill="#ddb598"/><path d="M228.12 150.28c-3.16-5.13-8.05-2.91-9.29-1.77-1.28 1.23-2.27 2.8-1.53 5.81.44 1.72 2.22 1.87 1.83 4.43-.5 2.91-1.83 3.06-2.57 3.75-.74.64-1.73 1.13-2.18 2.36-.44 1.23-.54 2.51-.29 3.65.49 2.07 3.5.39 5.53-.5 1.38-.64 5.58-4.23 6.67-5.41 2.72-3.06 3.95-8.97 1.83-12.32z" fill="#ac8774"/><path d="M153.15 74.408c-21.15 0-36.67 6.158-46.01 18.278-13.09 16.994-12.6 42.914-7.8 61.534 1.48 5.72 2.27 21.04 3.26 26.65 4.59 25.18 32.31 38.58 50.55 38.58h.49V74.408h-.29" fill="#e0bd9a"/><path d="M199.1 92.735c-9.29-12.07-24.61-18.228-45.46-18.327V219.45c20.85-.25 45.81-14.93 50.06-38.58 1.04-5.61 1.78-20.93 3.26-26.65 4.84-18.57 5.34-44.44-7.86-61.485z" fill="#efd0ad"/><path d="M150.27 193.74c-.1-.02-.2-.04-.31-.07.1.03.19.04.31.07zm-.79-.18c-.09-.02-.18-.05-.27-.07h-.01s.11.03.28.07z" fill="#bc917b"/><path d="M141.37 175.95c-.25-5.01 9.17-1.83 12.28-1.67 2.46.12 9.92-1.58 10.56-1.14 4.4 2.97-4.65 8.95-10.72 8.95-1.61 0-11.98-3.12-12.12-6.14z" fill="#ddb598"/><path d="M135.68 74.77l-.27.268.05.09c.09-.135.13-.269.22-.358z" fill="#432e1b"/><path d="M150.44 190.8zm-.8-.18c-.1-.03-.19-.06-.28-.08h-.01l.29.08z" fill="#ba907b"/><path d="M107.49 131.02s4.91 20.2 13.33 21.85c8.43 1.64 17.55-1.63 17.55-1.63s.87-23.74-3.44-26.84c-4.31-3.12-14.25-7.62-27.44 6.62z" fill="#fff"/><path d="M138.38 151.17s-.19.06-.62.24c-.11-7.28-.78-17.28-3.48-19.2-4-2.94-13.05-7.08-25.14 4.25-1.09-3.13-1.64-5.5-1.64-5.5 13.21-14.27 23.16-9.78 27.43-6.66 4.32 3.12 3.45 26.87 3.45 26.87z" fill="#d6b496"/><path d="M133.39 140.89c0 4.59-3.71 8.32-8.29 8.32-4.58 0-8.3-3.73-8.3-8.32 0-4.6 3.72-8.32 8.3-8.32s8.29 3.72 8.29 8.32z" fill="#482315"/><path d="M124.71 146.43c-2.39-.2-4.23-2.62-4.01-5.29.21-2.66 2.42-4.75 4.82-4.55 2.39.2 4.23 2.62 4.02 5.29-.22 2.66-2.43 4.75-4.83 4.55z" fill="#7e3a22"/><path d="M124.92 145.47c-1.67-.14-3.4-1.98-3.21-4.24.18-2.27 2.19-3.8 3.85-3.66 1.67.14 3.4 1.99 3.21 4.25-.18 2.26-2.19 3.79-3.85 3.65z" fill="#211a10"/><path d="M123.57 139.89c-.07.82-.9 1.42-1.86 1.34-.96-.08-1.69-.81-1.62-1.63.07-.82.9-1.41 1.86-1.34.96.08 1.68.81 1.62 1.63zm5.38 4.73c-.04.4-.45.7-.93.66-.48-.03-.84-.4-.81-.81.03-.4.45-.71.93-.66.48.03.84.4.81.81z" fill="#fff"/><path d="M150.57 193.18c-.1-.02-.2-.04-.31-.07.11.02.2.04.31.07zm-.8-.18c-.1-.03-.18-.05-.28-.08h-.01l.29.08z" fill="#ba907b"/><path d="M150.2 192.61zm-.87-.2c-.1-.02-.19-.05-.29-.08l-.01.01s.11.03.3.07zm.62-.65c-.11-.02-.22-.04-.33-.07.11.03.2.05.33.07zm-.86-.19c-.11-.03-.2-.06-.3-.08h-.01s.11.03.31.08zm1.63.08c-.11-.03-.22-.05-.32-.07.1.02.2.04.32.07zm-.83-.19c-.1-.03-.19-.05-.29-.08h-.01l.3.08z" fill="#bc917b"/><path d="M200.3 130.33s-4.91 20.2-13.34 21.85c-8.42 1.65-17.54-1.63-17.54-1.63s-.87-23.74 3.44-26.84c4.31-3.11 14.25-7.62 27.44 6.62z" fill="#fff"/><path d="M169.41 150.49s.19.05.62.23c.11-7.28.78-17.28 3.48-19.19 4-2.95 13.05-7.09 25.13 4.24 1.1-3.13 1.65-5.5 1.65-5.5-13.21-14.27-23.16-9.77-27.44-6.66-4.31 3.12-3.44 26.88-3.44 26.88z" fill="#d6b496"/><path d="M174.4 140.2c0 4.6 3.71 8.32 8.29 8.32 4.58 0 8.29-3.72 8.29-8.32 0-4.59-3.71-8.32-8.29-8.32-4.58 0-8.29 3.73-8.29 8.32z" fill="#482315"/><path d="M183.08 145.74c2.39-.2 4.23-2.62 4.01-5.29-.21-2.66-2.42-4.75-4.82-4.55-2.39.2-4.23 2.62-4.02 5.29.22 2.66 2.43 4.75 4.83 4.55z" fill="#7e3a22"/><path d="M182.87 144.78c1.67-.14 3.4-1.98 3.21-4.24-.19-2.26-2.19-3.79-3.85-3.66-1.67.15-3.4 1.99-3.21 4.25.18 2.26 2.19 3.79 3.85 3.65z" fill="#211a10"/><path d="M184.22 139.21c.07.81.9 1.41 1.86 1.33.96-.08 1.68-.81 1.62-1.62-.07-.82-.9-1.42-1.86-1.34-.96.08-1.69.8-1.62 1.63zm-5.38 4.72c.04.41.45.71.93.67.48-.04.84-.41.81-.82-.03-.4-.45-.7-.93-.66-.48.04-.84.4-.81.81z" fill="#fff"/><path d="M143.43 130.7c-.06-.1-1.59-2.43-4.72-4.84-1.96-1.51-3.88-2.65-5.87-3.51a30.429 30.429 0 0 0-7.55-2.09c-2.28-.25-4.81-.18-7.77.22-2.25.43-4.45 1.1-6.32 1.93-1.33.45-2.38 1.1-3.22 1.62-.33.2-.62.38-.92.54l-4.02 2.54 4.64-1.09c.21-.06.45-.12.7-.19.96-.25 2.15-.57 3.55-.78.33-.05.66-.11 1-.18.59-.12 1.19-.24 1.82-.27.71-.04 1.44-.1 2.18-.15l.98-.07c2.57-.03 4.74.16 6.66.61 2.11.36 4.28 1.04 6.26 1.97 1.88.9 3.68 1.79 5.08 2.82 2.83 1.9 4.41 3.48 4.42 3.5.39.39.91.59 1.44.59.38 0 .76-.1 1.09-.32.94-.62 1.2-1.88.61-2.79l-.04-.06zm57.7-6.15c-.27-.14-.56-.32-.89-.52-.84-.52-1.89-1.17-3.18-1.61-1.91-.84-4.11-1.51-6.39-1.95-2.93-.39-5.46-.46-7.75-.2-2.51.34-5.12 1.06-7.54 2.08-1.97.85-3.94 2.03-5.87 3.51-3.07 2.36-4.6 4.65-4.71 4.83l-.03.04c-.52.8-.41 1.87.26 2.55a2.03 2.03 0 0 0 2.86 0l.01-.02c.15-.15 1.68-1.65 4.43-3.49 1.38-1.02 3.18-1.91 5.05-2.81 2-.93 4.16-1.61 6.3-1.98 1.9-.44 4.07-.63 6.61-.6l1.02.07c.74.05 1.46.11 2.17.15.62.03 1.23.15 1.81.27.34.07.67.13 1 .18 1.4.21 2.59.53 3.55.78.26.07.49.13.71.19l4.64 1.09-4.06-2.56z" fill="#030405"/><path d="M149.12 195.57c-.11-.02-.22-.05-.33-.07.11.02.2.04.33.07zm-.84-.19c-.1-.03-.2-.05-.29-.08h-.01l.3.08z" fill="#be927b"/><path d="M141.75 199.74c-.24-3.25 9.02.68 12.06.77 2.43.08 9.71-.48 10.39-.74 5.09-1.91-.28 5.43-10.54 5.82-4.7.18-11.77-3.88-11.91-5.85z" fill="#f0d2ad"/><path d="M171.9 193.48c-2.51-.13-5.09 1.97-8.12 1.65-.12-.06-.18-.06-.31-.06-.7-.12-1.39 0-2.14.18-.94.2-1.89.59-2.77.89-1.51.5-3.22.89-4.97.76v.01l-.1-.01-.09.01v-.01c-1.76.13-3.46-.26-4.97-.76-.89-.3-1.83-.69-2.77-.89-.76-.18-1.45-.3-2.14-.18-.13 0-.19 0-.31.06-3.03.32-5.61-1.78-8.12-1.65-.7.06-1.71-.13-2.27-.13.12.06.25.13.38.19 7.17 3.5 13.35 10.06 20.2 9.85h.19c6.85.21 13.03-6.35 20.2-9.85.13-.06.25-.13.38-.19-.57 0-1.57.19-2.27.13z" fill="#dcbf9e"/><path d="M174.01 193.28s-7.29-2.82-12.47-1.17c0 0-1.93.76-3.93 1.22-1.22.47-2.69.61-4.12.55-1.09-.04-2.12-.18-2.97-.33-.29-.04-.57-.1-.86-.16-.12-.03-.22-.05-.32-.07-.18-.04-.35-.08-.52-.12l-.3-.08h.01c-1.66-.45-3.08-1.01-3.08-1.01-5.18-1.65-12.47 1.17-12.47 1.17-.1.04-.16.07-.16.07.56 0 1.57.19 2.27.13 2.51-.13 5.09 1.97 8.12 1.65.12-.06.18-.06.31-.06.69-.12 1.38 0 2.14.18.94.2 1.88.59 2.77.89 1.51.5 3.21.89 4.97.76v.01l.09-.01.1.01v-.01c1.75.13 3.46-.26 4.97-.76.88-.3 1.83-.69 2.77-.89.75-.18 1.44-.3 2.14-.18.13 0 .19 0 .31.06 3.03.32 5.61-1.78 8.12-1.65.7.06 1.7-.13 2.27-.13 0 0-.06-.03-.16-.07z" fill="#c69f83"/><path d="M141.26 194.99c.13.03 13.65 4.16 24.22.09l-1.21-.82h-14.3l-8.71.73z" fill="#c69f83"/><path d="M91.97 272.61h11.64c.15 12.84-.19 22.35-.52 27.54h35.82l-37.99-49.84c-1.01 1.87-6.61 12.51-8.95 22.3z" fill="#326869"/><path d="M127.66 231.23c-1.28.25-4.01.9-7.46 2.45-5.52 2.48-12.88 7.25-19.12 16.34 0 0-.06.1-.16.29l37.99 49.84h68.74l-45.5-51.46c-17.49 5.88-30.23-10.81-34.49-17.46z" fill="#f9ad3a"/><path d="M207.33 290.68c-.13-4.9-.19-10.97-.1-18.07h9.84c-.6-6.57-7.34-22.59-7.34-22.59-.69-1-1.38-1.94-2.09-2.83-9.64-12.22-21.04-15.28-24.32-15.93-7.58 10-14.7 15.25-21.17 17.43l45.5 51.46h.08c-.15-2.32-.29-5.51-.4-9.47z" fill="#173e3d"/><path d="M247.62 67.05c-.23.575-.68 1.129-1.29 1.664.85-.999 1.29-1.664 1.29-1.664a58.184 58.184 0 0 1-3.99 2.333c-24.12 12.84-30.85-9.717-30.85-9.717 2.52-21.259 28.42-20.958 28.42-20.958s-22.02-10.631-30.5 10.211c-1.14-11.218 4.96-22.114 4.96-22.114-9.82 2.09-13.95 10.034-15.68 16.817-6.07-11.651.21-20.305.21-20.305l-33.69 13.39c4.37-3.476 11.21-9.902 11.21-9.902s-10.46 1.073-26.61 5.646c-11.35 3.219-18.14 8.933-21.96 11.557l-.1-9.495s-16.5 11.344-32.13 26.244C81.29 75.641 75.29 89.645 75.29 105.39c0 15.74 7.01 31.52 11.6 36.21 4.59 4.68 3.12 11.47 4.5 11.47 0 0 3.31.13 2.81-15.39 1.82-17.63 9.94-24.67 14.48-27.25 7.99-4.21 20.03-4.97 38.03 4.16l-.01-.03c11.12 6.47 15.6-2.11 31.3-6.45 26.78-7.378 37.89 12 35.64 21.99-3.45 15.4 1.36 24.26 3.19 23.84 0 0 .08-3.91 1.74-7.39 4.95-10.38 9.09-3.16 9.86-17.23.89-16.48 3.78-22.5 2.85-31.308-.52-4.971-2.31-10.898-3.72-15.041 17.98-.293 20.06-15.921 20.06-15.921z" fill="#8868ad"/></g></svg>