<svg viewBox="0 0 298 300" xmlns="http://www.w3.org/2000/svg" fill-rule="evenodd" clip-rule="evenodd" stroke-linejoin="round" stroke-miterlimit="1.414"><g fill-rule="nonzero"><path fill="#617498" d="M.31.07h296.86v299.705H.31z"/><path d="M121.74 201.487c-.8-.641-15.4-10.31-15.4-10.31 1 6.017 1.74 8.483.28 12.567-1.32 3.675-3.84 5.098-5.25 6.385-1.4 1.292-4.24 2.259-5.23 2.259-1.01 0-2.14-.194-2.14-.194s2.32 1.375 8.13 1.102c2.45-.114 4-.77 5.01-1.528-1.15 1.994-2.23 4.851-1.02 7.501 4.39 9.629-1.47 12.772-1.47 12.772s5.19-.556 8.17-3.374l.03.231c1.32 4.817 4.8 5.353 4.8 5.353s-2.19-.395-1.78-4.868c.12-1.192 1.27-1.662 2.7-2.468.56 4.323 2.38 8.73-1.38 10.531 0 0 6.35-1.354 7.51-5.405.21-.741.32-1.428.43-2.117.1.381.23.733.31 1.135.9 5.16-2.75 10.166-2.75 10.166s13.17-1.504 13.27-7.119c.01-.841.18-4.28.58-5.565.4-1.292 1.2-7.732 1.2-7.732s-15.2-18.677-16-19.322zm51.53 0c.8-.641 15.4-10.31 15.4-10.31-1 6.017-1.75 8.483-.28 12.567 1.32 3.675 3.84 5.098 5.24 6.385 1.4 1.292 4.25 2.259 5.25 2.259s2.13-.194 2.13-.194-2.32 1.375-8.14 1.102c-2.44-.114-3.99-.77-5-1.528 1.15 1.994 2.23 4.851 1.02 7.501-4.39 9.629 1.47 12.772 1.47 12.772s-5.2-.556-8.18-3.374l-.02.231c-1.32 4.817-4.8 5.353-4.8 5.353s2.2-.395 1.77-4.868c-.11-1.192-1.26-1.662-2.7-2.468-.56 4.323-2.37 8.73 1.38 10.531 0 0-6.34-1.354-7.5-5.405a15.97 15.97 0 0 1-.43-2.117c-.11.381-.24.733-.31 1.135-.9 5.16 2.75 10.166 2.75 10.166s-13.17-1.504-13.28-7.119c0-.841-.17-4.28-.57-5.565-.4-1.292-1.2-7.732-1.2-7.732s15.2-18.677 16-19.322z" fill="#3e2a12"/><path d="M149.05 187.154v112.621H88.32c-.99-.396-1.48-.596-1.48-.596 0-14.376 2.1-25.585 5.3-34.326 7.73-21.095 21.89-27.795 28.4-29.815 2.14-.664 3.45-.823 3.45-.823.24 0 .45-.021.67-.057 1.91-.308 3.47-1.974 4.71-4.633.93-1.974 1.7-4.493 2.33-7.409.26-1.136.45-2.282.65-3.521.3-2.083.59-4.263.84-6.546.1-1.388.25-2.725.39-4.165.54-6.889.7-14.432.7-21.574 0 0 8.15.844 14.77.844z" fill="#e0bd9a"/><path d="M211.51 299.179s-.54.2-1.44.596h-61.02V187.154h.15c6.57 0 14.83-.844 14.83-.844 0 7.091.14 14.531.68 21.425.15 1.342.3 2.725.4 4.067.25 2.381.55 4.613.89 6.695v.046c.1.946.29 1.789.44 2.679.6 2.931 1.33 5.507 2.21 7.573 1.09 2.571 2.42 4.366 4.03 5.075.51.232 1.05.345 1.62.345 0 0 2.34.283 5.84 1.661 7.15 2.807 19.16 10.175 26.06 28.977 3.2 8.741 5.31 19.95 5.31 34.326z" fill="#efd0ad"/><path d="M166 218.287v.049c-1.53 2.365-6.67 9.163-16.85 9.163h-.1c-9.64-.049-15.27-7.045-16.7-9.114.3-2.069.59-4.237.84-6.503.1-1.33.25-2.71.39-4.139a67.68 67.68 0 0 0 15.27 2.02h.2a65.264 65.264 0 0 0 15.66-2.167c.15 1.33.3 2.709.4 4.04.25 2.364.54 4.581.89 6.651z" fill="#be987f"/><path d="M148.36 58.81c-64.34 0-64.68 53.947-61.82 89.272-4.4-8.376-17.49-5.814-16.4 7.39 1.03 12.71 19.74 19.188 19.22 17.785 9.74 26.124 35.53 45.818 59 45.818h.49V58.81h-.49z" fill="#d2a686"/><path d="M74.24 149.904c3.16-5.123 8.1-2.906 9.29-1.773 1.28 1.231 2.32 2.808 1.53 5.813-.44 1.725-2.22 1.872-1.83 4.434.5 2.907 1.83 3.055 2.62 3.744.74.641 1.68 1.134 2.13 2.365a6.24 6.24 0 0 1 .29 3.646c-.49 2.069-3.51.394-5.53-.493-1.34-.64-5.59-4.237-6.67-5.419-2.67-3.054-3.96-8.966-1.83-12.317z" fill="#ac8774"/><path d="M148.7 58.81c64.34 0 64.69 53.947 61.87 89.272 4.4-8.376 17.44-5.814 16.36 7.39-.99 12.71-19.74 19.193-19.23 17.785-9.49 26.124-35.52 45.818-59 45.818h-.34l-.15-160.265h.49z" fill="#ddb598"/><path d="M222.82 149.904c-3.16-5.123-8.05-2.906-9.29-1.773-1.28 1.231-2.27 2.808-1.53 5.813.45 1.725 2.23 1.872 1.83 4.434-.49 2.907-1.83 3.055-2.57 3.744-.74.641-1.73 1.134-2.17 2.365-.45 1.232-.55 2.513-.3 3.646.49 2.069 3.51.394 5.54-.493 1.38-.64 5.58-4.237 6.67-5.419 2.71-3.054 3.95-8.966 1.82-12.317z" fill="#ac8774"/><path d="M147.85 74.034c-21.15 0-36.66 6.158-46 18.278-13.1 16.997-12.6 42.911-7.81 61.534 1.48 5.715 2.27 21.036 3.26 26.653 4.6 25.175 32.32 38.576 50.55 38.576h.5V74.034h-.3" fill="#e0bd9a"/><path d="M193.81 92.361c-9.29-12.07-24.61-18.229-45.46-18.327v145.041c20.85-.246 45.8-14.928 50.05-38.576 1.04-5.617 1.78-20.938 3.26-26.653 4.85-18.574 5.34-44.439-7.85-61.485z" fill="#efd0ad"/><path d="M144.97 193.363c-.1-.021-.2-.041-.3-.064.1.022.18.04.3.064zm-.78-.175c-.1-.024-.18-.051-.27-.076l-.01.004s.1.029.28.072z" fill="#bc917b"/><path d="M136.34 174.548c-.24-5.012 9.18-1.832 12.29-1.675 2.45.126 9.92-1.579 10.56-1.14 4.4 2.971-4.65 8.956-10.72 8.956-1.61 0-11.98-3.118-12.13-6.141z" fill="#ddb598"/><path d="M130.38 74.396l-.26.268.04.089c.09-.134.14-.268.22-.357z" fill="#432e1b"/><path d="M145.15 190.421zm-.81-.18c-.09-.025-.18-.052-.28-.078l-.01.004.29.074z" fill="#ba907b"/><path d="M102.19 130.644s4.91 20.198 13.34 21.847c8.42 1.647 17.54-1.629 17.54-1.629s.88-23.738-3.44-26.839c-4.31-3.115-14.25-7.617-27.44 6.621z" fill="#fff"/><path d="M133.09 150.8s-.2.056-.63.237c-.11-7.281-.78-17.281-3.47-19.197-4.01-2.942-13.06-7.084-25.14 4.243-1.1-3.13-1.65-5.502-1.65-5.502 13.21-14.265 23.16-9.771 27.44-6.653 4.32 3.114 3.45 26.872 3.45 26.872z" fill="#d6b496"/><path d="M128.1 140.514c0 4.595-3.72 8.32-8.3 8.32s-8.29-3.725-8.29-8.32c0-4.594 3.71-8.319 8.29-8.319 4.58 0 8.3 3.725 8.3 8.319z" fill="#482315"/><path d="M119.42 146.055c-2.4-.199-4.24-2.623-4.02-5.289.22-2.665 2.42-4.75 4.82-4.549 2.4.198 4.23 2.62 4.02 5.285-.22 2.665-2.43 4.754-4.82 4.553z" fill="#7e3a22"/><path d="M119.62 145.094c-1.66-.143-3.39-1.978-3.21-4.237.19-2.267 2.19-3.797 3.86-3.66 1.67.142 3.39 1.985 3.21 4.245-.19 2.263-2.19 3.789-3.86 3.652z" fill="#211a10"/><path d="M118.27 139.518c-.06.817-.9 1.414-1.86 1.335-.96-.082-1.68-.812-1.62-1.624.07-.82.9-1.418 1.86-1.339.97.078 1.69.808 1.62 1.628zm5.38 4.725c-.03.407-.45.707-.93.666-.48-.038-.84-.406-.81-.812.04-.406.45-.707.93-.666.48.038.85.402.81.812z" fill="#fff"/><path d="M145.28 192.803zm-.81-.18l-.27-.078-.01.004s.1.03.28.074z" fill="#ba907b"/><path d="M144.9 192.233c-.11-.024-.22-.046-.33-.071.11.024.2.045.33.071zm-.86-.194c-.1-.026-.2-.055-.3-.083l-.01.005s.11.031.31.078zm.61-.651c-.11-.023-.22-.045-.33-.071l.33.071zm-.86-.193l-.3-.084-.01.005.31.079zm1.63.078c-.1-.023-.21-.044-.32-.069l.32.069zm-.83-.187c-.1-.026-.19-.054-.29-.081l-.01.005s.11.03.3.076z" fill="#bc917b"/><path d="M195 129.957s-4.9 20.198-13.33 21.847c-8.43 1.647-17.55-1.629-17.55-1.629s-.87-23.738 3.45-26.839c4.31-3.115 14.25-7.617 27.43 6.621z" fill="#fff"/><path d="M164.11 150.112s.19.056.63.238c.11-7.281.78-17.281 3.47-19.197 4.01-2.943 13.05-7.084 25.14 4.242 1.1-3.129 1.65-5.501 1.65-5.501-13.21-14.265-23.16-9.771-27.44-6.653-4.32 3.114-3.45 26.871-3.45 26.871z" fill="#d6b496"/><path d="M169.1 139.827c0 4.595 3.71 8.32 8.29 8.32 4.58 0 8.3-3.725 8.3-8.32 0-4.595-3.72-8.319-8.3-8.319s-8.29 3.724-8.29 8.319z" fill="#482315"/><path d="M177.78 145.367c2.39-.198 4.23-2.622 4.01-5.288-.21-2.665-2.42-4.751-4.81-4.549-2.4.198-4.23 2.619-4.02 5.284.21 2.666 2.43 4.755 4.82 4.553z" fill="#7e3a22"/><path d="M177.57 144.406c1.67-.142 3.4-1.977 3.22-4.236-.19-2.267-2.19-3.797-3.86-3.66-1.67.142-3.39 1.985-3.21 4.245.18 2.262 2.19 3.789 3.85 3.651z" fill="#211a10"/><path d="M178.92 138.831c.07.817.91 1.414 1.87 1.335.96-.082 1.68-.812 1.61-1.624-.07-.821-.9-1.418-1.86-1.339-.96.078-1.68.808-1.62 1.628zm-5.37 4.725c.03.406.45.707.93.666.48-.038.84-.406.81-.812-.04-.406-.46-.707-.93-.666-.48.037-.85.402-.81.812z" fill="#fff"/><path d="M138.14 130.322c-.07-.099-1.6-2.431-4.72-4.835-1.96-1.507-3.88-2.654-5.87-3.509a30.368 30.368 0 0 0-7.55-2.087c-2.29-.255-4.82-.187-7.77.211-2.26.431-4.46 1.103-6.32 1.929-1.33.459-2.38 1.105-3.23 1.625-.32.199-.61.379-.91.539l-4.03 2.539 4.64-1.093c.22-.055.45-.117.7-.184.96-.255 2.16-.573 3.56-.779.33-.048.66-.114 1-.182.58-.117 1.19-.237 1.82-.268.7-.047 1.43-.099 2.18-.153l.97-.07c2.57-.033 4.74.163 6.67.608 2.11.365 4.27 1.047 6.26 1.969 1.87.901 3.67 1.793 5.07 2.826 2.84 1.897 4.41 3.479 4.43 3.495a2.015 2.015 0 0 0 2.53.268c.93-.613 1.19-1.877.6-2.788l-.03-.061zm57.69-6.146c-.26-.141-.56-.322-.88-.521-.85-.519-1.9-1.165-3.19-1.609-1.9-.841-4.1-1.513-6.38-1.948-2.93-.395-5.46-.463-7.76-.206a30.327 30.327 0 0 0-7.54 2.087c-1.96.843-3.94 2.023-5.87 3.508-3.06 2.36-4.59 4.652-4.71 4.828l-.03.042c-.51.8-.4 1.871.27 2.546.38.386.89.597 1.43.597.54 0 1.04-.212 1.42-.598l.02-.017c.15-.148 1.68-1.649 4.43-3.49 1.38-1.018 3.18-1.912 5.05-2.81a25.51 25.51 0 0 1 6.29-1.978c1.9-.439 4.07-.631 6.61-.604l1.02.074c.74.053 1.47.104 2.17.152.63.03 1.23.15 1.81.267.34.068.68.134 1 .182 1.4.206 2.6.524 3.56.779.25.067.48.129.71.185l4.63 1.093-4.06-2.559z" fill="#030405"/><path d="M143.82 195.195l-.32-.07c.1.024.2.044.32.07zm-.84-.189c-.1-.026-.19-.054-.29-.081l-.01.004s.11.031.3.077z" fill="#be927b"/><path d="M136.46 199.362c-.24-3.247 9.02.68 12.06.774 2.42.082 9.71-.481 10.38-.739 5.1-1.911-.28 5.429-10.54 5.815-4.69.188-11.76-3.881-11.9-5.85z" fill="#f0d2ad"/><path d="M166.6 193.101c-2.51-.124-5.09 1.977-8.11 1.656-.13-.061-.19-.061-.32-.061-.69-.123-1.38 0-2.14.185-.94.197-1.88.58-2.77.889-1.51.493-3.21.888-4.96.752v.012l-.1-.012-.1.012v-.012c-1.75.136-3.45-.259-4.97-.752-.88-.309-1.83-.692-2.77-.889-.75-.185-1.44-.308-2.14-.185-.13 0-.19 0-.31.061-3.02.321-5.6-1.78-8.12-1.656-.69.061-1.7-.124-2.27-.124.13.062.26.124.38.185 7.17 3.504 13.35 10.068 20.2 9.858h.2c6.84.21 13.03-6.354 20.19-9.858.13-.061.26-.123.38-.185-.56 0-1.57.185-2.27.124z" fill="#dcbf9e"/><path d="M168.71 192.901s-7.29-2.815-12.47-1.164c0 0-1.93.755-3.93 1.215-1.21.475-2.69.613-4.11.555a22.68 22.68 0 0 1-2.98-.331 15.81 15.81 0 0 1-.85-.163c-.13-.026-.22-.046-.33-.07-.17-.041-.34-.074-.52-.119-.19-.046-.3-.077-.3-.077l.01-.004a34.947 34.947 0 0 1-3.08-1.006c-5.18-1.651-12.46 1.164-12.46 1.164l-.17.076c.57 0 1.58.185 2.27.124 2.51-.124 5.1 1.977 8.12 1.656.12-.061.18-.061.31-.061.7-.124 1.39 0 2.14.185.94.197 1.89.58 2.77.889 1.52.493 3.22.888 4.97.752v.012l.1-.012.1.012v-.012c1.75.136 3.45-.259 4.96-.752.89-.309 1.83-.692 2.77-.889.76-.185 1.45-.309 2.14-.185.13 0 .19 0 .32.061 3.02.321 5.6-1.78 8.11-1.656.7.061 1.71-.124 2.27-.124 0 0-.06-.031-.16-.076z" fill="#c69f83"/><path d="M135.96 194.615c.13.034 13.65 4.164 24.23.09l-1.22-.822h-14.29l-8.72.732z" fill="#c69f83"/><path d="M140.75 252.364v47.403h-44.6c.25-3.621.47-9.485.51-17.22H85.25c-.13-11.255 8.84-30.471 8.84-30.471a55.236 55.236 0 0 1 2.64-3.271 44.778 44.778 0 0 1 7.11-6.625c.27-.288.6-.494.89-.679.76-.556 1.54-1.07 2.3-1.564 3.46-2.201 6.73-3.6 9.28-4.464.6-.227 1.15-.391 1.69-.535 2.39-.659 3.87-.844 3.87-.844 1.27 0 2.36-.473 3.35-1.275l.04-.042c.33-.308.66-.679.99-1.07.12.103.37.432.58 1.112.92 2.263 6.35 13.805 13.92 19.545zm61.03 30.183c.04 7.715.33 13.62.57 17.22h-44.79v-47.3c2.43-1.79 4.63-4.218 6.53-6.728 4.13-5.432 6.91-11.357 7.55-12.92.22-.68.47-1.009.61-1.112.31.391.64.762.97 1.07l.04.042c.97.802 2.1 1.275 3.34 1.275 0 0 1.41.144 3.68.761.49.185 1.05.35 1.66.556a43.005 43.005 0 0 1 11.73 6.008c.29.226.62.431.87.699 3.35 2.469 6.74 5.699 9.83 9.958 0 0 9.14 13.25 8.72 30.471h-11.31z" fill="#3a2f34"/><path d="M140.75 270.518s7.04 8.744 16.81 0v29.249h-16.81v-29.249z" fill="#827177"/><path d="M125.77 49.658c-3.98-2.222-20.98-9.014-20.98-9.014s5.78 3.596 6.5 6.792c.74 3.198-38.38 18.106-43.81 58.836-5.43 40.728 8.4 56.971 8.4 56.971l-2.56-28.441c0 .076-1.09 12.763 0 22.752 1.08 9.965 4.33 21.546 0 33.129-4.34 11.581-6.14 12.454-6.14 12.454s12.92-12.327 15.44-20.184c4.34-13.585 2.6-19.235 4.05-26.836 1.44-7.576 2.57-28.018 2.57-28.018s-6.48 16.513 1.08 32.73c2.29 4.931 5.25 8.385 5.25 8.385s-4.56-10.273-3.67-21.136c.57-6.804 4.65-7.857 13.7-32.82 4.29-11.837.64-34.577-.09-29.043-.72 5.534-1.25 19.375 3.26 26.308 6.82 10.465 16.7 13.933 16.7 13.933s-10.78-8.347-10.91-23.126c-.08-7.999 2.89-14.368 2.89-14.368s-2.78 16.641 22.26 26.619c7.21 2.862 12.82.936 12.82.936s-10.41-6.137-10.49-16.769c0 0 15.77 20.403 44.48 27.144 11.09 2.607 18.65 1.888 18.65 1.888s1.15-2.427.79 8.833c-.36 11.262-2.3 16.064-4.95 19.941-1.07 1.567-4.36 4.482-4.36 4.482s8.31-3.095 13.51-13.7c3.56-7.269 2.41-17.052 2.41-17.052s1.07 11.941 0 28.35c-1.56 23.704-9.76 34.04-9.76 34.04s8.09-6.946 13.25-20.814c3.96-10.605 3.01-17.219 3.01-17.219s-.68 16.578 18.44 27.773c0 0-5.39-3.697-7.95-22.188-3.26-23.497 2.32-41.806-2.01-60.168-4.35-18.362-5.52-20.159-12.75-30.123-7.23-9.99-14.18-18.016-33.71-24.615-19.53-6.612-23.66-4.367-31.13-4.263-11.9.154-19.49 5.778-19.49 5.778s-1.1-4.134.71-9.733c1.8-5.585 3.26-8.231 3.26-8.231s-4.75 7.332-5.78 9.181c-4.22 7.576-2.89 10.606-2.89 10.606z" fill="#3e2a12"/></g></svg>