<svg viewBox="0 0 297 300" xmlns="http://www.w3.org/2000/svg" fill-rule="evenodd" clip-rule="evenodd" stroke-linejoin="round" stroke-miterlimit="1.414"><path fill="#997a57" fill-rule="nonzero" d="M0 .07h296.866v299.705H0z"/><path d="M141.312 187.505v112.27H80.584c-.989-.394-1.482-.594-1.482-.594 0-14.331 2.102-25.505 5.305-34.219 7.73-21.03 21.882-27.709 28.396-29.723 2.138-.661 3.455-.82 3.455-.82.231 0 .446-.021.667-.056 1.911-.308 3.464-1.969 4.71-4.619.928-1.968 1.701-4.479 2.332-7.386.251-1.132.446-2.275.646-3.51.297-2.077.589-4.25.841-6.525.097-1.384.245-2.717.394-4.152.538-6.868.692-14.388.692-21.507 0 0 8.155.841 14.772.841z" fill="#e0bd9a" fill-rule="nonzero"/><path d="M203.772 299.181s-.543.2-1.435.594h-61.025v-112.27h.149c6.571 0 14.828-.841 14.828-.841 0 7.068.143 14.485.687 21.358.149 1.338.297 2.717.395 4.055.251 2.373.548 4.597.891 6.673v.046c.098.943.292 1.784.446 2.671.6 2.921 1.328 5.489 2.204 7.549 1.092 2.563 2.419 4.352 4.029 5.06.512.23 1.056.343 1.625.343 0 0 2.337.282 5.838 1.656 7.15 2.798 19.159 10.143 26.058 28.887 3.204 8.714 5.31 19.888 5.31 34.219z" fill="#efd0ad" fill-rule="nonzero"/><path d="M158.262 218.54v.05c-1.532 2.357-6.671 9.134-16.85 9.134h-.099c-9.635-.049-15.268-7.023-16.701-9.086.296-2.062.593-4.223.84-6.482.099-1.327.247-2.702.395-4.126a67.82 67.82 0 0 0 15.269 2.014h.197a65.505 65.505 0 0 0 15.665-2.161c.148 1.326.296 2.701.395 4.027.247 2.357.544 4.568.889 6.63z" fill="#be987f" fill-rule="nonzero"/><path d="M186.612 264.962c2.004 9.042 3.239 20.241 3.239 34.111 0 0-.379.184-1.143.702H94.289c-.758-.518-1.142-.702-1.142-.702 0-13.844 1.235-25.033 3.234-34.111H84.407c7.73-21.03 21.882-27.709 28.396-29.723-.015.205-.02.415-.02.625 0 9.626 12.645 17.473 28.529 17.878.436.016.871.021 1.307.021 16.325 0 29.6-7.899 29.785-17.688 7.15 2.798 19.159 10.143 26.058 28.887h-11.85z" fill="#79b6e3" fill-rule="nonzero"/><path d="M140.622 59.561c-64.337 0-64.683 53.779-61.817 88.993-4.398-8.349-17.492-5.796-16.405 7.367 1.038 12.671 19.745 19.129 19.222 17.73 9.743 26.043 35.528 45.675 59 45.675h.494V59.561h-.494z" fill="#d2a686" fill-rule="nonzero"/><path d="M140.967 59.561c64.337 0 64.682 53.779 61.866 88.993 4.398-8.349 17.443-5.796 16.356 7.367-.988 12.671-19.733 19.134-19.222 17.73-9.49 26.043-35.528 45.675-59 45.675h-.345l-.149-159.765h.494z" fill="#ddb598" fill-rule="nonzero"/><path d="M140.116 74.737c-21.149 0-36.665 6.139-46.005 18.221-13.094 16.944-12.6 42.777-7.807 61.342 1.483 5.698 2.273 20.971 3.261 26.571 4.596 25.096 32.317 38.455 50.551 38.455h.494V74.737h-.494z" fill="#e0bd9a" fill-rule="nonzero"/><path d="M186.07 93.007c-9.29-12.033-24.608-18.172-45.46-18.27v144.589c20.852-.245 45.806-14.881 50.056-38.455 1.037-5.6 1.778-20.873 3.261-26.571 4.842-18.515 5.336-44.3-7.857-61.293z" fill="#efd0ad" fill-rule="nonzero"/><path d="M126.123 71.431l-.267.267.044.089c.089-.133.134-.267.223-.356z" fill="#432e1b" fill-rule="nonzero"/><path d="M94.456 131.17s4.908 20.136 13.335 21.78c8.427 1.642 17.547-1.624 17.547-1.624s.872-23.663-3.443-26.755c-4.311-3.106-14.25-7.593-27.439 6.599zm92.811-.685s-4.908 20.136-13.335 21.78c-8.426 1.642-17.546-1.624-17.546-1.624s-.872-23.663 3.443-26.756c4.311-3.105 14.25-7.592 27.438 6.6z" fill="#fff" fill-rule="nonzero"/><path d="M66.502 150.371c3.162-5.108 8.103-2.897 9.289-1.768 1.285 1.228 2.322 2.8 1.532 5.796-.445 1.719-2.224 1.866-1.828 4.42.494 2.897 1.828 3.045 2.618 3.732.742.639 1.68 1.13 2.125 2.358a6.197 6.197 0 0 1 .297 3.634c-.495 2.063-3.509.393-5.534-.491-1.335-.638-5.584-4.224-6.671-5.402-2.669-3.045-3.953-8.939-1.828-12.279zm148.585 0c-3.162-5.108-8.054-2.897-9.289-1.768-1.285 1.228-2.273 2.8-1.532 5.796.445 1.719 2.224 1.866 1.828 4.42-.494 2.897-1.828 3.045-2.569 3.732-.742.639-1.73 1.13-2.174 2.358-.445 1.228-.544 2.505-.297 3.634.494 2.063 3.509.393 5.534-.491 1.384-.638 5.584-4.224 6.671-5.402 2.718-3.045 3.953-8.939 1.828-12.279z" fill="#ac8774" fill-rule="nonzero"/><path d="M137.235 193.695c-.101-.022-.202-.041-.303-.065.099.023.186.041.303.065zm-.785-.175c-.093-.024-.178-.051-.27-.076l-.01.004s.105.029.28.072z" fill="#bc917b" fill-rule="nonzero"/><path d="M128.269 172.154c-.245-4.997 9.178-1.826 12.284-1.67 2.455.126 9.923-1.574 10.564-1.136 4.394 2.962-4.654 8.928-10.72 8.928-1.616 0-11.981-3.109-12.128-6.122z" fill="#ddb598" fill-rule="nonzero"/><path d="M137.41 190.762l-.311-.066.311.066zm-.806-.18c-.095-.025-.182-.052-.277-.078l-.01.005s.107.029.287.073z" fill="#ba907b" fill-rule="nonzero"/><path d="M125.349 151.264s-.193.056-.626.236c-.108-7.257-.779-17.227-3.473-19.137-4.007-2.933-13.052-7.061-25.138 4.23-1.099-3.12-1.65-5.485-1.65-5.485 13.213-14.22 23.161-9.74 27.44-6.632 4.319 3.104 3.447 26.788 3.447 26.788z" fill="#d6b496" fill-rule="nonzero"/><path d="M120.36 141.01a8.294 8.294 0 1 1-16.587 0 8.294 8.294 0 0 1 16.587 0z" fill="#482315" fill-rule="nonzero"/><path d="M111.681 146.534c-2.395-.198-4.234-2.615-4.015-5.272.213-2.657 2.422-4.736 4.819-4.536 2.395.198 4.23 2.612 4.019 5.268-.218 2.658-2.429 4.74-4.823 4.54z" fill="#7e3a22" fill-rule="nonzero"/><path d="M111.888 145.575c-1.668-.142-3.397-1.971-3.213-4.223.188-2.26 2.188-3.785 3.856-3.648 1.668.141 3.393 1.978 3.21 4.231-.184 2.256-2.19 3.777-3.853 3.64z" fill="#211a10" fill-rule="nonzero"/><path d="M137.542 193.137c-.104-.022-.207-.043-.311-.067.102.023.192.042.311.067zm-.805-.18c-.096-.025-.183-.052-.277-.078l-.011.004s.107.03.288.074z" fill="#ba907b" fill-rule="nonzero"/><path d="M141.093 195.526h.001-.001zm-3.927-2.958c-.112-.024-.223-.045-.334-.071.109.024.205.045.334.071zm-.864-.193c-.103-.026-.196-.056-.297-.083l-.011.005s.114.031.308.078zm4.791-.018h.001-.001zm-.248 2.327h.001-.001zm-3.928-2.958c-.111-.024-.222-.045-.333-.071l.333.071zm-.864-.193c-.102-.026-.195-.055-.296-.083l-.012.004s.115.032.308.079zm4.792-.018h.001-.001zm.639 2.955h.001-.001zm-3.796-2.859c-.108-.023-.215-.044-.323-.069.106.024.199.043.323.069zm-.835-.187c-.1-.025-.19-.053-.287-.08l-.011.005s.111.03.298.075zm4.631-.017h.001-.001z" fill="#bc917b" fill-rule="nonzero"/><path d="M156.374 150.579s.194.056.627.236c.107-7.258.778-17.227 3.473-19.137 4.006-2.933 13.052-7.062 25.138 4.229 1.098-3.119 1.649-5.484 1.649-5.484-13.213-14.22-23.16-9.74-27.439-6.632-4.319 3.103-3.448 26.788-3.448 26.788z" fill="#d6b496" fill-rule="nonzero"/><path d="M161.364 140.325a8.294 8.294 0 1 0 16.587 0 8.294 8.294 0 0 0-16.587 0z" fill="#482315" fill-rule="nonzero"/><path d="M170.043 145.848c2.395-.197 4.234-2.614 4.016-5.271-.215-2.657-2.423-4.736-4.82-4.536-2.395.198-4.231 2.612-4.019 5.269.218 2.656 2.428 4.739 4.823 4.538z" fill="#7e3a22" fill-rule="nonzero"/><path d="M169.836 144.89c1.667-.142 3.396-1.971 3.213-4.223-.187-2.26-2.189-3.785-3.856-3.648-1.668.141-3.394 1.978-3.21 4.231.184 2.256 2.19 3.777 3.853 3.64z" fill="#211a10" fill-rule="nonzero"/><path d="M130.399 130.85c-.064-.098-1.593-2.424-4.719-4.82-1.959-1.502-3.878-2.646-5.87-3.498a30.387 30.387 0 0 0-7.551-2.081c-2.284-.254-4.815-.187-7.767.211-2.255.429-4.454 1.099-6.321 1.923-1.331.458-2.382 1.102-3.227 1.62-.323.198-.616.377-.913.537l-4.025 2.531 4.638-1.09c.217-.054.45-.116.702-.183.959-.254 2.154-.571 3.554-.777.328-.047.661-.113 1.002-.181.583-.117 1.187-.237 1.819-.267.703-.047 1.432-.099 2.18-.153l.974-.07c2.57-.032 4.739.163 6.667.606a25.456 25.456 0 0 1 6.259 1.963c1.875.898 3.672 1.788 5.075 2.818 2.834 1.891 4.411 3.469 4.426 3.483v.001a2.016 2.016 0 0 0 2.53.266c.934-.61 1.196-1.87.602-2.778l-.035-.061zm57.696-6.127c-.266-.141-.559-.321-.883-.52-.845-.517-1.895-1.16-3.186-1.603-1.906-.839-4.105-1.509-6.387-1.942-2.927-.394-5.458-.462-7.752-.206a30.443 30.443 0 0 0-7.543 2.081c-1.963.84-3.937 2.016-5.866 3.497-3.07 2.353-4.597 4.637-4.711 4.813l-.029.042a2.04 2.04 0 0 0 .264 2.537 1.99 1.99 0 0 0 1.427.596h.001c.539 0 1.045-.212 1.426-.596l.017-.016c.148-.149 1.68-1.645 4.427-3.481 1.381-1.013 3.18-1.905 5.05-2.801a25.543 25.543 0 0 1 6.293-1.971c1.9-.438 4.074-.629 6.61-.602l1.022.073c.743.053 1.465.104 2.172.152.623.029 1.226.149 1.809.266.341.068.673.134 1.001.181 1.401.206 2.596.523 3.556.777.25.067.484.129.707.185l4.636 1.089-4.061-2.551z" fill="#030405" fill-rule="nonzero"/><path d="M161.396 191.858c-5.849-1.708-20.923-4.794-20.923-4.794-10.958 1.675-19.495 4.725-19.558 4.794-.261.023 9.826 10.531 20.523 10.023 10.697.508 20.219-9.989 19.958-10.023z" fill="#c2646e" fill-rule="nonzero"/><path d="M110.538 140.017c-.07.815-.905 1.41-1.863 1.331-.959-.082-1.683-.809-1.619-1.618.07-.818.901-1.414 1.859-1.335.964.077 1.688.805 1.623 1.622zm5.377 4.711c-.035.405-.452.704-.93.664-.481-.038-.841-.405-.811-.81.034-.405.453-.705.93-.664.481.037.845.402.811.81zm25.015 42.938v.013l-.109-.013-.109.013v-.013c-1.593.123-3.147-.149-4.58-.551l.004.003c-4.879-1.53-9.593 2.692-10.189 3.251-.363.357-.791.642-1.4.765l.239.489a4.378 4.378 0 0 0 4.985 2.329c2.672-.665 6.725-1.463 11.385-1.676v-4.601l-.226-.009zm.452 0v.013l.109-.013.109.013v-.013c1.593.123 3.147-.149 4.58-.551l-.004.003c4.88-1.53 9.593 2.692 10.189 3.251.363.357.791.642 1.401.765l-.24.489a4.378 4.378 0 0 1-4.985 2.329c-2.672-.665-6.725-1.463-11.385-1.676v-4.601l.226-.009z" fill="#fff" fill-rule="nonzero"/><path d="M150.436 182.362s-1.582.615-3.425 1.114l.012.005s-.124.034-.334.086c-.191.049-.38.086-.575.132l-.362.077c-.322.069-.635.132-.949.181a25.37 25.37 0 0 1-3.312.367c-.111.005-.223.005-.335.008-.112-.003-.223-.003-.334-.008h-.001a25.37 25.37 0 0 1-3.312-.367 17.146 17.146 0 0 1-.949-.181l-.362-.077c-.194-.046-.384-.083-.575-.132a17.617 17.617 0 0 1-.334-.086l.012-.005a38.064 38.064 0 0 1-3.424-1.114c-5.763-1.831-10.962 9.496-10.962 9.496h.002l.606.085c-.181.97.251-.342.251-.342.629 0 1.499-.338 2.272-.406.18-.009.346-.03.501-.061.576-.117.987-.38 1.337-.709l-.001.006.064-.062c.596-.559 5.31-4.781 10.189-3.251l-.004-.003c1.433.402 2.987.674 4.58.551v.013l.109-.013.109.013v-.013l.226.009.226-.009v.013l.109-.013.109.013v-.013c1.593.123 3.147-.149 4.58-.551l-.004.003c4.88-1.53 9.593 2.692 10.189 3.251l.064.062-.001-.006c.35.329.761.592 1.338.709.154.031.32.052.501.061.773.068 1.643.406 2.271.406 0 0 .432 1.312.251.342l.607-.085h.001s-5.199-11.327-10.961-9.496z" fill="#d67374" fill-rule="nonzero"/><path d="M171.186 139.332c.069.814.906 1.41 1.863 1.331.96-.082 1.683-.809 1.618-1.619-.069-.818-.9-1.413-1.859-1.335-.963.079-1.687.805-1.622 1.623zm-5.377 4.711c.035.405.452.704.929.664.482-.038.842-.405.812-.81-.035-.405-.453-.705-.93-.664-.482.037-.846.401-.811.81zm-24.236 55.255v-.008l.065.007.066-.007v.008c.957-.074 1.891.089 2.752.331l-.003-.002c2.932.919 5.764-1.618 6.122-1.954.218-.214.476-.385.842-.459l-.144-.294a2.632 2.632 0 0 0-2.995-1.4c-1.606.4-4.041.88-6.841 1.007v2.765l.136.006zm-.272 0v-.008l-.065.007-.066-.007v.008c-.957-.074-1.89.089-2.752.331l.003-.002c-2.932.919-5.764-1.618-6.122-1.954a1.612 1.612 0 0 0-.841-.459l.144-.294a2.63 2.63 0 0 1 2.995-1.4c1.605.4 4.04.88 6.84 1.007v2.765l-.136.006z" fill="#fff" fill-rule="nonzero"/><path d="M119.354 277.119l-3.567-3.563-4.033 4.029-4.033-4.029-3.566 3.563 4.033 4.034-4.033 4.031 3.566 3.569 4.033-4.033 4.033 4.033 3.567-3.569-4.033-4.031 4.033-4.034zm20.08 0l-3.567-3.563-4.032 4.029-4.033-4.029-3.567 3.563 4.033 4.034-4.033 4.031 3.567 3.569 4.033-4.033 4.032 4.033 3.567-3.569-4.033-4.031 4.033-4.034zm20.08 0l-3.566-3.563-4.033 4.029-4.032-4.029-3.567 3.563 4.032 4.034-4.032 4.031 3.567 3.569 4.032-4.033 4.033 4.033 3.566-3.569-4.032-4.031 4.032-4.034zm20.081 0l-3.57-3.563-4.033 4.029-4.033-4.029-3.566 3.563 4.032 4.034-4.032 4.031 3.566 3.569 4.033-4.033 4.033 4.033 3.57-3.569-4.033-4.031 4.033-4.034z" fill="#447a9a"/><path d="M199.889 157.076c1.32 0-.093-7.201 4.324-12.167 4.414-4.959 11.14-21.68 11.14-38.364 0-16.685-5.759-31.529-20.768-47.317-15.016-15.784-37.094-23.443-37.094-23.443l10.155 9.463s-5.471-7.687-25.134-13.835c-15.512-4.843-25.56.558-25.56.558s10.229-.362 13.335 4.183c.774 1.157 3.647 2.91 3.647 2.91s-4.753-10.898-26.843-1.865C85.022 46.22 85.418 62.386 70.058 67.345c-15.721 5.091-20.281-1.438-20.281-1.438s6.821 11.432 18.938 11.464c2.325 0 2.167-.056 2.167-.056s-4.54 12.256-5.409 21.406c-.89 9.331 1.885 15.712 2.737 33.172.738 14.92 4.724 7.273 9.473 18.272 1.606 3.685 1.672 7.836 1.672 7.836 1.761.434 6.379-8.953 3.059-25.272-2.158-10.593 8.516-50.737 34.259-42.913 15.743 4.79 19.714 14.543 31.489 5.879 10.153-7.462 24.344-11.754 34.938-5.855 10.605 5.915 16.579 19.192 14.723 40.381-2.355 27.052 2.066 26.855 2.066 26.855z" fill="#80132a" fill-rule="nonzero"/><path d="M153.55 148.368a44.165 44.165 0 0 1-1.737-5.066l-.062-.221a64.029 64.029 0 0 0-.742-2.508c-.408-1.253-1.005-3.558-.758-5.771.128-1.141.48-2.257 1.197-3.191a2.04 2.04 0 0 0 .554 1.811 1.99 1.99 0 0 0 1.427.596h.001c.539 0 1.045-.212 1.426-.596l.017-.016c.102-.103.859-.843 2.216-1.893-.736 5.244-.814 11.812-.781 15.71-.504.198-1.009.402-1.515.613l-.108.045-.107.045-.104.044-.09.038-.149.063-.087.037-.117.051a40.664 40.664 0 0 0-.481.209zm40.412-4.229l-.156-.034a65.418 65.418 0 0 0-10.933-1.417c2.847-5.857 4.394-12.203 4.394-12.203l-.017-.018.011-.044a52.053 52.053 0 0 0-1.084-1.133c2.463 1.291 5.901 3.857 7.255 8.508.457 1.574.676 3.388.537 5.472 0 0 .012.314-.007.869z" fill="url(#a)"/><path d="M157.113 146.914c.283-6.526 1.126-13.652 3.361-15.236 1.996-1.461 5.243-3.22 9.494-3.22 4.281 0 9.58 1.783 15.644 7.449a58.66 58.66 0 0 0 1.638-5.44.281.281 0 0 1 .017.018s-1.547 6.346-4.394 12.203a62.06 62.06 0 0 0-2.739-.06h-.065c-.814 0-1.631.017-2.456.049a8.293 8.293 0 0 0-7.955-10.645 8.293 8.293 0 0 0-6.829 13.002 69.508 69.508 0 0 0-5.716 1.88z" fill="url(#b)"/><path d="M156.308 147.223c-.033-3.898.045-10.466.781-15.71a39.785 39.785 0 0 1 2.211-1.588c1.381-1.013 3.18-1.905 5.05-2.801.472-.218.953-.422 1.441-.612a42.285 42.285 0 0 1 5.037-.302c3.823 0 8.096.522 12.621 1.957 0 0 1.169.306 2.728 1.123.359.364.72.741 1.084 1.133l-.011.044a58.66 58.66 0 0 1-1.638 5.44c-6.064-5.666-11.363-7.449-15.644-7.449-4.251 0-7.498 1.759-9.494 3.22-2.235 1.584-3.078 8.71-3.361 15.236-.267.101-.537.205-.805.309z" fill="url(#c)"/><path d="M162.829 145.034a8.293 8.293 0 0 1 6.829-13.002 8.293 8.293 0 0 1 7.955 10.645 63.478 63.478 0 0 0-3.914.279 5.239 5.239 0 0 0 .331-2.649c.422-.305.677-.769.637-1.263-.065-.769-.804-1.342-1.69-1.342l-.074.002c-.843-1.027-2.053-1.676-3.344-1.676a3.82 3.82 0 0 0-.32.013c-2.395.198-4.231 2.612-4.019 5.269.068.829.33 1.602.732 2.268a.666.666 0 0 0-.143.465.607.607 0 0 0 .058.215c-1.006.232-2.019.49-3.038.776z" fill="url(#d)"/><path d="M165.952 143.578a5.213 5.213 0 0 1-.732-2.268c-.212-2.657 1.624-5.071 4.019-5.269a3.82 3.82 0 0 1 .32-.013c1.291 0 2.501.649 3.344 1.676l-.095.005c-.38.031-.723.163-.995.362-.693-.671-1.581-1.061-2.41-1.061-.07 0-.14.003-.21.009-1.668.141-3.394 1.978-3.21 4.231.061.753.326 1.425.713 1.98a.93.93 0 0 0-.744.348zm6.52-.484a4.03 4.03 0 0 0 .577-2.427l-.001-.004h.001a1.97 1.97 0 0 0 .981-.356 5.239 5.239 0 0 1-.331 2.649 66.74 66.74 0 0 0-1.227.138z" fill="url(#e)"/><path d="M167.549 143.894c-.034-.378-.403-.664-.841-.664h-.012a4.017 4.017 0 0 1-.713-1.98c-.184-2.253 1.542-4.09 3.21-4.231.07-.006.14-.009.21-.009.829 0 1.717.39 2.41 1.061-.417.305-.666.766-.627 1.261.065.766.808 1.338 1.693 1.338.056 0 .112-.002.169-.007a4.03 4.03 0 0 1-.576 2.431 63.746 63.746 0 0 0-4.923.8z" fill="url(#f)"/><path d="M153.43 134.018h-.001a1.99 1.99 0 0 1-1.427-.596 2.04 2.04 0 0 1-.554-1.811c.522-.68 1.237-1.264 2.199-1.692 0 0 4.757-2.524 12.144-3.407-.488.19-.969.394-1.441.612-1.87.896-3.669 1.788-5.05 2.801a39.785 39.785 0 0 0-2.211 1.588c-1.357 1.05-2.114 1.79-2.216 1.893l-.017.016a1.995 1.995 0 0 1-1.426.596z" fill="url(#g)"/><path d="M172.879 140.67c-.885 0-1.628-.572-1.693-1.338-.039-.495.21-.956.627-1.261.272-.199.615-.331.995-.362l.095-.005.074-.002c.886 0 1.625.573 1.69 1.342.04.494-.215.958-.637 1.263a1.97 1.97 0 0 1-.981.356h-.001a1.926 1.926 0 0 1-.169.007z" fill="url(#h)"/><path d="M165.867 144.258a.607.607 0 0 1-.058-.215.666.666 0 0 1 .143-.465.93.93 0 0 1 .744-.348h.012c.438 0 .807.286.841.664-.559.113-1.119.234-1.682.364z" fill="url(#i)"/><path d="M129.265 149.19a67.737 67.737 0 0 0-3.851-1.179c.039-4.172-.048-11.515-.955-16.958 1.832 1.359 2.831 2.358 2.843 2.369v.001a2.016 2.016 0 0 0 2.53.266c.934-.61 1.196-1.87.602-2.778l-.035-.061a11.229 11.229 0 0 0-.577-.786c1.03.522 1.75 1.236 2.239 2.054 1.033 1.73 1.033 3.927.746 5.761a17.466 17.466 0 0 1-.655 2.695c-.287.899-.55 1.814-.801 2.728a44.69 44.69 0 0 1-2.087 5.888h.001zm-39.536-.694a28.077 28.077 0 0 1-.289-1.684c-.296-2.124-.247-3.541-.247-3.541v-.001l-.017-.292c-.335-6.574 2.92-10.406 5.898-12.518-.203.212-.407.428-.612.648l.011.045-.017.017s2.107 8.645 5.931 15.069a68.148 68.148 0 0 0-10.658 2.257z" fill="url(#j)"/><path d="M124.62 147.798a64.844 64.844 0 0 0-6.319-1.318 8.293 8.293 0 0 0-6.235-13.763 8.293 8.293 0 0 0-6.772 13.081 64.015 64.015 0 0 0-4.907.441c-3.824-6.424-5.931-15.069-5.931-15.069l.017-.017c.08.337.628 2.569 1.639 5.44 6.065-5.667 11.363-7.449 15.644-7.449 4.25 0 7.498 1.758 9.494 3.219 2.257 1.6 3.094 8.856 3.37 15.435z" fill="url(#k)"/><path d="M125.414 148.011a62.5 62.5 0 0 0-.794-.213c-.276-6.579-1.113-13.835-3.37-15.435-1.996-1.461-5.244-3.219-9.494-3.219-4.281 0-9.579 1.782-15.644 7.449-1.011-2.871-1.559-5.103-1.639-5.44l-.011-.045c.205-.22.409-.436.612-.648 2.411-1.709 4.641-2.293 4.641-2.293a41.628 41.628 0 0 1 12.619-1.957c1.273 0 2.495.058 3.661.159.614.229 1.218.48 1.806.752 1.875.898 3.672 1.788 5.075 2.818.582.388 1.11.763 1.583 1.114.907 5.443.994 12.786.955 16.958z" fill="url(#l)"/><path d="M118.301 146.48a62.374 62.374 0 0 0-4.222-.518c.279-.166.544-.363.787-.587a1.175 1.175 0 0 0 .206.02c.44 0 .81-.287.843-.667a.667.667 0 0 0-.143-.465 5.226 5.226 0 0 0 .732-2.269c.211-2.656-1.624-5.07-4.019-5.268a3.845 3.845 0 0 0-.321-.013c-1.29 0-2.501.649-3.343 1.676l-.076-.001c-.885 0-1.623.572-1.689 1.342-.039.494.216.957.638 1.262a5.87 5.87 0 0 0-.028.27c-.149 1.805.653 3.5 1.933 4.463-.35-.006-.701-.009-1.049-.009h-.045a63.09 63.09 0 0 0-3.211.082 8.293 8.293 0 0 1 6.772-13.081 8.293 8.293 0 0 1 6.235 13.763z" fill="url(#m)"/><path d="M114.079 145.962a62.748 62.748 0 0 0-4.48-.237c-1.28-.963-2.082-2.658-1.933-4.463a5.87 5.87 0 0 1 .028-.27c.27.194.607.324.981.356v.004c-.184 2.252 1.545 4.081 3.213 4.223.07.006.14.009.211.009.707 0 1.459-.285 2.096-.786.075.28.334.51.671.577a4.737 4.737 0 0 1-.787.587zm1.693-1.699a.93.93 0 0 0-.744-.348 4.026 4.026 0 0 0 .713-1.98c.183-2.253-1.542-4.09-3.21-4.231a2.44 2.44 0 0 0-.21-.009c-.829 0-1.717.39-2.411 1.061a1.937 1.937 0 0 0-1.089-.367c.842-1.027 2.053-1.676 3.343-1.676.107 0 .213.004.321.013 2.395.198 4.23 2.612 4.019 5.268a5.226 5.226 0 0 1-.732 2.269z" fill="url(#n)"/><path d="M112.099 145.584c-.071 0-.141-.003-.211-.009-1.668-.142-3.397-1.971-3.213-4.223v-.004c.057.005.114.007.17.007.885 0 1.627-.572 1.693-1.338.039-.494-.211-.956-.628-1.261.694-.671 1.582-1.061 2.411-1.061.07 0 .141.003.21.009 1.668.141 3.393 1.978 3.21 4.231a4.026 4.026 0 0 1-.713 1.98h-.011c-.44 0-.811.287-.843.667a.624.624 0 0 0 .021.216c-.637.501-1.389.786-2.096.786z" fill="url(#o)"/><path d="M128.735 134.017a2.016 2.016 0 0 1-1.433-.594v-.001c-.012-.011-1.011-1.01-2.843-2.369a38.399 38.399 0 0 0-1.583-1.114c-1.403-1.03-3.2-1.92-5.075-2.818a25.682 25.682 0 0 0-1.806-.752c8.169.71 13.522 3.55 13.522 3.55.104.047.207.095.305.145.365.462.555.752.577.786l.035.061c.594.908.332 2.168-.602 2.778a1.982 1.982 0 0 1-1.097.328z" fill="url(#p)"/><path d="M108.845 141.355a1.967 1.967 0 0 1-1.151-.363c-.422-.305-.677-.768-.638-1.262.066-.77.804-1.342 1.689-1.342a1.952 1.952 0 0 1 .17.007c.381.03.724.162.995.361.417.305.667.767.628 1.261-.066.766-.808 1.338-1.693 1.338z" fill="url(#q)"/><path d="M115.072 145.395l-.087-.003a1.175 1.175 0 0 1-.119-.017c-.337-.067-.596-.297-.671-.577a.624.624 0 0 1-.021-.216c.032-.38.403-.667.843-.667h.011a.93.93 0 0 1 .744.348.667.667 0 0 1 .143.465c-.033.38-.403.667-.843.667z" fill="url(#r)"/><path d="M180.991 164.136c-2.606 1.008-5.422 1.326-8.178.874-5.918-.966-16.367-5.082-21-21.708a67.913 67.913 0 0 0-.804-2.729c-.772-2.368-2.218-8.496 2.638-10.654 0 0 13.216-7.013 29.804-1.753 0 0 11.328 2.967 10.518 15.104 0 0 .567 15.627-12.978 20.866zm-33.468-29.88l-.814-.553c-.964-.654-2.09-1-3.254-1h-3.746c-1.164 0-2.29.346-3.254 1l-.814.553c-.997-5.632-7.73-8.277-13.224-9.504v-.564h38.33v.564c-5.495 1.227-12.227 3.872-13.224 9.504zm-15.368 6.317a64.786 64.786 0 0 0-.804 2.729c-4.634 16.626-15.083 20.742-21 21.708-2.757.452-5.572.134-8.178-.874-13.546-5.239-12.98-20.866-12.98-20.866-.809-12.137 10.52-15.104 10.52-15.104 16.587-5.26 29.804 1.753 29.804 1.753 4.855 2.158 3.409 8.286 2.638 10.654zm67.803-1.661c-1.559-.551-4.16-2.051-5.6-6.107-.318-.912-.793-1.759-1.456-2.46-2.617-2.741-10.088-8.615-24.826-6.629 0 0-1.297.056-3.239.314v-.898h-46.511v.898c-1.942-.258-3.239-.314-3.239-.314-14.738-1.986-22.209 3.888-24.825 6.629-.664.701-1.139 1.548-1.457 2.46-1.44 4.056-4.04 5.556-5.599 6.107a1.92 1.92 0 0 0-1.29 1.806v2.962c0 .771.47 1.468 1.181 1.764l.173.076c1.57.712 2.73 2.093 3.285 3.722 1.203 3.522 2.687 6.921 3.162 7.984.102.226.221.442.366.641 11.701 16.189 26.488 8.195 26.488 8.195 17.667-8.901 19.15-29.4 19.15-29.4.025-.252.037-.498.043-.74l1.504-1.022a4.327 4.327 0 0 1 2.441-.749h3.746c.873 0 1.717.258 2.44.749l1.505 1.022c.006.242.017.488.043.74 0 0 1.483 20.499 19.15 29.4 0 0 14.786 7.994 26.487-8.195a3.59 3.59 0 0 0 .366-.641c.475-1.063 1.958-4.462 3.162-7.984.555-1.629 1.715-3.01 3.285-3.722l.172-.076a1.916 1.916 0 0 0 1.182-1.764v-2.962a1.92 1.92 0 0 0-1.289-1.806z" fill="#79b6e3" fill-rule="nonzero"/><path d="M175.288 165.211a15.308 15.308 0 0 1-2.473-.203c-5.266-.859-14.112-4.208-19.265-16.64l.174-.076.307-.133.117-.051.087-.037a22.4 22.4 0 0 1 .239-.101l.104-.044.107-.045.108-.045a78.787 78.787 0 0 1 1.515-.613c.018 2.045.066 3.356.066 3.356l.01.003.002.059s5.824 2.085 12.464 2.085c1.669 0 3.39-.131 5.082-.461 3.697-.721 6.716-5 8.941-9.577 3.785.165 7.436.664 10.933 1.417l.156.034a27.267 27.267 0 0 1-1.365 7.49l-.003.008-.011.033c-1.544 4.577-4.788 9.833-11.594 12.464a15.65 15.65 0 0 1-5.701 1.077z" fill="#8a7b71" fill-rule="nonzero"/><path d="M168.85 152.726c-6.64 0-12.464-2.085-12.464-2.085l-.002-.059c.043.013.239.076.617.233.018-1.239.053-2.557.112-3.901a69.403 69.403 0 0 1 5.717-1.88 8.298 8.298 0 0 0 14.783-2.357 61.379 61.379 0 0 1 2.456-.049h.065c.92 0 1.834.02 2.739.06-2.225 4.577-5.244 8.856-8.941 9.577-1.692.33-3.413.461-5.082.461z" fill="#8d8888" fill-rule="nonzero"/><path d="M157.001 150.815a7.344 7.344 0 0 0-.617-.233l-.01-.003s-.048-1.311-.066-3.356c.268-.104.538-.208.805-.309a133.657 133.657 0 0 0-.112 3.901z" fill="#827269" fill-rule="nonzero"/><path d="M169.658 148.619a8.283 8.283 0 0 1-6.828-3.585 66.375 66.375 0 0 1 3.037-.776c.126.269.433.452.785.452l.086-.003c.041-.004.081-.009.12-.017.794.73 1.802 1.172 2.864 1.172.107 0 .213-.005.321-.014 1.64-.135 3.019-1.311 3.656-2.892a63.478 63.478 0 0 1 3.914-.279 8.298 8.298 0 0 1-7.955 5.942z" fill="#4d3933" fill-rule="nonzero"/><path d="M169.722 145.862c-1.062 0-2.07-.442-2.864-1.172.336-.067.595-.298.671-.578.637.502 1.389.787 2.097.787.071 0 .14-.003.21-.009.998-.085 2.017-.774 2.636-1.796.41-.05.82-.096 1.227-.138-.637 1.581-2.016 2.757-3.656 2.892a3.848 3.848 0 0 1-.321.014z" fill="#654439" fill-rule="nonzero"/><path d="M169.626 144.899c-.708 0-1.46-.285-2.097-.787a.645.645 0 0 0 .021-.215l-.001-.003a64.233 64.233 0 0 1 4.923-.8c-.619 1.022-1.638 1.711-2.636 1.796a2.44 2.44 0 0 1-.21.009z" fill="#3b3532" fill-rule="nonzero"/><path d="M166.652 144.71c-.352 0-.659-.183-.785-.452a66.742 66.742 0 0 1 1.682-.364l.001.003a.645.645 0 0 1-.021.215c-.076.28-.335.511-.671.578a1.155 1.155 0 0 1-.206.02z" fill="#8d8888" fill-rule="nonzero"/><path d="M153.55 148.368l.174-.076-.174.076zm.481-.209l.117-.051-.117.051zm.204-.088a22.4 22.4 0 0 1 .149-.063l-.149.063zm.239-.101l.104-.044-.104.044zm.211-.089l.108-.045-.108.045zm39.121-3.776z" fill="url(#s)"/><path d="M182.873 142.688zm-2.804-.06h.048-.048z" fill="url(#t)"/><path d="M175.297 165.212a16.441 16.441 0 0 1-.009-.001 15.65 15.65 0 0 0 .009.001zm17.286-13.542l.011-.033-.011.033zm.014-.041a27.267 27.267 0 0 0 1.365-7.49l.003.001a27.242 27.242 0 0 1-1.368 7.489z" fill="#647483" fill-rule="nonzero"/><path d="M107.876 165.211a15.706 15.706 0 0 1-5.705-1.077 19.42 19.42 0 0 1-4.873-2.718l-.002-.002-.063-.049a.143.143 0 0 0-.015-.011l-.051-.04a.28.28 0 0 0-.02-.016l-.05-.04-.036-.028-.04-.032-.036-.029-.025-.02a1.12 1.12 0 0 0-.06-.048c-4.52-3.685-6.396-8.799-7.171-12.605a68.148 68.148 0 0 1 10.658-2.257c2.012 3.38 4.499 6.144 7.404 6.711 1.693.33 3.414.461 5.083.461 6.641 0 12.464-2.085 12.464-2.085l.002-.059.009-.003s.047-1.267.065-3.253c1.274.349 2.559.741 3.851 1.179a34.269 34.269 0 0 1-2.157 4.123v.001a8.36 8.36 0 0 1-.077.124c-5.181 8.325-12.217 10.844-16.682 11.57a15.034 15.034 0 0 1-2.473.203z" fill="#85756a" fill-rule="nonzero"/><path d="M112.874 153.411c-1.669 0-3.39-.131-5.083-.461-2.905-.567-5.392-3.331-7.404-6.711a64.57 64.57 0 0 1 4.907-.441 8.284 8.284 0 0 0 6.772 3.506 8.274 8.274 0 0 0 6.235-2.824c2.077.326 4.184.762 6.319 1.318.053 1.275.086 2.524.103 3.702.378-.157.574-.22.617-.233l-.002.059s-5.823 2.085-12.464 2.085z" fill="#8d8888" fill-rule="nonzero"/><path d="M124.723 151.5c-.017-1.178-.05-2.427-.103-3.702.264.069.529.14.794.213-.018 1.986-.065 3.253-.065 3.253l-.009.003a7.344 7.344 0 0 0-.617.233z" fill="#827269" fill-rule="nonzero"/><path d="M112.066 149.304a8.284 8.284 0 0 1-6.772-3.506 63.09 63.09 0 0 1 3.211-.082h.045c.348 0 .699.003 1.049.009a4.012 4.012 0 0 0 2.082.809c.107.009.213.013.32.013.736 0 1.446-.212 2.078-.585a63.1 63.1 0 0 1 4.222.518 8.274 8.274 0 0 1-6.235 2.824z" fill="#4d3933" fill-rule="nonzero"/><path d="M112.001 146.547c-.107 0-.213-.004-.32-.013a4.012 4.012 0 0 1-2.082-.809c1.475.025 2.969.103 4.48.237a4.084 4.084 0 0 1-2.078.585z" fill="#654439" fill-rule="nonzero"/><path d="M129.265 149.19h-.001.001z" fill="url(#u)"/><path d="M118.301 146.48zm-8.702-.755z" fill="url(#v)"/><path d="M107.867 165.212zm-10.569-3.796l-.002-.002.002.002zm-.065-.051zm-.066-.051l-.02-.016a.28.28 0 0 1 .02.016zm-.07-.056l-.036-.028.036.028zm-.076-.06a.915.915 0 0 1-.036-.029l.036.029zm-.061-.049zm-.06-.048c-4.52-3.684-6.396-8.797-7.173-12.605h.002c.775 3.806 2.651 8.92 7.171 12.605zm30.131-7.663zm.077-.125a34.125 34.125 0 0 0 2.156-4.123h.001a34.269 34.269 0 0 1-2.157 4.123z" fill="#647483" fill-rule="nonzero"/><defs><linearGradient id="a" x2="1" gradientUnits="userSpaceOnUse" gradientTransform="rotate(-90.485 171.186 .282) scale(56.93964)"><stop offset="0" stop-color="#f9e8d6"/><stop offset="1" stop-color="#5d534b"/></linearGradient><linearGradient id="b" x2="1" gradientUnits="userSpaceOnUse" gradientTransform="rotate(-90.485 171.186 .282) scale(56.93964)"><stop offset="0" stop-color="#fff"/><stop offset="1" stop-color="#5f5d5d"/></linearGradient><linearGradient id="c" x2="1" gradientUnits="userSpaceOnUse" gradientTransform="rotate(-90.485 171.186 .282) scale(56.93964)"><stop offset="0" stop-color="#ead9ca"/><stop offset="1" stop-color="#584e46"/></linearGradient><linearGradient id="d" x2="1" gradientUnits="userSpaceOnUse" gradientTransform="rotate(-90.485 171.186 .282) scale(56.93964)"><stop offset="0" stop-color="#997f73"/><stop offset="1" stop-color="#26160f"/></linearGradient><linearGradient id="e" x2="1" gradientUnits="userSpaceOnUse" gradientTransform="rotate(-90.485 171.186 .282) scale(56.93964)"><stop offset="0" stop-color="#b8907c"/><stop offset="1" stop-color="#3e261c"/></linearGradient><linearGradient id="f" x2="1" gradientUnits="userSpaceOnUse" gradientTransform="rotate(-90.485 171.186 .282) scale(56.93964)"><stop offset="0" stop-color="#817873"/><stop offset="1" stop-color="#120e0a"/></linearGradient><linearGradient id="g" x2="1" gradientUnits="userSpaceOnUse" gradientTransform="rotate(-90.485 171.186 .282) scale(56.93964)"><stop offset="0" stop-color="#726f6f"/><stop offset="1" stop-color="#040505"/></linearGradient><linearGradient id="h" x2="1" gradientUnits="userSpaceOnUse" gradientTransform="rotate(-90.485 171.186 .282) scale(56.93964)"><stop offset="0" stop-color="#fff"/><stop offset="1" stop-color="#5f5d5d"/></linearGradient><linearGradient id="i" x2="1" gradientUnits="userSpaceOnUse" gradientTransform="rotate(-90.485 171.186 .282) scale(56.93964)"><stop offset="0" stop-color="#fff"/><stop offset="1" stop-color="#5f5d5d"/></linearGradient><linearGradient id="j" x2="1" gradientUnits="userSpaceOnUse" gradientTransform="rotate(-90.486 140.92 30.77) scale(56.93964)"><stop offset="0" stop-color="#efdecc"/><stop offset="1" stop-color="#5a4f47"/></linearGradient><linearGradient id="k" x2="1" gradientUnits="userSpaceOnUse" gradientTransform="rotate(-90.486 140.92 30.77) scale(56.93964)"><stop offset="0" stop-color="#fff"/><stop offset="1" stop-color="#5f5d5d"/></linearGradient><linearGradient id="l" x2="1" gradientUnits="userSpaceOnUse" gradientTransform="rotate(-90.486 140.92 30.77) scale(56.93964)"><stop offset="0" stop-color="#ead9ca"/><stop offset="1" stop-color="#584e46"/></linearGradient><linearGradient id="m" x2="1" gradientUnits="userSpaceOnUse" gradientTransform="rotate(-90.486 140.92 30.77) scale(56.93964)"><stop offset="0" stop-color="#997f73"/><stop offset="1" stop-color="#26160f"/></linearGradient><linearGradient id="n" x2="1" gradientUnits="userSpaceOnUse" gradientTransform="rotate(-90.486 140.92 30.77) scale(56.93964)"><stop offset="0" stop-color="#b8907c"/><stop offset="1" stop-color="#3e261c"/></linearGradient><linearGradient id="o" x2="1" gradientUnits="userSpaceOnUse" gradientTransform="rotate(-90.486 140.92 30.77) scale(56.93964)"><stop offset="0" stop-color="#817873"/><stop offset="1" stop-color="#120e0a"/></linearGradient><linearGradient id="p" x2="1" gradientUnits="userSpaceOnUse" gradientTransform="rotate(-90.486 140.92 30.77) scale(56.93964)"><stop offset="0" stop-color="#726f6f"/><stop offset="1" stop-color="#040505"/></linearGradient><linearGradient id="q" x2="1" gradientUnits="userSpaceOnUse" gradientTransform="rotate(-90.486 140.92 30.77) scale(56.93964)"><stop offset="0" stop-color="#fff"/><stop offset="1" stop-color="#5f5d5d"/></linearGradient><linearGradient id="r" x2="1" gradientUnits="userSpaceOnUse" gradientTransform="rotate(-90.486 140.92 30.77) scale(56.93964)"><stop offset="0" stop-color="#fff"/><stop offset="1" stop-color="#5f5d5d"/></linearGradient><linearGradient id="s" x2="1" gradientUnits="userSpaceOnUse" gradientTransform="rotate(-90.485 171.186 .282) scale(56.93964)"><stop offset="0" stop-color="#8c827d"/><stop offset="1" stop-color="#554e4b"/></linearGradient><linearGradient id="t" x2="1" gradientUnits="userSpaceOnUse" gradientTransform="rotate(-90.485 171.186 .282) scale(56.93964)"><stop offset="0" stop-color="#8d8889"/><stop offset="1" stop-color="#565353"/></linearGradient><linearGradient id="u" x2="1" gradientUnits="userSpaceOnUse" gradientTransform="rotate(-90.486 140.92 30.77) scale(56.93964)"><stop offset="0" stop-color="#8a7f7a"/><stop offset="1" stop-color="#544d49"/></linearGradient><linearGradient id="v" x2="1" gradientUnits="userSpaceOnUse" gradientTransform="rotate(-90.486 140.92 30.77) scale(56.93964)"><stop offset="0" stop-color="#6e605c"/><stop offset="1" stop-color="#3d3432"/></linearGradient></defs></svg>