<svg viewBox="0 0 298 300" xmlns="http://www.w3.org/2000/svg" fill-rule="evenodd" clip-rule="evenodd" stroke-linejoin="round" stroke-miterlimit="1.414"><g fill-rule="nonzero"><path fill="#8869ae" d="M.344.16H297.21v299.705H.344z"/><path d="M225.833 133.106c-3.374 6.223-8.732 12.399-8.732 14.954 0 2.554-.943 1.95-3.126 13.653-2.183 11.657-1.587 16.998-16.968 31.952-15.381 14.907-55.568 14.815-55.568 14.815s7.987-.094 15.132-5.387c3.423-2.509 5.061-3.576 5.855-4.041-2.977 1.487-15.728 7.338-29.472 7.059-27.635-.558-31.455 5.898-31.455 5.898s.645-3.947 6.747-9.474c-3.423.604-6.648.883-8.881.558-29.323-4.644-39.295 5.015-39.295 5.015s5.954-9.567 17.315-15.14c4.466-2.182 8.881-3.437 12.751-4.133-2.281-.093-4.812-.279-7.69-.557-14.339-1.347-25.105 8.916-25.105 8.916s4.763-12.399 14.735-17.554c-4.018-.372-7.987-.511-11.659-.372-9.427.279-11.907 4.087-11.907 4.087 3.175-5.433 9.576-8.638 18.556-10.728 3.82-.882 8.087-1.578 12.751-2.136-9.328-3.204-27.139-5.573-47.581 11.053 0 0 5.358-17.137 30.067-24.475 0 0-14.885-26.889-34.384-14.071 0 0 8.336-28.33 26.396-33.344l-.794 1.578s-20.987 1.858-27.536-21.084c0 0 24.857 13.839 34.482 4.783 0 0-37.757-13.467-37.112-35.108 0 0 10.568 19.458 37.459 23.917.347 0 16.422.092 22.178-6.409-1.935.789-4.465 1.114-7.294 1.16-14.239 1.394-27.635-4.458-27.635-4.458h.05c-2.679-1.068-4.813-2.507-6.401-4.272.695.557 3.969 2.833 12.454 2.275 3.87-.232 8.037-.789 12.155-1.439-10.766-3.484-16.819-13.701-16.819-13.701s12.056 7.802 26.792 5.295c2.977-.511 5.606-.929 7.988-1.254-4.118-.186-8.782-.836-13.644-2.322C58.433 54.9 51.487 47.237 51.487 47.237s11.114 7.338 41.18.604c2.282-.511 5.606-.558 9.179-.372-1.489-.882-2.68-1.811-3.672-2.6-4.515.418-8.335 2.321-7.988 2.089.347-.232 2.431-1.997 6.003-3.994-1.736-1.811-2.133-3.018-2.133-3.018s.893 1.022 4.317 1.857c6.748-3.25 17.316-6.455 30.662-3.668 4.664.975 9.575 2.461 14.14 4.133.298.046.545.046.843.092-2.48-6.594-2.282-15.093-2.282-15.093s2.183 8.453 14.438 13.654c12.255 5.155 17.018 3.297 24.46 5.248 7.144 1.904 12.205 5.944 15.232 9.195l-.199-.372c-7.69-14.164-14.388-14.814-15.181-14.861.892.047 14.933.279 23.467 12.958 2.034 3.018 3.969 6.965 5.706 11.099-.596-18.112 9.03-30.326 9.03-30.326s-8.336 20.295 0 40.868c4.861 12.028 13.544 26.053 13.544 33.53l-6.4 24.846z" fill="#3a2f34"/><path d="M155.137 187.6v112.271H94.408c-.989-.395-1.481-.594-1.481-.594 0-14.332 2.101-25.505 5.305-34.219 7.73-21.03 21.882-27.709 28.396-29.723 2.137-.661 3.454-.82 3.454-.82.231 0 .447-.021.666-.057 1.913-.307 3.466-1.968 4.712-4.618.927-1.968 1.701-4.479 2.332-7.386.251-1.133.446-2.275.646-3.51.297-2.077.589-4.25.84-6.525.097-1.384.246-2.717.395-4.152.538-6.868.692-14.388.692-21.507 0 0 8.154.84 14.772.84z" fill="#e0bd9a"/><path d="M217.597 299.277s-.543.199-1.435.594h-61.025V187.6h.148c6.571 0 14.829-.84 14.829-.84 0 7.068.143 14.485.687 21.358.148 1.338.297 2.717.394 4.054.251 2.374.549 4.598.892 6.674v.046c.097.943.292 1.784.446 2.671.6 2.921 1.327 5.489 2.204 7.549 1.092 2.563 2.419 4.352 4.029 5.059a3.907 3.907 0 0 0 1.624.344s2.338.282 5.838 1.655c7.151 2.799 19.16 10.144 26.059 28.888 3.203 8.714 5.31 19.887 5.31 34.219z" fill="#efd0ad"/><path d="M172.087 218.636v.049c-1.532 2.358-6.671 9.135-16.85 9.135h-.099c-9.635-.049-15.269-7.023-16.701-9.086.296-2.062.592-4.223.839-6.482.099-1.327.247-2.702.396-4.126a67.87 67.87 0 0 0 15.268 2.014h.198a65.547 65.547 0 0 0 15.664-2.161c.148 1.326.296 2.701.396 4.027.247 2.357.543 4.567.889 6.63z" fill="#be987f"/><path d="M154.447 59.657c-64.337 0-64.683 53.779-61.817 88.993-4.398-8.349-17.492-5.795-16.405 7.367 1.037 12.671 19.745 19.129 19.221 17.729 9.744 26.043 35.529 45.676 59.001 45.676h.493V59.657h-.493z" fill="#d2a686"/><path d="M80.326 150.467c3.163-5.108 8.104-2.898 9.29-1.768 1.284 1.228 2.322 2.8 1.531 5.795-.444 1.719-2.223 1.867-1.828 4.421.494 2.897 1.828 3.045 2.619 3.732.741.639 1.68 1.13 2.125 2.358a6.197 6.197 0 0 1 .296 3.634c-.494 2.063-3.508.393-5.534-.491-1.334-.638-5.584-4.224-6.671-5.403-2.668-3.044-3.953-8.938-1.828-12.278z" fill="#ac8774"/><path d="M154.792 59.657c64.336 0 64.682 53.779 61.866 88.993 4.397-8.349 17.443-5.795 16.355 7.367-.988 12.671-19.733 19.133-19.222 17.729-9.49 26.043-35.527 45.676-58.999 45.676h-.345l-.149-159.765h.494z" fill="#ddb598"/><path d="M228.912 150.467c-3.162-5.108-8.054-2.898-9.29-1.768-1.284 1.228-2.272 2.8-1.531 5.795.444 1.719 2.223 1.867 1.828 4.421-.494 2.897-1.828 3.045-2.569 3.732-.742.639-1.73 1.13-2.175 2.358-.445 1.228-.543 2.505-.296 3.634.494 2.063 3.508.393 5.534-.491 1.384-.638 5.584-4.224 6.671-5.403 2.718-3.044 3.953-8.938 1.828-12.278z" fill="#ac8774"/><path d="M153.94 74.833c-21.148 0-36.665 6.139-46.003 18.221-13.095 16.944-12.601 42.778-7.808 61.342 1.482 5.697 2.273 20.972 3.261 26.571 4.596 25.096 32.316 38.455 50.55 38.455h.494V74.833h-.494z" fill="#e0bd9a"/><path d="M199.895 93.104c-9.29-12.034-24.608-18.173-45.461-18.271v144.589c20.853-.245 45.806-14.881 50.056-38.455 1.037-5.599 1.778-20.874 3.261-26.571 4.843-18.516 5.337-44.3-7.856-61.292z" fill="#efd0ad"/><path d="M154.627 196.478h.001-.001zm-3.567-2.687c-.102-.022-.202-.041-.304-.065.1.023.187.041.304.065zm-.785-.175c-.094-.024-.178-.051-.27-.076l-.01.004s.104.029.28.072zm4.352-.017h.001-.001z" fill="#bc917b"/><path d="M136.473 75.194l-.268.267.045.09c.089-.134.134-.268.223-.357z" fill="#432e1b"/><path d="M154.899 193.618h.001-.001zm-3.664-2.76c-.104-.022-.207-.043-.311-.067.102.023.192.042.311.067zm-.806-.18c-.096-.025-.183-.052-.277-.078l-.01.004s.107.03.287.074zm4.47-.017h.001-.001z" fill="#ba907b"/><path d="M143.372 172.493c-.251-5.132 9.426-1.875 12.616-1.714 2.521.128 10.192-1.618 10.85-1.168 4.512 3.042-4.78 9.17-11.01 9.17-1.66 0-12.306-3.193-12.456-6.288z" fill="#dcb497"/><path d="M108.281 131.267s4.908 20.135 13.335 21.778c8.426 1.643 17.547-1.623 17.547-1.623s.871-23.664-3.443-26.756c-4.311-3.105-14.25-7.593-27.439 6.601z" fill="#fff"/><path d="M139.174 151.36s-.194.055-.627.236c-.107-7.258-.778-17.227-3.472-19.137-4.008-2.933-13.053-7.062-25.138 4.229-1.099-3.119-1.65-5.484-1.65-5.484 13.213-14.22 23.16-9.74 27.44-6.633 4.319 3.105 3.447 26.789 3.447 26.789z" fill="#d6b496"/><path d="M134.184 141.107a8.294 8.294 0 1 1-16.588-.002 8.294 8.294 0 0 1 16.588.002z" fill="#482315"/><path d="M125.506 146.629c-2.396-.197-4.234-2.614-4.016-5.272.214-2.656 2.422-4.735 4.82-4.534 2.394.197 4.229 2.611 4.018 5.268-.218 2.656-2.428 4.74-4.822 4.538z" fill="#7e3a22"/><path d="M125.712 145.672c-1.667-.142-3.397-1.972-3.213-4.224.188-2.26 2.189-3.785 3.856-3.649 1.668.142 3.393 1.979 3.21 4.232-.183 2.256-2.19 3.778-3.853 3.641z" fill="#211a10"/><path d="M124.362 140.114c-.069.814-.905 1.409-1.863 1.33-.959-.081-1.683-.81-1.618-1.619.07-.818.901-1.413 1.859-1.335.963.078 1.687.806 1.622 1.624zm5.378 4.71c-.035.404-.453.704-.93.663-.482-.037-.841-.404-.811-.809.034-.405.453-.705.929-.663.482.037.846.4.812.809z" fill="#fff"/><path d="M155.031 195.992h.001-.001zm-3.664-2.759c-.104-.023-.208-.043-.311-.067.102.023.192.042.311.067zm-.806-.18c-.096-.025-.183-.052-.277-.078l-.01.004s.107.029.287.074zm4.47-.017h.001-.001z" fill="#ba907b"/><path d="M150.99 192.664c-.112-.024-.222-.046-.334-.071.11.024.206.045.334.071zm-.864-.193c-.103-.026-.196-.056-.297-.083l-.011.005s.115.031.308.078zm.616-.649c-.112-.024-.222-.046-.334-.071l.334.071zm-.864-.193c-.103-.026-.196-.056-.297-.083l-.011.004s.115.032.308.079zm1.634.078c-.108-.023-.215-.044-.322-.069.106.024.199.043.322.069zm-.835-.187c-.099-.025-.189-.054-.287-.08l-.01.005s.111.03.297.075z" fill="#bc917b"/><path d="M154.982 192.371v16.198c-6.489-.049-12.306-1.521-16.353-3.853-3.64-2.095-5.44-4.908-5.44-7.987 0-1.706.288-3.307 1.551-4.777l.607.088c-.179.969.252-.343.252-.343.628 0 1.5-.337 2.271-.407.179-.009.346-.03.501-.061l.24.489a4.38 4.38 0 0 0 4.985 2.329c2.672-.665 6.725-1.463 11.386-1.676z" fill="#5c443b"/><path d="M154.755 187.762v.013l-.109-.013-.109.013v-.013c-1.593.123-3.147-.15-4.58-.551l.004.003c-4.88-1.53-9.593 2.692-10.189 3.251-.363.357-.791.641-1.401.764l.24.49a4.378 4.378 0 0 0 4.985 2.329c2.671-.665 6.724-1.463 11.385-1.676v-4.601l-.226-.009z" fill="#fff"/><path d="M177.188 196.755c0 3.079-2.216 5.869-5.857 7.964-4.05 2.329-9.864 3.801-16.349 3.85v-16.198c4.66.213 8.713 1.011 11.382 1.676a4.38 4.38 0 0 0 4.986-2.329l.239-.489c.155.031.322.052.502.061.774.07 1.642.407 2.27.407 0 0 .435 1.312.252.343l.608-.088c1.263 1.47 1.967 3.097 1.967 4.803z" fill="#5c443b"/><path d="M155.207 187.762v.013l.109-.013.109.013v-.013c1.593.123 3.147-.15 4.58-.551l-.005.003c4.88-1.53 9.594 2.692 10.189 3.251.364.357.791.641 1.401.764l-.24.49a4.377 4.377 0 0 1-4.985 2.329c-2.671-.665-6.724-1.463-11.384-1.676v-4.601l.226-.009z" fill="#fff"/><path d="M164.26 182.457s-1.581.616-3.425 1.115l.013.005s-.125.034-.334.085c-.192.05-.381.087-.576.133l-.361.077c-.322.069-.635.132-.95.181-.947.165-2.098.319-3.311.367h-.001c-.111.004-.223.005-.334.008-.112-.003-.224-.004-.335-.008a25.35 25.35 0 0 1-3.312-.367 17.146 17.146 0 0 1-.949-.181 37.158 37.158 0 0 1-.362-.077c-.195-.046-.384-.083-.575-.133-.21-.051-.334-.085-.334-.085l.012-.005c-1.843-.499-3.425-1.115-3.425-1.115-5.763-1.83-10.961 9.496-10.961 9.496h.001l.607.086c-.181.97.251-.342.251-.342.628 0 1.498-.338 2.271-.406a3.4 3.4 0 0 0 .501-.061c.576-.117.988-.38 1.338-.709l-.002.006.065-.062c.596-.559 5.309-4.781 10.189-3.251l-.004-.003c1.433.401 2.987.674 4.58.551v.013l.109-.013.109.013v-.013l.226.009.226-.009v.013l.109-.013.109.013v-.013c1.592.123 3.147-.15 4.58-.551l-.005.003c4.88-1.53 9.594 2.692 10.189 3.251l.065.062-.001-.006c.35.329.761.592 1.337.709.155.031.321.052.501.061.773.068 1.643.406 2.272.406 0 0 .432 1.312.251.342l.606-.086h.001s-5.198-11.326-10.961-9.496z" fill="#d67374"/><path d="M171.331 204.719c-4.05 2.329-9.864 3.801-16.349 3.85V204.1c4.66-.213 8.713-1.011 11.382-1.676a4.373 4.373 0 0 1 4.967 2.295zm-16.349-.619v4.469c-6.489-.049-12.306-1.521-16.353-3.853a4.379 4.379 0 0 1 4.967-2.292c2.672.665 6.725 1.463 11.386 1.676z" fill="#fff"/><path d="M135.599 191.697s-3.226 8.599 4.108 11.645c0 0 16.465 8.346 30.547.003 0 0 6.684-4.478 4.109-11.648 0 0 1.951-.247 2.8 4.515 0 0 1.586 10.762-18.569 12.656 0 0-20.561 1.26-25.418-9.87 0 0-1.669-6.602 2.423-7.301z" fill="#c1646e"/><path d="M201.091 130.582s-4.908 20.135-13.334 21.778c-8.427 1.643-17.546-1.623-17.546-1.623s-.872-23.664 3.443-26.756c4.311-3.105 14.249-7.593 27.437 6.601z" fill="#fff"/><path d="M170.199 150.674s.193.056.626.237c.108-7.258.779-17.227 3.474-19.137 4.005-2.933 13.052-7.062 25.138 4.229 1.098-3.119 1.648-5.484 1.648-5.484-13.212-14.22-23.16-9.74-27.438-6.633-4.319 3.105-3.448 26.788-3.448 26.788z" fill="#d6b496"/><path d="M175.188 140.422a8.293 8.293 0 0 0 8.294 8.293 8.293 8.293 0 1 0 0-16.587 8.294 8.294 0 0 0-8.294 8.294z" fill="#482315"/><path d="M183.868 145.944c2.394-.197 4.233-2.614 4.015-5.272-.214-2.657-2.422-4.736-4.819-4.534-2.395.196-4.231 2.61-4.019 5.267.218 2.658 2.428 4.74 4.823 4.539z" fill="#7e3a22"/><path d="M183.66 144.986c1.668-.142 3.397-1.97 3.214-4.223-.187-2.26-2.19-3.786-3.857-3.649-1.668.142-3.393 1.979-3.209 4.232.183 2.255 2.189 3.778 3.852 3.64z" fill="#211a10"/><path d="M185.011 139.429c.069.814.905 1.409 1.863 1.33.96-.081 1.682-.81 1.617-1.619-.068-.818-.899-1.413-1.858-1.335-.963.078-1.687.806-1.622 1.624zm-5.378 4.71c.036.404.453.704.93.663.482-.038.841-.404.811-.81-.035-.404-.452-.704-.93-.663-.481.037-.845.401-.811.81z" fill="#fff"/><path d="M100.853 58.564c.546-.604 1.142-1.208 1.687-1.765-.743-5.155 1.886-11.889 15.927-17.694 0 0-4.416 4.551-7.839 10.774 13.296-10.031 27.288-14.908 27.288-14.908l-6.103 5.713c3.622-2.786 10.121-6.687 21.037-10.124 15.529-4.877 25.552.557 25.552.557s-8.088-.279-12.057 2.88c3.92-1.673 10.667-2.23 21.93 2.414.645.279 1.339.557 1.984.883a62.827 62.827 0 0 0 12.85-3.297s-2.827 3.064-7.541 6.083c3.671 2.322 6.5 4.83 8.931 7.384a62.128 62.128 0 0 0 19.201-2.368s-5.756 5.293-14.24 8.22c1.29 1.672 2.531 3.25 3.771 4.737 5.606 1.439 12.057 2.275 19.399 1.858 0 0-5.209 2.971-12.502 4.411 1.488.976 3.174 1.765 5.11 2.415 15.728 5.108 20.292-1.486 20.292-1.486s-6.847 11.517-18.953 11.564c-1.934 0-2.133-.047-2.133-.047s2.927 7.988 4.515 15.93a62.006 62.006 0 0 0 12.007 3.158s-4.764 1.439-11.213 1.578c0 0 .049.557.099.836.893 9.381-1.886 15.836-2.729 33.391-.744 15.001-4.763 7.291-9.477 18.345-1.587 3.715-1.686 7.894-1.686 7.894-1.737.465-6.351-9.01-3.076-25.403.645-3.065.198-8.499-1.34-14.582-4.267-1.486-18.606-4.552-22.128 17.926 0 0-2.58-3.483.149-15.279l.446-1.812c4.416-18.251-1.736-14.86-5.507-11.471 0 0-1.786 1.765-4.763 4.041 0 0-.893.743-2.63 1.904-3.324 2.229-7.591 4.644-12.403 6.223-13.247 5.202-35.376 9.938-66.782 4.18-.397-.047-.596-.047-.596-.047 0 2.044.1 4.18.298 6.409 2.332 27.168-2.084 26.982-2.084 26.982-1.339 0 .1-7.244-4.316-12.213-4.416-5.016-11.163-21.828-11.163-38.593 0-16.811 5.755-31.719 20.788-47.601z" fill="#3a2f34"/><path d="M144.223 130.946c-.064-.098-1.592-2.423-4.718-4.82-1.959-1.503-3.878-2.646-5.87-3.498a30.394 30.394 0 0 0-7.552-2.081c-2.284-.254-4.814-.187-7.767.211-2.255.429-4.454 1.1-6.32 1.922-1.331.458-2.382 1.102-3.226 1.62-.324.199-.616.378-.914.538l-4.026 2.531 4.64-1.09c.215-.055.45-.116.701-.183.959-.254 2.153-.571 3.554-.776.328-.048.662-.115 1.002-.182.583-.116 1.186-.237 1.819-.267.703-.047 1.431-.099 2.18-.153l.974-.07c2.569-.032 4.739.162 6.667.607a25.384 25.384 0 0 1 6.259 1.963c1.874.897 3.672 1.787 5.075 2.817 2.834 1.891 4.411 3.468 4.426 3.484a2.015 2.015 0 0 0 2.53.267c.933-.612 1.196-1.871.601-2.779l-.035-.061zm57.697-6.127c-.267-.141-.56-.321-.883-.519-.845-.518-1.896-1.162-3.187-1.604-1.905-.838-4.104-1.509-6.386-1.943-2.927-.393-5.459-.46-7.752-.205a30.45 30.45 0 0 0-7.544 2.081c-1.962.84-3.936 2.016-5.866 3.497-3.07 2.353-4.596 4.637-4.71 4.812l-.029.042a2.042 2.042 0 0 0 .263 2.539 2 2 0 0 0 1.428.596h.001a2 2 0 0 0 1.426-.597l.016-.017c.149-.148 1.68-1.644 4.428-3.479 1.381-1.015 3.18-1.906 5.05-2.802a25.543 25.543 0 0 1 6.293-1.971c1.9-.439 4.073-.629 6.609-.602l1.023.073c.742.053 1.464.104 2.172.152.623.029 1.225.15 1.809.266.34.067.673.134 1.001.182 1.401.205 2.595.522 3.555.776.25.067.485.129.708.184l4.636 1.09-4.061-2.551z" fill="#030405"/><path d="M200.437 265.058c2.003 9.042 3.239 20.241 3.239 34.111 0 0-.379.184-1.143.702h-94.418c-.759-.518-1.143-.702-1.143-.702 0-13.844 1.235-25.033 3.234-34.111H98.232c7.73-21.03 21.882-27.709 28.396-29.723-.015.205-.02.415-.02.625 0 9.626 12.644 17.473 28.529 17.878.435.016.871.021 1.307.021 16.325 0 29.6-7.899 29.784-17.689 7.151 2.799 19.16 10.144 26.059 28.888h-11.85z" fill="#5d4d53"/><path d="M162.229 281.351c-1.874 0-3.374-1.405-3.374-3.139 0-1.781 1.5-3.186 3.374-3.186s3.42 1.405 3.42 3.186c0 1.734-1.546 3.139-3.42 3.139zm-10.402.656c-1.874 0-3.42-1.406-3.42-3.186 0-1.734 1.546-3.139 3.42-3.139 1.875 0 3.374 1.405 3.374 3.139 0 1.78-1.499 3.186-3.374 3.186zm7.45 4.92c-2.952 1.874-4.357-1.078-4.357-1.078l1.78-4.966s5.576 4.123 2.577 6.044zm-15.04-7.872c.703 3.046 3.092 4.498 3.046 8.856 2.483.89 4.873 1.921 6.044 4.216v1.594h7.169v-1.453c1.218-2.343 3.748-3.42 6.371-4.357.047-5.67 2.578-6.607 3.046-11.058 1.733-17.898-30.174-17.195-25.676 2.202z" fill="#f1f2f2"/><path d="M139.915 232.284c0 1.633-1.345 2.962-3.047 2.962-1.701 0-3.046-1.329-3.046-2.962 0-1.594 1.345-2.924 3.046-2.924 1.702 0 3.047 1.33 3.047 2.924z" fill="#37393a"/><path d="M142.883 237.411c0 1.595-1.385 2.924-3.086 2.924-1.662 0-3.047-1.329-3.047-2.924 0-1.633 1.385-2.962 3.047-2.962 1.701 0 3.086 1.329 3.086 2.962z" fill="#b998c6"/><path d="M146.563 242.082c0 1.594-1.385 2.923-3.047 2.923-1.701 0-3.047-1.329-3.047-2.923 0-1.633 1.346-2.924 3.047-2.924 1.662 0 3.047 1.291 3.047 2.924z" fill="#37393a"/><path d="M151.193 245.841c0 1.633-1.385 2.924-3.047 2.924-1.701 0-3.047-1.291-3.047-2.924 0-1.595 1.346-2.924 3.047-2.924 1.662 0 3.047 1.329 3.047 2.924z" fill="#b998c6"/><path d="M156.892 248.043c0 1.595-1.385 2.924-3.047 2.924-1.702 0-3.047-1.329-3.047-2.924 0-1.633 1.345-2.924 3.047-2.924 1.662 0 3.047 1.291 3.047 2.924z" fill="#37393a"/><path d="M159.939 243.98c1.701 0 3.047 1.329 3.047 2.924 0 1.633-1.346 2.962-3.047 2.962-1.702 0-3.047-1.329-3.047-2.962 0-1.595 1.345-2.924 3.047-2.924z" fill="#b998c6"/><path d="M165.241 241.17c1.702 0 3.047 1.291 3.047 2.924 0 1.595-1.345 2.924-3.047 2.924-1.662 0-3.047-1.329-3.047-2.924 0-1.633 1.385-2.924 3.047-2.924z" fill="#37393a"/><path d="M170.109 237.639c1.701 0 3.047 1.291 3.047 2.924 0 1.594-1.346 2.923-3.047 2.923-1.662 0-3.047-1.329-3.047-2.923 0-1.633 1.385-2.924 3.047-2.924z" fill="#b998c6"/><path d="M174.066 233.158c1.662 0 3.047 1.329 3.047 2.924 0 1.632-1.385 2.962-3.047 2.962-1.702 0-3.047-1.33-3.047-2.962 0-1.595 1.345-2.924 3.047-2.924z" fill="#37393a"/><path d="M176.322 227.728c1.701 0 3.046 1.291 3.046 2.924 0 1.594-1.345 2.924-3.046 2.924-1.663 0-3.048-1.33-3.048-2.924 0-1.633 1.385-2.924 3.048-2.924z" fill="#b998c6"/><path d="M211.914 147.389a92.173 92.173 0 0 0-2.202-.448l-.32-.062c1.573-8.889 2.062-18.791.662-28.322.587.077 1.156.157 1.707.241 1.362 5.724 1.736 10.783 1.123 13.699-1.181 5.911-1.336 10.922-.97 14.892z" fill="#302e2d"/><path d="M165.64 150.173c-2.378-4.045-3.621-7.385-3.621-7.385-.757-2.039-1.701-3.245-2.621-3.945a41.624 41.624 0 0 1-.524-6.442c0-.464.01-.92.026-1.371 3.3-1.006 6.84-4.253 6.84-4.253 8.134-4.865 16.561-7.281 24.335-8.292a4728.247 4728.247 0 0 1-.505 2.054 33.744 33.744 0 0 0-3.021-.142c-.99 0-1.932.05-2.837.151-.29.04-.58.084-.872.134-4.097.076-7.237 1.784-9.193 3.204l-.024.017a30.046 30.046 0 0 0-3.321 2.223c-3.07 2.353-4.596 4.637-4.71 4.812l-.029.042a2.042 2.042 0 0 0 .263 2.539 2 2 0 0 0 1.428.596h.001a2 2 0 0 0 1.426-.597l.016-.017c.103-.102.859-.842 2.217-1.892-.828 5.903-.823 13.483-.764 17.045a54.764 54.764 0 0 0-1.246.392c-.193.062-.384.125-.577.189-.126.038-.25.081-.374.121-.367.121-.734.248-1.103.381-.403.141-.807.286-1.21.436zm43.752-3.294c-.227-.043-.454-.086-.683-.127-.336-.059-.671-.121-1.007-.179a84.437 84.437 0 0 0-1.866-.295l-.231-.038c-.248-.035-.498-.071-.753-.105a69.838 69.838 0 0 0-1.01-.135c-.238-.031-.474-.062-.715-.089l-.554-.064c-.37-.043-.739-.081-1.109-.117a14.477 14.477 0 0 0-.443-.043 47.29 47.29 0 0 0-.924-.081c-.334-.03-.667-.059-.998-.078-.224-.019-.448-.033-.672-.05a54.04 54.04 0 0 0-1.401-.074c-.39-.022-.783-.038-1.176-.05l-.103-.003-.402-.014c3.707-6.387 5.746-14.755 5.746-14.755l-.016-.018.01-.045c-2.178-2.344-4.268-4.181-6.258-5.599.428.053.845.137 1.254.218.34.067.673.134 1.001.182 1.401.205 2.595.522 3.555.776.25.067.485.129.708.184l4.636 1.09-4.061-2.551c-.267-.141-.56-.321-.883-.519-.845-.518-1.896-1.162-3.187-1.604a27.15 27.15 0 0 0-2.801-1.045c1.609-1.859 3.391-3.048 5.187-3.774 3.607.028 6.923.303 9.818.68 1.4 9.531.911 19.433-.662 28.322z" fill="#31302e"/><path d="M170.883 148.435c.222-6.875 1.017-14.961 3.416-16.661 1.995-1.461 5.243-3.219 9.493-3.219 1.404 0 2.918.191 4.533.649-.066 2.184.137 3.731.386 4.779a8.261 8.261 0 0 0-5.229-1.855 8.294 8.294 0 0 0-5.415 14.575c-.269.051-.539.105-.811.161-.574.115-1.153.238-1.734.372-.229.052-.46.102-.689.159-.141.031-.278.065-.417.098-.257.065-.519.127-.779.193-.314.079-.629.162-.943.246-.603.159-1.207.327-1.811.503zm19.267-3.081a8.258 8.258 0 0 0 1.626-4.932c0-2.165-.83-4.136-2.188-5.613.31-1.744.687-3.324 1.122-4.757 2.683 1.145 5.603 3.033 8.727 5.951a59.142 59.142 0 0 0 1.638-5.439l.016.018s-2.039 8.368-5.746 14.755c-.301-.009-.602-.014-.903-.021h-.062a89.173 89.173 0 0 0-2.881.002c-.154 0-.309.008-.464.01a36.378 36.378 0 0 0-.885.026z" fill="#323132"/><path d="M170.15 148.654c-.059-3.562-.064-11.142.764-17.045a38.936 38.936 0 0 1 2.211-1.587c1.381-1.015 3.18-1.906 5.05-2.802a25.543 25.543 0 0 1 6.293-1.971c1.295-.299 2.717-.483 4.294-.561a37.04 37.04 0 0 0-.437 4.516 16.552 16.552 0 0 0-4.533-.649c-4.25 0-7.498 1.758-9.493 3.219-2.399 1.7-3.194 9.786-3.416 16.661-.244.072-.488.144-.733.219zm29.287-12.651c-3.124-2.918-6.044-4.806-8.727-5.951.621-2.048 1.358-3.792 2.18-5.276l1.382.096c.187.009.372.026.555.048 1.99 1.418 4.08 3.255 6.258 5.599l-.01.045c-.082.339-.628 2.57-1.638 5.439zm-25.814-12.1l.024-.017c1.956-1.42 5.096-3.128 9.193-3.204a30.683 30.683 0 0 0-6.672 1.947c-.847.363-1.697.789-2.545 1.274z" fill="#302e2d"/><path d="M178.067 146.703a8.294 8.294 0 0 1 5.415-14.575c1.982 0 3.802.695 5.229 1.855.316 1.333.705 1.858.705 1.858.054-.35.112-.695.172-1.032a8.266 8.266 0 0 1 2.188 5.613 8.258 8.258 0 0 1-1.626 4.932c-.219.008-.438.014-.656.024-.372.017-.746.033-1.117.054a92.203 92.203 0 0 0-2.985.229l-.129.012-.346.034c1.857-.701 3.151-2.781 2.966-5.035a4.806 4.806 0 0 0-.029-.269c.423-.304.677-.768.637-1.263-.064-.769-.803-1.341-1.689-1.341l-.074.001c-.842-1.027-2.053-1.676-3.343-1.676-.106 0-.213.005-.321.014-2.395.196-4.231 2.61-4.019 5.267.068.829.33 1.603.731 2.268a.67.67 0 0 0-.143.466c.034.38.403.667.844.667a1.102 1.102 0 0 0 .205-.02c.661.607 1.47 1.015 2.335 1.135l-.034.005c-.786.097-1.572.209-2.366.333-.243.039-.488.079-.731.122-.1.014-.203.028-.308.05l-.593.102c-.19.034-.381.071-.574.105l-.344.065z" fill="#221e1d"/><path d="M183.017 145.921c-.865-.12-1.674-.528-2.335-1.135.337-.067.596-.298.671-.577.637.501 1.389.786 2.096.786.071 0 .142-.003.211-.009 1.668-.142 3.397-1.97 3.214-4.223l-.001-.004h.001c.373-.031.711-.161.98-.356.012.089.022.179.029.269.185 2.254-1.109 4.334-2.966 5.035a57.661 57.661 0 0 0-.957.102l-.158.017c-.26.029-.524.061-.785.095zm-3.241-2.248a5.221 5.221 0 0 1-.731-2.268c-.212-2.657 1.624-5.071 4.019-5.267.108-.009.215-.014.321-.014 1.29 0 2.501.649 3.343 1.676a1.953 1.953 0 0 0-1.09.367c-.694-.671-1.582-1.061-2.411-1.061-.07 0-.14.003-.21.008-1.668.142-3.393 1.979-3.209 4.232.061.753.326 1.424.713 1.979a1.985 1.985 0 0 0-.077.004.93.93 0 0 0-.668.344z" fill="#292321"/><path d="M183.449 144.995c-.707 0-1.459-.285-2.096-.786a.632.632 0 0 0 .021-.217c-.033-.38-.403-.667-.843-.667h-.01a4.013 4.013 0 0 1-.713-1.979c-.184-2.253 1.541-4.09 3.209-4.232.07-.005.14-.008.21-.008.829 0 1.717.39 2.411 1.061-.417.305-.667.767-.627 1.262.065.765.808 1.337 1.694 1.337.055 0 .112-.002.168-.007l.001.004c.183 2.253-1.546 4.081-3.214 4.223-.069.006-.14.009-.211.009z" fill="#1b1c1c"/><path d="M186.705 140.766c-.886 0-1.629-.572-1.694-1.337-.04-.495.21-.957.627-1.262a1.953 1.953 0 0 1 1.09-.367l.074-.001c.886 0 1.625.572 1.689 1.341.04.495-.214.959-.637 1.263a1.945 1.945 0 0 1-.98.356h-.001a1.903 1.903 0 0 1-.168.007zm-6.228 4.04c-.441 0-.81-.287-.844-.667a.67.67 0 0 1 .143-.466.93.93 0 0 1 .668-.344l.077-.004h.01c.44 0 .81.287.843.667a.632.632 0 0 1-.021.217c-.075.279-.334.51-.671.577a1.102 1.102 0 0 1-.205.02z" fill="#323132"/><path d="M215.918 148.349l-.086-.024c-.4-.105-.805-.207-1.21-.305-.243-.06-.489-.122-.734-.179-.164-.038-.328-.079-.493-.115l-.078-.018a71.415 71.415 0 0 0-1.403-.319c-.366-3.97-.211-8.981.97-14.892.613-2.916.239-7.975-1.123-13.699 6.193.942 10.063 2.266 10.063 2.266 2.251.953 1.298 6.925 1.298 6.925-2.597 2.25-3.462 5.366-3.462 5.366-.852 6.115-2.177 11.034-3.742 14.994zm-26.502-12.508s-.389-.525-.705-1.858c-.249-1.048-.452-2.595-.386-4.779a37.04 37.04 0 0 1 .437-4.516 37.923 37.923 0 0 1 2.315-.041l1.023.073.79.056c-.822 1.484-1.559 3.228-2.18 5.276a41.209 41.209 0 0 0-1.122 4.757c-.06.337-.118.682-.172 1.032zm5.633-14.19a31.836 31.836 0 0 0-3.585-.898 45.435 45.435 0 0 0-1.894-.214l.441-1.789.064-.265a74.194 74.194 0 0 1 10.161-.608c-1.796.726-3.578 1.915-5.187 3.774z" fill="#1f1f20"/><path d="M167.255 134.115h-.001a2 2 0 0 1-1.428-.596 2.042 2.042 0 0 1-.263-2.539l.029-.042c.114-.175 1.64-2.459 4.71-4.812a30.046 30.046 0 0 1 3.321-2.223 24.867 24.867 0 0 1 2.545-1.274 30.683 30.683 0 0 1 6.672-1.947c.292-.05.582-.094.872-.134a25.54 25.54 0 0 1 2.837-.151c.96 0 1.964.047 3.021.142.613.056 1.244.127 1.894.214 1.231.234 2.436.537 3.585.898a27.15 27.15 0 0 1 2.801 1.045c1.291.442 2.342 1.086 3.187 1.604.323.198.616.378.883.519l4.061 2.551-4.636-1.09a36.953 36.953 0 0 1-.708-.184c-.96-.254-2.154-.571-3.555-.776-.328-.048-.661-.115-1.001-.182-.409-.081-.826-.165-1.254-.218a7.782 7.782 0 0 0-.555-.048l-1.382-.096-.79-.056-1.023-.073a37.923 37.923 0 0 0-2.315.041c-1.577.078-2.999.262-4.294.561a25.543 25.543 0 0 0-6.293 1.971c-1.87.896-3.669 1.787-5.05 2.802a38.936 38.936 0 0 0-2.211 1.587c-1.358 1.05-2.114 1.79-2.217 1.892l-.016.017a2 2 0 0 1-1.426.597z" fill="#17191a"/><path d="M206.582 161.646c.341-2.936.721-5.53 1.169-7.25a95.452 95.452 0 0 0 1.641-7.517l.32.062a92.173 92.173 0 0 1 2.202.448c.246 2.677.729 4.879 1.295 6.566-2.174 3.692-4.527 6.111-6.627 7.691z" fill="#4a423f"/><path d="M191.38 165.596c-9.112 0-14.474-3.332-14.474-3.332-4.944-2.718-8.741-7.795-11.266-12.086a73.556 73.556 0 0 1 2.313-.822c.124-.04.248-.083.374-.121a72.4 72.4 0 0 1 1.823-.581c.021 1.262.049 2.02.049 2.02l.009.003.003.06s5.822 2.085 12.462 2.085c1.669 0 3.391-.132 5.084-.462 2.994-.584 5.544-3.502 7.588-7.023l.402.014.103.003c.393.012.786.028 1.176.05.47.017.934.045 1.401.074.224.017.448.031.672.05.331.019.664.048.998.078.307.024.618.051.924.081.151.012.298.027.443.043.37.036.739.074 1.109.117l.554.064c.241.027.477.058.715.089.336.042.674.088 1.01.135.255.034.505.07.753.105l.231.038c.626.091 1.248.191 1.866.295.336.058.671.12 1.007.179.229.041.456.084.683.127a95.452 95.452 0 0 1-1.641 7.517c-.448 1.72-.828 4.314-1.169 7.25-3.56 2.68-6.394 2.952-6.394 2.952-3.223.719-6.173.998-8.808.998z" fill="#4c4641"/><path d="M182.673 152.822c-6.64 0-12.462-2.085-12.462-2.085l-.003-.06c.044.013.239.076.617.234.012-.797.031-1.627.058-2.476a73.088 73.088 0 0 1 1.811-.503c.314-.084.629-.167.943-.246.26-.066.522-.128.779-.193.139-.033.276-.067.417-.098.229-.057.46-.107.689-.159.581-.134 1.16-.257 1.734-.372.272-.056.542-.11.811-.161a8.264 8.264 0 0 0 5.415 2.012 8.282 8.282 0 0 0 6.668-3.361l.151-.005c.245-.009.491-.017.734-.021.155-.002.31-.01.464-.01a89.173 89.173 0 0 1 2.881-.002h.062c.301.007.602.012.903.021-2.044 3.521-4.594 6.439-7.588 7.023-1.693.33-3.415.462-5.084.462z" fill="#4d4c4c"/><path d="M170.825 150.911a7.027 7.027 0 0 0-.617-.234l-.009-.003s-.028-.758-.049-2.02c.245-.075.489-.147.733-.219-.027.849-.046 1.679-.058 2.476z" fill="#49423f"/><path d="M183.482 148.715a8.264 8.264 0 0 1-5.415-2.012l.344-.065c.193-.034.384-.071.574-.105l.593-.102c.105-.022.208-.036.308-.05.243-.043.488-.083.731-.122.794-.124 1.58-.236 2.366-.333l.034-.005a3.904 3.904 0 0 0 .851.023c.364-.03.716-.111 1.049-.237l.346-.034.129-.012c.204-.021.407-.04.61-.055a92.203 92.203 0 0 1 2.375-.174c.371-.021.745-.037 1.117-.054.218-.01.437-.016.656-.024a8.282 8.282 0 0 1-6.668 3.361z" fill="#2a1f1c"/><path d="M183.548 145.958c-.179 0-.356-.013-.531-.037.261-.034.525-.066.785-.095l.158-.017c.188-.022.379-.043.566-.062l.391-.04a3.856 3.856 0 0 1-1.369.251z" fill="#392923"/><path d="M213.209 153.955c-.566-1.687-1.049-3.889-1.295-6.566.47.102.937.208 1.403.319l.078.018c.165.036.329.077.493.115.245.057.491.119.734.179.405.098.81.2 1.21.305l.086.024a40.24 40.24 0 0 1-2.709 5.606z" fill="#242325"/><path d="M98.727 148.087c-.161-.414-.32-.839-.475-1.275.015-.397.027-.809.036-1.238.137.846.283 1.685.439 2.513z" fill="#2f2d2c"/><path d="M148.633 150.962l-.029-.009a55.791 55.791 0 0 0-2.053-.691 53.373 53.373 0 0 0-.57-.184l-.3-.093a74.848 74.848 0 0 0-2.923-.839c-.314-.083-.629-.167-.943-.245-.26-.064-.52-.128-.777-.193-.14-.033-.279-.066-.417-.095-.231-.06-.46-.11-.691-.162a57.415 57.415 0 0 0-.693-.155c.043-4.135-.033-11.621-.953-17.148 1.832 1.359 2.831 2.358 2.843 2.371a2.015 2.015 0 0 0 2.53.267c.933-.612 1.196-1.871.601-2.779l-.035-.061c-.064-.098-1.592-2.423-4.718-4.82a40.76 40.76 0 0 0-.732-.546c2.252-.238 4.411-.533 6.473-.873a59.415 59.415 0 0 1 3.761 2.07s2.604 2.387 5.427 3.701v9.238c-.609.717-1.199 1.708-1.706 3.072 0 0-1.408 3.785-4.095 8.174zm-49.283-1.351a45.42 45.42 0 0 1-.623-1.524 99.447 99.447 0 0 1-.439-2.513c.082-3.793-.081-8.848-.66-15.585a72.524 72.524 0 0 1-.298-6.409s.199 0 .596.047c3.274.6 6.445 1.086 9.518 1.47l-3.614 2.272 4.64-1.09c.215-.055.45-.116.701-.183.653-.173 1.414-.375 2.276-.551.954.094 1.897.179 2.831.253-1.91 1.391-3.91 3.167-5.991 5.406l.011.045-.017.018s2.233 9.156 6.27 15.623l-.121.012c-.148.012-.295.027-.441.044-.369.035-.738.076-1.107.116l-.558.065c-.238.025-.474.056-.712.087-.336.044-.677.089-1.012.136-.253.033-.506.07-.754.105l-.228.038c-.627.091-1.251.191-1.868.296-.335.057-.671.118-1.007.178-.336.06-.667.124-1.001.188a84.516 84.516 0 0 0-3.607.768l-.245.056c-.11.025-.217.05-.326.077-.246.057-.489.119-.733.179-.404.097-.809.2-1.209.304l-.272.072z" fill="#302e2d"/><path d="M154.434 139.716v-9.238c.687.319 1.387.575 2.065.718l.005.076a37.933 37.933 0 0 1-.167 6.663c-.012.112-.023.224-.038.337-.597.265-1.241.712-1.865 1.444z" fill="#31302e"/><path d="M138.454 148.131l-.258-.052c-.386-.08-.769-.155-1.156-.226-.192-.033-.383-.069-.574-.102-.195-.039-.395-.072-.593-.106a8.735 8.735 0 0 0-.304-.05c-.246-.042-.492-.08-.732-.121a73.476 73.476 0 0 0-2.366-.333 41.532 41.532 0 0 0-.79-.097 8.294 8.294 0 1 0-12.032-.476l-.044.001c-.394.012-.789.029-1.177.05-.47.016-.936.045-1.401.074-.224.016-.448.031-.672.05-.333.021-.667.047-.998.078-.27.021-.537.043-.806.069-4.037-6.467-6.27-15.623-6.27-15.623l.017-.018c.081.339.628 2.57 1.639 5.439 6.065-5.666 11.363-7.449 15.644-7.449 4.249 0 7.498 1.759 9.494 3.22 2.284 1.619 3.114 9.031 3.379 15.672z" fill="#323132"/><path d="M139.237 148.296a54.532 54.532 0 0 0-.783-.165c-.265-6.641-1.095-14.053-3.379-15.672-1.996-1.461-5.245-3.22-9.494-3.22-4.281 0-9.579 1.783-15.644 7.449a58.607 58.607 0 0 1-1.65-5.484c2.081-2.239 4.081-4.015 5.991-5.406 3.958.318 7.73.462 11.323.462 1.19 0 2.36-.016 3.509-.047.858.291 1.702.628 2.516 1.005 1.874.897 3.672 1.787 5.075 2.817.582.388 1.11.762 1.583 1.113.92 5.527.996 13.013.953 17.148z" fill="#302e2d"/><path d="M131.681 147.044l-.032-.003-.157-.017a102.674 102.674 0 0 0-1.304-.136l-.125-.011c-.209-.023-.41-.041-.612-.056-.222-.021-.44-.04-.66-.054a78.476 78.476 0 0 0-1.715-.119l-.751-.038c.876-.114 1.697-.524 2.366-1.139a1.102 1.102 0 0 0 .205.02c.441 0 .811-.287.844-.667a.67.67 0 0 0-.143-.466 5.23 5.23 0 0 0 .731-2.267c.211-2.657-1.624-5.071-4.018-5.268a3.848 3.848 0 0 0-.321-.014c-1.29 0-2.501.65-3.343 1.676l-.075-.002c-.885 0-1.624.573-1.69 1.342-.039.494.215.958.638 1.263a4.806 4.806 0 0 0-.029.269c-.203 2.478 1.381 4.746 3.537 5.202a41.753 41.753 0 0 0-.61-.016c-.155-.003-.308-.01-.462-.01-.203-.005-.403-.01-.605-.01-.3-.002-.601-.004-.896-.004-.46 0-.92.002-1.38.012h-.064c-.436.009-.867.017-1.303.036l-.058.001a8.294 8.294 0 1 1 12.032.476z" fill="#221e1d"/><path d="M126.325 146.61l-.364-.015c-.27-.014-.539-.022-.808-.031l-.126-.005c-2.156-.456-3.74-2.724-3.537-5.202.007-.09.017-.18.029-.269.269.195.607.324.98.356v.004c-.184 2.252 1.546 4.082 3.213 4.224.07.005.14.008.211.008.707 0 1.46-.285 2.097-.786.075.279.334.51.671.577-.669.615-1.49 1.025-2.366 1.139zm3.272-2.252a.932.932 0 0 0-.669-.343.645.645 0 0 0-.076-.004 4.017 4.017 0 0 0 .713-1.98c.183-2.253-1.542-4.09-3.21-4.232a2.897 2.897 0 0 0-.209-.008c-.829 0-1.717.39-2.411 1.061a1.946 1.946 0 0 0-1.089-.367c.842-1.026 2.053-1.676 3.343-1.676.107 0 .213.005.321.014 2.394.197 4.229 2.611 4.018 5.268a5.23 5.23 0 0 1-.731 2.267z" fill="#292321"/><path d="M125.923 145.68c-.071 0-.141-.003-.211-.008-1.667-.142-3.397-1.972-3.213-4.224v-.004c.057.005.113.007.169.007.885 0 1.629-.572 1.694-1.337.039-.495-.21-.957-.627-1.262.694-.671 1.582-1.061 2.411-1.061.07 0 .14.003.209.008 1.668.142 3.393 1.979 3.21 4.232a4.017 4.017 0 0 1-.713 1.98h-.011c-.44 0-.81.287-.842.667a.626.626 0 0 0 .021.216c-.637.501-1.39.786-2.097.786z" fill="#1b1c1c"/><path d="M122.668 141.451a1.954 1.954 0 0 1-1.149-.363c-.423-.305-.677-.769-.638-1.263.066-.769.805-1.342 1.69-1.342a1.877 1.877 0 0 1 .169.007c.381.031.724.163.995.362.417.305.666.767.627 1.262-.065.765-.809 1.337-1.694 1.337zm6.228 4.04a1.102 1.102 0 0 1-.205-.02c-.337-.067-.596-.298-.671-.577a.626.626 0 0 1-.021-.216c.032-.38.402-.667.842-.667h.011c.025 0 .051.001.076.004a.932.932 0 0 1 .669.343.67.67 0 0 1 .143.466c-.033.38-.403.667-.844.667z" fill="#323132"/><path d="M98.252 146.812c-1.313-3.676-2.421-8.11-3.166-13.457 0 0-.865-3.116-3.462-5.366 0 0-.953-5.972 1.298-6.925 0 0 9.323-3.189 22.182-3.189 8.979 0 19.68 1.554 30.142 6.832-2.062.34-4.221.635-6.473.873-1.707-1.237-3.395-2.206-5.138-2.952a30.394 30.394 0 0 0-7.552-2.081c-.897-.1-1.833-.15-2.817-.15-1.521 0-3.157.119-4.95.361-2.255.429-4.454 1.1-6.32 1.922-1.331.458-2.382 1.102-3.226 1.62-.324.199-.616.378-.914.538l-.412.259c-3.073-.384-6.244-.87-9.518-1.47-.397-.047-.596-.047-.596-.047 0 2.044.1 4.18.298 6.409.579 6.737.742 11.792.66 15.585-.009.429-.021.841-.036 1.238zm27.349-20.552c-3.593 0-7.365-.144-11.323-.462-.934-.074-1.877-.159-2.831-.253.404-.083.831-.16 1.278-.225.328-.048.662-.115 1.002-.182.583-.116 1.186-.237 1.819-.267.703-.047 1.431-.099 2.18-.153l.974-.07.543-.003c2.334 0 4.333.197 6.124.61 1.244.214 2.508.539 3.743.958-1.149.031-2.319.047-3.509.047z" fill="#1f1f20"/><path d="M142.559 134.113a2.015 2.015 0 0 1-1.432-.594c-.012-.013-1.011-1.012-2.843-2.371a38.431 38.431 0 0 0-1.583-1.113c-1.403-1.03-3.201-1.92-5.075-2.817a25.456 25.456 0 0 0-6.259-1.963c-1.791-.413-3.79-.61-6.124-.61l-.543.003-.974.07c-.749.054-1.477.106-2.18.153-.633.03-1.236.151-1.819.267-.34.067-.674.134-1.002.182-.447.065-.874.142-1.278.225-.862.176-1.623.378-2.276.551a69.39 69.39 0 0 1-.701.183l-4.64 1.09 3.614-2.272.412-.259c.298-.16.59-.339.914-.538.844-.518 1.895-1.162 3.226-1.62 1.866-.822 4.065-1.493 6.32-1.922 1.793-.242 3.429-.361 4.95-.361.984 0 1.92.05 2.817.15a30.394 30.394 0 0 1 7.552 2.081c1.743.746 3.431 1.715 5.138 2.952.243.177.487.359.732.546 3.126 2.397 4.654 4.722 4.718 4.82l.035.061c.595.908.332 2.167-.601 2.779-.334.22-.717.327-1.098.327z" fill="#17191a"/><path d="M123.366 165.596c-2.635 0-5.584-.279-8.807-.998 0 0-9.134-.877-15.209-14.987l.272-.072c.4-.104.805-.207 1.209-.304.244-.06.487-.122.733-.179.109-.027.216-.052.326-.077l.245-.056a84.516 84.516 0 0 1 2.611-.572c.331-.067.662-.134.996-.196.334-.064.665-.128 1.001-.188.336-.06.672-.121 1.007-.178a77.465 77.465 0 0 1 1.868-.296l.228-.038c.248-.035.501-.072.754-.105.335-.047.676-.092 1.012-.136.238-.031.474-.062.712-.087l.558-.065c.369-.04.738-.081 1.107-.116.146-.017.293-.032.441-.044l.121-.012c1.95 3.124 4.321 5.62 7.065 6.155 1.693.33 3.415.462 5.085.462 6.639 0 12.462-2.085 12.462-2.085l.002-.059.009-.003s.044-1.187.063-3.064c.231.05.462.102.693.155.231.052.46.102.691.162.138.029.277.062.417.095.257.065.517.129.777.193.314.078.629.162.943.245.972.258 1.947.537 2.923.839l.3.093c.189.06.379.121.57.184a55.791 55.791 0 0 1 2.053.691l.029.009c-2.511 4.112-6.147 8.748-10.792 11.302 0 0-5.364 3.332-14.475 3.332z" fill="#4a443f"/><path d="M126.701 153.507c-1.67 0-3.392-.132-5.085-.462-2.744-.535-5.115-3.031-7.065-6.155.269-.026.536-.048.806-.069.331-.031.665-.057.998-.078.224-.019.448-.034.672-.05.465-.029.931-.058 1.401-.074.388-.021.783-.038 1.177-.05l.044-.001a8.274 8.274 0 0 0 6.242 2.832 8.265 8.265 0 0 0 5.79-2.356c.264.03.527.062.79.097.787.097 1.573.209 2.366.333.24.041.486.079.732.121.1.015.202.031.304.05.198.034.398.067.593.106.191.033.382.069.574.102.387.071.77.146 1.156.226l.258.052c.048 1.193.077 2.36.093 3.465a6.89 6.89 0 0 1 .618-.233l-.002.059s-5.823 2.085-12.462 2.085z" fill="#4d4c4c"/><path d="M138.547 151.596a135.133 135.133 0 0 0-.093-3.465c.261.053.522.108.783.165-.019 1.877-.063 3.064-.063 3.064l-.009.003a6.89 6.89 0 0 0-.618.233z" fill="#49423f"/><path d="M125.891 149.4a8.274 8.274 0 0 1-6.242-2.832l.058-.001c.436-.019.867-.027 1.303-.036h.064c.46-.01.92-.012 1.38-.012.295 0 .596.002.896.004.202 0 .402.005.605.01.154 0 .307.007.462.01.203.004.406.009.61.016a3.785 3.785 0 0 0 .799.084c.168 0 .334-.011.499-.033l.751.038c.569.033 1.14.073 1.715.119.22.014.438.033.66.054.202.015.403.033.612.056l.125.011a102.674 102.674 0 0 1 1.304.136l.157.017.032.003a8.265 8.265 0 0 1-5.79 2.356z" fill="#2a1f1c"/><path d="M125.826 146.643a3.824 3.824 0 0 1-.799-.084l.126.005c.269.009.538.017.808.031l.364.015a3.768 3.768 0 0 1-.499.033z" fill="#392923"/><path d="M215.802 140.03l-.056.216c-.123.596-.821 3.748-2.351 7.481-2.037 4.972-5.546 10.975-11.137 13.35-.117.05-.238.093-.362.131-2.287.681-24.154 6.697-32.709-10.368l-.081-.147a35.496 35.496 0 0 1-.779-1.458c-2.068-4.065-6.932-15.176-1.143-19.938 0 0 13.612-10.999 38.826-8.138 3.964.451 7.5 2.819 9.313 6.375 1.436 2.821 2.082 6.842.479 12.496zm-69.821 10.048c-.164.302-.283.515-.34.615l-.079.147c-8.555 17.065-30.424 11.049-32.711 10.368a3.53 3.53 0 0 1-.362-.131c-5.129-2.177-8.505-7.411-10.599-12.097-1.906-4.262-2.752-8.074-2.89-8.734l-.055-.216c-1.601-5.654-.958-9.675.481-12.496 1.811-3.556 5.347-5.924 9.313-6.375 25.212-2.861 38.824 8.138 38.824 8.138 6.258 5.148.064 17.717-1.582 20.781zm75.843-29.014s-29.6-10.127-56.084 5.713c0 0-3.54 3.247-6.84 4.252a6.42 6.42 0 0 1-1.517.286h-.009a5.386 5.386 0 0 1-.875-.119c-3.468-.729-7.492-4.419-7.492-4.419-26.484-15.84-56.085-5.713-56.085-5.713-2.251.953-1.298 6.925-1.298 6.925 2.597 2.249 3.462 5.365 3.462 5.365.946 6.783 2.473 12.095 4.264 16.257 6.075 14.11 15.209 14.987 15.209 14.987 14.368 3.204 23.282-2.335 23.282-2.335 4.645-2.554 8.281-7.189 10.792-11.301 2.687-4.388 4.095-8.174 4.095-8.174 1.024-2.758 2.389-3.99 3.571-4.517a4.193 4.193 0 0 1 1.07-.314h.009c.589.09 1.299.331 2.02.886.92.7 1.863 1.906 2.621 3.945 0 0 1.243 3.34 3.621 7.385v.005c2.525 4.291 6.322 9.367 11.266 12.085 0 0 8.914 5.539 23.282 2.335 0 0 9.672-.929 15.73-16.25 1.565-3.959 2.89-8.878 3.742-14.994 0 0 .865-3.116 3.462-5.365 0 0 .953-5.972-1.298-6.925z" fill="#d67374"/></g></svg>