<svg viewBox="0 0 298 300" xmlns="http://www.w3.org/2000/svg" fill-rule="evenodd" clip-rule="evenodd" stroke-linejoin="round" stroke-miterlimit="1.414"><g fill-rule="nonzero"><path fill="#d7878e" d="M.17.275h296.87V299.98H.17z"/><path d="M153.81 187.72v112.25H93.07l-1.48-.59c0-7.16.54-13.56 1.46-19.22.44-2.61.95-5.08 1.55-7.39.65-2.73 1.44-5.26 2.3-7.61.19-.47.35-.95.54-1.4.2-.51.41-1.01.61-1.5.21-.49.41-.97.64-1.44.41-.97.87-1.87 1.32-2.76.78-1.52 1.6-2.96 2.47-4.3.22-.37.45-.72.68-1.05 1.11-1.64 2.26-3.16 3.43-4.54.33-.37.66-.76.99-1.11.33-.37.66-.72.99-1.07.33-.33.68-.68 1-.99.33-.33.66-.64.99-.93.66-.61 1.34-1.19 2-1.71 3.23-2.59 6.34-4.34 8.97-5.49.33-.14.66-.29.99-.43 1.02-.41 1.95-.74 2.77-.99 2.14-.68 3.46-.82 3.46-.82.25 0 .45-.02.68-.06 1.91-.31 3.46-1.98 4.71-4.61.93-1.98 1.69-4.49 2.33-7.39.24-1.15.45-2.28.63-3.52.31-2.07.6-4.25.85-6.52.1-1.38.24-2.71.39-4.15.55-6.88.7-14.39.7-21.5 0 0 8.14.84 14.77.84z" fill="#e0bd9a"/><path d="M216.27 299.38s-.53.2-1.44.59h-61.02V187.72h.14c6.59 0 14.84-.84 14.84-.84 0 7.05.14 14.48.68 21.35.16 1.34.3 2.72.41 4.06.25 2.36.53 4.58.88 6.66v.04c.11.95.29 1.79.46 2.68.59 2.92 1.31 5.49 2.2 7.55 1.09 2.57 2.4 4.36 4.03 5.06.49.23 1.05.35 1.62.35 0 0 2.33.27 5.83 1.64 1.85.72 4.03 1.75 6.35 3.21.48.29.97.62 1.44.95.4.25.79.54 1.18.82.33.25.7.52 1.03.79.72.55 1.46 1.17 2.2 1.85.29.24.55.51.84.78.33.29.64.6.97.95.22.2.43.41.64.63.43.46.88.95 1.31 1.46.23.25.46.5.66.77.99 1.15 1.96 2.4 2.88 3.78.41.58.78 1.17 1.17 1.79.79 1.26 1.55 2.59 2.29 4.01.9 1.77 1.77 3.67 2.57 5.7.19.45.37.93.53 1.4.87 2.35 1.65 4.88 2.33 7.61.6 2.31 1.11 4.78 1.52 7.39.93 5.66 1.46 12.06 1.46 19.22z" fill="#efd0ad"/><path d="M170.76 218.75v.04c-1.53 2.36-6.67 9.14-16.85 9.14h-.1c-9.63-.05-15.27-7.02-16.7-9.09.3-2.06.59-4.22.84-6.48.1-1.33.25-2.7.4-4.12 4.69 1.17 9.83 1.91 15.27 2.01h.19c5.64-.1 10.82-.89 15.67-2.16.15 1.32.29 2.7.39 4.03.25 2.35.55 4.56.89 6.63z" fill="#be987f"/><path d="M153.12 59.766c-64.33 0-64.68 53.784-61.81 88.994-4.4-8.35-17.5-5.8-16.41 7.37 1.04 12.67 19.75 19.12 19.22 17.73 9.74 26.04 35.53 45.67 59 45.67h.5V59.766h-.5z" fill="#d2a686"/><path d="M79 150.58c3.16-5.11 8.11-2.9 9.29-1.77 1.29 1.23 2.32 2.8 1.53 5.79-.44 1.72-2.22 1.87-1.83 4.42.5 2.9 1.83 3.05 2.62 3.74.74.63 1.68 1.13 2.13 2.35.49 1.23.54 2.51.29 3.64-.49 2.06-3.5.39-5.53-.49-1.33-.64-5.58-4.23-6.67-5.41-2.67-3.04-3.95-8.93-1.83-12.27z" fill="#ac8774"/><path d="M153.47 59.766c64.33 0 64.68 53.784 61.86 88.994 4.4-8.35 17.45-5.8 16.36 7.37-.99 12.67-19.74 19.13-19.22 17.73-9.49 26.04-35.53 45.67-59 45.67h-.35l-.15-159.764h.5z" fill="#ddb598"/><path d="M227.59 150.58c-3.17-5.11-8.06-2.9-9.29-1.77-1.29 1.23-2.28 2.8-1.53 5.79.44 1.72 2.22 1.87 1.82 4.42-.49 2.9-1.82 3.05-2.57 3.74-.74.63-1.73 1.13-2.17 2.35-.44 1.23-.54 2.51-.3 3.64.5 2.06 3.51.39 5.54-.49 1.38-.64 5.58-4.23 6.67-5.41 2.72-3.04 3.95-8.93 1.83-12.27z" fill="#ac8774"/><path d="M152.61 74.942c-21.14 0-36.66 6.139-46 18.221-13.09 16.947-12.6 42.777-7.81 61.347 1.49 5.69 2.28 20.97 3.27 26.57 4.59 25.09 32.31 38.45 50.54 38.45h.5V74.942h-.5z" fill="#e0bd9a"/><path d="M198.57 93.212c-9.29-12.032-24.61-18.172-45.46-18.27V219.53c20.85-.24 45.81-14.88 50.05-38.45 1.04-5.6 1.78-20.88 3.27-26.57 4.84-18.52 5.33-44.31-7.86-61.298z" fill="#efd0ad"/><path d="M149.73 193.9l-.3-.06c.1.02.19.04.3.06zm-.78-.18c-.09-.02-.18-.05-.27-.07h-.01s.1.03.28.07z" fill="#bc917b"/><path d="M135.15 75.303l-.27.267.04.089c.09-.134.14-.267.23-.356z" fill="#432e1b"/><path d="M149.91 190.97c-.1-.03-.21-.05-.31-.07.1.02.19.04.31.07zm-.81-.18c-.09-.03-.18-.06-.27-.08h-.01s.1.03.28.08z" fill="#ba907b"/><path d="M140.54 175c-.25-5.13 9.42-1.87 12.61-1.71 2.52.13 10.19-1.62 10.85-1.17 4.52 3.04-4.78 9.17-11.01 9.17-1.66 0-12.3-3.19-12.45-6.29z" fill="#dcb497"/><path d="M106.96 131.38s4.9 20.13 13.33 21.77c8.43 1.65 17.55-1.62 17.55-1.62s.87-23.66-3.45-26.75c-4.31-3.11-14.24-7.6-27.43 6.6z" fill="#fff"/><path d="M137.85 151.47s-.19.05-.63.24c-.11-7.26-.78-17.23-3.47-19.14-4.01-2.94-13.05-7.06-25.14 4.23-1.1-3.12-1.65-5.49-1.65-5.49 13.21-14.22 23.16-9.74 27.44-6.63 4.32 3.11 3.45 26.79 3.45 26.79z" fill="#d6b496"/><path d="M132.86 141.22c0 4.58-3.71 8.29-8.29 8.29-4.58 0-8.3-3.71-8.3-8.29 0-4.59 3.72-8.3 8.3-8.3s8.29 3.71 8.29 8.3z" fill="#482315"/><path d="M124.18 146.74c-2.39-.2-4.23-2.62-4.02-5.27.22-2.66 2.43-4.74 4.82-4.54 2.4.2 4.24 2.61 4.02 5.27-.22 2.66-2.43 4.74-4.82 4.54z" fill="#7e3a22"/><path d="M124.39 145.78c-1.67-.14-3.4-1.97-3.22-4.22.19-2.26 2.19-3.79 3.86-3.65 1.67.14 3.39 1.98 3.21 4.23-.18 2.26-2.19 3.78-3.85 3.64z" fill="#211a10"/><path d="M123.04 140.22c-.07.82-.91 1.41-1.87 1.33-.96-.08-1.68-.81-1.61-1.62.07-.81.9-1.41 1.86-1.33.96.08 1.68.8 1.62 1.62zm5.37 4.71c-.03.41-.45.71-.93.67-.48-.04-.84-.41-.81-.81.04-.41.46-.71.93-.67.48.04.85.4.81.81z" fill="#fff"/><path d="M150.04 193.34l-.31-.06c.1.02.19.04.31.06zm-.8-.18c-.1-.02-.19-.05-.28-.08l-.01.01s.11.03.29.07z" fill="#ba907b"/><path d="M149.67 192.77zm-.87-.19c-.1-.03-.19-.06-.3-.08h-.01l.31.08zm4.54 2.31h.01-.01zm-3.92-2.96c-.11-.02-.23-.04-.34-.07.11.02.21.04.34.07zm-.87-.19l-.29-.09-.01.01.3.08zm4.79-.02h.01-.01zm-3.15.1zm-.84-.19c-.1-.03-.19-.05-.28-.08h-.02s.12.03.3.08z" fill="#bc917b"/><path d="M199.77 130.69s-4.91 20.14-13.34 21.78c-8.42 1.64-17.54-1.62-17.54-1.62s-.88-23.67 3.44-26.76c4.31-3.1 14.25-7.59 27.44 6.6z" fill="#fff"/><path d="M168.87 150.78s.2.06.63.24c.11-7.26.78-17.23 3.47-19.14 4.01-2.93 13.06-7.06 25.14 4.23 1.1-3.12 1.65-5.48 1.65-5.48-13.21-14.22-23.16-9.74-27.44-6.63-4.32 3.1-3.45 26.78-3.45 26.78z" fill="#d6b496"/><path d="M173.86 140.53c0 4.58 3.72 8.29 8.3 8.29s8.29-3.71 8.29-8.29c0-4.58-3.71-8.29-8.29-8.29-4.58 0-8.3 3.71-8.3 8.29z" fill="#482315"/><path d="M182.54 146.05c2.4-.19 4.24-2.61 4.02-5.27-.22-2.66-2.42-4.73-4.82-4.53-2.4.19-4.23 2.61-4.02 5.26.22 2.66 2.43 4.74 4.82 4.54z" fill="#7e3a22"/><path d="M182.34 145.09c1.66-.14 3.39-1.97 3.21-4.22-.19-2.26-2.19-3.78-3.86-3.65-1.67.15-3.39 1.98-3.21 4.23.19 2.26 2.19 3.78 3.86 3.64z" fill="#211a10"/><path d="M183.69 139.54c.07.81.9 1.41 1.86 1.33.96-.08 1.68-.81 1.62-1.62-.07-.82-.9-1.41-1.86-1.34-.97.08-1.69.81-1.62 1.63zm-5.38 4.71c.03.4.45.7.93.66.48-.04.84-.4.81-.81-.04-.4-.45-.7-.93-.66-.48.04-.85.4-.81.81z" fill="#fff"/><path d="M142.9 131.05c-.06-.09-1.59-2.42-4.72-4.81-1.96-1.51-3.88-2.65-5.87-3.5a30.095 30.095 0 0 0-7.55-2.08c-2.29-.26-4.82-.19-7.77.21-2.25.43-4.45 1.1-6.32 1.92-1.33.46-2.38 1.1-3.23 1.62-.32.2-.61.38-.91.54l-4.02 2.53 4.63-1.09c.22-.06.45-.12.71-.18.96-.26 2.15-.58 3.55-.78.33-.05.66-.11 1-.18.58-.12 1.19-.24 1.82-.27.7-.05 1.43-.1 2.18-.15l.98-.07c2.56-.04 4.73.16 6.66.6 2.11.37 4.27 1.05 6.26 1.97 1.88.89 3.67 1.78 5.08 2.81 2.83 1.89 4.41 3.47 4.42 3.49a2.022 2.022 0 0 0 2.53.26c.94-.61 1.2-1.87.6-2.77l-.03-.07zm57.7-6.12c-.27-.14-.56-.32-.89-.52-.84-.52-1.89-1.16-3.18-1.61-1.91-.83-4.11-1.5-6.39-1.94-2.93-.39-5.46-.46-7.75-.2-2.52.34-5.12 1.06-7.55 2.08-1.96.84-3.93 2.01-5.86 3.5-3.07 2.35-4.6 4.63-4.71 4.81l-.03.04c-.52.8-.41 1.86.26 2.54.38.38.89.59 1.43.59.54 0 1.05-.21 1.43-.59l.01-.02c.15-.15 1.68-1.64 4.43-3.48 1.38-1.01 3.18-1.9 5.05-2.8 1.99-.92 4.16-1.6 6.29-1.97 1.9-.44 4.08-.63 6.61-.6l1.02.07c.75.05 1.47.1 2.18.15.62.03 1.22.15 1.81.27.34.07.67.13 1 .18 1.4.2 2.59.52 3.55.78.25.06.49.12.71.18l4.64 1.09-4.06-2.55z" fill="#030405"/><path d="M147.07 200.37c-.11-.02-.21-.04-.31-.07.1.03.19.04.31.07zm-.8-.18c-.1-.02-.19-.05-.28-.08l-.01.01s.11.03.29.07zm.57-.6c-.11-.02-.21-.04-.31-.07.1.03.19.04.31.07zm-.8-.18c-.1-.02-.19-.05-.28-.08l-.01.01s.11.03.29.07zm1.51.07l-.3-.06c.1.02.19.04.3.06zm-.77-.17c-.1-.02-.18-.05-.27-.08l-.01.01s.1.03.28.07z" fill="#be927b"/><path d="M140.81 201.88c-.24-3.2 8.91.67 11.92.76 2.4.08 9.6-.47 10.27-.73 5.03-1.88-.28 5.35-10.42 5.73-4.65.19-11.63-3.82-11.77-5.76z" fill="#f0d2ad"/><path d="M170.98 194.19c-5.81-1.08-18.03.08-18.03.08-10.09 1.67-17.98-.11-18.03-.04-.24.02 8.05 11.02 17.89 10.51 9.84.51 18.41-10.51 18.17-10.55z" fill="#c2646e"/><path d="M158.78 191.87c-2.62-.29-4.48 1.6-5.82 1.46-1.37.13-3.14-1.08-5.77-1.11-3.7-.04-5.51-.36-12.27 2.01.24.46 4.57 2.97 12.69 3.11.12 0 2.3 1.23 5.39 1.21 1.94-.01 4.6-1.3 4.71-1.3 8.13-.13 13.1-2.55 13.33-3-8.95-2.77-8.24-2.42-12.26-2.38z" fill="#d87475"/><path d="M214.81 280.16h-9.34c-2.17 0-3.86 1.85-3.68 4.01.1 1.2.18 2.42.25 3.66.1 1.86.18 3.75.22 5.7.06 1.86.08 3.77.08 5.74 0 0-.37.19-1.13.7H106.8c-.76-.51-1.15-.7-1.15-.7 0-1.97.02-3.88.08-5.74.04-1.95.12-3.84.22-5.7.06-1.24.15-2.46.25-3.66a3.692 3.692 0 0 0-3.68-4.01h-9.47c.44-2.61.95-5.08 1.55-7.39h6.41c4.62 0 5.3-6.97.72-7.55a6.11 6.11 0 0 0-.86-.06H96.9c.19-.47.35-.94.54-1.4.8-2.03 1.66-3.93 2.57-5.7 7.98-15.49 19.58-20.84 25.28-22.61 0 .21-.02.41-.02.62 0 5.21 3.71 9.9 9.63 13.15 1.71.96 3.6 1.79 5.64 2.47 1.99.67 4.13 1.21 6.38 1.58 2.2.39 4.5.62 6.89.68a49.715 49.715 0 0 0 6.69-.27c1.91-.2 3.74-.53 5.51-.97 1.98-.45 3.87-1.04 5.62-1.74 7.92-3.17 13.14-8.56 13.27-14.69 6.17 2.4 15.96 8.2 22.96 21.78.9 1.77 1.77 3.67 2.57 5.7.19.46.37.93.53 1.4h-3.84c-.29 0-.58.02-.86.06-4.59.58-3.9 7.55.72 7.55h6.31c.6 2.31 1.11 4.78 1.52 7.39z" fill="#e9acce"/><path d="M160.5 253.68v46.29h-13.58v-46.7c2.2.39 4.5.62 6.89.68a49.715 49.715 0 0 0 6.69-.27z" fill="#d16fac"/><path d="M140.54 251.69v48.28h-5.64v-50.75c1.71.96 3.6 1.79 5.64 2.47zm31.09-.72v49h-5.62v-47.26c1.98-.45 3.87-1.04 5.62-1.74zm-77.03 21.8l-7.38-12.51 10.22 3.5s8.31-4.02 10.23 1.66c1.23 3.64-1.78 7.35-5.62 7.35H94.6zm118.73 0l7.38-12.51-10.22 3.5s-8.31-4.02-10.23 1.66c-1.23 3.64 1.78 7.35 5.62 7.35h7.45z" fill="#b55d98"/><path d="M216 62.544c-6.53-5.975-14.8-8.108-14.8-8.108S182.92 45.46 169 39.054c-13.92-6.398-36.56-1.277-48.31 1.709-11.75 2.989-25.75 19.378-30.09 28.344-4.35 8.977-15.17 28.45-18.64 42.533-3.48 14.09 8.22 27.76 15.51 30.68 4.74 1.9 5.05 12.84 5.05 12.84l5.19 2.26s-.5-14.22 5.36-26.99c3.84 9.71 14.35 17.9 14.35 17.9-4.82-8.67-6.72-15.14-7.12-19.9 8.44 2.81 15.93 3.78 22.56 3.39-2.77 2.22-6.03 4.03-9.9 5.14 0 0 10.39 2.92 24.54-8.55 1.11-.48 2.2-.98 3.24-1.54-2.19 7.1-6.41 14.11-14.29 18.41 0 0 19.22 1.08 33.04-33.54-.06 14.27 4.91 28.67 4.91 28.67 1.29-27.7 8.81-38.3 14.69-42.339 3.87 15.689 17.09 30.619 17.09 30.619-3.97-11.48-5.58-20.39-5.82-27.31 14.38 19.06 10.14 49.48 10.14 49.48l6.55 2.61c-.1-1.74.09-3.65.44-5.63 1.07-2.07 2.99-4.45 6.46-6.33 6.22-3.39 7.8-14.9 7.8-19.66 0-31.796-9.22-53.326-15.75-59.306z" fill="#36393a"/><path d="M100.82 150.52c-.65-2.16-1.14-4.77-1.37-7.94-.03-.33-.05-.66-.06-.97.57-2.55 1.32-5.24 2.33-7.92.61-.59 1.34-1.06 2.16-1.43 1.73 3.56 4.24 6.84 6.63 9.49.71 1.63 1.52 3.27 2.43 4.78-4.23.94-8.25 2.31-12 3.94-.04.02-.08.04-.12.05z" fill="#da9ea4"/><path d="M112.94 146.53c-.91-1.51-1.72-3.15-2.43-4.78a60.33 60.33 0 0 0 4.37 4.39c-.65.12-1.3.25-1.94.39z" fill="#e8c1db"/><path d="M141.77 148.38c-1.28-.49-2.57-.91-3.85-1.28v-1.9c1.13-.13 2.88-.46 5.03-1.29-.1.63-.23 1.28-.39 1.95-.22.89-.49 1.72-.79 2.52zm-3.86-3.96c-.04-2.96-.17-6.46-.5-9.71.76-.33 1.54-.71 2.34-1.13l.05.05c.39.39.91.59 1.43.59h.11c.57.42.96.87 1.11 1.35.44 1.41.72 2.91.77 4.55a27.648 27.648 0 0 1-5.31 4.3z" fill="#da9ea4"/><path d="M137.07 146.87c-1.87-.5-3.72-.87-5.55-1.13.85-1.3 1.34-2.86 1.34-4.52 0-1.68-.5-3.24-1.35-4.54a29.6 29.6 0 0 0 3.96-1.18c.78 2.43 1.23 5.92 1.48 9.49-.16.1-.33.19-.5.29h.19c.09 0 .2 0 .33-.01.04.53.07 1.07.1 1.6zm-20.94-.94c-2.3-4.44-3.8-8.26-4.71-11.53 2.34-1.81 4.56-3.04 6.62-3.84 4.25.92 8.24 1.34 11.97 1.34.9 0 1.78-.02 2.65-.07.03.02.07.04.1.06-1.11.89-2.3 1.7-3.57 2.44a8.237 8.237 0 0 0-4.62-1.41 8.299 8.299 0 0 0-6.98 12.79c-.49.06-.98.14-1.46.22z" fill="#e8c1db"/><path d="M137.92 147.1c-.28-.08-.57-.15-.85-.23-.03-.53-.06-1.07-.1-1.6.24-.01.56-.03.95-.07v1.9zm-.97-2.11c-.25-3.57-.7-7.06-1.48-9.49.63-.23 1.27-.49 1.94-.79.33 3.25.46 6.75.5 9.71-.32.2-.63.39-.96.57zm-25.53-10.59c-.36-1.31-.63-2.53-.83-3.66.57-.07 1.15-.14 1.74-.21 1.43-.15 2.83-.25 4.18-.32.52.13 1.02.24 1.53.35-2.06.8-4.28 2.03-6.62 3.84zm21.34-2.51c-.03-.02-.07-.04-.1-.06.06-.01.13-.01.2-.01l-.1.07z" fill="#d498a1"/><path d="M131.52 145.74a55.56 55.56 0 0 0-3.33-.37c.13-.11.21-.26.22-.44a.633.633 0 0 0-.14-.46c.4-.67.67-1.44.73-2.27.17-2.13-.98-4.11-2.67-4.91 1.36 0 3.12-.15 5.18-.61.85 1.3 1.35 2.86 1.35 4.54 0 1.66-.49 3.22-1.34 4.52zm-13.93-.03a8.299 8.299 0 0 1 6.98-12.79c1.71 0 3.3.52 4.62 1.41a28.185 28.185 0 0 1-6.23 2.63s.2.06.59.12c-.86.26-1.64.79-2.23 1.51h-.07c-.89 0-1.63.57-1.69 1.34-.04.5.21.96.63 1.27l-.03.27a5.18 5.18 0 0 0 1.29 3.86c-1.3.08-2.59.21-3.86.38z" fill="#794049"/><path d="M121.45 145.33a5.18 5.18 0 0 1-1.29-3.86l.03-.27c.27.19.61.32.98.35v.01c-.13 1.6.71 2.98 1.8 3.7-.51.02-1.02.04-1.52.07zm5.4-.04c-.18 0-.36-.01-.54-.02.13-.08.26-.17.38-.27.03.11.09.21.16.29zm1.42-.82c-.14-.19-.38-.32-.67-.35h-.07c.38-.56.65-1.23.71-1.98.18-2.25-1.54-4.09-3.21-4.23-.07-.01-.14-.01-.21-.01-.83 0-1.72.39-2.41 1.06-.27-.2-.61-.33-.99-.36-.04 0-.07-.01-.1-.01.59-.72 1.37-1.25 2.23-1.51.54.1 1.47.21 2.71.21h.07c1.69.8 2.84 2.78 2.67 4.91-.06.83-.33 1.6-.73 2.27z" fill="#9d4d53"/><path d="M126.31 145.27c-.59-.02-1.18-.03-1.76-.03h-.04c-.51 0-1.03.01-1.54.02-1.09-.72-1.93-2.1-1.8-3.7v-.01c.06.01.12.01.17.01.89 0 1.63-.57 1.7-1.34.04-.49-.21-.95-.63-1.26.69-.67 1.58-1.06 2.41-1.06.07 0 .14 0 .21.01 1.67.14 3.39 1.98 3.21 4.23-.06.75-.33 1.42-.71 1.98h-.01c-.44 0-.81.29-.85.67 0 .07.01.14.02.21-.12.1-.25.19-.38.27z" fill="#5f3e49"/><path d="M121.34 141.56c-.05 0-.11 0-.17-.01-.37-.03-.71-.16-.98-.35-.42-.31-.67-.77-.63-1.27.06-.77.8-1.34 1.69-1.34h.07c.03 0 .06.01.1.01.38.03.72.16.99.36.42.31.67.77.63 1.26-.07.77-.81 1.34-1.7 1.34zm6.85 3.81c-.45-.03-.89-.06-1.34-.08a.748.748 0 0 1-.16-.29c-.01-.07-.02-.14-.02-.21.04-.38.41-.67.85-.67h.08c.29.03.53.16.67.35.1.13.16.29.14.46-.01.18-.09.33-.22.44z" fill="#e8c1db"/><path d="M141.23 134.22c-.52 0-1.04-.2-1.43-.59l-.05-.05c.09-.05.18-.1.27-.14.5.24.95.5 1.32.78h-.11z" fill="#4f3545"/><path d="M114.88 146.14a60.33 60.33 0 0 1-4.37-4.39c-2.39-2.65-4.9-5.93-6.63-9.49 1.82-.83 4.12-1.21 6.71-1.52.2 1.13.47 2.35.83 3.66.91 3.27 2.41 7.09 4.71 11.53-.42.06-.84.14-1.25.21zm21.76-.86h-.19c.17-.1.34-.19.5-.29a27.648 27.648 0 0 0 6.27-4.87c.03 1.18-.05 2.44-.27 3.79-2.15.83-3.9 1.16-5.03 1.29-.39.04-.71.06-.95.07-.13.01-.24.01-.33.01zm-37.25-3.67c-.15-3.95.71-6.37 2.33-7.92-1.01 2.68-1.76 5.37-2.33 7.92zm26.87-4.32c-1.24 0-2.17-.11-2.71-.21-.39-.06-.59-.12-.59-.12 2.28-.66 4.35-1.55 6.23-2.63 1.27-.74 2.46-1.55 3.57-2.44l.1-.07c-.07 0-.14 0-.2.01-.87.05-1.75.07-2.65.07-3.73 0-7.72-.42-11.97-1.34-.51-.11-1.01-.22-1.53-.35 1.29-.06 2.54-.09 3.74-.09 3.2 0 6.03.2 8.26.41 2.81.33 8.3 1.33 11.51 2.91-.09.04-.18.09-.27.14-.8.42-1.58.8-2.34 1.13-.67.3-1.31.56-1.94.79a29.6 29.6 0 0 1-3.96 1.18c-2.06.46-3.82.61-5.18.61h-.07z" fill="#6c4f62"/><path d="M165.2 150.12c-.63-1.28-1.15-2.7-1.54-4.26-1.01-4.12-.79-7.4.11-10.29.17-.55.65-1.05 1.34-1.52.26.11.53.17.82.17.54 0 1.05-.21 1.43-.59l.01-.02c.08-.08.52-.51 1.3-1.16.28-.09.57-.18.86-.26-.77 5.84-.76 13.15-.7 16.6-1.19.4-2.35.83-3.49 1.27-.05.02-.1.04-.14.06zm40.88-2.32c-.12-.04-.24-.07-.36-.11a.689.689 0 0 1-.08-.03c-3.93-1.2-7.81-1.92-11.61-2.23 3.07-5.29 4.99-11.94 5.56-14.06 4.84 1.09 7.77 3.47 7.18 11.21-.14 1.94-.38 3.67-.69 5.22z" fill="#e1a9af"/><path d="M169.56 148.55c.19-6.1.84-13.16 2.66-15.86.69 2.86 1.35 5.11 1.76 6.42-.08.46-.12.94-.12 1.42 0 2.42 1.04 4.6 2.7 6.12-2.4.52-4.74 1.16-7 1.9zm24.47-3.12c-1.54-.13-3.07-.19-4.58-.19h-.47a8.199 8.199 0 0 0 1.47-4.71c0-4.58-3.71-8.29-8.29-8.29-3.37 0-6.27 2.01-7.57 4.89.15-2.19.34-4.26.56-6.22.97-.17 1.85-.29 2.56-.38 2.23-.21 5.04-.41 8.24-.41 1.13 0 2.31.03 3.53.08 2.66 1.15 5.55 3.03 8.63 5.91.73-2.07 1.22-3.81 1.46-4.74h.02c-.57 2.12-2.49 8.77-5.56 14.06z" fill="#e8c1db"/><path d="M168.83 148.79c-.06-3.45-.07-10.76.7-16.6.79-.24 1.61-.45 2.42-.64.09.39.18.77.27 1.14-1.82 2.7-2.47 9.76-2.66 15.86-.25.08-.49.16-.73.24zm29.28-12.68c-3.08-2.88-5.97-4.76-8.63-5.91 1.42.07 2.89.17 4.41.33 2.08.24 4 .46 5.68.84-.24.93-.73 2.67-1.46 4.74z" fill="#d498a1"/><path d="M176.56 146.65a8.276 8.276 0 0 1-2.7-6.12c0-.48.04-.96.12-1.42.26.84.42 1.3.42 1.3.06-1.12.12-2.21.19-3.28 1.3-2.88 4.2-4.89 7.57-4.89 4.58 0 8.29 3.71 8.29 8.29 0 1.75-.54 3.38-1.47 4.71a60.6 60.6 0 0 0-4.69.23c1.47-.9 2.43-2.73 2.27-4.69l-.03-.27c.42-.3.68-.77.64-1.26-.07-.77-.81-1.34-1.69-1.34h-.08c-.84-1.03-2.05-1.68-3.34-1.68-.11 0-.21.01-.32.02-2.4.19-4.23 2.61-4.02 5.26.07.83.33 1.61.73 2.27-.1.14-.16.3-.14.47.03.38.4.66.84.66h.09c.04 0 .08-.01.12-.02.47.44 1.02.77 1.6.97-1.49.21-2.95.48-4.4.79z" fill="#794049"/><path d="M180.96 145.86c-.58-.2-1.13-.53-1.6-.97.33-.06.59-.29.67-.57.64.5 1.39.78 2.09.78.08 0 .15 0 .22-.01 1.66-.14 3.39-1.97 3.21-4.22.37-.03.71-.16.98-.36l.03.27c.16 1.96-.8 3.79-2.27 4.69-1.12.1-2.23.23-3.33.39zm-2.51-2.08c-.4-.66-.66-1.44-.73-2.27-.21-2.65 1.62-5.07 4.02-5.26.11-.01.21-.02.32-.02 1.29 0 2.5.65 3.34 1.68h-.09c-.38.04-.73.17-1 .37-.69-.67-1.58-1.07-2.41-1.07-.07 0-.14.01-.21.01-1.67.15-3.39 1.98-3.21 4.23.06.76.33 1.43.72 1.98-.03.01-.05.01-.08.01-.28.02-.52.15-.67.34z" fill="#9d4d53"/><path d="M182.12 145.1c-.7 0-1.45-.28-2.09-.78.02-.07.02-.14.02-.22-.03-.38-.4-.67-.84-.67h-.01c-.39-.55-.66-1.22-.72-1.98-.18-2.25 1.54-4.08 3.21-4.23.07 0 .14-.01.21-.01.83 0 1.72.4 2.41 1.07-.41.3-.66.76-.62 1.26.06.76.8 1.34 1.69 1.34.06 0 .11-.01.17-.01.18 2.25-1.55 4.08-3.21 4.22-.07.01-.14.01-.22.01z" fill="#5f3e49"/><path d="M185.38 140.88c-.89 0-1.63-.58-1.69-1.34-.04-.5.21-.96.62-1.26.27-.2.62-.33 1-.37h.17c.88 0 1.62.57 1.69 1.34.04.49-.22.96-.64 1.26-.27.2-.61.33-.98.36-.06 0-.11.01-.17.01zm-6.23 4.03c-.44 0-.81-.28-.84-.66-.02-.17.04-.33.14-.47.15-.19.39-.32.67-.34.03 0 .05 0 .08-.01h.01c.44 0 .81.29.84.67 0 .08 0 .15-.02.22-.08.28-.34.51-.67.57-.04.01-.08.02-.12.02h-.09z" fill="#e8c1db"/><path d="M165.93 134.22c-.29 0-.56-.06-.82-.17.9-.6 2.16-1.14 3.56-1.6a21.1 21.1 0 0 0-1.3 1.16l-.01.02c-.38.38-.89.59-1.43.59z" fill="#4f3545"/><path d="M174.4 140.41s-.16-.46-.42-1.3c-.41-1.31-1.07-3.56-1.76-6.42-.09-.37-.18-.75-.27-1.14 1.11-.26 2.2-.47 3.2-.64-.22 1.96-.41 4.03-.56 6.22-.07 1.07-.13 2.16-.19 3.28z" fill="#6c4f62"/><path d="M118.29 161.8c-3.66 0-6.74-.49-8.34-.91-1.89-.55-6.66-2.19-9.13-10.37.04-.01.08-.03.12-.05 3.75-1.63 7.77-3 12-3.93 2 3.33 4.47 6.05 7.35 6.61 1.69.33 3.41.47 5.08.47 6.64 0 12.47-2.09 12.47-2.09v-.06h.01s.06-1.75.07-4.37c1.28.37 2.57.79 3.85 1.28-4.13 10.98-15.27 13.42-23.48 13.42z" fill="#d792a6"/><path d="M125.37 153.62c-1.67 0-3.39-.14-5.08-.47-2.88-.56-5.35-3.28-7.35-6.61.64-.15 1.29-.28 1.94-.4 1.52 1.39 2.54 2.19 2.54 2.19-.46-.82-.89-1.62-1.29-2.4.48-.08.97-.16 1.46-.22a8.29 8.29 0 0 0 6.98 3.8c2.91 0 5.47-1.5 6.95-3.77 1.83.26 3.68.63 5.55 1.13.08 1.66.13 3.31.15 4.84.38-.16.57-.22.62-.24v.06s-5.83 2.09-12.47 2.09z" fill="#e1abce"/><path d="M137.22 151.71c-.02-1.53-.07-3.18-.15-4.84.28.08.57.15.85.23-.01 2.62-.07 4.37-.07 4.37h-.01c-.05.02-.24.08-.62.24z" fill="#d38fa4"/><path d="M124.57 149.51a8.29 8.29 0 0 1-6.98-3.8c1.27-.17 2.56-.3 3.86-.38.71.79 1.67 1.32 2.73 1.41.11.01.21.01.32.01 1.06 0 2.07-.44 2.87-1.17.03.01.07.01.11.02h.09c.24 0 .46-.09.62-.23 1.1.09 2.21.21 3.33.37a8.284 8.284 0 0 1-6.95 3.77z" fill="#8d4b5f"/><path d="M124.5 146.75c-.11 0-.21 0-.32-.01-1.06-.09-2.02-.62-2.73-1.41.5-.03 1.01-.05 1.52-.07.45.3.93.48 1.42.52.07.01.14.01.21.01.57 0 1.17-.19 1.71-.52.18.01.36.02.54.02.13.14.31.25.52.29-.8.73-1.81 1.17-2.87 1.17z" fill="#a95566"/><path d="M124.6 145.79c-.07 0-.14 0-.21-.01-.49-.04-.97-.22-1.42-.52.51-.01 1.03-.02 1.54-.02h.04c.58 0 1.17.01 1.76.03-.54.33-1.14.52-1.71.52z" fill="#774a5e"/><path d="M127.57 145.6h-.09c-.04-.01-.08-.01-.11-.02a.959.959 0 0 1-.52-.29c.45.02.89.05 1.34.08-.16.14-.38.23-.62.23z" fill="#e1abce"/><path d="M117.42 148.33s-1.02-.8-2.54-2.19c.41-.07.83-.15 1.25-.21.4.78.83 1.58 1.29 2.4z" fill="#835772"/><path d="M100.94 150.47c3.75-1.63 7.77-3 12-3.94v.01c-4.23.93-8.25 2.3-12 3.93z" fill="#d584a8"/><path d="M112.94 146.54v-.01c.64-.14 1.29-.27 1.94-.39-.65.12-1.3.25-1.94.4zm3.19-.61z" fill="#da93c0"/><path d="M121.45 145.33c.5-.03 1.01-.05 1.52-.07-.51.02-1.02.04-1.52.07z" fill="#b85e7f"/><path d="M114.88 146.14c.41-.07.83-.15 1.25-.21-.42.06-.84.14-1.25.21z" fill="#a06087"/><path d="M187.93 161.8c-7.75 0-18.12-2.18-22.73-11.68.04-.02.09-.04.14-.06 1.14-.44 2.3-.87 3.49-1.27.02 1.25.04 1.99.04 1.99s.01 0 .01.01c0 .04.01.06.01.06s5.82 2.08 12.46 2.08c1.67 0 3.39-.13 5.08-.46 3-.59 5.55-3.51 7.6-7.04 3.8.31 7.68 1.03 11.61 2.23.02.01.05.02.08.03.12.04.24.07.36.11-2.14 10.55-7.73 12.49-9.81 13.09-1.6.42-4.68.91-8.34.91z" fill="#dd9aae"/><path d="M181.35 152.93c-6.64 0-12.46-2.08-12.46-2.08s-.01-.02-.01-.06c.05.01.24.07.62.23.01-.8.03-1.62.06-2.47 2.26-.74 4.6-1.38 7-1.9a8.271 8.271 0 0 0 5.6 2.17c2.83 0 5.33-1.41 6.82-3.58h.47c1.51 0 3.04.06 4.58.19-2.05 3.53-4.6 6.45-7.6 7.04-1.69.33-3.41.46-5.08.46z" fill="#e1abce"/><path d="M169.5 151.02c-.38-.16-.57-.22-.62-.23 0-.01-.01-.01-.01-.01s-.02-.74-.04-1.99c.24-.08.48-.16.73-.24-.03.85-.05 1.67-.06 2.47z" fill="#d38fa4"/><path d="M182.16 148.82c-2.16 0-4.12-.82-5.6-2.17 1.45-.31 2.91-.58 4.4-.79.41.13.83.21 1.26.21.11 0 .22-.01.32-.02.63-.05 1.23-.25 1.75-.58a60.6 60.6 0 0 1 4.69-.23 8.248 8.248 0 0 1-6.82 3.58z" fill="#8d4b5f"/><path d="M182.22 146.07c-.43 0-.85-.08-1.26-.21 1.1-.16 2.21-.29 3.33-.39-.52.33-1.12.53-1.75.58-.1.01-.21.02-.32.02z" fill="#a95566"/><path d="M169.56 148.55zm19.42-3.31h.43-.43z" fill="#da93c0"/><path d="M168.83 148.79c.24-.08.48-.16.73-.24-.25.08-.49.16-.73.24z" fill="#d282a7"/><path d="M176.56 146.65zm7.73-1.18z" fill="#a7597a"/><path d="M206.77 142.58c-.14 1.94-.38 3.67-.69 5.22-2.14 10.55-7.73 12.49-9.81 13.09-5 1.32-24.28 3.22-31.07-10.77a21.13 21.13 0 0 1-1.54-4.26c-1.01-4.12-.79-7.4.11-10.29.9-2.83 10.02-4.58 13.94-5.04 3.93-.38 9.65-.68 16.18 0 8.06.92 13.68 1.6 12.88 12.05zm-64.21 3.28c-.22.89-.49 1.72-.79 2.52-5.98 15.89-26.62 13.89-31.82 12.51-1.89-.55-6.66-2.19-9.13-10.37-.65-2.16-1.14-4.77-1.37-7.94-.8-10.45 4.88-11.13 12.88-12.05 6.47-.68 12.25-.38 16.18 0 3.92.46 13.04 2.21 13.94 5.04.9 2.89 1.11 6.17.11 10.29zm72.48-16.24c-.37-.61-7.05-1.45-15.75-2.21-7.42-.61-19.24-.23-23.91.38-1.86.23-5.36.84-8.8 1.6-3.87.91-7.64 2.13-9.23 2.44-1.53.27-2.74.36-3.98.33v-.03l-.26.01-.27-.01v.03c-1.23.03-2.44-.06-3.97-.33-1.59-.31-5.36-1.53-9.23-2.44-3.45-.76-6.95-1.37-8.85-1.6-4.62-.61-16.44-.99-23.87-.38-8.69.76-15.37 1.6-15.75 2.21-.21.45-.74 6.1-.05 6.79.69.53 3.18 1.83 3.77 3.81.34 1.15 1.3 6.53 3.1 11.6 1.31 3.68 3.06 7.2 5.33 8.84 7.9 5.82 32.27 6.71 41.31-9.76 1.15-2.1 2.06-4.48 2.65-7.17.69-3.28 1.59-5.19 3.23-5.72.63-.21 1.62-.36 2.6-.38.98.02 1.97.17 2.6.38 1.64.53 2.54 2.44 3.29 5.72.63 2.94 1.65 5.51 2.95 7.75 9.25 15.87 33.14 14.93 40.95 9.18 2.88-2.07 4.9-7.17 6.26-11.79 1.19-4.05 1.87-7.72 2.17-8.65.59-1.98 3.08-3.28 3.77-3.81.69-.69.16-6.34-.06-6.79z" fill="#d16fac"/><path d="M205.96 60.132c-2.17-.382-10.48 7.309-13.98 12.132a4.613 4.613 0 0 0-2.84-.08c-.97.284-1.72.862-2.22 1.578-6.07-1.987-17.93-3.704-19.4-2.24-1.94 1.945 3.71 9.833 3.71 9.833s.85 9.311 3.72 9.832c2.17.386 10.47-7.305 13.97-12.129.88.31 1.88.377 2.85.089.97-.288 1.73-.867 2.22-1.586 6.07 1.987 17.93 3.702 19.39 2.235 1.95-1.944-3.7-9.831-3.7-9.831s-.85-9.314-3.72-9.833z" fill="#ca5681"/></g></svg>