<svg viewBox="0 0 298 301" xmlns="http://www.w3.org/2000/svg" fill-rule="evenodd" clip-rule="evenodd" stroke-linejoin="round" stroke-miterlimit="1.414"><g fill-rule="nonzero"><path fill="#cac6b3" d="M.31.39h296.86V300.1H.31z"/><path d="M149.05 187.47v112.62H88.31c-.99-.39-1.48-.6-1.48-.6 0-10.979 1.23-20.12 3.25-27.729a71 71 0 0 1 2.06-6.581c4.46-12.159 11.05-19.53 17.07-23.99 4.45-3.28 8.56-4.96 11.32-5.83 2.14-.68 3.46-.82 3.46-.82.24 0 .45-.02.68-.06.24-.04.47-.1.7-.19 1.6-.55 2.92-2.12 4.01-4.44.92-1.98 1.68-4.51 2.32-7.41.25-1.15.45-2.28.64-3.52.31-2.09.6-4.28.84-6.56.11-1.38.25-2.71.42-4.15.53-6.9.67-14.45.67-21.59 0 0 8.15.85 14.78.85z" fill="#e0bd9a"/><path d="M211.51 299.49s-.53.21-1.44.6h-61.02V187.47h.14c6.58 0 14.83-.85 14.83-.85 0 7.1.15 14.55.68 21.44.17 1.34.31 2.72.41 4.05.25 2.39.54 4.63.89 6.71v.04c.1.95.29 1.79.45 2.68.6 2.94 1.32 5.51 2.2 7.57 1.09 2.57 2.41 4.36 4.04 5.08.49.23 1.05.35 1.62.35 0 0 .1 0 .27.04.72.1 2.76.5 5.55 1.61 3.25 1.29 7.49 3.49 11.81 7.28v.02c5.21 4.55 10.5 11.42 14.26 21.69a71 71 0 0 1 2.06 6.581c2.02 7.609 3.25 16.75 3.25 27.729z" fill="#efd0ad"/><path d="M166 218.61v.05c-1.53 2.36-6.67 9.16-16.85 9.16h-.1c-9.64-.05-15.27-7.05-16.7-9.12.3-2.06.59-4.23.84-6.5.1-1.33.25-2.71.39-4.14 4.7 1.19 9.84 1.92 15.27 2.02h.2c5.63-.1 10.82-.88 15.66-2.16.15 1.33.3 2.71.4 4.04.25 2.36.54 4.58.89 6.65z" fill="#be987f"/><path d="M148.36 59.13c-64.34 0-64.68 53.95-61.82 89.27-4.4-8.37-17.49-5.81-16.4 7.39 1.03 12.71 19.74 19.19 19.22 17.79 9.74 26.12 35.53 45.81 59 45.81h.49V59.13h-.49z" fill="#d2a686"/><path d="M74.24 150.22c3.16-5.12 8.1-2.9 9.29-1.77 1.28 1.23 2.32 2.81 1.53 5.81-.44 1.73-2.22 1.88-1.83 4.44.5 2.9 1.83 3.05 2.62 3.74.74.64 1.68 1.14 2.13 2.37.49 1.23.54 2.51.29 3.64-.49 2.07-3.51.4-5.53-.49-1.34-.64-5.59-4.24-6.67-5.42-2.67-3.05-3.96-8.97-1.83-12.32z" fill="#ac8774"/><path d="M148.7 59.13c64.34 0 64.69 53.95 61.87 89.27 4.4-8.37 17.44-5.81 16.36 7.39-.99 12.71-19.74 19.19-19.23 17.79-9.49 26.12-35.52 45.81-59 45.81h-.34l-.15-160.26h.49z" fill="#ddb598"/><path d="M222.82 150.22c-3.16-5.12-8.05-2.9-9.29-1.77-1.28 1.23-2.27 2.81-1.53 5.81.45 1.73 2.23 1.88 1.83 4.44-.49 2.9-1.83 3.05-2.57 3.74-.74.64-1.73 1.14-2.17 2.37-.45 1.23-.55 2.51-.3 3.64.49 2.07 3.51.4 5.54-.49 1.38-.64 5.58-4.24 6.67-5.42 2.71-3.05 3.95-8.97 1.82-12.32z" fill="#ac8774"/><path d="M147.85 74.35c-21.15 0-36.66 6.16-46 18.28-13.1 17-12.6 42.91-7.81 61.54 1.48 5.71 2.27 21.03 3.26 26.65 4.6 25.17 32.32 38.57 50.55 38.57h.5V74.35h-.3" fill="#e0bd9a"/><path d="M193.81 92.68c-9.29-12.07-24.61-18.23-45.46-18.33v145.04c20.85-.24 45.8-14.92 50.05-38.57 1.04-5.62 1.78-20.94 3.26-26.65 4.85-18.58 5.34-44.44-7.85-61.49z" fill="#efd0ad"/><path d="M144.97 193.68l-.3-.06c.1.02.19.04.3.06zm-.78-.17c-.1-.03-.18-.05-.27-.08l-.01.01s.1.02.28.07z" fill="#bc917b"/><path d="M136.34 174.87c-.24-5.01 9.18-1.83 12.29-1.68 2.45.13 9.92-1.58 10.56-1.14 4.4 2.97-4.65 8.96-10.72 8.96-1.61 0-11.98-3.12-12.13-6.14z" fill="#ddb598"/><path d="M130.38 74.72l-.26.26.04.09c.09-.13.14-.26.22-.35z" fill="#432e1b"/><path d="M145.15 190.74zm-.81-.18c-.09-.02-.18-.05-.28-.08l-.01.01s.11.03.29.07z" fill="#ba907b"/><path d="M102.19 130.96s4.91 20.2 13.34 21.85c8.42 1.65 17.54-1.63 17.54-1.63s.88-23.74-3.44-26.84c-4.31-3.11-14.25-7.61-27.44 6.62z" fill="#fff"/><path d="M133.09 151.12s-.2.06-.63.24c-.11-7.28-.78-17.28-3.47-19.2-4.01-2.94-13.06-7.08-25.14 4.24-1.1-3.13-1.65-5.5-1.65-5.5 13.21-14.26 23.16-9.77 27.44-6.65 4.32 3.11 3.45 26.87 3.45 26.87z" fill="#d6b496"/><path d="M128.1 140.83c0 4.6-3.72 8.32-8.3 8.32s-8.29-3.72-8.29-8.32c0-4.59 3.71-8.32 8.29-8.32 4.58 0 8.3 3.73 8.3 8.32z" fill="#482315"/><path d="M119.42 146.37c-2.4-.19-4.24-2.62-4.02-5.28.22-2.67 2.42-4.75 4.82-4.55 2.4.19 4.23 2.62 4.02 5.28-.22 2.67-2.43 4.76-4.82 4.55z" fill="#7e3a22"/><path d="M119.62 145.41c-1.66-.14-3.39-1.97-3.21-4.23.19-2.27 2.19-3.8 3.86-3.66 1.67.14 3.39 1.98 3.21 4.24-.19 2.26-2.19 3.79-3.86 3.65z" fill="#211a10"/><path d="M118.27 139.84c-.06.82-.9 1.41-1.86 1.33-.96-.08-1.68-.81-1.62-1.62.07-.82.9-1.42 1.86-1.34.97.08 1.69.81 1.62 1.63zm5.38 4.72c-.03.41-.45.71-.93.67-.48-.04-.84-.41-.81-.81.04-.41.45-.71.93-.67.48.04.85.4.81.81z" fill="#fff"/><path d="M145.28 193.12c-.11-.02-.21-.04-.31-.06.1.02.19.04.31.06zm-.81-.18c-.09-.02-.18-.05-.27-.07h-.01s.1.03.28.07z" fill="#ba907b"/><path d="M144.9 192.55c-.11-.02-.22-.04-.33-.07.11.03.2.05.33.07zm-.86-.19c-.1-.03-.2-.06-.3-.08h-.01s.11.03.31.08zm.61-.65zm-.86-.2c-.1-.02-.2-.05-.3-.08l-.01.01s.12.03.31.07zm1.63.08c-.1-.02-.21-.04-.32-.07.11.03.2.05.32.07zm-.83-.18c-.1-.03-.19-.06-.29-.08h-.01l.3.08z" fill="#bc917b"/><path d="M195 130.28s-4.9 20.2-13.33 21.84c-8.43 1.65-17.55-1.63-17.55-1.63s-.87-23.73 3.45-26.83c4.31-3.12 14.25-7.62 27.43 6.62z" fill="#fff"/><path d="M164.11 150.43s.19.06.63.24c.11-7.28.78-17.28 3.47-19.2 4.01-2.94 13.05-7.08 25.14 4.25 1.1-3.13 1.65-5.51 1.65-5.51-13.21-14.26-23.16-9.77-27.44-6.65-4.32 3.11-3.45 26.87-3.45 26.87z" fill="#d6b496"/><path d="M169.1 140.15c0 4.59 3.71 8.32 8.29 8.32 4.58 0 8.3-3.73 8.3-8.32 0-4.6-3.72-8.32-8.3-8.32s-8.29 3.72-8.29 8.32z" fill="#482315"/><path d="M177.78 145.69c2.39-.2 4.23-2.63 4.01-5.29-.21-2.67-2.42-4.75-4.81-4.55-2.4.2-4.23 2.62-4.02 5.28.21 2.67 2.43 4.76 4.82 4.56z" fill="#7e3a22"/><path d="M177.57 144.73c1.67-.15 3.4-1.98 3.22-4.24-.19-2.27-2.19-3.8-3.86-3.66-1.67.14-3.39 1.98-3.21 4.24.18 2.27 2.19 3.79 3.85 3.66z" fill="#211a10"/><path d="M178.92 139.15c.07.82.91 1.41 1.87 1.34.96-.09 1.68-.82 1.61-1.63-.07-.82-.9-1.42-1.86-1.34-.96.08-1.68.81-1.62 1.63zm-5.37 4.73c.03.4.45.7.93.66.48-.04.84-.4.81-.81-.04-.41-.46-.71-.93-.67-.48.04-.85.41-.81.82z" fill="#fff"/><path d="M138.14 130.64c-.07-.1-1.6-2.43-4.72-4.83-1.96-1.51-3.88-2.66-5.87-3.51a30.548 30.548 0 0 0-7.55-2.09c-2.29-.25-4.82-.19-7.77.21-2.26.43-4.46 1.11-6.32 1.93-1.33.46-2.38 1.11-3.23 1.63-.32.19-.61.37-.91.54l-4.03 2.53 4.64-1.09c.22-.05.45-.12.7-.18.96-.26 2.16-.58 3.56-.78.33-.05.66-.12 1-.18.58-.12 1.19-.24 1.82-.27.7-.05 1.43-.1 2.18-.15l.97-.08c2.57-.03 4.74.17 6.67.61 2.11.37 4.27 1.05 6.26 1.97 1.87.9 3.67 1.8 5.07 2.83 2.84 1.9 4.41 3.48 4.43 3.49.39.4.91.6 1.43.6.38 0 .76-.11 1.1-.33.93-.61 1.19-1.88.6-2.79l-.03-.06zm57.69-6.14c-.26-.15-.56-.33-.88-.53-.85-.51-1.9-1.16-3.19-1.6-1.9-.84-4.1-1.52-6.38-1.95-2.93-.4-5.46-.46-7.76-.21-2.51.35-5.12 1.07-7.54 2.09-1.96.84-3.94 2.02-5.87 3.51-3.06 2.36-4.59 4.65-4.71 4.82l-.03.05c-.51.8-.4 1.87.27 2.54.38.39.89.6 1.43.6.54 0 1.04-.21 1.42-.6l.02-.01c.15-.15 1.68-1.65 4.43-3.5 1.38-1.01 3.18-1.91 5.05-2.81 1.99-.92 4.16-1.6 6.29-1.97 1.9-.44 4.07-.63 6.61-.61l1.02.08c.74.05 1.47.1 2.17.15.63.03 1.23.15 1.81.27.34.06.68.13 1 .18 1.4.2 2.6.52 3.56.78.25.06.48.13.71.18l4.63 1.09-4.06-2.55z" fill="#030405"/><path d="M143.82 195.51l-.32-.06c.1.02.2.04.32.06zm-.84-.18l-.29-.09-.01.01.3.08z" fill="#be927b"/><path d="M137.06 201.25c-.24-3.2 8.91.67 11.92.76 2.4.08 9.6-.48 10.26-.73 5.04-1.88-.27 5.35-10.41 5.73-4.65.19-11.63-3.82-11.77-5.76z" fill="#f0d2ad"/><path d="M167.23 193.56c-5.81-1.09-18.03.07-18.03.07-10.09 1.68-17.98-.1-18.04-.04-.24.03 8.06 11.03 17.9 10.52 9.84.51 18.41-10.52 18.17-10.55z" fill="#c2646e"/><path d="M155.03 191.24c-2.62-.29-4.48 1.6-5.82 1.46-1.37.12-3.14-1.09-5.77-1.11-3.7-.04-5.51-.36-12.28 2 .25.47 4.58 2.98 12.7 3.12.12 0 2.3 1.23 5.39 1.21 1.94-.01 4.6-1.31 4.71-1.31 8.13-.12 13.1-2.54 13.32-2.99-8.94-2.77-8.23-2.42-12.25-2.38z" fill="#d87475"/><path d="M191.94 243.47v.02l-20.14 22.9-.06.06-22.53 25.64-.16-.21-20.95-26.68-.1-.11-18.79-23.9c4.45-3.28 8.56-4.96 11.32-5.83 2.14-.68 3.46-.82 3.46-.82.24 0 .45-.02.68-.06.24-.04.47-.1.7-.19 4.77 8.25 13.08 21.4 23.68 21.92h.04c7.51.321 16.05-9.24 25.49-21.63.72.1 2.76.5 5.55 1.61 3.25 1.29 7.49 3.49 11.81 7.28z" fill="#6b557b"/><path d="M202.79 277.79c-.02 10.16.26 17.81.53 22.3H97.55c.27-4.49.58-12.14.55-22.3 0-1.94 0-3.93-.02-6.029h-8a71 71 0 0 1 2.06-6.581c4.46-12.159 11.05-19.53 17.07-23.99l18.79 23.9.1.11c5.47 6.91 13.13 10.61 20.95 11 8.21.41 16.56-2.79 22.69-9.75l.06-.06 20.14-22.9c5.21 4.55 10.5 11.42 14.26 21.69a71 71 0 0 1 2.06 6.581h-5.43c-.02 2.099-.04 4.089-.04 6.029z" fill="#433151"/><path d="M99.52 215.32l-7.59-1.1-2.55-5.16v-30.07c1.58-.38 2.76-1.8 2.76-3.5 0-1.99-1.62-3.61-3.61-3.61-1.99 0-3.61 1.62-3.61 3.61 0 1.7 1.18 3.12 2.76 3.5v30.07l-2.55 5.16-7.59 1.1 5.49 5.36-1.29 7.56 6.79-3.57 6.79 3.57-1.29-7.56 5.49-5.36zm118.65 0l-7.6-1.1-2.55-5.16v-30.07c1.59-.38 2.77-1.8 2.77-3.5a3.615 3.615 0 1 0-7.23 0c0 1.7 1.18 3.12 2.76 3.5v30.07l-2.54 5.16-7.6 1.1 5.5 5.36-1.3 7.56 6.79-3.57 6.8 3.57-1.3-7.56 5.5-5.36z" fill="#fff"/><path d="M234.83 63.65s-4.27 6.9-18.99 1.52c-14.39-5.24-14.02-22.34-34.69-31.87-10.55-4.87-16.87-4.26-20.54-2.49 3.72-3.33 11.3-3.04 11.3-3.04s-9.4-5.72-23.94-.59c-7.95 2.8-9.71 3.43-12.66 4.04-1.8.38-3.66-.36-4.78-1.91-3.23-4.46-8.4-6.82-13.58-6.04-3.12.47-6.1 1.2-8.77 2.29-17.85 7.23-32.47 19.66-42.78 53.02-10.32 33.35-1.94 61.24.06 72.89 6.31 36.92 46.72 72.88 46.72 72.88s-17.57-22.99-21-32.83c-.87-2.48-1.87-5.54-2.83-9.2 7.34 13.43 16.66 21.67 16.66 21.67-17.44-41.21 7.01-82.04 19.63-99.15 0 0 2.45-3.77 6.7-8.42 11.06-12.09 34.43-30.06 59.3-2.94 1 .98 1.95 2.07 2.84 3.25v.01c8.62 11.4 12.04 30.58 10.78 37.57-3.11 17.25 1.22 27.18 2.87 26.72 0 0 .07-4.39 1.57-8.29 4.45-11.63 8.18-3.54 8.87-19.32.79-18.46 3.4-25.21 2.57-35.07-.37-4.31-1.42-9.26-2.46-13.44-1.58-7.64.78-9.08 1.85-9.35.09-.02.17-.04.26-.05.13-.02.22-.02.22-.02l-.03-.02c9.53-1.8 14.85-11.82 14.85-11.82z" fill="#2b3233"/></g></svg>