<svg viewBox="0 0 298 301" xmlns="http://www.w3.org/2000/svg" fill-rule="evenodd" clip-rule="evenodd" stroke-linejoin="round" stroke-miterlimit="1.414"><g fill-rule="nonzero"><path fill="#f9ad3a" d="M.31.48h296.86v299.71H.31z"/><path d="M149.05 187.56v112.63H88.32c-.99-.4-1.48-.6-1.48-.6 0-14.38 2.1-25.59 5.3-34.33 7.73-21.09 21.89-27.79 28.4-29.81 2.14-.67 3.45-.83 3.45-.83.24 0 .45-.02.67-.05 1.91-.31 3.47-1.98 4.71-4.63.93-1.98 1.7-4.5 2.33-7.41.26-1.14.45-2.29.65-3.53.3-2.08.59-4.26.84-6.54.1-1.39.25-2.73.39-4.17.54-6.89.7-14.43.7-21.57 0 0 8.15.84 14.77.84z" fill="#e0bd9a"/><path d="M211.51 299.59s-.54.2-1.44.6h-61.02V187.56h.15c6.57 0 14.83-.84 14.83-.84 0 7.09.14 14.53.68 21.43.15 1.34.3 2.72.4 4.06.25 2.38.55 4.61.89 6.7v.04c.1.95.29 1.79.44 2.68.6 2.93 1.33 5.51 2.21 7.58 1.09 2.57 2.42 4.36 4.03 5.07.51.23 1.05.34 1.62.34 0 0 2.34.29 5.84 1.67 7.15 2.8 19.16 10.17 26.06 28.97 3.2 8.74 5.31 19.95 5.31 34.33z" fill="#efd0ad"/><path d="M166 218.7v.05c-1.53 2.36-6.67 9.16-16.85 9.16h-.1c-9.64-.05-15.27-7.05-16.7-9.12.3-2.06.59-4.23.84-6.5.1-1.33.25-2.71.39-4.14 4.7 1.19 9.84 1.92 15.27 2.02h.2c5.63-.1 10.82-.88 15.66-2.16.15 1.33.3 2.71.4 4.04.25 2.36.54 4.58.89 6.65z" fill="#be987f"/><path d="M148.36 59.22c-64.34 0-64.68 53.95-61.82 89.27-4.4-8.37-17.49-5.81-16.4 7.39 1.03 12.71 19.74 19.19 19.22 17.79 9.74 26.12 35.53 45.81 59 45.81h.49V59.22h-.49z" fill="#d2a686"/><path d="M74.24 150.31c3.16-5.12 8.1-2.9 9.29-1.77 1.28 1.23 2.32 2.81 1.53 5.81-.44 1.73-2.22 1.88-1.83 4.44.5 2.9 1.83 3.05 2.62 3.74.74.64 1.68 1.14 2.13 2.37.49 1.23.54 2.51.29 3.64-.49 2.07-3.51.4-5.53-.49-1.34-.64-5.59-4.24-6.67-5.42-2.67-3.05-3.96-8.97-1.83-12.32z" fill="#ac8774"/><path d="M148.7 59.22c64.34 0 64.69 53.95 61.87 89.27 4.4-8.37 17.44-5.81 16.36 7.39-.99 12.71-19.74 19.19-19.23 17.79-9.49 26.12-35.52 45.81-59 45.81h-.34l-.15-160.26h.49z" fill="#ddb598"/><path d="M222.82 150.31c-3.16-5.12-8.05-2.9-9.29-1.77-1.28 1.23-2.27 2.81-1.53 5.81.45 1.73 2.23 1.88 1.83 4.44-.49 2.9-1.83 3.05-2.57 3.74-.74.64-1.73 1.14-2.17 2.37-.45 1.23-.55 2.51-.3 3.64.49 2.07 3.51.4 5.54-.49 1.38-.64 5.58-4.24 6.67-5.42 2.71-3.05 3.95-8.97 1.82-12.32z" fill="#ac8774"/><path d="M147.85 74.44c-21.15 0-36.66 6.16-46 18.28-13.1 17-12.6 42.91-7.81 61.54 1.48 5.71 2.27 21.03 3.26 26.65 4.6 25.17 32.32 38.57 50.55 38.57h.5V74.44h-.3" fill="#e0bd9a"/><path d="M193.81 92.77c-9.29-12.07-24.61-18.23-45.46-18.33v145.04c20.85-.24 45.8-14.92 50.05-38.57 1.04-5.62 1.78-20.94 3.26-26.65 4.85-18.58 5.34-44.44-7.85-61.49z" fill="#efd0ad"/><path d="M144.97 193.77l-.3-.06c.1.02.19.04.3.06zm-.78-.17c-.1-.03-.18-.05-.27-.08l-.01.01s.1.02.28.07z" fill="#bc917b"/><path d="M136.34 174.96c-.24-5.01 9.18-1.83 12.29-1.68 2.45.13 9.92-1.58 10.56-1.14 4.4 2.97-4.65 8.96-10.72 8.96-1.61 0-11.98-3.12-12.13-6.14z" fill="#ddb598"/><path d="M130.38 74.81l-.26.26.04.09c.09-.13.14-.27.22-.35z" fill="#432e1b"/><path d="M145.15 190.83zm-.81-.18c-.09-.02-.18-.05-.28-.08l-.01.01s.11.03.29.07z" fill="#ba907b"/><path d="M102.19 131.05s4.91 20.2 13.34 21.85c8.42 1.65 17.54-1.63 17.54-1.63s.88-23.74-3.44-26.84c-4.31-3.11-14.25-7.61-27.44 6.62z" fill="#fff"/><path d="M133.09 151.21s-.2.06-.63.24c-.11-7.28-.78-17.28-3.47-19.2-4.01-2.94-13.06-7.08-25.14 4.24-1.1-3.13-1.65-5.5-1.65-5.5 13.21-14.26 23.16-9.77 27.44-6.65 4.32 3.11 3.45 26.87 3.45 26.87z" fill="#d6b496"/><path d="M128.1 140.92c0 4.6-3.72 8.32-8.3 8.32s-8.29-3.72-8.29-8.32c0-4.59 3.71-8.32 8.29-8.32 4.58 0 8.3 3.73 8.3 8.32z" fill="#482315"/><path d="M119.42 146.46c-2.4-.19-4.24-2.62-4.02-5.28.22-2.67 2.42-4.75 4.82-4.55 2.4.19 4.23 2.62 4.02 5.28-.22 2.67-2.43 4.76-4.82 4.55z" fill="#7e3a22"/><path d="M119.62 145.5c-1.66-.14-3.39-1.97-3.21-4.23.19-2.27 2.19-3.8 3.86-3.66 1.67.14 3.39 1.98 3.21 4.24-.19 2.26-2.19 3.79-3.86 3.65z" fill="#211a10"/><path d="M118.27 139.93c-.06.82-.9 1.41-1.86 1.33-.96-.08-1.68-.81-1.62-1.62.07-.82.9-1.42 1.86-1.34.97.08 1.69.81 1.62 1.63zm5.38 4.72c-.03.41-.45.71-.93.67-.48-.04-.84-.41-.81-.81.04-.41.45-.71.93-.67.48.04.85.4.81.81z" fill="#fff"/><path d="M145.28 193.21c-.11-.02-.21-.04-.31-.06.1.02.19.04.31.06zm-.81-.18c-.09-.02-.18-.05-.27-.07h-.01s.1.03.28.07z" fill="#ba907b"/><path d="M144.9 192.64c-.11-.02-.22-.04-.33-.07.11.03.2.05.33.07zm-.86-.19c-.1-.03-.2-.06-.3-.08h-.01s.11.03.31.08zm.61-.65zm-.86-.2c-.1-.02-.2-.05-.3-.08l-.01.01s.12.03.31.07zm1.63.08c-.1-.02-.21-.04-.32-.07.11.03.2.05.32.07zm-.83-.18c-.1-.03-.19-.06-.29-.08h-.01l.3.08z" fill="#bc917b"/><path d="M195 130.37s-4.9 20.2-13.33 21.84c-8.43 1.65-17.55-1.63-17.55-1.63s-.87-23.73 3.45-26.83c4.31-3.12 14.25-7.62 27.43 6.62z" fill="#fff"/><path d="M164.11 150.52s.19.06.63.24c.11-7.28.78-17.28 3.47-19.2 4.01-2.94 13.05-7.08 25.14 4.25 1.1-3.13 1.65-5.51 1.65-5.51-13.21-14.26-23.16-9.77-27.44-6.65-4.32 3.11-3.45 26.87-3.45 26.87z" fill="#d6b496"/><path d="M169.1 140.24c0 4.59 3.71 8.32 8.29 8.32 4.58 0 8.3-3.73 8.3-8.32 0-4.6-3.72-8.32-8.3-8.32s-8.29 3.72-8.29 8.32z" fill="#482315"/><path d="M177.78 145.78c2.39-.2 4.23-2.63 4.01-5.29-.21-2.67-2.42-4.75-4.81-4.55-2.4.2-4.23 2.62-4.02 5.28.21 2.67 2.43 4.76 4.82 4.56z" fill="#7e3a22"/><path d="M177.57 144.82c1.67-.15 3.4-1.98 3.22-4.24-.19-2.27-2.19-3.8-3.86-3.66-1.67.14-3.39 1.98-3.21 4.24.18 2.27 2.19 3.79 3.85 3.66z" fill="#211a10"/><path d="M178.92 139.24c.07.82.91 1.41 1.87 1.34.96-.09 1.68-.82 1.61-1.63-.07-.82-.9-1.42-1.86-1.34-.96.08-1.68.81-1.62 1.63zm-5.37 4.73c.03.4.45.7.93.66.48-.04.84-.4.81-.81-.04-.41-.46-.71-.93-.67-.48.04-.85.41-.81.82z" fill="#fff"/><path d="M138.14 130.73c-.07-.1-1.6-2.43-4.72-4.83-1.96-1.51-3.88-2.66-5.87-3.51a30.548 30.548 0 0 0-7.55-2.09c-2.29-.25-4.82-.19-7.77.21-2.26.43-4.46 1.11-6.32 1.93-1.33.46-2.38 1.11-3.23 1.63-.32.19-.61.37-.91.54l-4.03 2.53 4.64-1.09c.22-.05.45-.12.7-.18.96-.26 2.16-.58 3.56-.78.33-.05.66-.12 1-.18.58-.12 1.19-.24 1.82-.27.7-.05 1.43-.1 2.18-.15l.97-.08c2.57-.03 4.74.17 6.67.61 2.11.37 4.27 1.05 6.26 1.97 1.87.9 3.67 1.8 5.07 2.83 2.84 1.9 4.41 3.48 4.43 3.49.39.4.91.6 1.43.6.38 0 .76-.11 1.1-.33.93-.61 1.19-1.88.6-2.79l-.03-.06zm57.69-6.14c-.26-.15-.56-.33-.88-.53-.85-.51-1.9-1.16-3.19-1.6-1.9-.84-4.1-1.52-6.38-1.95-2.93-.4-5.46-.46-7.76-.21-2.51.35-5.12 1.07-7.54 2.09-1.96.84-3.94 2.02-5.87 3.51-3.06 2.36-4.59 4.65-4.71 4.82l-.03.05c-.51.8-.4 1.87.27 2.54.38.39.89.6 1.43.6.54 0 1.04-.21 1.42-.6l.02-.01c.15-.15 1.68-1.65 4.43-3.5 1.38-1.01 3.18-1.91 5.05-2.81 1.99-.92 4.16-1.6 6.29-1.97 1.9-.44 4.07-.63 6.61-.61l1.02.08c.74.05 1.47.1 2.17.15.63.03 1.23.15 1.81.27.34.06.68.13 1 .18 1.4.2 2.6.52 3.56.78.25.06.48.13.71.18l4.63 1.09-4.06-2.55z" fill="#030405"/><path d="M143.82 195.6l-.32-.06c.1.02.2.04.32.06zm-.84-.18l-.29-.09-.01.01.3.08z" fill="#be927b"/><path d="M140.75 252.77v47.41h-44.6c.25-3.62.47-9.49.51-17.22H85.25c-.13-11.26 8.84-30.47 8.84-30.47.87-1.18 1.75-2.25 2.64-3.28 2.32-2.67 4.73-4.85 7.11-6.62.27-.29.6-.49.89-.68.76-.55 1.54-1.07 2.3-1.56 3.46-2.2 6.73-3.6 9.28-4.47.6-.22 1.15-.39 1.69-.53 2.39-.66 3.87-.85 3.87-.85 1.27 0 2.36-.47 3.35-1.27l.04-.04c.33-.31.66-.68.99-1.07.12.1.37.43.58 1.11.92 2.26 6.35 13.8 13.92 19.54zm61.03 30.19c.04 7.71.33 13.62.57 17.22h-44.79v-47.3c2.43-1.79 4.63-4.22 6.53-6.73 4.13-5.43 6.91-11.36 7.55-12.92.22-.68.47-1.01.61-1.11.31.39.64.76.97 1.07l.04.04c.97.8 2.1 1.27 3.34 1.27 0 0 1.41.15 3.68.77.49.18 1.05.35 1.66.55a43.02 43.02 0 0 1 11.73 6.01c.29.22.62.43.87.7 3.35 2.47 6.74 5.7 9.83 9.96 0 0 9.14 13.25 8.72 30.47h-11.31z" fill="#3a2f34"/><path d="M140.75 270.93s7.04 8.74 16.81 0v29.25h-16.81v-29.25z" fill="#8868ad"/><path d="M53.4 81.12l204.07-21.73.1 1.96L53.48 82.86l-.08-1.74z" fill="#37393a"/><path d="M55.66 78.42c1.21 3.75-.74 7.8-4.36 9.05-3.63 1.26-7.56-.76-8.77-4.5-1.22-3.74.73-7.79 4.36-9.05 3.62-1.25 7.55.76 8.77 4.5zM265.25 58.8c1.22 3.74-.73 7.79-4.36 9.05-3.62 1.26-7.55-.76-8.77-4.5-1.22-3.74.74-7.79 4.36-9.05 3.63-1.25 7.56.76 8.77 4.5z" fill="#bf2427"/><path d="M183.5 92.8c6.29-2.39 14.24-4.3 14.57-15.47.34-11.18 8.29-19.74-1.98-31.69-10.27-11.96-22.53-18.46-22.53-18.46s-11.26-5.47-19.55-7.52c-8.27-2.05-10.84-3.44-18.22 0-12.83 6-14.57 7.86-20.54 19.14-5.96 11.28-8.61 10.93-9.6 17.77-1 6.84-7.3 10.59 0 13.33 7.29 2.74 8.61 11.97 16.23 14.01 7.62 2.05 60.63 8.89 60.63 8.89h.99zm-72.54 112.67s-23.18-10.88-26.4-27.91c-3.64-19.27-.64-50.21-.64-50.21l12.68-.67s-.39 20.76.24 53.75c.14 7.19 14.12 25.04 14.12 25.04zm76.84-1.77s23.97-11.97 28.37-29.17c4.96-19.47 4.1-50.32 4.1-50.32l-12.66-.09s-1.04 20.78-3.95 53.85c-.63 7.2-15.86 25.73-15.86 25.73z" fill="#37393a"/><path d="M219.09 133.43c-8.93-4.23-18.15-7.55-27.53-9.99-.08-.59-.16-1.19-.25-1.78-.34-2.23-.71-4.46-1.12-6.69-1.32 1.82-2.6 3.65-3.86 5.5-.32.5-.65 1-.97 1.5-8.77-1.91-17.65-3.04-26.56-3.41-.56-1.55-1.12-3.1-1.7-4.65-.67 1.52-1.33 3.03-1.95 4.54-4.4-.08-8.79.03-13.18.33a242.326 242.326 0 0 0-4.47-8.81c-.69 2.15-1.34 4.3-1.97 6.45-.3 1.01-.6 2.01-.88 3.02-5.94.68-11.83 1.7-17.67 3.06-1.26-1.84-2.54-3.68-3.86-5.5-.37 2.25-.71 4.49-1.02 6.73-9.36 2.5-18.54 5.89-27.44 10.17-10.47 3.69-10.52-76.78 68.53-75.75 74.18.97 75.07 78.99 65.9 75.28z" fill="#37393a"/><path d="M60.84 45.84l199.41 49.74-.54 1.88L60.35 47.51l.49-1.67z" fill="#37393a"/><path d="M63.26 44.64c0 3.95-3.1 7.15-6.92 7.15-3.83 0-6.93-3.2-6.93-7.15 0-3.94 3.1-7.14 6.93-7.14 3.82 0 6.92 3.2 6.92 7.14zm204.76 51.44c0 3.95-3.11 7.15-6.93 7.15s-6.93-3.2-6.93-7.15c0-3.94 3.11-7.15 6.93-7.15s6.93 3.21 6.93 7.15z" fill="#bf2427"/><path d="M53.4 81.12l204.07-21.73.1 1.96L53.48 82.86l-.08-1.74z" fill="#37393a"/><path d="M265.25 58.8c1.22 3.74-.73 7.79-4.36 9.05-3.62 1.26-7.55-.76-8.77-4.5-1.22-3.74.74-7.79 4.36-9.05 3.63-1.25 7.56.76 8.77 4.5z" fill="#bf2427"/><path d="M183.5 92.8c6.29-2.39 14.24-4.3 14.57-15.47.34-11.18 8.29-19.74-1.98-31.69-10.27-11.96-22.53-18.46-22.53-18.46s-11.26-5.47-19.55-7.52c-8.27-2.05-10.84-3.44-18.22 0-12.83 6-14.57 7.86-20.54 19.14-5.96 11.28-8.61 10.93-9.6 17.77-1 6.84-7.3 10.59 0 13.33 7.29 2.74 8.61 11.97 16.23 14.01 7.62 2.05 60.63 8.89 60.63 8.89h.99zm-72.54 112.67s-23.18-10.88-26.4-27.91c-3.64-19.27-.64-50.21-.64-50.21l12.68-.67s-.39 20.76.24 53.75c.14 7.19 14.12 25.04 14.12 25.04zm76.84-1.77s23.97-11.97 28.37-29.17c4.96-19.47 4.1-50.32 4.1-50.32l-12.66-.09s-1.04 20.78-3.95 53.85c-.63 7.2-15.86 25.73-15.86 25.73z" fill="#37393a"/><path d="M219.09 133.43c-8.93-4.23-18.15-7.55-27.53-9.99-.08-.59-.16-1.19-.25-1.78-.34-2.23-.71-4.46-1.12-6.69-1.32 1.82-2.6 3.65-3.86 5.5-.32.5-.65 1-.97 1.5-8.77-1.91-17.65-3.04-26.56-3.41-.56-1.55-1.12-3.1-1.7-4.65-.67 1.52-1.33 3.03-1.95 4.54-4.4-.08-8.79.03-13.18.33a242.326 242.326 0 0 0-4.47-8.81c-.69 2.15-1.34 4.3-1.97 6.45-.3 1.01-.6 2.01-.88 3.02-5.94.68-11.83 1.7-17.67 3.06-1.26-1.84-2.54-3.68-3.86-5.5-.37 2.25-.71 4.49-1.02 6.73-9.36 2.5-18.54 5.89-27.44 10.17-10.47 3.69-10.52-76.78 68.53-75.75 74.18.97 75.07 78.99 65.9 75.28z" fill="#37393a"/><path d="M60.84 45.84l199.41 49.74-.54 1.88L60.35 47.51l.49-1.67z" fill="#37393a"/><path d="M268.02 96.08c0 3.95-3.11 7.15-6.93 7.15s-6.93-3.2-6.93-7.15c0-3.94 3.11-7.15 6.93-7.15s6.93 3.21 6.93 7.15z" fill="#bf2427"/><path d="M137.06 201.34c-.24-3.2 8.91.67 11.92.76 2.4.08 9.6-.48 10.26-.73 5.04-1.88-.27 5.35-10.41 5.73-4.65.19-11.63-3.82-11.77-5.76z" fill="#f0d2ad"/><path d="M167.23 193.65c-5.81-1.09-18.03.07-18.03.07-10.09 1.68-17.98-.1-18.04-.03-.24.02 8.06 11.02 17.9 10.51 9.84.51 18.41-10.51 18.17-10.55z" fill="#c2646e"/><path d="M155.03 191.33c-2.62-.29-4.48 1.6-5.82 1.46-1.37.12-3.14-1.09-5.77-1.11-3.7-.04-5.51-.36-12.28 2.01.25.46 4.58 2.97 12.7 3.11.12 0 2.3 1.23 5.39 1.21 1.94-.01 4.6-1.31 4.71-1.31 8.13-.12 13.1-2.54 13.32-2.99-8.94-2.77-8.23-2.42-12.25-2.38z" fill="#d87475"/></g></svg>