<svg viewBox="0 0 300 301" xmlns="http://www.w3.org/2000/svg" fill-rule="evenodd" clip-rule="evenodd" stroke-linejoin="round" stroke-miterlimit="1.414"><g fill-rule="nonzero"><path fill="#9270b1" d="M.149.37H299.51v299.7H.149z"/><path d="M149.55 235.29v-81.51c6.24.35 11.7 5.37 22.86 8.33 26.6 7.04 37.63-11.44 35.4-20.98-3.43-14.69 1.34-23.14 3.17-22.74 0 0 .07 3.73 1.72 7.05 4.91 9.9 9.03 3.02 9.79 16.44.89 15.72 3.76 21.46 2.84 29.86-.52 4.75-2.3 10.4-3.71 14.35 17.86.28 19.92 15.19 19.92 15.19-.22-.55-.67-1.08-1.27-1.59.84.96 1.27 1.59 1.27 1.59-1.37-.85-2.68-1.57-3.96-2.23-23.95-12.24-30.63 9.27-30.63 9.27 2.5 20.28 28.22 20 28.22 20s-21.86 10.14-30.29-9.74c-1.12 10.7 4.93 21.09 4.93 21.09-9.75-1.99-13.85-9.57-15.57-16.04-6.03 11.11.21 19.37.21 19.37l-33.46-12.77c4.34 3.31 11.13 9.44 11.13 9.44s-8.75-.87-22.57-4.38z" fill="#4c2a2e"/><path d="M154.99 235.29v-81.51c-6.25.35-11.7 5.37-22.87 8.33-26.59 7.04-37.63-11.44-35.39-20.98 3.43-14.69-1.35-23.14-3.17-22.74 0 0-.08 3.73-1.72 7.05-4.92 9.9-9.03 3.02-9.8 16.44-.88 15.72-3.75 21.46-2.83 29.86.52 4.75 2.3 10.4 3.7 14.35-17.86.28-19.92 15.19-19.92 15.19.23-.55.67-1.08 1.28-1.59-.84.96-1.28 1.59-1.28 1.59 1.38-.85 2.69-1.57 3.96-2.23 23.96-12.24 30.63 9.27 30.63 9.27-2.5 20.28-28.21 20-28.21 20s21.86 10.14 30.28-9.74c1.13 10.7-4.92 21.09-4.92 21.09 9.75-1.99 13.85-9.57 15.57-16.04 6.03 11.11-.22 19.37-.22 19.37l33.47-12.77c-4.35 3.31-11.13 9.44-11.13 9.44s8.75-.87 22.57-4.38z" fill="#4c2a2e"/></g><path d="M154.07 187.62v112.6H93.36c-1.01-.39-1.46-.59-1.46-.59 0-5.37.29-10.31.82-14.84.54-4.4 1.28-8.43 2.2-12.1.68-2.63 1.44-5.1 2.27-7.38 4.34-11.89 10.73-19.22 16.68-23.7 4.59-3.46 8.87-5.23 11.73-6.11 2.1-.66 3.43-.83 3.43-.83h.07c.22 0 .39-.02.59-.06h.02c1.92-.31 3.46-1.97 4.71-4.63.93-1.97 1.71-4.48 2.33-7.4.25-1.14.43-2.29.66-3.52.29-2.1.55-4.26.8-6.55.12-1.39.25-2.73.41-4.17.54-6.89.7-14.43.7-21.56 0 0 8.15.84 14.75.84z" fill="#e0bd9a" fill-rule="nonzero"/><path d="M216.54 299.63s-.54.2-1.44.59h-61.03v-112.6h.17c6.58 0 14.83-.84 14.83-.84 0 7.07.12 14.52.68 21.41.17 1.34.31 2.72.39 4.08.25 2.36.56 4.61.89 6.68v.04c.1.95.3 1.8.47 2.68.58 2.94 1.3 5.51 2.2 7.59 1.07 2.55 2.41 4.36 4.01 5.06.21.09.41.17.64.23.31.08.66.12 1.01.12 0 0 .33.04.9.17h.02c.99.2 2.7.63 4.88 1.5 2.55.99 5.68 2.55 8.97 4.98 6.05 4.44 12.65 11.83 17.12 23.99.84 2.28 1.58 4.75 2.26 7.38.91 3.6 1.65 7.58 2.18 11.9.54 4.58.85 9.58.85 15.04z" fill="#efd0ad" fill-rule="nonzero"/><clipPath id="a"><path d="M137.39 208.06h33.65v19.9h-33.65z"/></clipPath><g clip-path="url(#a)"><path d="M171.04 218.75v.05c-1.53 2.37-6.67 9.17-16.85 9.17h-.1c-9.64-.05-15.27-7.05-16.7-9.12.29-2.07.59-4.24.84-6.5.1-1.33.24-2.71.39-4.14 4.7 1.18 9.84 1.92 15.27 2.02h.2c5.63-.1 10.82-.89 15.66-2.17.15 1.33.3 2.71.4 4.04.25 2.37.54 4.58.89 6.65z" fill="#be987f" fill-rule="nonzero"/></g><path d="M153.4 59.28c-64.34 0-64.69 53.94-61.82 89.27-4.4-8.38-17.49-5.82-16.4 7.39 1.03 12.71 19.74 19.19 19.22 17.78 9.74 26.13 35.53 45.82 59 45.82h.49V59.28h-.49z" fill="#d2a686" fill-rule="nonzero"/><path d="M79.28 150.37c3.16-5.12 8.1-2.91 9.29-1.77 1.28 1.23 2.32 2.8 1.53 5.81-.45 1.72-2.23 1.87-1.83 4.43.49 2.91 1.83 3.06 2.62 3.75.74.64 1.68 1.13 2.12 2.36.5 1.23.55 2.52.3 3.65-.49 2.07-3.51.39-5.53-.49-1.34-.64-5.59-4.24-6.67-5.42-2.67-3.06-3.96-8.97-1.83-12.32z" fill="#ac8774" fill-rule="nonzero"/><path d="M153.74 59.28c64.34 0 64.68 53.94 61.87 89.27 4.4-8.38 17.44-5.82 16.35 7.39-.98 12.71-19.73 19.19-19.22 17.78-9.49 26.13-35.53 45.82-59 45.82h-.34l-.15-160.26h.49z" fill="#ddb598" fill-rule="nonzero"/><path d="M227.86 150.37c-3.16-5.12-8.05-2.91-9.29-1.77-1.28 1.23-2.27 2.8-1.53 5.81.45 1.72 2.22 1.87 1.83 4.43-.49 2.91-1.83 3.06-2.57 3.75-.74.64-1.73 1.13-2.17 2.36-.45 1.23-.55 2.52-.3 3.65.49 2.07 3.51.39 5.53-.49 1.39-.64 5.59-4.24 6.67-5.42 2.72-3.06 3.96-8.97 1.83-12.32z" fill="#ac8774" fill-rule="nonzero"/><path d="M152.89 74.5c-21.15 0-36.66 6.16-46 18.28-13.1 16.99-12.6 42.91-7.81 61.53 1.48 5.72 2.27 21.04 3.26 26.65 4.6 25.18 32.32 38.58 50.55 38.58h.49V74.5h-.29" fill="#e0bd9a" fill-rule="nonzero"/><path d="M198.85 92.83c-9.29-12.07-24.61-18.23-45.47-18.33v145.04c20.86-.25 45.81-14.93 50.06-38.58 1.04-5.61 1.78-20.93 3.26-26.65 4.84-18.57 5.34-44.44-7.85-61.48z" fill="#efd0ad" fill-rule="nonzero"/><path d="M150.01 193.83c-.1-.02-.2-.04-.3-.07.1.03.18.05.3.07zm-.78-.18c-.1-.02-.18-.05-.27-.07h-.01s.1.03.28.07z" fill="#bc917b" fill-rule="nonzero"/><path d="M141.11 176.04c-.25-5.01 9.18-1.83 12.28-1.67 2.46.12 9.93-1.58 10.57-1.14 4.39 2.97-4.66 8.95-10.72 8.95-1.62 0-11.98-3.11-12.13-6.14z" fill="#ddb598" fill-rule="nonzero"/><path d="M135.42 74.86l-.26.27.04.09c.09-.13.13-.27.22-.36z" fill="#432e1b" fill-rule="nonzero"/><path d="M150.19 190.89zm-.81-.18c-.1-.03-.18-.06-.28-.08h-.01l.29.08z" fill="#ba907b" fill-rule="nonzero"/><path d="M107.23 131.11s4.91 20.2 13.34 21.85c8.42 1.64 17.54-1.63 17.54-1.63s.87-23.74-3.44-26.84c-4.31-3.12-14.25-7.62-27.44 6.62z" fill="#fff" fill-rule="nonzero"/><path d="M138.12 151.27s-.19.05-.62.23c-.11-7.28-.78-17.28-3.48-19.19-4-2.95-13.05-7.09-25.13 4.24-1.1-3.13-1.65-5.5-1.65-5.5 13.21-14.27 23.16-9.77 27.44-6.66 4.32 3.12 3.44 26.88 3.44 26.88z" fill="#d6b496" fill-rule="nonzero"/><path d="M133.14 140.98c0 4.6-3.72 8.32-8.3 8.32s-8.29-3.72-8.29-8.32c0-4.59 3.71-8.32 8.29-8.32 4.58 0 8.3 3.73 8.3 8.32z" fill="#482315" fill-rule="nonzero"/><path d="M124.46 146.52c-2.4-.2-4.24-2.62-4.02-5.29.21-2.66 2.42-4.75 4.82-4.55 2.39.2 4.23 2.62 4.02 5.29-.22 2.66-2.43 4.75-4.82 4.55z" fill="#7e3a22" fill-rule="nonzero"/><path d="M124.66 145.56c-1.66-.14-3.39-1.98-3.21-4.24.19-2.26 2.19-3.79 3.86-3.66 1.66.15 3.39 1.99 3.21 4.25-.19 2.26-2.19 3.79-3.86 3.65z" fill="#211a10" fill-rule="nonzero"/><path d="M123.31 139.98c-.07.82-.9 1.42-1.86 1.34-.96-.08-1.68-.81-1.62-1.62.07-.83.9-1.42 1.86-1.34.96.07 1.69.8 1.62 1.62zm5.38 4.73c-.04.41-.45.71-.93.67-.48-.04-.84-.41-.81-.82.03-.4.45-.7.93-.66.48.03.84.4.81.81z" fill="#fff" fill-rule="nonzero"/><path d="M150.32 193.27c-.11-.02-.21-.04-.31-.07.1.03.19.04.31.07zm-.81-.18c-.09-.03-.18-.05-.28-.08l-.01.01s.11.02.29.07z" fill="#ba907b" fill-rule="nonzero"/><path d="M149.94 192.7c-.11-.02-.22-.05-.33-.07.11.02.2.04.33.07zm-.86-.19c-.11-.03-.2-.06-.3-.09l-.01.01s.11.03.31.08zm.61-.66c-.11-.02-.22-.04-.33-.07.11.03.2.05.33.07zm-.86-.19c-.1-.03-.2-.05-.3-.08h-.01l.31.08zm1.63.08c-.11-.02-.21-.05-.32-.07.11.02.2.04.32.07zm-.83-.19c-.1-.02-.19-.05-.29-.08l-.01.01s.11.03.3.07z" fill="#bc917b" fill-rule="nonzero"/><path d="M200.04 130.42s-4.91 20.2-13.33 21.85c-8.43 1.65-17.55-1.63-17.55-1.63s-.87-23.74 3.44-26.84c4.32-3.11 14.25-7.62 27.44 6.62z" fill="#fff" fill-rule="nonzero"/><path d="M169.15 150.58s.19.05.63.24c.1-7.28.77-17.29 3.47-19.2 4.01-2.94 13.05-7.08 25.14 4.24 1.1-3.13 1.65-5.5 1.65-5.5-13.22-14.26-23.16-9.77-27.44-6.65-4.32 3.11-3.45 26.87-3.45 26.87z" fill="#d6b496" fill-rule="nonzero"/><path d="M174.14 140.29c0 4.6 3.71 8.32 8.29 8.32 4.58 0 8.3-3.72 8.3-8.32 0-4.59-3.72-8.32-8.3-8.32s-8.29 3.73-8.29 8.32z" fill="#482315" fill-rule="nonzero"/><path d="M182.82 145.83c2.39-.19 4.23-2.62 4.01-5.28-.21-2.67-2.42-4.76-4.82-4.55-2.39.19-4.23 2.62-4.01 5.28.21 2.67 2.42 4.75 4.82 4.55z" fill="#7e3a22" fill-rule="nonzero"/><path d="M182.61 144.87c1.67-.14 3.4-1.97 3.21-4.23-.18-2.27-2.18-3.8-3.85-3.66-1.67.14-3.4 1.98-3.21 4.24.18 2.26 2.19 3.79 3.85 3.65z" fill="#211a10" fill-rule="nonzero"/><path d="M183.96 139.3c.07.81.91 1.41 1.86 1.33.96-.08 1.69-.81 1.62-1.62-.07-.82-.9-1.42-1.86-1.34-.96.08-1.68.81-1.62 1.63zm-5.38 4.72c.04.41.46.71.93.67.49-.04.84-.41.81-.81-.03-.41-.45-.71-.92-.67-.49.04-.85.4-.82.81z" fill="#fff" fill-rule="nonzero"/><path d="M143.17 130.79c-.06-.1-1.59-2.43-4.71-4.84-1.96-1.5-3.88-2.65-5.87-3.51a30.052 30.052 0 0 0-7.56-2.08c-2.28-.26-4.81-.19-7.76.21-2.26.43-4.46 1.1-6.32 1.93-1.33.46-2.39 1.1-3.23 1.62-.32.2-.62.38-.91.54l-4.03 2.54 4.64-1.09c.22-.06.45-.12.7-.19.96-.25 2.16-.57 3.56-.78.32-.04.66-.11 1-.18.58-.11 1.18-.24 1.82-.27.7-.04 1.43-.1 2.18-.15l.97-.07c2.57-.03 4.74.16 6.67.61 2.1.36 4.27 1.05 6.26 1.97 1.87.9 3.67 1.79 5.07 2.82 2.84 1.9 4.41 3.48 4.43 3.5.39.39.91.59 1.43.59.38 0 .76-.1 1.1-.32.93-.62 1.19-1.88.6-2.79l-.04-.06zm57.7-6.15c-.27-.14-.56-.32-.88-.52-.85-.52-1.9-1.16-3.19-1.61-1.9-.84-4.1-1.51-6.39-1.95-2.92-.39-5.45-.46-7.75-.2-2.51.34-5.12 1.06-7.54 2.09-1.96.84-3.94 2.02-5.87 3.5-3.07 2.36-4.59 4.65-4.71 4.83l-.03.04c-.51.8-.4 1.87.27 2.55.38.38.89.6 1.42.6h.01c.53 0 1.04-.22 1.42-.6l.02-.02c.15-.15 1.68-1.65 4.43-3.49 1.38-1.02 3.18-1.91 5.05-2.81 1.99-.92 4.15-1.61 6.29-1.98 1.9-.44 4.07-.63 6.61-.6l1.02.07c.74.06 1.47.11 2.17.15.62.03 1.23.16 1.81.27.34.07.67.14 1 .18 1.4.21 2.6.53 3.56.78.25.07.48.13.71.19l4.63 1.09-4.06-2.56z" fill="#030405" fill-rule="nonzero"/><path d="M148.86 195.66c-.11-.02-.22-.04-.32-.07.1.03.2.04.32.07zm-.84-.19c-.1-.02-.19-.05-.29-.08l-.01.01s.11.03.3.07z" fill="#be927b" fill-rule="nonzero"/><path d="M141.5 199.83c-.25-3.25 9.01.68 12.05.77 2.43.08 9.72-.48 10.39-.74 5.09-1.91-.28 5.43-10.54 5.82-4.7.19-11.76-3.88-11.9-5.85z" fill="#f0d2ad" fill-rule="nonzero"/><path d="M171.64 193.57c-2.51-.13-5.09 1.97-8.12 1.65-.12-.06-.18-.06-.31-.06-.69-.12-1.38 0-2.14.19-.94.19-1.88.58-2.77.89-1.51.49-3.21.88-4.97.75v.01l-.09-.01-.1.01v-.01c-1.75.13-3.46-.26-4.97-.75-.88-.31-1.83-.7-2.77-.89-.75-.19-1.44-.31-2.14-.19-.13 0-.19 0-.31.06-3.03.32-5.61-1.78-8.12-1.65-.7.06-1.7-.13-2.27-.13.12.06.25.13.38.19 7.17 3.5 13.35 10.07 20.2 9.86h.19c6.85.21 13.03-6.36 20.2-9.86.13-.06.26-.13.38-.19-.56 0-1.57.19-2.27.13z" fill="#dcbf9e" fill-rule="nonzero"/><path d="M173.75 193.37s-7.29-2.82-12.47-1.17c0 0-1.93.76-3.93 1.22-1.21.47-2.69.61-4.11.55-1.09-.04-2.13-.18-2.98-.33-.28-.04-.57-.1-.86-.16-.12-.03-.21-.05-.32-.07-.18-.04-.35-.08-.52-.12l-.3-.08h.01a34.17 34.17 0 0 1-3.08-1.01c-5.18-1.65-12.47 1.17-12.47 1.17-.1.04-.16.07-.16.07.57 0 1.57.19 2.27.13 2.51-.13 5.09 1.97 8.12 1.65.12-.06.18-.06.31-.06.7-.12 1.39 0 2.14.19.94.19 1.89.58 2.77.89 1.51.49 3.22.88 4.97.75v.01l.1-.01.09.01v-.01c1.76.13 3.46-.26 4.97-.75.89-.31 1.83-.7 2.77-.89.76-.19 1.45-.31 2.14-.19.13 0 .19 0 .31.06 3.03.32 5.61-1.78 8.12-1.65.7.06 1.71-.13 2.27-.13 0 0-.06-.03-.16-.07z" fill="#c69f83" fill-rule="nonzero"/><path d="M141 195.08c.13.03 13.65 4.16 24.23.09l-1.22-.82h-14.3l-8.71.73z" fill="#c69f83" fill-rule="nonzero"/><path d="M149.32 257.92v42.3H99.9V286.5l-7.18-1.71c.54-4.4 1.28-8.43 2.2-12.1.68-2.63 1.44-5.1 2.27-7.38 4.34-11.89 10.73-19.22 16.68-23.7 7.39 6.46 19.83 14.89 35.45 16.31z" fill="#6396a5" fill-rule="nonzero"/><path d="M149.32 244.73v13.19c-15.62-1.42-28.06-9.85-35.45-16.31 4.59-3.46 8.87-5.23 11.73-6.11 2.1-.66 3.43-.83 3.43-.83h.07l12.63 7.31a23.63 23.63 0 0 0 7.59 2.75z" fill="#3f1c21" fill-rule="nonzero"/><path d="M215.69 284.59l-8.08 1.91v13.72h-48.78v-42.36c10.76-1.07 22.71-5.8 35.3-16.54 6.05 4.44 12.65 11.83 17.12 23.99.84 2.28 1.58 4.75 2.26 7.38.91 3.6 1.65 7.58 2.18 11.9z" fill="#6396a5" fill-rule="nonzero"/><path d="M194.13 241.32c-12.59 10.74-24.54 15.47-35.3 16.54v-13.35c2.18-.52 4.3-1.32 6.27-2.45l13.25-7.51c.31.08.66.12 1.01.12 0 0 .33.04.9.17h.02c.99.2 2.7.63 4.88 1.5 2.55.99 5.68 2.55 8.97 4.98z" fill="#3f1c21" fill-rule="nonzero"/><path d="M195.54 266.97c0 3.09-5.68 5.6-12.69 5.6-7 0-12.69-2.51-12.69-5.6s5.69-5.6 12.69-5.6c7.01 0 12.69 2.51 12.69 5.6z" fill="#82d4f5" fill-rule="nonzero"/><path d="M173 189.24c-4.06-4.99-11.38-5.36-19.76-5.24-8.39-.12-15.71.25-19.76 5.24-3.74 4.6-4.07 16.55 1.67 20.81 2.05-6.1 2.02-8.87 4.88-12.18 3.32-3.85 8.52-3.89 13.21-4.42 4.68.53 9.89.57 13.21 4.42 2.85 3.31 2.82 6.08 4.87 12.18 5.75-4.26 5.41-16.21 1.68-20.81zm-13.63 27.13h-12.7v.08c.05.19.1.38.17.55l-.17-.08c0 1.39.59 2.72 1.64 3.64.15.13.3.27.46.41 1.49 1.37 3.13 3.13 4.85 3.13l.26-.02c1.63-.17 3.18-1.81 4.59-3.11.16-.14.31-.28.46-.41a4.834 4.834 0 0 0 1.64-3.64v-.55h-1.2zm-7.24-108.73c1.81 1.73 4.15 3.94 6.84 6.42 12.8 11.99 39.62 37.05 47.57 43.87l.13.12c.4.62.75.74.87.76l24.49 21.57-18.21-32.63 9.76 8.59-8.44-15.12c3.64-7.5 7.34-20.02 7.34-32.52 0-16.55-5.54-31.26-20.01-46.91-.54-.58-1.09-1.16-1.65-1.73.73-5.08-1.79-11.71-15.35-17.43 0 0 4.27 4.46 7.57 10.6-12.81-9.87-26.29-14.69-26.29-14.69l5.89 5.65c-3.53-2.76-9.81-6.6-20.32-9.98-14.95-4.81-24.62.55-24.62.55s7.79-.28 11.62 2.84c-3.77-1.66-10.28-2.22-21.12 2.35-.67.27-1.32.57-1.95.87-3.92-.58-8.08-1.6-12.38-3.24 0 0 2.72 3.02 7.29 6.02-3.54 2.25-6.29 4.73-8.63 7.25-5.53.19-11.78-.36-18.5-2.32 0 0 5.52 5.2 13.74 8.09-1.25 1.63-2.43 3.21-3.66 4.69a58.567 58.567 0 0 1-18.69 1.8s5.02 2.93 12.05 4.37c-1.45.94-3.07 1.74-4.94 2.36-15.14 5.05-19.54-1.44-19.54-1.44s6.57 11.35 18.25 11.38c1.88 0 2.07-.04 2.08-.05-.01.04-2.84 7.91-4.38 15.7a58.877 58.877 0 0 1-11.57 3.12s4.61 1.43 10.83 1.56c-.03.28-.07.56-.09.83-.86 9.26 1.82 15.59 2.64 32.9.71 14.8 4.55 7.21 9.12 18.12 1.55 3.66 1.61 7.77 1.61 7.77 1.7.43 6.14-8.88 2.95-25.06-.92-4.64.58-15.02 4.69-24.47h-.01s6.1-11.59 16.53-16.56l53.4 46.48-23.03-38.46c.58.56 1.16 1.1 1.75 1.72.21.22.42.44.64.66l.03.03v-.01l.01.01h-.01s1.39 1.36 3.62 3.49l.08.08z" fill="#4c2a2e" fill-rule="nonzero"/></svg>