<svg viewBox="0 0 300 300" xmlns="http://www.w3.org/2000/svg" fill-rule="evenodd" clip-rule="evenodd" stroke-linejoin="round" stroke-miterlimit="1.414"><g fill-rule="nonzero"><path fill="#f78f1e" d="M.27.07h299.36v299.705H.27z"/><path d="M156.33 187.505v112.27H95.6l-1.48-.594c0-14.331 2.11-25.505 5.31-34.219 7.73-21.03 21.88-27.709 28.39-29.723 2.14-.661 3.46-.82 3.46-.82.23 0 .44-.021.67-.056 1.91-.308 3.46-1.969 4.71-4.619.92-1.968 1.7-4.479 2.33-7.386.25-1.132.44-2.275.64-3.51.3-2.077.59-4.25.84-6.525.1-1.384.25-2.717.4-4.152.54-6.868.69-14.388.69-21.507 0 0 8.16.841 14.77.841z" fill="#e0bd9a"/><path d="M218.79 299.181s-.54.2-1.43.594h-61.03v-112.27h.15c6.57 0 14.83-.841 14.83-.841 0 7.068.14 14.485.69 21.358.15 1.338.29 2.717.39 4.055.25 2.373.55 4.597.89 6.673v.046c.1.943.3 1.784.45 2.671.6 2.921 1.33 5.489 2.2 7.549 1.09 2.563 2.42 4.352 4.03 5.06.51.23 1.06.343 1.63.343 0 0 2.33.282 5.83 1.656 7.15 2.798 19.16 10.143 26.06 28.887 3.21 8.714 5.31 19.888 5.31 34.219z" fill="#efd0ad"/><path d="M173.28 218.54v.05c-1.53 2.357-6.67 9.134-16.85 9.134h-.1c-9.63-.049-15.26-7.023-16.7-9.085.3-2.063.6-4.224.84-6.483.1-1.327.25-2.702.4-4.126a67.76 67.76 0 0 0 15.27 2.014h.19a65.483 65.483 0 0 0 15.67-2.161c.15 1.326.29 2.701.39 4.027.25 2.357.55 4.568.89 6.63z" fill="#be987f"/><path d="M155.64 59.561c-64.33 0-64.68 53.779-61.81 88.993-4.4-8.349-17.5-5.795-16.41 7.367 1.04 12.671 19.75 19.129 19.22 17.73 9.75 26.043 35.53 45.675 59 45.675h.5V59.561h-.5z" fill="#d2a686"/><path d="M81.52 150.371c3.17-5.108 8.11-2.897 9.29-1.768 1.29 1.228 2.32 2.8 1.53 5.796-.44 1.719-2.22 1.866-1.82 4.42.49 2.897 1.82 3.045 2.61 3.732.75.639 1.68 1.13 2.13 2.358a6.29 6.29 0 0 1 .3 3.634c-.5 2.063-3.51.393-5.54-.491-1.33-.638-5.58-4.224-6.67-5.402-2.67-3.045-3.95-8.939-1.83-12.279z" fill="#ac8774"/><path d="M155.99 59.561c64.33 0 64.68 53.779 61.86 88.993 4.4-8.349 17.45-5.795 16.36 7.367-.99 12.671-19.73 19.134-19.22 17.73-9.49 26.043-35.53 45.675-59 45.675h-.35l-.15-159.765h.5z" fill="#ddb598"/><path d="M230.11 150.371c-3.16-5.108-8.06-2.897-9.29-1.768-1.29 1.228-2.27 2.8-1.53 5.796.44 1.719 2.22 1.866 1.83 4.42-.5 2.897-1.83 3.045-2.57 3.732-.75.639-1.73 1.13-2.18 2.358-.44 1.228-.54 2.505-.29 3.634.49 2.063 3.5.393 5.53-.491 1.38-.638 5.58-4.224 6.67-5.402 2.72-3.045 3.95-8.939 1.83-12.279z" fill="#ac8774"/><path d="M155.14 74.737c-21.15 0-36.67 6.139-46.01 18.221-13.09 16.944-12.6 42.778-7.8 61.342 1.48 5.697 2.27 20.972 3.26 26.571 4.59 25.096 32.31 38.455 50.55 38.455h.49V74.737h-.3" fill="#e0bd9a"/><path d="M201.09 93.007c-9.29-12.033-24.61-18.172-45.46-18.27v144.589c20.85-.245 45.81-14.881 50.06-38.455 1.03-5.599 1.77-20.874 3.26-26.571 4.84-18.515 5.33-44.3-7.86-61.293z" fill="#efd0ad"/><path d="M152.26 193.695c-.11-.022-.21-.041-.31-.065.1.023.19.041.31.065zm-.79-.175c-.09-.024-.18-.051-.27-.076l-.01.004.28.072z" fill="#bc917b"/><path d="M137.67 75.098l-.27.267.05.089c.09-.133.13-.267.22-.356z" fill="#432e1b"/><path d="M152.43 190.762c-.1-.022-.21-.043-.31-.066l.31.066zm-.8-.18c-.1-.025-.19-.052-.28-.078l-.01.005s.11.029.29.073z" fill="#ba907b"/><path d="M144.57 172.397c-.25-5.131 9.42-1.875 12.61-1.714 2.53.128 10.2-1.618 10.85-1.168 4.52 3.042-4.78 9.17-11.01 9.17-1.66 0-12.3-3.192-12.45-6.288z" fill="#dcb497"/><path d="M152.56 193.137l-.31-.067c.1.023.19.042.31.067zm-.8-.18c-.1-.025-.19-.052-.28-.078l-.01.004s.11.03.29.074z" fill="#ba907b"/><path d="M152.19 192.568c-.12-.024-.23-.045-.34-.071.11.024.21.045.34.071zm-.87-.193c-.1-.026-.19-.056-.29-.083l-.02.005.31.078zm.62-.649c-.11-.024-.22-.045-.34-.071.11.024.21.044.34.071zm-.87-.193c-.1-.026-.19-.055-.29-.083l-.01.004s.11.032.3.079zm5.43 2.937h.01-.01zm-3.79-2.859c-.11-.023-.22-.044-.32-.069.1.024.19.043.32.069zm-.84-.187c-.1-.025-.19-.053-.28-.08l-.01.005s.11.03.29.075zm4.63-.017h.01-.01z" fill="#bc917b"/><path d="M149.59 200.164a8.288 8.288 0 0 1-.31-.066c.1.023.19.041.31.066zm-.8-.179c-.1-.024-.18-.051-.28-.077l-.01.004s.11.029.29.073zm.57-.601zm-.8-.179c-.1-.025-.18-.052-.28-.077l-.01.004s.11.029.29.073zm1.51.072c-.1-.021-.2-.041-.3-.064l.3.064zm-.77-.173c-.09-.023-.18-.05-.27-.074l-.01.004.28.07z" fill="#be927b"/><path d="M143.33 201.673c-.24-3.199 8.92.671 11.92.763 2.4.081 9.6-.474 10.27-.728 5.03-1.883-.28 5.349-10.42 5.73-4.64.185-11.63-3.824-11.77-5.765z" fill="#f0d2ad"/><path d="M173.5 193.988c-5.8-1.086-18.03.073-18.03.073-10.08 1.675-17.97-.107-18.03-.038-.24.024 8.05 11.023 17.89 10.516 9.84.507 18.41-10.516 18.17-10.551z" fill="#c2646e"/><path d="M161.3 191.666c-2.62-.289-4.48 1.597-5.82 1.459-1.36.127-3.14-1.083-5.77-1.109-3.7-.036-5.5-.361-12.27 2.007.24.462 4.57 2.972 12.69 3.11.12 0 2.3 1.236 5.4 1.214 1.93-.012 4.6-1.306 4.7-1.306 8.13-.127 13.1-2.544 13.33-2.994-8.95-2.773-8.24-2.417-12.26-2.381z" fill="#d87475"/><path d="M146.16 242.206l-14.78-9.623s-29.15 2.081-37.43 43.836a98.892 98.892 0 0 0-.92 5.435l16.38 4.351v13.57h43.41v-46.839c0-4.298-2.29-8.158-5.84-10.224-.28-.161-.55-.33-.82-.506zm73.59 34.213c-3.27-17.093-12.49-38.26-37.74-43.902L166.7 242.3l-.06.034c-3.34 2.121-5.47 5.872-5.47 10.011v47.43h42.85v-13.57l16.59-4.407c-.23-1.729-.51-3.53-.86-5.379z" fill="#ed827c"/><path d="M152.82 263.388v36.387h8.35v-36.538c-2.74.469-5.59.52-8.35.151zm-59.79 18.466l-1.13 8.463 17.51 3.135v-7.247l-16.38-4.351zm110.99 11.776l16.88-5.041-.29-6.791-16.59 4.407v7.425zm-84.16-27.484h23.39v4.374l-11.7 7.453-11.69-7.453v-4.374zm48.38 0h23.39v4.374l-11.69 7.453-11.7-7.453v-4.374z" fill="#b85756"/><path d="M139.06 39.4c-4.35 6.531-.51 7.741 2.74 7.778 1.77.02 3.52-.354 5.18-.973 3.39-1.265 6.69-2.494 9.79-3.567-3.71 5.329-1.38 14.92 6.95 14.92 1 0 1.91-.146 2.74-.399-.14.086-.3.157-.44.25 3.76-1.411 10.24-1.914 21.1 1.953 1.52.539 2.92 1.114 4.22 1.707 4.63 1.849 13.87 5.516 31.63 12.452 0 0-5.85 2.084-12.84 2.792 3.35 3.583 6.81 6.647 12.59 8.273 15.11 4.259 19.49-1.202 19.49-1.202s-6.55 9.565-18.2 9.591c-1.88 0-2.07-.031-2.08-.043.01.038 4.36 10.265 5.2 17.908.85 7.807-1.82 13.147-2.63 27.756-.24 4.074-.8 6.132-1.62 7.383-1.67 2.58-4.41 1.706-7.49 7.905-1.54 3.085-1.6 6.559-1.6 6.559s-.13.09-.33.156c-.97.312-3.73.058-3.87-12.959 0 0 12.22-50.967-12.68-58.525-10.85-3.293-25.42-.534-39.66 2.846-9.51 2.258-19.1 5.911-27.99 11.572-11.48 7.295-26.28 16.606-29.37 33.241v.073c.45 4.471.65 8.062.69 10.953.14 11.971-2.64 11.867-2.64 11.867-1.28 0 .08-6.024-4.16-10.178-1.17-1.142-2.5-3.05-3.83-5.476-3.48-6.392-6.87-16.507-6.87-26.627C78.56 48.779 139.06 39.4 139.06 39.4z" fill="#030405"/><path d="M109.48 130.776s4.91 20.198 13.33 21.847c8.43 1.647 17.55-1.629 17.55-1.629s.87-23.737-3.44-26.839c-4.32-3.115-14.25-7.617-27.44 6.621z" fill="#fff"/><path d="M140.37 150.932s-.19.056-.63.237c-.1-7.281-.77-17.281-3.47-19.197-4.01-2.942-13.05-7.083-25.14 4.243-1.1-3.13-1.65-5.502-1.65-5.502 13.22-14.264 23.16-9.771 27.44-6.653 4.32 3.114 3.45 26.872 3.45 26.872z" fill="#d6b496"/><path d="M135.38 140.646c0 4.595-3.71 8.32-8.29 8.32-4.58 0-8.3-3.725-8.3-8.32 0-4.594 3.72-8.319 8.3-8.319s8.29 3.725 8.29 8.319z" fill="#482315"/><path d="M126.7 146.187c-2.39-.198-4.23-2.623-4.01-5.289.21-2.665 2.42-4.75 4.82-4.549 2.39.198 4.23 2.62 4.01 5.285-.21 2.665-2.42 4.754-4.82 4.553z" fill="#7e3a22"/><path d="M126.91 145.226c-1.67-.143-3.4-1.977-3.21-4.237.18-2.267 2.18-3.797 3.85-3.66 1.67.142 3.39 1.985 3.21 4.245-.18 2.263-2.19 3.789-3.85 3.652z" fill="#211a10"/><path d="M125.56 135.536c-.07.816-.91 1.413-1.86 1.334-.96-.082-1.69-.812-1.62-1.624.07-.82.9-1.417 1.86-1.339.96.078 1.68.808 1.62 1.629zm5.38 8.839c-.04.407-.46.707-.93.666-.49-.038-.85-.406-.82-.812.04-.406.46-.707.93-.666.49.038.85.402.82.812zm71.35-14.286s-4.91 20.198-13.34 21.847c-8.42 1.647-17.54-1.629-17.54-1.629s-.88-23.738 3.44-26.839c4.31-3.115 14.25-7.617 27.44 6.621z" fill="#fff"/><path d="M171.4 150.244s.19.057.62.238c.11-7.281.78-17.281 3.47-19.197 4.01-2.943 13.06-7.084 25.14 4.242 1.1-3.129 1.65-5.501 1.65-5.501-13.21-14.265-23.16-9.771-27.44-6.653-4.32 3.114-3.44 26.871-3.44 26.871z" fill="#d6b496"/><path d="M176.38 139.959c0 4.595 3.72 8.32 8.3 8.32s8.29-3.725 8.29-8.32c0-4.595-3.71-8.319-8.29-8.319-4.58 0-8.3 3.724-8.3 8.319z" fill="#482315"/><path d="M185.06 145.499c2.4-.198 4.24-2.622 4.02-5.288-.21-2.665-2.42-4.75-4.82-4.549-2.39.198-4.23 2.619-4.02 5.284.22 2.666 2.43 4.755 4.82 4.553z" fill="#7e3a22"/><path d="M184.86 144.538c1.66-.142 3.39-1.977 3.21-4.236-.19-2.267-2.19-3.797-3.86-3.66-1.66.142-3.39 1.985-3.21 4.245.19 2.262 2.19 3.789 3.86 3.651z" fill="#211a10"/><path d="M186.21 138.963c.07.817.9 1.414 1.86 1.335.96-.082 1.68-.812 1.62-1.624-.07-.821-.9-1.418-1.86-1.339-.96.078-1.69.808-1.62 1.628zm-5.38 4.725c.03.407.45.707.93.666.48-.038.84-.406.81-.812-.03-.406-.45-.707-.93-.666-.48.037-.85.402-.81.812z" fill="#fff"/><path d="M145.42 130.454c-.06-.099-1.59-2.431-4.72-4.835-1.96-1.507-3.88-2.654-5.87-3.508a30.327 30.327 0 0 0-7.55-2.088c-2.28-.255-4.81-.187-7.77.211-2.25.431-4.45 1.103-6.32 1.929-1.33.459-2.38 1.105-3.22 1.625-.33.199-.62.379-.92.539l-4.02 2.539 4.64-1.093c.21-.055.45-.117.7-.184.96-.255 2.15-.573 3.55-.779.33-.048.66-.114 1-.182.59-.117 1.19-.237 1.82-.268.7-.047 1.43-.099 2.18-.153l.98-.07c2.57-.033 4.74.163 6.66.608 2.11.365 4.28 1.047 6.26 1.969 1.88.901 3.67 1.793 5.08 2.826 2.83 1.897 4.41 3.479 4.42 3.495.39.393.91.596 1.44.596.38 0 .76-.108 1.09-.328.94-.613 1.2-1.877.6-2.788l-.03-.061zm57.7-6.146c-.27-.141-.56-.322-.89-.521-.84-.519-1.89-1.165-3.18-1.609-1.91-.841-4.11-1.513-6.39-1.948-2.93-.395-5.46-.463-7.75-.206a30.519 30.519 0 0 0-7.55 2.087c-1.96.843-3.93 2.023-5.86 3.508-3.07 2.36-4.6 4.652-4.71 4.828l-.03.042c-.52.8-.41 1.871.26 2.546.38.386.89.598 1.43.598a2 2 0 0 0 1.43-.599l.01-.016c.15-.149 1.68-1.65 4.43-3.491 1.38-1.018 3.18-1.912 5.05-2.81a25.51 25.51 0 0 1 6.29-1.978c1.9-.439 4.08-.631 6.61-.604l1.03.074c.74.053 1.46.104 2.17.152.62.03 1.22.15 1.81.267.34.068.67.134 1 .182 1.4.206 2.59.524 3.55.779.25.067.49.129.71.185l4.64 1.093-4.06-2.559z" fill="#030405"/></g></svg>