<svg viewBox="0 0 298 319" xmlns="http://www.w3.org/2000/svg" fill-rule="evenodd" clip-rule="evenodd" stroke-linejoin="round" stroke-miterlimit="1.414"><g fill-rule="nonzero"><path d="M153.708 8.121a7.63 7.63 0 0 1-7.63 7.629 7.63 7.63 0 1 1 7.63-7.629z" fill="#efcf18"/><path fill="#eeb75d" d="M.21 18.775h296.865V318.48H.21z"/><path d="M146.272 206.22v112.25H85.558c-1.008-.39-1.482-.59-1.482-.59 0-4.71.226-9.08.659-13.13.843-8.27 2.489-15.22 4.629-21.09 4.814-13.1 12.139-20.63 18.537-24.93 3.868-2.6 7.428-4.02 9.876-4.78.823-.26 1.523-.45 2.057-.55.885-.21 1.379-.27 1.379-.27.247 0 .453-.02.679-.06 1.193-.19 2.242-.91 3.148-2.06.576-.7 1.09-1.54 1.563-2.55.926-1.98 1.708-4.49 2.325-7.39.247-1.15.453-2.28.659-3.51.288-2.08.576-4.26.822-6.53.103-1.38.247-2.71.412-4.15.535-6.87.679-14.38.679-21.5 0 0 8.168.84 14.772.84z" fill="#e0bd9a"/><path d="M208.736 317.88s-.535.2-1.44.59h-61.024V206.22h.144c6.584 0 14.834-.84 14.834-.84 0 7.05.144 14.48.7 21.35.144 1.34.288 2.72.391 4.06.247 2.36.535 4.58.885 6.66v.04c.102.95.288 1.79.452 2.68.597 2.92 1.317 5.49 2.202 7.55.411.97.864 1.83 1.337 2.57.802 1.19 1.687 2.06 2.695 2.49a3.92 3.92 0 0 0 1.626.35s.535.06 1.502.29c1.008.22 2.51.64 4.32 1.36 2.16.84 4.773 2.09 7.53 3.95 6.42 4.32 13.723 11.85 18.538 24.93 2.16 5.87 3.806 12.82 4.67 21.09.412 4.05.638 8.42.638 13.13z" fill="#efd0ad"/><path d="M163.224 237.25v.04c-1.531 2.36-6.671 9.14-16.849 9.14h-.1c-9.635-.05-15.268-7.02-16.701-9.09.296-2.06.593-4.22.84-6.48.099-1.33.247-2.7.395-4.12a68.468 68.468 0 0 0 15.269 2.01h.197c5.633-.1 10.822-.89 15.664-2.16.149 1.32.297 2.7.396 4.03.247 2.35.543 4.56.889 6.63z" fill="#be987f"/><path d="M145.584 78.266c-64.336 0-64.682 53.784-61.816 88.994-4.398-8.35-17.493-5.8-16.405 7.37 1.037 12.67 19.745 19.13 19.221 17.73 9.743 26.04 35.529 45.67 59 45.67h.494V78.266h-.494z" fill="#d2a686"/><path d="M71.464 169.08c3.162-5.11 8.104-2.9 9.29-1.77 1.284 1.23 2.322 2.8 1.531 5.79-.444 1.72-2.223 1.87-1.828 4.42.494 2.9 1.828 3.05 2.619 3.74.741.63 1.68 1.13 2.125 2.35.494 1.23.543 2.51.296 3.64-.494 2.06-3.508.39-5.534-.49-1.334-.64-5.584-4.23-6.671-5.41-2.668-3.04-3.953-8.93-1.828-12.27z" fill="#ac8774"/><path d="M145.93 78.266c64.336 0 64.682 53.784 61.865 88.994 4.398-8.35 17.442-5.8 16.356 7.37-.988 12.67-19.733 19.13-19.222 17.73-9.49 26.04-35.528 45.67-58.999 45.67h-.346l-.148-159.764h.494z" fill="#ddb598"/><path d="M220.05 169.08c-3.163-5.11-8.055-2.9-9.29-1.77-1.285 1.23-2.273 2.8-1.532 5.79.445 1.72 2.224 1.87 1.828 4.42-.494 2.9-1.828 3.05-2.569 3.74-.741.63-1.729 1.13-2.174 2.35-.445 1.23-.544 2.51-.297 3.64.494 2.06 3.508.39 5.535-.49 1.383-.64 5.582-4.23 6.67-5.41 2.718-3.04 3.953-8.93 1.829-12.27z" fill="#ac8774"/><path d="M145.078 93.442c-21.149 0-36.665 6.139-46.004 18.221-13.095 16.947-12.6 42.777-7.807 61.347 1.482 5.69 2.273 20.97 3.261 26.57 4.595 25.09 32.316 38.45 50.55 38.45h.494V93.442h-.297" fill="#e0bd9a"/><path d="M191.032 111.712c-9.29-12.033-24.608-18.172-45.46-18.27V238.03c20.852-.24 45.806-14.88 50.055-38.45 1.038-5.6 1.779-20.88 3.262-26.57 4.842-18.52 5.336-44.3-7.857-61.298z" fill="#efd0ad"/><path d="M142.197 212.4l-.303-.06c.099.02.187.04.303.06zm-.785-.18c-.093-.02-.178-.05-.269-.07h-.01s.104.03.279.07z" fill="#bc917b"/><path d="M127.61 93.803l-.267.267.044.089c.089-.134.134-.267.223-.356z" fill="#432e1b"/><path d="M142.373 209.47zm-.807-.18c-.096-.03-.182-.06-.276-.08h-.011l.287.08z" fill="#ba907b"/><path d="M132.999 194.96c-.251-5.13 9.426-1.88 12.616-1.71 2.521.12 10.192-1.62 10.85-1.17 4.513 3.04-4.779 9.17-11.01 9.17-1.66 0-12.306-3.19-12.456-6.29z" fill="#dcb497"/><path d="M99.419 149.88s4.908 20.13 13.335 21.77c8.426 1.65 17.546-1.62 17.546-1.62s.872-23.66-3.443-26.75c-4.311-3.11-14.25-7.6-27.438 6.6z" fill="#fff"/><path d="M130.312 169.97s-.194.05-.627.24c-.107-7.26-.779-17.23-3.473-19.14-4.006-2.94-13.052-7.06-25.138 4.23-1.098-3.12-1.649-5.49-1.649-5.49 13.212-14.22 23.16-9.74 27.439-6.63 4.319 3.11 3.448 26.79 3.448 26.79z" fill="#d6b496"/><path d="M125.322 159.72a8.29 8.29 0 0 1-8.294 8.29 8.29 8.29 0 0 1-8.293-8.29c0-4.59 3.713-8.3 8.293-8.3a8.293 8.293 0 0 1 8.294 8.3z" fill="#482315"/><path d="M116.643 165.24c-2.395-.2-4.234-2.62-4.015-5.27.214-2.66 2.422-4.74 4.819-4.54 2.395.2 4.23 2.61 4.019 5.27-.218 2.66-2.429 4.74-4.823 4.54z" fill="#7e3a22"/><path d="M116.85 164.28c-1.667-.14-3.397-1.97-3.213-4.22.187-2.26 2.189-3.79 3.856-3.65 1.668.14 3.393 1.98 3.21 4.23-.184 2.26-2.19 3.78-3.853 3.64z" fill="#211a10"/><path d="M115.5 158.72c-.07.82-.906 1.41-1.863 1.33-.96-.08-1.683-.81-1.618-1.62.069-.81.9-1.41 1.859-1.33.963.08 1.687.8 1.622 1.62zm5.377 4.71c-.035.41-.452.71-.93.67-.481-.04-.841-.41-.811-.81.035-.41.453-.71.93-.67.481.04.846.4.811.81z" fill="#fff"/><path d="M142.504 211.84l-.311-.06c.102.02.192.04.311.06zm-.805-.18c-.096-.02-.183-.05-.277-.08l-.011.01s.107.03.288.07z" fill="#ba907b"/><path d="M146.055 214.23h.001-.001zm-3.928-2.96zm-.863-.19c-.103-.03-.196-.06-.297-.08h-.011l.308.08zm4.791-.02h.001-.001zm-.248 2.33h.001-.001zm-3.928-2.96a3.946 3.946 0 0 1-.333-.07c.109.02.205.04.333.07zm-.863-.19c-.103-.03-.196-.06-.297-.09l-.011.01.308.08zm4.791-.02h.001-.001zm.639 2.96h.001-.001zm-3.796-2.86zm-.835-.19c-.099-.03-.19-.05-.287-.08h-.011l.298.08zm4.631-.02h.001-.001z" fill="#bc917b"/><path d="M192.229 149.19s-4.908 20.14-13.334 21.78c-8.427 1.64-17.547-1.62-17.547-1.62s-.872-23.67 3.443-26.76c4.311-3.1 14.25-7.59 27.438 6.6z" fill="#fff"/><path d="M161.336 169.28s.194.06.627.24c.107-7.26.778-17.23 3.473-19.14 4.006-2.93 13.052-7.06 25.138 4.23 1.098-3.12 1.649-5.48 1.649-5.48-13.212-14.22-23.16-9.74-27.439-6.63-4.319 3.1-3.448 26.78-3.448 26.78z" fill="#d6b496"/><path d="M166.326 159.03a8.29 8.29 0 0 0 8.294 8.29 8.29 8.29 0 1 0 0-16.58 8.29 8.29 0 0 0-8.294 8.29z" fill="#482315"/><path d="M175.005 164.55c2.395-.19 4.234-2.61 4.015-5.27-.214-2.66-2.422-4.73-4.819-4.53-2.395.19-4.231 2.61-4.019 5.26.218 2.66 2.429 4.74 4.823 4.54z" fill="#7e3a22"/><path d="M174.798 163.6c1.667-.15 3.397-1.98 3.213-4.23-.187-2.26-2.189-3.78-3.856-3.65-1.668.14-3.393 1.98-3.21 4.23.184 2.26 2.19 3.78 3.853 3.65z" fill="#211a10"/><path d="M176.148 158.04c.07.81.905 1.41 1.863 1.33.96-.08 1.683-.81 1.618-1.62-.069-.82-.9-1.41-1.859-1.34-.963.08-1.687.81-1.622 1.63zm-5.377 4.71c.035.4.452.7.93.66.481-.04.841-.4.811-.81-.035-.4-.453-.7-.93-.66-.481.04-.846.4-.811.81z" fill="#fff"/><path d="M135.361 149.55c-.064-.09-1.593-2.42-4.719-4.81-1.959-1.51-3.878-2.65-5.87-3.5a30.033 30.033 0 0 0-7.551-2.08c-2.284-.26-4.815-.19-7.768.21-2.254.43-4.453 1.1-6.319 1.92-1.331.46-2.382 1.1-3.227 1.62-.323.2-.616.38-.914.54l-4.025 2.53 4.639-1.09c.216-.06.45-.12.701-.18.96-.26 2.154-.58 3.555-.78.327-.05.661-.12 1.001-.18.584-.12 1.187-.24 1.819-.27.703-.05 1.432-.1 2.181-.15l.973-.07c2.57-.04 4.739.16 6.667.6a25.69 25.69 0 0 1 6.259 1.97c1.875.89 3.673 1.78 5.076 2.81 2.833 1.9 4.41 3.47 4.425 3.49.39.39.91.59 1.433.59.381 0 .763-.11 1.097-.33.934-.61 1.196-1.87.602-2.77l-.035-.07zm57.697-6.12c-.267-.14-.56-.32-.884-.52-.844-.52-1.895-1.16-3.186-1.61-1.906-.83-4.105-1.5-6.386-1.94-2.928-.39-5.459-.46-7.753-.2-2.512.34-5.119 1.06-7.543 2.08-1.963.84-3.936 2.01-5.866 3.5-3.07 2.35-4.596 4.63-4.711 4.81l-.029.04c-.518.8-.407 1.86.263 2.54.382.38.889.59 1.428.59h.001c.54 0 1.046-.21 1.426-.59l.016-.02c.15-.15 1.68-1.64 4.428-3.48 1.381-1.01 3.18-1.9 5.05-2.8 1.993-.92 4.16-1.6 6.293-1.97 1.901-.44 4.074-.63 6.61-.6l1.022.07c.743.05 1.465.1 2.172.15.623.03 1.226.15 1.81.27.34.06.673.13 1 .18 1.401.2 2.595.52 3.556.78.25.06.484.12.707.18l4.636 1.09-4.06-2.55z" fill="#030405"/><path d="M139.529 218.87a3.433 3.433 0 0 1-.309-.07c.101.03.19.04.309.07zm-.8-.18c-.096-.02-.182-.05-.276-.08l-.01.01s.106.03.286.07zm.57-.6a3.433 3.433 0 0 1-.309-.07c.101.03.19.04.309.07zm-.8-.18c-.096-.02-.182-.05-.276-.08l-.01.01s.106.03.286.07zm1.514.07l-.299-.06c.098.02.184.04.299.06zm-.774-.17c-.092-.02-.175-.05-.266-.08l-.01.01s.103.03.276.07z" fill="#be927b"/><path d="M133.274 220.38c-.24-3.2 8.912.67 11.918.76 2.397.08 9.6-.47 10.266-.73 5.035-1.88-.275 5.35-10.415 5.73-4.646.19-11.631-3.82-11.769-5.76z" fill="#f0d2ad"/><path d="M163.441 212.69c-5.804-1.08-18.031.08-18.031.08-10.083 1.67-17.974-.11-18.032-.04-.24.02 8.053 11.02 17.894 10.51 9.842.51 18.41-10.51 18.169-10.55z" fill="#c2646e"/><path d="M151.241 210.37c-2.615-.29-4.478 1.6-5.819 1.46-1.366.13-3.139-1.08-5.77-1.11-3.7-.04-5.506-.36-12.274 2.01.241.46 4.577 2.97 12.698 3.11.115 0 2.294 1.23 5.391 1.21 1.939-.01 4.599-1.3 4.703-1.3 8.133-.13 13.099-2.55 13.328-3-8.946-2.77-8.237-2.42-12.257-2.38z" fill="#d87475"/><path d="M188.783 103.886c-5.947 10.243-4.286 21.824-24.441 29.424-20.148 7.61-29.2 9.69-51.174 18.86-49.832 20.79-24.247 68.93-24.247 68.93s-13.653-12.39-18.61-25.28c-4.954-12.91-24.046-69.07 0-113.46 13.208-24.367 37.645-29.98 59.114-31.624 21.458-1.66 36.769.08 52.284 13.316 3.375 2.868 13.077 3.529 23.724 10.532 23.783 15.683 21.833 38.787 22.871 53.546 1.322 18.84-1.554 32.31-6.169 45.21-4.633 12.89-32.656 50.98-32.656 50.98s21.802-46.54 9.685-76.78c-7.087-17.7-19.769-16.69-20.314-23.57-.565-6.866 9.933-20.084 9.933-20.084z" fill="#f15e25"/><path d="M147.383 281.03l-.411 1.07-.7 1.81-13.352 34.56H94.878c.267-4.54.679-11.21 1.09-14.83 1.605-15.04 10.205-19.5 11.933-44.91 3.868-2.6 7.428-4.02 9.876-4.78.823-.26 1.523-.45 2.057-.55 4.835 9.87 14.629 26.37 26.438 27.55.227.04.474.04.7.06.123 0 .267.02.411.02z" fill="#327799"/><path d="M197.914 318.47H132.92l13.352-34.56.7-1.81.411-1.07c7.962.12 16.809-6.89 25.657-27.61 1.008.22 2.51.64 4.32 1.36 2.16.84 4.773 2.09 7.53 3.95 1.749 25.41 10.329 29.85 11.933 44.91.412 3.62.823 10.29 1.091 14.83z" fill="#1a4a5e"/></g></svg>