<svg viewBox="0 0 300 301" xmlns="http://www.w3.org/2000/svg" fill-rule="evenodd" clip-rule="evenodd" stroke-linejoin="round" stroke-miterlimit="1.414"><g fill-rule="nonzero"><path fill="#718faf" d="M.399.16H299.77v299.705H.399z"/><path d="M154.34 187.413v112.621H93.62c-.99-.395-1.48-.596-1.48-.596 0-14.376 2.1-25.584 5.3-34.325 7.73-21.096 21.88-27.796 28.4-29.816 2.13-.663 3.45-.823 3.45-.823.23 0 .45-.021.67-.056 1.91-.309 3.46-1.975 4.71-4.633.92-1.974 1.7-4.494 2.33-7.409.25-1.137.45-2.283.65-3.522.29-2.083.58-4.262.84-6.545.09-1.389.24-2.726.39-4.165.54-6.89.69-14.433.69-21.574 0 0 8.16.843 14.77.843z" fill="#e0bd9a"/><path d="M216.8 299.438s-.54.201-1.43.596h-61.03V187.413h.15c6.57 0 14.83-.843 14.83-.843 0 7.09.14 14.53.69 21.425.15 1.342.3 2.725.39 4.067.25 2.38.55 4.612.89 6.694v.047c.1.946.3 1.789.45 2.678.6 2.931 1.33 5.507 2.2 7.574 1.1 2.571 2.42 4.365 4.03 5.075.52.231 1.06.344 1.63.344 0 0 2.34.283 5.84 1.661 7.15 2.807 19.16 10.175 26.05 28.978 3.21 8.741 5.31 19.949 5.31 34.325z" fill="#efd0ad"/><path d="M171.29 218.546v.049c-1.53 2.365-6.67 9.164-16.85 9.164h-.09c-9.64-.05-15.27-7.045-16.71-9.115.3-2.069.6-4.236.84-6.503.1-1.33.25-2.709.4-4.138a67.64 67.64 0 0 0 15.27 2.02h.2a65.314 65.314 0 0 0 15.66-2.168c.15 1.33.3 2.71.4 4.04.24 2.365.54 4.582.88 6.651z" fill="#be987f"/><path d="M153.65 59.07c-64.33 0-64.68 53.947-61.81 89.271-4.4-8.375-17.49-5.814-16.41 7.39 1.04 12.711 19.75 19.189 19.22 17.785 9.75 26.124 35.53 45.818 59 45.818h.5V59.07h-.5z" fill="#d2a686"/><path d="M79.53 150.164c3.17-5.124 8.11-2.907 9.29-1.774 1.29 1.232 2.33 2.808 1.54 5.814-.45 1.724-2.23 1.872-1.83 4.434.49 2.906 1.83 3.054 2.62 3.744.74.64 1.68 1.133 2.12 2.365.5 1.231.54 2.512.3 3.645-.5 2.07-3.51.394-5.54-.492-1.33-.641-5.58-4.237-6.67-5.42-2.67-3.054-3.95-8.966-1.83-12.316z" fill="#ac8774"/><path d="M154 59.07c64.34 0 64.68 53.947 61.87 89.271 4.39-8.375 17.44-5.814 16.35 7.39-.99 12.711-19.73 19.193-19.22 17.785-9.49 26.124-35.53 45.818-59 45.818h-.35l-.14-160.264h.49z" fill="#ddb598"/><path d="M228.12 150.164c-3.16-5.124-8.05-2.907-9.29-1.774-1.28 1.232-2.27 2.808-1.53 5.814.44 1.724 2.22 1.872 1.83 4.434-.5 2.906-1.83 3.054-2.57 3.744-.74.64-1.73 1.133-2.18 2.365-.44 1.231-.54 2.512-.29 3.645.49 2.07 3.5.394 5.53-.492 1.38-.641 5.58-4.237 6.67-5.42 2.72-3.054 3.95-8.966 1.83-12.316z" fill="#ac8774"/><path d="M153.15 74.293c-21.15 0-36.67 6.159-46.01 18.278-13.09 16.997-12.6 42.911-7.8 61.534 1.48 5.715 2.27 21.037 3.26 26.654 4.59 25.175 32.31 38.575 50.55 38.575h.49V74.293h-.49z" fill="#e0bd9a"/><path d="M199.1 92.621c-9.29-12.071-24.61-18.229-45.46-18.328v145.041c20.85-.246 45.81-14.928 50.06-38.575 1.04-5.617 1.78-20.939 3.26-26.654 4.84-18.573 5.34-44.439-7.86-61.484z" fill="#efd0ad"/><path d="M150.27 193.623c-.1-.022-.2-.041-.31-.065.1.022.19.041.31.065zm-.79-.176c-.09-.024-.18-.051-.27-.076l-.01.005.28.071z" fill="#bc917b"/><path d="M135.68 74.655l-.27.269.05.089c.09-.134.13-.268.22-.358z" fill="#432e1b"/><path d="M150.44 190.681c-.1-.023-.2-.043-.31-.067.1.023.19.042.31.067zm-.8-.181c-.1-.025-.19-.052-.28-.078l-.01.005s.11.029.29.073z" fill="#ba907b"/><path d="M142.58 172.258c-.25-5.147 9.43-1.88 12.62-1.719 2.52.129 10.19-1.623 10.85-1.172 4.51 3.052-4.78 9.199-11.01 9.199-1.66 0-12.31-3.202-12.46-6.308z" fill="#dcb497"/><path d="M107.49 130.903s4.91 20.199 13.33 21.847c8.43 1.648 17.55-1.629 17.55-1.629s.87-23.737-3.44-26.838c-4.31-3.116-14.25-7.617-27.44 6.62z" fill="#fff"/><path d="M138.38 151.059s-.19.056-.62.237c-.11-7.28-.78-17.281-3.48-19.196-4-2.943-13.05-7.084-25.14 4.242-1.09-3.129-1.64-5.502-1.64-5.502 13.21-14.264 23.16-9.77 27.43-6.653 4.32 3.114 3.45 26.872 3.45 26.872z" fill="#d6b496"/><path d="M133.39 140.774c0 4.594-3.71 8.32-8.29 8.32-4.58 0-8.3-3.726-8.3-8.32 0-4.595 3.72-8.32 8.3-8.32s8.29 3.725 8.29 8.32z" fill="#482315"/><path d="M124.71 146.315c-2.39-.199-4.23-2.623-4.01-5.289.21-2.665 2.42-4.751 4.82-4.549 2.39.197 4.23 2.619 4.02 5.284-.22 2.666-2.43 4.755-4.83 4.554z" fill="#7e3a22"/><path d="M124.92 145.353c-1.67-.142-3.4-1.977-3.21-4.237.18-2.267 2.19-3.797 3.85-3.659 1.67.142 3.4 1.984 3.21 4.244-.18 2.263-2.19 3.79-3.85 3.652z" fill="#211a10"/><path d="M123.57 139.778c-.07.817-.91 1.414-1.86 1.335-.96-.082-1.69-.812-1.62-1.624.07-.821.9-1.418 1.86-1.339.96.078 1.68.807 1.62 1.628zm5.38 4.725c-.04.406-.46.706-.93.665-.48-.037-.84-.406-.81-.812.03-.406.45-.706.93-.665.48.037.84.402.81.812z" fill="#fff"/><path d="M150.57 193.063l-.31-.067c.11.023.2.042.31.067zm-.8-.181c-.1-.024-.18-.052-.28-.077l-.01.004s.11.029.29.073z" fill="#ba907b"/><path d="M150.2 192.493l-.34-.072.34.072zm-.87-.194c-.1-.027-.19-.056-.29-.083l-.01.004s.11.031.3.079zm.62-.651c-.11-.024-.22-.046-.33-.071l.33.071zm-.86-.194c-.11-.026-.2-.056-.3-.083l-.01.004s.11.032.31.079zm1.63.078c-.11-.023-.22-.044-.32-.069.1.024.2.044.32.069zm-.83-.187c-.1-.025-.19-.054-.29-.08l-.01.004s.11.031.3.076z" fill="#bc917b"/><path d="M200.3 130.216s-4.91 20.198-13.33 21.847c-8.43 1.648-17.55-1.629-17.55-1.629s-.87-23.737 3.44-26.839c4.31-3.115 14.25-7.617 27.44 6.621z" fill="#fff"/><path d="M169.41 150.372s.19.056.62.237c.11-7.281.78-17.281 3.48-19.197 4-2.942 13.05-7.083 25.13 4.243 1.1-3.129 1.65-5.502 1.65-5.502-13.21-14.264-23.16-9.771-27.44-6.653-4.32 3.114-3.44 26.872-3.44 26.872z" fill="#d6b496"/><path d="M174.4 140.087c0 4.594 3.71 8.319 8.29 8.319 4.58 0 8.29-3.725 8.29-8.319 0-4.595-3.71-8.32-8.29-8.32-4.58 0-8.29 3.725-8.29 8.32z" fill="#482315"/><path d="M183.07 145.627c2.4-.198 4.24-2.622 4.02-5.288-.21-2.665-2.42-4.751-4.82-4.55-2.39.198-4.23 2.62-4.02 5.284.22 2.666 2.43 4.755 4.82 4.554z" fill="#7e3a22"/><path d="M182.87 144.666c1.67-.143 3.4-1.977 3.21-4.237-.19-2.267-2.19-3.797-3.85-3.66-1.67.142-3.4 1.985-3.21 4.245.18 2.263 2.19 3.79 3.85 3.652z" fill="#211a10"/><path d="M184.22 139.091c.07.816.9 1.413 1.86 1.335.96-.083 1.68-.812 1.62-1.625-.07-.82-.9-1.417-1.86-1.339-.96.079-1.69.808-1.62 1.629zm-5.38 4.724c.04.407.45.707.93.666.48-.037.84-.406.81-.812-.03-.406-.45-.707-.93-.666-.48.038-.84.403-.81.812z" fill="#fff"/><path d="M143.43 130.581c-.06-.098-1.59-2.43-4.72-4.834-1.96-1.508-3.88-2.655-5.87-3.509a30.252 30.252 0 0 0-7.55-2.088c-2.28-.255-4.81-.187-7.77.211-2.25.431-4.45 1.104-6.32 1.929-1.33.46-2.38 1.106-3.22 1.625-.33.199-.62.379-.92.54l-4.02 2.538 4.64-1.093c.21-.055.45-.116.7-.183.96-.256 2.15-.574 3.55-.78.33-.048.66-.114 1-.182.59-.116 1.19-.237 1.82-.267.71-.047 1.43-.1 2.18-.153l.98-.071c2.57-.032 4.74.163 6.66.608 2.11.365 4.28 1.047 6.26 1.969 1.88.901 3.68 1.793 5.08 2.827 2.83 1.897 4.41 3.479 4.42 3.494v.001c.39.393.91.596 1.44.596.38 0 .76-.109 1.09-.329.94-.613 1.2-1.876.61-2.788l-.04-.061zm57.7-6.145c-.27-.142-.56-.322-.89-.522-.84-.519-1.89-1.164-3.18-1.608-1.91-.841-4.11-1.514-6.39-1.949-2.93-.395-5.46-.462-7.75-.206a30.287 30.287 0 0 0-7.54 2.088c-1.97.842-3.94 2.022-5.87 3.508-3.07 2.36-4.6 4.651-4.71 4.827l-.03.042c-.52.8-.41 1.871.26 2.546a2.012 2.012 0 0 0 2.86 0l.01-.017c.15-.149 1.68-1.65 4.43-3.491 1.38-1.017 3.18-1.911 5.05-2.81 2-.925 4.16-1.607 6.3-1.977 1.9-.44 4.07-.631 6.61-.604l1.02.073c.74.053 1.46.105 2.17.152.62.03 1.23.151 1.81.267.34.068.67.135 1 .183 1.4.206 2.59.523 3.55.779.26.067.49.129.71.184l4.64 1.093-4.06-2.558z" fill="#030405"/><path d="M149.12 195.454c-.11-.023-.22-.044-.33-.069.11.024.2.043.33.069zm-.84-.188c-.1-.026-.2-.055-.29-.082l-.01.005s.11.03.3.077z" fill="#be927b"/><path d="M141.75 199.621c-.24-3.247 9.02.68 12.06.774 2.43.082 9.71-.481 10.39-.739 5.09-1.911-.28 5.429-10.54 5.815-4.7.188-11.77-3.88-11.91-5.85z" fill="#f0d2ad"/><path d="M171.9 193.361c-2.51-.124-5.09 1.977-8.12 1.656-.12-.062-.18-.062-.31-.062-.7-.123-1.39 0-2.14.185-.94.198-1.89.58-2.77.889-1.51.493-3.22.888-4.97.752v.012l-.1-.011-.09.011v-.012c-1.76.136-3.46-.259-4.97-.752-.89-.309-1.83-.691-2.77-.889-.76-.185-1.45-.308-2.14-.185-.13 0-.19 0-.31.062-3.03.321-5.61-1.78-8.12-1.656-.7.061-1.71-.124-2.27-.124.12.061.25.124.38.185 7.17 3.504 13.35 10.068 20.2 9.858h.19c6.85.21 13.03-6.354 20.2-9.858.13-.061.25-.124.38-.185-.57 0-1.57.185-2.27.124z" fill="#dcbf9e"/><path d="M174.01 193.16s-7.29-2.815-12.47-1.163c0 0-1.93.754-3.93 1.214-1.22.475-2.69.613-4.12.556a22.674 22.674 0 0 1-2.97-.332c-.29-.043-.57-.101-.86-.163-.12-.026-.22-.046-.32-.069-.18-.041-.35-.075-.52-.12-.19-.046-.3-.077-.3-.077l.01-.004a33.828 33.828 0 0 1-3.08-1.005c-5.18-1.652-12.47 1.163-12.47 1.163-.1.046-.16.077-.16.077.56 0 1.57.185 2.27.124 2.51-.124 5.09 1.977 8.12 1.656.12-.062.18-.062.31-.062.69-.123 1.38 0 2.14.185.94.198 1.88.58 2.77.889 1.51.493 3.21.888 4.97.752v.012l.09-.011.1.011v-.012c1.75.136 3.46-.259 4.97-.752.88-.309 1.83-.691 2.77-.889.75-.185 1.44-.308 2.14-.185.13 0 .19 0 .31.062 3.03.321 5.61-1.78 8.12-1.656.7.061 1.7-.124 2.27-.124 0 0-.06-.031-.16-.077z" fill="#c69f83"/><path d="M141.26 194.875c.13.033 13.65 4.163 24.22.09l-1.21-.822h-14.3l-8.71.732z" fill="#c69f83"/><path d="M99.39 252.34s-8.97 19.21-8.86 30.47h11.43c-.04 7.723-.28 13.599-.52 17.224h52.97l-52.38-50.973a50.578 50.578 0 0 0-2.64 3.279z" fill="#7c5a9f"/><path d="M218.39 282.81c.41-17.226-8.72-30.47-8.72-30.47-3.1-4.266-6.48-7.5-9.83-9.965-.26-.26-.59-.475-.88-.695a42.88 42.88 0 0 0-11.72-6.004c-.61-.219-1.17-.385-1.67-.56-2.27-.627-3.67-.755-3.67-.755-1.25 0-2.37-.475-3.34-1.283l-.05-.042c-.33-.307-.66-.67-.96-1.064-.15.088-.38.437-.62 1.106-.64 1.554-3.41 7.492-7.54 12.924l37.82 36.808h11.18z" fill="#3d2a56"/><path d="M207.66 300.032h-53.25l-52.38-50.963c2.32-2.674 4.71-4.855 7.1-6.625l.18-.144c.23-.226.5-.391.7-.535.78-.555 1.57-1.069 2.33-1.563a44.007 44.007 0 0 1 9.28-4.485c.59-.206 1.15-.391 1.66-.515 2.41-.679 3.89-.843 3.89-.843 1.26 0 2.37-.474 3.33-1.276l.04-.041c.31-.288.64-.659.95-1.029l.04-.041c.08.041.17.144.27.329l.02.041c.1.186.21.432.31.741 1.25 3.024 10.64 22.837 22.4 22.817.27 0 .54-.021.81-.041 5.41-.412 10.28-4.917 14.05-9.855l37.81 36.807h-.12c.04 7.715.31 13.6.58 17.221z" fill="#554467"/><path d="M154.6 201.342v-.004l-.04.002-.05-.002v.004c-2.04.032-4 1.063-5.07 4.271 0 0-1.29 4.141-5.54 6.718-9.95-3.294-8.77-10.006-5.66-15.397 4.48-.654 10.05-1.52 16.67-2.078 0 0 7.79 2.633 15.87 3.525 2.17 4.728 2.28 10.026-5.16 13.075-4.78-1.999-5.94-5.843-5.94-5.843-1.07-3.208-3.03-4.239-5.08-4.271zm20.06-12.557s-10.49-13.707-19.76-8.222c-9.25-5.485-19.75 8.222-19.75 8.222-9.11 8.874-14.98-1.156-14.98-1.156.17 3.18.89 5.368 2.16 7.029l.06.064s.24.24.58.56c.32.319.84.737 1.55 1.146l.04.021c.69.391 1.59.785 2.72 1.074.36.113.79.182 1.26.23.42 7.611 3.71 13.123 6.61 16.553l-.19-.002s1.47 1.813 4.15 3.858c.33.25.52.379.52.379v-.002c3.39 2.479 8.48 5.152 14.88 5.303v.004l.05-.002.04.002v-.004c6.19-.146 11-3.095 14.24-5.938 1.78-1.338 9.54-7.833 10.61-19.477.82-.113 1.63-.255 2.38-.461 1.4-.271 2.68-.768 3.78-1.538 2.27-1.595 3.79-4.369 4.03-8.799 0 0-5.85 10.03-14.98 1.156zm46.86-97.263c-1.34-4.85-2.71-8.602-2.72-8.626.01.009.2.045 2.06.045 11.52-.025 18.02-11.059 18.02-11.059s-4.35 6.297-19.3 1.388c-14.61-4.785-14.23-20.381-35.23-29.084-10.75-4.457-17.17-3.875-20.89-2.249 3.77-3.066 11.51-2.793 11.51-2.793s-9.55-5.212-24.32-.538c-10.37 3.288-16.58 7.03-20.06 9.714l5.82-5.499s-4.13 1.451-9.96 4.398c3.97-7.632 11.31-15.995 11.31-15.995-18.71 6.907-34.2 31.755-34.2 31.755 1.49-9.37 4.76-17.942 4.76-17.942-31.93 23.544-26.96 66.06-26.96 66.06 0 16.092 6.4 32.224 10.6 37.017 4.2 4.79 2.85 11.74 4.11 11.74 0 0 2.53.089 2.61-12.049.12-1.548.38-3.448.95-5.11 0 0 3.89-67.846 50.94-48.111 0 0 19.06 8.14 33.89 9.425 11.03.955 20.1 9.23 22.48 20.042 1.13 5.143 1.41 9.673.88 12.308-3.15 15.743 1.24 24.808 2.92 24.383 0 0 .06-3.999 1.59-7.562 4.51-10.612 8.31-3.238 9.01-17.629.56-11.552 1.97-18.079 2.54-23.943 3.58 2.833 8.93 4.842 16.92 5.007 0 0-11.3-3.471-19.28-25.093z" fill="#36393a"/><path d="M199.53 300.032h-32.49L109.31 242.3c.23-.226.5-.391.7-.535.78-.555 1.57-1.069 2.33-1.563a44.007 44.007 0 0 1 9.28-4.485c.59-.206 1.15-.391 1.66-.515 2.41-.679 3.89-.843 3.89-.843 1.26 0 2.37-.474 3.33-1.276l.04-.041c.31-.288.64-.659.95-1.029l.31.288.02.041c.1.186.21.432.31.741 1.25 3.024 10.64 22.837 22.4 22.817.27 0 .54-.021.81-.041l44.19 44.173z" fill="#ac91c4"/></g><path d="M104.06 154.258c-2.94-6.935-2.13-13.837-2.13-13.837.88-4.188 2.99-7.033 5.71-8.934.66 2.5 3.5 12.408 8.08 17.811-4.28 1.136-8.12 2.895-11.4 4.811l-.12.066c0 .003-.01.005-.01.007-.04.025-.09.051-.13.076zm39.95-1.499c-.17-.087-.33-.172-.5-.256-.03-.019-.07-.038-.1-.056-.02-.007-.03-.014-.05-.021a43.389 43.389 0 0 0-4.96-2.152c.07-2.669.21-11.601-.73-18.347 11.19 7.362 6.77 19.327 6.77 19.327-.13.518-.27 1.019-.43 1.505z" fill="url(#a)"/><path d="M137.73 150.038a38.05 38.05 0 0 0-8.78-1.895 8.322 8.322 0 0 0 4.44-7.369c0-4.595-3.71-8.32-8.29-8.32-4.58 0-8.3 3.725-8.3 8.32a8.334 8.334 0 0 0 4.6 7.448c-1.97.222-3.87.593-5.68 1.076-4.58-5.403-7.42-15.311-8.08-17.811 0-.003.01-.007.01-.01.24.908.74 2.706 1.49 4.865 6.07-5.683 11.37-7.472 15.65-7.472 4.25 0 7.5 1.764 9.49 3.23 2.54 1.807 3.29 10.811 3.45 17.938z" fill="url(#b)"/><path d="M138.4 150.274c-.22-.081-.44-.16-.67-.236-.16-7.127-.91-16.131-3.45-17.938-1.99-1.466-5.24-3.23-9.49-3.23-4.28 0-9.58 1.789-15.65 7.472a68.37 68.37 0 0 1-1.49-4.865c3.96-2.754 9.19-3.522 13.8-3.522 5.79 0 10.59 1.214 10.59 1.214 2.21.8 4.07 1.735 5.63 2.758.94 6.746.8 15.678.73 18.347z" fill="url(#c)"/><path d="M121.4 148.222a8.334 8.334 0 0 1-4.6-7.448c0-4.595 3.72-8.32 8.3-8.32s8.29 3.725 8.29 8.32c0 3.199-1.8 5.977-4.44 7.369a36.977 36.977 0 0 0-3.36-.156h-.05c-1.41.001-2.79.083-4.14.235zm-.67-7.466c-.02.089-.03.179-.03.27-.22 2.666 1.62 5.09 4.01 5.289.11.009.22.013.32.013 1.07 0 2.07-.443 2.87-1.176a.987.987 0 0 0 .2.02c.44 0 .81-.288.85-.669a.664.664 0 0 0-.15-.467c.41-.667.67-1.443.74-2.275.21-2.665-1.63-5.087-4.02-5.284a3.997 3.997 0 0 0-.32-.014c-1.29 0-2.5.652-3.35 1.681l-.07-.001c-.89 0-1.63.574-1.69 1.346-.04.496.21.961.64 1.267z" fill="url(#d)"/><path d="M125.03 146.328c-.1 0-.21-.004-.32-.013-2.39-.199-4.23-2.623-4.01-5.289 0-.091.01-.181.03-.27.27.195.6.325.98.357v.003c-.19 2.26 1.54 4.095 3.21 4.237.07.006.14.008.21.008.71 0 1.46-.285 2.1-.788.07.28.33.512.67.579-.8.733-1.8 1.176-2.87 1.176zm3.77-2.292a.907.907 0 0 0-.66-.345l-.08-.004c.39-.557.65-1.23.71-1.986.19-2.26-1.54-4.102-3.21-4.244a2.458 2.458 0 0 0-.21-.009c-.83 0-1.71.391-2.41 1.064a1.929 1.929 0 0 0-1.09-.368c.85-1.029 2.06-1.681 3.35-1.681.1 0 .21.005.32.014 2.39.197 4.23 2.619 4.02 5.284a5.165 5.165 0 0 1-.74 2.275z" fill="url(#e)"/><path d="M125.13 145.361c-.07 0-.14-.002-.21-.008-1.67-.142-3.4-1.977-3.21-4.237v-.003c.05.004.11.007.17.007.88 0 1.63-.574 1.69-1.342.04-.497-.21-.96-.63-1.266.7-.673 1.58-1.064 2.41-1.064.07 0 .14.003.21.009 1.67.142 3.4 1.984 3.21 4.244a3.993 3.993 0 0 1-.71 1.986h-.01c-.44 0-.81.288-.84.669a.53.53 0 0 0 .02.217c-.64.503-1.39.788-2.1.788z" fill="url(#f)"/><path d="M121.88 141.12a1.934 1.934 0 0 1-1.15-.364c-.43-.306-.68-.771-.64-1.267.06-.772.8-1.346 1.69-1.346a1.634 1.634 0 0 1 .17.007c.38.031.72.163.99.362.42.306.67.769.63 1.266-.06.768-.81 1.342-1.69 1.342z" fill="url(#g)"/><path d="M128.1 145.172a.987.987 0 0 1-.2-.02c-.34-.067-.6-.299-.67-.579-.02-.07-.03-.143-.02-.217.03-.381.4-.669.84-.669h.01l.08.004c.28.022.52.156.66.345.11.134.16.297.15.467-.04.381-.41.669-.85.669z" fill="url(#h)"/><path d="M168 154.677c-.42-1.052-.8-2.191-1.12-3.423 0 0-3.22-8.718 2.8-15.849-.56 7.224-.27 14.967-.27 14.967l.01.002v.06s1.67.603 4.25 1.161a47.812 47.812 0 0 0-4.63 2.44c-.07.04-.13.081-.2.122l-.06.034-.18.111c-.1.059-.19.118-.29.178l-.18.116c-.05.026-.09.054-.13.081zm39.02-2.66c-4.23-1.983-9.13-3.527-14.52-3.929 5-6.349 7.8-17.872 7.8-17.872-.01-.006-.01-.012-.02-.018.01-.03.01-.045.01-.045-.23-.248-.46-.49-.68-.727 3.38 1.2 6.38 3.274 8.25 6.719-.01.073-.03.144-.04.214-1.28 6.378-1.31 11.659-.8 15.658z" fill="url(#i)"/><path d="M173.67 151.595c-2.58-.558-4.25-1.161-4.25-1.161v-.06c.04.013.23.076.61.235.09-6.17.59-14.293 2.38-17.794 1.78-1.373 4.03-2.619 6.87-3.646 0 0 2.15-.545 5.31-.904 3.98.406 8.72 2.392 14.05 7.39 1.01-2.879 1.56-5.118 1.64-5.457.01.006.01.012.02.018 0 0-2.8 11.523-7.8 17.872-.9-.067-1.81-.102-2.73-.102h-.05c-5.01.003-10.4 1.034-16.05 3.609zm9.02-19.828c-4.58 0-8.29 3.725-8.29 8.32 0 4.594 3.71 8.319 8.29 8.319 4.58 0 8.29-3.725 8.29-8.319 0-4.595-3.71-8.32-8.29-8.32z" fill="url(#j)"/><path d="M170.03 150.609a8.34 8.34 0 0 0-.61-.235l-.01-.002s-.29-7.743.27-14.967a17.85 17.85 0 0 1 2.73-2.59c-1.79 3.501-2.29 11.624-2.38 17.794zm28.61-14.954c-5.33-4.998-10.07-6.984-14.05-7.39 1.56-.178 3.37-.31 5.28-.31 3.16 0 6.61.36 9.74 1.471.22.237.45.479.68.727 0 0 0 .015-.01.045-.08.339-.63 2.578-1.64 5.457z" fill="url(#k)"/><path d="M182.69 148.406c-4.58 0-8.29-3.725-8.29-8.319 0-4.595 3.71-8.32 8.29-8.32 4.58 0 8.29 3.725 8.29 8.32 0 4.594-3.71 8.319-8.29 8.319zm-2.8-3.941c.79.732 1.8 1.175 2.87 1.175.1 0 .21-.004.31-.013 2.4-.198 4.24-2.622 4.02-5.288l-.03-.271c.42-.305.68-.771.64-1.267-.07-.771-.8-1.346-1.69-1.346l-.07.002c-.85-1.03-2.06-1.681-3.35-1.681-.1 0-.21.004-.32.013-2.39.198-4.23 2.62-4.02 5.284.07.832.33 1.608.73 2.276a.704.704 0 0 0-.14.466c.03.382.4.67.84.67a.987.987 0 0 0 .21-.02z" fill="url(#l)"/><path d="M182.76 145.64c-1.07 0-2.08-.443-2.87-1.175.34-.067.6-.299.67-.579.64.503 1.39.788 2.1.788.07 0 .14-.002.21-.008 1.67-.143 3.4-1.977 3.21-4.237v-.003c.37-.032.71-.163.98-.358l.03.271c.22 2.666-1.62 5.09-4.02 5.288-.1.009-.21.013-.31.013zm-3.78-2.291a5.294 5.294 0 0 1-.73-2.276c-.21-2.664 1.63-5.086 4.02-5.284.11-.009.22-.013.32-.013 1.29 0 2.5.651 3.35 1.681l-.1.005a1.93 1.93 0 0 0-.99.363c-.7-.673-1.59-1.064-2.42-1.064-.07 0-.14.003-.2.008-1.67.142-3.4 1.985-3.21 4.245.06.756.32 1.429.71 1.986a.945.945 0 0 0-.75.349z" fill="url(#m)"/><path d="M182.66 144.674c-.71 0-1.46-.285-2.1-.788.02-.07.03-.143.02-.217-.03-.381-.4-.669-.84-.669h-.01a3.993 3.993 0 0 1-.71-1.986c-.19-2.26 1.54-4.103 3.21-4.245.06-.005.13-.008.2-.008.83 0 1.72.391 2.42 1.064-.42.306-.67.769-.63 1.266.06.768.81 1.342 1.69 1.342.06 0 .11-.003.17-.007v.003c.19 2.26-1.54 4.094-3.21 4.237-.07.006-.14.008-.21.008z" fill="url(#n)"/><path d="M185.91 140.433c-.88 0-1.63-.574-1.69-1.342-.04-.497.21-.96.63-1.266.27-.199.61-.332.99-.363l.1-.005.07-.002c.89 0 1.62.575 1.69 1.346.04.496-.22.962-.64 1.267a1.97 1.97 0 0 1-1.15.365z" fill="url(#o)"/><path d="M179.68 144.485c-.44 0-.81-.288-.84-.67a.704.704 0 0 1 .14-.466.945.945 0 0 1 .75-.349h.01c.44 0 .81.288.84.669a.53.53 0 0 1-.02.217c-.07.28-.33.512-.67.579a.987.987 0 0 1-.21.02z" fill="url(#p)"/><path d="M207.94 152.459c-.15-.072-.29-.144-.44-.215-.03-.016-.07-.032-.1-.048v-.002c-.13-.06-.25-.118-.38-.177-.51-3.999-.48-9.28.8-15.658.01-.07.03-.141.04-.214.67 1.24 1.19 2.658 1.53 4.276 0 0 .68 5.757-1.45 12.038z" fill="url(#q)"/><path d="M206.62 155.651c.11-.57.22-1.089.34-1.546l.24-.926c.04.294.1.581.15.859-.22.538-.46 1.077-.73 1.613z" fill="#c4c4a0" fill-rule="nonzero"/><path d="M186.59 168.013c-.26 0-.53-.01-.79-.033-3.53-.283-13.32-2.099-17.8-13.303.04-.027.08-.055.13-.081l.18-.116c.1-.06.19-.119.29-.178l.18-.111.06-.034c.07-.041.13-.082.2-.122a46.806 46.806 0 0 1 4.64-2.44c2.22.482 5.12.931 8.2.931 1.67 0 3.39-.132 5.09-.463 2.06-.403 3.91-1.918 5.53-3.975 5.39.402 10.29 1.946 14.52 3.929.06.4.11.788.18 1.162l-.24.926c-.12.457-.23.976-.34 1.546-2.78 5.546-8.17 10.816-18.53 12.252-.49.072-1 .11-1.5.11z" fill="#cdd1aa" fill-rule="nonzero"/><path d="M181.88 152.526c-3.08 0-5.98-.449-8.2-.931 5.64-2.574 11.03-3.606 16.04-3.609h.05c.92 0 1.83.035 2.73.102-1.62 2.057-3.47 3.572-5.53 3.975-1.7.331-3.42.463-5.09.463z" fill="#d2e7d1" fill-rule="nonzero"/><path d="M207.35 154.038c-.05-.278-.11-.565-.15-.859-.07-.374-.12-.762-.18-1.162.13.059.25.117.38.177v.002c.03.016.07.032.1.048.15.071.29.143.44.215-.18.524-.37 1.051-.59 1.579z" fill="#657668" fill-rule="nonzero"/><path d="M207.02 152.017c-4.23-1.983-9.13-3.527-14.52-3.929 5.39.402 10.29 1.946 14.52 3.929z" fill="url(#r)"/><path d="M207.4 152.194c-.13-.06-.25-.118-.38-.177.13.059.25.117.38.177z" fill="url(#s)"/><path d="M124.73 168.013c-.5 0-1-.038-1.5-.11-11.22-1.559-16.62-7.616-19.17-13.645.04-.025.09-.051.13-.076 0-.002.01-.004.01-.007l.12-.066c3.28-1.916 7.12-3.675 11.4-4.811 1.51 1.788 3.22 3.084 5.1 3.452 1.7.331 3.42.463 5.09.463 6.64.001 12.46-2.092 12.46-2.092v-.059l.01-.003s.01-.28.02-.785a43.389 43.389 0 0 1 4.96 2.152c.02.007.03.014.05.021.03.018.07.037.1.056.17.084.33.169.5.256-4.08 12.92-14.77 14.921-18.48 15.221-.27.022-.53.033-.8.033z" fill="#c6c8a0" fill-rule="nonzero"/><path d="M125.91 153.213c-1.67 0-3.39-.132-5.09-.463-1.88-.368-3.59-1.664-5.1-3.452 1.81-.483 3.71-.854 5.68-1.076 1.11.558 2.37.872 3.7.872 1.39 0 2.7-.344 3.85-.951 2.83.263 5.76.866 8.78 1.895l.03 1.258c.37-.158.57-.22.61-.234v.059s-5.82 2.093-12.46 2.092z" fill="#d2e7d1" fill-rule="nonzero"/><path d="M137.76 151.296l-.03-1.258c.23.076.45.155.67.236-.01.505-.02.785-.02.785l-.01.003c-.04.014-.24.076-.61.234z" fill="#c1c39e" fill-rule="nonzero"/><path d="M125.1 149.094c-1.33 0-2.59-.314-3.7-.872 1.35-.152 2.73-.234 4.14-.235h.05c1.1.001 2.22.051 3.36.156a8.224 8.224 0 0 1-3.85.951z" fill="#756b51" fill-rule="nonzero"/><path d="M104.06 154.258c.04-.025.09-.051.13-.076-.04.025-.09.051-.13.076zm.14-.083l.12-.066-.12.066zm39.81-1.416c-.17-.087-.33-.172-.5-.256.17.084.33.169.5.256zm-.6-.312c-.02-.007-.03-.014-.05-.021.02.007.03.014.05.021zm-.1-.049z" fill="url(#t)"/><path d="M128.95 148.143zm-3.41-.156h.03-.03z" fill="url(#u)"/><path d="M155.68 130.002v-.001h-.04v.001c-.56.011-7.04.16-9.53 1.355 0 0-1.98 1.041-5.73-2.294 0 0-3.01-1.784-4.81-2.281-.81-.222-.74-1.385.08-1.523.4-.062.92-.087 1.6-.05h36.82c.68-.037 1.21-.012 1.6.05.83.138.89 1.301.08 1.523-1.8.497-4.8 2.281-4.8 2.281-3.75 3.335-5.73 2.294-5.73 2.294-2.49-1.195-8.97-1.344-9.54-1.355zm-53.75 10.42c3.75-17.922 30.11-11.252 30.11-11.252 18.13 6.563 12.4 22.085 12.4 22.085a35.777 35.777 0 0 1-.82 2.657l-.1.237c-.11.305-.23.607-.35.898l-.05.113a22.657 22.657 0 0 1-2.01 3.766v.01c-.15.221-.3.431-.45.641l-.15.206c-.13.183-.27.356-.41.531l-.2.262c-.13.16-.27.312-.4.465-.08.091-.16.186-.24.274-.13.143-.26.278-.39.414a5.15 5.15 0 0 1-.26.277c-.13.127-.26.249-.38.371-.1.09-.19.182-.29.27-.12.115-.25.225-.38.336-.1.086-.19.174-.29.258-.13.105-.26.205-.38.305-.11.082-.21.164-.31.243-.13.095-.25.186-.38.277-.1.077-.21.155-.32.229-.12.086-.24.168-.37.25-.1.072-.21.144-.32.213-.12.078-.25.153-.37.227a19.114 19.114 0 0 1-.69.401c-.11.062-.23.123-.34.182-.12.063-.23.123-.35.183-.11.057-.23.112-.34.166-.12.056-.23.111-.35.164-.11.052-.22.102-.34.151-.11.05-.22.098-.33.145l-.34.138c-.11.044-.22.086-.33.127-.11.043-.23.084-.34.124-.1.038-.21.076-.32.112-.11.038-.22.074-.33.11l-.3.098a41.105 41.105 0 0 1-.62.181c-.11.029-.21.056-.32.083-.09.025-.19.051-.28.074l-.31.071c-.09.021-.18.043-.27.062-.1.022-.19.041-.29.06l-.26.054-.26.048-.26.045-.23.037-.26.039-.18.024c-.09.013-.18.026-.27.037l-.08.008c-.25.03-.49.054-.7.071l-.14.007c-.55.037-1.1.028-1.66-.025-.16-.016-.33-.034-.5-.058-.64-.089-1.25-.194-1.85-.31l-.21-.039a28.4 28.4 0 0 1-.7-.151c-.1-.023-.2-.044-.3-.068-.21-.05-.42-.103-.63-.156-.11-.029-.23-.058-.34-.088-.2-.053-.39-.109-.58-.165-.12-.034-.24-.068-.35-.104a18.9 18.9 0 0 1-.55-.173c-.12-.04-.24-.079-.35-.12-.18-.059-.35-.12-.51-.182-.12-.044-.24-.088-.36-.134-.16-.062-.33-.126-.48-.19l-.36-.149a29.27 29.27 0 0 1-.81-.361 26.78 26.78 0 0 1-.42-.202c-.12-.059-.24-.12-.36-.181-.13-.068-.26-.135-.39-.205-.12-.066-.24-.134-.36-.202l-.36-.202c-.13-.077-.26-.156-.38-.234a14.337 14.337 0 0 1-.8-.512l-.17-.116c-.22-.151-.44-.305-.65-.461l-.1-.079c-.17-.131-.34-.263-.51-.398l-.16-.135c-.14-.118-.29-.237-.43-.358l-.16-.15a12.94 12.94 0 0 1-.4-.357l-.16-.157c-.13-.121-.25-.242-.37-.365l-.16-.157-.36-.376-.14-.157c-.12-.13-.23-.26-.34-.391l-.13-.15c-.12-.136-.23-.273-.34-.41l-.11-.14c-.11-.145-.23-.29-.33-.436l-.09-.121c-.12-.156-.23-.312-.34-.47l-.07-.096c-.11-.171-.23-.343-.34-.516l-.04-.057a23.443 23.443 0 0 1-1.6-2.976l-.05-.109c-3.13-7.06-2.3-14.216-2.3-14.216zm107.46 0s.67 5.757-1.45 12.037c-.28.82-.6 1.649-.98 2.475l-.01.021c-.09.194-.18.388-.28.582l-.03.067-.27.533-.06.109-.27.49-.09.143c-.08.151-.17.302-.27.453l-.1.168-.27.424-.13.188-.27.398-.15.205-.27.376-.17.216c-.09.12-.19.239-.28.358l-.19.223c-.09.114-.19.227-.29.34l-.2.23-.3.325-.22.232c-.1.105-.21.21-.31.313l-.24.231c-.1.102-.21.203-.32.303l-.25.227c-.11.099-.23.196-.34.293l-.27.222c-.11.096-.23.19-.35.284-.09.073-.18.145-.28.217-.12.092-.25.183-.37.274-.1.07-.19.14-.29.208-.13.091-.26.18-.4.268-.09.066-.19.132-.29.197-.14.089-.28.176-.43.264l-.3.183-.45.258-.3.169c-.17.086-.33.17-.49.254-.1.051-.2.102-.31.152-.17.086-.35.168-.53.25-.09.045-.19.091-.29.135-.19.086-.39.168-.59.25-.09.037-.17.076-.26.112-.22.087-.44.169-.66.251l-.24.088c-.24.088-.5.172-.75.255l-.18.059c-.28.092-.58.179-.88.263l-.08.026c-1.33.371-2.76.669-4.3.883a10.255 10.255 0 0 1-2.21.081l-.08-.005-.17-.015-.2-.018-.13-.015a14.05 14.05 0 0 1-.28-.031l-.14-.018c-.1-.013-.2-.026-.3-.041l-.16-.023c-.11-.016-.21-.033-.32-.051l-.17-.029c-.12-.02-.23-.04-.35-.062l-.18-.036-.35-.074-.2-.044-.37-.086-.21-.051-.38-.103-.21-.057c-.14-.039-.28-.081-.42-.124l-.2-.06c-.16-.051-.32-.105-.48-.161l-.15-.049c-.21-.074-.43-.153-.64-.236l-.16-.063c-.16-.065-.33-.131-.49-.201l-.27-.117-.4-.178c-.09-.046-.2-.095-.29-.143-.13-.06-.25-.12-.38-.183-.1-.054-.21-.11-.31-.166-.12-.064-.24-.128-.36-.195-.11-.06-.22-.123-.33-.186-.11-.068-.23-.138-.35-.21-.11-.067-.22-.136-.33-.205-.12-.075-.23-.152-.35-.23-.11-.073-.22-.147-.33-.223-.12-.082-.23-.167-.35-.252-.11-.079-.22-.157-.32-.239-.12-.091-.24-.187-.36-.282a6.139 6.139 0 0 1-.31-.25 8.157 8.157 0 0 1-.38-.329c-.1-.082-.19-.16-.28-.245-.17-.148-.33-.303-.49-.46l-.16-.158c-.22-.213-.43-.434-.64-.662l-.19-.216c-.14-.165-.29-.33-.43-.503l-.22-.269c-.13-.165-.26-.331-.39-.503-.07-.096-.14-.197-.21-.295a11.675 11.675 0 0 1-.58-.843c-.13-.188-.25-.379-.37-.575-.06-.105-.12-.211-.19-.317-.12-.208-.24-.419-.36-.635-.05-.103-.11-.206-.16-.31-.12-.234-.24-.473-.36-.716-.05-.095-.09-.189-.14-.285-.12-.273-.25-.552-.37-.836l-.09-.222a27.808 27.808 0 0 1-1.21-3.639s-5.73-15.522 12.4-22.085c0 0 26.36-6.67 30.11 11.252zm-8.33-14.587c-9.61-3.78-44.05-4.256-45.38-4.273h-.04c-1.32.017-35.77.493-45.37 4.273 0 0-14.69 6.563-17.61 7.501v7.189s4.06.938 5 6.564c0 0 2.83 18.028 19.45 22.998 4.13 1.234 8.52 1.222 12.67.075 7.58-2.097 19.61-8.13 20.01-25.318.04-1.578-.45-3.113-1.3-4.441-1.36-2.131-2.22-5.618 7.15-5.193v.001h.04v-.001c9.37-.425 8.51 3.062 7.15 5.193-.85 1.328-1.34 2.863-1.3 4.441.4 17.188 12.43 23.221 20.02 25.318 4.15 1.147 8.53 1.159 12.66-.075 16.63-4.97 19.45-22.998 19.45-22.998.94-5.626 5.01-6.564 5.01-6.564v-7.189c-2.92-.938-17.61-7.501-17.61-7.501z" fill="#ed2124" fill-rule="nonzero"/><defs><linearGradient id="a" x2="1" gradientUnits="userSpaceOnUse" gradientTransform="rotate(-90 146.847 23.276) scale(57.7894)"><stop offset="0" stop-color="#efdbc7"/><stop offset="1" stop-color="#b7b793"/></linearGradient><linearGradient id="b" x2="1" gradientUnits="userSpaceOnUse" gradientTransform="rotate(-90 146.847 23.276) scale(57.7894)"><stop offset="0" stop-color="#fff"/><stop offset="1" stop-color="#c3d3bf"/></linearGradient><linearGradient id="c" x2="1" gradientUnits="userSpaceOnUse" gradientTransform="rotate(-90 146.847 23.276) scale(57.7894)"><stop offset="0" stop-color="#e8d5c3"/><stop offset="1" stop-color="#b3b391"/></linearGradient><linearGradient id="d" x2="1" gradientUnits="userSpaceOnUse" gradientTransform="rotate(-90 146.847 23.276) scale(57.7894)"><stop offset="0" stop-color="#907468"/><stop offset="1" stop-color="#6d6149"/></linearGradient><linearGradient id="e" x2="1" gradientUnits="userSpaceOnUse" gradientTransform="rotate(-90 146.847 23.276) scale(57.7894)"><stop offset="0" stop-color="#b48872"/><stop offset="1" stop-color="#8b714e"/></linearGradient><linearGradient id="f" x2="1" gradientUnits="userSpaceOnUse" gradientTransform="rotate(-90 146.847 23.276) scale(57.7894)"><stop offset="0" stop-color="#766e67"/><stop offset="1" stop-color="#545c4a"/></linearGradient><linearGradient id="g" x2="1" gradientUnits="userSpaceOnUse" gradientTransform="rotate(-90 146.847 23.276) scale(57.7894)"><stop offset="0" stop-color="#fff"/><stop offset="1" stop-color="#c3d3bf"/></linearGradient><linearGradient id="h" x2="1" gradientUnits="userSpaceOnUse" gradientTransform="rotate(-90 146.847 23.276) scale(57.7894)"><stop offset="0" stop-color="#fff"/><stop offset="1" stop-color="#c3d3bf"/></linearGradient><linearGradient id="i" x2="1" gradientUnits="userSpaceOnUse" gradientTransform="rotate(-90 178.941 -8.819) scale(57.7894)"><stop offset="0" stop-color="#f7e5d2"/><stop offset="1" stop-color="#bfc19c"/></linearGradient><linearGradient id="j" x2="1" gradientUnits="userSpaceOnUse" gradientTransform="rotate(-90 178.941 -8.819) scale(57.7894)"><stop offset="0" stop-color="#fff"/><stop offset="1" stop-color="#c3d3bf"/></linearGradient><linearGradient id="k" x2="1" gradientUnits="userSpaceOnUse" gradientTransform="rotate(-90 178.941 -8.819) scale(57.7894)"><stop offset="0" stop-color="#e8d5c3"/><stop offset="1" stop-color="#b3b391"/></linearGradient><linearGradient id="l" x2="1" gradientUnits="userSpaceOnUse" gradientTransform="rotate(-90 178.941 -8.819) scale(57.7894)"><stop offset="0" stop-color="#907468"/><stop offset="1" stop-color="#6d6149"/></linearGradient><linearGradient id="m" x2="1" gradientUnits="userSpaceOnUse" gradientTransform="rotate(-90 178.941 -8.819) scale(57.7894)"><stop offset="0" stop-color="#b48872"/><stop offset="1" stop-color="#8b714e"/></linearGradient><linearGradient id="n" x2="1" gradientUnits="userSpaceOnUse" gradientTransform="rotate(-90 178.941 -8.819) scale(57.7894)"><stop offset="0" stop-color="#766e67"/><stop offset="1" stop-color="#545c4a"/></linearGradient><linearGradient id="o" x2="1" gradientUnits="userSpaceOnUse" gradientTransform="rotate(-90 178.941 -8.819) scale(57.7894)"><stop offset="0" stop-color="#fff"/><stop offset="1" stop-color="#c3d3bf"/></linearGradient><linearGradient id="p" x2="1" gradientUnits="userSpaceOnUse" gradientTransform="rotate(-90 178.941 -8.819) scale(57.7894)"><stop offset="0" stop-color="#fff"/><stop offset="1" stop-color="#c3d3bf"/></linearGradient><linearGradient id="q" x2="1" gradientUnits="userSpaceOnUse" gradientTransform="rotate(-90 178.941 -8.819) scale(57.7894)"><stop offset="0" stop-color="#848181"/><stop offset="1" stop-color="#5c6d5f"/></linearGradient><linearGradient id="r" x2="1" gradientUnits="userSpaceOnUse" gradientTransform="rotate(-90 178.941 -8.819) scale(57.7894)"><stop offset="0" stop-color="#cfdbbd"/><stop offset="1" stop-color="#b5c9a1"/></linearGradient><linearGradient id="s" x2="1" gradientUnits="userSpaceOnUse" gradientTransform="rotate(-90 178.941 -8.819) scale(57.7894)"><stop offset="0" stop-color="#94a594"/><stop offset="1" stop-color="#7c977e"/></linearGradient><linearGradient id="t" x2="1" gradientUnits="userSpaceOnUse" gradientTransform="rotate(-90 146.847 23.276) scale(57.7894)"><stop offset="0" stop-color="#cdd6b8"/><stop offset="1" stop-color="#b0c59d"/></linearGradient><linearGradient id="u" x2="1" gradientUnits="userSpaceOnUse" gradientTransform="rotate(-90 146.847 23.276) scale(57.7894)"><stop offset="0" stop-color="#9ea087"/><stop offset="1" stop-color="#899372"/></linearGradient></defs></svg>