<svg viewBox="0 0 300 301" xmlns="http://www.w3.org/2000/svg" fill-rule="evenodd" clip-rule="evenodd" stroke-linejoin="round" stroke-miterlimit="1.414"><g fill-rule="nonzero"><path fill="#617498" d="M.27.48h299.36v299.71H.27z"/><path d="M137.67 75.51l-.27.27.05.08c.09-.13.13-.26.22-.35z" fill="#432e1b"/><path d="M156.33 187.91v112.28H95.6c-.98-.4-1.48-.6-1.48-.6 0-14.33 2.11-25.5 5.31-34.22 7.73-21.03 21.88-27.71 28.39-29.72 2.14-.66 3.46-.82 3.46-.82.23 0 .44-.02.67-.06 1.91-.3 3.46-1.97 4.71-4.62.92-1.96 1.7-4.48 2.33-7.38.25-1.13.44-2.28.64-3.51.3-2.08.59-4.25.84-6.53.1-1.38.25-2.71.4-4.15.54-6.87.69-14.39.69-21.51 0 0 8.16.84 14.77.84z" fill="#e0bd9a"/><path d="M218.79 299.59s-.54.2-1.43.6h-61.03V187.91h.15c6.57 0 14.83-.84 14.83-.84 0 7.07.14 14.49.69 21.36.15 1.34.29 2.72.39 4.06.25 2.37.55 4.59.89 6.67v.05c.1.94.3 1.78.45 2.67.6 2.92 1.33 5.49 2.2 7.55 1.09 2.56 2.42 4.35 4.03 5.06.51.23 1.06.34 1.63.34 0 0 2.33.28 5.83 1.65 7.15 2.8 19.16 10.15 26.06 28.89 3.21 8.72 5.31 19.89 5.31 34.22z" fill="#efd0ad"/><path d="M173.28 218.95v.05c-1.53 2.36-6.67 9.13-16.85 9.13h-.1c-9.63-.04-15.26-7.02-16.7-9.08.3-2.06.6-4.23.84-6.48.1-1.33.25-2.71.4-4.13 4.69 1.18 9.83 1.92 15.27 2.01h.19c5.64-.09 10.83-.88 15.67-2.16.15 1.33.29 2.7.39 4.03.25 2.36.55 4.57.89 6.63z" fill="#be987f"/><path d="M155.64 59.97c-64.33 0-64.68 53.78-61.81 88.99-4.4-8.35-17.5-5.79-16.41 7.37 1.04 12.67 19.75 19.13 19.22 17.73 9.75 26.04 35.53 45.68 59 45.68h.5V59.97h-.5z" fill="#d2a686"/><path d="M81.52 150.78c3.17-5.11 8.11-2.9 9.29-1.77 1.29 1.23 2.32 2.8 1.53 5.8-.44 1.72-2.22 1.86-1.82 4.42.49 2.9 1.82 3.04 2.61 3.73.75.64 1.68 1.13 2.13 2.36.49 1.23.54 2.5.3 3.63-.5 2.07-3.51.4-5.54-.49-1.33-.64-5.58-4.22-6.67-5.4-2.67-3.05-3.95-8.94-1.83-12.28z" fill="#ac8774"/><path d="M155.99 59.97c64.33 0 64.68 53.78 61.86 88.99 4.4-8.35 17.45-5.79 16.36 7.37-.99 12.67-19.73 19.13-19.22 17.73-9.49 26.04-35.53 45.68-59 45.68h-.35l-.15-159.77h.5z" fill="#ddb598"/><path d="M230.11 150.78c-3.16-5.11-8.06-2.9-9.29-1.77-1.29 1.23-2.27 2.8-1.53 5.8.44 1.72 2.22 1.86 1.83 4.42-.5 2.9-1.83 3.04-2.57 3.73-.75.64-1.73 1.13-2.18 2.36-.44 1.23-.54 2.5-.29 3.63.49 2.07 3.5.4 5.53-.49 1.38-.64 5.58-4.22 6.67-5.4 2.72-3.05 3.95-8.94 1.83-12.28z" fill="#ac8774"/><path d="M155.14 75.15c-21.15 0-36.67 6.14-46.01 18.22-13.09 16.94-12.6 42.78-7.8 61.34 1.48 5.7 2.27 20.97 3.26 26.57 4.59 25.1 32.31 38.46 50.55 38.46h.49V75.15h-.3" fill="#e0bd9a"/><path d="M201.09 93.42c-9.29-12.04-24.61-18.17-45.46-18.27v144.59c20.85-.25 45.81-14.89 50.06-38.46 1.03-5.6 1.77-20.87 3.26-26.57 4.84-18.52 5.33-44.3-7.86-61.29z" fill="#efd0ad"/><path d="M152.26 194.1c-.11-.02-.21-.04-.31-.06.1.02.19.04.31.06zm-.79-.17c-.09-.02-.18-.05-.27-.08l-.01.01s.11.03.28.07z" fill="#bc917b"/><path d="M152.43 191.17l-.31-.06c.1.02.19.04.31.06zm-.8-.18c-.1-.02-.19-.05-.28-.08l-.01.01s.11.03.29.07z" fill="#ba907b"/><path d="M144.57 172.81c-.25-5.13 9.42-1.88 12.61-1.72 2.53.13 10.2-1.61 10.85-1.16 4.52 3.04-4.78 9.17-11.01 9.17-1.66 0-12.3-3.2-12.45-6.29z" fill="#dcb497"/><path d="M152.56 193.55zm-.8-.18c-.1-.03-.19-.06-.28-.08h-.01l.29.08z" fill="#ba907b"/><path d="M152.19 192.98zm-.87-.19l-.29-.09-.02.01.31.08zm.62-.65zm-.87-.2c-.1-.02-.19-.05-.29-.08h-.01s.11.04.3.08zm5.43 2.94h.01-.01zm-3.79-2.86zm-.84-.19c-.1-.02-.19-.05-.28-.08l-.01.01s.11.03.29.07zm4.63-.01h.01-.01z" fill="#bc917b"/><path d="M149.59 200.57c-.11-.02-.21-.04-.31-.06.1.02.19.04.31.06zm-.8-.17c-.1-.03-.18-.06-.28-.08h-.01l.29.08zm.57-.61c-.11-.02-.21-.04-.31-.06.1.02.19.04.31.06zm-.8-.18c-.1-.02-.18-.05-.28-.07h-.01s.11.03.29.07zm1.51.08c-.1-.02-.2-.04-.3-.07.1.03.19.04.3.07zm-.77-.18c-.09-.02-.18-.05-.27-.07h-.01s.11.03.28.07z" fill="#be927b"/><path d="M143.33 202.08c-.24-3.2 8.92.67 11.92.77 2.4.08 9.6-.48 10.27-.73 5.03-1.88-.28 5.35-10.42 5.73-4.64.18-11.63-3.83-11.77-5.77z" fill="#f0d2ad"/><path d="M173.5 194.4c-5.8-1.09-18.03.07-18.03.07-10.08 1.68-17.97-.11-18.03-.04-.24.03 8.05 11.03 17.89 10.52 9.84.51 18.41-10.52 18.17-10.55z" fill="#c2646e"/><path d="M161.3 192.08c-2.62-.29-4.48 1.59-5.82 1.46-1.36.12-3.14-1.09-5.77-1.11-3.7-.04-5.5-.37-12.27 2 .24.46 4.57 2.97 12.69 3.11.12 0 2.3 1.24 5.4 1.22 1.93-.01 4.6-1.31 4.7-1.31 8.13-.13 13.1-2.54 13.33-2.99-8.95-2.78-8.24-2.42-12.26-2.38z" fill="#d87475"/><path d="M109.48 131.19s4.91 20.19 13.33 21.84c8.43 1.65 17.55-1.63 17.55-1.63s.87-23.73-3.44-26.83c-4.32-3.12-14.25-7.62-27.44 6.62z" fill="#fff"/><path d="M140.37 151.34s-.19.06-.63.24c-.1-7.28-.77-17.28-3.47-19.2-4.01-2.94-13.05-7.08-25.14 4.24-1.1-3.12-1.65-5.5-1.65-5.5 13.22-14.26 23.16-9.77 27.44-6.65 4.32 3.11 3.45 26.87 3.45 26.87z" fill="#d6b496"/><path d="M135.38 141.06c0 4.59-3.71 8.32-8.29 8.32-4.58 0-8.3-3.73-8.3-8.32 0-4.6 3.72-8.32 8.3-8.32s8.29 3.72 8.29 8.32z" fill="#482315"/><path d="M126.7 146.6c-2.39-.2-4.23-2.63-4.01-5.29.21-2.67 2.42-4.75 4.82-4.55 2.39.2 4.23 2.62 4.01 5.28-.21 2.67-2.42 4.76-4.82 4.56z" fill="#7e3a22"/><path d="M126.91 145.64c-1.67-.15-3.4-1.98-3.21-4.24.18-2.27 2.18-3.8 3.85-3.66 1.67.14 3.39 1.98 3.21 4.24-.18 2.27-2.19 3.79-3.85 3.66z" fill="#211a10"/><path d="M125.56 135.95c-.07.81-.91 1.41-1.86 1.33-.96-.08-1.69-.81-1.62-1.62.07-.82.9-1.42 1.86-1.34.96.08 1.68.81 1.62 1.63zm5.38 8.84c-.04.4-.46.7-.93.66-.49-.04-.85-.4-.82-.81.04-.41.46-.71.93-.67.49.04.85.41.82.82zm71.35-14.29s-4.91 20.2-13.34 21.85c-8.42 1.64-17.54-1.63-17.54-1.63s-.87-23.74 3.44-26.84c4.31-3.12 14.25-7.62 27.44 6.62z" fill="#fff"/><path d="M171.4 150.65s.19.06.62.24c.11-7.28.78-17.28 3.48-19.2 4-2.94 13.05-7.08 25.13 4.25 1.1-3.13 1.65-5.5 1.65-5.5-13.21-14.27-23.16-9.77-27.44-6.66-4.32 3.12-3.44 26.87-3.44 26.87z" fill="#d6b496"/><path d="M176.38 140.37c0 4.59 3.72 8.32 8.3 8.32s8.29-3.73 8.29-8.32c0-4.6-3.71-8.32-8.29-8.32-4.58 0-8.3 3.72-8.3 8.32z" fill="#482315"/><path d="M185.06 145.91c2.4-.2 4.24-2.62 4.02-5.29-.21-2.66-2.42-4.75-4.82-4.55-2.39.2-4.23 2.62-4.02 5.29.22 2.66 2.43 4.75 4.82 4.55z" fill="#7e3a22"/><path d="M184.86 144.95c1.66-.14 3.39-1.98 3.21-4.24-.19-2.27-2.19-3.8-3.86-3.66-1.66.14-3.39 1.99-3.21 4.25.19 2.26 2.19 3.79 3.86 3.65z" fill="#211a10"/><path d="M186.21 139.37c.07.82.9 1.42 1.86 1.34.96-.08 1.68-.81 1.62-1.63-.07-.82-.9-1.41-1.86-1.34-.96.08-1.69.81-1.62 1.63zm-5.38 4.73c.03.4.45.7.93.66.48-.03.84-.4.81-.81-.03-.4-.45-.71-.93-.66-.48.03-.85.4-.81.81z" fill="#fff"/><path d="M145.42 130.86c-.06-.09-1.59-2.43-4.72-4.83-1.96-1.51-3.88-2.66-5.87-3.51a30.548 30.548 0 0 0-7.55-2.09c-2.28-.25-4.81-.18-7.77.21-2.25.43-4.45 1.11-6.32 1.93-1.33.46-2.38 1.11-3.22 1.63-.33.2-.62.38-.92.54l-4.02 2.54 4.64-1.1c.21-.05.45-.11.7-.18.96-.26 2.15-.57 3.55-.78.33-.05.66-.11 1-.18.59-.12 1.19-.24 1.82-.27.7-.05 1.43-.1 2.18-.15l.98-.07c2.57-.04 4.74.16 6.66.6 2.11.37 4.28 1.05 6.26 1.97 1.88.9 3.67 1.8 5.08 2.83 2.83 1.9 4.41 3.48 4.42 3.49v.01c.39.39.91.59 1.44.59.38 0 .76-.11 1.09-.33.94-.61 1.2-1.87.6-2.78l-.03-.07zm57.7-6.14c-.27-.14-.56-.32-.89-.52-.84-.52-1.89-1.17-3.18-1.61-1.91-.84-4.11-1.52-6.39-1.95-2.93-.4-5.46-.46-7.75-.21a30.79 30.79 0 0 0-7.55 2.09c-1.96.84-3.93 2.02-5.86 3.51-3.07 2.36-4.6 4.65-4.71 4.83l-.03.04c-.52.8-.41 1.87.26 2.54.38.39.89.6 1.43.6.54 0 1.05-.21 1.43-.6l.01-.01c.15-.15 1.68-1.65 4.43-3.49 1.38-1.02 3.18-1.91 5.05-2.81 1.99-.93 4.16-1.61 6.29-1.98 1.9-.44 4.08-.63 6.61-.6l1.03.07c.74.05 1.46.1 2.17.15.62.03 1.22.15 1.81.27.34.07.67.13 1 .18 1.4.21 2.59.52 3.55.78.25.07.49.13.71.18l4.64 1.1-4.06-2.56z" fill="#030405"/><path fill="#4ac0e6" d="M152.53 269.31h8.3v30.83h-8.3z"/><path d="M146.73 244.7c-.28-.16-.55-.32-.82-.49l-14.67-9.36s-28.96 2.03-37.19 42.62c-.34 1.69-.64 3.46-.91 5.28l10.01 2.61c3.68.95 6.26 4.39 6.26 8.33v6.49h43.12v-45.54c0-4.18-2.28-7.93-5.8-9.94zm72.28 32.77c-3.25-16.62-12.4-37.2-37.48-42.68l-15.22 9.51-.24.15c-3.26 2.03-5.24 5.68-5.24 9.62v46.11h42.56v-6.49c0-3.94 2.58-7.38 6.26-8.33l10.22-2.66c-.23-1.68-.51-3.43-.86-5.23z" fill="#444240"/><path d="M147.89 279.08c0 4.26-3.32 7.71-7.41 7.71s-7.41-3.45-7.41-7.71c0-4.25 3.32-7.7 7.41-7.7s7.41 3.45 7.41 7.7zm30.42 0c0 4.26-3.32 7.71-7.41 7.71s-7.41-3.45-7.41-7.71c0-4.25 3.32-7.7 7.41-7.7s7.41 3.45 7.41 7.7z" fill="#fcfdfe"/><path d="M171.89 282.76h-32.08c-1.95 0-3.54-1.65-3.54-3.68 0-2.02 1.59-3.68 3.54-3.68h32.08c1.94 0 3.54 1.66 3.54 3.68 0 2.03-1.6 3.68-3.54 3.68z" fill="#383534"/><path d="M171.83 42.36c4.25 6.93.5 8.22-2.69 8.26-1.73.02-3.45-.38-5.07-1.03-3.32-1.35-6.55-2.65-9.59-3.79 3.63 5.65 1.36 15.84-6.81 15.84-.98 0-1.87-.16-2.68-.43.14.09.3.17.43.27-3.68-1.5-10.02-2.03-20.66 2.07-1.49.57-2.86 1.19-4.14 1.81-4.52 1.97-13.58 5.86-30.97 13.22 0 0 5.73 2.21 12.57 2.97-3.27 3.8-6.66 7.05-12.32 8.78-14.8 4.52-19.1-1.28-19.1-1.28s6.43 10.16 17.83 10.18c1.84 0 2.03-.03 2.04-.04-.01.04-4.27 10.9-5.09 19.01-.84 8.29 1.78 13.96 2.57 29.46.23 4.33.79 6.51 1.58 7.84 1.65 2.74 4.33 1.81 7.34 8.39 1.51 3.28 1.57 6.97 1.57 6.97s.13.09.33.16c.94.33 3.64.06 3.78-13.76 0 0-11.97-54.1 12.42-62.12 10.62-3.5 24.9-.57 38.84 3.02 9.32 2.4 18.7 6.27 27.42 12.28 11.23 7.75 25.74 17.63 28.76 35.29v.08c-.44 4.74-.64 8.56-.67 11.62-.14 12.71 2.58 12.6 2.58 12.6 1.25 0-.08-6.39 4.07-10.8 1.15-1.22 2.45-3.24 3.75-5.82 3.41-6.78 6.73-17.52 6.73-28.26 4.43-72.83-54.82-82.79-54.82-82.79z" fill="#f5aa32"/><path d="M221.02 80.93s15.3 5.7 19.81 8.2c4.09 2.27 11.73 6.54 12.96 10.4.63 1.95.09 6.19-1.64 7.64-5.51 4.62-23.16 7.7-31.12 8.12-11.77.61-34.27-1.52-45.88-3.25-19.26-2.88-40.08-7.3-53.07-10.76-13.01-3.48-36.03-8.81-49.76-18.4-3.43-2.39-9.13-8.58-9.12-12.21 0-1.07 2.37-3.51 3.46-4.12 3.52-1.97 12.48-1.98 16.76-2.2 2.53-.13 9.46.68 9.46.68l8.22-24.27s3.68-11.1 6.88-13.77c3.46-2.87 8.25-5.91 17.83-7.12 5.14-.64 15.48-.54 20.64.04 4.83.55 17.9 4.1 19.14 4.13 1.24.03 9.28-1.62 10.47-1.73 4.8-.46 15.2-.08 19.78 1.48 2.64.9 7.08 4.1 8.73 5.99 3.48 3.96 8.59 18.12 8.59 18.12l7.86 33.03z" fill="#444240"/><path d="M167.71 24.64s16.9 6.31 17.17 6.47c.28.15 11.56 1 14.32-.02 1.36-.51 2.15-2.56 1.69-3.39-.86-1.57-5.13-3.17-7.13-3.76-3.23-.95-10.2-1.42-13.62-1.31-3.17.1-12.43 2.01-12.43 2.01zm53.56 65.69s15.16 5.41 15.3 5.41c.14.01 8.97 3.44 10.32 1.64 1.16-1.56-4.04-4.45-5.72-5.67-2.34-1.69-10.56-5.52-10.56-5.52l-11.03-4.07 1.69 8.21zM92.35 66.11s-6.51-.27-8.67-.21c-3.28.09-9.91.3-13.05 1.07-.95.23-3.1.78-3.52 1.5-.81 1.42.76 4.73 1.66 6.11 1.11 1.71 4.68 4.41 6.52 5.64 3.24 2.18 11.19 6.44 11.68 6.66.49.21 10.51 4.84 13.32 6 3.73 1.53 11.67 3.83 15.71 4.76 3.56.82 10.85 1.76 14.7 1.36 3.86-.4 36.7-3.97 36.7-3.97s-50.8-3.41-65.38-9.87c-3.95-1.75-12.28-10.63-12.28-10.63l2.61-8.42z" fill="#33302e"/><path d="M222.17 91.21s-4.46 2.08-14.09 2.93c-11.74 1.05-34.36 2.02-46.17 1.75-12.3-.28-38.08-2.24-50.19-4.03-4.93-.72-14.74-2.87-19.18-4.75-1.5-.63-5.48-3.22-5.48-3.22l3.85-13.43s8.92 3.96 21.68 5.71c11.53 1.57 34.56 3.29 46.24 3.52 11.12.22 35.2-.7 46.28-1.34 3.97-.23 14.75-2.28 14.75-2.28l2.31 15.14z" fill="#4ac0e6"/><path d="M132.46 68.55c-1.89-.34-9.15 6.38-12.21 10.6-.77-.27-1.64-.32-2.49-.07-.84.25-1.5.75-1.93 1.38-5.31-1.74-15.68-3.24-16.96-1.96-1.7 1.7 3.25 8.59 3.25 8.59s.73 8.14 3.24 8.6c1.9.33 9.16-6.39 12.22-10.6.76.27 1.64.33 2.49.07.85-.25 1.5-.75 1.93-1.38 5.31 1.73 15.67 3.23 16.95 1.95 1.7-1.7-3.24-8.59-3.24-8.59s-.74-8.14-3.25-8.59zm18.36 190.74c0 2.95-2.3 5.34-5.14 5.34-2.83 0-5.13-2.39-5.13-5.34 0-2.95 2.3-5.34 5.13-5.34 2.84 0 5.14 2.39 5.14 5.34zm21.09 0c0 2.95-2.3 5.34-5.14 5.34s-5.14-2.39-5.14-5.34c0-2.95 2.3-5.34 5.14-5.34s5.14 2.39 5.14 5.34z" fill="#fcfdfe"/><path d="M167.45 261.84h-22.23c-1.35 0-2.46-1.15-2.46-2.55 0-1.41 1.11-2.55 2.46-2.55h22.23c1.35 0 2.46 1.14 2.46 2.55 0 1.4-1.11 2.55-2.46 2.55z" fill="#383534"/></g></svg>