<svg viewBox="0 0 298 301" xmlns="http://www.w3.org/2000/svg" fill-rule="evenodd" clip-rule="evenodd" stroke-linejoin="round" stroke-miterlimit="1.414"><path fill="#fcd372" fill-rule="nonzero" d="M.366.365h296.866V300.07H.366z"/><path d="M145.774 187.8v112.27H85.046c-.989-.394-1.481-.594-1.481-.594 0-14.331 2.101-25.505 5.305-34.219 7.729-21.03 21.881-27.709 28.396-29.723 2.137-.661 3.454-.82 3.454-.82.231 0 .446-.021.666-.056 1.912-.308 3.466-1.969 4.711-4.619.928-1.968 1.702-4.479 2.332-7.386.251-1.132.446-2.275.646-3.51.297-2.077.59-4.25.841-6.525.097-1.384.245-2.717.394-4.152.538-6.868.692-14.388.692-21.507 0 0 8.155.841 14.772.841z" fill="#e0bd9a" fill-rule="nonzero"/><path d="M208.234 299.476s-.543.2-1.435.594h-61.025V187.8h.149c6.571 0 14.828-.841 14.828-.841 0 7.068.144 14.485.687 21.358.148 1.338.297 2.717.395 4.055.251 2.373.548 4.597.891 6.673v.046c.098.943.293 1.784.446 2.671.6 2.921 1.328 5.489 2.204 7.549 1.092 2.563 2.419 4.352 4.029 5.06a3.93 3.93 0 0 0 1.625.343s2.337.282 5.838 1.656c7.15 2.798 19.159 10.143 26.058 28.887 3.204 8.714 5.31 19.888 5.31 34.219z" fill="#efd0ad" fill-rule="nonzero"/><path d="M162.724 218.835v.05c-1.531 2.357-6.671 9.134-16.85 9.134h-.099c-9.635-.049-15.268-7.023-16.701-9.086.296-2.062.593-4.223.84-6.482.099-1.326.247-2.702.395-4.126a67.82 67.82 0 0 0 15.269 2.014h.197a65.497 65.497 0 0 0 15.664-2.161c.149 1.326.297 2.701.396 4.027.247 2.357.543 4.568.889 6.63z" fill="#be987f" fill-rule="nonzero"/><path d="M145.084 59.856c-64.336 0-64.682 53.779-61.817 88.993-4.397-8.349-17.491-5.795-16.405 7.367 1.038 12.672 19.746 19.129 19.222 17.73 9.743 26.043 35.529 45.675 59 45.675h.494V59.856h-.494z" fill="#d2a686" fill-rule="nonzero"/><path d="M70.964 150.666c3.162-5.108 8.104-2.897 9.29-1.768 1.284 1.228 2.322 2.8 1.531 5.796-.444 1.719-2.223 1.866-1.828 4.42.494 2.897 1.828 3.045 2.619 3.732.741.639 1.68 1.13 2.125 2.358a6.197 6.197 0 0 1 .296 3.634c-.494 2.063-3.508.393-5.534-.491-1.334-.638-5.584-4.224-6.671-5.402-2.668-3.045-3.953-8.939-1.828-12.279z" fill="#ac8774" fill-rule="nonzero"/><path d="M145.43 59.856c64.336 0 64.682 53.779 61.865 88.993 4.397-8.349 17.442-5.795 16.356 7.367-.989 12.672-19.733 19.133-19.222 17.73-9.49 26.043-35.528 45.675-58.999 45.675h-.346l-.149-159.765h.495z" fill="#ddb598" fill-rule="nonzero"/><path d="M219.55 150.666c-3.163-5.108-8.055-2.897-9.29-1.768-1.285 1.228-2.273 2.8-1.532 5.796.445 1.719 2.224 1.866 1.828 4.42-.494 2.897-1.828 3.045-2.569 3.732-.741.639-1.73 1.13-2.174 2.358-.445 1.228-.544 2.505-.297 3.634.494 2.063 3.508.393 5.535-.491 1.383-.638 5.582-4.224 6.67-5.402 2.718-3.045 3.953-8.939 1.829-12.279z" fill="#ac8774" fill-rule="nonzero"/><path d="M144.577 75.032c-21.148 0-36.664 6.139-46.003 18.221-13.094 16.944-12.6 42.778-7.807 61.342 1.482 5.698 2.273 20.972 3.261 26.57 4.596 25.098 32.316 38.456 50.549 38.456h.495V75.032h-.495z" fill="#e0bd9a" fill-rule="nonzero"/><path d="M190.532 93.302c-9.289-12.033-24.608-18.172-45.46-18.27v144.589c20.852-.245 45.806-14.881 50.055-38.456 1.038-5.598 1.78-20.872 3.262-26.57 4.842-18.516 5.337-44.3-7.857-61.293z" fill="#efd0ad" fill-rule="nonzero"/><path d="M141.697 193.99c-.102-.022-.202-.041-.303-.065.099.023.187.041.303.065zm-.785-.175c-.093-.024-.178-.051-.269-.076l-.01.004s.104.029.279.072z" fill="#bc917b" fill-rule="nonzero"/><path d="M127.11 75.393l-.267.267.044.089c.089-.134.134-.267.223-.356z" fill="#432e1b" fill-rule="nonzero"/><path d="M141.873 191.057c-.105-.022-.208-.043-.311-.066l.311.066zm-.807-.18c-.096-.025-.182-.052-.277-.078l-.01.005s.107.029.287.073z" fill="#ba907b" fill-rule="nonzero"/><path d="M132.61 175.381c-.251-5.131 9.426-1.875 12.617-1.714 2.521.128 10.191-1.617 10.849-1.168 4.513 3.043-4.779 9.17-11.009 9.17-1.661 0-12.306-3.192-12.457-6.288z" fill="#dcb497" fill-rule="nonzero"/><path d="M98.919 131.466s4.908 20.135 13.335 21.778c8.426 1.643 17.546-1.623 17.546-1.623s.872-23.664-3.443-26.755c-4.311-3.106-14.25-7.594-27.438 6.6z" fill="#fff" fill-rule="nonzero"/><path d="M129.812 151.559s-.194.055-.627.236c-.108-7.258-.779-17.227-3.474-19.137-4.005-2.933-13.051-7.062-25.137 4.229-1.099-3.119-1.649-5.484-1.649-5.484 13.212-14.22 23.16-9.74 27.439-6.633 4.319 3.105 3.448 26.789 3.448 26.789z" fill="#d6b496" fill-rule="nonzero"/><path d="M124.822 141.306a8.294 8.294 0 1 1-16.588-.002 8.294 8.294 0 0 1 16.588.002z" fill="#482315" fill-rule="nonzero"/><path d="M116.143 146.829c-2.395-.198-4.234-2.615-4.016-5.273.214-2.656 2.423-4.736 4.82-4.534 2.395.196 4.231 2.611 4.018 5.268-.218 2.657-2.428 4.74-4.822 4.539z" fill="#7e3a22" fill-rule="nonzero"/><path d="M116.35 145.87c-1.667-.141-3.397-1.97-3.213-4.223.187-2.26 2.189-3.786 3.856-3.648 1.668.141 3.393 1.978 3.21 4.231-.184 2.256-2.19 3.778-3.853 3.64z" fill="#211a10" fill-rule="nonzero"/><path d="M115 140.313c-.069.814-.906 1.409-1.863 1.33-.96-.081-1.683-.809-1.618-1.619.069-.818.9-1.413 1.859-1.334.963.077 1.686.805 1.622 1.623zm5.377 4.71c-.035.405-.452.704-.93.663-.482-.037-.841-.404-.811-.809.035-.405.453-.704.93-.664.481.038.846.401.811.81z" fill="#fff" fill-rule="nonzero"/><path d="M142.004 193.432c-.104-.022-.207-.043-.311-.067.102.023.192.042.311.067zm-.806-.18c-.095-.025-.182-.052-.276-.078l-.011.004s.107.03.287.074z" fill="#ba907b" fill-rule="nonzero"/><path d="M145.555 195.821h.001-.001zm-3.928-2.958c-.111-.024-.222-.045-.333-.071.109.024.206.045.333.071zm-.863-.193c-.103-.026-.196-.056-.297-.083l-.011.005s.114.031.308.078zm4.791-.018h.001-.001zm-.248 2.327h.001-.001zm-3.928-2.958c-.111-.024-.222-.045-.333-.071l.333.071zm-.863-.193c-.103-.026-.196-.055-.297-.083l-.011.004s.114.032.308.079zm4.791-.018h.001-.001zm.639 2.955h.001-.001zm-3.796-2.859c-.108-.023-.215-.044-.323-.069.106.024.199.043.323.069zm-.835-.187c-.099-.025-.19-.053-.287-.08l-.011.005s.111.03.298.075zm4.631-.017h.001-.001z" fill="#bc917b" fill-rule="nonzero"/><path d="M191.73 130.78s-4.909 20.136-13.335 21.779c-8.427 1.643-17.547-1.623-17.547-1.623s-.872-23.664 3.443-26.756c4.311-3.105 14.25-7.593 27.439 6.6z" fill="#fff" fill-rule="nonzero"/><path d="M160.837 150.873s.193.057.626.237c.107-7.258.779-17.227 3.473-19.137 4.006-2.933 13.052-7.062 25.138 4.229 1.098-3.119 1.649-5.484 1.649-5.484-13.212-14.22-23.16-9.74-27.439-6.633-4.319 3.105-3.447 26.788-3.447 26.788z" fill="#d6b496" fill-rule="nonzero"/><path d="M165.826 140.62a8.293 8.293 0 1 0 16.587 0 8.294 8.294 0 0 0-16.587 0z" fill="#482315" fill-rule="nonzero"/><path d="M174.505 146.144c2.395-.198 4.233-2.615 4.015-5.273-.214-2.656-2.421-4.736-4.819-4.534-2.394.196-4.23 2.611-4.019 5.267.218 2.658 2.429 4.74 4.823 4.54z" fill="#7e3a22" fill-rule="nonzero"/><path d="M174.298 145.185c1.667-.142 3.397-1.97 3.213-4.223-.188-2.26-2.189-3.786-3.856-3.648-1.668.141-3.393 1.978-3.21 4.231.183 2.255 2.19 3.778 3.853 3.64z" fill="#211a10" fill-rule="nonzero"/><path d="M175.648 139.628c.07.814.905 1.409 1.863 1.331.96-.082 1.683-.81 1.618-1.62-.069-.818-.9-1.413-1.859-1.335-.963.078-1.687.806-1.622 1.624zm-5.378 4.71c.036.405.453.704.931.663.481-.037.841-.404.811-.81-.035-.404-.453-.704-.93-.663-.481.037-.846.401-.812.81z" fill="#fff" fill-rule="nonzero"/><path d="M134.86 131.145c-.063-.099-1.592-2.423-4.718-4.82-1.959-1.503-3.878-2.646-5.869-3.497a30.366 30.366 0 0 0-7.552-2.082c-2.284-.254-4.815-.187-7.768.211-2.254.429-4.453 1.099-6.32 1.923-1.33.458-2.382 1.101-3.226 1.619-.323.199-.616.378-.914.538l-4.025 2.531 4.639-1.09c.216-.055.45-.116.701-.182.96-.255 2.154-.572 3.554-.777.328-.048.662-.114 1.002-.183.583-.115 1.187-.236 1.82-.266.702-.046 1.43-.099 2.179-.152l.975-.071c2.568-.032 4.738.162 6.667.607a25.377 25.377 0 0 1 6.258 1.963c1.875.897 3.673 1.787 5.076 2.817 2.833 1.891 4.41 3.468 4.426 3.484a2.015 2.015 0 0 0 2.529.267c.934-.612 1.196-1.871.602-2.779l-.036-.061zm57.698-6.127c-.266-.141-.56-.321-.884-.519-.844-.518-1.895-1.161-3.186-1.604-1.906-.839-4.104-1.509-6.386-1.943-2.928-.393-5.46-.46-7.753-.205a30.443 30.443 0 0 0-7.543 2.081c-1.962.84-3.936 2.017-5.866 3.497-3.07 2.353-4.596 4.637-4.711 4.813l-.029.041a2.042 2.042 0 0 0 .263 2.539c.382.384.889.596 1.428.596h.001a1.997 1.997 0 0 0 1.426-.597l.016-.017c.149-.148 1.68-1.644 4.428-3.48 1.381-1.014 3.18-1.905 5.05-2.8a25.51 25.51 0 0 1 6.294-1.972c1.9-.439 4.073-.629 6.609-.602l1.022.073c.743.053 1.465.105 2.172.152.623.029 1.225.15 1.81.265.34.069.673.135 1 .183 1.401.205 2.595.522 3.555.777.251.066.485.128.708.183l4.636 1.09-4.06-2.551z" fill="#030405" fill-rule="nonzero"/><path d="M202.924 265.257c-6.051 0-10.671 5.312-9.918 11.316.835 6.657 1.307 14.215 1.307 22.795 0 0-.379.184-1.143.702H98.752c-.759-.518-1.143-.702-1.143-.702 0-8.575.474-16.131 1.31-22.798.752-6.003-3.869-11.313-9.919-11.313h-.13c7.729-21.03 21.881-27.709 28.396-29.723a8.07 8.07 0 0 0-.021.625c0 9.626 12.645 17.473 28.529 17.878.436.016.871.021 1.307.021 16.325 0 29.6-7.899 29.785-17.688 7.15 2.798 19.159 10.143 26.058 28.887z" fill="#5d4d53" fill-rule="nonzero"/><path d="M139.029 200.459c-.103-.022-.206-.042-.309-.066.101.023.19.041.309.066zm-.801-.179c-.095-.024-.181-.051-.275-.077l-.01.004s.106.029.285.073zm.571-.601c-.103-.022-.206-.042-.309-.066l.309.066zm-.8-.179c-.096-.025-.182-.052-.276-.077l-.01.004s.106.029.286.073zm1.514.072c-.1-.021-.199-.041-.299-.064.098.022.184.04.299.064zm-.774-.173c-.092-.023-.175-.05-.266-.074l-.01.004s.103.028.276.07z" fill="#be927b" fill-rule="nonzero"/><path d="M132.774 201.968c-.24-3.199 8.912.671 11.918.763 2.397.081 9.6-.474 10.266-.728 5.035-1.883-.275 5.349-10.415 5.73-4.646.185-11.631-3.824-11.769-5.765z" fill="#f0d2ad" fill-rule="nonzero"/><path d="M162.941 194.283c-5.804-1.086-18.031.073-18.031.073-10.083 1.675-17.974-.107-18.032-.038-.24.024 8.053 11.023 17.894 10.516 9.842.507 18.41-10.516 18.169-10.551z" fill="#c2646e" fill-rule="nonzero"/><path d="M150.741 191.961c-2.615-.289-4.478 1.597-5.819 1.459-1.366.127-3.139-1.083-5.77-1.109-3.7-.036-5.506-.361-12.274 2.007.241.462 4.577 2.972 12.698 3.11.115 0 2.294 1.236 5.391 1.214 1.939-.012 4.599-1.306 4.703-1.306 8.133-.127 13.099-2.544 13.328-2.994-8.946-2.773-8.237-2.417-12.257-2.381z" fill="#d87475" fill-rule="nonzero"/><path d="M111.95 169.312c-10.022 0-18.472-6.718-21.045-15.882a21.745 21.745 0 0 1-.808-5.882c0-12.019 9.784-21.758 21.853-21.758 12.068 0 21.852 9.739 21.852 21.758 0 2.18-.321 4.289-.924 6.275-2.706 8.959-11.051 15.489-20.928 15.489zm25.847-36.594c-1.157.26-2.612.614-3.624-.017-2.856-1.776-6.917-5.993-6.917-5.993-17.331-12.91-45.641 0-45.641 0-3.243 10.764 2.755 23.324 5.981 28.974 1.085 1.904 1.86 3.022 1.86 3.022 9.124 18.073 28.857 13.092 28.857 13.092 8.903-1.577 14.343-9.263 17.37-15.566 2.28-4.731 3.193-8.682 3.193-8.682 1.754-5.993 5.811-5.622 5.811-5.622v-10.143c-.913-.327-4.732.454-6.89.935z" fill="#79b6e3" fill-rule="nonzero"/><path d="M111.95 169.312c-10.022 0-18.472-6.718-21.045-15.882l.27-.168c3.748-2.327 8.623-4.725 14.156-5.947 1.922 3.018 4.245 5.407 6.923 5.929 1.693.33 3.415.462 5.084.462 6.445.001 12.12-1.964 12.447-2.08a39.169 39.169 0 0 1 2.688 1.884l.092.07.222.172.091.071c-2.706 8.959-11.051 15.489-20.928 15.489z" fill="#cf573c" fill-rule="nonzero"/><path d="M117.338 153.706c-1.669 0-3.391-.132-5.084-.462-2.678-.522-5.001-2.911-6.923-5.929a35.116 35.116 0 0 1 4.806-.723 8.277 8.277 0 0 0 6.391 3.007 8.263 8.263 0 0 0 5.124-1.771c2.481.76 5 1.875 7.524 3.418l.009.549c.267-.111.443-.175.539-.208l.061.039c-.327.116-6.002 2.081-12.447 2.08z" fill="#d5664e" fill-rule="nonzero"/><path d="M129.185 151.795l-.009-.549c.183.111.365.225.548.341a9.342 9.342 0 0 0-.539.208z" fill="#cd553c" fill-rule="nonzero"/><path d="M116.528 149.599a8.277 8.277 0 0 1-6.391-3.007c.831-.066 1.67-.1 2.521-.101h.045c.782.001 1.572.031 2.369.092a3.903 3.903 0 0 0 1.968.216 30.28 30.28 0 0 1 4.612 1.029 8.263 8.263 0 0 1-5.124 1.771z" fill="#a12d24" fill-rule="nonzero"/><path d="M116.464 146.842a3.845 3.845 0 0 1-1.392-.259c.651.05 1.308.121 1.968.216-.19.028-.382.043-.576.043z" fill="#b32e25" fill-rule="nonzero"/><path d="M132.878 153.823l-.091-.071a33.257 33.257 0 0 0-.222-.172l-.092-.07a39.169 39.169 0 0 0-2.688-1.884l.015-.005.002-.059.01-.003s.348-9.461-.487-17.208a21.598 21.598 0 0 1 4.477 13.197c0 2.18-.321 4.289-.924 6.275zm-41.973-.393a21.745 21.745 0 0 1-.808-5.882c0-8.651 5.069-16.121 12.41-19.628a46.468 46.468 0 0 0-3.582 3.483l.01.045-.016.018s2.284 9.371 6.411 15.849c-5.532 1.221-10.407 3.62-14.155 5.947l-.27.168z" fill="#d97351" fill-rule="nonzero"/><path d="M129.785 151.626l-.061-.039.078-.025-.002.059-.015.005zm-.609-.381c-2.525-1.543-5.042-2.657-7.524-3.417a8.294 8.294 0 0 0-5.124-14.816 8.294 8.294 0 0 0-6.391 13.58c-1.647.13-3.252.38-4.807.723-4.127-6.478-6.411-15.849-6.411-15.849l.016-.018c.082.339.629 2.57 1.639 5.439 6.065-5.666 11.363-7.448 15.644-7.448 4.25 0 7.498 1.758 9.493 3.219 2.628 1.862 3.332 11.385 3.465 18.587z" fill="#e58a71" fill-rule="nonzero"/><path d="M129.724 151.587c-.183-.116-.365-.23-.548-.342-.133-7.202-.837-16.725-3.465-18.587-1.995-1.461-5.243-3.219-9.493-3.219-4.281 0-9.579 1.782-15.644 7.448a59.318 59.318 0 0 1-1.639-5.439l-.01-.045a46.468 46.468 0 0 1 3.582-3.483 21.84 21.84 0 0 1 9.443-2.13 21.844 21.844 0 0 1 17.375 8.561c.835 7.747.487 17.208.487 17.208l-.01.003-.078.025z" fill="#d67051" fill-rule="nonzero"/><path d="M121.652 147.828a30.267 30.267 0 0 0-4.611-1.029c.847-.129 1.639-.532 2.287-1.129a.921.921 0 0 0 .206.02c.44 0 .81-.287.843-.667a.667.667 0 0 0-.143-.465 5.225 5.225 0 0 0 .731-2.268c.213-2.657-1.623-5.072-4.018-5.268a3.866 3.866 0 0 0-.321-.014c-1.29 0-2.501.65-3.343 1.676l-.075-.001c-.885 0-1.624.572-1.689 1.341-.04.494.215.958.637 1.263a5.975 5.975 0 0 0-.029.269c-.184 2.245 1.099 4.318 2.945 5.027a31.566 31.566 0 0 0-2.369-.092h-.045c-.851.001-1.69.036-2.521.101a8.294 8.294 0 1 1 11.515 1.236z" fill="#8d3023" fill-rule="nonzero"/><path d="M117.041 146.799a29.901 29.901 0 0 0-1.969-.216c-1.846-.709-3.129-2.782-2.945-5.027.008-.09.017-.18.029-.269.269.195.607.325.981.356v.004c-.184 2.253 1.546 4.082 3.213 4.223.07.006.14.009.211.009.707 0 1.459-.285 2.096-.786.075.279.334.51.671.577-.648.597-1.44 1-2.287 1.129zm3.193-2.241a.93.93 0 0 0-.668-.345l-.076-.004a4.013 4.013 0 0 0 .713-1.979c.183-2.253-1.542-4.09-3.21-4.231a2.458 2.458 0 0 0-.21-.009c-.829 0-1.717.39-2.41 1.061a1.943 1.943 0 0 0-1.09-.367c.842-1.026 2.053-1.676 3.343-1.676.106 0 .213.005.321.014 2.395.196 4.231 2.611 4.018 5.268a5.225 5.225 0 0 1-.731 2.268z" fill="#ab3526" fill-rule="nonzero"/><path d="M116.561 145.879c-.071 0-.141-.003-.211-.009-1.667-.141-3.397-1.97-3.213-4.223v-.004c.057.005.113.007.169.007.885 0 1.629-.572 1.694-1.337.039-.495-.211-.957-.627-1.262.693-.671 1.581-1.061 2.41-1.061.07 0 .14.003.21.009 1.668.141 3.393 1.978 3.21 4.231a4.013 4.013 0 0 1-.713 1.979h-.01c-.44 0-.811.288-.844.668a.651.651 0 0 0 .021.216c-.637.501-1.389.786-2.096.786z" fill="#783224" fill-rule="nonzero"/><path d="M113.306 141.65a1.945 1.945 0 0 1-1.15-.363c-.422-.305-.677-.769-.637-1.263.065-.769.804-1.341 1.689-1.341a1.876 1.876 0 0 1 .17.007c.38.03.723.162.995.361.416.305.666.767.627 1.262-.065.765-.809 1.337-1.694 1.337zm6.228 4.04a.921.921 0 0 1-.206-.02c-.337-.067-.596-.298-.671-.577a.651.651 0 0 1-.021-.216c.033-.38.404-.668.844-.668h.01l.076.004a.93.93 0 0 1 .668.345.667.667 0 0 1 .143.465c-.033.38-.403.667-.843.667z" fill="#e58a71" fill-rule="nonzero"/><path d="M132.787 153.752zm-.314-.242z" fill="#d23e2f" fill-rule="nonzero"/><path d="M129.785 151.626l-.061-.039.061.039zm-.609-.38c-2.524-1.543-5.043-2.658-7.524-3.418 2.482.76 4.999 1.874 7.524 3.417v.001z" fill="#d54635" fill-rule="nonzero"/><path d="M129.724 151.587a32.71 32.71 0 0 0-.548-.341v-.001c.183.112.365.226.548.342z" fill="#d13d2f" fill-rule="nonzero"/><path d="M121.652 147.828a30.28 30.28 0 0 0-4.612-1.029h.001c1.518.216 3.058.553 4.611 1.029zm-6.58-1.245z" fill="#bc2826" fill-rule="nonzero"/><path d="M117.04 146.799a29.872 29.872 0 0 0 .001 0h-.001z" fill="#c32726" fill-rule="nonzero"/><path d="M177.418 169.312a21.849 21.849 0 0 1-20.718-14.831 21.596 21.596 0 0 1-1.134-6.933c0-12.019 9.783-21.758 21.852-21.758 12.068 0 21.851 9.739 21.851 21.758a21.63 21.63 0 0 1-.597 5.08c-2.296 9.567-10.939 16.684-21.254 16.684zm30.335-42.604s-28.305-12.91-45.641 0c0 0-4.056 4.217-6.917 5.993-1.007.631-2.462.277-3.625.017-2.158-.481-5.971-1.262-6.883-.935v10.143s4.055-.371 5.804 5.622c0 0 .957 4.133 3.353 9.008 3.055 6.237 8.462 13.691 17.21 15.24 0 0 19.733 4.981 28.863-13.092 0 0 .886-1.284 2.103-3.442 3.265-5.833 8.898-18.05 5.733-28.554z" fill="#79b6e3" fill-rule="nonzero"/><path d="M177.418 169.312a21.849 21.849 0 0 1-20.718-14.831l.067-.045.152-.103.336-.223a53.729 53.729 0 0 1 4.752-2.805c2.023.599 6.445 1.716 11.305 1.716 1.669 0 3.39-.132 5.083-.462 2.595-.506 4.856-2.766 6.744-5.652 4.362.726 8.887 2.461 13.411 5.635l.122.086c-2.296 9.567-10.939 16.684-21.254 16.684z" fill="#d25b40" fill-rule="nonzero"/><path d="M173.312 153.021c-4.86 0-9.282-1.117-11.305-1.716 2.456-1.281 5.23-2.474 8.236-3.351a8.254 8.254 0 0 0 3.876.96 8.268 8.268 0 0 0 5.858-2.422h.127c1.646.001 3.328.131 5.035.415-1.888 2.886-4.149 5.146-6.744 5.652-1.693.33-3.414.462-5.083.462z" fill="#d5664e" fill-rule="nonzero"/><path d="M174.119 148.914c-1.4 0-2.719-.347-3.876-.96 3.036-.886 6.31-1.451 9.734-1.462a8.268 8.268 0 0 1-5.858 2.422z" fill="#a12d24" fill-rule="nonzero"/><path d="M156.7 154.481a21.596 21.596 0 0 1-1.134-6.933c0-5.734 2.227-10.95 5.867-14.837-.974 7.9-.596 18.162-.596 18.162l.009.003.002.06s.419.149 1.159.369a53.729 53.729 0 0 0-4.752 2.805l-.336.223-.152.103-.067.045zm41.972-1.853a5.33 5.33 0 0 0-.122-.086c-4.525-3.175-9.048-4.909-13.411-5.635 3.824-5.849 6.111-14.266 6.523-15.86 4.658 3.989 7.607 9.902 7.607 16.501a21.63 21.63 0 0 1-.597 5.08z" fill="#df7a57" fill-rule="nonzero"/><path d="M162.007 151.305c-.74-.22-1.159-.369-1.159-.369l-.002-.06c.043.014.239.076.617.234.107-7.258.779-17.227 3.473-19.137 1.996-1.461 5.244-3.219 9.494-3.219 4.281 0 9.579 1.782 15.644 7.448a60.616 60.616 0 0 0 1.572-5.169l.016.014c-.412 1.594-2.699 10.011-6.523 15.86a30.749 30.749 0 0 0-5.035-.415h-.127a8.294 8.294 0 1 0-9.734 1.462c-3.007.877-5.78 2.069-8.236 3.351z" fill="#e58a71" fill-rule="nonzero"/><path d="M161.463 151.11c-.378-.158-.574-.22-.617-.234l-.009-.003s-.378-10.262.596-18.162a21.835 21.835 0 0 1 15.985-6.921 21.824 21.824 0 0 1 14.228 5.243 60.616 60.616 0 0 1-1.572 5.169c-6.065-5.666-11.363-7.448-15.644-7.448-4.25 0-7.498 1.758-9.494 3.219-2.694 1.91-3.366 11.879-3.473 19.137z" fill="#d67051" fill-rule="nonzero"/><path d="M170.243 147.954a8.294 8.294 0 1 1 9.734-1.462c-3.424.011-6.698.576-9.734 1.462zm1.077-2.969c.794.73 1.803 1.172 2.865 1.172.107 0 .213-.004.32-.013 2.395-.198 4.233-2.615 4.015-5.273a5.93 5.93 0 0 0-.028-.268c.422-.305.677-.769.637-1.264-.065-.769-.804-1.342-1.69-1.342l-.074.001c-.842-1.026-2.052-1.675-3.342-1.675-.107 0-.214.005-.322.014-2.394.196-4.23 2.611-4.019 5.267.068.83.33 1.603.732 2.268a.672.672 0 0 0-.144.466c.034.38.404.667.844.667a.945.945 0 0 0 .206-.02z" fill="#8d3023" fill-rule="nonzero"/><path d="M174.185 146.157c-1.062 0-2.071-.442-2.865-1.172.336-.067.595-.297.671-.577.637.501 1.388.786 2.096.786.071 0 .141-.003.211-.009 1.667-.142 3.397-1.97 3.213-4.223v-.003c.374-.032.711-.162.981-.356.011.089.021.178.028.268.218 2.658-1.62 5.075-4.015 5.273a3.804 3.804 0 0 1-.32.013zm-3.771-2.285a5.205 5.205 0 0 1-.732-2.268c-.211-2.656 1.625-5.071 4.019-5.267.108-.009.215-.014.322-.014 1.29 0 2.5.649 3.342 1.675l-.095.006c-.38.031-.723.163-.995.362-.693-.671-1.581-1.061-2.41-1.061-.071 0-.141.003-.21.009-1.668.141-3.393 1.978-3.21 4.231.062.753.326 1.424.713 1.979l-.076.004a.929.929 0 0 0-.668.344z" fill="#ab3526" fill-rule="nonzero"/><path d="M174.087 145.194c-.708 0-1.459-.285-2.096-.786a.657.657 0 0 0 .021-.217c-.033-.379-.403-.667-.843-.667h-.011a4.023 4.023 0 0 1-.713-1.979c-.183-2.253 1.542-4.09 3.21-4.231.069-.006.139-.009.21-.009.829 0 1.717.39 2.41 1.061-.416.305-.666.767-.627 1.262.066.765.809 1.337 1.694 1.337.056 0 .112-.002.169-.006v.003c.184 2.253-1.546 4.081-3.213 4.223-.07.006-.14.009-.211.009z" fill="#783224" fill-rule="nonzero"/><path d="M177.342 140.965c-.885 0-1.628-.572-1.694-1.337-.039-.495.211-.957.627-1.262.272-.199.615-.331.995-.362l.095-.006.074-.001c.886 0 1.625.573 1.69 1.342.04.495-.215.959-.637 1.264a1.967 1.967 0 0 1-1.15.362zm-6.228 4.04c-.44 0-.81-.287-.844-.667a.672.672 0 0 1 .144-.466.929.929 0 0 1 .668-.344l.076-.004h.011c.44 0 .81.288.843.667a.657.657 0 0 1-.021.217c-.076.28-.335.51-.671.577a.945.945 0 0 1-.206.02z" fill="#e58a71" fill-rule="nonzero"/><path d="M198.55 152.542c-4.524-3.174-9.049-4.909-13.411-5.635 4.363.726 8.886 2.46 13.411 5.635z" fill="#d34130" fill-rule="nonzero"/><path d="M185.139 146.907zm-5.081-.415h.022-.022z" fill="#d54635" fill-rule="nonzero"/><path d="M227.406 119.567l-.271.043c-.435-4.273-1.492-9.489-3.835-14.804a101.708 101.708 0 0 0-3.519-14.226c-10.344-31.791-24.989-43.627-42.879-50.529-9.214-3.548-21.982-3.246-32.218-2.123-10.236-1.123-23.004-1.425-32.217 2.123-17.892 6.902-32.535 18.738-42.881 50.529a101.84 101.84 0 0 0-3.518 14.226c-2.342 5.315-3.4 10.531-3.835 14.804l-.271-.043s-9.011 50.009-34.399 59.993c0 0 13.541 3.475 26.911-10.487 4.907-5.125 13.254-3.266 15.455 3.584l.063.197c1.648 5.153 2.923 11.212 3.904 17.715.321-2.572.696-5.105 1.17-7.529.125-.657.259-1.318.395-1.964.163-.757.346-1.463.516-2.197a93.28 93.28 0 0 0 5.203 9.646c.118.407.228.827.355 1.215 1.179 3.988 2.82 7.697 4.236 11.205 1.381 3.524 2.808 6.831 3.886 10.038.991 3.199 1.882 6.224 2.333 9.097.276 1.436.411 2.836.516 4.155a28.28 28.28 0 0 1 .201 3.81c.112 2.394-.117 4.506-.185 6.266l-.633 5.52s.208-.464.604-1.339c.36-.905 1.031-2.166 1.627-3.891.502-1.729 1.321-3.814 1.712-6.32.533-2.491.897-5.365.826-8.525.081-4.207-.694-8.866-1.922-13.638 6.583 6.991 11.824 10.83 11.824 10.83s-7.694-9.388-11.134-18.756c-2.667-7.272-6.653-19.754-6.653-38.135 0-.851.048-1.711.119-2.578.233-.995.439-2.006.711-2.984 1.805-6.661 4.067-12.865 6.02-18.35 4.865-9.794 10.541-17.226 10.541-17.226s-8.026 14.275-9.603 29.979c-1.6 15.697 6.814 27.84 6.814 27.84s-1.681-18.642 4.203-33.482c2.955-7.453 7.811-13.953 15.762-16.644l-.013.035c-4.27 12.028 4.306 22.135 4.306 22.135s.032-3.017.881-7.668c1.483-8.123 5.477-21.243 16.17-32.064 10.693 10.821 14.687 23.941 16.17 32.064.849 4.651.881 7.668.881 7.668s8.576-10.107 4.306-22.135l-.013-.035c7.951 2.691 12.807 9.191 15.762 16.644 5.885 14.84 4.203 33.482 4.203 33.482s8.413-12.143 6.814-27.84c-1.577-15.704-9.602-29.979-9.602-29.979s5.675 7.432 10.541 17.226c1.952 5.485 4.214 11.689 6.019 18.35.273.978.478 1.989.711 2.984.071.867.119 1.727.119 2.578 0 18.381-3.986 30.863-6.653 38.135-3.44 9.368-11.133 18.756-11.133 18.756s5.24-3.839 11.823-10.83c-1.228 4.772-2.002 9.431-1.922 13.638-.071 3.16.293 6.034.827 8.525.39 2.506 1.209 4.591 1.711 6.32.596 1.725 1.267 2.986 1.628 3.891.396.875.603 1.339.603 1.339l-.633-5.52c-.068-1.76-.297-3.872-.185-6.266a28.286 28.286 0 0 1 .202-3.81c.104-1.319.239-2.719.515-4.155.451-2.873 1.341-5.898 2.333-9.097 1.079-3.207 2.505-6.514 3.885-10.038 1.417-3.508 3.058-7.217 4.237-11.205.127-.388.238-.808.355-1.215a93.28 93.28 0 0 0 5.203-9.646c.171.734.353 1.44.516 2.197.136.646.27 1.307.395 1.964.473 2.424.85 4.957 1.169 7.529.982-6.503 2.256-12.562 3.904-17.715l.065-.197c2.2-6.85 10.547-8.709 15.454-3.584 13.371 13.962 26.911 10.487 26.911 10.487-25.388-9.984-34.399-59.993-34.399-59.993z" fill="#b74e6c" fill-rule="nonzero"/><path d="M123.148 280.916l-3.566-3.563-4.033 4.029-4.033-4.029-3.567 3.563 4.033 4.034-4.033 4.031 3.567 3.568 4.033-4.032 4.033 4.032 3.566-3.568-4.033-4.031 4.033-4.034zm20.08 0l-3.566-3.563-4.033 4.029-4.033-4.029-3.566 3.563 4.033 4.034-4.033 4.031 3.566 3.568 4.033-4.032 4.033 4.032 3.566-3.568-4.032-4.031 4.032-4.034zm20.081 0l-3.567-3.563-4.033 4.029-4.032-4.029-3.567 3.563 4.033 4.034-4.033 4.031 3.567 3.568 4.032-4.032 4.033 4.032 3.567-3.568-4.033-4.031 4.033-4.034zm20.08 0l-3.57-3.563-4.033 4.029-4.032-4.029-3.567 3.563 4.033 4.034-4.033 4.031 3.567 3.568 4.032-4.032 4.033 4.032 3.57-3.568-4.033-4.031 4.033-4.034z" fill="#d7878e"/></svg>