<svg viewBox="0 0 298 300" xmlns="http://www.w3.org/2000/svg" fill-rule="evenodd" clip-rule="evenodd" stroke-linejoin="round" stroke-miterlimit="1.414"><g fill-rule="nonzero"><path fill="#ef837c" d="M.31.16h296.86v299.705H.31z"/><path d="M149.05 187.244v112.621H88.32c-.99-.396-1.48-.596-1.48-.596 0-14.376 2.1-25.585 5.3-34.325 7.73-21.096 21.89-27.796 28.4-29.816 2.14-.664 3.45-.823 3.45-.823.24 0 .45-.021.67-.057 1.91-.308 3.47-1.974 4.71-4.633.93-1.974 1.7-4.493 2.33-7.409.26-1.136.45-2.282.65-3.521.3-2.083.59-4.263.84-6.546.1-1.388.25-2.725.39-4.164.54-6.89.7-14.433.7-21.575 0 0 8.15.844 14.77.844z" fill="#e0bd9a"/><path d="M211.51 299.269s-.54.2-1.44.596h-61.02V187.244h.15c6.57 0 14.83-.844 14.83-.844 0 7.091.14 14.531.68 21.425.15 1.342.3 2.725.4 4.067.25 2.381.55 4.613.89 6.695v.046c.1.946.29 1.789.44 2.679.6 2.931 1.33 5.507 2.21 7.573 1.09 2.571 2.42 4.366 4.03 5.075.51.232 1.05.345 1.62.345 0 0 2.34.283 5.84 1.66 7.15 2.808 19.16 10.176 26.06 28.979 3.2 8.74 5.31 19.949 5.31 34.325z" fill="#efd0ad"/><path d="M166 218.377v.049c-1.53 2.365-6.67 9.163-16.85 9.163h-.1c-9.64-.049-15.27-7.045-16.7-9.114.3-2.069.59-4.237.84-6.503.1-1.33.25-2.71.39-4.138a67.739 67.739 0 0 0 15.27 2.019h.2a65.264 65.264 0 0 0 15.66-2.167c.15 1.33.3 2.709.4 4.04.25 2.364.54 4.581.89 6.651z" fill="#be987f"/><path d="M148.36 58.901c-64.34 0-64.68 53.946-61.82 89.271-4.4-8.376-17.49-5.814-16.4 7.39 1.03 12.71 19.74 19.188 19.22 17.785 9.74 26.124 35.53 45.818 59 45.818h.49V58.901h-.49z" fill="#d2a686"/><path d="M74.24 149.994c3.16-5.123 8.1-2.906 9.29-1.773 1.28 1.231 2.32 2.808 1.53 5.813-.44 1.725-2.22 1.872-1.83 4.434.5 2.907 1.83 3.055 2.62 3.744.74.641 1.68 1.134 2.13 2.365a6.24 6.24 0 0 1 .29 3.646c-.49 2.069-3.51.394-5.53-.493-1.34-.64-5.59-4.237-6.67-5.419-2.67-3.054-3.96-8.966-1.83-12.317z" fill="#ac8774"/><path d="M148.7 58.901c64.34 0 64.69 53.946 61.87 89.271 4.4-8.376 17.44-5.814 16.36 7.39-.99 12.71-19.74 19.193-19.23 17.785-9.49 26.124-35.52 45.818-59 45.818h-.34l-.15-160.264h.49z" fill="#ddb598"/><path d="M222.82 149.994c-3.16-5.123-8.05-2.906-9.29-1.773-1.28 1.231-2.27 2.808-1.53 5.813.45 1.725 2.23 1.872 1.83 4.434-.49 2.907-1.83 3.055-2.57 3.744-.74.641-1.73 1.134-2.17 2.365-.45 1.232-.55 2.513-.3 3.646.49 2.069 3.51.394 5.54-.493 1.38-.64 5.58-4.237 6.67-5.419 2.71-3.054 3.95-8.966 1.82-12.317z" fill="#ac8774"/><path d="M147.85 74.124c-21.15 0-36.66 6.158-46 18.278-13.1 16.997-12.6 42.911-7.81 61.534 1.48 5.715 2.27 21.036 3.26 26.653 4.6 25.175 32.32 38.576 50.55 38.576h.5V74.124h-.3" fill="#e0bd9a"/><path d="M193.81 92.451c-9.29-12.07-24.61-18.228-45.46-18.327v145.041c20.85-.246 45.8-14.928 50.05-38.576 1.04-5.617 1.78-20.938 3.26-26.653 4.85-18.574 5.34-44.439-7.85-61.485z" fill="#efd0ad"/><path d="M144.97 193.453c-.1-.021-.2-.041-.3-.064l.3.064zm-.78-.175c-.1-.024-.18-.051-.27-.076l-.01.004s.1.029.28.072z" fill="#bc917b"/><path d="M136.07 173.609c-.24-5.012 9.18-1.831 12.29-1.674 2.45.125 9.92-1.58 10.56-1.141 4.39 2.972-4.65 8.957-10.72 8.957-1.62 0-11.98-3.119-12.13-6.142z" fill="#ddb598"/><path d="M130.38 74.486l-.26.268.04.09c.09-.135.14-.269.22-.358z" fill="#432e1b"/><path d="M145.15 190.511a8.288 8.288 0 0 1-.31-.066c.1.023.19.041.31.066zm-.81-.18c-.09-.025-.18-.052-.28-.078l-.01.004.29.074z" fill="#ba907b"/><path d="M102.19 130.734s4.91 20.198 13.34 21.847c8.42 1.647 17.54-1.629 17.54-1.629s.88-23.738-3.44-26.839c-4.31-3.115-14.25-7.617-27.44 6.621z" fill="#fff"/><path d="M133.09 150.89s-.2.056-.63.237c-.11-7.281-.78-17.281-3.47-19.197-4.01-2.942-13.06-7.084-25.14 4.243-1.1-3.13-1.65-5.502-1.65-5.502 13.21-14.265 23.16-9.771 27.44-6.653 4.32 3.114 3.45 26.872 3.45 26.872z" fill="#d6b496"/><path d="M128.1 140.604c0 4.595-3.72 8.32-8.3 8.32s-8.29-3.725-8.29-8.32c0-4.594 3.71-8.319 8.29-8.319 4.58 0 8.3 3.725 8.3 8.319z" fill="#482315"/><path d="M119.42 146.145c-2.4-.199-4.24-2.623-4.02-5.289.22-2.665 2.42-4.75 4.82-4.549 2.4.198 4.23 2.62 4.02 5.285-.22 2.665-2.43 4.754-4.82 4.553z" fill="#7e3a22"/><path d="M119.62 145.184c-1.66-.143-3.39-1.978-3.21-4.237.19-2.267 2.19-3.797 3.86-3.66 1.67.142 3.39 1.985 3.21 4.245-.19 2.263-2.19 3.789-3.86 3.652z" fill="#211a10"/><path d="M118.27 139.608c-.06.817-.9 1.414-1.86 1.335-.96-.082-1.68-.812-1.62-1.624.07-.82.9-1.418 1.86-1.339.97.078 1.69.808 1.62 1.628zm5.38 4.725c-.03.407-.45.707-.93.666-.48-.038-.84-.406-.81-.812.04-.406.45-.707.93-.666.48.038.85.402.81.812z" fill="#fff"/><path d="M145.28 192.894c-.11-.023-.21-.043-.31-.067.1.023.19.042.31.067zm-.81-.181l-.27-.078-.01.004s.1.03.28.074z" fill="#ba907b"/><path d="M144.9 192.323c-.11-.024-.22-.046-.33-.071.11.024.2.045.33.071zm-.86-.194c-.1-.026-.2-.055-.3-.083l-.01.005s.11.031.31.078zm.61-.651c-.11-.023-.22-.045-.33-.071l.33.071zm-.86-.193l-.3-.084-.01.005.31.079zm1.63.078c-.1-.023-.21-.044-.32-.069l.32.069zm-.83-.187c-.1-.026-.19-.054-.29-.081l-.01.005s.11.03.3.076z" fill="#bc917b"/><path d="M195 130.047s-4.9 20.198-13.33 21.847c-8.43 1.647-17.55-1.629-17.55-1.629s-.87-23.738 3.45-26.839c4.31-3.115 14.25-7.617 27.43 6.621z" fill="#fff"/><path d="M164.11 150.202s.19.056.63.238c.11-7.281.78-17.281 3.47-19.197 4.01-2.943 13.05-7.084 25.14 4.242 1.1-3.129 1.65-5.501 1.65-5.501-13.21-14.265-23.16-9.771-27.44-6.653-4.32 3.114-3.45 26.871-3.45 26.871z" fill="#d6b496"/><path d="M169.1 139.917c0 4.595 3.71 8.32 8.29 8.32 4.58 0 8.3-3.725 8.3-8.32 0-4.595-3.72-8.319-8.3-8.319s-8.29 3.724-8.29 8.319z" fill="#482315"/><path d="M177.78 145.457c2.39-.198 4.23-2.622 4.01-5.288-.21-2.665-2.42-4.751-4.81-4.549-2.4.198-4.23 2.619-4.02 5.284.21 2.666 2.43 4.755 4.82 4.553z" fill="#7e3a22"/><path d="M177.57 144.496c1.67-.142 3.4-1.977 3.22-4.236-.19-2.267-2.19-3.797-3.86-3.66-1.67.142-3.39 1.985-3.21 4.245.18 2.262 2.19 3.789 3.85 3.651z" fill="#211a10"/><path d="M178.92 138.921c.07.817.91 1.414 1.87 1.335.96-.082 1.68-.812 1.61-1.624-.07-.821-.9-1.418-1.86-1.339-.96.078-1.68.808-1.62 1.628zm-5.37 4.725c.03.406.45.707.93.666.48-.038.84-.406.81-.812-.04-.406-.46-.707-.93-.666-.48.037-.85.402-.81.812z" fill="#fff"/><path d="M138.14 130.412c-.07-.099-1.6-2.431-4.72-4.835-1.96-1.507-3.88-2.654-5.87-3.508a30.327 30.327 0 0 0-7.55-2.088c-2.29-.255-4.82-.187-7.77.211-2.26.431-4.46 1.103-6.32 1.929-1.33.459-2.38 1.105-3.23 1.625-.32.199-.61.379-.91.539l-4.03 2.539 4.64-1.093c.22-.055.45-.117.7-.184.96-.255 2.16-.573 3.56-.779.33-.048.66-.114 1-.182.58-.117 1.19-.238 1.82-.268.7-.047 1.43-.099 2.18-.153l.97-.07c2.57-.033 4.74.163 6.67.608 2.11.365 4.27 1.047 6.26 1.969 1.87.901 3.67 1.793 5.07 2.826 2.84 1.897 4.41 3.479 4.43 3.495a2.015 2.015 0 0 0 2.53.268c.93-.613 1.19-1.877.6-2.788l-.03-.061zm57.69-6.146c-.26-.141-.56-.322-.88-.521-.85-.519-1.9-1.165-3.19-1.609-1.9-.841-4.1-1.513-6.38-1.948-2.93-.395-5.46-.463-7.76-.206a30.327 30.327 0 0 0-7.54 2.087c-1.96.843-3.94 2.023-5.87 3.508-3.06 2.36-4.59 4.652-4.71 4.828l-.03.042c-.51.8-.4 1.871.27 2.546.38.386.89.597 1.43.597.54 0 1.04-.212 1.42-.598l.02-.017c.15-.148 1.68-1.649 4.43-3.49 1.38-1.018 3.18-1.912 5.05-2.81a25.51 25.51 0 0 1 6.29-1.978c1.9-.439 4.07-.631 6.61-.604l1.02.074c.74.053 1.47.104 2.17.152.63.029 1.23.15 1.81.267.34.068.68.134 1 .182 1.4.206 2.6.524 3.56.779.25.067.48.129.71.185l4.63 1.093-4.06-2.559z" fill="#030405"/><path d="M143.82 195.285l-.32-.07c.1.024.2.044.32.07zm-.84-.189c-.1-.026-.19-.054-.29-.081l-.01.004s.11.031.3.077z" fill="#be927b"/><path d="M136.46 199.452c-.24-3.247 9.02.68 12.06.774 2.42.082 9.71-.481 10.38-.739 5.1-1.911-.28 5.429-10.54 5.815-4.69.188-11.76-3.881-11.9-5.85z" fill="#f0d2ad"/><path d="M166.6 193.191c-2.51-.124-5.09 1.977-8.11 1.656-.13-.061-.19-.061-.32-.061-.69-.123-1.38 0-2.14.185-.94.197-1.88.58-2.77.889-1.51.493-3.21.888-4.96.752v.012l-.1-.012-.1.012v-.012c-1.75.136-3.45-.259-4.97-.752-.88-.309-1.83-.692-2.77-.889-.75-.185-1.44-.308-2.14-.185-.13 0-.19 0-.31.061-3.02.321-5.6-1.78-8.12-1.656-.69.061-1.7-.124-2.27-.124.13.062.26.124.38.185 7.17 3.504 13.35 10.068 20.2 9.858h.2c6.84.21 13.03-6.354 20.19-9.858.13-.061.26-.123.38-.185-.56 0-1.57.185-2.27.124z" fill="#dcbf9e"/><path d="M168.71 192.991s-7.29-2.815-12.47-1.164c0 0-1.93.755-3.93 1.215-1.21.475-2.69.613-4.11.555a22.68 22.68 0 0 1-2.98-.331 15.81 15.81 0 0 1-.85-.163c-.13-.026-.22-.046-.33-.07-.17-.041-.34-.074-.52-.119-.19-.046-.3-.077-.3-.077l.01-.004a34.947 34.947 0 0 1-3.08-1.006c-5.18-1.651-12.46 1.164-12.46 1.164l-.17.076c.57 0 1.58.185 2.27.124 2.51-.124 5.1 1.977 8.12 1.656.12-.061.18-.061.31-.061.7-.124 1.39 0 2.14.185.94.197 1.89.58 2.77.889 1.52.493 3.22.888 4.97.752v.012l.1-.012.1.012v-.012c1.75.136 3.45-.259 4.96-.752.89-.309 1.83-.692 2.77-.889.76-.185 1.45-.309 2.14-.185.13 0 .19 0 .32.061 3.02.321 5.6-1.78 8.11-1.656.7.061 1.71-.124 2.27-.124 0 0-.06-.031-.16-.076z" fill="#c69f83"/><path d="M135.96 194.705c.13.034 13.65 4.164 24.23.09l-1.22-.822h-14.29l-8.72.732z" fill="#c69f83"/><path d="M201.92 282.641h11.18c.4-17.226-8.72-30.47-8.72-30.47-3.1-4.267-6.49-7.5-9.84-9.966-.26-.26-.59-.475-.87-.694-4.41-3.185-8.62-4.987-11.72-6.004-.62-.219-1.17-.386-1.68-.56-2.26-.627-3.67-.755-3.67-.755-1.25 0-2.37-.475-3.34-1.283l-.05-.042c-.32-.307-.66-.67-.96-1.064-.14.087-.38.436-.61 1.106-.64 1.554-3.42 7.491-7.55 12.924-3.94 5.182-9.1 9.905-14.85 9.906-11.78.004-21.15-19.793-22.41-22.83-.22-.67-.46-1.019-.58-1.106-.34.394-.67.757-.99 1.064l-.05.042c-.97.808-2.08 1.283-3.34 1.283 0 0-1.47.17-3.88.84-.52.13-1.08.305-1.68.524-2.55.868-5.81 2.275-9.28 4.477-.76.487-1.53.999-2.31 1.565-.28.175-.6.388-.88.672-2.39 1.765-4.79 3.957-7.11 6.622a54.186 54.186 0 0 0-2.64 3.279s-8.96 19.209-8.85 30.47h11.43c-.04 7.723-.28 13.599-.53 17.224h106.21c-.25-3.617-.52-9.503-.56-17.224h.13z" fill="#5ba6ac"/><path fill="#47989a" d="M80.8 272.094h24.68v17.998H80.8zm113.62 0h24.69v17.998h-24.69z"/><path d="M85.3 156.607c.19.444.33.896.48 1.345h1.72c2 0 3.78-1.628 3.64-3.63-.01-.176-.01-.342.01-.494l-.3.318c.36-3.886.21-8.808-.96-14.631-2.1-10.382 8.25-49.728 33.19-42.058 2.41.735 4.5 1.599 6.41 2.487-23.83 23.807-9.06 57.652-9.06 57.652-.48-24.061 16.52-41.416 26.37-49.423-5.87 14.101-.58 28.845-.58 28.845 1.18-24.267 26.47-37.548 26.47-37.548l-1.93-4.102c5.82-1.145 11.67-.716 16.7 2.112 10.27 5.796 16.06 18.806 14.27 39.575-.84 9.714-.8 15.84-.4 19.708l-.27 1.189h3.99l-.1-.16c.43-2.065 1.24-4.377 2.97-6.335 4.27-4.862 10.79-21.255 10.79-37.607 0-16.358-5.58-30.901-20.13-46.377-14.55-15.471-35.95-22.98-35.95-22.98l5.93 5.584c-3.54-2.726-9.87-6.523-20.43-9.866-15.04-4.748-24.77.545-24.77.545s7.84-.272 11.69 2.813c-3.8-1.634-10.33-2.202-21.25 2.312-21.38 8.841-21 24.688-35.88 29.544-15.24 4.989-19.65-1.41-19.65-1.41s6.6 11.213 18.34 11.239c1.9 0 2.09-.039 2.1-.052-.01.049-4.4 12.029-5.24 20.976-.87 9.142 1.82 15.402 2.65 32.516.72 14.628 4.58 7.129 9.18 17.913z" fill="#3d3d3b"/><path d="M164.97 204.406c-1.78.802-3.89 1.483-6.22 2.021l.03-.225c0-2.2-5.33-3.985-11.97-4.039-6.63.054-11.96 1.839-11.96 4.039l.03.225c-2.33-.538-4.44-1.219-6.22-2.021-1.03-2.318-1.65-5.097-1.65-8.11 0-.988.09-1.945.21-2.879 3.66-3.579 9.05 1.004 15.3.188 1.4-.182 2.82-.285 4.29-.286 1.48.001 2.9.104 4.3.286 6.25.816 11.64-3.767 15.3-.188.12.934.21 1.891.21 2.879 0 3.013-.62 5.792-1.65 8.11zm41.33-4.877c-.62-2.88-.92-4.519-.97-5.677h-1.12c3.9-5.381 6.09-11.389 6.09-17.737 0-5.731-1.13-11.157-3.95-16.105h-5.73c-.1.526-.17 1.021-.17 1.416 0 19.429-11.67 33.974-29.01 42.117.81-2.138 1.29-4.599 1.29-7.247 0-4.943-1.62-9.307-4.1-11.925-4.07-5.816-12.3-.892-21.82-.879-9.52-.013-17.74-4.937-21.81.879-2.48 2.618-4.1 6.982-4.1 11.925 0 2.648.48 5.109 1.29 7.247-17.34-8.143-29.01-22.688-29.01-42.117 0-.396-.11-.888-.26-1.416h-6.57c.03.12.07.25.1.367-2.43 4.849-3.12 10.149-3.12 15.738 0 6.348 2.19 12.356 6.09 17.737l-1.12.2c-.05 1.158-.35 2.597-.97 5.477-1.68 7.9-6.69 9.973-6.69 9.973s7.73-3.018 9.6-5.065c.91-.995 3.32-3.749 4.05-4.582l.05.072c-.42.904-1.44 3.847-.01 9.516 1.87 7.403 9.53 12.393 9.53 12.393s-1-1.287-1.94-3.315c.58 1.212 1.23 2.345 1.94 3.315 0 0 11.17 9.158 25.02 12.654l.18.046c-.1-.219-.24-8.224-.33-11.143 5.45 1.513 11.13 2.379 17.04 2.379.35 0 .69-.012 1.04-.022.36.01.71.022 1.05.022 5.91 0 11.59-.866 17.04-2.379-.09 2.919-.23 12.711-.33 12.931.09-.007.26-.079.5-.209 2.66-1.136 15.52-6.819 24.82-14.441-.08.106-.12.162-.12.162s6.77-4.407 9.13-11.083c.47-1.172.77-2.359.87-3.553.68-4.217-.12-6.498-.48-7.273l.05-.072c.73.833 3.14 3.587 4.05 4.582 1.87 2.047 9.6 5.065 9.6 5.065s-5.01-2.073-6.69-9.973z" fill="#51504f"/><path d="M160.06 276.26l-11.52 9.648-11.91-9.648v-13.412l11.96 10.549 11.47-9.495v12.358z" fill="#f0f0f0"/></g></svg>