<svg viewBox="0 0 297 301" xmlns="http://www.w3.org/2000/svg" fill-rule="evenodd" clip-rule="evenodd" stroke-linejoin="round" stroke-miterlimit="1.414"><path fill="#491f44" fill-rule="nonzero" d="M0 .275h296.866V299.98H0z"/><path d="M148.554 188.21v112.28H87.818c-.988-.39-1.481-.6-1.481-.6 0-7.06.493-13.35 1.419-18.95.926-5.78 2.263-10.84 3.889-15.26 4.588-12.47 11.439-19.9 17.612-24.3a41.823 41.823 0 0 1 6.728-3.89 34.35 34.35 0 0 1 4.053-1.54c2.139-.66 3.456-.83 3.456-.83.226 0 .453-.02.679-.04 1.893-.31 3.457-1.97 4.711-4.63.927-1.95 1.688-4.46 2.325-7.38.248-1.13.453-2.27.638-3.5.309-2.08.597-4.26.844-6.52.103-1.4.247-2.74.391-4.16.535-6.87.699-14.4.699-21.52 0 0 8.148.84 14.773.84z" fill="#e0bd9a" fill-rule="nonzero"/><path d="M211.017 299.89s-.555.21-1.44.6h-61.023V188.21h.144c6.563 0 14.834-.84 14.834-.84 0 7.08.144 14.48.679 21.36.144 1.35.308 2.73.391 4.07.267 2.37.555 4.59.905 6.67v.04c.082.94.288 1.79.432 2.67.617 2.92 1.337 5.5 2.222 7.55 1.09 2.55 2.407 4.34 4.012 5.06.514.23 1.07.33 1.625.33 0 0 2.346.29 5.843 1.67.618.25 1.276.51 1.955.82 1.81.83 3.827 1.94 5.925 3.38 6.317 4.36 13.456 11.85 18.188 24.69 1.625 4.46 2.983 9.56 3.909 15.43.885 5.55 1.399 11.79 1.399 18.78z" fill="#efd0ad" fill-rule="nonzero"/><clipPath id="a"><path d="M131.851 208.6h33.65v19.84h-33.65z"/></clipPath><g clip-path="url(#a)"><path d="M165.502 219.25v.05c-1.532 2.36-6.671 9.14-16.85 9.14h-.099c-9.636-.05-15.269-7.02-16.702-9.09.297-2.06.593-4.22.84-6.48.099-1.33.247-2.7.395-4.13a67.88 67.88 0 0 0 15.269 2.02h.198c5.633-.1 10.822-.89 15.664-2.16.148 1.32.296 2.7.395 4.02.247 2.36.544 4.57.89 6.63z" fill="#be987f" fill-rule="nonzero"/></g><path d="M147.861 60.275c-64.336 0-64.682 53.775-61.817 88.995-4.397-8.35-17.492-5.8-16.405 7.37 1.038 12.67 19.746 19.12 19.222 17.73 9.743 26.04 35.529 45.67 59 45.67h.494V60.275h-.494z" fill="#d2a686" fill-rule="nonzero"/><path d="M148.207 60.275c64.336 0 64.682 53.775 61.865 88.995 4.398-8.35 17.443-5.8 16.356 7.37-.988 12.67-19.733 19.13-19.222 17.73-9.49 26.04-35.528 45.67-58.999 45.67h-.346l-.148-159.765h.494z" fill="#ddb598" fill-rule="nonzero"/><path d="M147.355 75.451c-21.149 0-36.665 6.139-46.004 18.221-13.095 16.948-12.6 42.778-7.808 61.338 1.483 5.7 2.274 20.98 3.262 26.58 4.596 25.09 32.316 38.45 50.55 38.45h.494V75.451h-.296" fill="#e0bd9a" fill-rule="nonzero"/><path d="M193.309 93.722c-9.289-12.033-24.608-18.172-45.46-18.271V220.04c20.852-.24 45.806-14.88 50.056-38.45 1.037-5.6 1.779-20.88 3.261-26.58 4.843-18.51 5.337-44.3-7.857-61.288z" fill="#efd0ad" fill-rule="nonzero"/><path d="M129.886 75.812l-.267.268.045.089c.09-.134.134-.268.222-.357z" fill="#432e1b" fill-rule="nonzero"/><path d="M101.696 131.88s4.908 20.14 13.335 21.78c8.426 1.65 17.546-1.62 17.546-1.62s.872-23.66-3.443-26.75c-4.31-3.11-14.249-7.6-27.438 6.59zm92.811-.68s-4.909 20.14-13.335 21.78c-8.427 1.64-17.547-1.62-17.547-1.62s-.872-23.67 3.443-26.76c4.311-3.11 14.25-7.59 27.439 6.6z" fill="#fff" fill-rule="nonzero"/><path d="M73.741 151.09c3.162-5.11 8.104-2.9 9.289-1.77 1.285 1.23 2.323 2.8 1.532 5.79-.445 1.72-2.224 1.87-1.828 4.42.494 2.9 1.828 3.05 2.619 3.74.741.63 1.68 1.13 2.125 2.35.494 1.23.543 2.51.296 3.64-.494 2.06-3.508.39-5.534-.49-1.334-.64-5.584-4.23-6.671-5.41-2.668-3.04-3.953-8.93-1.828-12.27zm148.586 0c-3.163-5.11-8.055-2.9-9.29-1.77-1.285 1.23-2.273 2.8-1.532 5.79.445 1.72 2.224 1.87 1.828 4.42-.494 2.9-1.828 3.05-2.569 3.74-.741.63-1.729 1.13-2.174 2.35-.445 1.23-.544 2.51-.296 3.64.494 2.06 3.508.39 5.534-.49 1.383-.64 5.583-4.23 6.671-5.41 2.717-3.04 3.953-8.93 1.828-12.27z" fill="#ac8774" fill-rule="nonzero"/><path d="M144.474 194.41c-.101-.02-.202-.04-.303-.07.1.03.187.05.303.07zm-.785-.18c-.093-.02-.177-.05-.269-.07h-.01s.104.03.279.07z" fill="#bc917b" fill-rule="nonzero"/><path d="M135.508 172.87c-.244-5 9.178-1.83 12.285-1.67 2.454.12 9.923-1.58 10.564-1.14 4.393 2.96-4.654 8.93-10.721 8.93-1.616 0-11.981-3.11-12.128-6.12z" fill="#ddb598" fill-rule="nonzero"/><path d="M144.65 191.48c-.104-.03-.208-.05-.311-.07.102.02.191.04.311.07zm-.806-.18c-.096-.03-.183-.06-.277-.08h-.011l.288.08z" fill="#ba907b" fill-rule="nonzero"/><path d="M132.589 151.98s-.194.05-.627.23c-.107-7.25-.778-17.22-3.473-19.13-4.006-2.94-13.052-7.06-25.137 4.23-1.099-3.12-1.65-5.49-1.65-5.49 13.213-14.22 23.16-9.74 27.439-6.63 4.319 3.1 3.448 26.79 3.448 26.79z" fill="#d6b496" fill-rule="nonzero"/><path d="M127.599 141.72c0 4.59-3.713 8.3-8.293 8.3a8.293 8.293 0 0 1-8.294-8.3 8.29 8.29 0 0 1 8.294-8.29 8.29 8.29 0 0 1 8.293 8.29z" fill="#482315" fill-rule="nonzero"/><path d="M118.92 147.25c-2.395-.2-4.233-2.62-4.015-5.27.214-2.66 2.422-4.74 4.819-4.54 2.395.2 4.231 2.61 4.019 5.27-.218 2.66-2.428 4.74-4.823 4.54z" fill="#7e3a22" fill-rule="nonzero"/><path d="M119.127 146.29c-1.667-.14-3.397-1.97-3.213-4.22.188-2.26 2.189-3.79 3.856-3.65 1.668.14 3.394 1.98 3.21 4.23-.183 2.26-2.19 3.78-3.853 3.64z" fill="#211a10" fill-rule="nonzero"/><path d="M148.446 196.61h.001-.001zm-3.664-2.76zm-.806-.18c-.096-.02-.183-.05-.277-.08l-.01.01s.107.03.287.07zm4.47-.02h.001-.001z" fill="#ba907b" fill-rule="nonzero"/><path d="M144.405 193.28zm-.864-.19c-.103-.03-.196-.06-.297-.08h-.011l.308.08zm4.543 2.31h.001-.001zm-3.928-2.96c-.111-.02-.222-.05-.333-.07.11.02.206.04.333.07zm-.863-.19c-.103-.03-.196-.06-.297-.09l-.011.01.308.08zm4.791-.02h.001-.001zm-3.157.1zm-.835-.19c-.099-.03-.189-.06-.287-.08h-.011l.298.08z" fill="#bc917b" fill-rule="nonzero"/><path d="M163.614 151.29s.193.06.626.24c.108-7.26.779-17.23 3.473-19.14 4.006-2.93 13.052-7.06 25.138 4.23 1.099-3.12 1.649-5.48 1.649-5.48-13.212-14.22-23.16-9.74-27.438-6.64-4.32 3.11-3.448 26.79-3.448 26.79z" fill="#d6b496" fill-rule="nonzero"/><path d="M168.603 141.04a8.29 8.29 0 0 0 8.294 8.29c4.58 0 8.294-3.71 8.294-8.29 0-4.58-3.714-8.29-8.294-8.29a8.29 8.29 0 0 0-8.294 8.29z" fill="#482315" fill-rule="nonzero"/><path d="M177.282 146.56c2.395-.19 4.234-2.61 4.016-5.27-.214-2.66-2.423-4.73-4.819-4.53-2.395.19-4.231 2.61-4.02 5.26.218 2.66 2.429 4.74 4.823 4.54z" fill="#7e3a22" fill-rule="nonzero"/><path d="M177.075 145.6c1.667-.14 3.397-1.97 3.213-4.22-.187-2.26-2.189-3.78-3.856-3.65-1.668.14-3.393 1.98-3.21 4.23.184 2.26 2.19 3.78 3.853 3.64z" fill="#211a10" fill-rule="nonzero"/><path d="M137.638 131.56c-.064-.09-1.593-2.42-4.719-4.82-1.958-1.5-3.878-2.64-5.869-3.49a30.052 30.052 0 0 0-7.552-2.08c-2.284-.26-4.814-.19-7.768.21-2.254.43-4.453 1.1-6.319 1.92-1.331.46-2.382 1.1-3.227 1.62-.323.2-.616.38-.913.54l-4.026 2.53 4.639-1.09c.216-.06.45-.12.701-.19.96-.25 2.154-.57 3.555-.77.328-.05.661-.12 1.001-.18.584-.12 1.187-.24 1.82-.27.702-.05 1.431-.1 2.18-.15l.974-.07c2.569-.04 4.739.16 6.667.6 2.106.37 4.273 1.05 6.258 1.97 1.875.89 3.673 1.78 5.076 2.81 2.833 1.89 4.41 3.47 4.426 3.49a2.02 2.02 0 0 0 2.53.26c.933-.61 1.195-1.87.601-2.77l-.035-.07zm57.697-6.12c-.266-.14-.56-.32-.884-.52-.844-.52-1.895-1.16-3.186-1.61-1.906-.83-4.104-1.5-6.386-1.94-2.927-.39-5.459-.46-7.752-.2-2.513.34-5.12 1.06-7.544 2.08-1.962.84-3.936 2.01-5.866 3.49-3.07 2.36-4.596 4.64-4.711 4.82l-.028.04c-.518.8-.407 1.86.263 2.54.381.38.888.59 1.427.59h.002c.539 0 1.045-.21 1.425-.59l.017-.02c.149-.15 1.68-1.64 4.428-3.48 1.381-1.01 3.179-1.91 5.049-2.8a25.69 25.69 0 0 1 6.294-1.97c1.9-.44 4.074-.63 6.609-.6l1.022.07c.743.05 1.465.1 2.172.15.623.03 1.226.15 1.81.27.34.06.673.13 1 .18 1.401.2 2.596.52 3.556.77.25.07.484.13.707.19l4.637 1.09-4.061-2.55z" fill="#030405" fill-rule="nonzero"/><path d="M117.777 140.73c-.069.82-.905 1.41-1.863 1.33-.959-.08-1.683-.81-1.618-1.62.069-.81.9-1.41 1.859-1.33.963.08 1.687.8 1.622 1.62zm5.377 4.71c-.035.41-.452.71-.929.67-.482-.04-.842-.41-.811-.81.034-.41.452-.71.929-.67.482.04.846.4.811.81zm55.272-5.39c.069.81.905 1.41 1.862 1.33.96-.08 1.683-.81 1.618-1.62-.069-.82-.9-1.41-1.858-1.34-.964.08-1.687.81-1.622 1.63zm-5.378 4.71c.035.4.452.7.93.66.481-.04.841-.4.811-.81-.035-.4-.453-.7-.93-.66-.481.03-.845.4-.811.81z" fill="#fff" fill-rule="nonzero"/><path d="M148.279 199.26h.001-.001zm-3.568-2.69l-.303-.06c.1.02.187.04.303.06zm-.784-.17c-.094-.03-.178-.05-.27-.08l-.01.01s.104.03.28.07zm4.352-.02h.001-.001z" fill="#bc917b" fill-rule="nonzero"/><path d="M148.551 196.4h.001-.001zm-3.664-2.76zm-.806-.18c-.096-.02-.183-.05-.277-.08l-.011.01s.108.03.288.07zm4.47-.02h.001-.001zm.132 5.34h.001-.001zm-3.664-2.76c-.104-.03-.208-.05-.311-.07.102.02.191.04.311.07zm-.806-.18c-.096-.03-.183-.06-.277-.08h-.01l.287.08zm4.47-.02h.001-.001z" fill="#ba907b" fill-rule="nonzero"/><path d="M144.642 195.45zm-.864-.2c-.103-.02-.196-.05-.297-.08l-.011.01s.114.03.308.07zm.616-.65zm-.864-.19c-.103-.02-.196-.05-.297-.08h-.011l.308.08zm1.634.08a3.627 3.627 0 0 1-.322-.07c.106.02.199.04.322.07zm-.835-.19c-.099-.02-.189-.05-.287-.08l-.011.01s.111.03.298.07z" fill="#bc917b" fill-rule="nonzero"/><path d="M142.043 203.04l-.309-.06c.102.02.191.04.309.06zm-.8-.18c-.096-.02-.182-.05-.275-.07h-.011s.107.03.286.07zm4.21 2.14h.001-.001zm-3.64-2.74l-.309-.06c.102.02.191.04.309.06zm-.8-.18c-.095-.02-.182-.05-.275-.07h-.01s.106.03.285.07zm4.44-.01h.001-.001zm.592 2.74h.001-.001zm-3.518-2.65c-.1-.03-.199-.04-.298-.07.097.02.184.04.298.07zm-.774-.18c-.092-.02-.175-.05-.265-.07h-.01s.102.03.275.07zm4.292-.01h.001-.001z" fill="#be927b" fill-rule="nonzero"/><path d="M135.788 204.55c-.24-3.2 8.913.67 11.918.77 2.398.08 9.601-.48 10.266-.73 5.035-1.89-.275 5.35-10.415 5.73-4.646.18-11.631-3.83-11.769-5.77z" fill="#f0d2ad" fill-rule="nonzero"/><path d="M165.955 196.87c-5.803-1.09-18.031.07-18.031.07-10.082 1.67-17.974-.11-18.031-.04-.242.03 8.052 11.03 17.893 10.52 9.842.51 18.41-10.52 18.169-10.55z" fill="#c2646e" fill-rule="nonzero"/><path d="M153.755 194.55c-2.615-.29-4.477 1.59-5.819 1.45-1.365.13-3.139-1.08-5.77-1.11-3.7-.03-5.506-.36-12.273 2.01.241.46 4.576 2.97 12.697 3.11.115 0 2.295 1.24 5.391 1.22 1.939-.02 4.6-1.31 4.703-1.31 8.133-.13 13.099-2.54 13.328-2.99-8.946-2.78-8.236-2.42-12.257-2.38z" fill="#d87475" fill-rule="nonzero"/><path d="M87.455 210.26c.287.37.214.26-.089-.18l.089.18z" fill="#faa830" fill-rule="nonzero"/><path d="M251.042 125.13c-.956.47-8.318 2.39-15.397-1.53-5.25-52.244-44.027-92.822-91.112-92.822-50.673 0-91.742 46.974-91.742 104.922 0 2.39.091 4.74.226 7.09-.07.95-.161 1.89-.207 2.87-.199 4.65.972 9.69 2.418 14.06 2.12 6.37 4.848 11.27 4.848 11.27s-1.511-8.74.333-18.6c1.458-7.63 4.014-14.67 11.9-21.92-4.078 4.29-7.576 10.78-8.827 19.3-2.312 16.09 1.132 28.76 6.578 40.05 4.086 8.48 15.118 19.43 17.475 22.43-.907-1.3-1.496-5.13-1.948-9.91 5.916 7.97 17.763 13.96 17.763 13.96l-5.442-7.69s-5.544-10.92-8.498-22.91c-2.97-12 2.031-23.22 2.031-23.22s.402 8.52 1.27 11.21c5.434 16.88 16.612 21.08 16.612 21.08s-15.264-25.09-2.816-52.73c3.509-7.8 13.759-20.24 13.759-20.24s-4.886 6.28-8.069 14.73c-.842 2.21-1.072 11.91 2.127 16.68.685-2.93-.605-7.35 3.004-13.48 3.849-6.42 10.92-6.92 18.864-9.05 2.426 1.09 7.726 3.05 14.927 3.19 14.104.24 31.637-11.74 31.423-33.458.482.808 1.109 12.928-.938 18.428-4.393 11.86-14.529 17.46-14.529 17.46s17.215-2.7 22.924-12.47c1.638-2.76 2.951-6.42 3.984-10.36-.911 6.7.574 18.3 3.359 22.7 1.16 1.86 2.27 5.75 2.468 6.55 1.635 6.69 3.869 19.08.203 26.45-3.647 7.37-16.179 15.57-16.179 15.57s10.298-1.51 20.664-9.76c-2.189 6.11-4.332 13.78-3.724 19.29 1.523 13.65-14.287 23.8-14.287 23.8 17.299-4.23 29.999-21.54 33.412-39.5 2.2-11.59-2.395-22.08-2.192-22.64 3.658 5.06 4.411 9.99 4.694 13.75.406 5.21.605 13.23-2.735 20.54 0 0 3.157-2.9 6.558-6.79 4.06-4.66 8.468-10.74 8.273-15.08-.374-7.98 4.974-14.61 1.776-26.84-.035-.11-.081-.25-.123-.37.08-1.8.123-3.61.123-5.44 0-2.52-.104-5-.253-7.48 1.079.15 2.165.25 3.222.25 5.245.01 10.725-2.77 11.8-3.34z" fill="#faa830" fill-rule="nonzero"/><path d="M148.222 281.16h-.042.042z" fill="#fff" fill-rule="nonzero"/><path d="M209.618 281.11c-4.773 3.47-9.155 9.38-10.987 19.38H98.949c-1.873-10.17-6.337-16.09-11.193-19.55.926-5.78 2.263-10.84 3.889-15.26 4.588-12.47 11.439-19.9 17.612-24.3v8.72c0 20.08 11.254 36.5 24.998 36.5h28.289c13.744 0 24.977-16.42 24.977-36.5v-9.11c6.317 4.36 13.456 11.85 18.188 24.69 1.625 4.46 2.983 9.56 3.909 15.43z" fill="#32aeaf" fill-rule="nonzero"/><path d="M187.521 240.99v9.11c0 20.08-11.233 36.5-24.977 36.5h-28.289c-13.744 0-24.998-16.42-24.998-36.5v-8.72a41.823 41.823 0 0 1 6.728-3.89v3.09c0 20.08 11.233 36.52 24.997 36.52h15.616c13.744 0 24.998-16.44 24.998-36.52v-2.97c1.81.83 3.827 1.94 5.925 3.38z" fill="#197d7b" fill-rule="nonzero"/></svg>