<svg viewBox="0 0 298 300" xmlns="http://www.w3.org/2000/svg" fill-rule="evenodd" clip-rule="evenodd" stroke-linejoin="round" stroke-miterlimit="1.414"><path fill="#ba84ba" fill-rule="nonzero" d="M.31.275h296.86V299.98H.31z"/><path d="M149.05 187.36v112.62H88.32c-.99-.4-1.48-.6-1.48-.6 0-14.37 2.1-25.58 5.3-34.32 7.73-21.1 21.89-27.8 28.4-29.82 2.14-.66 3.45-.82 3.45-.82.24 0 .45-.02.67-.06 1.91-.31 3.47-1.97 4.71-4.63.93-1.97 1.7-4.49 2.33-7.41.26-1.13.45-2.28.65-3.52.3-2.08.59-4.26.84-6.55.1-1.38.25-2.72.39-4.16.54-6.89.7-14.43.7-21.57 0 0 8.15.84 14.77.84z" fill="#e0bd9a" fill-rule="nonzero"/><path d="M211.51 299.38s-.54.2-1.44.6h-61.02V187.36h.15c6.57 0 14.83-.84 14.83-.84 0 7.09.14 14.53.68 21.42.15 1.34.3 2.73.4 4.07.25 2.38.55 4.61.89 6.69v.05c.1.94.29 1.79.44 2.68.6 2.93 1.33 5.5 2.21 7.57 1.09 2.57 2.42 4.37 4.03 5.08.51.23 1.05.34 1.62.34 0 0 2.34.28 5.84 1.66 7.15 2.81 19.16 10.18 26.06 28.98 3.2 8.74 5.31 19.95 5.31 34.32z" fill="#efd0ad" fill-rule="nonzero"/><path d="M166 218.49v.05c-1.53 2.37-6.67 9.16-16.85 9.16h-.1c-9.64-.05-15.27-7.04-16.7-9.11.3-2.07.59-4.24.84-6.5.1-1.33.25-2.71.39-4.14 4.7 1.18 9.84 1.92 15.27 2.02h.2c5.63-.1 10.82-.89 15.66-2.17.15 1.33.3 2.71.4 4.04.25 2.37.54 4.58.89 6.65z" fill="#be987f" fill-rule="nonzero"/><path d="M148.36 59.015c-64.34 0-64.68 53.945-61.82 89.275-4.4-8.38-17.49-5.82-16.4 7.39 1.03 12.71 19.74 19.19 19.22 17.78 9.74 26.13 35.53 45.82 59 45.82h.49V59.015h-.49z" fill="#d2a686" fill-rule="nonzero"/><path d="M74.24 150.11c3.16-5.12 8.1-2.91 9.29-1.77 1.28 1.23 2.32 2.8 1.53 5.81-.44 1.72-2.22 1.87-1.83 4.43.5 2.91 1.83 3.06 2.62 3.75.74.64 1.68 1.13 2.13 2.36.49 1.23.54 2.51.29 3.65-.49 2.07-3.51.39-5.53-.49-1.34-.65-5.59-4.24-6.67-5.42-2.67-3.06-3.96-8.97-1.83-12.32z" fill="#ac8774" fill-rule="nonzero"/><path d="M148.7 59.015c64.34 0 64.69 53.945 61.87 89.275 4.4-8.38 17.44-5.82 16.36 7.39-.99 12.71-19.74 19.19-19.23 17.78-9.49 26.13-35.52 45.82-59 45.82h-.34l-.15-160.265h.49z" fill="#ddb598" fill-rule="nonzero"/><path d="M222.82 150.11c-3.16-5.12-8.05-2.91-9.29-1.77-1.28 1.23-2.27 2.8-1.53 5.81.45 1.72 2.23 1.87 1.83 4.43-.49 2.91-1.83 3.06-2.57 3.75-.74.64-1.73 1.13-2.17 2.36-.45 1.23-.55 2.52-.3 3.65.49 2.07 3.51.39 5.54-.49 1.38-.64 5.58-4.24 6.67-5.42 2.71-3.06 3.95-8.97 1.82-12.32z" fill="#ac8774" fill-rule="nonzero"/><path d="M147.85 74.238c-21.15 0-36.66 6.159-46 18.278-13.1 16.994-12.6 42.914-7.81 61.534 1.48 5.72 2.27 21.04 3.26 26.65 4.6 25.18 32.32 38.58 50.55 38.58h.5V74.238h-.5z" fill="#e0bd9a" fill-rule="nonzero"/><path d="M193.81 92.566c-9.29-12.071-24.61-18.229-45.46-18.328V219.28c20.85-.25 45.8-14.93 50.05-38.58 1.04-5.61 1.78-20.93 3.26-26.65 4.85-18.57 5.34-44.44-7.85-61.484z" fill="#efd0ad" fill-rule="nonzero"/><path d="M144.97 193.57c-.1-.02-.2-.04-.3-.07.1.03.19.04.3.07zm-.78-.18c-.1-.02-.18-.05-.27-.07h-.01s.1.03.28.07z" fill="#bc917b" fill-rule="nonzero"/><path d="M136.34 174.75c-.24-5.01 9.18-1.83 12.29-1.67 2.45.12 9.92-1.58 10.56-1.14 4.4 2.97-4.65 8.95-10.72 8.95-1.61 0-11.98-3.11-12.13-6.14z" fill="#ddb598" fill-rule="nonzero"/><path d="M130.38 74.601l-.26.268.04.089c.09-.134.14-.268.22-.357z" fill="#432e1b" fill-rule="nonzero"/><path d="M145.15 190.63zm-.81-.18c-.09-.03-.18-.06-.28-.08h-.01l.29.08z" fill="#ba907b" fill-rule="nonzero"/><path d="M102.19 130.85s4.91 20.2 13.34 21.85c8.42 1.64 17.54-1.63 17.54-1.63s.88-23.74-3.44-26.84c-4.31-3.12-14.25-7.62-27.44 6.62z" fill="#fff" fill-rule="nonzero"/><path d="M133.09 151s-.2.06-.63.24c-.11-7.28-.78-17.28-3.47-19.19-4.01-2.95-13.06-7.09-25.14 4.24-1.1-3.13-1.65-5.5-1.65-5.5 13.21-14.27 23.16-9.77 27.44-6.66 4.32 3.12 3.45 26.87 3.45 26.87z" fill="#d6b496" fill-rule="nonzero"/><path d="M128.1 140.72c0 4.59-3.72 8.32-8.3 8.32s-8.29-3.73-8.29-8.32c0-4.6 3.71-8.32 8.29-8.32 4.58 0 8.3 3.72 8.3 8.32z" fill="#482315" fill-rule="nonzero"/><path d="M119.42 146.26c-2.4-.2-4.24-2.62-4.02-5.29.22-2.66 2.42-4.75 4.82-4.55 2.4.2 4.23 2.62 4.02 5.29-.22 2.66-2.43 4.75-4.82 4.55z" fill="#7e3a22" fill-rule="nonzero"/><path d="M119.62 145.3c-1.66-.14-3.39-1.98-3.21-4.24.19-2.27 2.19-3.8 3.86-3.66 1.67.14 3.39 1.99 3.21 4.25-.19 2.26-2.19 3.79-3.86 3.65z" fill="#211a10" fill-rule="nonzero"/><path d="M118.27 139.72c-.06.82-.9 1.42-1.86 1.34-.96-.08-1.68-.81-1.62-1.63.07-.82.9-1.41 1.86-1.33.96.07 1.69.8 1.62 1.62zm5.38 4.73c-.03.4-.45.7-.93.66-.48-.03-.84-.4-.81-.81.04-.4.45-.7.93-.66.48.03.85.4.81.81z" fill="#fff" fill-rule="nonzero"/><path d="M145.28 193.01c-.11-.02-.21-.04-.31-.07.1.02.19.04.31.07zm-.81-.18c-.09-.03-.18-.05-.27-.08h-.01s.1.03.28.08z" fill="#ba907b" fill-rule="nonzero"/><path d="M144.9 192.44zm-.86-.2c-.1-.02-.2-.05-.3-.08l-.01.01s.11.03.31.07zm.61-.65c-.11-.02-.22-.04-.33-.07.11.03.21.05.33.07zm-.86-.19c-.1-.03-.2-.06-.3-.08h-.01l.31.08zm1.63.08zm-.83-.19c-.1-.02-.19-.05-.29-.08h-.01s.11.04.3.08z" fill="#bc917b" fill-rule="nonzero"/><path d="M195 130.16s-4.9 20.2-13.33 21.85c-8.43 1.65-17.55-1.63-17.55-1.63s-.87-23.74 3.45-26.84c4.31-3.11 14.25-7.62 27.43 6.62z" fill="#fff" fill-rule="nonzero"/><path d="M164.11 150.32s.19.05.63.23c.11-7.28.78-17.28 3.47-19.19 4.01-2.94 13.05-7.09 25.14 4.24 1.1-3.13 1.65-5.5 1.65-5.5-13.22-14.27-23.16-9.77-27.44-6.65-4.32 3.11-3.45 26.87-3.45 26.87z" fill="#d6b496" fill-rule="nonzero"/><path d="M169.1 140.03c0 4.6 3.71 8.32 8.29 8.32 4.58 0 8.3-3.72 8.3-8.32 0-4.59-3.72-8.32-8.3-8.32s-8.29 3.73-8.29 8.32z" fill="#482315" fill-rule="nonzero"/><path d="M177.78 145.57c2.39-.2 4.23-2.62 4.01-5.29-.21-2.66-2.42-4.75-4.81-4.54-2.4.19-4.23 2.61-4.02 5.28.22 2.66 2.43 4.75 4.82 4.55z" fill="#7e3a22" fill-rule="nonzero"/><path d="M177.57 144.61c1.67-.14 3.4-1.98 3.22-4.24-.19-2.26-2.19-3.79-3.86-3.66-1.67.15-3.39 1.99-3.21 4.25.18 2.26 2.19 3.79 3.85 3.65z" fill="#211a10" fill-rule="nonzero"/><path d="M178.92 139.04c.07.81.91 1.41 1.87 1.33.95-.08 1.68-.81 1.61-1.62-.07-.82-.9-1.42-1.86-1.34-.96.08-1.68.81-1.62 1.63zm-5.37 4.72c.03.41.45.71.93.67.48-.04.84-.41.81-.82-.04-.4-.46-.7-.93-.66-.49.04-.85.4-.81.81z" fill="#fff" fill-rule="nonzero"/><path d="M138.14 130.53c-.07-.1-1.6-2.43-4.72-4.84-1.96-1.51-3.88-2.65-5.87-3.51a30.095 30.095 0 0 0-7.55-2.08c-2.29-.26-4.82-.19-7.77.21-2.26.43-4.46 1.1-6.32 1.93-1.33.46-2.38 1.1-3.23 1.62-.32.2-.61.38-.91.54l-4.03 2.54 4.64-1.09c.22-.06.45-.12.7-.19.96-.25 2.16-.57 3.56-.78.33-.04.66-.11 1-.18.58-.12 1.19-.24 1.82-.27.7-.04 1.43-.1 2.18-.15l.97-.07c2.57-.03 4.74.16 6.67.61 2.11.36 4.27 1.04 6.26 1.97 1.87.9 3.67 1.79 5.07 2.82 2.84 1.9 4.41 3.48 4.43 3.5.39.39.91.59 1.43.59.38 0 .76-.1 1.1-.32.93-.62 1.19-1.88.6-2.79l-.03-.06zm57.69-6.15c-.26-.14-.56-.32-.88-.52-.85-.52-1.9-1.16-3.19-1.61-1.9-.84-4.1-1.51-6.38-1.95-2.93-.39-5.46-.46-7.76-.2-2.51.34-5.12 1.06-7.54 2.08-1.96.85-3.94 2.03-5.87 3.51-3.06 2.36-4.59 4.65-4.71 4.83l-.03.04c-.51.8-.4 1.87.27 2.55.38.38.89.6 1.43.6a2.04 2.04 0 0 0 1.42-.6l.02-.02c.15-.15 1.68-1.65 4.43-3.49 1.38-1.02 3.18-1.91 5.05-2.81 1.99-.93 4.16-1.61 6.29-1.98 1.9-.44 4.07-.63 6.61-.6l1.02.07c.75.05 1.47.11 2.17.15.63.03 1.23.15 1.81.27.34.07.68.14 1 .18 1.4.21 2.6.53 3.56.78.25.07.48.13.71.19l4.63 1.09-4.06-2.56z" fill="#030405" fill-rule="nonzero"/><path d="M143.82 195.4c-.11-.02-.21-.04-.32-.07.1.02.2.04.32.07zm-.84-.19c-.1-.02-.19-.05-.29-.08h-.01l.3.08z" fill="#be927b" fill-rule="nonzero"/><path d="M136.46 199.57c-.24-3.25 9.02.68 12.06.77 2.42.08 9.71-.48 10.38-.74 5.1-1.91-.28 5.43-10.54 5.82-4.69.18-11.76-3.88-11.9-5.85z" fill="#f0d2ad" fill-rule="nonzero"/><path d="M166.6 193.31c-2.51-.13-5.09 1.97-8.11 1.65-.13-.06-.19-.06-.32-.06-.69-.12-1.38 0-2.14.19-.94.19-1.88.58-2.77.88-1.51.5-3.21.89-4.96.76v.01l-.1-.01-.1.01v-.01c-1.75.13-3.45-.26-4.97-.76-.88-.3-1.83-.69-2.77-.88-.75-.19-1.44-.31-2.14-.19-.13 0-.19 0-.31.06-3.02.32-5.6-1.78-8.12-1.65-.69.06-1.7-.13-2.27-.13.13.06.26.13.38.19 7.17 3.5 13.35 10.07 20.2 9.86h.2c6.84.21 13.03-6.36 20.19-9.86.13-.06.26-.13.38-.19-.56 0-1.57.19-2.27.13z" fill="#dcbf9e" fill-rule="nonzero"/><path d="M168.71 193.11s-7.29-2.82-12.47-1.17c0 0-1.93.76-3.93 1.22-1.21.47-2.69.61-4.11.55-1.09-.04-2.13-.18-2.98-.33-.28-.04-.56-.1-.85-.16a6.72 6.72 0 0 0-.33-.07c-.17-.04-.34-.08-.52-.12l-.3-.08h.01a34.17 34.17 0 0 1-3.08-1.01c-5.18-1.65-12.46 1.17-12.46 1.17-.1.04-.17.07-.17.07.57 0 1.58.19 2.27.13 2.51-.13 5.1 1.97 8.12 1.65.12-.06.18-.06.31-.06.7-.12 1.39 0 2.14.19.94.19 1.89.58 2.77.88 1.52.5 3.22.89 4.97.76v.01l.1-.01.1.01v-.01c1.75.13 3.45-.26 4.96-.76.89-.3 1.83-.69 2.77-.88.76-.19 1.45-.31 2.14-.19.13 0 .19 0 .32.06 3.02.32 5.6-1.78 8.11-1.65.7.06 1.71-.13 2.27-.13 0 0-.06-.03-.16-.07z" fill="#c69f83" fill-rule="nonzero"/><path d="M135.96 194.82c.13.03 13.65 4.16 24.23.09l-1.22-.82h-14.29l-8.72.73z" fill="#c69f83" fill-rule="nonzero"/><path d="M140.75 252.57v47.4h-44.6c.25-3.62.47-9.48.51-17.22H85.25c-.13-11.25 8.84-30.47 8.84-30.47.87-1.17 1.75-2.24 2.64-3.27 2.32-2.67 4.73-4.86 7.11-6.63.27-.28.6-.49.89-.67.76-.56 1.54-1.07 2.3-1.57 3.46-2.2 6.73-3.6 9.28-4.46.6-.23 1.15-.39 1.69-.54 2.39-.66 3.87-.84 3.87-.84 1.27 0 2.36-.47 3.35-1.28l.04-.04c.33-.31.66-.68.99-1.07.12.11.37.43.58 1.11.92 2.27 6.35 13.81 13.92 19.55zm61.03 30.18c.04 7.72.33 13.62.57 17.22h-44.79v-47.3c2.43-1.79 4.63-4.22 6.53-6.73 4.13-5.43 6.91-11.35 7.55-12.92.22-.68.47-1 .61-1.11.31.39.64.76.97 1.07l.04.04c.97.81 2.1 1.28 3.34 1.28 0 0 1.41.14 3.68.76.49.19 1.05.35 1.66.56 3.11 1.02 7.33 2.81 11.73 6 .29.23.62.44.87.7 3.35 2.47 6.74 5.7 9.83 9.96 0 0 9.14 13.25 8.72 30.47h-11.31z" fill="#3a2f34" fill-rule="nonzero"/><path d="M140.75 270.72s7.04 8.75 16.81 0v29.25h-16.81v-29.25z" fill="#8868ad" fill-rule="nonzero"/><path d="M226.21 164.89l-6.96-10.5c-.65-.97.05-2.28 1.22-2.28h1.07c.79 0 1.54.31 2.09.87l6.43 6.43c-.74 2.49-2.46 4.33-3.85 5.48z" fill="#3a2f34" fill-rule="nonzero"/><path d="M220.75 86.351a140.092 140.092 0 0 0-2.9-9.192c.01.01.21.048 2.19.048 12.28-.026 19.2-11.784 19.2-11.784s-4.63 6.709-20.56 1.479c-15.56-5.1-15.17-21.72-37.54-30.993-11.45-4.75-18.28-4.13-22.25-2.397 4.02-3.267 12.26-2.978 12.26-2.978s-10.18-5.552-25.91-.572c-11.05 3.504-17.66 7.491-21.38 10.351l6.2-5.859s-4.39 1.547-10.6 4.687c4.22-8.133 12.04-17.045 12.04-17.045-19.93 7.36-36.43 33.838-36.43 33.838 1.58-9.985 5.07-19.119 5.07-19.119-34.01 25.089-28.73 70.395-28.73 70.395 0 17.15 6.82 34.34 11.3 39.45 4.48 5.1 3.04 12.51 4.38 12.51 0 0 2.69.09 2.79-12.84.12-1.65.4-3.68 1-5.45 0 0 4.15-72.296 54.28-51.266 0 0 20.3 8.675 36.1 10.044 11.75 1.018 21.42 9.832 23.95 21.362 1.2 5.48 1.5 10.3.94 13.11-3.35 16.78 1.32 26.44 3.11 25.99 0 0 .07-4.27 1.69-8.06 4.81-11.31 8.86-3.45 9.6-18.79.6-12.31 2.11-19.27 2.71-25.51 3.81 3.02 9.51 5.16 18.03 5.33 0 0-12.05-3.7-20.54-26.739z" fill="#faa830" fill-rule="nonzero"/><path d="M165.62 136.23c-.66.3-1.29.66-1.91 1.06-2.63 1.71-4.58 3.9-5.14 7.04-.61 3.49-.05 6.87 1.03 10.17.07.22.14.44.22.66.14.41.28.83.44 1.23-.32.26-.65.5-.98.74-.76.52-1.8.22-2.2-.61-.08-.17-.16-.35-.25-.53a43.713 43.713 0 0 1-2.8-8.19c-.14-.58-.05-1.3.19-1.84 1.04-2.31.26-4.06-2.25-4.65-.91-.21-1.83-.33-2.75-.34v-5c.52 0 1.04.03 1.56.07 1.21.08 2.41.26 3.6.5 2.15.44 4.17.26 6.06-.71 1.37-.69 2.74-1.29 4.12-1.81l.04.07c.39.69.72 1.4 1.02 2.14z" fill="#fff" fill-rule="nonzero"/><path d="M199.69 169.24c.55-5.82 1.15-12 1.97-15.19.25-.95.49-1.92.71-2.91 1 .05 2 .1 3 .17.56 3.89 1.61 6.57 2.56 7.89-1.68 3.52-4.26 7.2-8.24 10.04z" fill="#cd837e" fill-rule="nonzero"/><path d="M184.49 173.98c-2.92 0-5.84-.47-8.64-1.4-5.74-1.92-12.8-6.17-16.17-15.56.1-.03.21-.07.32-.1.32-.09.64-.19.96-.29l.33-.09c10.95-3.23 23.3-5.48 36.43-5.49h.05c1.52 0 3.06.03 4.6.09-.22.99-.46 1.96-.71 2.91-.82 3.19-1.42 9.37-1.97 15.19-1.69 1.21-3.64 2.26-5.88 3.09-3 1.1-6.16 1.65-9.32 1.65z" fill="#d69188" fill-rule="nonzero"/><path d="M207.93 159.2c-.95-1.32-2-4-2.56-7.89 1.54.1 3.08.24 4.63.41.14.02.28.03.42.05-.44 2.06-1.19 4.7-2.49 7.43z" fill="#dd7a4d" fill-rule="nonzero"/><path d="M205.37 151.31c-1-.07-2-.12-3-.17 1.33-5.85 2.21-12.3 2.39-18.9.52.27 1.04.56 1.55.86-.04.37-.1.71-.16 1.03-1.41 7.06-1.4 12.86-.78 17.18z" fill="url(#a)"/><path d="M159.68 157.02c-.02-.05-.04-.1-.05-.14.21-.16.42-.32.63-.49-.16-.4-.3-.82-.44-1.23-.08-.22-.15-.44-.22-.66-1.08-3.3-1.64-6.68-1.03-10.17.56-3.14 2.51-5.33 5.14-7.04.18-.12.37-.24.57-.36-.41 6.73-.17 13.39-.17 13.39h.01v.06s5.83 2.09 12.47 2.09c1.66 0 3.39-.13 5.08-.46 8.43-1.65 13.33-21.85 13.33-21.85s-.01-.01-.01-.02c0-.03.01-.04.01-.04-.57-.62-1.14-1.2-1.69-1.75 3.6.73 7.67 1.93 11.45 3.89-.18 6.6-1.06 13.05-2.39 18.9-1.54-.06-3.08-.09-4.6-.09h-.05c-13.13.01-25.48 2.26-36.43 5.49l-.33.09c-.32.1-.64.2-.96.29-.11.03-.22.07-.32.1zm.67-21.14c1.02-1.47 2.45-2.98 4.43-4.32-.11.8-.2 1.64-.28 2.48-1.36.52-2.71 1.11-4.06 1.79-.03.02-.06.04-.09.05z" fill="url(#b)"/><path d="M176.59 152.47c-6.64 0-12.47-2.09-12.47-2.09v-.06c.04.01.24.08.62.23.11-7.28.78-17.28 3.47-19.19 2-1.47 5.24-3.23 9.49-3.23 4.29 0 9.58 1.79 15.65 7.47 1.01-2.88 1.56-5.11 1.64-5.46 0 .01.01.02.01.02s-4.9 20.2-13.33 21.85c-1.69.33-3.42.46-5.08.46zm.8-20.76c-4.58 0-8.29 3.73-8.29 8.32 0 4.6 3.71 8.32 8.29 8.32 4.58 0 8.3-3.72 8.3-8.32 0-4.59-3.72-8.32-8.3-8.32z" fill="url(#c)"/><path d="M164.74 150.55c-.38-.15-.58-.22-.62-.23h-.01s-.24-6.66.17-13.39c.44-.25.88-.49 1.34-.7-.3-.74-.63-1.45-1.02-2.14l-.04-.07c-.02 0-.04.01-.06.02.08-.84.17-1.68.28-2.48 3.63-2.46 9.14-4.34 17.49-4.34.18 0 .37 0 .55.01h.11c.72 0 5.03.04 10.38 1.12.55.55 1.12 1.13 1.69 1.75 0 0-.01.01-.01.04-.08.35-.63 2.58-1.64 5.46-6.07-5.68-11.36-7.47-15.65-7.47-4.25 0-7.49 1.76-9.49 3.23-2.69 1.91-3.36 11.91-3.47 19.19z" fill="url(#d)"/><path d="M177.39 148.35c-4.58 0-8.29-3.72-8.29-8.32 0-4.59 3.71-8.32 8.29-8.32 4.58 0 8.3 3.73 8.3 8.32 0 4.6-3.72 8.32-8.3 8.32zm-2.8-3.94c.8.73 1.81 1.18 2.87 1.18.11 0 .21-.01.32-.02 2.39-.2 4.23-2.62 4.01-5.29 0-.09-.01-.18-.02-.27.42-.3.67-.77.63-1.26-.06-.77-.8-1.35-1.69-1.35h-.07c-.84-1.03-2.05-1.68-3.34-1.68-.11 0-.22.01-.32.02-2.4.19-4.23 2.61-4.02 5.28.06.83.33 1.61.73 2.27-.1.14-.16.3-.14.47.03.38.4.67.84.67h.09c.04-.01.08-.01.11-.02z" fill="url(#e)"/><path d="M177.46 145.59c-1.06 0-2.07-.45-2.87-1.18.34-.07.6-.3.68-.58.63.5 1.38.79 2.09.79.07 0 .14 0 .21-.01 1.67-.14 3.4-1.98 3.22-4.24.37-.03.71-.16.98-.36.01.09.02.18.02.27.22 2.67-1.62 5.09-4.01 5.29-.11.01-.21.02-.32.02zm-3.77-2.3c-.4-.66-.67-1.44-.73-2.27-.21-2.67 1.62-5.09 4.02-5.28.1-.01.21-.02.32-.02 1.29 0 2.5.65 3.34 1.68-.03 0-.06.01-.1.01-.38.03-.72.16-.99.36-.69-.67-1.58-1.06-2.41-1.06h-.21c-1.67.15-3.39 1.99-3.21 4.25.06.75.33 1.43.71 1.99h-.07c-.29.02-.53.15-.67.34z" fill="url(#f)"/><path d="M177.36 144.62c-.71 0-1.46-.29-2.09-.79.01-.07.02-.14.02-.22-.04-.38-.41-.66-.85-.66h-.01a4.14 4.14 0 0 1-.71-1.99c-.18-2.26 1.54-4.1 3.21-4.25h.21c.83 0 1.72.39 2.41 1.06-.42.31-.67.77-.63 1.27.07.76.81 1.34 1.7 1.34.05 0 .11 0 .17-.01.18 2.26-1.55 4.1-3.22 4.24-.07.01-.14.01-.21.01z" fill="url(#g)"/><path d="M180.62 140.38c-.89 0-1.63-.58-1.7-1.34-.04-.5.21-.96.63-1.27.27-.2.61-.33.99-.36.04 0 .07-.01.1-.01h.07c.89 0 1.63.58 1.69 1.35.04.49-.21.96-.63 1.26-.27.2-.61.33-.98.36-.06.01-.12.01-.17.01z" fill="url(#h)"/><path d="M174.39 144.43c-.44 0-.81-.29-.84-.67-.02-.17.04-.33.14-.47.14-.19.38-.32.67-.34h.08c.44 0 .81.28.85.66 0 .08-.01.15-.02.22-.08.28-.34.51-.68.58-.03.01-.07.01-.11.02h-.09z" fill="url(#i)"/><path d="M210.42 151.77c-.14-.02-.28-.03-.42-.05-1.55-.17-3.09-.31-4.63-.41-.62-4.32-.63-10.12.78-17.18.06-.32.12-.66.16-1.03 2.1 1.25 4.08 2.77 5.77 4.61l-1.07 9.87s-.06 1.68-.59 4.19z" fill="url(#j)"/><path d="M159.63 156.88c-1.33-3.75-2.07-8.32-1.92-13.87 0 0 .08-3.45 2.64-7.13.03-.01.06-.03.09-.05 1.35-.68 2.7-1.27 4.06-1.79.02-.01.04-.02.06-.02l.04.07c.39.69.72 1.4 1.02 2.14-.46.21-.9.45-1.34.7-.2.12-.39.24-.57.36-2.63 1.71-4.58 3.9-5.14 7.04-.61 3.49-.05 6.87 1.03 10.17.07.22.14.44.22.66.14.41.28.83.44 1.23-.21.17-.42.33-.63.49z" fill="url(#k)"/><path d="M205.37 151.31c-1-.07-2-.12-3-.17 1 .05 2 .1 3 .17z" fill="url(#l)"/><path d="M149.22 135.52v2.56h.11c.43-.03.87-.03 1.31.02l.14-2.06.04-.52h-1.6z" fill="#232327" fill-rule="nonzero"/><path d="M220.13 139.91s-5.04.39-5.87 5.98c-.17 1.17-1.14 2.06-2.33 2.06h-.01c-.71 0-1.28-.56-1.32-1.27-.24-4.21-3.12-16.31-20.46-18.23 0 0-16.08-1.86-25.54 5.64-2.89 2.3-5.16 5.47-6.16 9.84 0 0-3.86-5.49-9.11-5.85l-.11-.01v-2.55h1.3s6.58-.61 12.43-5.25c0 0 14.04-8.03 28.85-5.22 1.56.3 3.08.77 4.55 1.35 4.35 1.71 16.59 6.32 22.57 6.5 1.24.04 2.26 1 2.35 2.24.13 1.95.06 4.42-1.14 4.77z" fill="#fff" fill-rule="nonzero"/><path d="M159.63 156.88s-2.56-8.29-1.19-12.95l-1.02-2.02-1.51 5.52 1.86 9.13 1.86.32zm-26.8-20.66c.65.31 1.29.66 1.91 1.07 2.62 1.71 4.57 3.9 5.13 7.04.61 3.48.05 6.87-1.02 10.17-.08.22-.15.44-.22.66-.15.41-.29.82-.44 1.23.31.26.64.5.98.74.75.52 1.8.22 2.19-.61.08-.18.17-.35.25-.53 1.19-2.62 2.14-5.35 2.81-8.2.13-.57.04-1.29-.2-1.84-1.04-2.3-.26-4.05 2.25-4.64.91-.21 1.83-.33 2.75-.35v-5a27.127 27.127 0 0 0-5.16.58c-2.15.43-4.17.25-6.06-.71a42.41 42.41 0 0 0-4.12-1.82l-.04.08c-.39.69-.72 1.4-1.01 2.13z" fill="#fff" fill-rule="nonzero"/><path d="M95.79 166.74c-3.5-3.47-5.54-7.6-6.72-11.13.15-.68.29-1.48.42-2.43 1.37-.26 2.76-.5 4.16-.71.13.53.26 1.06.39 1.58.71 2.74 1.26 7.67 1.75 12.69z" fill="#c77b75" fill-rule="nonzero"/><path d="M113.96 173.98a27.1 27.1 0 0 1-9.33-1.65c-3.67-1.36-6.56-3.34-8.84-5.59-.49-5.02-1.04-9.95-1.75-12.69-.13-.52-.26-1.05-.39-1.58 5.88-.9 12-1.42 18.3-1.42h.29c1.03.84 2.12 1.42 3.29 1.65 1.69.33 3.41.46 5.08.46 2.95 0 5.74-.41 7.93-.87 3.27.49 6.57 1.15 9.89 1.98.08.02.16.05.24.07.07.01.14.03.21.05-.01.03-.02.07-.03.11-.08.22-.15.44-.22.66-.15.41-.29.82-.44 1.23.2.17.41.33.62.48-3.35 9.5-10.45 13.78-16.22 15.71-2.8.93-5.72 1.4-8.63 1.4z" fill="#ce877f" fill-rule="nonzero"/><path d="M120.61 153.16c-1.67 0-3.39-.13-5.08-.46-1.17-.23-2.26-.81-3.29-1.65 5.32.01 10.77.4 16.3 1.24-2.19.46-4.98.87-7.93.87z" fill="#dea8af" fill-rule="nonzero"/><path d="M89.07 155.61c-.26-.78-.48-1.53-.66-2.23l.32-.06c.02-.01.03-.01.05-.01.07-.02.15-.03.22-.04l.46-.09h.03c-.13.95-.27 1.75-.42 2.43z" fill="#dd7a4d" fill-rule="nonzero"/><path d="M138.81 156.87c-.21-.15-.42-.31-.62-.48.15-.41.29-.82.44-1.23.07-.22.14-.44.22-.66.01-.04.02-.08.03-.11.08.02.16.04.23.06.14.03.28.07.42.11-.22.8-.45 1.57-.72 2.31z" fill="#dea8af" fill-rule="nonzero"/><path d="M89.49 153.18c.22-1.74.36-3.97.39-6.85.12-1.65.4-3.68 1-5.45 0 0 .08-1.4.36-3.76.42 5.38 1.27 10.58 2.41 15.35-1.4.21-2.79.45-4.16.71z" fill="url(#m)"/><path d="M138.88 154.39c-.07-.02-.14-.04-.21-.05-.08-.02-.16-.05-.24-.07-3.32-.83-6.62-1.49-9.89-1.98 2.74-.58 4.53-1.22 4.53-1.22s.01-.02.01-.06l.01-.01s.44-12.21-.89-20.27c1.83 1.36 2.83 2.37 2.84 2.38.34.34.77.54 1.23.58.72.73 1.32 1.46 1.83 2.19a.467.467 0 0 1-.1-.05 42.41 42.41 0 0 0-4.12-1.82l-.04.08c-.39.69-.72 1.4-1.01 2.13.65.31 1.29.66 1.91 1.07 2.62 1.71 4.57 3.9 5.13 7.04.61 3.44.06 6.79-.99 10.06zm-45.23-1.92a99.955 99.955 0 0 1-2.41-15.35c.12-1.07.29-2.35.5-3.78 4.06-2.5 8.65-3.97 12.72-4.85-.74.71-1.5 1.47-2.26 2.3 0 0 0 .01.01.04l-.02.02s3.65 15 10.05 20.2h-.29c-6.3 0-12.42.52-18.3 1.42z" fill="url(#n)"/><path d="M128.54 152.29c-5.53-.84-10.98-1.23-16.3-1.24-6.4-5.2-10.05-20.2-10.05-20.2l.02-.02c.08.34.63 2.58 1.64 5.46 6.06-5.69 11.36-7.47 15.64-7.47 4.25 0 7.5 1.76 9.5 3.23 2.69 1.91 3.36 11.91 3.47 19.19.38-.16.58-.22.62-.23 0 .04-.01.06-.01.06s-1.79.64-4.53 1.22zm-8.74-19.89c-4.58 0-8.29 3.72-8.29 8.32 0 4.59 3.71 8.32 8.29 8.32 4.58 0 8.3-3.73 8.3-8.32 0-4.6-3.72-8.32-8.3-8.32z" fill="url(#o)"/><path d="M132.46 151.24c-.11-7.28-.78-17.28-3.47-19.19-2-1.47-5.25-3.23-9.5-3.23-4.28 0-9.58 1.78-15.64 7.47-1.01-2.88-1.56-5.12-1.64-5.46-.01-.03-.01-.04-.01-.04.76-.83 1.52-1.59 2.26-2.3 5.66-1.21 10.3-1.27 11.05-1.27h.67c7.03 0 12.04 1.33 15.63 3.22.13.1.26.2.39.29 1.33 8.06.89 20.27.89 20.27l-.01.01c-.04.01-.24.07-.62.23z" fill="url(#p)"/><path d="M119.8 149.04c-4.58 0-8.29-3.73-8.29-8.32 0-4.6 3.71-8.32 8.29-8.32 4.58 0 8.3 3.72 8.3 8.32 0 4.59-3.72 8.32-8.3 8.32zm-4.37-8.34l-.03.27c-.22 2.67 1.62 5.09 4.02 5.29.1.01.21.01.32.01 1.06 0 2.07-.44 2.86-1.17.04.01.08.01.12.01.03.01.06.01.09.01.44 0 .81-.29.84-.67a.672.672 0 0 0-.14-.47c.4-.67.66-1.44.73-2.27.21-2.67-1.62-5.09-4.02-5.29-.11-.01-.21-.01-.32-.01-1.29 0-2.5.65-3.34 1.68h-.08c-.88 0-1.62.57-1.69 1.34-.04.5.22.97.64 1.27z" fill="url(#q)"/><path d="M119.74 146.27c-.11 0-.22 0-.32-.01-2.4-.2-4.24-2.62-4.02-5.29l.03-.27c.27.2.61.33.98.36-.18 2.26 1.55 4.1 3.21 4.24.07 0 .14.01.22.01.7 0 1.45-.29 2.09-.79.08.28.34.51.67.58-.79.73-1.8 1.17-2.86 1.17zm3.77-2.29a.932.932 0 0 0-.67-.34c-.03-.01-.05-.01-.08-.01.39-.55.66-1.23.72-1.98.18-2.26-1.54-4.11-3.21-4.25-.07 0-.14-.01-.21-.01-.83 0-1.72.4-2.41 1.07-.27-.2-.62-.33-1-.36-.03-.01-.06-.01-.09-.01.84-1.03 2.05-1.68 3.34-1.68.11 0 .21 0 .32.01 2.4.2 4.23 2.62 4.02 5.29-.07.83-.33 1.6-.73 2.27z" fill="url(#r)"/><path d="M119.84 145.31c-.08 0-.15-.01-.22-.01-1.66-.14-3.39-1.98-3.21-4.24.06 0 .12.01.17.01.89 0 1.63-.58 1.69-1.35.04-.49-.21-.96-.62-1.26.69-.67 1.58-1.07 2.41-1.07.07 0 .14.01.21.01 1.67.14 3.39 1.99 3.21 4.25-.06.75-.33 1.43-.72 1.98h-.01c-.44 0-.81.29-.84.67-.01.08 0 .15.02.22-.64.5-1.39.79-2.09.79z" fill="url(#s)"/><path d="M116.58 141.07c-.05 0-.11-.01-.17-.01-.37-.03-.71-.16-.98-.36-.42-.3-.68-.77-.64-1.27.07-.77.81-1.34 1.69-1.34h.08c.03 0 .06 0 .09.01.38.03.73.16 1 .36.41.3.66.77.62 1.26-.06.77-.8 1.35-1.69 1.35z" fill="url(#t)"/><path d="M122.81 145.12c-.03 0-.06 0-.09-.01-.04 0-.08 0-.12-.01-.33-.07-.59-.3-.67-.58a.534.534 0 0 1-.02-.22c.03-.38.4-.67.84-.67h.01c.03 0 .05 0 .08.01.28.02.52.15.67.34.1.14.16.3.14.47-.03.38-.4.67-.84.67z" fill="url(#u)"/><path d="M136.27 133.69c-.46-.04-.89-.24-1.23-.58-.01-.01-1.01-1.02-2.84-2.38-.13-.09-.26-.19-.39-.29 1.84.97 3.3 2.09 4.46 3.25z" fill="url(#v)"/><path d="M88.41 153.38c-.89-3.38-.97-5.8-.97-5.8l-1.08-9.87c1.59-1.73 3.42-3.17 5.38-4.37-.21 1.43-.38 2.71-.5 3.78-.28 2.36-.36 3.76-.36 3.76-.6 1.77-.88 3.8-1 5.45-.03 2.88-.17 5.11-.39 6.85h-.03l-.46.09c-.07.01-.15.02-.22.04-.02 0-.03 0-.05.01l-.32.06z" fill="url(#w)"/><path d="M139.53 154.56c-.14-.04-.28-.08-.42-.11-.07-.02-.15-.04-.23-.06 1.05-3.27 1.6-6.62.99-10.06-.56-3.14-2.51-5.33-5.13-7.04-.62-.41-1.26-.76-1.91-1.07.29-.73.62-1.44 1.01-2.13l.04-.08c1.38.52 2.75 1.13 4.12 1.82.03.02.07.04.1.05 2.56 3.68 2.64 7.12 2.64 7.12.12 4.46-.34 8.28-1.21 11.56z" fill="url(#x)"/><path d="M138.88 154.39c-.07-.02-.14-.04-.21-.05.07.01.14.03.21.05z" fill="url(#y)"/><path d="M138.43 154.27zm-26.19-3.22H112h.24z" fill="url(#z)"/><path d="M78.31 139.9s5.04.4 5.87 5.99c.17 1.17 1.15 2.06 2.33 2.06h.01c.71 0 1.29-.56 1.32-1.27.24-4.21 3.12-16.31 20.46-18.24 0 0 16.09-1.85 25.54 5.65 2.89 2.29 5.16 5.47 6.16 9.84 0 0 3.87-5.49 9.11-5.85l.11-.01v-2.55h-1.3s-6.58-.62-12.43-5.25c0 0-14.04-8.03-28.85-5.22-1.56.3-3.07.76-4.55 1.34-4.35 1.72-16.58 6.33-22.57 6.51-1.24.04-2.26 1-2.35 2.24-.13 1.95-.06 4.42 1.14 4.76z" fill="#fff" fill-rule="nonzero"/><path d="M138.82 156.87s2.56-8.29 1.18-12.94l1.03-2.02 1.5 5.52-1.86 9.12-1.85.32z" fill="#fff" fill-rule="nonzero"/><path d="M220.47 169.84l-4.09-9.64c-.38-.89.39-1.85 1.34-1.67l.88.16c.64.12 1.21.49 1.57 1.02l4.28 6.24c-.99 1.91-2.67 3.16-3.98 3.89z" fill="#3a2f34" fill-rule="nonzero"/><defs><linearGradient id="a" x2="1" gradientUnits="userSpaceOnUse" gradientTransform="rotate(84.952 35.408 149.537) scale(84.10396)"><stop offset="0" stop-color="#ecd8c9"/><stop offset="1" stop-color="#e37a7b"/></linearGradient><linearGradient id="b" x2="1" gradientUnits="userSpaceOnUse" gradientTransform="rotate(84.952 35.408 149.537) scale(84.10396)"><stop offset="0" stop-color="#f7e7d4"/><stop offset="1" stop-color="#eb8683"/></linearGradient><linearGradient id="c" x2="1" gradientUnits="userSpaceOnUse" gradientTransform="rotate(84.952 35.408 149.537) scale(84.10396)"><stop offset="0" stop-color="#fff"/><stop offset="1" stop-color="#f2979f"/></linearGradient><linearGradient id="d" x2="1" gradientUnits="userSpaceOnUse" gradientTransform="rotate(84.952 35.408 149.537) scale(84.10396)"><stop offset="0" stop-color="#e9d7c8"/><stop offset="1" stop-color="#e07a7b"/></linearGradient><linearGradient id="e" x2="1" gradientUnits="userSpaceOnUse" gradientTransform="rotate(84.952 35.408 149.537) scale(84.10396)"><stop offset="0" stop-color="#967b70"/><stop offset="1" stop-color="#923440"/></linearGradient><linearGradient id="f" x2="1" gradientUnits="userSpaceOnUse" gradientTransform="rotate(84.952 35.408 149.537) scale(84.10396)"><stop offset="0" stop-color="#b78d79"/><stop offset="1" stop-color="#b13b45"/></linearGradient><linearGradient id="g" x2="1" gradientUnits="userSpaceOnUse" gradientTransform="rotate(84.952 35.408 149.537) scale(84.10396)"><stop offset="0" stop-color="#7e756f"/><stop offset="1" stop-color="#7d3741"/></linearGradient><linearGradient id="h" x2="1" gradientUnits="userSpaceOnUse" gradientTransform="rotate(84.952 35.408 149.537) scale(84.10396)"><stop offset="0" stop-color="#fff"/><stop offset="1" stop-color="#f2979f"/></linearGradient><linearGradient id="i" x2="1" gradientUnits="userSpaceOnUse" gradientTransform="rotate(84.952 35.408 149.537) scale(84.10396)"><stop offset="0" stop-color="#fff"/><stop offset="1" stop-color="#f2979f"/></linearGradient><linearGradient id="j" x2="1" gradientUnits="userSpaceOnUse" gradientTransform="rotate(84.952 35.408 149.537) scale(84.10396)"><stop offset="0" stop-color="#fed39a"/><stop offset="1" stop-color="#f07359"/></linearGradient><linearGradient id="k" x2="1" gradientUnits="userSpaceOnUse" gradientTransform="rotate(84.952 35.408 149.537) scale(84.10396)"><stop offset="0" stop-color="#fff"/><stop offset="1" stop-color="#f2979f"/></linearGradient><linearGradient id="l" x2="1" gradientUnits="userSpaceOnUse" gradientTransform="rotate(84.952 35.408 149.537) scale(84.10396)"><stop offset="0" stop-color="#e4bfb9"/><stop offset="1" stop-color="#db6170"/></linearGradient><linearGradient id="m" x2="1" gradientUnits="userSpaceOnUse" gradientTransform="rotate(84.952 -3.364 114.13) scale(84.10446)"><stop offset="0" stop-color="#e7d1bf"/><stop offset="1" stop-color="#de7474"/></linearGradient><linearGradient id="n" x2="1" gradientUnits="userSpaceOnUse" gradientTransform="rotate(84.952 -3.364 114.13) scale(84.10446)"><stop offset="0" stop-color="#efdcca"/><stop offset="1" stop-color="#e47e7c"/></linearGradient><linearGradient id="o" x2="1" gradientUnits="userSpaceOnUse" gradientTransform="rotate(84.952 -3.364 114.13) scale(84.10446)"><stop offset="0" stop-color="#fff"/><stop offset="1" stop-color="#f2979f"/></linearGradient><linearGradient id="p" x2="1" gradientUnits="userSpaceOnUse" gradientTransform="rotate(84.952 -3.364 114.13) scale(84.10446)"><stop offset="0" stop-color="#e9d7c8"/><stop offset="1" stop-color="#e07a7b"/></linearGradient><linearGradient id="q" x2="1" gradientUnits="userSpaceOnUse" gradientTransform="rotate(84.952 -3.364 114.13) scale(84.10446)"><stop offset="0" stop-color="#967b70"/><stop offset="1" stop-color="#923440"/></linearGradient><linearGradient id="r" x2="1" gradientUnits="userSpaceOnUse" gradientTransform="rotate(84.952 -3.364 114.13) scale(84.10446)"><stop offset="0" stop-color="#b78d79"/><stop offset="1" stop-color="#b13b45"/></linearGradient><linearGradient id="s" x2="1" gradientUnits="userSpaceOnUse" gradientTransform="rotate(84.952 -3.364 114.13) scale(84.10446)"><stop offset="0" stop-color="#7e756f"/><stop offset="1" stop-color="#7d3741"/></linearGradient><linearGradient id="t" x2="1" gradientUnits="userSpaceOnUse" gradientTransform="rotate(84.952 -3.364 114.13) scale(84.10446)"><stop offset="0" stop-color="#fff"/><stop offset="1" stop-color="#f2979f"/></linearGradient><linearGradient id="u" x2="1" gradientUnits="userSpaceOnUse" gradientTransform="rotate(84.952 -3.364 114.13) scale(84.10446)"><stop offset="0" stop-color="#fff"/><stop offset="1" stop-color="#f2979f"/></linearGradient><linearGradient id="v" x2="1" gradientUnits="userSpaceOnUse" gradientTransform="rotate(84.952 -3.364 114.13) scale(84.10446)"><stop offset="0" stop-color="#6f6c6c"/><stop offset="1" stop-color="#6f313e"/></linearGradient><linearGradient id="w" x2="1" gradientUnits="userSpaceOnUse" gradientTransform="rotate(84.952 -3.364 114.13) scale(84.10446)"><stop offset="0" stop-color="#fed39a"/><stop offset="1" stop-color="#f07359"/></linearGradient><linearGradient id="x" x2="1" gradientUnits="userSpaceOnUse" gradientTransform="rotate(84.952 -3.364 114.13) scale(84.10446)"><stop offset="0" stop-color="#fff"/><stop offset="1" stop-color="#f2979f"/></linearGradient><linearGradient id="y" x2="1" gradientUnits="userSpaceOnUse" gradientTransform="rotate(84.952 -3.364 114.13) scale(84.10446)"><stop offset="0" stop-color="#e5c0b9"/><stop offset="1" stop-color="#dc6370"/></linearGradient><linearGradient id="z" x2="1" gradientUnits="userSpaceOnUse" gradientTransform="rotate(84.952 -3.364 114.13) scale(84.10446)"><stop offset="0" stop-color="#e5c0b9"/><stop offset="1" stop-color="#dc6370"/></linearGradient></defs></svg>