<svg viewBox="0 0 300 300" xmlns="http://www.w3.org/2000/svg" fill-rule="evenodd" clip-rule="evenodd" stroke-linejoin="round" stroke-miterlimit="1.414"><g fill-rule="nonzero"><path fill="#8868ad" d="M.399.07H299.77v299.705H.399z"/><path d="M198.2 249.957c6.17-5.123 13.78-13.311 17.09-24.339l16.67 16.665-26.29 18.929-7.47-11.255zm-120.77-7.674l17.05-17.056c2.45 8.415 7.18 18.023 16.22 25.451l-6.98 10.534-26.29-18.929z" fill="#c17d2a"/><path d="M154.34 187.323v112.621H93.62c-.99-.395-1.48-.596-1.48-.596 0-14.376 2.1-25.584 5.3-34.325 7.73-21.096 21.88-27.796 28.4-29.816 2.13-.664 3.45-.823 3.45-.823.23 0 .45-.021.67-.056 1.91-.309 3.46-1.975 4.71-4.633.92-1.974 1.7-4.494 2.33-7.409.25-1.136.45-2.283.65-3.522.29-2.083.58-4.262.84-6.545.09-1.389.24-2.726.39-4.165.54-6.89.69-14.433.69-21.574 0 0 8.16.843 14.77.843z" fill="#e0bd9a"/><path d="M216.8 299.348s-.54.201-1.43.596h-61.03V187.323h.15c6.57 0 14.83-.843 14.83-.843 0 7.09.14 14.53.69 21.425.15 1.342.3 2.725.39 4.067.25 2.38.55 4.612.89 6.694v.047c.1.946.3 1.789.45 2.678.6 2.931 1.33 5.507 2.2 7.574 1.1 2.571 2.42 4.365 4.03 5.075.52.231 1.06.344 1.63.344 0 0 2.34.283 5.84 1.661 7.15 2.807 19.16 10.175 26.05 28.978 3.21 8.741 5.31 19.949 5.31 34.325z" fill="#efd0ad"/><path d="M171.29 218.456v.049c-1.53 2.365-6.67 9.164-16.85 9.164h-.09c-9.64-.05-15.27-7.045-16.71-9.115.3-2.069.6-4.236.84-6.503.1-1.33.25-2.709.4-4.138a67.64 67.64 0 0 0 15.27 2.02h.2a65.314 65.314 0 0 0 15.66-2.168c.15 1.33.3 2.71.4 4.04.24 2.365.54 4.582.88 6.651z" fill="#be987f"/><path d="M153.65 58.98c-64.33 0-64.68 53.947-61.81 89.271-4.4-8.375-17.49-5.814-16.41 7.39 1.04 12.711 19.75 19.189 19.22 17.785 9.75 26.124 35.53 45.818 59 45.818h.5V58.98h-.5z" fill="#d2a686"/><path d="M79.53 150.074c3.17-5.124 8.11-2.907 9.29-1.774 1.29 1.232 2.33 2.808 1.54 5.814-.45 1.724-2.23 1.872-1.83 4.434.49 2.906 1.83 3.054 2.62 3.744.74.64 1.68 1.133 2.12 2.365.5 1.231.54 2.512.3 3.645-.5 2.07-3.51.394-5.54-.492-1.33-.641-5.58-4.237-6.67-5.42-2.67-3.054-3.95-8.966-1.83-12.316z" fill="#ac8774"/><path d="M154 58.98c64.34 0 64.68 53.947 61.87 89.271 4.39-8.375 17.44-5.814 16.35 7.39-.99 12.711-19.73 19.193-19.22 17.785-9.49 26.124-35.53 45.818-59 45.818h-.35l-.14-160.264h.49z" fill="#ddb598"/><path d="M228.12 150.074c-3.16-5.124-8.05-2.907-9.29-1.774-1.28 1.232-2.27 2.808-1.53 5.814.44 1.724 2.22 1.872 1.83 4.434-.5 2.906-1.83 3.054-2.57 3.744-.74.64-1.73 1.133-2.18 2.365-.44 1.231-.54 2.512-.29 3.645.49 2.07 3.5.394 5.53-.492 1.38-.641 5.58-4.237 6.67-5.42 2.72-3.054 3.95-8.966 1.83-12.316z" fill="#ac8774"/><path d="M153.15 74.203c-21.15 0-36.67 6.158-46.01 18.278-13.09 16.997-12.6 42.911-7.8 61.534 1.48 5.715 2.27 21.037 3.26 26.653 4.59 25.176 32.31 38.576 50.55 38.576h.49V74.203h-.29" fill="#e0bd9a"/><path d="M199.1 92.53c-9.29-12.07-24.61-18.228-45.46-18.327v145.041c20.85-.246 45.81-14.928 50.06-38.576 1.04-5.616 1.78-20.938 3.26-26.653 4.84-18.573 5.34-44.438-7.86-61.485z" fill="#efd0ad"/><path d="M153.83 190.796h.01-.01zm-3.56 2.737c-.1-.022-.2-.042-.31-.065.1.022.19.041.31.065zm-.79-.176c-.09-.024-.18-.051-.27-.076l-.01.005.28.071zm4.35-.017h.01-.01z" fill="#bc917b"/><path d="M141.37 175.746c-.25-5.012 9.17-1.831 12.28-1.675 2.46.126 9.92-1.579 10.56-1.14 4.4 2.971-4.65 8.956-10.72 8.956-1.61 0-11.98-3.118-12.12-6.141z" fill="#ddb598"/><path d="M135.68 74.565l-.27.268.05.09c.09-.135.13-.269.22-.358z" fill="#432e1b"/><path d="M150.44 190.591c-.1-.023-.2-.043-.31-.067.1.023.19.042.31.067zm-.8-.181c-.1-.025-.19-.052-.28-.078l-.01.005s.11.029.29.073z" fill="#ba907b"/><path d="M107.49 130.813s4.91 20.199 13.33 21.847c8.43 1.648 17.55-1.629 17.55-1.629s.87-23.737-3.44-26.839c-4.31-3.115-14.25-7.616-27.44 6.621z" fill="#fff"/><path d="M138.38 150.969s-.19.056-.62.237c-.11-7.28-.78-17.281-3.48-19.197-4-2.942-13.05-7.083-25.14 4.243-1.09-3.129-1.64-5.502-1.64-5.502 13.21-14.264 23.16-9.77 27.43-6.653 4.32 3.114 3.45 26.872 3.45 26.872z" fill="#d6b496"/><path d="M133.39 140.684c0 4.595-3.71 8.319-8.29 8.319-4.58 0-8.3-3.724-8.3-8.319 0-4.595 3.72-8.32 8.3-8.32s8.29 3.725 8.29 8.32z" fill="#482315"/><path d="M124.71 146.224c-2.39-.198-4.23-2.622-4.01-5.288.21-2.665 2.42-4.751 4.82-4.549 2.39.197 4.23 2.619 4.02 5.284-.22 2.665-2.43 4.755-4.83 4.553z" fill="#7e3a22"/><path d="M124.92 145.263c-1.67-.142-3.4-1.977-3.21-4.237.18-2.267 2.19-3.797 3.85-3.659 1.67.141 3.4 1.984 3.21 4.244-.18 2.263-2.19 3.79-3.85 3.652z" fill="#211a10"/><path d="M123.57 139.688c-.07.817-.9 1.413-1.86 1.335-.96-.082-1.69-.812-1.62-1.624.07-.821.9-1.418 1.86-1.339.96.078 1.68.807 1.62 1.628zm5.38 4.725c-.04.406-.46.706-.93.665-.48-.037-.84-.406-.81-.812.03-.406.45-.707.93-.665.48.037.84.402.81.812z" fill="#fff"/><path d="M150.57 192.973l-.31-.067c.11.023.2.042.31.067zm-.8-.181c-.1-.024-.18-.052-.28-.077l-.01.004s.11.029.29.073z" fill="#ba907b"/><path d="M150.2 192.402l-.34-.071c.11.024.21.045.34.071zm-.87-.193c-.1-.027-.19-.056-.29-.083l-.01.004s.11.031.3.079zm.62-.651c-.11-.024-.22-.046-.33-.071l.33.071zm-.86-.194c-.11-.026-.2-.056-.3-.083l-.01.004s.11.032.31.079zm1.63.078c-.11-.023-.22-.044-.32-.069.1.024.2.044.32.069zm-.83-.187c-.1-.025-.19-.054-.29-.08l-.01.004s.11.031.3.076z" fill="#bc917b"/><path d="M200.3 130.126s-4.91 20.198-13.34 21.847c-8.42 1.647-17.54-1.629-17.54-1.629s-.87-23.737 3.44-26.839c4.31-3.115 14.25-7.617 27.44 6.621z" fill="#fff"/><path d="M169.41 150.282s.19.056.62.237c.11-7.281.78-17.281 3.48-19.197 4-2.942 13.05-7.084 25.13 4.242 1.1-3.129 1.65-5.501 1.65-5.501-13.21-14.264-23.16-9.77-27.44-6.653-4.31 3.114-3.44 26.872-3.44 26.872z" fill="#d6b496"/><path d="M174.4 139.997c0 4.594 3.71 8.319 8.29 8.319 4.58 0 8.29-3.725 8.29-8.319 0-4.595-3.71-8.32-8.29-8.32-4.58 0-8.29 3.725-8.29 8.32z" fill="#482315"/><path d="M183.08 145.537c2.39-.198 4.23-2.623 4.01-5.289-.21-2.665-2.42-4.75-4.82-4.549-2.39.198-4.23 2.62-4.02 5.285.22 2.665 2.43 4.754 4.83 4.553z" fill="#7e3a22"/><path d="M182.87 144.575c1.67-.142 3.4-1.976 3.21-4.236-.19-2.267-2.19-3.797-3.85-3.66-1.67.142-3.4 1.985-3.21 4.245.18 2.263 2.19 3.789 3.85 3.651z" fill="#211a10"/><path d="M184.22 139.001c.07.816.9 1.413 1.86 1.334.96-.081 1.68-.812 1.62-1.624-.07-.82-.9-1.417-1.86-1.339-.96.078-1.69.808-1.62 1.629zm-5.38 4.725c.04.406.45.706.93.665.48-.038.84-.406.81-.812-.03-.406-.45-.707-.93-.665-.48.037-.84.402-.81.812z" fill="#fff"/><path d="M143.43 130.491c-.06-.098-1.59-2.43-4.72-4.834-1.96-1.508-3.88-2.655-5.87-3.509a30.21 30.21 0 0 0-7.55-2.088c-2.28-.254-4.81-.187-7.77.212-2.25.43-4.45 1.103-6.32 1.928-1.33.46-2.38 1.106-3.22 1.625-.33.199-.62.379-.92.54l-4.02 2.538 4.64-1.093c.21-.055.45-.116.7-.183.96-.256 2.15-.574 3.55-.779.33-.048.66-.115 1-.183.59-.116 1.19-.237 1.82-.267.71-.047 1.44-.1 2.18-.153l.98-.071c2.57-.032 4.74.163 6.66.608 2.11.365 4.28 1.047 6.26 1.97 1.88.9 3.68 1.793 5.08 2.826 2.83 1.897 4.41 3.479 4.42 3.494v.001c.39.393.91.595 1.44.595.38 0 .76-.107 1.09-.328.94-.613 1.2-1.876.61-2.787l-.04-.062zm57.7-6.145c-.27-.142-.56-.322-.89-.522-.84-.519-1.89-1.164-3.18-1.608-1.91-.841-4.11-1.514-6.39-1.949-2.93-.395-5.46-.462-7.75-.206a30.287 30.287 0 0 0-7.54 2.088c-1.97.842-3.94 2.022-5.87 3.508-3.07 2.36-4.6 4.651-4.71 4.827l-.03.042c-.52.8-.41 1.871.26 2.546a2.012 2.012 0 0 0 2.86 0l.01-.017c.15-.149 1.68-1.65 4.43-3.491 1.38-1.017 3.18-1.911 5.05-2.81 2-.925 4.16-1.607 6.3-1.977 1.9-.44 4.07-.631 6.61-.604l1.02.073c.74.053 1.46.105 2.17.152.62.03 1.23.151 1.81.267.34.068.67.135 1 .183 1.4.205 2.59.523 3.55.779.26.067.49.129.71.184l4.64 1.093-4.06-2.558z" fill="#030405"/><path d="M149.12 195.364c-.11-.023-.22-.044-.33-.069.11.024.2.043.33.069zm-.84-.188c-.11-.026-.2-.055-.29-.082l-.01.005s.11.03.3.077z" fill="#be927b"/><path d="M141.75 199.531c-.24-3.247 9.02.68 12.06.774 2.43.082 9.71-.481 10.39-.739 5.09-1.911-.28 5.429-10.54 5.815-4.7.188-11.77-3.88-11.91-5.85z" fill="#f0d2ad"/><path d="M171.9 193.271c-2.51-.124-5.09 1.977-8.12 1.656-.12-.062-.18-.062-.31-.062-.7-.123-1.39 0-2.14.185-.94.198-1.89.58-2.77.889-1.51.493-3.22.888-4.97.752v.012l-.1-.012-.09.012v-.012c-1.76.136-3.46-.259-4.97-.752-.89-.309-1.83-.691-2.77-.889-.76-.185-1.45-.308-2.14-.185-.13 0-.19 0-.31.062-3.03.321-5.61-1.78-8.12-1.656-.7.061-1.71-.124-2.27-.124.12.061.25.124.38.185 7.17 3.504 13.35 10.068 20.2 9.858h.19c6.85.21 13.03-6.354 20.2-9.858.13-.061.25-.124.38-.185-.57 0-1.57.185-2.27.124z" fill="#dcbf9e"/><path d="M174.01 193.07s-7.29-2.815-12.47-1.164c0 0-1.93.755-3.93 1.215-1.22.475-2.69.613-4.12.556a22.674 22.674 0 0 1-2.97-.332c-.29-.043-.57-.101-.86-.163-.12-.026-.22-.046-.32-.069-.18-.041-.35-.075-.52-.12-.19-.046-.3-.077-.3-.077l.01-.004a33.641 33.641 0 0 1-3.08-1.006c-5.18-1.651-12.47 1.164-12.47 1.164-.1.046-.16.077-.16.077.56 0 1.57.185 2.27.124 2.51-.124 5.09 1.977 8.12 1.656.12-.062.18-.062.31-.062.69-.123 1.38 0 2.14.185.94.198 1.88.58 2.77.889 1.51.493 3.21.888 4.97.752v.012l.09-.012.1.012v-.012c1.75.136 3.46-.259 4.97-.752.88-.309 1.83-.691 2.77-.889.75-.185 1.44-.308 2.14-.185.13 0 .19 0 .31.062 3.03.321 5.61-1.78 8.12-1.656.7.061 1.7-.124 2.27-.124 0 0-.06-.031-.16-.077z" fill="#c69f83"/><path d="M141.26 194.785c.13.033 13.65 4.163 24.22.09l-1.21-.822h-14.3l-8.71.732z" fill="#c69f83"/><path d="M216.78 286.971h-4.71c-2.65 0-4.73 2.078-4.89 4.65-.21 3.621-1.9 6.46-3.17 8.147h-99.05c-1.27-1.687-2.96-4.526-3.19-8.147-.14-2.572-2.22-4.65-4.87-4.65h-4.49c-1.42-7.284-.84-13.847.93-19.608 3.31-11.027 10.92-19.216 17.1-24.339a64.577 64.577 0 0 1 6.58-4.835c1.56-1.008 2.53-1.522 2.53-1.522s6.25-2.181 9.44-2.654c.43-.062.78.205 1.16.699v.021c.63.967 1.11 2.757 1.48 4.834 1.29 4.095 3.12 9.794 4.44 13.127 4.94 11.933 11.67 17.324 18.41 16.768 6.75.556 13.48-4.835 18.42-16.768 1.32-3.333 3.15-9.032 4.44-13.127.35-2.077.85-3.867 1.48-4.834.35-.515.72-.782 1.16-.72 3.19.473 9.44 2.654 9.44 2.654a51.257 51.257 0 0 1 6.17 3.806c.8.596 1.59 1.193 2.35 1.831 9.03 7.427 13.76 17.036 16.21 25.45 3.11 10.555 2.63 19.217 2.63 19.217z" fill="#f7ac35"/><path d="M110.44 243.024l37.63 56.744h-22.33l-32.4-32.405c3.31-11.027 10.92-19.216 17.1-24.339zm103.71 24.73l-32.03 32.014h-22.33l38.15-57.464c9.03 7.427 13.76 17.036 16.21 25.45z" fill="#e39725"/><path d="M77.43 242.283l-42.62-38.356 11.32-23.593 48.35 44.893-17.05 17.056zm154.7 0l42.62-38.356-11.32-23.593-48.35 44.893 17.05 17.056z" fill="#030405"/><path d="M114.85 67.909s30.4 38.771 74.7 0c0 0-42.26-34.37-74.7 0zm49.72-33.22s-5.34-2.346-14.26-2.203c-8.92-.143-14.26 2.203-14.26 2.203s1.3 3.71 3.12 8.391h22.28c1.83-4.682 3.12-8.391 3.12-8.391z" fill="#36393a"/><path d="M161.45 43.08h-22.28c1.26 3.25 2.78 6.965 4.3 10.241h13.68c1.52-3.276 3.04-6.991 4.3-10.241z" fill="#cf1e4a"/></g></svg>