<svg viewBox="0 0 297 300" xmlns="http://www.w3.org/2000/svg" fill-rule="evenodd" clip-rule="evenodd" stroke-linejoin="round" stroke-miterlimit="1.414"><g fill-rule="nonzero"><path d="M160.756 207.79s.321 7.363-1.36 7.602c-1.2-4-1.84-8.845-4.082-11.045-3.523 4.082-6.803 6.603-6.803 6.603s-3.122-2.599-6.405-6.681c-2.479 2.32-4.643 5.762-6.003 10.164-.32-.243-1.2-5.123-1.2-5.123s-5.762 7.085-6.882 11.848c-1.122 4.721 2.881 9.761 2.881 9.761s1.922-.958 3.763-2.561c1.679 11.847 13.203 21.211 13.203 21.211s11.687-8.725 14.007-20.331c1.423 1.001 2.705 1.603 2.705 1.603s4.241-5.045 2.881-9.766c-2.323-8.245-6.705-13.285-6.705-13.285z" fill="#e6a52f"/><path fill="#1c87a1" d="M.076.07h296.866v299.705H.076z"/><path d="M149.473 186.699V298.97H88.745c-.989-.395-1.482-.594-1.482-.594 0-14.332 2.102-25.505 5.305-34.219 7.73-21.03 21.882-27.709 28.396-29.723 2.137-.661 3.455-.82 3.455-.82.231 0 .446-.021.666-.057 1.912-.307 3.465-1.968 4.711-4.618.927-1.968 1.701-4.48 2.332-7.386.251-1.133.445-2.276.645-3.511a199.8 199.8 0 0 0 .841-6.525c.097-1.383.246-2.716.395-4.151.538-6.869.692-14.388.692-21.507 0 0 8.154.84 14.772.84z" fill="#e0bd9a"/><path d="M211.933 298.376s-.543.199-1.435.594h-61.025V186.699h.148c6.571 0 14.828-.84 14.828-.84 0 7.068.144 14.485.687 21.358.149 1.338.298 2.716.395 4.054.251 2.373.549 4.598.892 6.674v.046c.097.943.292 1.784.446 2.67.6 2.922 1.327 5.49 2.204 7.55 1.092 2.563 2.419 4.352 4.029 5.059a3.907 3.907 0 0 0 1.624.344s2.338.282 5.838 1.655c7.151 2.799 19.16 10.144 26.059 28.888 3.203 8.714 5.31 19.887 5.31 34.219z" fill="#efd0ad"/><path d="M166.423 217.735v.049c-1.532 2.358-6.671 9.135-16.85 9.135h-.099c-9.635-.049-15.269-7.023-16.702-9.086.297-2.062.593-4.223.841-6.483.098-1.326.246-2.701.395-4.125a67.814 67.814 0 0 0 15.269 2.013h.197a65.498 65.498 0 0 0 15.664-2.16c.148 1.326.297 2.701.395 4.027.248 2.357.544 4.567.89 6.63z" fill="#be987f"/><path d="M148.782 58.755c-64.336 0-64.682 53.78-61.816 88.994-4.398-8.349-17.492-5.796-16.405 7.367 1.038 12.671 19.745 19.129 19.222 17.73 9.742 26.043 35.528 45.675 58.999 45.675h.495V58.755h-.495z" fill="#d2a686"/><path d="M74.663 149.566c3.162-5.108 8.103-2.898 9.289-1.768 1.285 1.228 2.322 2.799 1.532 5.795-.445 1.719-2.224 1.867-1.828 4.421.494 2.897 1.828 3.044 2.618 3.732.742.639 1.681 1.13 2.125 2.358a6.188 6.188 0 0 1 .297 3.634c-.495 2.063-3.508.393-5.534-.491-1.335-.639-5.584-4.224-6.671-5.403-2.668-3.045-3.953-8.938-1.828-12.278z" fill="#ac8774"/><path d="M149.128 58.755c64.336 0 64.682 53.78 61.865 88.994 4.398-8.349 17.444-5.796 16.356 7.367-.988 12.671-19.733 19.133-19.221 17.73-9.491 26.043-35.528 45.675-59 45.675h-.346l-.148-159.766h.494z" fill="#ddb598"/><path d="M223.248 149.566c-3.162-5.108-8.054-2.898-9.29-1.768-1.284 1.228-2.272 2.799-1.531 5.795.444 1.719 2.223 1.867 1.828 4.421-.495 2.897-1.828 3.044-2.569 3.732-.742.639-1.73 1.13-2.175 2.358-.445 1.227-.543 2.504-.296 3.634.494 2.063 3.508.393 5.534-.491 1.384-.639 5.584-4.224 6.671-5.403 2.717-3.045 3.953-8.938 1.828-12.278z" fill="#ac8774"/><path d="M148.276 73.932c-21.149 0-36.665 6.139-46.003 18.22-13.095 16.945-12.601 42.778-7.808 61.343 1.483 5.697 2.273 20.971 3.261 26.57 4.596 25.097 32.317 38.456 50.55 38.456h.494V73.932h-.494z" fill="#e0bd9a"/><path d="M194.23 92.202c-9.289-12.033-24.607-18.172-45.46-18.27v144.589c20.853-.246 45.806-14.882 50.056-38.456 1.037-5.599 1.779-20.873 3.262-26.57 4.842-18.516 5.336-44.3-7.858-61.293z" fill="#efd0ad"/><path d="M148.963 190.161h.001-.001zm-3.567 2.729c-.102-.022-.202-.041-.303-.065.099.022.186.041.303.065zm-.785-.175c-.094-.025-.178-.051-.27-.076l-.01.004s.104.029.28.072zm4.352-.017h.001-.001z" fill="#bc917b"/><path d="M136.495 174.133c-.245-4.997 9.178-1.826 12.284-1.67 2.455.126 9.923-1.574 10.564-1.136 4.394 2.962-4.654 8.928-10.72 8.928-1.616 0-11.982-3.109-12.128-6.122z" fill="#ddb598"/><path d="M130.809 74.293l-.268.267.045.089c.089-.134.133-.267.223-.356z" fill="#432e1b"/><path d="M149.235 192.717h.001-.001zm-3.664-2.76c-.104-.023-.207-.043-.311-.067.102.023.192.042.311.067zm-.806-.18c-.096-.025-.182-.052-.277-.078l-.01.004s.107.03.287.074zm4.47-.017h.001-.001z" fill="#ba907b"/><path d="M102.617 130.365s4.908 20.136 13.335 21.779c8.426 1.643 17.547-1.623 17.547-1.623s.872-23.664-3.443-26.755c-4.311-3.106-14.25-7.594-27.439 6.599z" fill="#fff"/><path d="M133.51 150.458s-.193.056-.627.238c-.107-7.259-.778-17.228-3.472-19.138-4.007-2.934-13.052-7.062-25.138 4.229-1.099-3.119-1.65-5.484-1.65-5.484 13.213-14.22 23.16-9.741 27.439-6.633 4.319 3.105 3.448 26.788 3.448 26.788z" fill="#d6b496"/><path d="M128.52 140.205a8.293 8.293 0 1 1-16.587 0 8.294 8.294 0 0 1 16.587 0z" fill="#482315"/><path d="M119.841 145.729c-2.394-.198-4.234-2.615-4.015-5.273.214-2.656 2.423-4.736 4.819-4.535 2.395.197 4.231 2.612 4.019 5.268-.218 2.658-2.428 4.74-4.823 4.54z" fill="#7e3a22"/><path d="M120.049 144.77c-1.668-.142-3.397-1.971-3.214-4.223.188-2.26 2.189-3.786 3.857-3.648 1.667.141 3.393 1.978 3.209 4.231-.184 2.256-2.189 3.777-3.852 3.64z" fill="#211a10"/><path d="M118.699 139.212c-.07.815-.906 1.41-1.864 1.331-.959-.082-1.683-.809-1.618-1.619.07-.818.9-1.413 1.859-1.334.963.077 1.687.805 1.623 1.622zm5.376 4.71c-.035.406-.452.705-.929.664-.482-.037-.842-.404-.811-.809.034-.405.452-.705.929-.664.482.037.846.401.811.809z" fill="#fff"/><path d="M149.367 189.676h.001-.001zm-3.664 2.656c-.104-.023-.207-.043-.311-.067.102.023.191.042.311.067zm-.806-.18c-.096-.025-.183-.052-.277-.078l-.01.004s.107.029.287.074zm4.47-.017h.001-.001z" fill="#ba907b"/><path d="M145.326 191.763c-.112-.024-.222-.046-.334-.071.11.024.206.045.334.071zm-.864-.193c-.103-.027-.196-.056-.297-.083l-.011.005s.115.031.308.078zm.616-.649c-.112-.024-.223-.046-.334-.071l.334.071zm-.864-.193c-.103-.026-.196-.056-.297-.083l-.011.004s.115.032.308.079zm5.431-2.479h.001-.001zm-3.797 2.557c-.108-.023-.215-.044-.322-.069.106.024.199.043.322.069zm-.835-.187c-.099-.025-.189-.054-.287-.08l-.01.004s.111.031.297.076zm4.632-.017h.001-.001z" fill="#bc917b"/><path d="M195.428 129.68s-4.908 20.136-13.335 21.779c-8.427 1.643-17.547-1.623-17.547-1.623s-.871-23.664 3.443-26.756c4.311-3.105 14.251-7.593 27.439 6.6z" fill="#fff"/><path d="M164.535 149.773s.193.057.626.237c.108-7.258.779-17.227 3.473-19.137 4.007-2.934 13.052-7.062 25.138 4.229 1.099-3.119 1.65-5.485 1.65-5.485-13.213-14.219-23.161-9.74-27.439-6.632-4.32 3.104-3.448 26.788-3.448 26.788z" fill="#d6b496"/><path d="M169.524 139.52a8.294 8.294 0 0 0 8.294 8.294 8.294 8.294 0 1 0-8.294-8.294z" fill="#482315"/><path d="M178.203 145.043c2.396-.197 4.235-2.614 4.016-5.272-.214-2.656-2.422-4.735-4.819-4.535-2.395.197-4.231 2.612-4.02 5.268.219 2.657 2.429 4.74 4.823 4.539z" fill="#7e3a22"/><path d="M177.996 144.085c1.668-.142 3.397-1.971 3.213-4.223-.187-2.26-2.188-3.785-3.856-3.648-1.668.141-3.393 1.978-3.209 4.231.183 2.255 2.189 3.777 3.852 3.64z" fill="#211a10"/><path d="M179.346 138.527c.07.814.906 1.41 1.863 1.331.96-.082 1.684-.809 1.619-1.619-.07-.818-.901-1.413-1.859-1.335-.963.078-1.687.805-1.623 1.623zm-5.377 4.71c.036.406.453.705.93.664.482-.037.842-.404.811-.81-.034-.404-.452-.704-.929-.663-.482.037-.846.401-.812.809z" fill="#fff"/><path d="M138.559 130.045c-.063-.099-1.592-2.423-4.718-4.82-1.959-1.503-3.878-2.646-5.87-3.498a30.394 30.394 0 0 0-7.552-2.081c-2.283-.254-4.814-.187-7.767.211-2.255.429-4.454 1.099-6.32 1.922-1.331.459-2.382 1.102-3.227 1.62-.323.199-.616.378-.913.538l-4.025 2.531 4.638-1.09c.217-.055.451-.116.702-.183.959-.254 2.154-.571 3.554-.777.328-.047.661-.113 1.002-.182.583-.116 1.187-.236 1.819-.266.702-.047 1.431-.099 2.18-.153l.974-.07c2.569-.032 4.739.163 6.667.606a25.416 25.416 0 0 1 6.259 1.964c1.874.897 3.672 1.787 5.075 2.817 2.834 1.891 4.411 3.468 4.426 3.483v.001a2.016 2.016 0 0 0 2.53.266c.933-.611 1.195-1.87.601-2.778l-.035-.061zm57.697-6.127c-.266-.141-.559-.321-.883-.52-.845-.517-1.895-1.16-3.187-1.603-1.905-.839-4.104-1.509-6.386-1.943-2.927-.393-5.459-.461-7.752-.205a30.42 30.42 0 0 0-7.543 2.081c-1.963.84-3.937 2.016-5.866 3.497-3.07 2.353-4.597 4.637-4.712 4.813l-.028.041a2.04 2.04 0 0 0 .263 2.538c.381.385.888.596 1.428.596h.001c.539 0 1.045-.212 1.425-.596l.017-.017c.149-.148 1.68-1.644 4.428-3.48 1.381-1.014 3.18-1.905 5.05-2.801a25.543 25.543 0 0 1 6.293-1.971c1.9-.438 4.074-.629 6.61-.602l1.022.073c.742.053 1.465.104 2.171.152.623.029 1.226.149 1.81.265.34.069.673.135 1.001.182 1.401.206 2.595.523 3.555.777.251.067.485.129.708.184l4.636 1.09-4.061-2.551z" fill="#030405"/><path d="M144.246 194.715c-.109-.023-.217-.044-.325-.069.107.024.2.044.325.069zm-.842-.188c-.101-.026-.192-.054-.29-.081l-.011.005s.112.03.301.076z" fill="#be927b"/><path d="M136.883 198.869c-.244-3.237 9.016.678 12.056.772 2.426.082 9.713-.48 10.386-.736 5.094-1.906-.278 5.411-10.536 5.796-4.7.188-11.767-3.868-11.906-5.832z" fill="#f0d2ad"/><path d="M167.028 192.628c-2.513-.123-5.095 1.971-8.118 1.651-.123-.061-.185-.061-.314-.061-.694-.123-1.383 0-2.139.184-.94.197-1.887.578-2.771.886-1.512.492-3.214.886-4.967.75v.012l-.097-.011-.098.011v-.012c-1.752.136-3.455-.258-4.966-.75-.885-.308-1.832-.689-2.772-.886-.756-.184-1.444-.307-2.139-.184-.129 0-.19 0-.314.061-3.023.32-5.604-1.774-8.118-1.651-.695.061-1.703-.123-2.268-.123.123.061.252.123.381.184 7.166 3.493 13.349 10.037 20.196 9.828h.195c6.847.209 13.031-6.335 20.196-9.828.129-.061.258-.123.382-.184-.566 0-1.574.184-2.269.123z" fill="#dcbf9e"/><path d="M169.134 192.428s-7.286-2.806-12.469-1.16c0 0-1.929.753-3.928 1.211-1.216.474-2.689.611-4.115.554a22.83 22.83 0 0 1-2.978-.33 15.22 15.22 0 0 1-.854-.163l-.325-.069c-.175-.041-.345-.074-.518-.119-.188-.046-.3-.077-.3-.077l.011-.004c-1.658-.449-3.08-1.003-3.08-1.003-5.182-1.646-12.469 1.16-12.469 1.16-.1.046-.162.077-.162.077.565 0 1.573.184 2.268.123 2.514-.123 5.095 1.971 8.118 1.651.124-.061.185-.061.314-.061.695-.123 1.383 0 2.139.184.94.197 1.887.578 2.772.886 1.511.492 3.214.886 4.966.75v.012l.098-.011.097.011v-.012c1.753.136 3.455-.258 4.967-.75.884-.308 1.831-.689 2.771-.886.756-.184 1.445-.307 2.139-.184a.57.57 0 0 1 .314.061c3.023.32 5.605-1.774 8.118-1.651.695.061 1.703-.123 2.268-.123 0 0-.062-.031-.162-.077z" fill="#c69f83"/><path d="M136.383 194.138c.133.033 13.654 4.15 24.229.089l-1.218-.819H145.1l-8.717.73z" fill="#c69f83"/><path d="M234.236 70.633c2.409-1.468 1.449-5.145-1.37-5.183-2.843-.038-6.396-.581-10.789-1.995-15.895-5.099-15.483-21.732-38.322-31.019-11.657-4.735-18.643-4.139-22.693-2.422.236-.187.487-.362.749-.525 2.297-1.436 1.17-5.075-1.539-5.076-3.753-.002-8.193.53-13.18 2.077-11.281 3.508-18.033 7.492-21.826 10.356l6.334-5.866s-22.849 7.889-38.393 24.126c-15.535 16.245-21.492 31.516-21.492 48.687 0 17.167 6.966 34.375 11.532 39.477 4.57 5.111 3.105 12.518 4.47 12.518 0 0 4.578.204 2.135-27.633-.544-6.214-.428-11.76.268-16.66.435-3.06 4.744-3.233 5.477-.229l.089.359c.719 2.845 4.886 2.71 5.413-.177 1.568-8.592 5.835-15.905 9.91-21.236 1.52-1.99 4.682-1.118 4.973 1.369.233 2 .602 3.909 1.047 5.69.733 2.933 4.898 2.742 5.453-.229.627-3.357 1.666-6.517 2.94-9.438.601-1.38 2.171-2.025 3.582-1.504.825.305 1.642.636 2.453.988.914.395 1.515 1.274 1.623 2.266.584 5.367 1.857 10.651 3.35 15.413.931 2.968 5.364 2.401 5.452-.708.062-2.144.271-4.081.602-5.83.382-2.017 2.782-2.906 4.414-1.659 8.291 6.333 23.311 20.07 28.2 39.428.74 2.926 4.943 2.831 5.445-.145 1.845-10.91 1.836-26.52-8.101-40.297-1.61-2.232.579-5.219 3.167-4.283 4.551 1.646 9.249 5.662 12.693 14.267 1.175 2.935 5.516 1.972 5.363-1.186a92.484 92.484 0 0 0-.647-7.385c-.354-2.737 3.151-4.261 4.898-2.125 9.123 11.159 12.74 29.218 11.368 35.889-1.545 7.564-1.425 13.681-.659 18.079.477 2.739 4.3 3.069 5.312.479.08-.205.165-.409.253-.613 4.911-11.317 9.035-3.45 9.802-18.806.883-17.963 3.752-24.534 2.83-34.131-.901-9.392-5.581-21.971-5.6-22.02.019.016.218.053 2.248.053 4.234-.01 7.844-1.359 10.766-3.141z" fill="#36393a"/><path d="M211.915 299.768H86.535c0-3.477.144-6.79.37-9.937.35-4.877.926-9.341 1.708-13.415a83.019 83.019 0 0 1 2.14-8.765c3.868-12.879 9.834-21.047 15.719-26.232l42.897 39.462 46.148-36.334c6.275 6.501 10.205 14.628 12.653 22.611.967 3.148 1.687 6.254 2.243 9.258.926 4.979 1.358 9.608 1.543 13.415.288 6.007-.041 9.937-.041 9.937z" fill="#d22727"/><path d="M195.515 244.547l-46.148 36.334-42.898-39.462c9.32-8.188 18.394-8.847 18.394-8.847l.452.288c1.873-4.073 4.383-8.847 6.543-10.76.329 3.354 3.436 12.756 9.896 18.167 4.28 3.601 7.201 5.925 7.962 7.242h.062c.762-1.317 3.662-3.641 7.942-7.242 6.46-5.411 9.588-14.813 9.917-18.167 2.098 1.852 4.526 6.44 6.398 10.452 9.176 2.139 16.172 6.501 21.48 11.995z" fill="#3a2f34"/><path d="M160.967 259.677l-11.241 11.945-11.403-11.945h22.644z" fill="#d22727"/><path d="M185.667 170.484c-19.504-.437-22.27-18.34-22.27-18.34-3.784-20.378 22.27-23.58 22.27-23.58 22.124-2.184 22.853 17.758 22.853 17.758-2.184 24.162-22.853 24.162-22.853 24.162zm-48.761-18.34s-2.766 17.903-22.27 18.34c0 0-20.669 0-22.852-24.162 0 0 .728-19.942 22.852-17.758 0 0 26.055 3.202 22.27 23.58zm77.605-22.724c-23.51-9.118-38.596-3.476-38.596-3.476-8.621 2.616-13.112 6.956-15.41 11.175l-2.254-1.912a3.454 3.454 0 0 0-2.235-.821h-11.728c-.819 0-1.611.291-2.236.821l-2.253 1.912c-2.299-4.219-6.789-8.559-15.411-11.175 0 0-15.085-5.642-38.596 3.476a1.81 1.81 0 0 0-1.14 1.682v7.104c0 .402.139.786.384 1.111.704.956 2.236 3.872 3.109 11.953 0 0 3.347 19.942 26.491 22.125 0 0 21.251 2.038 27.219-24.308 0 0 .917-4.221-.842-9.234l1.638-2.077a3.163 3.163 0 0 1 2.486-1.206h10.029c.97 0 1.886.444 2.487 1.206l1.637 2.077c-1.758 5.013-.841 9.234-.841 9.234 5.967 26.346 27.218 24.308 27.218 24.308 23.144-2.183 26.492-22.125 26.492-22.125.873-8.074 2.404-10.997 3.109-11.953.244-.325.384-.709.384-1.111v-7.104a1.81 1.81 0 0 0-1.141-1.682z" fill="#fff"/><path d="M95.409 158.864c-.97-1.725-1.805-3.705-2.443-5.981-.559-1.962-.961-4.139-1.182-6.561l.001-.021c.009-.181.087-1.561.558-3.483a98.18 98.18 0 0 0 2.122 10.677c.35 1.342.66 3.215.944 5.369z" fill="#9eb365"/><path d="M114.636 170.484h-.046l-.007-.001h-.047l-.002-.001h-.008l-.035-.001h-.002l-.035-.001-.021-.001h-.018l-.005-.001h-.011l-.02-.001h-.014l-.007-.001-.047-.002h-.004l-.013-.001h-.014l-.012-.001h-.01l-.016-.001h-.003a1.654 1.654 0 0 0-.074-.004l-.006-.001-.014-.001-.031-.001-.006-.001h-.011l-.01-.001-.009-.001-.017-.001h-.002l-.018-.001h-.004l-.068-.005h-.002l-.019-.001-.008-.001-.018-.001-.069-.005-.009-.001-.017-.001-.006-.001-.015-.001-.018-.001a.21.21 0 0 0-.025-.002l-.035-.003-.008-.001-.018-.002h-.005l-.018-.002h-.011l-.014-.002-.011-.001-.015-.001-.014-.001-.012-.001-.019-.002-.007-.001-.086-.008h-.005l-.024-.003h-.007a1.385 1.385 0 0 1-.023-.003h-.006l-.022-.002-.013-.002-.016-.001-.011-.001a.11.11 0 0 0-.018-.002l-.015-.002-.021-.002-.006-.001-.019-.002-.034-.003-.011-.002a.838.838 0 0 1-.047-.005l-.015-.001-.015-.002-.016-.002a.077.077 0 0 1-.015-.002.123.123 0 0 1-.019-.002l-.011-.001-.027-.003-.003-.001-.03-.003-.005-.001-.023-.002-.014-.002-.066-.008-.007-.001-.026-.003a.79.79 0 0 0-.019-.003l-.014-.001-.023-.003-.011-.002a.123.123 0 0 1-.019-.002l-.017-.002-.019-.003a.077.077 0 0 1-.015-.002l-.021-.002-.01-.002-.061-.008h-.003l-.125-.018-.014-.002-.021-.003a.089.089 0 0 1-.015-.002l-.022-.003-.015-.002-.023-.004-.011-.001-.027-.004-.013-.002-.025-.004-.006-.001a14.28 14.28 0 0 1-.252-.039h-.003l-.072-.012-.008-.001c-4.066-.667-11.917-3.025-16.607-11.357-.284-2.154-.594-4.027-.944-5.369a98.18 98.18 0 0 1-2.122-10.677c.97-3.954 3.606-10.197 10.726-12.989-.148.155-.297.313-.446.474l.011.044-.017.018s4.908 20.136 13.335 21.779c1.692.33 3.414.462 5.083.462 6.64 0 12.464-2.085 12.464-2.085l.002-.06.009-.003s.233-6.326-.138-12.867c2.868 3.329 4.603 7.838 3.644 13.914-.035.21-.071.423-.11.639 0 0-2.766 17.903-22.27 18.34z" fill="#a3bc6d"/><path d="M121.035 152.606c-1.669 0-3.391-.132-5.083-.462-8.427-1.643-13.335-21.779-13.335-21.779l.017-.018c.081.338.628 2.57 1.639 5.44 4.367-4.079 8.335-6.146 11.814-6.983 3.039.58 10.217 2.358 15.378 6.873 1.02 4.058 1.346 10.149 1.418 15.019.379-.159.574-.221.618-.235l-.002.06s-5.824 2.085-12.464 2.085zm-.808-20.695a8.295 8.295 0 0 0 0 16.588 8.294 8.294 0 1 0 0-16.588z" fill="#acd694"/><path d="M132.883 150.696c-.072-4.87-.398-10.961-1.418-15.019a19.36 19.36 0 0 1 1.907 1.914c.371 6.541.138 12.867.138 12.867l-.009.003c-.044.014-.239.076-.618.235zm-28.61-14.909a58.779 58.779 0 0 1-1.65-5.484c.149-.161.298-.319.446-.474 2.272-.891 5.002-1.43 8.279-1.432h.016c.979 0 2.01.048 3.088.149l.184.018h.004c.049.006.579.074 1.447.24-3.479.837-7.447 2.904-11.814 6.983z" fill="#9fb96c"/><path d="M120.227 148.499a8.294 8.294 0 1 1 0-16.588 8.294 8.294 0 0 1 0 16.588zm-4.372-8.312a5.975 5.975 0 0 0-.029.269c-.219 2.658 1.621 5.075 4.015 5.273.108.009.214.013.32.013 1.062 0 2.072-.442 2.866-1.172a.921.921 0 0 0 .205.02c.44 0 .81-.287.843-.668a.66.66 0 0 0-.142-.464 5.225 5.225 0 0 0 .731-2.269c.212-2.656-1.624-5.071-4.019-5.268a3.82 3.82 0 0 0-.32-.013c-1.29 0-2.501.649-3.343 1.676l-.076-.001c-.885 0-1.624.572-1.689 1.341-.04.495.215.959.638 1.263z" fill="#646e34"/><path d="M120.161 145.742c-.106 0-.212-.004-.32-.013-2.394-.198-4.234-2.615-4.015-5.273.008-.09.017-.18.029-.269.269.194.607.324.98.356v.004c-.183 2.252 1.546 4.081 3.214 4.223.069.006.14.009.21.009.708 0 1.46-.285 2.096-.786.076.279.335.51.672.577-.794.73-1.804 1.172-2.866 1.172zm3.772-2.284a.932.932 0 0 0-.669-.345 1.837 1.837 0 0 0-.076-.004 4.013 4.013 0 0 0 .713-1.979c.184-2.253-1.542-4.09-3.209-4.231a2.458 2.458 0 0 0-.21-.009c-.83 0-1.717.39-2.411 1.061a1.943 1.943 0 0 0-1.089-.367c.842-1.027 2.053-1.676 3.343-1.676.106 0 .213.004.32.013 2.395.197 4.231 2.612 4.019 5.268a5.225 5.225 0 0 1-.731 2.269z" fill="#7e7e35"/><path d="M120.259 144.779a2.44 2.44 0 0 1-.21-.009c-1.668-.142-3.397-1.971-3.214-4.223v-.004c.057.005.114.007.17.007.886 0 1.628-.572 1.694-1.338.039-.495-.211-.956-.628-1.261.694-.671 1.581-1.061 2.411-1.061.07 0 .14.003.21.009 1.667.141 3.393 1.978 3.209 4.231a4.013 4.013 0 0 1-.713 1.979h-.011c-.44 0-.81.288-.842.668a.65.65 0 0 0 .02.216c-.636.501-1.388.786-2.096.786z" fill="#4b6836"/><path d="M117.005 140.55a1.963 1.963 0 0 1-1.15-.363c-.423-.304-.678-.768-.638-1.263.065-.769.804-1.341 1.689-1.341a1.952 1.952 0 0 1 .17.007c.38.03.723.162.995.361.417.305.667.766.628 1.261-.066.766-.808 1.338-1.694 1.338zm6.227 4.04a.921.921 0 0 1-.205-.02c-.337-.067-.596-.298-.672-.577a.65.65 0 0 1-.02-.216c.032-.38.402-.668.842-.668h.011l.076.004a.932.932 0 0 1 .669.345.66.66 0 0 1 .142.464c-.033.381-.403.668-.843.668zm-8.596 25.894h-.013.013c19.504-.437 22.27-18.34 22.27-18.34s-2.766 17.903-22.27 18.34zm-.02 0h-.01.01zm-.026 0l-.007-.001.007.001zm-.015-.001h-.03.03zm-.037 0h-.002.002zm-.004-.001h-.008.008zm-.043-.001h-.002.002zm-.037-.001l-.021-.001a.148.148 0 0 0 .021.001zm-.025-.001h-.011.011zm-.014 0l-.005-.001a.01.01 0 0 0 .005.001zm-.016-.001l-.02-.001a.14.14 0 0 0 .02.001zm-.027-.001h-.007.007zm-.014-.001l-.047-.002a.771.771 0 0 0 .047.002zm-.051-.002l-.013-.001.013.001zm-.014-.001h-.013.013zm-.025-.001h-.002.002zm-.01 0l-.016-.001.016.001zm-.019-.001zm-.08-.005l-.014-.001.014.001zm-.045-.002l-.006-.001.006.001zm-.017-.001l-.01-.001.01.001zm-.019-.002l-.017-.001.017.001zm-.019-.001l-.018-.001.018.001zm-.022-.001l-.068-.005.068.005zm-.07-.005l-.019-.001.019.001zm-.027-.002l-.018-.001.018.001zm-.018-.001l-.069-.005.069.005zm-.078-.006l-.017-.001.017.001zm-.023-.002l-.015-.001.015.001zm-.033-.002zm-.06-.005l-.008-.001.008.001zm-.026-.003h-.005.005zm-.023-.002h-.011.011zm-.025-.002l-.011-.001.011.001zm-.026-.002l-.014-.001.014.001zm-.026-.002l-.019-.002.019.002zm-.026-.003l-.086-.008.086.008zm-.091-.008l-.024-.003.024.003zm-.031-.003l-.023-.003.023.003zm-.029-.003l-.022-.002a.15.15 0 0 1 .022.002zm-.035-.004l-.016-.001.016.001zm-.027-.002zm-.033-.004l-.021-.002.021.002zm-.027-.003a.123.123 0 0 1-.019-.002l.019.002zm-.053-.005l-.011-.002.011.002zm-.058-.007l-.015-.001.015.001zm-.03-.003l-.016-.002.016.002zm-.031-.004zm-.03-.003l-.027-.003.027.003zm-.03-.004l-.03-.003.03.003zm-.035-.004l-.023-.002.023.002zm-.037-.004l-.066-.008.066.008zm-.073-.009l-.026-.003.026.003zm-.045-.006l-.014-.001.014.001zm-.037-.004l-.011-.002.011.002zm-.03-.004a.111.111 0 0 0-.017-.002l.017.002zm-.036-.005zm-.036-.004l-.01-.002.01.002zm-.071-.01h-.003.003zm-.128-.018a.068.068 0 0 1-.014-.002l.014.002zm-.035-.005zm-.037-.005l-.015-.002.015.002zm-.038-.006l-.011-.001.011.001zm-.038-.005l-.013-.002.013.002zm-.038-.006l-.006-.001.006.001zm-.258-.04h-.003.003zm-.075-.012l-.008-.001.008.001zm24.992-18.717c.959-6.076-.776-10.585-3.644-13.914a19.36 19.36 0 0 0-1.907-1.914c-5.161-4.515-12.339-6.293-15.378-6.873a24.62 24.62 0 0 0-1.447-.24c.344.043 25.297 3.244 22.412 22.724l-.036.217zm-45.231-5.204c.032-.672 1.021-17.896 19.563-17.904-3.277.002-6.007.541-8.279 1.432-7.12 2.792-9.756 9.035-10.726 12.989-.471 1.922-.549 3.302-.558 3.483zm22.855-17.737h-.004.004zm-.004 0l-.184-.018.184.018zm-3.272-.167h-.003.003z" fill="#acd694"/><path d="M200.526 164.406c.44-4.379.935-8.502 1.562-10.911a97.594 97.594 0 0 0 2.884-17.509c1.231 1.797 2.037 3.669 2.563 5.319.241.755.423 1.463.561 2.097.044 1.439.154 2.77.313 3.99l-.013.115a34.656 34.656 0 0 1-1.057 5.376c-1.474 5.253-3.997 8.937-6.813 11.523z" fill="#a2ba6e"/><path d="M185.668 170.484c-19.505-.437-22.27-18.34-22.27-18.34-.046-.259-.088-.513-.13-.763-.61-4-.048-7.316 1.235-10.062a158.88 158.88 0 0 0 .032 8.454l.009.003.002.06s5.824 2.085 12.464 2.085c1.669 0 3.39-.132 5.083-.462 8.427-1.643 13.335-21.779 13.335-21.779l-.017-.018.011-.045a51.217 51.217 0 0 0-.495-.525c.815.205 1.58.452 2.301.734 3.613 1.414 6.072 3.718 7.744 6.16a97.594 97.594 0 0 1-2.884 17.509c-.627 2.409-1.122 6.532-1.562 10.911a22.456 22.456 0 0 1-5.422 3.665h-.001l-.111.054a.054.054 0 0 1-.011.005l-.044.021-.036.017-.021.01-.123.058-.004.001c-4.799 2.227-9.008 2.247-9.085 2.247z" fill="#a9c475"/><path d="M177.01 151.921c-6.64 0-12.464-2.085-12.464-2.085l-.002-.06c.044.014.239.076.617.234.051-3.45.23-7.512.692-11.03 1.857-2.667 4.429-4.677 7.106-6.182a8.294 8.294 0 0 0 4.859 15.016 8.294 8.294 0 0 0 3.277-15.915c.088-.793.162-1.601.223-2.427a40.979 40.979 0 0 1 1.493-.372l.005-.001.039-.009.02-.005.029-.006a.146.146 0 0 1 .02-.005 41.07 41.07 0 0 1 1.269-.266c2.913 1.096 6.122 3.064 9.579 6.294a58.481 58.481 0 0 0 1.639-5.44l.017.018s-4.908 20.136-13.335 21.779c-1.693.33-3.414.462-5.083.462z" fill="#acd694"/><path d="M165.161 150.01c-.378-.158-.573-.22-.617-.234l-.009-.003s-.138-3.746-.032-8.454c.388-.831.842-1.61 1.35-2.339-.462 3.518-.641 7.58-.692 11.03zm28.611-14.908c-3.457-3.23-6.666-5.198-9.579-6.294.927-.177 1.475-.244 1.475-.244a33.151 33.151 0 0 1 3.274-.167c2.242 0 4.226.251 5.985.695.164.172.33.347.495.525l-.011.045c-.081.34-.628 2.571-1.639 5.44z" fill="#9fb96c"/><path d="M177.818 147.814a8.294 8.294 0 0 1-4.859-15.016c.347-.195.694-.381 1.043-.559a54.016 54.016 0 0 1 1.096 3.759c.016.061.033.121.051.18-1.181.98-1.906 2.602-1.769 4.326.069.83.331 1.603.732 2.268a.669.669 0 0 0-.143.465c.033.381.404.668.844.668a.921.921 0 0 0 .205-.02c.794.73 1.803 1.171 2.865 1.171.106 0 .213-.004.32-.013 2.396-.197 4.235-2.614 4.016-5.272a4.806 4.806 0 0 0-.029-.269c.423-.305.677-.769.638-1.263-.066-.77-.805-1.342-1.69-1.342l-.075.001a4.917 4.917 0 0 0-.619-.63c.041-.132.075-.27.099-.415.213-1.259.401-2.58.552-3.954a8.294 8.294 0 0 1-3.277 15.915z" fill="#646e34"/><path d="M177.883 145.056c-1.062 0-2.071-.441-2.865-1.171.337-.067.596-.298.671-.577.637.501 1.389.786 2.097.786.071 0 .14-.003.21-.009 1.668-.142 3.397-1.971 3.213-4.223v-.004c.374-.032.712-.162.981-.356.012.089.022.179.029.269.219 2.658-1.62 5.075-4.016 5.272a3.82 3.82 0 0 1-.32.013zm-3.771-2.284a5.231 5.231 0 0 1-.732-2.268c-.137-1.724.588-3.346 1.769-4.326.1.316.242.595.416.835a4.098 4.098 0 0 0-1.421 3.432c.061.753.325 1.424.712 1.979l-.075.004a.931.931 0 0 0-.669.344zm5.862-5.506a1.204 1.204 0 0 0-.052-.049c.226-.262.406-.578.522-.949.223.189.43.4.619.63l-.094.006c-.38.031-.723.163-.995.362z" fill="#7e7e35"/><path d="M177.786 144.094c-.708 0-1.46-.285-2.097-.786a.632.632 0 0 0 .021-.217c-.032-.379-.402-.667-.842-.667h-.012a4.012 4.012 0 0 1-.712-1.979 4.098 4.098 0 0 1 1.421-3.432c.548.753 1.413 1.127 2.271 1.127.781 0 1.557-.31 2.086-.923l.052.049c-.417.304-.667.766-.628 1.261.066.765.809 1.338 1.693 1.338.056 0 .113-.002.17-.007v.004c.184 2.252-1.545 4.081-3.213 4.223a2.44 2.44 0 0 1-.21.009z" fill="#4b6836"/><path d="M181.039 139.865c-.884 0-1.627-.573-1.693-1.338-.039-.495.211-.957.628-1.261.272-.199.615-.331.995-.362l.094-.006.075-.001c.885 0 1.624.572 1.69 1.342.039.494-.215.958-.638 1.263a1.963 1.963 0 0 1-1.151.363zm-6.226 4.04c-.44 0-.811-.287-.844-.668a.669.669 0 0 1 .143-.465.931.931 0 0 1 .669-.344l.075-.004h.012c.44 0 .81.288.842.667a.632.632 0 0 1-.021.217c-.075.279-.334.51-.671.577a.921.921 0 0 1-.205.02z" fill="#acd694"/><path d="M208.409 147.392a40.481 40.481 0 0 1-.313-3.99c.381 1.746.424 2.92.424 2.92-.033.362-.07.718-.111 1.07zm-30.573-9.252c-.858 0-1.723-.374-2.271-1.127a2.914 2.914 0 0 1-.467-1.015 54.016 54.016 0 0 0-1.096-3.759c2.597-1.327 5.218-2.204 7.316-2.767a68.715 68.715 0 0 1-.775 6.381 3.106 3.106 0 0 1-.099.415 2.652 2.652 0 0 1-.522.949c-.529.613-1.305.923-2.086.923z" fill="#507848"/><path d="M185.668 170.484c.077 0 4.286-.02 9.085-2.247-4.843 2.247-9.085 2.247-9.085 2.247zm9.089-2.248l.123-.058-.123.058zm.144-.068l.036-.017-.036.017zm.08-.038a.054.054 0 0 0 .011-.005l-.011.005zm.122-.059h.001-.001zm-31.835-16.69l-.015-.093c-2.295-15.493 13.02-20.689 19.558-22.188-.458.105-.958.228-1.493.372-2.098.563-4.719 1.44-7.316 2.767-.349.178-.696.364-1.043.559-2.677 1.505-5.249 3.515-7.106 6.182a15.721 15.721 0 0 0-1.35 2.339c-1.283 2.746-1.845 6.062-1.235 10.062zm45.128-3.874l.013-.115c.041-.352.078-.708.111-1.07 0 0-.043-1.174-.424-2.92a22.977 22.977 0 0 0-.561-2.097c.905 2.838.985 5.017.985 5.017a42.27 42.27 0 0 1-.124 1.185zm-11.168-17.681a19.088 19.088 0 0 0-2.301-.734c-1.759-.444-3.743-.695-5.985-.695h.001c3.279 0 6.011.538 8.285 1.429zm-14.412-.727l.039-.009-.039.009zm.059-.014l.029-.006-.029.006zm.049-.011l.014-.003a.325.325 0 0 1-.014.003z" fill="#acd694"/></g></svg>