<svg viewBox="0 0 300 300" xmlns="http://www.w3.org/2000/svg" fill-rule="evenodd" clip-rule="evenodd" stroke-linejoin="round" stroke-miterlimit="1.414"><g fill-rule="nonzero"><path fill="#f9ad3a" d="M.04.07h299.359v299.705H.04z"/><path d="M156.77 187.151v112.624H96.06c-.99-.391-1.48-.597-1.48-.597 0-7.9.64-14.834 1.73-20.924.92-4.999 2.14-9.464 3.58-13.393 7.32-20.06 20.47-27.097 27.36-29.483.37-.124.7-.227 1.03-.33 2.14-.679 3.46-.823 3.46-.823.22 0 .43-.02.65-.061 1.92-.309 3.46-1.975 4.72-4.63.92-1.975 1.7-4.505 2.32-7.406.25-1.153.45-2.284.66-3.539.29-2.078.57-4.259.84-6.543.08-1.378.23-2.715.39-4.156.54-6.892.68-14.443.68-21.582 0 0 8.17.843 14.77.843z" fill="#e0bd9a"/><path d="M219.24 299.178s-.54.206-1.44.597h-61.03V187.151h.17c6.56 0 14.81-.843 14.81-.843 0 7.098.15 14.525.7 21.438.15 1.338.29 2.716.39 4.053.25 2.387.54 4.609.89 6.708v.041c.1.946.29 1.79.45 2.674.6 2.922 1.32 5.514 2.2 7.572 1.09 2.572 2.43 4.361 4.03 5.082a4.01 4.01 0 0 0 1.63.349s2.32.268 5.82 1.646c.17.062.33.124.5.206 7.2 2.963 18.84 10.411 25.57 28.784 1.4 3.806 2.59 8.106 3.5 12.9 1.15 6.213 1.81 13.311 1.81 21.417z" fill="#efd0ad"/><path d="M173.93 218.288v.049c-1.53 2.365-6.67 9.164-16.85 9.164h-.1c-9.63-.05-15.27-7.045-16.7-9.115.3-2.069.59-4.236.84-6.503.1-1.33.25-2.709.4-4.138a67.628 67.628 0 0 0 15.26 2.02h.2a65.398 65.398 0 0 0 15.67-2.168c.14 1.33.29 2.71.39 4.04.25 2.365.55 4.582.89 6.651z" fill="#be987f"/><path d="M156.29 58.811c-64.34 0-64.68 53.947-61.82 89.272-4.39-8.376-17.49-5.814-16.4 7.39 1.04 12.71 19.74 19.188 19.22 17.785 9.74 26.124 35.53 45.818 59 45.818h.49V58.811h-.49z" fill="#d2a686"/><path d="M82.17 149.906c3.16-5.124 8.1-2.907 9.29-1.774 1.29 1.232 2.32 2.808 1.53 5.814-.44 1.724-2.22 1.872-1.83 4.434.5 2.906 1.83 3.054 2.62 3.744.74.64 1.68 1.133 2.13 2.365.49 1.231.54 2.512.29 3.645-.49 2.07-3.5.394-5.53-.492-1.33-.641-5.58-4.237-6.67-5.42-2.67-3.054-3.95-8.966-1.83-12.316z" fill="#ac8774"/><path d="M156.64 58.811c64.33 0 64.68 53.947 61.86 89.272 4.4-8.376 17.45-5.814 16.36 7.39-.99 12.71-19.74 19.193-19.22 17.785-9.49 26.124-35.53 45.818-59 45.818h-.35l-.15-160.265h.5z" fill="#ddb598"/><path d="M230.76 149.906c-3.17-5.124-8.06-2.907-9.29-1.774-1.29 1.232-2.28 2.808-1.53 5.814.44 1.724 2.22 1.872 1.82 4.434-.49 2.906-1.82 3.054-2.57 3.744-.74.64-1.73 1.133-2.17 2.365-.45 1.231-.54 2.512-.3 3.645.5 2.07 3.51.394 5.54-.492 1.38-.641 5.58-4.237 6.67-5.42 2.72-3.054 3.95-8.966 1.83-12.316z" fill="#ac8774"/><path d="M155.78 74.035c-21.14 0-36.66 6.159-46 18.278-13.09 16.997-12.6 42.911-7.81 61.534 1.49 5.715 2.28 21.037 3.26 26.653 4.6 25.175 32.32 38.576 50.55 38.576h.5V74.035h-.5z" fill="#e0bd9a"/><path d="M201.74 92.363c-9.29-12.071-24.61-18.229-45.46-18.328v145.041c20.85-.246 45.8-14.928 50.05-38.576 1.04-5.616 1.78-20.938 3.27-26.653 4.84-18.574 5.33-44.438-7.86-61.484z" fill="#efd0ad"/><path d="M152.9 193.365c-.1-.022-.2-.042-.3-.065l.3.065zm-.78-.176c-.09-.024-.18-.051-.27-.076l-.01.005s.1.028.28.071z" fill="#bc917b"/><path d="M144.28 174.549c-.25-5.012 9.17-1.831 12.28-1.674 2.45.125 9.92-1.58 10.56-1.141 4.4 2.972-4.65 8.957-10.72 8.957-1.61 0-11.98-3.119-12.12-6.142z" fill="#ddb598"/><path d="M138.32 74.397l-.27.268.04.09c.09-.135.14-.269.23-.358z" fill="#432e1b"/><path d="M153.08 190.423c-.1-.023-.21-.043-.31-.067.1.023.19.042.31.067zm-.81-.181l-.27-.078-.01.004s.1.03.28.074z" fill="#ba907b"/><path d="M110.13 130.645s4.9 20.198 13.33 21.847c8.43 1.647 17.55-1.629 17.55-1.629s.87-23.737-3.45-26.839c-4.31-3.115-14.25-7.617-27.43 6.621z" fill="#fff"/><path d="M141.02 150.801s-.2.056-.63.238c-.11-7.281-.78-17.282-3.47-19.198-4.01-2.942-13.05-7.083-25.14 4.243-1.1-3.13-1.65-5.502-1.65-5.502 13.21-14.264 23.16-9.77 27.44-6.653 4.32 3.114 3.45 26.872 3.45 26.872z" fill="#d6b496"/><path d="M136.03 140.516c0 4.595-3.71 8.319-8.3 8.319-4.58 0-8.29-3.724-8.29-8.319 0-4.595 3.71-8.32 8.29-8.32 4.59 0 8.3 3.725 8.3 8.32z" fill="#482315"/><path d="M127.35 146.056c-2.4-.198-4.23-2.623-4.02-5.288.22-2.665 2.43-4.751 4.82-4.55 2.4.198 4.23 2.62 4.02 5.285-.22 2.665-2.43 4.755-4.82 4.553z" fill="#7e3a22"/><path d="M127.56 145.095c-1.67-.143-3.4-1.977-3.22-4.237.19-2.267 2.19-3.797 3.86-3.66 1.67.142 3.39 1.985 3.21 4.245-.18 2.263-2.19 3.79-3.85 3.652z" fill="#211a10"/><path d="M126.21 139.519c-.07.818-.91 1.414-1.87 1.335-.96-.082-1.68-.812-1.61-1.624.07-.82.9-1.417 1.85-1.338.97.077 1.69.807 1.63 1.627zm5.37 4.726c-.03.406-.45.706-.93.666-.48-.038-.84-.406-.81-.812.04-.406.46-.708.93-.666.48.037.85.401.81.812z" fill="#fff"/><path d="M153.21 192.805c-.1-.022-.21-.043-.31-.067.1.023.19.042.31.067zm-.8-.181c-.1-.024-.19-.052-.28-.077l-.01.004s.11.029.29.073z" fill="#ba907b"/><path d="M152.83 192.234c-.11-.024-.22-.045-.33-.071l.33.071zm-.86-.193l-.3-.083-.01.004.31.079zm.62-.651c-.12-.024-.23-.046-.34-.071.11.024.21.044.34.071zm-.87-.194c-.1-.026-.19-.056-.29-.083l-.02.004s.12.032.31.079zm1.64.078c-.11-.023-.22-.044-.33-.069.11.024.2.044.33.069zm-.84-.187c-.1-.025-.19-.054-.29-.08l-.01.004s.11.031.3.076z" fill="#bc917b"/><path d="M202.94 129.958s-4.91 20.198-13.34 21.847c-8.43 1.647-17.55-1.629-17.55-1.629s-.87-23.737 3.45-26.839c4.31-3.115 14.25-7.617 27.44 6.621z" fill="#fff"/><path d="M172.04 150.114s.2.056.63.237c.11-7.28.78-17.281 3.47-19.197 4.01-2.942 13.05-7.084 25.14 4.242 1.1-3.129 1.65-5.501 1.65-5.501-13.21-14.264-23.16-9.77-27.44-6.653-4.32 3.114-3.45 26.872-3.45 26.872z" fill="#d6b496"/><path d="M177.03 139.828c0 4.596 3.72 8.32 8.3 8.32s8.29-3.724 8.29-8.32c0-4.595-3.71-8.319-8.29-8.319-4.58 0-8.3 3.724-8.3 8.319z" fill="#482315"/><path d="M185.71 145.369c2.4-.198 4.24-2.623 4.02-5.289-.22-2.665-2.42-4.75-4.82-4.549-2.4.198-4.23 2.619-4.02 5.285.22 2.665 2.43 4.755 4.82 4.553z" fill="#7e3a22"/><path d="M185.5 144.407c1.67-.142 3.4-1.976 3.22-4.236-.19-2.267-2.19-3.797-3.86-3.659-1.67.141-3.39 1.984-3.21 4.244.19 2.263 2.19 3.789 3.85 3.651z" fill="#211a10"/><path d="M186.85 138.832c.07.817.91 1.414 1.87 1.335.96-.081 1.68-.812 1.62-1.624-.07-.82-.9-1.417-1.86-1.339-.97.078-1.69.808-1.63 1.628zm-5.37 4.726c.03.406.45.706.93.665.48-.038.84-.406.81-.812-.04-.406-.45-.707-.93-.665-.48.037-.85.402-.81.812z" fill="#fff"/><path d="M146.07 130.323c-.07-.098-1.6-2.43-4.72-4.835-1.96-1.507-3.88-2.654-5.87-3.508a30.37 30.37 0 0 0-7.55-2.088c-2.29-.254-4.82-.187-7.77.212-2.25.43-4.45 1.103-6.32 1.928-1.33.46-2.38 1.105-3.23 1.625-.32.199-.61.379-.91.54l-4.03 2.538 4.64-1.093c.22-.055.45-.117.7-.184.96-.255 2.16-.572 3.56-.778.33-.048.66-.115 1-.183.58-.117 1.19-.237 1.82-.267.7-.048 1.43-.1 2.18-.154l.97-.07c2.57-.032 4.74.163 6.67.608 2.11.365 4.27 1.047 6.26 1.97 1.87.9 3.67 1.792 5.08 2.825 2.83 1.898 4.41 3.48 4.42 3.495a2.011 2.011 0 0 0 2.53.268c.93-.614 1.2-1.877.6-2.787l-.03-.062zm57.69-6.145c-.26-.142-.56-.323-.88-.522-.84-.519-1.89-1.164-3.19-1.608-1.9-.841-4.1-1.514-6.38-1.949-2.93-.394-5.46-.463-7.75-.206-2.52.345-5.12 1.067-7.55 2.088-1.96.842-3.93 2.022-5.86 3.507-3.07 2.361-4.6 4.652-4.71 4.828l-.03.042c-.52.8-.41 1.871.26 2.546.38.386.89.597 1.43.597.54 0 1.04-.212 1.42-.597l.02-.017c.15-.149 1.68-1.65 4.43-3.491 1.38-1.017 3.18-1.911 5.05-2.81a25.465 25.465 0 0 1 6.29-1.977c1.9-.44 4.08-.631 6.61-.604l1.02.073c.75.053 1.47.104 2.18.152.62.03 1.22.15 1.81.267.34.068.67.135 1 .183 1.4.206 2.59.523 3.55.778.25.067.49.129.71.185l4.63 1.093-4.06-2.558z" fill="#030405"/><path d="M151.75 195.196c-.1-.023-.21-.044-.32-.069l.32.069zm-.84-.189c-.1-.025-.19-.054-.29-.081l-.01.005s.11.03.3.076z" fill="#be927b"/><path d="M144.39 199.363c-.24-3.247 9.02.68 12.06.774 2.42.082 9.71-.481 10.38-.739 5.1-1.911-.27 5.429-10.53 5.815-4.7.188-11.77-3.88-11.91-5.85z" fill="#f0d2ad"/><path d="M174.54 193.103c-2.52-.125-5.1 1.977-8.12 1.656-.13-.062-.19-.062-.32-.062-.69-.123-1.38 0-2.13.185-.94.198-1.89.58-2.78.889-1.51.493-3.21.888-4.96.752v.012l-.1-.012-.1.012v-.012c-1.75.136-3.45-.259-4.96-.752-.89-.309-1.84-.691-2.78-.889-.75-.185-1.44-.308-2.13-.185-.13 0-.2 0-.32.062-3.02.321-5.6-1.781-8.12-1.656-.69.061-1.7-.125-2.26-.125.12.062.25.125.38.186 7.16 3.504 13.35 10.068 20.19 9.858h.2c6.84.21 13.03-6.354 20.19-9.858.13-.061.26-.124.38-.186-.56 0-1.57.186-2.26.125z" fill="#dcbf9e"/><path d="M176.64 192.902s-7.28-2.815-12.47-1.164c0 0-1.93.755-3.92 1.215-1.22.475-2.69.613-4.12.556a22.84 22.84 0 0 1-2.98-.332c-.28-.043-.56-.101-.85-.163-.13-.026-.22-.046-.33-.07-.17-.041-.34-.074-.51-.119-.19-.046-.3-.077-.3-.077l.01-.004a33.641 33.641 0 0 1-3.08-1.006c-5.19-1.651-12.47 1.164-12.47 1.164-.1.046-.16.076-.16.076.56 0 1.57.186 2.26.125 2.52-.125 5.1 1.977 8.12 1.656.12-.062.19-.062.32-.062.69-.123 1.38 0 2.13.185.94.198 1.89.58 2.78.889 1.51.493 3.21.888 4.96.752v.012l.1-.012.1.012v-.012c1.75.136 3.45-.259 4.96-.752.89-.309 1.84-.691 2.78-.889.75-.185 1.44-.308 2.13-.185.13 0 .19 0 .32.062 3.02.321 5.6-1.781 8.12-1.656.69.061 1.7-.125 2.26-.125 0 0-.06-.03-.16-.076z" fill="#c69f83"/><path d="M143.89 194.617c.13.033 13.66 4.163 24.23.09l-1.22-.822h-14.29l-8.72.732z" fill="#c69f83"/><path d="M213.94 264.853c-4.2-11.44-10.29-18.641-16.03-23.167-3.48-2.736-6.83-4.506-9.55-5.617l-23.62 26.868c-4.2 4.769-11.68 4.599-15.65-.355l-21.83-27.212c-2.47.843-5.7 2.304-9.2 4.691-6.31 4.361-13.45 11.871-18.17 24.792-1.44 3.929-2.65 8.394-3.58 13.393 7.62 1.811 14.35 3.416 14.35 3.416v18.105h90.38v-18.105s8-1.913 16.4-3.909c-.91-4.794-2.1-9.094-3.5-12.9z" fill="#8868ad"/><path d="M238.36 183.267c20.14-29.746 3.34-86.136 3.34-86.136s-.12.136-.36.392c-5.18-17.767-13.8-27.367-13.8-27.367v.008c-4.2-6.01-10.14-12.322-17.42-18.547-14.91-12.729-24.29-10.11-36.63-9.744 0 0-.04.08-.1.207-5.43-1.108-34.57-6.619-51.91-.521-19.17 6.755-34.86 18.336-45.94 49.444a91.981 91.981 0 0 0-4.96 22.344c-.27-.243-.42-.374-.42-.374s-11.77 57.81 10.9 85.429c0 0-5.46-16.628-2.65-30.183 10.2 28.715 36.74 46.441 36.74 46.441s-8.24-9.187-11.93-18.354c-2.86-7.114-7.13-19.33-7.13-37.314 0-17.991 18.63-40.257 18.63-40.257s-8.59 13.969-10.28 29.336c-1.72 15.36 7.3 27.243 7.3 27.243s-1.8-18.241 4.5-32.763c3.17-7.295 8.37-13.655 16.89-16.287l-.02.033c-4.57 11.77 4.62 21.661 4.62 21.661s.03-2.953.94-7.504c2.36-11.779 10.59-34.305 39.38-44.321l.9 1.227 20.28 27.871c1 1.27 2.62 3.41 4.5 6.179 5.5 8.061 13.09 21.278 13.09 32.775 0 17.984-4.27 30.196-7.14 37.31-3.68 9.167-11.92 18.36-11.92 18.36s24.48-16.36 35.46-43.108v.015c2.66-5.993 4.79-11.758 6.48-17.301 1.47 11.709-1.34 23.806-1.34 23.806z" fill="#753a40"/><path d="M152.41 140.762h-2.85c0-3.657 2.89-6.696 6.43-6.696v3.087c-1.97 0-3.58 1.615-3.58 3.609zm10.96 0h-2.84c0-1.994-2.05-3.609-4.54-3.609v-3.087c4.06 0 7.38 3.039 7.38 6.696z" fill="#fff"/><path d="M149.91 139.195c-1.92 11.92-19.44 23.27-27.39 27.401-7.91-4.131-25.44-15.481-27.31-27.401-.79-4.654.91-9.023 5.11-13.392 2.49-2.612 5.24-3.846 8.39-3.846 5.46 0 10.62 3.988 11.75 5.129l2.06 2.754 2.09-2.754c1.14-1.141 6.3-5.129 11.76-5.129 3.14 0 5.9 1.234 8.39 3.846 4.19 4.369 5.85 8.738 5.15 13.392zm-27.39-14.151c-.44-.618-13.46-12.585-24.17-1.473-22.55 23.507 23.86 46.255 23.86 46.255.66 0 47.02-22.748 24.51-46.255-10.7-11.112-23.72.855-24.2 1.473z" fill="#fff"/><path d="M190.51 166.596c-7.95-4.131-25.43-15.481-27.35-27.401-.75-4.654.96-9.023 5.15-13.392 2.49-2.612 5.25-3.846 8.39-3.846 5.46 0 10.62 3.988 11.76 5.129l2.05 2.754 2.1-2.754c1.13-1.141 6.29-5.129 11.75-5.129 3.15 0 5.9 1.234 8.39 3.846 4.2 4.369 5.86 8.738 5.11 13.392-1.87 11.92-19.4 23.27-27.35 27.401zm24.16-43.025c-10.66-11.112-23.68.855-24.16 1.473-.44-.618-13.46-12.585-24.17-1.473-22.54 23.507 23.86 46.255 24.17 46.397.35-.142 46.71-22.89 24.16-46.397z" fill="#fff"/><path d="M140.38 154.053a38.233 38.233 0 0 0-3.39-2.082c2.44-.543 4.02-1.108 4.02-1.108v-.059l.01-.003s.35-9.58-.5-17.371c.22-.67.46-1.354.71-2.049 1.13.908 1.73 1.514 1.74 1.523a2.011 2.011 0 0 0 2.53.268c.93-.614 1.2-1.877.6-2.787l-.03-.062c-.05-.078-1.03-1.57-3-3.387.29-.627.59-1.259.91-1.895.26.24.52.493.78.762.42.442.82.885 1.19 1.328 2.18 2.583 3.48 5.185 3.92 7.884.19 1.106.22 2.278.09 3.436a6.716 6.716 0 0 0-.39 2.157c-1.25 4.76-4.86 9.384-9.19 13.445zm-26.29-5.397c.38-1.358.82-2.71 1.32-4.04.67 1.234 1.4 2.414 2.19 3.469-1.2.133-2.37.326-3.51.571z" fill="#cf573c"/><path d="M136.99 151.971c-2.77-1.51-5.52-2.548-8.21-3.201a8.299 8.299 0 0 0 6.34-4.463c1.35 2.299 2.61 3.651 2.61 3.651s.03-2.953.94-7.504c.18-.9.4-1.864.65-2.879.75 3.964 1.01 9.184 1.07 13.464.38-.16.58-.223.62-.235v.059s-1.58.565-4.02 1.108zm-19.39-3.886c-.79-1.055-1.52-2.235-2.19-3.469.26-.695.54-1.384.83-2.065 2.44-5.629 6.1-10.702 11.56-13.935 1.62.04 3.1.336 4.4.767a18.253 18.253 0 0 0-.36 3.901 8.234 8.234 0 0 0-4.11-1.088c-4.58 0-8.29 3.725-8.29 8.32a8.33 8.33 0 0 0 4.67 7.486c-.95-.084-1.89-.124-2.82-.124-1.25 0-2.48.072-3.69.207z" fill="#d5664e"/><path d="M140.39 151.039c-.06-4.28-.32-9.5-1.07-13.464.33-1.303.72-2.691 1.2-4.145.85 7.791.5 17.371.5 17.371l-.01.003a6.76 6.76 0 0 0-.62.235zm-8.19-21.656c-1.3-.431-2.78-.727-4.4-.767a24.64 24.64 0 0 1 5.11-2.284c.05.024.11.047.16.071a19.666 19.666 0 0 0-.87 2.98z" fill="#cd553c"/><path d="M128.78 148.77a31.381 31.381 0 0 0-4.67-.768 8.33 8.33 0 0 1-4.67-7.486c0-4.595 3.71-8.32 8.29-8.32 1.5 0 2.9.395 4.11 1.088.05 4.511 1.73 8.389 3.28 11.023a8.299 8.299 0 0 1-6.34 4.463zm-5.42-8.272l-.03.27c-.21 2.665 1.62 5.09 4.02 5.288.11.009.21.014.32.014 1.06 0 2.07-.443 2.86-1.176a1.237 1.237 0 0 0 .21.02c.44 0 .81-.288.84-.669a.656.656 0 0 0-.14-.467c.4-.668.66-1.443.73-2.275.21-2.665-1.62-5.087-4.02-5.285-.1-.009-.21-.013-.32-.013-1.29 0-2.5.651-3.34 1.681l-.08-.002c-.88 0-1.62.575-1.68 1.346-.04.496.21.962.63 1.268z" fill="#a12d24"/><path d="M127.67 146.07c-.11 0-.21-.005-.32-.014-2.4-.198-4.23-2.623-4.02-5.288l.03-.27c.27.194.61.324.98.356v.004c-.18 2.26 1.55 4.094 3.22 4.237.07.006.14.009.21.009.7 0 1.46-.286 2.09-.789.08.281.34.512.67.579-.79.733-1.8 1.176-2.86 1.176zm3.77-2.292a.922.922 0 0 0-.67-.345.548.548 0 0 0-.07-.004c.38-.557.65-1.23.71-1.986.18-2.26-1.54-4.103-3.21-4.245a2.947 2.947 0 0 0-.21-.008c-.83 0-1.72.391-2.41 1.064a1.955 1.955 0 0 0-1.09-.368c.84-1.03 2.05-1.681 3.34-1.681.11 0 .22.004.32.013 2.4.198 4.23 2.62 4.02 5.285a5.29 5.29 0 0 1-.73 2.275z" fill="#b32e25"/><path d="M127.77 145.104c-.07 0-.14-.003-.21-.009-1.67-.143-3.4-1.977-3.22-4.237v-.004c.06.005.12.007.17.007.89 0 1.63-.573 1.7-1.342.04-.496-.21-.959-.63-1.265.69-.673 1.58-1.064 2.41-1.064.07 0 .14.003.21.008 1.67.142 3.39 1.985 3.21 4.245a4.092 4.092 0 0 1-.71 1.986h-.01c-.44 0-.81.289-.85.67 0 .074 0 .146.02.216-.63.503-1.39.789-2.09.789z" fill="#933125"/><path d="M124.51 140.861a1.978 1.978 0 0 1-1.15-.363c-.42-.306-.67-.772-.63-1.268.06-.771.8-1.346 1.68-1.346l.08.002.09.006c.38.03.73.163 1 .362.42.306.67.769.63 1.265-.07.769-.81 1.342-1.7 1.342zm6.23 4.053l-.09-.003a1.237 1.237 0 0 1-.12-.017c-.33-.067-.59-.298-.67-.579-.02-.07-.02-.142-.02-.216.04-.381.41-.67.85-.67h.01c.02 0 .05.001.07.004.28.021.53.155.67.345.1.134.16.297.14.467-.03.381-.4.669-.84.669z" fill="#d5664e"/><path d="M144.4 133.5c-.52 0-1.04-.202-1.43-.596-.01-.009-.61-.615-1.74-1.523a60.808 60.808 0 0 1 1.84-4.445c1.97 1.817 2.95 3.309 3 3.387l.03.062c.6.91.33 2.173-.6 2.787-.33.221-.72.328-1.1.328zm-11.33-7.097c-.05-.024-.11-.047-.16-.071.07-.023.15-.046.22-.068l-.02.033a.442.442 0 0 1-.04.106z" fill="#8a2e26"/><path d="M101.16 150.417l-.06-.063a38.162 38.162 0 0 1-2.18-2.758c-.18-.258-.36-.516-.53-.777.44-1.274.92-2.541 1.45-3.792.35 2.537.8 5.012 1.32 7.39z" fill="#cc5139"/><path d="M103.21 152.633c-.71-.721-1.4-1.463-2.05-2.216a96.201 96.201 0 0 1-1.32-7.39c2.75-6.575 6.53-12.715 9.59-17.176l.88-.209c.22-.055.45-.117.7-.184.07-.018.15-.037.22-.056-2.59 5.522-5.82 13.866-6.79 22.669a35.153 35.153 0 0 0-.22 4.054c-.34.167-.68.336-1.01.508zm8.03-29.36l.66-.897c.22.057.45.118.66.184-.48.231-.92.477-1.32.713z" fill="#cf573c"/><path d="M109.43 125.851c.64-.937 1.25-1.8 1.81-2.578.4-.236.84-.482 1.32-.713.02.004.04.009.05.014-.42.83-.89 1.778-1.38 2.828-.07.019-.15.038-.22.056-.25.067-.48.129-.7.184l-.88.209z" fill="#8a2e26"/><path d="M104.22 152.125c0-1.319.06-2.673.22-4.054.97-8.803 4.2-17.147 6.79-22.669.49-1.05.96-1.998 1.38-2.828 3.77 1.142 6.87 3.551 7.8 4.457 0 .003 0 .006.01.009l2.09 2.8.01-.001v.001l2.09-2.754c1.14-1.141 6.3-5.129 11.76-5.129 2.82 0 5.33.994 7.61 3.084-.32.636-.62 1.268-.91 1.895a60.808 60.808 0 0 0-1.84 4.445c-.25.695-.49 1.379-.71 2.049a60.753 60.753 0 0 0-1.85 7.024c-.91 4.551-.94 7.504-.94 7.504s-1.26-1.352-2.61-3.651c-1.55-2.634-3.23-6.512-3.28-11.023-.02-1.256.09-2.56.36-3.901.2-.976.49-1.971.87-2.98.02-.035.03-.07.04-.106l.02-.033c-.07.022-.15.045-.22.068a24.64 24.64 0 0 0-5.11 2.284c-5.46 3.233-9.12 8.306-11.56 13.935a49.072 49.072 0 0 0-2.15 6.105c-3.57.76-6.89 2.013-9.87 3.469zm-5.83-5.306c-1.63-2.469-2.78-5.033-3.18-7.624-.79-4.654.91-9.023 5.11-13.392 2.49-2.612 5.24-3.846 8.39-3.846 1.08 0 2.16.157 3.19.419l-.66.897c-.56.778-1.17 1.641-1.81 2.578-3.06 4.461-6.84 10.601-9.59 17.176a59.553 59.553 0 0 0-1.45 3.792z" fill="#af2e2e"/><path d="M149.57 140.608c.01-.754.15-1.48.39-2.157-.02.234-.05.467-.09.699-.07.487-.18.973-.3 1.458zm-50.65 6.988c-1.93-2.711-3.3-5.554-3.76-8.446-.74-4.61.92-9.027 5.12-13.393 2.53-2.614 5.24-3.846 8.39-3.846 5.49 0 10.59 3.966 11.74 5.12-.93-.906-4.03-3.315-7.8-4.457a13.008 13.008 0 0 0-3.9-.617c-3.15 0-5.9 1.234-8.39 3.846-4.2 4.369-5.9 8.738-5.11 13.392.4 2.591 1.55 5.155 3.18 7.624.17.261.35.519.53.777zm23.6-17.756v-.001l2.09-2.799c1.09-1.142 6.25-5.129 11.76-5.129 1.79 0 3.5.424 5.02 1.278 1.18.622 2.27 1.476 3.33 2.568.44.458.85.915 1.23 1.374-.37-.443-.77-.886-1.19-1.328-.26-.269-.52-.522-.78-.762-2.28-2.09-4.79-3.084-7.61-3.084-5.46 0-10.62 3.988-11.76 5.129l-2.09 2.754z" fill="#d5664e"/><path d="M210.81 151.587c-.19-.09-.39-.18-.59-.268a97.64 97.64 0 0 0 1.28-6.599 69.711 69.711 0 0 1 1.78 3.982c-.76.982-1.59 1.945-2.47 2.885z" fill="#ce553d"/><path d="M174.04 155.331c-1.77-1.561-3.45-3.218-4.94-4.926a36.824 36.824 0 0 1-2.56-3.317c-1.53-2.25-2.65-4.579-3.2-6.94a5.21 5.21 0 0 0-.2-1.04c-.71-4.621 1-8.963 5.17-13.305 2.49-2.612 5.25-3.846 8.39-3.846.26 0 .52.009.77.026-.75.413-1.42.848-1.98 1.259-.01.006-.01.011-.02.017a28.928 28.928 0 0 0-3.32 2.229c-3.07 2.361-4.6 4.652-4.71 4.828l-.03.042c-.52.8-.41 1.871.26 2.546.38.386.89.597 1.43.597.54 0 1.04-.212 1.42-.597l.02-.017c.1-.102.86-.845 2.22-1.898-1.12 8.02-.72 19.125-.72 19.125s.01.001.01.003v.059s3.08 1.104 7.3 1.708a40 40 0 0 0-5.31 3.447zm36.18-4.012c-4.47-1.97-9.61-3.405-15.12-3.441 4.61-5.826 7.37-16.078 7.78-17.701.28.395.56.806.85 1.233 2.46 3.609 5.34 8.251 7.77 13.31a97.64 97.64 0 0 1-1.28 6.599zm-8.26-22.441c-1.83-1.874-3.59-3.388-5.29-4.599.43.053.85.136 1.26.218.3.061.6.12.89.167l.41.567c.67.85 1.62 2.09 2.73 3.647z" fill="#d25b40"/><path d="M179.35 151.884c-4.22-.604-7.3-1.708-7.3-1.708v-.059c.05.014.24.077.62.234.11-7.28.78-17.281 3.47-19.197 2-1.466 5.25-3.23 9.5-3.23 1.18 0 2.44.137 3.77.455l1.1 1.461v-.001.001l.71-.932c3.04 1.059 6.41 3.068 10.06 6.488a65.323 65.323 0 0 0 1.59-5.24c0 .007.01.014.01.021-.41 1.623-3.17 11.875-7.78 17.701l-.22-.001c-4.94 0-10.19 1.129-15.53 4.007zm5.98-20.375c-4.58 0-8.3 3.724-8.3 8.319 0 4.596 3.72 8.32 8.3 8.32s8.29-3.724 8.29-8.32c0-4.595-3.71-8.319-8.29-8.319z" fill="#d5664e"/><path d="M172.67 150.351c-.38-.157-.57-.22-.62-.234 0-.002-.01-.003-.01-.003s-.4-11.105.72-19.125c.61-.478 1.35-1.019 2.21-1.593 1.38-1.017 3.18-1.911 5.05-2.81a25.53 25.53 0 0 1 5.38-1.8c1.44.895 2.52 1.774 3 2.245 0 .003.01.006.01.009l1 1.339a16.178 16.178 0 0 0-3.77-.455c-4.25 0-7.5 1.764-9.5 3.23-2.69 1.916-3.36 11.917-3.47 19.197zm28.61-14.955c-3.65-3.42-7.02-5.429-10.06-6.488l1.39-1.822c.54-.542 1.98-1.727 3.94-2.821l.12.014c1.7 1.211 3.46 2.725 5.29 4.599.29.405.59.832.91 1.278-.18.698-.71 2.725-1.59 5.24zm-25.81-12.137c.01-.006.01-.011.02-.017.56-.411 1.23-.846 1.98-1.259.15.01.3.022.45.038-.82.355-1.64.768-2.45 1.238z" fill="#cd553c"/><path d="M185.33 148.148c-4.58 0-8.3-3.724-8.3-8.32 0-4.595 3.72-8.319 8.3-8.319s8.29 3.724 8.29 8.319c0 4.596-3.71 8.32-8.29 8.32zm-2.8-3.942c.79.733 1.8 1.176 2.86 1.176.11 0 .21-.004.32-.013 2.4-.198 4.24-2.623 4.02-5.289l-.03-.27c.42-.305.68-.771.64-1.267-.07-.772-.81-1.346-1.69-1.346l-.08.001c-.84-1.029-2.05-1.68-3.34-1.68-.11 0-.22.004-.32.013-2.4.198-4.23 2.619-4.02 5.285.07.831.33 1.607.73 2.275a.654.654 0 0 0-.14.467c.03.381.4.669.84.669.03 0 .06-.002.09-.004a.99.99 0 0 0 .12-.017z" fill="#a12d24"/><path d="M185.39 145.382c-1.06 0-2.07-.443-2.86-1.176.33-.067.59-.298.67-.579.63.503 1.39.789 2.09.789.07 0 .14-.003.21-.009 1.67-.142 3.4-1.976 3.22-4.236v-.004c.37-.032.71-.162.98-.357l.03.27c.22 2.666-1.62 5.091-4.02 5.289-.11.009-.21.013-.32.013zm-3.77-2.291a5.294 5.294 0 0 1-.73-2.275c-.21-2.666 1.62-5.087 4.02-5.285.1-.009.21-.013.32-.013 1.29 0 2.5.651 3.34 1.68a1.956 1.956 0 0 0-1.09.369c-.69-.673-1.58-1.064-2.41-1.064-.07 0-.14.003-.21.009-1.67.141-3.39 1.984-3.21 4.244.06.755.33 1.429.71 1.986a.94.94 0 0 0-.74.349z" fill="#b32e25"/><path d="M185.29 144.416c-.7 0-1.46-.286-2.09-.789.02-.069.02-.142.02-.216-.03-.381-.4-.669-.84-.669h-.02a4.095 4.095 0 0 1-.71-1.986c-.18-2.26 1.54-4.103 3.21-4.244.07-.006.14-.009.21-.009.83 0 1.72.391 2.41 1.064-.41.306-.66.769-.63 1.265.07.768.81 1.342 1.7 1.342.05 0 .11-.002.17-.007v.004c.18 2.26-1.55 4.094-3.22 4.236-.07.006-.14.009-.21.009z" fill="#933125"/><path d="M188.55 140.174c-.89 0-1.63-.574-1.7-1.342-.03-.496.22-.959.63-1.265a1.956 1.956 0 0 1 1.09-.369l.08-.001c.88 0 1.62.574 1.69 1.346.04.496-.22.962-.64 1.267a1.969 1.969 0 0 1-1.15.364zm-6.23 4.053c-.44 0-.81-.288-.84-.669a.654.654 0 0 1 .14-.467.94.94 0 0 1 .74-.349h.02c.44 0 .81.288.84.669 0 .074 0 .147-.02.216-.08.281-.34.512-.67.579a.99.99 0 0 1-.12.017c-.03.002-.06.004-.09.004z" fill="#d5664e"/><path d="M169.1 133.501c-.54 0-1.05-.211-1.43-.597a2.049 2.049 0 0 1-.26-2.546l.03-.042c.11-.176 1.64-2.467 4.71-4.828 1.09-.843 2.2-1.588 3.32-2.229.81-.47 1.63-.883 2.45-1.238 2.83.293 5.5 1.544 7.48 2.765a25.53 25.53 0 0 0-5.38 1.8c-1.87.899-3.67 1.793-5.05 2.81-.86.574-1.6 1.115-2.21 1.593-1.36 1.053-2.12 1.796-2.22 1.898l-.02.017c-.38.385-.88.597-1.42.597zm29.72-8.837c-.29-.047-.59-.106-.89-.167-.41-.082-.83-.165-1.26-.218l-.12-.014c.45-.255.94-.504 1.44-.74l.83 1.139z" fill="#8a2e26"/><path d="M213.28 148.702a69.711 69.711 0 0 0-1.78-3.982c-2.43-5.059-5.31-9.701-7.77-13.31-.29-.427-.57-.838-.85-1.233 0-.007-.01-.014-.01-.021-.32-.446-.62-.873-.91-1.278a95.048 95.048 0 0 0-2.73-3.647l-.41-.567-.83-1.139c1.9-.883 4.11-1.568 6.37-1.568 3.15 0 5.9 1.234 8.39 3.846.02.016.03.033.05.05 2.87 3.055 4.59 6.107 5.07 9.213.21 1.375.21 2.703 0 4.084-.53 3.273-2.23 6.503-4.59 9.552z" fill="#af2e2e"/><path d="M163.34 140.148c-.07-.317-.13-.635-.18-.953-.01-.029-.01-.058-.02-.087.1.338.17.685.2 1.04z" fill="#d5664e"/><path d="M166.54 147.088c-1.75-2.57-3-5.232-3.43-7.938-.7-4.61.96-9.027 5.16-13.393 2.49-2.614 5.24-3.846 8.39-3.846 5.44 0 10.59 3.966 11.74 5.12-.48-.471-1.56-1.35-3-2.245-1.98-1.221-4.65-2.472-7.48-2.765a11.42 11.42 0 0 0-1.22-.064c-3.14 0-5.9 1.234-8.39 3.846-4.17 4.342-5.88 8.684-5.17 13.305.01.029.01.058.02.087.05.318.11.636.18.953.55 2.361 1.67 4.69 3.2 6.94zm23.97-17.248v-.001l2.05-2.799c1.14-1.142 6.3-5.129 11.76-5.129 1.83 0 3.54.424 5.07 1.278 1.17.622 2.27 1.476 3.32 2.568l.09.096c-.02-.017-.03-.034-.05-.05-2.49-2.612-5.24-3.846-8.39-3.846-2.26 0-4.47.685-6.37 1.568-.5.236-.99.485-1.44.74-1.96 1.094-3.4 2.279-3.94 2.821l-1.39 1.822-.71.932z" fill="#d5664e"/><path d="M122.51 166.547c-2.7-1.375-6.46-3.609-10.39-6.409l-.15-.108c.37-3.593 1.02-7.508 2.12-11.374 1.14-.245 2.31-.438 3.51-.571 1.69 2.276 3.66 3.976 5.86 4.407 1.69.331 3.41.463 5.08.463 3.19 0 6.19-.482 8.45-.984 1.13.614 2.26 1.306 3.39 2.082-6.02 5.644-13.43 10.192-17.87 12.494z" fill="#cb342b"/><path d="M128.54 152.955c-1.67 0-3.39-.132-5.08-.463-2.2-.431-4.17-2.131-5.86-4.407a33.25 33.25 0 0 1 3.69-.207c.93 0 1.87.04 2.82.124a8.274 8.274 0 0 0 4.67.768c2.69.653 5.44 1.691 8.21 3.201-2.26.502-5.26.984-8.45.984z" fill="#cc392f"/><path d="M127.73 148.835c-1.29 0-2.52-.299-3.62-.833 1.54.135 3.09.385 4.67.768-.34.043-.69.065-1.05.065z" fill="#bd2526"/><path d="M104.26 153.669c-.35-.341-.7-.687-1.05-1.036.33-.172.67-.341 1.01-.508 0 .521.02 1.034.04 1.544z" fill="#cb342b"/><path d="M111.97 160.03c-2.63-1.905-5.3-4.042-7.71-6.361-.02-.51-.04-1.023-.04-1.544 2.98-1.456 6.3-2.709 9.87-3.469-1.1 3.866-1.75 7.781-2.12 11.374z" fill="#c12529"/><path d="M209.93 152.507c.1-.394.19-.789.29-1.188.2.088.4.178.59.268-.28.309-.58.616-.88.92z" fill="#ca322b"/><path d="M190.51 166.547c-2.71-1.375-6.51-3.609-10.4-6.409a69.282 69.282 0 0 1-6.07-4.807 40 40 0 0 1 5.31-3.447c1.59.227 3.35.384 5.17.384 1.67 0 3.39-.132 5.08-.463 2.05-.4 3.89-1.895 5.5-3.927 5.51.036 10.65 1.471 15.12 3.441-.1.399-.19.794-.29 1.188-6.24 6.352-14.58 11.529-19.42 14.04z" fill="#cb352c"/><path d="M184.52 152.268c-1.82 0-3.58-.157-5.17-.384 5.34-2.878 10.59-4.007 15.53-4.007l.22.001c-1.61 2.032-3.45 3.527-5.5 3.927-1.69.331-3.41.463-5.08.463z" fill="#cc392f"/><path d="M186.19 257.574c1.3-2.743 2.36-5.322.99-6.498-1.52-1.279-4.35.764-7.15 2.744-1.16-3.961-1.28-10.273-4.03-10.459-3.01-.206-3.9 7.427-5.94 10.912-2.93-2.66-6.04-6.291-8.06-5.033-1.53.949-.83 3.693.06 6.602-3.34-.433-6.71-.867-7.43.969-1.01 2.496 4.46 5.323 7.55 8.046-3.05 2.619-10.46 4.826-9.74 7.756.58 2.351 5.45 1.898 9.41 2.063-1.32 2.785-2.43 5.467-1.05 6.621 1.53 1.279 4.29-.721 7.03-2.701 1.1 3.98 1.22 10.149 3.92 10.335 3.06.227 3.96-7.592 6.09-10.996 2.95 2.641 6.15 6.333 8.17 5.054 1.48-.928.84-3.59-.04-6.436 3.28.454 6.52.866 7.24-.928 1.05-2.538-4.52-5.405-7.57-8.19 2.97-2.661 10.52-4.931 9.78-7.901-.6-2.29-5.31-1.857-9.23-1.96z" fill="#fff"/><path d="M180.31 266.135c0 3.528-2.84 6.396-6.37 6.396a6.382 6.382 0 0 1-6.39-6.396 6.364 6.364 0 0 1 6.39-6.374 6.36 6.36 0 0 1 6.37 6.374z" fill="#e6a52f"/></g></svg>