<svg viewBox="0 0 297 301" xmlns="http://www.w3.org/2000/svg" fill-rule="evenodd" clip-rule="evenodd" stroke-linejoin="round" stroke-miterlimit="1.414"><g fill-rule="nonzero"><path fill="#d6773e" d="M0 .365h296.866V300.07H0z"/><path d="M148.148 187.8v112.27H87.419c-.989-.394-1.481-.594-1.481-.594 0-14.331 2.101-25.505 5.305-34.219 7.729-21.03 21.882-27.709 28.396-29.723 2.137-.661 3.455-.82 3.455-.82.23 0 .446-.021.666-.057 1.912-.307 3.465-1.968 4.71-4.618.927-1.968 1.702-4.479 2.332-7.386.252-1.132.447-2.275.646-3.51.298-2.077.59-4.25.841-6.525.097-1.384.246-2.717.395-4.152.538-6.868.691-14.388.691-21.507 0 0 8.155.841 14.773.841z" fill="#e0bd9a"/><path d="M210.608 299.476s-.543.2-1.435.594h-61.025V187.8h.148c6.571 0 14.829-.841 14.829-.841 0 7.068.143 14.485.686 21.358.149 1.338.298 2.717.395 4.054.251 2.374.548 4.598.892 6.674v.046c.097.943.292 1.784.446 2.671.599 2.921 1.327 5.489 2.204 7.549 1.092 2.563 2.419 4.352 4.028 5.06a3.93 3.93 0 0 0 1.625.343s2.338.282 5.838 1.656c7.151 2.798 19.16 10.143 26.059 28.887 3.203 8.714 5.31 19.888 5.31 34.219z" fill="#efd0ad"/><path d="M165.098 218.835v.05c-1.532 2.357-6.671 9.134-16.85 9.134h-.099c-9.636-.049-15.269-7.023-16.702-9.086.297-2.062.593-4.223.84-6.482.099-1.327.247-2.702.396-4.126a67.812 67.812 0 0 0 15.268 2.014h.198a65.497 65.497 0 0 0 15.664-2.161c.148 1.326.296 2.701.395 4.027.248 2.357.544 4.568.89 6.63z" fill="#be987f"/><path d="M193.448 265.257c2.003 9.042 3.239 20.241 3.239 34.111 0 0-.379.184-1.143.702h-94.419c-.758-.518-1.143-.702-1.143-.702 0-13.844 1.236-25.033 3.235-34.111H91.243c7.729-21.03 21.882-27.709 28.396-29.723a8.602 8.602 0 0 0-.021.625c0 9.626 12.645 17.473 28.53 17.878.435.016.871.021 1.307.021 16.325 0 29.6-7.899 29.784-17.688 7.151 2.798 19.16 10.143 26.059 28.887h-11.85z" fill="#554467"/><path d="M147.457 59.856c-64.336 0-64.682 53.779-61.816 88.993-4.398-8.349-17.493-5.795-16.405 7.367 1.037 12.671 19.745 19.129 19.222 17.73 9.742 26.043 35.528 45.675 58.999 45.675h.494V59.856h-.494z" fill="#d2a686"/><path d="M147.803 59.856c64.336 0 64.682 53.779 61.865 88.993 4.398-8.349 17.444-5.795 16.356 7.367-.988 12.671-19.733 19.134-19.222 17.73-9.49 26.043-35.528 45.675-58.999 45.675h-.346l-.148-159.765h.494z" fill="#ddb598"/><path d="M146.951 75.032c-21.149 0-36.665 6.139-46.004 18.221-13.095 16.944-12.6 42.777-7.807 61.342 1.482 5.697 2.273 20.971 3.261 26.571 4.596 25.096 32.317 38.455 50.55 38.455h.494V75.032h-.296" fill="#e0bd9a"/><path d="M192.906 93.302c-9.29-12.033-24.608-18.172-45.461-18.27v144.589c20.853-.245 45.806-14.881 50.056-38.455 1.038-5.6 1.779-20.874 3.261-26.571 4.843-18.515 5.337-44.3-7.856-61.293z" fill="#efd0ad"/><path d="M129.886 75.902l-.267.268.045.089c.09-.134.134-.268.222-.357z" fill="#432e1b"/><path d="M101.292 131.466s4.908 20.135 13.335 21.779c8.426 1.642 17.547-1.624 17.547-1.624s.871-23.664-3.443-26.755c-4.311-3.106-14.25-7.594-27.439 6.6zm92.811-.685s-4.908 20.135-13.335 21.779c-8.426 1.642-17.547-1.624-17.547-1.624s-.871-23.664 3.443-26.756c4.311-3.105 14.25-7.593 27.439 6.601z" fill="#fff"/><path d="M73.337 150.666c3.162-5.108 8.104-2.897 9.29-1.768 1.284 1.228 2.322 2.8 1.531 5.796-.444 1.719-2.223 1.866-1.828 4.42.494 2.897 1.828 3.045 2.619 3.732.741.639 1.68 1.13 2.125 2.358a6.197 6.197 0 0 1 .296 3.634c-.494 2.063-3.508.393-5.534-.491-1.334-.638-5.584-4.224-6.671-5.403-2.668-3.044-3.953-8.938-1.828-12.278zm148.586 0c-3.163-5.108-8.054-2.897-9.29-1.768-1.284 1.228-2.273 2.8-1.531 5.796.444 1.719 2.223 1.866 1.828 4.42-.494 2.897-1.828 3.045-2.57 3.732-.741.639-1.729 1.13-2.174 2.358-.445 1.228-.543 2.505-.296 3.634.494 2.063 3.508.393 5.534-.491 1.384-.638 5.584-4.224 6.671-5.403 2.718-3.044 3.953-8.938 1.828-12.278z" fill="#ac8774"/><path d="M147.638 196.677h.001-.001zm-3.567-2.687c-.102-.022-.203-.041-.304-.065.1.023.187.041.304.065zm-.785-.175c-.094-.024-.178-.051-.27-.076l-.01.004s.104.029.28.072zm4.352-.017h.001-.001z" fill="#bc917b"/><path d="M135.442 172.704c-.244-4.996 9.178-1.825 12.285-1.669 2.454.125 9.922-1.575 10.564-1.137 4.393 2.962-4.654 8.929-10.721 8.929-1.616 0-11.981-3.109-12.128-6.123z" fill="#ddb598"/><path d="M147.91 193.817h.001-.001zm-3.664-2.76l-.311-.066.311.066zm-.806-.18c-.096-.025-.183-.052-.277-.078l-.01.005s.107.029.287.073zm4.47-.017h.001-.001z" fill="#ba907b"/><path d="M132.185 151.559s-.193.056-.626.236c-.108-7.258-.779-17.227-3.474-19.137-4.006-2.933-13.052-7.061-25.137 4.229-1.099-3.119-1.65-5.484-1.65-5.484 13.213-14.22 23.16-9.74 27.439-6.632 4.32 3.104 3.448 26.788 3.448 26.788z" fill="#d6b496"/><path d="M127.196 141.305a8.294 8.294 0 1 1-16.588 0 8.294 8.294 0 0 1 16.588 0z" fill="#482315"/><path d="M118.517 146.829c-2.396-.198-4.234-2.615-4.016-5.272.214-2.657 2.422-4.736 4.819-4.535 2.395.197 4.231 2.611 4.019 5.268-.218 2.657-2.428 4.74-4.822 4.539z" fill="#7e3a22"/><path d="M118.723 145.87c-1.667-.141-3.396-1.971-3.213-4.223.188-2.26 2.189-3.785 3.856-3.648 1.668.141 3.394 1.978 3.21 4.231-.183 2.256-2.189 3.778-3.853 3.64z" fill="#211a10"/><path d="M148.042 196.192h.001-.001zm-3.664-2.76c-.104-.022-.208-.043-.311-.067.102.023.192.042.311.067zm-.806-.18c-.096-.025-.183-.052-.277-.078l-.01.004s.107.03.287.074zm4.47-.017h.001-.001z" fill="#ba907b"/><path d="M144.001 192.863c-.112-.024-.222-.045-.334-.071.11.024.206.045.334.071zm-.864-.193c-.103-.026-.196-.056-.297-.083l-.011.005s.115.031.308.078zm.616-.649c-.112-.024-.222-.045-.334-.071l.334.071zm-.864-.193c-.103-.026-.196-.056-.297-.083l-.011.004s.115.032.308.079zm1.634.078c-.108-.023-.215-.044-.322-.069.106.024.199.043.322.069zm-.835-.187c-.099-.025-.189-.053-.287-.08l-.01.005s.11.03.297.075z" fill="#bc917b"/><path d="M163.21 150.874s.193.056.626.236c.108-7.258.779-17.227 3.474-19.137 4.006-2.933 13.052-7.062 25.137 4.229 1.099-3.119 1.65-5.484 1.65-5.484-13.213-14.22-23.16-9.74-27.439-6.633-4.32 3.105-3.448 26.789-3.448 26.789z" fill="#d6b496"/><path d="M168.199 140.62a8.294 8.294 0 1 0 16.588 0 8.294 8.294 0 0 0-16.588 0z" fill="#482315"/><path d="M176.878 146.143c2.395-.197 4.234-2.614 4.016-5.271-.214-2.657-2.422-4.736-4.819-4.535-2.395.197-4.231 2.611-4.019 5.267.218 2.657 2.428 4.74 4.822 4.539z" fill="#7e3a22"/><path d="M176.671 145.185c1.668-.142 3.397-1.971 3.214-4.223-.188-2.26-2.189-3.785-3.857-3.648-1.667.141-3.393 1.978-3.209 4.231.183 2.256 2.189 3.778 3.852 3.64z" fill="#211a10"/><path d="M137.234 131.145c-.063-.098-1.593-2.423-4.719-4.82-1.958-1.503-3.879-2.646-5.869-3.498a30.394 30.394 0 0 0-7.552-2.081c-2.283-.254-4.814-.187-7.767.211-2.255.429-4.453 1.099-6.32 1.923-1.331.458-2.382 1.102-3.226 1.619-.324.199-.617.378-.914.538l-4.026 2.531 4.639-1.09c.217-.055.45-.116.702-.183.959-.254 2.154-.571 3.554-.776a19.92 19.92 0 0 0 1.002-.182c.583-.116 1.186-.237 1.819-.267.703-.047 1.431-.099 2.18-.153l.974-.07c2.569-.032 4.739.163 6.667.607a25.35 25.35 0 0 1 6.258 1.963c1.875.897 3.673 1.787 5.076 2.817 2.834 1.891 4.411 3.468 4.426 3.484a2.016 2.016 0 0 0 2.53.267c.933-.612 1.195-1.871.601-2.779l-.035-.061zm57.697-6.127a17.21 17.21 0 0 1-.883-.519c-.845-.518-1.896-1.161-3.187-1.604-1.905-.839-4.104-1.509-6.386-1.942-2.927-.394-5.459-.462-7.752-.206a30.42 30.42 0 0 0-7.543 2.081c-1.963.84-3.937 2.016-5.867 3.497-3.069 2.353-4.596 4.637-4.711 4.813l-.028.041a2.042 2.042 0 0 0 .263 2.539c.382.384.888.595 1.428.595h.001c.539 0 1.045-.212 1.425-.596l.017-.017c.149-.148 1.68-1.644 4.428-3.48 1.381-1.014 3.18-1.905 5.05-2.801a25.543 25.543 0 0 1 6.293-1.971c1.9-.438 4.074-.629 6.609-.602l1.023.073c.743.053 1.464.104 2.171.152.623.029 1.226.15 1.81.266.34.068.673.134 1.001.182 1.4.205 2.595.522 3.555.776.251.067.485.129.707.184l4.637 1.09-4.061-2.551z" fill="#030405"/><path d="M168.231 192.152c-5.848-1.707-20.922-4.793-20.922-4.793-10.958 1.675-19.495 4.725-19.558 4.793-.262.024 9.826 10.532 20.522 10.024 10.697.508 20.22-9.989 19.958-10.024z" fill="#c2646e"/><path d="M117.373 140.313c-.069.814-.905 1.409-1.863 1.33-.959-.081-1.683-.809-1.618-1.619.07-.818.9-1.413 1.859-1.335.963.078 1.687.806 1.622 1.624zm5.377 4.71c-.035.405-.452.704-.929.663-.482-.037-.842-.404-.811-.809.034-.405.452-.705.929-.664.482.038.846.401.811.81zm25.016 42.938v.013l-.11-.013-.108.013v-.013c-1.593.123-3.147-.15-4.58-.551l.004.003c-4.88-1.53-9.593 2.692-10.189 3.251-.363.357-.791.642-1.401.765l.24.489a4.378 4.378 0 0 0 4.985 2.329c2.671-.665 6.724-1.463 11.385-1.676v-4.601l-.226-.009zm.452 0v.013l.109-.013.108.013v-.013c1.594.123 3.148-.15 4.581-.551l-.005.003c4.88-1.53 9.594 2.692 10.189 3.251.363.357.791.642 1.401.765l-.24.489a4.377 4.377 0 0 1-4.985 2.329c-2.671-.665-6.724-1.463-11.384-1.676v-4.601l.226-.009z" fill="#fff"/><path d="M157.271 182.656s-1.581.616-3.425 1.115l.013.005s-.125.034-.335.086c-.191.049-.38.086-.575.132l-.361.077c-.322.069-.635.132-.95.181-.947.165-2.098.319-3.311.367h-.001c-.111.005-.223.005-.334.008-.112-.003-.224-.003-.335-.008h-.001a25.353 25.353 0 0 1-3.311-.367 16.972 16.972 0 0 1-.949-.181 37.158 37.158 0 0 1-.362-.077c-.195-.046-.384-.083-.575-.132a15.39 15.39 0 0 1-.334-.086l.012-.005c-1.843-.499-3.425-1.115-3.425-1.115-5.763-1.83-10.961 9.496-10.961 9.496h.001l.606.086c-.181.97.252-.342.252-.342.628 0 1.498-.338 2.271-.406.18-.009.346-.03.501-.061.576-.117.988-.38 1.338-.709l-.002.006.065-.062c.596-.559 5.309-4.781 10.189-3.251l-.004-.003c1.433.401 2.987.674 4.58.551v.013l.108-.013.11.013v-.013l.226.009.226-.009v.013l.109-.013.108.013v-.013c1.593.123 3.148-.15 4.581-.551l-.005.003c4.88-1.53 9.594 2.692 10.189 3.251l.065.062-.001-.006c.35.329.761.592 1.337.709.155.031.321.052.501.061.773.068 1.643.406 2.272.406 0 0 .432 1.312.251.342l.606-.086h.001s-5.198-11.326-10.961-9.496z" fill="#d67374"/><path d="M178.022 139.628c.069.813.905 1.409 1.863 1.33.959-.081 1.682-.809 1.618-1.619-.07-.818-.9-1.413-1.859-1.335-.963.078-1.687.805-1.622 1.624zm-5.378 4.71c.035.405.453.704.93.663.482-.037.842-.404.811-.809-.034-.405-.452-.705-.93-.664-.481.037-.845.401-.811.81zm-24.236 55.255v-.008l.066.007.065-.007v.008c.957-.074 1.891.089 2.752.331l-.002-.002c2.932.919 5.764-1.618 6.122-1.954.218-.214.475-.385.841-.459l-.144-.294a2.63 2.63 0 0 0-2.995-1.4c-1.605.4-4.04.88-6.84 1.007v2.765l.135.006zm-.271 0v-.008l-.066.007-.065-.007v.008c-.957-.074-1.891.089-2.752.331l.003-.002c-2.932.919-5.765-1.618-6.122-1.954a1.615 1.615 0 0 0-.842-.459l.144-.294a2.631 2.631 0 0 1 2.995-1.4c1.605.4 4.041.88 6.841 1.007v2.765l-.136.006z" fill="#fff"/><path d="M192.881 208.671c-.043-.323-.089-.664-.135-1.026-.063-1.487-.278-3.268-.173-5.289-.01-1.019.032-2.083.191-3.218.099-1.111.226-2.295.487-3.506.427-2.426 1.267-4.979 2.205-7.679 1.02-2.706 2.368-5.498 3.673-8.47 1.338-2.962 2.89-6.093 4.005-9.46.152-.418.29-.864.427-1.308-.571 15.001-4.058 25.404-6.471 31.675-1.098 2.861-2.632 5.717-4.209 8.281zm34.628-79.013c.056-9.19-1.161-19.569-4.943-30.697a136.453 136.453 0 0 0-2.742-7.286v-.994c0-9.744-8.627-22.375-22.335-34.654-13.716-12.261-22.339-9.737-33.694-9.386 0 0-.039.078-.092.2-4.985-1.066-31.802-6.374-47.751-.502C98.316 52.845 83.888 64 73.691 93.966c-10.183 29.954-1.821 54.491.148 64.965 6.263 33.15 36.291 54.14 36.291 54.14s-7.582-8.848-10.97-17.677c-2.632-6.852-6.56-18.621-6.56-35.943 0-17.329 17.139-38.774 17.139-38.774s-7.908 13.454-9.46 28.255c-1.581 14.796 6.711 26.241 6.711 26.241s-10.498-19.223 6.27-33.569c5.332-4.564 9.806-9.334 13.408-13.676l-.014.033c-4.209 11.335 4.242 20.865 4.242 20.865s-.156-14.548 8.595-19.491c21.316-12.037 24.706-17.011 27.709-26.703.409-1.325.639-2.54.798-3.725l19.481 28.025a108.69 108.69 0 0 1 4.135 5.952 114.686 114.686 0 0 1 3.158 5.147c.247.749.504 1.482.734 2.244a59.525 59.525 0 0 1 2.078 9.246c.194 1.179.303 2.367.388 3.561.123 1.977.113 3.958-.113 5.93-.099.741-.091 1.633-.229 2.295l-.441 2.523c-.371 1.519-.702 2.992-1.242 4.575-.212.629-.427 1.254-.639 1.886a194.843 194.843 0 0 1-2.614 7.398 316.1 316.1 0 0 1-.399 1.113 78.852 78.852 0 0 0-1.5 4.528c-1.249 4.209-2.036 8.326-1.958 12.028a27.76 27.76 0 0 0 .783 7.195c.367 2.116 1.143 3.877 1.616 5.335.297.766.611 1.418.893 1.98-3.049 4.75-6.009 8.208-6.009 8.208s2.939-2.054 7.166-5.89l.06.116-.021-.152c4.446-4.037 10.303-10.046 15.684-17.698a38.169 38.169 0 0 1-1.238 3.41c-5.409 12.821-6.496 28.923-3.254 37.865 3.254 8.941 11.193 18.48 11.193 18.48s-6.937-10.801-8.663-24.735c-2.614-21.132 14.337-38.525 14.337-59.514a17.4 17.4 0 0 0-.057-1.321c.409-1.545.78-3.108 1.083-4.711.65-3.451 1.994-8.44 3.137-14.64 13.571 15.577 28.606 12.144 28.606 12.144-13.151-4.617-21.644-19.372-26.644-31.772z" fill="#3a2f34"/></g></svg>