<svg viewBox="0 0 300 300" xmlns="http://www.w3.org/2000/svg" fill-rule="evenodd" clip-rule="evenodd" stroke-linejoin="round" stroke-miterlimit="1.414"><g fill-rule="nonzero"><path fill="#718faf" d="M.01.07h299.36v299.71H.01z"/><path d="M137.41 75.1l-.27.27.05.09c.09-.14.13-.27.22-.36z" fill="#432e1b"/><path d="M156.07 187.51v112.27H95.35c-.98-.41-1.48-.59-1.48-.59 0-10.29 1.07-18.93 2.88-26.22.7-2.88 1.53-5.55 2.43-8 2.12-5.78 4.71-10.47 7.51-14.28 7.41-10.08 16.15-13.99 20.88-15.45 2.14-.66 3.46-.82 3.46-.82.23 0 .43-.02.66-.06 1.05-.17 1.97-.74 2.82-1.65.7-.76 1.31-1.75 1.89-2.96.93-1.98 1.71-4.49 2.32-7.39.27-1.13.46-2.28.66-3.52.29-2.07.58-4.23.85-6.52.08-1.38.22-2.71.39-4.15.53-6.88.68-14.39.68-21.5 0 0 8.16.84 14.77.84z" fill="#e0bd9a"/><path d="M218.53 299.19s-.53.18-1.44.59h-61.02V187.51h.16c6.57 0 14.82-.84 14.82-.84 0 7.07.14 14.48.7 21.35.14 1.34.28 2.72.39 4.06.24 2.36.55 4.6.88 6.68v.04c.11.95.29 1.77.45 2.68.6 2.92 1.32 5.47 2.21 7.53.59 1.4 1.25 2.57 2.03 3.45.6.74 1.26 1.3 2 1.61.51.25 1.05.35 1.62.35 0 0 2.33.29 5.85 1.67 7.14 2.79 19.15 10.14 26.04 28.88.91 2.45 1.73 5.12 2.43 8 1.81 7.29 2.88 15.93 2.88 26.22z" fill="#efd0ad"/><path d="M173.03 218.54v.05c-1.54 2.36-6.68 9.14-16.85 9.14h-.1c-9.64-.05-15.27-7.03-16.7-9.09.29-2.06.59-4.22.84-6.48.09-1.33.24-2.7.39-4.13 4.7 1.18 9.83 1.92 15.27 2.02h.2c5.63-.1 10.82-.89 15.66-2.17.15 1.33.3 2.71.4 4.03.24 2.36.54 4.57.89 6.63z" fill="#be987f"/><path d="M155.39 59.56c-64.34 0-64.69 53.78-61.82 89-4.4-8.35-17.49-5.8-16.41 7.36 1.04 12.67 19.75 19.13 19.23 17.73 9.74 26.05 35.52 45.68 59 45.68h.49V59.56h-.49z" fill="#d2a686"/><path d="M81.27 150.37c3.16-5.11 8.1-2.9 9.29-1.77 1.28 1.23 2.32 2.8 1.53 5.8-.45 1.72-2.23 1.87-1.83 4.42.49 2.9 1.83 3.05 2.62 3.73.74.64 1.68 1.13 2.12 2.36.5 1.23.55 2.51.3 3.63-.5 2.07-3.51.4-5.54-.49-1.33-.63-5.58-4.22-6.67-5.4-2.66-3.04-3.95-8.94-1.82-12.28z" fill="#ac8774"/><path d="M155.73 59.56c64.34 0 64.68 53.78 61.87 89 4.39-8.35 17.44-5.8 16.35 7.36-.99 12.67-19.73 19.14-19.22 17.73-9.49 26.05-35.53 45.68-59 45.68h-.34l-.15-159.77h.49z" fill="#ddb598"/><path d="M229.85 150.37c-3.16-5.11-8.05-2.9-9.29-1.77-1.28 1.23-2.27 2.8-1.53 5.8.44 1.72 2.22 1.87 1.83 4.42-.5 2.9-1.83 3.05-2.57 3.73-.74.64-1.73 1.13-2.18 2.36-.44 1.23-.54 2.51-.29 3.63.49 2.07 3.51.4 5.53-.49 1.39-.63 5.59-4.22 6.67-5.4 2.72-3.04 3.96-8.94 1.83-12.28z" fill="#ac8774"/><path d="M154.88 74.74c-21.15 0-36.67 6.14-46 18.22-13.1 16.94-12.6 42.78-7.81 61.34 1.48 5.7 2.27 20.97 3.26 26.57 4.59 25.1 32.32 38.46 50.55 38.46h.49V74.74h-.29" fill="#e0bd9a"/><path d="M200.83 93.01c-9.29-12.03-24.6-18.17-45.46-18.27v144.59c20.86-.25 45.81-14.88 50.06-38.46 1.04-5.6 1.78-20.87 3.26-26.57 4.84-18.51 5.34-44.3-7.86-61.29z" fill="#efd0ad"/><path d="M152 193.7c-.1-.03-.2-.04-.3-.07.09.02.18.04.3.07zm-.79-.18c-.09-.02-.17-.05-.27-.07h-.01s.11.03.28.07z" fill="#bc917b"/><path d="M152.17 190.76c-.1-.02-.2-.04-.31-.06.1.02.19.04.31.06zm-.8-.18c-.1-.02-.18-.05-.28-.07h-.01s.11.03.29.07z" fill="#ba907b"/><path d="M144.31 172.4c-.25-5.13 9.43-1.88 12.62-1.72 2.52.13 10.19-1.61 10.85-1.16 4.51 3.04-4.78 9.17-11.01 9.17-1.66 0-12.31-3.2-12.46-6.29z" fill="#dcb497"/><path d="M152.31 193.14c-.11-.02-.21-.04-.31-.07.1.02.19.04.31.07zm-.81-.18c-.1-.03-.18-.05-.28-.08h-.01l.29.08z" fill="#ba907b"/><path d="M151.93 192.57c-.11-.02-.22-.05-.33-.07.11.02.2.04.33.07zm-.86-.19c-.11-.03-.2-.06-.3-.09l-.01.01s.11.03.31.08zm.61-.65zm-.86-.2c-.11-.02-.2-.05-.3-.08l-.01.01s.11.03.31.07zm1.63.08zm-.83-.18c-.1-.03-.19-.06-.29-.08h-.01l.3.08z" fill="#bc917b"/><path d="M149.33 200.17c-.1-.03-.21-.05-.31-.07.1.02.19.04.31.07zm-.8-.18c-.1-.03-.18-.05-.28-.08h-.01l.29.08zm.57-.6c-.1-.03-.21-.05-.31-.07.1.02.19.04.31.07zm-.8-.18c-.09-.03-.18-.06-.28-.08h-.01l.29.08zm1.51.07c-.1-.02-.19-.04-.29-.07.09.03.18.04.29.07zm-.77-.17c-.09-.03-.17-.05-.27-.08v.01s.1.02.27.07z" fill="#be927b"/><path d="M143.08 201.67c-.25-3.19 8.91.68 11.91.77 2.4.08 9.6-.48 10.27-.73 5.03-1.88-.28 5.35-10.42 5.73-4.64.18-11.63-3.82-11.76-5.77z" fill="#f0d2ad"/><path d="M173.24 193.99c-5.8-1.09-18.03.07-18.03.07-10.08 1.68-17.97-.1-18.03-.04-.24.03 8.05 11.03 17.89 10.52 9.85.51 18.41-10.52 18.17-10.55z" fill="#c2646e"/><path d="M161.04 191.67c-2.61-.29-4.48 1.59-5.82 1.46-1.36.12-3.14-1.09-5.77-1.11-3.7-.04-5.5-.36-12.27 2 .24.47 4.58 2.98 12.7 3.11.11 0 2.29 1.24 5.39 1.22 1.94-.01 4.6-1.31 4.7-1.31 8.13-.12 13.1-2.54 13.33-2.99-8.95-2.77-8.24-2.42-12.26-2.38z" fill="#d87475"/><path d="M109.22 130.78s4.91 20.2 13.34 21.84c8.42 1.65 17.54-1.62 17.54-1.62s.87-23.74-3.44-26.84c-4.31-3.12-14.25-7.62-27.44 6.62z" fill="#fff"/><path d="M140.11 150.93s-.19.06-.62.24c-.11-7.28-.78-17.28-3.48-19.2-4-2.94-13.05-7.08-25.13 4.25-1.1-3.13-1.65-5.51-1.65-5.51 13.21-14.26 23.16-9.77 27.44-6.65 4.31 3.12 3.44 26.87 3.44 26.87z" fill="#d6b496"/><path d="M135.12 140.65c0 4.59-3.71 8.32-8.29 8.32-4.58 0-8.29-3.73-8.29-8.32 0-4.6 3.71-8.32 8.29-8.32 4.58 0 8.29 3.72 8.29 8.32z" fill="#482315"/><path d="M126.44 146.19c-2.39-.2-4.23-2.62-4.01-5.29.21-2.67 2.42-4.75 4.82-4.55 2.39.2 4.23 2.62 4.02 5.29-.22 2.66-2.43 4.75-4.83 4.55z" fill="#7e3a22"/><path d="M126.65 145.23c-1.67-.14-3.4-1.98-3.21-4.24.19-2.27 2.19-3.8 3.85-3.66 1.67.14 3.4 1.99 3.21 4.25-.18 2.26-2.19 3.78-3.85 3.65z" fill="#211a10"/><path d="M125.3 135.54c-.07.81-.9 1.41-1.86 1.33-.96-.08-1.68-.81-1.62-1.62.07-.82.9-1.42 1.86-1.34.96.08 1.69.81 1.62 1.63zm5.38 8.84c-.04.4-.45.7-.93.66-.48-.04-.84-.4-.81-.81.03-.41.45-.71.93-.67.48.04.84.41.81.82zm71.35-14.29s-4.91 20.2-13.33 21.85c-8.43 1.64-17.55-1.63-17.55-1.63s-.87-23.74 3.44-26.84c4.31-3.12 14.25-7.62 27.44 6.62z" fill="#fff"/><path d="M171.14 150.25s.19.05.62.23c.11-7.28.78-17.28 3.48-19.19 4-2.95 13.05-7.09 25.14 4.24 1.09-3.13 1.64-5.5 1.64-5.5-13.21-14.27-23.16-9.77-27.43-6.66-4.32 3.12-3.45 26.88-3.45 26.88z" fill="#d6b496"/><path d="M176.13 139.96c0 4.6 3.71 8.32 8.29 8.32 4.58 0 8.29-3.72 8.29-8.32 0-4.59-3.71-8.32-8.29-8.32-4.58 0-8.29 3.73-8.29 8.32z" fill="#482315"/><path d="M184.81 145.5c2.39-.2 4.23-2.62 4.01-5.29-.21-2.66-2.42-4.75-4.82-4.55-2.39.2-4.23 2.62-4.02 5.29.22 2.66 2.43 4.75 4.83 4.55z" fill="#7e3a22"/><path d="M184.6 144.54c1.67-.14 3.4-1.98 3.21-4.24-.18-2.26-2.19-3.79-3.85-3.66-1.67.15-3.4 1.99-3.21 4.25.18 2.26 2.19 3.79 3.85 3.65z" fill="#211a10"/><path d="M185.95 138.96c.07.82.9 1.42 1.86 1.34.96-.08 1.69-.81 1.62-1.62-.07-.83-.9-1.42-1.86-1.34-.96.07-1.69.8-1.62 1.62zm-5.38 4.73c.04.41.45.71.93.67.48-.04.84-.41.81-.82-.03-.4-.45-.7-.93-.66-.48.03-.84.4-.81.81z" fill="#fff"/><path d="M145.16 130.46c-.06-.1-1.59-2.44-4.72-4.84-1.96-1.51-3.87-2.65-5.87-3.51a30.429 30.429 0 0 0-7.55-2.09c-2.28-.25-4.81-.18-7.77.22-2.25.43-4.45 1.1-6.31 1.92-1.34.46-2.39 1.11-3.23 1.63-.32.2-.62.38-.92.54l-4.02 2.54 4.64-1.1c.21-.05.45-.11.7-.18.96-.25 2.15-.57 3.55-.78.33-.05.67-.11 1.01-.18.58-.12 1.18-.24 1.81-.27.71-.05 1.44-.1 2.19-.15l.97-.07c2.57-.03 4.74.16 6.67.61a24.8 24.8 0 0 1 6.25 1.97c1.88.9 3.68 1.79 5.08 2.82 2.83 1.9 4.41 3.48 4.43 3.5a2.022 2.022 0 0 0 2.53.26c.93-.61 1.19-1.87.6-2.78l-.04-.06zm57.7-6.15c-.27-.14-.56-.32-.88-.52-.85-.52-1.9-1.17-3.19-1.61-1.91-.84-4.1-1.51-6.39-1.95-2.92-.39-5.46-.46-7.75-.2-2.51.34-5.12 1.06-7.54 2.08-1.96.85-3.94 2.03-5.87 3.51-3.07 2.36-4.59 4.65-4.71 4.83l-.03.04c-.52.8-.4 1.87.27 2.55.38.38.88.59 1.42.59.54 0 1.05-.21 1.43-.59l.02-.02c.15-.15 1.68-1.65 4.42-3.49 1.38-1.02 3.18-1.91 5.05-2.81 2-.93 4.16-1.61 6.3-1.98 1.9-.44 4.07-.63 6.61-.6l1.02.07c.74.05 1.46.1 2.17.15.62.03 1.23.15 1.81.27.34.07.67.13 1 .18 1.4.21 2.6.53 3.56.78.25.07.48.13.7.19l4.64 1.09-4.06-2.56z" fill="#030405"/><path d="M208.88 284.56c.09 6.6.31 11.71.52 15h-53.33V245.2c1.34.04 2.71-.04 4.11-.31 5.52-1.03 11.5-4.59 17.53-12.43.6.75 1.26 1.3 2 1.61.51.25 1.05.35 1.62.35 0 0 2.33.29 5.85 1.67 2.05.8 4.52 1.99 7.16 3.7 6.48 4.28 13.99 11.85 18.88 25.18.91 2.45 1.73 5.13 2.43 8.01h-6.75c-.06 4.25-.06 8.12-.02 11.58z" fill="#c6282f"/><path d="M156.07 245.2v54.36h-53.23c.21-3.29.43-8.4.54-15 .04-3.48.04-7.33 0-11.58h-6.63c.7-2.88 1.53-5.56 2.43-8.01 2.12-5.78 4.71-10.47 7.51-14.28 3.85-5.22 8.04-8.8 11.85-11.21v-.02c3.54-2.24 6.75-3.52 9.03-4.22 2.14-.66 3.46-.82 3.46-.82.23 0 .43-.02.66-.06 1.05-.17 1.97-.74 2.82-1.65 2.57 3.17 10.88 12.18 21.56 12.49z" fill="#ee3336"/><path d="M137.97 285.07l11.06-6.96.16-.11c.99-.66 1.59-1.79 1.59-3a3.607 3.607 0 0 0-1.83-3.15l-6.36-4-4.39-2.76-.31-.2-.15-.09v.01l-.07-.06c-.53-.37-1.23-.55-1.92-.55-1.99 0-3.63 1.63-3.63 3.64v14.34c0 2.01 1.64 3.63 3.63 3.63 1.01 0 1.91-.54 2.22-.74z" fill="#878633"/><path d="M175.92 285.81c2 0 3.63-1.62 3.63-3.63v-14.34c0-2.01-1.63-3.64-3.63-3.64-.68 0-1.38.18-1.91.55l-.07.06-.01-.01-.13.09-.31.2-4.4 2.76-6.36 4c-.09.05-.18.11-.27.17-.98.67-1.56 1.79-1.56 2.98 0 1.21.6 2.34 1.58 3l.17.11 11.06 6.96c.31.2 1.22.74 2.21.74z" fill="#605e27"/><path d="M233.63 181.02c19.69-29.08 3.27-84.22 3.27-84.22l-.36.39c-5.06-17.37-13.5-26.76-13.5-26.76v.01c-4.09-5.88-9.91-12.05-17.02-18.13-14.58-12.45-23.75-9.89-35.82-9.53l-.1.2c-5.3-1.08-33.79-6.47-50.75-.51-18.74 6.61-34.08 17.93-44.91 48.34a90.086 90.086 0 0 0-4.86 21.85c-.26-.24-.41-.37-.41-.37s-11.5 56.52 10.66 83.53c0 0-5.33-16.26-2.59-29.51 9.98 28.07 35.92 45.4 35.92 45.4s-8.05-8.98-11.66-17.94c-2.79-6.96-6.97-18.9-6.97-36.49 0-17.58 18.22-39.35 18.22-39.35s-8.41 13.65-10.06 28.68c-1.67 15.02 7.14 26.63 7.14 26.63s-1.76-17.83 4.4-32.03c3.1-7.13 8.18-13.35 16.51-15.92l-.01.03c-4.48 11.51 4.51 21.18 4.51 21.18s.03-2.89.92-7.34c2.3-11.52 10.36-33.54 38.51-43.33l.87 1.2 19.83 27.25c.98 1.24 2.56 3.33 4.4 6.04 5.37 7.88 12.79 20.8 12.79 32.04 0 17.58-4.17 29.52-6.97 36.48-3.6 8.96-11.66 17.95-11.66 17.95s23.94-15.99 34.67-42.15v.02c2.6-5.86 4.68-11.5 6.33-16.92 1.45 11.45-1.3 23.28-1.3 23.28z" fill="#f7931d"/><path d="M194.34 239.79c-13.89 14.87-27 19.71-38.27 19.57-22.32-.23-37.53-19.88-37.53-19.88v-.02c3.54-2.24 6.75-3.52 9.03-4.22 2.14-.66 3.46-.82 3.46-.82.23 0 .43-.02.66-.06 1.05-.17 1.97-.74 2.82-1.65 2.57 3.17 10.88 12.18 21.56 12.49 1.34.04 2.71-.04 4.11-.31 5.52-1.03 11.5-4.59 17.53-12.43.6.75 1.26 1.3 2 1.61.51.25 1.05.35 1.62.35 0 0 2.33.29 5.85 1.67 2.05.8 4.52 1.99 7.16 3.7z" fill="#605e27"/></g></svg>