<svg viewBox="0 0 300 301" xmlns="http://www.w3.org/2000/svg" fill-rule="evenodd" clip-rule="evenodd" stroke-linejoin="round" stroke-miterlimit="1.414"><g fill-rule="nonzero"><path fill="#5c4c52" d="M.04.16h299.359v299.705H.04z"/><path d="M157.32 187.978v112.621H96.6l-1.49-.596c0-14.376 2.11-25.585 5.31-34.325 7.73-21.096 21.88-27.796 28.4-29.816 2.13-.664 3.45-.823 3.45-.823.23 0 .45-.021.67-.057 1.91-.308 3.46-1.974 4.71-4.632.92-1.975 1.7-4.494 2.33-7.409.25-1.137.44-2.283.64-3.522.3-2.083.59-4.263.85-6.545.09-1.389.24-2.726.39-4.165.54-6.89.69-14.433.69-21.574 0 0 8.16.843 14.77.843z" fill="#e0bd9a"/><path d="M219.78 300.003s-.54.2-1.43.596h-61.03V187.978h.15c6.57 0 14.83-.843 14.83-.843 0 7.09.14 14.53.69 21.425.15 1.342.29 2.725.39 4.067.25 2.38.55 4.612.89 6.694v.046c.1.946.3 1.79.45 2.679.6 2.931 1.33 5.507 2.2 7.574 1.1 2.57 2.42 4.365 4.03 5.074.52.232 1.06.345 1.63.345 0 0 2.33.283 5.84 1.661 7.15 2.807 19.16 10.175 26.05 28.978 3.21 8.74 5.31 19.949 5.31 34.325z" fill="#efd0ad"/><path d="M174.27 219.111v.049c-1.53 2.365-6.67 9.163-16.85 9.163h-.09c-9.64-.049-15.27-7.045-16.71-9.114.3-2.069.6-4.237.84-6.503.1-1.33.25-2.71.4-4.138a67.584 67.584 0 0 0 15.27 2.019h.2a65.264 65.264 0 0 0 15.66-2.167c.15 1.33.3 2.709.39 4.04.25 2.364.55 4.581.89 6.651z" fill="#be987f"/><path d="M156.63 59.635c-64.33 0-64.68 53.947-61.81 89.271-4.4-8.376-17.5-5.814-16.41 7.39 1.04 12.71 19.75 19.188 19.22 17.785 9.75 26.124 35.53 45.818 59 45.818h.5V59.635h-.5z" fill="#d2a686"/><path d="M82.51 150.728c3.17-5.123 8.11-2.906 9.29-1.773 1.29 1.231 2.33 2.808 1.53 5.813-.44 1.725-2.22 1.872-1.82 4.434.49 2.907 1.82 3.055 2.62 3.745.74.64 1.68 1.133 2.12 2.365.49 1.231.54 2.512.3 3.645-.5 2.07-3.51.394-5.54-.492-1.33-.641-5.58-4.237-6.67-5.42-2.67-3.054-3.95-8.966-1.83-12.317z" fill="#ac8774"/><path d="M156.98 59.635c64.34 0 64.68 53.947 61.86 89.271 4.4-8.376 17.45-5.814 16.36 7.39-.99 12.71-19.73 19.193-19.22 17.785-9.49 26.124-35.53 45.818-59 45.818h-.35l-.15-160.264h.5z" fill="#ddb598"/><path d="M231.1 150.728c-3.16-5.123-8.06-2.906-9.29-1.773-1.29 1.231-2.27 2.808-1.53 5.813.44 1.725 2.22 1.872 1.83 4.434-.5 2.907-1.83 3.055-2.57 3.745-.74.64-1.73 1.133-2.18 2.365-.44 1.231-.54 2.512-.29 3.645.49 2.07 3.5.394 5.53-.492 1.38-.641 5.58-4.237 6.67-5.42 2.72-3.054 3.95-8.966 1.83-12.317z" fill="#ac8774"/><path d="M156.13 74.858c-21.15 0-36.67 6.158-46.01 18.278-13.09 16.997-12.6 42.911-7.8 61.534 1.48 5.715 2.27 21.037 3.26 26.653 4.59 25.175 32.31 38.576 50.55 38.576h.49V74.858h-.49z" fill="#e0bd9a"/><path d="M202.08 93.185c-9.29-12.07-24.61-18.229-45.46-18.327v145.041c20.85-.246 45.81-14.928 50.06-38.576 1.03-5.616 1.78-20.938 3.26-26.653 4.84-18.574 5.33-44.439-7.86-61.485z" fill="#efd0ad"/><path d="M153.25 194.188c-.1-.022-.21-.042-.31-.065.1.022.19.041.31.065zm-.79-.176c-.09-.024-.18-.051-.27-.076l-.01.004.28.072z" fill="#bc917b"/><path d="M144.35 175.372c-.25-5.012 9.17-1.831 12.28-1.675 2.45.126 9.92-1.579 10.56-1.14 4.4 2.972-4.65 8.957-10.72 8.957-1.61 0-11.98-3.119-12.12-6.142z" fill="#ddb598"/><path d="M138.66 75.22l-.27.268.05.09c.09-.134.13-.268.22-.358z" fill="#432e1b"/><path d="M153.42 191.245c-.1-.022-.21-.042-.31-.066.1.023.19.042.31.066zm-.8-.18c-.1-.025-.19-.052-.28-.078l-.01.004s.11.03.29.074z" fill="#ba907b"/><path d="M110.47 131.468s4.91 20.199 13.33 21.847c8.43 1.647 17.55-1.629 17.55-1.629s.87-23.737-3.44-26.839c-4.31-3.115-14.25-7.616-27.44 6.621z" fill="#fff"/><path d="M141.36 151.624s-.19.056-.63.237c-.1-7.28-.77-17.281-3.47-19.197-4-2.942-13.05-7.084-25.14 4.243-1.09-3.13-1.65-5.502-1.65-5.502 13.22-14.264 23.16-9.77 27.44-6.653 4.32 3.114 3.45 26.872 3.45 26.872z" fill="#d6b496"/><path d="M136.37 141.338c0 4.595-3.71 8.32-8.29 8.32-4.58 0-8.3-3.725-8.3-8.32 0-4.594 3.72-8.319 8.3-8.319s8.29 3.725 8.29 8.319z" fill="#482315"/><path d="M127.69 146.879c-2.39-.198-4.23-2.623-4.01-5.289.21-2.665 2.42-4.75 4.82-4.549 2.39.198 4.23 2.62 4.02 5.285-.22 2.665-2.43 4.755-4.83 4.553z" fill="#7e3a22"/><path d="M127.9 145.917c-1.67-.141-3.4-1.976-3.21-4.236.18-2.267 2.19-3.797 3.85-3.659 1.67.141 3.4 1.984 3.21 4.244-.18 2.263-2.19 3.789-3.85 3.651z" fill="#211a10"/><path d="M126.55 140.343c-.07.816-.91 1.413-1.86 1.334-.96-.081-1.69-.812-1.62-1.624.07-.82.9-1.417 1.86-1.338.96.077 1.68.808 1.62 1.628zm5.38 4.725c-.04.406-.46.706-.93.665-.48-.037-.84-.406-.81-.812.03-.406.45-.706.93-.665.48.037.84.402.81.812z" fill="#fff"/><path d="M153.55 193.628c-.1-.023-.2-.043-.31-.067.1.023.19.042.31.067zm-.8-.181c-.1-.025-.18-.052-.28-.078l-.01.005s.11.029.29.073z" fill="#ba907b"/><path d="M157.1 190.592h.01-.01zm-3.92 2.465c-.11-.024-.23-.045-.34-.071.11.024.21.045.34.071zm-.87-.193c-.1-.027-.19-.056-.29-.083l-.01.004s.11.031.3.079zm4.79-.018h.01-.01zm-4.17-.633c-.11-.024-.22-.046-.33-.072.11.025.2.045.33.072zm-.87-.194c-.1-.026-.19-.056-.29-.083l-.01.004s.11.032.3.079zm1.64.078c-.11-.023-.22-.044-.32-.069.1.024.2.043.32.069zm-.84-.187l-.28-.08-.01.004s.11.03.29.076z" fill="#bc917b"/><path d="M203.28 130.781s-4.91 20.199-13.34 21.847c-8.42 1.647-17.54-1.629-17.54-1.629s-.87-23.737 3.44-26.839c4.31-3.115 14.25-7.617 27.44 6.621z" fill="#fff"/><path d="M172.39 150.936s.19.056.62.237c.11-7.28.78-17.28 3.48-19.196 4-2.942 13.05-7.084 25.13 4.242 1.1-3.129 1.65-5.502 1.65-5.502-13.21-14.263-23.16-9.77-27.44-6.652-4.32 3.114-3.44 26.871-3.44 26.871z" fill="#d6b496"/><path d="M177.38 140.651c0 4.595 3.71 8.32 8.29 8.32 4.58 0 8.29-3.725 8.29-8.32 0-4.594-3.71-8.319-8.29-8.319-4.58 0-8.29 3.725-8.29 8.319z" fill="#482315"/><path d="M186.05 146.192c2.4-.198 4.24-2.623 4.02-5.289-.21-2.665-2.42-4.751-4.82-4.549-2.39.198-4.23 2.619-4.02 5.284.22 2.666 2.43 4.755 4.82 4.554z" fill="#7e3a22"/><path d="M185.85 145.23c1.66-.142 3.39-1.977 3.21-4.236-.19-2.267-2.19-3.797-3.86-3.66-1.66.142-3.39 1.985-3.2 4.245.18 2.263 2.18 3.789 3.85 3.651z" fill="#211a10"/><path d="M187.2 139.656c.07.816.9 1.413 1.86 1.334.96-.082 1.68-.812 1.62-1.624-.07-.82-.9-1.417-1.86-1.339-.96.078-1.69.808-1.62 1.629zm-5.38 4.724c.04.407.45.707.93.666.48-.038.84-.406.81-.812-.03-.407-.45-.707-.93-.666-.48.037-.84.403-.81.812z" fill="#fff"/><path d="M146.41 131.146c-.06-.098-1.59-2.431-4.72-4.835-1.96-1.507-3.88-2.654-5.87-3.508a30.21 30.21 0 0 0-7.55-2.088c-2.28-.255-4.81-.187-7.77.211-2.25.431-4.45 1.103-6.32 1.929-1.33.46-2.38 1.105-3.22 1.625-.33.199-.62.379-.92.54l-4.02 2.538 4.64-1.093c.21-.055.45-.117.7-.184.96-.255 2.15-.573 3.55-.778.33-.048.66-.115 1-.183.59-.117 1.19-.237 1.82-.267.71-.048 1.43-.1 2.18-.154l.98-.07c2.57-.032 4.74.163 6.66.608 2.11.365 4.28 1.046 6.26 1.969 1.88.901 3.68 1.794 5.08 2.826 2.83 1.897 4.41 3.48 4.42 3.495a2.017 2.017 0 0 0 2.53.268c.94-.613 1.2-1.877.61-2.788l-.04-.061zm57.7-6.145c-.27-.142-.56-.322-.89-.522-.84-.519-1.89-1.164-3.18-1.609-1.91-.841-4.11-1.513-6.39-1.948-2.93-.395-5.46-.463-7.75-.206a30.327 30.327 0 0 0-7.54 2.087c-1.97.843-3.94 2.023-5.87 3.508-3.07 2.36-4.6 4.652-4.71 4.828l-.03.042c-.52.8-.41 1.871.26 2.546.38.386.89.598 1.43.598a2 2 0 0 0 1.43-.599l.01-.016c.15-.149 1.68-1.65 4.43-3.491 1.38-1.017 3.18-1.912 5.05-2.81a25.423 25.423 0 0 1 6.29-1.977c1.91-.44 4.08-.632 6.61-.605l1.03.074c.74.053 1.46.104 2.17.152.62.03 1.22.15 1.81.267.34.068.67.135 1 .183 1.4.205 2.59.523 3.55.778.25.067.49.13.71.185l4.64 1.093-4.06-2.558z" fill="#030405"/><path d="M152.1 196.019c-.11-.023-.22-.044-.33-.07.11.024.2.044.33.07zm-.85-.189c-.1-.026-.19-.054-.29-.081l-.01.004.3.077z" fill="#be927b"/><path d="M144.73 200.186c-.24-3.247 9.02.68 12.06.774 2.43.082 9.71-.481 10.39-.739 5.09-1.911-.28 5.429-10.54 5.815-4.7.188-11.77-3.881-11.91-5.85z" fill="#f0d2ad"/><path d="M174.88 193.925c-2.51-.124-5.1 1.978-8.12 1.657-.12-.062-.18-.062-.31-.062-.7-.123-1.39 0-2.14.185-.94.198-1.89.58-2.77.889-1.51.493-3.22.888-4.97.752v.012l-.1-.012-.09.012v-.012c-1.76.136-3.46-.259-4.97-.752-.89-.309-1.83-.691-2.77-.889-.76-.185-1.45-.308-2.14-.185-.13 0-.19 0-.32.062-3.02.321-5.6-1.781-8.11-1.657-.7.062-1.71-.124-2.27-.124.12.062.25.124.38.186 7.17 3.503 13.35 10.067 20.2 9.857h.19c6.85.21 13.03-6.354 20.2-9.857.13-.062.25-.124.38-.186-.57 0-1.58.186-2.27.124z" fill="#dcbf9e"/><path d="M176.98 193.725h.01s-7.29-2.815-12.47-1.164c0 0-1.93.755-3.93 1.215-1.22.475-2.69.613-4.12.556a23.041 23.041 0 0 1-2.98-.332c-.28-.043-.56-.101-.85-.163-.12-.026-.22-.046-.32-.07-.18-.041-.35-.074-.52-.119-.19-.046-.3-.077-.3-.077l.01-.004a33.641 33.641 0 0 1-3.08-1.006c-5.18-1.651-12.47 1.164-12.47 1.164-.1.046-.16.076-.16.076.56 0 1.57.186 2.27.124 2.51-.124 5.09 1.978 8.11 1.657.13-.062.19-.062.32-.062.69-.124 1.38 0 2.14.185.94.198 1.88.58 2.77.889 1.51.493 3.21.888 4.97.752v.012l.09-.012.1.012v-.012c1.75.136 3.46-.259 4.97-.752.88-.309 1.83-.691 2.77-.889.75-.185 1.44-.309 2.14-.185.13 0 .19 0 .31.062 3.02.321 5.61-1.781 8.12-1.657.69.062 1.7-.124 2.27-.124 0 0-.06-.03-.17-.076z" fill="#c69f83"/><path d="M144.23 195.439c.14.034 13.66 4.164 24.23.09l-1.21-.822h-14.3l-8.72.732z" fill="#c69f83"/><path d="M102.37 252.905s-8.97 19.209-8.86 30.47h11.43c-.04 7.723-.28 13.599-.52 17.224h52.97l-52.38-50.973a50.578 50.578 0 0 0-2.64 3.279z" fill="#739c5a"/><path d="M221.37 283.375c.41-17.226-8.72-30.47-8.72-30.47-3.1-4.266-6.48-7.5-9.83-9.966-.26-.259-.59-.475-.88-.694-4.41-3.184-8.62-4.987-11.72-6.004-.61-.219-1.17-.385-1.67-.56-2.27-.627-3.68-.755-3.68-.755-1.24 0-2.36-.475-3.33-1.283l-.05-.042c-.33-.307-.66-.67-.96-1.064-.15.087-.38.436-.62 1.106-.64 1.554-3.41 7.492-7.54 12.924l37.82 36.808h11.18z" fill="#77c043"/><path d="M210.64 300.597h-53.25l-52.38-50.963c2.32-2.675 4.71-4.856 7.1-6.625l.18-.144c.23-.226.5-.391.7-.535.78-.555 1.56-1.07 2.33-1.564 3.45-2.201 6.72-3.6 9.27-4.485.6-.205 1.16-.391 1.67-.514 2.41-.679 3.89-.844 3.89-.844 1.25 0 2.37-.473 3.33-1.275l.04-.041c.31-.288.64-.659.95-1.029l.04-.041c.08.041.17.144.27.329l.02.041c.1.185.21.432.31.741 1.25 3.024 10.64 22.837 22.4 22.817.27 0 .54-.021.81-.041 5.41-.412 10.28-4.918 14.05-9.856l37.81 36.808h-.12c.04 7.715.31 13.599.58 17.221z" fill="#5fbb46"/><path d="M202.51 300.597h-32.49l-57.73-57.732c.23-.226.5-.391.7-.535.78-.555 1.56-1.07 2.33-1.564 3.45-2.201 6.72-3.6 9.27-4.485.6-.205 1.16-.391 1.67-.514 2.41-.679 3.89-.844 3.89-.844 1.25 0 2.37-.473 3.33-1.275l.04-.041c.31-.288.64-.659.95-1.029l.31.288.02.041c.1.185.21.432.31.741 1.25 3.024 10.64 22.837 22.4 22.817.27 0 .54-.021.81-.041l44.19 44.173z" fill="#135b2e"/><path d="M174.53 77.379c-.08-.112-.16-.241-.25-.349l.28.281-.03.068zm40.33-17.56c-7.17-10.416-24.75-19.642-47.34-22.403-22.59-2.757-42.26 13.281-42.26 13.281s-3.5-5.216-6.49-6.751c-2.99-1.531-11.58.293-11.58.293s5.82 1.644 6.97 3.179c2.17 2.885 1.16 5.634 1.16 5.634s-6.81-2.962-9.8-3.031c-5.47-.156-11.61 6.804-11.61 6.804s5.13-3.629 10.02-3.488c1.61.044 6.05 2.162 6.05 2.162s-8.09.86-23.25 17.516c-11.45 12.562-11.45 29.166-11.45 29.166l9.59-5.513s-2.48 2.913-3.7 5.946c-7.06 17.637 2.6 35.327 2.6 35.327s3.16.317 6.04 7.104c3.9 9.194 6.35 20.584 6.35 20.584h3.37s-7.27-28.388-2.37-43.847c1.19-3.725 4.13-10.888 8.27-12.805-.68 24.657 7.91 48.378 7.91 48.378.5-86.494 50.84-75.715 52-75.453 3.14 3.687 5.27 8.217 6.5 11.398 2.62 6.739 1.27 10.11 1.27 10.11s5.09-8.274 4.49-16.559c-.18-2.652-.73-4.699-1.37-6.297 1.56.787 5.08 1.317 6.48 19.035.66 8.39-4.59 12.344-4.59 12.344s17.78-3.857 14.31-25.388c0 0 39.37 20.652 20.81 79.084h3.37s2.44-11.39 6.34-20.584c0 0 37.42-25.893-8.09-85.226z" fill="#f0f0f0"/></g><path d="M212.72 151.571c-.04-.021-.07-.042-.11-.063l-.27-.145a48.51 48.51 0 0 0-1.44-.748c1.31-6.135 2.13-12.876 2.16-19.725 1.24 1.524 2.33 3.909 2.33 7.592 0 .867-.05 1.806-.19 2.823v.026c-.03.282-.31 2.814-1.2 6.181-.01.019-.01.038-.02.057v.012c-.01.016-.01.031-.01.048 0 .003-.01.007-.01.01 0 .016-.01.031-.01.047v.021c-.01.012-.01.026-.02.038v.018c0 .013-.01.026-.01.039 0 .009-.01.019-.01.029 0 .008 0 .016-.01.024v.035c-.01.006-.01.013-.01.02-.32 1.15-.7 2.388-1.17 3.661z" fill="url(#a)"/><path d="M169.86 154.278c-1.12-2.049-2.13-4.401-3.01-7.103 0-.014-.01-.028-.01-.041 0-.009-.01-.019-.01-.027a59.61 59.61 0 0 1-.86-2.952s-.85-2.286-.85-5.126c0-2.192.51-4.715 2.31-6.772-.01.536.19 1.072.58 1.47.38.386.89.598 1.43.598a2 2 0 0 0 1.43-.599l.01-.016c.11-.102.86-.845 2.22-1.898-1.12 8.02-.71 19.124-.71 19.124l.01.003v.06s.64.232 1.75.541a49.978 49.978 0 0 0-4.15 2.64c-.05.033-.1.065-.14.099v-.001zm41.04-3.663c-4.01-1.998-8.7-3.623-13.88-4.176 4.03-6.487 6.26-15.658 6.26-15.658-.01-.006-.01-.012-.02-.018.01-.03.01-.046.01-.046-1.83-1.978-3.6-3.595-5.3-4.905 3.73.358 7.62 1.145 11.53 2.55 0 0 1.92.502 3.56 2.528-.03 6.849-.85 13.59-2.16 19.725z" fill="url(#b)"/><path d="M174.15 151.54c-1.11-.309-1.75-.541-1.75-.541v-.06c.04.013.23.075.61.234.11-7.28.78-17.28 3.48-19.196 1.99-1.466 5.24-3.229 9.49-3.229 4.28 0 9.58 1.788 15.64 7.471 1.01-2.876 1.56-5.114 1.64-5.456.01.006.01.012.02.018 0 0-2.23 9.171-6.26 15.658-1.24-.132-2.5-.203-3.79-.204h-.02l-.02.001c-.47 0-.93.009-1.4.028a8.296 8.296 0 0 0 2.17-5.613c0-4.594-3.71-8.319-8.29-8.319-4.58 0-8.29 3.725-8.29 8.319a8.318 8.318 0 0 0 4.53 7.418c-2.53.83-5.12 1.969-7.76 3.471z" fill="url(#c)"/><path d="M173.01 151.173a8.027 8.027 0 0 0-.61-.234l-.01-.003s-.41-11.104.71-19.124c.62-.478 1.36-1.019 2.21-1.593 1.38-1.017 3.18-1.912 5.05-2.81.74-.341 1.49-.649 2.26-.92 3.06-.537 6.54-.917 10.27-.917 1.65 0 3.35.074 5.08.24 1.7 1.31 3.47 2.927 5.3 4.905 0 0 0 .016-.01.046-.08.342-.63 2.58-1.64 5.456-6.06-5.683-11.36-7.471-15.64-7.471-4.25 0-7.5 1.763-9.49 3.229-2.7 1.916-3.37 11.916-3.48 19.196z" fill="url(#d)"/><path d="M181.91 148.069a8.318 8.318 0 0 1-4.53-7.418c0-4.594 3.71-8.319 8.29-8.319 4.58 0 8.29 3.725 8.29 8.319 0 2.163-.82 4.134-2.17 5.613-3.16.127-6.46.685-9.88 1.805zm.96-3.04c.79.733 1.8 1.176 2.86 1.176.11 0 .22-.004.32-.013 2.4-.198 4.24-2.623 4.02-5.289l-.03-.269c.42-.306.68-.771.64-1.268-.07-.772-.81-1.346-1.69-1.346l-.08.001c-.84-1.029-2.05-1.68-3.34-1.68-.1 0-.21.004-.32.013-2.39.198-4.23 2.619-4.02 5.284.07.832.33 1.608.73 2.276a.704.704 0 0 0-.14.466c.03.382.4.67.84.67a.99.99 0 0 0 .21-.021z" fill="url(#e)"/><path d="M185.73 146.205c-1.06 0-2.07-.443-2.86-1.176.34-.067.6-.298.67-.579.64.503 1.39.789 2.1.789.07 0 .14-.003.21-.009 1.66-.142 3.39-1.977 3.21-4.236v-.004c.37-.032.71-.162.98-.356l.03.269c.22 2.666-1.62 5.091-4.02 5.289-.1.009-.21.013-.32.013zm-3.77-2.291a5.294 5.294 0 0 1-.73-2.276c-.21-2.665 1.63-5.086 4.02-5.284.11-.009.22-.013.32-.013 1.29 0 2.5.651 3.34 1.68l-.09.006a1.99 1.99 0 0 0-1 .363c-.69-.673-1.58-1.065-2.41-1.065-.07 0-.14.003-.21.009-1.66.142-3.39 1.985-3.2 4.245.06.755.32 1.429.71 1.985l-.08.004a.945.945 0 0 0-.67.346z" fill="url(#f)"/><path d="M185.64 145.239c-.71 0-1.46-.286-2.1-.789.02-.069.03-.142.02-.216-.03-.381-.4-.67-.84-.67h-.01a3.99 3.99 0 0 1-.71-1.985c-.19-2.26 1.54-4.103 3.2-4.245.07-.006.14-.009.21-.009.83 0 1.72.392 2.41 1.065-.41.306-.66.769-.62 1.266.06.767.81 1.341 1.69 1.341.06 0 .11-.002.17-.007v.004c.18 2.259-1.55 4.094-3.21 4.236-.07.006-.14.009-.21.009z" fill="url(#g)"/><path d="M188.89 140.997c-.88 0-1.63-.574-1.69-1.341-.04-.497.21-.96.62-1.266.28-.2.62-.332 1-.363l.09-.006.08-.001c.88 0 1.62.574 1.69 1.346.04.497-.22.962-.64 1.268a1.978 1.978 0 0 1-1.15.363z" fill="url(#h)"/><path d="M182.66 145.05c-.44 0-.81-.288-.84-.67a.704.704 0 0 1 .14-.466.945.945 0 0 1 .75-.35h.01c.44 0 .81.289.84.67.01.074 0 .147-.02.216-.07.281-.33.512-.67.579a.99.99 0 0 1-.21.021z" fill="url(#i)"/><path d="M169.44 134.325c-.54 0-1.05-.212-1.43-.598a2.048 2.048 0 0 1-.58-1.47c.74-.847 1.7-1.615 2.93-2.249 0 0 4.88-2.22 12.26-3.519-.77.271-1.52.579-2.26.92-1.87.898-3.67 1.793-5.05 2.81-.85.574-1.59 1.115-2.21 1.593-1.36 1.053-2.11 1.796-2.22 1.898l-.01.016a2 2 0 0 1-1.43.599z" fill="url(#j)"/><path d="M209.2 158.632c.22-1.562.47-2.921.74-3.962.34-1.317.66-2.67.96-4.055a48.51 48.51 0 0 1 1.71.893c.04.021.07.042.11.063-.01.02-.01.039-.02.059-.86 2.332-2 4.775-3.5 7.002z" fill="#bb799c" fill-rule="nonzero"/><path d="M191.02 167.474c-4.39 0-10.07-1.093-15.13-5.494v-.005a.138.138 0 0 0-.04-.03c0-.005-.01-.011-.01-.016l-.03-.023c-.02-.014-.03-.027-.05-.041v-.002c-.02-.015-.03-.028-.05-.043v-.006c-2.11-1.875-4.11-4.334-5.85-7.536.04-.033.09-.065.14-.098a49.978 49.978 0 0 1 4.15-2.64c2.21.62 6.28 1.551 10.71 1.551 1.67 0 3.39-.132 5.08-.463 2.75-.538 5.13-3.049 7.08-6.189 5.18.553 9.87 2.178 13.88 4.176-.3 1.385-.62 2.738-.96 4.055-.27 1.041-.52 2.4-.74 3.962-1.56 2.304-3.5 4.377-5.92 5.853 0 .003-.01.007-.02.01-.01.008-.02.017-.04.025l-.03.019-.03.021a.12.12 0 0 0-.04.023l-.03.017a.28.28 0 0 1-.05.026c0 .005-.01.01-.02.015-.02.01-.03.019-.05.029-.01.004-.01.007-.02.011l-.06.033c0 .002-.01.005-.01.008l-.06.036c-.01.001-.01.003-.01.003-.02.014-.05.027-.07.04v.002c-1.2.667-2.52 1.19-3.95 1.528l-.09.021-.09.02v.001l-.09.018v.002l-.09.019-.01.002c-.14.05-3.18 1.06-7.4 1.06z" fill="#c283a4" fill-rule="nonzero"/><path d="M184.86 153.091c-4.43 0-8.5-.931-10.71-1.551 2.64-1.501 5.23-2.641 7.76-3.47 1.13.576 2.41.901 3.76.901a8.27 8.27 0 0 0 6.12-2.707c.47-.019.93-.028 1.4-.028l.02-.001h.02c1.29.001 2.55.072 3.79.204-1.95 3.14-4.33 5.651-7.08 6.189-1.69.331-3.41.463-5.08.463z" fill="#c592c2" fill-rule="nonzero"/><path d="M185.67 148.971c-1.35 0-2.63-.325-3.76-.901 3.42-1.121 6.72-1.679 9.88-1.806a8.27 8.27 0 0 1-6.12 2.707z" fill="#7a3958" fill-rule="nonzero"/><path d="M169.86 154.278c.04-.033.09-.065.14-.098-.05.033-.1.065-.14.099v-.001z" fill="url(#k)"/><path d="M212.72 151.571c-.04-.021-.07-.042-.11-.063.04.021.07.042.11.063zm-.38-.208z" fill="url(#l)"/><path d="M210.9 150.615c-4.01-1.998-8.7-3.623-13.88-4.176 5.18.553 9.87 2.178 13.88 4.176z" fill="url(#m)"/><path d="M197.02 146.439zm-3.83-.203l.02-.001-.02.001z" fill="url(#n)"/><path d="M215.2 141.305s-2.19 22.035-16.77 25.107c0 0-24.45 8.44-32.46-22.257 0 0-3.72-9.982 4.39-14.147 0 0 19.3-8.772 39.14-1.646 0 0 7.13 1.867 5.7 12.943zm-66.03 2.85c-8 30.697-32.45 22.257-32.45 22.257-14.59-3.072-16.78-25.107-16.78-25.107-1.42-11.076 5.7-12.943 5.7-12.943 19.85-7.126 39.15 1.646 39.15 1.646 8.11 4.165 4.38 14.147 4.38 14.147zm70.09-16.776s-32.89-11.407-52.3.878c0 0-6.2 4.649-9.13 4.107v-.162l-.25.099h-.01l-.26-.099v.162c-2.92.542-9.13-4.107-9.13-4.107-19.4-12.285-52.3-.878-52.3-.878-3.11.888-2.4 3.934-2.02 5.059.07.215.18.415.29.61.97 1.762 3.07 11.175 3.79 14.468.19.883.42 1.761.7 2.624 7.1 22.151 24.34 20.063 28.69 19.148.78-.163 1.56-.268 2.35-.368 17.17-2.198 23.11-25.753 23.11-25.753 1.25-4.161 3.51-4.533 4.52-4.465v.078s.1-.031.27-.057c.16.026.25.057.25.057v-.078c1.01-.068 3.27.304 4.53 4.465 0 0 5.94 23.555 23.1 25.753.79.1 1.58.205 2.36.368 4.34.915 21.58 3.003 28.69-19.148.27-.863.5-1.741.69-2.624.72-3.293 2.83-12.706 3.8-14.468.11-.195.22-.395.28-.61.39-1.125 1.09-4.171-2.02-5.059z" fill="#de2b74" fill-rule="nonzero"/><path d="M103.24 153.616c-1.53-3.546-2.39-7.049-2.84-9.406-.01-.006-.01-.011-.01-.017v-.025c0-.011-.01-.021-.01-.032v-.009c-.3-1.563-.42-2.604-.44-2.791v-.031a22.289 22.289 0 0 1-.19-2.823c.01-8.58 5.89-10.12 5.89-10.12.3-.105.59-.206.88-.305 1.14 8.571 2.93 16.129 4.39 21.421a48.497 48.497 0 0 0-7.28 3.888l-.09.056c-.02.017-.05.033-.08.05l-.06.043-.03.016c-.04.029-.08.057-.13.085zm43.09-1.414a2.183 2.183 0 0 0-.17-.101 44.519 44.519 0 0 0-4.75-2.49c.06-3.802.07-12.205-.94-18.262 1.83 1.364 2.83 2.366 2.84 2.378a2.017 2.017 0 0 0 2.53.268c.94-.613 1.2-1.877.61-2.788l-.04-.061c-.01-.017-.06-.1-.16-.238 3.01 2.215 3.78 5.419 3.78 8.121 0 2.84-.86 5.126-.86 5.126a51.328 51.328 0 0 1-1.61 5.11c-.39 1.035-.8 2.013-1.23 2.937zm-32.75-3.763c.11-2.256.26-4.439.45-6.548.83 1.899 1.79 3.819 2.89 5.534-1.15.294-2.26.635-3.34 1.014zm2.7-22.319c.01-.075.03-.145.04-.219l.3-.033c-.11.083-.23.166-.34.252z" fill="url(#o)"/><path d="M140.67 149.289a38.58 38.58 0 0 0-6.63-2.163 8.327 8.327 0 0 0 2.33-5.788c0-4.594-3.71-8.319-8.29-8.319-4.58 0-8.3 3.725-8.3 8.319 0 1.961.68 3.764 1.81 5.187-1.61.205-3.17.512-4.67.9-1.1-1.715-2.06-3.635-2.89-5.534.22-2.545.49-4.977.81-7.316 4.94-3.856 9.3-5.14 12.93-5.14 4.25 0 7.5 1.763 9.49 3.229 2.39 1.698 3.19 9.748 3.41 16.625z" fill="url(#p)"/><path d="M141.41 149.611c-.25-.11-.49-.218-.74-.322-.22-6.877-1.02-14.927-3.41-16.625-1.99-1.466-5.24-3.229-9.49-3.229-3.63 0-7.99 1.284-12.93 5.14.4-2.977.89-5.797 1.44-8.455.11-.086.23-.169.34-.252 1.93-.206 3.81-.296 5.63-.296 3 0 5.83.244 8.4.617 1.08.336 2.15.745 3.16 1.217 1.88.901 3.68 1.794 5.08 2.826.58.39 1.11.766 1.58 1.117 1.01 6.057 1 14.46.94 18.262z" fill="url(#q)"/><path d="M134.04 147.126a36.2 36.2 0 0 0-4.18-.694c.37-.188.71-.43 1.02-.715a1.233 1.233 0 0 0 .2.02c.44 0 .81-.288.85-.669a.664.664 0 0 0-.15-.467c.41-.667.67-1.443.74-2.275.21-2.665-1.63-5.087-4.02-5.285a3.981 3.981 0 0 0-.32-.013c-1.29 0-2.51.651-3.35 1.681l-.07-.001c-.89 0-1.63.574-1.69 1.345-.04.496.21.962.64 1.268-.02.089-.03.179-.03.269-.16 1.922.75 3.719 2.17 4.646a36.27 36.27 0 0 0-4.26.289 8.317 8.317 0 0 1-1.81-5.187c0-4.594 3.72-8.319 8.3-8.319s8.29 3.725 8.29 8.319c0 2.25-.89 4.29-2.33 5.788z" fill="url(#r)"/><path d="M129.86 146.432a35.308 35.308 0 0 0-3.7-.197h-.05l-.26.001c-1.42-.927-2.33-2.724-2.17-4.646 0-.09.01-.18.03-.269.27.194.6.325.98.356v.004c-.19 2.26 1.54 4.095 3.21 4.236.07.006.14.009.21.009.71 0 1.46-.286 2.1-.789.07.281.33.513.67.58-.31.285-.65.527-1.02.715zm1.92-1.831a.9.9 0 0 0-.66-.345.85.85 0 0 0-.08-.004c.39-.557.65-1.231.71-1.986.19-2.26-1.54-4.103-3.21-4.244a2.458 2.458 0 0 0-.21-.009c-.83 0-1.71.391-2.41 1.064a1.92 1.92 0 0 0-1.09-.368c.84-1.03 2.06-1.681 3.35-1.681.1 0 .21.004.32.013 2.39.198 4.23 2.62 4.02 5.285a5.165 5.165 0 0 1-.74 2.275z" fill="url(#s)"/><path d="M128.11 145.926c-.07 0-.14-.003-.21-.009-1.67-.141-3.4-1.976-3.21-4.236v-.004c.05.005.11.007.17.007.88 0 1.62-.573 1.69-1.341.04-.497-.21-.96-.63-1.266.7-.673 1.58-1.064 2.41-1.064.07 0 .14.003.21.009 1.67.141 3.4 1.984 3.21 4.244a3.997 3.997 0 0 1-.71 1.986h-.01c-.44 0-.81.288-.84.669-.01.074 0 .147.02.216-.64.503-1.39.789-2.1.789z" fill="url(#t)"/><path d="M124.86 141.684a1.933 1.933 0 0 1-1.15-.363c-.43-.306-.68-.772-.64-1.268.06-.771.8-1.345 1.69-1.345a1.634 1.634 0 0 1 .17.007c.38.03.72.163.99.362.42.306.67.769.63 1.266-.07.768-.81 1.341-1.69 1.341z" fill="url(#u)"/><path d="M131.08 145.737a1.233 1.233 0 0 1-.2-.02c-.34-.067-.6-.299-.67-.58-.02-.069-.03-.142-.02-.216.03-.381.4-.669.84-.669h.01c.02 0 .05.001.08.004a.9.9 0 0 1 .66.345c.11.134.16.297.15.467-.04.381-.41.669-.85.669z" fill="url(#v)"/><path d="M144.75 134.323c-.53 0-1.05-.202-1.44-.596-.01-.012-1.01-1.014-2.84-2.378-.47-.351-1-.727-1.58-1.117-1.4-1.032-3.2-1.925-5.08-2.826a25.163 25.163 0 0 0-3.16-1.217c8.42 1.219 14.14 3.819 14.14 3.819.53.276 1.02.577 1.46.9.1.138.15.221.16.238l.04.061c.59.911.33 2.175-.61 2.788-.33.22-.71.328-1.09.328z" fill="url(#w)"/><path d="M110.91 149.478c-1.46-5.292-3.25-12.85-4.39-21.421a47.562 47.562 0 0 1 9.8-2.156c-.01.074-.03.144-.04.219a121.69 121.69 0 0 0-1.44 8.455c-.32 2.339-.59 4.771-.81 7.316-.19 2.109-.34 4.292-.45 6.548-.91.321-1.8.67-2.67 1.039z" fill="url(#x)"/><path d="M147.56 149.265c.59-1.569 1.13-3.27 1.61-5.11 0 0 .86-2.286.86-5.126 0 2.84-.86 5.126-.86 5.126a51.162 51.162 0 0 1-1.61 5.11zm-47.16-5.055c-.01-.005-.01-.011-.01-.017 0 .006 0 .011.01.017zm-.01-.042c0-.011-.01-.022-.01-.032 0 .011.01.021.01.032zm-.01-.041zm-.44-2.797v-.004.004zm0-.009v-.007.007zm0-.013v-.001.001zm0-.003z" fill="url(#y)"/><path d="M124.13 167.474c-4.13 0-7.12-.965-7.39-1.055-.01-.003-.01-.005-.02-.006v-.001c-.03-.006-.06-.012-.08-.018l-.05-.009a.248.248 0 0 0-.04-.009c-.01-.004-.03-.007-.05-.011l-.03-.007-.05-.012-.03-.007a1.3 1.3 0 0 1-.06-.014l-.02-.004-.06-.015-.02-.005-.06-.015c-.01-.001-.01-.003-.02-.005l-.06-.015-.02-.005-.06-.016-.02-.004-.06-.017-.02-.004-.06-.018c-.01-.001-.01-.002-.01-.003a.485.485 0 0 1-.07-.019l-.01-.002c-.03-.007-.05-.014-.07-.02v-.001c-1.3-.366-2.49-.887-3.59-1.529v-.002l-.06-.034c0-.002 0-.004-.01-.006-.02-.011-.03-.021-.05-.032-.01-.003-.01-.005-.01-.008-.02-.01-.04-.02-.05-.03-.01-.004-.02-.007-.02-.011-.02-.009-.03-.019-.05-.028 0-.004-.01-.009-.02-.013-.01-.009-.03-.018-.04-.027l-.03-.015a.164.164 0 0 0-.04-.025c-.01-.005-.02-.011-.02-.017a.14.14 0 0 1-.04-.023l-.03-.02a.144.144 0 0 0-.04-.021l-.03-.022-.03-.019c-.01-.009-.03-.017-.04-.025-.01-.006-.02-.012-.02-.017-.02-.01-.03-.019-.05-.028 0-.005-.01-.01-.02-.015-.02-.011-.03-.022-.05-.033 0-.003-.01-.006-.01-.009-1.86-1.236-3.43-2.829-4.74-4.597 0-.005-.01-.01-.01-.014l-.03-.044c-.01-.008-.01-.017-.02-.026-.01-.01-.02-.021-.02-.031l-.03-.037c-.01-.007-.01-.012-.01-.019a.176.176 0 0 1-.04-.05v-.003c-1.3-1.794-2.35-3.759-3.2-5.711.05-.028.09-.056.13-.085l.03-.016.06-.043c.03-.017.06-.033.08-.05l.09-.056a48.99 48.99 0 0 1 7.28-3.888c1.36 4.916 2.43 7.877 2.43 7.877.02-3.094.1-6.066.24-8.916 1.08-.378 2.19-.719 3.34-1.014 1.91 2.999 4.22 5.369 6.88 5.89 1.7.331 3.42.463 5.09.463 6.64 0 12.46-2.092 12.46-2.092v-.059l.01-.003s.03-.755.05-2.013c1.57.703 3.15 1.528 4.75 2.49.06.033.12.067.17.101-1.98 4.26-4.37 7.379-6.93 9.642v.002l-.03.032-.03.019c0 .007-.01.013-.02.02-.01.012-.03.026-.04.038v.003c-5.07 4.419-10.76 5.516-15.15 5.516z" fill="#bd7b9d" fill-rule="nonzero"/><path d="M128.89 153.778c-1.67 0-3.39-.132-5.09-.463-2.66-.521-4.97-2.891-6.88-5.89 1.5-.388 3.06-.695 4.67-.9a8.274 8.274 0 0 0 6.49 3.133c2.34 0 4.45-.97 5.96-2.532 2.16.491 4.38 1.2 6.63 2.163.03.882.05 1.745.06 2.572.38-.158.58-.221.62-.234v.059s-5.82 2.092-12.46 2.092z" fill="#c592c2" fill-rule="nonzero"/><path d="M140.73 151.861c-.01-.827-.03-1.69-.06-2.572.25.104.49.212.74.322a93.816 93.816 0 0 1-.05 2.013l-.01.003c-.04.013-.24.076-.62.234z" fill="#b9789b" fill-rule="nonzero"/><path d="M128.08 149.658a8.274 8.274 0 0 1-6.49-3.133 36.27 36.27 0 0 1 4.26-.289 3.939 3.939 0 0 0 2.16.657c.65 0 1.28-.165 1.85-.461a36.2 36.2 0 0 1 4.18.694 8.26 8.26 0 0 1-5.96 2.532z" fill="#7a3958" fill-rule="nonzero"/><path d="M128.01 146.893a3.939 3.939 0 0 1-2.16-.657l.26-.001h.05c1.21.001 2.45.064 3.7.197a4.01 4.01 0 0 1-1.85.461z" fill="#944160" fill-rule="nonzero"/><path d="M113.34 157.355s-1.07-2.961-2.43-7.877c.87-.369 1.76-.717 2.67-1.039-.14 2.85-.22 5.822-.24 8.916z" fill="#c18ebd" fill-rule="nonzero"/><path d="M124.13 167.475c-4.13 0-7.12-.966-7.39-1.056.27.09 3.26 1.055 7.39 1.055 4.39 0 10.08-1.097 15.15-5.516-5.07 4.42-10.76 5.517-15.15 5.517zm-7.39-1.056c-.01-.003-.01-.005-.02-.006.01.001.01.003.02.006zm-.02-.007c-.03-.006-.06-.012-.08-.018.02.006.05.012.08.018zm-.13-.027zm-.09-.02l-.03-.007.03.007zm-.08-.019l-.03-.007.03.007zm-.09-.021l-.02-.004.02.004zm-.08-.019l-.02-.005.02.005zm-.08-.02c-.01-.001-.01-.003-.02-.005.01.002.01.004.02.005zm-.08-.02l-.02-.005.02.005zm-.08-.021l-.02-.004.02.004zm-.08-.021l-.02-.004.02.004zm-.08-.022c-.01-.001-.01-.002-.01-.003 0 .001 0 .002.01.003zm-.08-.022l-.01-.002.01.002zm-.08-.022v-.001.001zm-3.59-1.53v-.002.002zm-.06-.036c0-.002 0-.004-.01-.006.01.002.01.004.01.006zm-.06-.038c0-.003-.01-.005-.01-.008 0 .003 0 .005.01.008zm-.06-.038c-.01-.004-.02-.007-.02-.011 0 .004.01.007.02.011zm-.07-.039c0-.004-.01-.009-.02-.013.01.004.02.009.02.013zm-.06-.04l-.03-.015.03.015zm-.07-.04c-.01-.005-.02-.011-.02-.017 0 .006.01.012.02.017zm-.06-.04l-.03-.02.03.02zm-.07-.041l-.03-.022.03.022zm-.06-.041c-.01-.009-.03-.017-.04-.025.01.008.03.016.04.025zm-.06-.042c-.02-.01-.03-.019-.05-.028.02.009.03.018.05.028zm-.07-.043c-.02-.011-.03-.021-.05-.033.02.011.03.022.05.033zm-.06-.042c-1.86-1.236-3.43-2.828-4.74-4.597 1.31 1.768 2.88 3.361 4.74 4.597zm27.94-2.193c.01-.012.03-.026.04-.038-.01.012-.03.026-.04.038zm.06-.058l.03-.019-.03.019zm.06-.051v-.002.002zm-32.81-2.309l-.03-.044.03.044zm-.05-.07c-.01-.01-.02-.02-.02-.031 0 .01.01.021.02.031zm-.05-.068c-.01-.006-.01-.013-.01-.019 0 .007 0 .012.01.019zm-.05-.069v-.003.003z" fill="#bf3a87" fill-rule="nonzero"/><path d="M103.24 153.616zm.16-.101l.06-.043-.06.043zm.14-.093l.09-.056-.09.056zm42.62-1.321z" fill="url(#z)"/><path d="M141.41 149.611c-.25-.11-.49-.218-.74-.322.25.104.49.212.74.322z" fill="url(#A)"/><path d="M129.86 146.432zm-3.75-.197z" fill="url(#B)"/><defs><linearGradient id="a" x2="1" gradientUnits="userSpaceOnUse" gradientTransform="rotate(-86.748 184.006 -14.966) scale(46.35444)"><stop offset="0" stop-color="#eddaca"/><stop offset="1" stop-color="#cc86a1"/></linearGradient><linearGradient id="b" x2="1" gradientUnits="userSpaceOnUse" gradientTransform="rotate(-86.748 184.006 -14.966) scale(46.35444)"><stop offset="0" stop-color="#f8e7d5"/><stop offset="1" stop-color="#d391a9"/></linearGradient><linearGradient id="c" x2="1" gradientUnits="userSpaceOnUse" gradientTransform="rotate(-86.748 184.006 -14.966) scale(46.35444)"><stop offset="0" stop-color="#fff"/><stop offset="1" stop-color="#d7a2c9"/></linearGradient><linearGradient id="d" x2="1" gradientUnits="userSpaceOnUse" gradientTransform="rotate(-86.748 184.006 -14.966) scale(46.35444)"><stop offset="0" stop-color="#e9d8c9"/><stop offset="1" stop-color="#ca86a0"/></linearGradient><linearGradient id="e" x2="1" gradientUnits="userSpaceOnUse" gradientTransform="rotate(-86.748 184.006 -14.966) scale(46.35444)"><stop offset="0" stop-color="#987e73"/><stop offset="1" stop-color="#85435b"/></linearGradient><linearGradient id="f" x2="1" gradientUnits="userSpaceOnUse" gradientTransform="rotate(-86.748 184.006 -14.966) scale(46.35444)"><stop offset="0" stop-color="#b88f7c"/><stop offset="1" stop-color="#a14c63"/></linearGradient><linearGradient id="g" x2="1" gradientUnits="userSpaceOnUse" gradientTransform="rotate(-86.748 184.006 -14.966) scale(46.35444)"><stop offset="0" stop-color="#807872"/><stop offset="1" stop-color="#70435b"/></linearGradient><linearGradient id="h" x2="1" gradientUnits="userSpaceOnUse" gradientTransform="rotate(-86.748 184.006 -14.966) scale(46.35444)"><stop offset="0" stop-color="#fff"/><stop offset="1" stop-color="#d7a2c9"/></linearGradient><linearGradient id="i" x2="1" gradientUnits="userSpaceOnUse" gradientTransform="rotate(-86.748 184.006 -14.966) scale(46.35444)"><stop offset="0" stop-color="#fff"/><stop offset="1" stop-color="#d7a2c9"/></linearGradient><linearGradient id="j" x2="1" gradientUnits="userSpaceOnUse" gradientTransform="rotate(-86.748 184.006 -14.966) scale(46.35444)"><stop offset="0" stop-color="#716e6e"/><stop offset="1" stop-color="#633d58"/></linearGradient><linearGradient id="k" x2="1" gradientUnits="userSpaceOnUse" gradientTransform="rotate(-86.748 184.006 -14.966) scale(46.35444)"><stop offset="0" stop-color="#c48bb3"/><stop offset="1" stop-color="#b968a0"/></linearGradient><linearGradient id="l" x2="1" gradientUnits="userSpaceOnUse" gradientTransform="rotate(-86.748 184.006 -14.966) scale(46.35444)"><stop offset="0" stop-color="#c186af"/><stop offset="1" stop-color="#b5639c"/></linearGradient><linearGradient id="m" x2="1" gradientUnits="userSpaceOnUse" gradientTransform="rotate(-86.748 184.006 -14.966) scale(46.35444)"><stop offset="0" stop-color="#c48bb3"/><stop offset="1" stop-color="#b968a0"/></linearGradient><linearGradient id="n" x2="1" gradientUnits="userSpaceOnUse" gradientTransform="rotate(-86.748 184.006 -14.966) scale(46.35444)"><stop offset="0" stop-color="#c592c2"/><stop offset="1" stop-color="#ba6fae"/></linearGradient><linearGradient id="o" x2="1" gradientUnits="userSpaceOnUse" gradientTransform="rotate(-86.748 149.447 17.661) scale(46.3544)"><stop offset="0" stop-color="#efddcb"/><stop offset="1" stop-color="#ce89a2"/></linearGradient><linearGradient id="p" x2="1" gradientUnits="userSpaceOnUse" gradientTransform="rotate(-86.748 149.447 17.661) scale(46.3544)"><stop offset="0" stop-color="#fff"/><stop offset="1" stop-color="#d7a2c9"/></linearGradient><linearGradient id="q" x2="1" gradientUnits="userSpaceOnUse" gradientTransform="rotate(-86.748 149.447 17.661) scale(46.3544)"><stop offset="0" stop-color="#e9d8c9"/><stop offset="1" stop-color="#ca86a0"/></linearGradient><linearGradient id="r" x2="1" gradientUnits="userSpaceOnUse" gradientTransform="rotate(-86.748 149.447 17.661) scale(46.3544)"><stop offset="0" stop-color="#987e73"/><stop offset="1" stop-color="#85435b"/></linearGradient><linearGradient id="s" x2="1" gradientUnits="userSpaceOnUse" gradientTransform="rotate(-86.748 149.447 17.661) scale(46.3544)"><stop offset="0" stop-color="#b88f7c"/><stop offset="1" stop-color="#a14c63"/></linearGradient><linearGradient id="t" x2="1" gradientUnits="userSpaceOnUse" gradientTransform="rotate(-86.748 149.447 17.661) scale(46.3544)"><stop offset="0" stop-color="#807872"/><stop offset="1" stop-color="#70435b"/></linearGradient><linearGradient id="u" x2="1" gradientUnits="userSpaceOnUse" gradientTransform="rotate(-86.748 149.447 17.661) scale(46.3544)"><stop offset="0" stop-color="#fff"/><stop offset="1" stop-color="#d7a2c9"/></linearGradient><linearGradient id="v" x2="1" gradientUnits="userSpaceOnUse" gradientTransform="rotate(-86.748 149.447 17.661) scale(46.3544)"><stop offset="0" stop-color="#fff"/><stop offset="1" stop-color="#d7a2c9"/></linearGradient><linearGradient id="w" x2="1" gradientUnits="userSpaceOnUse" gradientTransform="rotate(-86.748 149.447 17.661) scale(46.3544)"><stop offset="0" stop-color="#716e6e"/><stop offset="1" stop-color="#633d58"/></linearGradient><linearGradient id="x" x2="1" gradientUnits="userSpaceOnUse" gradientTransform="rotate(-86.748 149.447 17.661) scale(46.3544)"><stop offset="0" stop-color="#f8f8f8"/><stop offset="1" stop-color="#d39dc4"/></linearGradient><linearGradient id="y" x2="1" gradientUnits="userSpaceOnUse" gradientTransform="rotate(-86.748 149.447 17.661) scale(46.3544)"><stop offset="0" stop-color="#eda3b4"/><stop offset="1" stop-color="#ce4a8c"/></linearGradient><linearGradient id="z" x2="1" gradientUnits="userSpaceOnUse" gradientTransform="rotate(-86.748 149.447 17.661) scale(46.3544)"><stop offset="0" stop-color="#c187af"/><stop offset="1" stop-color="#b6659d"/></linearGradient><linearGradient id="A" x2="1" gradientUnits="userSpaceOnUse" gradientTransform="rotate(-86.748 149.447 17.661) scale(46.3544)"><stop offset="0" stop-color="#c086ae"/><stop offset="1" stop-color="#b4639c"/></linearGradient><linearGradient id="B" x2="1" gradientUnits="userSpaceOnUse" gradientTransform="rotate(-86.748 149.447 17.661) scale(46.3544)"><stop offset="0" stop-color="#ad6b8e"/><stop offset="1" stop-color="#a3477f"/></linearGradient></defs></svg>