<svg viewBox="0 0 300 300" xmlns="http://www.w3.org/2000/svg" fill-rule="evenodd" clip-rule="evenodd" stroke-linejoin="round" stroke-miterlimit="1.414"><path fill="#ac91c4" fill-rule="nonzero" d="M.27.16h299.36v299.705H.27z"/><path d="M152.72 187.595v112.27H91.99c-.99-.394-1.48-.594-1.48-.594 0-14.331 2.1-25.505 5.3-34.219 7.73-21.03 21.88-27.709 28.4-29.723 2.13-.661 3.45-.82 3.45-.82.23 0 .45-.021.67-.056 1.91-.308 3.46-1.969 4.71-4.619.93-1.968 1.7-4.479 2.33-7.386.25-1.132.45-2.275.65-3.51.29-2.077.59-4.25.84-6.525.09-1.384.24-2.717.39-4.152.54-6.868.69-14.388.69-21.507 0 0 8.16.841 14.78.841z" fill="#e0bd9a" fill-rule="nonzero"/><path d="M215.18 299.271s-.55.2-1.44.594h-61.02v-112.27h.14c6.58 0 14.83-.841 14.83-.841 0 7.068.15 14.485.69 21.358.15 1.338.3 2.717.39 4.055.25 2.373.55 4.597.9 6.673v.046c.09.943.29 1.784.44 2.671.6 2.921 1.33 5.489 2.2 7.549 1.1 2.563 2.42 4.352 4.03 5.06.52.23 1.06.343 1.63.343 0 0 2.34.282 5.84 1.656 7.15 2.798 19.16 10.143 26.06 28.887 3.2 8.714 5.31 19.888 5.31 34.219z" fill="#efd0ad" fill-rule="nonzero"/><path d="M169.67 218.63v.05c-1.54 2.357-6.68 9.134-16.85 9.134h-.1c-9.64-.049-15.27-7.023-16.71-9.086.3-2.062.6-4.223.84-6.482.1-1.326.25-2.702.4-4.126a67.76 67.76 0 0 0 15.27 2.014h.2a65.47 65.47 0 0 0 15.66-2.161c.15 1.326.3 2.701.4 4.027.24 2.357.54 4.568.89 6.63z" fill="#be987f" fill-rule="nonzero"/><path d="M152.02 59.651c-64.33 0-64.68 53.779-61.81 88.993-4.4-8.349-17.49-5.795-16.41 7.367 1.04 12.671 19.75 19.129 19.23 17.73 9.74 26.043 35.52 45.675 58.99 45.675h.5V59.651h-.5z" fill="#d2a686" fill-rule="nonzero"/><path d="M77.91 150.461c3.16-5.108 8.1-2.897 9.28-1.768 1.29 1.228 2.33 2.799 1.54 5.796-.45 1.718-2.23 1.865-1.83 4.42.49 2.897 1.83 3.045 2.62 3.732.74.639 1.68 1.13 2.12 2.358.5 1.228.55 2.505.3 3.634-.5 2.063-3.51.393-5.54-.491-1.33-.638-5.58-4.224-6.67-5.403-2.67-3.044-3.95-8.938-1.82-12.278z" fill="#ac8774" fill-rule="nonzero"/><path d="M152.37 59.651c64.34 0 64.68 53.779 61.87 88.993 4.39-8.349 17.44-5.795 16.35 7.367-.99 12.671-19.73 19.134-19.22 17.73-9.49 26.043-35.53 45.675-59 45.675h-.35l-.14-159.765h.49z" fill="#ddb598" fill-rule="nonzero"/><path d="M226.49 150.461c-3.16-5.108-8.05-2.897-9.29-1.768-1.28 1.228-2.27 2.8-1.53 5.796.44 1.719 2.22 1.866 1.83 4.42-.5 2.897-1.83 3.045-2.57 3.732-.74.639-1.73 1.13-2.18 2.358-.44 1.228-.54 2.505-.29 3.634.49 2.063 3.51.393 5.53-.491 1.39-.638 5.59-4.224 6.67-5.402 2.72-3.045 3.96-8.939 1.83-12.279z" fill="#ac8774" fill-rule="nonzero"/><path d="M151.52 74.827c-21.15 0-36.67 6.139-46.01 18.221-13.09 16.944-12.6 42.778-7.8 61.342 1.48 5.697 2.27 20.972 3.26 26.571 4.59 25.096 32.31 38.455 50.55 38.455h.49V74.827h-.49z" fill="#e0bd9a" fill-rule="nonzero"/><path d="M197.47 93.098c-9.29-12.033-24.6-18.173-45.46-18.271v144.589c20.86-.245 45.81-14.881 50.06-38.455 1.04-5.599 1.78-20.874 3.26-26.571 4.84-18.515 5.34-44.3-7.86-61.292z" fill="#efd0ad" fill-rule="nonzero"/><path d="M148.64 193.785c-.1-.022-.2-.041-.31-.065.1.023.19.041.31.065zm-.79-.175c-.09-.024-.17-.051-.27-.076l-.01.004.28.072z" fill="#bc917b" fill-rule="nonzero"/><path d="M134.05 75.188l-.27.268.05.089c.09-.134.13-.268.22-.357z" fill="#432e1b" fill-rule="nonzero"/><path d="M148.81 190.852zm-.8-.18c-.1-.025-.19-.052-.28-.078l-.01.005s.11.029.29.073z" fill="#ba907b" fill-rule="nonzero"/><path d="M139.44 175.914c-.25-5.131 9.43-1.874 12.62-1.714 2.52.129 10.19-1.617 10.85-1.167 4.51 3.042-4.78 9.17-11.01 9.17-1.66 0-12.31-3.193-12.46-6.289z" fill="#dcb497" fill-rule="nonzero"/><path d="M105.86 131.261s4.91 20.135 13.33 21.779c8.43 1.642 17.55-1.624 17.55-1.624s.87-23.664-3.44-26.756c-4.31-3.105-14.25-7.592-27.44 6.601z" fill="#fff" fill-rule="nonzero"/><path d="M136.75 151.354s-.19.056-.62.236c-.11-7.258-.78-17.227-3.48-19.137-4-2.933-13.05-7.061-25.13 4.23-1.1-3.12-1.65-5.485-1.65-5.485 13.21-14.22 23.16-9.74 27.43-6.632 4.32 3.104 3.45 26.788 3.45 26.788z" fill="#d6b496" fill-rule="nonzero"/><path d="M131.76 141.1a8.29 8.29 0 1 1-16.58 0 8.29 8.29 0 1 1 16.58 0z" fill="#482315" fill-rule="nonzero"/><path d="M123.08 146.624c-2.39-.198-4.23-2.615-4.01-5.272.21-2.657 2.42-4.736 4.82-4.535 2.39.197 4.23 2.611 4.02 5.268-.22 2.657-2.43 4.74-4.83 4.539z" fill="#7e3a22" fill-rule="nonzero"/><path d="M123.29 145.665c-1.67-.141-3.4-1.971-3.21-4.223.19-2.26 2.19-3.785 3.85-3.648 1.67.141 3.4 1.978 3.21 4.231-.18 2.256-2.19 3.778-3.85 3.64z" fill="#211a10" fill-rule="nonzero"/><path d="M121.94 140.108c-.07.814-.9 1.409-1.86 1.33-.96-.081-1.69-.809-1.62-1.619.07-.817.9-1.413 1.86-1.335.96.078 1.69.806 1.62 1.624zm5.38 4.71c-.04.405-.45.704-.93.664-.48-.038-.84-.406-.81-.81.03-.405.45-.705.93-.664.48.038.84.401.81.81z" fill="#fff" fill-rule="nonzero"/><path d="M148.95 193.227c-.11-.022-.21-.043-.32-.067l.32.067zm-.81-.18c-.1-.025-.18-.052-.28-.078l-.01.004s.11.03.29.074z" fill="#ba907b" fill-rule="nonzero"/><path d="M148.57 192.658c-.11-.024-.22-.045-.34-.071.11.024.21.045.34.071zm-.87-.193c-.1-.026-.19-.055-.29-.083l-.01.005s.11.031.3.078zm.62-.649c-.11-.024-.22-.045-.33-.071l.33.071zm-.86-.193c-.11-.026-.2-.055-.3-.083l-.01.004s.11.032.31.079zm1.63.078c-.11-.023-.21-.044-.32-.069.1.024.2.043.32.069zm-.83-.187c-.1-.025-.19-.053-.29-.08l-.01.005s.11.03.3.075z" fill="#bc917b" fill-rule="nonzero"/><path d="M198.67 130.576s-4.91 20.135-13.33 21.779c-8.43 1.642-17.55-1.624-17.55-1.624s-.87-23.664 3.44-26.756c4.31-3.105 14.25-7.593 27.44 6.601z" fill="#fff" fill-rule="nonzero"/><path d="M167.78 150.669s.19.055.62.236c.11-7.258.78-17.227 3.48-19.137 4-2.933 13.05-7.062 25.13 4.229 1.1-3.119 1.65-5.484 1.65-5.484-13.21-14.22-23.16-9.74-27.43-6.632-4.32 3.104-3.45 26.788-3.45 26.788z" fill="#d6b496" fill-rule="nonzero"/><path d="M172.77 140.416a8.29 8.29 0 1 0 16.58 0 8.29 8.29 0 1 0-16.58 0z" fill="#482315" fill-rule="nonzero"/><path d="M181.45 145.938c2.39-.197 4.23-2.614 4.01-5.271-.21-2.657-2.42-4.736-4.82-4.535-2.39.197-4.23 2.61-4.02 5.267.22 2.657 2.43 4.74 4.83 4.539z" fill="#7e3a22" fill-rule="nonzero"/><path d="M181.24 144.98c1.67-.141 3.4-1.971 3.21-4.223-.19-2.26-2.19-3.785-3.85-3.649-1.67.142-3.4 1.979-3.21 4.232.18 2.256 2.19 3.778 3.85 3.64z" fill="#211a10" fill-rule="nonzero"/><path d="M182.59 139.423c.07.814.9 1.409 1.86 1.33.96-.081 1.68-.809 1.62-1.619-.07-.818-.9-1.413-1.86-1.335-.96.078-1.69.806-1.62 1.624zm-5.38 4.71c.04.405.45.704.93.664.48-.038.84-.406.81-.81-.03-.405-.45-.705-.93-.663-.48.036-.84.4-.81.809z" fill="#fff" fill-rule="nonzero"/><path d="M141.8 130.94c-.06-.098-1.59-2.423-4.72-4.82-1.96-1.502-3.87-2.646-5.87-3.498a30.32 30.32 0 0 0-7.55-2.081c-2.28-.254-4.81-.186-7.77.211-2.25.43-4.45 1.1-6.32 1.922-1.33.459-2.38 1.103-3.22 1.62-.33.199-.62.378-.92.539l-4.02 2.53 4.64-1.09c.21-.054.45-.116.7-.183.96-.254 2.15-.571 3.55-.776.33-.048.67-.114 1-.182.59-.116 1.19-.237 1.82-.267.71-.047 1.44-.099 2.18-.153l.98-.07c2.57-.032 4.74.163 6.66.607a25.26 25.26 0 0 1 6.26 1.963c1.88.897 3.68 1.787 5.08 2.817 2.83 1.891 4.41 3.468 4.42 3.484a2.023 2.023 0 0 0 3.14-2.512l-.04-.061zm57.7-6.126c-.27-.142-.56-.322-.89-.52-.84-.518-1.89-1.161-3.18-1.604-1.91-.838-4.11-1.508-6.39-1.942-2.93-.394-5.46-.462-7.75-.206a30.398 30.398 0 0 0-7.54 2.081c-1.97.84-3.94 2.016-5.87 3.497-3.07 2.353-4.6 4.637-4.71 4.813l-.03.041a2.04 2.04 0 0 0 .26 2.539 2.013 2.013 0 0 0 2.86-.001l.02-.017c.14-.148 1.68-1.644 4.42-3.479 1.38-1.015 3.18-1.906 5.05-2.802 2-.922 4.16-1.602 6.3-1.971 1.9-.438 4.07-.629 6.61-.602l1.02.073c.74.053 1.46.104 2.17.152.62.029 1.23.15 1.81.266.34.068.67.134 1 .182 1.4.205 2.6.522 3.56.776.25.067.48.129.7.185l4.64 1.089-4.06-2.55z" fill="#030405" fill-rule="nonzero"/><path d="M145.97 200.254c-.1-.022-.21-.042-.31-.066.1.023.19.041.31.066zm-.8-.179c-.1-.024-.18-.051-.28-.077l-.01.004s.11.029.29.073zm.57-.601c-.1-.022-.21-.042-.31-.066l.31.066zm-.8-.179c-.1-.025-.18-.052-.28-.077l-.01.004s.11.029.29.073zm1.51.072c-.1-.021-.2-.041-.29-.064.09.022.18.04.29.064zm-.77-.173c-.09-.023-.18-.05-.27-.074l-.01.004.28.07z" fill="#be927b" fill-rule="nonzero"/><path d="M139.71 201.764c-.24-3.2 8.92.67 11.92.762 2.4.081 9.6-.474 10.27-.728 5.03-1.883-.28 5.349-10.42 5.73-4.64.185-11.63-3.824-11.77-5.764z" fill="#f0d2ad" fill-rule="nonzero"/><path d="M169.88 194.078c-5.8-1.086-18.03.073-18.03.073-10.08 1.675-17.97-.107-18.03-.038-.24.024 8.05 11.023 17.89 10.516 9.84.507 18.41-10.516 18.17-10.551z" fill="#c2646e" fill-rule="nonzero"/><path d="M157.68 191.756c-2.61-.289-4.48 1.597-5.82 1.459-1.36.127-3.14-1.083-5.77-1.109-3.7-.036-5.5-.361-12.27 2.007.24.462 4.58 2.972 12.7 3.11.11 0 2.29 1.236 5.39 1.214 1.94-.012 4.6-1.306 4.7-1.306 8.13-.127 13.1-2.544 13.33-2.994-8.95-2.773-8.24-2.417-12.26-2.381z" fill="#d87475" fill-rule="nonzero"/><path d="M243.83 66.401c-.22.603-.66 1.185-1.26 1.746.83-1.048 1.26-1.746 1.26-1.746a51.641 51.641 0 0 1-3.9 2.448c-23.61 13.478-30.19-10.198-30.19-10.198 2.46-22.313 27.81-21.997 27.81-21.997S216 25.497 207.7 47.371c-1.11-11.774 4.86-23.209 4.86-23.209-9.62 2.193-13.66 10.531-15.35 17.65-5.94-12.228.21-21.311.21-21.311l-32.98 14.053c4.28-3.649 10.97-10.392 10.97-10.392s-10.23 1.126-26.03 5.925c-11.12 3.379-17.77 9.376-21.5 12.13l-.1-9.966s-16.15 11.906-31.45 27.545c-15.28 15.622-21.15 30.321-21.15 46.849 0 16.52 6.85 33.078 11.35 37.996 4.49 4.918 3.05 12.046 4.4 12.046 0 0 3.24.13 2.76-16.158 1.77-18.496 9.72-25.888 14.16-28.602 7.82-4.413 19.6-5.213 37.23 4.367l-.01-.029c10.88 6.79 15.26-2.216 30.63-6.765 26.21-7.748 37.09 12.585 34.88 23.079-3.38 16.157 1.33 25.457 3.13 25.022 0 0 .07-4.103 1.69-7.756 4.85-10.897 8.9-3.323 9.66-18.093.87-17.296 3.7-23.614 2.79-32.855-.51-5.217-2.26-11.438-3.65-15.786 17.6-.308 19.63-16.71 19.63-16.71z" fill="#3a2817" fill-rule="nonzero"/><path d="M205.34 260.354v39.503H99.55v-26.85c-.02-.741-.04-1.481-.04-2.181 0-.658.02-1.317.02-1.954.64-18.517 9.94-25.451 9.94-25.451.59-.658 1.34-1.44 2.2-2.284 1.85-1.872 4.26-4.073 6.87-5.945 5.95-4.321 13-7.037 12.61-5.741 0 0 20.66 74.664 43.31 0-.37-1.296 6.67 1.42 12.61 5.741 2.08 1.481 4 3.168 5.64 4.711 3.09 2.942 5.17 5.452 5.17 5.452s7.46 8.785 7.46 14.999z" fill="#f05437" fill-rule="nonzero"/><path d="M78.27 174.428c.22.365.48.712.77 1.038.01.013.04-.069.09-.221l.06-.17c4.63-1.016 7.24-.093 8.67 1.55 2.14 2.465 1.63 6.547 1.32 8.151-.08.426-.15.68-.15.68.7.625 1.51 1.092 2.38 1.441.85.339 1.75.563 2.67.698l-1.42-15.641-15.82-1.998c.18 1.596.61 3.15 1.43 4.472zm135.13 12.409c.34-.256.66-.54.96-.855.02-.013-.07-.036-.22-.073l-.18-.041c-1.41-4.533-.71-7.211.81-8.773 2.27-2.343 6.38-2.182 8-2.011.44.045.69.091.69.091.57-.757.96-1.604 1.24-2.5.26-.871.41-1.788.46-2.719l-15.46 2.751-.64 15.935c1.58-.318 3.09-.877 4.34-1.805z" fill="#bc5654" fill-rule="nonzero"/><path d="M205.34 268.872v17.693H99.55v-13.558c-.02-.741-.04-1.481-.04-2.181 0-.658.02-1.317.02-1.954h105.81z" fill="#be3426" fill-rule="nonzero"/><path d="M98.83 161.162c-2.98-1.415-5-3.869-6.36-6.398.4-1.035.77-2.626 1.01-5.073.87-.383 1.84-.789 2.9-1.198.39 2.03.84 4.001 1.33 5.897.42 1.626.79 4.033 1.12 6.772z" fill="#c77b75" fill-rule="nonzero"/><path d="M120.78 164.442c-9.2 0-19.14-2.34-19.14-2.34a12.387 12.387 0 0 1-2.81-.94c-.33-2.739-.7-5.146-1.12-6.772a95.897 95.897 0 0 1-1.33-5.897c3.82-1.462 8.87-2.959 14.62-3.568 2.14 3.994 4.9 7.471 8.19 8.115 1.7.33 3.42.462 5.09.462 6.64 0 12.46-2.086 12.46-2.086v-.06l.01-.002s.03-.654.05-1.759a52.144 52.144 0 0 1 2.3 1.289v.002l.09.054c-1.2 2.637-2.49 5.064-3.51 6.922-1.8 3.233-4.96 5.511-8.61 6.119-1.96.328-4.1.461-6.29.461z" fill="#ce877f" fill-rule="nonzero"/><path d="M124.28 153.502c-1.67 0-3.39-.132-5.09-.462-3.29-.644-6.05-4.121-8.19-8.115 1.61-.17 3.26-.271 4.97-.282a8.297 8.297 0 0 0 7.5 4.751c2.45 0 4.66-1.065 6.17-2.758 2.14.665 4.28 1.518 6.43 2.589.03.81.04 1.603.06 2.365.38-.158.57-.221.61-.234v.06s-5.82 2.086-12.46 2.086z" fill="#dea8af" fill-rule="nonzero"/><path d="M136.13 151.59c-.02-.762-.03-1.555-.06-2.365l.73.37c-.02 1.105-.05 1.759-.05 1.759l-.01.002a8.58 8.58 0 0 0-.61.234z" fill="#c9827d" fill-rule="nonzero"/><path d="M123.47 149.394a8.297 8.297 0 0 1-7.5-4.751l.3-.001h.04c1.21.001 2.45.047 3.7.146.73 1.027 1.83 1.733 3.07 1.836.11.009.22.013.32.013.96 0 1.87-.357 2.62-.96 1.2.263 2.41.581 3.62.959a8.251 8.251 0 0 1-6.17 2.758z" fill="#6e2c30" fill-rule="nonzero"/><path d="M123.4 146.637c-.1 0-.21-.004-.32-.013-1.24-.103-2.34-.809-3.07-1.836.52.041 1.05.092 1.58.153.52.414 1.11.674 1.7.724.07.006.14.009.21.009.4 0 .82-.092 1.22-.262.43.081.87.17 1.3.265-.75.603-1.66.96-2.62.96z" fill="#933637" fill-rule="nonzero"/><path d="M123.5 145.674c-.07 0-.14-.003-.21-.009-.59-.05-1.18-.31-1.7-.724 1.03.118 2.08.274 3.13.471-.4.17-.82.262-1.22.262z" fill="#542d31" fill-rule="nonzero"/><path d="M92.47 154.764a22.898 22.898 0 0 1-1.61-3.824c.02-.012.05-.024.07-.036.02-.008.03-.016.05-.023.07-.037.14-.075.22-.113a57.39 57.39 0 0 1 2.28-1.077c-.24 2.447-.61 4.038-1.01 5.073z" fill="#643232" fill-rule="nonzero"/><path d="M93.48 149.691c.22-2.252.32-5.228.21-9.162.23-2.429.57-4.667.99-6.728.2 5.068.81 10.033 1.7 14.692-1.06.409-2.03.815-2.9 1.198z" fill="url(#a)"/><path d="M139.19 150.94l-.09-.054v-.002l-.27-.161c-.68-.399-1.36-.774-2.03-1.128.06-3.662.09-12.279-.94-18.453 1.83 1.359 2.83 2.358 2.84 2.371a2.023 2.023 0 0 0 2.54.266c.34-.226.59-.541.75-.894.72.947 1.15 2.189 1.22 3.401.24 4.107-1.77 9.751-4.02 14.654zm-42.81-2.447a99.661 99.661 0 0 1-1.7-14.692c.18-.85.37-1.67.57-2.461a69.04 69.04 0 0 1 13.34-2.859c-.89.818-1.8 1.722-2.72 2.717 0 0 0 .015.01.044-.01.006-.02.012-.02.019 0 0 1.82 7.456 5.14 13.664-5.75.609-10.8 2.106-14.62 3.568z" fill="url(#b)"/><path d="M136.07 149.225a43.336 43.336 0 0 0-6.42-2.589 8.29 8.29 0 0 0 2.11-5.536 8.29 8.29 0 1 0-16.58 0c0 1.268.28 2.469.79 3.543-1.71.011-3.36.112-4.97.282-3.32-6.208-5.14-13.664-5.14-13.664 0-.007.01-.013.02-.019.08.338.62 2.569 1.64 5.441 6.06-5.666 11.36-7.449 15.64-7.449 4.25 0 7.5 1.758 9.49 3.219 2.41 1.709 3.2 9.873 3.42 16.772z" fill="url(#c)"/><path d="M136.8 149.595l-.73-.37c-.22-6.899-1.01-15.063-3.42-16.772-1.99-1.461-5.24-3.219-9.49-3.219-4.28 0-9.58 1.783-15.64 7.449-1.02-2.872-1.56-5.103-1.64-5.441-.01-.029-.01-.044-.01-.044.92-.995 1.83-1.899 2.72-2.717 2.71-.306 5.31-.434 7.77-.434 7.46 0 13.69 1.177 18.2 2.169.47.322.91.632 1.3.926 1.03 6.174 1 14.791.94 18.453z" fill="url(#d)"/><path d="M129.65 146.636a43.913 43.913 0 0 0-3.63-.959c.09-.068.17-.138.25-.212a.99.99 0 0 0 .2.02c.44 0 .81-.287.85-.667a.7.7 0 0 0-.14-.465c.4-.666.66-1.439.73-2.268.21-2.657-1.63-5.071-4.02-5.268a3.997 3.997 0 0 0-.32-.014c-1.29 0-2.5.649-3.35 1.676a1.636 1.636 0 0 0-.07-.002c-.89 0-1.62.573-1.69 1.342-.04.495.21.959.64 1.263l-.03.27a5.142 5.142 0 0 0 .94 3.436 46.965 46.965 0 0 0-3.7-.146h-.04l-.3.001a8.233 8.233 0 0 1-.79-3.543 8.29 8.29 0 1 1 16.58 0 8.29 8.29 0 0 1-2.11 5.536z" fill="url(#e)"/><path d="M126.02 145.677c-.43-.096-.87-.184-1.3-.265.3-.131.6-.307.88-.525.07.28.33.511.67.578-.08.074-.16.144-.25.212zm-4.43-.736c-.53-.061-1.06-.112-1.58-.153a5.142 5.142 0 0 1-.91-3.706c.27.195.6.324.98.356v.004a4.076 4.076 0 0 0 1.51 3.499zm5.59-.588a.948.948 0 0 0-.75-.348c.39-.555.65-1.227.71-1.98.19-2.253-1.54-4.09-3.21-4.231a2.458 2.458 0 0 0-.21-.009c-.83 0-1.71.39-2.41 1.061a1.929 1.929 0 0 0-.99-.362l-.1-.005c.85-1.027 2.06-1.676 3.35-1.676.1 0 .21.005.32.014 2.39.197 4.23 2.611 4.02 5.268a5.264 5.264 0 0 1-.73 2.268z" fill="url(#f)"/><path d="M124.72 145.412c-1.05-.197-2.1-.353-3.13-.471a4.076 4.076 0 0 1-1.51-3.499v-.004c.05.005.11.007.17.007.88 0 1.63-.571 1.69-1.337.04-.495-.21-.957-.63-1.262.7-.671 1.58-1.061 2.41-1.061.07 0 .14.003.21.009 1.67.141 3.4 1.978 3.21 4.231a3.975 3.975 0 0 1-.71 1.98h-.01c-.44 0-.81.287-.84.667-.01.074 0 .146.02.215-.28.218-.58.394-.88.525z" fill="url(#g)"/><path d="M120.25 141.445a1.933 1.933 0 0 1-1.15-.363c-.43-.304-.68-.768-.64-1.263.07-.769.8-1.342 1.69-1.342l.07.002.1.005c.38.031.72.163.99.362.42.305.67.767.63 1.262-.06.766-.81 1.337-1.69 1.337z" fill="url(#h)"/><path d="M126.47 145.485l-.08-.003a.99.99 0 0 1-.12-.017c-.34-.067-.6-.298-.67-.578a.518.518 0 0 1-.02-.215c.03-.38.4-.667.84-.667h.01a.948.948 0 0 1 .75.348.7.7 0 0 1 .14.465c-.04.38-.41.667-.85.667z" fill="url(#i)"/><path d="M140.14 134.107c-.53 0-1.05-.202-1.44-.594-.01-.013-1.01-1.012-2.84-2.371-.39-.294-.83-.604-1.3-.926 2.03.448 3.72.858 5.01 1.105.99.189 1.81.774 2.42 1.564-.16.353-.41.668-.75.894-.34.221-.72.328-1.1.328z" fill="url(#j)"/><path d="M90.86 150.94a28.529 28.529 0 0 1-1-4.151c-.08-.553-.17-1.106-.29-1.653-2.26-10.316 1.88-12.438 2.97-12.814.46-.16.9-.376 1.36-.537.45-.154.9-.302 1.35-.445-.2.791-.39 1.611-.57 2.461a63.776 63.776 0 0 0-.99 6.728c.11 3.934.01 6.91-.21 9.162-.87.39-1.64.755-2.28 1.077-.08.038-.15.076-.22.113-.02.007-.03.015-.05.023-.02.012-.05.024-.07.036z" fill="url(#k)"/><path d="M136.07 149.225a43.009 43.009 0 0 0-6.43-2.589h.01c2.13.665 4.27 1.518 6.42 2.589z" fill="url(#l)"/><path d="M136.8 149.595l-.73-.37.73.37z" fill="url(#m)"/><path d="M129.64 146.636a43.061 43.061 0 0 0-3.62-.959c1.2.262 2.41.581 3.63.959h-.01zm-9.63-1.848z" fill="url(#n)"/><path d="M126.02 145.677zm-4.43-.736z" fill="url(#o)"/><path d="M204.3 160.501c.3-2.464.64-4.617 1.03-6.111.42-1.625.82-3.305 1.17-5.032a54.7 54.7 0 0 1 3.65 1.72c.11.496.23.964.35 1.406-1.14 2.885-3.05 6.057-6.2 8.017z" fill="#cd837e" fill-rule="nonzero"/><path d="M181.14 164.442c-2.19 0-4.34-.133-6.3-.461-3.65-.608-6.8-2.886-8.6-6.119-1.1-1.985-2.49-4.617-3.76-7.463.07-.044.15-.088.23-.132a42.855 42.855 0 0 1 5.01-2.418c.02 1.735.06 2.82.06 2.82l.01.003v.059s5.82 2.086 12.46 2.086c1.67 0 3.39-.132 5.09-.462 2.98-.583 5.53-3.489 7.57-6.998 5.53.921 10.25 2.573 13.59 4.001a97.467 97.467 0 0 1-1.17 5.032c-.39 1.494-.73 3.647-1.03 6.111-1.17.724-2.5 1.283-4.03 1.601 0 0-9.94 2.34-19.13 2.34z" fill="#d69188" fill-rule="nonzero"/><path d="M180.25 152.817c-6.64 0-12.46-2.086-12.46-2.086v-.059c.04.013.24.075.61.233.02-1.073.05-2.206.09-3.363a42.908 42.908 0 0 1 6.17-1.852 8.268 8.268 0 0 0 6.4 3.019c2.98 0 5.59-1.571 7.05-3.93 1.66.122 3.26.322 4.8.578-2.04 3.509-4.59 6.415-7.57 6.998-1.7.33-3.42.462-5.09.462z" fill="#dea8af" fill-rule="nonzero"/><path d="M168.4 150.905c-.37-.158-.57-.22-.61-.233l-.01-.003s-.04-1.085-.06-2.82c.25-.105.52-.208.77-.307-.04 1.157-.07 2.29-.09 3.363z" fill="#c9827d" fill-rule="nonzero"/><path d="M181.06 148.709a8.268 8.268 0 0 1-6.4-3.019c1.3-.287 2.6-.51 3.88-.674.74.588 1.64.936 2.59.936.1 0 .21-.005.32-.014 1.01-.083 1.92-.565 2.63-1.294l.36-.002h.04c1.23.001 2.45.049 3.63.137a8.277 8.277 0 0 1-7.05 3.93z" fill="#6e2c30" fill-rule="nonzero"/><path d="M181.13 145.952c-.95 0-1.85-.348-2.59-.936.53-.068 1.05-.126 1.58-.175a2.975 2.975 0 0 0 1.12.139c.34-.029.68-.128 1.01-.287.61-.028 1.22-.044 1.83-.049-.71.729-1.62 1.211-2.63 1.294-.11.009-.22.014-.32.014z" fill="#933637" fill-rule="nonzero"/><path d="M181.03 144.988c-.3 0-.61-.05-.91-.147.71-.066 1.43-.115 2.13-.148-.33.159-.67.258-1.01.287-.07.006-.14.009-.21.008z" fill="#542d31" fill-rule="nonzero"/><path d="M210.5 152.484c-.12-.442-.24-.91-.35-1.406.16.082.31.161.44.234.02.006.03.011.04.017.06.032.11.062.17.092.02.015.05.03.08.044-.12.334-.24.675-.38 1.019z" fill="#643232" fill-rule="nonzero"/><path d="M210.15 151.078a54.7 54.7 0 0 0-3.65-1.72c1.11-5.464 1.83-11.383 1.94-17.408.31.127.62.262.94.372.25.087.67.268 1.13.622-1.58 7.76-1.28 13.914-.36 18.134z" fill="url(#p)"/><path d="M162.48 150.399c-2.15-4.777-4.01-10.156-3.77-14.113.12-2.223 1.45-4.55 3.63-4.965.22-.041.44-.087.68-.137-.37.768-.23 1.713.38 2.329a2.013 2.013 0 0 0 2.86-.001l.02-.017c.1-.102.85-.842 2.21-1.892-.77 5.493-.82 12.437-.77 16.246a42.855 42.855 0 0 0-5.01 2.418c-.08.044-.16.088-.23.132zm44.02-1.041c-3.34-1.428-8.06-3.081-13.59-4.001 3.72-6.391 5.76-14.781 5.76-14.781-.01-.006-.01-.013-.02-.019.01-.029.01-.044.01-.044a52.3 52.3 0 0 0-1.42-1.477c3.44.589 7.04 1.476 10.77 2.749.14.051.29.107.43.165-.11 6.025-.83 11.944-1.94 17.408z" fill="url(#q)"/><path d="M168.49 147.542c.26-6.667 1.09-14.146 3.39-15.774 1.99-1.461 5.24-3.22 9.49-3.22 4.28 0 9.58 1.783 15.64 7.449 1.02-2.871 1.56-5.102 1.64-5.44.01.006.01.013.02.019 0 0-2.04 8.39-5.76 14.781a52.525 52.525 0 0 0-4.8-.578 8.219 8.219 0 0 0 1.24-4.363 8.29 8.29 0 1 0-16.58 0 8.27 8.27 0 0 0 1.89 5.274c-2.04.449-4.1 1.057-6.17 1.852z" fill="url(#r)"/><path d="M167.72 147.849c-.05-3.809 0-10.753.77-16.246.62-.476 1.36-1.015 2.21-1.587.32-.233.66-.458 1.01-.679 3.88-.698 8.55-1.29 13.84-1.29 3.62 0 7.53.278 11.69.989.47.468.94.96 1.42 1.477 0 0 0 .015-.01.044-.08.338-.62 2.569-1.64 5.44-6.06-5.666-11.36-7.449-15.64-7.449-4.25 0-7.5 1.759-9.49 3.22-2.3 1.628-3.13 9.107-3.39 15.774-.25.099-.52.202-.77.307z" fill="url(#s)"/><path d="M174.66 145.69a8.27 8.27 0 0 1-1.89-5.274 8.29 8.29 0 1 1 16.58 0c0 1.6-.45 3.095-1.24 4.363-1.18-.088-2.4-.136-3.63-.137h-.04l-.36.002a5.156 5.156 0 0 0 1.38-3.977l-.03-.27c.43-.304.68-.768.64-1.263-.06-.769-.8-1.342-1.69-1.342l-.07.002c-.85-1.026-2.06-1.676-3.35-1.676-.1 0-.21.005-.32.014-2.39.197-4.23 2.61-4.02 5.267.07.829.33 1.603.73 2.268a.704.704 0 0 0-.14.466c.04.38.4.667.84.667l.09-.003a.99.99 0 0 0 .12-.017c.09.082.18.161.28.236-1.28.164-2.58.387-3.88.674z" fill="url(#t)"/><path d="M178.54 145.016c-.1-.075-.19-.154-.28-.236.34-.067.6-.298.67-.577.37.289.78.506 1.19.638-.52.049-1.05.107-1.58.175zm3.71-.323c1.28-.619 2.35-2.144 2.2-3.936v-.004c.38-.032.71-.161.98-.356l.03.27a5.156 5.156 0 0 1-1.38 3.977c-.61.005-1.22.021-1.83.049zm-4.9-1.026a5.26 5.26 0 0 1-.73-2.268c-.21-2.657 1.63-5.07 4.02-5.267.11-.009.22-.014.32-.014 1.29 0 2.5.65 3.35 1.676l-.1.005c-.38.031-.72.163-.99.362-.7-.671-1.59-1.061-2.42-1.061-.07 0-.13.003-.2.008-1.67.142-3.4 1.979-3.21 4.232.06.753.32 1.425.71 1.98a.942.942 0 0 0-.75.347z" fill="url(#u)"/><path d="M180.12 144.841a3.892 3.892 0 0 1-1.19-.638c.02-.07.03-.142.02-.216-.03-.38-.4-.667-.84-.667h-.01a3.975 3.975 0 0 1-.71-1.98c-.19-2.253 1.54-4.09 3.21-4.232.07-.005.13-.008.2-.008.83 0 1.72.39 2.42 1.061-.42.305-.67.767-.63 1.262.06.765.81 1.337 1.69 1.337.06 0 .12-.002.17-.007v.004c.15 1.792-.92 3.317-2.2 3.936-.7.033-1.41.082-2.13.148z" fill="url(#v)"/><path d="M184.28 140.76c-.88 0-1.63-.572-1.69-1.337-.04-.495.21-.957.63-1.262.27-.199.61-.331.99-.362l.1-.005.07-.002c.89 0 1.63.573 1.69 1.342.04.495-.21.959-.64 1.263a1.933 1.933 0 0 1-1.15.363z" fill="url(#w)"/><path d="M178.05 144.8c-.44 0-.8-.287-.84-.667a.704.704 0 0 1 .14-.466.942.942 0 0 1 .75-.347h.01c.44 0 .81.287.84.667.01.074 0 .146-.02.216-.07.279-.33.51-.67.577a.99.99 0 0 1-.21.02z" fill="url(#x)"/><path d="M164.83 134.108c-.54 0-1.04-.21-1.43-.595a2.058 2.058 0 0 1-.38-2.329c2.1-.44 5.05-1.191 8.69-1.847-.35.221-.69.446-1.01.679-.85.572-1.59 1.111-2.21 1.587-1.36 1.05-2.11 1.79-2.21 1.892l-.02.017c-.38.384-.89.596-1.43.596z" fill="url(#y)"/><path d="M210.88 151.465a.487.487 0 0 1-.08-.044c-.06-.03-.11-.06-.17-.092a.158.158 0 0 0-.04-.017c-.13-.073-.28-.152-.44-.234-.92-4.22-1.22-10.374.36-18.134 1.53 1.177 3.57 4.266 1.83 12.192-.12.547-.21 1.1-.29 1.653-.16.978-.49 2.714-1.17 4.676z" fill="url(#z)"/><path d="M206.5 149.358c-3.34-1.428-8.06-3.08-13.59-4.001 5.53.92 10.25 2.573 13.59 4.001z" fill="url(#A)"/><path d="M212.34 145.136c-.12.547-.21 1.1-.29 1.653-.16.978-.49 2.714-1.17 4.676-1.44 4.163-4.46 9.359-10.61 10.636 0 0-15.24 3.588-25.43 1.88-3.65-.608-6.8-2.886-8.6-6.12a94.358 94.358 0 0 1-3.76-7.463c-2.15-4.776-4.01-10.155-3.77-14.113.12-2.222 1.45-4.549 3.63-4.964 6.7-1.282 23.97-6.937 45.67.464.46.161.9.377 1.37.537 1.09.376 5.22 2.498 2.96 12.814zm-73.15 5.804c-1.2 2.637-2.49 5.064-3.51 6.921-1.8 3.234-4.96 5.512-8.61 6.12-10.19 1.708-25.43-1.88-25.43-1.88-6.41-1.332-9.41-6.926-10.78-11.161a28.529 28.529 0 0 1-1-4.151c-.08-.553-.17-1.106-.29-1.653-2.26-10.316 1.88-12.438 2.97-12.814.46-.16.9-.376 1.36-.537 21.7-7.401 38.97-1.746 45.67-.464 2.19.415 3.51 2.742 3.64 4.964.24 4.108-1.77 9.752-4.02 14.655zm78.36-8.751l.03-6.628c0-1.332-.68-2.565-1.82-3.256-4.67-2.83-19.01-10.017-34.01-7.921 0 0-16.37 2.216-23.46 4.947a13.18 13.18 0 0 1-3.32.78l-4.01.436-4.02-.436a13.005 13.005 0 0 1-3.31-.78c-7.1-2.731-23.47-4.947-23.47-4.947-15-2.096-29.33 5.091-34.01 7.921a3.791 3.791 0 0 0-1.82 3.256l.03 6.628c-.12.498.04.835.33 1.062 1.38 1.089 2.13 2.791 2.38 4.527 1.32 9.116 5.59 13.483 5.59 13.483 5.48 6.827 27.65 6.225 35.87 5.749 3.22-.188 6.25-1.553 8.47-3.886 5.02-5.274 7.88-14.002 8.8-17.214.38-1.299 1.01-2.516 1.93-3.516 1.2-1.299 2.29-1.647 2.93-1.725 0 0 .16-.033.44-.016l.15.016c.65.078 1.73.426 2.93 1.725.92 1 1.55 2.217 1.93 3.516.93 3.212 3.79 11.94 8.8 17.214 2.22 2.333 5.26 3.698 8.47 3.886 8.23.476 30.39 1.078 35.87-5.749 0 0 4.27-4.367 5.59-13.483.25-1.736 1-3.438 2.39-4.527.28-.227.44-.564.32-1.062z" fill="#fff" fill-rule="nonzero"/><defs><linearGradient id="a" x2="1" gradientUnits="userSpaceOnUse" gradientTransform="rotate(88.468 -2.57 118.054) scale(49.8215)"><stop offset="0" stop-color="#e7d1bf"/><stop offset="1" stop-color="#de7474"/></linearGradient><linearGradient id="b" x2="1" gradientUnits="userSpaceOnUse" gradientTransform="rotate(88.468 -2.57 118.054) scale(49.8215)"><stop offset="0" stop-color="#efdcca"/><stop offset="1" stop-color="#e47e7c"/></linearGradient><linearGradient id="c" x2="1" gradientUnits="userSpaceOnUse" gradientTransform="rotate(88.468 -2.57 118.054) scale(49.8215)"><stop offset="0" stop-color="#fff"/><stop offset="1" stop-color="#f2979f"/></linearGradient><linearGradient id="d" x2="1" gradientUnits="userSpaceOnUse" gradientTransform="rotate(88.468 -2.57 118.054) scale(49.8215)"><stop offset="0" stop-color="#e9d7c8"/><stop offset="1" stop-color="#e07a7b"/></linearGradient><linearGradient id="e" x2="1" gradientUnits="userSpaceOnUse" gradientTransform="rotate(88.468 -2.57 118.054) scale(49.8215)"><stop offset="0" stop-color="#967b70"/><stop offset="1" stop-color="#923440"/></linearGradient><linearGradient id="f" x2="1" gradientUnits="userSpaceOnUse" gradientTransform="rotate(88.468 -2.57 118.054) scale(49.8215)"><stop offset="0" stop-color="#b78d79"/><stop offset="1" stop-color="#b13b45"/></linearGradient><linearGradient id="g" x2="1" gradientUnits="userSpaceOnUse" gradientTransform="rotate(88.468 -2.57 118.054) scale(49.8215)"><stop offset="0" stop-color="#7e756f"/><stop offset="1" stop-color="#7d3741"/></linearGradient><linearGradient id="h" x2="1" gradientUnits="userSpaceOnUse" gradientTransform="rotate(88.468 -2.57 118.054) scale(49.8215)"><stop offset="0" stop-color="#fff"/><stop offset="1" stop-color="#f2979f"/></linearGradient><linearGradient id="i" x2="1" gradientUnits="userSpaceOnUse" gradientTransform="rotate(88.468 -2.57 118.054) scale(49.8215)"><stop offset="0" stop-color="#fff"/><stop offset="1" stop-color="#f2979f"/></linearGradient><linearGradient id="j" x2="1" gradientUnits="userSpaceOnUse" gradientTransform="rotate(88.468 -2.57 118.054) scale(49.8215)"><stop offset="0" stop-color="#6f6c6c"/><stop offset="1" stop-color="#6f313e"/></linearGradient><linearGradient id="k" x2="1" gradientUnits="userSpaceOnUse" gradientTransform="rotate(88.468 -2.57 118.054) scale(49.8215)"><stop offset="0" stop-color="#8d7d71"/><stop offset="1" stop-color="#8a3b41"/></linearGradient><linearGradient id="l" x2="1" gradientUnits="userSpaceOnUse" gradientTransform="rotate(88.468 -2.57 118.054) scale(49.8215)"><stop offset="0" stop-color="#eed3d5"/><stop offset="1" stop-color="#e37384"/></linearGradient><linearGradient id="m" x2="1" gradientUnits="userSpaceOnUse" gradientTransform="rotate(88.468 -2.57 118.054) scale(49.8215)"><stop offset="0" stop-color="#e1beb8"/><stop offset="1" stop-color="#d9606f"/></linearGradient><linearGradient id="n" x2="1" gradientUnits="userSpaceOnUse" gradientTransform="rotate(88.468 -2.57 118.054) scale(49.8215)"><stop offset="0" stop-color="#ad8581"/><stop offset="1" stop-color="#a8334b"/></linearGradient><linearGradient id="o" x2="1" gradientUnits="userSpaceOnUse" gradientTransform="rotate(88.468 -2.57 118.054) scale(49.8215)"><stop offset="0" stop-color="#c28f86"/><stop offset="1" stop-color="#bb354e"/></linearGradient><linearGradient id="p" x2="1" gradientUnits="userSpaceOnUse" gradientTransform="rotate(88.468 33.252 152.931) scale(49.8215)"><stop offset="0" stop-color="#ecd8c9"/><stop offset="1" stop-color="#e37a7b"/></linearGradient><linearGradient id="q" x2="1" gradientUnits="userSpaceOnUse" gradientTransform="rotate(88.468 33.252 152.931) scale(49.8215)"><stop offset="0" stop-color="#f7e7d4"/><stop offset="1" stop-color="#eb8683"/></linearGradient><linearGradient id="r" x2="1" gradientUnits="userSpaceOnUse" gradientTransform="rotate(88.468 33.252 152.931) scale(49.8215)"><stop offset="0" stop-color="#fff"/><stop offset="1" stop-color="#f2979f"/></linearGradient><linearGradient id="s" x2="1" gradientUnits="userSpaceOnUse" gradientTransform="rotate(88.468 33.252 152.931) scale(49.8215)"><stop offset="0" stop-color="#e9d7c8"/><stop offset="1" stop-color="#e07a7b"/></linearGradient><linearGradient id="t" x2="1" gradientUnits="userSpaceOnUse" gradientTransform="rotate(88.468 33.252 152.931) scale(49.8215)"><stop offset="0" stop-color="#967b70"/><stop offset="1" stop-color="#923440"/></linearGradient><linearGradient id="u" x2="1" gradientUnits="userSpaceOnUse" gradientTransform="rotate(88.468 33.252 152.931) scale(49.8215)"><stop offset="0" stop-color="#b78d79"/><stop offset="1" stop-color="#b13b45"/></linearGradient><linearGradient id="v" x2="1" gradientUnits="userSpaceOnUse" gradientTransform="rotate(88.468 33.252 152.931) scale(49.8215)"><stop offset="0" stop-color="#7e756f"/><stop offset="1" stop-color="#7d3741"/></linearGradient><linearGradient id="w" x2="1" gradientUnits="userSpaceOnUse" gradientTransform="rotate(88.468 33.252 152.931) scale(49.8215)"><stop offset="0" stop-color="#fff"/><stop offset="1" stop-color="#f2979f"/></linearGradient><linearGradient id="x" x2="1" gradientUnits="userSpaceOnUse" gradientTransform="rotate(88.468 33.252 152.931) scale(49.8215)"><stop offset="0" stop-color="#fff"/><stop offset="1" stop-color="#f2979f"/></linearGradient><linearGradient id="y" x2="1" gradientUnits="userSpaceOnUse" gradientTransform="rotate(88.468 33.252 152.931) scale(49.8215)"><stop offset="0" stop-color="#6f6c6c"/><stop offset="1" stop-color="#6f313e"/></linearGradient><linearGradient id="z" x2="1" gradientUnits="userSpaceOnUse" gradientTransform="rotate(88.468 33.252 152.931) scale(49.8215)"><stop offset="0" stop-color="#8d7d71"/><stop offset="1" stop-color="#8a3b41"/></linearGradient><linearGradient id="A" x2="1" gradientUnits="userSpaceOnUse" gradientTransform="rotate(88.468 33.252 152.931) scale(49.8215)"><stop offset="0" stop-color="#e9c7bf"/><stop offset="1" stop-color="#e06875"/></linearGradient></defs></svg>