<svg viewBox="0 0 300 301" xmlns="http://www.w3.org/2000/svg" fill-rule="evenodd" clip-rule="evenodd" stroke-linejoin="round" stroke-miterlimit="1.414"><path fill="#ca5681" fill-rule="nonzero" d="M.399.18H299.77v299.71H.399z"/><path d="M154.34 187.44v112.62H93.62c-.99-.4-1.48-.6-1.48-.6 0-14.37 2.1-25.58 5.3-34.32 7.73-21.1 21.88-27.8 28.4-29.82 2.13-.66 3.45-.82 3.45-.82.23 0 .45-.02.67-.06 1.91-.31 3.46-1.97 4.71-4.63.92-1.97 1.7-4.49 2.33-7.41.25-1.14.45-2.28.65-3.52.29-2.08.58-4.26.84-6.55.09-1.38.24-2.72.39-4.16.54-6.89.69-14.43.69-21.58 0 0 8.16.85 14.77.85z" fill="#e0bd9a" fill-rule="nonzero"/><path d="M216.8 299.46s-.54.2-1.43.6h-61.03V187.44h.15c6.57 0 14.83-.85 14.83-.85 0 7.1.14 14.53.69 21.43.15 1.34.3 2.72.39 4.07.25 2.38.55 4.61.89 6.69v.05c.1.94.3 1.79.45 2.68.6 2.93 1.33 5.5 2.2 7.57 1.1 2.57 2.42 4.36 4.03 5.07.52.24 1.06.35 1.63.35 0 0 2.34.28 5.84 1.66 7.15 2.81 19.16 10.18 26.05 28.98 3.21 8.74 5.31 19.95 5.31 34.32z" fill="#efd0ad" fill-rule="nonzero"/><path d="M171.29 218.57v.05c-1.53 2.36-6.67 9.16-16.85 9.16h-.09c-9.64-.05-15.27-7.04-16.71-9.11.3-2.07.6-4.24.84-6.5.1-1.33.25-2.71.4-4.14 4.69 1.18 9.83 1.92 15.27 2.02h.2c5.63-.1 10.82-.89 15.66-2.17.15 1.33.3 2.71.4 4.04.24 2.36.54 4.58.88 6.65z" fill="#be987f" fill-rule="nonzero"/><path d="M153.65 59.09c-64.33 0-64.68 53.95-61.81 89.28-4.4-8.38-17.49-5.82-16.41 7.39 1.04 12.71 19.75 19.18 19.22 17.78 9.75 26.13 35.53 45.82 59 45.82h.5V59.09h-.5z" fill="#d2a686" fill-rule="nonzero"/><path d="M79.53 150.19c3.17-5.12 8.11-2.91 9.29-1.77 1.29 1.23 2.33 2.8 1.54 5.81-.45 1.72-2.23 1.87-1.83 4.43.49 2.91 1.83 3.06 2.62 3.75.74.64 1.68 1.13 2.12 2.36.5 1.23.54 2.51.3 3.65-.5 2.07-3.51.39-5.54-.5-1.33-.64-5.58-4.23-6.67-5.41-2.67-3.06-3.95-8.97-1.83-12.32z" fill="#ac8774" fill-rule="nonzero"/><path d="M154 59.09c64.34 0 64.68 53.95 61.87 89.28 4.39-8.38 17.44-5.82 16.35 7.39-.99 12.71-19.73 19.19-19.22 17.78-9.49 26.13-35.53 45.82-59 45.82h-.35l-.14-160.27h.49z" fill="#ddb598" fill-rule="nonzero"/><path d="M228.12 150.19c-3.16-5.12-8.05-2.91-9.29-1.77-1.28 1.23-2.27 2.8-1.53 5.81.44 1.72 2.22 1.87 1.83 4.43-.5 2.91-1.83 3.06-2.57 3.75-.74.64-1.73 1.13-2.18 2.36-.44 1.23-.54 2.51-.29 3.65.49 2.07 3.5.39 5.53-.5 1.38-.64 5.58-4.23 6.67-5.41 2.72-3.06 3.95-8.97 1.83-12.32z" fill="#ac8774" fill-rule="nonzero"/><path d="M153.15 74.32c-21.15 0-36.67 6.16-46.01 18.28-13.09 16.99-12.6 42.91-7.8 61.53 1.48 5.72 2.27 21.04 3.26 26.65 4.59 25.18 32.31 38.58 50.55 38.58h.49V74.32h-.49z" fill="#e0bd9a" fill-rule="nonzero"/><path d="M199.1 92.65c-9.29-12.08-24.61-18.23-45.46-18.33v145.04c20.85-.25 45.81-14.93 50.06-38.58 1.04-5.61 1.78-20.93 3.26-26.65 4.84-18.57 5.34-44.44-7.86-61.48z" fill="#efd0ad" fill-rule="nonzero"/><path d="M150.27 193.65c-.1-.02-.2-.04-.31-.07.1.03.19.04.31.07zm-.79-.18c-.09-.02-.18-.05-.27-.07h-.01s.11.03.28.07z" fill="#bc917b" fill-rule="nonzero"/><path d="M141.37 175.86c-.25-5.01 9.17-1.83 12.28-1.67 2.46.12 9.92-1.58 10.56-1.14 4.4 2.97-4.65 8.95-10.72 8.95-1.61 0-11.98-3.12-12.12-6.14z" fill="#ddb598" fill-rule="nonzero"/><path d="M135.68 74.68l-.27.27.05.09c.09-.14.13-.27.22-.36z" fill="#432e1b" fill-rule="nonzero"/><path d="M150.44 190.71zm-.8-.18c-.1-.03-.19-.06-.28-.08h-.01l.29.08z" fill="#ba907b" fill-rule="nonzero"/><path d="M107.49 130.93s4.91 20.2 13.33 21.84c8.43 1.65 17.55-1.62 17.55-1.62s.87-23.74-3.44-26.84c-4.31-3.12-14.25-7.62-27.44 6.62z" fill="#fff" fill-rule="nonzero"/><path d="M138.38 151.08s-.19.06-.62.24c-.11-7.28-.78-17.28-3.48-19.2-4-2.94-13.05-7.08-25.14 4.25-1.09-3.13-1.64-5.5-1.64-5.5 13.21-14.27 23.16-9.78 27.43-6.66 4.32 3.12 3.45 26.87 3.45 26.87z" fill="#d6b496" fill-rule="nonzero"/><path d="M133.39 140.8c0 4.59-3.71 8.32-8.29 8.32-4.58 0-8.3-3.73-8.3-8.32 0-4.6 3.72-8.32 8.3-8.32s8.29 3.72 8.29 8.32z" fill="#482315" fill-rule="nonzero"/><path d="M124.71 146.34c-2.39-.2-4.23-2.62-4.01-5.29.21-2.66 2.42-4.75 4.82-4.55 2.39.2 4.23 2.62 4.02 5.29-.22 2.66-2.43 4.75-4.83 4.55z" fill="#7e3a22" fill-rule="nonzero"/><path d="M124.92 145.38c-1.67-.14-3.4-1.98-3.21-4.24.18-2.27 2.19-3.8 3.85-3.66 1.67.14 3.4 1.99 3.21 4.25-.18 2.26-2.19 3.79-3.85 3.65z" fill="#211a10" fill-rule="nonzero"/><path d="M123.57 139.8c-.07.82-.91 1.42-1.86 1.34-.96-.08-1.69-.81-1.62-1.63.07-.82.9-1.41 1.86-1.34.96.08 1.68.81 1.62 1.63zm5.38 4.73c-.04.4-.46.7-.93.66-.48-.03-.84-.4-.81-.81.03-.4.45-.71.93-.66.48.03.84.4.81.81z" fill="#fff" fill-rule="nonzero"/><path d="M150.57 193.09c-.1-.02-.2-.04-.31-.07.11.02.2.04.31.07zm-.8-.18c-.1-.03-.18-.05-.28-.08h-.01l.29.08z" fill="#ba907b" fill-rule="nonzero"/><path d="M150.2 192.52zm-.87-.2c-.1-.02-.19-.05-.29-.08l-.01.01s.11.03.3.07zm.62-.65c-.11-.02-.22-.04-.33-.07.11.03.2.05.33.07zm-.86-.19c-.11-.03-.2-.06-.3-.08h-.01s.11.03.31.08zm1.63.08c-.11-.03-.22-.05-.32-.07.1.02.2.04.32.07zm-.83-.19c-.1-.03-.19-.05-.29-.08h-.01l.3.08z" fill="#bc917b" fill-rule="nonzero"/><path d="M200.3 130.24s-4.91 20.2-13.33 21.85c-8.43 1.65-17.55-1.63-17.55-1.63s-.87-23.74 3.44-26.84c4.31-3.11 14.25-7.62 27.44 6.62z" fill="#fff" fill-rule="nonzero"/><path d="M169.41 150.4s.19.05.62.23c.11-7.28.78-17.28 3.48-19.19 4-2.95 13.05-7.09 25.13 4.24 1.1-3.13 1.65-5.5 1.65-5.5-13.21-14.27-23.16-9.77-27.44-6.66-4.32 3.12-3.44 26.88-3.44 26.88z" fill="#d6b496" fill-rule="nonzero"/><path d="M174.4 140.11c0 4.6 3.71 8.32 8.29 8.32 4.58 0 8.29-3.72 8.29-8.32 0-4.59-3.71-8.32-8.29-8.32-4.58 0-8.29 3.73-8.29 8.32z" fill="#482315" fill-rule="nonzero"/><path d="M183.07 145.65c2.4-.2 4.24-2.62 4.02-5.29-.21-2.66-2.42-4.75-4.82-4.55-2.39.2-4.23 2.62-4.02 5.29.22 2.66 2.43 4.75 4.82 4.55z" fill="#7e3a22" fill-rule="nonzero"/><path d="M182.87 144.69c1.67-.14 3.4-1.98 3.21-4.24-.19-2.26-2.19-3.79-3.85-3.66-1.67.15-3.4 1.99-3.21 4.25.18 2.26 2.19 3.79 3.85 3.65z" fill="#211a10" fill-rule="nonzero"/><path d="M184.22 139.12c.07.81.9 1.41 1.86 1.33.96-.08 1.68-.81 1.62-1.62-.07-.82-.9-1.42-1.86-1.34-.96.08-1.69.81-1.62 1.63zm-5.38 4.72c.04.41.45.71.93.67.48-.04.84-.41.81-.82-.03-.4-.45-.7-.93-.66-.48.04-.84.4-.81.81z" fill="#fff" fill-rule="nonzero"/><path d="M143.43 130.61c-.06-.1-1.59-2.43-4.72-4.84-1.96-1.51-3.88-2.65-5.87-3.51a30.429 30.429 0 0 0-7.55-2.09c-2.28-.25-4.81-.18-7.77.22-2.25.43-4.45 1.1-6.32 1.93-1.33.45-2.38 1.1-3.22 1.62-.33.2-.62.38-.92.54l-4.02 2.54 4.64-1.1c.21-.05.45-.11.7-.18.96-.25 2.15-.57 3.55-.78.33-.05.66-.11 1-.18.59-.12 1.19-.24 1.82-.27.71-.04 1.43-.1 2.18-.15l.98-.07c2.57-.03 4.74.16 6.66.61 2.11.36 4.28 1.04 6.26 1.97 1.88.9 3.68 1.79 5.08 2.82 2.83 1.9 4.41 3.48 4.42 3.5.39.39.91.59 1.44.59.38 0 .76-.1 1.09-.32.94-.62 1.2-1.88.61-2.79l-.04-.06zm57.7-6.15c-.27-.14-.56-.32-.89-.52-.84-.52-1.89-1.17-3.18-1.61-1.91-.84-4.11-1.51-6.39-1.95-2.93-.39-5.46-.46-7.75-.2-2.51.34-5.12 1.06-7.54 2.08-1.97.85-3.94 2.03-5.87 3.51-3.07 2.36-4.6 4.65-4.71 4.83l-.03.04c-.52.8-.41 1.87.26 2.55.38.38.89.59 1.43.59.54 0 1.05-.21 1.43-.59l.01-.02c.15-.15 1.68-1.65 4.43-3.49 1.38-1.02 3.18-1.91 5.05-2.81 2-.93 4.16-1.61 6.3-1.98 1.9-.44 4.07-.63 6.6-.6l1.03.07c.74.05 1.46.11 2.17.15.62.03 1.22.15 1.81.27.34.07.67.13 1 .18 1.4.21 2.59.53 3.55.78.26.07.49.13.71.19l4.64 1.09-4.06-2.56z" fill="#030405" fill-rule="nonzero"/><path d="M149.12 195.48c-.11-.02-.22-.05-.33-.07.11.02.2.04.33.07zm-.84-.19c-.1-.03-.2-.05-.29-.08h-.01l.3.08z" fill="#be927b" fill-rule="nonzero"/><path d="M141.75 199.65c-.24-3.25 9.02.68 12.06.77 2.43.08 9.71-.48 10.39-.74 5.09-1.91-.28 5.43-10.54 5.82-4.7.18-11.77-3.88-11.91-5.85z" fill="#f0d2ad" fill-rule="nonzero"/><path d="M171.9 193.39c-2.51-.13-5.09 1.97-8.12 1.65-.12-.06-.18-.06-.31-.06-.7-.12-1.39 0-2.14.19-.94.19-1.89.58-2.77.88-1.51.5-3.22.89-4.97.76v.01l-.1-.01-.09.01v-.01c-1.76.13-3.46-.26-4.97-.76-.89-.3-1.83-.69-2.77-.88-.76-.19-1.45-.31-2.14-.19-.13 0-.19 0-.31.06-3.03.32-5.61-1.78-8.12-1.65-.7.06-1.71-.13-2.27-.13.12.06.25.13.38.19 7.17 3.5 13.35 10.06 20.2 9.85h.19c6.85.21 13.03-6.35 20.2-9.85.13-.06.25-.13.38-.19-.57 0-1.57.19-2.27.13z" fill="#dcbf9e" fill-rule="nonzero"/><path d="M174.01 193.19s-7.29-2.82-12.47-1.17c0 0-1.93.76-3.93 1.22-1.22.47-2.69.61-4.12.55-1.09-.04-2.12-.18-2.97-.33-.29-.04-.57-.1-.86-.16-.12-.03-.22-.05-.32-.07-.18-.04-.35-.08-.52-.12l-.3-.08h.01c-1.66-.45-3.08-1.01-3.08-1.01-5.18-1.65-12.47 1.17-12.47 1.17-.1.04-.16.07-.16.07.56 0 1.57.19 2.27.13 2.51-.13 5.09 1.97 8.12 1.65.12-.06.18-.06.31-.06.69-.12 1.38 0 2.14.19.94.19 1.88.58 2.77.88 1.51.5 3.21.89 4.97.76v.01l.09-.01.1.01v-.01c1.75.13 3.46-.26 4.97-.76.88-.3 1.83-.69 2.77-.88.75-.19 1.44-.31 2.14-.19.13 0 .19 0 .31.06 3.03.32 5.61-1.78 8.12-1.65.7.06 1.7-.13 2.27-.13 0 0-.06-.03-.16-.07z" fill="#c69f83" fill-rule="nonzero"/><path d="M141.26 194.9c.13.03 13.65 4.16 24.22.09l-1.21-.82h-14.3l-8.71.73z" fill="#c69f83" fill-rule="nonzero"/><path d="M207.23 272.52h9.84c-.6-6.57-7.34-22.59-7.34-22.59-.69-1-1.38-1.94-2.09-2.83-9.64-12.22-21.04-15.28-24.32-15.93-7.58 10-14.7 15.25-21.17 17.43-17.49 5.88-30.23-10.81-34.49-17.46-1.28.25-4.01.9-7.46 2.45-5.52 2.48-12.88 7.25-19.12 16.34 0 0-.06.1-.16.29-1.01 1.87-6.61 12.51-8.95 22.3h11.64c.15 12.84-.19 22.35-.52 27.54h104.64c-.15-2.32-.29-5.51-.4-9.47-.13-4.9-.19-10.97-.1-18.07z" fill="#9c3232" fill-rule="nonzero"/><path d="M98.01 146.99c-.26-1.59-.4-3.23-.4-4.91 0-7.37 2.51-12.54 7.62-15.58l2.45-.58c.21-.05.45-.11.7-.18.96-.25 2.15-.57 3.55-.78.33-.05.66-.11 1-.18.59-.12 1.19-.24 1.82-.27h.09c-2.31 1.5-4.77 3.57-7.34 6.36 0 0 0 .01.01.04-.01.01-.02.01-.02.02 0 0 1.87 7.69 5.28 13.97-5.04.44-9.97 1.15-14.76 2.09zm48.2-.62c-2.6-.47-5.19-.85-7.76-1.15-.02-4.23-.22-9.95-.96-14.41 1.83 1.36 2.83 2.37 2.84 2.38.39.39.91.59 1.44.59.38 0 .76-.1 1.09-.32.94-.62 1.2-1.88.61-2.79l-.04-.06c-.06-.1-1.59-2.43-4.72-4.84-.6-.47-1.21-.9-1.81-1.3 6.9 1.56 11.75 4.98 11.75 12.44 0 3.11-.9 6.33-2.44 9.46z" fill="url(#a)"/><path d="M137.52 145.12c-1.7-.18-3.4-.33-5.08-.44.61-1.16.95-2.48.95-3.88 0-4.6-3.71-8.32-8.29-8.32-4.58 0-8.3 3.72-8.3 8.32 0 1.35.33 2.63.9 3.77-1.65.08-3.3.19-4.93.33-3.41-6.28-5.28-13.97-5.28-13.97 0-.01.01-.01.02-.02.08.34.62 2.58 1.63 5.46 6.07-5.69 11.37-7.48 15.65-7.48 4.25 0 7.5 1.77 9.49 3.23 1.98 1.41 2.87 7.16 3.24 13z" fill="url(#b)"/><path d="M138.45 145.22c-.31-.03-.62-.07-.93-.1-.37-5.84-1.26-11.59-3.24-13-1.99-1.46-5.24-3.23-9.49-3.23-4.28 0-9.58 1.79-15.65 7.48a57.507 57.507 0 0 1-1.63-5.46c-.01-.03-.01-.04-.01-.04 2.57-2.79 5.03-4.86 7.34-6.36.68-.05 1.38-.1 2.09-.15l.98-.07h.53c2.34 0 4.34.19 6.13.61 2.11.36 4.28 1.04 6.26 1.97 1.88.9 3.68 1.79 5.08 2.82.58.39 1.11.77 1.58 1.12.74 4.46.94 10.18.96 14.41z" fill="url(#c)"/><path d="M132.44 144.68c-1.17-.08-2.33-.14-3.49-.18a.71.71 0 0 0-.15-.44c.41-.67.67-1.44.74-2.27.21-2.67-1.63-5.09-4.02-5.29-.11-.01-.22-.01-.32-.01-1.29 0-2.5.65-3.35 1.68h-.07c-.89 0-1.63.57-1.69 1.34-.04.5.21.96.64 1.27-.02.09-.03.18-.03.27-.1 1.25.24 2.44.89 3.38-1.3.03-2.6.07-3.89.14-.57-1.14-.9-2.42-.9-3.77 0-4.6 3.72-8.32 8.3-8.32s8.29 3.72 8.29 8.32c0 1.4-.34 2.72-.95 3.88z" fill="url(#d)"/><path d="M121.59 144.43c-.65-.94-.99-2.13-.89-3.38 0-.09.01-.18.03-.27.27.2.6.33.98.36-.11 1.32.43 2.49 1.24 3.27-.46.01-.91.01-1.36.02zm7.21-.37a.892.892 0 0 0-.66-.34c-.03-.01-.06-.01-.08-.01.39-.55.65-1.23.71-1.98.19-2.26-1.54-4.11-3.21-4.25-.07 0-.14-.01-.21-.01-.83 0-1.71.39-2.41 1.07-.27-.2-.61-.33-.99-.37h-.1c.85-1.03 2.06-1.68 3.35-1.68.1 0 .21 0 .32.01 2.39.2 4.23 2.62 4.02 5.29-.07.83-.33 1.6-.74 2.27z" fill="url(#e)"/><path d="M127.21 144.44c-1.03-.02-2.05-.03-3.07-.03h-1.19a4.068 4.068 0 0 1-1.24-3.27h.17c.88 0 1.63-.57 1.69-1.34.04-.49-.21-.96-.63-1.26.7-.68 1.58-1.07 2.41-1.07.07 0 .14.01.21.01 1.67.14 3.4 1.99 3.21 4.25-.06.75-.32 1.43-.71 1.98h-.01c-.44 0-.81.29-.84.67 0 .02-.01.04 0 .06z" fill="url(#f)"/><path d="M121.88 141.14h-.17c-.38-.03-.71-.16-.98-.36-.43-.31-.68-.77-.64-1.27.06-.77.8-1.34 1.69-1.34h.17c.38.04.72.17.99.37.42.3.67.77.63 1.26-.06.77-.81 1.34-1.69 1.34z" fill="url(#g)"/><path d="M128.95 144.5c-.58-.03-1.16-.04-1.74-.06-.01-.02 0-.04 0-.06.03-.38.4-.67.84-.67h.01c.02 0 .05 0 .08.01.28.02.52.15.66.34.1.13.15.28.15.44z" fill="url(#h)"/><path d="M141.77 133.78c-.53 0-1.05-.2-1.44-.59-.01-.01-1.01-1.02-2.84-2.38-.47-.35-1-.73-1.58-1.12-1.4-1.03-3.2-1.92-5.08-2.82-1.98-.93-4.15-1.61-6.26-1.97-1.79-.42-3.79-.61-6.13-.61h-.53l-.98.07c-.71.05-1.41.1-2.09.15h-.09c-.63.03-1.23.15-1.82.27-.34.07-.67.13-1 .18-1.4.21-2.59.53-3.55.78-.25.07-.49.13-.7.18l-2.45.58c3.7-2.2 8.75-3.28 15.21-3.28 5.85 0 11.65.17 16.46 1.25.6.4 1.21.83 1.81 1.3 3.13 2.41 4.66 4.74 4.72 4.84l.04.06c.59.91.33 2.17-.61 2.79-.33.22-.71.32-1.09.32z" fill="url(#i)"/><path d="M210.02 141.95c-.24-.02-.47-.04-.71-.07.17-1.27.3-2.56.42-3.86.18 1.23.28 2.54.29 3.93z" fill="url(#j)"/><path d="M161.01 145.51c-1.28-2.86-2.03-5.77-2.03-8.6 0-7.77 5.27-11.16 12.63-12.62-.7.45-1.4.95-2.1 1.48-3.07 2.36-4.6 4.65-4.71 4.83l-.03.04c-.52.8-.41 1.87.26 2.55.38.38.89.59 1.43.59.54 0 1.05-.21 1.43-.59l.01-.02c.11-.1.86-.84 2.22-1.9-.56 4-.74 8.76-.78 12.53-2.82.51-5.6 1.08-8.33 1.71zm48.3-3.63c-4.27-.38-8.5-.56-12.68-.56h-.18c2.5-5.52 3.85-11.08 3.85-11.08l-.02-.02c.01-.03.01-.04.01-.04-2.18-2.35-4.26-4.2-6.25-5.62.42.05.84.14 1.25.22.34.07.67.13 1 .18 1.4.21 2.59.53 3.55.78.26.07.49.13.71.19l1.41.33c4.37 2.43 6.95 6.34 7.77 11.76-.12 1.3-.25 2.59-.42 3.86z" fill="url(#k)"/><path d="M170.32 143.63c.41-5.56 1.3-10.85 3.19-12.19 1.99-1.47 5.24-3.23 9.49-3.23 4.28 0 9.58 1.79 15.64 7.47 1.01-2.88 1.56-5.12 1.64-5.46l.02.02s-1.35 5.56-3.85 11.08c-1.87 0-3.73.04-5.57.11.07-.43.1-.87.1-1.32 0-4.59-3.71-8.32-8.29-8.32-4.58 0-8.29 3.73-8.29 8.32 0 .98.17 1.92.48 2.8-1.53.22-3.05.46-4.56.72z" fill="url(#l)"/><path d="M169.34 143.8c.04-3.77.22-8.53.78-12.53.62-.48 1.36-1.02 2.21-1.59 1.38-1.02 3.18-1.91 5.05-2.81 2-.93 4.16-1.61 6.3-1.98 1.78-.41 3.8-.61 6.14-.61.15 0 .31.01.46.01l1.03.07c.74.05 1.46.11 2.17.15.19.01.37.03.56.05 1.99 1.42 4.07 3.27 6.25 5.62 0 0 0 .01-.01.04-.08.34-.63 2.58-1.64 5.46-6.06-5.68-11.36-7.47-15.64-7.47-4.25 0-7.5 1.76-9.49 3.23-1.89 1.34-2.78 6.63-3.19 12.19-.33.06-.65.11-.98.17z" fill="url(#m)"/><path d="M174.88 142.91c-.31-.88-.48-1.82-.48-2.8 0-4.59 3.71-8.32 8.29-8.32 4.58 0 8.29 3.73 8.29 8.32 0 .45-.03.89-.1 1.32-1.29.05-2.57.12-3.84.2.07-.41.09-.83.05-1.27l-.03-.27c.42-.3.68-.77.64-1.26-.07-.78-.8-1.35-1.69-1.35h-.07c-.85-1.03-2.06-1.68-3.35-1.68-.1 0-.21 0-.32.01-2.39.2-4.23 2.62-4.02 5.29.04.46.14.9.29 1.32-1.23.15-2.45.31-3.66.49z" fill="url(#n)"/><path d="M178.54 142.42c-.15-.42-.25-.86-.29-1.32-.21-2.67 1.63-5.09 4.02-5.29.11-.01.22-.01.32-.01 1.29 0 2.5.65 3.35 1.68-.04 0-.07 0-.1.01-.38.03-.72.16-.99.36-.7-.67-1.59-1.06-2.42-1.06h-.2c-1.67.15-3.4 1.99-3.21 4.25.03.46.15.89.32 1.29l-.8.09zm7.45-.71c.09-.4.13-.82.09-1.26.37-.03.71-.16.98-.36l.03.27c.04.44.02.86-.05 1.27-.35.03-.7.05-1.05.08z" fill="url(#o)"/><path d="M179.34 142.33c-.17-.4-.29-.83-.32-1.29-.19-2.26 1.54-4.1 3.21-4.25h.2c.83 0 1.72.39 2.42 1.06-.42.31-.67.77-.63 1.27.06.76.81 1.34 1.69 1.34.06 0 .11 0 .17-.01.04.44 0 .86-.09 1.26-2.24.16-4.46.37-6.65.62z" fill="url(#p)"/><path d="M185.91 140.46c-.88 0-1.63-.58-1.69-1.34-.04-.5.21-.96.63-1.27.27-.2.61-.33.99-.36.03-.01.06-.01.1-.01h.07c.89 0 1.62.57 1.69 1.35.04.49-.22.96-.64 1.26-.27.2-.61.33-.98.36-.06.01-.11.01-.17.01z" fill="url(#q)"/><path d="M166.46 133.78c-.54 0-1.05-.21-1.43-.59-.67-.68-.78-1.75-.26-2.55l.03-.04c.11-.18 1.64-2.47 4.71-4.83.7-.53 1.4-1.03 2.1-1.48 4.63-.92 10.08-1.07 15.58-1.07 6.19 0 11.11 1 14.77 3.04l-1.41-.33c-.22-.06-.45-.12-.71-.19-.96-.25-2.15-.57-3.55-.78-.33-.05-.66-.11-1-.18-.41-.08-.83-.17-1.25-.22-.19-.02-.37-.04-.56-.05-.71-.04-1.43-.1-2.17-.15l-1.03-.07c-.15 0-.31-.01-.46-.01-2.34 0-4.36.2-6.14.61-2.14.37-4.3 1.05-6.3 1.98-1.87.9-3.67 1.79-5.05 2.81-.85.57-1.59 1.11-2.21 1.59-1.36 1.06-2.11 1.8-2.22 1.9l-.01.02c-.38.38-.89.59-1.43.59z" fill="url(#r)"/><path d="M118.67 167.06c-10.38 0-18.79-8.5-20.66-20.07 4.79-.94 9.72-1.65 14.76-2.09 2.12 3.9 4.83 7.24 8.05 7.87 1.7.34 3.42.47 5.09.47 6.64 0 12.46-2.09 12.46-2.09v-.06c.01 0 .01-.01.01-.01s.09-2.44.07-5.86c2.57.3 5.16.68 7.76 1.15-5.34 10.91-18.34 20.69-27.54 20.69z" fill="url(#s)"/><path d="M125.91 153.24c-1.67 0-3.39-.13-5.09-.47-3.22-.63-5.93-3.97-8.05-7.87 1.63-.14 3.28-.25 4.93-.33a8.295 8.295 0 0 0 7.4 4.55c3.18 0 5.95-1.8 7.34-4.44 1.68.11 3.38.26 5.08.44.14 2.12.21 4.26.24 6.2.37-.16.57-.22.61-.23v.06s-5.82 2.09-12.46 2.09z" fill="url(#t)"/><path d="M137.76 151.32c-.03-1.94-.1-4.08-.24-6.2.31.03.62.07.93.1.02 3.42-.07 5.86-.07 5.86s0 .01-.01.01c-.04.01-.24.07-.61.23z" fill="url(#u)"/><path d="M125.1 149.12c-3.23 0-6.03-1.85-7.4-4.55 1.29-.07 2.59-.11 3.89-.14.73 1.07 1.85 1.8 3.12 1.91.11.01.22.01.32.01 1.07 0 2.07-.44 2.87-1.17.04 0 .08.01.12.01.03.01.06.01.08.01.44 0 .81-.29.85-.67v-.03c1.16.04 2.32.1 3.49.18a8.297 8.297 0 0 1-7.34 4.44z" fill="url(#v)"/><path d="M125.03 146.35c-.1 0-.21 0-.32-.01-1.27-.11-2.39-.84-3.12-1.91.45-.01.9-.01 1.36-.02.57.56 1.28.91 1.97.97.07 0 .14.01.21.01.71 0 1.46-.29 2.1-.79.07.28.33.51.67.58-.8.73-1.8 1.17-2.87 1.17z" fill="url(#w)"/><path d="M125.13 145.39c-.07 0-.14-.01-.21-.01-.69-.06-1.4-.41-1.97-.97h1.19c1.02 0 2.04.01 3.07.03 0 .06 0 .11.02.16-.64.5-1.39.79-2.1.79z" fill="url(#x)"/><path d="M128.1 145.2c-.02 0-.05 0-.08-.01-.04 0-.08-.01-.12-.01-.34-.07-.6-.3-.67-.58-.02-.05-.02-.1-.02-.16.58.02 1.16.03 1.74.06v.03c-.04.38-.41.67-.85.67z" fill="url(#y)"/><path d="M206.56 155.95c.13-.68.26-1.29.4-1.82.99-3.82 1.81-7.95 2.35-12.25.24.03.47.05.71.07v.13c0 5.17-1.27 9.93-3.46 13.87z" fill="url(#z)"/><path d="M188.91 167.06c-9.41 0-22.85-10.3-27.9-21.55 2.73-.63 5.51-1.2 8.33-1.71-.04 3.8.07 6.6.07 6.6h.01v.06s5.82 2.09 12.46 2.09c1.67 0 3.39-.13 5.09-.46 4-.79 7.21-5.76 9.48-10.77h.18c4.18 0 8.41.18 12.68.56-.54 4.3-1.36 8.43-2.35 12.25-.14.53-.27 1.14-.4 1.82-3.73 6.74-10.18 11.11-17.65 11.11z" fill="url(#A)"/><path d="M181.88 152.55c-6.64 0-12.46-2.09-12.46-2.09v-.06c.04.01.23.07.61.23.04-2.18.12-4.62.29-7 1.51-.26 3.03-.5 4.56-.72a8.288 8.288 0 0 0 7.81 5.52c4.13 0 7.56-3.03 8.19-7 1.84-.07 3.7-.11 5.57-.11-2.27 5.01-5.48 9.98-9.48 10.77-1.7.33-3.42.46-5.09.46z" fill="url(#B)"/><path d="M170.03 150.63c-.38-.16-.57-.22-.61-.23h-.01s-.11-2.8-.07-6.6c.33-.06.65-.11.98-.17-.17 2.38-.25 4.82-.29 7z" fill="url(#C)"/><path d="M182.69 148.43c-3.6 0-6.67-2.3-7.81-5.52 1.21-.18 2.43-.34 3.66-.49.11.34.27.66.44.95-.1.14-.15.3-.14.47.03.38.4.67.84.67h.09c.04-.01.08-.01.12-.02.79.73 1.8 1.18 2.87 1.18.1 0 .21-.01.31-.02 2.01-.16 3.63-1.89 3.97-4.02 1.27-.08 2.55-.15 3.84-.2-.63 3.97-4.06 7-8.19 7z" fill="url(#D)"/><path d="M182.76 145.67c-1.07 0-2.08-.45-2.87-1.18.34-.07.6-.3.67-.58.64.5 1.39.79 2.1.79.07 0 .14 0 .21-.01 1.34-.11 2.73-1.33 3.12-2.98.35-.03.7-.05 1.05-.08-.34 2.13-1.96 3.86-3.97 4.02-.1.01-.21.02-.31.02zm-3.78-2.3c-.17-.29-.33-.61-.44-.95l.8-.09c.11.25.24.48.39.69-.03 0-.05.01-.08.01-.28.02-.52.15-.67.34z" fill="url(#E)"/><path d="M182.66 144.7c-.71 0-1.46-.29-2.1-.79.02-.07.03-.14.02-.22-.03-.38-.4-.67-.84-.67h-.01c-.15-.21-.28-.44-.39-.69 2.19-.25 4.41-.46 6.65-.62-.39 1.65-1.78 2.87-3.12 2.98-.07.01-.14.01-.21.01z" fill="url(#F)"/><path d="M179.68 144.51c-.44 0-.81-.29-.84-.67-.01-.17.04-.33.14-.47.15-.19.39-.32.67-.34.03 0 .05-.01.08-.01h.01c.44 0 .81.29.84.67.01.08 0 .15-.02.22-.07.28-.33.51-.67.58-.04.01-.08.01-.12.02h-.09z" fill="url(#G)"/><path d="M188.91 167.06c-11.8 0-29.93-16.19-29.93-30.15 0-12.66 13.96-13.69 28.21-13.69 15.33 0 22.83 6.16 22.83 18.86 0 14-9.26 24.98-21.11 24.98zm-35.1-35.4c-2.84 0-4.09.82-4.6 2.54-.48-2.84-1.77-5-3.66-6.63 6.67 1.98 14.16.56 16.53 0-1.98 1.76-3.31 4.09-3.7 7.23-.52-1.81-1.64-3.14-4.57-3.14zm-35.1 35.4c-11.84 0-21.1-10.98-21.1-24.98 0-12.7 7.5-18.86 22.83-18.86 14.3 0 28.21 1.03 28.21 13.69 0 1.25-.18 2.5-.43 3.75-.13.34-.22.69-.22.69-3.36 12.96-18.78 25.71-29.29 25.71zm68.48-44.66c-7.97 0-17.31.17-23.17 3.75-11.97 3.36-20.33.04-20.33.04-5.94-3.62-15.29-3.79-23.25-3.79-14.86 0-23.6 5.64-23.6 19.68 0 14.08 9.21 25.84 21.87 25.84 11.25 0 26.71-13.35 30.07-26.14v-.04c.43-1.64.68-3.28.68-4.83v-.08c.74-2.2 2.2-3.15 4.35-3.15 2.16 0 3.62.91 4.4 3.19v.04c0 1.51.26 3.1.64 4.7v.17h.05c3.35 12.79 18.77 26.14 30.01 26.14 12.71 0 21.92-11.76 21.92-25.84 0-14.04-8.74-19.68-23.64-19.68z" fill="#fff" fill-rule="nonzero"/><path d="M174.53 34.86l8.63 4.53c-18.3-5.61-37.14-1.69-45.81.77-3.15.69-4.92 1.57-4.92 1.57.77-.01 1.55.03 2.32.05 2.65.15 6.93.7 9.46 2.62-3.81-1.55-10.37-2.11-21.37 2.16-1.54.59-2.95 1.22-4.28 1.88-4.67 2.04-14.04 6.08-32.03 13.73 0 0 5.94 2.3 13.01 3.08-3.39 3.95-6.89 7.33-12.75 9.12-15.3 4.7-19.74-1.32-19.74-1.32s6.64 10.54 18.43 10.57c1.9 0 2.1-.03 2.11-.04-.02.04-4.42 11.32-5.26 19.74-.87 8.61 1.83 14.5 2.66 30.61.72 13.77 4.6 6.71 9.22 16.86 1.57 3.4 1.63 7.23 1.63 7.23 1.71.4 6.21-8.26 2.98-23.32-2.1-9.77 8.29-46.81 33.34-39.59 3.52 1.01 6.42 2.27 8.97 3.51 6.09 3.06 56.18 29.78 37.91 72.6 0 0 19.14-30.05 15.8-61.8 2.54 7.21 4.35 17.26 4.59 31.35 0 0 9.71-19.78 4.97-39.36 5.4 6.7 8.05 16.95 6.75 30.98-2.29 24.96 2.01 24.78 2.01 24.78 1.29 0-.09-6.65 4.21-11.23 4.3-4.57 10.84-20 10.84-35.4 4.58-75.65-53.68-75.68-53.68-75.68z" fill="#fff" fill-rule="nonzero"/><path d="M171.2 206.95c-1.71.99-3.79 1.82-6.1 2.49l.01-.11c0-2.52-5.23-5.11-11.71-5.13-6.5.01-11.75 2.06-11.75 4.58l.01.11c-2.32-.67-4.39-1.5-6.11-2.49-.91-2.56-1.46-5.58-1.46-8.85 0-.88.03-1.75.11-2.6 3.53-4.41 9 .53 15.36-.45 1.23-.19 2.51-.3 3.79-.31 1.31.01 2.6.67 3.85.86 6.36.98 11.83-3.96 15.36.45.07.85.11 1.72.11 2.6 0 3.27-.55 6.29-1.47 8.85zm39.2-5.19c-.6-3.26-.9-5.11-.95-6.43h-.59c2.01-3.25 3.53-6.71 4.53-10.32h.01c.05-.18.09-.38.14-.57.38-1.45.67-2.92.87-4.41 1.79-11.74.05-25.39-1.95-35.55h-1.21c-3.5 9.36-5.69 20.96-5.69 20.96s-1.78 3.04-2.16 4.4c-1.21 4.3-2.23 7.4-2.57 8.43-4.64 11.88-12.93 21.61-23.36 27.6.69-2.32 1.11-4.95 1.11-7.77 0-6.72-2.26-12.49-5.49-15.04-4.13-5.67-11.38-.2-19.69-.02-8.32-.16-15.6-6.21-19.73-.53-3.23 2.55-5.49 8.32-5.49 15.04 0 2.82.41 5.45 1.11 7.77-10.43-5.99-18.72-15.72-23.36-27.6-.35-1.03-1.36-4.13-2.57-8.43-.38-1.35-2.16-4.4-2.16-4.4s-2.19-11.6-5.69-20.96H94.3c-2 10.16-3.74 23.81-1.95 35.55.19 1.49.49 2.96.87 4.41.05.19.09.39.13.57h.02c.99 3.61 2.52 7.07 4.52 10.33h-.58c-.06 1.31-.35 3.16-.95 6.43-1.62 8.95-6.45 11.3-6.45 11.3s7.46-3.42 9.26-5.74c.87-1.12 3.18-4.2 3.89-5.17l.08.07c-.42 1.03-1.39 4.36-.02 10.77 1.8 8.39 9.2 14.04 9.2 14.04s-4.43-6.67-3.2-13.97c0 0-.26 2.93 6.95 11.07 6.89 7.78 19.46 38.35 20.57 38.45-.09-.25-.23-11.34-.31-14.65.52.17 1.04.44 1.57.77v.08l-.01.1.2-.06c4.72 3.16 9.61 11.93 14.68 11.93.19 0 .39 0 .58-.01v.55c.22.01.43.01.64.01 5.7 0 11.19-11.11 16.44-12.82-.09 3.3-.22 14.4-.32 14.65 1.12-.1 13.69-30.67 20.58-38.45 7.21-8.14 6.95-11.07 6.95-11.07 1.23 7.3-3.2 13.97-3.2 13.97s7.39-5.65 9.2-14.04c1.37-6.41.4-9.74-.02-10.77l.08-.07c.71.96 3.01 4.05 3.89 5.17 1.8 2.32 9.26 5.74 9.26 5.74s-4.83-2.35-6.45-11.31z" fill="#b2b0af" fill-rule="nonzero"/><defs><linearGradient id="a" x2="1" gradientUnits="userSpaceOnUse" gradientTransform="rotate(88.091 .49 121.984) scale(45.97442)"><stop offset="0" stop-color="#efdecc"/><stop offset="1" stop-color="#5a4f47"/></linearGradient><linearGradient id="b" x2="1" gradientUnits="userSpaceOnUse" gradientTransform="rotate(88.091 .49 121.984) scale(45.97442)"><stop offset="0" stop-color="#fff"/><stop offset="1" stop-color="#5f5d5d"/></linearGradient><linearGradient id="c" x2="1" gradientUnits="userSpaceOnUse" gradientTransform="rotate(88.091 .49 121.984) scale(45.97442)"><stop offset="0" stop-color="#ead9ca"/><stop offset="1" stop-color="#584e46"/></linearGradient><linearGradient id="d" x2="1" gradientUnits="userSpaceOnUse" gradientTransform="rotate(88.091 .49 121.984) scale(45.97442)"><stop offset="0" stop-color="#997f73"/><stop offset="1" stop-color="#26160f"/></linearGradient><linearGradient id="e" x2="1" gradientUnits="userSpaceOnUse" gradientTransform="rotate(88.091 .49 121.984) scale(45.97442)"><stop offset="0" stop-color="#b8907c"/><stop offset="1" stop-color="#3e261c"/></linearGradient><linearGradient id="f" x2="1" gradientUnits="userSpaceOnUse" gradientTransform="rotate(88.091 .49 121.984) scale(45.97442)"><stop offset="0" stop-color="#817873"/><stop offset="1" stop-color="#120e0a"/></linearGradient><linearGradient id="g" x2="1" gradientUnits="userSpaceOnUse" gradientTransform="rotate(88.091 .49 121.984) scale(45.97442)"><stop offset="0" stop-color="#fff"/><stop offset="1" stop-color="#5f5d5d"/></linearGradient><linearGradient id="h" x2="1" gradientUnits="userSpaceOnUse" gradientTransform="rotate(88.091 .49 121.984) scale(45.97442)"><stop offset="0" stop-color="#fff"/><stop offset="1" stop-color="#5f5d5d"/></linearGradient><linearGradient id="i" x2="1" gradientUnits="userSpaceOnUse" gradientTransform="rotate(88.091 .49 121.984) scale(45.97442)"><stop offset="0" stop-color="#726f6f"/><stop offset="1" stop-color="#040505"/></linearGradient><linearGradient id="j" x2="1" gradientUnits="userSpaceOnUse" gradientTransform="rotate(88.091 32.205 152.653) scale(45.97452)"><stop offset="0" stop-color="#eedbcb"/><stop offset="1" stop-color="#5a4e47"/></linearGradient><linearGradient id="k" x2="1" gradientUnits="userSpaceOnUse" gradientTransform="rotate(88.091 32.205 152.653) scale(45.97452)"><stop offset="0" stop-color="#f9e8d6"/><stop offset="1" stop-color="#5d534b"/></linearGradient><linearGradient id="l" x2="1" gradientUnits="userSpaceOnUse" gradientTransform="rotate(88.091 32.205 152.653) scale(45.97452)"><stop offset="0" stop-color="#fff"/><stop offset="1" stop-color="#5f5d5d"/></linearGradient><linearGradient id="m" x2="1" gradientUnits="userSpaceOnUse" gradientTransform="rotate(88.091 32.205 152.653) scale(45.97452)"><stop offset="0" stop-color="#ead9ca"/><stop offset="1" stop-color="#584e46"/></linearGradient><linearGradient id="n" x2="1" gradientUnits="userSpaceOnUse" gradientTransform="rotate(88.091 32.205 152.653) scale(45.97452)"><stop offset="0" stop-color="#997f73"/><stop offset="1" stop-color="#26160f"/></linearGradient><linearGradient id="o" x2="1" gradientUnits="userSpaceOnUse" gradientTransform="rotate(88.091 32.205 152.653) scale(45.97452)"><stop offset="0" stop-color="#b8907c"/><stop offset="1" stop-color="#3e261c"/></linearGradient><linearGradient id="p" x2="1" gradientUnits="userSpaceOnUse" gradientTransform="rotate(88.091 32.205 152.653) scale(45.97452)"><stop offset="0" stop-color="#817873"/><stop offset="1" stop-color="#120e0a"/></linearGradient><linearGradient id="q" x2="1" gradientUnits="userSpaceOnUse" gradientTransform="rotate(88.091 32.205 152.653) scale(45.97452)"><stop offset="0" stop-color="#fff"/><stop offset="1" stop-color="#5f5d5d"/></linearGradient><linearGradient id="r" x2="1" gradientUnits="userSpaceOnUse" gradientTransform="rotate(88.091 32.205 152.653) scale(45.97452)"><stop offset="0" stop-color="#726f6f"/><stop offset="1" stop-color="#040505"/></linearGradient><linearGradient id="s" x2="1" gradientUnits="userSpaceOnUse" gradientTransform="rotate(88.091 .49 121.984) scale(45.97442)"><stop offset="0" stop-color="#ebe4da"/><stop offset="1" stop-color="#9e9690"/></linearGradient><linearGradient id="t" x2="1" gradientUnits="userSpaceOnUse" gradientTransform="rotate(88.091 .49 121.984) scale(45.97442)"><stop offset="0" stop-color="#f2f3f1"/><stop offset="1" stop-color="#a19f9f"/></linearGradient><linearGradient id="u" x2="1" gradientUnits="userSpaceOnUse" gradientTransform="rotate(88.091 .49 121.984) scale(45.97442)"><stop offset="0" stop-color="#e8e1d9"/><stop offset="1" stop-color="#9c948f"/></linearGradient><linearGradient id="v" x2="1" gradientUnits="userSpaceOnUse" gradientTransform="rotate(88.091 .49 121.984) scale(45.97442)"><stop offset="0" stop-color="#c1b4ad"/><stop offset="1" stop-color="#7f736d"/></linearGradient><linearGradient id="w" x2="1" gradientUnits="userSpaceOnUse" gradientTransform="rotate(88.091 .49 121.984) scale(45.97442)"><stop offset="0" stop-color="#d1beb1"/><stop offset="1" stop-color="#8b7a71"/></linearGradient><linearGradient id="x" x2="1" gradientUnits="userSpaceOnUse" gradientTransform="rotate(88.091 .49 121.984) scale(45.97442)"><stop offset="0" stop-color="#b3afac"/><stop offset="1" stop-color="#736f6c"/></linearGradient><linearGradient id="y" x2="1" gradientUnits="userSpaceOnUse" gradientTransform="rotate(88.091 .49 121.984) scale(45.97442)"><stop offset="0" stop-color="#f2f3f1"/><stop offset="1" stop-color="#a19f9f"/></linearGradient><linearGradient id="z" x2="1" gradientUnits="userSpaceOnUse" gradientTransform="rotate(88.091 32.205 152.653) scale(45.97452)"><stop offset="0" stop-color="#ebe2d9"/><stop offset="1" stop-color="#9c948f"/></linearGradient><linearGradient id="A" x2="1" gradientUnits="userSpaceOnUse" gradientTransform="rotate(88.091 32.205 152.653) scale(45.97452)"><stop offset="0" stop-color="#eee8df"/><stop offset="1" stop-color="#9f9993"/></linearGradient><linearGradient id="B" x2="1" gradientUnits="userSpaceOnUse" gradientTransform="rotate(88.091 32.205 152.653) scale(45.97452)"><stop offset="0" stop-color="#f2f3f1"/><stop offset="1" stop-color="#a19f9f"/></linearGradient><linearGradient id="C" x2="1" gradientUnits="userSpaceOnUse" gradientTransform="rotate(88.091 32.205 152.653) scale(45.97452)"><stop offset="0" stop-color="#e8e1d9"/><stop offset="1" stop-color="#9c948f"/></linearGradient><linearGradient id="D" x2="1" gradientUnits="userSpaceOnUse" gradientTransform="rotate(88.091 32.205 152.653) scale(45.97452)"><stop offset="0" stop-color="#c1b4ad"/><stop offset="1" stop-color="#7f736d"/></linearGradient><linearGradient id="E" x2="1" gradientUnits="userSpaceOnUse" gradientTransform="rotate(88.091 32.205 152.653) scale(45.97452)"><stop offset="0" stop-color="#d1beb1"/><stop offset="1" stop-color="#8b7a71"/></linearGradient><linearGradient id="F" x2="1" gradientUnits="userSpaceOnUse" gradientTransform="rotate(88.091 32.205 152.653) scale(45.97452)"><stop offset="0" stop-color="#b3afac"/><stop offset="1" stop-color="#736f6c"/></linearGradient><linearGradient id="G" x2="1" gradientUnits="userSpaceOnUse" gradientTransform="rotate(88.091 32.205 152.653) scale(45.97452)"><stop offset="0" stop-color="#f2f3f1"/><stop offset="1" stop-color="#a19f9f"/></linearGradient></defs></svg>