<svg viewBox="0 0 300 301" xmlns="http://www.w3.org/2000/svg" fill-rule="evenodd" clip-rule="evenodd" stroke-linejoin="round" stroke-miterlimit="1.414"><path fill="#9c3232" fill-rule="nonzero" d="M.399.48H299.77v299.7H.399z"/><path d="M154.34 187.73v112.62H93.62c-.99-.39-1.48-.59-1.48-.59 0-14.38 2.1-25.59 5.3-34.33 7.73-21.09 21.88-27.79 28.4-29.81 2.13-.67 3.45-.83 3.45-.83.23 0 .45-.02.67-.05 1.91-.31 3.46-1.98 4.71-4.64.92-1.97 1.7-4.49 2.33-7.4.25-1.14.45-2.29.65-3.53.29-2.08.58-4.26.84-6.54.09-1.39.24-2.73.39-4.17.54-6.89.69-14.43.69-21.57 0 0 8.16.84 14.77.84z" fill="#e0bd9a" fill-rule="nonzero"/><path d="M216.8 299.76s-.54.2-1.43.59h-61.03V187.73h.15c6.57 0 14.83-.84 14.83-.84 0 7.09.14 14.53.69 21.42.15 1.35.3 2.73.39 4.07.25 2.38.55 4.61.89 6.7v.04c.1.95.3 1.79.45 2.68.6 2.93 1.33 5.51 2.2 7.57 1.1 2.58 2.42 4.37 4.03 5.08.52.23 1.06.34 1.63.34 0 0 2.34.29 5.84 1.66 7.15 2.81 19.16 10.18 26.05 28.98 3.21 8.74 5.31 19.95 5.31 34.33z" fill="#efd0ad" fill-rule="nonzero"/><clipPath id="a"><path d="M137.64 208.18h33.65v19.9h-33.65z"/></clipPath><g clip-path="url(#a)"><path d="M171.29 218.87v.05c-1.53 2.36-6.67 9.16-16.85 9.16h-.09c-9.64-.05-15.27-7.05-16.71-9.12.3-2.06.6-4.23.84-6.5.1-1.33.25-2.71.4-4.14 4.69 1.19 9.83 1.92 15.27 2.02h.2c5.63-.1 10.82-.88 15.66-2.17.15 1.34.3 2.71.4 4.04.24 2.37.54 4.59.88 6.66z" fill="#be987f" fill-rule="nonzero"/></g><path d="M153.65 59.39c-64.33 0-64.68 53.95-61.81 89.27-4.4-8.37-17.49-5.81-16.41 7.39 1.04 12.71 19.75 19.19 19.22 17.79 9.75 26.12 35.53 45.81 59 45.81h.5V59.39h-.5z" fill="#d2a686" fill-rule="nonzero"/><path d="M79.53 150.48c3.17-5.12 8.11-2.9 9.29-1.77 1.29 1.23 2.33 2.81 1.54 5.81-.45 1.73-2.23 1.88-1.83 4.44.49 2.9 1.83 3.05 2.62 3.74.74.64 1.68 1.14 2.12 2.37.5 1.23.54 2.51.3 3.64-.5 2.07-3.51.4-5.54-.49-1.33-.64-5.58-4.24-6.67-5.42-2.67-3.05-3.95-8.97-1.83-12.32z" fill="#ac8774" fill-rule="nonzero"/><path d="M154 59.39c64.34 0 64.68 53.95 61.87 89.27 4.39-8.37 17.44-5.81 16.35 7.39-.99 12.71-19.73 19.19-19.22 17.79-9.49 26.12-35.53 45.81-59 45.81h-.35l-.14-160.26h.49z" fill="#ddb598" fill-rule="nonzero"/><path d="M228.12 150.48c-3.16-5.12-8.05-2.9-9.29-1.77-1.28 1.23-2.27 2.81-1.53 5.81.44 1.73 2.22 1.88 1.83 4.44-.5 2.9-1.83 3.05-2.57 3.74-.74.64-1.73 1.14-2.18 2.37-.44 1.23-.54 2.51-.29 3.64.49 2.07 3.5.4 5.53-.49 1.38-.64 5.58-4.24 6.67-5.42 2.72-3.05 3.95-8.97 1.83-12.32z" fill="#ac8774" fill-rule="nonzero"/><path d="M153.15 74.61c-21.15 0-36.67 6.16-46.01 18.28-13.09 17-12.6 42.91-7.8 61.53 1.48 5.72 2.27 21.04 3.26 26.66 4.59 25.17 32.31 38.57 50.55 38.57h.49V74.61h-.49z" fill="#e0bd9a" fill-rule="nonzero"/><path d="M199.1 92.94c-9.29-12.07-24.61-18.23-45.46-18.33v145.04c20.85-.24 45.81-14.92 50.06-38.57 1.04-5.62 1.78-20.94 3.26-26.66 4.84-18.57 5.34-44.43-7.86-61.48z" fill="#efd0ad" fill-rule="nonzero"/><path d="M150.27 193.94c-.1-.02-.2-.04-.31-.06.1.02.19.04.31.06zm-.79-.17c-.09-.03-.18-.05-.27-.08l-.01.01s.11.02.28.07z" fill="#bc917b" fill-rule="nonzero"/><path d="M141.37 176.16c-.25-5.02 9.17-1.84 12.28-1.68 2.46.13 9.92-1.58 10.56-1.14 4.4 2.97-4.65 8.96-10.72 8.96-1.61 0-11.98-3.12-12.12-6.14z" fill="#ddb598" fill-rule="nonzero"/><path d="M135.68 74.97l-.27.27.05.09c.09-.13.13-.27.22-.36z" fill="#432e1b" fill-rule="nonzero"/><path d="M150.44 191c-.1-.02-.2-.04-.31-.07.1.03.19.05.31.07zm-.8-.18c-.1-.02-.19-.05-.28-.08l-.01.01s.11.03.29.07z" fill="#ba907b" fill-rule="nonzero"/><path d="M107.49 131.22s4.91 20.2 13.33 21.85c8.43 1.65 17.55-1.63 17.55-1.63s.87-23.74-3.44-26.84c-4.31-3.11-14.25-7.61-27.44 6.62z" fill="#fff" fill-rule="nonzero"/><path d="M138.38 151.38s-.19.05-.62.24c-.11-7.28-.78-17.29-3.48-19.2-4-2.94-13.05-7.08-25.14 4.24-1.09-3.13-1.64-5.5-1.64-5.5 13.21-14.26 23.16-9.77 27.43-6.65 4.32 3.11 3.45 26.87 3.45 26.87z" fill="#d6b496" fill-rule="nonzero"/><path d="M133.39 141.09c0 4.6-3.71 8.32-8.29 8.32-4.58 0-8.3-3.72-8.3-8.32 0-4.59 3.72-8.32 8.3-8.32s8.29 3.73 8.29 8.32z" fill="#482315" fill-rule="nonzero"/><path d="M124.71 146.63c-2.39-.19-4.23-2.62-4.01-5.28.21-2.67 2.42-4.75 4.82-4.55 2.39.19 4.23 2.62 4.02 5.28-.22 2.67-2.43 4.76-4.83 4.55z" fill="#7e3a22" fill-rule="nonzero"/><path d="M124.92 145.67c-1.67-.14-3.4-1.97-3.21-4.23.18-2.27 2.19-3.8 3.85-3.66 1.67.14 3.4 1.98 3.21 4.24-.18 2.26-2.19 3.79-3.85 3.65z" fill="#211a10" fill-rule="nonzero"/><path d="M123.57 140.1c-.07.81-.91 1.41-1.86 1.33-.96-.08-1.69-.81-1.62-1.62.07-.82.9-1.42 1.86-1.34.96.08 1.68.81 1.62 1.63zm5.38 4.72c-.04.41-.46.71-.93.67-.48-.04-.84-.41-.81-.81.03-.41.45-.71.93-.67.48.04.84.4.81.81z" fill="#fff" fill-rule="nonzero"/><path d="M150.57 193.38c-.1-.02-.2-.04-.31-.06.11.02.2.04.31.06zm-.8-.18c-.1-.02-.18-.05-.28-.08l-.01.01s.11.03.29.07z" fill="#ba907b" fill-rule="nonzero"/><path d="M150.2 192.81zm-.87-.19c-.1-.03-.19-.06-.29-.08h-.01l.3.08zm.62-.65zm-.86-.2c-.11-.02-.2-.05-.3-.08l-.01.01s.11.03.31.07zm1.63.08zm-.83-.18l-.29-.09-.01.01.3.08z" fill="#bc917b" fill-rule="nonzero"/><path d="M200.3 130.54s-4.91 20.19-13.33 21.84c-8.43 1.65-17.55-1.63-17.55-1.63s-.87-23.73 3.44-26.84c4.31-3.11 14.25-7.61 27.44 6.63z" fill="#fff" fill-rule="nonzero"/><path d="M169.41 150.69s.19.06.62.24c.11-7.28.78-17.28 3.48-19.2 4-2.94 13.05-7.08 25.13 4.24 1.1-3.12 1.65-5.5 1.65-5.5-13.21-14.26-23.16-9.77-27.44-6.65-4.32 3.11-3.44 26.87-3.44 26.87z" fill="#d6b496" fill-rule="nonzero"/><path d="M174.4 140.41c0 4.59 3.71 8.32 8.29 8.32 4.58 0 8.29-3.73 8.29-8.32 0-4.6-3.71-8.32-8.29-8.32-4.58 0-8.29 3.72-8.29 8.32z" fill="#482315" fill-rule="nonzero"/><path d="M183.07 145.95c2.4-.2 4.24-2.63 4.02-5.29-.21-2.67-2.42-4.75-4.82-4.55-2.39.2-4.23 2.62-4.02 5.28.22 2.67 2.43 4.76 4.82 4.56z" fill="#7e3a22" fill-rule="nonzero"/><path d="M182.87 144.99c1.67-.15 3.4-1.98 3.21-4.24-.19-2.27-2.19-3.8-3.85-3.66-1.67.14-3.4 1.98-3.21 4.24.18 2.27 2.19 3.79 3.85 3.66z" fill="#211a10" fill-rule="nonzero"/><path d="M184.22 139.41c.07.82.9 1.41 1.86 1.34.96-.09 1.68-.82 1.62-1.63-.07-.82-.9-1.42-1.86-1.34-.96.08-1.69.81-1.62 1.63zm-5.38 4.73c.04.4.45.7.93.66.48-.04.84-.41.81-.81-.03-.41-.45-.71-.93-.67-.48.04-.84.41-.81.82z" fill="#fff" fill-rule="nonzero"/><path d="M143.43 130.9c-.06-.1-1.59-2.43-4.72-4.83-1.96-1.51-3.88-2.66-5.87-3.51a30.429 30.429 0 0 0-7.55-2.09c-2.28-.25-4.81-.19-7.77.21-2.25.43-4.45 1.1-6.32 1.93-1.33.46-2.38 1.11-3.22 1.62-.33.2-.62.38-.92.54l-4.02 2.54 4.64-1.09c.21-.05.45-.12.7-.18.96-.26 2.15-.58 3.55-.78.33-.05.66-.12 1-.18.59-.12 1.19-.24 1.82-.27.71-.05 1.43-.1 2.18-.16l.98-.07c2.57-.03 4.74.17 6.66.61 2.11.37 4.28 1.05 6.26 1.97 1.88.9 3.68 1.79 5.08 2.83 2.83 1.89 4.41 3.48 4.42 3.49.39.4.91.6 1.44.6.38 0 .76-.11 1.09-.33.94-.61 1.2-1.88.61-2.79l-.04-.06zm57.7-6.14c-.27-.15-.56-.33-.89-.53-.84-.51-1.89-1.16-3.18-1.6-1.91-.85-4.11-1.52-6.39-1.95-2.93-.4-5.46-.47-7.75-.21-2.51.35-5.12 1.07-7.54 2.09-1.97.84-3.94 2.02-5.87 3.51-3.07 2.36-4.6 4.65-4.71 4.82l-.03.05c-.52.8-.41 1.87.26 2.54.38.39.89.6 1.43.6.54 0 1.05-.21 1.43-.6l.01-.02c.15-.14 1.68-1.64 4.43-3.49 1.38-1.01 3.18-1.91 5.05-2.81 2-.92 4.16-1.6 6.3-1.97 1.9-.44 4.07-.63 6.6-.61l1.03.08c.74.05 1.46.1 2.17.15.62.03 1.22.15 1.81.27.34.06.67.13 1 .18 1.4.2 2.59.52 3.55.78.26.06.49.13.71.18l4.64 1.09-4.06-2.55z" fill="#030405" fill-rule="nonzero"/><path d="M149.12 195.77c-.11-.02-.22-.04-.33-.07.11.03.2.05.33.07zm-.84-.18c-.1-.03-.2-.06-.29-.09l-.01.01.3.08z" fill="#be927b" fill-rule="nonzero"/><path d="M141.75 199.94c-.24-3.25 9.02.68 12.06.78 2.43.08 9.71-.49 10.39-.74 5.09-1.91-.28 5.42-10.54 5.81-4.7.19-11.77-3.88-11.91-5.85z" fill="#f0d2ad" fill-rule="nonzero"/><path d="M171.9 193.68c-2.51-.12-5.09 1.98-8.12 1.66-.12-.06-.18-.06-.31-.06-.7-.13-1.39 0-2.14.18-.94.2-1.89.58-2.77.89-1.51.49-3.22.89-4.97.75v.01l-.1-.01-.09.01v-.01c-1.76.14-3.46-.26-4.97-.75-.89-.31-1.83-.69-2.77-.89-.76-.18-1.45-.31-2.14-.18-.13 0-.19 0-.31.06-3.03.32-5.61-1.78-8.12-1.66-.7.06-1.71-.12-2.27-.12.12.06.25.12.38.18 7.17 3.51 13.35 10.07 20.2 9.86h.19c6.85.21 13.03-6.35 20.2-9.86.13-.06.25-.12.38-.18-.57 0-1.57.18-2.27.12z" fill="#dcbf9e" fill-rule="nonzero"/><path d="M174.01 193.48s-7.29-2.81-12.47-1.16c0 0-1.93.75-3.93 1.21-1.22.48-2.69.61-4.12.56-1.09-.05-2.12-.19-2.97-.33-.29-.05-.57-.11-.86-.17-.12-.02-.22-.04-.32-.07-.18-.04-.35-.07-.52-.12-.19-.04-.3-.07-.3-.07l.01-.01c-1.66-.45-3.08-1-3.08-1-5.18-1.65-12.47 1.16-12.47 1.16l-.16.08c.56 0 1.57.18 2.27.12 2.51-.12 5.09 1.98 8.12 1.66.12-.06.18-.06.31-.06.69-.13 1.38 0 2.14.18.94.2 1.88.58 2.77.89 1.51.49 3.21.89 4.97.75v.01l.09-.01.1.01v-.01c1.75.14 3.46-.26 4.97-.75.88-.31 1.83-.69 2.77-.89.75-.18 1.44-.31 2.14-.18.13 0 .19 0 .31.06 3.03.32 5.61-1.78 8.12-1.66.7.06 1.7-.12 2.27-.12l-.16-.08z" fill="#c69f83" fill-rule="nonzero"/><path d="M141.26 195.19c.13.04 13.65 4.17 24.22.09l-1.21-.82h-14.3l-8.71.73z" fill="#c69f83" fill-rule="nonzero"/><path d="M207.23 272.82h9.84c-.6-6.57-7.34-22.59-7.34-22.59-.69-1-1.38-1.94-2.09-2.84-9.64-12.22-21.04-15.27-24.32-15.92-7.58 9.99-14.7 15.25-21.17 17.42-17.49 5.88-30.23-10.8-34.49-17.45-1.28.24-4.01.89-7.46 2.45-5.52 2.47-12.88 7.24-19.12 16.34 0 0-.06.1-.16.29-1.01 1.87-6.61 12.51-8.95 22.3h11.64c.15 12.83-.19 22.35-.52 27.53h104.64c-.15-2.32-.29-5.51-.4-9.47-.13-4.89-.19-10.97-.1-18.06z" fill="#617498" fill-rule="nonzero"/><path d="M204.03 84.22c-14.31-13.87-35.34-20.61-35.34-20.61l5.83 5.01c-3.49-2.45-9.71-5.85-20.09-8.85-14.78-4.26-24.35.49-24.35.49s7.74-.24 11.51 2.54c-3.72-1.48-10.14-2-20.9 2.06-21.03 7.93-20.65 22.13-35.28 26.49-.86.26-1.68.48-2.48.68-4.64 1.13-4 8.02.78 8.13.14.01.28.01.42.01 1.86 0 2.05-.04 2.06-.05-.01.04-4.32 10.79-5.15 18.81-.85 8.2 1.8 13.82 2.61 29.17.7 13.11 4.5 6.38 9.02 16.05 1.53 3.25.23 9.51.23 9.51 1.68.39 7.44-10.49 4.28-24.83-.18-.85-.27-1.91-.25-3.13.32-23.22 33.06-29.11 41.73-7.57.73 1.83 1.39 3.84 1.97 6.07 0 0 1.41-9.12.08-19.18-.54-4.12 4.14-6.83 7.36-4.27 8.1 6.42 16.69 16.87 16.88 32.41 0 0 11.67-15.98 5.25-34.22-.13-.37-.13-.71-.08-1.02 0 0 1.53-.29 3.9-.4 7.25-.34 22.7 1.13 29.44 17.93 1.77 4.42 2.99 9.78 3.23 16.57l.01-.02c-1.15 18.32 2.38 18.23 2.38 18.23 1.26 0-.09-6.33 4.12-10.69 4.2-4.36 10.62-19.06 10.62-33.72 0-14.68-5.49-27.72-19.79-41.6z" fill="#3d3e3e" fill-rule="nonzero"/><path d="M225.97 230.82c-2.23 22.86 6.51 30.18 7.22 31.03-.89-.85-8.36-7.71-13.21-14.21-5.45-7.33-7.8-14-8.47-20.34-3.67 12.15-20.48 30.49-21.55 31.66.75-1.89 21.87-54.41 16.63-100.75-1.64-14.52 7.38-48.64-18.96-68.51-12.43-4.45-21.5-7.32-34.55-7.4-34.34-.02-47.97 23.4-53.03 46.81-5.14 23.78-1.42 47.57-1.54 46.79 1.1 6.83 2.77 19.5 5.26 25.39 4.63 30.46 14.68 55.38 15.18 56.65-1.07-1.14-17.92-19.49-21.58-31.68-.68 6.37-2.99 12.99-8.46 20.34-4.82 6.5-12.35 13.39-13.23 14.24.71-.85 15.28-33.97 7.27-64.03-1.01-3.77-4.07-23.83-4.33-36.83-.26-12.67-3.72-15.31-.18-33.47 0-13.27 5.57-79.92 76.36-79.92 34.95 0 54.04 17.17 64.35 35.99 10.37 18.86 11.98 39.37 11.98 45.97-12.04 66.99-4.64 97.21-5.16 102.27z" fill="#3d3e3e" fill-rule="nonzero"/><path d="M73.01 150.31s-3.61 23.77-11.8 23.36c0 0 22.07 9.58 28.69-18.42 0 0 0-26.12-16.89-4.94zm156.09-5.99s3.61 23.77 11.81 23.36c0 0-22.07 9.58-28.69-18.42 0 0 0-26.12 16.88-4.94z" fill="#3d3e3e" fill-rule="nonzero"/><path d="M85.85 145.7s.19 16.14-20.86 44.28c0 0 20.11-2.23 20.84-28.52.01-.36.02-.73.02-1.1.19-27.32 0-14.66 0-14.66zm126.46-12.15s-.19 16.13 20.86 44.27c0 0-20.11-2.23-20.84-28.51-.01-.37-.02-.73-.02-1.1-.19-27.33 0-14.66 0-14.66z" fill="#3d3e3e" fill-rule="nonzero"/><path d="M73.01 150.31c-4.14-11.69-3.4-29.7.97-53.01 1.05-5.6-5.25-3.78.76-15.49 6.01-11.72 16.15-30.13 27.05-35.16 10.9-5.01 30.42-17.89 46.57-17.1 16.15.79 34.18 2.46 46.21 9.57 12.02 7.12 28.55 20.51 30.8 24.7 2.25 4.18-3.15 6.16 3.68 14.89 14.72 18.83 5.79 53.57 2.53 75.51-1.31 8.78-12.69-41.23-48.28-50.59-14.27-3.74-45.47-8.09-67.89 1.54-32.79 14.06-39.57 53.12-42.4 45.14z" fill="#ce1f4a" fill-rule="nonzero"/><path d="M98.01 147.28c-.11-.65-.2-1.32-.26-1.99.19-2.52.46-5.12.82-7.75 2.83-6.71 8.94-10.98 15.66-12.33-2.13 1.47-4.38 3.41-6.73 5.95 0 0 0 .02.01.04l-.02.02s1.87 7.7 5.28 13.98c-5.04.43-9.97 1.15-14.76 2.08zm48.2-.61c-2.6-.47-5.19-.86-7.76-1.15-.01-2.52-.09-5.57-.3-8.57.17.38.34.78.51 1.18.73 1.83 1.39 3.84 1.97 6.07 0 0 .66-4.27.65-10.18a1.993 1.993 0 0 0 1.58-.27c.94-.61 1.2-1.88.61-2.79l-.04-.06c-.04-.07-.83-1.26-2.39-2.8-.06-.71-.13-1.42-.21-2.13 4.74 1.91 7.82 5.29 7.82 11.24 0 3.11-.9 6.33-2.44 9.46z" fill="url(#b)"/><path d="M137.52 145.41c-1.7-.18-3.4-.33-5.08-.44.61-1.16.95-2.48.95-3.88 0-4.59-3.71-8.32-8.29-8.32-4.58 0-8.3 3.73-8.3 8.32 0 1.36.33 2.64.9 3.77-1.65.08-3.3.2-4.93.34-3.41-6.28-5.28-13.98-5.28-13.98l.02-.02c.08.34.62 2.58 1.63 5.46 6.07-5.68 11.37-7.47 15.65-7.47 4.25 0 7.5 1.76 9.49 3.23 1.98 1.4 2.87 7.15 3.24 12.99z" fill="url(#c)"/><path d="M138.45 145.52c-.31-.04-.62-.07-.93-.11-.37-5.84-1.26-11.59-3.24-12.99-1.99-1.47-5.24-3.23-9.49-3.23-4.28 0-9.58 1.79-15.65 7.47a57.507 57.507 0 0 1-1.63-5.46c-.01-.02-.01-.04-.01-.04 2.35-2.54 4.6-4.48 6.73-5.95 1.51-.3 3.06-.46 4.61-.46 7.71 0 15.42 3.84 19.31 12.2.21 3 .29 6.05.3 8.57z" fill="url(#d)"/><path d="M132.44 144.97c-1.17-.07-2.33-.13-3.49-.18 0-.16-.05-.31-.15-.43.41-.67.67-1.45.74-2.28.21-2.66-1.63-5.09-4.02-5.28-.11-.01-.22-.02-.32-.02-1.29 0-2.5.65-3.35 1.68h-.07c-.89 0-1.63.58-1.69 1.35-.04.49.21.96.64 1.27-.02.08-.03.17-.03.27-.1 1.24.24 2.44.89 3.38-1.3.02-2.6.07-3.89.13a8.35 8.35 0 0 1-.9-3.77c0-4.59 3.72-8.32 8.3-8.32s8.29 3.73 8.29 8.32c0 1.4-.34 2.72-.95 3.88z" fill="url(#e)"/><path d="M121.59 144.73c-.65-.94-.99-2.14-.89-3.38 0-.1.01-.19.03-.27.27.19.6.32.98.35v.01c-.11 1.31.43 2.49 1.24 3.27-.46 0-.91.01-1.36.02zm7.21-.37a.901.901 0 0 0-.66-.35h-.08c.39-.56.65-1.23.71-1.99.19-2.26-1.54-4.1-3.21-4.24-.07-.01-.14-.01-.21-.01-.83 0-1.71.39-2.41 1.06-.27-.2-.61-.33-.99-.36-.03 0-.07 0-.1-.01.85-1.03 2.06-1.68 3.35-1.68.1 0 .21.01.32.02 2.39.19 4.23 2.62 4.02 5.28-.07.83-.33 1.61-.74 2.28z" fill="url(#f)"/><path d="M127.21 144.74c-1.03-.03-2.05-.04-3.07-.04-.4 0-.8 0-1.19.01a4.081 4.081 0 0 1-1.24-3.27v-.01c.05.01.11.01.17.01.88 0 1.63-.57 1.69-1.34.04-.5-.21-.96-.63-1.27.7-.67 1.58-1.06 2.41-1.06.07 0 .14 0 .21.01 1.67.14 3.4 1.98 3.21 4.24-.06.76-.32 1.43-.71 1.99h-.01c-.44 0-.81.29-.84.67 0 .02-.01.04 0 .06z" fill="url(#g)"/><path d="M121.88 141.44c-.06 0-.12 0-.17-.01-.38-.03-.71-.16-.98-.35-.43-.31-.68-.78-.64-1.27.06-.77.8-1.35 1.69-1.35h.07c.03.01.07.01.1.01.38.03.72.16.99.36.42.31.67.77.63 1.27-.06.77-.81 1.34-1.69 1.34z" fill="url(#h)"/><path d="M128.95 144.79c-.58-.02-1.16-.04-1.74-.05-.01-.02 0-.04 0-.06.03-.38.4-.67.84-.67h.09c.28.02.52.16.66.35.1.12.15.27.15.43z" fill="url(#i)"/><path d="M141.77 134.08c-.17 0-.33-.02-.49-.06 0-1.84-.07-3.84-.24-5.92 1.56 1.54 2.35 2.73 2.39 2.8l.04.06c.59.91.33 2.18-.61 2.79-.33.22-.71.33-1.09.33z" fill="url(#j)"/><path d="M140.63 144.2c-.58-2.23-1.24-4.24-1.97-6.07-.17-.4-.34-.8-.51-1.18-3.89-8.36-11.6-12.2-19.31-12.2-1.55 0-3.1.16-4.61.46-6.72 1.35-12.83 5.62-15.66 12.33.18-1.27.37-2.54.59-3.82 2.91-6.86 9.94-10.21 21.28-10.21 7.56 0 15.04.29 20.39 2.46.08.71.15 1.42.21 2.13.17 2.08.24 4.08.24 5.92.01 5.91-.65 10.18-.65 10.18z" fill="url(#k)"/><path d="M97.75 145.29c-.09-.95-.14-1.93-.14-2.91 0-3.34.52-6.22 1.55-8.66-.22 1.28-.41 2.55-.59 3.82-.36 2.63-.63 5.23-.82 7.75z" fill="url(#l)"/><path d="M161.01 145.8c-1.28-2.85-2.03-5.77-2.03-8.59 0-1.37.17-2.6.48-3.71 2.02 3.4 3.65 7.27 4.6 11.63-1.03.22-2.04.44-3.05.67zm44.43-3.91c-2.96-.19-5.9-.27-8.81-.27h-.18c2.5-5.53 3.85-11.08 3.85-11.08-.01-.01-.01-.02-.02-.02.01-.03.01-.05.01-.05-2.18-2.35-4.27-4.19-6.25-5.61.42.05.84.13 1.25.22.34.06.67.13 1 .18.2.03.39.06.58.09 2.58 2.52 4.87 5.81 6.59 10.1a42.11 42.11 0 0 1 1.98 6.44z" fill="url(#m)"/><path d="M170.32 143.92c.08-1.02.17-2.04.28-3.02.57-2.01 1.04-4.21 1.3-6.55.43-1.24.96-2.16 1.61-2.62 1.99-1.46 5.24-3.23 9.49-3.23 4.28 0 9.58 1.79 15.64 7.47 1.02-2.88 1.56-5.11 1.64-5.45.01 0 .01.01.02.02 0 0-1.35 5.55-3.85 11.08-1.87 0-3.73.04-5.57.11.07-.43.1-.87.1-1.32 0-4.6-3.71-8.32-8.29-8.32-4.58 0-8.29 3.72-8.29 8.32 0 .98.17 1.92.48 2.79-1.53.22-3.05.46-4.56.72z" fill="url(#n)"/><path d="M169.57 144.06c.36-.99.71-2.05 1.03-3.16-.11.98-.2 2-.28 3.02-.25.05-.5.09-.75.14zm29.07-8.09c-6.06-5.68-11.36-7.47-15.64-7.47-4.25 0-7.5 1.77-9.49 3.23-.65.46-1.18 1.38-1.61 2.62.15-1.37.23-2.78.23-4.24.06-.04.13-.09.2-.14 1.38-1.01 3.18-1.91 5.05-2.81 2-.92 4.16-1.6 6.3-1.97 1.78-.42 3.8-.61 6.14-.61h.46l1.03.08c.74.05 1.46.1 2.17.15.19.01.37.02.56.05 1.98 1.42 4.07 3.26 6.25 5.61 0 0 0 .02-.01.05-.08.34-.62 2.57-1.64 5.45z" fill="url(#o)"/><path d="M174.88 143.2a8.3 8.3 0 0 1-.48-2.79c0-4.6 3.71-8.32 8.29-8.32 4.58 0 8.29 3.72 8.29 8.32 0 .45-.03.89-.1 1.32-1.29.05-2.57.12-3.84.2.07-.41.09-.84.05-1.27l-.03-.27c.42-.31.68-.77.64-1.27-.07-.77-.8-1.35-1.69-1.35-.03 0-.05.01-.08.01-.84-1.03-2.05-1.68-3.34-1.68-.1 0-.21 0-.32.01-2.39.2-4.23 2.62-4.02 5.28.04.47.14.91.29 1.33-1.23.15-2.45.31-3.66.48z" fill="url(#p)"/><path d="M178.54 142.72a5.25 5.25 0 0 1-.29-1.33c-.21-2.66 1.63-5.08 4.02-5.28.11-.01.22-.01.32-.01 1.29 0 2.5.65 3.34 1.68h-.09a2 2 0 0 0-.99.36c-.7-.67-1.59-1.06-2.41-1.06-.08 0-.15 0-.21.01-1.67.14-3.4 1.98-3.21 4.24.03.47.15.9.32 1.29-.27.03-.54.07-.8.1zm7.45-.72c.09-.39.13-.82.09-1.25.37-.04.71-.17.98-.36l.03.27c.04.43.02.86-.05 1.27-.35.02-.7.05-1.05.07z" fill="url(#q)"/><path d="M179.34 142.62c-.17-.39-.29-.82-.32-1.29-.19-2.26 1.54-4.1 3.21-4.24.06-.01.13-.01.21-.01.82 0 1.71.39 2.41 1.06-.42.31-.67.77-.63 1.27.06.77.81 1.34 1.69 1.34h.17c.04.43 0 .86-.09 1.25-2.24.16-4.46.37-6.65.62z" fill="url(#r)"/><path d="M185.91 140.75c-.88 0-1.63-.57-1.69-1.34-.04-.5.21-.96.63-1.27a2 2 0 0 1 .99-.36h.09c.03 0 .05-.01.08-.01.89 0 1.62.58 1.69 1.35.04.5-.22.96-.64 1.27-.27.19-.61.32-.98.36h-.17z" fill="url(#s)"/><path d="M172.13 130.11c-.01-1.79-.16-3.64-.48-5.54 4.62-.91 10.06-1.06 15.54-1.06 3.19 0 6.04.27 8.55.8.38.33.76.68 1.13 1.04-.19-.03-.38-.06-.58-.09-.33-.05-.66-.12-1-.18-.41-.09-.83-.17-1.25-.22-.19-.03-.37-.04-.56-.05-.71-.05-1.43-.1-2.17-.15l-1.03-.08h-.46c-2.34 0-4.36.19-6.14.61-2.14.37-4.3 1.05-6.3 1.97-1.87.9-3.67 1.8-5.05 2.81-.07.05-.14.1-.2.14z" fill="url(#t)"/><path d="M164.06 145.13c-.95-4.36-2.58-8.23-4.6-11.63 1.45-5.22 6.11-7.73 12.19-8.93.32 1.9.47 3.75.48 5.54 0 1.46-.08 2.87-.23 4.24-.26 2.34-.73 4.54-1.3 6.55a48.94 48.94 0 0 1-1.03 3.16c-1.86.33-3.7.68-5.51 1.07zm42.66-3.16c-.43-.03-.85-.06-1.28-.08a42.11 42.11 0 0 0-1.98-6.44c-1.72-4.29-4.01-7.58-6.59-10.1-.37-.36-.75-.71-1.13-1.04 4.95 1.06 8.59 3.16 10.96 6.33.18 3.94.13 7.76.02 11.33z" fill="url(#u)"/><path d="M210.02 142.24c-1.11-.1-2.21-.19-3.3-.27.11-3.57.16-7.39-.02-11.33 2.2 2.94 3.3 6.8 3.32 11.6z" fill="url(#v)"/><path d="M118.67 167.35c-10.38 0-18.79-8.49-20.66-20.07 4.79-.93 9.72-1.65 14.76-2.08 2.12 3.89 4.83 7.24 8.05 7.87 1.7.33 3.42.46 5.09.46 6.64 0 12.46-2.09 12.46-2.09v-.06h.01s.09-2.44.07-5.86c2.57.29 5.16.68 7.76 1.15-5.34 10.91-18.34 20.68-27.54 20.68z" fill="url(#w)"/><path d="M125.91 153.53c-1.67 0-3.39-.13-5.09-.46-3.22-.63-5.93-3.98-8.05-7.87 1.63-.14 3.28-.26 4.93-.34a8.295 8.295 0 0 0 7.4 4.55c3.18 0 5.95-1.8 7.34-4.44 1.68.11 3.38.26 5.08.44.14 2.13.21 4.26.24 6.21.37-.16.57-.22.61-.24v.06s-5.82 2.09-12.46 2.09z" fill="url(#x)"/><path d="M137.76 151.62c-.03-1.95-.1-4.08-.24-6.21.31.04.62.07.93.11.02 3.42-.07 5.86-.07 5.86h-.01c-.04.02-.24.08-.61.24z" fill="url(#y)"/><path d="M125.1 149.41c-3.23 0-6.03-1.85-7.4-4.55 1.29-.06 2.59-.11 3.89-.13.73 1.06 1.85 1.8 3.12 1.9.11.01.22.02.32.02 1.06 0 2.07-.45 2.87-1.18.04.01.08.02.12.02h.08c.44 0 .81-.29.85-.67v-.03c1.16.05 2.32.11 3.49.18a8.297 8.297 0 0 1-7.34 4.44z" fill="url(#z)"/><path d="M125.03 146.65c-.1 0-.21-.01-.32-.02-1.27-.1-2.39-.84-3.12-1.9.45-.01.9-.02 1.36-.02.57.55 1.28.9 1.97.96.07.01.14.01.21.01.71 0 1.46-.28 2.1-.79.07.28.33.51.67.58-.8.73-1.81 1.18-2.87 1.18z" fill="url(#A)"/><path d="M125.13 145.68c-.07 0-.14 0-.21-.01-.69-.06-1.4-.41-1.97-.96.39-.01.79-.01 1.19-.01 1.02 0 2.04.01 3.07.04 0 .05 0 .1.02.15-.64.51-1.39.79-2.1.79z" fill="url(#B)"/><path d="M128.1 145.49h-.08c-.04 0-.08-.01-.12-.02-.34-.07-.6-.3-.67-.58-.02-.05-.02-.1-.02-.15.58.01 1.16.03 1.74.05v.03c-.04.38-.41.67-.85.67z" fill="url(#C)"/><path d="M188.91 167.35c-7.41 0-17.33-6.39-23.67-14.61.69-1.03 2.5-3.93 4.1-8.07-.03 3.5.07 6.02.07 6.02h.01v.06s5.82 2.1 12.46 2.1c1.67 0 3.39-.14 5.09-.47 4-.78 7.21-5.76 9.48-10.76h.18c2.91 0 5.85.08 8.81.27.47 2.05.82 4.28 1.04 6.71-.1 2.92-.16 5.57-.03 7.85-3.76 6.62-10.14 10.9-17.54 10.9z" fill="url(#D)"/><path d="M181.88 152.85c-6.64 0-12.46-2.1-12.46-2.1v-.06c.04.02.23.08.61.24.04-2.19.12-4.62.29-7.01 1.51-.26 3.03-.5 4.56-.72 1.14 3.22 4.21 5.53 7.81 5.53 4.13 0 7.56-3.03 8.19-7 1.84-.07 3.7-.11 5.57-.11-2.27 5-5.48 9.98-9.48 10.76-1.7.33-3.42.47-5.09.47z" fill="url(#E)"/><path d="M170.03 150.93c-.38-.16-.57-.22-.61-.24h-.01s-.1-2.52-.07-6.02c.08-.2.15-.41.23-.61.25-.05.5-.09.75-.14-.17 2.39-.25 4.82-.29 7.01z" fill="url(#F)"/><path d="M182.69 148.73c-3.6 0-6.67-2.31-7.81-5.53 1.21-.17 2.43-.33 3.66-.48.11.33.27.65.44.95-.1.13-.15.3-.14.47.03.38.4.66.84.66h.09c.04 0 .08-.01.12-.02.79.74 1.8 1.18 2.86 1.18.11 0 .22 0 .32-.01 2.01-.17 3.63-1.9 3.97-4.02 1.27-.08 2.55-.15 3.84-.2-.63 3.97-4.06 7-8.19 7z" fill="url(#G)"/><path d="M182.75 145.96c-1.06 0-2.07-.44-2.86-1.18.34-.06.6-.29.67-.57.64.5 1.39.78 2.1.78h.21c1.34-.12 2.73-1.34 3.12-2.99.35-.02.7-.05 1.05-.07-.34 2.12-1.96 3.85-3.97 4.02-.1.01-.21.01-.32.01zm-3.77-2.29c-.17-.3-.33-.62-.44-.95.26-.03.53-.07.8-.1.11.25.24.48.39.7h-.08a.98.98 0 0 0-.67.35z" fill="url(#H)"/><path d="M182.66 144.99c-.71 0-1.46-.28-2.1-.78a.55.55 0 0 0 .02-.22c-.03-.38-.4-.67-.84-.67h-.01a4.33 4.33 0 0 1-.39-.7c2.19-.25 4.41-.46 6.65-.62-.39 1.65-1.78 2.87-3.12 2.99h-.21z" fill="url(#I)"/><path d="M179.68 144.8c-.44 0-.81-.28-.84-.66-.01-.17.04-.34.14-.47a.98.98 0 0 1 .67-.35h.09c.44 0 .81.29.84.67.01.07 0 .15-.02.22-.07.28-.33.51-.67.57-.04.01-.08.02-.12.02h-.09z" fill="url(#J)"/><path d="M164.93 152.34c-1.57-2.09-2.91-4.29-3.92-6.54 1.01-.23 2.02-.45 3.05-.67.49 2.27.79 4.67.87 7.21z" fill="url(#K)"/><path d="M165.24 152.74l-.31-.4c-.08-2.54-.38-4.94-.87-7.21 1.81-.39 3.65-.74 5.51-1.07-.08.2-.15.41-.23.61-1.6 4.14-3.41 7.04-4.1 8.07zm41.24-4.14c-.22-2.43-.57-4.66-1.04-6.71.43.02.85.05 1.28.08-.07 2.32-.17 4.55-.24 6.63z" fill="url(#L)"/><path d="M206.45 156.45c-.13-2.28-.07-4.93.03-7.85.07-2.08.17-4.31.24-6.63 1.09.08 2.19.17 3.3.27v.14c0 5.25-1.31 10.09-3.57 14.07z" fill="url(#M)"/><path d="M188.91 167.35c-11.8 0-29.93-16.19-29.93-30.14 0-12.66 13.96-13.7 28.21-13.7 15.33 0 22.83 6.16 22.83 18.87 0 13.99-9.26 24.97-21.11 24.97zm-35.1-35.4c-2.84 0-4.09.82-4.6 2.54-.48-2.84-1.77-4.99-3.66-6.63 6.67 1.98 14.16.56 16.53 0-1.98 1.77-3.31 4.09-3.7 7.24-.52-1.81-1.64-3.15-4.57-3.15zm-35.1 35.4c-11.84 0-21.1-10.98-21.1-24.97 0-12.71 7.5-18.87 22.83-18.87 14.3 0 28.21 1.04 28.21 13.7 0 1.25-.18 2.5-.43 3.74-.13.35-.22.69-.22.69-3.36 12.97-18.78 25.71-29.29 25.71zm68.48-44.66c-7.97 0-17.31.18-23.17 3.75-11.97 3.36-20.33.04-20.33.04-5.94-3.61-15.29-3.79-23.25-3.79-14.86 0-23.6 5.65-23.6 19.69 0 14.08 9.21 25.84 21.87 25.84 11.25 0 26.71-13.36 30.07-26.15v-.04c.43-1.64.68-3.27.68-4.82v-.09c.74-2.19 2.2-3.14 4.35-3.14 2.16 0 3.62.9 4.4 3.18v.05c0 1.51.26 3.1.64 4.69v.17h.05c3.35 12.79 18.77 26.15 30.01 26.15 12.71 0 21.92-11.76 21.92-25.84 0-14.04-8.74-19.69-23.64-19.69z" fill="#7f76b7" fill-rule="nonzero"/><path d="M141.77 292.12l-14.05-16.77 14.05-17.34h19.54l-15.37 17.41 13.83 16.7h-18zm44.12-11.43l-4.63-5.53 4.63-5.71h6.44l-5.06 5.73 4.55 5.51h-5.93z" fill="#f0f0f0" fill-rule="nonzero"/><defs><linearGradient id="b" x2="1" gradientUnits="userSpaceOnUse" gradientTransform="rotate(88.091 .34 122.129) scale(45.97442)"><stop offset="0" stop-color="#efdecc"/><stop offset="1" stop-color="#5a4f47"/></linearGradient><linearGradient id="c" x2="1" gradientUnits="userSpaceOnUse" gradientTransform="rotate(88.091 .34 122.129) scale(45.97442)"><stop offset="0" stop-color="#fff"/><stop offset="1" stop-color="#5f5d5d"/></linearGradient><linearGradient id="d" x2="1" gradientUnits="userSpaceOnUse" gradientTransform="rotate(88.091 .34 122.129) scale(45.97442)"><stop offset="0" stop-color="#ead9ca"/><stop offset="1" stop-color="#584e46"/></linearGradient><linearGradient id="e" x2="1" gradientUnits="userSpaceOnUse" gradientTransform="rotate(88.091 .34 122.129) scale(45.97442)"><stop offset="0" stop-color="#997f73"/><stop offset="1" stop-color="#26160f"/></linearGradient><linearGradient id="f" x2="1" gradientUnits="userSpaceOnUse" gradientTransform="rotate(88.091 .34 122.129) scale(45.97442)"><stop offset="0" stop-color="#b8907c"/><stop offset="1" stop-color="#3e261c"/></linearGradient><linearGradient id="g" x2="1" gradientUnits="userSpaceOnUse" gradientTransform="rotate(88.091 .34 122.129) scale(45.97442)"><stop offset="0" stop-color="#817873"/><stop offset="1" stop-color="#120e0a"/></linearGradient><linearGradient id="h" x2="1" gradientUnits="userSpaceOnUse" gradientTransform="rotate(88.091 .34 122.129) scale(45.97442)"><stop offset="0" stop-color="#fff"/><stop offset="1" stop-color="#5f5d5d"/></linearGradient><linearGradient id="i" x2="1" gradientUnits="userSpaceOnUse" gradientTransform="rotate(88.091 .34 122.129) scale(45.97442)"><stop offset="0" stop-color="#fff"/><stop offset="1" stop-color="#5f5d5d"/></linearGradient><linearGradient id="j" x2="1" gradientUnits="userSpaceOnUse" gradientTransform="rotate(88.091 .34 122.129) scale(45.97442)"><stop offset="0" stop-color="#726f6f"/><stop offset="1" stop-color="#040505"/></linearGradient><linearGradient id="k" x2="1" gradientUnits="userSpaceOnUse" gradientTransform="rotate(88.091 .34 122.129) scale(45.97442)"><stop offset="0" stop-color="#918e8e"/><stop offset="1" stop-color="#232424"/></linearGradient><linearGradient id="l" x2="1" gradientUnits="userSpaceOnUse" gradientTransform="rotate(88.091 .34 122.129) scale(45.97442)"><stop offset="0" stop-color="#918e8e"/><stop offset="1" stop-color="#232424"/></linearGradient><linearGradient id="m" x2="1" gradientUnits="userSpaceOnUse" gradientTransform="rotate(88.091 32.05 152.803) scale(45.97452)"><stop offset="0" stop-color="#f9e8d6"/><stop offset="1" stop-color="#5d534b"/></linearGradient><linearGradient id="n" x2="1" gradientUnits="userSpaceOnUse" gradientTransform="rotate(88.091 32.05 152.803) scale(45.97452)"><stop offset="0" stop-color="#fff"/><stop offset="1" stop-color="#5f5d5d"/></linearGradient><linearGradient id="o" x2="1" gradientUnits="userSpaceOnUse" gradientTransform="rotate(88.091 32.05 152.803) scale(45.97452)"><stop offset="0" stop-color="#ead9ca"/><stop offset="1" stop-color="#584e46"/></linearGradient><linearGradient id="p" x2="1" gradientUnits="userSpaceOnUse" gradientTransform="rotate(88.091 32.05 152.803) scale(45.97452)"><stop offset="0" stop-color="#997f73"/><stop offset="1" stop-color="#26160f"/></linearGradient><linearGradient id="q" x2="1" gradientUnits="userSpaceOnUse" gradientTransform="rotate(88.091 32.05 152.803) scale(45.97452)"><stop offset="0" stop-color="#b8907c"/><stop offset="1" stop-color="#3e261c"/></linearGradient><linearGradient id="r" x2="1" gradientUnits="userSpaceOnUse" gradientTransform="rotate(88.091 32.05 152.803) scale(45.97452)"><stop offset="0" stop-color="#817873"/><stop offset="1" stop-color="#120e0a"/></linearGradient><linearGradient id="s" x2="1" gradientUnits="userSpaceOnUse" gradientTransform="rotate(88.091 32.05 152.803) scale(45.97452)"><stop offset="0" stop-color="#fff"/><stop offset="1" stop-color="#5f5d5d"/></linearGradient><linearGradient id="t" x2="1" gradientUnits="userSpaceOnUse" gradientTransform="rotate(88.091 32.05 152.803) scale(45.97452)"><stop offset="0" stop-color="#726f6f"/><stop offset="1" stop-color="#040505"/></linearGradient><linearGradient id="u" x2="1" gradientUnits="userSpaceOnUse" gradientTransform="rotate(88.091 32.05 152.803) scale(45.97452)"><stop offset="0" stop-color="#918e8e"/><stop offset="1" stop-color="#232424"/></linearGradient><linearGradient id="v" x2="1" gradientUnits="userSpaceOnUse" gradientTransform="rotate(88.091 32.05 152.803) scale(45.97452)"><stop offset="0" stop-color="#918e8e"/><stop offset="1" stop-color="#232424"/></linearGradient><linearGradient id="w" x2="1" gradientUnits="userSpaceOnUse" gradientTransform="rotate(88.091 .34 122.129) scale(45.97442)"><stop offset="0" stop-color="#ebe4da"/><stop offset="1" stop-color="#9e9690"/></linearGradient><linearGradient id="x" x2="1" gradientUnits="userSpaceOnUse" gradientTransform="rotate(88.091 .34 122.129) scale(45.97442)"><stop offset="0" stop-color="#f2f3f1"/><stop offset="1" stop-color="#a19f9f"/></linearGradient><linearGradient id="y" x2="1" gradientUnits="userSpaceOnUse" gradientTransform="rotate(88.091 .34 122.129) scale(45.97442)"><stop offset="0" stop-color="#e8e1d9"/><stop offset="1" stop-color="#9c948f"/></linearGradient><linearGradient id="z" x2="1" gradientUnits="userSpaceOnUse" gradientTransform="rotate(88.091 .34 122.129) scale(45.97442)"><stop offset="0" stop-color="#c1b4ad"/><stop offset="1" stop-color="#7f736d"/></linearGradient><linearGradient id="A" x2="1" gradientUnits="userSpaceOnUse" gradientTransform="rotate(88.091 .34 122.129) scale(45.97442)"><stop offset="0" stop-color="#d1beb1"/><stop offset="1" stop-color="#8b7a71"/></linearGradient><linearGradient id="B" x2="1" gradientUnits="userSpaceOnUse" gradientTransform="rotate(88.091 .34 122.129) scale(45.97442)"><stop offset="0" stop-color="#b3afac"/><stop offset="1" stop-color="#736f6c"/></linearGradient><linearGradient id="C" x2="1" gradientUnits="userSpaceOnUse" gradientTransform="rotate(88.091 .34 122.129) scale(45.97442)"><stop offset="0" stop-color="#f2f3f1"/><stop offset="1" stop-color="#a19f9f"/></linearGradient><linearGradient id="D" x2="1" gradientUnits="userSpaceOnUse" gradientTransform="rotate(88.091 32.05 152.803) scale(45.97452)"><stop offset="0" stop-color="#eee8df"/><stop offset="1" stop-color="#9f9993"/></linearGradient><linearGradient id="E" x2="1" gradientUnits="userSpaceOnUse" gradientTransform="rotate(88.091 32.05 152.803) scale(45.97452)"><stop offset="0" stop-color="#f2f3f1"/><stop offset="1" stop-color="#a19f9f"/></linearGradient><linearGradient id="F" x2="1" gradientUnits="userSpaceOnUse" gradientTransform="rotate(88.091 32.05 152.803) scale(45.97452)"><stop offset="0" stop-color="#e8e1d9"/><stop offset="1" stop-color="#9c948f"/></linearGradient><linearGradient id="G" x2="1" gradientUnits="userSpaceOnUse" gradientTransform="rotate(88.091 32.05 152.803) scale(45.97452)"><stop offset="0" stop-color="#c1b4ad"/><stop offset="1" stop-color="#7f736d"/></linearGradient><linearGradient id="H" x2="1" gradientUnits="userSpaceOnUse" gradientTransform="rotate(88.091 32.05 152.803) scale(45.97452)"><stop offset="0" stop-color="#d1beb1"/><stop offset="1" stop-color="#8b7a71"/></linearGradient><linearGradient id="I" x2="1" gradientUnits="userSpaceOnUse" gradientTransform="rotate(88.091 32.05 152.803) scale(45.97452)"><stop offset="0" stop-color="#b3afac"/><stop offset="1" stop-color="#736f6c"/></linearGradient><linearGradient id="J" x2="1" gradientUnits="userSpaceOnUse" gradientTransform="rotate(88.091 32.05 152.803) scale(45.97452)"><stop offset="0" stop-color="#f2f3f1"/><stop offset="1" stop-color="#a19f9f"/></linearGradient><linearGradient id="K" x2="1" gradientUnits="userSpaceOnUse" gradientTransform="rotate(88.091 32.05 152.803) scale(45.97452)"><stop offset="0" stop-color="#eee8df"/><stop offset="1" stop-color="#9f9993"/></linearGradient><linearGradient id="L" x2="1" gradientUnits="userSpaceOnUse" gradientTransform="rotate(88.091 32.05 152.803) scale(45.97452)"><stop offset="0" stop-color="#bcbaba"/><stop offset="1" stop-color="#7b7878"/></linearGradient><linearGradient id="M" x2="1" gradientUnits="userSpaceOnUse" gradientTransform="rotate(88.091 32.05 152.803) scale(45.97452)"><stop offset="0" stop-color="#bcbaba"/><stop offset="1" stop-color="#7b7878"/></linearGradient></defs></svg>