<svg viewBox="0 0 297 301" xmlns="http://www.w3.org/2000/svg" fill-rule="evenodd" clip-rule="evenodd" stroke-linejoin="round" stroke-miterlimit="1.414"><g fill-rule="nonzero"><path d="M160.756 208.2s.321 7.36-1.36 7.6c-1.2-4-1.84-8.84-4.082-11.04-3.523 4.08-6.803 6.6-6.803 6.6s-3.122-2.6-6.405-6.68c-2.479 2.32-4.643 5.76-6.003 10.16-.32-.24-1.2-5.12-1.2-5.12s-5.762 7.09-6.882 11.85c-1.122 4.72 2.881 9.76 2.881 9.76s1.922-.96 3.763-2.56c1.679 11.84 13.203 21.21 13.203 21.21s11.688-8.73 14.007-20.33c1.423 1 2.705 1.6 2.705 1.6s4.241-5.04 2.881-9.77c-2.323-8.24-6.705-13.28-6.705-13.28z" fill="#e6a52f"/><path fill="#985c9a" d="M.076.48h296.866v299.7H.076z"/><path d="M149.473 187.11v112.27H88.745c-.989-.39-1.482-.59-1.482-.59 0-14.34 2.102-25.51 5.305-34.22 7.73-21.03 21.882-27.71 28.396-29.73 2.138-.66 3.455-.82 3.455-.82.231 0 .446-.02.666-.05 1.912-.31 3.465-1.97 4.711-4.62.927-1.97 1.701-4.48 2.332-7.39.251-1.13.445-2.27.646-3.51.297-2.07.589-4.25.84-6.52.097-1.39.246-2.72.395-4.15.538-6.87.692-14.39.692-21.51 0 0 8.154.84 14.772.84z" fill="#e0bd9a"/><path d="M211.933 298.79s-.543.2-1.435.59h-61.025V187.11h.148c6.571 0 14.828-.84 14.828-.84 0 7.07.144 14.48.687 21.36.149 1.33.298 2.71.395 4.05.251 2.37.549 4.6.892 6.67v.05c.098.94.292 1.78.446 2.67.6 2.92 1.327 5.49 2.204 7.55 1.092 2.56 2.419 4.35 4.029 5.06a3.92 3.92 0 0 0 1.624.34s2.338.29 5.838 1.66c7.151 2.8 19.16 10.14 26.059 28.89 3.203 8.71 5.31 19.88 5.31 34.22z" fill="#efd0ad"/><path d="M166.423 218.15v.04c-1.532 2.36-6.671 9.14-16.85 9.14h-.099c-9.635-.05-15.269-7.02-16.702-9.09.297-2.06.593-4.22.841-6.48.098-1.33.246-2.7.395-4.13a67.864 67.864 0 0 0 15.269 2.02h.197c5.633-.1 10.822-.89 15.664-2.16.148 1.32.297 2.7.395 4.02.248 2.36.544 4.57.89 6.64z" fill="#be987f"/><path d="M148.782 59.17c-64.336 0-64.682 53.77-61.816 88.99-4.398-8.35-17.492-5.8-16.405 7.37 1.038 12.67 19.745 19.13 19.222 17.73 9.742 26.04 35.528 45.67 58.999 45.67h.495V59.17h-.495z" fill="#d2a686"/><path d="M74.663 149.98c3.162-5.11 8.103-2.9 9.289-1.77 1.285 1.23 2.322 2.8 1.532 5.79-.445 1.72-2.224 1.87-1.828 4.42.494 2.9 1.828 3.05 2.618 3.74.742.63 1.681 1.13 2.125 2.35a6.21 6.21 0 0 1 .297 3.64c-.495 2.06-3.508.39-5.534-.49-1.335-.64-5.584-4.23-6.671-5.41-2.668-3.04-3.953-8.93-1.828-12.27z" fill="#ac8774"/><path d="M149.128 59.17c64.336 0 64.682 53.77 61.865 88.99 4.398-8.35 17.444-5.8 16.356 7.37-.988 12.67-19.733 19.13-19.221 17.73-9.491 26.04-35.528 45.67-59 45.67h-.346l-.148-159.76h.494z" fill="#ddb598"/><path d="M223.248 149.98c-3.162-5.11-8.054-2.9-9.29-1.77-1.284 1.23-2.272 2.8-1.531 5.79.444 1.72 2.223 1.87 1.828 4.42-.494 2.9-1.828 3.05-2.569 3.74-.742.63-1.73 1.13-2.175 2.35-.445 1.23-.543 2.51-.296 3.64.494 2.06 3.508.39 5.534-.49 1.384-.64 5.584-4.23 6.671-5.41 2.717-3.04 3.953-8.93 1.828-12.27z" fill="#ac8774"/><path d="M148.276 74.34c-21.149 0-36.665 6.14-46.003 18.22-13.095 16.95-12.601 42.78-7.808 61.35 1.483 5.69 2.273 20.97 3.261 26.57 4.596 25.09 32.317 38.45 50.55 38.45h.494V74.34h-.494z" fill="#e0bd9a"/><path d="M194.23 92.61c-9.289-12.03-24.607-18.17-45.46-18.27v144.59c20.853-.24 45.806-14.88 50.056-38.45 1.037-5.6 1.779-20.88 3.262-26.57 4.842-18.52 5.336-44.31-7.858-61.3z" fill="#efd0ad"/><path d="M148.963 190.57h.001-.001zm-3.567 2.73l-.303-.06c.099.02.186.04.303.06zm-.785-.18c-.094-.02-.178-.05-.27-.07h-.01s.104.03.28.07zm4.352-.01h.001-.001z" fill="#bc917b"/><path d="M136.495 174.54c-.245-4.99 9.178-1.82 12.284-1.67 2.455.13 9.923-1.57 10.564-1.13 4.394 2.96-4.654 8.93-10.72 8.93-1.616 0-11.982-3.11-12.128-6.13z" fill="#ddb598"/><path d="M130.809 74.7l-.268.27.045.09c.089-.13.133-.27.223-.36z" fill="#432e1b"/><path d="M149.235 193.13h.001-.001zm-3.664-2.76zm-.806-.18c-.096-.03-.182-.06-.277-.08h-.01l.287.08zm4.47-.02h.001-.001z" fill="#ba907b"/><path d="M102.617 130.77s4.908 20.14 13.335 21.78c8.426 1.65 17.547-1.62 17.547-1.62s.872-23.66-3.443-26.75c-4.311-3.11-14.25-7.6-27.439 6.59z" fill="#fff"/><path d="M133.51 150.87s-.193.05-.627.24c-.107-7.26-.778-17.23-3.472-19.14-4.007-2.94-13.052-7.06-25.138 4.23-1.099-3.12-1.65-5.49-1.65-5.49 13.213-14.22 23.16-9.74 27.439-6.63 4.319 3.1 3.448 26.79 3.448 26.79z" fill="#d6b496"/><path d="M128.52 140.61c0 4.59-3.713 8.3-8.293 8.3a8.294 8.294 0 0 1-8.294-8.3c0-4.58 3.714-8.29 8.294-8.29a8.29 8.29 0 0 1 8.293 8.29z" fill="#482315"/><path d="M119.841 146.14c-2.394-.2-4.234-2.62-4.015-5.27.214-2.66 2.423-4.74 4.819-4.54 2.395.2 4.231 2.61 4.019 5.27-.218 2.66-2.428 4.74-4.823 4.54z" fill="#7e3a22"/><path d="M120.049 145.18c-1.668-.14-3.397-1.97-3.213-4.22.187-2.26 2.188-3.79 3.856-3.65 1.667.14 3.393 1.98 3.209 4.23-.184 2.26-2.189 3.78-3.852 3.64z" fill="#211a10"/><path d="M118.699 139.62c-.07.82-.906 1.41-1.863 1.33-.96-.08-1.683-.81-1.619-1.62.07-.81.9-1.41 1.859-1.33.963.08 1.687.8 1.623 1.62zm5.376 4.71c-.035.41-.452.71-.929.67-.482-.04-.842-.41-.811-.81.034-.41.452-.71.929-.67.482.04.846.4.811.81z" fill="#fff"/><path d="M149.367 190.09h.001-.001zm-3.664 2.65l-.311-.06c.102.02.191.04.311.06zm-.806-.18c-.096-.02-.183-.05-.277-.08l-.01.01s.107.03.287.07zm4.47-.02h.001-.001z" fill="#ba907b"/><path d="M145.326 192.17zm-.864-.19c-.103-.03-.196-.06-.297-.08h-.011l.308.08zm.616-.65a3.887 3.887 0 0 1-.334-.07c.11.02.206.04.334.07zm-.864-.19c-.103-.03-.196-.06-.297-.09l-.011.01.308.08zm5.431-2.48h.001-.001zm-3.797 2.56c-.108-.03-.215-.05-.322-.07.106.02.199.04.322.07zm-.835-.19c-.099-.03-.189-.05-.287-.08h-.01l.297.08zm4.632-.02h.001-.001z" fill="#bc917b"/><path d="M195.428 130.09s-4.908 20.14-13.335 21.78c-8.427 1.64-17.547-1.62-17.547-1.62s-.871-23.67 3.443-26.76c4.311-3.11 14.251-7.59 27.439 6.6z" fill="#fff"/><path d="M164.535 150.18s.193.06.626.24c.108-7.26.779-17.23 3.473-19.14 4.007-2.93 13.053-7.06 25.138 4.23 1.099-3.12 1.65-5.48 1.65-5.48-13.213-14.22-23.161-9.74-27.439-6.63-4.32 3.1-3.448 26.78-3.448 26.78z" fill="#d6b496"/><path d="M169.524 139.93a8.29 8.29 0 0 0 8.294 8.29 8.29 8.29 0 1 0 0-16.58 8.29 8.29 0 0 0-8.294 8.29z" fill="#482315"/><path d="M178.203 145.45c2.396-.19 4.235-2.61 4.016-5.27-.214-2.66-2.422-4.73-4.819-4.53-2.395.19-4.231 2.61-4.02 5.26.219 2.66 2.429 4.74 4.823 4.54z" fill="#7e3a22"/><path d="M177.997 144.49c1.667-.14 3.396-1.97 3.212-4.22-.187-2.26-2.188-3.78-3.855-3.65-1.669.14-3.394 1.98-3.21 4.23.183 2.26 2.189 3.78 3.853 3.64z" fill="#211a10"/><path d="M179.347 138.94c.069.81.905 1.41 1.862 1.33.96-.08 1.684-.81 1.619-1.62-.07-.82-.901-1.41-1.859-1.34-.963.08-1.687.81-1.622 1.63zm-5.378 4.71c.036.4.453.7.93.66.482-.04.842-.4.811-.81-.034-.4-.452-.7-.929-.66-.482.04-.846.4-.812.81z" fill="#fff"/><path d="M138.559 130.45c-.063-.09-1.592-2.42-4.719-4.82-1.959-1.5-3.878-2.64-5.869-3.49a30.056 30.056 0 0 0-7.551-2.08c-2.284-.26-4.815-.19-7.769.21-2.254.43-4.452 1.1-6.319 1.92-1.331.46-2.382 1.1-3.227 1.62-.323.2-.616.38-.913.54l-4.025 2.53 4.638-1.09c.217-.06.45-.12.702-.19.959-.25 2.154-.57 3.554-.77.328-.05.661-.12 1.002-.18.583-.12 1.187-.24 1.819-.27.702-.05 1.431-.1 2.18-.15l.974-.07c2.569-.04 4.739.16 6.667.6 2.107.37 4.272 1.05 6.258 1.97 1.876.89 3.673 1.78 5.076 2.81 2.834 1.89 4.41 3.47 4.426 3.49a2.02 2.02 0 0 0 2.53.26c.933-.61 1.195-1.87.602-2.77l-.036-.07zm57.697-6.12a16.03 16.03 0 0 1-.884-.52c-.844-.52-1.894-1.16-3.186-1.61-1.905-.83-4.104-1.5-6.386-1.94-2.928-.39-5.459-.46-7.752-.2-2.513.34-5.12 1.06-7.543 2.08-1.963.84-3.937 2.01-5.866 3.49-3.07 2.36-4.597 4.64-4.712 4.82l-.028.04c-.518.8-.407 1.86.263 2.54.381.38.889.59 1.428.59h.001c.539 0 1.045-.21 1.425-.59l.017-.02c.149-.15 1.68-1.64 4.427-3.48 1.382-1.01 3.181-1.9 5.05-2.8a25.69 25.69 0 0 1 6.294-1.97c1.9-.44 4.074-.63 6.61-.6l1.022.07c.743.05 1.465.1 2.171.15.623.03 1.226.15 1.81.27.341.06.673.13 1 .18 1.401.2 2.596.52 3.556.77.251.07.485.13.708.19l4.636 1.09-4.061-2.55z" fill="#030405"/><path d="M144.246 195.13zm-.842-.19c-.101-.03-.192-.06-.29-.08h-.011l.301.08z" fill="#be927b"/><path d="M136.883 199.28c-.244-3.24 9.016.68 12.056.77 2.426.08 9.713-.48 10.386-.74 5.094-1.9-.278 5.42-10.536 5.8-4.7.19-11.767-3.87-11.906-5.83z" fill="#f0d2ad"/><path d="M167.028 193.04c-2.513-.13-5.095 1.97-8.118 1.65-.123-.06-.185-.06-.314-.06-.694-.12-1.383 0-2.138.18-.941.2-1.888.58-2.772.89-1.512.49-3.214.88-4.966.75v.01l-.098-.01-.098.01v-.01c-1.752.13-3.455-.26-4.966-.75-.885-.31-1.832-.69-2.772-.89-.756-.18-1.444-.3-2.139-.18-.129 0-.19 0-.314.06-3.023.32-5.604-1.78-8.118-1.65-.695.06-1.703-.13-2.268-.13.123.07.252.13.381.19 7.166 3.49 13.349 10.04 20.196 9.83h.196c6.846.21 13.03-6.34 20.195-9.83.129-.06.258-.12.382-.19-.566 0-1.574.19-2.269.13z" fill="#dcbf9e"/><path d="M169.134 192.84s-7.286-2.81-12.469-1.16c0 0-1.929.75-3.928 1.21-1.216.47-2.689.61-4.115.55a21.996 21.996 0 0 1-2.978-.33c-.283-.04-.565-.1-.854-.16a6.144 6.144 0 0 0-.325-.07c-.175-.04-.345-.07-.518-.12-.188-.04-.3-.07-.3-.07l.011-.01c-1.658-.45-3.08-1-3.08-1-5.182-1.65-12.469 1.16-12.469 1.16-.1.04-.162.07-.162.07.565 0 1.573.19 2.268.13 2.514-.13 5.095 1.97 8.118 1.65.124-.06.185-.06.314-.06.695-.13 1.383 0 2.139.18.94.2 1.887.58 2.772.89 1.511.49 3.214.88 4.966.75v.01l.098-.01.098.01v-.01c1.752.13 3.454-.26 4.966-.75.884-.31 1.831-.69 2.772-.89.755-.18 1.444-.31 2.138-.18.129 0 .191 0 .314.06 3.023.32 5.605-1.78 8.118-1.65.695.06 1.703-.13 2.268-.13 0 0-.062-.03-.162-.07z" fill="#c69f83"/><path d="M136.384 194.55c.132.03 13.653 4.15 24.228.09l-1.218-.82H145.1l-8.716.73z" fill="#c69f83"/><path d="M211.915 300.18H86.535c0-3.48.144-6.79.371-9.94.349-4.88.925-9.34 1.707-13.41a83.243 83.243 0 0 1 2.14-8.77c3.868-12.88 9.834-21.05 15.719-26.23l13.206 12.15c17.113 15.74 43.119 16.74 61.388 2.35l14.451-11.37c6.275 6.5 10.205 14.62 12.653 22.61a82.607 82.607 0 0 1 2.243 9.26c.926 4.98 1.358 9.6 1.543 13.41.288 6.01-.041 9.94-.041 9.94z" fill="#992020"/><path d="M95.449 155.45a24.397 24.397 0 0 1-1.396-4.92c-.019-.11-.038-.22-.056-.34-1.031-6.41-1.506-17.39 6.287-21.12.153-.08.316-.14.48-.19.648-.21 2.481-.78 5.114-1.36-1.061.94-2.147 2-3.255 3.19l.011.05c-.006 0-.011.01-.017.01 0 0 2.643 10.85 7.382 17.27-5.549 2.08-10.466 4.83-13.999 7.06l-.043.03-.334.21c-.059.04-.117.07-.174.11z" fill="#b5c7b1"/><path d="M109.999 148.04c-4.739-6.42-7.382-17.27-7.382-17.27.006 0 .011-.01.017-.01.081.33.628 2.57 1.639 5.44 6.065-5.67 11.363-7.45 15.644-7.45 4.25 0 7.498 1.76 9.494 3.22 2.08 1.47 2.954 7.75 3.294 13.88a27.218 27.218 0 0 0-5.434-.85 8.307 8.307 0 0 0 1.249-4.39 8.29 8.29 0 0 0-8.293-8.29 8.291 8.291 0 0 0-8.294 8.29c0 2.34.969 4.46 2.527 5.97-1.522.43-3.012.92-4.461 1.46z" fill="#bee4de"/><path d="M139.919 149.04a24.579 24.579 0 0 0-6.337-2.94c.001-4.28-.158-10.61-.962-15.44 1.832 1.36 2.831 2.36 2.843 2.37a2.02 2.02 0 0 0 2.53.26c.933-.61 1.195-1.87.602-2.77l-.036-.07c-.027-.04-.319-.48-.887-1.16.079.03.158.07.237.1 0 0 4.876.98 5.125 7.05.013.3 0 .61-.038.91-.139 1.1-.606 4.22-1.821 8.14a50.308 50.308 0 0 1-1.256 3.55z" fill="#b5c7b1"/><path d="M133.582 146.1c-.292-.09-.584-.17-.877-.25-.34-6.13-1.214-12.41-3.294-13.88-1.996-1.46-5.244-3.22-9.494-3.22-4.281 0-9.579 1.78-15.644 7.45-1.011-2.87-1.558-5.11-1.639-5.44l-.011-.05a47.507 47.507 0 0 1 3.255-3.19c3.59-.8 8.67-1.63 14.273-1.63 1.38 0 2.794.05 4.223.17.539.2 1.069.43 1.587.67 1.876.89 3.673 1.78 5.076 2.81.581.39 1.11.77 1.583 1.12.804 4.83.963 11.16.962 15.44z" fill="#b0c3af"/><path d="M114.46 146.58a8.295 8.295 0 0 1-2.527-5.97c0-4.58 3.714-8.29 8.294-8.29a8.29 8.29 0 0 1 8.293 8.29c0 1.61-.457 3.11-1.249 4.39-.609-.04-1.219-.06-1.829-.06h-.048c-.809 0-1.617.03-2.424.09.019-.02.038-.03.057-.05.039.01.078.01.119.02h.086c.44 0 .81-.29.843-.67a.648.648 0 0 0-.142-.46c.401-.67.663-1.44.731-2.27.212-2.66-1.624-5.07-4.019-5.27-.107-.01-.214-.01-.321-.01-1.29 0-2.5.65-3.342 1.67h-.076c-.885 0-1.624.58-1.689 1.34-.039.5.215.96.638 1.27-.012.09-.021.18-.029.27-.168 2.04.876 3.93 2.453 4.79-1.288.25-2.564.56-3.819.92z" fill="#717363"/><path d="M118.279 145.66c-1.577-.86-2.621-2.75-2.453-4.79.008-.09.017-.18.029-.27.269.19.607.32.981.35v.01c-.184 2.25 1.545 4.08 3.213 4.22.07.01.14.01.211.01.707 0 1.459-.29 2.095-.79.076.28.335.51.672.58-.019.02-.038.03-.057.05-1.574.12-3.141.33-4.691.63zm5.654-1.79a.926.926 0 0 0-.669-.35h-.076c.387-.56.652-1.23.713-1.98.184-2.25-1.542-4.09-3.209-4.23-.07-.01-.14-.01-.21-.01-.83 0-1.717.39-2.411 1.06-.272-.2-.615-.33-.995-.36-.032 0-.063-.01-.094-.01.842-1.02 2.052-1.67 3.342-1.67.107 0 .214 0 .321.01 2.395.2 4.231 2.61 4.019 5.27-.068.83-.33 1.6-.731 2.27z" fill="#8d836b"/><path d="M120.26 145.19c-.071 0-.141 0-.211-.01-1.668-.14-3.397-1.97-3.213-4.22v-.01c.057.01.113.01.169.01.885 0 1.628-.57 1.694-1.34.039-.49-.211-.95-.628-1.26.694-.67 1.581-1.06 2.411-1.06.07 0 .14 0 .21.01 1.667.14 3.393 1.98 3.209 4.23a4.045 4.045 0 0 1-.713 1.98h-.011c-.44 0-.81.29-.842.67-.006.07.002.14.02.21-.636.5-1.388.79-2.095.79z" fill="#596d63"/><path d="M117.005 140.96c-.056 0-.112 0-.169-.01a1.977 1.977 0 0 1-.981-.35c-.423-.31-.677-.77-.638-1.27.065-.76.804-1.34 1.689-1.34h.076c.031 0 .062.01.094.01.38.03.723.16.995.36.417.31.667.77.628 1.26-.066.77-.809 1.34-1.694 1.34zm6.227 4.04h-.086c-.041-.01-.08-.01-.119-.02-.337-.07-.596-.3-.672-.58a.625.625 0 0 1-.02-.21c.032-.38.402-.67.842-.67h.087c.282.02.524.16.669.35.102.13.157.29.142.46-.033.38-.403.67-.843.67z" fill="#bee4de"/><path d="M136.896 133.62a2.02 2.02 0 0 1-1.433-.59c-.012-.01-1.011-1.01-2.843-2.37-.473-.35-1.002-.73-1.583-1.12-1.403-1.03-3.2-1.92-5.076-2.81a21.98 21.98 0 0 0-1.587-.67c1.459.11 2.936.29 4.416.56 2.992.52 5.996 1.38 8.882 2.67.568.68.86 1.12.887 1.16l.036.07c.593.9.331 2.16-.602 2.77-.334.22-.716.33-1.097.33z" fill="#4b6560"/><path d="M114.459 169.11c-4.799 0-10.296-1.54-14.912-6.88-.41-.47-.799-.96-1.167-1.46h-.004a23.593 23.593 0 0 1-1.58-2.47l-.018-.03-.015-.03c-.498-.9-.937-1.83-1.314-2.79.057-.04.115-.07.174-.11l.334-.21.043-.03c3.533-2.23 8.45-4.98 13.999-7.06 1.718 2.33 3.711 4.08 5.953 4.51 1.692.33 3.414.47 5.083.47 6.64 0 12.464-2.09 12.464-2.09l.002-.06h.009s.071-1.94.072-4.77c2.174.66 4.299 1.62 6.337 2.94-1.15 2.93-2.711 6.05-4.816 8.97-2.28 3.16-5.196 6.09-8.921 8.28 0 0-4.437 2.4-10.225 2.77-.491.03-.99.05-1.498.05z" fill="#a1c0a5"/><path d="M121.035 153.02c-1.669 0-3.391-.14-5.083-.47-2.242-.43-4.235-2.18-5.953-4.51a57.76 57.76 0 0 1 4.462-1.46 8.28 8.28 0 0 0 5.766 2.33 8.286 8.286 0 0 0 7.044-3.91c1.826.1 3.646.38 5.434.85.1 1.81.154 3.6.178 5.26.379-.16.574-.23.618-.24l-.002.06s-5.824 2.09-12.464 2.09z" fill="#a9dbcf"/><path d="M132.883 151.11a130.21 130.21 0 0 0-.178-5.26c.293.08.585.16.877.25-.001 2.83-.072 4.77-.072 4.77h-.009c-.044.01-.239.08-.618.24z" fill="#9cbca3"/><path d="M120.227 148.91a8.28 8.28 0 0 1-5.766-2.33c1.254-.36 2.53-.66 3.818-.92.478.27 1.005.43 1.562.48.108.01.215.01.321.01 1.037 0 2.023-.42 2.808-1.12.807-.06 1.615-.09 2.424-.09h.048c.61 0 1.22.02 1.829.06a8.286 8.286 0 0 1-7.044 3.91z" fill="#63705b"/><path d="M120.162 146.15c-.106 0-.213 0-.321-.01a3.856 3.856 0 0 1-1.562-.48c1.55-.3 3.117-.51 4.691-.63-.785.7-1.771 1.12-2.808 1.12z" fill="#7d7f61"/><path d="M95.449 155.45c.057-.04.115-.07.174-.11-.059.04-.117.07-.174.11zm.508-.32l.043-.03-.043.03zm43.962-6.09a24.916 24.916 0 0 0-6.337-2.94c2.174.65 4.299 1.62 6.337 2.94z" fill="#89c4af"/><path d="M127.271 145zm-1.877-.06h.034-.034z" fill="#6d9b87"/><path d="M206.488 150.19c-.716 4.45-2.604 8.64-5.548 12.05-10.873 12.57-26.637 4.05-26.637 4.05-13.634-8-16.437-25.96-16.814-28.94-.037-.3-.051-.61-.038-.91.249-6.07 5.126-7.05 5.126-7.05 15.598-7.12 34.709-1.3 37.146-.51.165.05.326.11.481.19 7.793 3.73 7.316 14.71 6.284 21.12zm-63.492-12.84c-.377 2.98-3.179 20.94-16.814 28.94 0 0-15.763 8.52-26.636-4.05-2.946-3.41-4.834-7.6-5.55-12.05-1.031-6.41-1.507-17.39 6.285-21.12.156-.08.317-.14.48-.19 2.438-.79 21.549-6.61 37.148.51 0 0 4.876.98 5.125 7.05.013.3 0 .61-.038.91zm66.659-.04s-2.663-14.89-19.867-14.63h-39.503v4.66h6.634s2.177-.23.408 2.22c0 0-2.158 3.57-2.749 6.13-.142.61-.444 1.03-1.075 1l-3.261-.26-3.26.26c-.631.03-.933-.39-1.075-1-.591-2.56-2.749-6.13-2.749-6.13-1.768-2.45.409-2.22.409-2.22h6.633v-4.66h-39.502c-17.205-.26-19.868 14.63-19.868 14.63-1.926 6.16 2.022 18.77 2.022 18.77 6.676 15.63 22.083 15.3 22.083 15.3 20.799.51 29.53-25.16 29.53-25.16 1.54-6.42 5.777-5.65 5.777-5.65s4.237-.77 5.778 5.65c0 0 8.73 25.67 29.53 25.16 0 0 15.407.33 22.084-15.3 0 0 3.948-12.61 2.021-18.77z" fill="#fff"/><path d="M205.018 155.51l-.143-.09c-.835-.53-1.753-1.1-2.744-1.68a97.597 97.597 0 0 0 2.984-19.75c1.491 2.87 1.958 6.4 1.943 9.73-.016 2.35-.269 4.61-.57 6.47a24.87 24.87 0 0 1-1.47 5.32z" fill="#b4c5b1"/><path d="M202.131 153.74c-3.807-2.24-8.687-4.72-14.029-6.46 4.703-6.43 7.326-17.19 7.326-17.19-.006-.01-.011-.01-.017-.02a.329.329 0 0 1 .011-.04 44.659 44.659 0 0 0-2.883-2.86c3.736.71 6.376 1.52 7.182 1.78.164.06.328.12.481.19 2.282 1.1 3.856 2.81 4.913 4.85a97.597 97.597 0 0 1-2.984 19.75zm-41.545-4.63c-2.188-5.52-2.917-10.34-3.097-11.76a5.911 5.911 0 0 1-.043-.65l.004-.19c.11-2.64 1.096-4.32 2.174-5.37-.15.67.038 1.39.538 1.89.381.38.889.59 1.428.59h.001c.539 0 1.045-.21 1.425-.59l.017-.02c.102-.1.86-.84 2.217-1.89-.75 5.34-.817 12.06-.779 15.93-1.235.52-2.45 1.15-3.636 1.9-.083.05-.166.1-.249.16z" fill="#bcd0bb"/><path d="M188.102 147.28a54.681 54.681 0 0 0-4.635-1.28 8.29 8.29 0 0 0-5.649-14.36 8.29 8.29 0 0 0-6.381 13.59 25.84 25.84 0 0 0-6.173 1.5c.275-6.58 1.112-13.85 3.37-15.45 1.996-1.46 5.244-3.22 9.495-3.22 4.281 0 9.579 1.79 15.643 7.45 1.011-2.87 1.558-5.1 1.639-5.44.006.01.011.01.017.02 0 0-2.623 10.76-7.326 17.19z" fill="#bee4de"/><path d="M164.471 147.05c-.038-3.87.029-10.59.779-15.93.615-.48 1.354-1.02 2.21-1.59 1.382-1.01 3.181-1.9 5.05-2.8.195-.09.392-.18.59-.26 2.457-.36 4.891-.5 7.236-.5 4.598 0 8.844.56 12.203 1.2.942.85 1.904 1.8 2.883 2.86 0 0-.004.01-.011.04-.081.34-.628 2.57-1.639 5.44-6.064-5.66-11.362-7.45-15.643-7.45-4.251 0-7.499 1.76-9.495 3.22-2.258 1.6-3.095 8.87-3.37 15.45-.265.1-.53.21-.793.32z" fill="#b0c3af"/><path d="M183.467 146c-1.43-.32-2.878-.57-4.335-.74 1.923-.66 3.276-2.78 3.087-5.08a6.174 6.174 0 0 0-.028-.27c.422-.3.676-.77.637-1.26-.066-.77-.805-1.34-1.69-1.34h-.075c-.842-1.03-2.052-1.68-3.342-1.68-.107 0-.214.01-.321.02-2.395.19-4.231 2.61-4.02 5.26.069.83.331 1.61.732 2.27a.69.69 0 0 0-.143.47c.033.38.404.66.844.66h.086c.041 0 .08-.01.119-.02.323.3.681.55 1.064.74-.33-.01-.66-.01-.989-.01h-.049c-1.205 0-2.409.06-3.607.21a8.29 8.29 0 0 1 6.381-13.59 8.29 8.29 0 0 1 5.649 14.36z" fill="#717363"/><path d="M179.132 145.26a34.62 34.62 0 0 0-3.05-.23 4.518 4.518 0 0 1-1.064-.74c.337-.06.596-.29.672-.57.636.5 1.389.78 2.096.78.071 0 .141 0 .211-.01 1.667-.14 3.396-1.97 3.212-4.22.374-.03.712-.16.982-.36.011.09.021.18.028.27.189 2.3-1.164 4.42-3.087 5.08zm-5.02-2.08a5.218 5.218 0 0 1-.732-2.27c-.211-2.65 1.625-5.07 4.02-5.26.107-.01.214-.02.321-.02 1.29 0 2.5.65 3.342 1.68h-.094c-.38.03-.723.17-.995.37-.694-.68-1.581-1.07-2.41-1.07-.071 0-.141.01-.21.01-1.669.14-3.394 1.98-3.21 4.23.061.76.325 1.43.713 1.98-.026 0-.051.01-.076.01a.917.917 0 0 0-.669.34z" fill="#8d836b"/><path d="M177.786 144.5c-.707 0-1.46-.28-2.096-.78a.66.66 0 0 0 .02-.22c-.032-.38-.402-.67-.842-.67h-.011a3.965 3.965 0 0 1-.713-1.98c-.184-2.25 1.541-4.09 3.21-4.23.069 0 .139-.01.21-.01.829 0 1.716.39 2.41 1.07-.417.3-.667.76-.627 1.26.065.76.808 1.33 1.692 1.33h.17c.184 2.25-1.545 4.08-3.212 4.22-.07.01-.14.01-.211.01z" fill="#596d63"/><path d="M181.039 140.27c-.884 0-1.627-.57-1.692-1.33-.04-.5.21-.96.627-1.26.272-.2.615-.34.995-.37h.169c.885 0 1.624.57 1.69 1.34.039.49-.215.96-.637 1.26-.27.2-.608.33-.982.36h-.17zm-6.226 4.04c-.44 0-.811-.28-.844-.66a.69.69 0 0 1 .143-.47.917.917 0 0 1 .669-.34c.025 0 .05-.01.076-.01h.011c.44 0 .81.29.842.67a.66.66 0 0 1-.02.22c-.076.28-.335.51-.672.57-.039.01-.078.02-.119.02h-.086z" fill="#bee4de"/><path d="M161.591 133.62h-.001a2.01 2.01 0 0 1-1.428-.59c-.5-.5-.688-1.22-.538-1.89 1.398-1.36 2.951-1.67 2.951-1.67 3.411-1.56 6.989-2.5 10.525-3-.198.08-.395.17-.59.26-1.869.9-3.668 1.79-5.05 2.8-.856.57-1.595 1.11-2.21 1.59-1.357 1.05-2.115 1.79-2.217 1.89l-.017.02c-.38.38-.886.59-1.425.59z" fill="#4b6560"/><path d="M205.037 155.52c-.006 0-.013 0-.019-.01a24.87 24.87 0 0 0 1.47-5.32c.301-1.86.554-4.12.57-6.47-.011 2.38-.266 4.66-.57 6.55a24.279 24.279 0 0 1-1.451 5.25zm-44.471-6.4c-2.177-5.5-2.903-10.28-3.077-11.7a5.335 5.335 0 0 1-.043-.72c.002.22.017.43.043.65.18 1.42.909 6.24 3.097 11.76-.007 0-.013 0-.02.01z" fill="#bee4de"/><path d="M200.776 162.42c.377-3.45.8-6.55 1.312-8.51.014-.06.029-.12.043-.17.991.58 1.909 1.15 2.744 1.68l.143.09a23.905 23.905 0 0 1-4.078 6.73l-.164.18z" fill="#a0bda3"/><path d="M186.031 169.11c-6.506 0-11.728-2.82-11.728-2.82-7.141-4.19-11.311-11.11-13.717-17.18.083-.06.166-.11.249-.16a24.804 24.804 0 0 1 3.636-1.9c.019 1.92.064 3.13.064 3.13s.003 0 .009.01l.002.06s5.824 2.08 12.464 2.08c1.669 0 3.39-.13 5.083-.46 2.266-.44 4.278-2.22 6.008-4.59 5.342 1.74 10.223 4.22 14.03 6.46-.014.05-.029.11-.043.17-.512 1.96-.935 5.06-1.312 8.51-4.581 5.19-10.004 6.69-14.745 6.69z" fill="#a8c8ac"/><path d="M177.01 152.33c-6.64 0-12.464-2.08-12.464-2.08l-.002-.06c.044.01.239.07.617.23.018-1.17.05-2.42.103-3.69a25.84 25.84 0 0 1 6.173-1.5 8.272 8.272 0 0 0 6.381 2.99c2.182 0 4.168-.84 5.649-2.22 1.572.36 3.121.79 4.634 1.28-1.73 2.37-3.742 4.15-6.008 4.59-1.693.33-3.414.46-5.083.46z" fill="#a9dbcf"/><path d="M165.161 150.42a5.009 5.009 0 0 0-.617-.23c-.006-.01-.009-.01-.009-.01s-.045-1.21-.064-3.13c.264-.11.527-.22.793-.32-.053 1.27-.085 2.52-.103 3.69z" fill="#9cbca3"/><path d="M177.818 148.22a8.272 8.272 0 0 1-6.381-2.99c1.198-.15 2.402-.21 3.607-.21h.049c.329 0 .659 0 .989.01.559.28 1.171.44 1.802.44.106 0 .212-.01.319-.02.321-.02.632-.09.929-.19 1.456.17 2.906.42 4.335.74a8.256 8.256 0 0 1-5.649 2.22z" fill="#63705b"/><path d="M177.884 145.47c-.631 0-1.243-.16-1.802-.44 1.019.03 2.036.11 3.05.23-.297.1-.608.17-.929.19-.107.01-.213.02-.319.02z" fill="#7d7f61"/><path d="M186.026 169.19c-6.503-.01-11.724-2.83-11.724-2.83-7.165-4.2-11.34-11.16-13.736-17.24.007-.01.013-.01.02-.01 2.406 6.07 6.576 12.99 13.717 17.18 0 0 5.222 2.82 11.728 2.82 4.741 0 10.164-1.5 14.745-6.69l.164-.18a23.905 23.905 0 0 0 4.078-6.73c.006.01.013.01.019.01a23.478 23.478 0 0 1-4.098 6.79c-4.616 5.34-10.113 6.88-14.913 6.88z" fill="#a9dbcf"/><path d="M164.471 147.05c.263-.11.528-.22.793-.32-.266.1-.529.21-.793.32z" fill="#86c1ae"/><path d="M171.437 145.23zm3.656-.21h-.035.035z" fill="#6d9b87"/><path d="M96.222 117.53S82.416 113.88 82.734 106c0 0-5.759-41.62 19.103-53.62 0 0 27.576-14.03 53.327-6.21" fill="#a92423"/><path d="M164.913 129.82s42.825 2.49 47.713-3.73c0 0 7.709-29.06-.648-51.06-3.724-9.8-12.506-17.75-23.729-21.84-10.028-3.66-25.675-8.61-33.085-7.02l9.749 83.65z" fill="#7a1617"/><path d="M155.164 46.17s24.519 6.85 9.749 83.65c0 0-51.204-5.52-68.691-12.29 0 0-11.909-68.45 58.942-71.36z" fill="#992020"/><path d="M161.474 45.43c-.129 1.75-3.308 2.94-7.103 2.66-3.794-.28-6.766-1.92-6.637-3.67.128-1.75 3.308-2.94 7.102-2.66 3.795.28 6.767 1.92 6.638 3.67zm-78.892 59.25s-59.176 7.08-41.25 14.98c0 0 78.183 32.3 140.091 10.64l-98.841-25.62z" fill="#7a1617"/><path d="M39.012 115.51s-10.393 8.67 37.094 22.19c0 0 78.047 14.23 105.317-7.4 0 0-82.695 20.1-142.411-14.79z" fill="#a92423"/><path d="M96.385 119.73c-.227 3.09-9.502 4.93-20.716 4.1-11.214-.82-20.12-4-19.893-7.08.227-3.09 9.502-4.92 20.715-4.1 11.214.82 20.121 4 19.894 7.08z" fill="#f3c515"/><path d="M148.602 281.08h-.014l-.487-.07c-29.655-7.75-31.77-44.77-31.788-45.14a2.048 2.048 0 0 1 1.955-2.15c1.106-.05 2.098.81 2.156 1.95.016.34 1.994 34.16 28.455 41.29 2.674-.07 25.289-1.89 29.64-41.51.124-1.13 1.138-1.93 2.271-1.82a2.061 2.061 0 0 1 1.82 2.27c-4.912 44.72-33.214 45.18-34.008 45.18z" fill="#faa830"/></g></svg>