<svg viewBox="0 0 297 301" xmlns="http://www.w3.org/2000/svg" fill-rule="evenodd" clip-rule="evenodd" stroke-linejoin="round" stroke-miterlimit="1.414"><path fill="#812d4f" fill-rule="nonzero" d="M0 .48h296.866v299.71H0z"/><path d="M148.554 188.42v111.76H87.818c-.988-.39-1.481-.6-1.481-.6 0-7.01.493-13.29 1.419-18.84a82.161 82.161 0 0 1 1.667-8.03 72.109 72.109 0 0 1 2.222-7.18c1.09-2.96 2.304-5.64 3.641-8.04 4.177-7.72 9.259-12.82 13.971-16.15a42.337 42.337 0 0 1 6.728-3.87 34.35 34.35 0 0 1 4.053-1.54c1.316-.4 2.304-.6 2.88-.72.37-.07.576-.09.576-.09.226 0 .453-.02.679-.04 1.893-.31 3.457-1.97 4.711-4.61.927-1.95 1.688-4.44 2.325-7.36a51 51 0 0 0 .638-3.48c.309-2.08.597-4.24.844-6.5.103-1.38.247-2.72.391-4.14.535-6.83.699-14.34.699-21.41 0 0 8.148.84 14.773.84z" fill="#e0bd9a" fill-rule="nonzero"/><path d="M211.017 299.58s-.555.21-1.44.6h-61.023V188.42h.144c6.563 0 14.834-.84 14.834-.84 0 7.03.144 14.42.679 21.25.144 1.36.308 2.74.391 4.05.267 2.37.555 4.57.905 6.65v.04c.082.95.288 1.79.432 2.65.617 2.92 1.337 5.48 2.222 7.53 1.09 2.53 2.407 4.32 4.012 5.04.514.23 1.07.33 1.625.33 0 0 .35.04.988.19 1.008.18 2.716.62 4.855 1.46.618.25 1.276.51 1.955.82a41.59 41.59 0 0 1 5.925 3.36c4.856 3.33 10.185 8.51 14.546 16.54a59.318 59.318 0 0 1 3.642 8.04 72.109 72.109 0 0 1 2.222 7.18 85.113 85.113 0 0 1 1.687 8.17c.885 5.54 1.399 11.75 1.399 18.7z" fill="#efd0ad" fill-rule="nonzero"/><clipPath id="a"><path d="M131.851 208.8h33.65v19.84h-33.65z"/></clipPath><g clip-path="url(#a)"><path d="M165.502 219.46v.05c-1.532 2.36-6.671 9.13-16.85 9.13h-.099c-9.636-.05-15.269-7.02-16.702-9.08.297-2.06.593-4.23.84-6.48.099-1.33.247-2.71.395-4.13a67.89 67.89 0 0 0 15.269 2.01h.198c5.633-.1 10.822-.88 15.664-2.16.148 1.33.296 2.7.395 4.03.247 2.36.544 4.57.89 6.63z" fill="#be987f" fill-rule="nonzero"/></g><path d="M147.861 60.48c-64.336 0-64.682 53.78-61.817 88.99-4.397-8.35-17.492-5.79-16.405 7.37 1.038 12.67 19.746 19.13 19.222 17.73 9.743 26.04 35.529 45.68 59 45.68h.494V60.48h-.494z" fill="#d2a686" fill-rule="nonzero"/><path d="M148.207 60.48c64.336 0 64.682 53.78 61.865 88.99 4.398-8.35 17.443-5.79 16.356 7.37-.988 12.67-19.733 19.13-19.222 17.73-9.49 26.04-35.528 45.68-58.999 45.68h-.346l-.148-159.77h.494z" fill="#ddb598" fill-rule="nonzero"/><path d="M147.355 75.66c-21.149 0-36.665 6.14-46.004 18.22-13.095 16.94-12.6 42.77-7.808 61.34 1.483 5.7 2.274 20.97 3.262 26.57 4.596 25.1 32.316 38.46 50.55 38.46h.494V75.66h-.296" fill="#e0bd9a" fill-rule="nonzero"/><path d="M193.309 93.93c-9.289-12.04-24.608-18.18-45.46-18.27v144.59c20.852-.25 45.806-14.89 50.056-38.46 1.037-5.6 1.779-20.87 3.261-26.57 4.843-18.52 5.337-44.3-7.857-61.29z" fill="#efd0ad" fill-rule="nonzero"/><path d="M129.886 76.02l-.267.26.045.09c.09-.13.134-.26.222-.35z" fill="#432e1b" fill-rule="nonzero"/><path d="M101.696 132.09s4.908 20.14 13.335 21.78c8.426 1.64 17.546-1.62 17.546-1.62s.872-23.67-3.443-26.76c-4.31-3.11-14.249-7.59-27.438 6.6zm92.811-.69s-4.909 20.14-13.335 21.78c-8.427 1.65-17.547-1.62-17.547-1.62s-.872-23.66 3.443-26.76c4.311-3.1 14.25-7.59 27.439 6.6z" fill="#fff" fill-rule="nonzero"/><path d="M73.741 151.29c3.162-5.11 8.104-2.9 9.289-1.77 1.285 1.23 2.323 2.8 1.532 5.8-.445 1.72-2.224 1.86-1.828 4.42.494 2.9 1.828 3.04 2.619 3.73.741.64 1.68 1.13 2.125 2.36.494 1.23.543 2.5.296 3.63-.494 2.07-3.508.4-5.534-.49-1.334-.64-5.584-4.22-6.671-5.4-2.668-3.05-3.953-8.94-1.828-12.28zm148.586 0c-3.163-5.11-8.055-2.9-9.29-1.77-1.285 1.23-2.273 2.8-1.532 5.8.445 1.72 2.224 1.86 1.828 4.42-.494 2.9-1.828 3.04-2.569 3.73-.741.64-1.729 1.13-2.174 2.36-.445 1.23-.544 2.5-.296 3.63.494 2.07 3.508.4 5.534-.49 1.383-.64 5.583-4.22 6.671-5.4 2.717-3.05 3.953-8.94 1.828-12.28z" fill="#ac8774" fill-rule="nonzero"/><path d="M144.474 194.61l-.303-.06c.1.02.187.04.303.06zm-.785-.17c-.093-.02-.177-.05-.269-.08l-.01.01s.104.03.279.07z" fill="#bc917b" fill-rule="nonzero"/><path d="M135.508 173.07c-.244-4.99 9.178-1.82 12.285-1.67 2.454.13 9.923-1.57 10.564-1.13 4.393 2.96-4.654 8.93-10.721 8.93-1.616 0-11.981-3.11-12.128-6.13z" fill="#ddb598" fill-rule="nonzero"/><path d="M144.65 191.68zm-.806-.18c-.096-.02-.183-.05-.277-.08l-.011.01s.108.03.288.07z" fill="#ba907b" fill-rule="nonzero"/><path d="M132.589 152.18s-.194.06-.627.24c-.107-7.26-.778-17.23-3.473-19.14-4.006-2.93-13.052-7.06-25.137 4.23-1.099-3.12-1.65-5.48-1.65-5.48 13.213-14.22 23.16-9.74 27.439-6.64 4.319 3.11 3.448 26.79 3.448 26.79z" fill="#d6b496" fill-rule="nonzero"/><path d="M127.599 141.93a8.29 8.29 0 0 1-8.293 8.29 8.29 8.29 0 1 1 0-16.58 8.29 8.29 0 0 1 8.293 8.29z" fill="#482315" fill-rule="nonzero"/><path d="M118.92 147.45c-2.395-.19-4.233-2.61-4.015-5.27.214-2.66 2.422-4.73 4.819-4.53 2.395.19 4.231 2.61 4.019 5.26-.218 2.66-2.428 4.74-4.823 4.54z" fill="#7e3a22" fill-rule="nonzero"/><path d="M119.127 146.49c-1.667-.14-3.397-1.97-3.213-4.22.188-2.26 2.189-3.78 3.856-3.65 1.668.14 3.394 1.98 3.21 4.23-.183 2.26-2.19 3.78-3.853 3.64z" fill="#211a10" fill-rule="nonzero"/><path d="M148.446 196.82h.001-.001zm-3.664-2.76zm-.806-.18c-.096-.03-.183-.06-.277-.08h-.01l.287.08zm4.47-.02h.001-.001z" fill="#ba907b" fill-rule="nonzero"/><path d="M144.405 193.49zm-.864-.2c-.103-.02-.196-.05-.297-.08l-.011.01s.115.03.308.07zm4.543 2.31h.001-.001zm-3.928-2.95c-.111-.03-.222-.05-.333-.08.11.03.206.05.333.08zm-.863-.2c-.103-.02-.196-.05-.297-.08h-.011s.114.04.308.08zm4.791-.02h.001-.001zm-3.157.1a3.727 3.727 0 0 1-.323-.07c.106.03.199.04.323.07zm-.835-.19c-.099-.02-.189-.05-.287-.08l-.011.01s.111.03.298.07z" fill="#bc917b" fill-rule="nonzero"/><path d="M163.614 151.5s.193.05.626.23c.108-7.25.779-17.22 3.473-19.13 4.006-2.94 13.052-7.06 25.138 4.23 1.099-3.12 1.649-5.49 1.649-5.49-13.212-14.22-23.16-9.74-27.438-6.63-4.32 3.1-3.448 26.79-3.448 26.79z" fill="#d6b496" fill-rule="nonzero"/><path d="M168.603 141.24c0 4.59 3.713 8.3 8.294 8.3 4.58 0 8.294-3.71 8.294-8.3 0-4.58-3.714-8.29-8.294-8.29a8.29 8.29 0 0 0-8.294 8.29z" fill="#482315" fill-rule="nonzero"/><path d="M177.282 146.77c2.395-.2 4.234-2.62 4.016-5.27-.214-2.66-2.423-4.74-4.819-4.54-2.395.2-4.231 2.61-4.02 5.27.218 2.66 2.429 4.74 4.823 4.54z" fill="#7e3a22" fill-rule="nonzero"/><path d="M177.075 145.81c1.667-.14 3.397-1.97 3.213-4.22-.187-2.26-2.189-3.79-3.856-3.65-1.668.14-3.393 1.98-3.21 4.23.184 2.26 2.19 3.78 3.853 3.64z" fill="#211a10" fill-rule="nonzero"/><path d="M137.638 131.77c-.064-.1-1.593-2.42-4.719-4.82-1.958-1.5-3.878-2.65-5.869-3.5a30.478 30.478 0 0 0-7.552-2.08c-2.284-.25-4.814-.19-7.768.21-2.254.43-4.453 1.1-6.319 1.92-1.331.46-2.382 1.11-3.227 1.62-.323.2-.616.38-.913.54l-4.026 2.53 4.639-1.09c.216-.05.45-.11.701-.18.96-.25 2.154-.57 3.555-.78.328-.04.661-.11 1.001-.18.584-.12 1.187-.24 1.82-.27.702-.04 1.431-.09 2.18-.15l.974-.07c2.569-.03 4.739.16 6.667.61a25.23 25.23 0 0 1 6.258 1.96c1.875.9 3.673 1.79 5.076 2.82 2.833 1.89 4.41 3.47 4.426 3.48.389.39.909.6 1.432.6.381 0 .764-.11 1.098-.33.933-.61 1.195-1.87.601-2.78l-.035-.06zm57.697-6.13c-.266-.14-.56-.32-.884-.52-.844-.51-1.895-1.16-3.186-1.6-1.906-.84-4.104-1.51-6.386-1.94-2.927-.4-5.459-.46-7.752-.21a30.61 30.61 0 0 0-7.544 2.08c-1.962.84-3.936 2.02-5.866 3.5-3.07 2.35-4.596 4.64-4.711 4.81l-.028.04c-.518.8-.407 1.87.263 2.54.381.39.888.6 1.427.6h.002c.539 0 1.045-.21 1.425-.6l.017-.02c.149-.14 1.68-1.64 4.428-3.48 1.381-1.01 3.179-1.9 5.049-2.8a25.69 25.69 0 0 1 6.294-1.97c1.9-.44 4.074-.63 6.609-.6l1.022.07c.743.06 1.465.11 2.172.16.623.02 1.226.14 1.81.26.34.07.673.14 1 .18 1.401.21 2.596.53 3.556.78.25.07.484.13.707.18l4.637 1.09-4.061-2.55z" fill="#030405" fill-rule="nonzero"/><path d="M117.777 140.94c-.069.81-.905 1.41-1.863 1.33-.959-.08-1.683-.81-1.618-1.62.069-.82.9-1.41 1.859-1.34.963.08 1.687.81 1.622 1.63zm5.377 4.71c-.035.4-.452.7-.929.66-.482-.04-.842-.4-.811-.81.034-.4.452-.7.929-.66.482.03.846.4.811.81zm55.272-5.4c.069.82.905 1.41 1.862 1.33.96-.08 1.683-.81 1.618-1.62-.069-.81-.9-1.41-1.858-1.33-.964.08-1.687.8-1.622 1.62zm-5.378 4.71c.035.41.452.71.93.67.481-.04.841-.41.811-.81-.035-.41-.453-.71-.93-.67-.481.04-.845.4-.811.81z" fill="#fff" fill-rule="nonzero"/><path d="M148.279 199.47h.001-.001zm-3.568-2.69c-.101-.02-.202-.04-.303-.07.1.03.187.04.303.07zm-.784-.18c-.094-.02-.178-.05-.27-.07h-.01s.104.03.28.07zm4.352-.01h.001-.001z" fill="#bc917b" fill-rule="nonzero"/><path d="M148.551 196.61h.001-.001zm-3.664-2.76c-.104-.03-.208-.05-.311-.07.102.02.191.04.311.07zm-.806-.18c-.096-.03-.183-.06-.277-.08h-.011l.288.08zm4.47-.02h.001-.001zm.132 5.33h.001-.001zm-3.664-2.76zm-.806-.18c-.096-.02-.183-.05-.277-.08l-.01.01s.107.03.287.07zm4.47-.02h.001-.001z" fill="#ba907b" fill-rule="nonzero"/><path d="M144.642 195.65zm-.864-.19c-.103-.03-.196-.06-.297-.08h-.011l.308.08zm.616-.65c-.112-.02-.223-.05-.334-.07.11.02.206.04.334.07zm-.864-.19c-.103-.03-.196-.06-.297-.09l-.011.01.308.08zm1.634.07l-.322-.06c.106.02.199.04.322.06zm-.835-.18c-.099-.03-.189-.06-.287-.08h-.011l.298.08z" fill="#bc917b" fill-rule="nonzero"/><path d="M142.043 203.25a3.433 3.433 0 0 1-.309-.07c.102.02.191.04.309.07zm-.8-.18c-.096-.03-.182-.05-.275-.08l-.011.01s.107.03.286.07zm4.21 2.14h.001-.001zm-3.64-2.74a3.433 3.433 0 0 1-.309-.07c.102.02.191.04.309.07zm-.8-.18c-.095-.03-.182-.05-.275-.08l-.01.01s.106.02.285.07zm4.44-.02h.001-.001zm.592 2.74h.001-.001zm-3.518-2.65l-.298-.06c.097.02.184.04.298.06zm-.774-.17c-.092-.03-.175-.05-.265-.08l-.01.01s.102.03.275.07zm4.292-.02h.001-.001z" fill="#be927b" fill-rule="nonzero"/><path d="M135.788 204.76c-.24-3.2 8.913.67 11.918.76 2.398.08 9.601-.47 10.266-.73 5.035-1.88-.275 5.35-10.415 5.73-4.646.19-11.631-3.82-11.769-5.76z" fill="#f0d2ad" fill-rule="nonzero"/><path d="M165.955 197.07c-5.803-1.08-18.031.07-18.031.07-10.082 1.68-17.974-.1-18.031-.03-.242.02 8.052 11.02 17.893 10.51 9.842.51 18.41-10.51 18.169-10.55z" fill="#c2646e" fill-rule="nonzero"/><path d="M153.755 194.75c-2.615-.29-4.477 1.6-5.819 1.46-1.365.13-3.139-1.08-5.77-1.11-3.7-.04-5.506-.36-12.273 2.01.241.46 4.576 2.97 12.697 3.11.115 0 2.295 1.23 5.391 1.21 1.939-.01 4.6-1.31 4.703-1.31 8.133-.12 13.099-2.54 13.328-2.99-8.946-2.77-8.236-2.42-12.257-2.38z" fill="#d87475" fill-rule="nonzero"/><path d="M202.067 257.49H95.286c4.177-7.72 9.259-12.82 13.971-16.15a42.337 42.337 0 0 1 6.728-3.87 34.35 34.35 0 0 1 4.053-1.54c1.316-.4 2.304-.6 2.88-.72 4.979 6.27 13.949 14.97 25.636 14.89 7.695-.06 16.582-3.93 26.232-14.79 1.008.18 2.716.62 4.855 1.46.618.25 1.276.51 1.955.82a41.59 41.59 0 0 1 5.925 3.36c4.856 3.33 10.185 8.51 14.546 16.54zm-107.38 42.69h108.651c-.254-3.92-.517-10.31-.554-18.73H95.255c-.047 8.42-.315 14.81-.568 18.73z" fill="#9270b1" fill-rule="nonzero"/><path d="M207.931 272.71h-5.102c-.041 2.04-.041 3.99-.041 5.85v2.9H95.266v-2.9c0-1.86-.021-3.81-.041-5.85h-5.802a72.109 72.109 0 0 1 2.222-7.18c1.09-2.96 2.304-5.64 3.641-8.04h106.781a59.318 59.318 0 0 1 3.642 8.04 72.109 72.109 0 0 1 2.222 7.18z" fill="#faa830" fill-rule="nonzero"/><path d="M93.241 60.92c14.865-16.02 36.724-23.79 36.724-23.79l-6.058 5.78c3.625-2.82 10.086-6.76 20.876-10.22 15.359-4.91 25.304.57 25.304.57s-8.043-.28-11.965 2.93c3.873-1.71 10.546-2.31 21.724 2.37 21.853 9.16 21.456 25.56 36.66 30.59 15.562 5.17 20.075-1.46 20.075-1.46s-6.75 11.61-18.745 11.64c-1.936 0-2.129-.04-2.143-.05.016.04 4.49 12.45 5.356 21.71.882 9.47-1.867 15.95-2.712 33.67-.731 15.14-4.678 7.37-9.379 18.54-1.584 3.74-1.649 7.95-1.649 7.95-1.183.3-3.651-3.98-4.11-11.91-5.784 13.44-12.75 22.76-12.75 22.76 17.633-63.62-4.178-67.76-4.178-67.76-9.401-.8-21.79 3.01-27.149 25.92 0 0-2.676-19.28 2.628-34.45-8.79 4.98-27.61 18.65-27.899 44.79 0 0-16.78-25.52 0-50.81 0 0-17.153 4.27-14.189 46.74 0 0-7.851-6-9.079-33.4 0 0-5.152 9.64-5.771 25.89-2.376-1.63-4.61-3.46-6.569-5.51-.382 9.97 1.239 24.14 6.824 44.29 0 0-8.503-11.36-14.518-27.1.958 19.76-2.56 19.61-2.56 19.61-1.307 0 .096-7.3-4.282-12.34-4.364-5.04-11.031-22-11.031-38.93 0-16.94 5.707-32 20.565-48.02z" fill="#f15e25" fill-rule="nonzero"/></svg>