<svg viewBox="0 0 300 300" xmlns="http://www.w3.org/2000/svg" fill-rule="evenodd" clip-rule="evenodd" stroke-linejoin="round" stroke-miterlimit="1.414"><g fill-rule="nonzero"><path fill="#94acc1" d="M.27.19h299.36v299.7H.27z"/><path d="M219.4 203.13c-.66-3.02-.97-4.74-1.04-5.95h-.63c2.19-3.02 3.85-6.22 4.94-9.57l.01.01c.06-.18.1-.36.15-.53.41-1.34.73-2.71.95-4.09 3.65-20.34-6.16-46.86-6.16-46.86.98 6.43.04 14.33-1.54 21.73-1.25 5.87-2.9 11.42-4.31 15.69-1.32 3.99-2.43 6.85-2.81 7.8-5.06 11.01-14.11 20.02-25.49 25.58.76-2.15 1.21-4.59 1.21-7.2 0-1.15-.11-2.25-.26-3.33 1.12-.13 2.21-.29 3.22-.56 1.61-.3 3.07-.85 4.34-1.7 2.6-1.77 4.34-4.84 4.62-9.75 0 0-6.72 11.11-17.19 1.28 0 0-12.03-15.18-22.67-9.11-10.61-6.07-22.65 9.11-22.65 9.11-10.45 9.83-17.19-1.28-17.19-1.28.2 3.52 1.02 5.94 2.48 7.79l.08.07s.27.26.65.62c.37.35.97.81 1.78 1.27l.04.02c.81.43 1.84.87 3.13 1.19 1.03.31 2.42.38 4.15.3-.25 1.3-.39 2.66-.39 4.08 0 2.61.45 5.05 1.21 7.2-11.38-5.56-20.42-14.57-25.49-25.58-.37-.95-1.48-3.81-2.8-7.8-1.42-4.27-3.06-9.82-4.32-15.69-1.58-7.4-2.52-15.3-1.53-21.73 0 0-9.82 26.52-6.17 46.86.22 1.38.55 2.75.95 4.09.06.17.1.35.15.53l.02-.01c1.09 3.35 2.74 6.55 4.93 9.57h-.63c-.06 1.21-.38 2.93-1.04 5.95-1.77 8.3-7.04 10.47-7.04 10.47s8.15-3.16 10.11-5.31c.95-1.04 3.47-3.9 4.25-4.8l.08.07c-.46.96-1.52 4.04-.02 9.98 1.96 7.77 10.04 13 10.04 13s-4.84-6.17-3.5-12.94c0 0-.28 2.72 7.59 10.25 7.51 7.21 21.22 17.81 22.44 17.9-.1-.23-.24-10.51-.34-13.56 5.73 1.58 11.72 11.87 17.94 11.87.36 0 .73-.02 1.1-.03h.01c.36.01.73.03 1.1.03 6.21 0 12.2-10.29 17.94-11.87-.1 3.05-.25 15.21-.35 15.44 1.22-.1 14.93-12.57 22.44-19.78 7.88-7.53 7.59-10.25 7.59-10.25 1.35 6.77-3.49 12.94-3.49 12.94s8.07-5.23 10.03-13c1.51-5.94.44-9.02-.01-9.98l.08-.07c.77.9 3.29 3.76 4.24 4.8 1.97 2.15 10.11 5.31 10.11 5.31s-5.27-2.17-7.04-10.47z" fill="#e26a26"/><path d="M137.67 75.21l-.27.27.05.09c.09-.13.13-.27.22-.36z" fill="#432e1b"/><path d="M156.33 187.62v112.27H95.6l-1.48-.59c0-14.34 2.11-25.51 5.31-34.22 7.73-21.03 21.88-27.71 28.39-29.73 2.14-.66 3.46-.82 3.46-.82.23 0 .44-.02.67-.05 1.91-.31 3.46-1.97 4.71-4.62.92-1.97 1.7-4.48 2.33-7.39.25-1.13.44-2.27.64-3.51.3-2.07.59-4.25.84-6.52.1-1.39.25-2.72.4-4.15.54-6.87.69-14.39.69-21.51 0 0 8.16.84 14.77.84z" fill="#e0bd9a"/><path d="M218.79 299.3s-.54.2-1.43.59h-61.03V187.62h.15c6.57 0 14.83-.84 14.83-.84 0 7.07.14 14.48.69 21.36.15 1.33.29 2.71.39 4.05.25 2.37.55 4.6.89 6.68v.04c.1.94.3 1.78.45 2.67.6 2.92 1.33 5.49 2.2 7.55 1.09 2.56 2.42 4.35 4.03 5.06.51.23 1.06.34 1.63.34 0 0 2.33.29 5.83 1.66 7.15 2.8 19.16 10.14 26.06 28.89 3.21 8.71 5.31 19.88 5.31 34.22z" fill="#efd0ad"/><path d="M173.28 218.66v.04c-1.53 2.36-6.67 9.14-16.85 9.14h-.1c-9.63-.05-15.26-7.02-16.7-9.09.3-2.06.6-4.22.84-6.48.1-1.33.25-2.7.4-4.12 4.69 1.17 9.83 1.91 15.27 2.01h.19c5.64-.1 10.83-.89 15.67-2.16.15 1.32.29 2.7.39 4.03.25 2.35.55 4.56.89 6.63z" fill="#be987f"/><path d="M155.64 59.68c-64.33 0-64.68 53.78-61.81 88.99-4.4-8.35-17.5-5.8-16.41 7.37 1.04 12.67 19.75 19.13 19.22 17.73 9.75 26.04 35.53 45.67 59 45.67h.5V59.68h-.5z" fill="#d2a686"/><path d="M81.52 150.49c3.17-5.11 8.11-2.9 9.29-1.77 1.29 1.23 2.32 2.8 1.53 5.79-.44 1.72-2.22 1.87-1.82 4.42.49 2.9 1.82 3.05 2.61 3.74.75.63 1.68 1.13 2.13 2.35.49 1.23.54 2.51.3 3.64-.5 2.06-3.51.39-5.54-.49-1.33-.64-5.58-4.23-6.67-5.41-2.67-3.04-3.95-8.93-1.83-12.27z" fill="#ac8774"/><path d="M155.99 59.68c64.33 0 64.68 53.78 61.86 88.99 4.4-8.35 17.45-5.8 16.36 7.37-.99 12.67-19.73 19.13-19.22 17.73-9.49 26.04-35.53 45.67-59 45.67h-.35l-.15-159.76h.5z" fill="#ddb598"/><path d="M230.11 150.49c-3.16-5.11-8.06-2.9-9.29-1.77-1.29 1.23-2.27 2.8-1.53 5.79.44 1.72 2.22 1.87 1.83 4.42-.5 2.9-1.83 3.05-2.57 3.74-.75.63-1.73 1.13-2.18 2.35-.44 1.23-.54 2.51-.29 3.64.49 2.06 3.5.39 5.53-.49 1.38-.64 5.58-4.23 6.67-5.41 2.72-3.04 3.95-8.93 1.83-12.27z" fill="#ac8774"/><path d="M155.14 74.85c-21.15 0-36.67 6.14-46.01 18.22-13.09 16.95-12.6 42.78-7.8 61.35 1.48 5.69 2.27 20.97 3.26 26.57 4.59 25.09 32.31 38.45 50.55 38.45h.49V74.85h-.3" fill="#e0bd9a"/><path d="M201.09 93.12c-9.29-12.03-24.61-18.17-45.46-18.27v144.59c20.85-.24 45.81-14.88 50.06-38.45 1.03-5.6 1.77-20.88 3.26-26.57 4.84-18.52 5.33-44.3-7.86-61.3z" fill="#efd0ad"/><path d="M152.26 193.81c-.11-.02-.21-.04-.31-.06.1.02.19.04.31.06zm-.79-.18c-.09-.02-.18-.05-.27-.07h-.01s.11.03.28.07z" fill="#bc917b"/><path d="M152.43 190.88c-.1-.03-.21-.05-.31-.07.1.02.19.04.31.07zm-.8-.18c-.1-.03-.19-.06-.28-.08h-.01l.29.08z" fill="#ba907b"/><path d="M144.57 172.51c-.25-5.13 9.42-1.87 12.61-1.71 2.53.13 10.2-1.62 10.85-1.17 4.52 3.04-4.78 9.17-11.01 9.17-1.66 0-12.3-3.19-12.45-6.29z" fill="#dcb497"/><path d="M152.56 193.25c-.1-.02-.2-.04-.31-.06.1.02.19.04.31.06zm-.8-.18c-.1-.02-.19-.05-.28-.08l-.01.01s.11.03.29.07z" fill="#ba907b"/><path d="M152.19 192.68zm-.87-.19c-.1-.03-.19-.06-.29-.08h-.02l.31.08zm.62-.65c-.11-.02-.22-.04-.34-.07.11.02.21.04.34.07zm-.87-.19c-.1-.03-.19-.06-.29-.08h-.01l.3.08zm5.43 2.94h.01-.01zm-3.79-2.86c-.11-.03-.22-.05-.32-.07.1.02.19.04.32.07zm-.84-.19c-.1-.03-.19-.05-.28-.08h-.01l.29.08zm4.63-.02h.01-.01z" fill="#bc917b"/><path d="M149.59 200.28c-.11-.02-.21-.04-.31-.07.1.03.19.04.31.07zm-.8-.18c-.1-.02-.18-.05-.28-.08l-.01.01s.11.03.29.07zm.57-.6c-.11-.02-.21-.04-.31-.07.1.03.19.04.31.07zm-.8-.18c-.1-.02-.18-.05-.28-.08l-.01.01s.11.03.29.07zm1.51.07l-.3-.06c.1.02.19.04.3.06zm-.77-.17c-.09-.02-.18-.05-.27-.08l-.01.01s.11.03.28.07z" fill="#be927b"/><path d="M143.33 201.79c-.24-3.2 8.92.67 11.92.76 2.4.08 9.6-.47 10.27-.73 5.03-1.88-.28 5.35-10.42 5.73-4.64.19-11.63-3.82-11.77-5.76z" fill="#f0d2ad"/><path d="M173.5 194.1c-5.8-1.08-18.03.08-18.03.08-10.08 1.67-17.97-.11-18.03-.04-.24.02 8.05 11.02 17.89 10.51 9.84.51 18.41-10.51 18.17-10.55z" fill="#c2646e"/><path d="M161.3 191.78c-2.62-.29-4.48 1.6-5.82 1.46-1.36.13-3.14-1.08-5.77-1.11-3.7-.04-5.5-.36-12.27 2.01.24.46 4.57 2.97 12.69 3.11.12 0 2.3 1.23 5.4 1.21 1.93-.01 4.6-1.3 4.7-1.3 8.13-.13 13.1-2.55 13.33-3-8.95-2.77-8.24-2.42-12.26-2.38z" fill="#d87475"/><path d="M109.48 130.89s4.91 20.2 13.33 21.85c8.43 1.65 17.55-1.63 17.55-1.63s.87-23.74-3.44-26.84c-4.32-3.12-14.25-7.62-27.44 6.62z" fill="#fff"/><path d="M140.37 151.05s-.19.05-.63.23c-.1-7.28-.77-17.28-3.47-19.19-4.01-2.95-13.05-7.09-25.14 4.24-1.1-3.13-1.65-5.5-1.65-5.5 13.22-14.27 23.16-9.77 27.44-6.66 4.32 3.12 3.45 26.88 3.45 26.88z" fill="#d6b496"/><path d="M135.38 140.76c0 4.6-3.71 8.32-8.29 8.32-4.58 0-8.3-3.72-8.3-8.32 0-4.59 3.72-8.32 8.3-8.32s8.29 3.73 8.29 8.32z" fill="#482315"/><path d="M126.7 146.3c-2.39-.2-4.23-2.62-4.01-5.29.21-2.66 2.42-4.75 4.82-4.55 2.39.2 4.23 2.62 4.01 5.29-.21 2.66-2.42 4.75-4.82 4.55z" fill="#7e3a22"/><path d="M126.91 145.34c-1.67-.14-3.4-1.98-3.21-4.24.18-2.26 2.18-3.79 3.85-3.66 1.67.15 3.39 1.99 3.21 4.25-.18 2.26-2.19 3.79-3.85 3.65z" fill="#211a10"/><path d="M125.56 135.65c-.07.82-.91 1.41-1.86 1.34-.96-.09-1.69-.82-1.62-1.63.07-.82.9-1.42 1.86-1.34.96.08 1.68.81 1.62 1.63zm5.38 8.84c-.04.41-.46.71-.93.67-.49-.04-.85-.41-.82-.82.04-.4.46-.7.93-.66.49.04.85.4.82.81zm71.35-14.29s-4.91 20.2-13.34 21.85c-8.42 1.65-17.54-1.63-17.54-1.63s-.87-23.74 3.44-26.84c4.31-3.11 14.25-7.61 27.44 6.62z" fill="#fff"/><path d="M171.4 150.36s.19.06.62.24c.11-7.28.78-17.28 3.48-19.2 4-2.94 13.05-7.08 25.13 4.24 1.1-3.13 1.65-5.5 1.65-5.5-13.21-14.26-23.16-9.77-27.44-6.65-4.32 3.11-3.44 26.87-3.44 26.87z" fill="#d6b496"/><path d="M176.38 140.07c0 4.6 3.72 8.32 8.3 8.32s8.29-3.72 8.29-8.32c0-4.59-3.71-8.32-8.29-8.32-4.58 0-8.3 3.73-8.3 8.32z" fill="#482315"/><path d="M185.06 145.61c2.4-.19 4.24-2.62 4.02-5.28-.21-2.67-2.42-4.75-4.82-4.55-2.39.19-4.23 2.62-4.02 5.28.22 2.67 2.43 4.76 4.82 4.55z" fill="#7e3a22"/><path d="M184.86 144.65c1.66-.14 3.39-1.97 3.21-4.23-.19-2.27-2.19-3.8-3.86-3.66-1.66.14-3.39 1.98-3.21 4.24.19 2.26 2.19 3.79 3.86 3.65z" fill="#211a10"/><path d="M186.21 139.08c.07.81.9 1.41 1.86 1.33.96-.08 1.68-.81 1.62-1.62-.07-.82-.9-1.42-1.86-1.34-.96.08-1.69.81-1.62 1.63zm-5.38 4.72c.03.41.45.71.93.67.48-.04.84-.41.81-.81-.03-.41-.45-.71-.93-.67-.48.04-.85.4-.81.81z" fill="#fff"/><path d="M145.42 130.57c-.06-.1-1.59-2.43-4.72-4.84-1.96-1.5-3.88-2.65-5.87-3.5-2.42-1.02-5.03-1.75-7.55-2.09-2.28-.26-4.81-.19-7.77.21-2.25.43-4.45 1.1-6.32 1.93-1.33.46-2.38 1.1-3.22 1.62-.33.2-.62.38-.92.54l-4.02 2.54 4.64-1.09c.21-.06.45-.12.7-.19.96-.25 2.15-.57 3.55-.77.33-.05.66-.12 1-.19.59-.11 1.19-.23 1.82-.26.7-.05 1.43-.1 2.18-.16l.98-.07c2.57-.03 4.74.16 6.66.61 2.11.36 4.28 1.05 6.26 1.97 1.88.9 3.67 1.79 5.08 2.83 2.83 1.89 4.41 3.47 4.42 3.49.39.39.91.6 1.44.6.38 0 .76-.11 1.09-.33.94-.62 1.2-1.88.6-2.79l-.03-.06zm57.7-6.15c-.27-.14-.56-.32-.89-.52-.84-.52-1.89-1.16-3.18-1.61-1.91-.84-4.11-1.51-6.39-1.95-2.93-.39-5.46-.46-7.75-.2-2.51.34-5.12 1.07-7.55 2.09-1.96.84-3.93 2.02-5.86 3.5-3.07 2.36-4.6 4.66-4.71 4.83l-.03.04c-.52.8-.41 1.87.26 2.55.38.39.89.6 1.43.6.54 0 1.05-.22 1.43-.6l.01-.02c.15-.15 1.68-1.65 4.43-3.49 1.38-1.02 3.18-1.91 5.05-2.81 1.99-.92 4.16-1.61 6.29-1.98 1.9-.44 4.08-.63 6.61-.6l1.03.07c.74.06 1.46.11 2.17.16.62.03 1.22.15 1.81.26.34.07.67.14 1 .19 1.4.2 2.59.52 3.55.77.25.07.49.13.71.19l4.64 1.09-4.06-2.56z" fill="#030405"/><path d="M220.65 288.72c-.33-4.7-.88-9.04-1.62-13.03-1.3-7.01-3.16-12.95-5.37-18.01-3.11-7.14-6.89-12.47-10.75-16.48h.03c-.12-.12-.24-.23-.37-.36l-.13-.14h-.01c-7.39-7.23-14.83-9.72-18.02-10.49.05.21-2-.69-2.43-1.49-1.24-2.13-2.73-4.2-4.53-6.41-.16-.16-.32-.31-.43-.47l-.67 3.97-12.5 14.89h-.92l-6.85 8.16-6.53-7.66h.08l-12.51-14.67-.97-4.69c-.09.08-.16.19-.27.27-2.62 3.13-7.14 8.31-7.09 8.1-3.19.77-11.64 3.26-19.03 10.49-4.02 4.06-7.99 9.55-11.23 16.98-2.2 5.06-4.07 11-5.37 18.01-.74 3.99-1.29 8.33-1.62 13.03-.24 3.31-.37 6.79-.37 10.48 0 0 .54.25 1.54.69h126.78c.99-.44 1.53-.69 1.53-.69 0-3.69-.13-7.17-.37-10.48z" fill="#184c44"/><path d="M184.57 234.04c-.72-11.29-6.55-13.45-6.55-13.45v.02c-.35-.27-.74-.5-1.14-.69a3.2 3.2 0 0 0-4.46 1.96c-.67 2.26-1.55 5.11-2.33 7.16a14.38 14.38 0 0 1-2.36 4.06c-1.58 1.92-4.16 5.08-6.49 7.99-2.65 3.29-7.66 3.31-10.34.04-2.51-3.08-5.31-6.43-6.9-8.33-.86-1.03-1.57-2.17-2.12-3.4-.71-1.58-1.18-4.31-1.56-6.66a3.195 3.195 0 0 0-4.19-2.5c-.4.14-.78.27-1.1.36-.57.1-6.71 1.38-7.51 12.34-.59 4.39-.85 10.83-.96 15.99-.06 2.89 3.46 4.37 5.47 2.29 1.2-1.24 2.36-2.35 3.17-2.94.52-.37 1.12-.75 1.81-1.12 1.59-.86 3.58-.17 4.35 1.46l12.35 25.9c1.14 2.39 4.53 2.43 5.73.07l12.71-25.13c.86-1.69 3.04-2.31 4.58-1.2l.03.02c.81.59 1.97 1.7 3.17 2.94 2.01 2.08 5.53.59 5.47-2.3-.1-4.75-.33-10.56-.83-14.88z" fill="#fff"/><path d="M249.93 64.7s-4.78 6.5-21.24 1.43c-16.09-4.94-15.67-21.06-38.79-30.05-11.84-4.6-18.9-4-23-2.33 4.15-3.16 12.67-2.88 12.67-2.88s-10.52-5.38-26.77-.56c-11.42 3.41-18.26 7.27-22.1 10.05l6.42-5.69S114 42.31 98.26 58.05c-15.72 15.73-21.75 30.53-21.75 47.17 0 16.63 7.05 33.3 11.68 38.25 4.61 4.95 3.13 12.13 4.52 12.13 0 0 4.63.2 2.16-26.78-1.31-14.28 1.13-16.02 6.28-17.47 1.95 13.25 8.21 26.28 8.21 26.28 0-26.12 14.11-31.35 16.45-32.04 7.41.85 14.94 4.08 21.08 8.37 12.33 8.63 16.48-1.09 32.98-5.87 1.12-.32 2.2-.58 3.26-.81l-.2.83s16.78 3.65 16.78 32.12c0 0 6.8-14.15 8.43-27.94 6.34 5.48 8.77 13.58 7.6 19.04-3.47 16.26 1.36 25.63 3.21 25.19 0 0 .08-4.13 1.75-7.81 4.97-10.97 9.15-3.34 9.92-18.22.9-17.41 3.81-23.77 2.87-33.07-.91-9.11-5.65-21.29-5.67-21.34.01.01.22.05 2.27.05 12.69-.02 19.84-11.43 19.84-11.43z" fill="#f47c2b"/></g></svg>