<svg viewBox="0 0 298 300" xmlns="http://www.w3.org/2000/svg" fill-rule="evenodd" clip-rule="evenodd" stroke-linejoin="round" stroke-miterlimit="1.414"><g fill-rule="nonzero"><path fill="#554467" d="M.21.16h296.865v299.705H.21z"/><path d="M158.583 74.107c6.223 3.374 12.399 8.732 14.954 8.732 2.554 0 1.95.943 13.653 3.126 11.657 2.183 16.998 1.588 31.952 16.968 14.907 15.381 14.815 55.568 14.815 55.568s-.093-7.987-5.388-15.132c-2.507-3.423-3.577-5.061-4.04-5.855 1.486 2.977 7.337 15.728 7.059 29.472-.557 27.635 5.898 31.455 5.898 31.455s-3.948-.645-9.474-6.747c.604 3.423.882 6.648.557 8.881-4.644 29.322 5.016 39.295 5.016 39.295s-9.567-5.954-15.14-17.316c-2.183-4.465-3.436-8.881-4.133-12.751-.093 2.282-.279 4.813-.558 7.69-1.346 14.339 8.917 25.105 8.917 25.105s-12.4-4.763-17.554-14.735c-.372 4.019-.511 7.988-.372 11.659.279 9.427 4.087 11.908 4.087 11.908-5.434-3.176-8.638-9.576-10.728-18.556-.883-3.82-1.579-8.087-2.136-12.751-3.205 9.327-5.573 27.139 11.053 47.58 0 0-17.137-5.358-24.475-30.066 0 0-26.889 14.884-14.071 34.383 0 0-28.329-8.335-33.345-26.395l1.579.794s1.858 20.987-21.084 27.536c0 0 13.839-24.857 4.783-34.482 0 0-13.468 37.756-35.109 37.111 0 0 19.459-10.567 23.917-37.459 0-.347.093-16.422-6.409-22.177.79 1.934 1.115 4.465 1.161 7.293 1.393 14.239-4.458 27.635-4.458 27.635v-.049c-1.068 2.679-2.508 4.812-4.273 6.4.558-.695 2.833-3.969 2.276-12.453-.232-3.87-.79-8.038-1.44-12.156-3.483 10.767-13.7 16.82-13.7 16.82s7.802-12.057 5.294-26.793a240.054 240.054 0 0 1-1.254-7.987c-.185 4.118-.836 8.781-2.322 13.644-3.715 12.205-11.378 19.151-11.378 19.151s7.338-11.114.604-41.18c-.511-2.283-.557-5.607-.371-9.179-.883 1.488-1.812 2.679-2.601 3.672.418 4.515 2.322 8.335 2.09 7.987-.233-.347-1.997-2.431-3.994-6.003-1.811 1.737-3.019 2.134-3.019 2.134s1.022-.894 1.858-4.317c-3.251-6.748-6.456-17.316-3.669-30.662.975-4.664 2.462-9.575 4.133-14.14.047-.298.047-.546.093-.843-6.595 2.48-15.093 2.282-15.093 2.282s8.452-2.183 13.653-14.438c5.155-12.255 3.298-17.018 5.248-24.46 1.904-7.145 5.945-12.205 9.196-15.232l-.372.198c-14.165 7.691-14.815 14.389-14.861 15.183.046-.893.278-14.934 12.957-23.468 3.019-2.034 6.966-3.969 11.099-5.705-18.112.595-30.326-9.03-30.326-9.03s20.295 8.335 40.869 0c12.028-4.862 26.053-13.545 33.53-13.545" fill="#a04464"/><path d="M145.618 187.595v112.27H84.89c-.989-.394-1.481-.594-1.481-.594 0-14.331 2.101-25.505 5.305-34.219 7.729-21.03 21.881-27.709 28.395-29.723 2.138-.661 3.455-.82 3.455-.82.231 0 .446-.021.666-.056 1.912-.308 3.465-1.969 4.711-4.619.927-1.968 1.701-4.479 2.332-7.386.251-1.132.446-2.275.646-3.51.297-2.077.589-4.25.841-6.525.097-1.384.245-2.717.394-4.152.538-6.868.692-14.388.692-21.507 0 0 8.155.841 14.772.841z" fill="#e0bd9a"/><path d="M208.078 299.271s-.543.2-1.435.594h-61.025v-112.27h.149c6.571 0 14.828-.841 14.828-.841 0 7.068.143 14.485.687 21.358.148 1.338.297 2.717.395 4.055.25 2.373.548 4.597.891 6.673v.046c.098.943.292 1.784.446 2.671.6 2.921 1.328 5.489 2.204 7.549 1.092 2.563 2.419 4.352 4.029 5.06.512.23 1.056.343 1.625.343 0 0 2.337.282 5.838 1.656 7.15 2.798 19.159 10.143 26.058 28.887 3.204 8.714 5.31 19.888 5.31 34.219z" fill="#efd0ad"/><path d="M162.568 218.63v.05c-1.532 2.357-6.671 9.134-16.85 9.134h-.099c-9.635-.049-15.268-7.023-16.701-9.086.296-2.062.592-4.223.84-6.482.099-1.326.247-2.702.395-4.126a67.813 67.813 0 0 0 15.269 2.014h.197a65.497 65.497 0 0 0 15.664-2.161c.149 1.326.297 2.701.396 4.027.247 2.357.543 4.568.889 6.63z" fill="#be987f"/><path d="M144.928 59.651c-64.336 0-64.682 53.779-61.816 88.993-4.398-8.349-17.493-5.795-16.405 7.367 1.037 12.671 19.745 19.129 19.221 17.73 9.743 26.043 35.528 45.675 59 45.675h.494V59.651h-.494z" fill="#d2a686"/><path d="M70.808 150.461c3.162-5.108 8.104-2.897 9.289-1.768 1.285 1.228 2.323 2.8 1.532 5.796-.445 1.719-2.223 1.866-1.828 4.42.494 2.897 1.828 3.045 2.619 3.732.741.639 1.68 1.13 2.125 2.358a6.197 6.197 0 0 1 .296 3.634c-.494 2.063-3.508.393-5.534-.491-1.334-.638-5.584-4.224-6.671-5.402-2.668-3.045-3.953-8.939-1.828-12.279z" fill="#ac8774"/><path d="M145.273 59.651c64.337 0 64.682 53.779 61.866 88.993 4.398-8.349 17.442-5.795 16.356 7.367-.988 12.671-19.734 19.134-19.222 17.73-9.49 26.043-35.528 45.675-59 45.675h-.345l-.149-159.765h.494z" fill="#ddb598"/><path d="M219.393 150.461c-3.162-5.108-8.054-2.897-9.289-1.768-1.285 1.228-2.273 2.8-1.532 5.796.445 1.719 2.223 1.866 1.828 4.42-.494 2.897-1.828 3.045-2.569 3.732-.742.639-1.73 1.13-2.175 2.358-.444 1.228-.543 2.505-.296 3.634.494 2.063 3.508.393 5.534-.491 1.384-.638 5.584-4.224 6.671-5.402 2.718-3.045 3.953-8.939 1.828-12.279z" fill="#ac8774"/><path d="M144.421 74.827c-21.148 0-36.664 6.139-46.003 18.221-13.095 16.944-12.601 42.777-7.808 61.342 1.483 5.697 2.274 20.971 3.262 26.571 4.595 25.096 32.316 38.455 50.549 38.455h.495V74.827h-.297" fill="#e0bd9a"/><path d="M190.376 93.097c-9.29-12.032-24.608-18.171-45.46-18.27v144.589c20.852-.245 45.806-14.881 50.055-38.455 1.038-5.6 1.779-20.874 3.262-26.571 4.842-18.515 5.336-44.3-7.857-61.293z" fill="#efd0ad"/><path d="M141.541 193.785c-.102-.022-.202-.041-.303-.065.099.023.186.041.303.065zm-.785-.175c-.093-.024-.178-.051-.27-.076l-.01.004s.105.029.28.072z" fill="#bc917b"/><path d="M126.954 75.188l-.267.268.044.089c.089-.134.134-.268.223-.357z" fill="#432e1b"/><path d="M141.716 190.852l-.311-.066.311.066zm-.806-.18c-.096-.025-.182-.052-.277-.078l-.01.005s.107.029.287.073z" fill="#ba907b"/><path d="M132.343 173.859c-.251-5.132 9.426-1.875 12.616-1.714 2.521.128 10.192-1.618 10.85-1.168 4.513 3.042-4.78 9.17-11.01 9.17-1.66 0-12.306-3.193-12.456-6.288z" fill="#dcb497"/><path d="M98.762 131.261s4.909 20.135 13.335 21.779c8.427 1.642 17.547-1.624 17.547-1.624s.872-23.664-3.443-26.755c-4.311-3.106-14.25-7.594-27.439 6.6z" fill="#fff"/><path d="M129.655 151.354s-.193.056-.626.236c-.108-7.258-.779-17.227-3.473-19.137-4.006-2.933-13.052-7.061-25.138 4.229-1.099-3.119-1.649-5.484-1.649-5.484 13.212-14.22 23.16-9.74 27.439-6.632 4.319 3.104 3.447 26.788 3.447 26.788z" fill="#d6b496"/><path d="M124.666 141.1a8.294 8.294 0 1 1-16.588 0 8.294 8.294 0 0 1 16.588 0z" fill="#482315"/><path d="M115.987 146.624c-2.395-.198-4.234-2.615-4.016-5.272.214-2.657 2.423-4.736 4.82-4.535 2.395.197 4.23 2.611 4.019 5.268-.218 2.657-2.429 4.74-4.823 4.539z" fill="#7e3a22"/><path d="M116.194 145.665c-1.667-.141-3.397-1.971-3.213-4.223.187-2.26 2.189-3.785 3.856-3.648 1.668.141 3.393 1.978 3.209 4.231-.183 2.256-2.189 3.778-3.852 3.64z" fill="#211a10"/><path d="M114.844 140.108c-.07.814-.906 1.409-1.863 1.33-.96-.081-1.683-.809-1.618-1.619.069-.818.9-1.413 1.858-1.334.964.077 1.687.805 1.623 1.623zm5.377 4.71c-.035.405-.453.704-.93.664-.481-.038-.841-.405-.811-.81.035-.405.453-.705.93-.664.481.038.845.401.811.81z" fill="#fff"/><path d="M141.848 193.227c-.104-.022-.207-.043-.311-.067.102.023.192.042.311.067zm-.806-.18c-.095-.025-.182-.052-.276-.078l-.011.004s.107.03.287.074z" fill="#ba907b"/><path d="M145.399 195.616h.001-.001zm-3.928-2.958c-.111-.024-.222-.045-.333-.071.109.024.205.045.333.071zm-.864-.193c-.102-.026-.195-.056-.296-.083l-.011.005s.114.031.307.078zm4.792-.018h.001-.001zm-.248 2.327h.001-.001zm-3.928-2.958c-.111-.024-.222-.045-.333-.071l.333.071zm-.864-.193c-.102-.026-.195-.055-.296-.083l-.012.004s.115.032.308.079zm4.792-.018h.001-.001zm.639 2.955h.001-.001zm-3.796-2.859c-.109-.023-.215-.044-.323-.069.106.024.199.043.323.069zm-.835-.187c-.1-.025-.19-.053-.287-.08l-.011.005s.111.03.298.075zm4.631-.017h.001-.001z" fill="#bc917b"/><path d="M191.573 130.576s-4.908 20.135-13.335 21.779c-8.426 1.642-17.546-1.624-17.546-1.624s-.872-23.664 3.443-26.756c4.311-3.105 14.25-7.593 27.438 6.601z" fill="#fff"/><path d="M160.68 150.669s.194.056.627.236c.107-7.258.778-17.227 3.473-19.137 4.006-2.933 13.052-7.062 25.137 4.229 1.099-3.119 1.65-5.484 1.65-5.484-13.213-14.22-23.16-9.74-27.439-6.632-4.319 3.104-3.448 26.788-3.448 26.788z" fill="#d6b496"/><path d="M165.67 140.415a8.293 8.293 0 1 0 16.587 0 8.293 8.293 0 0 0-8.294-8.293 8.293 8.293 0 0 0-8.293 8.293z" fill="#482315"/><path d="M174.349 145.938c2.395-.197 4.234-2.614 4.015-5.271-.214-2.657-2.422-4.736-4.819-4.535-2.395.197-4.231 2.611-4.019 5.267.218 2.657 2.428 4.74 4.823 4.539z" fill="#7e3a22"/><path d="M174.142 144.98c1.667-.142 3.397-1.971 3.213-4.223-.188-2.26-2.189-3.785-3.856-3.648-1.668.141-3.394 1.978-3.21 4.231.183 2.256 2.19 3.778 3.853 3.64z" fill="#211a10"/><path d="M175.492 139.423c.069.814.905 1.409 1.863 1.33.959-.081 1.683-.809 1.618-1.619-.069-.818-.9-1.413-1.859-1.335-.963.078-1.687.806-1.622 1.624zm-5.377 4.71c.035.405.452.704.929.663.482-.037.842-.404.811-.809-.034-.405-.452-.705-.929-.664-.482.037-.846.401-.811.81z" fill="#fff"/><path d="M134.704 130.94c-.063-.098-1.592-2.423-4.718-4.82-1.959-1.503-3.878-2.646-5.87-3.498a30.387 30.387 0 0 0-7.551-2.081c-2.284-.254-4.815-.186-7.768.211-2.255.429-4.453 1.1-6.32 1.923-1.331.458-2.382 1.102-3.226 1.619-.324.199-.616.378-.914.538l-4.025 2.531 4.639-1.09c.216-.055.45-.116.701-.183.959-.254 2.154-.571 3.554-.776.328-.048.662-.114 1.002-.182.583-.116 1.187-.237 1.819-.267.703-.047 1.431-.099 2.18-.153l.974-.07c2.569-.032 4.739.163 6.667.607a25.371 25.371 0 0 1 6.259 1.963c1.875.897 3.673 1.787 5.075 2.817 2.834 1.891 4.411 3.468 4.426 3.484a2.017 2.017 0 0 0 2.53.267c.933-.612 1.195-1.871.602-2.779l-.036-.061zm57.698-6.127c-.267-.141-.56-.321-.884-.519-.844-.518-1.895-1.161-3.186-1.604-1.906-.838-4.105-1.509-6.386-1.942-2.928-.394-5.46-.462-7.753-.206a30.432 30.432 0 0 0-7.543 2.081c-1.963.84-3.937 2.016-5.866 3.497-3.07 2.353-4.596 4.637-4.711 4.813l-.029.041a2.042 2.042 0 0 0 .263 2.539 2 2 0 0 0 1.428.595h.001c.539 0 1.045-.212 1.426-.596l.016-.017c.149-.148 1.68-1.644 4.428-3.479 1.381-1.015 3.18-1.906 5.05-2.802a25.557 25.557 0 0 1 6.293-1.971c1.901-.438 4.074-.629 6.61-.602l1.022.073c.743.053 1.465.104 2.172.152.623.029 1.226.15 1.81.266.34.068.672.134 1 .182 1.401.205 2.595.522 3.555.776.251.067.485.129.708.185l4.636 1.089-4.06-2.551z" fill="#030405"/><path d="M190.918 265.052c2.004 9.042 3.239 20.241 3.239 34.111 0 0-.379.184-1.143.702H98.596c-.759-.518-1.143-.702-1.143-.702 0-13.844 1.235-25.033 3.234-34.111H88.714c7.729-21.03 21.881-27.709 28.395-29.723-.015.205-.02.415-.02.625 0 9.626 12.645 17.473 28.529 17.878.435.016.871.021 1.307.021 16.325 0 29.6-7.899 29.785-17.688 7.15 2.798 19.159 10.143 26.058 28.887h-11.85z" fill="#8869ae"/><path d="M189.852 59.924a81.929 81.929 0 0 0-2.132-1.661l2.247-3.901s11.09-19.628-24.861-28.219c0 0 20.304 15.074 12.066 25.198-8.476-4.846-15.258-7.233-15.258-7.233l5.824 5.491c-3.486-2.68-9.695-6.411-20.065-9.695-14.764-4.665-24.321.531-24.321.531s7.706-.264 11.478 2.768c-3.723-1.607-10.145-2.165-20.86 2.268-20.996 8.695-20.618 24.266-35.23 29.038-14.956 4.903-19.295-1.386-19.295-1.386s6.488 11.02 18.015 11.046c1.864 0 2.047-.034 2.067-.049-.02.045-4.323 11.821-5.152 20.614-.844 8.985 1.791 15.136 2.604 31.952.703 14.376 4.494 7.01 9.011 17.605 1.528 3.551 1.591 7.549 1.591 7.549 1.678.417 6.073-8.628 2.919-24.349-2.058-10.198 8.094-48.866 32.585-41.332 2.36.725 4.41 1.573 6.285 2.447-23.383 23.399-8.893 56.655-8.893 56.655-.559-28.087 23.112-46.884 30.434-52.016.687-.405 1.39-.87 2.133-1.428 4.025-2.993 8.714-5.44 13.548-6.884 3.219 6.575 5.338 14.635 3.784 23.555 0 0 6.896-11.028 6.082-24.143 5.957 6.33 16.53 20.328 13.551 37.495 0 0 7.393-11.806 5.977-25.513 3.699 6.884 5.368 16.414 4.306 28.751-2.245 26.06 1.963 25.869 1.963 25.869 1.256 0-.092-6.935 4.109-11.718 4.196-4.777 10.602-20.886 10.602-36.957 0-8.571-1.577-16.634-5.195-24.6.333-12.555 3.287-29.651 17.436-25.054 0 0-14.814-20.06-39.355-2.694z" fill="#b74e6c"/><path d="M142.512 202.995h.001-.001zm-3.639-2.741c-.104-.022-.206-.042-.309-.066.101.023.19.041.309.066zm-.801-.179c-.095-.024-.181-.051-.275-.077l-.01.004s.106.029.285.073zm4.44-.017h.001-.001zm-3.869-.584c-.104-.022-.206-.042-.309-.066l.309.066zm-.801-.179c-.095-.025-.181-.052-.275-.077l-.01.004s.106.029.285.073zm1.515.072c-.1-.021-.199-.041-.299-.064.098.022.184.04.299.064zm-.774-.173c-.092-.023-.176-.05-.266-.074l-.01.004s.103.028.276.07z" fill="#be927b"/><path d="M132.618 201.763c-.241-3.199 8.912.671 11.917.763 2.398.081 9.601-.474 10.267-.728 5.035-1.883-.276 5.349-10.416 5.73-4.645.185-11.63-3.824-11.768-5.765z" fill="#f0d2ad"/><path d="M162.785 194.078c-5.804-1.086-18.032.073-18.032.073-10.082 1.675-17.973-.107-18.031-.038-.241.024 8.052 11.023 17.894 10.516 9.841.507 18.41-10.516 18.169-10.551z" fill="#c2646e"/><path d="M150.585 191.756c-2.615-.289-4.478 1.597-5.82 1.459-1.365.127-3.139-1.083-5.769-1.109-3.7-.036-5.506-.361-12.274 2.007.241.462 4.577 2.972 12.698 3.11.115 0 2.294 1.236 5.391 1.214 1.939-.012 4.599-1.306 4.703-1.306 8.132-.127 13.099-2.544 13.328-2.994-8.946-2.773-8.237-2.417-12.257-2.381z" fill="#d87475"/><path d="M165.67 282.811a4.623 4.623 0 1 1 0-9.245 4.623 4.623 0 0 1 0 9.245zm10.606-5.96a5.402 5.402 0 0 0-1.456-.044c-.029-.191-.056-.382-.095-.568.426-.17.84-.379 1.221-.659 2.876-2.121 4.147-5.185 2.876-6.927-1.275-1.699-4.572-1.368-7.446.753a5.333 5.333 0 0 0-.903.872 9.258 9.258 0 0 0-1.273-.654c.056-.286.093-.578.101-.877.048-3.583-1.602-6.456-3.769-6.505-2.12-.045-3.865 2.782-3.959 6.363-.011.417.047.822.132 1.22a9.306 9.306 0 0 0-1.176.657c-.309-.396-.654-.77-1.077-1.076-2.825-2.121-6.171-2.452-7.443-.753-1.273 1.742.046 4.806 2.874 6.927a5.632 5.632 0 0 0 1.696.835 9.091 9.091 0 0 0-.124.815 5.333 5.333 0 0 0-1.43.046c-3.488.564-6.079 2.733-5.703 4.852.33 2.075 3.44 3.3 6.975 2.733.79-.137 1.508-.46 2.156-.871.228.284.472.555.733.81-.49.465-.936.987-1.241 1.617-1.554 3.204-1.224 6.551.66 7.492 1.933.895 4.713-.941 6.269-4.145.358-.74.515-1.536.545-2.324l.251.013c.169 0 .334-.017.501-.026.025.792.178 1.593.539 2.337 1.556 3.204 4.384 5.04 6.268 4.145 1.932-.941 2.26-4.288.707-7.492-.337-.694-.837-1.264-1.391-1.759a9.25 9.25 0 0 0 .818-.969c.58.342 1.201.628 1.892.747 3.535.568 6.645-.658 7.021-2.779.331-2.072-2.214-4.241-5.749-4.806zm-63.748-16.858a2.524 2.524 0 1 1 0-5.047 2.524 2.524 0 0 1 0 5.047zm5.79-3.254a2.996 2.996 0 0 0-.795-.024c-.016-.104-.031-.208-.052-.31.232-.092.458-.206.666-.36 1.57-1.157 2.264-2.83 1.57-3.781-.696-.927-2.496-.746-4.064.411a2.929 2.929 0 0 0-.493.476 4.998 4.998 0 0 0-.695-.356c.03-.157.051-.316.055-.479.026-1.956-.875-3.525-2.057-3.551-1.158-.025-2.11 1.518-2.161 3.473-.006.228.025.449.071.666a5.08 5.08 0 0 0-.641.359 2.978 2.978 0 0 0-.588-.588c-1.542-1.157-3.369-1.338-4.063-.411-.695.951.025 2.624 1.569 3.781.284.21.6.356.925.456a5.043 5.043 0 0 0-.067.446 2.93 2.93 0 0 0-.781.024c-1.904.309-3.319 1.493-3.113 2.649.18 1.133 1.878 1.802 3.807 1.492a3.217 3.217 0 0 0 1.177-.476c.125.156.258.303.401.443a3.06 3.06 0 0 0-.678.883c-.848 1.749-.668 3.575.361 4.089 1.055.489 2.572-.514 3.421-2.263.196-.403.282-.838.298-1.268l.137.007c.092 0 .182-.009.273-.014.014.432.098.869.295 1.275.849 1.749 2.393 2.752 3.421 2.263 1.055-.514 1.234-2.34.386-4.089-.184-.379-.457-.69-.759-.961.161-.165.308-.343.446-.529.317.187.656.343 1.033.408 1.93.31 3.628-.359 3.833-1.517.18-1.131-1.209-2.315-3.138-2.624zm10.6 27.658a3.515 3.515 0 1 1 .001-7.029 3.515 3.515 0 0 1-.001 7.029zm8.062-4.531a4.122 4.122 0 0 0-1.107-.034 6.825 6.825 0 0 0-.072-.432c.324-.129.639-.287.928-.501 2.187-1.612 3.153-3.941 2.187-5.265-.969-1.291-3.476-1.04-5.661.572a4.107 4.107 0 0 0-.686.663 7.065 7.065 0 0 0-.968-.497c.043-.217.071-.44.077-.667.037-2.723-1.218-4.907-2.865-4.944-1.612-.035-2.938 2.114-3.009 4.836-.009.317.035.625.1.928-.31.147-.611.31-.894.5a4.095 4.095 0 0 0-.818-.819c-2.148-1.612-4.692-1.863-5.658-.572-.968 1.324.034 3.653 2.184 5.265.396.293.836.495 1.289.635-.039.204-.072.41-.094.62a4.055 4.055 0 0 0-1.087.035c-2.652.429-4.621 2.078-4.336 3.688.252 1.577 2.616 2.509 5.303 2.078.6-.104 1.146-.35 1.639-.663.173.217.359.422.557.617-.373.353-.711.75-.944 1.229-1.181 2.435-.93 4.979.503 5.694 1.469.681 3.582-.715 4.765-3.15a4.427 4.427 0 0 0 .414-1.767l.191.01c.128 0 .254-.013.381-.019.019.602.135 1.21.409 1.776 1.183 2.435 3.333 3.831 4.765 3.15 1.469-.715 1.719-3.259.537-5.694-.256-.528-.636-.961-1.056-1.338.224-.229.429-.477.621-.736.441.26.913.477 1.439.568 2.687.431 5.051-.501 5.337-2.113.251-1.575-1.684-3.224-4.371-3.653z" fill="#6e5389"/></g></svg>