<svg viewBox="0 0 298 300" xmlns="http://www.w3.org/2000/svg" fill-rule="evenodd" clip-rule="evenodd" stroke-linejoin="round" stroke-miterlimit="1.414"><g fill-rule="nonzero"><path fill="#6d323e" d="M.17.19h296.87v299.7H.17z"/><path d="M153.81 187.63v112.25H93.07l-1.48-.59c0-7.16.54-13.56 1.46-19.22.44-2.61.95-5.08 1.55-7.39.65-2.73 1.44-5.26 2.3-7.61.19-.47.35-.95.54-1.4.2-.51.41-1.01.61-1.5.21-.49.41-.97.64-1.44.41-.97.87-1.87 1.32-2.76.78-1.52 1.6-2.96 2.47-4.3.22-.37.45-.72.68-1.05 1.11-1.64 2.26-3.16 3.43-4.54.33-.37.66-.76.99-1.11.33-.37.66-.72.99-1.07.33-.33.68-.68 1-.99.33-.33.66-.64.99-.93.66-.61 1.34-1.19 2-1.71 3.23-2.59 6.34-4.34 8.97-5.49.33-.14.66-.29.99-.43 1.02-.41 1.95-.74 2.77-.99 2.14-.68 3.46-.82 3.46-.82.25 0 .45-.02.68-.06 1.91-.31 3.46-1.98 4.71-4.61.93-1.98 1.69-4.49 2.33-7.39.24-1.15.45-2.28.63-3.52.31-2.07.6-4.25.85-6.52.1-1.38.24-2.71.39-4.15.55-6.88.7-14.39.7-21.5 0 0 8.14.84 14.77.84z" fill="#e0bd9a"/><path d="M216.27 299.29s-.53.2-1.44.59h-61.02V187.63h.14c6.59 0 14.84-.84 14.84-.84 0 7.05.14 14.48.68 21.35.16 1.34.3 2.72.41 4.06.25 2.36.53 4.58.88 6.66v.04c.11.95.29 1.79.46 2.68.59 2.92 1.31 5.49 2.2 7.55 1.09 2.57 2.4 4.36 4.03 5.06.49.23 1.05.35 1.62.35 0 0 2.33.27 5.83 1.64 1.85.72 4.03 1.75 6.35 3.21.48.29.97.62 1.44.95.4.25.79.54 1.18.82.33.25.7.52 1.03.79.72.55 1.46 1.17 2.2 1.85.29.24.55.51.84.78.33.29.64.6.97.95.22.2.43.41.64.63.43.46.88.95 1.31 1.46.23.25.46.5.66.77.99 1.15 1.96 2.4 2.88 3.78.41.58.78 1.17 1.17 1.79.79 1.26 1.55 2.59 2.29 4.01.9 1.77 1.77 3.67 2.57 5.7.19.45.37.93.53 1.4.87 2.35 1.65 4.88 2.33 7.61.6 2.31 1.11 4.78 1.52 7.39.93 5.66 1.46 12.06 1.46 19.22z" fill="#efd0ad"/><path d="M170.76 218.66v.04c-1.53 2.36-6.67 9.14-16.85 9.14h-.1c-9.63-.05-15.27-7.02-16.7-9.09.3-2.06.59-4.22.84-6.48.1-1.33.25-2.7.4-4.12 4.69 1.17 9.83 1.91 15.27 2.01h.19c5.64-.1 10.82-.89 15.67-2.16.15 1.32.29 2.7.39 4.03.25 2.35.55 4.56.89 6.63z" fill="#be987f"/><path d="M153.12 59.68c-64.33 0-64.68 53.78-61.81 88.99-4.4-8.35-17.5-5.8-16.41 7.37 1.04 12.67 19.75 19.13 19.22 17.73 9.74 26.04 35.53 45.67 59 45.67h.5V59.68h-.5z" fill="#d2a686"/><path d="M79 150.49c3.16-5.11 8.11-2.9 9.29-1.77 1.29 1.23 2.32 2.8 1.53 5.79-.44 1.72-2.22 1.87-1.83 4.42.5 2.9 1.83 3.05 2.62 3.74.74.63 1.68 1.13 2.13 2.35.49 1.23.54 2.51.29 3.64-.49 2.06-3.5.39-5.53-.49-1.33-.64-5.58-4.23-6.67-5.41-2.67-3.04-3.95-8.93-1.83-12.27z" fill="#ac8774"/><path d="M153.47 59.68c64.33 0 64.68 53.78 61.86 88.99 4.4-8.35 17.45-5.8 16.36 7.37-.99 12.67-19.73 19.13-19.22 17.73-9.49 26.04-35.53 45.67-59 45.67h-.35l-.15-159.76h.5z" fill="#ddb598"/><path d="M227.59 150.49c-3.17-5.11-8.06-2.9-9.29-1.77-1.29 1.23-2.28 2.8-1.53 5.79.44 1.72 2.22 1.87 1.82 4.42-.49 2.9-1.82 3.05-2.57 3.74-.74.63-1.73 1.13-2.17 2.35-.44 1.23-.54 2.51-.3 3.64.5 2.06 3.51.39 5.54-.49 1.38-.64 5.58-4.23 6.67-5.41 2.72-3.04 3.95-8.93 1.83-12.27z" fill="#ac8774"/><path d="M152.62 74.85c-21.15 0-36.67 6.14-46.01 18.22-13.09 16.95-12.6 42.78-7.81 61.35 1.49 5.69 2.28 20.97 3.27 26.57 4.59 25.09 32.31 38.45 50.55 38.45h.49V74.85h-.3" fill="#e0bd9a"/><path d="M198.57 93.12c-9.29-12.03-24.61-18.17-45.46-18.27v144.59c20.85-.24 45.81-14.88 50.06-38.45 1.03-5.6 1.77-20.88 3.26-26.57 4.84-18.52 5.33-44.3-7.86-61.3z" fill="#efd0ad"/><path d="M149.73 193.81l-.3-.06c.1.02.19.04.3.06zm-.78-.18c-.09-.02-.18-.05-.27-.07h-.01s.1.03.28.07z" fill="#bc917b"/><path d="M135.15 75.21l-.27.27.04.09c.09-.13.14-.27.23-.36z" fill="#432e1b"/><path d="M149.91 190.88c-.1-.03-.21-.05-.31-.07.1.02.19.04.31.07zm-.81-.18c-.09-.03-.18-.06-.27-.08h-.01s.1.03.28.08z" fill="#ba907b"/><path d="M140.54 174.91c-.25-5.13 9.42-1.87 12.61-1.71 2.52.13 10.19-1.62 10.85-1.17 4.52 3.04-4.78 9.17-11.01 9.17-1.66 0-12.3-3.19-12.45-6.29z" fill="#dcb497"/><path d="M106.96 131.29s4.9 20.13 13.33 21.77c8.43 1.65 17.55-1.62 17.55-1.62s.87-23.66-3.45-26.75c-4.31-3.11-14.24-7.6-27.43 6.6z" fill="#fff"/><path d="M137.85 151.38s-.19.05-.63.24c-.1-7.26-.78-17.23-3.47-19.14-4.01-2.94-13.05-7.06-25.14 4.23-1.1-3.12-1.65-5.49-1.65-5.49 13.21-14.22 23.16-9.74 27.44-6.63 4.32 3.11 3.45 26.79 3.45 26.79z" fill="#d6b496"/><path d="M132.86 141.13c0 4.58-3.71 8.29-8.29 8.29-4.58 0-8.3-3.71-8.3-8.29 0-4.58 3.72-8.3 8.3-8.3s8.29 3.72 8.29 8.3z" fill="#482315"/><path d="M124.18 146.65c-2.39-.2-4.23-2.62-4.01-5.27.21-2.66 2.42-4.74 4.81-4.54 2.4.2 4.23 2.61 4.02 5.27-.21 2.66-2.43 4.74-4.82 4.54z" fill="#7e3a22"/><path d="M124.39 145.69c-1.67-.14-3.4-1.97-3.22-4.22.19-2.26 2.19-3.79 3.86-3.65 1.67.14 3.39 1.98 3.21 4.23-.18 2.26-2.19 3.78-3.85 3.64z" fill="#211a10"/><path d="M123.04 140.13c-.07.82-.91 1.41-1.87 1.33-.96-.08-1.68-.81-1.61-1.62.07-.81.9-1.41 1.86-1.33.96.08 1.68.8 1.62 1.62zm5.37 4.71c-.03.41-.45.71-.93.67-.48-.04-.84-.41-.81-.81.04-.41.46-.71.93-.67.48.04.85.4.81.81z" fill="#fff"/><path d="M150.04 193.25l-.31-.06c.1.02.19.04.31.06zm-.8-.18c-.1-.02-.19-.05-.28-.08l-.01.01s.11.03.29.07z" fill="#ba907b"/><path d="M149.67 192.68zm-.87-.19c-.1-.03-.19-.06-.3-.08h-.01l.31.08zm4.54 2.31h.01-.01zm-3.92-2.96c-.11-.02-.23-.04-.34-.07.11.02.21.04.34.07zm-.87-.19c-.1-.03-.19-.06-.29-.08h-.01l.3.08zm4.79-.02h.01-.01zm-3.15.1zm-.84-.19c-.1-.03-.19-.05-.28-.08h-.02s.12.03.3.08z" fill="#bc917b"/><path d="M199.77 130.6s-4.91 20.14-13.34 21.78c-8.42 1.64-17.54-1.62-17.54-1.62s-.88-23.67 3.44-26.76c4.31-3.1 14.25-7.59 27.44 6.6z" fill="#fff"/><path d="M168.87 150.69s.2.06.63.24c.11-7.26.78-17.23 3.47-19.14 4.01-2.93 13.06-7.06 25.14 4.23 1.1-3.12 1.65-5.48 1.65-5.48-13.21-14.22-23.16-9.74-27.44-6.63-4.32 3.1-3.45 26.78-3.45 26.78z" fill="#d6b496"/><path d="M173.86 140.44c0 4.58 3.72 8.29 8.3 8.29s8.29-3.71 8.29-8.29c0-4.58-3.71-8.29-8.29-8.29-4.58 0-8.3 3.71-8.3 8.29z" fill="#482315"/><path d="M182.54 145.96c2.4-.19 4.24-2.61 4.02-5.27-.22-2.66-2.42-4.73-4.82-4.53-2.4.19-4.23 2.61-4.02 5.26.22 2.66 2.43 4.74 4.82 4.54z" fill="#7e3a22"/><path d="M182.34 145.01c1.66-.15 3.39-1.98 3.21-4.23-.19-2.26-2.19-3.78-3.86-3.65-1.67.14-3.39 1.98-3.21 4.23.19 2.26 2.19 3.78 3.86 3.65z" fill="#211a10"/><path d="M183.69 139.45c.06.81.9 1.41 1.86 1.33.96-.08 1.68-.81 1.62-1.62-.07-.82-.9-1.41-1.86-1.34-.97.08-1.69.81-1.62 1.63zm-5.38 4.71c.03.4.45.7.93.66.48-.04.84-.4.81-.81-.04-.4-.45-.7-.93-.66-.48.04-.85.4-.81.81z" fill="#fff"/><path d="M142.9 130.96c-.07-.09-1.59-2.42-4.72-4.82-1.96-1.5-3.88-2.64-5.87-3.49a30.095 30.095 0 0 0-7.55-2.08c-2.29-.26-4.82-.19-7.77.21-2.25.43-4.45 1.1-6.32 1.92-1.33.46-2.38 1.1-3.23 1.62-.32.2-.61.38-.91.54l-4.02 2.53 4.63-1.09c.22-.06.45-.12.71-.18.96-.26 2.15-.58 3.55-.78.33-.05.66-.12 1-.18.58-.12 1.19-.24 1.82-.27.7-.05 1.43-.1 2.18-.15l.98-.07c2.56-.04 4.73.16 6.66.6 2.11.37 4.27 1.05 6.26 1.97 1.88.89 3.67 1.78 5.08 2.81 2.83 1.9 4.41 3.47 4.42 3.49a2.022 2.022 0 0 0 2.53.26c.94-.61 1.2-1.87.6-2.77l-.03-.07zm57.7-6.12c-.27-.14-.56-.32-.89-.52-.84-.52-1.89-1.16-3.18-1.61-1.91-.83-4.11-1.5-6.39-1.94-2.93-.39-5.46-.46-7.75-.2-2.52.34-5.12 1.06-7.55 2.08-1.96.84-3.93 2.01-5.86 3.49-3.07 2.36-4.6 4.64-4.71 4.82l-.03.04c-.52.8-.41 1.86.26 2.54.38.38.89.59 1.43.59.54 0 1.05-.21 1.43-.59l.01-.02c.15-.15 1.68-1.64 4.43-3.48 1.38-1.01 3.18-1.9 5.05-2.8 1.99-.92 4.16-1.6 6.29-1.97 1.9-.44 4.08-.63 6.61-.6l1.02.07c.75.05 1.47.1 2.18.15.62.03 1.22.15 1.81.27.34.06.67.13 1 .18 1.4.2 2.59.52 3.55.78.25.06.49.12.71.18l4.64 1.09-4.06-2.55z" fill="#030405"/><path d="M147.07 200.28c-.11-.02-.21-.04-.31-.07.1.03.19.04.31.07zm-.8-.18c-.1-.02-.19-.05-.28-.08l-.01.01s.11.03.29.07zm.57-.6c-.11-.02-.21-.04-.31-.07.1.03.19.04.31.07zm-.8-.18c-.1-.02-.19-.05-.28-.08l-.01.01s.11.03.29.07zm1.51.07l-.3-.06c.1.02.19.04.3.06zm-.77-.17c-.1-.02-.18-.05-.27-.08l-.01.01s.1.03.28.07z" fill="#be927b"/><path d="M140.81 201.79c-.24-3.2 8.91.67 11.92.76 2.4.08 9.6-.47 10.27-.73 5.03-1.88-.28 5.35-10.42 5.73-4.65.19-11.63-3.82-11.77-5.76z" fill="#f0d2ad"/><path d="M170.98 194.1c-5.81-1.08-18.03.08-18.03.08-10.09 1.67-17.98-.11-18.03-.04-.24.02 8.05 11.02 17.89 10.51 9.84.51 18.41-10.51 18.17-10.55z" fill="#c2646e"/><path d="M158.78 191.78c-2.62-.29-4.48 1.6-5.82 1.46-1.37.13-3.14-1.08-5.77-1.11-3.7-.04-5.51-.36-12.27 2.01.24.46 4.57 2.97 12.69 3.11.12 0 2.3 1.23 5.39 1.21 1.94-.01 4.6-1.3 4.71-1.3 8.13-.13 13.1-2.55 13.33-3-8.95-2.77-8.24-2.42-12.26-2.38z" fill="#d87475"/><path d="M111.43 239.55c-9.53 5.19-20.98 15.84-25.84 37.67l-.02.08c-.64 2.89 1.28 5.73 4.29 6.44l12.56 2.97v13.17h47.25v-40.57c-18.63-1.69-32.54-13.88-38.24-19.76zm111.11 37.72l-.01-.05c-2.81-13.13-9.7-28.72-26.06-37.37-13.5 12.82-26.28 18.26-37.7 19.41v40.62h46.65v-13.17l12.82-3.03c3-.71 4.92-3.53 4.3-6.41z" fill="#be1e2d"/><path d="M65.65 124.89c1.58-18.58 5.75-33.41 5.75-33.41s.13.14.35.4c5.02-18.17 13.36-27.99 13.36-27.99v.01c4.06-6.14 9.82-12.6 16.86-18.97 14.44-13.01 23.51-10.33 35.46-9.96 0 0 .04.08.1.21 5.24-1.13 33.46-6.77 50.25-.53 18.55 6.91 33.74 18.75 44.46 50.57 1.65 4.89 2.83 9.64 3.65 14.23 2.43 5.32 3.53 10.54 3.98 14.82l.28-.05s9.34 50.05 35.67 60.04c0 0-20 4.96-35.83-20.72-.37 5.09-1.02 10.24-2.05 15.26.87 6.6 1.93 12.05 1.93 15.57 0 24.89-18.59 45.51-15.72 70.57 1.89 16.52 9.5 29.32 9.5 29.32s-8.71-11.31-12.28-21.91c-3.56-10.6-2.37-29.69 3.57-44.89 3.05-7.79 3.9-16.33 3.53-24.6-.51.74-1.02 1.48-1.57 2.19 0 0 .65-2.11 1.37-5.41-.33-4.1-.94-8.11-1.71-11.89-.13-.66-.27-1.32-.41-1.97-.17-.76-.36-1.46-.53-2.2a91.751 91.751 0 0 1-5.4 9.65c-.12.41-.24.83-.37 1.22-1.22 3.99-2.92 7.7-4.39 11.21-1.43 3.53-2.91 6.84-4.03 10.05-1.03 3.2-1.95 6.23-2.42 9.1-.29 1.44-.43 2.84-.53 4.16-.18 1.34-.22 2.61-.21 3.81-.12 2.4.12 4.51.19 6.27.41 3.51.65 5.53.65 5.53s-.21-.47-.62-1.34c-.37-.91-1.07-2.17-1.69-3.9-.52-1.73-1.37-3.81-1.77-6.32-.56-2.49-.93-5.37-.86-8.53-.08-4.21.72-8.87 1.99-13.65-6.82 7-12.26 10.84-12.26 10.84s7.98-9.4 11.55-18.77c2.76-7.28 6.9-19.77 6.9-38.17 0-.85-.05-1.71-.13-2.58-.24-.99-.45-2-.73-2.98-1.88-6.67-4.22-12.88-6.25-18.37-5.04-9.8-10.93-17.23-10.93-17.23s8.32 14.28 9.96 30c1.66 15.71-7.07 27.86-7.07 27.86s1.75-18.66-4.35-33.51c-3.07-7.46-8.1-13.96-16.35-16.66l.01.04c4.43 12.04-4.46 22.15-4.46 22.15s-.03-3.02-.91-7.67c-2.28-12.05-10.26-35.09-38.13-45.33l-.87 1.25-19.63 28.51c-.97 1.3-2.53 3.49-4.35 6.32-5.32 8.24-12.67 21.76-12.67 33.52 0 18.39 4.13 30.88 6.9 38.15 3.57 9.38 11.55 18.78 11.55 18.78s-4.35-3.07-10.15-8.72c.31 2.15.49 4.24.45 6.22.07 3.16-.3 6.04-.86 8.53-.4 2.51-1.25 4.59-1.77 6.32-.62 1.73-1.32 2.99-1.69 3.9l-.63 1.34s.25-2.02.66-5.53c.07-1.76.31-3.87.19-6.27.01-1.2-.03-2.47-.21-3.81-.1-1.32-.24-2.72-.53-4.16-.47-2.87-1.39-5.9-2.42-9.1-1.01-2.91-2.32-5.91-3.63-9.07-4.15-5.32-8.25-11.56-11.55-18.63-2.46 12.26-3.26 26.83 1.67 39.45 5.93 15.2 7.13 34.29 3.57 44.89-3.57 10.6-12.28 21.91-12.28 21.91s7.61-12.8 9.5-29.32c2.87-25.06-15.72-45.68-15.72-70.57 0-3.17.86-7.91 1.67-13.64-1.74-4.46-2.97-9.23-3.78-14.15-15.47 22.22-33.84 17.68-33.84 17.68 18.6-7.06 28.72-34.1 33.06-49.37z" fill="#fff"/><path d="M132.81 234.49c0 2.1-1.7 3.8-3.8 3.8-2.1 0-3.8-1.7-3.8-3.8a3.8 3.8 0 1 1 7.6 0z" fill="#fafbfc"/><path d="M136.49 241.11c0 2.1-1.7 3.8-3.8 3.8-2.1 0-3.81-1.7-3.81-3.8 0-2.1 1.71-3.81 3.81-3.81s3.8 1.71 3.8 3.81z" fill="#be1e2d"/><path d="M141.1 247.18c0 2.11-1.71 3.81-3.81 3.81a3.8 3.8 0 0 1-3.8-3.81c0-2.1 1.7-3.8 3.8-3.8 2.1 0 3.81 1.7 3.81 3.8z" fill="#fafbfc"/><path d="M146.87 252.1c0 2.1-1.7 3.81-3.8 3.81-2.1 0-3.8-1.71-3.8-3.81s1.7-3.8 3.8-3.8c2.1 0 3.8 1.7 3.8 3.8z" fill="#be1e2d"/><path d="M153.97 254.93c0 2.1-1.7 3.81-3.8 3.81-2.11 0-3.81-1.71-3.81-3.81s1.7-3.8 3.81-3.8c2.1 0 3.8 1.7 3.8 3.8z" fill="#fafbfc"/><path d="M157.77 249.68c2.1 0 3.81 1.71 3.81 3.8 0 2.11-1.71 3.81-3.81 3.81-2.09 0-3.8-1.7-3.8-3.81 0-2.09 1.71-3.8 3.8-3.8z" fill="#be1e2d"/><path d="M164.4 246.01c2.1 0 3.8 1.7 3.8 3.8 0 2.1-1.7 3.8-3.8 3.8-2.1 0-3.81-1.7-3.81-3.8 0-2.1 1.71-3.8 3.81-3.8z" fill="#fafbfc"/><path d="M170.47 241.4c2.1 0 3.81 1.7 3.81 3.81 0 2.1-1.71 3.8-3.81 3.8s-3.8-1.7-3.8-3.8a3.8 3.8 0 0 1 3.8-3.81z" fill="#be1e2d"/><path d="M175.39 235.62c2.1 0 3.8 1.71 3.8 3.8a3.8 3.8 0 1 1-7.6 0c0-2.09 1.7-3.8 3.8-3.8z" fill="#fafbfc"/><path d="M178.22 228.53c2.1 0 3.8 1.7 3.8 3.8 0 2.1-1.7 3.81-3.8 3.81-2.1 0-3.8-1.71-3.8-3.81s1.7-3.8 3.8-3.8z" fill="#be1e2d"/></g></svg>