<svg viewBox="0 0 298 301" xmlns="http://www.w3.org/2000/svg" fill-rule="evenodd" clip-rule="evenodd" stroke-linejoin="round" stroke-miterlimit="1.414"><g fill-rule="nonzero"><path fill="#7a1b25" d="M.17.1h296.87v299.7H.17z"/><path d="M123.4 199.21c-.94-.75-18.09-12.11-18.09-12.11 1.18 7.07 2.06 9.96.34 14.76-1.55 4.32-4.52 5.99-6.17 7.5-1.64 1.52-4.98 2.66-6.15 2.66-1.18 0-2.51-.23-2.51-.23s2.73 1.61 9.56 1.29c2.87-.13 4.69-.9 5.87-1.79-1.35 2.34-2.62 5.7-1.19 8.81 5.16 11.31-1.72 15.01-1.72 15.01s6.09-.66 9.59-3.97l.03.27c1.55 5.66 5.65 6.29 5.65 6.29s-2.58-.46-2.09-5.72c.13-1.4 1.48-1.95 3.17-2.9.66 5.08 2.79 10.26-1.62 12.37 0 0 7.45-1.59 8.82-6.34.24-.88.38-1.68.5-2.49.12.45.28.86.36 1.33 1.06 6.06-3.23 11.94-3.23 11.94s15.48-1.76 15.6-8.36c.01-.99.2-5.03.68-6.54.47-1.51 1.41-9.08 1.41-9.08s-17.86-21.94-18.81-22.7zm60.54 0c.95-.75 18.1-12.11 18.1-12.11-1.17 7.07-2.06 9.96-.34 14.76 1.56 4.32 4.52 5.99 6.17 7.5 1.64 1.52 4.98 2.66 6.16 2.66 1.18 0 2.5-.23 2.5-.23s-2.73 1.61-9.56 1.29c-2.87-.13-4.69-.9-5.87-1.79 1.35 2.34 2.62 5.7 1.19 8.81-5.16 11.31 1.73 15.01 1.73 15.01s-6.1-.66-9.6-3.97l-.03.27c-1.55 5.66-5.64 6.29-5.64 6.29s2.58-.46 2.08-5.72c-.13-1.4-1.48-1.95-3.17-2.9-.66 5.08-2.79 10.26 1.62 12.37 0 0-7.45-1.59-8.82-6.34-.24-.88-.37-1.68-.5-2.49-.12.45-.28.86-.36 1.33-1.05 6.06 3.23 11.94 3.23 11.94s-15.48-1.76-15.6-8.36c-.01-.99-.2-5.03-.67-6.54-.48-1.51-1.41-9.08-1.41-9.08s17.86-21.94 18.79-22.7z" fill="#e5a424"/><path d="M153.55 188.31v112.26H92.82c-.99-.39-1.48-.6-1.48-.6 0-5.41.3-10.39.86-14.94.16-1.48.37-2.9.6-4.28.43-2.61.94-5.08 1.54-7.38.66-2.74 1.44-5.27 2.3-7.61.19-.48.35-.95.54-1.4.2-.52.41-1.01.62-1.51.2-.49.41-.96.63-1.44.42-.96.87-1.87 1.32-2.75.78-1.53 1.61-2.97 2.47-4.3.23-.37.45-.72.68-1.05 1.11-1.65 2.26-3.17 3.43-4.55.33-.37.66-.76.99-1.11.33-.37.66-.72.99-1.07.33-.33.68-.68 1.01-.99.33-.33.66-.64.99-.92.65-.62 1.33-1.2 1.99-1.71.31-.25.62-.49.93-.7 2.9-2.22 5.65-3.74 8.04-4.79.33-.15.66-.29.99-.44 1.03-.41 1.95-.74 2.78-.98 2.14-.68 3.45-.83 3.45-.83.25 0 .46-.02.68-.06 1.91-.31 3.46-1.97 4.71-4.61.93-1.97 1.69-4.48 2.33-7.38.25-1.16.45-2.29.64-3.52.3-2.08.59-4.26.84-6.52.1-1.38.25-2.72.39-4.16.56-6.87.7-14.38.7-21.5 0 0 8.15.84 14.77.84z" fill="#e0bd9a"/><path d="M216.02 299.97s-.54.21-1.44.6h-61.03V188.31h.15c6.58 0 14.83-.84 14.83-.84 0 7.06.14 14.48.68 21.36.16 1.33.31 2.71.41 4.05.25 2.37.54 4.59.89 6.67v.04c.1.94.28 1.79.45 2.67.59 2.92 1.31 5.49 2.2 7.55 1.09 2.57 2.41 4.36 4.03 5.06.5.23 1.05.35 1.63.35 0 0 2.32.27 5.82 1.65a37.913 37.913 0 0 1 7.8 4.16c.39.24.78.53 1.17.82.21.14.43.31.64.49.14.08.27.19.39.29.72.56 1.46 1.17 2.2 1.85.29.25.56.52.84.78.33.29.64.6.97.95.23.21.43.41.64.64.43.45.88.94 1.32 1.46.22.25.45.49.65.76.99 1.15 1.96 2.41 2.88 3.79.42.57.79 1.17 1.18 1.79.78 1.25 1.54 2.59 2.28 4.01a61.69 61.69 0 0 1 2.57 5.7c.19.45.37.92.54 1.4.86 2.34 1.64 4.87 2.32 7.61.6 2.3 1.11 4.77 1.53 7.38.22 1.38.43 2.8.59 4.28.56 4.55.87 9.53.87 14.94z" fill="#efd0ad"/><path d="M170.5 219.34v.05c-1.53 2.35-6.67 9.13-16.85 9.13h-.09c-9.64-.05-15.27-7.02-16.71-9.09.3-2.06.6-4.22.84-6.48.1-1.32.25-2.7.4-4.12 4.69 1.18 9.83 1.91 15.27 2.01h.2c5.63-.1 10.82-.88 15.66-2.16.15 1.33.3 2.7.4 4.03.24 2.35.54 4.56.88 6.63z" fill="#be987f"/><path d="M152.86 60.36c-64.33 0-64.68 53.78-61.81 88.99-4.4-8.35-17.49-5.8-16.41 7.37 1.04 12.67 19.75 19.13 19.22 17.73 9.75 26.04 35.53 45.67 59 45.67h.5V60.36h-.5z" fill="#d2a686"/><path d="M78.74 151.17c3.17-5.11 8.11-2.9 9.29-1.77 1.29 1.23 2.33 2.8 1.54 5.8-.45 1.71-2.23 1.86-1.83 4.42.49 2.89 1.83 3.04 2.62 3.73.74.64 1.68 1.13 2.12 2.36.5 1.22.54 2.5.3 3.63-.5 2.06-3.51.39-5.54-.49-1.33-.64-5.58-4.23-6.67-5.4-2.67-3.05-3.95-8.94-1.83-12.28z" fill="#ac8774"/><path d="M153.21 60.36c64.34 0 64.68 53.78 61.87 88.99 4.39-8.35 17.44-5.8 16.35 7.37-.99 12.67-19.73 19.13-19.22 17.73-9.49 26.04-35.53 45.67-59 45.67h-.35l-.14-159.76h.49z" fill="#ddb598"/><path d="M227.33 151.17c-3.16-5.11-8.05-2.9-9.29-1.77-1.28 1.23-2.27 2.8-1.53 5.8.44 1.71 2.22 1.86 1.83 4.42-.5 2.89-1.83 3.04-2.57 3.73-.74.64-1.73 1.13-2.18 2.36-.44 1.22-.54 2.5-.29 3.63.49 2.06 3.5.39 5.53-.49 1.38-.64 5.58-4.23 6.67-5.4 2.72-3.05 3.95-8.94 1.83-12.28z" fill="#ac8774"/><path d="M152.36 75.53c-21.15 0-36.67 6.14-46.01 18.22-13.09 16.95-12.6 42.78-7.8 61.35 1.48 5.69 2.27 20.97 3.26 26.57 4.59 25.09 32.31 38.45 50.55 38.45h.49V75.53h-.49z" fill="#e0bd9a"/><path d="M198.31 93.8c-9.29-12.03-24.61-18.17-45.46-18.27v144.59c20.85-.24 45.81-14.88 50.06-38.45 1.03-5.6 1.78-20.88 3.26-26.57 4.84-18.52 5.34-44.3-7.86-61.3z" fill="#efd0ad"/><path d="M149.48 194.49c-.1-.02-.2-.04-.31-.06.1.02.19.04.31.06zm-.79-.17c-.09-.03-.18-.05-.27-.08h-.01s.11.03.28.08z" fill="#bc917b"/><path d="M134.89 75.89l-.27.27.05.09c.09-.13.13-.27.22-.36z" fill="#432e1b"/><path d="M149.65 191.56c-.1-.02-.2-.04-.31-.07.1.02.19.04.31.07zm-.8-.18c-.1-.03-.19-.05-.28-.08l-.01.01s.11.02.29.07z" fill="#ba907b"/><path d="M140.28 175.59c-.25-5.13 9.43-1.87 12.62-1.71 2.52.13 10.19-1.62 10.85-1.17 4.51 3.04-4.78 9.17-11.01 9.17-1.66 0-12.31-3.19-12.46-6.29z" fill="#dcb497"/><path d="M106.7 131.97s4.91 20.13 13.33 21.78c8.43 1.64 17.55-1.63 17.55-1.63s.87-23.66-3.44-26.75c-4.31-3.11-14.25-7.6-27.44 6.6z" fill="#fff"/><path d="M137.59 152.06s-.19.06-.62.24c-.11-7.26-.78-17.23-3.48-19.14-4-2.93-13.05-7.06-25.14 4.23-1.09-3.12-1.65-5.49-1.65-5.49 13.22-14.22 23.16-9.74 27.44-6.63 4.32 3.11 3.45 26.79 3.45 26.79z" fill="#d6b496"/><path d="M132.6 141.81c0 4.58-3.71 8.29-8.29 8.29-4.58 0-8.29-3.71-8.29-8.29 0-4.58 3.71-8.3 8.29-8.3 4.58 0 8.29 3.72 8.29 8.3z" fill="#482315"/><path d="M123.92 147.33c-2.39-.2-4.23-2.61-4.01-5.27.21-2.66 2.42-4.74 4.82-4.54 2.39.2 4.23 2.61 4.02 5.27-.22 2.66-2.43 4.74-4.83 4.54z" fill="#7e3a22"/><path d="M124.13 146.37c-1.67-.14-3.4-1.97-3.21-4.22.18-2.26 2.19-3.79 3.85-3.65 1.67.14 3.4 1.98 3.21 4.23-.18 2.26-2.19 3.78-3.85 3.64z" fill="#211a10"/><path d="M122.78 140.81c-.07.82-.9 1.41-1.86 1.33-.96-.08-1.69-.8-1.62-1.61.07-.82.9-1.42 1.86-1.34.96.08 1.69.81 1.62 1.62zm5.38 4.71c-.04.41-.46.71-.93.67-.48-.04-.84-.41-.81-.81.03-.41.45-.71.93-.67.48.04.84.41.81.81z" fill="#fff"/><path d="M149.78 193.93c-.1-.02-.2-.04-.31-.06.11.02.2.04.31.06zm-.8-.18c-.1-.02-.18-.05-.28-.07h-.01s.11.03.29.07z" fill="#ba907b"/><path d="M149.41 193.36zm-.87-.19c-.1-.02-.19-.05-.29-.08h-.01l.3.08zm.62-.65c-.11-.02-.22-.04-.33-.07.11.03.2.05.33.07zm-.86-.19c-.11-.03-.2-.06-.3-.08h-.01s.11.03.31.08zm1.63.08zm-.83-.19c-.1-.02-.19-.05-.29-.08l-.01.01s.11.03.3.07z" fill="#bc917b"/><path d="M199.51 131.28s-4.91 20.14-13.34 21.78c-8.42 1.64-17.54-1.62-17.54-1.62s-.87-23.67 3.44-26.76c4.31-3.1 14.25-7.59 27.44 6.6z" fill="#fff"/><path d="M168.62 151.37s.19.06.62.24c.11-7.26.78-17.23 3.48-19.14 4-2.93 13.05-7.06 25.13 4.23 1.1-3.12 1.65-5.48 1.65-5.48-13.21-14.22-23.16-9.74-27.44-6.63-4.31 3.1-3.44 26.78-3.44 26.78z" fill="#d6b496"/><path d="M173.61 141.12c0 4.58 3.71 8.3 8.29 8.3 4.58 0 8.29-3.72 8.29-8.3s-3.71-8.29-8.29-8.29c-4.58 0-8.29 3.71-8.29 8.29z" fill="#482315"/><path d="M182.29 146.65c2.39-.2 4.23-2.62 4.01-5.28-.21-2.65-2.42-4.73-4.82-4.53-2.39.19-4.23 2.61-4.02 5.27.22 2.65 2.43 4.74 4.83 4.54z" fill="#7e3a22"/><path d="M182.08 145.69c1.67-.15 3.39-1.97 3.21-4.23-.19-2.26-2.19-3.78-3.86-3.64-1.66.14-3.39 1.97-3.2 4.23.18 2.25 2.18 3.77 3.85 3.64z" fill="#211a10"/><path d="M183.43 140.13c.07.81.9 1.41 1.86 1.33.96-.08 1.68-.81 1.62-1.62-.07-.82-.9-1.41-1.86-1.33-.96.07-1.69.8-1.62 1.62zm-5.38 4.71c.04.4.45.7.93.66.48-.04.84-.4.81-.81-.03-.4-.45-.7-.93-.66-.48.04-.84.4-.81.81z" fill="#fff"/><path d="M142.64 131.65c-.06-.1-1.59-2.43-4.72-4.82-1.96-1.51-3.88-2.65-5.87-3.5a29.98 29.98 0 0 0-7.55-2.08c-2.28-.26-4.81-.19-7.77.21-2.25.43-4.45 1.1-6.32 1.92-1.33.46-2.38 1.1-3.22 1.62-.33.2-.62.38-.92.54l-4.02 2.53 4.64-1.09c.21-.06.45-.12.7-.18.96-.26 2.15-.57 3.55-.78.33-.05.66-.11 1-.18.59-.12 1.19-.24 1.82-.27.71-.05 1.44-.1 2.18-.15l.98-.07c2.57-.03 4.74.16 6.66.61 2.11.36 4.28 1.04 6.26 1.96 1.88.9 3.68 1.79 5.08 2.82 2.83 1.89 4.41 3.46 4.42 3.48.39.39.91.59 1.44.59.38 0 .76-.1 1.09-.32.94-.62 1.2-1.87.61-2.78l-.04-.06zm57.7-6.13c-.27-.14-.56-.32-.89-.52-.84-.52-1.89-1.16-3.18-1.6-1.91-.84-4.11-1.51-6.39-1.95-2.93-.39-5.46-.46-7.75-.2-2.51.34-5.12 1.06-7.54 2.08-1.97.84-3.94 2.02-5.87 3.5-3.07 2.35-4.6 4.63-4.71 4.81l-.03.04c-.52.8-.41 1.87.26 2.54.39.38.89.6 1.43.6.54-.01 1.05-.22 1.43-.6l.01-.02c.15-.15 1.68-1.64 4.43-3.48 1.38-1.01 3.18-1.9 5.05-2.8 2-.92 4.16-1.6 6.3-1.97 1.9-.44 4.07-.63 6.6-.6l1.03.07c.74.05 1.46.1 2.17.15.62.03 1.23.15 1.81.27.34.07.67.13 1 .18 1.4.21 2.59.52 3.55.78.26.06.49.13.71.18l4.64 1.09-4.06-2.55z" fill="#030405"/><path d="M146.81 200.96c-.1-.02-.21-.04-.31-.07.1.03.19.05.31.07zm-.8-.18c-.1-.02-.18-.05-.28-.08l-.01.01s.11.03.29.07zm.57-.6c-.1-.02-.21-.04-.31-.07.1.03.19.05.31.07zm-.8-.18c-.1-.02-.18-.05-.28-.08l-.01.01s.11.03.29.07zm1.51.07l-.3-.06c.1.02.19.04.3.06zm-.77-.17c-.09-.02-.18-.05-.27-.07h-.01s.11.03.28.07z" fill="#be927b"/><path d="M140.55 202.47c-.24-3.2 8.92.67 11.92.76 2.4.08 9.6-.47 10.27-.73 5.03-1.88-.28 5.35-10.42 5.73-4.64.19-11.63-3.82-11.77-5.76z" fill="#f0d2ad"/><path d="M170.72 194.78c-5.8-1.08-18.03.08-18.03.08-10.08 1.67-17.97-.11-18.03-.04-.24.02 8.05 11.02 17.89 10.52 9.84.5 18.41-10.52 18.17-10.56z" fill="#c2646e"/><path d="M158.52 192.46c-2.61-.29-4.48 1.6-5.82 1.46-1.36.13-3.14-1.08-5.77-1.11-3.7-.03-5.5-.36-12.27 2.01.24.46 4.58 2.97 12.7 3.11.11 0 2.29 1.24 5.39 1.21 1.94-.01 4.6-1.3 4.7-1.3 8.13-.13 13.1-2.55 13.33-3-8.95-2.77-8.24-2.41-12.26-2.38z" fill="#d87475"/><path d="M95.44 156.28c-.9-2.91-1.33-5.98-1.45-9.12-.07-.86-.03-1.72.06-2.52.01-.51.08-1 .22-1.47.13-.68.28-1.27.4-1.71.03-.15.07-.3.13-.48l.09-.22c.03-.1.05-.16.05-.16h.01c.24-.62.53-1.2.84-1.73.49 5.72 1.47 11.24 2.76 16.23.01.07.03.14.05.21-1.07.31-2.13.63-3.16.97z" fill="#766359"/><path d="M98.6 155.31c-.02-.07-.04-.14-.05-.21a99.263 99.263 0 0 1-2.76-16.23c1.77-2.97 4.68-4.6 8.28-5.43.96-.22 1.91-.42 2.86-.58.9 3.31 4.4 14.99 9.94 19.34-6.53.32-12.69 1.5-18.27 3.11zm41.79-.1c-.15-.04-.3-.09-.45-.14-.02 0-.03-.01-.04-.01-2.3-.72-4.58-1.29-6.84-1.73 2.73-.57 4.52-1.21 4.52-1.21v-.06h.01s.32-8.6-.37-16.11c2.48 1.73 4.3 3.91 4.84 6.98.64 3.6.06 7.1-1.05 10.51-.2.6-.4 1.19-.62 1.77z" fill="#7b6c60"/><path d="M133.06 153.33a66.75 66.75 0 0 0-12.73-1.21h-.05c-1.15 0-2.29.03-3.41.08-5.54-4.35-9.04-16.03-9.94-19.34.01-.01.01-.01.02-.01.26.97.73 2.61 1.4 4.54 2.69-2.51 5.23-4.26 7.59-5.43.63-.02 1.25-.02 1.87-.02 2.67 0 5.35.15 8.04.43 2.99.3 5.95.82 8.67 2.05 1.84 3.41 2.35 11.64 2.45 17.88.37-.16.57-.22.61-.24v.06s-1.79.64-4.52 1.21zm-8.75-19.82c-4.58 0-8.29 3.72-8.29 8.3s3.71 8.29 8.29 8.29c4.58 0 8.29-3.71 8.29-8.29 0-4.58-3.71-8.3-8.29-8.3z" fill="#858285"/><path d="M136.97 152.3c-.1-6.24-.61-14.47-2.45-17.88.76.35 1.51.75 2.24 1.22.15.1.3.21.46.31.69 7.51.37 16.11.37 16.11h-.01c-.04.02-.24.08-.61.24zm-28.62-14.91c-.67-1.93-1.14-3.57-1.4-4.54 2.98-.52 5.98-.81 8.99-.89-2.36 1.17-4.9 2.92-7.59 5.43z" fill="#77685f"/><path d="M124.31 150.1c-4.58 0-8.29-3.71-8.29-8.29 0-4.58 3.71-8.3 8.29-8.3 4.58 0 8.29 3.72 8.29 8.3s-3.71 8.29-8.29 8.29zm-4.37-8.31c-.02.09-.03.18-.03.27-.22 2.66 1.62 5.07 4.01 5.27.11.01.22.01.32.01 1.07 0 2.07-.44 2.87-1.17.04.01.08.01.12.02h.08c.44 0 .81-.29.85-.67a.64.64 0 0 0-.15-.46c.41-.67.67-1.44.74-2.27.21-2.66-1.63-5.07-4.02-5.27-.11-.01-.22-.01-.32-.01-1.29 0-2.5.65-3.35 1.68-.02-.01-.05-.01-.07-.01-.89 0-1.63.58-1.69 1.35-.04.49.21.95.64 1.26z" fill="#35201a"/><path d="M124.24 147.34c-.1 0-.21 0-.32-.01-2.39-.2-4.23-2.61-4.01-5.27 0-.09.01-.18.03-.27.27.19.6.32.98.35v.01c-.19 2.25 1.54 4.08 3.21 4.22.07.01.14.01.21.01.71 0 1.46-.28 2.1-.79.07.28.33.51.67.58-.8.73-1.8 1.17-2.87 1.17zm3.77-2.28a.936.936 0 0 0-.66-.35h-.08c.39-.55.65-1.23.71-1.98.19-2.25-1.54-4.09-3.21-4.23-.07-.01-.14-.01-.21-.01-.83 0-1.71.39-2.41 1.06-.27-.2-.61-.33-.99-.36h-.1c.85-1.03 2.06-1.68 3.35-1.68.1 0 .21 0 .32.01 2.39.2 4.23 2.61 4.02 5.27-.07.83-.33 1.6-.74 2.27z" fill="#512f24"/><path d="M124.34 146.38c-.07 0-.14 0-.21-.01-1.67-.14-3.4-1.97-3.21-4.22v-.01c.05.01.11.01.17.01.88 0 1.62-.57 1.69-1.34.04-.49-.21-.95-.63-1.26.7-.67 1.58-1.06 2.41-1.06.07 0 .14 0 .21.01 1.67.14 3.4 1.98 3.21 4.23-.06.75-.32 1.43-.71 1.98h-.01c-.44 0-.81.29-.84.67-.01.07 0 .14.02.21-.64.51-1.39.79-2.1.79z" fill="#1d1916"/><path d="M121.09 142.15c-.06 0-.12 0-.17-.01-.38-.03-.71-.16-.98-.35-.43-.31-.68-.77-.64-1.26.06-.77.8-1.35 1.69-1.35.02 0 .05 0 .07.01h.1c.38.03.72.16.99.36.42.31.67.77.63 1.26-.07.77-.81 1.34-1.69 1.34zm6.22 4.04h-.08c-.04-.01-.08-.01-.12-.02-.34-.07-.6-.3-.67-.58-.02-.07-.03-.14-.02-.21.03-.38.4-.67.84-.67h.09c.28.03.52.16.66.35.11.13.16.29.15.46-.04.38-.41.67-.85.67z" fill="#858285"/><path d="M207.58 157.6c-.11-.04-.21-.08-.32-.12-.17-.06-.33-.12-.5-.18-.03-.01-.05-.02-.07-.03-.31-.11-.61-.22-.92-.33.13-.69.26-1.31.4-1.84 1.13-4.32 2.02-9.02 2.56-13.92.03.1.05.19.06.28.13.44.28 1.03.41 1.71.13.47.21.96.22 1.47.09.8.13 1.66.06 2.52-.14 3.62-.69 7.14-1.9 10.44z" fill="#7a6960"/><path d="M205.77 156.94c-5.45-1.91-11.62-3.52-18.25-4.31 6.02-2.65 10.02-14.48 11.43-19.3.15.04.29.07.44.11 4.26.98 7.53 3.07 9.13 7.16 0 0 .02.06.06.16l.08.22c.03.07.05.13.07.2-.54 4.9-1.43 9.6-2.56 13.92-.14.53-.27 1.15-.4 1.84zm-43.08-2.82c-.08-.23-.15-.45-.23-.68-1.11-3.41-1.69-6.91-1.06-10.51.58-3.25 2.59-5.51 5.31-7.29.77-.5 1.56-.92 2.37-1.28-.81 7.71-.46 17.01-.46 17.01s0 .01.01.01v.06s1.4.5 3.61 1.01c-3.01.3-6.06.81-9.14 1.57-.02 0-.03 0-.05.01-.06.01-.13.03-.2.05-.05.01-.11.02-.16.04z" fill="#807368"/><path d="M187.52 152.63c-2.77-.32-5.63-.51-8.55-.51h-.04c-2.2 0-4.43.11-6.69.33-2.21-.51-3.61-1.01-3.61-1.01v-.06c.04.01.23.07.61.23.1-6.47.64-15.11 2.67-18.25 1.85-.51 3.77-.8 5.71-.99 2.68-.28 5.36-.43 8.03-.43 2.13 0 4.26.09 6.38.3 1.85 1.11 3.79 2.57 5.82 4.46.46-1.29.82-2.45 1.09-3.37h.01c-1.41 4.82-5.41 16.65-11.43 19.3zm-5.62-19.8c-4.58 0-8.29 3.71-8.29 8.29 0 4.58 3.71 8.3 8.29 8.3 4.58 0 8.29-3.72 8.29-8.3s-3.71-8.29-8.29-8.29z" fill="#858285"/><path d="M169.24 151.61c-.38-.16-.57-.22-.61-.23-.01 0-.01-.01-.01-.01s-.35-9.3.46-17.01c.92-.41 1.87-.74 2.83-1-2.03 3.14-2.57 11.78-2.67 18.25zm28.61-14.91c-2.03-1.89-3.97-3.35-5.82-4.46 2.31.23 4.61.58 6.91 1.09-.27.92-.63 2.08-1.09 3.37z" fill="#77685f"/><path d="M181.9 149.42c-4.58 0-8.29-3.72-8.29-8.3s3.71-8.29 8.29-8.29c4.58 0 8.29 3.71 8.29 8.29 0 4.58-3.71 8.3-8.29 8.3zm-2.8-3.93c.79.73 1.8 1.17 2.87 1.17.1 0 .21-.01.32-.01 2.39-.2 4.23-2.62 4.01-5.28l-.03-.27c.42-.3.68-.76.64-1.26-.07-.77-.8-1.34-1.69-1.34h-.08c-.84-1.03-2.05-1.68-3.34-1.68-.1 0-.21.01-.32.02-2.39.19-4.23 2.61-4.02 5.27.07.83.33 1.6.73 2.26-.1.14-.15.3-.14.47.03.38.4.67.84.67.03 0 .06 0 .09-.01.04 0 .08-.01.12-.01z" fill="#35201a"/><path d="M181.97 146.66c-1.07 0-2.08-.44-2.87-1.17.34-.07.6-.3.67-.58.64.5 1.39.78 2.1.79.07 0 .14-.01.21-.01 1.67-.15 3.39-1.97 3.21-4.23.37-.03.71-.16.98-.36l.03.27c.22 2.66-1.62 5.08-4.01 5.28-.11 0-.22.01-.32.01zm-3.78-2.29a5.2 5.2 0 0 1-.73-2.26c-.21-2.66 1.63-5.08 4.02-5.27.11-.01.22-.02.32-.02 1.29 0 2.5.65 3.34 1.68-.03 0-.06 0-.09.01-.38.03-.72.16-.99.36-.7-.67-1.59-1.06-2.41-1.06-.08 0-.15 0-.22.01-1.66.14-3.39 1.97-3.2 4.23.06.75.32 1.42.71 1.98h-.08a.97.97 0 0 0-.67.34z" fill="#512f24"/><path d="M181.87 145.7c-.71-.01-1.46-.29-2.1-.79.02-.07.03-.14.02-.22-.03-.38-.4-.66-.84-.66h-.01c-.39-.56-.65-1.23-.71-1.98-.19-2.26 1.54-4.09 3.2-4.23.07-.01.14-.01.22-.01.82 0 1.71.39 2.41 1.06-.42.3-.67.76-.63 1.26.06.76.81 1.34 1.69 1.34.06 0 .11-.01.17-.01.18 2.26-1.54 4.08-3.21 4.23-.07 0-.14.01-.21.01z" fill="#1d1916"/><path d="M185.12 141.47c-.88 0-1.63-.58-1.69-1.34-.04-.5.21-.96.63-1.26.27-.2.61-.33.99-.36.03-.01.06-.01.09-.01h.08c.89 0 1.62.57 1.69 1.34.04.5-.22.96-.64 1.26-.27.2-.61.33-.98.36-.06 0-.11.01-.17.01zm-6.23 4.04c-.44 0-.81-.29-.84-.67-.01-.17.04-.33.14-.47a.97.97 0 0 1 .67-.34h.09c.44 0 .81.28.84.66.01.08 0 .15-.02.22-.07.28-.33.51-.67.58-.04 0-.08.01-.12.01-.03.01-.06.01-.09.01z" fill="#858285"/><path d="M100 164.84c-.02-.02-.03-.05-.05-.07-2.14-2.62-3.57-5.48-4.51-8.49 1.03-.34 2.09-.66 3.16-.97.55 2.21 1 5.72 1.4 9.53z" fill="#ada19a"/><path d="M116.28 172.31c-6.44 0-12-2.25-16.28-7.47-.4-3.81-.85-7.32-1.4-9.53 5.58-1.61 11.74-2.79 18.27-3.11.99.78 2.05 1.33 3.16 1.55 1.7.33 3.42.46 5.09.46 2.96 0 5.75-.42 7.94-.88 2.26.44 4.54 1.01 6.84 1.73.01 0 .02.01.04.01.15.05.3.1.45.14-1.74 4.77-4.18 9.13-8.53 12.31-3.76 2.75-8.04 4.2-12.67 4.65-.99.09-1.96.14-2.91.14z" fill="#b0a6a0"/><path d="M125.12 154.21c-1.67 0-3.39-.13-5.09-.46-1.11-.22-2.17-.77-3.16-1.55 1.12-.05 2.26-.08 3.41-.08h.05c4.14 0 8.4.37 12.73 1.21-2.19.46-4.98.88-7.94.88z" fill="#b5b4b5"/><path d="M98.6 155.31c5.58-1.61 11.74-2.79 18.27-3.11-6.53.32-12.69 1.5-18.27 3.11z" fill="#96908e"/><path d="M204.94 162.83c.25-2.21.53-4.24.83-5.89.31.11.61.22.92.33.02.01.04.02.07.03.17.06.33.12.5.18.11.04.21.08.32.12a25.18 25.18 0 0 1-2.64 5.23z" fill="#afa49f"/><path d="M187.19 172.31a32 32 0 0 1-2.91-.14c-4.64-.45-8.91-1.9-12.67-4.65-4.68-3.42-7.16-8.21-8.92-13.4.05-.02.11-.03.16-.04.07-.02.14-.04.2-.05.02-.01.03-.01.05-.01 3.08-.76 6.13-1.27 9.14-1.57 2.3.53 5.47 1.07 8.85 1.07 1.67 0 3.39-.13 5.08-.46.46-.09.91-.23 1.35-.43 6.63.79 12.8 2.4 18.25 4.31-.3 1.65-.58 3.68-.83 5.89-.43.66-.91 1.31-1.42 1.94-4.28 5.27-9.87 7.54-16.33 7.54z" fill="#b3aaa4"/><path d="M181.09 153.52c-3.38 0-6.55-.54-8.85-1.07 2.26-.22 4.49-.33 6.69-.33h.04c2.92 0 5.78.19 8.55.51-.44.2-.89.34-1.35.43-1.69.33-3.41.46-5.08.46z" fill="#b5b4b5"/><path d="M162.85 154.08c.07-.02.14-.04.2-.05-.06.01-.13.03-.2.05zm.25-.06z" fill="#979290"/><path d="M172.24 152.45zm6.73-.33h-.02.02z" fill="#989799"/><path d="M209.48 147.16c-.14 3.62-.69 7.14-1.9 10.44-.93 2.53-2.24 4.93-4.06 7.17-4.92 6.04-11.54 8.15-19.24 7.4-4.64-.45-8.91-1.9-12.67-4.65-4.68-3.42-7.15-8.21-8.92-13.4-.08-.23-.15-.45-.23-.68-1.11-3.42-1.69-6.91-1.06-10.51.58-3.25 2.59-5.51 5.31-7.29 3.3-2.15 7.07-2.88 10.91-3.28 7.3-.75 14.58-.58 21.77 1.07 4.26.99 7.53 3.08 9.13 7.17 0 0 .02.06.06.16l.08.22c.07.18.11.34.13.48.13.44.28 1.03.41 1.71.13.47.21.96.22 1.47.09.8.13 1.66.06 2.52zm-68.47 6.28c-.2.6-.4 1.19-.62 1.77-1.74 4.77-4.18 9.13-8.53 12.31-3.76 2.75-8.04 4.2-12.67 4.65-7.7.75-14.33-1.36-19.24-7.4-2.14-2.62-3.57-5.48-4.51-8.49-.9-2.91-1.33-5.98-1.45-9.12-.07-.86-.03-1.72.06-2.52.01-.51.08-1 .22-1.47.13-.68.28-1.27.4-1.71.03-.14.07-.3.13-.48l.09-.22c.03-.1.05-.16.05-.16h.01c1.59-4.09 4.87-6.18 9.12-7.17 7.2-1.65 14.47-1.82 21.78-1.07 3.84.4 7.61 1.13 10.91 3.28 2.72 1.78 4.73 4.04 5.3 7.29.64 3.6.06 7.09-1.05 10.51zm77.12-16.74c-.09-1.63-.22-1.8-1.89-2.17-.84-.18-1.68-.37-2.52-.56-4.52-1.01-9.02-2.07-13.57-2.91-12.54-2.31-24.97-2.95-36.81 3.08-1.96.99-4.05 1.18-6.27.73-1.77-.36-3.55-.58-5.34-.6-1.78.02-3.57.24-5.33.6-2.23.45-4.31.26-6.27-.73-11.84-6.03-24.27-5.39-36.81-3.08-4.3.79-8.56 1.78-12.83 2.74-1.09.25-2.18.5-3.27.73-1.66.37-1.8.54-1.88 2.17-.08 1.5-.19 3.01 1.31 4.03.09.06.14.18.21.27 1.7 1.92 2.95 3.98 3.63 6.37.21.74.38 1.5.48 2.31.32 2.58.9 5.1 1.75 7.53.88 2.5 2.06 4.9 3.57 7.17 3.81 5.73 9.25 9.24 16.18 10.06 11.23 1.33 20.41-2.38 26.88-11.61a49.85 49.85 0 0 0 3.92-6.62c1.52-3.08 2.7-6.31 3.5-9.7.14-.6.04-1.34-.21-1.91-1.07-2.38-.26-4.19 2.33-4.79.94-.23 1.89-.35 2.84-.37.95.02 1.9.14 2.85.37 2.59.6 3.4 2.41 2.33 4.79-.26.57-.35 1.31-.21 1.91.69 2.94 1.67 5.76 2.9 8.47 1.25 2.73 2.77 5.35 4.52 7.85 6.47 9.23 15.64 12.94 26.88 11.61 6.93-.82 12.37-4.33 16.18-10.06 1.22-1.84 2.22-3.76 3.03-5.75 1.15-2.87 1.9-5.87 2.29-8.95.2-1.57.61-3 1.22-4.33.71-1.56 1.69-2.99 2.88-4.35l.22-.27c1.49-1.02 1.38-2.53 1.31-4.03zm-11.59 119.99c-55.67 32.59-92.6 7.55-104.17-2.59.17-.29.35-.55.54-.8 1.09-1.65 2.24-3.17 3.41-4.55.35-.37.66-.76 1.01-1.11.31-.37.64-.72.99-1.07.31-.33.68-.68.99-.99.33-.33.68-.63.98-.92.66-.62 1.36-1.2 2.02-1.71.29-.25.6-.49.93-.7 6.58 6.28 19.5 16.23 36.17 17.74h9.09v-.05c10.86-1.09 22.96-6.09 35.74-17.61h.02c.84.64 1.71 1.36 2.57 2.14.29.25.56.52.86.78.31.29.64.6.95.95.25.21.45.41.64.64.43.45.88.94 1.32 1.46.22.25.47.49.65.76.99 1.15 1.98 2.41 2.9 3.79.4.57.79 1.17 1.16 1.79.41.65.82 1.35 1.23 2.05z" fill="#fff"/><path d="M215.14 285.02l-5.62 1.34c-2.55.62-4.36 2.9-4.36 5.54v8.66H102.17v-8.66c0-2.64-1.81-4.92-4.38-5.54l-5.6-1.34c.18-1.48.37-2.9.62-4.28.41-2.61.92-5.08 1.54-7.38.64-2.74 1.42-5.27 2.3-7.61.17-.48.35-.95.52-1.4.22-.52.41-1.01.64-1.5.18-.5.39-.97.63-1.45.39-.96.87-1.87 1.3-2.75a57.86 57.86 0 0 1 2.47-4.3l.16-.25c11.57 10.14 48.5 35.18 104.17 2.59.35.64.72 1.3 1.07 1.96a61.69 61.69 0 0 1 2.57 5.7c.17.45.37.92.54 1.4.86 2.34 1.64 4.87 2.3 7.61.62 2.3 1.13 4.77 1.55 7.38.22 1.38.41 2.8.57 4.28z" fill="#aeb736"/><path d="M222.59 92.11c-2.83-7.72-10.65-16.67-21.73-25.43-14.08-11.11-22.93-8.82-34.58-8.51 0 0-.04.07-.1.19-5.12-.97-32.63-5.78-49-.46-18.1 5.89-32.91 16-43.37 43.14-10.45 27.13-1.87 49.35.15 58.84 6.43 30.03 37.24 49.04 37.24 49.04s-7.78-8.02-11.26-16.01c-2.69-6.21-6.73-16.87-6.73-32.56 0-6.27 2.81-13.13 6.18-19.11 2.44-5.94 6.15-11.35 11.23-15.8l.18-.21-.07.11c.45-.39.88-.8 1.35-1.18 15.7-12.51 37.21-14.98 56.69-9.07.35-.83.68-5.29 1-6.2.42-1.2.66-2.3.82-3.38l19.99 25.39c.94 1.11 2.47 2.97 4.25 5.39 5.19 7.03 12.35 18.56 12.35 28.59 0 15.69-4.03 26.35-6.73 32.55-3.48 8-11.26 16.02-11.26 16.02s.42-.26 1.14-.74c64.2-41.33 44.58-97.22 32.26-120.6z" fill="#fcba13"/></g></svg>