<svg viewBox="0 0 300 301" xmlns="http://www.w3.org/2000/svg" fill-rule="evenodd" clip-rule="evenodd" stroke-linejoin="round" stroke-miterlimit="1.414"><g fill-rule="nonzero"><path fill="#5ba6ac" d="M.04.48h299.359v299.7H.04z"/><path d="M223.72 203.26c2.2 2.18 11.36 5.39 11.36 5.39s-5.93-2.21-7.92-10.6c-.73-3.06-1.09-4.8-1.16-6.03h-1.31c4.61-5.72 7.2-12.1 7.2-18.85 0-8.74-2.74-16.82-10.23-23.67.26 1.97-1.42 6.04-1.42 8.07 0 20.64-13.81 36.09-34.34 44.74.96-2.27 1.53-4.88 1.53-7.7 0-5.25-1.92-9.88-4.85-12.66-4.81-6.18-14.55-.95-25.82-.94-11.26-.01-21-5.24-25.82.94-2.93 2.78-4.85 7.41-4.85 12.66 0 2.82.58 5.43 1.53 7.7-20.52-8.65-34.33-24.1-34.33-44.74 0-2.03-1.69-6.1-1.43-8.07-7.48 6.85-10.23 14.93-10.23 23.67 0 6.75 2.59 13.13 7.21 18.85h-1.32c-.06 1.23-.43 2.97-1.16 6.03-1.99 8.39-7.91 10.6-7.91 10.6s9.15-3.21 11.36-5.39c1.07-1.05 3.93-3.98 4.79-4.87l.07.08c-.5.96-1.71 4.09-.02 10.11 2.21 7.87 11.28 13.17 11.28 13.17s-5.43-6.26-3.93-13.1c0 0-.32 2.74 8.52 10.37 8.45 7.3 23.88 16.13 25.23 16.22-.12-.23 6.17-7.13 6.06-10.23 6.45 1.61 6.72.92 13.71.92.41 0 .83-.02 1.24-.02.42 0 .83.02 1.24.02 6.99 0 7.26.69 13.71-.92-.11 3.1 6.18 11.89 6.06 12.13 1.35-.09 16.78-10.82 25.23-18.12 8.84-7.63 8.52-10.37 8.52-10.37 1.51 6.84-3.93 13.1-3.93 13.1s9.07-5.3 11.29-13.17c1.69-6.02.48-9.15-.02-10.11l.06-.08c.86.89 3.72 3.82 4.8 4.87z" fill="#231f20"/><path d="M156.78 187.56v112.62H96.07c-.99-.39-1.48-.6-1.48-.6 0-7.9.63-14.83 1.72-20.92.93-5 2.14-9.47 3.58-13.4 3.21-8.76 7.51-15.04 11.94-19.54 1.46-1.48 2.94-2.78 4.38-3.89 2.45-1.89 4.83-3.31 6.98-4.34 1.11-.56 2.16-1.01 3.12-1.36.33-.12.64-.25.95-.35.37-.12.7-.22 1.03-.33.92-.29 1.68-.49 2.26-.59.76-.19 1.19-.23 1.19-.23.23 0 .44-.02.66-.06 1.92-.31 3.46-1.98 4.71-4.63.93-1.98 1.71-4.51 2.33-7.41.25-1.15.45-2.28.66-3.54.28-2.07.57-4.26.84-6.54.08-1.38.23-2.72.39-4.16.54-6.89.68-14.44.68-21.58 0 0 8.17.85 14.77.85z" fill="#e0bd9a"/><path d="M219.25 299.58s-.54.21-1.44.6h-61.03V187.56h.17c6.56 0 14.81-.85 14.81-.85 0 7.1.14 14.53.7 21.44.14 1.34.29 2.72.39 4.05.25 2.39.54 4.61.89 6.71v.04c.1.95.28 1.79.45 2.68.6 2.92 1.32 5.51 2.2 7.57 1.09 2.57 2.43 4.36 4.03 5.08.52.23 1.05.35 1.63.35 0 0 .29.04.8.14.84.17 2.28.5 4.14 1.18.28.1.57.2.88.33.17.06.33.12.49.2.44.17.87.37 1.32.58 2.26 1.03 4.86 2.49 7.57 4.54 1.03.77 2.06 1.63 3.11 2.58v.02c4.98 4.54 9.98 11.23 13.58 21.06 1.4 3.81 2.59 8.11 3.5 12.9 1.15 6.22 1.81 13.32 1.81 21.42z" fill="#efd0ad"/><path d="M173.93 218.7v.05c-1.53 2.36-6.67 9.16-16.85 9.16h-.1c-9.63-.05-15.27-7.04-16.7-9.11.3-2.07.59-4.24.84-6.51.1-1.33.25-2.71.4-4.14 4.69 1.19 9.83 1.93 15.26 2.02h.2c5.64-.09 10.82-.88 15.67-2.16.14 1.33.29 2.71.39 4.04.25 2.36.55 4.58.89 6.65z" fill="#be987f"/><path d="M156.29 59.22c-64.34 0-64.68 53.95-61.82 89.27-4.39-8.37-17.49-5.81-16.4 7.39 1.04 12.71 19.74 19.19 19.22 17.79 9.74 26.12 35.53 45.82 59 45.82h.49V59.22h-.49z" fill="#d2a686"/><path d="M82.17 150.32c3.16-5.13 8.1-2.91 9.29-1.78 1.29 1.23 2.32 2.81 1.53 5.82-.44 1.72-2.22 1.87-1.83 4.43.5 2.91 1.83 3.05 2.62 3.74.74.64 1.68 1.14 2.13 2.37.49 1.23.54 2.51.29 3.64-.49 2.07-3.5.4-5.53-.49-1.33-.64-5.58-4.24-6.67-5.42-2.67-3.05-3.95-8.96-1.83-12.31z" fill="#ac8774"/><path d="M156.64 59.22c64.33 0 64.68 53.95 61.86 89.27 4.4-8.37 17.45-5.81 16.36 7.39-.99 12.71-19.74 19.2-19.22 17.79-9.49 26.12-35.53 45.82-59 45.82h-.35l-.15-160.27h.5z" fill="#ddb598"/><path d="M230.76 150.32c-3.17-5.13-8.06-2.91-9.29-1.78-1.29 1.23-2.28 2.81-1.53 5.82.44 1.72 2.22 1.87 1.82 4.43-.49 2.91-1.82 3.05-2.57 3.74-.74.64-1.73 1.14-2.17 2.37-.45 1.23-.54 2.51-.3 3.64.5 2.07 3.51.4 5.54-.49 1.38-.64 5.58-4.24 6.67-5.42 2.72-3.05 3.95-8.96 1.83-12.31z" fill="#ac8774"/><path d="M155.78 74.44c-21.14 0-36.66 6.16-46 18.28-13.09 17-12.6 42.91-7.81 61.54 1.49 5.71 2.28 21.03 3.26 26.65 4.6 25.18 32.32 38.58 50.55 38.58h.5V74.44h-.5z" fill="#e0bd9a"/><path d="M201.74 92.77c-9.29-12.07-24.61-18.23-45.46-18.33v145.05c20.85-.25 45.8-14.93 50.05-38.58 1.04-5.62 1.78-20.94 3.27-26.65 4.84-18.58 5.33-44.44-7.86-61.49z" fill="#efd0ad"/><path d="M152.9 193.77l-.3-.06c.1.02.19.04.3.06zm-.78-.17c-.09-.03-.18-.05-.27-.08l-.01.01s.1.03.28.07z" fill="#bc917b"/><path d="M144.28 174.96c-.25-5.01 9.17-1.83 12.28-1.68 2.45.13 9.92-1.58 10.56-1.14 4.4 2.98-4.65 8.96-10.72 8.96-1.61 0-11.98-3.12-12.12-6.14z" fill="#ddb598"/><path d="M138.32 74.81l-.27.27.04.08c.09-.13.14-.26.23-.35z" fill="#432e1b"/><path d="M153.08 190.83l-.31-.06c.1.02.19.04.31.06zm-.81-.18c-.09-.02-.18-.05-.27-.08l-.01.01s.1.03.28.07z" fill="#ba907b"/><path d="M110.13 131.05s4.9 20.2 13.33 21.85c8.43 1.65 17.55-1.63 17.55-1.63s.87-23.73-3.45-26.84c-4.31-3.11-14.25-7.61-27.43 6.62z" fill="#fff"/><path d="M141.02 151.21s-.2.06-.63.24c-.11-7.28-.78-17.28-3.47-19.2-4.01-2.94-13.05-7.08-25.14 4.24-1.1-3.13-1.65-5.5-1.65-5.5 13.21-14.26 23.16-9.77 27.44-6.65 4.32 3.11 3.45 26.87 3.45 26.87z" fill="#d6b496"/><path d="M136.03 140.93c0 4.59-3.71 8.31-8.3 8.31-4.58 0-8.29-3.72-8.29-8.31 0-4.6 3.71-8.32 8.29-8.32 4.59 0 8.3 3.72 8.3 8.32z" fill="#482315"/><path d="M127.35 146.47c-2.4-.2-4.23-2.63-4.02-5.29.22-2.67 2.43-4.75 4.82-4.55 2.4.2 4.23 2.62 4.02 5.28-.22 2.67-2.43 4.76-4.82 4.56z" fill="#7e3a22"/><path d="M127.56 145.5c-1.67-.14-3.4-1.97-3.22-4.23.19-2.27 2.19-3.8 3.86-3.66 1.67.14 3.39 1.98 3.21 4.24-.18 2.27-2.19 3.79-3.85 3.65z" fill="#211a10"/><path d="M126.21 139.93c-.07.82-.91 1.41-1.87 1.33-.96-.08-1.68-.81-1.61-1.62.07-.82.9-1.42 1.85-1.34.97.08 1.69.81 1.63 1.63zm5.37 4.72c-.03.41-.45.71-.93.67-.48-.04-.84-.41-.81-.81.04-.41.46-.71.93-.67.48.04.85.4.81.81z" fill="#fff"/><path d="M153.21 193.21l-.31-.06c.1.02.19.04.31.06zm-.8-.18c-.1-.02-.19-.05-.28-.07h-.01s.11.03.29.07z" fill="#ba907b"/><path d="M152.83 192.64c-.11-.02-.22-.04-.33-.07.11.03.21.05.33.07zm-.86-.19c-.1-.03-.2-.06-.3-.08h-.01l.31.08zm.62-.65c-.12-.02-.23-.05-.34-.07.11.02.21.04.34.07zm-.87-.19l-.29-.09-.02.01.31.08zm1.64.07l-.33-.06c.11.02.2.04.33.06zm-.84-.18c-.1-.03-.19-.06-.29-.08h-.01l.3.08z" fill="#bc917b"/><path d="M202.94 130.37s-4.91 20.2-13.34 21.85c-8.43 1.64-17.55-1.63-17.55-1.63s-.87-23.74 3.45-26.84c4.31-3.12 14.25-7.62 27.44 6.62z" fill="#fff"/><path d="M172.04 150.52s.2.06.63.24c.11-7.28.78-17.28 3.47-19.2 4.01-2.94 13.05-7.08 25.14 4.25 1.1-3.13 1.65-5.51 1.65-5.51-13.21-14.26-23.16-9.77-27.44-6.65-4.32 3.12-3.45 26.87-3.45 26.87z" fill="#d6b496"/><path d="M177.03 140.24c0 4.59 3.72 8.32 8.3 8.32s8.29-3.73 8.29-8.32c0-4.6-3.71-8.32-8.29-8.32-4.58 0-8.3 3.72-8.3 8.32z" fill="#482315"/><path d="M185.71 145.78c2.4-.2 4.24-2.62 4.02-5.29-.22-2.66-2.42-4.75-4.82-4.55-2.4.2-4.23 2.62-4.02 5.29.22 2.66 2.43 4.75 4.82 4.55z" fill="#7e3a22"/><path d="M185.5 144.82c1.67-.14 3.4-1.98 3.22-4.24-.19-2.27-2.19-3.8-3.86-3.66-1.67.14-3.39 1.99-3.21 4.25.19 2.26 2.19 3.79 3.85 3.65z" fill="#211a10"/><path d="M186.85 139.24c.07.82.91 1.42 1.87 1.34.96-.08 1.68-.81 1.62-1.63-.07-.82-.9-1.41-1.86-1.34-.97.08-1.69.81-1.63 1.63zm-5.37 4.73c.03.4.45.7.93.66.48-.03.84-.4.81-.81-.04-.41-.45-.71-.93-.66-.48.03-.85.4-.81.81z" fill="#fff"/><path d="M146.07 130.73c-.07-.1-1.6-2.43-4.72-4.83-1.96-1.51-3.88-2.66-5.87-3.51a30.548 30.548 0 0 0-7.55-2.09c-2.29-.25-4.82-.19-7.77.21-2.25.43-4.45 1.11-6.32 1.93-1.33.46-2.38 1.11-3.23 1.63-.32.2-.61.38-.91.54l-4.03 2.53 4.64-1.09c.22-.05.45-.11.7-.18.96-.26 2.16-.57 3.56-.78.33-.05.66-.11 1-.18.58-.12 1.19-.24 1.82-.27.7-.05 1.43-.1 2.18-.15l.97-.07c2.57-.04 4.74.16 6.67.6 2.11.37 4.27 1.05 6.26 1.97 1.87.9 3.67 1.8 5.08 2.83 2.83 1.9 4.41 3.48 4.42 3.49.39.4.91.6 1.43.6.38 0 .77-.11 1.1-.33.93-.61 1.2-1.87.6-2.79l-.03-.06zm57.69-6.14c-.26-.14-.56-.32-.88-.52-.84-.52-1.89-1.17-3.19-1.61-1.9-.84-4.1-1.52-6.38-1.95-2.93-.4-5.46-.46-7.75-.21-2.52.35-5.12 1.07-7.55 2.09-1.96.84-3.93 2.02-5.86 3.51-3.07 2.36-4.6 4.65-4.71 4.83l-.03.04c-.52.8-.41 1.87.26 2.54.38.39.89.6 1.43.6.54 0 1.04-.21 1.42-.6l.02-.01c.15-.15 1.68-1.65 4.43-3.49 1.38-1.02 3.18-1.92 5.05-2.81 1.99-.93 4.16-1.61 6.29-1.98 1.9-.44 4.08-.63 6.61-.61l1.02.08c.75.05 1.47.1 2.18.15.62.03 1.22.15 1.81.27.34.07.67.13 1 .18 1.4.21 2.59.52 3.55.78.25.07.49.13.71.18l4.63 1.1-4.06-2.56z" fill="#030405"/><path d="M151.75 195.61zm-.84-.19c-.1-.03-.19-.06-.29-.08h-.01l.3.08z" fill="#be927b"/><path d="M144.39 199.77c-.24-3.24 9.02.68 12.06.78 2.42.08 9.71-.48 10.38-.74 5.1-1.91-.27 5.43-10.53 5.81-4.7.19-11.77-3.88-11.91-5.85z" fill="#f0d2ad"/><path d="M174.54 193.51c-2.52-.12-5.1 1.98-8.12 1.66-.13-.06-.19-.06-.32-.06-.69-.13-1.38 0-2.13.18-.94.2-1.89.58-2.78.89-1.51.49-3.21.89-4.96.75v.02l-.1-.02-.1.02v-.02c-1.75.14-3.45-.26-4.96-.75-.89-.31-1.84-.69-2.78-.89-.75-.18-1.44-.31-2.13-.18-.13 0-.2 0-.32.06-3.02.32-5.6-1.78-8.12-1.66-.69.06-1.7-.12-2.26-.12.12.06.25.12.38.18 7.16 3.51 13.35 10.07 20.19 9.86h.2c6.84.21 13.03-6.35 20.19-9.86.13-.06.26-.12.38-.18-.56 0-1.57.18-2.26.12z" fill="#dcbf9e"/><path d="M176.64 193.31s-7.28-2.81-12.47-1.16c0 0-1.93.75-3.92 1.21-1.22.48-2.69.62-4.12.56-1.09-.04-2.13-.18-2.98-.33-.28-.05-.56-.1-.85-.17-.13-.02-.22-.04-.33-.07-.17-.04-.34-.07-.51-.11l-.3-.08.01-.01c-1.66-.45-3.08-1-3.08-1-5.19-1.65-12.47 1.16-12.47 1.16l-.16.08c.56 0 1.57.18 2.26.12 2.52-.12 5.1 1.98 8.12 1.66.12-.06.19-.06.32-.06.69-.13 1.38 0 2.13.18.94.2 1.89.58 2.78.89 1.51.49 3.21.89 4.96.75v.02l.1-.02.1.02v-.02c1.75.14 3.45-.26 4.96-.75.89-.31 1.84-.69 2.78-.89.75-.18 1.44-.31 2.13-.18.13 0 .19 0 .32.06 3.02.32 5.6-1.78 8.12-1.66.69.06 1.7-.12 2.26-.12l-.16-.08z" fill="#c69f83"/><path d="M143.89 195.03c.13.03 13.66 4.16 24.23.09l-1.22-.83h-14.29l-8.72.74z" fill="#c69f83"/><path d="M101.01 150.71c-.9-2.92-1.33-5.98-1.46-9.13l-.03-.59c.39 3.34.93 6.59 1.6 9.68-.03.01-.07.02-.11.04z" fill="#766359"/><path d="M101.12 150.67c-.67-3.09-1.21-6.34-1.6-9.68-.01-.66.02-1.31.09-1.93.02-.5.09-.99.22-1.46.13-.68.29-1.27.41-1.71.02-.15.07-.31.13-.48l.09-.22c.03-.11.05-.16.05-.16h.01c1.59-4.09 4.86-6.19 9.12-7.17 1.55-.35 3.11-.64 4.67-.87-1.36 1.13-2.75 2.46-4.18 4 0 0 .01.02.01.05l-.01.01s2.32 9.59 6.53 16.09c-5.57.7-10.8 1.98-15.54 3.53zm44.84-1.03c-1.64-.52-3.26-.97-4.88-1.35.05-4.12-.02-11.74-.95-17.35 1.83 1.36 2.83 2.36 2.84 2.37.39.4.91.6 1.43.6.38 0 .77-.11 1.1-.33.14-.09.26-.19.37-.31a9.514 9.514 0 0 1 1.76 4.09c.63 3.59.06 7.09-1.06 10.51-.19.59-.4 1.19-.61 1.77z" fill="#7b6c60"/><path d="M140.3 148.11c-2.31-.51-4.6-.89-6.86-1.14a8.35 8.35 0 0 0 2.59-6.04c0-4.6-3.71-8.32-8.3-8.32-4.58 0-8.29 3.72-8.29 8.32 0 2.22.87 4.25 2.29 5.74-1.72.1-3.41.26-5.07.47-4.21-6.5-6.53-16.09-6.53-16.09l.01-.01c.08.33.63 2.57 1.64 5.45 6.07-5.68 11.36-7.47 15.65-7.47 4.25 0 7.49 1.77 9.49 3.23 2.3 1.64 3.12 9.16 3.38 15.86z" fill="#858285"/><path d="M141.08 148.29l-.78-.18c-.26-6.7-1.08-14.22-3.38-15.86-2-1.46-5.24-3.23-9.49-3.23-4.29 0-9.58 1.79-15.65 7.47a60.518 60.518 0 0 1-1.64-5.45c0-.03-.01-.05-.01-.05 1.43-1.54 2.82-2.87 4.18-4 3.01-.43 6.03-.63 9.07-.63 2.67 0 5.35.16 8.04.43.73.08 1.47.17 2.2.28 1.82.87 3.56 1.74 4.93 2.75.58.39 1.1.76 1.58 1.12.93 5.61 1 13.23.95 17.35z" fill="#77685f"/><path d="M133.44 146.97c-2.55-.29-5.07-.42-7.54-.42h-.05c-1.39 0-2.76.04-4.12.12a8.305 8.305 0 0 1-2.29-5.74c0-4.6 3.71-8.32 8.29-8.32 4.59 0 8.3 3.72 8.3 8.32 0 2.37-1 4.52-2.59 6.04zm-10.08-6.06l-.03.27c-.21 2.66 1.62 5.09 4.02 5.29.11.01.21.01.32.01 1.06 0 2.07-.44 2.86-1.18.04.01.08.02.12.02h.09c.44 0 .81-.28.84-.67a.633.633 0 0 0-.14-.46c.4-.67.66-1.45.73-2.28.21-2.66-1.62-5.08-4.02-5.28-.1-.01-.21-.02-.32-.02-1.29 0-2.5.66-3.34 1.69-.02-.01-.05-.01-.07-.01-.89 0-1.63.58-1.69 1.35-.04.5.21.96.63 1.27z" fill="#35201a"/><path d="M127.67 146.48c-.11 0-.21 0-.32-.01-2.4-.2-4.23-2.63-4.02-5.29l.03-.27c.27.19.61.32.98.35v.01c-.18 2.26 1.55 4.09 3.22 4.23.07.01.14.01.21.01.7 0 1.46-.28 2.09-.78.08.28.34.51.67.57-.79.74-1.8 1.18-2.86 1.18zm3.77-2.29a.923.923 0 0 0-.67-.35h-.07c.38-.56.65-1.23.71-1.99.18-2.26-1.54-4.1-3.21-4.24-.07-.01-.14-.01-.21-.01-.83 0-1.72.39-2.41 1.06-.27-.2-.62-.33-1-.36h-.09c.84-1.03 2.05-1.69 3.34-1.69.11 0 .22.01.32.02 2.4.2 4.23 2.62 4.02 5.28-.07.83-.33 1.61-.73 2.28z" fill="#512f24"/><path d="M127.77 145.51c-.07 0-.14 0-.21-.01-1.67-.14-3.4-1.97-3.22-4.23v-.01c.06.01.12.01.17.01.89 0 1.63-.57 1.7-1.34.04-.5-.21-.96-.63-1.27.69-.67 1.58-1.06 2.41-1.06.07 0 .14 0 .21.01 1.67.14 3.39 1.98 3.21 4.24-.06.76-.33 1.43-.71 1.99h-.01c-.44 0-.81.29-.85.67 0 .07 0 .15.02.22-.63.5-1.39.78-2.09.78z" fill="#1d1916"/><path d="M124.51 141.27c-.05 0-.11 0-.17-.01-.37-.03-.71-.16-.98-.35-.42-.31-.67-.77-.63-1.27.06-.77.8-1.35 1.69-1.35.02 0 .05 0 .07.01h.09c.38.03.73.16 1 .36.42.31.67.77.63 1.27-.07.77-.81 1.34-1.7 1.34zm6.23 4.05h-.09c-.04 0-.08-.01-.12-.02-.33-.06-.59-.29-.67-.57-.02-.07-.02-.15-.02-.22.04-.38.41-.67.85-.67h.08c.28.02.53.16.67.35.1.13.16.29.14.46-.03.39-.4.67-.84.67z" fill="#858285"/><path d="M144.4 133.91c-.52 0-1.04-.2-1.43-.6-.01-.01-1.01-1.01-2.84-2.37-.48-.36-1-.73-1.58-1.12-1.37-1.01-3.11-1.88-4.93-2.75 3.07.45 6.04 1.26 8.7 3 1.41.91 2.62 1.96 3.55 3.2-.11.12-.23.22-.37.31-.33.22-.72.33-1.1.33z" fill="#090b0c"/><path d="M213.15 152.03l-.33-.12c-.16-.06-.33-.12-.49-.19-.03 0-.05-.01-.08-.02-.61-.23-1.24-.45-1.88-.66 1.29-5.77 2.15-12.1 2.32-18.58.55.76 1.02 1.61 1.39 2.57h.01s.02.05.05.16l.09.22c.06.17.11.33.13.48.12.44.27 1.03.41 1.71.13.47.2.96.22 1.46.09.81.12 1.67.06 2.52-.15 3.63-.69 7.14-1.9 10.45z" fill="#7a6960"/><path d="M210.37 151.04c-4.46-1.52-9.38-2.81-14.62-3.62 4.61-6.47 7.19-17.05 7.19-17.05-.01-.01-.02-.01-.02-.02.01-.03.01-.05.01-.05a48.48 48.48 0 0 0-3.51-3.43c1.85.24 3.7.57 5.54.99 3.26.75 5.94 2.15 7.73 4.6-.17 6.48-1.03 12.81-2.32 18.58zm-42.12-2.49c-.07-.23-.15-.46-.22-.68-1.12-3.42-1.69-6.92-1.06-10.51.24-1.36.73-2.54 1.41-3.58.22.09.47.13.72.13.54 0 1.04-.21 1.42-.6l.02-.01c.1-.11.86-.85 2.22-1.9-.77 5.52-.82 12.5-.78 16.32-1.1.21-2.21.45-3.32.72-.01.01-.03.01-.04.01-.07.02-.14.04-.2.05-.06.02-.11.03-.17.05z" fill="#807368"/><path d="M172.75 147.58c.25-6.74 1.08-14.37 3.39-16.02 2-1.46 5.25-3.23 9.5-3.23 4.28 0 9.58 1.79 15.64 7.48 1.01-2.88 1.56-5.12 1.64-5.46 0 .01.01.01.02.02 0 0-2.58 10.58-7.19 17.05-1.74-.26-3.51-.48-5.32-.63a8.305 8.305 0 0 0 3.19-6.55c0-4.6-3.71-8.32-8.29-8.32-4.58 0-8.3 3.72-8.3 8.32 0 2.6 1.19 4.92 3.06 6.45-2.41.16-4.86.44-7.34.89z" fill="#858285"/><path d="M171.98 147.72c-.04-3.82.01-10.8.78-16.32.61-.48 1.35-1.02 2.21-1.59 1.19-.88 2.69-1.67 4.29-2.44 1.29-.27 2.6-.44 3.92-.58 2.69-.27 5.37-.43 8.04-.43 2.74 0 5.48.16 8.2.51 1.14 1 2.31 2.14 3.51 3.43 0 0 0 .02-.01.05-.08.34-.63 2.58-1.64 5.46-6.06-5.69-11.36-7.48-15.64-7.48-4.25 0-7.5 1.77-9.5 3.23-2.31 1.65-3.14 9.28-3.39 16.02-.25.04-.51.09-.77.14z" fill="#77685f"/><path d="M190.43 146.79c-1.93-.15-3.9-.24-5.89-.24h-.04c-1.46 0-2.93.04-4.41.14a8.31 8.31 0 0 1-3.06-6.45c0-4.6 3.72-8.32 8.3-8.32s8.29 3.72 8.29 8.32c0 2.66-1.25 5.03-3.19 6.55zm-7.9-2.17c.79.73 1.8 1.17 2.86 1.17.11 0 .21 0 .32-.01 2.4-.2 4.24-2.62 4.02-5.29l-.03-.27c.42-.31.68-.77.64-1.27-.07-.77-.81-1.34-1.69-1.34h-.08c-.84-1.03-2.05-1.68-3.34-1.68-.11 0-.21 0-.32.01-2.4.2-4.23 2.62-4.02 5.29.07.83.33 1.6.73 2.27-.1.13-.16.3-.14.47.03.38.4.67.84.67.03 0 .06 0 .09-.01.04 0 .08-.01.12-.01z" fill="#35201a"/><path d="M185.39 145.79c-1.06 0-2.07-.44-2.86-1.17.33-.07.59-.3.67-.58.63.5 1.39.79 2.09.79.07 0 .14-.01.21-.01 1.67-.14 3.4-1.98 3.22-4.24.37-.03.71-.16.98-.36l.03.27c.22 2.67-1.62 5.09-4.02 5.29-.11.01-.21.01-.32.01zm-3.77-2.29c-.4-.67-.66-1.44-.73-2.27-.21-2.67 1.62-5.09 4.02-5.29.11-.01.21-.01.32-.01 1.29 0 2.5.65 3.34 1.68h-.09c-.38.03-.73.17-1 .37-.69-.68-1.58-1.07-2.41-1.07-.07 0-.14.01-.21.01-1.67.14-3.39 1.99-3.21 4.25.06.75.33 1.42.71 1.98-.02 0-.05 0-.07.01-.28.02-.52.15-.67.34z" fill="#512f24"/><path d="M185.29 144.83c-.7 0-1.46-.29-2.09-.79.02-.07.02-.15.02-.22-.03-.38-.4-.67-.84-.67h-.02c-.38-.56-.65-1.23-.71-1.98-.18-2.26 1.54-4.11 3.21-4.25.07 0 .14-.01.21-.01.83 0 1.72.39 2.41 1.07-.41.3-.66.77-.63 1.26.07.77.81 1.34 1.7 1.34h.17c.18 2.26-1.55 4.1-3.22 4.24-.07 0-.14.01-.21.01z" fill="#1d1916"/><path d="M188.55 140.58c-.89 0-1.63-.57-1.7-1.34-.03-.49.22-.96.63-1.26.27-.2.62-.34 1-.37h.17c.88 0 1.62.57 1.69 1.34.04.5-.22.96-.64 1.27-.27.2-.61.33-.98.36h-.17zm-6.23 4.06c-.44 0-.81-.29-.84-.67-.02-.17.04-.34.14-.47.15-.19.39-.32.67-.34.02-.01.05-.01.07-.01h.02c.44 0 .81.29.84.67 0 .07 0 .15-.02.22-.08.28-.34.51-.67.58-.04 0-.08.01-.12.01-.03.01-.06.01-.09.01z" fill="#858285"/><path d="M169.1 133.91c-.25 0-.5-.04-.72-.13.96-1.47 2.31-2.67 3.9-3.71 2.16-1.41 4.52-2.21 6.98-2.7-1.6.77-3.1 1.56-4.29 2.44-.86.57-1.6 1.11-2.21 1.59-1.36 1.05-2.12 1.79-2.22 1.9l-.02.01c-.38.39-.88.6-1.42.6z" fill="#090b0c"/><path d="M101.38 151.82c-.13-.37-.25-.74-.37-1.11.04-.02.08-.03.11-.04.09.38.17.77.26 1.15z" fill="#ada19a"/><path d="M121.85 166.74c-6.47 0-12.05-2.27-16.34-7.54-1.86-2.3-3.2-4.77-4.13-7.38-.09-.38-.17-.77-.26-1.15 4.74-1.55 9.97-2.83 15.54-3.53 1.9 2.94 4.18 5.25 6.8 5.76 1.69.33 3.41.47 5.08.47 6.64 0 12.47-2.1 12.47-2.1v-.06h.01s.04-1.13.06-2.92c1.62.38 3.25.83 4.88 1.35-1.74 4.77-4.19 9.13-8.53 12.3-3.76 2.76-8.04 4.2-12.67 4.65-.99.1-1.96.15-2.91.15z" fill="#b0a6a0"/><path d="M128.54 153.37c-1.67 0-3.39-.14-5.08-.47-2.62-.51-4.9-2.82-6.8-5.76 1.66-.21 3.36-.37 5.07-.47a8.24 8.24 0 0 0 6 2.57c2.21 0 4.22-.86 5.71-2.27 2.26.25 4.55.63 6.86 1.14.05 1.15.08 2.27.09 3.34.38-.16.58-.22.62-.24v.06s-5.83 2.1-12.47 2.1z" fill="#b5b4b5"/><path d="M140.39 151.45a98.34 98.34 0 0 0-.09-3.34l.78.18c-.02 1.79-.06 2.92-.06 2.92h-.01c-.04.02-.24.08-.62.24z" fill="#aea49e"/><path d="M127.73 149.24a8.24 8.24 0 0 1-6-2.57c1.36-.08 2.73-.12 4.12-.12h.05c2.47 0 4.99.13 7.54.42a8.278 8.278 0 0 1-5.71 2.27z" fill="#867671"/><path d="M101.12 150.67c4.74-1.55 9.97-2.83 15.54-3.53-5.57.7-10.8 1.98-15.54 3.53z" fill="#96908e"/><path d="M121.73 146.67zm4.17-.12h-.03.03z" fill="#7e7472"/><path d="M208.65 159.72c.28-2.19.59-4.1.95-5.46.27-1.05.53-2.13.77-3.22.64.21 1.27.43 1.88.66.03.01.05.02.08.02.16.07.33.13.49.19l.33.12c-.93 2.53-2.24 4.93-4.06 7.17-.15.18-.29.35-.44.52z" fill="#afa49f"/><path d="M192.75 166.74c-.95 0-1.92-.05-2.91-.15-4.63-.45-8.91-1.89-12.67-4.65-4.67-3.41-7.15-8.2-8.92-13.39.06-.02.11-.03.17-.05.06-.01.13-.03.2-.05.01 0 .03 0 .04-.01 1.11-.27 2.22-.51 3.32-.72.02 1.73.06 2.8.06 2.8s.01 0 .01.01v.06s5.83 2.09 12.47 2.09c1.67 0 3.39-.13 5.08-.46 2.33-.46 4.39-2.33 6.15-4.8 5.24.81 10.16 2.1 14.62 3.62-.24 1.09-.5 2.17-.77 3.22-.36 1.36-.67 3.27-.95 5.46-4.23 4.9-9.65 7.02-15.9 7.02z" fill="#b3aaa4"/><path d="M184.52 152.68c-6.64 0-12.47-2.09-12.47-2.09v-.06c.05.01.24.07.62.23.01-1.02.04-2.09.08-3.18 2.48-.45 4.93-.73 7.34-.89a8.237 8.237 0 0 0 5.24 1.87c1.92 0 3.7-.66 5.1-1.77 1.81.15 3.58.37 5.32.63-1.76 2.47-3.82 4.34-6.15 4.8-1.69.33-3.41.46-5.08.46z" fill="#b5b4b5"/><path d="M172.67 150.76c-.38-.16-.57-.22-.62-.23 0-.01-.01-.01-.01-.01s-.04-1.07-.06-2.8c.26-.05.52-.1.77-.14-.04 1.09-.07 2.16-.08 3.18z" fill="#aea49e"/><path d="M185.33 148.56c-1.99 0-3.81-.7-5.24-1.87 1.48-.1 2.95-.14 4.41-.14h.04c1.99 0 3.96.09 5.89.24a8.194 8.194 0 0 1-5.1 1.77z" fill="#867671"/><path d="M168.42 148.5c.06-.01.13-.03.2-.05-.07.02-.14.04-.2.05zm.24-.06z" fill="#979290"/><path d="M171.98 147.72c.26-.05.52-.1.77-.14-.25.04-.51.09-.77.14z" fill="#948e8d"/><path d="M180.09 146.69zm4.45-.14h-.03.03z" fill="#7e7472"/><path d="M215.05 141.58c-.15 3.63-.69 7.14-1.9 10.45-.93 2.53-2.24 4.93-4.06 7.17-4.92 6.04-11.54 8.14-19.25 7.39-4.63-.45-8.91-1.89-12.67-4.64-4.67-3.42-7.15-8.21-8.92-13.4-.07-.23-.15-.46-.22-.68-1.12-3.42-1.69-6.92-1.06-10.51.57-3.26 2.59-5.52 5.31-7.29 3.3-2.15 7.07-2.88 10.9-3.28 7.31-.75 14.59-.58 21.78 1.07 4.26.98 7.53 3.08 9.12 7.17h.01s.02.05.05.16l.09.22c.06.17.11.33.13.48.12.44.28 1.03.41 1.71.13.47.2.96.22 1.46.09.81.12 1.67.06 2.52zm-68.48 6.29c-.19.59-.4 1.19-.61 1.77-1.74 4.77-4.19 9.13-8.53 12.31-3.76 2.75-8.04 4.19-12.67 4.64-7.71.75-14.33-1.35-19.25-7.39-2.13-2.63-3.57-5.48-4.5-8.49-.9-2.92-1.33-5.98-1.46-9.13-.06-.85-.03-1.71.06-2.52.02-.5.09-.99.22-1.46.14-.68.29-1.27.41-1.71.02-.15.07-.31.13-.48l.09-.22c.03-.11.05-.16.05-.16h.01c1.59-4.09 4.86-6.19 9.12-7.17 7.19-1.65 14.47-1.82 21.78-1.07 3.83.4 7.6 1.13 10.9 3.28 2.72 1.77 4.74 4.03 5.31 7.29.63 3.59.06 7.09-1.06 10.51zm77.12-16.74c-.08-1.63-.22-1.8-1.88-2.17-.84-.18-1.68-.37-2.52-.56-4.52-1.01-9.02-2.08-13.57-2.91-12.55-2.32-24.98-2.95-36.82 3.07-1.95 1-4.04 1.19-6.27.73-1.76-.36-3.55-.57-5.33-.59-1.78.02-3.57.23-5.33.59-2.23.46-4.32.27-6.28-.73-11.83-6.02-24.26-5.39-36.81-3.07-4.3.79-8.55 1.78-12.82 2.74-1.09.25-2.18.49-3.27.73-1.66.37-1.8.54-1.88 2.17-.08 1.5-.19 3.01 1.31 4.03.09.06.13.18.21.26 1.69 1.92 2.94 3.99 3.63 6.38.21.73.37 1.5.47 2.3.33 2.59.9 5.11 1.76 7.54.88 2.5 2.06 4.9 3.56 7.17 3.81 5.73 9.26 9.24 16.18 10.05 11.24 1.33 20.41-2.37 26.88-11.6a49.92 49.92 0 0 0 3.93-6.62c1.52-3.08 2.7-6.32 3.49-9.71.14-.59.05-1.34-.2-1.9-1.07-2.38-.27-4.19 2.33-4.8.94-.22 1.89-.34 2.84-.36.95.02 1.9.14 2.85.36 2.59.61 3.39 2.42 2.32 4.8-.25.56-.34 1.31-.2 1.9.68 2.94 1.66 5.77 2.9 8.48 1.25 2.73 2.77 5.35 4.52 7.85 6.47 9.23 15.64 12.93 26.88 11.6 6.92-.81 12.37-4.32 16.18-10.05 1.22-1.84 2.22-3.76 3.02-5.76 1.16-2.86 1.91-5.86 2.3-8.95.19-1.57.61-2.99 1.22-4.32.71-1.57 1.68-3 2.88-4.36.08-.08.12-.2.21-.26 1.5-1.02 1.39-2.53 1.31-4.03z" fill="#fff"/><path d="M240.68 112.53c-.56-5.43-1.8-10.43-3.39-14.89-.13-.38-.21-.58-.21-.58v.01c-5.01-13.74-13.06-22.23-13.06-22.23v.01c-3.73-4.77-8.94-9.75-15.26-14.7l-.07-.05a292 292 0 0 0-1.83-1.43c-1.4-1.05-2.74-1.96-4.04-2.78-2.49-1.42-5-2.67-7.52-3.79a29 29 0 0 0-1.39-.49c-1.13-.45-2.26-.86-3.41-1.26l-.02-.21c-27.39-10.23-54.88-4.68-67.96-.83l-.02.14c-.72.18-1.45.35-2.13.56-18.7 5.82-34 15.79-44.82 42.57-10.8 26.77-1.93 48.71.16 58.07 6.64 29.63 38.49 48.39 38.49 48.39s-8.04-7.91-11.64-15.8c-2.79-6.13-6.95-16.64-6.95-32.13 0-11.52 10.05-25.07 15.2-31.26 1.05-1.64 2.05-2.84 2.97-3.4 0 0 30.62-42.42 61.79-19.45l20.66 25.05c.98 1.09 2.56 2.93 4.39 5.32 5.37 6.94 12.77 18.32 12.77 28.21 0 15.49-4.17 26-6.96 32.12-3.59 7.9-11.63 15.81-11.63 15.81s.85-.51 2.29-1.47c44.51-28.83 46.54-68.11 43.59-89.51z" fill="#231f20"/><path d="M241.11 118.34c.68-7.21.94-23.22-6-38.77-6.95-15.56-15.23-33.07-32.43-42.52-15.79-8.68-32.72-15.44-47.18-13.48.72-1.38 1.14-2.9 1.14-4.52 0-5.95-5.37-10.77-11.99-10.77s-11.98 4.82-11.98 10.77c0 2.86 1.25 5.43 3.26 7.36-9.61.78-19.62 1.93-32.25 10.55-19.52 13.33-22.77 10.27-35.03 39.29-6.89 16.37-1 29.72-2.31 38.6-1.34 8.89-.67 16.19-.23 22.21 1.39 19.3 23.83 39.89 23.83 39.89-9.62-15.58-12.97-23.43-10.55-35.1.8-3.83 5.12-14.23 4.42-19.5-1.09-8.24 21.46-47.72 38.99-55.22 17.55-7.51 34.23-9.18 45.17-8.06 10.9 1.11 28.42 7.17 38.02 22.73 9.59 15.55 13.74 16.8 14.39 21.52.68 4.72 3.13 10.09 4.24 16.19 1.22 6.69 9.26 20.61 9.26 32.47 0 11.49-11.9 28.44-11.9 28.44s12.12-15.03 14.85-17.6c3.39-3.24 7.02-6.28 8.34-14.34 1.32-8.05-4.72-22.9-4.06-30.14z" fill="#c0524f"/><path d="M84.13 100.52c6.89-19.31 19.94-39.85 31.85-45.4 11.91-5.56 27.79-10.84 44.68-9.18 16.86 1.68 37.39 8.07 44.67 15.57 7.27 7.5 16.88 21.95 17.86 29.17.99 7.23.76 11.31 1.42 15.47.67 4.18 6.22 29.19 6.22 29.19s-10.69-25.12-11.74-29.89c-2.29-10.5-10.82-19.28-16.53-24.95-3.9-3.89-15.2-10.84-15.2-10.84s-7.2-5-28.59-4.48c-31.59.8-41.26 9.71-41.26 9.71s-5.89 4.75-8.66 7.6c-7.31 7.52-19.15 21.34-21.99 33.56-3.18 13.74-5.27 18.46-5.27 18.46s-.49-3.53.35-12.97c.46-5.13-1.01-12.04 2.19-21.02z" fill="#f9ad3a"/><path d="M178.18 182.37c-5.28-1.65-14.31-2.1-20.23-2.21l-.01-.02s-1.1-.02-2.89-.02-2.9.02-2.9.02l-.01.02c-5.91.11-14.94.56-20.22 2.21-8.33 2.61-10.92 12.85-20.56 20.72 0 0 13.27-1.06 21.08-4.18 7.82-3.12 8.79-5.63 19.86-8.98 1.09-.33 1.98-.7 2.75-1.11.77.41 1.65.78 2.74 1.11 11.07 3.35 12.05 5.86 19.86 8.98 7.81 3.12 21.08 4.18 21.08 4.18-9.63-7.87-12.21-18.11-20.55-20.72z" fill="#231f20"/><path d="M204.72 269.38h-95.96c2.92-6.54 6.24-13.93 7.45-27.55 2.45-1.89 4.83-3.31 6.98-4.34 1.11-.56 2.16-1.01 3.12-1.36.33-.12.64-.25.95-.35.37-.12.7-.22 1.03-.33.92-.29 1.68-.49 2.26-.59 6.95 10 19.24 26.25 25.9 26.31h.02c.11 0 .19 0 .31-.02 6.83-.43 19.2-16.62 26.07-26.38.84.17 2.28.5 4.14 1.18.28.1.57.2.88.33.17.06.33.12.49.2.44.17.87.37 1.32.58 2.26 1.03 4.86 2.49 7.57 4.54 1.22 13.79 4.53 21.2 7.47 27.78zm-102.04 30.8H210.8c-.25-4.09-.62-9.87-1-13.66H103.69c-.39 3.79-.75 9.57-1.01 13.66z" fill="#46433f"/><path d="M204.73 269.38h-95.97c-2.22 4.97-4.23 9.46-4.93 15.84-.05.4-.1.84-.14 1.3H209.8c-.05-.46-.09-.9-.14-1.3-.71-6.38-2.71-10.87-4.93-15.84z" fill="#f9ad3a"/></g></svg>