<svg viewBox="0 0 297 301" xmlns="http://www.w3.org/2000/svg" fill-rule="evenodd" clip-rule="evenodd" stroke-linejoin="round" stroke-miterlimit="1.414"><path fill="#a58277" fill-rule="nonzero" d="M.076.365h296.866V300.07H.076z"/><path d="M149.473 186.994v112.271H88.745c-.989-.395-1.482-.594-1.482-.594 0-14.332 2.102-25.505 5.305-34.219 7.73-21.03 21.882-27.709 28.396-29.723 2.137-.661 3.455-.82 3.455-.82.231 0 .446-.021.666-.057 1.912-.307 3.465-1.968 4.711-4.618.927-1.968 1.701-4.48 2.332-7.386.251-1.133.445-2.275.645-3.511a199.8 199.8 0 0 0 .841-6.525c.097-1.384.246-2.716.395-4.151.538-6.868.692-14.388.692-21.507 0 0 8.154.84 14.772.84z" fill="#e0bd9a" fill-rule="nonzero"/><path d="M211.933 298.671s-.543.199-1.435.594h-61.025V186.994h.148c6.571 0 14.828-.84 14.828-.84 0 7.068.144 14.485.687 21.358.149 1.338.298 2.716.395 4.054.251 2.373.549 4.598.892 6.674v.046c.097.943.292 1.784.446 2.67.6 2.922 1.327 5.49 2.204 7.55 1.092 2.563 2.419 4.352 4.029 5.059a3.907 3.907 0 0 0 1.624.344s2.338.282 5.838 1.655c7.151 2.799 19.16 10.144 26.059 28.888 3.203 8.714 5.31 19.887 5.31 34.219z" fill="#efd0ad" fill-rule="nonzero"/><path d="M166.423 218.03v.049c-1.532 2.358-6.671 9.135-16.85 9.135h-.099c-9.635-.049-15.269-7.023-16.702-9.086.297-2.062.593-4.223.841-6.482.098-1.327.246-2.702.395-4.126a67.814 67.814 0 0 0 15.269 2.013h.197a65.498 65.498 0 0 0 15.664-2.16c.148 1.326.297 2.701.395 4.027.248 2.357.544 4.567.89 6.63z" fill="#be987f" fill-rule="nonzero"/><path d="M148.782 59.051c-64.336 0-64.682 53.779-61.816 88.993-4.398-8.349-17.492-5.795-16.405 7.367 1.038 12.671 19.745 19.129 19.222 17.729 9.742 26.043 35.528 45.676 58.999 45.676h.495V59.051h-.495z" fill="#d2a686" fill-rule="nonzero"/><path d="M74.663 149.861c3.162-5.108 8.103-2.898 9.289-1.768 1.285 1.228 2.322 2.799 1.532 5.795-.445 1.719-2.224 1.867-1.828 4.421.494 2.897 1.828 3.044 2.618 3.732.742.639 1.681 1.13 2.125 2.358a6.188 6.188 0 0 1 .297 3.634c-.495 2.063-3.508.393-5.534-.491-1.335-.639-5.584-4.224-6.671-5.403-2.668-3.045-3.953-8.938-1.828-12.278z" fill="#ac8774" fill-rule="nonzero"/><path d="M149.128 59.051c64.336 0 64.682 53.779 61.865 88.993 4.398-8.349 17.444-5.795 16.356 7.367-.988 12.671-19.733 19.133-19.221 17.729-9.491 26.043-35.528 45.676-59 45.676h-.346l-.148-159.765h.494z" fill="#ddb598" fill-rule="nonzero"/><path d="M223.248 149.861c-3.162-5.108-8.054-2.898-9.29-1.768-1.284 1.228-2.272 2.799-1.531 5.795.444 1.719 2.223 1.867 1.828 4.421-.495 2.897-1.828 3.044-2.569 3.732-.742.639-1.73 1.13-2.175 2.358-.445 1.227-.543 2.504-.296 3.634.494 2.063 3.508.393 5.534-.491 1.384-.639 5.584-4.224 6.671-5.403 2.717-3.045 3.953-8.938 1.828-12.278z" fill="#ac8774" fill-rule="nonzero"/><path d="M148.276 74.226c-21.149 0-36.665 6.14-46.003 18.222-13.095 16.944-12.601 42.778-7.808 61.342 1.483 5.697 2.273 20.972 3.261 26.57 4.596 25.097 32.317 38.456 50.55 38.456h.494V74.226h-.494z" fill="#e0bd9a" fill-rule="nonzero"/><path d="M194.23 92.497c-9.289-12.033-24.607-18.172-45.46-18.271v144.59c20.853-.245 45.806-14.881 50.056-38.456 1.037-5.598 1.779-20.873 3.262-26.57 4.842-18.516 5.336-44.3-7.858-61.293z" fill="#efd0ad" fill-rule="nonzero"/><path d="M148.963 190.456h.001-.001zm-3.567 2.729c-.102-.022-.202-.041-.303-.065.099.022.186.041.303.065zm-.785-.175c-.094-.025-.178-.051-.27-.076l-.01.004s.104.029.28.072zm4.352-.017h.001-.001z" fill="#bc917b" fill-rule="nonzero"/><path d="M136.831 174.428c-.244-4.997 9.178-1.826 12.285-1.67 2.454.126 9.923-1.574 10.564-1.136 4.393 2.962-4.654 8.928-10.721 8.928-1.616 0-11.981-3.109-12.128-6.122z" fill="#ddb598" fill-rule="nonzero"/><path d="M130.809 74.588l-.268.267.045.089c.089-.134.133-.267.223-.356z" fill="#432e1b" fill-rule="nonzero"/><path d="M149.235 193.012h.001-.001zm-3.664-2.76c-.104-.022-.207-.043-.311-.067.102.023.192.042.311.067zm-.806-.18c-.096-.025-.182-.052-.277-.078l-.01.004s.107.03.287.074zm4.47-.017h.001-.001z" fill="#ba907b" fill-rule="nonzero"/><path d="M102.617 130.661s4.908 20.135 13.335 21.778c8.426 1.643 17.547-1.623 17.547-1.623s.872-23.664-3.443-26.756c-4.311-3.105-14.25-7.593-27.439 6.601z" fill="#fff" fill-rule="nonzero"/><path d="M133.51 150.754s-.193.055-.627.236c-.107-7.258-.778-17.228-3.472-19.137-4.007-2.933-13.052-7.062-25.138 4.229-1.099-3.119-1.65-5.484-1.65-5.484 13.213-14.22 23.16-9.74 27.439-6.633 4.319 3.105 3.448 26.789 3.448 26.789z" fill="#d6b496" fill-rule="nonzero"/><path d="M128.52 140.501a8.294 8.294 0 1 1-16.586-.002 8.294 8.294 0 0 1 16.586.002z" fill="#482315" fill-rule="nonzero"/><path d="M119.841 146.023c-2.394-.198-4.234-2.614-4.015-5.272.214-2.656 2.423-4.735 4.819-4.534 2.395.196 4.231 2.611 4.019 5.268-.218 2.656-2.428 4.74-4.823 4.538z" fill="#7e3a22" fill-rule="nonzero"/><path d="M120.049 145.066c-1.668-.142-3.397-1.972-3.214-4.224.188-2.26 2.189-3.786 3.857-3.649 1.667.141 3.393 1.979 3.209 4.232-.184 2.256-2.189 3.778-3.852 3.641z" fill="#211a10" fill-rule="nonzero"/><path d="M118.699 139.508c-.07.814-.906 1.409-1.864 1.33-.959-.081-1.683-.81-1.618-1.619.07-.818.9-1.413 1.859-1.335.963.078 1.687.806 1.623 1.624zm5.376 4.71c-.035.404-.452.704-.929.663-.482-.037-.842-.405-.811-.809.034-.405.452-.705.929-.664.482.038.846.401.811.81z" fill="#fff" fill-rule="nonzero"/><path d="M149.367 189.971h.001-.001zm-3.664 2.656c-.104-.023-.207-.043-.311-.067.102.023.191.042.311.067zm-.806-.18c-.096-.025-.183-.052-.277-.078l-.01.004s.107.029.287.074zm4.47-.017h.001-.001z" fill="#ba907b" fill-rule="nonzero"/><path d="M145.326 192.058c-.112-.024-.222-.046-.334-.071.11.024.206.045.334.071zm-.864-.193c-.103-.027-.196-.056-.297-.083l-.011.005s.115.031.308.078zm.616-.649c-.112-.024-.223-.046-.334-.071l.334.071zm-.864-.193c-.103-.027-.196-.056-.297-.083l-.011.004s.115.032.308.079zm5.431-2.479h.001-.001zm-3.797 2.557c-.108-.023-.215-.044-.322-.069.106.024.199.043.322.069zm-.835-.187c-.099-.025-.189-.054-.287-.08l-.01.004s.111.031.297.076zm4.632-.017h.001-.001z" fill="#bc917b" fill-rule="nonzero"/><path d="M195.428 129.975s-4.908 20.136-13.335 21.779c-8.427 1.642-17.547-1.624-17.547-1.624s-.871-23.663 3.443-26.755c4.311-3.105 14.251-7.593 27.439 6.6z" fill="#fff" fill-rule="nonzero"/><path d="M164.535 150.068s.193.056.626.237c.108-7.258.779-17.227 3.473-19.137 4.007-2.933 13.052-7.062 25.138 4.229 1.099-3.119 1.65-5.484 1.65-5.484-13.213-14.22-23.161-9.74-27.439-6.633-4.32 3.105-3.448 26.788-3.448 26.788z" fill="#d6b496" fill-rule="nonzero"/><path d="M169.524 139.815a8.294 8.294 0 1 0 16.588 0 8.294 8.294 0 0 0-16.588 0z" fill="#482315" fill-rule="nonzero"/><path d="M178.203 145.338c2.396-.198 4.235-2.614 4.016-5.272-.214-2.657-2.422-4.736-4.819-4.534-2.395.196-4.231 2.61-4.02 5.267.219 2.658 2.429 4.74 4.823 4.539z" fill="#7e3a22" fill-rule="nonzero"/><path d="M177.996 144.38c1.668-.142 3.397-1.971 3.213-4.223-.187-2.26-2.188-3.786-3.856-3.649-1.668.142-3.393 1.979-3.209 4.232.183 2.255 2.189 3.778 3.852 3.64z" fill="#211a10" fill-rule="nonzero"/><path d="M179.346 138.823c.07.814.906 1.409 1.863 1.33.96-.081 1.684-.81 1.619-1.619-.07-.818-.901-1.414-1.859-1.335-.963.078-1.687.806-1.623 1.624zm-5.377 4.71c.036.404.453.704.93.663.482-.038.842-.404.811-.81-.034-.404-.452-.704-.929-.663-.482.037-.846.401-.812.81z" fill="#fff" fill-rule="nonzero"/><path d="M138.559 130.34c-.063-.099-1.592-2.423-4.719-4.82-1.959-1.503-3.878-2.646-5.869-3.498a30.399 30.399 0 0 0-7.551-2.081c-2.284-.254-4.815-.187-7.769.211-2.254.429-4.452 1.1-6.319 1.922-1.331.458-2.382 1.102-3.227 1.62-.323.199-.616.378-.913.538l-4.025 2.53 4.638-1.089c.217-.055.45-.116.702-.183.959-.254 2.154-.571 3.554-.776.328-.048.661-.115 1.002-.183.583-.115 1.187-.236 1.819-.266.702-.047 1.431-.099 2.18-.153l.974-.07c2.569-.032 4.739.162 6.667.607a25.364 25.364 0 0 1 6.258 1.963c1.876.897 3.673 1.787 5.076 2.817 2.834 1.891 4.41 3.468 4.426 3.484a2.016 2.016 0 0 0 2.53.267c.933-.612 1.195-1.871.602-2.779l-.036-.061zm57.697-6.127c-.266-.141-.559-.321-.884-.519-.844-.518-1.894-1.162-3.186-1.604-1.905-.838-4.104-1.509-6.386-1.943-2.928-.394-5.459-.46-7.752-.205a30.42 30.42 0 0 0-7.543 2.081c-1.963.84-3.937 2.016-5.866 3.497-3.07 2.353-4.597 4.637-4.712 4.812l-.028.042a2.042 2.042 0 0 0 .263 2.539c.381.384.888.596 1.428.596h.001a1.996 1.996 0 0 0 1.425-.597l.017-.017c.149-.148 1.68-1.645 4.427-3.48 1.382-1.014 3.181-1.905 5.05-2.801a25.564 25.564 0 0 1 6.294-1.971c1.9-.439 4.074-.629 6.61-.602l1.022.073c.743.052 1.465.104 2.171.152.623.029 1.226.15 1.81.265.341.068.673.135 1 .183 1.401.205 2.596.522 3.556.776.251.067.485.129.708.184l4.636 1.09-4.061-2.551z" fill="#030405" fill-rule="nonzero"/><path d="M144.246 195.01c-.109-.023-.217-.044-.325-.069.107.024.2.044.325.069zm-.842-.188c-.101-.026-.192-.054-.29-.081l-.011.005s.112.03.301.076z" fill="#be927b" fill-rule="nonzero"/><path d="M136.883 199.164c-.244-3.237 9.016.678 12.056.772 2.426.082 9.713-.48 10.386-.736 5.094-1.906-.278 5.411-10.536 5.796-4.7.188-11.767-3.868-11.906-5.832z" fill="#f0d2ad" fill-rule="nonzero"/><path d="M167.028 192.923c-2.513-.123-5.095 1.971-8.118 1.651-.123-.061-.185-.061-.314-.061-.694-.123-1.383 0-2.139.184-.94.197-1.887.579-2.771.886-1.512.492-3.214.886-4.967.75v.012l-.097-.011-.098.011v-.012c-1.752.136-3.455-.258-4.966-.75-.885-.307-1.832-.689-2.772-.886-.756-.184-1.444-.307-2.139-.184-.129 0-.19 0-.314.061-3.023.32-5.604-1.774-8.118-1.651-.695.061-1.703-.123-2.268-.123.123.061.252.123.381.184 7.166 3.493 13.349 10.037 20.196 9.828h.195c6.847.209 13.031-6.335 20.196-9.828.129-.061.258-.123.382-.184-.566 0-1.574.184-2.269.123z" fill="#dcbf9e" fill-rule="nonzero"/><path d="M169.134 192.723s-7.286-2.806-12.469-1.16c0 0-1.929.753-3.928 1.211-1.216.474-2.689.611-4.115.554a22.83 22.83 0 0 1-2.978-.33 15.22 15.22 0 0 1-.854-.163l-.325-.069c-.175-.041-.345-.074-.518-.119-.188-.046-.3-.077-.3-.077l.011-.004c-1.658-.449-3.08-1.003-3.08-1.003-5.182-1.646-12.469 1.16-12.469 1.16-.1.046-.162.077-.162.077.565 0 1.573.184 2.268.123 2.514-.123 5.095 1.971 8.118 1.651.124-.061.185-.061.314-.061.695-.123 1.383 0 2.139.184.94.197 1.887.579 2.772.886 1.511.492 3.214.886 4.966.75v.012l.098-.011.097.011v-.012c1.753.136 3.455-.258 4.967-.75.884-.307 1.831-.689 2.771-.886.756-.184 1.445-.307 2.139-.184a.57.57 0 0 1 .314.061c3.023.32 5.605-1.774 8.118-1.651.695.061 1.703-.123 2.268-.123 0 0-.062-.031-.162-.077z" fill="#c69f83" fill-rule="nonzero"/><path d="M136.383 194.433c.133.033 13.654 4.15 24.229.089l-1.218-.819H145.1l-8.717.73z" fill="#c69f83" fill-rule="nonzero"/><path d="M211.919 300.07H86.523c.016-3.49.146-6.8.375-9.938.348-4.88.94-9.342 1.723-13.422 8.023-41.765 36.245-43.847 36.245-43.847l24.222 16.298 24.798-16.364c24.444 5.644 33.369 26.815 36.533 43.913.924 4.981 1.353 9.616 1.538 13.422.288 5.995-.038 9.938-.038 9.938z" fill="#3a2f34" fill-rule="nonzero"/><path d="M167.631 222.405c-.322 3.336-3.445 12.737-9.903 18.166-4.279 3.59-7.186 5.916-7.96 7.238h-.052c-.77-1.322-3.675-3.648-7.953-7.238-6.459-5.429-9.584-14.83-9.907-18.166-4.052 3.578-9.409 17.426-9.409 17.426.04-.049.114 0 .212.137.131.186.315.553.542 1.07.14.326.299.706.475 1.148.199.504.418 1.082.66 1.727l.002.005.175.476.006.019c.07.188.142.38.214.578a309.577 309.577 0 0 1 1.703 4.846l.008.025.239.692v.006a660.888 660.888 0 0 1 1.543 4.578l.02.062c.084.246.166.494.248.744l.039.111.244.74.044.126c.082.245.163.493.243.741l.052.149.239.739.046.133c.349 1.053.704 2.14 1.067 3.247l.099.312.204.624.116.353.191.585.148.456c.055.176.116.355.171.533.052.155.104.31.152.462.059.191.123.377.183.565l.021.063-2.083 2.089 12.931 32.088h14.286l14.709-28.915-4.133-4.418.141-.428c.05-.16.101-.32.155-.479.06-.188.12-.374.179-.565.052-.152.104-.307.152-.462.06-.178.116-.357.173-.533.051-.153.098-.306.15-.456.06-.195.128-.389.188-.585.04-.116.077-.234.115-.353.068-.209.136-.418.206-.624l.097-.312c.365-1.107.718-2.194 1.07-3.247l.043-.133c.08-.249.162-.493.243-.739l.05-.149.246-.741.039-.126c.084-.248.164-.496.248-.74l.036-.111.247-.744.02-.062a564.368 564.368 0 0 1 1.546-4.578l.002-.006c.079-.233.155-.464.237-.692l.006-.025c.63-1.829 1.2-3.458 1.703-4.846.071-.198.144-.39.214-.578l.005-.019c.06-.163.12-.32.176-.476v-.005c.243-.645.465-1.223.662-1.727.176-.442.335-.822.475-1.148.227-.517.412-.884.544-1.07.097-.137.169-.186.209-.137 0 0-5.352-13.848-9.409-17.426z" fill="#efeeee" fill-rule="nonzero"/><path d="M144.779 300.058l-19.306-67.261-14.94 17.619 4.05 2.61 4.16 3.586 2.336 2.004-2.6 1.521-7.946 4.647s3.302 4.934 7.996 11.926c1.879 2.803 3.99 5.941 6.194 9.228.923 1.378 1.863 2.78 2.813 4.194 2.221 3.305 4.485 6.669 6.677 9.926h8.293l-.067-.21 2.34.21zm10.117 0l19.305-67.261 14.941 17.619-4.05 2.61-4.16 3.586-2.336 2.004 2.6 1.521 7.946 4.647s-3.303 4.934-7.996 11.926c-1.879 2.803-3.99 5.941-6.194 9.228a10870.736 10870.736 0 0 1-9.491 14.12h-8.293l.067-.21-2.339.21z" fill="#fcd372" fill-rule="nonzero"/><path d="M234.236 70.928c2.409-1.468 1.449-5.145-1.37-5.183-2.843-.038-6.396-.58-10.789-1.995-15.895-5.098-15.483-21.732-38.322-31.018-11.657-4.736-18.643-4.141-22.693-2.423.236-.187.487-.361.749-.525 2.297-1.436 1.17-5.075-1.539-5.077-3.753-.001-8.193.531-13.18 2.077-11.281 3.508-18.033 7.493-21.826 10.356l6.334-5.865S108.751 39.164 93.207 55.4c-15.535 16.246-21.492 31.516-21.492 48.688 0 17.167 6.966 34.375 11.532 39.478 4.57 5.109 3.105 12.517 4.47 12.517 0 0 4.578.204 2.135-27.633-.544-6.213-.428-11.761.268-16.659.435-3.062 4.744-3.234 5.477-.23l.089.359c.719 2.846 4.886 2.71 5.413-.177 1.568-8.592 5.835-15.905 9.91-21.236 1.52-1.989 4.682-1.118 4.973 1.369.233 2 .602 3.909 1.047 5.69.733 2.932 4.898 2.741 5.453-.23.627-3.356 1.666-6.516 2.94-9.438.601-1.378 2.171-2.025 3.582-1.503.825.304 1.642.636 2.453.987.914.397 1.515 1.276 1.623 2.267.584 5.367 1.857 10.651 3.35 15.413.931 2.968 5.364 2.401 5.452-.708.062-2.144.271-4.08.602-5.83.382-2.017 2.782-2.906 4.414-1.66 8.291 6.334 23.311 20.071 28.2 39.429.74 2.926 4.943 2.831 5.445-.145 1.845-10.91 1.836-26.52-8.101-40.297-1.61-2.231.579-5.22 3.167-4.283 4.551 1.646 9.249 5.662 12.693 14.267 1.175 2.936 5.516 1.972 5.363-1.186a92.443 92.443 0 0 0-.647-7.385c-.354-2.737 3.151-4.26 4.898-2.125 9.123 11.159 12.74 29.219 11.368 35.888-1.545 7.565-1.425 13.682-.659 18.08.477 2.74 4.3 3.069 5.312.479.08-.205.165-.409.253-.612 4.911-11.319 9.035-3.45 9.802-18.807.883-17.962 3.752-24.533 2.83-34.131-.901-9.393-5.581-21.971-5.6-22.02.019.017.218.053 2.248.053 4.234-.01 7.844-1.358 10.766-3.141z" fill="#36393a" fill-rule="nonzero"/><path d="M90.146 150.281c.497-3.674.666-9.672-.098-19.469.396-.503.839-.965 1.322-1.391-.013 6.646.714 13.209 1.92 19.229a59.157 59.157 0 0 0-3.144 1.631z" fill="url(#a)"/><path d="M135.535 150.473a41.223 41.223 0 0 0-.44-.285l-.003-.002-.008-.005a46.2 46.2 0 0 0-1.534-.94c.07-3.508.121-12.383-.93-18.699 1.832 1.359 2.831 2.358 2.843 2.371.292.294.658.481 1.043.557-.333 1.669-.008 3.407.853 4.893l.034.06a6.774 6.774 0 0 1 .617 5.227c-.723 2.52-1.555 4.786-2.475 6.823zM93.29 148.65c-1.206-6.02-1.933-12.583-1.92-19.229 2.278-2.006 5.444-3.188 8.714-3.864l-1.917 1.205 4.638-1.089c.217-.055.45-.116.702-.183.864-.229 1.919-.509 3.143-.712.873-.04 1.711-.056 2.496-.056l.13.001c-2.108 1.453-4.33 3.374-6.653 5.875l.011.045-.017.018s1.78 7.302 5.036 13.47c-5.357.783-10.232 2.53-14.363 4.519z" fill="url(#b)"/><path d="M132.835 148.832a41.503 41.503 0 0 0-6.341-2.9 8.293 8.293 0 1 0-14.561-5.431c0 1.136.229 2.219.642 3.206-1.678.042-3.322.19-4.922.424-3.256-6.168-5.036-13.47-5.036-13.47l.017-.018c.081.339.628 2.57 1.639 5.439 6.065-5.666 11.363-7.449 15.644-7.449 4.25 0 7.498 1.759 9.494 3.22 2.435 1.726 3.217 10.037 3.424 16.979z" fill="url(#c)"/><path d="M133.55 149.241a48.003 48.003 0 0 0-.715-.409c-.207-6.942-.989-15.253-3.424-16.979-1.996-1.461-5.244-3.22-9.494-3.22-4.281 0-9.579 1.783-15.644 7.449a58.607 58.607 0 0 1-1.65-5.484c2.323-2.501 4.545-4.422 6.653-5.875 3.283.007 5.605.29 5.605.29 3.138.05 5.836.214 8.154.459.999.32 1.983.703 2.926 1.14 1.876.897 3.673 1.787 5.076 2.817.581.388 1.11.762 1.583 1.113 1.051 6.316 1 15.191.93 18.699z" fill="url(#d)"/><path d="M126.494 145.932a38.951 38.951 0 0 0-3.474-1.061.043.043 0 0 0 .007-.006 1.137 1.137 0 0 0 .205.02c.44 0 .81-.287.843-.667a.667.667 0 0 0-.142-.465 5.225 5.225 0 0 0 .731-2.268c.212-2.657-1.624-5.072-4.019-5.268a3.824 3.824 0 0 0-.32-.014c-1.29 0-2.501.65-3.343 1.676l-.075-.002c-.885 0-1.625.573-1.69 1.342-.04.495.215.959.638 1.264a5.215 5.215 0 0 0 .661 3.322c-.98-.075-1.952-.11-2.911-.111h-.051c-.327 0-.654.004-.979.013a8.294 8.294 0 1 1 13.919 2.225z" fill="url(#e)"/><path d="M123.02 144.871a39.929 39.929 0 0 0-1.127-.269c.159-.092.314-.197.462-.314.076.279.335.51.672.577l-.007.006zm-5.106-.934a37.467 37.467 0 0 0-1.398-.132 5.215 5.215 0 0 1-.661-3.322c.269.194.607.323.98.355v.004a4.073 4.073 0 0 0 1.079 3.095zm6.019-.184a.932.932 0 0 0-.669-.345 1.837 1.837 0 0 0-.076-.004 4.013 4.013 0 0 0 .713-1.979c.184-2.253-1.542-4.091-3.209-4.232a2.947 2.947 0 0 0-.21-.008c-.83 0-1.717.39-2.411 1.061a1.953 1.953 0 0 0-.995-.362l-.094-.005c.842-1.026 2.053-1.676 3.343-1.676.106 0 .213.005.32.014 2.395.196 4.231 2.611 4.019 5.268a5.225 5.225 0 0 1-.731 2.268z" fill="url(#f)"/><path d="M121.893 144.602a37.872 37.872 0 0 0-3.979-.665 4.073 4.073 0 0 1-1.079-3.095v-.004c.057.005.113.007.169.007.886 0 1.629-.572 1.695-1.337.039-.496-.211-.957-.628-1.262.694-.671 1.581-1.061 2.411-1.061.07 0 .14.003.21.008 1.667.141 3.393 1.979 3.209 4.232a4.013 4.013 0 0 1-.713 1.979h-.01c-.44 0-.811.288-.843.668a.65.65 0 0 0 .02.216 3.877 3.877 0 0 1-.462.314z" fill="url(#g)"/><path d="M117.004 140.845a1.962 1.962 0 0 1-1.149-.362c-.423-.305-.678-.769-.638-1.264.065-.769.805-1.342 1.69-1.342l.075.002.094.005c.38.031.723.163.995.362.417.305.667.766.628 1.262-.066.765-.809 1.337-1.695 1.337z" fill="url(#h)"/><path d="M123.232 144.885a1.137 1.137 0 0 1-.205-.02c-.337-.067-.596-.298-.672-.577a.65.65 0 0 1-.02-.216c.032-.38.403-.668.843-.668h.01l.076.004a.932.932 0 0 1 .669.345.667.667 0 0 1 .142.465c-.033.38-.403.667-.843.667z" fill="url(#i)"/><path d="M136.506 133.47a2.018 2.018 0 0 1-1.043-.557c-.012-.013-1.011-1.012-2.843-2.371a39.126 39.126 0 0 0-1.583-1.113c-1.403-1.03-3.2-1.92-5.076-2.817a25.436 25.436 0 0 0-2.926-1.14c6.805.718 10.349 2.138 12.195 3.434 1.27.891 1.856 2.498 1.42 3.987l-.02.064c-.048.17-.089.341-.124.513zm-38.339-6.708l1.917-1.205c2.222-.459 4.492-.685 6.566-.779-1.224.203-2.279.483-3.143.712-.252.067-.485.128-.702.183l-4.638 1.089z" fill="url(#j)"/><path d="M88.266 151.371c-.691-2.488-.827-4.238-.827-4.238-.119-.95.945-2.365.945-2.365 2.839-2.602.593-4.967.593-4.967-1.894-2.485-.948-4.023-.948-4.023.238-1.983.958-3.619 2.019-4.966.764 9.797.595 15.795.098 19.469-.459.255-.905.511-1.338.766l-.093.055-.047.028-.093.055-.031.018-.078.047-.2.121z" fill="url(#k)"/><path d="M95.941 163.721c-3.424-2.746-5.485-6.337-6.717-9.476.339-.858.672-2.117.922-3.964.991-.552 2.04-1.1 3.144-1.631a96.242 96.242 0 0 0 1.175 5.14c.58 2.229 1.054 5.923 1.476 9.931z" fill="#aebeb8" fill-rule="nonzero"/><path d="M110.106 168.254c-2.779 0-4.57-.42-4.57-.42-4.02-.628-7.154-2.155-9.595-4.113-.422-4.008-.896-7.702-1.476-9.931a96.242 96.242 0 0 1-1.175-5.14c4.13-1.989 9.007-3.736 14.363-4.519 2.151 4.074 4.947 7.654 8.299 8.308 1.693.33 3.415.462 5.084.462 6.64 0 12.463-2.085 12.463-2.085l.002-.059.009-.003s.021-.557.04-1.513a46.2 46.2 0 0 1 1.534.94l.011.007c.147.094.294.189.44.285-6.978 15.468-18.915 17.781-25.429 17.781z" fill="#b3c8c2" fill-rule="nonzero"/><path d="M121.036 152.901c-1.669 0-3.391-.132-5.084-.462-3.352-.654-6.148-4.234-8.299-8.308 1.6-.234 3.244-.382 4.922-.424a8.298 8.298 0 0 0 13.919 2.226 41.4 41.4 0 0 1 6.341 2.899c.022.738.038 1.461.048 2.158a6.89 6.89 0 0 1 .618-.233l-.002.059s-5.823 2.085-12.463 2.085z" fill="#bbe3f0" fill-rule="nonzero"/><path d="M132.883 150.99c-.01-.697-.026-1.42-.048-2.158.238.133.476.27.715.409-.019.956-.04 1.513-.04 1.513l-.009.003a6.89 6.89 0 0 0-.618.233z" fill="#afc3bf" fill-rule="nonzero"/><path d="M120.227 148.794a8.298 8.298 0 0 1-7.652-5.087c.325-.009.652-.013.979-.013h.051c.959.001 1.931.036 2.911.111.721 1.233 1.929 2.103 3.325 2.218.108.009.215.014.321.014 1.059 0 2.065-.439 2.858-1.166 1.15.293 2.308.645 3.474 1.062a8.275 8.275 0 0 1-6.267 2.861z" fill="#70736e" fill-rule="nonzero"/><path d="M120.162 146.037c-.106 0-.213-.005-.321-.014-1.396-.115-2.604-.985-3.325-2.218.464.035.93.079 1.399.132.599.648 1.373 1.064 2.134 1.129.069.005.139.008.21.008.543 0 1.111-.167 1.634-.471.374.083.751.173 1.127.268-.793.727-1.799 1.166-2.858 1.166z" fill="#8c8376" fill-rule="nonzero"/><path d="M120.259 145.074c-.071 0-.141-.003-.21-.008-.761-.065-1.535-.481-2.134-1.129 1.311.148 2.638.367 3.978.666-.523.304-1.091.471-1.634.471z" fill="#586d6d" fill-rule="nonzero"/><path d="M89.224 154.245a29.275 29.275 0 0 1-.958-2.874l.2-.121.078-.047a.853.853 0 0 0 .031-.018l.093-.055.047-.028.093-.055c.433-.255.879-.511 1.338-.766-.25 1.847-.583 3.106-.922 3.964z" fill="#5e7d84" fill-rule="nonzero"/><path d="M135.535 150.473zm-.443-.287l-.008-.005.008.005zm-.215-.137z" fill="url(#l)"/><path d="M132.835 148.832a41.4 41.4 0 0 0-6.341-2.899v-.001a41.503 41.503 0 0 1 6.341 2.9z" fill="url(#m)"/><path d="M126.494 145.933a38.635 38.635 0 0 0 0-.001v.001zm-9.978-2.128z" fill="url(#n)"/><path d="M123.02 144.871a39.899 39.899 0 0 0-1.127-.268v-.001c.375.084.75.173 1.127.269zm-5.105-.934a37.72 37.72 0 0 0-.001 0h.001z" fill="url(#o)"/><path d="M121.893 144.603a37.645 37.645 0 0 0-3.978-.666h-.001c1.312.148 2.639.367 3.979.665v.001z" fill="url(#p)"/><path d="M209.397 151.364l-.251-.151-.082-.049a60.312 60.312 0 0 0-5.691-2.991c1.213-6.146 1.918-12.844 1.835-19.608 1.619 1.131 2.923 2.583 3.704 4.437a56.759 56.759 0 0 0-.81 7.729c-.256.604-.418 1.454-.019 2.414.04 2.241.241 4.235.542 5.962.124.71.472 1.258.937 1.635-.051.201-.106.409-.165.622z" fill="url(#q)"/><path d="M162.127 150.466c-.919-2.037-1.751-4.303-2.475-6.822a6.773 6.773 0 0 1 .618-5.227l.034-.06c.86-1.487 1.185-3.226.852-4.895.141.031.286.047.434.047h.001a1.996 1.996 0 0 0 1.425-.597l.017-.017c.102-.102.86-.842 2.217-1.892-.913 6.506-.814 15.049-.745 18.005a45.297 45.297 0 0 0-2.183 1.331l-.195.127zm41.246-2.293c-3.906-1.789-8.425-3.325-13.349-4.047 3.49-6.298 5.404-14.151 5.404-14.151l-.017-.018a2.14 2.14 0 0 1 .011-.044c-1.972-2.122-3.872-3.829-5.69-5.184.777.016 1.593.05 2.432.107 1.083.197 2.024.446 2.809.654.251.067.485.129.708.184l4.636 1.09-1.47-.923c2.325.585 4.543 1.453 6.361 2.724.083 6.764-.622 13.462-1.835 19.608z" fill="url(#r)"/><path d="M165.196 148.62c.186-7.031.947-15.687 3.438-17.452a17.237 17.237 0 0 1 4.049-2.214 57.53 57.53 0 0 1 1.296 3.507 8.295 8.295 0 0 0-4.455 7.354c0 2.281.92 4.346 2.41 5.845a41.19 41.19 0 0 0-6.738 2.96zm24.828-4.494a41.429 41.429 0 0 0-4.877-.425 8.297 8.297 0 0 0-4.051-11.507 66.24 66.24 0 0 0 .312-3.903c3.608.746 7.766 2.81 12.364 7.106a58.779 58.779 0 0 0 1.639-5.44l.017.018s-1.914 7.853-5.404 14.151z" fill="url(#s)"/><path d="M164.505 149.008c-.069-2.956-.168-11.499.745-18.005a39.213 39.213 0 0 1 2.21-1.588c1.211-.889 2.743-1.683 4.362-2.469.298.66.585 1.33.861 2.008a17.237 17.237 0 0 0-4.049 2.214c-2.491 1.765-3.252 10.421-3.438 17.452-.231.127-.46.255-.691.388zm29.267-13.611c-4.598-4.296-8.756-6.36-12.364-7.106a62.1 62.1 0 0 0 .077-3.257c.424-.011.856-.02 1.296-.027 0 0 2.384-.291 5.735-.291.393 0 .798.004 1.216.013 1.818 1.355 3.718 3.062 5.69 5.184l-.011.044c-.081.338-.628 2.57-1.639 5.44z" fill="url(#t)"/><path d="M171.934 145.66a8.264 8.264 0 0 1-2.41-5.845 8.295 8.295 0 0 1 4.455-7.354c.415 1.252.79 2.529 1.119 3.832.016.061.033.121.051.18-1.18.98-1.906 2.602-1.769 4.326a5.24 5.24 0 0 0 .732 2.269.667.667 0 0 0-.143.465c.033.38.404.667.844.667a1.137 1.137 0 0 0 .205-.02c.182.167.375.319.578.454a38.843 38.843 0 0 0-3.662 1.026zm9.113-1.854a5.185 5.185 0 0 0 1.144-4.009c.422-.305.676-.769.637-1.263-.066-.769-.805-1.342-1.69-1.342l-.075.001a4.917 4.917 0 0 0-.619-.63 2.96 2.96 0 0 0 .099-.415c.213-1.259.401-2.58.553-3.954a8.297 8.297 0 0 1 4.051 11.507 40.047 40.047 0 0 0-1.042-.014h-.04c-.996 0-2 .039-3.018.119z" fill="url(#u)"/><path d="M175.596 144.634a4.729 4.729 0 0 1-.578-.454c.337-.067.596-.298.671-.577.448.352.953.598 1.459.712-.515.095-1.032.201-1.552.319zm3.597-.637a4.07 4.07 0 0 0 2.016-3.84v-.004c.374-.031.712-.161.982-.356a5.185 5.185 0 0 1-1.144 4.009 37.22 37.22 0 0 0-1.854.191zm-5.081-.929a5.24 5.24 0 0 1-.732-2.269c-.137-1.724.589-3.346 1.769-4.326.1.316.242.595.416.834a4.102 4.102 0 0 0-1.421 3.433c.061.753.325 1.424.712 1.979l-.075.004a.929.929 0 0 0-.669.345zm5.862-5.507a1.204 1.204 0 0 0-.052-.049c.226-.261.406-.578.522-.949.223.189.43.4.619.63a1.953 1.953 0 0 0-1.089.368z" fill="url(#v)"/><path d="M177.148 144.315a3.714 3.714 0 0 1-1.459-.712.632.632 0 0 0 .021-.217c-.032-.379-.402-.667-.842-.667h-.012a4.012 4.012 0 0 1-.712-1.979 4.102 4.102 0 0 1 1.421-3.433c.548.754 1.413 1.128 2.271 1.128.781 0 1.558-.31 2.086-.923l.052.049c-.417.305-.667.766-.628 1.262.066.765.81 1.337 1.694 1.337.056 0 .112-.002.169-.007v.004a4.07 4.07 0 0 1-2.016 3.84c-.678.086-1.359.192-2.045.318z" fill="url(#w)"/><path d="M181.04 140.16c-.884 0-1.628-.572-1.694-1.337-.039-.496.211-.957.628-1.262a1.953 1.953 0 0 1 1.089-.368l.075-.001c.885 0 1.624.573 1.69 1.342.039.494-.215.958-.637 1.263a1.952 1.952 0 0 1-1.151.363z" fill="url(#x)"/><path d="M174.813 144.2c-.44 0-.811-.287-.844-.667a.667.667 0 0 1 .143-.465.929.929 0 0 1 .669-.345l.075-.004h.012c.44 0 .81.288.842.667a.632.632 0 0 1-.021.217c-.075.279-.334.51-.671.577a1.137 1.137 0 0 1-.205.02z" fill="url(#y)"/><path d="M161.591 133.509h-.001c-.148 0-.293-.016-.434-.047a6.033 6.033 0 0 0-.124-.511l-.019-.065c-.437-1.488.149-3.096 1.419-3.986 1.523-1.07 4.201-2.223 8.909-2.997.163.346.323.692.481 1.043-1.619.786-3.151 1.58-4.362 2.469a39.213 39.213 0 0 0-2.21 1.588c-1.357 1.05-2.115 1.79-2.217 1.892l-.017.017c-.38.384-.886.596-1.425.597zm38.726-6.745l-4.636-1.09a38.984 38.984 0 0 1-.708-.184 35.234 35.234 0 0 0-2.809-.654c2.157.147 4.47.447 6.683 1.005l1.47.923z" fill="url(#z)"/><path d="M209.562 150.742c-.465-.377-.813-.925-.937-1.635-.301-1.727-.502-3.721-.542-5.962.214.514.588 1.06 1.195 1.617 0 0 1.065 1.413.946 2.364 0 0-.114 1.463-.662 3.616zm-1.46-10.011c.078-2.351.329-4.932.81-7.729.354.838.6 1.758.722 2.769 0 0 .945 1.539-.948 4.022 0 0-.336.354-.584.938zm-30.266-2.296c-.858 0-1.723-.374-2.271-1.128a2.895 2.895 0 0 1-.467-1.014 54.867 54.867 0 0 0-2.415-7.339 58.26 58.26 0 0 0-1.342-3.051c2.673-.44 6.001-.757 10.144-.869a62.1 62.1 0 0 1-.077 3.257 66.24 66.24 0 0 1-.865 7.857 2.96 2.96 0 0 1-.099.415 2.643 2.643 0 0 1-.522.949c-.528.613-1.305.923-2.086.923z" fill="url(#A)"/><path d="M200.537 164.591c.437-4.337.929-8.412 1.551-10.801a95.117 95.117 0 0 0 1.285-5.617 60.312 60.312 0 0 1 5.773 3.04l.251.151c-1.077 3.886-3.503 9.576-8.86 13.227z" fill="#b2c4c0" fill-rule="nonzero"/><path d="M187.557 168.248c-6.514-.001-18.451-2.314-25.43-17.782l.195-.127.198-.127a45.297 45.297 0 0 1 1.985-1.204c.016.676.03 1.06.03 1.06l.009.003.002.059s5.824 2.086 12.464 2.086c1.669 0 3.39-.132 5.083-.462 3.164-.617 5.832-3.841 7.931-7.628 4.923.722 9.444 2.258 13.349 4.047a95.117 95.117 0 0 1-1.285 5.617c-.622 2.389-1.114 6.464-1.551 10.801-2.248 1.533-5.013 2.706-8.41 3.236 0 0-1.791.421-4.57.421z" fill="#b9d0cb" fill-rule="nonzero"/><path d="M177.01 152.216c-6.64 0-12.464-2.086-12.464-2.086l-.002-.059c.044.013.239.076.617.234.008-.548.02-1.111.035-1.684a40.99 40.99 0 0 1 6.739-2.96 8.266 8.266 0 0 0 5.883 2.448 8.295 8.295 0 0 0 7.329-4.408c1.663.045 3.291.193 4.877.425-2.099 3.787-4.767 7.011-7.931 7.628-1.693.33-3.414.462-5.083.462z" fill="#bbe3f0" fill-rule="nonzero"/><path d="M165.161 150.305a7.027 7.027 0 0 0-.617-.234l-.009-.003s-.014-.384-.03-1.06c.231-.133.46-.261.691-.387-.015.573-.027 1.136-.035 1.684z" fill="#afc3bf" fill-rule="nonzero"/><path d="M177.818 148.109c-2.3 0-4.381-.936-5.883-2.448a38.536 38.536 0 0 1 3.661-1.027 4.123 4.123 0 0 0 2.288.718 3.8 3.8 0 0 0 .319-.014c1.122-.092 2.12-.671 2.844-1.532a38.47 38.47 0 0 1 3.018-.119h.04c.349 0 .696.005 1.042.014a8.295 8.295 0 0 1-7.329 4.408z" fill="#70736e" fill-rule="nonzero"/><path d="M177.884 145.352a4.123 4.123 0 0 1-2.288-.718 38.57 38.57 0 0 1 1.553-.319 2.903 2.903 0 0 0 .847.065 2.983 2.983 0 0 0 1.196-.383c.622-.08 1.241-.143 1.855-.191-.724.861-1.722 1.44-2.844 1.532a3.8 3.8 0 0 1-.319.014z" fill="#8c8376" fill-rule="nonzero"/><path d="M177.785 144.389c-.209 0-.423-.026-.636-.074a38.204 38.204 0 0 1 2.043-.318 2.983 2.983 0 0 1-1.196.383c-.07.006-.14.009-.211.009z" fill="#586d6d" fill-rule="nonzero"/><path d="M162.127 150.466l.195-.127-.195.127zm.393-.254z" fill="url(#B)"/><path d="M165.196 148.621v-.001a41.19 41.19 0 0 1 6.738-2.96l.001.001a40.99 40.99 0 0 0-6.739 2.96z" fill="url(#C)"/><path d="M164.505 149.008c.231-.133.46-.261.691-.388v.001c-.231.126-.46.254-.691.387z" fill="url(#D)"/><path d="M171.935 145.661l-.001-.001a38.843 38.843 0 0 1 .001.001zm9.112-1.855z" fill="url(#E)"/><path d="M175.596 144.634c.52-.118 1.037-.224 1.552-.319h.001a38.57 38.57 0 0 0-1.553.319zm3.596-.637h.001a37.22 37.22 0 0 1-.001 0z" fill="url(#F)"/><path d="M177.149 144.315h-.001a37.288 37.288 0 0 1 2.045-.318h-.001c-.677.087-1.358.192-2.043.318z" fill="url(#G)"/><path d="M138.01 143.651c-8.557 29.797-32.474 24.183-32.474 24.183-16.678-2.603-18.098-20.701-18.098-20.701-.118-.951.946-2.365.946-2.365 2.839-2.602.593-4.968.593-4.968-1.893-2.484-.948-4.022-.948-4.022 1.658-13.839 26.852-10.764 26.852-10.764 12.346.195 17.874 2.154 20.349 3.892 1.271.891 1.856 2.499 1.42 3.987l-.02.064c-.518 1.822-.22 3.767.729 5.406l.034.061a6.773 6.773 0 0 1 .617 5.227zm2.657-11.067s-1.065-10.29-32.056-9.581c0 0-25.431-2.425-23.892 20.493 0 0-.474 20.906 19.398 26.229 0 0 21.291 4.258 30.991-14.549 0 0 7.569-13.129 5.559-22.592z" fill="#f17c21" fill-rule="nonzero"/><path d="M135.108 155.176c-9.7 18.807-30.991 14.549-30.991 14.549-19.872-5.323-19.398-26.229-19.398-26.229-1.539-22.918 23.892-20.493 23.892-20.493 30.991-.709 32.056 9.581 32.056 9.581 2.01 9.463-5.559 22.592-5.559 22.592zm-.474-31.699s-21.055-6.98-40.689-1.064c0 0-4.851 1.3-8.162 6.978 0 0-1.774 3.429-6.032 4.139 0 0-1.42 9.345 0 11.238 0 0 2.484.117 3.665 5.085 0 0 3.549 21.884 25.669 22.12 0 0 25.785 3.785 33.947-30.991 0 0 3.786-13.839-8.398-17.505z" fill="#f17c21" fill-rule="nonzero"/><path fill="#f17c21" fill-rule="nonzero" d="M142.618 133.117h6.21v2.543h-6.21zm6.21-15.625c-20.457-.768-40.63 1.253-40.63 1.253l-.71 2.307 2.484-1.018c4.505-1.124 35.21-1.274 38.856-1.288v-1.254zm11.442 20.925l.033-.061c.949-1.639 1.248-3.584.729-5.406l-.019-.064c-.436-1.488.149-3.096 1.419-3.986 2.475-1.739 8.004-3.698 20.349-3.893 0 0 25.195-3.075 26.852 10.764 0 0 .946 1.539-.947 4.023 0 0-2.246 2.365.593 4.968 0 0 1.064 1.414.945 2.365 0 0-1.419 18.097-18.097 20.7 0 0-23.918 5.614-32.475-24.183a6.773 6.773 0 0 1 .618-5.227zm2.285 16.752c9.7 18.808 30.991 14.549 30.991 14.549 19.872-5.322 19.398-26.229 19.398-26.229 1.538-22.918-23.892-20.492-23.892-20.492-30.991-.71-32.056 9.581-32.056 9.581-2.01 9.462 5.559 22.591 5.559 22.591z"/><path d="M156.996 132.578s1.065-10.291 32.056-9.581c0 0 25.43-2.426 23.892 20.492 0 0 .474 20.907-19.398 26.229 0 0-21.291 4.259-30.991-14.549 0 0-7.569-13.129-5.559-22.591zm-2.365 8.397c8.161 34.776 33.947 30.991 33.947 30.991 22.12-.236 25.668-22.119 25.668-22.119 1.182-4.968 3.666-5.085 3.666-5.085 1.42-1.894 0-11.239 0-11.239-4.258-.709-6.032-4.139-6.032-4.139-3.311-5.678-8.162-6.978-8.162-6.978-19.634-5.916-40.689 1.064-40.689 1.064-12.184 3.666-8.398 17.505-8.398 17.505z" fill="#f17c21" fill-rule="nonzero"/><path fill="#f17c21" fill-rule="nonzero" d="M148.834 133.11h6.21v2.543h-6.21zm0-15.624c20.458-.769 40.631 1.252 40.631 1.252l.71 2.307-2.484-1.018c-4.505-1.124-35.211-1.274-38.857-1.288v-1.253z"/><defs><linearGradient id="a" x2="1" gradientUnits="userSpaceOnUse" gradientTransform="rotate(-92.203 143.932 35.248) scale(90.31973)"><stop offset="0" stop-color="#e7d2c1"/><stop offset="1" stop-color="#8eabb5"/></linearGradient><linearGradient id="b" x2="1" gradientUnits="userSpaceOnUse" gradientTransform="rotate(-92.203 143.932 35.248) scale(90.31973)"><stop offset="0" stop-color="#efddcb"/><stop offset="1" stop-color="#93b4bf"/></linearGradient><linearGradient id="c" x2="1" gradientUnits="userSpaceOnUse" gradientTransform="rotate(-92.203 143.932 35.248) scale(90.31973)"><stop offset="0" stop-color="#fff"/><stop offset="1" stop-color="#97cceb"/></linearGradient><linearGradient id="d" x2="1" gradientUnits="userSpaceOnUse" gradientTransform="rotate(-92.203 143.932 35.248) scale(90.31973)"><stop offset="0" stop-color="#e9d8c9"/><stop offset="1" stop-color="#8eb1bd"/></linearGradient><linearGradient id="e" x2="1" gradientUnits="userSpaceOnUse" gradientTransform="rotate(-92.203 143.932 35.248) scale(90.31973)"><stop offset="0" stop-color="#987e73"/><stop offset="1" stop-color="#5b686d"/></linearGradient><linearGradient id="f" x2="1" gradientUnits="userSpaceOnUse" gradientTransform="rotate(-92.203 143.932 35.248) scale(90.31973)"><stop offset="0" stop-color="#b88f7c"/><stop offset="1" stop-color="#747676"/></linearGradient><linearGradient id="g" x2="1" gradientUnits="userSpaceOnUse" gradientTransform="rotate(-92.203 143.932 35.248) scale(90.31973)"><stop offset="0" stop-color="#807872"/><stop offset="1" stop-color="#42626c"/></linearGradient><linearGradient id="h" x2="1" gradientUnits="userSpaceOnUse" gradientTransform="rotate(-92.203 143.932 35.248) scale(90.31973)"><stop offset="0" stop-color="#fff"/><stop offset="1" stop-color="#97cceb"/></linearGradient><linearGradient id="i" x2="1" gradientUnits="userSpaceOnUse" gradientTransform="rotate(-92.203 143.932 35.248) scale(90.31973)"><stop offset="0" stop-color="#fff"/><stop offset="1" stop-color="#97cceb"/></linearGradient><linearGradient id="j" x2="1" gradientUnits="userSpaceOnUse" gradientTransform="rotate(-92.203 143.932 35.248) scale(90.31973)"><stop offset="0" stop-color="#716e6e"/><stop offset="1" stop-color="#325b68"/></linearGradient><linearGradient id="k" x2="1" gradientUnits="userSpaceOnUse" gradientTransform="rotate(-92.203 143.932 35.248) scale(90.31973)"><stop offset="0" stop-color="#8c8a8a"/><stop offset="1" stop-color="#447182"/></linearGradient><linearGradient id="l" x2="1" gradientUnits="userSpaceOnUse" gradientTransform="rotate(-92.203 143.932 35.248) scale(90.31973)"><stop offset="0" stop-color="#b7d5d9"/><stop offset="1" stop-color="#8ac2d2"/></linearGradient><linearGradient id="m" x2="1" gradientUnits="userSpaceOnUse" gradientTransform="rotate(-92.203 143.932 35.248) scale(90.31973)"><stop offset="0" stop-color="#bbe3f0"/><stop offset="1" stop-color="#8bcee8"/></linearGradient><linearGradient id="n" x2="1" gradientUnits="userSpaceOnUse" gradientTransform="rotate(-92.203 143.932 35.248) scale(90.31973)"><stop offset="0" stop-color="#96a8aa"/><stop offset="1" stop-color="#7099a5"/></linearGradient><linearGradient id="o" x2="1" gradientUnits="userSpaceOnUse" gradientTransform="rotate(-92.203 143.932 35.248) scale(90.31973)"><stop offset="0" stop-color="#a4b1af"/><stop offset="1" stop-color="#7da2ab"/></linearGradient><linearGradient id="p" x2="1" gradientUnits="userSpaceOnUse" gradientTransform="rotate(-92.203 143.932 35.248) scale(90.31973)"><stop offset="0" stop-color="#89a4aa"/><stop offset="1" stop-color="#6296a5"/></linearGradient><linearGradient id="q" x2="1" gradientUnits="userSpaceOnUse" gradientTransform="rotate(-92.203 178.533 -.708) scale(90.31953)"><stop offset="0" stop-color="#eddaca"/><stop offset="1" stop-color="#92b1be"/></linearGradient><linearGradient id="r" x2="1" gradientUnits="userSpaceOnUse" gradientTransform="rotate(-92.203 178.533 -.708) scale(90.31953)"><stop offset="0" stop-color="#f8e7d5"/><stop offset="1" stop-color="#98bcc8"/></linearGradient><linearGradient id="s" x2="1" gradientUnits="userSpaceOnUse" gradientTransform="rotate(-92.203 178.533 -.708) scale(90.31953)"><stop offset="0" stop-color="#fff"/><stop offset="1" stop-color="#97cceb"/></linearGradient><linearGradient id="t" x2="1" gradientUnits="userSpaceOnUse" gradientTransform="rotate(-92.203 178.533 -.708) scale(90.31953)"><stop offset="0" stop-color="#e9d8c9"/><stop offset="1" stop-color="#8eb1bd"/></linearGradient><linearGradient id="u" x2="1" gradientUnits="userSpaceOnUse" gradientTransform="rotate(-92.203 178.533 -.708) scale(90.31953)"><stop offset="0" stop-color="#987e73"/><stop offset="1" stop-color="#5b686d"/></linearGradient><linearGradient id="v" x2="1" gradientUnits="userSpaceOnUse" gradientTransform="rotate(-92.203 178.533 -.708) scale(90.31953)"><stop offset="0" stop-color="#b88f7c"/><stop offset="1" stop-color="#747676"/></linearGradient><linearGradient id="w" x2="1" gradientUnits="userSpaceOnUse" gradientTransform="rotate(-92.203 178.533 -.708) scale(90.31953)"><stop offset="0" stop-color="#807872"/><stop offset="1" stop-color="#42626c"/></linearGradient><linearGradient id="x" x2="1" gradientUnits="userSpaceOnUse" gradientTransform="rotate(-92.203 178.533 -.708) scale(90.31953)"><stop offset="0" stop-color="#fff"/><stop offset="1" stop-color="#97cceb"/></linearGradient><linearGradient id="y" x2="1" gradientUnits="userSpaceOnUse" gradientTransform="rotate(-92.203 178.533 -.708) scale(90.31953)"><stop offset="0" stop-color="#fff"/><stop offset="1" stop-color="#97cceb"/></linearGradient><linearGradient id="z" x2="1" gradientUnits="userSpaceOnUse" gradientTransform="rotate(-92.203 178.533 -.708) scale(90.31953)"><stop offset="0" stop-color="#716e6e"/><stop offset="1" stop-color="#325b68"/></linearGradient><linearGradient id="A" x2="1" gradientUnits="userSpaceOnUse" gradientTransform="rotate(-92.203 178.533 -.708) scale(90.31953)"><stop offset="0" stop-color="#8c8a8a"/><stop offset="1" stop-color="#447182"/></linearGradient><linearGradient id="B" x2="1" gradientUnits="userSpaceOnUse" gradientTransform="rotate(-92.203 178.533 -.708) scale(90.31953)"><stop offset="0" stop-color="#bbdadd"/><stop offset="1" stop-color="#8cc6d6"/></linearGradient><linearGradient id="C" x2="1" gradientUnits="userSpaceOnUse" gradientTransform="rotate(-92.203 178.533 -.708) scale(90.31953)"><stop offset="0" stop-color="#bbe3f0"/><stop offset="1" stop-color="#8bcee8"/></linearGradient><linearGradient id="D" x2="1" gradientUnits="userSpaceOnUse" gradientTransform="rotate(-92.203 178.533 -.708) scale(90.31953)"><stop offset="0" stop-color="#b5d3d7"/><stop offset="1" stop-color="#87c0d1"/></linearGradient><linearGradient id="E" x2="1" gradientUnits="userSpaceOnUse" gradientTransform="rotate(-92.203 178.533 -.708) scale(90.31953)"><stop offset="0" stop-color="#96a8aa"/><stop offset="1" stop-color="#7099a5"/></linearGradient><linearGradient id="F" x2="1" gradientUnits="userSpaceOnUse" gradientTransform="rotate(-92.203 178.533 -.708) scale(90.31953)"><stop offset="0" stop-color="#a4b1af"/><stop offset="1" stop-color="#7da2ab"/></linearGradient><linearGradient id="G" x2="1" gradientUnits="userSpaceOnUse" gradientTransform="rotate(-92.203 178.533 -.708) scale(90.31953)"><stop offset="0" stop-color="#89a4aa"/><stop offset="1" stop-color="#6296a5"/></linearGradient></defs></svg>