<svg viewBox="0 0 298 300" xmlns="http://www.w3.org/2000/svg" fill-rule="evenodd" clip-rule="evenodd" stroke-linejoin="round" stroke-miterlimit="1.414"><g fill-rule="nonzero"><path fill="#f15d4d" d="M.442.07H297.31v299.705H.442z"/><path d="M149.18 187.154v112.621H88.455c-.989-.396-1.482-.596-1.482-.596 0-14.376 2.102-25.585 5.305-34.326 7.73-21.095 21.882-27.795 28.392-29.815 2.14-.664 3.46-.823 3.46-.823.23 0 .44-.021.67-.057 1.91-.308 3.46-1.974 4.71-4.633.92-1.974 1.7-4.493 2.33-7.409.25-1.136.44-2.282.64-3.521.3-2.083.59-4.263.84-6.546.1-1.388.25-2.725.4-4.165.54-6.889.69-14.432.69-21.574 0 0 8.159.844 14.77.844z" fill="#e0bd9a"/><path d="M211.64 299.179s-.54.2-1.43.596h-61.03V187.154h.149c6.571 0 14.831-.844 14.831-.844 0 7.091.14 14.531.69 21.425.15 1.342.29 2.725.39 4.067.25 2.381.55 4.613.89 6.695v.046c.1.946.3 1.789.45 2.679.6 2.931 1.33 5.507 2.2 7.573 1.09 2.571 2.42 4.366 4.03 5.075a3.91 3.91 0 0 0 1.63.345s2.33.283 5.83 1.661c7.15 2.807 19.16 10.175 26.06 28.977 3.21 8.741 5.31 19.95 5.31 34.326z" fill="#efd0ad"/><path d="M166.13 218.287v.049c-1.53 2.365-6.67 9.163-16.85 9.163h-.1c-9.63-.049-15.26-7.045-16.7-9.114.3-2.069.6-4.237.84-6.503.1-1.33.25-2.71.4-4.139a67.527 67.527 0 0 0 15.27 2.02h.19a65.285 65.285 0 0 0 15.67-2.167c.15 1.33.29 2.709.39 4.04.25 2.364.55 4.581.89 6.651z" fill="#be987f"/><path d="M148.49 58.81c-64.334 0-64.679 53.947-61.814 89.272-4.398-8.376-17.492-5.814-16.405 7.39 1.038 12.71 19.745 19.188 19.222 17.785 9.743 26.124 35.527 45.818 58.997 45.818h.5V58.81h-.5z" fill="#d2a686"/><path d="M74.373 149.904c3.162-5.123 8.103-2.906 9.289-1.773 1.285 1.231 2.322 2.808 1.532 5.813-.445 1.725-2.224 1.872-1.828 4.434.494 2.907 1.828 3.055 2.618 3.744.742.641 1.681 1.134 2.125 2.365a6.229 6.229 0 0 1 .297 3.646c-.495 2.069-3.509.394-5.534-.493-1.335-.64-5.584-4.237-6.671-5.419-2.669-3.054-3.953-8.966-1.828-12.317z" fill="#ac8774"/><path d="M148.839 58.81c64.331 0 64.681 53.947 61.861 89.272 4.4-8.376 17.45-5.814 16.36 7.39-.99 12.71-19.73 19.193-19.22 17.785-9.49 26.124-35.53 45.818-59.001 45.818h-.349l-.151-160.265h.5z" fill="#ddb598"/><path d="M222.96 149.904c-3.16-5.123-8.06-2.906-9.29-1.773-1.29 1.231-2.27 2.808-1.53 5.813.44 1.725 2.22 1.872 1.82 4.434-.49 2.907-1.82 3.055-2.56 3.744-.75.641-1.73 1.134-2.18 2.365-.44 1.232-.54 2.513-.3 3.646.5 2.069 3.51.394 5.54-.493 1.38-.64 5.58-4.237 6.67-5.419 2.72-3.054 3.95-8.966 1.83-12.317z" fill="#ac8774"/><path d="M147.99 74.034c-21.15 0-36.67 6.158-46.008 18.278-13.094 16.997-12.6 42.911-7.807 61.534 1.483 5.715 2.273 21.036 3.261 26.653 4.596 25.175 32.314 38.576 50.554 38.576h.49V74.034h-.3" fill="#e0bd9a"/><path d="M193.94 92.361c-9.29-12.07-24.61-18.229-45.46-18.327v145.041c20.85-.246 45.81-14.928 50.06-38.576 1.03-5.617 1.77-20.938 3.26-26.653 4.84-18.574 5.33-44.439-7.86-61.485z" fill="#efd0ad"/><path d="M145.11 193.363a8.387 8.387 0 0 1-.31-.064c.1.022.19.04.31.064zm-.791-.175c-.089-.024-.179-.051-.269-.076l-.01.004.279.072z" fill="#bc917b"/><path d="M136.199 174.548c-.24-5.012 9.181-1.832 12.291-1.675 2.449.126 9.92-1.579 10.56-1.14 4.4 2.971-4.65 8.956-10.721 8.956-1.609 0-11.979-3.118-12.13-6.141z" fill="#ddb598"/><path d="M130.52 74.396l-.27.268.05.089c.08-.134.13-.268.22-.357z" fill="#432e1b"/><path d="M145.28 190.421c-.1-.022-.211-.042-.31-.066l.31.066zm-.81-.18l-.271-.078-.01.004s.101.029.281.074z" fill="#ba907b"/><path d="M102.327 130.644s4.908 20.198 13.333 21.847c8.43 1.647 17.55-1.629 17.55-1.629s.87-23.738-3.44-26.839c-4.32-3.115-14.25-7.617-27.443 6.621z" fill="#fff"/><path d="M133.22 150.8s-.19.056-.63.237c-.1-7.281-.78-17.281-3.47-19.197-4.01-2.942-13.05-7.084-25.137 4.243-1.099-3.13-1.65-5.502-1.65-5.502 13.217-14.265 23.157-9.771 27.437-6.653 4.32 3.114 3.45 26.872 3.45 26.872z" fill="#d6b496"/><path d="M128.23 140.514c0 4.595-3.71 8.32-8.29 8.32-4.58 0-8.3-3.725-8.3-8.32 0-4.594 3.72-8.319 8.3-8.319s8.29 3.725 8.29 8.319z" fill="#482315"/><path d="M119.55 146.055c-2.39-.199-4.23-2.623-4.01-5.289.21-2.665 2.42-4.75 4.82-4.549 2.39.198 4.23 2.62 4.01 5.285-.21 2.665-2.42 4.754-4.82 4.553z" fill="#7e3a22"/><path d="M119.76 145.094c-1.67-.143-3.4-1.978-3.21-4.237.18-2.267 2.18-3.797 3.85-3.66 1.67.142 3.39 1.985 3.21 4.245-.18 2.263-2.19 3.789-3.85 3.652z" fill="#211a10"/><path d="M118.41 139.518c-.07.817-.91 1.414-1.86 1.335-.96-.082-1.69-.812-1.62-1.624.07-.82.9-1.418 1.86-1.339.96.078 1.68.808 1.62 1.628zm5.38 4.725c-.04.407-.46.707-.93.666-.49-.038-.85-.406-.82-.812.04-.406.46-.707.93-.666.49.038.85.402.82.812z" fill="#fff"/><path d="M145.41 192.803l-.31-.066c.099.023.19.042.31.066zm-.8-.18c-.1-.025-.19-.052-.281-.078l-.01.004s.111.03.291.074z" fill="#ba907b"/><path d="M145.04 192.233c-.12-.024-.23-.046-.341-.071.111.024.211.045.341.071zm-.87-.194c-.101-.026-.19-.055-.29-.083l-.02.005.31.078zm.62-.651l-.341-.071c.111.024.211.045.341.071zm-.87-.193c-.101-.027-.19-.056-.29-.084l-.01.005s.11.031.3.079zm5.43-2.486h.01-.01zm-3.79 2.564c-.111-.023-.221-.044-.32-.069.099.024.19.043.32.069zm-.84-.187c-.1-.026-.19-.054-.281-.081l-.009.005s.11.03.29.076zm4.63-.018h.01-.01z" fill="#bc917b"/><path d="M195.14 129.957s-4.91 20.198-13.34 21.847c-8.42 1.647-17.54-1.629-17.54-1.629s-.88-23.738 3.44-26.839c4.31-3.115 14.25-7.617 27.44 6.621z" fill="#fff"/><path d="M164.24 150.112s.2.056.63.238c.11-7.281.78-17.281 3.47-19.197 4.01-2.943 13.06-7.084 25.14 4.242 1.1-3.129 1.65-5.501 1.65-5.501-13.21-14.265-23.16-9.771-27.44-6.653-4.32 3.114-3.45 26.871-3.45 26.871z" fill="#d6b496"/><path d="M169.23 139.827c0 4.595 3.72 8.32 8.3 8.32s8.29-3.725 8.29-8.32c0-4.595-3.71-8.319-8.29-8.319-4.58 0-8.3 3.724-8.3 8.319z" fill="#482315"/><path d="M177.91 145.367c2.4-.198 4.24-2.622 4.02-5.288-.22-2.665-2.42-4.751-4.82-4.549-2.4.198-4.23 2.619-4.02 5.284.22 2.666 2.43 4.755 4.82 4.553z" fill="#7e3a22"/><path d="M177.71 144.406c1.66-.142 3.39-1.977 3.21-4.236-.19-2.267-2.19-3.797-3.86-3.66-1.66.142-3.39 1.985-3.21 4.245.19 2.262 2.19 3.789 3.86 3.651z" fill="#211a10"/><path d="M179.06 138.831c.07.817.9 1.414 1.86 1.335.96-.082 1.68-.812 1.62-1.624-.07-.821-.9-1.418-1.86-1.339-.96.078-1.69.808-1.62 1.628zm-5.38 4.725c.03.406.45.707.93.666.48-.038.84-.406.81-.812-.03-.406-.45-.707-.93-.666-.48.037-.84.402-.81.812z" fill="#fff"/><path d="M138.27 130.322c-.061-.099-1.59-2.431-4.72-4.835-1.96-1.507-3.88-2.654-5.87-3.509a30.368 30.368 0 0 0-7.55-2.087c-2.28-.255-4.82-.187-7.77.211-2.253.431-4.452 1.103-6.318 1.929-1.331.459-2.382 1.105-3.227 1.625-.323.199-.616.379-.913.539l-4.025 2.539 4.638-1.093c.217-.055.451-.117.702-.184.959-.255 2.154-.573 3.554-.779a19.92 19.92 0 0 0 1.002-.182c.583-.117 1.186-.237 1.819-.268.702-.047 1.428-.099 2.178-.153l.98-.07c2.57-.033 4.73.163 6.66.608 2.11.365 4.28 1.047 6.26 1.969 1.88.901 3.67 1.793 5.08 2.826 2.83 1.897 4.41 3.479 4.42 3.495.39.393.909.596 1.44.596.38 0 .76-.108 1.089-.328.941-.613 1.201-1.877.601-2.788l-.03-.061zm57.7-6.146c-.27-.141-.56-.322-.89-.521-.84-.519-1.89-1.165-3.18-1.609-1.91-.841-4.11-1.513-6.39-1.948-2.93-.395-5.46-.463-7.75-.206a30.519 30.519 0 0 0-7.55 2.087c-1.96.843-3.93 2.023-5.86 3.508-3.07 2.36-4.6 4.652-4.71 4.828l-.03.042c-.52.8-.41 1.871.26 2.546.38.386.89.597 1.43.597.54 0 1.05-.212 1.43-.598l.01-.017c.15-.148 1.68-1.649 4.43-3.49 1.38-1.018 3.18-1.912 5.05-2.81a25.51 25.51 0 0 1 6.29-1.978c1.9-.439 4.08-.631 6.61-.604l1.03.074c.74.053 1.46.104 2.17.152.62.03 1.22.15 1.81.267.34.068.67.134 1 .182 1.4.206 2.59.524 3.55.779.25.067.49.129.71.185l4.64 1.093-4.06-2.559z" fill="#030405"/><path d="M143.959 195.195c-.109-.024-.219-.045-.329-.07.11.024.199.044.329.07zm-.849-.189c-.1-.026-.19-.054-.291-.081l-.009.004.3.077z" fill="#be927b"/><path d="M136.589 199.362c-.239-3.247 9.021.68 12.061.774 2.419.082 9.71-.481 10.39-.739 5.09-1.911-.28 5.429-10.54 5.815-4.7.188-11.77-3.881-11.911-5.85z" fill="#f0d2ad"/><path d="M166.74 193.101c-2.52-.124-5.1 1.977-8.12 1.656-.12-.061-.181-.061-.31-.061-.7-.123-1.39 0-2.14.185-.94.197-1.89.58-2.77.889-1.52.493-3.22.888-4.97.752v.012l-.101-.012-.099.012v-.012c-1.75.136-3.45-.259-4.96-.752-.89-.309-1.831-.692-2.77-.889-.76-.185-1.45-.308-2.14-.185-.13 0-.19 0-.32.061-3.02.321-5.6-1.78-8.11-1.656-.7.061-1.71-.124-2.27-.124.12.062.25.124.38.185 7.159 3.504 13.35 10.068 20.19 9.858h.2c6.85.21 13.03-6.354 20.2-9.858.12-.061.25-.123.38-.185-.57 0-1.58.185-2.27.124z" fill="#dcbf9e"/><path d="M168.84 192.901s-7.28-2.815-12.46-1.164c0 0-1.931.755-3.931 1.215-1.219.475-2.689.613-4.12.555a22.86 22.86 0 0 1-2.979-.331c-.281-.044-.56-.101-.85-.163l-.33-.07c-.17-.041-.341-.074-.51-.119-.19-.046-.3-.077-.3-.077l.01-.004a33.516 33.516 0 0 1-3.08-1.006c-5.18-1.651-12.47 1.164-12.47 1.164-.1.045-.16.076-.16.076.56 0 1.57.185 2.27.124 2.51-.124 5.09 1.977 8.11 1.656.13-.061.19-.061.32-.061.69-.124 1.38 0 2.14.185.939.197 1.88.58 2.77.889 1.51.493 3.21.888 4.96.752v.012l.099-.012.101.012v-.012c1.75.136 3.45-.259 4.97-.752.88-.309 1.83-.692 2.77-.889.75-.185 1.44-.309 2.14-.185.129 0 .19 0 .31.061 3.02.321 5.6-1.78 8.12-1.656.69.061 1.7-.124 2.27-.124l-.17-.076z" fill="#c69f83"/><path d="M136.089 194.615c.141.034 13.661 4.164 24.231.09l-1.22-.822h-14.29l-8.721.732z" fill="#c69f83"/><path d="M201.91 282.547c.04 7.716.33 13.62.58 17.221H96.283c.247-3.621.474-9.485.515-17.221H85.379c-.082-6.584 2.963-15.883 5.493-22.467 1.811-4.691 3.354-8.003 3.354-8.003a55.145 55.145 0 0 1 2.634-3.272c2.324-2.674 4.732-4.855 7.118-6.625.268-.288.597-.493.885-.679a66.774 66.774 0 0 1 2.304-1.563 43.141 43.141 0 0 1 9.283-4.465c.59-.226 1.15-.411 1.68-.535 2.39-.658 3.87-.843 3.87-.843 1.28 0 2.37-.473 3.35-1.276l.05-.041c.33-.309.65-.679.98-1.07.13.082.37.432.58 1.111.53 1.276 2.49 5.514 5.45 9.979 4.1 6.193 10.12 12.859 16.95 12.859 5.77 0 10.93-4.732 14.86-9.917 4.14-5.432 6.91-11.357 7.55-12.921.23-.679.47-1.029.62-1.111.31.391.64.761.96 1.07l.05.041c.96.803 2.09 1.276 3.33 1.276 0 0 1.42.144 3.68.761.5.185 1.05.35 1.67.556a43.25 43.25 0 0 1 11.73 6.007c.28.227.61.432.86.7 3.35 2.469 6.75 5.699 9.83 9.958 0 0 3.67 5.308 6.26 13.579 1.48 4.793 2.61 10.575 2.47 16.891h-11.32z" fill="#b56e2c"/><path d="M201.91 282.547c.04 7.716.33 13.62.58 17.221h-59.11l19.71-34.112h47.67c1.48 4.793 2.61 10.575 2.47 16.891h-11.32zm-69.5-39.749l-20.76 20.759-20.778-3.477c1.811-4.691 3.354-8.003 3.354-8.003a55.145 55.145 0 0 1 2.634-3.272c2.324-2.674 4.732-4.855 7.118-6.625.268-.288.597-.493.885-.679a66.774 66.774 0 0 1 2.304-1.563 43.141 43.141 0 0 1 9.283-4.465c.59-.226 1.15-.411 1.68-.535 2.39-.658 3.87-.843 3.87-.843 1.28 0 2.37-.473 3.35-1.276l.05-.041c.33-.309.65-.679.98-1.07.13.082.37.432.58 1.111.53 1.276 2.49 5.514 5.45 9.979z" fill="#df9c59"/><path d="M203.53 67.247c-14.84-14.8-36.64-21.991-36.64-21.991l6.05 5.347c-3.62-2.611-10.07-6.243-20.83-9.44-15.33-4.543-25.25.517-25.25.517s8-.256 11.92 2.695c-3.87-1.565-10.53-2.108-21.66 2.209-21.791 8.465-21.398 23.626-36.565 28.273-15.523 4.774-20.028-1.349-20.028-1.349s6.735 10.729 18.699 10.755c1.937 0 2.127-.034 2.145-.048-.018.045-4.484 11.51-5.344 20.072-.88 8.748 1.858 14.737 2.701 31.11.732 13.997 4.667 6.826 9.353 17.143 1.586 3.457 1.652 7.349 1.652 7.349 1.743.406 6.303-8.402 3.03-23.707-2.137-9.93 8.402-47.58 33.827-40.245 2.44.706 4.57 1.532 6.52 2.383-24.274 22.782-9.23 55.164-9.23 55.164-.58-27.348 23.99-45.651 31.59-50.647.71-.394 1.44-.848 2.21-1.391 4.18-2.914 9.05-5.297 14.07-6.702 3.34 6.401 5.54 14.249 3.93 22.934 0 0 7.15-10.737 6.31-23.507 6.18 6.164 17.16 19.793 14.07 36.508 0 0 7.67-11.495 6.2-24.842 3.84 6.703 5.57 15.983 4.47 27.995-2.33 25.373 2.03 25.187 2.03 25.187 1.31 0-.09-6.751 4.27-11.409 4.36-4.651 11-20.336 11-35.985 0-15.651-5.68-29.57-20.5-44.378z" fill="#753a40"/></g></svg>