<svg viewBox="0 0 300 301" xmlns="http://www.w3.org/2000/svg" fill-rule="evenodd" clip-rule="evenodd" stroke-linejoin="round" stroke-miterlimit="1.414"><g fill-rule="nonzero"><path fill="#a03f64" d="M.28.39h299.369v300.48H.28z"/><path d="M157.03 187.95v112.91H96.31c-.99-.39-1.48-.6-1.48-.6 0-7.92.64-14.87 1.73-20.979.92-5.01 2.14-9.481 3.58-13.421 3.21-8.79 7.51-15.079 11.93-19.6 1.46-1.49 2.94-2.78 4.38-3.9 2.45-1.9 4.84-3.32 6.98-4.35 1.11-.56 2.16-1.01 3.12-1.36.33-.13.64-.25.95-.35.37-.13.7-.23 1.03-.33.93-.29 1.69-.5 2.26-.6.76-.19 1.2-.23 1.2-.23.22 0 .43-.02.66-.06 1.91-.31 3.45-1.98 4.71-4.64.92-1.98 1.7-4.52 2.32-7.43.25-1.15.45-2.29.66-3.54.29-2.09.58-4.27.84-6.56.09-1.39.23-2.73.39-4.17.54-6.91.68-14.48.68-21.64 0 0 8.17.85 14.78.85z" fill="#e0bd9a"/><path d="M219.49 300.26s-.54.21-1.44.6h-61.02V187.95h.16c6.56 0 14.81-.85 14.81-.85 0 7.12.15 14.56.7 21.49.15 1.35.29 2.73.39 4.07.25 2.39.54 4.62.89 6.72v.04c.1.95.29 1.8.45 2.69.6 2.92 1.32 5.52 2.2 7.59 1.09 2.57 2.43 4.37 4.04 5.09.51.23 1.04.35 1.62.35 0 0 .29.04.8.15.85.16 2.29.49 4.14 1.17.29.11.57.21.88.33.17.06.33.13.5.21.43.16.86.37 1.31.58 2.27 1.03 4.86 2.49 7.58 4.55 1.02.77 2.05 1.63 3.1 2.58v.02c4.98 4.56 9.98 11.271 13.58 21.13 1.4 3.81 2.59 8.121 3.5 12.93 1.15 6.231 1.81 13.35 1.81 21.47z" fill="#efd0ad"/><path d="M174.17 219.17v.05c-1.53 2.37-6.67 9.19-16.85 9.19h-.09c-9.64-.05-15.27-7.07-16.71-9.14.3-2.08.6-4.25.84-6.52.1-1.34.25-2.72.4-4.15 4.69 1.18 9.83 1.93 15.27 2.02h.2c5.63-.09 10.82-.88 15.66-2.17.15 1.33.3 2.72.39 4.05.25 2.37.55 4.59.89 6.67z" fill="#be987f"/><path d="M156.53 59.28c-64.33 0-64.68 54.09-61.81 89.5-4.4-8.39-17.49-5.82-16.41 7.41 1.04 12.75 19.75 19.24 19.22 17.83 9.75 26.2 35.53 45.94 59 45.94h.5V59.28h-.5z" fill="#d2a686"/><path d="M82.41 150.61c3.17-5.14 8.11-2.91 9.29-1.78 1.29 1.24 2.33 2.82 1.53 5.83-.44 1.73-2.22 1.88-1.82 4.45.49 2.91 1.82 3.06 2.62 3.75.74.64 1.68 1.14 2.12 2.37.49 1.24.54 2.52.3 3.66-.5 2.07-3.51.39-5.54-.5-1.33-.64-5.58-4.25-6.67-5.43-2.67-3.06-3.95-8.99-1.83-12.35z" fill="#ac8774"/><path d="M156.88 59.28c64.34 0 64.68 54.09 61.86 89.5 4.4-8.39 17.45-5.82 16.36 7.41-.99 12.75-19.73 19.25-19.22 17.83-9.49 26.2-35.53 45.94-59 45.94h-.35l-.14-160.68h.49z" fill="#ddb598"/><path d="M231 150.61c-3.16-5.14-8.06-2.91-9.29-1.78-1.29 1.24-2.27 2.82-1.53 5.83.44 1.73 2.22 1.88 1.83 4.45-.5 2.91-1.83 3.06-2.57 3.75-.74.64-1.73 1.14-2.18 2.37-.44 1.24-.54 2.52-.29 3.66.49 2.07 3.5.39 5.53-.5 1.38-.64 5.58-4.25 6.67-5.43 2.72-3.06 3.95-8.99 1.83-12.35z" fill="#ac8774"/><path d="M156.03 74.55c-21.15 0-36.67 6.17-46.01 18.32-13.09 17.04-12.6 43.02-7.8 61.69 1.48 5.73 2.27 21.09 3.26 26.72 4.59 25.24 32.31 38.68 50.55 38.68h.49V74.55h-.49z" fill="#e0bd9a"/><path d="M201.98 92.92c-9.29-12.1-24.61-18.28-45.46-18.37v145.41c20.85-.25 45.81-14.97 50.06-38.68 1.03-5.63 1.78-20.99 3.26-26.72 4.84-18.62 5.33-44.55-7.86-61.64z" fill="#efd0ad"/><path d="M153.15 194.18c-.11-.02-.21-.04-.31-.06.1.02.19.04.31.06zm-.79-.17c-.09-.03-.18-.05-.27-.08h-.01s.11.03.28.08z" fill="#bc917b"/><path d="M144.52 175.32c-.25-5.03 9.18-1.84 12.28-1.68 2.46.13 9.93-1.58 10.57-1.14 4.39 2.97-4.66 8.98-10.72 8.98-1.62 0-11.98-3.13-12.13-6.16z" fill="#ddb598"/><path d="M138.56 74.91l-.27.27.05.09c.09-.14.13-.27.22-.36z" fill="#432e1b"/><path d="M153.32 191.23l-.31-.06c.1.02.19.04.31.06zm-.8-.18c-.1-.02-.19-.05-.28-.08l-.01.01s.11.03.29.07z" fill="#ba907b"/><path d="M110.37 131.3s4.91 20.25 13.33 21.9c8.43 1.66 17.55-1.63 17.55-1.63s.87-23.8-3.44-26.91c-4.31-3.12-14.25-7.63-27.44 6.64z" fill="#fff"/><path d="M141.26 151.51s-.19.06-.62.24c-.11-7.3-.78-17.33-3.48-19.25-4-2.95-13.05-7.1-25.14 4.25-1.09-3.13-1.65-5.51-1.65-5.51 13.22-14.3 23.16-9.8 27.44-6.67 4.32 3.12 3.45 26.94 3.45 26.94z" fill="#d6b496"/><path d="M136.27 141.2c0 4.6-3.71 8.34-8.29 8.34-4.58 0-8.3-3.74-8.3-8.34 0-4.61 3.72-8.34 8.3-8.34s8.29 3.73 8.29 8.34z" fill="#482315"/><path d="M127.59 146.75c-2.39-.2-4.23-2.63-4.01-5.3.21-2.67 2.42-4.76 4.82-4.56 2.39.2 4.23 2.62 4.02 5.3-.22 2.67-2.43 4.76-4.83 4.56z" fill="#7e3a22"/><path d="M127.8 145.79c-1.67-.14-3.4-1.98-3.21-4.25.18-2.27 2.19-3.81 3.85-3.67 1.67.14 3.4 1.99 3.21 4.26-.18 2.27-2.19 3.8-3.85 3.66z" fill="#211a10"/><path d="M126.45 140.2c-.07.82-.91 1.42-1.86 1.34-.96-.09-1.69-.82-1.62-1.63.07-.82.9-1.42 1.86-1.34.96.07 1.68.81 1.62 1.63zm5.38 4.74c-.04.4-.46.7-.93.66-.49-.03-.84-.4-.81-.81.03-.41.45-.71.93-.67.48.04.84.4.81.82z" fill="#fff"/><path d="M153.45 193.62c-.1-.02-.2-.04-.31-.07.11.03.19.05.31.07zm-.8-.18c-.1-.03-.18-.05-.28-.08l-.01.01s.11.03.29.07z" fill="#ba907b"/><path d="M157 190.58h.01-.01zm-3.92 2.47c-.11-.03-.23-.05-.34-.07.11.02.21.04.34.07zm-.87-.2c-.1-.02-.19-.05-.29-.08l-.01.01s.11.03.3.07zm4.79-.01h.01-.01zm-4.17-.64c-.11-.02-.22-.04-.33-.07.1.02.2.05.33.07zm-.86-.19c-.11-.03-.2-.06-.3-.09l-.01.01s.11.03.31.08zm1.63.08c-.11-.03-.22-.05-.32-.07.1.02.2.04.32.07zm-.84-.19c-.09-.03-.19-.06-.28-.08h-.01l.29.08z" fill="#bc917b"/><path d="M203.18 130.61s-4.91 20.25-13.34 21.91c-8.42 1.65-17.54-1.64-17.54-1.64s-.87-23.8 3.44-26.91c4.31-3.12 14.25-7.63 27.44 6.64z" fill="#fff"/><path d="M172.29 150.82s.19.06.62.24c.11-7.3.78-17.33 3.48-19.25 4-2.95 13.05-7.1 25.13 4.25 1.1-3.13 1.65-5.51 1.65-5.51-13.21-14.3-23.16-9.8-27.44-6.67-4.32 3.12-3.44 26.94-3.44 26.94z" fill="#d6b496"/><path d="M177.28 140.51c0 4.6 3.71 8.34 8.29 8.34 4.58 0 8.29-3.74 8.29-8.34 0-4.61-3.71-8.34-8.29-8.34-4.58 0-8.29 3.73-8.29 8.34z" fill="#482315"/><path d="M185.95 146.06c2.4-.2 4.24-2.63 4.02-5.3-.21-2.67-2.42-4.76-4.82-4.56-2.39.2-4.23 2.63-4.02 5.3.22 2.67 2.43 4.76 4.82 4.56z" fill="#7e3a22"/><path d="M185.75 145.1c1.66-.14 3.39-1.98 3.21-4.25-.19-2.27-2.19-3.81-3.86-3.67-1.66.14-3.39 1.99-3.21 4.26.19 2.27 2.19 3.8 3.86 3.66z" fill="#211a10"/><path d="M187.1 139.51c.07.82.9 1.42 1.86 1.34.96-.08 1.68-.82 1.62-1.63-.07-.82-.9-1.42-1.86-1.34-.96.08-1.69.81-1.62 1.63zm-5.38 4.74c.04.4.45.7.93.66.48-.03.84-.4.81-.81-.03-.41-.45-.71-.93-.67-.48.04-.84.41-.81.82z" fill="#fff"/><path d="M146.31 130.98c-.06-.1-1.59-2.44-4.72-4.85-1.96-1.51-3.88-2.66-5.87-3.52a30.429 30.429 0 0 0-7.55-2.09c-2.28-.25-4.81-.19-7.77.21-2.25.43-4.45 1.11-6.32 1.94-1.33.46-2.38 1.1-3.22 1.63-.33.19-.62.37-.92.54l-4.02 2.54 4.64-1.09c.21-.06.45-.12.7-.19.96-.25 2.15-.57 3.55-.78.33-.05.66-.11 1-.18.59-.12 1.19-.24 1.82-.27.71-.05 1.43-.1 2.18-.15l.98-.08c2.57-.03 4.74.17 6.66.61 2.11.37 4.28 1.05 6.26 1.98 1.88.9 3.68 1.8 5.08 2.83 2.83 1.9 4.41 3.49 4.42 3.51.39.39.91.59 1.44.59.38 0 .76-.1 1.09-.33.94-.61 1.2-1.88.6-2.79l-.03-.06zm57.7-6.16c-.27-.15-.56-.33-.89-.53-.84-.52-1.89-1.16-3.18-1.61-1.91-.84-4.11-1.52-6.39-1.95-2.93-.4-5.46-.47-7.75-.21-2.51.35-5.12 1.07-7.54 2.09-1.97.85-3.94 2.03-5.87 3.52-3.07 2.37-4.6 4.66-4.71 4.84l-.03.04c-.52.8-.41 1.88.26 2.56.38.38.89.59 1.43.59.54 0 1.05-.21 1.43-.59l.01-.02c.15-.15 1.68-1.66 4.43-3.5 1.38-1.02 3.18-1.92 5.05-2.82 1.99-.93 4.16-1.61 6.3-1.98 1.9-.44 4.07-.63 6.6-.61l1.03.08c.74.05 1.46.1 2.17.15.62.03 1.22.15 1.81.27.34.07.67.13 1 .18 1.4.21 2.59.53 3.55.78.25.07.49.13.71.19l4.64 1.09-4.06-2.56z" fill="#030405"/><path d="M152 196.02zm-.85-.19c-.1-.03-.19-.06-.29-.08h-.01s.12.03.3.08z" fill="#be927b"/><path d="M144.63 200.2c-.24-3.26 9.02.68 12.06.77 2.43.08 9.71-.48 10.39-.74 5.09-1.91-.28 5.44-10.54 5.83-4.7.19-11.77-3.89-11.91-5.86z" fill="#f0d2ad"/><path d="M174.78 193.92c-2.51-.13-5.1 1.98-8.12 1.66-.12-.06-.18-.06-.31-.06-.7-.13-1.39 0-2.14.18-.94.2-1.89.58-2.77.89-1.51.5-3.22.89-4.97.76v.01l-.1-.01-.1.01v-.01c-1.75.13-3.45-.26-4.96-.76-.89-.31-1.83-.69-2.77-.89-.76-.18-1.45-.31-2.14-.18-.13 0-.19 0-.32.06-3.02.32-5.6-1.79-8.11-1.66-.7.06-1.71-.13-2.27-.13.12.07.25.13.38.19 7.17 3.51 13.35 10.09 20.19 9.88h.2c6.85.21 13.03-6.37 20.2-9.88.12-.06.25-.12.38-.19-.57 0-1.58.19-2.27.13z" fill="#dcbf9e"/><path d="M176.88 193.72h.01s-7.29-2.82-12.47-1.17c0 0-1.93.76-3.93 1.22-1.22.48-2.69.61-4.12.56a23.86 23.86 0 0 1-2.98-.34c-.28-.04-.56-.1-.85-.16-.12-.03-.22-.05-.32-.07-.18-.04-.35-.07-.52-.12l-.3-.08h.01c-1.66-.45-3.08-1.01-3.08-1.01-5.18-1.65-12.47 1.17-12.47 1.17-.1.04-.16.07-.16.07.56 0 1.57.19 2.27.13 2.51-.13 5.09 1.98 8.11 1.66.13-.06.19-.06.32-.06.69-.13 1.38 0 2.14.18.94.2 1.88.58 2.77.89 1.51.5 3.21.89 4.96.76v.01l.1-.01.1.01v-.01c1.75.13 3.46-.26 4.97-.76.88-.31 1.83-.69 2.77-.89.75-.18 1.44-.31 2.14-.18.13 0 .19 0 .31.06 3.02.32 5.61-1.79 8.12-1.66.69.06 1.7-.13 2.27-.13 0 0-.06-.03-.17-.07z" fill="#c69f83"/><path d="M144.13 195.44c.14.03 13.66 4.17 24.23.09l-1.21-.83h-14.3l-8.72.74z" fill="#c69f83"/><path d="M101.25 151c-.9-2.92-1.33-5.99-1.45-9.14h-.01c-.01-.2-.02-.4-.02-.6.38 3.35.93 6.61 1.6 9.7-.04.02-.08.03-.12.04z" fill="#766359"/><path d="M101.37 150.96c-.67-3.09-1.22-6.35-1.6-9.7-.02-.66.02-1.31.08-1.93.02-.5.09-1 .23-1.47.13-.68.28-1.27.4-1.71.03-.15.07-.31.13-.49l.09-.21c.03-.11.05-.17.05-.17l.01.01c1.59-4.11 4.87-6.21 9.12-7.19 1.55-.36 3.11-.65 4.67-.87a45.106 45.106 0 0 0-4.18 4.01s.01.01.01.04c0 .01-.01.01-.01.02 0 0 2.33 9.61 6.53 16.13-5.27.67-10.23 1.85-14.77 3.29-.03.01-.05.02-.08.02-.23.08-.46.15-.68.22zm44.83-1.02c-.06-.03-.13-.05-.19-.07l-.5-.15c-1.4-.44-2.8-.81-4.19-1.14.05-4.13-.02-11.77-.95-17.4 1.83 1.37 2.83 2.37 2.84 2.39.39.39.91.59 1.44.59.38 0 .76-.1 1.09-.33.14-.09.26-.19.37-.31a9.554 9.554 0 0 1 1.76 4.1c.64 3.6.06 7.11-1.06 10.54-.19.59-.39 1.19-.61 1.78z" fill="#7b6c60"/><path d="M140.55 148.4c-2.31-.51-4.6-.89-6.87-1.15a8.316 8.316 0 0 0 2.59-6.05c0-4.61-3.71-8.34-8.29-8.34-4.58 0-8.3 3.73-8.3 8.34 0 2.23.88 4.26 2.3 5.75-1.72.1-3.42.26-5.08.48-4.2-6.52-6.53-16.13-6.53-16.13 0-.01.01-.01.01-.02.09.34.63 2.59 1.64 5.47 6.07-5.69 11.37-7.49 15.65-7.49 4.25 0 7.5 1.77 9.49 3.24 2.3 1.64 3.13 9.19 3.39 15.9z" fill="#858285"/><path d="M141.32 148.58l-.77-.18c-.26-6.71-1.09-14.26-3.39-15.9-1.99-1.47-5.24-3.24-9.49-3.24-4.28 0-9.58 1.8-15.65 7.49-1.01-2.88-1.55-5.13-1.64-5.47 0-.03-.01-.04-.01-.04 1.43-1.55 2.83-2.88 4.18-4.01 3.01-.44 6.04-.63 9.07-.63 2.67 0 5.35.15 8.04.43.74.07 1.47.16 2.2.27 1.82.88 3.56 1.75 4.93 2.76.58.39 1.11.77 1.58 1.12.93 5.63 1 13.27.95 17.4z" fill="#77685f"/><path d="M133.68 147.25c-2.55-.28-5.07-.42-7.55-.42h-.04c-1.38 0-2.76.05-4.11.12a8.32 8.32 0 0 1-2.3-5.75c0-4.61 3.72-8.34 8.3-8.34s8.29 3.73 8.29 8.34c0 2.38-.99 4.53-2.59 6.05zm-10.07-6.07c-.02.09-.03.18-.03.27-.22 2.67 1.62 5.1 4.01 5.3.11.01.22.01.32.01 1.07 0 2.07-.44 2.87-1.17.04 0 .08.01.12.01.03.01.05.01.08.01.44 0 .81-.29.85-.67a.665.665 0 0 0-.15-.47c.41-.67.67-1.45.74-2.28.21-2.68-1.63-5.1-4.02-5.3-.11-.01-.22-.01-.32-.01-1.29 0-2.5.65-3.35 1.68h-.07c-.89 0-1.63.57-1.69 1.35-.04.5.21.96.64 1.27z" fill="#35201a"/><path d="M127.91 146.76c-.1 0-.21 0-.32-.01-2.39-.2-4.23-2.63-4.01-5.3 0-.09.01-.18.03-.27.27.19.6.32.98.36-.19 2.27 1.54 4.11 3.21 4.25.07 0 .14.01.21.01.71 0 1.46-.29 2.1-.79.07.28.33.51.67.58-.8.73-1.8 1.17-2.87 1.17zm3.77-2.29a.901.901 0 0 0-.66-.35h-.08c.39-.56.65-1.24.71-1.99.19-2.27-1.54-4.12-3.21-4.26-.07 0-.14-.01-.21-.01-.83 0-1.71.4-2.41 1.07-.27-.2-.61-.33-.99-.36-.03-.01-.07-.01-.1-.01.85-1.03 2.06-1.68 3.35-1.68.1 0 .21 0 .32.01 2.39.2 4.23 2.62 4.02 5.3-.07.83-.33 1.61-.74 2.28z" fill="#512f24"/><path d="M128.01 145.8c-.07 0-.14-.01-.21-.01-1.67-.14-3.4-1.98-3.21-4.25h.17c.88 0 1.62-.57 1.69-1.34.04-.5-.21-.96-.63-1.27.7-.67 1.58-1.07 2.41-1.07.07 0 .14.01.21.01 1.67.14 3.4 1.99 3.21 4.26a4.04 4.04 0 0 1-.71 1.99h-.01c-.44 0-.81.29-.84.67-.01.07 0 .15.02.22-.64.5-1.39.79-2.1.79z" fill="#1d1916"/><path d="M124.76 141.54h-.17c-.38-.04-.71-.17-.98-.36-.43-.31-.68-.77-.64-1.27.06-.78.8-1.35 1.69-1.35h.07c.03 0 .07 0 .1.01.38.03.72.16.99.36.42.31.67.77.63 1.27-.07.77-.81 1.34-1.69 1.34zm6.22 4.07c-.03 0-.05 0-.08-.01-.04 0-.08-.01-.12-.01-.34-.07-.6-.3-.67-.58a.55.55 0 0 1-.02-.22c.03-.38.4-.67.84-.67h.09c.28.02.52.16.66.35.11.13.16.3.15.47-.04.38-.41.67-.85.67z" fill="#858285"/><path d="M144.65 134.16c-.53 0-1.05-.2-1.44-.59-.01-.02-1.01-1.02-2.84-2.39-.47-.35-1-.73-1.58-1.12-1.37-1.01-3.11-1.88-4.93-2.76 3.07.46 6.04 1.27 8.71 3.01 1.4.92 2.61 1.97 3.54 3.21-.11.12-.23.22-.37.31-.33.23-.71.33-1.09.33z" fill="#090b0c"/><path d="M213.39 152.33c-.04-.02-.08-.03-.12-.05-.86-.32-1.75-.64-2.65-.94 1.28-5.79 2.14-12.14 2.31-18.63.55.76 1.02 1.61 1.39 2.58l.01-.01s.02.06.06.17l.08.21c.06.18.11.34.13.49.13.44.28 1.03.41 1.71.13.47.2.97.22 1.47.09.81.13 1.67.06 2.53-.14 3.63-.69 7.16-1.9 10.47z" fill="#7a6960"/><path d="M210.62 151.34c-4.47-1.52-9.39-2.82-14.63-3.63 4.62-6.49 7.19-17.1 7.19-17.1-.01 0-.01-.01-.02-.02.01-.03.01-.04.01-.04-1.19-1.3-2.37-2.44-3.51-3.44 1.85.24 3.7.57 5.54.99 3.26.75 5.94 2.16 7.73 4.61-.17 6.49-1.03 12.84-2.31 18.63zm-42.12-2.5c-.08-.23-.15-.46-.23-.68-1.11-3.43-1.69-6.94-1.06-10.54.24-1.36.73-2.54 1.41-3.59.23.09.47.13.72.13.54 0 1.05-.21 1.43-.59l.01-.02c.11-.1.86-.85 2.22-1.91-.77 5.54-.82 12.54-.77 16.37-.94.18-1.88.38-2.82.6-.01 0-.02.01-.04.01l-.22.06c-.22.05-.44.1-.65.16z" fill="#807368"/><path d="M172.99 147.86c.26-6.75 1.08-14.4 3.4-16.05 1.99-1.47 5.24-3.24 9.49-3.24 4.28 0 9.58 1.8 15.64 7.49 1.01-2.88 1.56-5.12 1.64-5.47.01.01.01.02.02.02 0 0-2.57 10.61-7.19 17.1-1.74-.27-3.51-.48-5.31-.63a8.336 8.336 0 0 0 3.18-6.57c0-4.61-3.71-8.34-8.29-8.34-4.58 0-8.29 3.73-8.29 8.34 0 2.61 1.19 4.94 3.05 6.47-2.41.15-4.86.44-7.34.88z" fill="#858285"/><path d="M172.23 148.01c-.05-3.83 0-10.83.77-16.37.62-.47 1.35-1.02 2.21-1.59 1.19-.88 2.7-1.67 4.29-2.45 1.29-.26 2.6-.44 3.93-.57 2.68-.28 5.36-.43 8.03-.43 2.75 0 5.48.16 8.2.51 1.14 1 2.32 2.14 3.51 3.44 0 0 0 .01-.01.04-.08.35-.63 2.59-1.64 5.47-6.06-5.69-11.36-7.49-15.64-7.49-4.25 0-7.5 1.77-9.49 3.24-2.32 1.65-3.14 9.3-3.4 16.05l-.76.15z" fill="#77685f"/><path d="M190.68 147.08c-1.94-.16-3.91-.25-5.9-.25h-.04c-1.46 0-2.92.05-4.41.15a8.358 8.358 0 0 1-3.05-6.47c0-4.61 3.71-8.34 8.29-8.34 4.58 0 8.29 3.73 8.29 8.34 0 2.67-1.24 5.04-3.18 6.57zm-7.91-2.18c.79.73 1.8 1.18 2.86 1.18.11 0 .22-.01.32-.02 2.4-.2 4.24-2.63 4.02-5.3l-.03-.27c.42-.31.68-.77.64-1.27-.07-.77-.81-1.35-1.69-1.35h-.08c-.84-1.03-2.05-1.68-3.34-1.68-.1 0-.21 0-.32.01-2.39.2-4.23 2.63-4.02 5.3.07.83.33 1.61.73 2.28-.1.13-.15.3-.14.47.03.38.4.67.84.67.03 0 .06 0 .09-.01.04 0 .08 0 .12-.01z" fill="#35201a"/><path d="M185.63 146.08c-1.06 0-2.07-.45-2.86-1.18.34-.07.59-.3.67-.58.64.5 1.39.79 2.1.79.07 0 .14-.01.21-.01 1.66-.14 3.39-1.98 3.21-4.25.37-.03.71-.16.98-.36l.03.27c.22 2.67-1.62 5.1-4.02 5.3-.1.01-.21.02-.32.02zm-3.77-2.3c-.4-.67-.66-1.45-.73-2.28-.21-2.67 1.63-5.1 4.02-5.3.11-.01.22-.01.32-.01 1.29 0 2.5.65 3.34 1.68-.03 0-.06 0-.09.01-.38.03-.72.16-1 .36-.69-.67-1.58-1.07-2.41-1.07-.07 0-.14.01-.21.01-1.66.14-3.39 1.99-3.21 4.26.07.76.33 1.43.72 1.99h-.08c-.28.02-.52.16-.67.35z" fill="#512f24"/><path d="M185.54 145.11c-.71 0-1.46-.29-2.1-.79a.55.55 0 0 0 .02-.22c-.03-.38-.4-.67-.84-.67h-.01c-.39-.56-.65-1.23-.72-1.99-.18-2.27 1.55-4.12 3.21-4.26.07 0 .14-.01.21-.01.83 0 1.72.4 2.41 1.07-.41.31-.66.77-.62 1.27.06.77.81 1.34 1.69 1.34h.17c.18 2.27-1.55 4.11-3.21 4.25-.07 0-.14.01-.21.01z" fill="#1d1916"/><path d="M188.79 140.85c-.88 0-1.63-.57-1.69-1.34-.04-.5.21-.96.62-1.27.28-.2.62-.33 1-.36.03-.01.06-.01.09-.01h.08c.88 0 1.62.58 1.69 1.35.04.5-.22.96-.64 1.27-.27.2-.61.33-.98.36h-.17zm-6.23 4.07c-.44 0-.81-.29-.84-.67-.01-.17.04-.34.14-.47.15-.19.39-.33.67-.35h.09c.44 0 .81.29.84.67.01.07 0 .15-.02.22-.08.28-.33.51-.67.58-.04.01-.08.01-.12.01-.03.01-.06.01-.09.01z" fill="#858285"/><path d="M169.34 134.16c-.25 0-.49-.04-.72-.13.96-1.47 2.31-2.68 3.9-3.72 2.16-1.41 4.53-2.21 6.98-2.71-1.59.78-3.1 1.57-4.29 2.45-.86.57-1.59 1.12-2.21 1.59-1.36 1.06-2.11 1.81-2.22 1.91l-.01.02c-.38.38-.89.59-1.43.59z" fill="#090b0c"/><path d="M101.62 152.12c-.13-.37-.25-.74-.37-1.12.04-.01.08-.02.12-.04.08.39.17.78.25 1.16z" fill="#ada19a"/><path d="M122.09 167.08c-6.47 0-12.05-2.28-16.33-7.56a24.963 24.963 0 0 1-4.14-7.4c-.08-.38-.17-.77-.25-1.16.22-.07.45-.14.68-.22.03 0 .05-.01.08-.02 4.54-1.44 9.5-2.62 14.77-3.29 1.9 2.94 4.18 5.26 6.8 5.77 1.7.34 3.42.47 5.09.47 6.64 0 12.46-2.1 12.46-2.1v-.06h.01s.04-1.13.06-2.93c1.39.33 2.79.7 4.19 1.14l.5.15c.06.02.13.04.19.07-1.74 4.78-4.18 9.14-8.53 12.33-3.76 2.76-8.04 4.21-12.67 4.66-.99.1-1.96.15-2.91.15z" fill="#b0a6a0"/><path d="M128.79 153.67c-1.67 0-3.39-.13-5.09-.47-2.62-.51-4.9-2.83-6.8-5.77 1.66-.22 3.36-.37 5.08-.48a8.22 8.22 0 0 0 6 2.59c2.21 0 4.21-.87 5.7-2.29 2.27.26 4.56.64 6.87 1.15.04 1.15.07 2.28.09 3.35.37-.16.57-.22.61-.24v.06s-5.82 2.1-12.46 2.1z" fill="#b5b4b5"/><path d="M140.64 151.75c-.02-1.07-.05-2.2-.09-3.35l.77.18c-.02 1.8-.06 2.93-.06 2.93h-.01c-.04.02-.24.08-.61.24z" fill="#aea49e"/><path d="M127.98 149.54a8.22 8.22 0 0 1-6-2.59c1.35-.07 2.73-.12 4.11-.12h.04c2.48 0 5 .14 7.55.42a8.226 8.226 0 0 1-5.7 2.29z" fill="#867671"/><path d="M101.37 150.96c.22-.07.45-.14.68-.22-.23.08-.46.15-.68.22zm.76-.24c4.54-1.44 9.5-2.62 14.77-3.29-5.27.67-10.23 1.85-14.77 3.29z" fill="#96908e"/><path d="M116.9 147.43c1.66-.22 3.36-.38 5.08-.48-1.72.11-3.42.26-5.08.48z" fill="#989799"/><path d="M208.89 160.04c.28-2.2.59-4.11.95-5.48.27-1.05.53-2.13.78-3.22.9.3 1.79.62 2.65.94.04.02.08.03.12.05-.93 2.53-2.24 4.94-4.06 7.19-.15.17-.29.35-.44.52z" fill="#afa49f"/><path d="M193 167.08c-.95 0-1.93-.05-2.92-.15-4.63-.45-8.9-1.9-12.66-4.66-4.68-3.43-7.16-8.22-8.92-13.43.21-.06.43-.11.65-.16l.22-.06c.02 0 .03-.01.04-.01.94-.22 1.88-.42 2.82-.6.02 1.73.06 2.81.06 2.81h.01v.06s5.82 2.1 12.46 2.1c1.67 0 3.39-.13 5.08-.46 2.33-.46 4.39-2.34 6.15-4.81 5.24.81 10.16 2.11 14.63 3.63-.25 1.09-.51 2.17-.78 3.22-.36 1.37-.67 3.28-.95 5.48-4.22 4.91-9.65 7.04-15.89 7.04z" fill="#b3aaa4"/><path d="M184.76 152.98c-6.64 0-12.46-2.1-12.46-2.1v-.06c.04.02.23.08.61.24.02-1.02.04-2.1.08-3.2 2.48-.44 4.93-.73 7.34-.88a8.237 8.237 0 0 0 5.24 1.87c1.93 0 3.7-.66 5.11-1.77 1.8.15 3.57.36 5.31.63-1.76 2.47-3.82 4.35-6.15 4.81-1.69.33-3.41.46-5.08.46z" fill="#b5b4b5"/><path d="M172.91 151.06c-.38-.16-.57-.22-.61-.24h-.01s-.04-1.08-.06-2.81l.76-.15c-.04 1.1-.06 2.18-.08 3.2z" fill="#aea49e"/><path d="M185.57 148.85c-1.99 0-3.81-.7-5.24-1.87 1.48-.1 2.96-.15 4.41-.15h.04c1.99 0 3.96.09 5.9.25a8.223 8.223 0 0 1-5.11 1.77z" fill="#867671"/><path d="M172.23 148.01l.76-.15-.76.15z" fill="#948e8d"/><path d="M180.33 146.98zm4.45-.15h-.02.02z" fill="#7e7472"/><path d="M215.29 141.86c-.14 3.63-.69 7.16-1.9 10.47-.93 2.53-2.24 4.94-4.06 7.19-4.92 6.06-11.54 8.16-19.25 7.41-4.63-.45-8.9-1.9-12.66-4.66-4.68-3.43-7.16-8.23-8.92-13.43-.08-.23-.15-.46-.23-.68-1.11-3.43-1.69-6.94-1.06-10.54.58-3.26 2.59-5.53 5.31-7.31 3.3-2.15 7.07-2.89 10.91-3.28 7.3-.76 14.58-.59 21.77 1.07 4.26.98 7.53 3.08 9.12 7.19l.01-.01s.02.06.06.17l.08.21c.06.18.11.34.13.49.13.44.28 1.03.41 1.71.13.47.21.97.22 1.47.09.81.13 1.67.06 2.53zm-68.48 6.3c-.19.59-.39 1.19-.61 1.78-1.74 4.78-4.18 9.14-8.53 12.33-3.76 2.76-8.04 4.21-12.67 4.66-7.7.75-14.33-1.35-19.24-7.41-2.14-2.64-3.57-5.5-4.51-8.52-.9-2.92-1.33-5.99-1.45-9.14h-.01c-.06-.86-.02-1.72.06-2.53.02-.5.09-1 .23-1.47.13-.68.28-1.27.4-1.71.03-.15.07-.31.13-.49l.09-.21c.03-.11.05-.17.05-.17l.01.01c1.59-4.11 4.87-6.21 9.12-7.19 7.2-1.66 14.47-1.83 21.78-1.07 3.84.39 7.61 1.13 10.91 3.28 2.72 1.78 4.73 4.05 5.3 7.31.64 3.6.06 7.11-1.06 10.54zm77.13-16.79c-.09-1.63-.22-1.8-1.89-2.17-.84-.18-1.68-.37-2.52-.56-4.52-1.02-9.02-2.08-13.57-2.92-12.54-2.32-24.97-2.96-36.81 3.08-1.96 1-4.05 1.19-6.27.73a28.35 28.35 0 0 0-5.34-.59c-1.78.02-3.57.23-5.33.59-2.23.46-4.31.27-6.27-.73-11.84-6.04-24.27-5.4-36.81-3.08-4.3.79-8.56 1.79-12.83 2.75-1.09.25-2.18.49-3.27.73-1.66.37-1.8.54-1.88 2.17-.08 1.51-.19 3.02 1.31 4.05l.21.26c1.7 1.93 2.95 4 3.63 6.39.21.74.37 1.51.47 2.31.33 2.59.91 5.12 1.76 7.56.88 2.5 2.06 4.91 3.57 7.18 3.81 5.75 9.25 9.27 16.17 10.09 11.24 1.33 20.42-2.38 26.88-11.64a48.97 48.97 0 0 0 3.93-6.63c1.52-3.09 2.7-6.34 3.5-9.73.14-.6.04-1.35-.21-1.91-1.07-2.39-.26-4.2 2.33-4.81.94-.23 1.89-.35 2.84-.37.95.02 1.9.14 2.85.37 2.59.61 3.39 2.42 2.33 4.81-.26.56-.35 1.31-.21 1.91.69 2.94 1.66 5.77 2.9 8.49 1.25 2.74 2.77 5.37 4.52 7.87 6.47 9.26 15.64 12.97 26.88 11.64 6.93-.82 12.37-4.34 16.18-10.09 1.22-1.84 2.22-3.77 3.03-5.76 1.15-2.87 1.9-5.88 2.29-8.98.2-1.57.61-3 1.22-4.33.71-1.57 1.69-3.01 2.88-4.37l.22-.26c1.49-1.03 1.38-2.54 1.31-4.05z" fill="#fff"/><path d="M204.96 269.981H109c2.93-6.561 6.24-13.96 7.45-27.621 2.45-1.9 4.84-3.32 6.98-4.35 1.11-.56 2.16-1.01 3.12-1.36.33-.13.64-.25.95-.35.37-.13.7-.23 1.03-.33.93-.29 1.69-.5 2.26-.6 6.96 10.02 19.24 26.32 25.91 26.381h.02c.1 0 .18 0 .31-.02 6.83-.431 19.19-16.671 26.06-26.441.85.16 2.29.49 4.14 1.17.29.11.57.21.88.33.17.06.33.13.5.21.43.16.86.37 1.31.58 2.27 1.03 4.86 2.49 7.58 4.55 1.21 13.82 4.52 21.25 7.46 27.851zM102.93 300.86h108.12c-.26-4.099-.62-9.89-1.01-13.69H103.93c-.38 3.8-.75 9.591-1 13.69z" fill="#46433f"/><path d="M204.97 269.981H109c-2.22 4.979-4.22 9.489-4.93 15.889-.05.391-.09.83-.14 1.3h106.11c-.04-.47-.09-.909-.14-1.3-.7-6.4-2.71-10.91-4.93-15.889z" fill="#f9ad3a"/><path d="M176.05 188.26s-9.14-10.07-15.35-6.24V182c-3.32 2.16-6.27.77-7.21.21l-.17-.1c-.1-.07-.15-.11-.15-.11v.02c-6.21-3.83-15.35 6.24-15.35 6.24s-6.36 6.64-12.73 4.53c-1.07-.35-1.85 1.04-1.07 1.85 3.89 3.99 10.96 8.15 22.75 5.69 2.62-.55 4.68-1.26 6.28-2.08a8.57 8.57 0 0 1 7.78.01c1.59.81 3.65 1.52 6.27 2.07 11.79 2.46 18.86-1.7 22.75-5.69.78-.81 0-2.2-1.07-1.85-6.37 2.11-12.73-4.53-12.73-4.53z" fill="#46433f"/></g></svg>