<svg viewBox="0 0 300 301" xmlns="http://www.w3.org/2000/svg" fill-rule="evenodd" clip-rule="evenodd" stroke-linejoin="round" stroke-miterlimit="1.414"><path fill="#c21e51" fill-rule="nonzero" d="M.27.365h299.36V300.07H.27z"/><path d="M154.28 187.8v112.27H93.55c-.99-.394-1.48-.594-1.48-.594 0-14.331 2.1-25.505 5.3-34.219 7.73-21.03 21.88-27.709 28.4-29.723 2.13-.661 3.45-.82 3.45-.82.23 0 .45-.021.67-.056 1.91-.308 3.46-1.969 4.71-4.619.93-1.968 1.7-4.479 2.33-7.386.25-1.132.45-2.275.65-3.51.29-2.077.59-4.25.84-6.525.09-1.384.24-2.717.39-4.152.54-6.868.69-14.388.69-21.507 0 0 8.16.841 14.78.841z" fill="#e0bd9a" fill-rule="nonzero"/><path d="M216.74 299.476s-.55.2-1.44.594h-61.02V187.8h.14c6.58 0 14.83-.841 14.83-.841 0 7.068.15 14.485.69 21.358.15 1.338.3 2.717.39 4.055.25 2.373.55 4.597.9 6.673v.046c.09.943.29 1.784.44 2.671.6 2.921 1.33 5.489 2.21 7.549 1.09 2.563 2.41 4.352 4.02 5.06.52.23 1.06.343 1.63.343 0 0 2.34.282 5.84 1.656 7.15 2.798 19.16 10.143 26.06 28.887 3.2 8.714 5.31 19.888 5.31 34.219z" fill="#efd0ad" fill-rule="nonzero"/><path d="M171.23 218.835v.05c-1.54 2.357-6.68 9.134-16.85 9.134h-.1c-9.64-.049-15.27-7.023-16.7-9.086.29-2.062.59-4.223.84-6.482.09-1.326.24-2.702.39-4.126a67.76 67.76 0 0 0 15.27 2.014h.2a65.47 65.47 0 0 0 15.66-2.161c.15 1.326.3 2.701.4 4.027.24 2.357.54 4.568.89 6.63z" fill="#be987f" fill-rule="nonzero"/><path d="M153.58 59.856c-64.33 0-64.68 53.779-61.81 88.993-4.4-8.349-17.49-5.795-16.41 7.367 1.04 12.672 19.75 19.129 19.23 17.73 9.74 26.043 35.52 45.675 58.99 45.675h.5V59.856h-.5z" fill="#d2a686" fill-rule="nonzero"/><path d="M79.47 150.666c3.16-5.108 8.1-2.897 9.28-1.768 1.29 1.228 2.33 2.8 1.54 5.796-.45 1.719-2.23 1.866-1.83 4.42.49 2.897 1.83 3.045 2.62 3.732.74.639 1.68 1.13 2.12 2.358.5 1.228.55 2.505.3 3.634-.5 2.063-3.51.393-5.54-.491-1.33-.638-5.58-4.224-6.67-5.402-2.66-3.045-3.95-8.939-1.82-12.279z" fill="#ac8774" fill-rule="nonzero"/><path d="M153.93 59.856c64.34 0 64.68 53.779 61.87 88.993 4.39-8.349 17.44-5.795 16.35 7.367-.99 12.672-19.73 19.133-19.22 17.73-9.49 26.043-35.53 45.675-59 45.675h-.35l-.14-159.765h.49z" fill="#ddb598" fill-rule="nonzero"/><path d="M228.05 150.666c-3.16-5.108-8.05-2.897-9.29-1.768-1.28 1.228-2.27 2.8-1.53 5.796.44 1.719 2.22 1.866 1.83 4.42-.5 2.897-1.83 3.045-2.57 3.732-.74.639-1.73 1.13-2.18 2.358-.44 1.228-.54 2.505-.29 3.634.49 2.063 3.51.393 5.53-.491 1.39-.638 5.59-4.224 6.67-5.402 2.72-3.045 3.96-8.939 1.83-12.279z" fill="#ac8774" fill-rule="nonzero"/><path d="M153.08 75.032c-21.15 0-36.67 6.139-46.01 18.221-13.09 16.944-12.6 42.778-7.8 61.342 1.48 5.698 2.27 20.972 3.26 26.571 4.59 25.097 32.32 38.455 50.55 38.455h.49V75.032h-.49z" fill="#e0bd9a" fill-rule="nonzero"/><path d="M199.03 93.302c-9.29-12.033-24.6-18.172-45.46-18.27v144.589c20.86-.245 45.81-14.881 50.06-38.455 1.04-5.599 1.78-20.873 3.26-26.571 4.84-18.516 5.34-44.3-7.86-61.293z" fill="#efd0ad" fill-rule="nonzero"/><path d="M150.2 193.99c-.1-.022-.2-.041-.3-.065.09.023.18.041.3.065zm-.79-.175c-.09-.024-.17-.051-.27-.076l-.01.004.28.072z" fill="#bc917b" fill-rule="nonzero"/><path d="M129.44 75.393l-.27.267.05.089c.09-.133.13-.267.22-.356z" fill="#432e1b" fill-rule="nonzero"/><path d="M150.37 191.057zm-.8-.18c-.1-.025-.18-.052-.28-.078l-.01.005s.11.029.29.073z" fill="#ba907b" fill-rule="nonzero"/><path d="M141 172.692c-.25-5.131 9.43-1.875 12.62-1.714 2.52.128 10.19-1.618 10.85-1.168 4.51 3.042-4.78 9.17-11.01 9.17-1.66 0-12.31-3.192-12.46-6.288z" fill="#dcb497" fill-rule="nonzero"/><path d="M107.42 131.466s4.91 20.135 13.33 21.778c8.43 1.643 17.55-1.623 17.55-1.623s.87-23.664-3.44-26.755c-4.31-3.106-14.25-7.594-27.44 6.6z" fill="#fff" fill-rule="nonzero"/><path d="M138.31 151.559s-.19.055-.62.236c-.11-7.258-.78-17.227-3.48-19.137-4-2.933-13.05-7.062-25.13 4.229-1.1-3.119-1.65-5.484-1.65-5.484 13.21-14.22 23.16-9.74 27.44-6.633 4.31 3.105 3.44 26.789 3.44 26.789z" fill="#d6b496" fill-rule="nonzero"/><path d="M133.32 141.306a8.29 8.29 0 1 1-16.58 0 8.29 8.29 0 1 1 16.58 0z" fill="#482315" fill-rule="nonzero"/><path d="M124.64 146.829c-2.39-.198-4.23-2.615-4.01-5.273.21-2.656 2.42-4.735 4.82-4.534 2.39.196 4.23 2.611 4.02 5.268-.22 2.657-2.43 4.74-4.83 4.539z" fill="#7e3a22" fill-rule="nonzero"/><path d="M124.85 145.871c-1.67-.142-3.4-1.971-3.21-4.224.19-2.26 2.19-3.786 3.85-3.648 1.67.141 3.4 1.978 3.21 4.231-.18 2.256-2.19 3.778-3.85 3.641z" fill="#211a10" fill-rule="nonzero"/><path d="M123.5 140.313c-.07.814-.9 1.409-1.86 1.33-.96-.081-1.68-.809-1.62-1.619.07-.818.9-1.413 1.86-1.334.96.077 1.69.805 1.62 1.623zm5.38 4.71c-.04.405-.45.704-.93.663-.48-.037-.84-.404-.81-.809.03-.405.45-.704.93-.664.48.038.84.401.81.81z" fill="#fff" fill-rule="nonzero"/><path d="M150.51 193.432c-.11-.022-.21-.043-.32-.067l.32.067zm-.81-.18c-.1-.025-.18-.052-.28-.078l-.01.004s.11.03.29.074z" fill="#ba907b" fill-rule="nonzero"/><path d="M150.13 192.863c-.11-.024-.22-.045-.33-.071.1.024.2.045.33.071zm-.86-.193c-.11-.026-.2-.056-.3-.083l-.01.005s.11.031.31.078zm.61-.649c-.11-.024-.22-.045-.33-.071l.33.071zm-.86-.193c-.11-.026-.2-.055-.3-.083l-.01.004s.11.032.31.079zm1.63.078c-.11-.023-.21-.044-.32-.069.1.024.2.043.32.069zm-.83-.187c-.1-.025-.19-.053-.29-.08l-.01.005s.11.03.3.075z" fill="#bc917b" fill-rule="nonzero"/><path d="M200.23 130.781s-4.91 20.135-13.33 21.778c-8.43 1.643-17.55-1.623-17.55-1.623s-.87-23.664 3.44-26.756c4.31-3.105 14.25-7.593 27.44 6.601z" fill="#fff" fill-rule="nonzero"/><path d="M169.34 150.873s.19.057.62.237c.11-7.258.78-17.227 3.48-19.137 4-2.933 13.05-7.062 25.14 4.229 1.09-3.119 1.64-5.484 1.64-5.484-13.21-14.22-23.16-9.74-27.43-6.633-4.32 3.105-3.45 26.788-3.45 26.788z" fill="#d6b496" fill-rule="nonzero"/><path d="M174.33 140.62a8.29 8.29 0 1 0 16.58 0c0-4.58-3.71-8.294-8.29-8.294a8.291 8.291 0 0 0-8.29 8.294z" fill="#482315" fill-rule="nonzero"/><path d="M183.01 146.144c2.39-.198 4.23-2.615 4.01-5.273-.21-2.656-2.42-4.736-4.82-4.534-2.39.196-4.23 2.611-4.02 5.267.22 2.658 2.43 4.74 4.83 4.54z" fill="#7e3a22" fill-rule="nonzero"/><path d="M182.8 145.185c1.67-.142 3.4-1.97 3.21-4.223-.19-2.26-2.19-3.786-3.85-3.648-1.67.141-3.4 1.978-3.21 4.231.18 2.255 2.19 3.778 3.85 3.64z" fill="#211a10" fill-rule="nonzero"/><path d="M184.15 139.628c.07.814.9 1.409 1.86 1.331.96-.082 1.69-.81 1.62-1.62-.07-.818-.9-1.413-1.86-1.335-.96.078-1.69.806-1.62 1.624zm-5.38 4.71c.04.405.45.704.93.663.48-.037.84-.404.81-.81-.03-.404-.45-.704-.93-.663-.48.037-.84.401-.81.81z" fill="#fff" fill-rule="nonzero"/><path d="M143.36 120.858c-.06-.098-1.59-2.423-4.72-4.82-1.96-1.503-3.87-2.646-5.87-3.498a30.32 30.32 0 0 0-7.55-2.081c-2.28-.254-4.81-.187-7.77.211-2.25.429-4.45 1.099-6.32 1.922-1.33.459-2.38 1.102-3.22 1.62-.33.199-.62.378-.92.538l-4.02 2.531 4.64-1.09c.21-.055.45-.116.7-.183.96-.254 2.15-.571 3.55-.776.33-.048.67-.114 1.01-.182.58-.117 1.18-.237 1.81-.267.71-.047 1.44-.099 2.18-.153l.98-.07c2.57-.032 4.74.163 6.67.607a25.32 25.32 0 0 1 6.25 1.963c1.88.897 3.68 1.787 5.08 2.817 2.83 1.891 4.41 3.468 4.43 3.483v.001a2.017 2.017 0 0 0 2.53.266c.93-.611 1.19-1.87.6-2.778l-.04-.061zm57.7-6.127a14.18 14.18 0 0 1-.88-.52c-.85-.517-1.9-1.16-3.19-1.603-1.91-.839-4.11-1.509-6.39-1.943-2.92-.393-5.46-.461-7.75-.205a30.398 30.398 0 0 0-7.54 2.081c-1.97.84-3.94 2.016-5.87 3.497-3.07 2.353-4.59 4.637-4.71 4.813l-.03.041c-.52.798-.41 1.866.26 2.538a2.014 2.014 0 0 0 2.86 0l.02-.017c.14-.148 1.68-1.644 4.42-3.48 1.38-1.014 3.18-1.905 5.05-2.801 2-.922 4.16-1.602 6.3-1.971 1.9-.438 4.07-.629 6.61-.602l1.02.073c.74.053 1.46.104 2.17.152.62.029 1.23.149 1.81.266.34.068.67.134 1 .182 1.4.205 2.6.522 3.56.776.25.067.48.129.7.184l4.64 1.09-4.06-2.551z" fill="#cd4c27" fill-rule="nonzero"/><path d="M147.53 200.459c-.1-.022-.21-.042-.31-.066.1.023.19.041.31.066zm-.8-.179c-.1-.024-.18-.051-.28-.077l-.01.004s.11.029.29.073zm.57-.601c-.1-.022-.21-.042-.31-.066l.31.066zm-.8-.179c-.1-.025-.18-.052-.28-.077l-.01.004s.11.029.29.073zm1.51.072c-.1-.021-.2-.041-.29-.064.09.022.18.04.29.064zm-.77-.173c-.09-.023-.18-.05-.27-.074l-.01.004.28.07z" fill="#be927b" fill-rule="nonzero"/><path d="M141.27 201.969c-.23-3.2 8.92.67 11.92.762 2.4.081 9.6-.474 10.27-.728 5.03-1.883-.28 5.349-10.42 5.73-4.64.185-11.63-3.824-11.77-5.764z" fill="#f0d2ad" fill-rule="nonzero"/><path d="M171.44 194.283c-5.8-1.086-18.03.073-18.03.073-10.08 1.675-17.97-.107-18.03-.038-.24.024 8.05 11.023 17.89 10.516 9.84.507 18.41-10.516 18.17-10.551z" fill="#c2646e" fill-rule="nonzero"/><path d="M159.24 191.961c-2.61-.289-4.48 1.597-5.82 1.459-1.36.127-3.14-1.083-5.77-1.109-3.7-.036-5.5-.361-12.27 2.007.24.462 4.58 2.972 12.7 3.11.11 0 2.29 1.236 5.39 1.214 1.94-.012 4.6-1.306 4.7-1.306 8.13-.127 13.1-2.544 13.33-2.994-8.95-2.773-8.24-2.417-12.26-2.381z" fill="#d87475" fill-rule="nonzero"/><path d="M200.22 272.925v27.137h-45.94v-43.103c5.37-.103 11.73-1.44 18.89-5.061.14-.268.41-.453.7-.412 1.66.165 6.33 1.811 10.39 4.136 1.83 1.028 3.49 2.181 4.93 3.25 2.7 2.017 4.51 3.745 4.51 3.745s6.52 6.028 6.52 10.308z" fill="#c42029" fill-rule="nonzero"/><path d="M154.28 256.959v43.103h-46.5v-18.434c-.02-.515-.02-1.029-.02-1.502v-1.358c.56-12.715 8.68-17.488 8.68-17.488.54-.453 1.18-.988 1.94-1.564 1.62-1.276 3.72-2.798 6-4.094 4.9-2.798 10.68-4.609 11.01-4.053 0 0 7.02 5.658 18.89 5.39z" fill="#a91e22" fill-rule="nonzero"/><path d="M132.87 282.138l-3.46-3.712-3.92 4.198-3.92-4.198-3.47 3.712 3.92 4.204-3.92 4.201 3.47 3.718 3.92-4.202 3.92 4.202 3.46-3.718-3.92-4.201 3.92-4.204zm19.51 0l-3.46-3.712-3.92 4.198-3.92-4.198-3.46 3.712 3.91 4.204-3.91 4.201 3.46 3.718 3.92-4.202 3.92 4.202 3.46-3.718-3.91-4.201 3.91-4.204z" fill="#c42029"/><path d="M171.9 282.138l-3.47-3.712-3.92 4.198-3.92-4.198-3.46 3.712 3.92 4.204-3.92 4.201 3.46 3.718 3.92-4.202 3.92 4.202 3.47-3.718-3.92-4.201 3.92-4.204zm19.51 0l-3.47-3.712-3.92 4.198-3.92-4.198-3.46 3.712 3.91 4.204-3.91 4.201 3.46 3.718 3.92-4.202 3.92 4.202 3.47-3.718-3.92-4.201 3.92-4.204z" fill="#a91e22"/><path d="M100.72 164.332c-2.28-1.922-4.78-5.322-6.41-11.511l.6-.254c.02-.01.05-.021.07-.031 1.13-.47 2.29-.923 3.47-1.353.26 1.161.53 2.3.82 3.412.57 2.193 1.04 5.805 1.45 9.737z" fill="url(#a)"/><path d="M114.92 167.962c-4.3 0-7.91-.644-9.79-1.211-.99-.321-2.63-.92-4.41-2.419-.41-3.932-.88-7.544-1.45-9.737-.29-1.112-.56-2.251-.82-3.412 4.77-1.732 9.95-3.102 15.44-3.782 1.91 2.977 4.21 5.326 6.86 5.843 1.7.33 3.42.462 5.09.462 6.64.001 12.46-2.085 12.46-2.085v-.059l.01-.003s.03-.756.05-2.016a55.3 55.3 0 0 1 3.48 1.225c.14.053.27.106.41.16-5.06 13.918-17.86 17.035-27.33 17.034z" fill="url(#b)"/><path d="M125.84 153.706c-1.67 0-3.39-.132-5.09-.462-2.65-.517-4.95-2.866-6.86-5.843a61.41 61.41 0 0 1 5.09-.419 8.297 8.297 0 0 0 6.05 2.617c2.04 0 3.9-.733 5.34-1.951 2.4.384 4.82.933 7.26 1.668.03.85.04 1.681.06 2.479.37-.157.57-.219.61-.233v.059s-5.82 2.086-12.46 2.085z" fill="url(#c)"/><path d="M137.69 151.795c-.02-.798-.03-1.629-.06-2.479.24.074.49.149.73.227-.02 1.26-.05 2.016-.05 2.016l-.01.003c-.04.014-.24.076-.61.233z" fill="url(#d)"/><path d="M125.03 149.599a8.297 8.297 0 0 1-6.05-2.617c.78-.031 1.57-.047 2.35-.048h.05c2.94.001 5.94.224 8.99.714a8.231 8.231 0 0 1-5.34 1.951z" fill="url(#e)"/><path d="M205.61 162.786c.37-3.32.79-6.289 1.28-8.191.25-.958.49-1.935.72-2.93a106.089 106.089 0 0 1 2.22.889l.63.267c-1.26 4.789-3.05 7.908-4.85 9.965z" fill="url(#f)"/><path d="M189.84 167.962c-9.46 0-22.26-3.116-27.32-17.034l.33-.132c2.16-.842 4.31-1.53 6.44-2.08.02 1.344.05 2.157.05 2.157l.01.003v.06s5.82 2.085 12.46 2.085c1.67 0 3.39-.132 5.09-.462 2.34-.457 4.42-2.351 6.19-4.845 5.16.822 10.04 2.235 14.52 3.951-.23.995-.47 1.972-.72 2.93-.49 1.902-.91 4.871-1.28 8.191-2.33 2.673-4.7 3.551-5.97 3.965-1.88.567-5.49 1.211-9.8 1.211z" fill="url(#g)"/><path d="M181.81 153.021c-6.64 0-12.46-2.085-12.46-2.085v-.06c.04.014.24.076.61.234.02-.83.04-1.695.07-2.58a55.573 55.573 0 0 1 7.58-1.303 8.252 8.252 0 0 0 5.01 1.687c1.96 0 3.76-.68 5.18-1.817 1.79.132 3.56.341 5.29.617-1.77 2.494-3.85 4.388-6.19 4.845-1.7.33-3.42.462-5.09.462z" fill="url(#h)"/><path d="M169.96 151.11c-.37-.158-.57-.22-.61-.234l-.01-.003s-.03-.813-.05-2.157c.24-.064.49-.126.74-.186-.03.885-.05 1.75-.07 2.58z" fill="url(#i)"/><path d="M182.62 148.914c-1.88 0-3.62-.629-5.01-1.687 1.95-.199 3.88-.292 5.78-.293h.04c1.47.001 2.93.057 4.37.163a8.257 8.257 0 0 1-5.18 1.817z" fill="url(#j)"/><path d="M94.31 152.821a45.197 45.197 0 0 1-.91-4.294 61.46 61.46 0 0 1-.68-6.083c-.43-6.718.9-10.407 3.45-12.559-.04 7.404.84 14.714 2.28 21.297-1.18.431-2.34.884-3.47 1.354-.02.01-.05.021-.07.031l-.6.254z" fill="url(#k)"/><path d="M98.45 151.182c-1.44-6.583-2.32-13.893-2.28-21.297 2.74-2.304 6.87-2.844 11.74-3.451 1.91-.23 3.76-.377 5.54-.459-1.92 1.394-3.93 3.177-6.02 5.428 0 0 0 .015.01.045-.01.006-.01.012-.02.018 0 0 2.3 9.455 6.47 15.935-5.49.679-10.67 2.05-15.44 3.781zm43.8-.254c-.14-.054-.27-.107-.41-.16a55.3 55.3 0 0 0-3.48-1.225c.08-4.377.07-14.83-1.47-20.776 3.2 1.105 5.92 2.566 6.41 4.373 1.08 3.855 1.39 8.214.16 13.663-.13.595-.29 1.161-.44 1.724a31 31 0 0 1-.77 2.401z" fill="url(#l)"/><path d="M137.63 149.316a55.578 55.578 0 0 0-7.26-1.668 8.256 8.256 0 0 0 2.95-6.342 8.29 8.29 0 1 0-16.58 0c0 2.196.85 4.192 2.24 5.676a61.41 61.41 0 0 0-5.09.419c-4.17-6.48-6.47-15.935-6.47-15.935.01-.006.01-.012.02-.018.08.339.62 2.57 1.64 5.439 6.06-5.666 11.36-7.448 15.64-7.448 4.25 0 7.5 1.758 9.49 3.219 2.4 1.7 3.2 9.783 3.42 16.658z" fill="url(#m)"/><path d="M138.36 149.543c-.24-.078-.49-.153-.73-.227-.22-6.875-1.02-14.958-3.42-16.658-1.99-1.461-5.24-3.219-9.49-3.219-4.28 0-9.58 1.782-15.64 7.448-1.02-2.869-1.56-5.1-1.64-5.439-.01-.03-.01-.045-.01-.045 2.09-2.251 4.1-4.034 6.02-5.428 1.29-.06 2.54-.086 3.74-.086 3.79 0 7.12.259 9.73.545 2.42.349 6.48 1.131 9.97 2.333 1.54 5.946 1.55 16.399 1.47 20.776z" fill="url(#n)"/><path d="M130.37 147.648c-3.05-.49-6.05-.713-8.99-.714h-.05c-.78.001-1.57.017-2.35.048a8.274 8.274 0 0 1-2.24-5.676 8.29 8.29 0 1 1 16.58 0c0 2.544-1.14 4.82-2.95 6.342zm-9.71-6.361l-.03.269c-.22 2.658 1.62 5.075 4.01 5.273.11.009.22.013.33.013 1.06 0 2.07-.442 2.86-1.172a.987.987 0 0 0 .2.02c.45 0 .82-.287.85-.667a.701.701 0 0 0-.14-.465c.4-.666.66-1.439.73-2.268.21-2.657-1.63-5.072-4.02-5.268a3.997 3.997 0 0 0-.32-.014c-1.29 0-2.5.65-3.35 1.676l-.07-.001c-.89 0-1.63.572-1.69 1.341-.04.494.21.958.64 1.263z" fill="url(#o)"/><path d="M124.97 146.842c-.11 0-.22-.004-.33-.013-2.39-.198-4.23-2.615-4.01-5.273l.03-.269c.27.195.6.325.98.356v.004c-.19 2.253 1.54 4.082 3.21 4.224.07.005.14.008.21.008.71 0 1.46-.285 2.1-.786.07.28.33.511.67.577-.79.73-1.8 1.172-2.86 1.172zm3.77-2.284a.948.948 0 0 0-.75-.349c.39-.555.65-1.226.71-1.979.19-2.253-1.54-4.09-3.21-4.231a2.458 2.458 0 0 0-.21-.009c-.82 0-1.71.39-2.41 1.061a1.919 1.919 0 0 0-1.09-.367c.85-1.026 2.06-1.676 3.35-1.676.1 0 .21.005.32.014 2.39.196 4.23 2.611 4.02 5.268a5.264 5.264 0 0 1-.73 2.268z" fill="url(#p)"/><path d="M125.06 145.879c-.07 0-.14-.003-.21-.008-1.67-.142-3.4-1.971-3.21-4.224v-.004c.05.005.11.007.17.007.88 0 1.63-.572 1.69-1.337.04-.495-.21-.957-.63-1.262.7-.671 1.59-1.061 2.41-1.061.07 0 .14.003.21.009 1.67.141 3.4 1.978 3.21 4.231a3.972 3.972 0 0 1-.71 1.979h-.01c-.44 0-.81.288-.84.668-.01.074 0 .146.02.216-.64.501-1.39.786-2.1.786z" fill="url(#q)"/><path d="M121.81 141.65a1.924 1.924 0 0 1-1.15-.363c-.43-.305-.68-.769-.64-1.263.06-.769.8-1.341 1.69-1.341a1.634 1.634 0 0 1 .17.007c.38.03.72.162.99.361.42.305.67.767.63 1.262-.06.765-.81 1.337-1.69 1.337z" fill="url(#r)"/><path d="M128.03 145.69a.987.987 0 0 1-.2-.02c-.34-.066-.6-.297-.67-.577a.524.524 0 0 1-.02-.216c.03-.38.4-.668.84-.668h.01l.08.004c.28.022.52.156.67.345.1.134.15.295.14.465-.03.38-.4.667-.85.667z" fill="url(#s)"/><path d="M210.46 152.821l-.63-.267c-.01-.003-.02-.006-.02-.009-.73-.301-1.46-.595-2.2-.88a97.303 97.303 0 0 0 2.4-20.238c1.61 2.262 2.38 5.685 2.04 11.017a64.621 64.621 0 0 1-.68 6.083 48.537 48.537 0 0 1-.91 4.294z" fill="url(#t)"/><path d="M207.61 151.665c-4.48-1.716-9.36-3.129-14.52-3.951 4.59-6.456 7.14-16.933 7.14-16.933-.01-.006-.01-.011-.02-.018.01-.03.01-.045.01-.045-1.62-1.749-3.2-3.214-4.72-4.434.45.045.9.095 1.36.15 5.81.724 10.57 1.353 13.15 4.993a97.303 97.303 0 0 1-2.4 20.238zm-45.09-.737a31 31 0 0 1-.77-2.401c-.15-.563-.31-1.129-.44-1.724-1.24-5.449-.93-9.808.16-13.663.64-2.343 5.01-4.104 9.35-5.263-1.58 5.847-1.6 16.33-1.53 20.838a57.08 57.08 0 0 0-6.44 2.081l-.33.132z" fill="url(#u)"/><path d="M170.03 148.53c.22-6.852 1.02-14.866 3.41-16.557 1.99-1.461 5.24-3.219 9.49-3.219 4.28 0 9.58 1.782 15.65 7.448 1-2.867 1.55-5.097 1.63-5.439.01.007.01.012.02.018 0 0-2.55 10.477-7.14 16.933-1.73-.276-3.5-.485-5.29-.617a8.268 8.268 0 0 0 3.11-6.477c0-4.58-3.71-8.294-8.29-8.294a8.291 8.291 0 0 0-8.29 8.294 8.262 8.262 0 0 0 3.28 6.607c-2.5.254-5.03.68-7.58 1.303z" fill="url(#v)"/><path d="M169.29 148.715c-.07-4.508-.05-14.991 1.53-20.838a63.993 63.993 0 0 1 7.03-1.443c2.61-.286 5.93-.545 9.72-.545 2.47 0 5.14.11 7.93.395 1.52 1.22 3.1 2.685 4.72 4.434 0 0 0 .015-.01.045-.08.342-.63 2.572-1.63 5.439-6.07-5.666-11.37-7.448-15.65-7.448-4.25 0-7.5 1.758-9.49 3.219-2.39 1.691-3.19 9.705-3.41 16.557-.25.06-.5.122-.74.185z" fill="url(#w)"/><path d="M177.61 147.227a8.262 8.262 0 0 1-3.28-6.607c0-4.58 3.71-8.294 8.29-8.294 4.58 0 8.29 3.714 8.29 8.294a8.268 8.268 0 0 1-3.11 6.477 59.918 59.918 0 0 0-4.37-.163h-.04c-1.9.001-3.83.094-5.78.293zm2.21-2.242c.79.73 1.8 1.172 2.87 1.172.1 0 .21-.004.32-.013 2.39-.198 4.23-2.615 4.01-5.273l-.03-.268c.43-.305.68-.769.64-1.264-.07-.769-.8-1.342-1.69-1.342l-.07.001c-.85-1.026-2.06-1.675-3.35-1.675-.1 0-.21.005-.32.014-2.39.196-4.23 2.611-4.02 5.267.07.83.33 1.603.73 2.269a.703.703 0 0 0-.14.465c.04.38.41.667.84.667a.987.987 0 0 0 .21-.02z" fill="url(#x)"/><path d="M182.69 146.157c-1.07 0-2.08-.442-2.87-1.172.34-.067.6-.298.67-.577.64.501 1.39.786 2.1.786.07 0 .14-.003.21-.009 1.67-.142 3.4-1.97 3.21-4.223v-.003c.38-.032.71-.162.98-.356l.03.268c.22 2.658-1.62 5.075-4.01 5.273-.11.009-.22.013-.32.013zm-3.78-2.284a5.264 5.264 0 0 1-.73-2.269c-.21-2.656 1.63-5.071 4.02-5.267.11-.009.22-.014.32-.014 1.29 0 2.5.649 3.35 1.675-.04.002-.07.003-.1.006-.38.031-.72.163-.99.362-.7-.671-1.58-1.061-2.41-1.061-.07 0-.14.003-.21.009-1.67.141-3.4 1.978-3.21 4.231.06.753.32 1.424.71 1.979l-.08.004a.948.948 0 0 0-.67.345z" fill="url(#y)"/><path d="M182.59 145.194c-.71 0-1.46-.285-2.1-.786.02-.07.03-.143.02-.217-.03-.379-.4-.667-.84-.667h-.01a3.972 3.972 0 0 1-.71-1.979c-.19-2.253 1.54-4.09 3.21-4.231.07-.006.14-.009.21-.009.83 0 1.71.39 2.41 1.061-.42.305-.67.767-.63 1.262.06.765.81 1.337 1.69 1.337.06 0 .11-.002.17-.006v.003c.19 2.253-1.54 4.081-3.21 4.223-.07.006-.14.009-.21.009z" fill="url(#z)"/><path d="M185.84 140.965c-.88 0-1.63-.572-1.69-1.337-.04-.495.21-.957.63-1.262.27-.199.61-.331.99-.362.03-.003.06-.004.1-.006l.07-.001c.89 0 1.62.573 1.69 1.342.04.495-.21.959-.64 1.264a1.942 1.942 0 0 1-1.15.362z" fill="url(#A)"/><path d="M179.61 145.005c-.43 0-.8-.287-.84-.667a.703.703 0 0 1 .14-.465.948.948 0 0 1 .75-.349h.01c.44 0 .81.288.84.667a.53.53 0 0 1-.02.217c-.07.279-.33.51-.67.577a.987.987 0 0 1-.21.02z" fill="url(#B)"/><path d="M218.49 126.52c-.37-.786-7.49-1.808-16.75-2.752-7.81-.708-20.42-.236-25.35.472-2.05.315-5.72 1.022-9.4 2.045-4.05 1.101-8.09 2.595-9.77 2.988-1.62.342-2.89.491-4.23.424v-.031c-.1.011-.2.008-.3.016-.1-.008-.2-.005-.31-.016-.1.011-.2.008-.3.016-.1-.008-.2-.005-.3-.016v.031c-1.34.067-2.62-.082-4.23-.424-1.68-.393-5.73-1.887-9.77-2.988-3.68-1.023-7.35-1.73-9.4-2.045-4.93-.708-17.54-1.18-25.35-.472-9.26.944-16.38 1.966-16.75 2.752-.23.551-.79 7.708-.05 8.415.75.786 3.35 2.281 4 4.797.21.857.65 3.518 1.36 6.849.23 1.09.99 1.848 1.85 1.848 1.12 0 2-1.303 1.84-2.764a60.84 60.84 0 0 1-.25-2.944c-.8-13.055 5.21-13.92 13.72-15.021 6.88-.865 13.02-.472 17.16 0 4.19.629 13.87 2.752 14.8 6.292.97 3.617 1.25 7.706.14 12.818l-.01.017c-.17.804.29 1.602.93 1.602h3.02c.42-1.384.8-2.828 1.08-4.372.7-4.01 1.72-6.369 3.44-7.077a10.92 10.92 0 0 1 2.77-.458c.1-.003.2-.014.3-.014.11 0 .21.011.31.014 1.06.036 2.09.242 2.76.458 1.73.708 2.75 3.067 3.45 7.077.28 1.544.65 2.988 1.07 4.372H163c.64 0 1.1-.798.92-1.602v-.017c-1.12-5.112-.84-9.201.14-12.818.93-3.54 10.61-5.663 14.79-6.292 4.14-.472 10.28-.865 17.17 0 8.51 1.101 14.51 1.966 13.72 15.021a60.84 60.84 0 0 1-.25 2.944c-.16 1.461.72 2.764 1.84 2.764.86 0 1.61-.758 1.85-1.848.71-3.331 1.15-5.992 1.35-6.849.66-2.516 3.26-4.011 4.01-4.797.74-.707.18-7.864-.05-8.415z" fill="#36393a" fill-rule="nonzero"/><path d="M261.85 133.341c-1.05-1.822-3.22-4.4-5.5-4.254-2.92.204-4.95 4.718-6.24 7.334-.75 1.507-3.29 8.715-4.93 8.684-1.5-.038-2.52-3.743-3.03-5.393-3.58-11.722-4.41-23-8.33-33.951-.35-.997-.79-2.198-1.32-3.417a77.887 77.887 0 0 0-2.36-8.106c-.14-.39-.73-1.495-.73-1.495-9.56-30.728-24.25-46.258-33.19-53.301-4.06-3.192-8.89-5.379-14.02-6.482C87.15 12.517 77.29 75.09 77.29 75.09h-.01c-.8 7.177-1.66 4.73-2.87 16.643-.62 6.159-1.26 8.247-1.64 10.644-.64 3.945-1.81 7.801-3.43 11.483a54.174 54.174 0 0 0-1.4 3.6c-3.92 10.948-4.74 22.233-8.34 33.94-.5 1.661-1.52 5.374-3.02 5.401-1.64.042-4.18-7.17-4.92-8.676-1.3-2.624-3.33-7.132-6.25-7.331-2.28-.157-4.44 2.425-5.49 4.246-2.74 4.745-4.39 12.294-4.55 18.519.72-1.476 1.72-3.59 3.03-5.991.87-1.584 2.23-4.772 4.17-4.618 1.96.142 3.29 5.957 3.98 8.669 1.97 7.913 2.11 12.823 5.29 19.674 1.45 3.111 3.14 7.33 7.39 6.759 6.34-.864 8.34-12.935 18.93-11.577 2.63.334 2.44.645 5.22 2.106.7.364 2.59 1.036 3.37 1.312 11.18 22.198 27.95 35.359 27.95 35.359s-3.86-10.326-7.28-20.331c-2.66-7.748-10.4-20.743-10.4-40.356 0-19.613 17.27-43.89 17.27-43.89s-7.96 15.236-9.53 31.968c-1.59 16.759 6.77 29.72 6.77 29.72s-10.58-21.757 6.32-38.002c5.38-5.166 9.88-10.548 13.51-15.481l-.01.042c-4.25 12.843 4.28 23.614 4.28 23.614s-.16-16.46 8.66-22.052c21.5-13.63 24.91-19.261 27.94-30.212.42-1.511.65-2.892.8-4.219l19.64 31.707c.93 1.377 2.42 3.725 4.16 6.736 5.1 8.787 12.14 23.191 12.14 35.726 0 19.617-3.96 32.919-6.61 40.679-3.41 9.985-11.05 20.005-11.05 20.005s27.48-21.585 35.51-56.092c7.86 1.186 10.08 10.767 15.71 11.535 4.25.579 5.94-3.641 7.38-6.752 3.2-6.85 3.33-11.764 5.31-19.674.67-2.708 2.01-8.527 3.97-8.681 1.94-.133 3.3 3.047 4.17 4.631 1.3 2.401 2.31 4.522 3.03 5.979-.16-6.221-1.81-13.763-4.54-18.511z" fill="#f16624" fill-rule="nonzero"/><defs><linearGradient id="a" x2="1" gradientUnits="userSpaceOnUse" gradientTransform="rotate(-91.953 147.4 33.152) scale(99.77523)"><stop offset="0" stop-color="#eedcce"/><stop offset="1" stop-color="#7a93a3"/></linearGradient><linearGradient id="b" x2="1" gradientUnits="userSpaceOnUse" gradientTransform="rotate(-91.953 147.4 33.152) scale(99.77523)"><stop offset="0" stop-color="#f3e6d7"/><stop offset="1" stop-color="#7d9aaa"/></linearGradient><linearGradient id="c" x2="1" gradientUnits="userSpaceOnUse" gradientTransform="rotate(-91.953 147.4 33.152) scale(99.77523)"><stop offset="0" stop-color="#fff"/><stop offset="1" stop-color="#80a9c6"/></linearGradient><linearGradient id="d" x2="1" gradientUnits="userSpaceOnUse" gradientTransform="rotate(-91.953 147.4 33.152) scale(99.77523)"><stop offset="0" stop-color="#eee2d6"/><stop offset="1" stop-color="#7a98a9"/></linearGradient><linearGradient id="e" x2="1" gradientUnits="userSpaceOnUse" gradientTransform="rotate(-91.953 147.4 33.152) scale(99.77523)"><stop offset="0" stop-color="#af9990"/><stop offset="1" stop-color="#586671"/></linearGradient><linearGradient id="f" x2="1" gradientUnits="userSpaceOnUse" gradientTransform="rotate(-91.952 180.197 -1.154) scale(99.4895)"><stop offset="0" stop-color="#f2e2d6"/><stop offset="1" stop-color="#7c97a9"/></linearGradient><linearGradient id="g" x2="1" gradientUnits="userSpaceOnUse" gradientTransform="rotate(-91.952 180.197 -1.154) scale(99.4895)"><stop offset="0" stop-color="#faeedf"/><stop offset="1" stop-color="#80a0b1"/></linearGradient><linearGradient id="h" x2="1" gradientUnits="userSpaceOnUse" gradientTransform="rotate(-91.952 180.197 -1.154) scale(99.4895)"><stop offset="0" stop-color="#fff"/><stop offset="1" stop-color="#80a9c6"/></linearGradient><linearGradient id="i" x2="1" gradientUnits="userSpaceOnUse" gradientTransform="rotate(-91.952 180.197 -1.154) scale(99.4895)"><stop offset="0" stop-color="#eee2d6"/><stop offset="1" stop-color="#7a98a9"/></linearGradient><linearGradient id="j" x2="1" gradientUnits="userSpaceOnUse" gradientTransform="rotate(-91.952 180.197 -1.154) scale(99.4895)"><stop offset="0" stop-color="#af9990"/><stop offset="1" stop-color="#586671"/></linearGradient><linearGradient id="k" x2="1" gradientUnits="userSpaceOnUse" gradientTransform="rotate(-88.152 143.06 20.707) scale(34.97818)"><stop offset="0" stop-color="#ebd8c9"/><stop offset="1" stop-color="#8094a1"/></linearGradient><linearGradient id="l" x2="1" gradientUnits="userSpaceOnUse" gradientTransform="rotate(-88.152 143.06 20.707) scale(34.97818)"><stop offset="0" stop-color="#f2e3d4"/><stop offset="1" stop-color="#829ba9"/></linearGradient><linearGradient id="m" x2="1" gradientUnits="userSpaceOnUse" gradientTransform="rotate(-88.152 143.06 20.707) scale(34.97818)"><stop offset="0" stop-color="#fff"/><stop offset="1" stop-color="#86aec9"/></linearGradient><linearGradient id="n" x2="1" gradientUnits="userSpaceOnUse" gradientTransform="rotate(-88.152 143.06 20.707) scale(34.97818)"><stop offset="0" stop-color="#edded1"/><stop offset="1" stop-color="#7f99a7"/></linearGradient><linearGradient id="o" x2="1" gradientUnits="userSpaceOnUse" gradientTransform="rotate(-88.152 143.06 20.707) scale(34.97818)"><stop offset="0" stop-color="#a89086"/><stop offset="1" stop-color="#59626b"/></linearGradient><linearGradient id="p" x2="1" gradientUnits="userSpaceOnUse" gradientTransform="rotate(-88.152 143.06 20.707) scale(34.97818)"><stop offset="0" stop-color="#c3a08d"/><stop offset="1" stop-color="#6c6d71"/></linearGradient><linearGradient id="q" x2="1" gradientUnits="userSpaceOnUse" gradientTransform="rotate(-88.152 143.06 20.707) scale(34.97818)"><stop offset="0" stop-color="#928a85"/><stop offset="1" stop-color="#435f6b"/></linearGradient><linearGradient id="r" x2="1" gradientUnits="userSpaceOnUse" gradientTransform="rotate(-88.152 143.06 20.707) scale(34.97818)"><stop offset="0" stop-color="#fff"/><stop offset="1" stop-color="#86aec9"/></linearGradient><linearGradient id="s" x2="1" gradientUnits="userSpaceOnUse" gradientTransform="rotate(-88.152 143.06 20.707) scale(34.97818)"><stop offset="0" stop-color="#fff"/><stop offset="1" stop-color="#86aec9"/></linearGradient><linearGradient id="t" x2="1" gradientUnits="userSpaceOnUse" gradientTransform="rotate(-88.152 178.339 -12.9) scale(35.24482)"><stop offset="0" stop-color="#efdfd2"/><stop offset="1" stop-color="#839aa8"/></linearGradient><linearGradient id="u" x2="1" gradientUnits="userSpaceOnUse" gradientTransform="rotate(-88.152 178.339 -12.9) scale(35.24482)"><stop offset="0" stop-color="#faecdc"/><stop offset="1" stop-color="#87a1b0"/></linearGradient><linearGradient id="v" x2="1" gradientUnits="userSpaceOnUse" gradientTransform="rotate(-88.152 178.339 -12.9) scale(35.24482)"><stop offset="0" stop-color="#fff"/><stop offset="1" stop-color="#86aec9"/></linearGradient><linearGradient id="w" x2="1" gradientUnits="userSpaceOnUse" gradientTransform="rotate(-88.152 178.339 -12.9) scale(35.24482)"><stop offset="0" stop-color="#edded1"/><stop offset="1" stop-color="#7f99a7"/></linearGradient><linearGradient id="x" x2="1" gradientUnits="userSpaceOnUse" gradientTransform="rotate(-88.152 178.339 -12.9) scale(35.24482)"><stop offset="0" stop-color="#a89086"/><stop offset="1" stop-color="#59626b"/></linearGradient><linearGradient id="y" x2="1" gradientUnits="userSpaceOnUse" gradientTransform="rotate(-88.152 178.339 -12.9) scale(35.24482)"><stop offset="0" stop-color="#c3a08d"/><stop offset="1" stop-color="#6c6d71"/></linearGradient><linearGradient id="z" x2="1" gradientUnits="userSpaceOnUse" gradientTransform="rotate(-88.152 178.339 -12.9) scale(35.24482)"><stop offset="0" stop-color="#928a85"/><stop offset="1" stop-color="#435f6b"/></linearGradient><linearGradient id="A" x2="1" gradientUnits="userSpaceOnUse" gradientTransform="rotate(-88.152 178.339 -12.9) scale(35.24482)"><stop offset="0" stop-color="#fff"/><stop offset="1" stop-color="#86aec9"/></linearGradient><linearGradient id="B" x2="1" gradientUnits="userSpaceOnUse" gradientTransform="rotate(-88.152 178.339 -12.9) scale(35.24482)"><stop offset="0" stop-color="#fff"/><stop offset="1" stop-color="#86aec9"/></linearGradient></defs></svg>