<svg viewBox="0 0 298 301" xmlns="http://www.w3.org/2000/svg" fill-rule="evenodd" clip-rule="evenodd" stroke-linejoin="round" stroke-miterlimit="1.414"><path fill="#a4bd48" fill-rule="nonzero" d="M.31.365h296.86V300.07H.31z"/><path d="M149.05 187.449V300.07H88.32c-.99-.396-1.48-.596-1.48-.596 0-14.376 2.1-25.585 5.3-34.326 7.73-21.095 21.89-27.795 28.4-29.815 2.14-.664 3.45-.823 3.45-.823.24 0 .45-.021.67-.057 1.91-.308 3.47-1.974 4.71-4.633.93-1.974 1.7-4.493 2.33-7.409.26-1.136.45-2.282.65-3.521.3-2.083.59-4.263.84-6.546.1-1.388.25-2.725.39-4.164.54-6.89.7-14.433.7-21.575 0 0 8.15.844 14.77.844z" fill="#e0bd9a" fill-rule="nonzero"/><path d="M211.51 299.474s-.54.2-1.44.596h-61.02V187.449h.15c6.57 0 14.83-.844 14.83-.844 0 7.091.14 14.531.68 21.425.15 1.342.3 2.725.4 4.067.25 2.381.55 4.612.89 6.695v.046c.1.946.29 1.789.44 2.679.6 2.931 1.33 5.507 2.21 7.573 1.09 2.571 2.42 4.366 4.03 5.075.51.232 1.05.345 1.62.345 0 0 2.34.283 5.84 1.66 7.15 2.808 19.16 10.176 26.06 28.978 3.2 8.741 5.31 19.95 5.31 34.326z" fill="#efd0ad" fill-rule="nonzero"/><path d="M166 218.582v.049c-1.53 2.365-6.67 9.163-16.85 9.163h-.1c-9.64-.049-15.27-7.045-16.7-9.114.3-2.069.59-4.237.84-6.503.1-1.33.25-2.71.39-4.138a67.739 67.739 0 0 0 15.27 2.019h.2a65.264 65.264 0 0 0 15.66-2.167c.15 1.33.3 2.709.4 4.04.25 2.364.54 4.581.89 6.651z" fill="#be987f" fill-rule="nonzero"/><path d="M148.36 59.105c-64.34 0-64.68 53.948-61.82 89.272-4.4-8.376-17.49-5.814-16.4 7.39 1.03 12.71 19.74 19.188 19.22 17.785 9.74 26.124 35.53 45.818 59 45.818h.49V59.105h-.49z" fill="#d2a686" fill-rule="nonzero"/><path d="M74.24 150.199c3.16-5.123 8.1-2.906 9.29-1.773 1.28 1.231 2.32 2.808 1.53 5.813-.44 1.725-2.22 1.872-1.83 4.434.5 2.907 1.83 3.055 2.62 3.744.74.641 1.68 1.134 2.13 2.365a6.24 6.24 0 0 1 .29 3.646c-.49 2.069-3.51.394-5.53-.493-1.34-.64-5.59-4.237-6.67-5.419-2.67-3.054-3.96-8.966-1.83-12.317z" fill="#ac8774" fill-rule="nonzero"/><path d="M148.7 59.105c64.34 0 64.69 53.948 61.87 89.272 4.4-8.376 17.44-5.814 16.36 7.39-.99 12.71-19.74 19.193-19.23 17.785-9.49 26.124-35.52 45.818-59 45.818h-.34l-.15-160.265h.49z" fill="#ddb598" fill-rule="nonzero"/><path d="M222.82 150.199c-3.16-5.123-8.05-2.906-9.29-1.773-1.28 1.231-2.27 2.808-1.53 5.813.45 1.725 2.23 1.872 1.83 4.434-.49 2.907-1.83 3.055-2.57 3.744-.74.641-1.73 1.134-2.17 2.365-.45 1.232-.55 2.513-.3 3.646.49 2.069 3.51.394 5.54-.493 1.38-.64 5.58-4.237 6.67-5.419 2.71-3.054 3.95-8.966 1.82-12.317z" fill="#ac8774" fill-rule="nonzero"/><path d="M147.85 74.328c-21.15 0-36.66 6.159-46 18.279-13.1 16.996-12.6 42.911-7.81 61.534 1.48 5.714 2.27 21.037 3.26 26.653 4.6 25.175 32.32 38.576 50.55 38.576h.5V74.328h-.5z" fill="#e0bd9a" fill-rule="nonzero"/><path d="M193.81 92.656c-9.29-12.07-24.61-18.229-45.46-18.328V219.37c20.85-.247 45.8-14.928 50.05-38.576 1.04-5.616 1.78-20.939 3.26-26.653 4.85-18.574 5.34-44.439-7.85-61.485z" fill="#efd0ad" fill-rule="nonzero"/><path d="M144.97 193.658c-.1-.021-.2-.041-.3-.064.1.022.18.04.3.064zm-.78-.175c-.1-.024-.18-.051-.27-.076l-.01.004s.1.029.28.072z" fill="#bc917b" fill-rule="nonzero"/><path d="M136.34 174.843c-.24-5.012 9.18-1.832 12.29-1.675 2.45.126 9.92-1.579 10.56-1.14 4.4 2.971-4.65 8.956-10.72 8.956-1.61 0-11.98-3.118-12.13-6.141z" fill="#ddb598" fill-rule="nonzero"/><path d="M130.38 74.691l-.26.268.04.089c.09-.134.14-.268.22-.357z" fill="#432e1b" fill-rule="nonzero"/><path d="M145.15 190.716a8.288 8.288 0 0 1-.31-.066c.1.023.19.041.31.066zm-.81-.18c-.09-.025-.18-.052-.28-.078l-.01.004.29.074z" fill="#ba907b" fill-rule="nonzero"/><path d="M102.19 130.939s4.91 20.199 13.34 21.847c8.42 1.647 17.54-1.629 17.54-1.629s.88-23.737-3.44-26.839c-4.31-3.115-14.25-7.617-27.44 6.621z" fill="#fff" fill-rule="nonzero"/><path d="M133.09 151.095s-.2.055-.63.237c-.11-7.281-.78-17.281-3.47-19.197-4.01-2.942-13.06-7.084-25.14 4.242-1.1-3.129-1.65-5.501-1.65-5.501 13.21-14.264 23.16-9.771 27.44-6.654 4.32 3.115 3.45 26.873 3.45 26.873z" fill="#d6b496" fill-rule="nonzero"/><path d="M128.1 140.809c0 4.595-3.72 8.32-8.3 8.32s-8.29-3.725-8.29-8.32c0-4.594 3.71-8.319 8.29-8.319 4.58 0 8.3 3.725 8.3 8.319z" fill="#482315" fill-rule="nonzero"/><path d="M119.42 146.35c-2.4-.198-4.24-2.623-4.02-5.289.22-2.665 2.42-4.751 4.82-4.549 2.4.198 4.23 2.619 4.02 5.285-.22 2.665-2.43 4.755-4.82 4.553z" fill="#7e3a22" fill-rule="nonzero"/><path d="M119.62 145.388c-1.66-.141-3.39-1.977-3.21-4.236.19-2.267 2.19-3.797 3.86-3.66 1.67.142 3.39 1.984 3.21 4.245-.19 2.263-2.19 3.789-3.86 3.651z" fill="#211a10" fill-rule="nonzero"/><path d="M118.27 139.814c-.06.816-.9 1.413-1.86 1.334-.96-.082-1.68-.812-1.62-1.624.07-.82.9-1.417 1.86-1.339.96.078 1.69.808 1.62 1.629zm5.38 4.725c-.03.406-.45.706-.93.665-.48-.038-.84-.406-.81-.812.04-.406.45-.707.93-.666.48.038.85.403.81.813z" fill="#fff" fill-rule="nonzero"/><path d="M145.28 193.099c-.11-.023-.21-.043-.31-.067.1.023.19.042.31.067zm-.81-.181l-.27-.078-.01.004s.1.03.28.074z" fill="#ba907b" fill-rule="nonzero"/><path d="M144.9 192.528c-.11-.024-.22-.046-.33-.071.11.024.2.045.33.071zm-.86-.194c-.1-.026-.2-.055-.3-.083l-.01.005s.11.031.31.078zm.61-.651c-.11-.023-.22-.045-.33-.071l.33.071zm-.86-.193l-.3-.084-.01.005.31.079zm1.63.078c-.1-.023-.21-.044-.32-.069l.32.069zm-.83-.187c-.1-.026-.19-.054-.29-.081l-.01.005s.11.03.3.076z" fill="#bc917b" fill-rule="nonzero"/><path d="M195 130.251s-4.9 20.199-13.33 21.848c-8.43 1.647-17.55-1.629-17.55-1.629s-.87-23.737 3.45-26.839c4.31-3.116 14.25-7.617 27.43 6.62z" fill="#fff" fill-rule="nonzero"/><path d="M164.11 150.407s.19.056.63.237c.11-7.28.78-17.281 3.47-19.196 4.01-2.943 13.05-7.084 25.14 4.242 1.1-3.129 1.65-5.502 1.65-5.502-13.22-14.264-23.16-9.77-27.44-6.652-4.32 3.114-3.45 26.871-3.45 26.871z" fill="#d6b496" fill-rule="nonzero"/><path d="M169.1 140.122c0 4.595 3.71 8.32 8.29 8.32 4.58 0 8.3-3.725 8.3-8.32 0-4.594-3.72-8.32-8.3-8.32s-8.29 3.726-8.29 8.32z" fill="#482315" fill-rule="nonzero"/><path d="M177.78 145.663c2.39-.199 4.23-2.623 4.01-5.289-.21-2.665-2.42-4.751-4.81-4.549-2.4.198-4.23 2.619-4.02 5.284.22 2.666 2.43 4.755 4.82 4.554z" fill="#7e3a22" fill-rule="nonzero"/><path d="M177.57 144.701c1.67-.142 3.4-1.977 3.22-4.236-.19-2.267-2.19-3.797-3.86-3.66-1.67.142-3.39 1.985-3.21 4.245.18 2.262 2.19 3.789 3.85 3.651z" fill="#211a10" fill-rule="nonzero"/><path d="M178.92 139.126c.07.817.91 1.414 1.87 1.335.95-.082 1.68-.812 1.61-1.624-.07-.821-.9-1.418-1.86-1.339-.96.078-1.68.808-1.62 1.628zm-5.37 4.725c.03.407.45.707.93.666.48-.038.84-.406.81-.813-.04-.406-.46-.706-.93-.665-.49.037-.85.402-.81.812z" fill="#fff" fill-rule="nonzero"/><path d="M138.14 130.617c-.07-.098-1.6-2.431-4.72-4.835-1.96-1.507-3.88-2.654-5.87-3.508a30.327 30.327 0 0 0-7.55-2.088c-2.29-.255-4.82-.187-7.77.211-2.26.431-4.46 1.103-6.32 1.929-1.33.46-2.38 1.105-3.23 1.625-.32.199-.61.379-.91.539l-4.03 2.538 4.64-1.092c.22-.055.45-.117.7-.184.96-.255 2.16-.573 3.56-.779.33-.048.66-.114 1-.182.58-.117 1.19-.238 1.82-.268.7-.047 1.43-.099 2.18-.153l.97-.071c2.57-.032 4.74.164 6.67.609 2.11.365 4.27 1.046 6.26 1.969 1.87.901 3.67 1.793 5.07 2.826 2.84 1.897 4.41 3.479 4.43 3.495a2.015 2.015 0 0 0 2.53.267c.93-.612 1.19-1.876.6-2.787l-.03-.061zm57.69-6.146c-.26-.141-.56-.322-.88-.521-.85-.519-1.9-1.164-3.19-1.609-1.9-.841-4.1-1.513-6.38-1.948-2.93-.395-5.46-.463-7.76-.206a30.327 30.327 0 0 0-7.54 2.087c-1.96.843-3.94 2.023-5.87 3.508-3.06 2.36-4.59 4.652-4.71 4.828l-.03.042c-.51.8-.4 1.871.27 2.546a1.999 1.999 0 0 0 2.85-.001l.02-.017c.15-.148 1.68-1.649 4.43-3.49 1.38-1.017 3.18-1.912 5.05-2.81a25.468 25.468 0 0 1 6.29-1.978c1.9-.439 4.07-.631 6.61-.604l1.02.074c.75.052 1.47.104 2.17.152.63.029 1.23.15 1.81.267.34.068.68.134 1 .182 1.4.206 2.6.524 3.56.779.25.067.48.129.71.185l4.63 1.093-4.06-2.559z" fill="#030405" fill-rule="nonzero"/><path d="M143.82 195.49l-.32-.07c.1.024.2.044.32.07zm-.84-.189c-.1-.026-.19-.054-.29-.081l-.01.004s.11.031.3.077z" fill="#be927b" fill-rule="nonzero"/><path d="M136.46 199.657c-.24-3.247 9.02.68 12.06.774 2.42.082 9.71-.481 10.38-.739 5.1-1.911-.28 5.429-10.54 5.815-4.69.188-11.76-3.881-11.9-5.85z" fill="#f0d2ad" fill-rule="nonzero"/><path d="M166.6 193.396c-2.51-.124-5.09 1.977-8.11 1.656-.13-.061-.19-.061-.32-.061-.69-.123-1.38 0-2.14.185-.94.197-1.88.58-2.77.889-1.51.493-3.21.888-4.96.752v.012l-.1-.012-.1.012v-.012c-1.75.136-3.45-.259-4.97-.752-.88-.309-1.83-.692-2.77-.889-.75-.185-1.44-.308-2.14-.185-.13 0-.19 0-.31.061-3.02.321-5.6-1.78-8.12-1.656-.69.061-1.7-.124-2.27-.124.13.062.26.124.38.185 7.17 3.504 13.35 10.068 20.2 9.858h.2c6.84.21 13.03-6.354 20.19-9.858.13-.061.26-.123.38-.185-.56 0-1.57.185-2.27.124z" fill="#dcbf9e" fill-rule="nonzero"/><path d="M168.71 193.196s-7.29-2.815-12.47-1.164c0 0-1.93.755-3.93 1.215-1.21.475-2.69.613-4.11.555a22.68 22.68 0 0 1-2.98-.331 15.81 15.81 0 0 1-.85-.163c-.13-.026-.22-.046-.33-.07-.17-.041-.34-.074-.52-.119-.19-.046-.3-.077-.3-.077l.01-.004a34.947 34.947 0 0 1-3.08-1.006c-5.18-1.651-12.46 1.164-12.46 1.164l-.17.076c.57 0 1.58.185 2.27.124 2.51-.124 5.1 1.977 8.12 1.656.12-.061.18-.061.31-.061.7-.124 1.39 0 2.14.185.94.197 1.89.58 2.77.889 1.52.493 3.22.888 4.97.752v.012l.1-.012.1.012v-.012c1.75.136 3.45-.259 4.96-.752.89-.309 1.83-.692 2.77-.889.76-.185 1.45-.309 2.14-.185.13 0 .19 0 .32.061 3.02.321 5.6-1.78 8.11-1.656.7.061 1.71-.124 2.27-.124 0 0-.06-.031-.16-.076z" fill="#c69f83" fill-rule="nonzero"/><path d="M135.96 194.91c.13.034 13.65 4.164 24.23.09l-1.22-.822h-14.29l-8.72.732z" fill="#c69f83" fill-rule="nonzero"/><path d="M140.75 252.659v47.403h-44.6c.25-3.621.47-9.485.51-17.22H85.25c-.13-11.255 8.84-30.471 8.84-30.471a55.236 55.236 0 0 1 2.64-3.271 44.778 44.778 0 0 1 7.11-6.625c.27-.288.6-.494.89-.679.76-.556 1.54-1.07 2.3-1.564 3.46-2.201 6.73-3.6 9.28-4.464.6-.227 1.15-.391 1.69-.535 2.39-.659 3.87-.844 3.87-.844 1.27 0 2.36-.473 3.35-1.276l.04-.041c.33-.308.66-.679.99-1.07.12.103.37.433.58 1.111.92 2.264 6.35 13.806 13.92 19.546zm61.03 30.183c.04 7.715.33 13.62.57 17.22h-44.79v-47.3c2.43-1.79 4.63-4.218 6.53-6.728 4.13-5.432 6.91-11.357 7.55-12.921.22-.678.47-1.008.61-1.111.31.391.64.762.97 1.07l.04.041c.97.803 2.1 1.276 3.34 1.276 0 0 1.41.144 3.68.761.49.185 1.05.35 1.66.556a43.005 43.005 0 0 1 11.73 6.008c.29.226.62.432.87.699 3.35 2.469 6.74 5.699 9.83 9.958 0 0 9.14 13.25 8.72 30.471h-11.31z" fill="#5cc7d2" fill-rule="nonzero"/><path d="M105.48 290.297H84.32a3.52 3.52 0 0 1-3.52-3.525v-9.25a5.217 5.217 0 0 1 5.22-5.223h12.7c3.73 0 6.76 3.029 6.76 6.766v11.232zm110.11 0h-21.17v-11.232a6.767 6.767 0 0 1 6.77-6.766h12.7c2.88 0 5.22 2.338 5.22 5.223v9.25a3.526 3.526 0 0 1-3.52 3.525z" fill="#47989a" fill-rule="nonzero"/><path d="M225.91 115.5c-1.43-16.773-5.2-30.16-5.2-30.16l-.32.36c-4.52-16.402-12.06-25.264-12.06-25.264v.008c-3.66-5.55-8.86-11.376-15.22-17.123-13.03-11.751-21.22-9.333-32.01-8.996 0 0-.03.075-.08.193-4.74-1.023-30.21-6.112-45.36-.483-16.75 6.236-30.46 16.928-40.14 45.648a89.25 89.25 0 0 0-3.3 12.852c-2.19 4.801-3.18 9.514-3.59 13.373l-.25-.038s-8.44 45.178-32.2 54.197c0 0 18.05 4.472 32.35-18.705.33 4.591.92 9.239 1.84 13.771-.79 5.961-1.74 10.885-1.74 14.061 0 22.465 16.78 41.08 14.2 63.698-1.71 14.914-8.58 26.473-8.58 26.473s7.86-10.211 11.08-19.778c3.21-9.571 2.14-26.805-3.22-40.527-2.75-7.032-3.52-14.735-3.19-22.206.46.672.92 1.34 1.42 1.977 0 0-.59-1.9-1.24-4.878.3-3.706.85-7.324 1.55-10.741.11-.594.24-1.192.37-1.775.15-.684.32-1.321.48-1.985a83.788 83.788 0 0 0 4.87 8.715c.11.367.21.746.33 1.097 1.11 3.603 2.64 6.953 3.97 10.123 1.29 3.183 2.63 6.171 3.64 9.068.92 2.889 1.76 5.622 2.18 8.218.26 1.297.38 2.562.48 3.753.16 1.213.2 2.352.19 3.442.11 2.163-.11 4.071-.17 5.661-.38 3.162-.59 4.987-.59 4.987s.19-.42.56-1.209c.34-.818.97-1.957 1.52-3.516.47-1.562 1.24-3.445 1.61-5.71.5-2.25.84-4.846.77-7.701.07-3.8-.65-8.009-1.8-12.321 6.16 6.316 11.07 9.784 11.07 9.784s-7.2-8.481-10.42-16.944c-2.5-6.569-6.23-17.845-6.23-34.451 0-.768.04-1.546.11-2.328.22-.9.41-1.812.67-2.696 1.68-6.018 3.8-11.622 5.63-16.578 4.55-8.847 9.87-15.562 9.87-15.562s-7.52 12.896-8.99 27.084c-1.5 14.18 6.38 25.15 6.38 25.15s-1.58-16.841 3.93-30.247c2.77-6.734 7.31-12.606 14.76-15.037l-.02.032c-3.99 10.866 4.04 19.996 4.04 19.996s.02-2.725.82-6.927c2.06-10.875 9.25-31.669 34.42-40.917l.78 1.132 17.72 25.733c.87 1.17 2.29 3.146 3.93 5.702 4.8 7.443 11.44 19.646 11.44 30.258 0 16.603-3.73 27.877-6.24 34.445-3.21 8.463-10.42 16.949-10.42 16.949s3.93-2.771 9.16-7.871c-.28 1.938-.44 3.825-.4 5.614-.07 2.855.27 5.451.77 7.701.37 2.265 1.13 4.148 1.6 5.71.56 1.559 1.19 2.698 1.53 3.516.37.789.56 1.209.56 1.209s-.22-1.825-.59-4.987c-.06-1.59-.28-3.498-.17-5.661-.01-1.09.03-2.229.18-3.442.1-1.191.23-2.456.49-3.753.42-2.596 1.25-5.329 2.18-8.218.92-2.628 2.1-5.338 3.28-8.191 3.74-4.796 7.44-10.434 10.43-16.815 2.21 11.072 2.94 24.221-1.51 35.611-5.36 13.722-6.44 30.956-3.22 40.527 3.22 9.567 11.08 19.778 11.08 19.778s-6.87-11.559-8.58-26.473c-2.59-22.618 14.2-41.233 14.2-63.698 0-2.862-.78-7.142-1.51-12.315 1.57-4.024 2.67-8.333 3.41-12.777 13.96 20.064 30.55 15.965 30.55 15.965-16.79-6.372-25.93-30.782-29.84-44.567z" fill="#f0f0f0" fill-rule="nonzero"/><path d="M158.9 150.575c-.52-1.801-.8-3.578-.95-5.201-.26-2.125-.34-4.661.16-7.09a9.286 9.286 0 0 1 2-4.786c.32.194.68.298 1.06.298a1.977 1.977 0 0 0 1.42-.599l.02-.017c.1-.102.86-.845 2.22-1.898-.78 5.559-.82 12.6-.78 16.398a53.032 53.032 0 0 0-5.15 2.895zm40.06-3.97c-2.8-1.149-5.84-2.097-9.07-2.69 2.88-5.413 4.62-11.755 5.02-13.308 2.24 5.186 3.92 10.768 4.05 15.998zm-4.47-16.954a44.054 44.054 0 0 0-2.89-2.794c.39.071.8.156 1.22.259.19.041.37.085.54.129.39.789.77 1.592 1.13 2.406z" fill="url(#a)"/><path d="M164.83 147.31c.25-6.698 1.08-14.227 3.38-15.862 2-1.466 5.24-3.23 9.49-3.23 4.29 0 9.58 1.788 15.65 7.472a61.826 61.826 0 0 0 1.55-5.11c.01.009.01.018.01.027-.4 1.553-2.14 7.895-5.02 13.308a41.184 41.184 0 0 0-4.84-.595c.41-.984.64-2.064.64-3.198 0-4.594-3.72-8.32-8.3-8.32s-8.29 3.726-8.29 8.32c0 1.84.6 3.541 1.6 4.918a45.56 45.56 0 0 0-5.87 2.27z" fill="url(#b)"/><path d="M164.05 147.68c-.04-3.798 0-10.839.78-16.398.61-.477 1.35-1.018 2.21-1.592.81-.602 1.78-1.162 2.82-1.704 5.46-1.485 11.05-1.588 12.45-1.588.23-.006.46-.012.7-.012.7-.026 1.37-.038 2.01-.038 1.68 0 3.19.084 4.54.232.57.051 1.26.136 2.04.277.95.834 1.91 1.761 2.89 2.794.14.308.28.618.41.929-.2.797-.72 2.736-1.55 5.11-6.07-5.684-11.36-7.472-15.65-7.472-4.25 0-7.49 1.764-9.49 3.23-2.3 1.635-3.13 9.164-3.38 15.862-.26.12-.52.243-.78.37z" fill="url(#c)"/><path d="M170.7 145.04a8.35 8.35 0 0 1-1.6-4.918c0-4.594 3.71-8.32 8.29-8.32 4.58 0 8.3 3.726 8.3 8.32 0 1.134-.23 2.214-.64 3.198-.81-.051-1.64-.078-2.48-.079h-.05c-.43.001-.88.008-1.32.024.45-.849.68-1.852.59-2.891 0-.091-.01-.181-.02-.27.42-.306.67-.771.63-1.267-.06-.772-.8-1.346-1.69-1.346l-.07.001c-.84-1.029-2.05-1.681-3.34-1.681-.11 0-.22.005-.32.014-2.4.198-4.23 2.619-4.02 5.284.06.832.33 1.608.73 2.275a.656.656 0 0 0 .03.853c-1 .226-2 .493-3.02.803z" fill="url(#d)"/><path d="M173.69 143.384a5.154 5.154 0 0 1-.73-2.275c-.21-2.665 1.62-5.086 4.02-5.284.1-.009.21-.014.32-.014 1.29 0 2.5.652 3.34 1.681a1.92 1.92 0 0 0-1.09.369c-.69-.673-1.58-1.065-2.41-1.065-.07 0-.14.003-.21.009-1.67.142-3.39 1.985-3.21 4.245.06.755.33 1.429.71 1.985l-.07.004a.91.91 0 0 0-.67.345zm6.22-.054c.6-.754.97-1.759.88-2.865v-.004c.37-.032.71-.162.98-.357.01.089.02.179.02.27a5.222 5.222 0 0 1-.59 2.891c-.43.014-.86.036-1.29.065z" fill="url(#e)"/><path d="M175.27 143.917c.01-.069.02-.14.02-.213-.04-.381-.41-.669-.85-.669h-.01a4.088 4.088 0 0 1-.71-1.985c-.18-2.26 1.54-4.103 3.21-4.245.07-.006.14-.009.21-.009.83 0 1.72.392 2.41 1.065-.42.306-.67.769-.63 1.265.07.768.81 1.342 1.7 1.342.05 0 .11-.003.17-.007v.004a4.064 4.064 0 0 1-.88 2.865 39.4 39.4 0 0 0-4.64.587z" fill="url(#f)"/><path d="M180.62 140.468c-.89 0-1.63-.574-1.7-1.342-.04-.496.21-.959.63-1.265a1.92 1.92 0 0 1 1.09-.369l.07-.001c.89 0 1.63.574 1.69 1.346.04.496-.21.961-.63 1.267a1.969 1.969 0 0 1-1.15.364z" fill="url(#g)"/><path d="M173.72 144.237a.656.656 0 0 1-.03-.853.91.91 0 0 1 .67-.345l.07-.004h.01c.44 0 .81.288.85.669 0 .073-.01.144-.02.213-.52.096-1.03.202-1.55.32z" fill="url(#h)"/><path d="M161.17 133.796c-.38 0-.74-.104-1.06-.298 2.23-2.787 5.96-4.482 9.75-5.512-1.04.542-2.01 1.102-2.82 1.704-.86.574-1.6 1.115-2.21 1.592-1.36 1.053-2.12 1.796-2.22 1.898l-.02.017c-.38.386-.88.598-1.42.599z" fill="url(#i)"/><path d="M202.5 148.221c-.04-.021-.09-.043-.13-.065-.08-.041-.16-.082-.25-.123l-.03-.015c-.06-.028-.11-.056-.17-.083-.01-.004-.01-.007-.02-.011-.95-.461-1.93-.903-2.94-1.319-.13-5.23-1.81-10.812-4.05-15.998 0-.009 0-.018-.01-.027a33.18 33.18 0 0 0-.41-.929c-.36-.814-.74-1.617-1.13-2.406 6.95 1.745 7.93 5.476 8.01 5.843.3.635.54 1.336.7 2.1 1 3.454 1.14 6.791.85 9.767a30.71 30.71 0 0 1-.42 3.266z" fill="url(#j)"/><path d="M93.7 149.296a99.65 99.65 0 0 1-.22-6.848c0-.768.04-1.546.11-2.328.22-.9.41-1.812.67-2.696.9-3.213 1.92-6.308 2.96-9.25 1.08-.482 2.18-.825 3.2-1.07.39-.087.79-.169 1.21-.243-.37 1.796-.67 3.64-.86 5.507-.52 4.91.09 9.435 1.1 13.254a50.908 50.908 0 0 0-8.17 3.674zm41.11-1.293c-.06-.033-.13-.066-.19-.099l-.12-.059c-.45-.224-.9-.437-1.34-.643.02-3.725-.07-9.48-.67-14.34 1.4 1.534 2.2 3.434 2.61 5.409v.053s.51 3.072.15 7.102v.006a28.89 28.89 0 0 1-.44 2.571z" fill="url(#k)"/><path d="M132.32 146.828a44.387 44.387 0 0 0-5.29-1.932 8.301 8.301 0 0 0 1.07-4.087c0-4.594-3.72-8.319-8.3-8.319s-8.29 3.725-8.29 8.319c0 .911.15 1.788.41 2.609-1.59.149-3.14.389-4.64.704.34-3.774.98-7.974 2.16-12.08 3.77-2.311 7.14-3.136 10.05-3.136 4.25 0 7.5 1.763 9.5 3.229 2.16 1.541 3.02 8.313 3.33 14.693z" fill="url(#l)"/><path d="M133.16 147.202c-.28-.128-.56-.254-.84-.374-.31-6.38-1.17-13.152-3.33-14.693-2-1.466-5.25-3.229-9.5-3.229-2.91 0-6.28.825-10.05 3.136.46-1.615 1-3.216 1.64-4.771.12-.288.24-.575.37-.86 8.87.254 14.11 2.136 16.66 3.395.96 1.562 1.75 2.456 1.75 2.456s0-.498.07-1.397c.07.053.11.081.11.081a9.54 9.54 0 0 1 2.45 1.916c.6 4.86.69 10.615.67 14.34z" fill="url(#m)"/><path d="M127.03 144.896a41.887 41.887 0 0 0-3.5-.865 5.26 5.26 0 0 0 .71-2.234c.21-2.666-1.62-5.087-4.02-5.285a3.804 3.804 0 0 0-.32-.013c-1.29 0-2.5.651-3.34 1.68l-.08-.001c-.88 0-1.62.574-1.69 1.346-.04.496.22.961.64 1.267l-.03.27c-.06.762.05 1.505.28 2.181h-.05c-1.25.001-2.49.062-3.71.176a8.634 8.634 0 0 1-.41-2.609c0-4.594 3.71-8.319 8.29-8.319 4.58 0 8.3 3.725 8.3 8.319 0 1.486-.39 2.88-1.07 4.087z" fill="url(#n)"/><path d="M123.53 144.031a.572.572 0 0 0-.07-.014.955.955 0 0 0-.7-.295 4 4 0 0 0 .72-1.985c.18-2.261-1.54-4.103-3.21-4.245a2.458 2.458 0 0 0-.21-.009c-.83 0-1.72.392-2.41 1.065-.27-.2-.62-.332-1-.363l-.09-.006c.84-1.029 2.05-1.68 3.34-1.68.11 0 .21.004.32.013 2.4.198 4.23 2.619 4.02 5.285a5.26 5.26 0 0 1-.71 2.234zm-6.72-.772a38.71 38.71 0 0 0-1.13-.017 5.452 5.452 0 0 1-.28-2.181l.03-.27c.27.195.61.325.98.357v.004c-.06.768.1 1.487.4 2.107z" fill="url(#o)"/><path d="M122.35 143.81a39.812 39.812 0 0 0-5.54-.551 4.09 4.09 0 0 1-.4-2.107v-.004c.06.005.11.007.17.007.89 0 1.63-.573 1.69-1.341.04-.497-.21-.96-.62-1.266.69-.673 1.58-1.065 2.41-1.065.07 0 .14.003.21.009 1.67.142 3.39 1.984 3.21 4.245a4 4 0 0 1-.72 1.985h-.01c-.14 0-.28.032-.4.088z" fill="url(#p)"/><path d="M116.58 141.155a1.969 1.969 0 0 1-1.15-.364c-.42-.306-.68-.771-.64-1.267.07-.772.81-1.346 1.69-1.346l.08.001.09.006c.38.031.73.163 1 .363.41.306.66.769.62 1.266-.06.768-.8 1.341-1.69 1.341z" fill="url(#q)"/><path d="M123.46 144.017c-.37-.075-.74-.143-1.11-.207a.959.959 0 0 1 .4-.088h.01l.08.004c.25.02.47.131.62.291z" fill="url(#r)"/><path d="M91.41 150.64a30.92 30.92 0 0 1-1.13-5.69c-.35-5.131.71-8.932.71-8.932.04-.3.09-.582.15-.859.2-.676.43-1.353.69-2.042l.01-.029c1.15-2.416 3.21-3.945 5.38-4.914-1.04 2.942-2.06 6.037-2.96 9.25-.26.884-.45 1.796-.67 2.696-.07.782-.11 1.56-.11 2.328 0 2.393.07 4.675.22 6.848a53.312 53.312 0 0 0-2.1 1.224c-.02.015-.05.031-.07.046l-.12.074zm10.46-5.018c-1.01-3.819-1.62-8.344-1.1-13.254.19-1.867.49-3.711.86-5.507.61-.106 1.24-.199 1.92-.275l.1-.006c.92-.082 1.48-.082 1.48-.082a84.438 84.438 0 0 1 5.15-.112c.1.006.19.006.27.012h.33c.19.003.38.008.57.013-.13.285-.25.572-.37.86a44.752 44.752 0 0 0-1.64 4.771c-1.18 4.106-1.82 8.306-2.16 12.08-1.88.394-3.68.904-5.41 1.5zm27.99-13.36s-.79-.894-1.75-2.456c1.01.496 1.59.895 1.82 1.059-.07.899-.07 1.397-.07 1.397z" fill="url(#s)"/><path d="M182.1 165.021c-4.08 0-7.78-.803-10.06-1.437-.12-.03-.84-.188-1.89-.583-.31-.106-.48-.17-.48-.17-6.39-2.472-9.41-7.437-10.77-12.256a53.255 53.255 0 0 1 5.15-2.895c.02 1.682.06 2.727.06 2.727l.01.003v.06s5.83 2.092 12.47 2.092c1.66 0 3.39-.132 5.08-.463 3.31-.648 6.08-4.159 8.22-8.183 3.23.593 6.27 1.54 9.07 2.69 0 .213.01.425.01.637 0 3.881-.21 7.472-.55 10.779-.26.368-.54.733-.83 1.096a11.04 11.04 0 0 1-3.08 2.707c-.87.518-2.05 1.112-3.53 1.641-2.9 1.152-5.99 1.555-8.88 1.555z" fill="#bcd0bb" fill-rule="nonzero"/><path d="M176.59 152.562c-6.64 0-12.47-2.092-12.47-2.092v-.06c.04.014.24.076.62.234.01-1.064.04-2.186.09-3.334a45.707 45.707 0 0 1 5.87-2.27 8.283 8.283 0 0 0 6.69 3.402c3.45 0 6.41-2.115 7.66-5.122 1.66.104 3.27.308 4.84.596-2.14 4.024-4.91 7.535-8.22 8.183-1.69.331-3.42.463-5.08.463z" fill="#bee4de" fill-rule="nonzero"/><path d="M164.74 150.644c-.38-.158-.58-.22-.62-.234l-.01-.003s-.04-1.045-.06-2.727c.26-.126.52-.25.78-.37-.05 1.148-.08 2.27-.09 3.334z" fill="#b0c3af" fill-rule="nonzero"/><path d="M177.39 148.442a8.283 8.283 0 0 1-6.69-3.402c1.02-.31 2.02-.577 3.02-.803.15.174.4.284.67.284.03 0 .06-.002.09-.004a.637.637 0 0 0 .11-.017c.8.733 1.81 1.176 2.87 1.176.11 0 .21-.004.32-.013 1.46-.121 2.71-1.071 3.42-2.398.44-.016.89-.023 1.32-.024h.05c.84.001 1.67.028 2.48.079-1.25 3.007-4.21 5.122-7.66 5.122z" fill="#717363" fill-rule="nonzero"/><path d="M177.46 145.676c-1.06 0-2.07-.443-2.87-1.176.34-.067.6-.298.68-.579.63.503 1.38.788 2.09.788.07 0 .14-.002.21-.008.85-.073 1.72-.586 2.34-1.371.43-.029.86-.051 1.29-.065-.71 1.327-1.96 2.277-3.42 2.398-.11.009-.21.013-.32.013z" fill="#8d836b" fill-rule="nonzero"/><path d="M177.36 144.709c-.71 0-1.46-.285-2.09-.788v-.004c1.57-.293 3.12-.486 4.64-.587-.62.785-1.49 1.298-2.34 1.371-.07.006-.14.008-.21.008z" fill="#596d63" fill-rule="nonzero"/><path d="M174.39 144.521a.89.89 0 0 1-.67-.284c.52-.118 1.03-.224 1.55-.32v.004c-.08.281-.34.512-.68.579a.637.637 0 0 1-.11.017c-.03.002-.06.004-.09.004z" fill="#bee4de" fill-rule="nonzero"/><path d="M198.42 158.022c.34-3.307.55-6.898.55-10.779 0-.212-.01-.424-.01-.637 1.01.415 1.99.857 2.94 1.318.01.004.01.007.02.011.06.027.11.055.17.083l.03.015c.09.041.17.082.25.123.04.022.09.044.13.065-.49 2.63-1.41 5.443-3.03 8.173-.12.218-.19.329-.19.329l-.11.177c-.24.376-.49.75-.75 1.122z" fill="#b9ded9" fill-rule="nonzero"/><path d="M198.96 146.606a45.564 45.564 0 0 0-9.07-2.69v-.001c3.23.593 6.27 1.541 9.07 2.69v.001z" fill="url(#t)"/><path d="M189.89 143.916a40.973 40.973 0 0 0 0-.001v.001z" fill="url(#u)"/><path d="M201.9 147.924c-.95-.461-1.93-.903-2.94-1.318v-.001c1.01.416 1.99.858 2.94 1.319z" fill="url(#v)"/><clipPath id="w"><path d="M182.52 143.241h.03-.03z"/></clipPath><g clip-path="url(#w)"><path d="M182.52 143.241h.03-.03z" fill="url(#x)" fill-rule="nonzero"/></g><path d="M94.76 157.889c-.06-.07-.11-.14-.17-.211-.14-.924-.27-1.874-.38-2.849.19.872.37 1.908.55 3.06z" fill="#b0bea8" fill-rule="nonzero"/><path d="M111.35 164.988c-3.8 0-6.86-.695-9.18-1.54l-.02-.005c-2.72-1.092-5.29-2.85-7.39-5.554a54.04 54.04 0 0 0-.55-3.06 89.33 89.33 0 0 1-.51-5.533 50.908 50.908 0 0 1 8.17-3.674c1.91 7.208 5.28 11.896 5.28 11.896s-.53-5.662.1-13.033c2.15 4.073 4.94 7.647 8.28 8.301 1.69.331 3.41.463 5.08.463 6.64 0 12.46-2.092 12.46-2.092s.01-.02.01-.059c0-.002.01-.003.01-.003s.05-1.542.07-3.893c.44.206.89.419 1.34.643l.12.059c.06.033.13.066.19.099-.19.93-.38 1.63-.5 2.013-.06.206-.1.318-.1.318-1.94 8.184-8.02 11.485-11.16 12.667l-.01.006c-.4.135-1.04.341-1.85.571l-.03.006-.02.006c-3.68 1.008-6.94 1.398-9.79 1.398z" fill="#b5c7b1" fill-rule="nonzero"/><path d="M120.61 153.249c-1.67 0-3.39-.132-5.08-.463-3.34-.654-6.13-4.228-8.28-8.301l.03-.362c1.5-.316 3.05-.556 4.64-.705 1.1 3.316 4.21 5.711 7.88 5.711 3.1 0 5.8-1.706 7.23-4.233 1.74.511 3.5 1.149 5.29 1.932.08 1.551.12 3.08.14 4.504.38-.159.58-.222.62-.234 0 .039-.01.059-.01.059s-5.82 2.092-12.46 2.092z" fill="#bee4de" fill-rule="nonzero"/><path d="M132.46 151.332c-.02-1.424-.06-2.953-.14-4.504.28.121.56.246.84.374-.02 2.351-.07 3.893-.07 3.893s-.01.001-.01.003c-.04.012-.24.075-.62.234z" fill="#b0c3af" fill-rule="nonzero"/><path d="M119.8 149.129c-3.67 0-6.78-2.395-7.88-5.711 1.22-.114 2.46-.175 3.71-.176h.05c.6 1.69 2.03 2.966 3.74 3.108.1.009.21.013.32.013 1.06 0 2.07-.443 2.86-1.176a.99.99 0 0 0 .12.017c.03.002.06.004.09.004.44 0 .81-.288.84-.669a.656.656 0 0 0-.14-.467c.01-.014.02-.027.02-.041 1.15.232 2.32.52 3.5.865-1.43 2.527-4.13 4.233-7.23 4.233z" fill="#717363" fill-rule="nonzero"/><path d="M119.74 146.363c-.11 0-.22-.004-.32-.013-1.71-.142-3.14-1.418-3.74-3.108.38 0 .75.006 1.13.017.59 1.204 1.71 2.036 2.81 2.129.07.006.14.009.22.009.7 0 1.45-.286 2.09-.788.08.28.34.511.67.578-.79.733-1.8 1.176-2.86 1.176zm3.77-2.291c-.02-.019-.03-.037-.05-.055l.07.014c0 .014-.01.027-.02.041z" fill="#8d836b" fill-rule="nonzero"/><path d="M119.84 145.397c-.08 0-.15-.003-.22-.009-1.1-.093-2.22-.925-2.81-2.129 1.8.052 3.65.229 5.54.552-.24.113-.42.327-.44.581a.53.53 0 0 0 .02.217c-.64.502-1.39.788-2.09.788z" fill="#596d63" fill-rule="nonzero"/><path d="M122.81 145.208c-.03 0-.06-.002-.09-.004a.99.99 0 0 1-.12-.017c-.33-.067-.59-.298-.67-.578-.02-.07-.03-.143-.02-.217.02-.254.2-.468.44-.581.37.063.74.132 1.11.206.02.018.03.036.05.055.1.134.16.297.14.467-.03.381-.4.669-.84.669z" fill="#bee4de" fill-rule="nonzero"/><path d="M94.59 157.678c-.18-.248-.37-.503-.55-.766-.1-.165-.2-.336-.3-.506-.37-.677-1.26-2.419-2.06-4.867-.09-.288-.18-.588-.27-.899l.12-.074c.02-.015.05-.031.07-.046.02-.008.03-.016.04-.024.66-.405 1.35-.807 2.06-1.2.12 1.93.29 3.773.51 5.533.11.975.24 1.925.38 2.849zm12.56-.16s-3.37-4.688-5.28-11.896a44.61 44.61 0 0 1 5.41-1.499l-.03.362c-.63 7.371-.1 13.033-.1 13.033z" fill="#b9ded9" fill-rule="nonzero"/><path d="M134.81 148.003c-.06-.033-.13-.066-.19-.099.06.033.13.066.19.099zm-.31-.158z" fill="url(#y)"/><path d="M123.53 144.031zm-6.72-.772z" fill="url(#z)"/><path d="M122.35 143.811a39.665 39.665 0 0 0 0-.001v.001z" fill="url(#A)"/><path d="M123.46 144.017c-.37-.074-.74-.143-1.11-.206v-.001c.37.064.74.132 1.11.207z" fill="url(#B)"/><path d="M202.92 144.957a27.11 27.11 0 0 1-.53 3.814c-.03.126-.05.252-.08.379-.09.414-.2.832-.31 1.253-.03.095-.06.19-.08.285-.11.371-.23.744-.35 1.119l-.09.248c-.15.451-.33.903-.52 1.356l-.06.138c-.16.398-.35.796-.54 1.194-.06.108-.11.217-.17.326-.21.421-.44.842-.68 1.26l-.04.065c-.12.218-.19.329-.19.329l-.09.145-.02.03c-.08.116-.16.23-.23.345-.41.63-.85 1.258-1.35 1.875-.21.271-.44.532-.67.782-.71.747-1.52 1.398-2.41 1.924-.71.421-1.64.891-2.75 1.34-.25.102-.5.204-.78.302-2.09.828-4.27 1.263-6.4 1.446-5.03.428-9.8-.57-12.54-1.33-.03-.007-.13-.029-.27-.065a15.334 15.334 0 0 1-1.62-.517c-.31-.106-.48-.171-.48-.171l-.12-.05c-.3-.12-.6-.245-.89-.376-.1-.048-.21-.097-.31-.146-.27-.129-.54-.262-.79-.4l-.17-.085c-.3-.166-.59-.341-.87-.519l-.23-.149c-.24-.155-.47-.313-.69-.475l-.16-.111c-.26-.197-.52-.4-.77-.608l-.16-.14c-.21-.179-.41-.361-.6-.547l-.14-.133c-.23-.223-.45-.451-.67-.684l-.09-.109c-.19-.207-.37-.417-.54-.63l-.12-.143a24.1 24.1 0 0 1-.56-.754l-.03-.033c-.17-.247-.34-.498-.49-.751l-.08-.127c-.34-.541-.64-1.094-.92-1.654l-.03-.063a21.737 21.737 0 0 1-1.34-3.567l-.01.002c-.51-1.802-.79-3.583-.94-5.205-.26-2.12-.34-4.661.16-7.089 1.36-11.464 21.35-11.885 24.2-11.887.23-.004.46-.008.7-.01 2.51-.092 4.68-.012 6.55.192.85.078 2 .232 3.26.535 7.44 1.686 8.46 5.597 8.55 5.976.3.637.54 1.335.7 2.1 1.01 3.454 1.14 6.792.85 9.768zm-67.67.469v.003a31.187 31.187 0 0 1-.94 4.586l-.04.142-.06.176c-1.94 8.185-8.02 11.486-11.16 12.668l-.01.006a36.348 36.348 0 0 1-1.85.57l-.03.006v.001l-.02.003a38.892 38.892 0 0 1-7.01 1.275c-5.11.434-9.1-.373-11.96-1.413l-.01-.003-.01-.004a17.885 17.885 0 0 1-3.25-1.702c-1.8-1.189-3.45-2.765-4.86-4.828l-.13-.218c-.06-.095-.11-.191-.17-.286-.23-.429-.67-1.279-1.17-2.46-.28-.694-.59-1.502-.88-2.408-.1-.289-.19-.589-.28-.901v.002a30.95 30.95 0 0 1-1.13-5.694c-.36-5.128.71-8.931.71-8.931.04-.295.09-.58.15-.857.2-.676.42-1.356.69-2.039l.01-.034c1.72-3.614 5.5-5.245 8.58-5.982.94-.212 1.98-.388 3.13-.516l.1-.01c.91-.082 1.48-.079 1.48-.079 1.84-.097 3.55-.131 5.16-.112l.27.011s.11-.002.31-.002h.01c13.91.283 19.15 4.55 19.15 4.55 3.01 1.655 4.46 4.407 5.07 7.326v.051s.51 3.07.15 7.103zm76.99-17.082a2.966 2.966 0 0 0-2.13-2.415c-23.25-6.498-41.36-2.69-41.36-2.69-9.7 1.69-13.88 7.293-13.88 7.293-2.75 2.935-8.27 1.69-8.27 1.69s-5.51 1.245-8.27-1.69c0 0-4.18-5.603-13.87-7.293 0 0-18.11-3.809-41.37 2.689a2.982 2.982 0 0 0-2.13 2.416c-.37 2.442-.7 6.487 1.07 7.524 0 0 3.56.712 3.56 5.693 0 0 2.76 16.364 6.05 19.922 0 0 4.44 8.182 19.48 7.738 0 0 20.55.861 24.55-10.495.52-1.501 1.27-3.237 1.86-4.714l3.43-9.867c.36-1.042 1.01-1.974 1.9-2.627.86-.63 2.07-1.137 3.74-1.025 1.67-.111 2.89.395 3.75 1.024.89.654 1.53 1.585 1.9 2.628l3.42 9.867c.6 1.477 1.34 3.212 1.87 4.714 3.99 11.356 24.55 10.495 24.55 10.495 15.03.444 19.48-7.738 19.48-7.738 3.29-3.558 6.05-19.923 6.05-19.923 0-4.98 3.55-5.692 3.55-5.692 1.77-1.036 1.45-5.082 1.07-7.524z" fill="#c92026" fill-rule="nonzero"/><path d="M157.56 252.762v47.3h-16.81v-47.403c2.62 1.996 5.48 3.292 8.48 3.292 2.96 0 5.78-1.255 8.33-3.189z" fill="#346869" fill-rule="nonzero"/><defs><linearGradient id="a" x2="1" gradientUnits="userSpaceOnUse" gradientTransform="rotate(89.695 30.807 149.666) scale(55.30908)"><stop offset="0" stop-color="#f8e7d5"/><stop offset="1" stop-color="#a9c9ad"/></linearGradient><linearGradient id="b" x2="1" gradientUnits="userSpaceOnUse" gradientTransform="rotate(89.695 30.807 149.666) scale(55.30908)"><stop offset="0" stop-color="#fff"/><stop offset="1" stop-color="#acdcd0"/></linearGradient><linearGradient id="c" x2="1" gradientUnits="userSpaceOnUse" gradientTransform="rotate(89.695 30.807 149.666) scale(55.30908)"><stop offset="0" stop-color="#e9d8c9"/><stop offset="1" stop-color="#9fbda3"/></linearGradient><linearGradient id="d" x2="1" gradientUnits="userSpaceOnUse" gradientTransform="rotate(89.695 30.807 149.666) scale(55.30908)"><stop offset="0" stop-color="#987e73"/><stop offset="1" stop-color="#65705c"/></linearGradient><linearGradient id="e" x2="1" gradientUnits="userSpaceOnUse" gradientTransform="rotate(89.695 30.807 149.666) scale(55.30908)"><stop offset="0" stop-color="#b88f7c"/><stop offset="1" stop-color="#808062"/></linearGradient><linearGradient id="f" x2="1" gradientUnits="userSpaceOnUse" gradientTransform="rotate(89.695 30.807 149.666) scale(55.30908)"><stop offset="0" stop-color="#807872"/><stop offset="1" stop-color="#4c6a5c"/></linearGradient><linearGradient id="g" x2="1" gradientUnits="userSpaceOnUse" gradientTransform="rotate(89.695 30.807 149.666) scale(55.30908)"><stop offset="0" stop-color="#fff"/><stop offset="1" stop-color="#acdcd0"/></linearGradient><linearGradient id="h" x2="1" gradientUnits="userSpaceOnUse" gradientTransform="rotate(89.695 30.807 149.666) scale(55.30908)"><stop offset="0" stop-color="#fff"/><stop offset="1" stop-color="#acdcd0"/></linearGradient><linearGradient id="i" x2="1" gradientUnits="userSpaceOnUse" gradientTransform="rotate(89.695 30.807 149.666) scale(55.30908)"><stop offset="0" stop-color="#716e6e"/><stop offset="1" stop-color="#3e6259"/></linearGradient><linearGradient id="j" x2="1" gradientUnits="userSpaceOnUse" gradientTransform="rotate(89.695 30.807 149.666) scale(55.30908)"><stop offset="0" stop-color="#f8f8f8"/><stop offset="1" stop-color="#a6d7cb"/></linearGradient><linearGradient id="k" x2="1" gradientUnits="userSpaceOnUse" gradientTransform="rotate(89.695 -3.208 115.873) scale(55.30908)"><stop offset="0" stop-color="#efddcb"/><stop offset="1" stop-color="#a4c1a5"/></linearGradient><linearGradient id="l" x2="1" gradientUnits="userSpaceOnUse" gradientTransform="rotate(89.695 -3.208 115.873) scale(55.30908)"><stop offset="0" stop-color="#fff"/><stop offset="1" stop-color="#acdcd0"/></linearGradient><linearGradient id="m" x2="1" gradientUnits="userSpaceOnUse" gradientTransform="rotate(89.695 -3.208 115.873) scale(55.30908)"><stop offset="0" stop-color="#e9d8c9"/><stop offset="1" stop-color="#9fbda3"/></linearGradient><linearGradient id="n" x2="1" gradientUnits="userSpaceOnUse" gradientTransform="rotate(89.695 -3.208 115.873) scale(55.30908)"><stop offset="0" stop-color="#987e73"/><stop offset="1" stop-color="#65705c"/></linearGradient><linearGradient id="o" x2="1" gradientUnits="userSpaceOnUse" gradientTransform="rotate(89.695 -3.208 115.873) scale(55.30908)"><stop offset="0" stop-color="#b88f7c"/><stop offset="1" stop-color="#808062"/></linearGradient><linearGradient id="p" x2="1" gradientUnits="userSpaceOnUse" gradientTransform="rotate(89.695 -3.208 115.873) scale(55.30908)"><stop offset="0" stop-color="#807872"/><stop offset="1" stop-color="#4c6a5c"/></linearGradient><linearGradient id="q" x2="1" gradientUnits="userSpaceOnUse" gradientTransform="rotate(89.695 -3.208 115.873) scale(55.30908)"><stop offset="0" stop-color="#fff"/><stop offset="1" stop-color="#acdcd0"/></linearGradient><linearGradient id="r" x2="1" gradientUnits="userSpaceOnUse" gradientTransform="rotate(89.695 -3.208 115.873) scale(55.30908)"><stop offset="0" stop-color="#fff"/><stop offset="1" stop-color="#acdcd0"/></linearGradient><linearGradient id="s" x2="1" gradientUnits="userSpaceOnUse" gradientTransform="rotate(89.695 -3.208 115.873) scale(55.30908)"><stop offset="0" stop-color="#f8f8f8"/><stop offset="1" stop-color="#a6d7cb"/></linearGradient><linearGradient id="t" x2="1" gradientUnits="userSpaceOnUse" gradientTransform="rotate(89.695 30.807 149.666) scale(55.30908)"><stop offset="0" stop-color="#bddacd"/><stop offset="1" stop-color="#98ccbb"/></linearGradient><linearGradient id="u" x2="1" gradientUnits="userSpaceOnUse" gradientTransform="rotate(89.695 30.807 149.666) scale(55.30908)"><stop offset="0" stop-color="#bee4de"/><stop offset="1" stop-color="#99d5cb"/></linearGradient><linearGradient id="v" x2="1" gradientUnits="userSpaceOnUse" gradientTransform="rotate(89.695 30.807 149.666) scale(55.30908)"><stop offset="0" stop-color="#bbe1db"/><stop offset="1" stop-color="#96d3c8"/></linearGradient><linearGradient id="x" x2="1" gradientUnits="userSpaceOnUse" gradientTransform="rotate(89.695 30.807 149.666) scale(55.30908)"><stop offset="0" stop-color="#97a89c"/><stop offset="1" stop-color="#799e8e"/></linearGradient><linearGradient id="y" x2="1" gradientUnits="userSpaceOnUse" gradientTransform="rotate(89.695 -3.208 115.873) scale(55.30908)"><stop offset="0" stop-color="#bad5c9"/><stop offset="1" stop-color="#96c8b7"/></linearGradient><linearGradient id="z" x2="1" gradientUnits="userSpaceOnUse" gradientTransform="rotate(89.695 -3.208 115.873) scale(55.30908)"><stop offset="0" stop-color="#a6b2a1"/><stop offset="1" stop-color="#86a792"/></linearGradient><linearGradient id="A" x2="1" gradientUnits="userSpaceOnUse" gradientTransform="rotate(89.695 -3.208 115.873) scale(55.30908)"><stop offset="0" stop-color="#8aa49d"/><stop offset="1" stop-color="#6b9b8e"/></linearGradient><linearGradient id="B" x2="1" gradientUnits="userSpaceOnUse" gradientTransform="rotate(89.695 -3.208 115.873) scale(55.30908)"><stop offset="0" stop-color="#bee4de"/><stop offset="1" stop-color="#99d5cb"/></linearGradient></defs></svg>