<svg viewBox="0 0 300 300" xmlns="http://www.w3.org/2000/svg" fill-rule="evenodd" clip-rule="evenodd" stroke-linejoin="round" stroke-miterlimit="1.414"><g fill-rule="nonzero"><path fill="#491f44" d="M.28.07h299.369v299.71H.28z"/><path d="M90 202.41c1.17 4.21 2.37 7.46 2.38 7.48-.01-.01-.17-.04-1.81-.04-10.08.02-15.76 9.58-15.76 9.58s3.8-5.46 16.89-1.2c12.78 4.14 12.45 17.66 30.83 25.2 9.41 3.86 15.02 3.35 18.28 1.95-3.3 2.65-10.07 2.42-10.07 2.42s8.36 4.51 21.28.46c9.08-2.85 14.52-6.09 17.57-8.41l-5.1 4.76s3.61-1.26 8.72-3.81c-3.48 6.61-9.9 13.86-9.9 13.86 16.37-5.99 29.93-27.52 29.93-27.52-1.3 8.12-4.17 15.55-4.17 15.55 27.95-20.4 23.6-57.24 23.6-57.24 0-13.94-5.6-27.92-9.28-32.07-3.67-4.15-2.5-10.17-3.6-10.17 0 0-2.21-.08-2.28 10.44-.11 1.34-.33 2.98-.83 4.42 0 0-3.4 58.79-44.59 41.69 0 0-16.67-7.05-29.66-8.17-9.65-.82-17.59-7.99-19.67-17.36-.99-4.46-1.24-8.38-.77-10.67 2.75-13.64-1.09-21.49-2.56-21.12 0 0-.05 3.46-1.39 6.55-3.95 9.19-7.27 2.8-7.88 15.27-.49 10.01-1.73 15.67-2.22 20.75-3.14-2.45-7.82-4.2-14.82-4.34 0 0 9.9 3.01 16.88 21.74z" fill="#101111"/><path d="M150.79 187.68v111.76H90.06c-.99-.39-1.49-.6-1.49-.6 0-7.01.5-13.29 1.42-18.84.46-2.86 1.01-5.52 1.67-8.03.66-2.57 1.4-4.96 2.22-7.18 1.09-2.96 2.31-5.64 3.64-8.04 4.18-7.72 9.26-12.82 13.97-16.15 2.41-1.69 4.72-2.95 6.73-3.87 1.54-.7 2.92-1.19 4.05-1.54 1.32-.4 2.31-.6 2.88-.73.37-.06.58-.08.58-.08.23 0 .45-.02.68-.04 1.89-.31 3.46-1.97 4.71-4.61.93-1.95 1.69-4.44 2.33-7.36.24-1.13.45-2.25.63-3.48.31-2.08.6-4.24.85-6.5.1-1.38.24-2.72.39-4.14.53-6.83.7-14.34.7-21.41 0 0 8.15.84 14.77.84z" fill="#824a50"/><path d="M213.25 298.84s-.55.21-1.44.6h-61.02V187.68h.14c6.57 0 14.84-.84 14.84-.84 0 7.03.14 14.42.68 21.25.14 1.36.31 2.74.39 4.05.27 2.37.55 4.57.9 6.65v.04c.09.94.29 1.79.44 2.65.61 2.92 1.33 5.48 2.22 7.53 1.09 2.53 2.4 4.32 4.01 5.04.51.23 1.07.33 1.63.33 0 0 .34.04.98.19 1.01.18 2.72.62 4.86 1.46.62.25 1.27.51 1.95.82 1.81.82 3.83 1.94 5.93 3.36 4.85 3.33 10.18 8.51 14.54 16.54a58.95 58.95 0 0 1 3.65 8.04 73.46 73.46 0 0 1 2.22 7.18c.66 2.55 1.23 5.27 1.68 8.17.89 5.53 1.4 11.75 1.4 18.7z" fill="#965559"/><path d="M167.74 218.72v.05c-1.53 2.36-6.67 9.13-16.85 9.13h-.1c-9.64-.05-15.27-7.02-16.7-9.08.29-2.07.59-4.23.84-6.49.1-1.32.24-2.7.39-4.12 4.7 1.18 9.84 1.91 15.27 2.01h.2c5.63-.1 10.82-.88 15.66-2.16.15 1.33.3 2.7.4 4.03.25 2.36.54 4.57.89 6.63z" fill="#563137"/><path d="M150.1 59.74c-64.34 0-64.68 53.78-61.82 88.99-4.4-8.35-17.49-5.79-16.4 7.37 1.03 12.67 19.74 19.13 19.22 17.73 9.74 26.04 35.53 45.67 59 45.67h.49V59.74h-.49z" fill="#6b3e44"/><path d="M150.44 59.74c64.34 0 64.69 53.78 61.87 88.99 4.4-8.35 17.44-5.79 16.35 7.37-.98 12.67-19.73 19.13-19.22 17.73-9.49 26.04-35.52 45.67-59 45.67h-.34l-.15-159.76h.49z" fill="#824a50"/><path d="M149.59 74.92c-21.15 0-36.66 6.13-46 18.22-13.1 16.94-12.6 42.77-7.81 61.34 1.48 5.7 2.27 20.97 3.26 26.57 4.6 25.1 32.32 38.45 50.55 38.45h.5V74.92h-.3" fill="#824a50"/><path d="M195.55 93.19c-9.29-12.04-24.61-18.18-45.46-18.27V219.5c20.85-.24 45.8-14.88 50.05-38.45 1.04-5.6 1.78-20.87 3.26-26.57 4.85-18.52 5.34-44.3-7.85-61.29z" fill="#965559"/><path d="M132.12 75.28l-.26.26.04.09c.09-.13.14-.26.22-.35z" fill="#432e1b"/><path d="M103.93 131.35s4.91 20.13 13.34 21.78c8.42 1.64 17.54-1.63 17.54-1.63s.88-23.66-3.44-26.75c-4.31-3.11-14.25-7.59-27.44 6.6zm92.81-.69s-4.91 20.14-13.33 21.78c-8.43 1.65-17.55-1.62-17.55-1.62s-.87-23.66 3.44-26.76c4.32-3.1 14.25-7.59 27.44 6.6z" fill="#fff"/><path d="M75.98 150.55c3.16-5.11 8.1-2.9 9.29-1.77 1.28 1.23 2.32 2.8 1.53 5.8-.45 1.72-2.22 1.86-1.83 4.42.49 2.9 1.83 3.04 2.62 3.73.74.64 1.68 1.13 2.12 2.36.5 1.23.55 2.5.3 3.63-.49 2.06-3.51.39-5.53-.49-1.34-.64-5.59-4.22-6.67-5.4-2.67-3.05-3.96-8.94-1.83-12.28zm148.58 0c-3.16-5.11-8.05-2.9-9.29-1.77-1.28 1.23-2.27 2.8-1.53 5.8.45 1.72 2.23 1.86 1.83 4.42-.49 2.9-1.83 3.04-2.57 3.73-.74.64-1.73 1.13-2.17 2.36-.45 1.23-.55 2.5-.3 3.63.49 2.06 3.51.39 5.53-.49 1.39-.64 5.59-4.22 6.68-5.4 2.71-3.05 3.95-8.94 1.82-12.28zm-89.73.89s-.2.06-.63.24c-.11-7.26-.78-17.23-3.47-19.14-4.01-2.93-13.06-7.06-25.14 4.23-1.1-3.12-1.65-5.48-1.65-5.48 13.21-14.22 23.16-9.74 27.44-6.64 4.32 3.11 3.45 26.79 3.45 26.79z" fill="#563137"/><path d="M129.84 141.19c0 4.58-3.72 8.29-8.3 8.29s-8.29-3.71-8.29-8.29c0-4.58 3.71-8.29 8.29-8.29 4.58 0 8.3 3.71 8.3 8.29z" fill="#482315"/><path d="M121.16 146.71c-2.4-.2-4.24-2.61-4.02-5.27.22-2.66 2.42-4.74 4.82-4.53 2.4.19 4.23 2.61 4.02 5.26-.22 2.66-2.43 4.74-4.82 4.54z" fill="#7e3a22"/><path d="M121.36 145.75c-1.66-.14-3.39-1.97-3.21-4.22.19-2.26 2.19-3.78 3.86-3.65 1.66.14 3.39 1.98 3.21 4.23-.19 2.26-2.19 3.78-3.86 3.64z" fill="#211a10"/><path d="M165.85 150.76s.19.05.63.23c.1-7.25.78-17.22 3.47-19.13 4.01-2.94 13.05-7.06 25.14 4.23 1.1-3.12 1.65-5.49 1.65-5.49-13.22-14.22-23.16-9.74-27.44-6.63-4.32 3.1-3.45 26.79-3.45 26.79z" fill="#563137"/><path d="M170.84 140.5c0 4.58 3.71 8.3 8.29 8.3 4.58 0 8.3-3.72 8.3-8.3s-3.72-8.29-8.3-8.29-8.29 3.71-8.29 8.29z" fill="#482315"/><path d="M179.52 146.03c2.39-.2 4.23-2.62 4.01-5.27-.21-2.66-2.42-4.74-4.81-4.54-2.4.2-4.24 2.61-4.02 5.27.21 2.66 2.42 4.74 4.82 4.54z" fill="#7e3a22"/><path d="M179.31 145.07c1.67-.14 3.4-1.97 3.21-4.22-.18-2.26-2.18-3.79-3.85-3.65-1.67.14-3.39 1.98-3.21 4.23.18 2.25 2.19 3.78 3.85 3.64z" fill="#211a10"/><path d="M139.87 131.03c-.06-.1-1.59-2.42-4.71-4.82-1.96-1.5-3.88-2.65-5.87-3.5a30.052 30.052 0 0 0-7.56-2.08c-2.28-.25-4.81-.19-7.76.21-2.26.43-4.46 1.1-6.32 1.92-1.33.46-2.38 1.11-3.23 1.62-.32.2-.62.38-.91.54l-4.03 2.53 4.64-1.09c.22-.05.45-.11.7-.18.96-.26 2.16-.57 3.56-.78.32-.05.66-.11 1-.18.58-.12 1.18-.24 1.82-.27.7-.04 1.43-.1 2.18-.15l.97-.07c2.57-.03 4.74.16 6.67.61 2.11.36 4.27 1.04 6.26 1.96 1.87.9 3.67 1.79 5.07 2.82 2.84 1.89 4.41 3.47 4.43 3.48.39.39.91.6 1.43.6.38 0 .76-.11 1.1-.33.93-.61 1.19-1.87.6-2.78l-.04-.06zm57.7-6.13c-.26-.14-.56-.32-.88-.52-.85-.52-1.9-1.16-3.19-1.6-1.9-.84-4.1-1.51-6.38-1.94-2.93-.4-5.46-.46-7.76-.21-2.51.34-5.12 1.06-7.54 2.08-1.96.84-3.94 2.02-5.87 3.5-3.07 2.35-4.59 4.64-4.71 4.81l-.03.04c-.51.8-.4 1.87.27 2.54.38.39.89.6 1.42.6h.01c.54 0 1.04-.22 1.42-.6l.02-.02c.15-.14 1.68-1.64 4.43-3.48 1.38-1.01 3.18-1.9 5.05-2.8 1.99-.92 4.16-1.6 6.29-1.97 1.9-.44 4.07-.63 6.61-.6l1.02.07c.74.06 1.47.11 2.17.15.63.03 1.23.15 1.81.27.34.07.68.13 1 .18 1.4.21 2.6.52 3.56.78.25.07.48.13.71.18l4.63 1.09-4.06-2.55z" fill="#030405"/><path d="M120.01 140.2c-.07.81-.9 1.41-1.86 1.33-.96-.08-1.68-.81-1.62-1.62.07-.82.9-1.42 1.86-1.34.96.08 1.69.81 1.62 1.63zm5.38 4.71c-.03.4-.45.7-.93.66-.48-.04-.84-.4-.81-.81.04-.4.45-.7.93-.66.48.03.85.4.81.81zm55.27-5.4c.07.82.91 1.41 1.86 1.33.96-.08 1.69-.81 1.62-1.62-.07-.82-.9-1.41-1.86-1.33-.96.08-1.68.8-1.62 1.62zm-5.38 4.71c.04.41.46.71.93.67.49-.04.85-.41.82-.81-.04-.41-.46-.71-.93-.67-.49.04-.85.4-.82.81z" fill="#fff"/><path d="M204.3 256.75H97.52c4.18-7.72 9.26-12.82 13.97-16.15 2.41-1.69 4.72-2.95 6.73-3.87 1.54-.7 2.92-1.19 4.05-1.54 1.32-.4 2.31-.6 2.88-.73 4.98 6.28 13.95 14.98 25.64 14.9 7.69-.06 16.58-3.93 26.23-14.79 1.01.18 2.72.62 4.86 1.46.62.25 1.27.51 1.95.82 1.81.82 3.83 1.94 5.93 3.36 4.85 3.33 10.18 8.51 14.54 16.54z" fill="#3288b6"/><path d="M96.92 299.44h108.65c-.25-3.92-.51-10.31-.55-18.73H97.49c-.05 8.42-.31 14.81-.57 18.73z" fill="#c83c31"/><path d="M210.17 271.97h-5.1c-.05 2.04-.05 3.99-.05 5.85v2.9H97.5v-2.9c0-1.86-.02-3.81-.04-5.85h-5.8c.66-2.57 1.4-4.96 2.22-7.18 1.09-2.96 2.31-5.64 3.64-8.04H204.3a58.95 58.95 0 0 1 3.65 8.04 73.46 73.46 0 0 1 2.22 7.18z" fill="#75bcdb"/><path d="M137.51 174.91c-.25-5.14 9.43-1.88 12.62-1.72 2.52.13 10.19-1.62 10.85-1.17 4.51 3.05-4.78 9.17-11.01 9.17-1.66 0-12.31-3.19-12.46-6.28z" fill="#563137"/><path d="M144.04 198.82zm4 1.76h.01-.01z" fill="#be927b"/><path d="M210.43 158.71c1.3 0-.09-6.97 4.25-11.78 4.34-4.8 10.96-20.98 10.96-37.13 0-16.16-5.66-30.53-20.43-45.81-14.76-15.28-36.48-22.69-36.48-22.69l9.99 9.16s-5.38-7.44-24.72-13.4c-15.26-4.68-25.14.55-25.14.55s10.06-.36 13.11 4.04c.77 1.12 3.59 2.82 3.59 2.82s-4.67-10.55-26.4-1.8C97.45 51.4 97.84 67.05 82.73 71.85c-15.46 4.93-19.94-1.39-19.94-1.39s6.71 11.06 18.62 11.09c2.29 0 2.14-.05 2.14-.05s-4.47 11.86-5.32 20.72c-.88 9.03 1.85 15.21 2.69 32.11.72 14.45 4.64 7.04 9.32 17.69 1.57 3.57 1.64 7.59 1.64 7.59 1.73.42 6.27-8.67 3.01-24.47-2.12-10.25 8.37-49.11 33.69-41.54 15.49 4.64 19.39 14.08 30.97 5.69 9.99-7.22 23.95-11.38 34.37-5.67 10.43 5.73 16.3 18.58 14.48 39.09-2.32 26.19 2.03 26 2.03 26z" fill="#101111"/><path d="M138.1 199.86c-.24-3.24 9.02.68 12.06.77 2.42.08 9.71-.48 10.38-.74 5.1-1.9-.27 5.42-10.53 5.8-4.7.19-11.77-3.87-11.91-5.83z" fill="#965559"/><path d="M168.25 193.62c-2.52-.13-5.1 1.97-8.12 1.65-.12-.06-.19-.06-.32-.06-.69-.12-1.38 0-2.13.18-.94.2-1.89.58-2.78.89-1.51.49-3.21.88-4.96.75v.01l-.1-.01-.1.01v-.01c-1.75.13-3.45-.26-4.96-.75-.89-.31-1.83-.69-2.78-.89-.75-.18-1.44-.3-2.13-.18-.13 0-.19 0-.32.06-3.02.32-5.6-1.78-8.12-1.65-.69.06-1.7-.13-2.26-.13.12.07.25.13.38.19 7.16 3.49 13.35 10.04 20.19 9.83h.2c6.85.21 13.03-6.34 20.19-9.83.13-.06.26-.12.39-.19-.57 0-1.58.19-2.27.13z" fill="#824a50"/><path d="M170.35 193.42s-7.28-2.81-12.47-1.16c0 0-1.92.75-3.92 1.21-1.22.47-2.69.61-4.12.55-1.09-.04-2.13-.18-2.98-.33-.28-.04-.56-.1-.85-.16a6.72 6.72 0 0 0-.33-.07c-.17-.04-.34-.07-.51-.12-.19-.04-.3-.07-.3-.07l.01-.01c-1.66-.45-3.08-1-3.08-1-5.19-1.65-12.47 1.16-12.47 1.16-.1.04-.16.07-.16.07.56 0 1.57.19 2.26.13 2.04-.1 4.12 1.23 6.43 1.58.93.26 4.41 1.18 8.88 1.6.97.19 1.97.31 3 .23v.01l.1-.01.1.01v-.01c.54.04 1.07.02 1.6-.03 3.38-.04 6.98-.51 10.29-1.78l-.02-.02c2.32-.35 4.4-1.68 6.44-1.58.69.06 1.7-.13 2.27-.13 0 0-.07-.03-.17-.07z" fill="#563137"/><path fill="#75bcdb" d="M117.12 251.59h7.4V284h-7.4zm63.41 0h7.39V284h-7.39z"/></g></svg>