<svg viewBox="0 0 298 301" xmlns="http://www.w3.org/2000/svg" fill-rule="evenodd" clip-rule="evenodd" stroke-linejoin="round" stroke-miterlimit="1.414"><path fill="#5e3939" fill-rule="nonzero" d="M.17.365h296.87V300.07H.17z"/><path d="M113.38 185.972c-1.26-1.014-24.32-16.289-24.32-16.289 1.58 9.506 2.76 13.402.45 19.853-2.09 5.807-6.08 8.055-8.29 10.087-2.22 2.042-6.71 3.569-8.27 3.569-1.6 0-3.38-.306-3.38-.306s3.66 2.173 12.85 1.741c3.86-.18 6.31-1.217 7.9-2.414-1.82 3.149-3.52 7.664-1.6 11.85 6.93 15.211-2.32 20.177-2.32 20.177s8.2-.878 12.9-5.329c.03.107.01.265.04.363 2.09 7.61 7.6 8.458 7.6 8.458s-3.48-.624-2.82-7.692c.18-1.882 2-2.624 4.27-3.898.88 6.83 3.75 13.792-2.18 16.637 0 0 10.02-2.139 11.86-8.539.33-1.17.51-2.256.68-3.345.16.603.37 1.159.48 1.794 1.42 8.151-4.34 16.06-4.34 16.06s20.81-2.376 20.97-11.246c.02-1.329.28-6.762.91-8.792.63-2.041 1.9-12.215 1.9-12.215s-24.02-29.506-25.29-30.524zm81.41 0c1.28-1.014 24.34-16.289 24.34-16.289-1.58 9.506-2.77 13.402-.45 19.853 2.09 5.807 6.07 8.055 8.29 10.087 2.21 2.042 6.7 3.569 8.28 3.569 1.59 0 3.37-.306 3.37-.306s-3.67 2.173-12.85 1.741c-3.86-.18-6.32-1.217-7.9-2.414 1.81 3.149 3.52 7.664 1.6 11.85-6.94 15.211 2.32 20.177 2.32 20.177s-8.2-.878-12.91-5.329c-.02.107-.01.265-.04.363-2.09 7.61-7.59 8.458-7.59 8.458s3.48-.624 2.81-7.692c-.18-1.882-1.99-2.624-4.26-3.898-.89 6.83-3.76 13.792 2.18 16.637 0 0-10.03-2.139-11.87-8.539-.33-1.17-.5-2.256-.67-3.345-.17.603-.37 1.159-.48 1.794-1.42 8.151 4.34 16.06 4.34 16.06s-20.81-2.376-20.98-11.246c-.01-1.329-.27-6.762-.9-8.792-.64-2.041-1.9-12.215-1.9-12.215s24.01-29.506 25.27-30.524z" fill="#aa1f23" fill-rule="nonzero"/><path d="M153.81 187.8v112.27H93.08c-.99-.394-1.48-.594-1.48-.594 0-14.331 2.1-25.505 5.31-34.219 7.73-21.03 21.88-27.709 28.39-29.723 2.14-.661 3.46-.82 3.46-.82.23 0 .44-.021.66-.056 1.92-.308 3.47-1.969 4.71-4.619.93-1.968 1.71-4.479 2.34-7.386.25-1.132.44-2.275.64-3.51.3-2.077.59-4.25.84-6.525.1-1.384.25-2.717.4-4.152.54-6.868.69-14.388.69-21.507 0 0 8.15.841 14.77.841z" fill="#e0bd9a" fill-rule="nonzero"/><path d="M216.27 299.476s-.54.2-1.43.594h-61.03V187.8h.15c6.57 0 14.83-.841 14.83-.841 0 7.068.14 14.485.69 21.358.14 1.338.29 2.717.39 4.055.25 2.373.55 4.597.89 6.673v.046c.1.943.29 1.784.45 2.671.6 2.921 1.33 5.489 2.2 7.549 1.09 2.563 2.42 4.352 4.03 5.06.51.23 1.06.343 1.63.343 0 0 2.33.282 5.83 1.656 7.15 2.798 19.16 10.143 26.06 28.887 3.21 8.714 5.31 19.888 5.31 34.219z" fill="#efd0ad" fill-rule="nonzero"/><path d="M170.76 218.835v.05c-1.53 2.357-6.67 9.134-16.85 9.134h-.1c-9.63-.049-15.27-7.023-16.7-9.086.3-2.062.59-4.223.84-6.482.1-1.326.25-2.702.4-4.126a67.76 67.76 0 0 0 15.27 2.014h.19a65.555 65.555 0 0 0 15.67-2.161c.15 1.326.29 2.701.39 4.027.25 2.357.55 4.568.89 6.63z" fill="#be987f" fill-rule="nonzero"/><path d="M153.12 59.856c-64.33 0-64.68 53.779-61.81 88.993-4.4-8.349-17.5-5.795-16.41 7.367 1.04 12.672 19.75 19.129 19.22 17.73 9.74 26.043 35.53 45.675 59 45.675h.5V59.856h-.5z" fill="#d2a686" fill-rule="nonzero"/><path d="M79 150.666c3.16-5.108 8.1-2.897 9.29-1.768 1.29 1.228 2.32 2.8 1.53 5.796-.44 1.719-2.22 1.866-1.83 4.42.5 2.897 1.83 3.045 2.62 3.732.74.639 1.68 1.13 2.13 2.358.49 1.228.54 2.505.29 3.634-.49 2.063-3.5.393-5.53-.491-1.33-.638-5.58-4.224-6.67-5.402-2.67-3.045-3.95-8.939-1.83-12.279z" fill="#ac8774" fill-rule="nonzero"/><path d="M153.47 59.856c64.33 0 64.68 53.779 61.86 88.993 4.4-8.349 17.45-5.795 16.36 7.367-.99 12.672-19.74 19.133-19.22 17.73-9.49 26.043-35.53 45.675-59 45.675h-.35l-.15-159.765h.5z" fill="#ddb598" fill-rule="nonzero"/><path d="M227.59 150.666c-3.17-5.108-8.06-2.897-9.29-1.768-1.29 1.228-2.28 2.8-1.53 5.796.44 1.719 2.22 1.866 1.82 4.42-.49 2.897-1.82 3.045-2.57 3.732-.74.639-1.73 1.13-2.17 2.358-.44 1.228-.54 2.505-.3 3.634.5 2.063 3.51.393 5.54-.491 1.38-.638 5.58-4.224 6.67-5.402 2.72-3.045 3.95-8.939 1.83-12.279z" fill="#ac8774" fill-rule="nonzero"/><path d="M152.61 75.032c-21.14 0-36.66 6.139-46 18.221-13.09 16.944-12.6 42.778-7.81 61.342 1.49 5.698 2.28 20.972 3.27 26.571 4.59 25.097 32.31 38.455 50.54 38.455h.5V75.032h-.5z" fill="#e0bd9a" fill-rule="nonzero"/><path d="M198.57 93.302c-9.29-12.033-24.61-18.172-45.46-18.27v144.589c20.85-.245 45.81-14.881 50.05-38.455 1.04-5.599 1.78-20.873 3.27-26.571 4.84-18.516 5.33-44.3-7.86-61.293z" fill="#efd0ad" fill-rule="nonzero"/><path d="M149.73 193.99c-.1-.022-.2-.041-.3-.065.1.023.19.041.3.065zm-.78-.175c-.09-.024-.18-.051-.27-.076l-.01.004s.1.029.28.072z" fill="#bc917b" fill-rule="nonzero"/><path d="M135.15 75.393l-.27.267.04.089c.09-.133.14-.267.23-.356z" fill="#432e1b" fill-rule="nonzero"/><path d="M149.91 191.057c-.1-.022-.21-.043-.31-.066l.31.066zm-.81-.18l-.27-.078-.01.005s.1.029.28.073z" fill="#ba907b" fill-rule="nonzero"/><path d="M140.54 173.721c-.25-5.132 9.42-1.875 12.61-1.714 2.52.128 10.19-1.618 10.85-1.168 4.52 3.042-4.78 9.17-11.01 9.17-1.66 0-12.3-3.193-12.45-6.288z" fill="#dcb497" fill-rule="nonzero"/><path d="M106.96 131.466s4.9 20.135 13.33 21.778c8.43 1.643 17.55-1.623 17.55-1.623s.87-23.664-3.45-26.755c-4.31-3.106-14.24-7.594-27.43 6.6z" fill="#fff" fill-rule="nonzero"/><path d="M137.85 151.559s-.19.055-.63.236c-.11-7.258-.78-17.227-3.47-19.137-4.01-2.933-13.05-7.062-25.14 4.229-1.1-3.119-1.65-5.484-1.65-5.484 13.21-14.22 23.16-9.74 27.44-6.633 4.32 3.105 3.45 26.789 3.45 26.789z" fill="#d6b496" fill-rule="nonzero"/><path d="M132.86 141.306a8.29 8.29 0 0 1-8.29 8.293c-4.58 0-8.3-3.713-8.3-8.293 0-4.581 3.72-8.294 8.3-8.294a8.29 8.29 0 0 1 8.29 8.294z" fill="#482315" fill-rule="nonzero"/><path d="M124.18 146.829c-2.39-.198-4.23-2.615-4.02-5.273.22-2.656 2.43-4.735 4.82-4.534 2.4.196 4.24 2.611 4.02 5.268-.22 2.657-2.43 4.74-4.82 4.539z" fill="#7e3a22" fill-rule="nonzero"/><path d="M124.39 145.87c-1.67-.141-3.4-1.97-3.22-4.223.19-2.26 2.19-3.786 3.86-3.648 1.67.141 3.39 1.978 3.21 4.231-.18 2.256-2.19 3.778-3.85 3.64z" fill="#211a10" fill-rule="nonzero"/><path d="M123.04 140.313c-.07.814-.91 1.409-1.87 1.33-.96-.081-1.68-.809-1.61-1.619.07-.818.9-1.413 1.86-1.334.96.077 1.68.805 1.62 1.623zm5.37 4.71c-.03.405-.45.704-.93.663-.48-.037-.84-.404-.81-.809.04-.405.46-.704.93-.664.48.038.85.401.81.81z" fill="#fff" fill-rule="nonzero"/><path d="M150.04 193.432c-.1-.022-.21-.043-.31-.067.1.023.19.042.31.067zm-.8-.18c-.1-.025-.19-.052-.28-.078l-.01.004s.11.03.29.074z" fill="#ba907b" fill-rule="nonzero"/><path d="M149.67 192.863c-.12-.024-.23-.045-.34-.071.11.024.21.045.34.071zm-.87-.193c-.1-.026-.19-.056-.3-.083l-.01.005.31.078zm4.54 2.309h.01-.01zm-3.92-2.958c-.11-.024-.23-.045-.34-.071.11.024.21.044.34.071zm-.87-.193c-.1-.026-.19-.055-.29-.083l-.01.004s.11.032.3.079zm4.79-.018h.01-.01zm-3.15.096c-.11-.023-.22-.044-.33-.069.11.024.2.043.33.069zm-.84-.187c-.1-.025-.19-.053-.28-.08l-.02.005.3.075z" fill="#bc917b" fill-rule="nonzero"/><path d="M199.77 130.781s-4.91 20.135-13.34 21.778c-8.42 1.643-17.54-1.623-17.54-1.623s-.88-23.664 3.44-26.756c4.31-3.105 14.25-7.593 27.44 6.601z" fill="#fff" fill-rule="nonzero"/><path d="M168.87 150.873s.2.057.63.237c.11-7.258.78-17.227 3.47-19.137 4.01-2.933 13.06-7.062 25.14 4.229 1.1-3.119 1.65-5.484 1.65-5.484-13.21-14.22-23.16-9.74-27.44-6.633-4.32 3.105-3.45 26.788-3.45 26.788z" fill="#d6b496" fill-rule="nonzero"/><path d="M173.86 140.62c0 4.581 3.72 8.294 8.3 8.294a8.29 8.29 0 0 0 8.29-8.294c0-4.58-3.71-8.294-8.29-8.294-4.58 0-8.3 3.714-8.3 8.294z" fill="#482315" fill-rule="nonzero"/><path d="M182.54 146.144c2.4-.198 4.24-2.615 4.02-5.273-.22-2.656-2.42-4.736-4.82-4.534-2.4.196-4.23 2.611-4.02 5.267.22 2.658 2.43 4.74 4.82 4.54z" fill="#7e3a22" fill-rule="nonzero"/><path d="M182.34 145.185c1.66-.142 3.39-1.97 3.21-4.223-.19-2.26-2.19-3.786-3.86-3.648-1.67.141-3.39 1.978-3.21 4.231.19 2.255 2.19 3.778 3.86 3.64z" fill="#211a10" fill-rule="nonzero"/><path d="M183.69 139.628c.07.814.9 1.409 1.86 1.331.96-.082 1.68-.81 1.62-1.62-.07-.818-.9-1.413-1.86-1.335-.97.078-1.69.806-1.62 1.624zm-5.38 4.71c.03.405.45.704.93.663.48-.037.84-.404.81-.81-.04-.404-.45-.704-.93-.663-.48.037-.85.401-.81.81z" fill="#fff" fill-rule="nonzero"/><path d="M142.9 131.145c-.06-.099-1.59-2.423-4.72-4.82-1.96-1.503-3.88-2.646-5.87-3.497a30.398 30.398 0 0 0-7.55-2.082c-2.29-.254-4.82-.187-7.77.211-2.25.429-4.45 1.099-6.32 1.923-1.33.458-2.38 1.101-3.23 1.619-.32.199-.61.378-.91.538l-4.02 2.531 4.63-1.09c.22-.055.45-.116.71-.182.96-.255 2.15-.572 3.55-.777.33-.048.66-.114 1-.183.58-.115 1.19-.236 1.82-.266.7-.046 1.43-.099 2.18-.152l.98-.071c2.56-.032 4.73.162 6.66.607 2.11.363 4.27 1.043 6.26 1.963 1.88.898 3.67 1.787 5.08 2.817 2.83 1.891 4.41 3.468 4.42 3.484a2.017 2.017 0 0 0 2.53.267c.94-.612 1.2-1.871.6-2.779l-.03-.061zm57.7-6.127c-.27-.141-.56-.321-.89-.519-.84-.518-1.89-1.161-3.18-1.604-1.91-.839-4.11-1.509-6.39-1.943-2.93-.393-5.46-.46-7.75-.205-2.52.344-5.12 1.063-7.55 2.081-1.96.84-3.93 2.017-5.86 3.497-3.07 2.353-4.6 4.637-4.71 4.813l-.03.041a2.04 2.04 0 0 0 .26 2.539c.38.384.89.596 1.43.596a2.006 2.006 0 0 0 1.43-.597l.01-.017c.15-.148 1.68-1.644 4.43-3.48 1.38-1.014 3.18-1.905 5.05-2.8a25.495 25.495 0 0 1 6.29-1.972c1.9-.439 4.08-.629 6.61-.602l1.02.073c.75.053 1.47.105 2.18.152.62.029 1.22.15 1.81.265.34.069.67.135 1 .183 1.4.205 2.59.522 3.55.777.25.066.49.128.71.183l4.64 1.09-4.06-2.551z" fill="#030405" fill-rule="nonzero"/><path d="M202.26 293.622c.06 1.852.08 3.766.08 5.741 0 0-.37.185-1.13.699H106.8c-.76-.514-1.15-.699-1.15-.699 0-1.975.02-3.889.08-5.741.04-1.954.12-3.847.22-5.699.17-3.209.44-6.275.74-9.176.21-1.975.46-3.868.75-5.699.41-2.757.9-5.349 1.44-7.797H96.9c.19-.474.35-.947.54-1.399.8-2.037 1.66-3.93 2.57-5.7 7.98-15.492 19.58-20.841 25.28-22.611 0 .206-.02.412-.02.617 0 9.629 12.66 17.468 28.54 17.88.43.02.86.02 1.32.02 16.31 0 29.58-7.9 29.77-17.694 6.17 2.407 15.96 8.209 22.96 21.788.9 1.77 1.77 3.663 2.57 5.7.19.452.37.925.53 1.399h-11.85c.54 2.427 1.03 5.04 1.44 7.797.29 1.811.54 3.724.74 5.699.31 2.901.58 5.946.75 9.176.1 1.852.18 3.745.22 5.699z" fill="#5c4c52" fill-rule="nonzero"/><path d="M147.07 200.459a8.288 8.288 0 0 1-.31-.066c.1.023.19.041.31.066zm-.8-.179c-.1-.024-.19-.051-.28-.077l-.01.004s.11.029.29.073zm.57-.601zm-.8-.179c-.1-.025-.19-.052-.28-.077l-.01.004s.11.029.29.073zm1.51.072c-.1-.021-.2-.041-.3-.064l.3.064zm-.77-.173c-.1-.023-.18-.05-.27-.074l-.01.004s.1.028.28.07z" fill="#be927b" fill-rule="nonzero"/><path d="M140.81 201.968c-.24-3.199 8.91.671 11.92.763 2.4.081 9.6-.474 10.27-.728 5.03-1.883-.28 5.349-10.42 5.73-4.65.185-11.63-3.824-11.77-5.765z" fill="#f0d2ad" fill-rule="nonzero"/><path d="M170.98 194.283c-5.81-1.086-18.03.073-18.03.073-10.09 1.675-17.98-.107-18.03-.038-.24.024 8.05 11.023 17.89 10.516 9.84.507 18.41-10.516 18.17-10.551z" fill="#c2646e" fill-rule="nonzero"/><path d="M158.78 191.961c-2.62-.289-4.48 1.597-5.82 1.459-1.37.127-3.14-1.083-5.77-1.109-3.7-.036-5.51-.361-12.27 2.007.24.462 4.57 2.972 12.69 3.11.12 0 2.3 1.236 5.39 1.214 1.94-.012 4.6-1.306 4.71-1.306 8.13-.127 13.1-2.544 13.33-2.994-8.95-2.773-8.24-2.417-12.26-2.381z" fill="#d87475" fill-rule="nonzero"/><path d="M202.26 293.622h-96.53c.04-1.954.12-3.847.22-5.699h96.09c.1 1.852.18 3.745.22 5.699zm-.97-14.875h-94.6c.21-1.975.46-3.868.75-5.699h93.11c.29 1.811.54 3.724.74 5.699zm9.14-14.895H97.44c.8-2.037 1.66-3.93 2.57-5.7h107.85c.9 1.77 1.77 3.663 2.57 5.7z" fill="#f0f0f0" fill-rule="nonzero"/><path d="M221.41 95.022a121.004 121.004 0 0 0-2.72-8.257c.01.009.2.043 2.06.043 11.51-.023 18-10.585 18-10.585s-4.34 6.027-19.28 1.328c-14.59-4.582-14.22-19.511-35.2-27.841-10.74-4.266-17.15-3.71-20.87-2.153 3.77-2.935 11.5-2.674 11.5-2.674s-9.55-4.989-24.3-.515c-10.36 3.148-16.56 6.73-20.05 9.298l5.82-5.263s-4.12 1.389-9.95 4.21c3.96-7.306 11.3-15.311 11.3-15.311-18.69 6.611-34.17 30.397-34.17 30.397 1.49-8.97 4.76-17.175 4.76-17.175-31.9 22.539-26.94 63.237-26.94 63.237 0 15.404 6.39 30.847 10.59 35.436 4.2 4.584 2.85 11.237 4.11 11.237 0 0 2.52.086 2.61-11.534.12-1.481.38-3.3.94-4.891 0 0 3.89-64.947 50.9-46.055 0 0 19.04 7.792 33.86 9.022 11.02.915 20.08 8.837 22.46 19.186 1.13 4.923 1.41 9.26.88 11.782-3.14 15.07 1.24 23.747 2.92 23.341 0 0 .06-3.828 1.58-7.239 4.52-10.159 8.31-3.1 9.01-16.875.56-11.058 1.97-17.307 2.53-22.921 3.58 2.713 8.93 4.635 16.91 4.794 0 0-11.29-3.323-19.26-24.022z" fill="#c92026" fill-rule="nonzero"/><path d="M207.7 152.087c-.12.81-.22 1.282-.22 1.282-.69 3.221-4.01 4.904-5.47 5.499-.37.146-.74.265-1.12.357-13 3.003-23.47 1.293-28.78-.084a10.952 10.952 0 0 1-6.48-4.717 27.965 27.965 0 0 1-2.42-4.746c-2.48-6.181-2.31-11.633-2.31-11.633-.13-6.284 9.94-6.931 11.46-6.995.14-.004.29-.015.43-.031 12.82-1.29 21.34-.881 26.54-.21 5.28.682 9.25 5.173 9.3 10.498.03 4.198-.59 8.649-.93 10.78zm-62.54-1.293a27.902 27.902 0 0 1-2.78 4.848 8.566 8.566 0 0 1-4.59 3.206c-4.89 1.405-15.99 3.614-30.01.337a5.193 5.193 0 0 1-.64-.194c-1.22-.457-5.04-2.139-5.79-5.622 0 0-.21-1.088-.45-2.77-.42-2.992-.93-7.875-.57-11.926.33-3.79 3.19-6.881 6.94-7.531 4.83-.833 13.95-1.619 28.84-.115.11.012.22.019.33.023 1.37.052 11.63.655 11.49 6.995 0 0 .19 6.119-2.77 12.749zm69.8-17.681a2.887 2.887 0 0 0-2.11-2.427c-17.55-4.646-37.15-3.087-41.16-2.698-.47.043-.93.126-1.39.242-3.94.995-7.3 1.694-9.99 2.178-3.97.715-8.02.712-11.98-.018a155.35 155.35 0 0 1-9.8-2.16 9.025 9.025 0 0 0-1.39-.242c-4.01-.389-23.61-1.948-41.16 2.698a2.887 2.887 0 0 0-2.11 2.427c-.21 1.667-.38 4.23.06 6.952.12.794.6 1.48 1.27 1.92 1.15.766 2.96 2.543 3.37 6.357 0 0 1.67 7.8 3.02 9.359 0 0 3.53 5.305 18.92 4.888 0 0 22.64 1.047 25.31-6.603l.69-1.984 3.23-8.247s1.06-3.956 4.22-4.849l.01-.002c.28-.085.58-.088.87-.008l.03.01c3.16.893 4.22 4.849 4.22 4.849l3.24 8.25c.26.651.46 1.32.69 1.981 2.66 7.65 25.3 6.603 25.3 6.603 15.39.417 18.92-4.888 18.92-4.888 1.36-1.559 3.02-9.359 3.02-9.359.41-3.814 2.22-5.591 3.38-6.357.66-.44 1.14-1.126 1.27-1.92.44-2.722.27-5.285.05-6.952z" fill="#36b44a" fill-rule="nonzero"/><path d="M145.16 150.794c-2.18-.903-4.61-1.676-7.25-2.292.04-4.133-.03-11.624-.95-17.155 1.83 1.36 2.83 2.359 2.84 2.371a2.017 2.017 0 0 0 2.53.267c.57-.372.89-.984.92-1.611 2.49.972 4.69 2.653 4.69 5.56 0 .037 0 .074-.01.111 0 0 .01.073.01.212 0 1.133-.14 6.632-2.78 12.537zm-44.26-.195c-.32-2.29-.7-5.69-.7-8.976.01-1.006.04-2.001.13-2.95.33-3.763 3.15-6.837 6.86-7.517-.07.082-.15.164-.23.247 0 0 .01.015.01.045 0 .006-.01.012-.01.018 0 0 2.31 9.501 6.49 15.983-4.69.626-8.95 1.713-12.55 3.15z" fill="url(#a)"/><path d="M137.13 148.325a62.926 62.926 0 0 0-6.77-1.087 8.29 8.29 0 0 0-5.79-14.226c-4.58 0-8.3 3.713-8.3 8.294 0 2.188.85 4.179 2.23 5.661-1.72.102-3.41.264-5.05.482-4.18-6.482-6.49-15.983-6.49-15.983 0-.006.01-.012.01-.018.08.339.63 2.57 1.64 5.439 3.95-3.684 7.56-5.726 10.79-6.704.38-.004.77-.006 1.16-.006 2.73 0 5.82.095 9.29.324 1.59.622 2.9 1.427 3.9 2.157 2.28 1.619 3.11 9.027 3.38 15.667z" fill="url(#b)"/><path d="M137.91 148.502c-.26-.06-.52-.12-.78-.177-.27-6.64-1.1-14.048-3.38-15.667-1-.73-2.31-1.535-3.9-2.157 1.96.13 4.05.302 6.26.526.11.012.22.019.33.023l.12.005c.14.099.27.197.4.292.92 5.531.99 13.022.95 17.155zm-29.3-11.615c-1.01-2.869-1.56-5.1-1.64-5.439 0-.03-.01-.045-.01-.045.08-.083.16-.165.23-.247l.08-.014c2.66-.459 6.62-.903 12.13-.959-3.23.978-6.84 3.02-10.79 6.704z" fill="url(#c)"/><path d="M130.36 147.238a71.63 71.63 0 0 0-7.57-.396c-1.45 0-2.88.043-4.29.125a8.285 8.285 0 0 1-2.23-5.661c0-4.581 3.72-8.294 8.3-8.294a8.29 8.29 0 0 1 5.79 14.226zm-10.17-5.951l-.03.269c-.21 2.658 1.63 5.075 4.02 5.273.11.009.21.013.32.013 1.06 0 2.07-.442 2.87-1.172a.903.903 0 0 0 .2.02c.44 0 .81-.287.84-.667a.65.65 0 0 0-.14-.465c.4-.666.67-1.439.73-2.268.22-2.657-1.62-5.072-4.02-5.268-.1-.009-.21-.014-.32-.014-1.29 0-2.5.65-3.34 1.676l-.07-.001c-.89 0-1.63.572-1.69 1.341-.04.494.21.958.63 1.263z" fill="url(#d)"/><path d="M124.5 146.842c-.11 0-.21-.004-.32-.013-2.39-.198-4.23-2.615-4.02-5.273l.03-.269c.27.195.61.325.98.356v.004c-.18 2.253 1.55 4.082 3.22 4.223.07.006.14.009.21.009.71 0 1.46-.285 2.09-.786.08.279.34.511.68.577-.8.73-1.81 1.172-2.87 1.172zm3.77-2.284a.91.91 0 0 0-.67-.345l-.07-.004a4.07 4.07 0 0 0 .71-1.979c.18-2.253-1.54-4.09-3.21-4.231a2.458 2.458 0 0 0-.21-.009c-.83 0-1.72.39-2.41 1.061a1.919 1.919 0 0 0-1.09-.367c.84-1.026 2.05-1.676 3.34-1.676.11 0 .22.005.32.014 2.4.196 4.24 2.611 4.02 5.268a5.134 5.134 0 0 1-.73 2.268z" fill="url(#e)"/><path d="M124.6 145.879c-.07 0-.14-.003-.21-.009-1.67-.141-3.4-1.97-3.22-4.223v-.004c.06.005.12.007.17.007.89 0 1.63-.572 1.7-1.337.04-.495-.21-.957-.63-1.262.69-.671 1.58-1.061 2.41-1.061.07 0 .14.003.21.009 1.67.141 3.39 1.978 3.21 4.231a4.07 4.07 0 0 1-.71 1.979h-.01c-.44 0-.81.288-.85.668 0 .074.01.146.02.216-.63.501-1.38.786-2.09.786z" fill="url(#f)"/><path d="M121.34 141.65a1.959 1.959 0 0 1-1.15-.363c-.42-.305-.67-.769-.63-1.263.06-.769.8-1.341 1.69-1.341a1.634 1.634 0 0 1 .17.007c.38.03.72.162.99.361.42.305.67.767.63 1.262-.07.765-.81 1.337-1.7 1.337z" fill="url(#g)"/><path d="M127.57 145.69a.903.903 0 0 1-.2-.02c-.34-.066-.6-.298-.68-.577a1.52 1.52 0 0 1-.02-.216c.04-.38.41-.668.85-.668h.01l.07.004a.91.91 0 0 1 .67.345c.1.134.16.295.14.465-.03.38-.4.667-.84.667z" fill="url(#h)"/><path d="M141.23 134.312c-.52 0-1.04-.202-1.43-.594-.01-.012-1.01-1.011-2.84-2.371-.13-.095-.26-.193-.4-.292.91.042 3.97.258 6.69 1.319a2.038 2.038 0 0 1-.92 1.611c-.33.219-.71.327-1.1.327z" fill="url(#i)"/><path d="M206.77 151.621c-3.82-1.849-8.64-3.26-14.04-4.054 4.28-6.114 6.76-15.675 7.01-16.697 3.71.626 6.72 3.136 8.09 6.463-.04.214-.07.418-.11.611-1.13 5.431-1.29 10.032-.95 13.677zm-43.56-1.943c-2.19-5.457-2.31-10.345-2.32-11.416 0-.142.01-.217.01-.217v-.11c-.01-2.298 1.37-3.83 3.17-4.852.1.233.25.449.43.635.38.384.89.596 1.43.596a2.006 2.006 0 0 0 1.43-.597l.01-.017c.1-.101.86-.842 2.22-1.892-.78 5.563-.82 12.615-.77 16.39-1.98.411-3.86.908-5.61 1.48z" fill="url(#j)"/><path d="M169.58 148.045c.25-6.741 1.06-14.42 3.39-16.072.51-.372 1.1-.764 1.77-1.14 5.24-.474 9.72-.656 13.52-.656.32 0 .64.001.96.004 2.73 1.137 5.7 3.042 8.89 6.021a60.146 60.146 0 0 0 1.62-5.335l.01.003c-.25 1.022-2.73 10.583-7.01 16.697a68.19 68.19 0 0 0-5.28-.561 8.288 8.288 0 0 0 3-6.386c0-4.58-3.71-8.294-8.29-8.294-4.58 0-8.3 3.714-8.3 8.294 0 2.599 1.2 4.919 3.07 6.44a65.19 65.19 0 0 0-7.35.985z" fill="url(#k)"/><path d="M168.82 148.198c-.05-3.775-.01-10.827.77-16.39.24-.186.5-.381.77-.584a24.6 24.6 0 0 1 2-.174c.14-.004.29-.015.43-.031.66-.067 1.31-.129 1.95-.186-.67.376-1.26.768-1.77 1.14-2.33 1.652-3.14 9.331-3.39 16.072-.26.05-.51.101-.76.153zm29.29-11.996c-3.19-2.979-6.16-4.884-8.89-6.021 4.24.035 7.57.3 10.11.628.13.017.26.036.4.058-.14.564-.68 2.676-1.62 5.335z" fill="url(#l)"/><path d="M176.93 147.06a8.286 8.286 0 0 1-3.07-6.44c0-4.58 3.72-8.294 8.3-8.294s8.29 3.714 8.29 8.294a8.288 8.288 0 0 1-3 6.386 72.59 72.59 0 0 0-10.52.054zm2.43-2.075c.79.73 1.8 1.172 2.86 1.172.11 0 .22-.004.32-.013 2.4-.198 4.24-2.615 4.02-5.273l-.03-.268c.42-.305.68-.769.64-1.264-.07-.769-.81-1.342-1.69-1.342l-.08.001c-.84-1.026-2.05-1.675-3.34-1.675-.11 0-.21.005-.32.014-2.4.196-4.23 2.611-4.02 5.267.07.83.33 1.603.73 2.269a.652.652 0 0 0-.14.465c.03.38.4.667.84.667a.987.987 0 0 0 .21-.02z" fill="url(#m)"/><path d="M182.22 146.157c-1.06 0-2.07-.442-2.86-1.172.33-.067.59-.297.67-.577.64.501 1.39.786 2.09.786.07 0 .15-.003.22-.009 1.66-.142 3.39-1.97 3.21-4.223v-.003c.37-.032.71-.162.98-.356l.03.268c.22 2.658-1.62 5.075-4.02 5.273-.1.009-.21.013-.32.013zm-3.77-2.284a5.264 5.264 0 0 1-.73-2.269c-.21-2.656 1.62-5.071 4.02-5.267.11-.009.21-.014.32-.014 1.29 0 2.5.649 3.34 1.675l-.09.006c-.38.031-.73.163-1 .362-.69-.671-1.58-1.061-2.41-1.061-.07 0-.14.003-.21.009-1.67.141-3.39 1.978-3.21 4.231.06.753.33 1.424.72 1.979l-.08.004a.948.948 0 0 0-.67.345z" fill="url(#n)"/><path d="M182.12 145.194c-.7 0-1.45-.285-2.09-.786.02-.07.02-.143.02-.217-.03-.379-.4-.667-.84-.667h-.01a3.981 3.981 0 0 1-.72-1.979c-.18-2.253 1.54-4.09 3.21-4.231.07-.006.14-.009.21-.009.83 0 1.72.39 2.41 1.061-.41.305-.66.767-.62 1.262.06.765.8 1.337 1.69 1.337.06 0 .11-.002.17-.006v.003c.18 2.253-1.55 4.081-3.21 4.223-.07.006-.15.009-.22.009z" fill="url(#o)"/><path d="M185.38 140.965c-.89 0-1.63-.572-1.69-1.337-.04-.495.21-.957.62-1.262.27-.199.62-.331 1-.362l.09-.006.08-.001c.88 0 1.62.573 1.69 1.342.04.495-.22.959-.64 1.264a1.978 1.978 0 0 1-1.15.362z" fill="url(#p)"/><path d="M179.15 145.005c-.44 0-.81-.287-.84-.667a.652.652 0 0 1 .14-.465.948.948 0 0 1 .67-.345l.08-.004h.01c.44 0 .81.288.84.667 0 .074 0 .147-.02.217-.08.28-.34.51-.67.577a.987.987 0 0 1-.21.02z" fill="url(#q)"/><path d="M165.93 134.314c-.54 0-1.05-.212-1.43-.596a2.134 2.134 0 0 1-.43-.635c2-1.128 4.52-1.633 6.29-1.859-.27.203-.53.398-.77.584-1.36 1.05-2.12 1.791-2.22 1.892l-.01.017c-.38.384-.89.596-1.43.597z" fill="url(#r)"/><path d="M207.7 152.087c-.3-.158-.61-.314-.93-.466-.34-3.645-.18-8.246.95-13.677.04-.193.07-.397.11-.611.5 1.231.79 2.574.8 3.974v.296c0 4.109-.59 8.403-.93 10.484z" fill="url(#s)"/><path d="M122.4 160.89c-4.32 0-9.26-.451-14.62-1.705a5.193 5.193 0 0 1-.64-.194c-1.22-.457-5.04-2.139-5.79-5.622 0 0-.21-1.088-.45-2.77 3.6-1.437 7.86-2.524 12.55-3.15 1.91 2.954 4.2 5.281 6.84 5.795 1.69.33 3.42.462 5.09.462 6.63.001 12.46-2.085 12.46-2.085v-.059l.01-.003s.04-1.184.06-3.057c2.64.616 5.07 1.389 7.25 2.292a27.902 27.902 0 0 1-2.78 4.848 8.566 8.566 0 0 1-4.59 3.206c-3.02.867-8.41 2.042-15.39 2.042z" fill="url(#t)"/><path d="M125.38 153.706c-1.67 0-3.4-.132-5.09-.462-2.64-.514-4.93-2.841-6.84-5.795 1.64-.218 3.33-.38 5.05-.482a8.287 8.287 0 0 0 6.07 2.632c2.25 0 4.3-.9 5.79-2.361 2.36.252 4.63.618 6.77 1.087.05 1.194.08 2.364.09 3.47.38-.157.57-.219.62-.233v.059s-5.83 2.086-12.46 2.085z" fill="url(#u)"/><path d="M137.22 151.795c-.01-1.106-.04-2.276-.09-3.47.26.057.52.117.78.177-.02 1.873-.06 3.057-.06 3.057l-.01.003c-.05.014-.24.076-.62.233z" fill="url(#v)"/><path d="M124.57 149.599c-2.4 0-4.55-1.012-6.07-2.632 1.41-.082 2.84-.125 4.29-.125 2.6 0 5.14.137 7.57.396a8.253 8.253 0 0 1-5.79 2.361z" fill="url(#w)"/><path d="M206.1 156.075c.1-.545.21-1.04.33-1.48.16-.618.31-1.245.47-1.879.07.587.16 1.146.26 1.676-.27.63-.64 1.19-1.06 1.683z" fill="url(#x)"/><path d="M186.43 160.89c-6.22 0-11.18-.933-14.32-1.749a10.952 10.952 0 0 1-6.48-4.717 27.965 27.965 0 0 1-2.42-4.746 52.361 52.361 0 0 1 5.61-1.48c.02 1.651.05 2.675.05 2.675s.01.001.01.003c0 .039.01.06.01.06s5.82 2.085 12.46 2.085c1.67 0 3.39-.132 5.08-.462 2.4-.466 4.51-2.426 6.3-4.992 5.4.794 10.22 2.205 14.04 4.054.04.375.08.74.13 1.095-.16.634-.31 1.261-.47 1.879-.12.44-.23.935-.33 1.48-1.3 1.509-3.11 2.394-4.09 2.793-.37.146-.74.265-1.12.357a64.223 64.223 0 0 1-14.46 1.665z" fill="url(#y)"/><path d="M181.35 153.021c-6.64 0-12.46-2.085-12.46-2.085s-.01-.021-.01-.06c.05.014.24.076.62.234.01-.981.04-2.012.08-3.065a65.19 65.19 0 0 1 7.35-.985 8.28 8.28 0 0 0 5.23 1.854c2.01 0 3.85-.717 5.29-1.908 1.81.122 3.57.311 5.28.561-1.79 2.566-3.9 4.526-6.3 4.992-1.69.33-3.41.462-5.08.462z" fill="url(#z)"/><path d="M169.5 151.11c-.38-.158-.57-.22-.62-.234 0-.002-.01-.003-.01-.003s-.03-1.024-.05-2.675c.25-.052.5-.103.76-.153a111.44 111.44 0 0 0-.08 3.065z" fill="url(#A)"/><path d="M182.16 148.914a8.28 8.28 0 0 1-5.23-1.854 72.59 72.59 0 0 1 10.52-.054 8.268 8.268 0 0 1-5.29 1.908z" fill="url(#B)"/><path d="M207.16 154.392c-.1-.53-.19-1.089-.26-1.676-.05-.355-.09-.72-.13-1.095.32.152.63.308.93.466-.12.81-.22 1.282-.22 1.282-.07.36-.18.7-.32 1.023z" fill="url(#C)"/><defs><linearGradient id="a" x2="1" gradientUnits="userSpaceOnUse" gradientTransform="translate(100.21 145.533) scale(47.7318)"><stop offset="0" stop-color="#e8cdb2"/><stop offset="1" stop-color="#baafa1"/></linearGradient><linearGradient id="b" x2="1" gradientUnits="userSpaceOnUse" gradientTransform="translate(100.21 145.533) scale(47.7318)"><stop offset="0" stop-color="#fff"/><stop offset="1" stop-color="#c8d7e6"/></linearGradient><linearGradient id="c" x2="1" gradientUnits="userSpaceOnUse" gradientTransform="translate(100.21 145.533) scale(47.7318)"><stop offset="0" stop-color="#e0c6ae"/><stop offset="1" stop-color="#b4a89f"/></linearGradient><linearGradient id="d" x2="1" gradientUnits="userSpaceOnUse" gradientTransform="translate(100.21 145.533) scale(47.7318)"><stop offset="0" stop-color="#6d4b3e"/><stop offset="1" stop-color="#543e39"/></linearGradient><linearGradient id="e" x2="1" gradientUnits="userSpaceOnUse" gradientTransform="translate(100.21 145.533) scale(47.7318)"><stop offset="0" stop-color="#996249"/><stop offset="1" stop-color="#7c5243"/></linearGradient><linearGradient id="f" x2="1" gradientUnits="userSpaceOnUse" gradientTransform="translate(100.21 145.533) scale(47.7318)"><stop offset="0" stop-color="#4c433d"/><stop offset="1" stop-color="#353837"/></linearGradient><linearGradient id="g" x2="1" gradientUnits="userSpaceOnUse" gradientTransform="translate(100.21 145.533) scale(47.7318)"><stop offset="0" stop-color="#fff"/><stop offset="1" stop-color="#c8d7e6"/></linearGradient><linearGradient id="h" x2="1" gradientUnits="userSpaceOnUse" gradientTransform="translate(100.21 145.533) scale(47.7318)"><stop offset="0" stop-color="#fff"/><stop offset="1" stop-color="#c8d7e6"/></linearGradient><linearGradient id="i" x2="1" gradientUnits="userSpaceOnUse" gradientTransform="translate(100.21 145.533) scale(47.7318)"><stop offset="0" stop-color="#393838"/><stop offset="1" stop-color="#222e32"/></linearGradient><linearGradient id="j" x2="1" gradientUnits="userSpaceOnUse" gradientTransform="translate(160.89 145.533) scale(47.7344)"><stop offset="0" stop-color="#f3dcc1"/><stop offset="1" stop-color="#c4bcaf"/></linearGradient><linearGradient id="k" x2="1" gradientUnits="userSpaceOnUse" gradientTransform="translate(160.89 145.533) scale(47.7344)"><stop offset="0" stop-color="#fff"/><stop offset="1" stop-color="#c8d7e6"/></linearGradient><linearGradient id="l" x2="1" gradientUnits="userSpaceOnUse" gradientTransform="translate(160.89 145.533) scale(47.7344)"><stop offset="0" stop-color="#e0c6ae"/><stop offset="1" stop-color="#b4a89f"/></linearGradient><linearGradient id="m" x2="1" gradientUnits="userSpaceOnUse" gradientTransform="translate(160.89 145.533) scale(47.7344)"><stop offset="0" stop-color="#6d4b3e"/><stop offset="1" stop-color="#543e39"/></linearGradient><linearGradient id="n" x2="1" gradientUnits="userSpaceOnUse" gradientTransform="translate(160.89 145.533) scale(47.7344)"><stop offset="0" stop-color="#996249"/><stop offset="1" stop-color="#7c5243"/></linearGradient><linearGradient id="o" x2="1" gradientUnits="userSpaceOnUse" gradientTransform="translate(160.89 145.533) scale(47.7344)"><stop offset="0" stop-color="#4c433d"/><stop offset="1" stop-color="#353837"/></linearGradient><linearGradient id="p" x2="1" gradientUnits="userSpaceOnUse" gradientTransform="translate(160.89 145.533) scale(47.7344)"><stop offset="0" stop-color="#fff"/><stop offset="1" stop-color="#c8d7e6"/></linearGradient><linearGradient id="q" x2="1" gradientUnits="userSpaceOnUse" gradientTransform="translate(160.89 145.533) scale(47.7344)"><stop offset="0" stop-color="#fff"/><stop offset="1" stop-color="#c8d7e6"/></linearGradient><linearGradient id="r" x2="1" gradientUnits="userSpaceOnUse" gradientTransform="translate(160.89 145.533) scale(47.7344)"><stop offset="0" stop-color="#393838"/><stop offset="1" stop-color="#222e32"/></linearGradient><linearGradient id="s" x2="1" gradientUnits="userSpaceOnUse" gradientTransform="translate(160.89 145.533) scale(47.7344)"><stop offset="0" stop-color="#d4624a"/><stop offset="1" stop-color="#b14e45"/></linearGradient><linearGradient id="t" x2="1" gradientUnits="userSpaceOnUse" gradientTransform="rotate(-95.389 138.016 26.562) scale(26.01168)"><stop offset="0" stop-color="#eed8c3"/><stop offset="1" stop-color="#9ca4a7"/></linearGradient><linearGradient id="u" x2="1" gradientUnits="userSpaceOnUse" gradientTransform="rotate(-95.389 138.016 26.562) scale(26.01168)"><stop offset="0" stop-color="#fff"/><stop offset="1" stop-color="#a4c0d5"/></linearGradient><linearGradient id="v" x2="1" gradientUnits="userSpaceOnUse" gradientTransform="rotate(-95.389 138.016 26.562) scale(26.01168)"><stop offset="0" stop-color="#e7d3c1"/><stop offset="1" stop-color="#97a0a4"/></linearGradient><linearGradient id="w" x2="1" gradientUnits="userSpaceOnUse" gradientTransform="rotate(-95.389 138.016 26.562) scale(26.01168)"><stop offset="0" stop-color="#8b6e62"/><stop offset="1" stop-color="#585253"/></linearGradient><linearGradient id="x" x2="1" gradientUnits="userSpaceOnUse" gradientTransform="rotate(-95.389 166.282 -4.498) scale(26.01168)"><stop offset="0" stop-color="#ebd4c3"/><stop offset="1" stop-color="#9ba1a5"/></linearGradient><linearGradient id="y" x2="1" gradientUnits="userSpaceOnUse" gradientTransform="rotate(-95.389 166.282 -4.498) scale(26.01168)"><stop offset="0" stop-color="#f7e5d0"/><stop offset="1" stop-color="#a1acb0"/></linearGradient><linearGradient id="z" x2="1" gradientUnits="userSpaceOnUse" gradientTransform="rotate(-95.389 166.282 -4.498) scale(26.01168)"><stop offset="0" stop-color="#fff"/><stop offset="1" stop-color="#a4c0d5"/></linearGradient><linearGradient id="A" x2="1" gradientUnits="userSpaceOnUse" gradientTransform="rotate(-95.389 166.282 -4.498) scale(26.01168)"><stop offset="0" stop-color="#e7d3c1"/><stop offset="1" stop-color="#97a0a4"/></linearGradient><linearGradient id="B" x2="1" gradientUnits="userSpaceOnUse" gradientTransform="rotate(-95.389 166.282 -4.498) scale(26.01168)"><stop offset="0" stop-color="#8b6e62"/><stop offset="1" stop-color="#585253"/></linearGradient><linearGradient id="C" x2="1" gradientUnits="userSpaceOnUse" gradientTransform="rotate(-95.389 166.282 -4.498) scale(26.01168)"><stop offset="0" stop-color="#df8970"/><stop offset="1" stop-color="#9c6460"/></linearGradient></defs></svg>