<svg viewBox="0 0 298 301" xmlns="http://www.w3.org/2000/svg" fill-rule="evenodd" clip-rule="evenodd" stroke-linejoin="round" stroke-miterlimit="1.414"><g fill-rule="nonzero"><path fill="#5ba6ac" d="M.442.16H297.31v299.705H.442z"/><path d="M149.18 187.244v112.621H88.455c-.989-.396-1.482-.596-1.482-.596 0-14.376 2.102-25.585 5.305-34.325 7.73-21.096 21.882-27.796 28.392-29.816 2.14-.664 3.46-.823 3.46-.823.23 0 .44-.021.67-.057 1.91-.308 3.46-1.974 4.71-4.633.92-1.974 1.7-4.493 2.33-7.409.25-1.136.44-2.282.64-3.521.3-2.083.59-4.263.84-6.546.1-1.388.25-2.725.4-4.164.54-6.89.69-14.433.69-21.575 0 0 8.159.844 14.77.844z" fill="#e0bd9a"/><path d="M211.64 299.269s-.54.2-1.43.596h-61.03V187.244h.149c6.571 0 14.831-.844 14.831-.844 0 7.091.14 14.531.69 21.425.15 1.342.29 2.725.39 4.067.25 2.381.55 4.613.89 6.695v.046c.1.946.3 1.789.45 2.679.6 2.931 1.33 5.507 2.2 7.573 1.09 2.571 2.42 4.366 4.03 5.075a3.91 3.91 0 0 0 1.63.345s2.33.283 5.83 1.66c7.15 2.808 19.16 10.176 26.06 28.979 3.21 8.74 5.31 19.949 5.31 34.325z" fill="#efd0ad"/><path d="M166.13 218.377v.049c-1.53 2.365-6.67 9.163-16.85 9.163h-.1c-9.63-.049-15.26-7.045-16.7-9.114.3-2.069.6-4.237.84-6.503.1-1.33.25-2.71.4-4.138a67.584 67.584 0 0 0 15.27 2.019h.19a65.285 65.285 0 0 0 15.67-2.167c.15 1.33.29 2.709.39 4.04.25 2.364.55 4.581.89 6.651z" fill="#be987f"/><path d="M148.49 58.901c-64.334 0-64.679 53.946-61.814 89.271-4.398-8.376-17.492-5.814-16.405 7.39 1.038 12.71 19.745 19.188 19.222 17.785 9.743 26.124 35.527 45.818 58.997 45.818h.5V58.901h-.5z" fill="#d2a686"/><path d="M74.373 149.994c3.162-5.123 8.103-2.906 9.289-1.773 1.285 1.231 2.322 2.808 1.532 5.813-.445 1.725-2.224 1.872-1.828 4.434.494 2.907 1.828 3.055 2.618 3.744.742.641 1.681 1.134 2.125 2.365a6.229 6.229 0 0 1 .297 3.646c-.495 2.069-3.509.394-5.534-.493-1.335-.64-5.584-4.237-6.671-5.419-2.669-3.054-3.953-8.966-1.828-12.317z" fill="#ac8774"/><path d="M148.839 58.901c64.331 0 64.681 53.946 61.861 89.271 4.4-8.376 17.45-5.814 16.36 7.39-.99 12.71-19.73 19.193-19.22 17.785-9.49 26.124-35.53 45.818-59.001 45.818h-.349l-.151-160.264h.5z" fill="#ddb598"/><path d="M222.96 149.994c-3.16-5.123-8.06-2.906-9.29-1.773-1.29 1.231-2.27 2.808-1.53 5.813.44 1.725 2.22 1.872 1.82 4.434-.49 2.907-1.82 3.055-2.56 3.744-.75.641-1.73 1.134-2.18 2.365-.44 1.232-.54 2.513-.3 3.646.5 2.069 3.51.394 5.54-.493 1.38-.64 5.58-4.237 6.67-5.419 2.72-3.054 3.95-8.966 1.83-12.317z" fill="#ac8774"/><path d="M147.99 74.124c-21.15 0-36.67 6.158-46.008 18.278-13.094 16.997-12.6 42.911-7.807 61.534 1.483 5.715 2.273 21.036 3.261 26.653 4.596 25.175 32.314 38.576 50.554 38.576h.49V74.124h-.3" fill="#e0bd9a"/><path d="M193.94 92.451c-9.29-12.07-24.61-18.228-45.46-18.327v145.041c20.85-.246 45.81-14.928 50.06-38.576 1.03-5.617 1.77-20.938 3.26-26.653 4.84-18.574 5.33-44.439-7.86-61.485z" fill="#efd0ad"/><path d="M145.11 193.453a8.387 8.387 0 0 1-.31-.064c.1.022.19.04.31.064zm-.791-.175c-.089-.024-.179-.051-.269-.076l-.01.004.279.072z" fill="#bc917b"/><path d="M136.199 175.838c-.24-5.012 9.181-1.831 12.291-1.675 2.449.126 9.92-1.579 10.56-1.14 4.4 2.972-4.65 8.957-10.721 8.957-1.609 0-11.979-3.119-12.13-6.142z" fill="#ddb598"/><path d="M130.52 74.486l-.27.268.05.09c.08-.135.13-.269.22-.358z" fill="#432e1b"/><path d="M145.28 190.511c-.1-.022-.211-.042-.31-.066.099.023.19.041.31.066zm-.81-.18l-.271-.078-.01.004s.101.029.281.074z" fill="#ba907b"/><path d="M102.327 130.734s4.908 20.198 13.333 21.847c8.43 1.647 17.55-1.629 17.55-1.629s.87-23.738-3.44-26.839c-4.32-3.115-14.25-7.617-27.443 6.621z" fill="#fff"/><path d="M133.22 150.89s-.19.056-.63.237c-.1-7.281-.78-17.281-3.47-19.197-4.01-2.942-13.05-7.084-25.137 4.243-1.099-3.13-1.65-5.502-1.65-5.502 13.217-14.265 23.157-9.771 27.437-6.653 4.32 3.114 3.45 26.872 3.45 26.872z" fill="#d6b496"/><path d="M128.23 140.604c0 4.595-3.71 8.32-8.29 8.32-4.58 0-8.3-3.725-8.3-8.32 0-4.594 3.72-8.319 8.3-8.319s8.29 3.725 8.29 8.319z" fill="#482315"/><path d="M119.55 146.145c-2.39-.199-4.23-2.623-4.01-5.289.21-2.665 2.42-4.75 4.82-4.549 2.39.198 4.23 2.62 4.01 5.285-.21 2.665-2.42 4.754-4.82 4.553z" fill="#7e3a22"/><path d="M119.76 145.184c-1.67-.143-3.4-1.978-3.21-4.237.18-2.267 2.18-3.797 3.85-3.66 1.67.142 3.39 1.985 3.21 4.245-.18 2.263-2.19 3.789-3.85 3.652z" fill="#211a10"/><path d="M118.41 139.608c-.07.817-.91 1.414-1.86 1.335-.96-.082-1.69-.812-1.62-1.624.07-.82.9-1.418 1.86-1.339.96.078 1.68.808 1.62 1.628zm5.38 4.725c-.04.407-.46.707-.93.666-.49-.038-.85-.406-.82-.812.04-.406.46-.707.93-.666.49.038.85.402.82.812z" fill="#fff"/><path d="M145.41 192.894c-.1-.023-.201-.043-.31-.067.099.023.19.042.31.067zm-.8-.181c-.1-.025-.19-.052-.281-.078l-.01.004s.111.03.291.074z" fill="#ba907b"/><path d="M145.04 192.323c-.12-.024-.23-.046-.341-.071.111.024.211.045.341.071zm-.87-.194c-.101-.026-.19-.055-.29-.083l-.02.005.31.078zm.62-.651l-.341-.071c.111.024.211.045.341.071zm-.87-.193c-.101-.027-.19-.056-.29-.084l-.01.005s.11.031.3.079zm5.43-2.486h.01-.01zm-3.79 2.564c-.111-.023-.221-.044-.32-.069.099.024.19.043.32.069zm-.84-.187c-.1-.026-.19-.054-.281-.081l-.009.005s.11.03.29.076zm4.63-.018h.01-.01z" fill="#bc917b"/><path d="M195.14 130.047s-4.91 20.198-13.34 21.847c-8.42 1.647-17.54-1.629-17.54-1.629s-.88-23.738 3.44-26.839c4.31-3.115 14.25-7.617 27.44 6.621z" fill="#fff"/><path d="M164.24 150.202s.2.056.63.238c.11-7.281.78-17.281 3.47-19.197 4.01-2.943 13.06-7.084 25.14 4.242 1.1-3.129 1.65-5.501 1.65-5.501-13.21-14.265-23.16-9.771-27.44-6.653-4.32 3.114-3.45 26.871-3.45 26.871z" fill="#d6b496"/><path d="M169.23 139.917c0 4.595 3.72 8.32 8.3 8.32s8.29-3.725 8.29-8.32c0-4.595-3.71-8.319-8.29-8.319-4.58 0-8.3 3.724-8.3 8.319z" fill="#482315"/><path d="M177.91 145.457c2.4-.198 4.24-2.622 4.02-5.288-.22-2.665-2.42-4.751-4.82-4.549-2.4.198-4.23 2.619-4.02 5.284.22 2.666 2.43 4.755 4.82 4.553z" fill="#7e3a22"/><path d="M177.71 144.496c1.66-.142 3.39-1.977 3.21-4.236-.19-2.267-2.19-3.797-3.86-3.66-1.66.142-3.39 1.985-3.21 4.245.19 2.262 2.19 3.789 3.86 3.651z" fill="#211a10"/><path d="M179.06 138.921c.07.817.9 1.414 1.86 1.335.96-.082 1.68-.812 1.62-1.624-.07-.821-.9-1.418-1.86-1.339-.96.078-1.69.808-1.62 1.628zm-5.38 4.725c.03.406.45.707.93.666.48-.038.84-.406.81-.812-.03-.406-.45-.707-.93-.666-.48.037-.84.402-.81.812z" fill="#fff"/><path d="M138.27 130.412c-.061-.099-1.59-2.431-4.72-4.835-1.96-1.507-3.88-2.654-5.87-3.508a30.327 30.327 0 0 0-7.55-2.088c-2.28-.255-4.82-.187-7.77.211-2.253.431-4.452 1.103-6.318 1.929-1.331.459-2.382 1.105-3.227 1.625-.323.199-.616.379-.913.539l-4.025 2.539 4.638-1.093c.217-.055.451-.117.702-.184.959-.255 2.154-.573 3.554-.779a19.92 19.92 0 0 0 1.002-.182c.583-.117 1.186-.238 1.819-.268.702-.047 1.428-.099 2.178-.153l.98-.07c2.57-.033 4.73.163 6.66.608 2.11.365 4.28 1.047 6.26 1.969 1.88.901 3.67 1.793 5.08 2.826 2.83 1.897 4.41 3.479 4.42 3.495.39.393.909.596 1.44.596.38 0 .76-.108 1.089-.328.941-.613 1.201-1.877.601-2.788l-.03-.061zm57.7-6.146c-.27-.141-.56-.322-.89-.521-.84-.519-1.89-1.165-3.18-1.609-1.91-.841-4.11-1.513-6.39-1.948-2.93-.395-5.46-.463-7.75-.206a30.519 30.519 0 0 0-7.55 2.087c-1.96.843-3.93 2.023-5.86 3.508-3.07 2.36-4.6 4.652-4.71 4.828l-.03.042c-.52.8-.41 1.871.26 2.546.38.386.89.597 1.43.597.54 0 1.05-.212 1.43-.598l.01-.017c.15-.148 1.68-1.649 4.43-3.49 1.38-1.018 3.18-1.912 5.05-2.81a25.51 25.51 0 0 1 6.29-1.978c1.9-.439 4.08-.631 6.61-.604l1.03.074c.74.053 1.46.104 2.17.152.62.029 1.22.15 1.81.267.34.068.67.134 1 .182 1.4.206 2.59.524 3.55.779.25.067.49.129.71.185l4.64 1.093-4.06-2.559z" fill="#030405"/><path d="M143.959 195.285c-.109-.024-.219-.045-.329-.07.11.024.199.044.329.07zm-.849-.189c-.1-.026-.19-.054-.291-.081l-.009.004.3.077z" fill="#be927b"/><path d="M136.589 199.452c-.239-3.247 9.021.68 12.061.774 2.419.082 9.71-.481 10.39-.739 5.09-1.911-.28 5.429-10.54 5.815-4.7.188-11.77-3.881-11.911-5.85z" fill="#f0d2ad"/><path d="M166.74 193.191c-2.52-.124-5.1 1.977-8.12 1.656-.12-.061-.181-.061-.31-.061-.7-.123-1.39 0-2.14.185-.94.197-1.89.58-2.77.889-1.52.493-3.22.888-4.97.752v.012l-.101-.012-.099.012v-.012c-1.75.136-3.45-.259-4.96-.752-.89-.309-1.831-.692-2.77-.889-.76-.185-1.45-.308-2.14-.185-.13 0-.19 0-.32.061-3.02.321-5.6-1.78-8.11-1.656-.7.061-1.71-.124-2.27-.124.12.062.25.124.38.185 7.159 3.504 13.35 10.068 20.19 9.858h.2c6.85.21 13.03-6.354 20.2-9.858.12-.061.25-.123.38-.185-.57 0-1.58.185-2.27.124z" fill="#dcbf9e"/><path d="M168.84 192.991s-7.28-2.815-12.46-1.164c0 0-1.931.755-3.931 1.215-1.219.475-2.689.613-4.12.555a22.86 22.86 0 0 1-2.979-.331c-.281-.044-.56-.101-.85-.163l-.33-.07c-.17-.041-.341-.074-.51-.119-.19-.046-.3-.077-.3-.077l.01-.004a33.516 33.516 0 0 1-3.08-1.006c-5.18-1.651-12.47 1.164-12.47 1.164-.1.045-.16.076-.16.076.56 0 1.57.185 2.27.124 2.51-.124 5.09 1.977 8.11 1.656.13-.061.19-.061.32-.061.69-.124 1.38 0 2.14.185.939.197 1.88.58 2.77.889 1.51.493 3.21.888 4.96.752v.012l.099-.012.101.012v-.012c1.75.136 3.45-.259 4.97-.752.88-.309 1.83-.692 2.77-.889.75-.185 1.44-.309 2.14-.185.129 0 .19 0 .31.061 3.02.321 5.6-1.78 8.12-1.656.69.061 1.7-.124 2.27-.124l-.17-.076z" fill="#c69f83"/><path d="M136.089 194.705c.141.034 13.661 4.164 24.231.09l-1.22-.822h-14.29l-8.721.732z" fill="#c69f83"/><path d="M94.228 252.171s-8.965 19.209-8.856 30.47h11.43c-.04 7.723-.28 13.599-.526 17.224h52.974l-52.382-50.973a51.26 51.26 0 0 0-2.64 3.279zm119.002 30.47c.41-17.226-8.72-30.47-8.72-30.47-3.1-4.267-6.48-7.5-9.83-9.966-.26-.26-.59-.475-.88-.694-4.41-3.185-8.62-4.987-11.72-6.004-.61-.219-1.17-.386-1.68-.56-2.26-.627-3.67-.755-3.67-.755-1.24 0-2.36-.475-3.33-1.283l-.05-.042c-.33-.307-.66-.67-.97-1.064-.14.087-.38.436-.61 1.106-.64 1.554-3.42 7.491-7.54 12.924l37.82 36.808h11.18z" fill="#975459"/><path d="M202.05 282.641l-37.82-36.808c-3.94 5.182-9.11 9.905-14.86 9.906-11.781.004-21.15-19.794-22.4-22.83-.23-.67-.47-1.019-.59-1.106-.33.394-.66.757-.99 1.064l-.05.042c-.97.808-2.07 1.283-3.34 1.283 0 0-1.47.17-3.87.84-.53.13-1.09.305-1.68.524a43.73 43.73 0 0 0-9.283 4.477c-.763.487-1.532.999-2.31 1.565-.28.175-.605.388-.885.672-2.386 1.765-4.784 3.957-7.104 6.622l52.382 50.973h53.24c-.25-3.617-.53-9.503-.57-17.224h.13z" fill="#632f33"/><path d="M192.48 244.568c-.04-.398-.09-.818-.13-1.264-.07-1.831-.29-4.023-.18-6.51-.02-1.254.03-2.564.19-3.96.11-1.368.24-2.825.51-4.316.44-2.986 1.31-6.128 2.29-9.451 1.05-3.331 2.45-6.767 3.81-10.426 1.38-3.645 3-7.498 4.15-11.643.16-.515.3-1.063.45-1.61-.6 18.463-4.21 31.268-6.72 38.987-1.14 3.52-2.73 7.036-4.37 10.193zm31.11-114.218c.05-11.312 3.62-7.12-.31-20.817-.91-3.181-1.87-6.134-2.84-8.967v-1.224c0-11.993-8.95-27.54-23.17-42.653-14.23-15.091-23.18-11.985-34.96-11.553 0 0-.04.096-.1.247-5.17-1.312-32.99-7.846-49.54-.619-18.293 8.009-33.261 21.738-43.841 58.621-10.564 36.869-1.889 67.069.154 79.96 6.498 40.803 37.65 66.638 37.65 66.638s-7.866-10.89-11.381-21.758c-2.731-8.433-6.805-22.919-6.805-44.239 0-21.33 17.78-47.725 17.78-47.725s-8.204 16.56-9.814 34.778c-1.64 18.211 6.962 32.298 6.962 32.298s-10.89-23.661 6.505-41.318c5.53-5.617 10.17-11.488 13.91-16.833l-.01.04c-4.37 13.952 4.4 25.682 4.4 25.682s-.16-17.906 8.909-23.99c22.121-14.816 25.641-20.938 28.751-32.867.43-1.631.66-3.126.83-4.585l20.21 34.495c.95 1.506 2.5 4.042 4.29 7.325 1.04 1.893 2.15 4.029 3.28 6.335.25.922.52 1.825.76 2.763a83.65 83.65 0 0 1 2.15 11.38c.21 1.451.32 2.913.41 4.382.13 2.433.11 4.872-.12 7.299-.1.913-.1 2.01-.24 2.826l-.46 3.104c-.38 1.87-.72 3.683-1.28 5.632-.22.773-.45 1.543-.67 2.32-.85 3.044-1.74 6.086-2.71 9.106-.14.452-.27.914-.41 1.37-.57 1.857-1.09 3.723-1.56 5.574-1.3 5.18-2.11 10.247-2.03 14.804-.07 3.285.29 6.268.81 8.856.38 2.604 1.19 4.772 1.68 6.566.31.943.63 1.746.92 2.437-3.16 5.847-6.23 10.103-6.23 10.103s3.05-2.528 7.44-7.249l.06.142s-.01-.076-.02-.187a129.791 129.791 0 0 0 16.27-21.784c-.38 1.419-.8 2.821-1.29 4.198-5.61 15.78-6.74 35.599-3.37 46.605 3.37 11.005 11.61 22.746 11.61 22.746s-7.2-13.294-8.99-30.445c-2.71-26.009 14.88-47.417 14.88-73.252 0-.502-.03-1.051-.06-1.625.42-1.901.81-3.826 1.12-5.799.67-4.247 2.07-10.387 3.26-18.018 14.07 19.171 29.67 14.946 29.67 14.946-13.64-5.682-27.28-40.809-32.46-56.071z" fill="#844c1f"/></g></svg>