<svg viewBox="0 0 298 300" xmlns="http://www.w3.org/2000/svg" fill-rule="evenodd" clip-rule="evenodd" stroke-linejoin="round" stroke-miterlimit="1.414"><g fill-rule="nonzero"><path fill="#d4de25" d="M.31.19h296.86v299.7H.31z"/><path d="M149.05 187.26v112.63H88.31c-.99-.4-1.48-.6-1.48-.6 0-10.99 1.23-20.12 3.25-27.74.62-2.34 1.3-4.52 2.06-6.58 4.46-12.16 11.05-19.52 17.07-23.99 4.45-3.27 8.56-4.96 11.32-5.82 2.14-.68 3.46-.82 3.46-.82.24 0 .45-.03.68-.07.24-.04.47-.1.7-.18 1.6-.56 2.92-2.12 4.01-4.45.92-1.97 1.68-4.5 2.32-7.4.25-1.15.45-2.29.64-3.52.31-2.1.6-4.28.84-6.56.11-1.38.25-2.72.42-4.16.53-6.89.67-14.44.67-21.58 0 0 8.15.84 14.78.84z" fill="#e0bd9a"/><path d="M211.51 299.29s-.53.2-1.44.6h-61.02V187.26h.14c6.58 0 14.83-.84 14.83-.84 0 7.1.15 14.54.68 21.44.17 1.33.31 2.71.41 4.05.25 2.39.54 4.63.89 6.71v.04c.1.94.29 1.79.45 2.67.6 2.94 1.32 5.52 2.2 7.57 1.09 2.58 2.41 4.37 4.04 5.09.49.22 1.05.35 1.62.35 0 0 .1 0 .27.04.72.1 2.76.49 5.55 1.6 3.25 1.3 7.49 3.5 11.81 7.28v.03c5.21 4.54 10.5 11.41 14.26 21.68.76 2.06 1.44 4.24 2.06 6.58 2.02 7.62 3.25 16.75 3.25 27.74z" fill="#efd0ad"/><path d="M166 218.4v.05c-1.53 2.37-6.67 9.16-16.85 9.16h-.1c-9.64-.05-15.27-7.04-16.7-9.11.3-2.07.59-4.24.84-6.5.1-1.33.25-2.71.39-4.14 4.7 1.18 9.84 1.92 15.27 2.02h.2c5.63-.1 10.82-.89 15.66-2.17.15 1.33.3 2.71.4 4.04.25 2.37.54 4.58.89 6.65z" fill="#be987f"/><path d="M148.36 58.93c-64.34 0-64.68 53.94-61.82 89.27-4.4-8.38-17.49-5.82-16.4 7.39 1.03 12.71 19.74 19.19 19.22 17.78 9.74 26.13 35.53 45.82 59 45.82h.49V58.93h-.49z" fill="#d2a686"/><path d="M74.24 150.02c3.16-5.12 8.1-2.91 9.29-1.77 1.28 1.23 2.32 2.8 1.53 5.81-.44 1.72-2.22 1.87-1.83 4.43.5 2.91 1.83 3.06 2.62 3.75.74.64 1.68 1.13 2.13 2.36.49 1.23.54 2.51.29 3.65-.49 2.07-3.51.39-5.53-.49-1.34-.65-5.59-4.24-6.67-5.42-2.67-3.06-3.96-8.97-1.83-12.32z" fill="#ac8774"/><path d="M148.7 58.93c64.34 0 64.69 53.94 61.87 89.27 4.4-8.38 17.44-5.82 16.36 7.39-.99 12.71-19.74 19.19-19.23 17.78-9.49 26.13-35.52 45.82-59 45.82h-.34l-.15-160.26h.49z" fill="#ddb598"/><path d="M222.82 150.02c-3.16-5.12-8.05-2.91-9.29-1.77-1.28 1.23-2.27 2.8-1.53 5.81.45 1.72 2.23 1.87 1.83 4.43-.49 2.91-1.83 3.06-2.57 3.75-.74.64-1.73 1.13-2.17 2.36-.45 1.23-.55 2.51-.3 3.65.49 2.07 3.51.39 5.54-.49 1.38-.65 5.58-4.24 6.67-5.42 2.71-3.06 3.95-8.97 1.82-12.32z" fill="#ac8774"/><path d="M147.85 74.15c-21.15 0-36.66 6.16-46 18.28-13.1 16.99-12.6 42.91-7.81 61.53 1.48 5.72 2.27 21.04 3.26 26.65 4.6 25.18 32.32 38.58 50.55 38.58h.5V74.15h-.3" fill="#e0bd9a"/><path d="M193.81 92.48c-9.29-12.07-24.61-18.23-45.46-18.33v145.04c20.85-.25 45.8-14.93 50.05-38.58 1.04-5.61 1.78-20.93 3.26-26.65 4.85-18.57 5.34-44.44-7.85-61.48z" fill="#efd0ad"/><path d="M144.97 193.48c-.1-.02-.2-.04-.3-.07.1.03.19.04.3.07zm-.78-.18c-.1-.02-.18-.05-.27-.07h-.01s.1.03.28.07z" fill="#bc917b"/><path d="M136.34 174.66c-.24-5.01 9.18-1.83 12.29-1.67 2.45.12 9.92-1.58 10.56-1.14 4.4 2.97-4.65 8.95-10.72 8.95-1.61 0-11.98-3.11-12.13-6.14z" fill="#ddb598"/><path d="M130.38 74.51l-.26.27.04.09c.09-.14.14-.27.22-.36z" fill="#432e1b"/><path d="M145.15 190.54zm-.81-.18c-.09-.03-.18-.06-.28-.08h-.01l.29.08z" fill="#ba907b"/><path d="M102.19 130.76s4.91 20.2 13.34 21.85c8.42 1.64 17.54-1.63 17.54-1.63s.88-23.74-3.44-26.84c-4.31-3.12-14.25-7.62-27.44 6.62z" fill="#fff"/><path d="M133.09 150.91s-.2.06-.63.24c-.11-7.28-.78-17.28-3.47-19.2-4.01-2.94-13.06-7.08-25.14 4.25-1.1-3.13-1.65-5.5-1.65-5.5 13.21-14.27 23.16-9.77 27.44-6.66 4.32 3.12 3.45 26.87 3.45 26.87z" fill="#d6b496"/><path d="M128.1 140.63c0 4.59-3.72 8.32-8.3 8.32s-8.29-3.73-8.29-8.32c0-4.6 3.71-8.32 8.29-8.32 4.58 0 8.3 3.72 8.3 8.32z" fill="#482315"/><path d="M119.42 146.17c-2.4-.2-4.24-2.62-4.02-5.29.22-2.66 2.42-4.75 4.82-4.55 2.4.2 4.23 2.62 4.02 5.29-.22 2.66-2.43 4.75-4.82 4.55z" fill="#7e3a22"/><path d="M119.62 145.21c-1.66-.14-3.39-1.98-3.21-4.24.19-2.27 2.19-3.8 3.86-3.66 1.67.14 3.39 1.99 3.21 4.25-.19 2.26-2.19 3.79-3.86 3.65z" fill="#211a10"/><path d="M118.27 139.63c-.06.82-.9 1.42-1.86 1.34-.96-.08-1.68-.81-1.62-1.63.07-.82.9-1.41 1.86-1.33.97.07 1.69.8 1.62 1.62zm5.38 4.73c-.03.4-.45.7-.93.66-.48-.03-.84-.4-.81-.81.04-.4.45-.7.93-.66.48.03.85.4.81.81z" fill="#fff"/><path d="M145.28 192.92c-.11-.02-.21-.04-.31-.07.1.02.19.04.31.07zm-.81-.18c-.09-.03-.18-.05-.27-.08h-.01s.1.03.28.08z" fill="#ba907b"/><path d="M144.9 192.35zm-.86-.2c-.1-.02-.2-.05-.3-.08l-.01.01s.11.03.31.07zm.61-.65c-.11-.02-.22-.04-.33-.07.11.03.21.05.33.07zm-.86-.19c-.1-.03-.2-.06-.3-.08h-.01l.31.08zm1.63.08zm-.83-.19c-.1-.02-.19-.05-.29-.08h-.01s.11.04.3.08z" fill="#bc917b"/><path d="M195 130.07s-4.9 20.2-13.33 21.85c-8.43 1.65-17.55-1.63-17.55-1.63s-.87-23.74 3.45-26.84c4.31-3.11 14.25-7.62 27.43 6.62z" fill="#fff"/><path d="M164.11 150.23s.19.05.63.23c.11-7.28.78-17.28 3.47-19.19 4.01-2.94 13.05-7.09 25.14 4.24 1.1-3.13 1.65-5.5 1.65-5.5-13.21-14.27-23.16-9.77-27.44-6.65-4.32 3.11-3.45 26.87-3.45 26.87z" fill="#d6b496"/><path d="M169.1 139.94c0 4.6 3.71 8.32 8.29 8.32 4.58 0 8.3-3.72 8.3-8.32 0-4.59-3.72-8.32-8.3-8.32s-8.29 3.73-8.29 8.32z" fill="#482315"/><path d="M177.78 145.48c2.39-.2 4.23-2.62 4.01-5.29-.21-2.66-2.42-4.75-4.81-4.55-2.4.2-4.23 2.62-4.02 5.29.21 2.66 2.43 4.75 4.82 4.55z" fill="#7e3a22"/><path d="M177.57 144.52c1.67-.14 3.4-1.98 3.22-4.24-.19-2.26-2.19-3.79-3.86-3.66-1.67.15-3.39 1.99-3.21 4.25.18 2.26 2.19 3.79 3.85 3.65z" fill="#211a10"/><path d="M178.92 138.95c.07.81.91 1.41 1.87 1.33.96-.08 1.68-.81 1.61-1.62-.07-.82-.9-1.42-1.86-1.34-.96.08-1.68.81-1.62 1.63zm-5.37 4.72c.03.41.45.71.93.67.48-.04.84-.41.81-.82-.04-.4-.46-.7-.93-.66-.48.04-.85.4-.81.81z" fill="#fff"/><path d="M138.14 130.44c-.07-.1-1.6-2.43-4.72-4.84-1.96-1.51-3.88-2.65-5.87-3.51a30.095 30.095 0 0 0-7.55-2.08c-2.29-.26-4.82-.19-7.77.21-2.26.43-4.46 1.1-6.32 1.93-1.33.46-2.38 1.1-3.23 1.62-.32.2-.61.38-.91.54l-4.03 2.54 4.64-1.09c.22-.06.45-.12.7-.19.96-.25 2.16-.57 3.56-.78.33-.04.66-.11 1-.18.58-.12 1.19-.24 1.82-.27.7-.04 1.43-.1 2.18-.15l.97-.07c2.57-.03 4.74.16 6.67.61 2.11.36 4.27 1.04 6.26 1.97 1.87.9 3.67 1.79 5.07 2.82 2.84 1.9 4.41 3.48 4.43 3.5.39.39.91.59 1.43.59.38 0 .76-.1 1.1-.32.93-.62 1.19-1.88.6-2.79l-.03-.06zm57.69-6.15c-.26-.14-.56-.32-.88-.52-.85-.52-1.9-1.16-3.19-1.61-1.9-.84-4.1-1.51-6.38-1.95-2.93-.39-5.46-.46-7.76-.2-2.51.34-5.12 1.06-7.54 2.08-1.96.85-3.94 2.03-5.87 3.51-3.06 2.36-4.59 4.65-4.71 4.83l-.03.04c-.51.8-.4 1.87.27 2.55.38.38.89.6 1.43.6a2.04 2.04 0 0 0 1.42-.6l.02-.02c.15-.15 1.68-1.65 4.43-3.49 1.38-1.02 3.18-1.91 5.05-2.81 1.99-.93 4.16-1.61 6.29-1.98 1.9-.44 4.07-.63 6.61-.6l1.02.07c.74.05 1.47.11 2.17.15.63.03 1.23.15 1.81.27.34.07.68.14 1 .18 1.4.21 2.6.53 3.56.78.25.07.48.13.71.19l4.63 1.09-4.06-2.56z" fill="#030405"/><path d="M143.82 195.31c-.11-.02-.21-.04-.32-.07.1.02.2.04.32.07zm-.84-.19c-.1-.02-.19-.05-.29-.08h-.01l.3.08z" fill="#be927b"/><path d="M137.06 201.04c-.24-3.2 8.91.67 11.92.76 2.4.08 9.6-.47 10.26-.72 5.04-1.89-.27 5.34-10.41 5.73-4.65.18-11.63-3.83-11.77-5.77z" fill="#f0d2ad"/><path d="M167.23 193.36c-5.81-1.09-18.03.07-18.03.07-10.09 1.67-17.98-.11-18.04-.04-.24.02 8.06 11.02 17.9 10.52 9.84.5 18.41-10.52 18.17-10.55z" fill="#c2646e"/><path d="M155.03 191.03c-2.62-.29-4.48 1.6-5.82 1.46-1.37.13-3.14-1.08-5.77-1.11-3.7-.03-5.51-.36-12.28 2.01.25.46 4.58 2.97 12.7 3.11.12 0 2.3 1.24 5.39 1.21 1.94-.01 4.6-1.3 4.71-1.3 8.13-.13 13.1-2.55 13.32-3-8.94-2.77-8.23-2.41-12.25-2.38z" fill="#d87475"/><path d="M222.09 103.94c.7-3.08 1.23-4.61 1.76-7.72 1-5.82.87-9.62-5.67-12.63-5.28-2.44-9.08.5-9.08.5s-1.8-11.18-4.31-14.68c-8.85-12.36-19.03-13.01-25.91-14.26-8.8-1.61-24.77 3.25-32.59-.69-1.69-.85-5.54-4.56-7.32-5.23-1.63-.6-4.45 1.79-6.15 1.36-.56-.14-3.57-4.57-4.65-5.33-1.53-1.06-5.33-.81-5.33-.81s-6.1-.04-6.07-1.34c.01-.68 2.21-.82 2.88-1.14 1.41-.7 5.44-1.61 5.44-1.61s-7.33-2.8-9.82-3.11c-3.4-.43-7.66-.28-11.67.87-1.25.35-2.08.56-2.08.56s2-2.13 3.45-2.76c2.47-1.08 6.34-2.04 6.34-2.04s3.16-.51 2.39-1.12c-2.58-2.06-9.49-4.28-12.92-4.62-4.71-.46-12.23-1.62-19.2 2.29-14.45 8.11-18.18 11.78-21.13 28.89-.87 5 4.61 19.6 7.91 23.71 2.07 2.58 11.57 7.4 11.57 7.4s.38 20.12.24 26.82c-.14 6.32-1.06 26.07-1.06 26.07s4.06-1.33 6.16 3.32c1.16 2.56 4.11 10.61 4.11 10.61s-.98-19.18 1.41-25.74c.79-2.17 6.14-7.29 6.14-7.29s-4.53-23.68.48-29.57c5.58-6.57 22.8-9.02 31.94-10.19 9.17-1.18 31.72-1.62 40.55.9 5.93 1.68 17.28 8.02 20.31 12.88 2.91 4.67 3.43 25.51 3.43 25.51s6.01-.42 7.43 2.37c3.17 6.22 1.96 22.98 3.19 31.42.21 1.45.47 4.81.47 4.81s1.54-2.9 1.54-3.54c0-.63.99-8.03 2.48-10.9.56-1.08 1.98-3.17 4.75-3.37 1.13-.08 2.85 1.6 2.85 1.6s-1.67-11.62-.87-14.98c.74-3.09 5.87-8.07 6.61-11.16.94-3.93-.88-12.12 0-16.06z" fill="#2b3233"/><path d="M191.94 243.26v.03l-20.14 22.89-.06.07-22.53 25.63-.16-.2-20.95-26.69-.1-.1-18.79-23.91c4.45-3.27 8.56-4.96 11.32-5.82 2.14-.68 3.46-.82 3.46-.82.24 0 .45-.03.68-.07.24-.04.47-.1.7-.18 4.77 8.25 13.08 21.4 23.68 21.91h.04c7.51.33 16.05-9.24 25.49-21.62.72.1 2.76.49 5.55 1.6 3.25 1.3 7.49 3.5 11.81 7.28z" fill="#36393a"/><path d="M202.79 277.58c-.02 10.17.26 17.82.53 22.31H97.55c.27-4.49.58-12.14.55-22.31 0-1.93 0-3.93-.02-6.03h-8c.62-2.34 1.3-4.52 2.06-6.58 4.46-12.16 11.05-19.52 17.07-23.99L128 264.89l.1.1c5.47 6.91 13.13 10.62 20.95 11.01 8.21.41 16.56-2.8 22.69-9.75l.06-.07 20.14-22.89c5.21 4.54 10.5 11.41 14.26 21.68.76 2.06 1.44 4.24 2.06 6.58h-5.43c-.02 2.1-.04 4.1-.04 6.03z" fill="#f17069"/><path d="M92.14 175.36c0 2-1.62 3.62-3.61 3.62a3.615 3.615 0 1 1 0-7.23c1.99 0 3.61 1.62 3.61 3.61zm119.37 0c0 2-1.62 3.62-3.61 3.62a3.615 3.615 0 1 1 0-7.23c1.99 0 3.61 1.62 3.61 3.61z" fill="#fff"/></g></svg>