<svg viewBox="0 0 298 300" xmlns="http://www.w3.org/2000/svg" fill-rule="evenodd" clip-rule="evenodd" stroke-linejoin="round" stroke-miterlimit="1.414"><g fill-rule="nonzero"><path fill="#d87542" d="M.31.3h296.86V300H.31z"/><path d="M149.05 187.38V300H88.31c-.99-.39-1.48-.6-1.48-.6 0-10.98 1.23-20.12 3.25-27.73.62-2.35 1.3-4.53 2.06-6.58 4.46-12.16 11.05-19.53 17.07-23.99 4.45-3.28 8.56-4.96 11.32-5.83 2.14-.68 3.46-.82 3.46-.82.24 0 .45-.02.68-.06.24-.04.47-.1.7-.19 1.6-.55 2.92-2.12 4.01-4.44.92-1.98 1.68-4.51 2.32-7.41.25-1.15.45-2.28.64-3.52.31-2.09.6-4.27.84-6.56.11-1.38.25-2.71.42-4.15.53-6.9.67-14.45.67-21.59 0 0 8.15.85 14.78.85z" fill="#e0bd9a"/><path d="M211.51 299.4s-.53.21-1.44.6h-61.02V187.38h.14c6.58 0 14.83-.85 14.83-.85 0 7.1.15 14.55.68 21.44.17 1.34.31 2.72.41 4.05.25 2.39.54 4.63.89 6.71v.04c.1.95.29 1.79.45 2.68.6 2.94 1.32 5.51 2.2 7.57 1.09 2.57 2.41 4.36 4.04 5.08.49.23 1.05.35 1.62.35 0 0 .1 0 .27.04.72.1 2.76.5 5.55 1.61 3.25 1.29 7.49 3.49 11.81 7.28v.02c5.21 4.55 10.5 11.42 14.26 21.69.76 2.05 1.44 4.23 2.06 6.58 2.02 7.61 3.25 16.75 3.25 27.73z" fill="#efd0ad"/><path d="M166 218.52v.05c-1.53 2.36-6.67 9.16-16.85 9.16h-.1c-9.64-.05-15.27-7.05-16.7-9.12.3-2.06.59-4.23.84-6.5.1-1.33.25-2.71.39-4.14 4.7 1.19 9.84 1.92 15.27 2.02h.2c5.63-.1 10.82-.88 15.66-2.16.15 1.33.3 2.71.4 4.04.25 2.36.54 4.58.89 6.65z" fill="#be987f"/><path d="M148.36 59.04c-64.34 0-64.68 53.95-61.82 89.27-4.4-8.37-17.49-5.81-16.4 7.39 1.03 12.71 19.74 19.19 19.22 17.79 9.74 26.12 35.53 45.81 59 45.81h.49V59.04h-.49z" fill="#d2a686"/><path d="M74.24 150.13c3.16-5.12 8.1-2.9 9.29-1.77 1.28 1.23 2.32 2.81 1.53 5.81-.44 1.73-2.22 1.88-1.83 4.44.5 2.9 1.83 3.05 2.62 3.74.74.64 1.68 1.14 2.13 2.37.49 1.23.54 2.51.29 3.64-.49 2.07-3.51.4-5.53-.49-1.34-.64-5.59-4.24-6.67-5.42-2.67-3.05-3.96-8.97-1.83-12.32z" fill="#ac8774"/><path d="M148.7 59.04c64.34 0 64.69 53.95 61.87 89.27 4.4-8.37 17.44-5.81 16.36 7.39-.99 12.71-19.74 19.19-19.23 17.79-9.49 26.12-35.52 45.81-59 45.81h-.34l-.15-160.26h.49z" fill="#ddb598"/><path d="M222.82 150.13c-3.16-5.12-8.05-2.9-9.29-1.77-1.28 1.23-2.27 2.81-1.53 5.81.45 1.73 2.23 1.88 1.83 4.44-.49 2.9-1.83 3.05-2.57 3.74-.74.64-1.73 1.14-2.17 2.37-.45 1.23-.55 2.51-.3 3.64.49 2.07 3.51.4 5.54-.49 1.38-.64 5.58-4.24 6.67-5.42 2.71-3.05 3.95-8.97 1.82-12.32z" fill="#ac8774"/><path d="M147.85 74.26c-21.15 0-36.66 6.16-46 18.28-13.1 17-12.6 42.91-7.81 61.54 1.48 5.71 2.27 21.03 3.26 26.65 4.6 25.17 32.32 38.57 50.55 38.57h.5V74.26h-.3" fill="#e0bd9a"/><path d="M193.81 92.59c-9.29-12.07-24.61-18.23-45.46-18.33V219.3c20.85-.24 45.8-14.92 50.05-38.57 1.04-5.62 1.78-20.94 3.26-26.65 4.85-18.58 5.34-44.44-7.85-61.49z" fill="#efd0ad"/><path d="M144.97 193.59l-.3-.06c.1.02.19.04.3.06zm-.78-.17c-.1-.03-.18-.05-.27-.08l-.01.01s.1.02.28.07z" fill="#bc917b"/><path d="M136.34 174.78c-.24-5.01 9.18-1.83 12.29-1.68 2.45.13 9.92-1.58 10.56-1.14 4.4 2.97-4.65 8.96-10.72 8.96-1.61 0-11.98-3.12-12.13-6.14z" fill="#ddb598"/><path d="M130.38 74.63l-.26.26.04.09c.09-.13.14-.27.22-.35z" fill="#432e1b"/><path d="M145.15 190.65zm-.81-.18c-.09-.02-.18-.05-.28-.08l-.01.01s.11.03.29.07z" fill="#ba907b"/><path d="M102.19 130.87s4.91 20.2 13.34 21.85c8.42 1.65 17.54-1.63 17.54-1.63s.88-23.74-3.44-26.84c-4.31-3.11-14.25-7.61-27.44 6.62z" fill="#fff"/><path d="M133.09 151.03s-.2.06-.63.24c-.11-7.28-.78-17.28-3.47-19.2-4.01-2.94-13.06-7.08-25.14 4.24-1.1-3.13-1.65-5.5-1.65-5.5 13.21-14.26 23.16-9.77 27.44-6.65 4.32 3.11 3.45 26.87 3.45 26.87z" fill="#d6b496"/><path d="M128.1 140.74c0 4.6-3.72 8.32-8.3 8.32s-8.29-3.72-8.29-8.32c0-4.59 3.71-8.32 8.29-8.32 4.58 0 8.3 3.73 8.3 8.32z" fill="#482315"/><path d="M119.42 146.28c-2.4-.19-4.24-2.62-4.02-5.28.22-2.67 2.42-4.75 4.82-4.55 2.4.19 4.23 2.62 4.02 5.28-.22 2.67-2.43 4.76-4.82 4.55z" fill="#7e3a22"/><path d="M119.62 145.32c-1.66-.14-3.39-1.97-3.21-4.23.19-2.27 2.19-3.8 3.86-3.66 1.67.14 3.39 1.98 3.21 4.24-.19 2.26-2.19 3.79-3.86 3.65z" fill="#211a10"/><path d="M118.27 139.75c-.06.82-.9 1.41-1.86 1.33-.96-.08-1.68-.81-1.62-1.62.07-.82.9-1.42 1.86-1.34.97.08 1.69.81 1.62 1.63zm5.38 4.72c-.03.41-.45.71-.93.67-.48-.04-.84-.41-.81-.81.04-.41.45-.71.93-.67.48.04.85.4.81.81z" fill="#fff"/><path d="M145.28 193.03c-.11-.02-.21-.04-.31-.06.1.02.19.04.31.06zm-.81-.18c-.09-.02-.18-.05-.27-.07h-.01s.1.03.28.07z" fill="#ba907b"/><path d="M144.9 192.46c-.11-.02-.22-.04-.33-.07.11.03.2.05.33.07zm-.86-.19c-.1-.03-.2-.06-.3-.08h-.01s.11.03.31.08zm.61-.65zm-.86-.2c-.1-.02-.2-.05-.3-.08l-.01.01s.12.03.31.07zm1.63.08c-.1-.02-.21-.04-.32-.07.11.03.2.05.32.07zm-.83-.18c-.1-.03-.19-.06-.29-.08h-.01l.3.08z" fill="#bc917b"/><path d="M195 130.19s-4.9 20.2-13.33 21.84c-8.43 1.65-17.55-1.63-17.55-1.63s-.87-23.73 3.45-26.83c4.31-3.12 14.25-7.62 27.43 6.62z" fill="#fff"/><path d="M164.11 150.34s.19.06.63.24c.11-7.28.78-17.28 3.47-19.2 4.01-2.94 13.05-7.08 25.14 4.25 1.1-3.13 1.65-5.51 1.65-5.51-13.21-14.26-23.16-9.77-27.44-6.65-4.32 3.11-3.45 26.87-3.45 26.87z" fill="#d6b496"/><path d="M169.1 140.06c0 4.59 3.71 8.32 8.29 8.32 4.58 0 8.3-3.73 8.3-8.32 0-4.6-3.72-8.32-8.3-8.32s-8.29 3.72-8.29 8.32z" fill="#482315"/><path d="M177.78 145.6c2.39-.2 4.23-2.63 4.01-5.29-.21-2.67-2.42-4.75-4.81-4.55-2.4.2-4.23 2.62-4.02 5.28.21 2.67 2.43 4.76 4.82 4.56z" fill="#7e3a22"/><path d="M177.57 144.64c1.67-.15 3.4-1.98 3.22-4.24-.19-2.27-2.19-3.8-3.86-3.66-1.67.14-3.39 1.98-3.21 4.24.18 2.27 2.19 3.79 3.85 3.66z" fill="#211a10"/><path d="M178.92 139.06c.07.82.91 1.41 1.87 1.34.96-.09 1.68-.82 1.61-1.63-.07-.82-.9-1.42-1.86-1.34-.96.08-1.68.81-1.62 1.63zm-5.37 4.73c.03.4.45.7.93.66.48-.04.84-.4.81-.81-.04-.41-.46-.71-.93-.67-.48.04-.85.41-.81.82z" fill="#fff"/><path d="M138.14 130.55c-.07-.1-1.6-2.43-4.72-4.83-1.96-1.51-3.88-2.66-5.87-3.51a30.548 30.548 0 0 0-7.55-2.09c-2.29-.25-4.82-.19-7.77.21-2.26.43-4.46 1.11-6.32 1.93-1.33.46-2.38 1.11-3.23 1.63-.32.19-.61.37-.91.54l-4.03 2.53 4.64-1.09c.22-.05.45-.12.7-.18.96-.26 2.16-.58 3.56-.78.33-.05.66-.12 1-.18.58-.12 1.19-.24 1.82-.27.7-.05 1.43-.1 2.18-.15l.97-.08c2.57-.03 4.74.17 6.67.61 2.11.37 4.27 1.05 6.26 1.97 1.87.9 3.67 1.8 5.07 2.83 2.84 1.9 4.41 3.48 4.43 3.49.39.4.91.6 1.43.6.38 0 .76-.11 1.1-.33.93-.61 1.19-1.88.6-2.79l-.03-.06zm57.69-6.14c-.26-.15-.56-.33-.88-.53-.85-.51-1.9-1.16-3.19-1.6-1.9-.84-4.1-1.52-6.38-1.95-2.93-.4-5.46-.46-7.76-.21-2.51.35-5.12 1.07-7.54 2.09-1.96.84-3.94 2.02-5.87 3.51-3.06 2.36-4.59 4.65-4.71 4.82l-.03.05c-.51.8-.4 1.87.27 2.54.38.39.89.6 1.43.6.54 0 1.04-.21 1.42-.6l.02-.01c.15-.15 1.68-1.65 4.43-3.5 1.38-1.01 3.18-1.91 5.05-2.81 1.99-.92 4.16-1.6 6.29-1.97 1.9-.44 4.07-.63 6.61-.61l1.02.08c.74.05 1.47.1 2.17.15.63.03 1.23.15 1.81.27.34.06.68.13 1 .18 1.4.2 2.6.52 3.56.78.25.06.48.13.71.18l4.63 1.09-4.06-2.55z" fill="#030405"/><path d="M143.82 195.42l-.32-.06c.1.02.2.04.32.06zm-.84-.18l-.29-.09-.01.01.3.08z" fill="#be927b"/><path d="M137.06 201.16c-.24-3.2 8.91.67 11.92.76 2.4.08 9.6-.48 10.26-.73 5.04-1.88-.27 5.35-10.41 5.73-4.65.19-11.63-3.82-11.77-5.76z" fill="#f0d2ad"/><path d="M167.23 193.47c-5.81-1.09-18.03.07-18.03.07-10.09 1.68-17.98-.1-18.04-.04-.24.03 8.06 11.03 17.9 10.52 9.84.51 18.41-10.52 18.17-10.55z" fill="#c2646e"/><path d="M155.03 191.15c-2.62-.29-4.48 1.59-5.82 1.46-1.37.12-3.14-1.09-5.77-1.11-3.7-.04-5.51-.36-12.28 2 .25.47 4.58 2.98 12.7 3.12.12 0 2.3 1.23 5.39 1.21 1.94-.01 4.6-1.31 4.71-1.31 8.13-.12 13.1-2.54 13.32-2.99-8.94-2.77-8.23-2.42-12.25-2.38z" fill="#d87475"/><path d="M202.79 277.7c-.02 10.16.26 17.82.53 22.3H97.55c.27-4.48.58-12.14.55-22.3 0-1.93 0-3.93-.02-6.03h-8c.62-2.34 1.3-4.52 2.06-6.58 3.02-8.21 6.99-14.24 11.13-18.66 1.97-2.12 3.99-3.87 5.94-5.33L128 265.01l.1.1c5.47 6.91 13.13 10.61 20.95 11.01h.18c8.15.37 16.42-2.86 22.51-9.76l.06-.06 20.14-22.9c5.21 4.55 10.5 11.42 14.26 21.69.76 2.06 1.44 4.24 2.06 6.58h-5.43c-.02 2.1-.04 4.1-.04 6.03z" fill="#ce1f4a"/><path d="M129.6 229.47c-7.72.58-13.03 5.71-13.03 5.71 17.96 16.36 32.76 22.48 32.76 22.48v-11.41c-23.4-.14-19.73-16.78-19.73-16.78zm39.23-.23s3.92 16.87-19.48 17.01v11.41s15.47-6.06 33.42-22.42c0 0-5.09-4.95-13.94-6zm89.79-168.06s2.03 5.08 1.25 14.19c-.48 9.08-3.27 14.88-3.27 14.88s-3.71-.74-8.37-1.87l1.57-22.73c4.93-2.58 8.82-4.47 8.82-4.47z" fill="#37393a"/><path d="M249.8 65.65l-1.57 22.73c-3.25-.79-6.94-1.76-10.19-2.81l.97-13.95c3.46-2.06 7.38-4.18 10.79-5.97z" fill="#ce1f4a"/><path d="M203.28 10.98s-5.31-1.56-14.46-.04c-9.13 1.24-14.77 4.46-14.77 4.46s1.07 3.58 2.6 8.07l22.84-3.45c2.2-5.05 3.79-9.04 3.79-9.04z" fill="#37393a"/><path d="M199.49 20.02l-22.84 3.45c1.07 3.12 2.36 6.67 3.68 9.78l14.02-2.12c1.79-3.58 3.61-7.6 5.14-11.11z" fill="#ce1f4a"/><path d="M234.26 95.46c9.16-9.82 10.15-23.62 2.21-30.82l-34.29-31.1c-7.94-7.2-21.81-5.07-30.97 4.75-7.36 7.89-9.44 18.35-5.86 25.89-3.03 6.46-2.69 13.17 1.46 16.93l24.53 22.24c4.15 3.77 10.96 3.54 17.24.03 7.92 2.89 18.31-.03 25.68-7.92z" fill="#37393a"/><path d="M168 40.34l8.7 4.31c-18.43-5.34-37.39-1.61-46.11.74-3.17.66-4.95 1.5-4.95 1.5.77-.01 1.56.03 2.34.05 2.66.14 6.96.67 9.51 2.5-3.83-1.48-10.43-2.01-21.51 2.06a53.12 53.12 0 0 0-4.3 1.79c-4.71 1.95-14.13 5.81-32.24 13.11 0 0 5.98 2.19 13.09 2.94-3.4 3.77-6.93 6.99-12.82 8.7-15.41 4.49-19.87-1.26-19.87-1.26s6.68 10.07 18.54 10.09c1.92 0 2.12-.03 2.13-.04-.01.04-4.45 10.8-5.3 18.84-.87 8.22 1.85 13.84 2.68 29.21.24 4.29.82 6.46 1.65 7.78 1.71 2.71 4.5 1.79 7.64 8.31 1.56 3.25 1.63 6.91 1.63 6.91s.13.09.34.16c.98.33 3.79.06 3.93-13.64 0 0-12.45-53.64 12.93-61.59.41-.13.83-.23 1.25-.34-4.57 6.66-5.22 13.83-5.22 13.83 6.09-19.68 46.61-5.81 46.61-5.81-24.05-6.07-33.82 5.48-33.82 5.48 58.39-8.71 88.01 52.42 89.36 48.6-.14 12.6 2.69 12.49 2.69 12.49 1.3 0-.08-6.34 4.24-10.71 1.19-1.2 2.55-3.21 3.9-5.76 3.55-6.73 7.01-17.38 7.01-28.03C226.64 40.36 168 40.34 168 40.34z" fill="#37393a"/><path d="M149.23 276.12v13.45c-25.02-2.2-41.7-34.09-45.96-43.14 1.97-2.12 3.99-3.87 5.94-5.33L128 265.01l.1.1c5.47 6.91 13.13 10.61 20.95 11.01h.18z" fill="#a51c42"/><path d="M149.23 276.12v13.45c25.02-2.2 41.71-34.09 45.96-43.14a44.436 44.436 0 0 0-5.94-5.33l-18.79 23.91-.1.1c-5.47 6.91-13.13 10.61-20.94 11.01h-.19z" fill="#89163b"/><path d="M213.38 156.28s.18 4.45-7.51 10.16a4.114 4.114 0 0 0-1.64 3.72l.49 4.51c.21 1.98 2.4 3.08 4.09 2.04 3.62-2.22 9.25-7.02 13.91-16.99 0 0 6.02-16.61-9.34-3.44z" fill="#37393a"/><path d="M218.34 160.18c0 1.14-.92 2.06-2.06 2.06a2.055 2.055 0 1 1 0-4.11c1.14 0 2.06.92 2.06 2.05zm-6.58-7.68s-.37 2.74 1.62 3.78c0 0 7.78-6.13 10.47-2.89 0 0-.12-2.4-1.39-3.8 0 0-1.19-2.94-10.7 2.91z" fill="#2da8e0"/><path d="M215.3 140.06s4.19-.3 6.08 4.08c0 0-2.91-1.31-6.08-.12 0 0-3.16 1.14-4.73 4.29l.12-1.48s4.02-5.59 4.61-6.77zm8.55 13.33s3.61-.39 1.87-5.08c0 0 7.97 6.18-2.4 9.8l-1.03-.41 1.56-4.31z" fill="#37393a"/></g></svg>