<svg viewBox="0 0 300 301" xmlns="http://www.w3.org/2000/svg" fill-rule="evenodd" clip-rule="evenodd" stroke-linejoin="round" stroke-miterlimit="1.414"><g fill-rule="nonzero"><path fill="#419286" d="M.04.365h299.359V300.07H.04z"/><path d="M156.77 187.446V300.07H96.06c-.99-.391-1.48-.597-1.48-.597 0-7.9.64-14.834 1.73-20.924.92-4.999 2.14-9.464 3.58-13.394 7.32-20.059 20.47-27.096 27.36-29.482.37-.124.7-.227 1.03-.33 2.14-.679 3.46-.823 3.46-.823.22 0 .43-.02.65-.061 1.92-.309 3.46-1.975 4.72-4.63.92-1.975 1.7-4.505 2.32-7.406.25-1.152.45-2.284.66-3.539.29-2.078.57-4.259.84-6.543.08-1.378.23-2.715.39-4.156.54-6.892.68-14.443.68-21.582 0 0 8.17.843 14.77.843z" fill="#e0bd9a"/><path d="M219.24 299.473s-.54.206-1.44.597h-61.03V187.446h.17c6.56 0 14.81-.843 14.81-.843 0 7.098.15 14.525.7 21.438.15 1.338.29 2.716.39 4.053.25 2.387.54 4.609.89 6.708v.041c.1.946.29 1.79.45 2.674.6 2.922 1.32 5.514 2.2 7.572 1.09 2.571 2.43 4.361 4.03 5.082a4.01 4.01 0 0 0 1.63.349s2.32.268 5.82 1.646c.17.062.33.124.5.206 7.2 2.963 18.84 10.411 25.57 28.783 1.4 3.807 2.59 8.107 3.5 12.901 1.15 6.213 1.81 13.311 1.81 21.417z" fill="#efd0ad"/><path d="M173.93 218.583v.049c-1.53 2.365-6.67 9.164-16.85 9.164h-.1c-9.63-.05-15.27-7.045-16.7-9.115.3-2.069.59-4.236.84-6.503.1-1.33.25-2.709.4-4.138a67.628 67.628 0 0 0 15.26 2.02h.2a65.398 65.398 0 0 0 15.67-2.168c.14 1.33.29 2.71.39 4.04.25 2.365.55 4.582.89 6.651z" fill="#be987f"/><path d="M156.29 59.107c-64.34 0-64.68 53.947-61.82 89.271-4.39-8.375-17.49-5.814-16.4 7.39 1.04 12.711 19.74 19.189 19.22 17.785 9.74 26.124 35.53 45.818 59 45.818h.49V59.107h-.49z" fill="#d2a686"/><path d="M82.17 150.201c3.16-5.124 8.1-2.907 9.29-1.774 1.29 1.232 2.32 2.808 1.53 5.814-.44 1.724-2.22 1.872-1.83 4.434.5 2.906 1.83 3.054 2.62 3.744.74.64 1.68 1.133 2.13 2.365.49 1.231.54 2.512.29 3.645-.49 2.07-3.5.394-5.53-.492-1.33-.641-5.58-4.237-6.67-5.42-2.67-3.054-3.95-8.966-1.83-12.316z" fill="#ac8774"/><path d="M156.64 59.107c64.33 0 64.68 53.947 61.86 89.271 4.4-8.375 17.44-5.814 16.36 7.39-.99 12.711-19.74 19.193-19.22 17.785-9.49 26.124-35.53 45.818-59 45.818h-.35l-.15-160.264h.5z" fill="#ddb598"/><path d="M230.76 150.201c-3.17-5.124-8.06-2.907-9.29-1.774-1.29 1.232-2.28 2.808-1.53 5.814.44 1.724 2.22 1.872 1.82 4.434-.49 2.906-1.82 3.054-2.57 3.744-.74.64-1.73 1.133-2.17 2.365-.45 1.231-.54 2.512-.3 3.645.5 2.07 3.51.394 5.54-.492 1.38-.641 5.58-4.237 6.67-5.42 2.72-3.054 3.95-8.966 1.83-12.316z" fill="#ac8774"/><path d="M155.78 74.33c-21.14 0-36.66 6.158-46 18.278-13.09 16.997-12.6 42.911-7.81 61.534 1.49 5.715 2.28 21.037 3.26 26.653 4.6 25.176 32.32 38.576 50.55 38.576h.5V74.33h-.3" fill="#e0bd9a"/><path d="M201.74 92.657c-9.29-12.07-24.61-18.228-45.46-18.327v145.041c20.85-.246 45.8-14.928 50.05-38.576 1.04-5.616 1.78-20.938 3.27-26.653 4.84-18.573 5.33-44.439-7.86-61.485z" fill="#efd0ad"/><path d="M152.9 193.66c-.1-.022-.2-.042-.3-.065l.3.065zm-.78-.176c-.09-.024-.18-.051-.27-.076l-.01.005s.1.028.28.071z" fill="#bc917b"/><path d="M144.28 177.144c-.25-5.012 9.17-1.831 12.28-1.674 2.45.125 9.92-1.58 10.56-1.141 4.4 2.972-4.65 8.957-10.72 8.957-1.61 0-11.98-3.119-12.12-6.142z" fill="#ddb598"/><path d="M138.32 74.692l-.27.268.04.09c.09-.135.14-.269.23-.358z" fill="#432e1b"/><path d="M153.08 190.718c-.1-.023-.21-.043-.31-.067.1.023.19.042.31.067zm-.81-.181l-.27-.078-.01.004s.1.03.28.074z" fill="#ba907b"/><path d="M110.13 130.94s4.9 20.199 13.33 21.847c8.43 1.648 17.55-1.629 17.55-1.629s.87-23.737-3.45-26.839c-4.31-3.115-14.25-7.616-27.43 6.621z" fill="#fff"/><path d="M141.02 151.096s-.2.056-.63.237c-.11-7.28-.78-17.281-3.47-19.197-4.01-2.942-13.05-7.083-25.14 4.243-1.1-3.129-1.65-5.502-1.65-5.502 13.21-14.264 23.16-9.77 27.44-6.653 4.32 3.114 3.45 26.872 3.45 26.872z" fill="#d6b496"/><path d="M136.03 140.811c0 4.594-3.71 8.319-8.3 8.319-4.58 0-8.29-3.725-8.29-8.319 0-4.595 3.71-8.32 8.29-8.32 4.59 0 8.3 3.725 8.3 8.32z" fill="#482315"/><path d="M127.35 146.351c-2.4-.198-4.23-2.622-4.02-5.288.22-2.665 2.43-4.751 4.82-4.55 2.4.198 4.23 2.62 4.02 5.285-.22 2.665-2.43 4.755-4.82 4.553z" fill="#7e3a22"/><path d="M127.56 145.39c-1.67-.142-3.4-1.977-3.22-4.237.19-2.267 2.19-3.797 3.86-3.659 1.67.141 3.39 1.984 3.21 4.244-.18 2.263-2.19 3.79-3.85 3.652z" fill="#211a10"/><path d="M126.21 139.815c-.07.816-.91 1.413-1.87 1.335-.96-.082-1.68-.812-1.61-1.624.06-.821.9-1.418 1.85-1.339.97.078 1.69.807 1.63 1.628zm5.37 4.725c-.03.406-.45.706-.93.665-.48-.037-.84-.406-.81-.812.04-.406.46-.707.93-.665.48.037.85.402.81.812z" fill="#fff"/><path d="M153.21 193.1c-.1-.022-.21-.043-.31-.067.1.023.19.042.31.067zm-.8-.181c-.1-.025-.19-.052-.28-.077l-.01.004s.11.029.29.073z" fill="#ba907b"/><path d="M152.83 192.529c-.11-.024-.22-.045-.33-.071l.33.071zm-.86-.193l-.3-.083-.01.004.31.079zm.62-.651c-.12-.024-.23-.046-.34-.072.11.025.21.045.34.072zm-.87-.194c-.1-.026-.19-.056-.29-.083l-.02.004s.12.032.31.079zm1.64.078c-.11-.023-.22-.044-.33-.069.11.024.2.044.33.069zm-.84-.187c-.1-.025-.19-.054-.29-.08l-.01.004s.11.031.3.076z" fill="#bc917b"/><path d="M202.94 130.253s-4.91 20.198-13.34 21.847c-8.43 1.647-17.55-1.629-17.55-1.629s-.87-23.737 3.45-26.839c4.31-3.115 14.25-7.617 27.44 6.621z" fill="#fff"/><path d="M172.04 150.409s.2.056.63.237c.11-7.281.78-17.281 3.47-19.197 4.01-2.942 13.05-7.084 25.14 4.242 1.1-3.129 1.65-5.501 1.65-5.501-13.21-14.264-23.16-9.77-27.44-6.653-4.32 3.114-3.45 26.872-3.45 26.872z" fill="#d6b496"/><path d="M177.03 140.124c0 4.594 3.72 8.319 8.3 8.319s8.29-3.725 8.29-8.319c0-4.595-3.71-8.32-8.29-8.32-4.58 0-8.3 3.725-8.3 8.32z" fill="#482315"/><path d="M185.71 145.664c2.4-.198 4.24-2.623 4.02-5.289-.22-2.665-2.42-4.75-4.82-4.549-2.4.198-4.23 2.619-4.02 5.285.22 2.665 2.43 4.754 4.82 4.553z" fill="#7e3a22"/><path d="M185.5 144.702c1.67-.142 3.4-1.976 3.22-4.236-.19-2.267-2.19-3.797-3.86-3.66-1.67.142-3.39 1.985-3.21 4.245.19 2.263 2.19 3.789 3.85 3.651z" fill="#211a10"/><path d="M186.85 139.128c.07.816.91 1.413 1.87 1.334.96-.082 1.68-.812 1.62-1.624-.07-.82-.9-1.417-1.86-1.339-.97.078-1.69.808-1.63 1.629zm-5.37 4.725c.03.406.45.706.93.665.48-.038.84-.406.81-.812-.04-.406-.45-.707-.93-.665-.48.037-.85.402-.81.812z" fill="#fff"/><path d="M146.07 130.618c-.07-.098-1.6-2.43-4.72-4.835-1.96-1.507-3.88-2.654-5.87-3.508a30.327 30.327 0 0 0-7.55-2.088c-2.29-.255-4.82-.187-7.77.212-2.25.43-4.45 1.103-6.32 1.928-1.33.46-2.38 1.106-3.23 1.625-.32.199-.61.379-.91.54l-4.03 2.538 4.64-1.093c.22-.055.45-.116.7-.183.96-.256 2.16-.574 3.56-.779.33-.048.66-.115 1-.183.58-.116 1.19-.237 1.82-.267.7-.047 1.43-.1 2.18-.154l.97-.07c2.57-.032 4.74.163 6.67.608 2.11.365 4.27 1.047 6.26 1.97 1.87.9 3.67 1.792 5.08 2.825 2.83 1.898 4.41 3.48 4.42 3.495v.001a2.014 2.014 0 0 0 2.53.267c.93-.613 1.2-1.876.6-2.787l-.03-.062zm57.69-6.145c-.26-.142-.56-.322-.88-.522-.84-.519-1.89-1.164-3.19-1.608-1.9-.841-4.1-1.514-6.38-1.949-2.93-.395-5.46-.462-7.75-.206-2.52.345-5.12 1.066-7.55 2.088-1.96.842-3.93 2.022-5.86 3.507-3.07 2.361-4.6 4.652-4.71 4.828l-.03.042c-.52.8-.41 1.871.26 2.546a1.995 1.995 0 0 0 2.85 0l.02-.017c.15-.149 1.68-1.65 4.43-3.491 1.38-1.017 3.18-1.911 5.05-2.81a25.465 25.465 0 0 1 6.29-1.977c1.9-.44 4.08-.631 6.61-.604l1.02.073c.75.053 1.47.105 2.18.152.62.03 1.22.151 1.81.267.34.068.67.135 1 .183 1.4.205 2.59.523 3.55.779.25.067.49.129.71.184l4.64 1.093-4.07-2.558z" fill="#030405"/><path d="M151.75 195.491c-.1-.023-.21-.044-.32-.069l.32.069zm-.84-.189c-.1-.025-.19-.054-.29-.081l-.01.005s.11.03.3.076z" fill="#be927b"/><path d="M144.39 199.658c-.24-3.247 9.02.68 12.06.774 2.42.082 9.71-.481 10.38-.739 5.1-1.911-.27 5.429-10.53 5.815-4.7.188-11.77-3.88-11.91-5.85z" fill="#f0d2ad"/><path d="M174.54 193.397c-2.52-.124-5.1 1.978-8.12 1.657-.13-.062-.19-.062-.32-.062-.69-.123-1.38 0-2.13.185-.94.198-1.89.58-2.78.889-1.51.493-3.21.888-4.96.752v.012l-.1-.012-.1.012v-.012c-1.75.136-3.45-.259-4.96-.752-.89-.309-1.84-.691-2.78-.889-.75-.185-1.44-.308-2.13-.185-.13 0-.2 0-.32.062-3.02.321-5.6-1.781-8.12-1.657-.69.062-1.7-.124-2.26-.124.12.062.25.124.38.186 7.16 3.504 13.35 10.068 20.19 9.858h.2c6.84.21 13.03-6.354 20.19-9.858.13-.062.26-.124.38-.186-.56 0-1.57.186-2.26.124z" fill="#dcbf9e"/><path d="M176.64 193.197s-7.28-2.815-12.47-1.164c0 0-1.93.755-3.92 1.215-1.22.475-2.69.613-4.12.556a22.84 22.84 0 0 1-2.98-.332c-.28-.043-.56-.101-.85-.163-.13-.026-.22-.046-.33-.069-.17-.042-.34-.075-.51-.12-.19-.046-.3-.077-.3-.077l.01-.004a33.641 33.641 0 0 1-3.08-1.006c-5.19-1.651-12.47 1.164-12.47 1.164-.1.046-.16.076-.16.076.56 0 1.57.186 2.26.124 2.52-.124 5.1 1.978 8.12 1.657.12-.062.19-.062.32-.062.69-.123 1.38 0 2.13.185.94.198 1.89.58 2.78.889 1.51.493 3.21.888 4.96.752v.012l.1-.012.1.012v-.012c1.75.136 3.45-.259 4.96-.752.89-.309 1.84-.691 2.78-.889.75-.185 1.44-.308 2.13-.185.13 0 .19 0 .32.062 3.02.321 5.6-1.781 8.12-1.657.69.062 1.7-.124 2.26-.124 0 0-.06-.03-.16-.076z" fill="#c69f83"/><path d="M143.89 194.912c.13.033 13.66 4.163 24.23.089l-1.22-.821h-14.29l-8.72.732z" fill="#c69f83"/><path d="M156.7 272.369v12.118l-.23.227-38.41-44.358c3.5-2.387 6.73-3.848 9.2-4.691l29.44 36.704z" fill="#658bb8"/><path d="M156.7 284.487v15.575h-46.04v-18.105s-6.73-1.605-14.35-3.416c.93-4.999 2.14-9.464 3.58-13.393 4.72-12.921 11.86-20.431 18.17-24.792l38.41 44.358.23-.227z" fill="#37455e"/><path d="M217.44 278.048c-8.4 1.995-16.4 3.909-16.4 3.909v18.105H156.7v-15.575l41.21-42.506c5.74 4.526 11.83 11.727 16.03 23.167 1.4 3.806 2.59 8.106 3.5 12.9z" fill="#617498"/><path d="M231.86 85.873c-.19-.688-.38-1.347-.56-1.985 10.15-1.616 15.81-10.44 15.81-10.44s-3.13 4.143-13.06 2.919c10.39-1.666 16.2-11.651 16.2-11.651s-4.6 6.783-20.45 1.495c-15.47-5.156-15.08-21.957-37.32-31.332-11.39-4.802-18.19-4.175-22.13-2.423 3.99-3.303 12.19-3.01 12.19-3.01s-10.12-5.614-25.76-.579c-10.99 3.541-17.57 7.571-21.26 10.464l6.16-5.923s-4.36 1.563-10.55 4.738c4.21-8.222 11.98-17.231 11.98-17.231-19.81 7.438-36.22 34.209-36.22 34.209 1.57-10.095 5.04-19.329 5.04-19.329-24.48 18.356-28.49 47.403-28.84 62.06-1.11 4.417-1.64 8.917-1.64 13.571 0 15.591 6.73 31.221 11.15 35.854 4.42 4.641 3 11.366 4.32 11.366 0 0 .63.024 1.3-1.322.15 1.31.29 2.162.73 2.162 0 0 2.68.096 2.77-12.982.33-4.416 1.72-11.508 7.39-9.387.31.133.61.282.91.402l.17.081h.01c28.47 11.468 43.01-17.591 43.01-17.591s2.44-5.188 6.15-11.091c3.34-5.288 7.7-11.147 12.3-14.378 2.87-2.013 6.63-3.544 11.17-4.97 25.94-8.138 36.7 33.598 34.51 44.602-2.09 10.629-1.04 18.432.47 22.662.9 2.523 1.97 3.777 2.63 3.608 0 0 .07-4.307 1.68-8.147 4.79-11.432 8.8-3.488 9.55-18.991.59-12.443 2.09-19.475 2.68-25.792 3.8 3.05 9.47 5.216 17.94 5.393 0 0-11.98-3.738-20.43-27.032z" fill="#771017"/><path d="M197.91 241.981l-41.21 42.506v-12.118l.08.103.02.021 31.56-36.129c2.72 1.111 6.07 2.881 9.55 5.617z" fill="#779cd1"/></g></svg>