<svg viewBox="0 0 300 300" xmlns="http://www.w3.org/2000/svg" fill-rule="evenodd" clip-rule="evenodd" stroke-linejoin="round" stroke-miterlimit="1.414"><g fill-rule="nonzero"><path fill="#97ca91" d="M.149.07H299.51v299.71H.149z"/><path d="M154.07 187.32v112.61H93.36c-1.01-.39-1.46-.6-1.46-.6 0-5.37.29-10.31.82-14.83.54-4.41 1.28-8.44 2.2-12.1.68-2.63 1.44-5.1 2.27-7.39 4.34-11.89 10.73-19.21 16.68-23.7 4.59-3.46 8.87-5.22 11.73-6.11 2.1-.66 3.43-.82 3.43-.82h.07c.22 0 .39-.02.59-.06h.02c1.92-.31 3.46-1.98 4.71-4.63.93-1.98 1.71-4.49 2.33-7.41.25-1.13.43-2.28.66-3.52.29-2.1.55-4.26.8-6.54.12-1.4.25-2.74.41-4.18.54-6.89.7-14.42.7-21.56 0 0 8.15.84 14.75.84z" fill="#e0bd9a"/><path d="M216.54 299.33s-.54.21-1.44.6h-61.03V187.32h.17c6.58 0 14.83-.84 14.83-.84 0 7.08.12 14.53.68 21.42.17 1.34.31 2.71.39 4.07.25 2.37.56 4.61.89 6.69v.04c.1.95.3 1.79.47 2.67.58 2.95 1.3 5.52 2.2 7.6 1.07 2.55 2.41 4.36 4.01 5.06.21.08.41.16.64.22.31.09.66.13 1.01.13 0 0 .33.04.9.16h.02c.99.21 2.7.64 4.88 1.5 2.55.99 5.68 2.56 8.97 4.98 6.05 4.45 12.65 11.83 17.12 23.99.84 2.29 1.58 4.76 2.26 7.39.91 3.6 1.65 7.57 2.18 11.89.54 4.59.85 9.59.85 15.04z" fill="#efd0ad"/><path d="M171.04 218.46v.05c-1.53 2.36-6.67 9.16-16.85 9.16h-.1c-9.64-.05-15.27-7.04-16.7-9.11.29-2.07.59-4.24.84-6.51.1-1.33.24-2.71.39-4.14 4.7 1.19 9.84 1.93 15.27 2.02h.2c5.63-.09 10.82-.88 15.66-2.16.15 1.33.3 2.71.4 4.04.25 2.36.54 4.58.89 6.65z" fill="#be987f"/><path d="M153.4 58.98c-64.34 0-64.69 53.95-61.82 89.27-4.4-8.37-17.49-5.81-16.4 7.39 1.03 12.71 19.74 19.19 19.22 17.79 9.74 26.12 35.53 45.82 59 45.82h.49V58.98h-.49z" fill="#d2a686"/><path d="M79.28 150.08c3.16-5.13 8.1-2.91 9.29-1.78 1.28 1.23 2.32 2.81 1.53 5.82-.45 1.72-2.23 1.87-1.83 4.43.49 2.91 1.83 3.05 2.62 3.74.74.64 1.68 1.14 2.12 2.37.5 1.23.55 2.51.3 3.64-.49 2.07-3.51.4-5.53-.49-1.34-.64-5.59-4.24-6.67-5.42-2.67-3.05-3.96-8.96-1.83-12.31z" fill="#ac8774"/><path d="M153.74 58.98c64.34 0 64.68 53.95 61.87 89.27 4.4-8.37 17.44-5.81 16.35 7.39-.98 12.71-19.73 19.2-19.22 17.79-9.49 26.12-35.53 45.82-59 45.82h-.34l-.15-160.27h.49z" fill="#ddb598"/><path d="M227.86 150.08c-3.16-5.13-8.05-2.91-9.29-1.78-1.28 1.23-2.27 2.81-1.53 5.82.45 1.72 2.22 1.87 1.83 4.43-.49 2.91-1.83 3.05-2.57 3.74-.74.64-1.73 1.14-2.17 2.37-.45 1.23-.55 2.51-.3 3.64.49 2.07 3.51.4 5.53-.49 1.39-.64 5.59-4.24 6.67-5.42 2.72-3.05 3.96-8.96 1.83-12.31z" fill="#ac8774"/><path d="M152.89 74.2c-21.15 0-36.66 6.16-46 18.28-13.1 17-12.6 42.91-7.81 61.54 1.48 5.71 2.27 21.03 3.26 26.65 4.6 25.18 32.32 38.58 50.55 38.58h.49V74.2h-.29" fill="#e0bd9a"/><path d="M198.85 92.53c-9.29-12.07-24.61-18.23-45.47-18.33v145.05c20.86-.25 45.81-14.93 50.06-38.58 1.04-5.62 1.78-20.94 3.26-26.65 4.84-18.58 5.34-44.44-7.85-61.49z" fill="#efd0ad"/><path d="M150.01 193.53l-.3-.06c.1.02.18.04.3.06zm-.78-.17c-.1-.03-.18-.05-.27-.08l-.01.01s.1.03.28.07z" fill="#bc917b"/><path d="M141.11 175.75c-.25-5.01 9.18-1.83 12.28-1.68 2.46.13 9.93-1.58 10.57-1.14 4.39 2.97-4.66 8.96-10.72 8.96-1.62 0-11.98-3.12-12.13-6.14z" fill="#ddb598"/><path d="M135.42 74.57l-.26.26.04.09c.09-.13.13-.26.22-.35z" fill="#432e1b"/><path d="M150.19 190.59l-.32-.06c.11.02.2.04.32.06zm-.81-.18c-.1-.02-.18-.05-.28-.08l-.01.01s.11.03.29.07z" fill="#ba907b"/><path d="M107.23 130.81s4.91 20.2 13.34 21.85c8.42 1.65 17.54-1.63 17.54-1.63s.87-23.73-3.44-26.84c-4.31-3.11-14.25-7.61-27.44 6.62z" fill="#fff"/><path d="M138.12 150.97s-.19.06-.62.24c-.11-7.28-.78-17.28-3.48-19.2-4-2.94-13.05-7.08-25.13 4.24-1.1-3.13-1.65-5.5-1.65-5.5 13.21-14.26 23.16-9.77 27.44-6.65 4.32 3.11 3.44 26.87 3.44 26.87z" fill="#d6b496"/><path d="M133.14 140.69c0 4.59-3.72 8.31-8.3 8.31s-8.29-3.72-8.29-8.31c0-4.6 3.71-8.32 8.29-8.32 4.58 0 8.3 3.72 8.3 8.32z" fill="#482315"/><path d="M124.46 146.23c-2.4-.2-4.24-2.63-4.02-5.29.21-2.67 2.42-4.75 4.82-4.55 2.39.2 4.23 2.62 4.02 5.28-.22 2.67-2.43 4.76-4.82 4.56z" fill="#7e3a22"/><path d="M124.66 145.26c-1.66-.14-3.39-1.97-3.21-4.23.19-2.27 2.19-3.8 3.86-3.66 1.66.14 3.39 1.98 3.21 4.24-.19 2.27-2.19 3.79-3.86 3.65z" fill="#211a10"/><path d="M123.31 139.69c-.07.82-.9 1.41-1.86 1.33-.96-.08-1.68-.81-1.62-1.62.07-.82.9-1.42 1.86-1.34.96.08 1.69.81 1.62 1.63zm5.38 4.72c-.04.41-.45.71-.93.67-.48-.04-.84-.41-.81-.81.03-.41.45-.71.93-.67.48.04.84.4.81.81z" fill="#fff"/><path d="M150.32 192.97c-.11-.02-.21-.04-.31-.06.1.02.19.04.31.06zm-.81-.18c-.09-.02-.18-.05-.28-.07h-.01s.11.03.29.07z" fill="#ba907b"/><path d="M149.94 192.4c-.11-.02-.22-.04-.33-.07.11.03.2.05.33.07zm-.86-.19c-.11-.03-.2-.06-.3-.08h-.01s.11.03.31.08zm.61-.65c-.11-.02-.22-.05-.33-.07.11.02.2.04.33.07zm-.86-.19l-.3-.09-.01.01.31.08zm1.63.07zm-.83-.18c-.1-.03-.19-.06-.29-.08h-.01l.3.08z" fill="#bc917b"/><path d="M200.04 130.13s-4.91 20.2-13.33 21.84c-8.43 1.65-17.55-1.62-17.55-1.62s-.87-23.74 3.44-26.84c4.32-3.12 14.25-7.62 27.44 6.62z" fill="#fff"/><path d="M169.15 150.28s.19.06.63.24c.1-7.28.77-17.28 3.47-19.2 4.01-2.94 13.05-7.08 25.14 4.25 1.1-3.13 1.65-5.51 1.65-5.51-13.22-14.26-23.16-9.77-27.44-6.65-4.32 3.12-3.45 26.87-3.45 26.87z" fill="#d6b496"/><path d="M174.14 140c0 4.59 3.71 8.32 8.29 8.32 4.58 0 8.3-3.73 8.3-8.32 0-4.6-3.72-8.32-8.3-8.32s-8.29 3.72-8.29 8.32z" fill="#482315"/><path d="M182.82 145.54c2.39-.2 4.23-2.62 4.01-5.29-.21-2.67-2.42-4.75-4.82-4.55-2.39.2-4.23 2.62-4.01 5.29.21 2.66 2.42 4.75 4.82 4.55z" fill="#7e3a22"/><path d="M182.61 144.58c1.67-.15 3.4-1.98 3.21-4.24-.18-2.27-2.18-3.8-3.85-3.66-1.67.14-3.4 1.99-3.21 4.25.18 2.26 2.19 3.78 3.85 3.65z" fill="#211a10"/><path d="M183.96 139c.07.82.91 1.42 1.86 1.34.96-.09 1.69-.82 1.62-1.63-.07-.82-.9-1.41-1.86-1.34-.96.08-1.68.81-1.62 1.63zm-5.38 4.73c.04.4.46.7.93.66.49-.04.84-.4.81-.81-.03-.41-.45-.71-.92-.66-.49.03-.85.4-.82.81z" fill="#fff"/><path d="M143.17 130.49c-.06-.1-1.59-2.43-4.71-4.83-1.96-1.51-3.88-2.66-5.87-3.51a30.502 30.502 0 0 0-7.56-2.09c-2.28-.25-4.81-.19-7.76.21-2.26.43-4.46 1.11-6.32 1.93-1.33.46-2.39 1.11-3.23 1.63-.32.2-.62.38-.91.54l-4.03 2.53 4.64-1.09c.22-.05.45-.11.7-.18.96-.26 2.16-.57 3.56-.78.32-.05.66-.12 1-.18.58-.12 1.18-.24 1.82-.27.7-.05 1.43-.1 2.18-.15l.97-.07c2.57-.04 4.74.16 6.67.6 2.1.37 4.27 1.05 6.26 1.97 1.87.9 3.67 1.8 5.07 2.83 2.84 1.9 4.41 3.48 4.43 3.49.39.4.91.6 1.43.6.38 0 .76-.11 1.1-.33a2.04 2.04 0 0 0 .6-2.79l-.04-.06zm57.7-6.14c-.27-.14-.56-.33-.88-.52-.85-.52-1.9-1.17-3.19-1.61-1.9-.84-4.1-1.52-6.39-1.95-2.92-.4-5.45-.46-7.75-.21-2.51.35-5.12 1.07-7.54 2.09-1.96.84-3.94 2.02-5.87 3.51-3.07 2.36-4.59 4.65-4.71 4.83l-.03.04c-.51.8-.4 1.87.27 2.54.38.39.89.6 1.42.6h.01c.53 0 1.04-.21 1.42-.6l.02-.01c.15-.15 1.68-1.65 4.43-3.49 1.38-1.02 3.18-1.92 5.05-2.81 1.99-.93 4.15-1.61 6.29-1.98 1.9-.44 4.07-.63 6.61-.61l1.02.08c.74.05 1.47.1 2.17.15.62.03 1.23.15 1.81.27.34.06.67.13 1 .18 1.4.21 2.6.52 3.56.78.25.07.48.13.71.18l4.63 1.1-4.06-2.56z" fill="#030405"/><path d="M148.86 195.37c-.11-.03-.22-.05-.32-.07.1.02.2.04.32.07zm-.84-.19c-.1-.03-.19-.06-.29-.08h-.01l.3.08z" fill="#be927b"/><path d="M141.5 199.53c-.25-3.24 9.01.68 12.05.78 2.43.08 9.72-.48 10.39-.74 5.09-1.91-.28 5.43-10.54 5.81-4.7.19-11.76-3.88-11.9-5.85z" fill="#f0d2ad"/><path d="M171.64 193.27c-2.51-.12-5.09 1.98-8.12 1.66-.12-.06-.18-.06-.31-.06-.69-.13-1.38 0-2.14.18-.94.2-1.88.58-2.77.89-1.51.49-3.21.89-4.97.75v.01l-.09-.01-.1.01v-.01c-1.75.14-3.46-.26-4.97-.75-.88-.31-1.83-.69-2.77-.89-.75-.18-1.44-.31-2.14-.18-.13 0-.19 0-.31.06-3.03.32-5.61-1.78-8.12-1.66-.7.06-1.7-.12-2.27-.12.12.06.25.12.38.18 7.17 3.51 13.35 10.07 20.2 9.86h.19c6.85.21 13.03-6.35 20.2-9.86.13-.06.26-.12.38-.18-.56 0-1.57.18-2.27.12z" fill="#dcbf9e"/><path d="M173.75 193.07s-7.29-2.81-12.47-1.16c0 0-1.93.75-3.93 1.21-1.21.48-2.69.62-4.11.56-1.09-.05-2.13-.18-2.98-.33-.28-.05-.57-.1-.86-.17-.12-.02-.21-.04-.32-.07-.18-.04-.35-.07-.52-.12-.19-.04-.3-.07-.3-.07l.01-.01c-1.65-.45-3.08-1-3.08-1-5.18-1.65-12.47 1.16-12.47 1.16l-.16.08c.57 0 1.57.18 2.27.12 2.51-.12 5.09 1.98 8.12 1.66.12-.06.18-.06.31-.06.7-.13 1.39 0 2.14.18.94.2 1.89.58 2.77.89 1.51.49 3.22.89 4.97.75v.01l.1-.01.09.01v-.01c1.76.14 3.46-.26 4.97-.75.89-.31 1.83-.69 2.77-.89.76-.18 1.45-.31 2.14-.18.13 0 .19 0 .31.06 3.03.32 5.61-1.78 8.12-1.66.7.06 1.71-.12 2.27-.12l-.16-.08z" fill="#c69f83"/><path d="M141 194.79c.13.03 13.65 4.16 24.23.09l-1.22-.83h-14.3l-8.71.74z" fill="#c69f83"/><path d="M143.55 299.93H90.6c-.98-.41-1.52-.7-1.52-.7 0-3.61.13-7.05.36-10.35.27-4.42.75-8.48 1.43-12.31.75-4.5 1.77-8.66 2.88-12.37.27-.78.54-1.55.81-2.29 1.29-3.73 2.76-7.06 4.33-10.01 2.26-4.24 4.76-7.71 7.35-10.58.51-.62 1.06-1.22 1.6-1.79 7.57-7.65 15.23-10.19 18.49-11.05-.04.24-.09.43-.13.62-1.23 5.84-1.09 13.21-.05 20.86.05.28.05.57.09.86.09.61.15 1.17.3 1.81 0 .1 0 .26.04.38.09.59.23 1.23.36 1.84.89 5.18 2.22 10.34 3.88 15.09 1.38 3.95 3.7 9.54 6.37 15.71.45 1.13.92 2.15 1.38 3.23.27.57.49 1.15.77 1.7.66 1.46 1.38 2.97 1.99 4.51.23.48.45.94.64 1.42.06.14.11.24.16.33.49 1.03.95 2.01 1.33 2.97l.09.12z" fill="#975459"/><path d="M151.78 299.97h-12.49c-.56-.61-1.06-1.15-1.54-1.69-25.61-27.93-29.57-48.52-29.57-48.52l10.56-4.85-6.5-4.39s2.53-2.94 7.09-7.32c1.27-1.2 3.17-2.59 5.19-3.94 3.62-2.3 7.47-3.5 8.34-3.66-.29.35-2.97 3.03-2.26 19.93.08 1.13.13 2.21.31 3.36.02.28.07.52.11.75.09.57.18 1.09.32 1.65 0 .12 0 .24.04.38.09.56.21 1.11.34 1.67 1.93 8.47 6.03 18.47 10.54 27.97.75 1.53 1.5 2.97 2.22 4.45.89 1.81 1.84 3.65 2.72 5.44.57.99 1.04 1.99 1.56 2.96.52.99 1.14 2.17 1.73 3.28.43.84.86 1.68 1.29 2.53z" fill="#7e4047"/><path d="M164.97 299.93h52.96c.97-.41 1.51-.7 1.51-.7 0-3.61-.13-7.05-.36-10.35-.25-4.42-.75-8.48-1.43-12.31-.74-4.5-1.76-8.66-2.87-12.37-.28-.78-.55-1.55-.82-2.29-1.29-3.73-2.76-7.06-4.33-10.01-2.26-4.24-4.76-7.71-7.34-10.58-.52-.62-1.07-1.22-1.61-1.79-7.58-7.65-15.23-10.19-18.49-11.05.04.24.09.43.13.62 1.23 5.84 1.09 13.21.05 20.86-.05.28-.05.57-.09.86-.09.61-.16 1.17-.3 1.81 0 .1 0 .26-.04.38-.09.59-.23 1.23-.37 1.84a95.02 95.02 0 0 1-3.87 15.09c-1.38 3.95-3.69 9.54-6.37 15.71-.45 1.13-.92 2.15-1.38 3.23-.27.57-.5 1.15-.75 1.7-.68 1.46-1.38 2.97-2.01 4.51-.21.48-.44.94-.62 1.42-.09.14-.13.24-.18.33-.5 1.03-.93 2.01-1.33 2.97l-.09.12z" fill="#975459"/><path d="M157.15 299.97h12.37c.57-.61 1.04-1.15 1.52-1.69 25.38-27.93 29.3-48.52 29.3-48.52l-10.47-4.85 6.46-4.39s-2.52-2.94-7.03-7.32c-1.26-1.2-3.15-2.59-5.14-3.94-3.61-2.3-7.3-2.88-8.16-3.05.3.35 2.83 2.42 2.13 19.32-.09 1.13-.14 2.21-.29 3.36-.05.28-.09.52-.14.75-.09.57-.18 1.09-.3 1.65 0 .12 0 .24-.04.38-.09.56-.23 1.11-.34 1.67-1.93 8.47-5.98 18.47-10.45 27.97-.72 1.53-1.47 2.97-2.19 4.45-.86 1.81-1.84 3.65-2.7 5.44-.54.99-1.02 1.99-1.54 2.96-.52.99-1.13 2.17-1.7 3.28-.43.84-.86 1.68-1.29 2.53z" fill="#7e4047"/><path d="M127.91 254.18l22.11 45.75h11.49l18.04-49-10.14-5.7-13.56 7.9-12.69-7.9s-15.17 7.37-15.25 8.95z" fill="#dfe0e1"/><path d="M180.7 230.54c-.7-2.28-2.32-4.89-3.46-6.37-1.99-2.57-6.28-5.18-6.28-5.18 1.63 4.01-2.11 10.72-4.06 13.58-1.82 2.69-5.81 7.81-8.81 11.76-1.89 2.47-5.59 2.5-7.52.07-3.11-3.92-7.2-9-8.95-11.83-1.76-2.83-3.52-11.15-4.21-13.81 0 0-4.01 2.78-6.13 5.41-1.17 1.46-2.76 4.09-3.46 6.37-1.84 6.05-1.69 28.76-1.69 28.76s5.82-7.36 8.31-9.31c1.13-.87 2.73-1.8 4.61-2.52l15.16 36.64 16.91-35.95c1.16.58 2.17 1.22 2.96 1.83 2.49 1.95 8.31 9.31 8.31 9.31s.15-22.71-1.69-28.76z" fill="#fff"/><path d="M225.93 86.84c-1.41-4.85-2.85-8.6-2.86-8.62.01.01.21.04 2.17.04 12.12-.02 18.95-11.06 18.95-11.06s-4.57 6.3-20.3 1.39c-15.36-4.78-14.97-20.38-37.05-29.08-11.31-4.46-18.06-3.88-21.97-2.25 3.96-3.07 12.1-2.8 12.1-2.8s-10.05-5.21-25.58-.53c-10.9 3.29-17.44 7.03-21.1 9.71l6.12-5.5s-4.34 1.45-10.47 4.4c4.17-7.63 11.89-15.99 11.89-15.99-19.68 6.9-35.97 31.75-35.97 31.75 1.56-9.37 5.01-17.94 5.01-17.94-33.58 23.54-28.36 66.06-28.36 66.06 0 16.09 6.73 32.22 11.15 37.02 4.42 4.79 3 11.73 4.32 11.73 0 0 2.66.09 2.75-12.04.12-1.55.4-3.45.99-5.11 0 0 4.1-67.85 53.59-48.12 0 0 20.04 8.15 35.64 9.43 11.6.96 21.15 9.23 23.65 20.04 1.18 5.15 1.48 9.68.92 12.31-3.31 15.74 1.31 24.81 3.08 24.38 0 0 .06-4 1.66-7.56 4.75-10.61 8.75-3.24 9.48-17.63.59-11.55 2.08-18.08 2.67-23.94 3.77 2.83 9.4 4.84 17.8 5.01 0 0-11.89-3.47-20.28-25.1z" fill="#36393a"/></g></svg>