<svg viewBox="0 0 300 301" xmlns="http://www.w3.org/2000/svg" fill-rule="evenodd" clip-rule="evenodd" stroke-linejoin="round" stroke-miterlimit="1.414"><g fill-rule="nonzero"><path fill="#7f8e9f" d="M.01.39h299.36v300.48H.01z"/><path d="M137.41 75.61l-.27.27.05.09c.09-.14.13-.27.22-.36z" fill="#432e1b"/><path d="M156.08 188.31v112.56H95.35c-.99-.4-1.48-.6-1.48-.6 0-14.37 2.1-25.57 5.3-34.31 7.73-21.08 21.88-27.78 28.4-29.8 2.13-.66 3.45-.82 3.45-.82.23 0 .45-.02.67-.05 1.91-.31 3.46-1.98 4.71-4.63.93-1.98 1.7-4.5 2.33-7.41.25-1.14.45-2.28.65-3.52.29-2.08.59-4.26.84-6.54.09-1.39.24-2.73.39-4.16.54-6.89.69-14.43.69-21.57 0 0 8.16.85 14.78.85z" fill="#e0bd9a"/><path d="M218.54 300.27s-.55.2-1.44.6h-61.02V188.31h.14c6.58 0 14.83-.85 14.83-.85 0 7.09.15 14.53.69 21.42.15 1.34.3 2.72.39 4.06.26 2.38.55 4.61.9 6.69v.05c.09.94.29 1.79.44 2.68.6 2.93 1.33 5.5 2.21 7.57 1.09 2.56 2.42 4.36 4.02 5.07.52.23 1.06.34 1.63.34 0 0 2.34.28 5.84 1.66 7.15 2.81 19.16 10.17 26.06 28.96 3.2 8.74 5.31 19.94 5.31 34.31z" fill="#efd0ad"/><path d="M173.03 219.42v.05c-1.54 2.37-6.68 9.16-16.85 9.16h-.1c-9.64-.05-15.27-7.04-16.7-9.11.29-2.07.59-4.23.84-6.5.09-1.33.24-2.71.39-4.13 4.7 1.18 9.83 1.92 15.27 2.01h.2c5.63-.09 10.82-.88 15.66-2.16.15 1.33.3 2.71.4 4.04.24 2.36.54 4.57.89 6.64z" fill="#be987f"/><path d="M155.39 60.03c-64.34 0-64.69 53.92-61.82 89.23-4.4-8.37-17.49-5.81-16.41 7.38 1.04 12.71 19.75 19.18 19.23 17.78 9.74 26.11 35.52 45.79 59 45.79h.49V60.03h-.49z" fill="#d2a686"/><path d="M81.27 151.08c3.16-5.12 8.1-2.91 9.29-1.77 1.28 1.23 2.32 2.8 1.53 5.81-.45 1.72-2.23 1.87-1.83 4.43.49 2.9 1.83 3.05 2.62 3.74.74.64 1.68 1.13 2.12 2.36.5 1.23.55 2.51.3 3.65-.5 2.06-3.51.39-5.54-.5-1.33-.64-5.58-4.23-6.67-5.41-2.66-3.05-3.95-8.96-1.82-12.31z" fill="#ac8774"/><path d="M155.73 60.03c64.34 0 64.68 53.92 61.87 89.23 4.39-8.37 17.44-5.81 16.35 7.38-.99 12.71-19.73 19.18-19.22 17.78-9.49 26.11-35.53 45.79-59 45.79h-.34l-.15-160.18h.49z" fill="#ddb598"/><path d="M229.85 151.08c-3.16-5.12-8.05-2.91-9.29-1.77-1.28 1.23-2.27 2.8-1.53 5.81.44 1.72 2.22 1.87 1.83 4.43-.5 2.9-1.83 3.05-2.57 3.74-.74.64-1.73 1.13-2.18 2.36-.44 1.23-.54 2.51-.29 3.65.49 2.06 3.51.39 5.53-.5 1.39-.64 5.59-4.23 6.67-5.41 2.72-3.05 3.96-8.96 1.83-12.31z" fill="#ac8774"/><path d="M154.88 75.25c-21.15 0-36.67 6.15-46 18.27-13.1 16.98-12.6 42.88-7.81 61.5 1.48 5.71 2.27 21.02 3.26 26.64 4.59 25.16 32.32 38.55 50.55 38.55h.49V75.25h-.29" fill="#e0bd9a"/><path d="M200.83 93.57c-9.29-12.07-24.6-18.22-45.46-18.32v144.96c20.86-.25 45.81-14.92 50.06-38.55 1.04-5.62 1.78-20.93 3.26-26.64 4.84-18.57 5.34-44.42-7.86-61.45z" fill="#efd0ad"/><path d="M152 194.51l-.3-.06c.09.02.18.04.3.06zm-.79-.17c-.09-.03-.17-.05-.27-.08l-.01.01s.11.02.28.07z" fill="#bc917b"/><path d="M152.17 191.57c-.1-.02-.2-.04-.31-.06.1.02.19.04.31.06zm-.8-.18c-.1-.02-.18-.05-.28-.08l-.01.01s.11.03.29.07z" fill="#ba907b"/><path d="M144.31 173.16c-.25-5.14 9.43-1.88 12.62-1.72 2.52.13 10.19-1.62 10.85-1.17 4.51 3.05-4.78 9.19-11.01 9.19-1.66 0-12.31-3.2-12.46-6.3z" fill="#dcb497"/><path d="M152.31 193.95c-.11-.02-.21-.04-.31-.06.1.02.19.04.31.06zm-.81-.18c-.1-.02-.18-.05-.28-.07h-.01s.11.03.29.07z" fill="#ba907b"/><path d="M151.93 193.38c-.11-.02-.22-.04-.33-.07.11.03.2.05.33.07zm-.86-.19c-.11-.03-.2-.06-.3-.08h-.01s.11.03.31.08zm.61-.65c-.11-.02-.22-.05-.33-.07.11.02.2.04.33.07zm-.86-.19c-.11-.03-.2-.06-.3-.09l-.01.01s.11.03.31.08zm1.63.07zm-.83-.18c-.1-.03-.19-.06-.29-.08h-.01l.3.08z" fill="#bc917b"/><path d="M149.33 201c-.1-.02-.21-.04-.31-.07.1.03.19.04.31.07zm-.8-.18c-.1-.02-.18-.05-.28-.08l-.01.01s.11.03.29.07zm.57-.6c-.1-.03-.21-.05-.31-.07.1.02.19.04.31.07zm-.8-.18c-.09-.03-.18-.05-.28-.08h-.01l.29.08zm1.51.07l-.29-.06c.09.02.18.04.29.06zm-.77-.17c-.09-.03-.17-.05-.27-.08v.01s.1.02.27.07z" fill="#be927b"/><path d="M143.08 202.51c-.25-3.21 8.91.67 11.91.77 2.4.08 9.6-.48 10.27-.73 5.03-1.89-.28 5.36-10.42 5.74-4.64.19-11.63-3.83-11.76-5.78z" fill="#f0d2ad"/><path d="M173.24 194.81c-5.8-1.09-18.03.07-18.03.07-10.08 1.68-17.97-.11-18.03-.04-.24.03 8.05 11.05 17.89 10.54 9.85.51 18.41-10.54 18.17-10.57z" fill="#c2646e"/><path d="M161.04 192.48c-2.61-.29-4.48 1.6-5.82 1.46-1.36.13-3.14-1.08-5.77-1.11-3.7-.04-5.5-.36-12.27 2.01.24.47 4.58 2.98 12.7 3.12.11 0 2.29 1.24 5.39 1.22 1.94-.01 4.6-1.31 4.7-1.31 8.13-.13 13.1-2.55 13.33-3-8.95-2.78-8.24-2.43-12.26-2.39z" fill="#d87475"/><path d="M109.22 131.43s4.91 20.25 13.34 21.91c8.42 1.65 17.54-1.64 17.54-1.64s.87-23.8-3.44-26.91c-4.31-3.12-14.25-7.63-27.44 6.64z" fill="#fff"/><path d="M140.11 151.64s-.19.06-.62.24c-.11-7.3-.78-17.33-3.48-19.25-4-2.95-13.05-7.1-25.13 4.25-1.1-3.13-1.65-5.51-1.65-5.51 13.21-14.3 23.16-9.8 27.44-6.67 4.31 3.12 3.44 26.94 3.44 26.94z" fill="#d6b496"/><path d="M135.12 141.33c0 4.6-3.71 8.34-8.29 8.34-4.58 0-8.29-3.74-8.29-8.34 0-4.61 3.71-8.34 8.29-8.34 4.58 0 8.29 3.73 8.29 8.34z" fill="#482315"/><path d="M126.44 146.88c-2.39-.2-4.23-2.63-4.01-5.3.21-2.67 2.42-4.76 4.82-4.56 2.39.2 4.23 2.63 4.02 5.3-.22 2.67-2.43 4.76-4.83 4.56z" fill="#7e3a22"/><path d="M126.65 145.92c-1.67-.14-3.4-1.98-3.21-4.25.19-2.27 2.19-3.81 3.85-3.67 1.67.14 3.4 1.99 3.21 4.26-.18 2.27-2.19 3.8-3.85 3.66z" fill="#211a10"/><path d="M125.3 136.2c-.07.82-.9 1.42-1.86 1.34-.96-.08-1.68-.81-1.62-1.63.07-.82.9-1.42 1.86-1.34.96.08 1.69.81 1.62 1.63zm5.38 8.87c-.04.4-.45.7-.93.66-.48-.03-.84-.4-.81-.81.03-.41.45-.71.93-.67.48.04.84.41.81.82zm71.35-14.33s-4.91 20.25-13.33 21.91c-8.43 1.65-17.55-1.64-17.55-1.64s-.87-23.8 3.44-26.9c4.31-3.13 14.25-7.64 27.44 6.63z" fill="#fff"/><path d="M171.14 150.95s.19.06.62.24c.11-7.3.78-17.33 3.48-19.25 4-2.95 13.05-7.1 25.14 4.26 1.09-3.14 1.64-5.52 1.64-5.52-13.21-14.3-23.16-9.8-27.43-6.67-4.32 3.12-3.45 26.94-3.45 26.94z" fill="#d6b496"/><path d="M176.13 140.64c0 4.61 3.71 8.34 8.29 8.34 4.58 0 8.29-3.73 8.29-8.34 0-4.61-3.71-8.34-8.29-8.34-4.58 0-8.29 3.73-8.29 8.34z" fill="#482315"/><path d="M184.81 146.19c2.39-.2 4.23-2.63 4.01-5.3-.21-2.67-2.42-4.76-4.82-4.56-2.39.2-4.23 2.63-4.02 5.3.22 2.67 2.43 4.77 4.83 4.56z" fill="#7e3a22"/><path d="M184.6 145.23c1.67-.14 3.4-1.98 3.21-4.25-.18-2.27-2.19-3.8-3.85-3.67-1.67.15-3.4 1.99-3.21 4.26.18 2.27 2.19 3.8 3.85 3.66z" fill="#211a10"/><path d="M185.95 139.64c.07.82.9 1.42 1.86 1.34.96-.08 1.69-.82 1.62-1.63-.07-.82-.9-1.42-1.86-1.34-.96.08-1.69.81-1.62 1.63zm-5.38 4.74c.04.41.45.71.93.67.48-.04.84-.41.81-.82-.03-.41-.45-.71-.93-.67-.48.04-.84.41-.81.82z" fill="#fff"/><path d="M145.16 131.11c-.06-.1-1.59-2.44-4.72-4.85-1.96-1.51-3.87-2.66-5.87-3.52a30.429 30.429 0 0 0-7.55-2.09c-2.28-.25-4.81-.19-7.77.21-2.25.44-4.45 1.11-6.31 1.94-1.34.46-2.39 1.11-3.23 1.63-.32.2-.62.38-.92.54l-4.02 2.54 4.64-1.09c.21-.06.45-.12.7-.19.96-.25 2.15-.57 3.55-.78.33-.05.67-.11 1.01-.18.58-.12 1.18-.24 1.81-.27.71-.05 1.44-.1 2.19-.15l.97-.07c2.57-.04 4.74.16 6.67.61 2.1.36 4.27 1.05 6.25 1.97 1.88.9 3.68 1.8 5.08 2.83 2.83 1.91 4.41 3.49 4.43 3.51.39.39.91.59 1.43.59.38 0 .76-.1 1.1-.32.93-.62 1.19-1.89.6-2.8l-.04-.06zm57.7-6.16c-.27-.14-.56-.33-.88-.52-.85-.53-1.9-1.17-3.19-1.62-1.91-.84-4.1-1.51-6.39-1.95-2.92-.4-5.46-.46-7.75-.21a30.19 30.19 0 0 0-7.54 2.1c-1.96.84-3.94 2.02-5.87 3.51-3.07 2.37-4.59 4.67-4.71 4.84l-.03.04c-.52.81-.4 1.88.27 2.56.38.38.88.6 1.42.6.54 0 1.05-.22 1.43-.6l.02-.02c.15-.15 1.68-1.65 4.42-3.5 1.38-1.02 3.18-1.92 5.05-2.82 2-.92 4.16-1.61 6.3-1.98 1.9-.44 4.07-.63 6.61-.61l1.02.08c.74.05 1.46.1 2.17.15.62.03 1.23.15 1.81.27.34.07.67.13 1 .18 1.4.21 2.6.53 3.56.78.25.07.48.13.7.19l4.64 1.09-4.06-2.56z" fill="#030405"/><path d="M215.06 159.75c1.29 0-.09-7.22 4.23-12.2 4.32-4.97 10.9-21.73 10.9-38.46s-5.63-31.61-20.32-47.44c-14.7-15.82-36.3-23.5-36.3-23.5l9.94 9.48s-5.36-7.7-24.6-13.87c-15.18-4.85-25.01.56-25.01.56s10.01-.36 13.05 4.2c.75 1.16 3.57 2.91 3.57 2.91s-4.66-10.92-26.27-1.87c-21.6 9.05-21.21 25.26-36.24 30.23-15.39 5.1-19.85-1.44-19.85-1.44s6.67 11.46 18.53 11.49c2.28 0 2.12-.06 2.12-.06s-4.44 12.29-5.29 21.47c-.87 9.35 1.84 15.75 2.68 33.25.72 14.96 4.62 7.29 9.27 18.32 1.57 3.7 1.63 7.86 1.63 7.86 1.73.43 6.25-8.98 3-25.34-2.11-10.62 8.33-50.87 33.52-43.02 15.41 4.8 19.3 14.58 30.82 5.89 9.93-7.48 23.82-11.78 34.19-5.87 10.38 5.93 16.22 19.24 14.41 40.49-2.31 27.12 2.02 26.92 2.02 26.92z" fill="#fff"/><path d="M183.6 230.53h-.01c-1.95-4.52-4.09-9.29-4.4-9.55-.53-.44-6.21-1.27-6.11-.85.15.58.79 6.02.79 6.02l-15.6 16.41-3 10.211-3.47-10.211-13.72-14.9s1.13-6.43 1.11-6.78c-.03-.43-6.72.38-7.24.83-.29.24-2.12 4.3-3.93 8.46l27.26 38.69 28.32-38.33z" fill="#9c3232"/><path d="M183.6 230.53l-21.57 29.19c-3.33 4.5-10.08 4.43-13.3-.15l-20.71-29.4v70.7h55.58v-70.34zm-88.17 48.09c-.49 3.141-.87 6.49-1.14 10.04-.26 3.621-.42 7.43-.42 11.51 0 0 .5.23 1.48.7h19.42V238.2c-7.7 6.74-15.98 18.831-19.34 40.42zm123.11 21.55c0-4.07-.18-7.88-.47-11.51-.28-3.56-.7-6.889-1.22-10.04-3.59-21.49-12.3-33.6-20-40.3v62.55h19.38c.86-.03 2.31-.7 2.31-.7z" fill="#7f2828"/><path d="M127.83 230.62c-2.99.94-7.9 3.06-13.06 7.58v62.67h13.25v-70.7c-.06.15-.13.3-.19.45zm68.6 7.33c-.33-.32-.67-.61-1.06-.89-2.58-2.09-5.1-3.63-7.27-4.7-.38-.18-.71-.37-1.06-.51-1.32-.6-2.47-1.02-3.44-1.32v70.34h13.25v-62.55c-.14-.12-.28-.26-.42-.37z" fill="#343839"/></g></svg>