<svg viewBox="0 0 299 301" xmlns="http://www.w3.org/2000/svg" fill-rule="evenodd" clip-rule="evenodd" stroke-linejoin="round" stroke-miterlimit="1.414"><g fill-rule="nonzero"><path fill="#f27068" d="M1.442.48H298.31v299.7H1.442z"/><path d="M150.18 187.55v112.63H89.465c-1.008-.39-1.502-.6-1.502-.6 0-14.36 2.119-25.57 5.308-34.32 3.786-10.28 9.094-17.15 14.3-21.72 5.429-4.8 10.759-7.06 14.089-8.09l.05-.02c2.11-.64 3.41-.8 3.41-.8.25 0 .45-.02.68-.06 1.91-.31 3.46-1.98 4.71-4.63.93-1.98 1.69-4.51 2.33-7.41.24-1.13.45-2.28.63-3.52.31-2.1.6-4.28.85-6.56.1-1.38.24-2.72.41-4.16.53-6.89.68-14.42.68-21.58 0 0 8.169.84 14.77.84z" fill="#e0bd9a"/><path d="M212.64 299.58s-.53.21-1.44.6h-61.02V187.55h.139c6.591 0 14.841-.84 14.841-.84 0 7.1.14 14.55.68 21.44.16 1.34.31 2.72.41 4.05.25 2.39.53 4.63.88 6.71v.04c.11.95.29 1.79.46 2.68.59 2.94 1.31 5.51 2.2 7.57 1.09 2.57 2.4 4.38 4.03 5.08.51.23 1.05.35 1.63.35 0 0 1.13.14 3 .68.8.24 1.77.55 2.82.99 3.27 1.27 7.57 3.53 11.93 7.38 5.16 4.57 10.39 11.4 14.14 21.58 3.2 8.75 5.3 19.96 5.3 34.32z" fill="#efd0ad"/><path d="M167.13 218.7v.05c-1.53 2.36-6.67 9.16-16.85 9.16h-.1c-9.63-.05-15.26-7.05-16.7-9.12.3-2.06.6-4.23.84-6.5.1-1.33.25-2.71.4-4.14 4.69 1.19 9.83 1.92 15.27 2.02h.19c5.639-.1 10.83-.88 15.67-2.16.15 1.33.29 2.71.39 4.04.25 2.36.55 4.58.89 6.65z" fill="#be987f"/><path d="M149.49 59.22c-64.334 0-64.679 53.95-61.814 89.27-4.397-8.37-17.493-5.81-16.405 7.39 1.038 12.71 19.745 19.19 19.222 17.79 9.743 26.12 35.527 45.81 58.997 45.81h.5V59.22h-.5z" fill="#d2a686"/><path d="M75.373 150.31c3.162-5.12 8.104-2.9 9.289-1.77 1.285 1.23 2.322 2.81 1.532 5.81-.445 1.73-2.224 1.88-1.829 4.44.494 2.91 1.829 3.05 2.619 3.74.741.64 1.68 1.14 2.125 2.37.494 1.23.544 2.51.297 3.64-.494 2.07-3.508.4-5.534-.49-1.334-.64-5.584-4.24-6.671-5.42-2.669-3.05-3.953-8.97-1.828-12.32z" fill="#ac8774"/><path d="M149.839 59.22c64.331 0 64.681 53.95 61.861 89.27 4.4-8.37 17.45-5.81 16.36 7.39-.99 12.71-19.73 19.19-19.22 17.79-9.49 26.12-35.53 45.81-59.001 45.81h-.349l-.151-160.26h.5z" fill="#ddb598"/><path d="M223.96 150.31c-3.16-5.12-8.06-2.9-9.29-1.77-1.29 1.23-2.27 2.81-1.53 5.81.44 1.73 2.22 1.88 1.82 4.44-.49 2.91-1.82 3.05-2.56 3.74-.75.64-1.73 1.14-2.18 2.37-.44 1.23-.54 2.51-.3 3.64.5 2.07 3.51.4 5.54-.49 1.38-.64 5.58-4.24 6.67-5.42 2.72-3.05 3.95-8.97 1.83-12.32z" fill="#ac8774"/><path d="M148.99 74.44c-21.15 0-36.67 6.16-46.008 18.28-13.094 17-12.6 42.91-7.807 61.54 1.482 5.71 2.273 21.03 3.261 26.65 4.595 25.17 32.314 38.57 50.554 38.57h.49V74.44h-.49z" fill="#e0bd9a"/><path d="M194.94 92.77c-9.29-12.07-24.61-18.23-45.46-18.33v145.04c20.85-.24 45.81-14.92 50.06-38.57 1.03-5.62 1.78-20.94 3.26-26.65 4.84-18.58 5.33-44.44-7.86-61.49z" fill="#efd0ad"/><path d="M146.11 193.77c-.11-.02-.21-.04-.31-.06.1.02.19.04.31.06zm-.791-.17c-.089-.03-.179-.05-.269-.08l-.01.01s.11.02.279.07z" fill="#bc917b"/><path d="M137.199 174.96c-.24-5.01 9.181-1.83 12.291-1.68 2.449.13 9.92-1.58 10.56-1.14 4.4 2.97-4.65 8.96-10.721 8.96-1.609 0-11.979-3.12-12.13-6.14z" fill="#ddb598"/><path d="M131.52 74.81l-.27.26.05.09c.08-.13.13-.27.22-.35z" fill="#432e1b"/><path d="M146.28 190.83c-.1-.02-.211-.04-.31-.07.099.03.19.05.31.07zm-.81-.18c-.09-.02-.18-.05-.271-.08l-.01.01s.101.03.281.07z" fill="#ba907b"/><path d="M103.327 131.05s4.908 20.2 13.333 21.85c8.43 1.65 17.55-1.63 17.55-1.63s.87-23.74-3.44-26.84c-4.32-3.11-14.25-7.61-27.443 6.62z" fill="#fff"/><path d="M134.22 151.21s-.19.06-.63.24c-.1-7.28-.78-17.28-3.47-19.2-4.01-2.94-13.05-7.08-25.137 4.24-1.099-3.13-1.65-5.5-1.65-5.5 13.217-14.26 23.157-9.77 27.437-6.65 4.32 3.11 3.45 26.87 3.45 26.87z" fill="#d6b496"/><path d="M129.23 140.92c0 4.6-3.71 8.32-8.29 8.32-4.58 0-8.3-3.72-8.3-8.32 0-4.59 3.72-8.32 8.3-8.32s8.29 3.73 8.29 8.32z" fill="#482315"/><path d="M120.55 146.46c-2.39-.19-4.23-2.62-4.01-5.28.21-2.67 2.42-4.75 4.81-4.55 2.4.19 4.24 2.62 4.02 5.28-.21 2.67-2.42 4.76-4.82 4.55z" fill="#7e3a22"/><path d="M120.76 145.5c-1.67-.14-3.4-1.97-3.21-4.23.18-2.27 2.18-3.8 3.85-3.66 1.67.14 3.39 1.98 3.21 4.24-.18 2.26-2.19 3.79-3.85 3.65z" fill="#211a10"/><path d="M119.41 139.93c-.07.82-.91 1.41-1.86 1.33-.96-.08-1.69-.81-1.62-1.62.07-.82.9-1.42 1.86-1.34.96.08 1.68.81 1.62 1.63zm5.38 4.72c-.04.41-.46.71-.93.67-.49-.04-.85-.41-.82-.81.04-.41.46-.71.93-.67.49.04.85.4.82.81z" fill="#fff"/><path d="M146.41 193.21c-.1-.02-.201-.04-.31-.06.099.02.19.04.31.06zm-.8-.18c-.1-.02-.19-.05-.281-.07h-.01s.111.03.291.07z" fill="#ba907b"/><path d="M146.04 192.64zm-.87-.19c-.101-.03-.19-.06-.29-.08h-.02l.31.08zm.62-.65zm-.87-.2c-.101-.02-.19-.05-.29-.08l-.01.01s.11.03.3.07zm5.43-2.48h.01-.01zm-3.79 2.56zm-.84-.18c-.1-.03-.19-.06-.281-.08h-.009l.29.08zm4.63-.02h.01-.01z" fill="#bc917b"/><path d="M196.14 130.37s-4.91 20.19-13.34 21.84c-8.42 1.65-17.54-1.63-17.54-1.63s-.88-23.73 3.44-26.83c4.31-3.12 14.25-7.62 27.44 6.62z" fill="#fff"/><path d="M165.25 150.52s.19.06.62.24c.11-7.28.78-17.28 3.47-19.2 4.01-2.94 13.06-7.08 25.14 4.24 1.1-3.12 1.65-5.5 1.65-5.5-13.21-14.26-23.16-9.77-27.44-6.65-4.32 3.11-3.44 26.87-3.44 26.87z" fill="#d6b496"/><path d="M170.23 140.24c0 4.59 3.72 8.32 8.3 8.32s8.29-3.73 8.29-8.32c0-4.6-3.71-8.32-8.29-8.32-4.58 0-8.3 3.72-8.3 8.32z" fill="#482315"/><path d="M178.91 145.78c2.4-.2 4.24-2.63 4.02-5.29-.22-2.67-2.42-4.75-4.82-4.55-2.4.2-4.23 2.62-4.02 5.28.22 2.67 2.43 4.76 4.82 4.56z" fill="#7e3a22"/><path d="M178.71 144.82c1.66-.15 3.39-1.98 3.21-4.24-.19-2.27-2.19-3.8-3.86-3.66-1.66.14-3.39 1.98-3.21 4.24.19 2.27 2.19 3.79 3.86 3.66z" fill="#211a10"/><path d="M180.06 139.24c.07.82.9 1.41 1.86 1.34.96-.09 1.68-.82 1.62-1.63-.07-.82-.9-1.42-1.86-1.34-.96.08-1.69.81-1.62 1.63zm-5.38 4.73c.03.4.45.7.93.66.48-.04.84-.4.81-.81-.03-.41-.45-.71-.93-.67-.48.04-.84.41-.81.82z" fill="#fff"/><path d="M139.27 130.73c-.061-.1-1.59-2.43-4.72-4.83-1.96-1.51-3.88-2.66-5.87-3.51a30.548 30.548 0 0 0-7.55-2.09c-2.28-.25-4.82-.19-7.77.21-2.253.43-4.452 1.11-6.318 1.93-1.331.46-2.382 1.11-3.227 1.63-.323.19-.616.37-.913.54l-4.025 2.53 4.638-1.09c.217-.05.451-.12.702-.18.959-.26 2.154-.58 3.554-.78.328-.05.661-.12 1.002-.18.583-.12 1.186-.24 1.819-.27.702-.05 1.428-.1 2.178-.15l.98-.08c2.57-.03 4.73.17 6.66.61 2.11.37 4.28 1.05 6.26 1.97 1.88.9 3.67 1.8 5.08 2.83 2.83 1.9 4.41 3.48 4.42 3.49.39.4.909.6 1.44.6.38 0 .76-.11 1.089-.33.941-.61 1.201-1.88.601-2.79l-.03-.06zm57.7-6.14c-.27-.15-.56-.33-.89-.53-.84-.51-1.89-1.16-3.18-1.6-1.91-.84-4.11-1.52-6.39-1.95-2.93-.4-5.46-.46-7.75-.21a30.79 30.79 0 0 0-7.55 2.09c-1.96.84-3.93 2.02-5.86 3.51-3.07 2.36-4.6 4.65-4.71 4.82l-.03.05c-.52.8-.41 1.87.26 2.54.38.39.89.6 1.43.6.54 0 1.05-.21 1.43-.6l.01-.01c.15-.15 1.68-1.65 4.43-3.5 1.38-1.01 3.18-1.91 5.05-2.81 1.99-.92 4.16-1.6 6.29-1.97 1.9-.44 4.08-.63 6.61-.61l1.03.08c.74.05 1.46.1 2.17.15.62.03 1.22.15 1.81.27.34.06.67.13 1 .18 1.4.2 2.59.52 3.55.78.25.06.49.13.71.18l4.64 1.09-4.06-2.55z" fill="#030405"/><path d="M144.959 195.6l-.329-.06c.11.02.199.04.329.06zm-.849-.18c-.1-.03-.19-.06-.291-.09l-.009.01s.12.03.3.08z" fill="#be927b"/><path d="M137.589 199.77c-.239-3.25 9.021.68 12.061.78 2.419.08 9.71-.49 10.39-.74 5.09-1.91-.28 5.43-10.54 5.81-4.7.19-11.77-3.88-11.911-5.85z" fill="#f0d2ad"/><path d="M167.74 193.51c-2.52-.12-5.1 1.98-8.12 1.66-.12-.06-.181-.06-.31-.06-.7-.13-1.39 0-2.14.18-.94.2-1.89.58-2.77.89-1.52.49-3.22.89-4.97.75v.01l-.101-.01-.099.01v-.01c-1.75.14-3.45-.26-4.96-.75-.89-.31-1.831-.69-2.77-.89-.76-.18-1.45-.31-2.14-.18-.13 0-.19 0-.32.06-3.02.32-5.6-1.78-8.11-1.66-.7.06-1.71-.12-2.27-.12.12.06.25.12.38.18 7.159 3.51 13.35 10.07 20.19 9.86h.2c6.85.21 13.03-6.35 20.2-9.86.12-.06.25-.12.38-.18-.57 0-1.58.18-2.27.12z" fill="#dcbf9e"/><path d="M169.84 193.31s-7.28-2.81-12.46-1.16c0 0-1.931.75-3.931 1.21-1.219.48-2.689.61-4.12.56-1.089-.05-2.12-.18-2.979-.33-.281-.05-.56-.11-.85-.17a3.2 3.2 0 0 1-.33-.07c-.17-.04-.341-.07-.51-.12-.19-.04-.3-.07-.3-.07l.01-.01c-1.661-.45-3.08-1-3.08-1-5.18-1.65-12.47 1.16-12.47 1.16l-.16.08c.56 0 1.57.18 2.27.12 2.51-.12 5.09 1.98 8.11 1.66.13-.06.19-.06.32-.06.69-.13 1.38 0 2.14.18.939.2 1.88.58 2.77.89 1.51.49 3.21.89 4.96.75v.01l.099-.01.101.01v-.01c1.75.14 3.45-.26 4.97-.75.88-.31 1.83-.69 2.77-.89.75-.18 1.44-.31 2.14-.18.129 0 .19 0 .31.06 3.02.32 5.6-1.78 8.12-1.66.69.06 1.7-.12 2.27-.12 0 0-.07-.03-.17-.08z" fill="#c69f83"/><path d="M137.089 195.03c.141.03 13.661 4.16 24.231.09l-1.22-.83h-14.29l-8.721.74z" fill="#c69f83"/><path d="M152.339 287.75h-.049.049z" fill="#fff"/><path d="M212.64 299.58s-.53.21-1.44.6H89.465c-1.008-.39-1.502-.6-1.502-.6 0-14.36 2.119-25.57 5.308-34.32 3.786-10.28 9.094-17.15 14.3-21.72 7.299 13.56 22.529 36.19 42.609 35.96 12.67-.14 27.26-9.38 43.02-35.82 5.16 4.57 10.39 11.4 14.14 21.58 3.2 8.75 5.3 19.96 5.3 34.32z" fill="#511f25"/><path d="M193.2 243.68c-15.76 26.44-30.35 35.68-43.02 35.82-20.08.23-35.31-22.4-42.609-35.96 5.429-4.8 10.759-7.06 14.089-8.09l.05-.02 14.91 17.18c3.579 4.12 8.56 6.17 13.56 6.17a17.8 17.8 0 0 0 13.6-6.29l14.67-17.18c.8.24 1.77.55 2.82.99 3.27 1.27 7.57 3.53 11.93 7.38zm-37.361 49.94l-4.239 6.56h-2.92l-4.241-6.56 5.701-8.38.04.06 5.659 8.32zm19.281 0l-4.24 6.56h-2.9l-4.24-6.56 5.7-8.38 5.68 8.38zm-38.58 0l-4.24 6.56h-2.9l-4.24-6.56 5.7-8.38 5.68 8.38zm-19.28 0l-4.24 6.56h-2.919l-4.238-6.56 5.697-8.38 5.7 8.38zm77.15 0l-4.23 6.56h-2.9l-4.24-6.56 5.68-8.38 5.69 8.38z" fill="#b74e6c"/><path d="M227.89 75.39c-1.96-7.76-5.28-10.45-7.98-9.93 0 0-125.788 6.09-140.503-.46-.159-.16-.394-.29-.763-.36-2.696-.51-6.012 2.17-7.979 9.93-1.964 7.77-.699 14.41.274 12.17 0 0 85.181 12.59 157.851 1.25l-.29-.75c.56-1.73.75-6.49-.61-11.85z" fill="#9aca3c"/><path d="M79.689 65.07c-1.241.92-27.409-26.72-49.696 7.79-14.41 22.32 15.123 75.55-29.744 75.57 5.738-.2 17.043.68 23.596-2.75-23.771 10.57-13.654 32.91-5.655 50.37-6.719-26.15 29.26-26.88 35.13-49.83 2.246 4.8 3.321 10.47 1.718 15.57 18.127-15.79 1.173-36.36 6.93-55.8 3.183-10.75 17.721-40.92 17.721-40.92z" fill="#3f1615"/><path d="M102.298 148.54s-.45-5.87 7.852-24.85c2.15-4.91 7.83-31.17 7.83-31.17s-.9 25.32 14.29 32.32c0 0-2.8-7.4 3.419-24.3 0 0 15.741 24.97 18.661 45.09 0 0 21.54-28.19 13.17-51.76 0 0 8.94 10.48 8.94 28.8 0 0 12.16-9.56 11.88-27.18 0 0 9.3 32.43 6.76 52.26 0 0 9.38-12.55 9.04-23.73 0 0 4.29 25.4 3.72 33.91-.97 14.64-6.83 27.78-6.83 27.78s21.68-3.57 22.07-78.34c.11-23.42-5.83-69.96-71.271-70.28-15.439-.07-39.799.63-60.802 22.65-16.231 17.02-16.418 55.77-13.37 77.52 5.586 39.82 20.666 51.87 20.666 51.87s-5.148-22.66-5.469-30.33c-.342-7.89 2.949-31.48 2.949-31.48s-.176 15.67 6.495 21.22z" fill="#562625"/><path d="M218.87 65.07c1.24.92 27.41-26.72 49.7 7.79 14.41 22.32-15.12 75.55 29.74 75.57-5.73-.2-17.04.68-23.59-2.75 23.77 10.57 13.65 32.91 5.66 50.37 6.72-26.15-29.26-26.88-35.13-49.83-2.25 4.8-3.33 10.47-1.73 15.57-18.13-15.79-1.17-36.36-6.93-55.8-3.18-10.75-17.72-40.92-17.72-40.92z" fill="#3f1615"/><path d="M75.589 144.98c.433-1.84 1.325-3.2 2.595-4.22.164 1.02.335 2.03.512 3.01a8.216 8.216 0 0 0-3.107 1.21z" fill="#854d4c"/><path d="M92.939 153.99c.12-2.24.33-4.81.584-7.45.423 2.45.928 4.83 1.497 7.11-.698.1-1.391.22-2.081.34zm-17.498-3.79c-.017-.15-.034-.32-.05-.48-.189-1.86-.113-3.43.198-4.74a8.216 8.216 0 0 1 3.107-1.21c.21 1.18.429 2.32.655 3.44-1.356.3-2.748 1.17-3.91 2.99z" fill="#756258"/><path d="M77.285 157.94c-.852-2.12-1.506-4.67-1.844-7.74 1.162-1.82 2.554-2.69 3.91-2.99.683 3.38 1.433 6.51 2.23 9.41-1.459.42-2.891.86-4.296 1.32z" fill="#665651"/><path d="M133.67 155.72l-.44-.12c-3.62-1-7.2-1.74-10.75-2.24 6.33-.15 11.73-2.09 11.73-2.09v-.06h.01s.15-4.2.01-9.3c.17.17.29.36.37.54 1.239 3 1.54 6.4.15 10.67-.31.91-.67 1.78-1.08 2.6zm-38.65-2.07a98.937 98.937 0 0 1-1.497-7.11c.305-3.18.672-6.47 1.022-9.41.747-.05 1.486-.09 2.216-.13.856 4.32 2.476 8.99 5.537 11.54 0 0-.232-3.02 2.698-11.72h.077c2.01 5.78 5.691 14.06 10.727 15.84-1.97-.13-3.93-.19-5.857-.19h-.043c-5.113 0-10.089.43-14.88 1.18z" fill="#7a6b60"/><path d="M122.48 153.36c-2.25-.33-4.48-.55-6.68-.7-5.036-1.78-8.717-10.06-10.727-15.84 3.162.02 6.03.14 8.487.3a8.235 8.235 0 0 0-.92 3.8c0 4.6 3.72 8.32 8.3 8.32s8.29-3.72 8.29-8.32c0-.46-.04-.91-.11-1.36 1.53.43 2.87.91 3.86 1.44.4 3.38.57 7.19.61 10.45.38-.16.58-.22.62-.24v.06s-5.4 1.94-11.73 2.09z" fill="#838285"/><path d="M133.59 151.45c-.04-3.26-.21-7.07-.61-10.45.53.29.96.59 1.25.91.14 5.1-.01 9.3-.01 9.3h-.01c-.04.02-.24.08-.62.24z" fill="#76685f"/><path d="M120.94 149.24c-4.58 0-8.3-3.72-8.3-8.32 0-1.37.33-2.66.92-3.8.64.04 1.26.08 1.84.12.86.07 1.89.18 3.03.32-.27.22-.52.46-.74.73h-.07c-.89 0-1.63.58-1.69 1.35-.04.49.21.96.63 1.27-.01.09-.02.18-.02.27-.22 2.66 1.62 5.09 4.01 5.28.11.01.22.02.32.02 1.06 0 2.07-.44 2.87-1.18.04.01.08.02.12.02h.08c.44 0 .81-.29.85-.67a.64.64 0 0 0-.15-.46c.4-.67.67-1.45.73-2.28.1-1.26-.25-2.47-.92-3.41 1.63.3 3.23.66 4.67 1.06.07.45.11.9.11 1.36 0 4.6-3.71 8.32-8.29 8.32z" fill="#341f19"/><path d="M120.87 146.48c-.1 0-.21-.01-.32-.02-2.39-.19-4.23-2.62-4.01-5.28 0-.09.01-.18.02-.27.27.19.61.32.99.35v.01c-.19 2.26 1.54 4.09 3.21 4.23.07.01.14.01.21.01.71 0 1.46-.28 2.1-.79.07.28.33.52.67.58-.8.74-1.81 1.18-2.87 1.18zm3.77-2.29a.904.904 0 0 0-.67-.35h-.07c.39-.56.65-1.23.71-1.99.13-1.53-.63-2.87-1.65-3.62.5.08 1 .17 1.49.27.67.94 1.02 2.15.92 3.41-.06.83-.33 1.61-.73 2.28zm-5.86-5.53c-.27-.2-.61-.33-.99-.36-.04 0-.07 0-.1-.01.22-.27.47-.51.74-.73.55.07 1.13.15 1.72.23-.49.18-.96.48-1.37.87z" fill="#512f24"/><path d="M120.97 145.51c-.07 0-.14 0-.21-.01-1.67-.14-3.4-1.97-3.21-4.23v-.01c.05.01.11.01.16.01.89 0 1.63-.57 1.7-1.34.04-.5-.21-.96-.63-1.27.41-.39.88-.69 1.37-.87.91.13 1.86.28 2.81.44 1.02.75 1.78 2.09 1.65 3.62-.06.76-.32 1.43-.71 1.99h-.01c-.44 0-.81.29-.85.67 0 .07.01.14.03.21-.64.51-1.39.79-2.1.79z" fill="#1b1816"/><path d="M117.71 141.27c-.05 0-.11 0-.16-.01-.38-.03-.72-.16-.99-.35-.42-.31-.67-.78-.63-1.27.06-.77.8-1.35 1.69-1.35h.07c.03.01.06.01.1.01.38.03.72.16.99.36.42.31.67.77.63 1.27-.07.77-.81 1.34-1.7 1.34zm6.23 4.05h-.08c-.04 0-.08-.01-.12-.02-.34-.06-.6-.3-.67-.58a.761.761 0 0 1-.03-.21c.04-.38.41-.67.85-.67h.08c.29.02.53.16.67.35.11.13.16.29.15.46-.04.38-.41.67-.85.67z" fill="#838285"/><path d="M81.581 156.62c-.797-2.9-1.547-6.03-2.23-9.41-.226-1.12-.445-2.26-.655-3.44-.177-.98-.348-1.99-.512-3.01 3.105-2.49 8.472-2.96 14.948-3.52.474-.04.945-.07 1.413-.11-.35 2.94-.717 6.23-1.022 9.41-.254 2.64-.464 5.21-.584 7.45-3.928.69-7.725 1.59-11.358 2.63zm20.717-8.08c-3.061-2.55-4.681-7.22-5.537-11.54 2.537-.13 4.971-.18 7.264-.18h.971c-2.93 8.7-2.698 11.72-2.698 11.72z" fill="#3c2223"/><path d="M222.84 144.46a8.59 8.59 0 0 0-2.12-.68c.11-.79.22-1.6.33-2.42.81.82 1.42 1.84 1.79 3.1z" fill="#854d4c"/><path d="M207.8 152.83c-1.53-.13-3.06-.22-4.58-.28 1.15-4.75 2-9.94 2.42-15.29.17.01.34.03.51.04.71 5.21 1.4 11.01 1.65 15.53zm15.41-3.56c-.95-1.13-2-1.74-3.03-2.01.19-1.13.37-2.29.54-3.48.72.13 1.44.36 2.12.68.39 1.32.52 2.9.37 4.81z" fill="#79685f"/><path d="M222.21 155.13c-.18-.04-.35-.09-.52-.13-.02 0-.05-.01-.07-.01l-.25-.06-.28-.06c-.76-.17-1.51-.33-2.27-.48.49-2.22.94-4.59 1.36-7.13 1.03.27 2.08.88 3.03 2.01-.01.15-.03.3-.04.45-.2 2.01-.53 3.8-.96 5.41z" fill="#665651"/><path d="M165.92 157.53c-.86-1.33-1.57-2.79-2.11-4.41-1.39-4.27-1.1-7.67.14-10.67.19-.44.64-.86 1.28-1.25-.14 5.11.02 9.32.02 9.32v.01c.01.03.01.05.01.05s5.82 2.1 12.46 2.1c1.67 0 3.39-.14 5.08-.47 5.28-1.03 9.17-9.33 11.35-15.39h1.32c.15 3.86.06 7.58-.37 10.93 0 0 3.46-4.63 6.1-10.78 1.38.07 2.79.16 4.22.27.08.01.15.01.22.02a98.134 98.134 0 0 1-2.42 15.29c-1.31-.05-2.61-.07-3.91-.07h-.04c-11.68 0-22.69 1.96-32.51 4.8-.06.02-.11.03-.16.05-.13.04-.25.07-.38.11l-.3.09z" fill="#7f7267"/><path d="M177.72 152.68c-6.64 0-12.46-2.1-12.46-2.1s0-.02-.01-.05c.05.01.24.07.62.23.05-3.17.2-6.86.58-10.18 1.07-.46 2.39-.87 3.83-1.24-.03.29-.05.59-.05.9 0 4.59 3.72 8.32 8.3 8.32s8.29-3.73 8.29-8.32c0-1.13-.22-2.21-.63-3.19 2.36-.13 5.04-.23 7.96-.23-2.18 6.06-6.07 14.36-11.35 15.39-1.69.33-3.41.47-5.08.47z" fill="#838285"/><path d="M165.87 150.76c-.38-.16-.57-.22-.62-.23v-.01s-.16-4.21-.02-9.32c.36-.21.77-.42 1.22-.62-.38 3.32-.53 7.01-.58 10.18z" fill="#76685f"/><path d="M178.53 148.56c-4.58 0-8.3-3.73-8.3-8.32 0-.31.02-.61.05-.9 1.38-.36 2.88-.67 4.38-.95-.43.84-.65 1.82-.57 2.83.07.84.33 1.61.73 2.28-.1.13-.15.3-.14.47.03.38.4.67.84.67.03 0 .06-.01.09-.01.04 0 .08-.01.12-.01.79.73 1.8 1.17 2.86 1.17.11 0 .22 0 .32-.01 2.4-.2 4.24-2.63 4.02-5.29l-.03-.27c.42-.31.68-.77.64-1.27-.07-.77-.81-1.34-1.69-1.34h-.08c-.06-.08-.12-.15-.18-.22.57-.06 1.09-.11 1.57-.15.93-.07 1.95-.14 3.03-.19.41.98.63 2.06.63 3.19 0 4.59-3.71 8.32-8.29 8.32z" fill="#341f19"/><path d="M178.59 145.79c-1.06 0-2.07-.44-2.86-1.17.34-.07.59-.3.67-.58.64.5 1.39.78 2.1.78h.21c1.66-.15 3.39-1.98 3.21-4.24.37-.04.71-.17.98-.36l.03.27c.22 2.66-1.62 5.09-4.02 5.29-.1.01-.21.01-.32.01zm-3.77-2.29c-.4-.67-.66-1.44-.73-2.28-.08-1.01.14-1.99.57-2.83.38-.07.77-.13 1.15-.2a4.15 4.15 0 0 0-.96 2.97c.07.76.33 1.43.72 1.99h-.08a.98.98 0 0 0-.67.35zm5.86-5.52c-.16-.16-.33-.3-.5-.42.49-.06.96-.12 1.41-.17.06.07.12.14.18.22h-.09c-.38.03-.72.17-1 .37z" fill="#512f24"/><path d="M178.5 144.82c-.71 0-1.46-.28-2.1-.78a.55.55 0 0 0 .02-.22c-.03-.38-.4-.67-.84-.67h-.01c-.39-.56-.65-1.23-.72-1.99-.09-1.15.32-2.2.96-2.97 1.52-.25 3.02-.47 4.37-.63.17.12.34.26.5.42-.41.3-.66.76-.62 1.26.06.77.8 1.34 1.69 1.34h.17c.18 2.26-1.55 4.09-3.21 4.24h-.21z" fill="#1b1816"/><path d="M181.75 140.58c-.89 0-1.63-.57-1.69-1.34-.04-.5.21-.96.62-1.26.28-.2.62-.34 1-.37h.17c.88 0 1.62.57 1.69 1.34.04.5-.22.96-.64 1.27-.27.19-.61.32-.98.36h-.17zm-6.23 4.06c-.44 0-.81-.29-.84-.67-.01-.17.04-.34.14-.47a.98.98 0 0 1 .67-.35h.09c.44 0 .81.29.84.67.01.07 0 .15-.02.22-.08.28-.33.51-.67.58-.04 0-.08.01-.12.01-.03 0-.06.01-.09.01z" fill="#838285"/><path d="M218.82 154.39c-3.71-.75-7.39-1.26-11.02-1.56-.25-4.52-.94-10.32-1.65-15.53 6.67.58 12.05 1.15 14.9 4.06-.11.82-.22 1.63-.33 2.42-.17 1.19-.35 2.35-.54 3.48-.42 2.54-.87 4.91-1.36 7.13zm-23.72-6.64c.43-3.35.52-7.07.37-10.93 1.83.01 3.75.06 5.73.15-2.64 6.15-6.1 10.78-6.1 10.78z" fill="#3c2223"/><path d="M97.172 169.51a69.499 69.499 0 0 1-2.897-.22c-.744-4.2-1.32-8.08-1.421-10.49-.055-1.26-.017-2.91.085-4.81.689-.12 1.384-.24 2.081-.34.051.2.103.4.155.61.83 3.2 1.444 9.41 1.997 15.25z" fill="#decab8"/><path d="M84.913 166.9c-2.688-1.46-5.682-4.1-7.628-8.96 1.404-.46 2.838-.9 4.296-1.32 1.048 3.82 2.175 7.24 3.332 10.28z" fill="#cbb9ad"/><path d="M101.338 169.62c-1.467 0-2.866-.04-4.166-.11-.553-5.84-1.167-12.05-1.997-15.25-.052-.21-.104-.41-.155-.61a96.194 96.194 0 0 1 14.88-1.18h.043c1.927 0 3.887.06 5.857.19.28.1.57.18.86.24 1.69.33 3.42.46 5.09.46h.73c3.55.5 7.13 1.24 10.75 2.24l.44.12c-5.69 11.38-21.04 13.9-32.332 13.9z" fill="#e4d5c3"/><path d="M121.75 153.36c-1.67 0-3.4-.13-5.09-.46-.29-.06-.58-.14-.86-.24 2.2.15 4.43.38 6.68.7h-.73z" fill="#f2f3f2"/><path d="M94.275 169.29c-1.85-.17-3.371-.4-4.428-.61-1.107-.24-2.937-.69-4.934-1.78a112.889 112.889 0 0 1-3.332-10.28c3.634-1.04 7.429-1.94 11.358-2.63-.102 1.9-.14 3.55-.085 4.81.101 2.41.677 6.29 1.421 10.49z" fill="#9c7d77"/><path d="M200.82 169.54c.55-5.85 1.15-12.08 1.98-15.28.14-.57.29-1.13.42-1.71 1.52.06 3.05.15 4.58.28.12 2.01.15 3.76.06 5.1-.26 3.89-.86 7.68-1.61 11.14-1.5.2-3.35.37-5.43.47z" fill="#e3d1c1"/><path d="M215.78 165.51c1.08-3.19 2.11-6.87 3.04-11.12.76.15 1.51.31 2.27.48l.28.06.25.06c.02 0 .05.01.07.01.17.04.34.09.52.13-1.41 5.22-3.9 8.41-6.43 10.38z" fill="#cbb9ad"/><path d="M197.23 169.62c-10.67 0-24.96-2.25-31.31-12.09l.3-.09c.13-.04.25-.07.38-.11.05-.02.1-.03.16-.05 9.81-2.84 20.83-4.8 32.51-4.8h.04c1.3 0 2.6.02 3.91.07-.13.58-.28 1.14-.42 1.71-.83 3.2-1.43 9.43-1.98 15.28-1.14.05-2.34.08-3.59.08z" fill="#ecdecc"/><path d="M206.25 169.07c.75-3.46 1.35-7.25 1.61-11.14.09-1.34.06-3.09-.06-5.1 3.63.3 7.31.81 11.02 1.56-.93 4.25-1.96 7.93-3.04 11.12-2.77 2.15-5.58 2.85-7.07 3.17-.65.13-1.48.27-2.46.39z" fill="#9c7d77"/><path d="M166.22 157.44c.13-.04.25-.07.38-.11-.13.04-.25.07-.38.11zm.54-.16c9.82-2.84 20.83-4.8 32.51-4.8-11.68 0-22.7 1.96-32.51 4.8z" fill="#b3aba4"/><path d="M223.17 149.72c-.2 2.01-.53 3.8-.96 5.41-2.94 10.93-10.64 12.93-13.5 13.55-6.89 1.37-33.44 3.34-42.79-11.15-.86-1.33-1.57-2.79-2.11-4.41-1.39-4.27-1.1-7.67.14-10.67 1.25-2.92 13.8-4.74 19.21-5.21 5.4-.4 13.28-.71 22.26 0 11.1.95 18.84 1.66 17.75 12.48zm-88.42 3.4c-.31.91-.67 1.78-1.08 2.6-8.24 16.46-36.66 14.39-43.823 12.96-2.599-.56-9.17-2.27-12.562-10.74-.896-2.23-1.574-4.93-1.894-8.22-1.095-10.82 6.716-11.53 17.741-12.48 8.908-.71 16.866-.4 22.268 0 5.4.47 17.96 2.29 19.2 5.21 1.239 3 1.54 6.4.15 10.67zm99.81-16.83c-.52-.63-9.71-1.5-21.69-2.29-10.22-.63-26.5-.24-32.93.4-2.55.23-7.37.86-12.12 1.65-5.33.95-10.51 2.22-12.7 2.53-2.11.28-3.77.37-5.48.34v-.02c-.12 0-.24.01-.36.01s-.24-.01-.37-.01v.02c-1.701.03-3.36-.06-5.471-.34-2.189-.31-7.379-1.58-12.709-2.53-4.74-.79-9.56-1.42-12.19-1.65-6.35-.64-22.633-1.03-32.854-.4-11.975.79-21.174 1.66-21.685 2.29-.292.48-1.023 6.32-.073 7.03.949.56 4.381 1.9 5.184 3.95.466 1.19 1.793 6.77 4.276 12.02 1.798 3.81 4.203 7.46 7.332 9.15 10.879 6.03 44.44 6.96 56.88-10.1a23.897 23.897 0 0 0 3.65-7.43c.949-3.4 2.189-5.38 4.449-5.93.87-.22 2.231-.37 3.581-.39 1.34.02 2.71.17 3.58.39 2.26.55 3.5 2.53 4.52 5.93.88 3.04 2.28 5.71 4.07 8.02 12.74 16.44 45.64 15.47 56.39 9.51 3.96-2.14 6.75-7.42 8.62-12.2 1.64-4.2 2.58-8.01 2.99-8.97.8-2.05 4.23-3.39 5.18-3.95.95-.71.22-6.55-.07-7.03z" fill="#1a1e1e"/></g></svg>