<svg viewBox="0 0 298 301" xmlns="http://www.w3.org/2000/svg" fill-rule="evenodd" clip-rule="evenodd" stroke-linejoin="round" stroke-miterlimit="1.414"><g fill-rule="nonzero"><path fill="#be1e2d" d="M.17.48h296.87v299.71H.17z"/><path d="M153.81 187.92v112.26H93.07c-.98-.39-1.48-.6-1.48-.6 0-7.16.54-13.56 1.46-19.22.44-2.61.95-5.08 1.55-7.38a66.51 66.51 0 0 1 2.3-7.61c.19-.48.35-.95.54-1.4.2-.52.41-1.01.61-1.5.21-.5.41-.97.64-1.44.41-.97.87-1.88 1.32-2.76.78-1.52 1.6-2.96 2.47-4.3.22-.37.45-.72.68-1.05 1.11-1.65 2.26-3.17 3.43-4.55.33-.37.66-.76.99-1.11.33-.37.66-.72.99-1.07.33-.33.68-.68 1-.99.33-.33.66-.63.99-.92.66-.62 1.34-1.2 2-1.71 3.23-2.59 6.34-4.34 8.97-5.49.33-.15.66-.29.99-.44 1.02-.41 1.95-.74 2.77-.98 2.14-.68 3.46-.83 3.46-.83.25 0 .45-.02.68-.06 1.91-.31 3.46-1.97 4.71-4.61.93-1.97 1.69-4.48 2.33-7.38.24-1.15.45-2.29.63-3.52.31-2.08.6-4.26.85-6.52.1-1.38.24-2.72.39-4.16.55-6.87.7-14.38.7-21.5 0 0 8.14.84 14.77.84z" fill="#e0bd9a"/><path d="M216.27 299.58s-.53.21-1.44.6h-61.02V187.92h.14c6.59 0 14.84-.84 14.84-.84 0 7.06.14 14.49.68 21.36.16 1.33.3 2.71.41 4.05.25 2.37.53 4.59.88 6.67v.04c.11.94.29 1.79.46 2.67.59 2.92 1.31 5.5 2.2 7.55 1.09 2.57 2.4 4.36 4.03 5.06.49.23 1.05.35 1.62.35 0 0 2.33.27 5.83 1.65 1.85.72 4.03 1.75 6.35 3.21.48.29.97.62 1.44.95.4.24.79.53 1.18.82.33.25.7.51 1.03.78.72.56 1.46 1.17 2.2 1.85.29.25.55.52.84.78.33.29.64.6.97.95.22.21.43.41.64.64.43.45.88.94 1.31 1.46.23.25.46.49.66.76.99 1.15 1.96 2.41 2.88 3.79.41.57.78 1.17 1.17 1.79.79 1.25 1.55 2.59 2.29 4.01.9 1.77 1.77 3.66 2.57 5.7.19.45.37.92.53 1.4.87 2.34 1.65 4.87 2.33 7.61.6 2.3 1.11 4.77 1.52 7.38.93 5.66 1.46 12.06 1.46 19.22z" fill="#efd0ad"/><path d="M170.76 218.95v.05c-1.53 2.36-6.67 9.13-16.85 9.13h-.1c-9.63-.04-15.27-7.02-16.7-9.08.3-2.06.59-4.23.84-6.48.1-1.33.25-2.71.4-4.13 4.69 1.18 9.83 1.92 15.27 2.01h.19c5.64-.09 10.82-.88 15.67-2.16.15 1.33.29 2.7.39 4.03.25 2.36.55 4.57.89 6.63z" fill="#be987f"/><path d="M153.12 59.97c-64.33 0-64.68 53.78-61.81 88.99-4.4-8.35-17.5-5.79-16.41 7.37 1.04 12.67 19.75 19.13 19.22 17.73 9.74 26.04 35.53 45.68 59 45.68h.5V59.97h-.5z" fill="#d2a686"/><path d="M79 150.78c3.16-5.11 8.11-2.9 9.29-1.77 1.29 1.23 2.32 2.8 1.53 5.8-.44 1.72-2.22 1.86-1.83 4.42.5 2.9 1.83 3.04 2.62 3.73.74.64 1.68 1.13 2.13 2.36.49 1.23.54 2.5.29 3.63-.49 2.07-3.5.4-5.53-.49-1.33-.64-5.58-4.22-6.67-5.4-2.67-3.05-3.95-8.94-1.83-12.28z" fill="#ac8774"/><path d="M153.47 59.97c64.33 0 64.68 53.78 61.86 88.99 4.4-8.35 17.45-5.79 16.36 7.37-.99 12.67-19.73 19.13-19.22 17.73-9.49 26.04-35.53 45.68-59 45.68h-.35l-.15-159.77h.5z" fill="#ddb598"/><path d="M227.59 150.78c-3.17-5.11-8.06-2.9-9.29-1.77-1.29 1.23-2.28 2.8-1.53 5.8.44 1.72 2.22 1.86 1.82 4.42-.49 2.9-1.82 3.04-2.57 3.73-.74.64-1.73 1.13-2.17 2.36-.44 1.23-.54 2.5-.3 3.63.5 2.07 3.51.4 5.54-.49 1.38-.64 5.58-4.22 6.67-5.4 2.72-3.05 3.95-8.94 1.83-12.28z" fill="#ac8774"/><path d="M152.62 75.15c-21.15 0-36.67 6.14-46.01 18.22-13.09 16.94-12.6 42.78-7.81 61.34 1.49 5.7 2.28 20.97 3.27 26.57 4.59 25.1 32.31 38.46 50.55 38.46h.49V75.15h-.3" fill="#e0bd9a"/><path d="M198.57 93.42c-9.29-12.04-24.61-18.17-45.46-18.27v144.59c20.85-.25 45.81-14.89 50.06-38.46 1.03-5.6 1.77-20.87 3.26-26.57 4.84-18.52 5.33-44.3-7.86-61.29z" fill="#efd0ad"/><path d="M149.73 194.1l-.3-.06c.1.02.19.04.3.06zm-.78-.17c-.09-.02-.18-.05-.27-.08l-.01.01s.1.03.28.07z" fill="#bc917b"/><path d="M135.15 75.51l-.27.27.04.08c.09-.13.14-.26.23-.35z" fill="#432e1b"/><path d="M149.91 191.17l-.31-.06c.1.02.19.04.31.06zm-.81-.18c-.09-.02-.18-.05-.27-.08l-.01.01s.1.03.28.07z" fill="#ba907b"/><path d="M140.54 175.21c-.25-5.13 9.42-1.88 12.61-1.72 2.52.13 10.19-1.61 10.85-1.16 4.52 3.04-4.78 9.17-11.01 9.17-1.66 0-12.3-3.2-12.45-6.29z" fill="#dcb497"/><path d="M106.96 131.58s4.9 20.14 13.33 21.78c8.43 1.64 17.55-1.62 17.55-1.62s.87-23.67-3.45-26.76c-4.31-3.1-14.24-7.59-27.43 6.6z" fill="#fff"/><path d="M137.85 151.67s-.19.06-.63.24c-.1-7.26-.78-17.23-3.47-19.14-4.01-2.93-13.05-7.06-25.14 4.23-1.1-3.12-1.65-5.48-1.65-5.48 13.21-14.22 23.16-9.74 27.44-6.63 4.32 3.1 3.45 26.78 3.45 26.78z" fill="#d6b496"/><path d="M132.86 141.42c0 4.58-3.71 8.29-8.29 8.29-4.58 0-8.3-3.71-8.3-8.29 0-4.58 3.72-8.29 8.3-8.29s8.29 3.71 8.29 8.29z" fill="#482315"/><path d="M124.18 146.94c-2.39-.19-4.23-2.61-4.01-5.27.21-2.65 2.42-4.73 4.81-4.53 2.4.19 4.23 2.61 4.02 5.26-.21 2.66-2.43 4.74-4.82 4.54z" fill="#7e3a22"/><path d="M124.39 145.99c-1.67-.15-3.4-1.98-3.22-4.23.19-2.26 2.19-3.78 3.86-3.65 1.67.15 3.39 1.98 3.21 4.23-.18 2.26-2.19 3.78-3.85 3.65z" fill="#211a10"/><path d="M123.04 140.43c-.07.81-.91 1.41-1.87 1.33-.96-.08-1.68-.81-1.61-1.62.07-.82.9-1.41 1.86-1.34.96.08 1.68.81 1.62 1.63zm5.37 4.71c-.03.4-.45.7-.93.66-.48-.04-.84-.4-.81-.81.04-.4.46-.7.93-.66.48.04.85.4.81.81z" fill="#fff"/><path d="M150.04 193.55c-.1-.03-.21-.05-.31-.07.1.02.19.04.31.07zm-.8-.18c-.1-.03-.19-.06-.28-.08h-.01l.29.08z" fill="#ba907b"/><path d="M149.67 192.98zm-.87-.19c-.1-.03-.19-.06-.3-.09l-.01.01.31.08zm4.54 2.3h.01-.01zm-3.92-2.95c-.11-.03-.23-.05-.34-.07.11.02.21.04.34.07zm-.87-.2c-.1-.02-.19-.05-.29-.08h-.01s.11.04.3.08zm4.79-.01h.01-.01zm-3.15.09c-.11-.02-.22-.04-.33-.07.11.03.2.05.33.07zm-.84-.19c-.1-.02-.19-.05-.28-.08l-.02.01s.12.03.3.07z" fill="#bc917b"/><path d="M199.77 130.9s-4.91 20.13-13.34 21.77c-8.42 1.65-17.54-1.62-17.54-1.62s-.88-23.66 3.44-26.75c4.31-3.11 14.25-7.6 27.44 6.6z" fill="#fff"/><path d="M168.87 150.99s.2.05.63.24c.11-7.26.78-17.23 3.47-19.14 4.01-2.94 13.06-7.06 25.14 4.23 1.1-3.12 1.65-5.49 1.65-5.49-13.21-14.22-23.16-9.74-27.44-6.63-4.32 3.1-3.45 26.79-3.45 26.79z" fill="#d6b496"/><path d="M173.86 140.74c0 4.58 3.72 8.29 8.3 8.29s8.29-3.71 8.29-8.29c0-4.59-3.71-8.3-8.29-8.3-4.58 0-8.3 3.71-8.3 8.3z" fill="#482315"/><path d="M182.54 146.26c2.4-.2 4.24-2.62 4.02-5.27-.22-2.66-2.42-4.74-4.82-4.54-2.4.2-4.23 2.61-4.02 5.27.22 2.66 2.43 4.74 4.82 4.54z" fill="#7e3a22"/><path d="M182.34 145.3c1.66-.14 3.39-1.97 3.21-4.22-.19-2.26-2.19-3.79-3.86-3.65-1.67.14-3.39 1.98-3.21 4.23.19 2.26 2.19 3.78 3.86 3.64z" fill="#211a10"/><path d="M183.69 139.74c.06.82.9 1.41 1.86 1.33.96-.08 1.68-.81 1.62-1.62-.07-.81-.9-1.41-1.86-1.33-.97.08-1.69.8-1.62 1.62zm-5.38 4.71c.03.41.45.71.93.67.48-.04.84-.41.81-.81-.04-.41-.45-.71-.93-.67-.48.04-.85.4-.81.81z" fill="#fff"/><path d="M142.9 131.26c-.07-.1-1.59-2.42-4.72-4.82-1.96-1.5-3.88-2.65-5.87-3.5a30.963 30.963 0 0 0-7.55-2.08c-2.29-.25-4.82-.19-7.77.21-2.25.43-4.45 1.1-6.32 1.92-1.33.46-2.38 1.11-3.23 1.62-.32.2-.61.38-.91.54l-4.02 2.53 4.63-1.09c.22-.05.45-.11.71-.18.96-.25 2.15-.57 3.55-.78.33-.04.66-.11 1-.18.58-.11 1.19-.23 1.82-.26.7-.05 1.43-.1 2.18-.16l.98-.07c2.56-.03 4.73.16 6.66.61 2.11.36 4.27 1.04 6.26 1.96 1.88.9 3.67 1.79 5.08 2.82 2.83 1.89 4.41 3.47 4.42 3.48.39.39.91.6 1.43.6.39 0 .77-.11 1.1-.33.94-.61 1.2-1.87.6-2.78l-.03-.06zm57.7-6.13c-.27-.14-.56-.32-.89-.52-.84-.51-1.89-1.16-3.18-1.6-1.91-.84-4.11-1.51-6.39-1.94-2.93-.4-5.46-.46-7.75-.21-2.52.35-5.12 1.07-7.55 2.08-1.96.84-3.93 2.02-5.86 3.5-3.07 2.35-4.6 4.64-4.71 4.81l-.03.04c-.52.8-.41 1.87.26 2.54.38.39.89.6 1.43.6.54 0 1.05-.21 1.43-.6l.01-.01c.15-.15 1.68-1.65 4.43-3.48 1.38-1.02 3.18-1.91 5.05-2.81 1.99-.92 4.16-1.6 6.29-1.97 1.9-.44 4.08-.63 6.61-.6l1.02.07c.75.06 1.47.11 2.18.16.62.03 1.22.15 1.81.26.34.07.67.14 1 .18 1.4.21 2.59.53 3.55.78.25.07.49.13.71.18l4.64 1.09-4.06-2.55z" fill="#030405"/><path d="M147.07 200.57c-.11-.02-.21-.04-.31-.06.1.02.19.04.31.06zm-.8-.17c-.1-.03-.19-.06-.28-.08h-.01l.29.08zm.57-.61c-.11-.02-.21-.04-.31-.06.1.02.19.04.31.06zm-.8-.18c-.1-.02-.19-.05-.28-.07h-.01s.11.03.29.07zm1.51.08c-.1-.02-.2-.04-.3-.07.1.03.19.04.3.07zm-.77-.18c-.1-.02-.18-.05-.27-.07h-.01s.1.03.28.07z" fill="#be927b"/><path d="M140.81 202.08c-.24-3.2 8.91.67 11.92.77 2.4.08 9.6-.48 10.27-.73 5.03-1.88-.28 5.35-10.42 5.73-4.65.18-11.63-3.83-11.77-5.77z" fill="#f0d2ad"/><path d="M170.98 194.4c-5.81-1.09-18.03.07-18.03.07-10.09 1.68-17.98-.11-18.03-.04-.24.03 8.05 11.03 17.89 10.52 9.84.51 18.41-10.52 18.17-10.55z" fill="#c2646e"/><path d="M158.78 192.08c-2.62-.29-4.48 1.59-5.82 1.46-1.37.12-3.14-1.09-5.77-1.11-3.7-.04-5.51-.37-12.27 2 .24.46 4.57 2.97 12.69 3.11.12 0 2.3 1.24 5.39 1.22 1.94-.01 4.6-1.31 4.71-1.31 8.13-.13 13.1-2.54 13.33-2.99-8.95-2.78-8.24-2.42-12.26-2.38z" fill="#d87475"/><path d="M222.98 116.76c0 2.77-.3 7.28-.78 10.78-.27 2.23-.62 4.01-.97 4.74-.4.86-3.2 8.88-3.42 11.97-1.32 1.33-2.81 3.05-3.82 5.84-2.06 5.64-2.9 4.68-2.9 4.68s.66-4.46 1.41-9.92c.44-4.6 1.05-11.43 1.54-17.31.04-.81.13-1.64.17-2.4-.92-4.75-9.52-27.47-50.4-25.33-6.58.32-13.25-2.23-18.43-4.96-5.35-2.79-9.08-5.73-9.43-5.73-1.8 0-18.16-3.15-27.77 4.27-.62.46-1.18.95-1.71 1.46-11.4 10.25-12.98 28.05-12.98 31.6 0 .32 0 .68.04 1.09.31 7.33-.47 27.32-.47 27.32s-3.65 1.44-5.76-4.2c-1.18-3.29 3.51-5.72 2.02-7.09-2.28-5-3.55-6.56-4.7-11.29-.3-1.32-1.27-2.6-2.28-4.74-2.19-4.46-4.69-12.7-2.05-32.69.13-.91.26-1.82.39-2.79 2.01-13.65 12.02-44.34 38.43-49.81 26.41-5.5 32.55-11.87 54.13-2.73 21.58 9.11 35.22 15.53 41.85 30.6 2.98 6.88 4.91 16.17 6.05 24.73 1.45 10.25 1.84 19.39 1.84 21.91z" fill="#3d3e3e"/><path d="M94.87 153.73c2.15 18.33 3.71 32.55-5.13 33.43-8.85.88-17.77-13.27-19.92-31.6-2.15-18.33 3.26-33.91 12.11-34.79 8.84-.88 10.78 14.63 12.94 32.96z" fill="#5ba6ac"/><path d="M87.6 154.64c1.98 16.88 3.42 29.96-4.72 30.77-8.15.82-16.36-12.21-18.34-29.09-1.99-16.87 3-31.22 11.14-32.03 8.15-.81 9.94 13.47 11.92 30.35z" fill="#3d3e3e"/><path d="M207.27 153.73c-2.16 18.33-3.71 32.55 5.13 33.43 8.85.88 17.77-13.27 19.92-31.6 2.15-18.33-3.27-33.91-12.11-34.79-8.85-.88-10.78 14.63-12.94 32.96z" fill="#5ba6ac"/><path d="M214.46 46.49c-13.77-14.67-35.07-22.08-63.47-21.99-28.4-.09-49.7 7.32-63.47 21.99-16.59 17.7-20.76 44.57-12.09 77.66l5.26-1.05c-8.13-31.19-4.23-57.3 11-73.57 12.68-13.53 32.68-20.37 59.3-20.28 26.61-.09 46.61 6.75 59.29 20.28 15.24 16.27 19.14 42.38 11.01 73.57l5.26 1.05c8.67-33.09 4.49-59.96-12.09-77.66z" fill="#fff"/><path d="M214.54 154.64c-1.99 16.88-3.42 29.96 4.72 30.77 8.15.82 16.36-12.21 18.34-29.09 1.99-16.87-3.01-31.22-11.14-32.03-8.15-.81-9.94 13.47-11.92 30.35z" fill="#3d3e3e"/><path d="M111.43 239.85c-9.53 5.18-20.98 15.83-25.84 37.66l-.02.09c-.64 2.88 1.28 5.72 4.29 6.44l12.56 2.97v13.17h47.25V259.6c-18.63-1.69-32.54-13.87-38.24-19.75z" fill="#60373b"/><path d="M142.42 244.3l-16.08-9.31s-6.75.43-14.91 4.86c5.7 5.86 19.61 18.02 38.24 19.7v-12.61c-2.52-.45-4.98-1.33-7.25-2.64z" fill="#3f1c21"/><path d="M222.54 277.57l-.01-.06c-2.81-13.12-9.7-28.72-26.06-37.37-13.5 12.82-26.28 18.27-37.7 19.42v40.62h46.65v-13.17l12.82-3.04c3-.71 4.92-3.53 4.3-6.4z" fill="#60373b"/><path d="M181.45 234.93l-16.67 9.46c-1.9 1.08-3.93 1.85-6.01 2.33v12.79c11.42-1.15 24.2-6.58 37.7-19.37-4.32-2.28-9.28-4.08-15.02-5.21z" fill="#3f1c21"/><path fill="#5ba6ac" d="M149.64 276.3h9.13v23.88h-9.13z"/></g></svg>