<svg viewBox="0 0 297 300" xmlns="http://www.w3.org/2000/svg" fill-rule="evenodd" clip-rule="evenodd" stroke-linejoin="round" stroke-miterlimit="1.414"><g fill-rule="nonzero"><path d="M160.756 207.99s.321 7.37-1.36 7.61c-1.2-4-1.84-8.85-4.082-11.05-3.523 4.08-6.803 6.6-6.803 6.6s-3.122-2.59-6.405-6.68c-2.479 2.32-4.643 5.77-6.003 10.17-.32-.24-1.2-5.13-1.2-5.13s-5.762 7.09-6.882 11.85c-1.122 4.72 2.881 9.76 2.881 9.76s1.922-.95 3.763-2.56c1.679 11.85 13.203 21.21 13.203 21.21s11.688-8.72 14.007-20.33c1.423 1 2.705 1.61 2.705 1.61s4.241-5.05 2.881-9.77c-2.323-8.24-6.705-13.29-6.705-13.29z" fill="#e6a52f"/><path fill="#d87542" d="M.076.275h296.866V299.98H.076z"/><path d="M149.473 186.9v112.27H88.745c-.989-.39-1.482-.59-1.482-.59 0-14.33 2.102-25.5 5.305-34.22 7.73-21.03 21.882-27.71 28.396-29.72 2.138-.66 3.455-.82 3.455-.82.231 0 .446-.02.666-.06 1.912-.31 3.465-1.97 4.711-4.62.927-1.96 1.701-4.48 2.332-7.38.251-1.13.445-2.28.646-3.51.297-2.08.589-4.25.84-6.53.097-1.38.246-2.71.395-4.15.538-6.87.692-14.39.692-21.51 0 0 8.154.84 14.772.84z" fill="#e0bd9a"/><path d="M211.933 298.58s-.543.2-1.435.59h-61.025V186.9h.148c6.571 0 14.828-.84 14.828-.84 0 7.07.144 14.49.687 21.36.149 1.34.298 2.72.395 4.06.251 2.37.549 4.59.892 6.67v.05c.098.94.292 1.78.446 2.67.6 2.92 1.327 5.49 2.204 7.55 1.092 2.56 2.419 4.35 4.029 5.06a3.92 3.92 0 0 0 1.624.34s2.338.28 5.838 1.65c7.151 2.8 19.16 10.15 26.059 28.89 3.203 8.72 5.31 19.89 5.31 34.22z" fill="#efd0ad"/><path d="M166.423 217.94v.05c-1.532 2.36-6.671 9.13-16.85 9.13h-.099c-9.635-.04-15.269-7.02-16.702-9.08.297-2.06.593-4.23.841-6.48.098-1.33.246-2.71.395-4.13a67.307 67.307 0 0 0 15.269 2.01h.197a64.948 64.948 0 0 0 15.664-2.16c.148 1.33.297 2.7.395 4.03.248 2.36.544 4.57.89 6.63z" fill="#be987f"/><path d="M148.782 58.961c-64.336 0-64.682 53.779-61.816 88.989-4.398-8.35-17.492-5.79-16.405 7.37 1.038 12.67 19.745 19.13 19.222 17.73 9.742 26.04 35.528 45.68 58.999 45.68h.495V58.961h-.495z" fill="#d2a686"/><path d="M74.663 149.77c3.162-5.11 8.103-2.9 9.289-1.77 1.285 1.23 2.322 2.8 1.532 5.8-.445 1.72-2.224 1.86-1.828 4.42.494 2.9 1.828 3.04 2.618 3.73.742.64 1.681 1.13 2.125 2.36.495 1.23.544 2.5.297 3.63-.495 2.07-3.508.4-5.534-.49-1.335-.64-5.584-4.22-6.671-5.4-2.668-3.05-3.953-8.94-1.828-12.28z" fill="#ac8774"/><path d="M149.128 58.961c64.336 0 64.682 53.779 61.865 88.989 4.398-8.35 17.444-5.79 16.356 7.37-.988 12.67-19.733 19.13-19.221 17.73-9.491 26.04-35.528 45.68-59 45.68h-.346l-.148-159.769h.494z" fill="#ddb598"/><path d="M223.248 149.77c-3.162-5.11-8.054-2.9-9.29-1.77-1.284 1.23-2.272 2.8-1.531 5.8.444 1.72 2.223 1.86 1.828 4.42-.494 2.9-1.828 3.04-2.569 3.73-.742.64-1.73 1.13-2.175 2.36-.445 1.23-.543 2.5-.296 3.63.494 2.07 3.508.4 5.534-.49 1.384-.64 5.584-4.22 6.671-5.4 2.717-3.05 3.953-8.94 1.828-12.28z" fill="#ac8774"/><path d="M148.276 74.137c-21.149 0-36.665 6.139-46.003 18.221C89.178 109.3 89.672 135.14 94.465 153.7c1.483 5.7 2.273 20.97 3.261 26.57 4.596 25.1 32.317 38.46 50.55 38.46h.494V74.137h-.494z" fill="#e0bd9a"/><path d="M194.23 92.407c-9.289-12.033-24.607-18.172-45.46-18.27V218.73c20.853-.25 45.806-14.89 50.056-38.46 1.037-5.6 1.779-20.87 3.262-26.57 4.842-18.52 5.336-44.3-7.858-61.293z" fill="#efd0ad"/><path d="M148.963 190.37h.001-.001zm-3.567 2.72l-.303-.06c.099.02.186.04.303.06zm-.785-.17c-.094-.02-.178-.05-.27-.08l-.01.01s.104.03.28.07zm4.352-.02h.001-.001z" fill="#bc917b"/><path d="M136.495 174.34c-.245-5 9.178-1.83 12.284-1.67 2.455.12 9.923-1.58 10.564-1.14 4.394 2.96-4.654 8.93-10.72 8.93-1.616 0-11.982-3.11-12.128-6.12z" fill="#ddb598"/><path d="M130.809 74.498l-.268.267.045.089c.089-.134.133-.267.223-.356z" fill="#432e1b"/><path d="M149.235 192.92h.001-.001zm-3.664-2.76l-.311-.06c.102.02.192.04.311.06zm-.806-.18c-.096-.02-.182-.05-.277-.08l-.01.01s.107.03.287.07zm4.47-.02h.001-.001z" fill="#ba907b"/><path d="M102.617 130.57s4.908 20.14 13.335 21.78c8.426 1.64 17.547-1.62 17.547-1.62s.872-23.67-3.443-26.76c-4.311-3.11-14.25-7.59-27.439 6.6z" fill="#fff"/><path d="M133.51 150.66s-.193.06-.627.24c-.107-7.26-.778-17.23-3.472-19.14-4.007-2.93-13.052-7.06-25.138 4.23-1.099-3.12-1.65-5.48-1.65-5.48 13.213-14.22 23.16-9.74 27.439-6.63 4.319 3.1 3.448 26.78 3.448 26.78z" fill="#d6b496"/><path d="M128.52 140.41a8.29 8.29 0 0 1-8.293 8.29 8.291 8.291 0 0 1-8.294-8.29c0-4.58 3.714-8.29 8.294-8.29a8.29 8.29 0 0 1 8.293 8.29z" fill="#482315"/><path d="M119.841 145.93c-2.394-.19-4.234-2.61-4.015-5.27.214-2.66 2.423-4.73 4.819-4.53 2.395.19 4.231 2.61 4.019 5.26-.218 2.66-2.428 4.74-4.823 4.54z" fill="#7e3a22"/><path d="M120.049 144.98c-1.668-.15-3.397-1.98-3.213-4.23.187-2.26 2.188-3.78 3.856-3.65 1.667.14 3.393 1.98 3.209 4.24-.184 2.25-2.189 3.77-3.852 3.64z" fill="#211a10"/><path d="M118.699 139.42c-.07.81-.906 1.41-1.863 1.33-.96-.08-1.683-.81-1.619-1.62.07-.82.9-1.41 1.859-1.34.963.08 1.687.81 1.623 1.63zm5.376 4.71c-.035.4-.452.7-.929.66-.482-.04-.842-.4-.811-.81.034-.4.452-.7.929-.66.482.04.846.4.811.81z" fill="#fff"/><path d="M149.367 189.88h.001-.001zm-3.664 2.66zm-.806-.18c-.096-.03-.183-.06-.277-.08h-.01l.287.08zm4.47-.02h.001-.001z" fill="#ba907b"/><path d="M145.326 191.97zm-.864-.2c-.103-.02-.196-.05-.297-.08l-.011.01s.115.03.308.07zm.616-.64c-.112-.03-.223-.05-.334-.08.11.03.206.05.334.08zm-.864-.2c-.103-.02-.196-.05-.297-.08h-.011s.115.04.308.08zm5.431-2.48h.001-.001zm-3.797 2.56zm-.835-.19c-.099-.02-.189-.05-.287-.08l-.01.01s.111.03.297.07zm4.632-.01h.001-.001z" fill="#bc917b"/><path d="M195.428 129.89s-4.908 20.13-13.335 21.77c-8.427 1.65-17.547-1.62-17.547-1.62s-.871-23.66 3.443-26.75c4.311-3.11 14.251-7.6 27.439 6.6z" fill="#fff"/><path d="M164.535 149.98s.193.05.626.24c.108-7.26.779-17.23 3.473-19.14 4.007-2.94 13.053-7.06 25.138 4.23 1.099-3.12 1.65-5.49 1.65-5.49-13.213-14.22-23.161-9.74-27.439-6.63-4.32 3.1-3.448 26.79-3.448 26.79z" fill="#d6b496"/><path d="M169.524 139.73a8.29 8.29 0 0 0 8.294 8.29 8.29 8.29 0 0 0 8.294-8.29c0-4.59-3.713-8.3-8.294-8.3a8.293 8.293 0 0 0-8.294 8.3z" fill="#482315"/><path d="M178.203 145.25c2.396-.2 4.235-2.62 4.016-5.27-.214-2.66-2.422-4.74-4.819-4.54-2.395.2-4.231 2.61-4.02 5.27.219 2.66 2.429 4.74 4.823 4.54z" fill="#7e3a22"/><path d="M177.997 144.29c1.667-.14 3.396-1.97 3.212-4.22-.187-2.26-2.188-3.79-3.855-3.65-1.669.14-3.394 1.98-3.21 4.23.183 2.26 2.189 3.78 3.853 3.64z" fill="#211a10"/><path d="M179.347 138.73c.069.82.905 1.41 1.862 1.33.96-.08 1.684-.81 1.619-1.62-.07-.81-.901-1.41-1.859-1.33-.963.08-1.687.8-1.622 1.62zm-5.378 4.71c.036.41.453.71.93.67.482-.04.842-.41.811-.81-.034-.41-.452-.71-.929-.67-.482.04-.846.4-.812.81z" fill="#fff"/><path d="M138.559 130.25c-.063-.1-1.592-2.42-4.719-4.82-1.959-1.5-3.878-2.65-5.869-3.5a30.483 30.483 0 0 0-7.551-2.08c-2.284-.25-4.815-.19-7.769.21-2.254.43-4.452 1.1-6.319 1.92-1.331.46-2.382 1.11-3.227 1.62-.323.2-.616.38-.913.54l-4.025 2.53 4.638-1.09c.217-.05.45-.11.702-.18.959-.25 2.154-.57 3.554-.78.328-.04.661-.11 1.002-.18.583-.11 1.187-.23 1.819-.27.702-.04 1.431-.09 2.18-.15l.974-.07c2.569-.03 4.739.16 6.667.61a25.23 25.23 0 0 1 6.258 1.96c1.876.9 3.673 1.79 5.076 2.82 2.834 1.89 4.41 3.47 4.426 3.48.389.39.909.6 1.433.6.381 0 .763-.11 1.097-.33.933-.61 1.195-1.87.602-2.78l-.036-.06zm57.697-6.13a16.03 16.03 0 0 1-.884-.52c-.844-.51-1.894-1.16-3.186-1.6-1.905-.84-4.104-1.51-6.386-1.94-2.928-.4-5.459-.46-7.752-.21a30.59 30.59 0 0 0-7.543 2.08c-1.963.84-3.937 2.02-5.866 3.5-3.07 2.35-4.597 4.64-4.712 4.81l-.028.04c-.518.8-.407 1.87.263 2.54.381.39.889.6 1.428.6h.001c.539 0 1.045-.21 1.425-.6l.017-.02c.149-.14 1.68-1.64 4.427-3.47 1.382-1.02 3.181-1.91 5.05-2.81a25.69 25.69 0 0 1 6.294-1.97c1.9-.44 4.074-.63 6.61-.6l1.022.07c.743.06 1.465.11 2.171.16.623.03 1.226.15 1.81.26.341.07.673.14 1 .18 1.401.21 2.596.53 3.556.78.251.07.485.13.708.18l4.636 1.09-4.061-2.55z" fill="#030405"/><path d="M144.246 194.92a3.691 3.691 0 0 1-.325-.07c.107.02.2.04.325.07zm-.842-.19c-.101-.02-.192-.05-.29-.08l-.011.01s.112.03.301.07z" fill="#be927b"/><path d="M136.883 199.07c-.244-3.23 9.016.68 12.056.78 2.426.08 9.713-.48 10.386-.74 5.094-1.91-.278 5.41-10.536 5.8-4.7.18-11.767-3.87-11.906-5.84z" fill="#f0d2ad"/><path d="M167.028 192.83c-2.513-.12-5.095 1.97-8.118 1.65-.123-.06-.185-.06-.314-.06-.694-.12-1.383 0-2.138.19-.941.19-1.888.58-2.772.88-1.512.5-3.214.89-4.966.75v.02l-.098-.02-.098.02v-.02c-1.752.14-3.455-.25-4.966-.75-.885-.3-1.832-.69-2.772-.88-.756-.19-1.444-.31-2.139-.19-.129 0-.19 0-.314.06-3.023.32-5.604-1.77-8.118-1.65-.695.06-1.703-.12-2.268-.12.123.06.252.12.381.18 7.166 3.5 13.349 10.04 20.196 9.83h.196c6.846.21 13.03-6.33 20.195-9.83.129-.06.258-.12.382-.18-.566 0-1.574.18-2.269.12z" fill="#dcbf9e"/><path d="M169.134 192.63s-7.286-2.8-12.469-1.16c0 0-1.929.76-3.928 1.21-1.216.48-2.689.62-4.115.56a23.73 23.73 0 0 1-2.978-.33c-.283-.05-.565-.1-.854-.16a6.144 6.144 0 0 0-.325-.07c-.175-.05-.345-.08-.518-.12l-.3-.08h.011c-1.658-.45-3.08-1.01-3.08-1.01-5.182-1.64-12.469 1.16-12.469 1.16l-.162.08c.565 0 1.573.18 2.268.12 2.514-.12 5.095 1.97 8.118 1.65.124-.06.185-.06.314-.06.695-.12 1.383 0 2.139.19.94.19 1.887.58 2.772.88 1.511.5 3.214.89 4.966.75v.02l.098-.02.098.02v-.02c1.752.14 3.454-.25 4.966-.75.884-.3 1.831-.69 2.772-.88.755-.19 1.444-.31 2.138-.19.129 0 .191 0 .314.06 3.023.32 5.605-1.77 8.118-1.65.695.06 1.703-.12 2.268-.12l-.162-.08z" fill="#c69f83"/><path d="M136.384 194.34c.132.04 13.653 4.15 24.228.09l-1.218-.82H145.1l-8.716.73z" fill="#c69f83"/><path d="M211.915 299.97H86.535c0-3.47.144-6.79.371-9.93.349-4.88.925-9.35 1.707-13.42a82.435 82.435 0 0 1 2.14-8.76c3.868-12.88 9.834-21.05 15.719-26.24l13.206 12.15c17.113 15.74 43.119 16.74 61.388 2.36l14.451-11.38c6.275 6.5 10.205 14.63 12.653 22.61.967 3.15 1.687 6.26 2.243 9.26.926 4.98 1.358 9.61 1.543 13.42.288 6-.041 9.93-.041 9.93z" fill="#d22727"/><path d="M90.753 267.86l50.057 32.11H86.535c0-3.47.144-6.79.371-9.93.349-4.88.925-9.35 1.707-13.42a82.435 82.435 0 0 1 2.14-8.76zm121.162 32.11H158.01l50.16-32.61c.967 3.15 1.687 6.26 2.243 9.26.926 4.98 1.358 9.61 1.543 13.42.288 6-.041 9.93-.041 9.93z" fill="#faa830"/><path d="M210.594 72.891c-6.271-16.83-19.224-23.94-39.69-34.149-9.095-4.529-15.299-5.624-21.599-4.91-6.294-.714-12.505.381-21.598 4.91-20.465 10.209-37.548 17.373-43.821 34.203-6.271 16.83-3.408 46.845-3.408 51.935 0 5.1.564 14.24 1.378 16.28.833 2.04 4.898 3.59 6.999 9.72 2.073 6.12 2.891 5.07 2.891 5.07s-.851-6.11-1.69-13c0 0 13.84-60.439 37.028-44.166 4.338 4.926 10.729 8.456 18.132 9.586 1.335.2 2.704.31 4.089.35 1.39-.04 2.758-.15 4.091-.35 7.406-1.13 13.798-4.66 18.132-9.586 23.191-16.273 37.029 44.156 37.029 44.156-.834 6.9-1.688 13.01-1.688 13.01s.818 1.05 2.892-5.07c2.1-6.13 6.162-7.68 6.995-9.72.814-2.04 1.379-11.18 1.379-16.28 0-5.09-1.267-35.159-7.541-51.989z" fill="#36393a"/><path d="M95.449 155.24c-.37-.92-.683-1.86-.938-2.82l-.002-.01-.016-.06c-.174-.67-.321-1.34-.44-2.02l-.056-.34c-1.031-6.41-1.506-17.4 6.287-21.13.153-.07.316-.13.48-.19.648-.21 2.481-.77 5.114-1.36a47.76 47.76 0 0 0-3.255 3.2s.004.01.011.04c-.006.01-.011.01-.017.02 0 0 2.644 10.85 7.382 17.27-5.756 2.15-10.831 5.03-14.388 7.3-.055.04-.108.07-.162.1z" fill="#b5c7b1"/><path d="M109.999 147.84c-4.738-6.42-7.382-17.27-7.382-17.27.006-.01.011-.01.017-.02.081.34.628 2.57 1.639 5.44 6.065-5.66 11.363-7.45 15.644-7.45 4.25 0 7.498 1.76 9.494 3.22 2.08 1.48 2.954 7.76 3.294 13.88a27.958 27.958 0 0 0-5.434-.85 8.246 8.246 0 0 0 1.249-4.38 8.29 8.29 0 0 0-8.293-8.29 8.291 8.291 0 0 0-5.767 14.25 57.78 57.78 0 0 0-4.461 1.47z" fill="#bee4de"/><path d="M139.919 148.84c-.09-.06-.179-.12-.269-.17a24.62 24.62 0 0 0-6.068-2.78c.001-4.28-.158-10.61-.963-15.44 1.833 1.36 2.832 2.36 2.844 2.37.389.39.909.6 1.433.6.381 0 .763-.11 1.097-.33.933-.61 1.195-1.87.602-2.78l-.036-.06c-.027-.04-.319-.49-.887-1.17.079.04.158.07.237.11 0 0 4.876.97 5.125 7.04.013.31 0 .61-.038.91-.139 1.1-.606 4.22-1.819 8.13a50.233 50.233 0 0 1-1.258 3.57z" fill="#b5c7b1"/><path d="M133.582 145.89c-.292-.09-.584-.17-.877-.25-.34-6.12-1.214-12.4-3.294-13.88-1.996-1.46-5.244-3.22-9.494-3.22-4.281 0-9.579 1.79-15.644 7.45-1.011-2.87-1.558-5.1-1.639-5.44a.329.329 0 0 0-.011-.04 47.76 47.76 0 0 1 3.255-3.2c3.59-.79 8.669-1.62 14.272-1.62 1.381 0 2.794.05 4.225.16.538.21 1.068.43 1.586.67 1.876.9 3.673 1.79 5.076 2.82.581.39 1.11.76 1.582 1.11.805 4.83.964 11.16.963 15.44z" fill="#b0c3af"/><path d="M114.46 146.37a8.291 8.291 0 0 1 5.767-14.25 8.29 8.29 0 0 1 8.293 8.29c0 1.61-.457 3.11-1.249 4.38-.609-.04-1.219-.05-1.829-.05h-.049c-.808 0-1.616.03-2.423.09.019-.02.038-.04.057-.05.039 0 .078.01.119.01.029 0 .058.01.086.01.44 0 .81-.29.843-.67a.683.683 0 0 0-.142-.47c.401-.66.663-1.44.731-2.27.212-2.65-1.624-5.07-4.019-5.26-.107-.01-.214-.02-.32-.02-1.29 0-2.501.65-3.343 1.68h-.075c-.885 0-1.625.57-1.69 1.34-.039.49.215.96.638 1.26-.012.09-.021.18-.029.27-.168 2.04.876 3.94 2.452 4.8a48.96 48.96 0 0 0-3.818.91z" fill="#717363"/><path d="M118.278 145.46c-1.576-.86-2.62-2.76-2.452-4.8.008-.09.017-.18.029-.27.269.2.607.33.981.36-.184 2.25 1.545 4.08 3.213 4.23h.21c.708 0 1.46-.28 2.096-.78.076.28.335.51.672.58-.019.01-.038.03-.057.05-1.574.11-3.142.33-4.692.63zm5.655-1.8a.917.917 0 0 0-.669-.34c-.025 0-.051-.01-.076-.01.387-.55.652-1.22.713-1.97.184-2.26-1.542-4.1-3.209-4.24-.069 0-.139-.01-.21-.01-.829 0-1.717.39-2.411 1.07-.272-.2-.615-.34-.995-.37h-.094c.842-1.03 2.053-1.68 3.343-1.68.106 0 .213.01.32.02 2.395.19 4.231 2.61 4.019 5.26-.068.83-.33 1.61-.731 2.27z" fill="#8d836b"/><path d="M120.259 144.98h-.21c-1.668-.15-3.397-1.98-3.213-4.23h.169c.885 0 1.628-.57 1.694-1.33.039-.5-.211-.96-.628-1.26.694-.68 1.582-1.07 2.411-1.07.071 0 .141.01.21.01 1.667.14 3.393 1.98 3.209 4.24a3.973 3.973 0 0 1-.713 1.97h-.011c-.44 0-.81.29-.842.67a.66.66 0 0 0 .02.22c-.636.5-1.388.78-2.096.78z" fill="#596d63"/><path d="M117.005 140.75h-.169a1.895 1.895 0 0 1-.981-.36c-.423-.3-.677-.77-.638-1.26.065-.77.805-1.34 1.69-1.34h.169c.38.03.723.17.995.37.417.3.667.76.628 1.26-.066.76-.809 1.33-1.694 1.33zm6.227 4.05c-.028 0-.057-.01-.086-.01-.041 0-.08-.01-.119-.01-.337-.07-.596-.3-.672-.58a.66.66 0 0 1-.02-.22c.032-.38.402-.67.842-.67h.011c.025 0 .051.01.076.01.282.02.524.15.669.34.103.14.157.3.142.47-.033.38-.403.67-.843.67z" fill="#bee4de"/><path d="M136.896 133.42a2.03 2.03 0 0 1-1.433-.6c-.012-.01-1.011-1.01-2.844-2.37-.472-.35-1.001-.72-1.582-1.11-1.403-1.03-3.2-1.92-5.076-2.82-.518-.24-1.048-.46-1.586-.67 2.387.19 4.822.56 7.238 1.16 2.047.51 4.08 1.19 6.059 2.07.568.68.86 1.13.887 1.17l.036.06c.593.91.331 2.17-.602 2.78-.334.22-.716.33-1.097.33z" fill="#4b6560"/><path d="M114.455 168.91c-.224 0-.45-.01-.677-.02-4.633-.14-9.832-1.77-14.231-6.86-.382-.44-.745-.89-1.091-1.36-.003 0-.007-.01-.01-.01a24.269 24.269 0 0 1-1.655-2.57c-.003-.01-.006-.01-.01-.02a23.484 23.484 0 0 1-1.332-2.83c.054-.03.107-.06.162-.1 3.557-2.27 8.632-5.15 14.388-7.3 1.718 2.33 3.71 4.07 5.953 4.51 1.692.33 3.414.46 5.083.46 6.64 0 12.464-2.08 12.464-2.08l.002-.06c.006-.01.009-.01.009-.01s.071-1.93.072-4.77a24.62 24.62 0 0 1 6.068 2.78c.09.05.179.11.269.17-1.141 2.9-2.686 5.99-4.765 8.9-.012.01-.023.03-.034.04-.004.01-.008.01-.012.02-2.281 3.17-5.199 6.1-8.926 8.28 0 0-5.222 2.83-11.727 2.83z" fill="#a1c0a5"/><path d="M121.035 152.81c-1.669 0-3.391-.13-5.083-.46-2.243-.44-4.235-2.18-5.953-4.51a57.78 57.78 0 0 1 4.461-1.47 8.24 8.24 0 0 0 5.767 2.33c2.972 0 5.58-1.56 7.044-3.91 1.826.11 3.646.38 5.434.85.1 1.81.154 3.61.178 5.26.379-.16.574-.22.618-.23l-.002.06s-5.824 2.08-12.464 2.08z" fill="#a9dbcf"/><path d="M132.883 150.9c-.024-1.65-.078-3.45-.178-5.26.293.08.585.16.877.25-.001 2.84-.072 4.77-.072 4.77s-.003 0-.009.01c-.044.01-.239.07-.618.23z" fill="#9cbca3"/><path d="M120.227 148.7a8.24 8.24 0 0 1-5.767-2.33c1.255-.35 2.531-.66 3.818-.91.478.26 1.006.43 1.563.47.107.01.214.02.32.02 1.037 0 2.023-.42 2.809-1.12.807-.06 1.615-.09 2.423-.09h.049c.61 0 1.22.01 1.829.05a8.285 8.285 0 0 1-7.044 3.91z" fill="#63705b"/><path d="M120.161 145.95c-.106 0-.213-.01-.32-.02a3.848 3.848 0 0 1-1.563-.47c1.55-.3 3.118-.52 4.692-.63-.786.7-1.772 1.12-2.809 1.12z" fill="#7d7f61"/><path d="M95.449 155.24zm44.201-6.57z" fill="#89c4af"/><path d="M127.271 144.79zm-1.878-.05h.034-.034z" fill="#6d9b87"/><path d="M206.488 149.99c-.716 4.44-2.604 8.63-5.548 12.04-10.873 12.58-26.637 4.05-26.637 4.05-13.634-7.99-16.437-25.96-16.814-28.94-.037-.3-.051-.6-.038-.91.249-6.07 5.126-7.04 5.126-7.04 15.598-7.12 34.709-1.31 37.146-.52.165.06.326.12.481.19 7.793 3.73 7.316 14.72 6.284 21.13zm-63.492-12.85c-.377 2.98-3.179 20.95-16.814 28.94 0 0-15.763 8.53-26.636-4.05-2.946-3.41-4.834-7.6-5.55-12.04-1.031-6.41-1.507-17.4 6.285-21.13.156-.07.317-.13.48-.19 2.438-.79 21.549-6.6 37.148.52 0 0 4.876.97 5.125 7.04.013.31 0 .61-.038.91zm66.659-.04s-2.663-14.88-19.867-14.63h-39.503v4.67h6.634s2.177-.24.408 2.21c0 0-2.158 3.57-2.749 6.14-.142.61-.444 1.02-1.075 1l-3.261-.26-3.26.26c-.631.02-.933-.39-1.075-1-.591-2.57-2.749-6.14-2.749-6.14-1.768-2.45.409-2.21.409-2.21h6.633v-4.67h-39.502c-17.205-.25-19.868 14.63-19.868 14.63-1.926 6.17 2.022 18.77 2.022 18.77 6.676 15.64 22.083 15.31 22.083 15.31 20.799.51 29.53-25.17 29.53-25.17 1.54-6.42 5.777-5.65 5.777-5.65s4.237-.77 5.778 5.65c0 0 8.73 25.68 29.53 25.17 0 0 15.407.33 22.084-15.31 0 0 3.948-12.6 2.021-18.77z" fill="#fff"/><path d="M205.018 155.31a1.279 1.279 0 0 0-.156-.1c-.831-.53-1.745-1.1-2.731-1.68a97.605 97.605 0 0 0 2.984-19.74c1.491 2.87 1.957 6.39 1.943 9.72-.016 2.35-.269 4.61-.57 6.48a25.031 25.031 0 0 1-1.47 5.32z" fill="#b4c5b1"/><path d="M202.131 153.53c-3.808-2.24-8.687-4.71-14.03-6.45 4.704-6.43 7.327-17.19 7.327-17.19-.006-.01-.011-.02-.017-.02l.011-.05c-.979-1.05-1.941-2-2.884-2.86 3.737.71 6.377 1.53 7.183 1.79.164.05.328.11.481.19 2.282 1.09 3.856 2.81 4.913 4.85a97.605 97.605 0 0 1-2.984 19.74zm-41.545-4.63c-2.188-5.52-2.917-10.34-3.097-11.76a5.732 5.732 0 0 1-.043-.64l.004-.19c.11-2.65 1.096-4.32 2.174-5.37-.15.66.038 1.38.538 1.88.381.39.889.6 1.428.6h.001c.539 0 1.045-.21 1.425-.6l.017-.02c.102-.1.86-.84 2.217-1.89-.75 5.35-.817 12.06-.779 15.93-1.235.52-2.45 1.15-3.636 1.9-.083.05-.166.11-.249.16z" fill="#bcd0bb"/><path d="M188.101 147.08c-1.512-.5-3.063-.93-4.634-1.28a8.289 8.289 0 0 0 2.645-6.07c0-4.59-3.713-8.3-8.294-8.3a8.293 8.293 0 0 0-8.294 8.3c0 2.01.718 3.86 1.913 5.29-2.089.25-4.157.74-6.173 1.51.275-6.59 1.112-13.85 3.37-15.45 1.996-1.46 5.244-3.22 9.494-3.22 4.282 0 9.58 1.78 15.644 7.45 1.011-2.87 1.558-5.1 1.639-5.44.006 0 .011.01.017.02 0 0-2.623 10.76-7.327 17.19z" fill="#bee4de"/><path d="M164.471 146.84c-.038-3.87.029-10.58.779-15.93.615-.47 1.354-1.01 2.21-1.58 1.382-1.02 3.181-1.91 5.05-2.81.196-.09.392-.17.591-.26 2.455-.35 4.891-.5 7.234-.5 4.598 0 8.845.56 12.203 1.2.943.86 1.905 1.81 2.884 2.86l-.011.05c-.081.34-.628 2.57-1.639 5.44-6.064-5.67-11.362-7.45-15.644-7.45-4.25 0-7.498 1.76-9.494 3.22-2.258 1.6-3.095 8.86-3.37 15.45-.265.1-.53.2-.793.31z" fill="#b0c3af"/><path d="M183.467 145.8a42.36 42.36 0 0 0-4.335-.75c1.922-.65 3.276-2.77 3.087-5.07a4.945 4.945 0 0 0-.029-.27c.423-.31.677-.77.638-1.27-.066-.77-.805-1.34-1.69-1.34h-.074c-.843-1.02-2.054-1.67-3.344-1.67-.106 0-.213 0-.32.01-2.395.2-4.231 2.61-4.02 5.27.069.83.331 1.6.732 2.27a.654.654 0 0 0-.143.46c.033.38.404.67.844.67h.086c.041-.01.08-.01.119-.02.323.3.681.55 1.065.74-.331-.01-.66-.02-.991-.02h-.047c-1.206 0-2.41.07-3.608.21a8.23 8.23 0 0 1-1.913-5.29c0-4.59 3.713-8.3 8.294-8.3a8.293 8.293 0 0 1 8.294 8.3c0 2.39-1.018 4.55-2.645 6.07z" fill="#717363"/><path d="M179.132 145.05a38.913 38.913 0 0 0-3.049-.22 4.503 4.503 0 0 1-1.065-.74c.337-.07.596-.3.671-.58.637.5 1.389.79 2.096.79.072 0 .142 0 .212-.01 1.667-.14 3.396-1.97 3.212-4.22v-.01c.374-.03.712-.16.981-.35.012.09.022.18.029.27.189 2.3-1.165 4.42-3.087 5.07zm-5.02-2.07a5.261 5.261 0 0 1-.732-2.27c-.211-2.66 1.625-5.07 4.02-5.27.107-.01.214-.01.32-.01 1.29 0 2.501.65 3.344 1.67-.032 0-.063.01-.095.01-.38.03-.723.16-.995.36-.694-.67-1.582-1.06-2.411-1.06-.07 0-.14 0-.209.01-1.669.14-3.394 1.98-3.21 4.23.061.75.325 1.42.713 1.98h-.076a.926.926 0 0 0-.669.35z" fill="#8d836b"/><path d="M177.785 144.3c-.707 0-1.459-.29-2.096-.79a.601.601 0 0 0 .021-.21c-.032-.38-.402-.67-.842-.67h-.011a4.036 4.036 0 0 1-.713-1.98c-.184-2.25 1.541-4.09 3.21-4.23.069-.01.139-.01.209-.01.829 0 1.717.39 2.411 1.06-.417.31-.667.77-.627 1.26.065.77.809 1.34 1.693 1.34.056 0 .112 0 .169-.01v.01c.184 2.25-1.545 4.08-3.212 4.22-.07.01-.14.01-.212.01z" fill="#596d63"/><path d="M181.04 140.07c-.884 0-1.628-.57-1.693-1.34-.04-.49.21-.95.627-1.26.272-.2.615-.33.995-.36.032 0 .063-.01.095-.01h.074c.885 0 1.624.57 1.69 1.34.039.5-.215.96-.638 1.27-.269.19-.607.32-.981.35-.057.01-.113.01-.169.01zm-6.227 4.04c-.44 0-.811-.29-.844-.67a.654.654 0 0 1 .143-.46.926.926 0 0 1 .669-.35h.087c.44 0 .81.29.842.67a.601.601 0 0 1-.021.21c-.075.28-.334.51-.671.58-.039.01-.078.01-.119.02h-.086z" fill="#bee4de"/><path d="M161.591 133.42h-.001a1.98 1.98 0 0 1-1.428-.6 2.03 2.03 0 0 1-.538-1.88c1.398-1.37 2.951-1.68 2.951-1.68 3.412-1.55 6.989-2.49 10.526-3-.199.09-.395.17-.591.26-1.869.9-3.668 1.79-5.05 2.81-.856.57-1.595 1.11-2.21 1.58-1.357 1.05-2.115 1.79-2.217 1.89l-.017.02c-.38.39-.886.6-1.425.6z" fill="#4b6560"/><path d="M205.037 155.32c-.006 0-.013-.01-.019-.01a25.031 25.031 0 0 0 1.47-5.32c.301-1.87.554-4.13.57-6.48-.01 2.38-.266 4.67-.57 6.55a24.524 24.524 0 0 1-1.451 5.26zm-44.471-6.41c-2.177-5.49-2.903-10.28-3.077-11.69a5.435 5.435 0 0 1-.043-.72c.002.21.017.43.043.64.18 1.42.909 6.24 3.097 11.76-.007 0-.013.01-.02.01z" fill="#bee4de"/><path d="M200.776 162.22c.377-3.45.8-6.56 1.312-8.52.014-.06.029-.11.043-.17.986.58 1.9 1.15 2.731 1.68.053.03.104.06.156.1a23.877 23.877 0 0 1-4.078 6.72c-.055.06-.109.13-.164.19z" fill="#a0bda3"/><path d="M186.031 168.91c-6.506 0-11.728-2.83-11.728-2.83-7.141-4.19-11.311-11.11-13.717-17.18.083-.05.166-.11.249-.16a24.804 24.804 0 0 1 3.636-1.9c.019 1.92.064 3.14.064 3.14h.009l.002.06s5.823 2.09 12.462 2.09c1.67 0 3.392-.14 5.085-.47 2.266-.44 4.278-2.22 6.008-4.58 5.342 1.74 10.223 4.21 14.03 6.45-.014.06-.029.11-.043.17-.512 1.96-.935 5.07-1.312 8.52-4.581 5.19-10.004 6.69-14.745 6.69z" fill="#a8c8ac"/><path d="M177.008 152.13c-6.639 0-12.462-2.09-12.462-2.09l-.002-.06c.044.01.239.08.617.24.018-1.18.05-2.42.103-3.69a25.864 25.864 0 0 1 6.173-1.51 8.28 8.28 0 0 0 6.381 3c2.182 0 4.168-.84 5.649-2.22 1.571.35 3.122.78 4.634 1.28-1.73 2.36-3.742 4.14-6.008 4.58-1.693.33-3.415.47-5.085.47z" fill="#a9dbcf"/><path d="M165.161 150.22a6.472 6.472 0 0 0-.617-.24h-.009s-.045-1.22-.064-3.14c.263-.11.528-.21.793-.31-.053 1.27-.085 2.51-.103 3.69z" fill="#9cbca3"/><path d="M177.818 148.02a8.28 8.28 0 0 1-6.381-3c1.197-.14 2.403-.21 3.608-.21h.047c.331 0 .66.01.991.02.559.28 1.17.43 1.801.43.106 0 .212 0 .319-.01.321-.03.632-.09.929-.2 1.457.17 2.905.43 4.335.75a8.256 8.256 0 0 1-5.649 2.22z" fill="#63705b"/><path d="M177.884 145.26c-.631 0-1.242-.15-1.801-.43 1.018.03 2.036.11 3.049.22a3.63 3.63 0 0 1-.929.2c-.107.01-.213.01-.319.01z" fill="#7d7f61"/><path d="M186.027 168.98c-6.504 0-11.725-2.82-11.725-2.82-7.165-4.2-11.34-11.16-13.736-17.25.007 0 .013-.01.02-.01 2.406 6.07 6.576 12.99 13.717 17.18 0 0 5.222 2.83 11.728 2.83 4.741 0 10.164-1.5 14.745-6.69.055-.06.109-.13.164-.19 1.733-2.01 3.1-4.28 4.078-6.72.006 0 .013.01.019.01a23.428 23.428 0 0 1-4.098 6.78c-4.616 5.34-10.113 6.88-14.912 6.88z" fill="#a9dbcf"/><path d="M165.264 146.53c0-.01 0 0 0 0z" fill="#8bd0c3"/><path d="M164.471 146.84c.263-.11.528-.21.793-.31 0 0 0-.01 0 0-.265.1-.53.2-.793.31z" fill="#86c1ae"/><path d="M171.437 145.02zm3.655-.21h-.034.034z" fill="#6d9b87"/></g></svg>