<svg viewBox="0 0 300 301" xmlns="http://www.w3.org/2000/svg" fill-rule="evenodd" clip-rule="evenodd" stroke-linejoin="round" stroke-miterlimit="1.414"><g fill-rule="nonzero"><path fill="#9b3939" d="M.01.37h299.36v299.7H.01z"/><path d="M74.63 111.29c4.56-4.47 14.66 20.36 16.03 20.36 0 0 3.29-.12 2.8 14.69 1.8 16.81 9.86 23.52 14.37 25.99 7.93 4.01 19.89 4.74 37.77-3.97l-.01.03c2.28-1.28 4.28-1.91 6.15-2.12v80.92c-.59-.16-1.17-.31-1.78-.47-11.28-3.07-13.91 2.69-17.7.18l-18.4 5.75s4.18 18.43-11.35 4.21c-15.51-14.2-5.37-48.82-27.88-70.36-15.27-14.62-4.56-70.74 0-75.21zm156.65 0c-4.56-4.47-14.66 20.36-16.03 20.36 0 0-3.29-.12-2.8 14.69-1.8 16.81-9.86 23.52-14.37 25.99-7.93 4.01-19.89 4.74-37.77-3.97l.01.03c-2.28-1.28-4.28-1.91-6.15-2.12v80.92c.59-.16 1.17-.31 1.78-.47 11.28-3.07 13.91 2.69 17.7.18l18.41 5.75s-4.18 18.43 11.34 4.21c15.51-14.2 5.38-48.82 27.88-70.36 15.27-14.62 4.56-70.74 0-75.21z" fill="#3a393b"/><path d="M137.41 75.39l-.27.27.05.09c.09-.13.13-.27.22-.36z" fill="#432e1b"/><path d="M156.07 187.8v112.28H95.35c-.98-.41-1.48-.6-1.48-.6 0-10.29 1.07-18.93 2.88-26.21.7-2.88 1.53-5.56 2.43-8 2.12-5.78 4.71-10.48 7.51-14.28 7.41-10.08 16.15-13.99 20.88-15.45 2.14-.66 3.46-.83 3.46-.83.23 0 .43-.02.66-.06 1.05-.16 1.97-.74 2.82-1.64.7-.77 1.31-1.75 1.89-2.97.93-1.97 1.71-4.48 2.32-7.38.27-1.13.46-2.29.66-3.52.29-2.08.58-4.24.85-6.52.08-1.38.22-2.72.39-4.16.53-6.87.68-14.38.68-21.5 0 0 8.16.84 14.77.84z" fill="#e0bd9a"/><path d="M218.53 299.48s-.53.19-1.44.6h-61.02V187.8h.16c6.57 0 14.82-.84 14.82-.84 0 7.08.14 14.49.7 21.36.14 1.33.28 2.71.39 4.05.24 2.37.55 4.61.88 6.69v.04c.11.94.29 1.77.45 2.67.6 2.92 1.32 5.48 2.21 7.53.59 1.4 1.25 2.57 2.03 3.46.6.74 1.26 1.3 2 1.6.51.25 1.05.35 1.62.35 0 0 2.33.29 5.85 1.67 7.14 2.8 19.15 10.14 26.04 28.89.91 2.44 1.73 5.12 2.43 8 1.81 7.28 2.88 15.92 2.88 26.21z" fill="#efd0ad"/><path d="M173.03 218.84v.05c-1.54 2.35-6.68 9.13-16.85 9.13h-.1c-9.64-.05-15.27-7.02-16.7-9.09.29-2.06.59-4.22.84-6.48.09-1.32.24-2.7.39-4.12 4.7 1.18 9.83 1.91 15.27 2.01h.2c5.63-.1 10.82-.88 15.66-2.16.15 1.33.3 2.7.4 4.03.24 2.35.54 4.56.89 6.63z" fill="#be987f"/><path d="M155.39 59.86c-64.34 0-64.69 53.78-61.82 88.99-4.4-8.35-17.49-5.79-16.41 7.37 1.04 12.67 19.75 19.13 19.23 17.73 9.74 26.04 35.52 45.67 59 45.67h.49V59.86h-.49z" fill="#d2a686"/><path d="M81.27 150.67c3.16-5.11 8.1-2.9 9.29-1.77 1.28 1.23 2.32 2.8 1.53 5.8-.45 1.71-2.23 1.86-1.83 4.42.49 2.89 1.83 3.04 2.62 3.73.74.64 1.68 1.13 2.12 2.36.5 1.22.55 2.5.3 3.63-.5 2.06-3.51.39-5.54-.49-1.33-.64-5.58-4.23-6.67-5.4-2.66-3.05-3.95-8.94-1.82-12.28z" fill="#ac8774"/><path d="M155.73 59.86c64.34 0 64.68 53.78 61.87 88.99 4.39-8.35 17.44-5.79 16.35 7.37-.99 12.67-19.73 19.13-19.22 17.73-9.49 26.04-35.53 45.67-59 45.67h-.34l-.15-159.76h.49z" fill="#ddb598"/><path d="M229.85 150.67c-3.16-5.11-8.05-2.9-9.29-1.77-1.28 1.23-2.27 2.8-1.53 5.8.44 1.71 2.22 1.86 1.83 4.42-.5 2.89-1.83 3.04-2.57 3.73-.74.64-1.73 1.13-2.18 2.36-.44 1.22-.54 2.5-.29 3.63.49 2.06 3.51.39 5.53-.49 1.39-.64 5.59-4.23 6.67-5.4 2.72-3.05 3.96-8.94 1.83-12.28z" fill="#ac8774"/><path d="M154.88 75.03c-21.15 0-36.67 6.14-46 18.22-13.1 16.95-12.6 42.78-7.81 61.35 1.48 5.69 2.27 20.97 3.26 26.57 4.59 25.09 32.32 38.45 50.55 38.45h.49V75.03h-.29" fill="#e0bd9a"/><path d="M200.83 93.3c-9.29-12.03-24.6-18.17-45.46-18.27v144.59c20.86-.24 45.81-14.88 50.06-38.45 1.04-5.6 1.78-20.88 3.26-26.57 4.84-18.52 5.34-44.3-7.86-61.3z" fill="#efd0ad"/><path d="M152 193.99l-.3-.06c.09.02.18.04.3.06zm-.79-.17c-.09-.03-.17-.05-.27-.08h-.01s.11.03.28.08z" fill="#bc917b"/><path d="M152.17 191.06c-.1-.02-.2-.04-.31-.07.1.02.19.04.31.07zm-.8-.18c-.1-.03-.18-.05-.28-.08l-.01.01s.11.02.29.07z" fill="#ba907b"/><path d="M144.31 172.69c-.25-5.13 9.43-1.87 12.62-1.71 2.52.13 10.19-1.62 10.85-1.17 4.51 3.04-4.78 9.17-11.01 9.17-1.66 0-12.31-3.19-12.46-6.29z" fill="#dcb497"/><path d="M152.31 193.43c-.11-.02-.21-.04-.31-.06.1.02.19.04.31.06zm-.81-.18c-.1-.02-.18-.05-.28-.07h-.01s.11.03.29.07z" fill="#ba907b"/><path d="M151.93 192.86c-.11-.02-.22-.04-.33-.07.11.03.2.05.33.07zm-.86-.19c-.11-.02-.2-.05-.3-.08h-.01s.11.03.31.08zm.61-.65c-.11-.02-.22-.04-.33-.07.11.03.2.05.33.07zm-.86-.19c-.11-.03-.2-.06-.3-.08h-.01s.11.03.31.08zm1.63.08zm-.83-.19c-.1-.02-.19-.05-.29-.08l-.01.01s.11.03.3.07z" fill="#bc917b"/><path d="M149.33 200.46c-.1-.02-.21-.04-.31-.07.1.03.19.05.31.07zm-.8-.18c-.1-.02-.18-.05-.28-.08l-.01.01s.11.03.29.07zm.57-.6c-.1-.02-.21-.04-.31-.07.1.03.19.05.31.07zm-.8-.18c-.09-.02-.18-.05-.28-.08l-.01.01s.11.03.29.07zm1.51.07l-.29-.06c.09.02.18.04.29.06zm-.77-.17c-.09-.02-.17-.05-.27-.07 0 0 .1.03.27.07z" fill="#be927b"/><path d="M143.08 201.97c-.25-3.2 8.91.67 11.91.76 2.4.08 9.6-.47 10.27-.73 5.03-1.88-.28 5.35-10.42 5.73-4.64.19-11.63-3.82-11.76-5.76z" fill="#f0d2ad"/><path d="M173.24 194.28c-5.8-1.08-18.03.08-18.03.08-10.08 1.67-17.97-.11-18.03-.04-.24.02 8.05 11.02 17.89 10.52 9.85.5 18.41-10.52 18.17-10.56z" fill="#c2646e"/><path d="M161.04 191.96c-2.61-.29-4.48 1.6-5.82 1.46-1.36.13-3.14-1.08-5.77-1.11-3.7-.03-5.5-.36-12.27 2.01.24.46 4.58 2.97 12.7 3.11.11 0 2.29 1.24 5.39 1.21 1.94-.01 4.6-1.3 4.7-1.3 8.13-.13 13.1-2.55 13.33-3-8.95-2.77-8.24-2.41-12.26-2.38z" fill="#d87475"/><path d="M109.22 131.07s4.91 20.2 13.34 21.85c8.42 1.65 17.54-1.63 17.54-1.63s.87-23.74-3.44-26.84c-4.31-3.11-14.25-7.62-27.44 6.62z" fill="#fff"/><path d="M140.11 151.23s-.19.05-.62.24c-.11-7.29-.78-17.29-3.48-19.2-4-2.94-13.05-7.09-25.13 4.24-1.1-3.13-1.65-5.5-1.65-5.5 13.21-14.27 23.16-9.77 27.44-6.65 4.31 3.11 3.44 26.87 3.44 26.87z" fill="#d6b496"/><path d="M135.12 140.94c0 4.6-3.71 8.32-8.29 8.32-4.58 0-8.29-3.72-8.29-8.32 0-4.59 3.71-8.32 8.29-8.32 4.58 0 8.29 3.73 8.29 8.32z" fill="#482315"/><path d="M126.44 146.48c-2.39-.19-4.23-2.62-4.01-5.29.21-2.66 2.42-4.75 4.82-4.54 2.39.19 4.23 2.61 4.02 5.28-.22 2.67-2.43 4.75-4.83 4.55z" fill="#7e3a22"/><path d="M126.65 145.52c-1.67-.14-3.4-1.97-3.21-4.23.19-2.27 2.19-3.8 3.85-3.66 1.67.14 3.4 1.98 3.21 4.24-.18 2.26-2.19 3.79-3.85 3.65z" fill="#211a10"/><path d="M125.3 135.83c-.07.82-.9 1.42-1.86 1.34-.96-.08-1.68-.82-1.62-1.63.07-.82.9-1.41 1.86-1.34.96.08 1.69.81 1.62 1.63zm5.38 8.84c-.04.41-.45.71-.93.67-.48-.04-.84-.41-.81-.81.03-.41.45-.71.93-.67.48.04.84.4.81.81zm71.35-14.28s-4.91 20.19-13.33 21.84c-8.43 1.65-17.55-1.63-17.55-1.63s-.87-23.73 3.44-26.84c4.31-3.11 14.25-7.61 27.44 6.63z" fill="#fff"/><path d="M171.14 150.54s.19.06.62.24c.11-7.28.78-17.28 3.48-19.2 4-2.94 13.05-7.08 25.14 4.24 1.09-3.13 1.64-5.5 1.64-5.5-13.21-14.26-23.16-9.77-27.43-6.65-4.32 3.11-3.45 26.87-3.45 26.87z" fill="#d6b496"/><path d="M176.13 140.26c0 4.59 3.71 8.32 8.29 8.32 4.58 0 8.29-3.73 8.29-8.32 0-4.6-3.71-8.32-8.29-8.32-4.58 0-8.29 3.72-8.29 8.32z" fill="#482315"/><path d="M184.81 145.8c2.39-.2 4.23-2.63 4.01-5.29-.21-2.67-2.42-4.75-4.82-4.55-2.39.2-4.23 2.62-4.02 5.28.22 2.67 2.43 4.76 4.83 4.56z" fill="#7e3a22"/><path d="M184.6 144.83c1.67-.14 3.4-1.97 3.21-4.23-.18-2.27-2.19-3.8-3.85-3.66-1.67.14-3.4 1.98-3.21 4.24.18 2.27 2.19 3.79 3.85 3.65z" fill="#211a10"/><path d="M185.95 139.26c.07.82.9 1.41 1.86 1.33.96-.08 1.69-.81 1.62-1.62-.07-.82-.9-1.42-1.86-1.34-.96.08-1.69.81-1.62 1.63zm-5.38 4.72c.04.41.45.71.93.67.48-.04.84-.41.81-.81-.03-.41-.45-.71-.93-.67-.48.04-.84.4-.81.81z" fill="#fff"/><path d="M145.16 130.75c-.06-.1-1.59-2.43-4.72-4.83-1.96-1.51-3.87-2.66-5.87-3.51a30.429 30.429 0 0 0-7.55-2.09c-2.28-.26-4.81-.19-7.77.21-2.25.43-4.45 1.1-6.31 1.93-1.34.46-2.39 1.1-3.23 1.62-.32.2-.62.38-.92.54l-4.02 2.54 4.64-1.09c.21-.06.45-.12.7-.18.96-.26 2.15-.58 3.55-.78.33-.05.67-.12 1.01-.19.58-.11 1.18-.23 1.81-.26.71-.05 1.44-.1 2.19-.16l.97-.07c2.57-.03 4.74.17 6.67.61 2.1.37 4.27 1.05 6.25 1.97 1.88.9 3.68 1.79 5.08 2.83 2.83 1.89 4.41 3.48 4.43 3.49.39.39.91.6 1.43.6.38 0 .76-.11 1.1-.33.93-.61 1.19-1.88.6-2.79l-.04-.06zm57.7-6.15c-.27-.14-.56-.32-.88-.52-.85-.52-1.9-1.16-3.19-1.61-1.91-.84-4.1-1.51-6.39-1.94-2.92-.4-5.46-.47-7.75-.21-2.51.35-5.12 1.07-7.54 2.09-1.96.84-3.94 2.02-5.87 3.51-3.07 2.36-4.59 4.65-4.71 4.82l-.03.05c-.52.8-.4 1.87.27 2.54.38.39.88.6 1.42.6.54 0 1.05-.21 1.43-.6l.02-.02c.15-.14 1.68-1.65 4.42-3.49 1.38-1.01 3.18-1.91 5.05-2.81 2-.92 4.16-1.6 6.3-1.97 1.9-.44 4.07-.64 6.61-.61l1.02.07c.74.06 1.46.11 2.17.16.62.03 1.23.15 1.81.26.34.07.67.14 1 .19 1.4.2 2.6.52 3.56.78.25.06.48.12.7.18l4.64 1.09-4.06-2.56z" fill="#030405"/><path d="M208.88 284.85c.09 6.61.31 11.71.52 15h-17.7l-31.52-54.66c5.52-1.03 11.5-4.59 17.53-12.43.6.74 1.26 1.3 2 1.6.51.25 1.05.35 1.62.35 0 0 2.33.29 5.85 1.67 7.14 2.8 19.15 10.14 26.04 28.89.91 2.44 1.73 5.12 2.43 8h-6.75c-.06 4.26-.06 8.13-.02 11.58z" fill="#7a151d"/><path d="M145.88 299.85h-43.04c.21-3.29.43-8.39.54-15 .04-3.47.04-7.32 0-11.58h-6.63c.7-2.88 1.53-5.56 2.43-8 2.12-5.78 4.71-10.48 7.51-14.28l39.19 48.86z" fill="#e1702b"/><path d="M191.7 299.85h-45.82l-39.19-48.86c7.41-10.08 16.15-13.99 20.88-15.45 2.14-.66 3.46-.83 3.46-.83.23 0 .43-.02.66-.06 1.05-.16 1.97-.74 2.82-1.64 2.57 3.16 10.88 12.18 21.56 12.48 1.34.05 2.71-.04 4.11-.3l31.52 54.66z" fill="#ee3336"/><path d="M232.82 112.1c-.55-7.66-1.74-14.52-3.3-20.44-2.45-17.92-12.31-28.44-18.35-33.33l-.11-.09c-2.77-2.23-4.71-3.26-4.71-3.26-3.38-2.06-7.24-3.93-11.62-5.77 0-.21.04-.41.04-.6 0-2.3-.38-4.52-1-6.65h11.8c.24 1.35 1.54 2.39 3.12 2.39 1.75 0 3.17-1.26 3.17-2.83 0-1.56-1.42-2.83-3.17-2.83-1.58 0-2.88 1.05-3.12 2.4h-12.08c-4.05-11.98-17.46-20.79-33.45-20.79-15.97 0-29.4 8.81-33.44 20.79H97.13c-.24-1.35-1.54-2.4-3.12-2.4-1.75 0-3.17 1.27-3.17 2.83 0 1.57 1.42 2.83 3.17 2.83 1.58 0 2.88-1.04 3.12-2.39h29.23c-.41 1.37-.73 2.76-.88 4.2-8.87 2.12-15.65 6.86-20.78 12.53-5.51 5.08-10.1 10.85-12.27 14.93-4.33 8.14-15.12 25.82-18.58 38.6-3.48 12.79 8.19 25.19 15.46 27.84 3.59 1.31 5.04 7.8 5.34 10.64 0 0-.17 8.27 4.8 8.27 0 0-2.39-19.26 10.72-21.04-2.95 13.74 22.06 24.89 22.06 24.89-25.76-21.27 6.44-28.03 6.44-28.03 1.4-.37 2.74-.78 4.07-1.21 3.96-1.3 7.57-2.88 10.84-4.66 2.23-1.21 4.3-2.51 6.21-3.87 14.53-10.29 20.47-23.81 21.59-26.64 1.22 16.84-8.33 30.38-11.67 34.56-.7.87-1.15 1.36-1.15 1.36 1.11-.58 2.18-1.17 3.22-1.76 5.44-1.16 9.56-3.12 15.82-6.2-4.41 10.62-17.86 16.17-17.86 16.17 18.79-2.81 27.41-9.4 31.38-15.02 12.86-1.27 10.63 32.83 10.63 32.83 2.32-.36 4.28-1.8 4.99-3.8.13-.36.23-.73.3-1.1 2.34-12.01 3.77-12.77 4.02-13.09 1.07-1.06 2.47-2.11 4.33-3.03 2.37-1.18 4.06-3.45 5.26-6.04 2.13-3.6 2.8-8.13 2.8-10.49 0-3.77-.24-7.33-.63-10.7z" fill="#3a393b"/></g></svg>