<svg viewBox="0 0 298 301" xmlns="http://www.w3.org/2000/svg" fill-rule="evenodd" clip-rule="evenodd" stroke-linejoin="round" stroke-miterlimit="1.414"><g fill-rule="nonzero"><path fill="#1c87a1" d="M.21.48h296.865v299.71H.21z"/><path d="M203.749 173.57s34.773 64.57-30.035 69.83c0 0-58.714-41.37 30.035-69.83z" fill="#32283f"/><path d="M146.272 187.93v112.25H85.558c-1.008-.39-1.482-.6-1.482-.6 0-4.71.226-9.07.659-13.12.843-8.27 2.489-15.23 4.629-21.09 4.732-12.9 11.912-20.39 18.229-24.73.103-.06.205-.15.308-.21 3.868-2.59 7.428-4.01 9.876-4.77.823-.27 1.523-.45 2.057-.56.885-.2 1.379-.26 1.379-.26.103 0 .205 0 .308-.03.124 0 .247-.02.371-.04 1.193-.18 2.242-.9 3.148-2.05.576-.7 1.09-1.55 1.563-2.55.926-1.98 1.708-4.49 2.325-7.39.247-1.15.453-2.28.659-3.52.288-2.08.576-4.26.822-6.52.103-1.38.247-2.72.412-4.16.535-6.87.679-14.38.679-21.5 0 0 8.168.85 14.772.85z" fill="#e0bd9a"/><path d="M208.736 299.58s-.535.21-1.44.6h-61.024V187.93h.144c6.584 0 14.834-.85 14.834-.85 0 7.06.144 14.49.7 21.36.144 1.34.288 2.71.391 4.05.247 2.37.535 4.59.885 6.67v.04c.102.95.288 1.79.452 2.67.597 2.93 1.317 5.5 2.202 7.55.411.97.864 1.84 1.337 2.58.802 1.19 1.687 2.05 2.695 2.49.515.22 1.049.35 1.626.35 0 0 .185.02.535.08.246.04.576.1.967.2 1.008.23 2.51.64 4.32 1.36 2.16.84 4.773 2.1 7.53 3.95.391.27.803.54 1.193.82 6.111 4.45 12.818 11.83 17.345 24.12 2.16 5.86 3.806 12.82 4.67 21.09.412 4.05.638 8.41.638 13.12z" fill="#efd0ad"/><path d="M163.224 218.95v.05c-1.531 2.36-6.671 9.13-16.849 9.13h-.1c-9.635-.04-15.268-7.02-16.701-9.08.296-2.06.593-4.23.84-6.48.099-1.33.247-2.71.395-4.13a67.322 67.322 0 0 0 15.269 2.01h.197a64.948 64.948 0 0 0 15.664-2.16c.149 1.33.297 2.7.396 4.03.247 2.36.543 4.57.889 6.63z" fill="#be987f"/><path d="M145.584 59.97c-64.336 0-64.682 53.78-61.816 88.99-4.398-8.35-17.493-5.79-16.405 7.37C68.4 169 87.108 175.46 86.584 174.06c9.743 26.04 35.529 45.68 59 45.68h.494V59.97h-.494z" fill="#d2a686"/><path d="M71.464 150.78c3.162-5.11 8.104-2.9 9.29-1.77 1.284 1.23 2.322 2.8 1.531 5.8-.444 1.72-2.223 1.86-1.828 4.42.494 2.9 1.828 3.04 2.619 3.73.741.64 1.68 1.13 2.125 2.36.494 1.23.543 2.5.296 3.63-.494 2.07-3.508.4-5.534-.49-1.334-.64-5.584-4.22-6.671-5.4-2.668-3.05-3.953-8.94-1.828-12.28z" fill="#ac8774"/><path d="M145.93 59.97c64.336 0 64.682 53.78 61.865 88.99 4.398-8.35 17.442-5.79 16.356 7.37-.988 12.67-19.733 19.13-19.222 17.73-9.49 26.04-35.528 45.68-58.999 45.68h-.346l-.148-159.77h.494z" fill="#ddb598"/><path d="M220.05 150.78c-3.163-5.11-8.055-2.9-9.29-1.77-1.285 1.23-2.273 2.8-1.532 5.8.445 1.72 2.224 1.86 1.828 4.42-.494 2.9-1.828 3.04-2.569 3.73-.741.64-1.729 1.13-2.174 2.36-.445 1.23-.544 2.5-.297 3.63.494 2.07 3.508.4 5.535-.49 1.383-.64 5.582-4.22 6.67-5.4 2.718-3.05 3.953-8.94 1.829-12.28z" fill="#ac8774"/><path d="M145.078 75.15c-21.149 0-36.665 6.14-46.004 18.22-13.095 16.94-12.6 42.78-7.807 61.34 1.482 5.7 2.273 20.97 3.261 26.57 4.595 25.1 32.316 38.46 50.55 38.46h.494V75.15h-.297" fill="#e0bd9a"/><path d="M191.032 93.42c-9.29-12.04-24.608-18.17-45.46-18.27v144.59c20.852-.25 45.806-14.89 50.055-38.46 1.038-5.6 1.779-20.87 3.262-26.57 4.842-18.52 5.336-44.3-7.857-61.29z" fill="#efd0ad"/><path d="M142.197 194.1l-.303-.06c.099.02.187.04.303.06zm-.785-.17c-.093-.02-.178-.05-.269-.08l-.01.01s.104.03.279.07z" fill="#bc917b"/><path d="M127.61 75.51l-.267.27.044.08c.089-.13.134-.26.223-.35z" fill="#432e1b"/><path d="M142.373 191.17l-.311-.06c.101.02.191.04.311.06zm-.807-.18c-.096-.02-.182-.05-.276-.08l-.011.01s.107.03.287.07z" fill="#ba907b"/><path d="M132.999 176.66c-.251-5.13 9.426-1.87 12.616-1.71 2.521.13 10.192-1.62 10.85-1.17 4.513 3.05-4.779 9.17-11.01 9.17-1.66 0-12.306-3.19-12.456-6.29z" fill="#dcb497"/><path d="M99.419 131.58s4.908 20.14 13.335 21.78c8.426 1.64 17.546-1.62 17.546-1.62s.872-23.67-3.443-26.76c-4.311-3.1-14.25-7.59-27.438 6.6z" fill="#fff"/><path d="M130.312 151.67s-.194.06-.627.24c-.107-7.26-.779-17.23-3.473-19.14-4.006-2.93-13.052-7.06-25.138 4.23-1.098-3.12-1.649-5.48-1.649-5.48 13.212-14.22 23.16-9.74 27.439-6.63 4.319 3.1 3.448 26.78 3.448 26.78z" fill="#d6b496"/><path d="M125.322 141.42a8.29 8.29 0 0 1-8.294 8.29 8.29 8.29 0 1 1 0-16.58 8.29 8.29 0 0 1 8.294 8.29z" fill="#482315"/><path d="M116.643 146.94c-2.395-.19-4.234-2.61-4.015-5.27.214-2.65 2.422-4.73 4.819-4.53 2.395.19 4.23 2.61 4.019 5.26-.218 2.66-2.429 4.74-4.823 4.54z" fill="#7e3a22"/><path d="M116.85 145.99c-1.667-.15-3.397-1.98-3.213-4.23.187-2.26 2.189-3.78 3.856-3.65 1.668.14 3.393 1.98 3.21 4.23-.184 2.26-2.19 3.78-3.853 3.65z" fill="#211a10"/><path d="M115.5 140.43c-.07.81-.906 1.41-1.863 1.33-.96-.08-1.683-.81-1.618-1.62.069-.82.9-1.41 1.859-1.34.963.08 1.687.81 1.622 1.63zm5.377 4.71c-.035.4-.452.7-.93.66-.481-.04-.841-.4-.811-.81.035-.4.453-.7.93-.66.481.04.846.4.811.81z" fill="#fff"/><path d="M142.504 193.55zm-.805-.18c-.096-.03-.183-.06-.277-.08h-.011l.288.08z" fill="#ba907b"/><path d="M146.055 195.94h.001-.001zm-3.928-2.96c-.111-.03-.222-.05-.333-.07.109.02.206.04.333.07zm-.863-.19c-.103-.03-.196-.06-.297-.09l-.011.01.308.08zm4.791-.02h.001-.001zm-.248 2.32h.001-.001zm-3.928-2.95c-.111-.03-.222-.05-.333-.07.109.02.205.04.333.07zm-.863-.2c-.103-.02-.196-.05-.297-.08h-.011s.114.04.308.08zm4.791-.01h.001-.001zm.639 2.95h.001-.001zm-3.796-2.86zm-.835-.19c-.099-.02-.19-.05-.287-.08l-.011.01s.111.03.298.07zm4.631-.01h.001-.001z" fill="#bc917b"/><path d="M192.229 130.9s-4.908 20.13-13.334 21.77c-8.427 1.65-17.547-1.62-17.547-1.62s-.872-23.66 3.443-26.75c4.311-3.11 14.25-7.6 27.438 6.6z" fill="#fff"/><path d="M161.336 150.99s.194.05.627.24c.107-7.26.778-17.23 3.473-19.14 4.006-2.94 13.052-7.06 25.138 4.23 1.098-3.12 1.649-5.49 1.649-5.49-13.212-14.22-23.16-9.74-27.439-6.63-4.319 3.1-3.448 26.79-3.448 26.79z" fill="#d6b496"/><path d="M166.326 140.74a8.29 8.29 0 0 0 8.294 8.29 8.29 8.29 0 0 0 8.293-8.29c0-4.59-3.713-8.3-8.293-8.3a8.293 8.293 0 0 0-8.294 8.3z" fill="#482315"/><path d="M175.005 146.26c2.395-.2 4.234-2.62 4.015-5.27-.214-2.66-2.422-4.74-4.819-4.54-2.395.2-4.231 2.61-4.019 5.27.218 2.66 2.429 4.74 4.823 4.54z" fill="#7e3a22"/><path d="M174.798 145.3c1.667-.14 3.397-1.97 3.213-4.22-.187-2.26-2.189-3.79-3.856-3.65-1.668.14-3.393 1.98-3.21 4.23.184 2.26 2.19 3.78 3.853 3.64z" fill="#211a10"/><path d="M176.148 139.74c.07.82.905 1.41 1.863 1.33.96-.08 1.683-.81 1.618-1.62-.069-.81-.9-1.41-1.859-1.33-.963.08-1.687.8-1.622 1.62zm-5.377 4.71c.035.41.452.71.93.67.481-.04.841-.41.811-.81-.035-.41-.453-.71-.93-.67-.481.04-.846.4-.811.81z" fill="#fff"/><path d="M135.361 131.26c-.064-.1-1.593-2.42-4.719-4.82-1.959-1.5-3.878-2.65-5.87-3.5a30.897 30.897 0 0 0-7.551-2.08c-2.284-.25-4.815-.19-7.768.21-2.254.43-4.453 1.1-6.319 1.92-1.331.46-2.382 1.11-3.227 1.62-.323.2-.616.38-.914.54l-4.025 2.53 4.639-1.09c.216-.05.45-.11.701-.18.96-.25 2.154-.57 3.555-.78.327-.04.661-.11 1.001-.18.584-.11 1.187-.23 1.819-.26.703-.05 1.432-.1 2.181-.16l.973-.07c2.57-.03 4.739.16 6.667.61 2.107.36 4.273 1.04 6.259 1.96 1.875.9 3.673 1.79 5.076 2.82 2.833 1.89 4.41 3.47 4.425 3.48.39.39.91.6 1.433.6.381 0 .763-.11 1.097-.33.934-.61 1.196-1.87.602-2.78l-.035-.06zm57.697-6.13c-.267-.14-.56-.32-.884-.52-.844-.51-1.895-1.16-3.186-1.6-1.906-.84-4.105-1.51-6.386-1.94-2.928-.4-5.459-.46-7.753-.21a31.059 31.059 0 0 0-7.543 2.08c-1.963.84-3.936 2.02-5.866 3.5-3.07 2.35-4.596 4.64-4.711 4.81l-.029.04c-.518.8-.407 1.87.263 2.54.382.39.889.6 1.428.6h.001c.54 0 1.046-.21 1.426-.6l.016-.01c.15-.15 1.68-1.65 4.428-3.48 1.381-1.02 3.18-1.91 5.05-2.81 1.993-.92 4.16-1.6 6.293-1.97 1.901-.44 4.074-.63 6.61-.6l1.022.07c.743.06 1.465.11 2.172.16.623.03 1.226.15 1.81.26.34.07.673.14 1 .18 1.401.21 2.595.53 3.556.78.25.07.484.13.707.18l4.636 1.09-4.06-2.55z" fill="#030405"/><path d="M139.529 200.57l-.309-.06c.101.02.19.04.309.06zm-.8-.17c-.096-.03-.182-.06-.276-.08h-.01l.286.08zm.57-.61l-.309-.06c.101.02.19.04.309.06zm-.8-.18c-.096-.02-.182-.05-.276-.07h-.01s.106.03.286.07zm1.514.08a3.23 3.23 0 0 1-.299-.07c.098.03.184.04.299.07zm-.774-.18c-.092-.02-.175-.05-.266-.07h-.01s.103.03.276.07z" fill="#be927b"/><path d="M133.274 202.08c-.24-3.2 8.912.67 11.918.77 2.397.08 9.6-.48 10.266-.73 5.035-1.88-.275 5.35-10.415 5.73-4.646.18-11.631-3.83-11.769-5.77z" fill="#f0d2ad"/><path d="M163.441 194.4c-5.804-1.09-18.031.07-18.031.07-10.083 1.68-17.974-.11-18.032-.04-.24.03 8.053 11.03 17.894 10.52 9.842.51 18.41-10.52 18.169-10.55z" fill="#c2646e"/><path d="M151.241 192.08c-2.615-.29-4.478 1.59-5.819 1.46-1.366.12-3.139-1.09-5.77-1.11-3.7-.04-5.506-.37-12.274 2 .241.46 4.577 2.97 12.698 3.11.115 0 2.294 1.24 5.391 1.22 1.939-.01 4.599-1.31 4.703-1.31 8.133-.13 13.099-2.54 13.328-2.99-8.946-2.78-8.237-2.42-12.257-2.38z" fill="#d87475"/><path d="M214.808 64.27c-13.484-24.86-59.331-44.22-119.153-22.96l.019-.02c-3.365 1.98-6.68 4.2-9.711 6.68a69.05 69.05 0 0 0-5.189 4.68s-1.007.91-2.529 2.71c-2.61 2.99-4.612 5.96-6.162 8.94-6.545 11.66-12.94 31.85-3.665 59.71h.005c1.02 3.1 2.151 5.9 3.36 8.41 4.979 10.33 11.148 15.91 15.374 18.75 2.94 1.97 4.941 2.63 4.941 2.63s-2.315-3.54-4.483-8.68c-.035-2.76-.37-5.88-1.173-9.38-1.129-4.87 1.174-16.7 7.194-26.15 4.778-7.51 11.907-13.5 21.536-13.35.911.02 1.845.09 2.802.22 1.103.15 2.226.35 3.39.66 4.598 1.23 8.394 2.56 11.298 4.3 3.484 2.09 6.826 5.46 9.705 8.94 5.268 6.37 8.961 13.11 8.961 13.11s14.714 25.17 43.527 15.24h.006l.167-.07c.306-.11.617-.23.923-.35 5.74-1.84 7.148 4.3 7.48 8.13.091 11.32 2.8 11.24 2.8 11.24 1.348 0-.096-6.49 4.411-10.95 3.892-3.87 9.542-15.64 11.004-28.45 5.94-33.58-6.835-53.98-6.838-53.99z" fill="#32283f"/><path d="M198.757 300.18v.21h-38.042l-.061-.21h-27.652l-.082.21H94.878l.02-.21c.268-4.82.659-11.75 1.07-15.53 1.523-15.23 9.403-20.23 11.625-44.01.103-.06.205-.15.308-.21 3.868-2.59 7.428-4.01 9.876-4.77.823-.27 1.523-.45 2.057-.56.885-.2 1.379-.26 1.379-.26.103 0 .205 0 .308-.03 5.206 10.46 14.176 24.63 24.751 25.74.186.04.371.04.556.06.185-.02.37-.02.535-.06 10.534-1.11 19.484-15.18 24.71-25.63.246.04.576.1.967.2 1.008.23 2.51.64 4.32 1.36 2.16.84 4.773 2.1 7.53 3.95.391.27.803.54 1.193.82 2.305 23.25 10.061 28.31 11.584 43.4.411 3.78.802 10.71 1.09 15.53z" fill="#30718a"/></g></svg>