<svg viewBox="0 0 300 301" xmlns="http://www.w3.org/2000/svg" fill-rule="evenodd" clip-rule="evenodd" stroke-linejoin="round" stroke-miterlimit="1.414"><path fill="#7f263f" fill-rule="nonzero" d="M.399.365H299.77V300.07H.399z"/><path d="M154.34 187.618v112.621H93.62c-.99-.395-1.48-.596-1.48-.596 0-14.376 2.1-25.584 5.3-34.325 7.73-21.096 21.88-27.796 28.4-29.816 2.13-.663 3.45-.823 3.45-.823.23 0 .45-.021.67-.056 1.91-.309 3.46-1.975 4.71-4.633.92-1.974 1.7-4.494 2.33-7.409.25-1.137.45-2.283.65-3.522.29-2.083.58-4.262.84-6.545.09-1.389.24-2.726.39-4.165.54-6.89.69-14.433.69-21.574 0 0 8.16.843 14.77.843z" fill="#e0bd9a" fill-rule="nonzero"/><path d="M216.8 299.643s-.54.201-1.43.596h-61.03V187.618h.15c6.57 0 14.83-.843 14.83-.843 0 7.09.14 14.53.69 21.425.15 1.342.3 2.725.39 4.067.25 2.38.55 4.612.89 6.694v.047c.1.946.3 1.789.45 2.678.6 2.931 1.33 5.507 2.2 7.574 1.1 2.571 2.42 4.365 4.03 5.075.52.231 1.06.344 1.63.344 0 0 2.34.283 5.84 1.661 7.15 2.807 19.16 10.175 26.05 28.978 3.21 8.741 5.31 19.949 5.31 34.325z" fill="#efd0ad" fill-rule="nonzero"/><path d="M171.29 218.751v.049c-1.53 2.365-6.67 9.164-16.85 9.164h-.09c-9.64-.05-15.27-7.045-16.71-9.115.3-2.069.6-4.236.84-6.503.1-1.33.25-2.709.4-4.138a67.64 67.64 0 0 0 15.27 2.02h.2a65.314 65.314 0 0 0 15.66-2.168c.15 1.33.3 2.71.4 4.04.24 2.365.54 4.582.88 6.651z" fill="#be987f" fill-rule="nonzero"/><path d="M153.65 59.274c-64.33 0-64.68 53.948-61.81 89.272-4.4-8.375-17.49-5.814-16.41 7.39 1.04 12.711 19.75 19.189 19.22 17.785 9.75 26.124 35.53 45.818 59 45.818h.5V59.274h-.5z" fill="#d2a686" fill-rule="nonzero"/><path d="M79.53 150.369c3.17-5.124 8.11-2.907 9.29-1.774 1.29 1.232 2.33 2.808 1.54 5.814-.45 1.724-2.23 1.872-1.83 4.434.49 2.906 1.83 3.054 2.62 3.744.74.64 1.68 1.133 2.12 2.365.5 1.231.54 2.512.3 3.645-.5 2.07-3.51.394-5.54-.492-1.33-.641-5.58-4.237-6.67-5.42-2.67-3.054-3.95-8.966-1.83-12.316z" fill="#ac8774" fill-rule="nonzero"/><path d="M154 59.274c64.34 0 64.68 53.948 61.87 89.272 4.39-8.375 17.44-5.814 16.35 7.39-.99 12.711-19.73 19.193-19.22 17.785-9.49 26.124-35.53 45.818-59 45.818h-.35l-.14-160.265h.49z" fill="#ddb598" fill-rule="nonzero"/><path d="M228.12 150.369c-3.16-5.124-8.05-2.907-9.29-1.774-1.28 1.232-2.27 2.808-1.53 5.814.44 1.724 2.22 1.872 1.83 4.434-.5 2.906-1.83 3.054-2.57 3.744-.74.64-1.73 1.133-2.18 2.365-.44 1.231-.54 2.512-.29 3.645.49 2.07 3.5.394 5.53-.492 1.38-.641 5.58-4.237 6.67-5.42 2.72-3.054 3.95-8.966 1.83-12.316z" fill="#ac8774" fill-rule="nonzero"/><path d="M153.15 74.498c-21.15 0-36.67 6.158-46.01 18.278-13.09 16.997-12.6 42.911-7.8 61.534 1.48 5.715 2.27 21.037 3.26 26.653 4.59 25.175 32.31 38.576 50.55 38.576h.49V74.498h-.49z" fill="#e0bd9a" fill-rule="nonzero"/><path d="M199.1 92.826c-9.29-12.071-24.61-18.229-45.46-18.328v145.041c20.85-.246 45.81-14.928 50.06-38.576 1.04-5.616 1.78-20.938 3.26-26.653 4.84-18.574 5.34-44.438-7.86-61.484z" fill="#efd0ad" fill-rule="nonzero"/><path d="M153.83 191.091h.01-.01zm-3.56 2.737c-.1-.022-.2-.042-.31-.065.1.022.19.041.31.065zm-.79-.176c-.09-.024-.18-.051-.27-.076l-.01.005.28.071zm4.35-.017h.01-.01z" fill="#bc917b" fill-rule="nonzero"/><path d="M141.58 175.012c-.25-5.012 9.18-1.831 12.28-1.674 2.46.125 9.93-1.58 10.57-1.141 4.39 2.972-4.66 8.957-10.72 8.957-1.62 0-11.99-3.119-12.13-6.142z" fill="#ddb598" fill-rule="nonzero"/><path d="M135.68 74.86l-.27.268.05.09c.09-.135.13-.269.22-.358z" fill="#432e1b" fill-rule="nonzero"/><path d="M150.44 190.886c-.1-.023-.2-.043-.31-.067.1.023.19.042.31.067zm-.8-.181c-.1-.025-.19-.052-.28-.078l-.01.005s.11.029.29.073z" fill="#ba907b" fill-rule="nonzero"/><path d="M107.49 131.108s4.91 20.198 13.33 21.847c8.43 1.648 17.55-1.628 17.55-1.628s.87-23.738-3.44-26.84c-4.31-3.114-14.25-7.617-27.44 6.621z" fill="#fff" fill-rule="nonzero"/><path d="M138.38 151.265s-.19.055-.62.237c-.11-7.282-.78-17.282-3.48-19.198-4-2.942-13.05-7.083-25.14 4.243-1.09-3.13-1.64-5.501-1.64-5.501 13.21-14.265 23.16-9.771 27.43-6.654 4.32 3.115 3.45 26.873 3.45 26.873z" fill="#d6b496" fill-rule="nonzero"/><path d="M133.39 140.979c0 4.595-3.71 8.319-8.29 8.319-4.58 0-8.3-3.724-8.3-8.319 0-4.595 3.72-8.32 8.3-8.32s8.29 3.725 8.29 8.32z" fill="#482315" fill-rule="nonzero"/><path d="M124.71 146.519c-2.39-.198-4.23-2.623-4.01-5.288.21-2.665 2.42-4.751 4.82-4.55 2.39.198 4.23 2.62 4.02 5.285-.22 2.665-2.43 4.754-4.83 4.553z" fill="#7e3a22" fill-rule="nonzero"/><path d="M124.92 145.558c-1.67-.142-3.4-1.977-3.21-4.237.18-2.267 2.19-3.797 3.85-3.66 1.67.142 3.4 1.985 3.21 4.245-.18 2.263-2.19 3.79-3.85 3.652z" fill="#211a10" fill-rule="nonzero"/><path d="M123.57 139.983c-.07.817-.91 1.413-1.86 1.335-.96-.083-1.69-.813-1.62-1.625.07-.82.9-1.418 1.86-1.339.96.079 1.68.808 1.62 1.629zm5.38 4.725c-.04.406-.46.706-.93.666-.48-.038-.84-.406-.81-.812.03-.406.45-.708.93-.666.48.037.84.402.81.812z" fill="#fff" fill-rule="nonzero"/><path d="M150.57 193.268l-.31-.067c.11.023.2.042.31.067zm-.8-.181c-.1-.024-.18-.052-.28-.077l-.01.004s.11.029.29.073z" fill="#ba907b" fill-rule="nonzero"/><path d="M150.2 192.698l-.34-.072.34.072zm-.87-.194c-.1-.027-.19-.056-.29-.083l-.01.004s.11.031.3.079zm.62-.651c-.11-.024-.22-.046-.33-.071l.33.071zm-.86-.194c-.11-.026-.2-.056-.3-.083l-.01.004s.11.032.31.079zm1.63.078c-.11-.023-.22-.044-.32-.069.1.024.2.044.32.069zm-.83-.187c-.1-.025-.19-.054-.29-.08l-.01.004s.11.031.3.076z" fill="#bc917b" fill-rule="nonzero"/><path d="M200.3 130.421s-4.91 20.198-13.33 21.847c-8.43 1.647-17.55-1.629-17.55-1.629s-.87-23.738 3.44-26.839c4.31-3.115 14.25-7.617 27.44 6.621z" fill="#fff" fill-rule="nonzero"/><path d="M169.41 150.577s.19.056.62.237c.11-7.28.78-17.281 3.48-19.197 4-2.942 13.05-7.084 25.13 4.242 1.1-3.129 1.65-5.501 1.65-5.501-13.21-14.264-23.16-9.77-27.44-6.653-4.32 3.114-3.44 26.872-3.44 26.872z" fill="#d6b496" fill-rule="nonzero"/><path d="M174.4 140.292c0 4.595 3.71 8.319 8.29 8.319 4.58 0 8.29-3.724 8.29-8.319 0-4.596-3.71-8.32-8.29-8.32-4.58 0-8.29 3.724-8.29 8.32z" fill="#482315" fill-rule="nonzero"/><path d="M183.07 145.832c2.4-.198 4.24-2.623 4.02-5.288-.21-2.666-2.42-4.751-4.82-4.55-2.39.198-4.23 2.619-4.02 5.285.22 2.665 2.43 4.755 4.82 4.553z" fill="#7e3a22" fill-rule="nonzero"/><path d="M182.87 144.87c1.67-.142 3.4-1.976 3.21-4.236-.19-2.267-2.19-3.797-3.85-3.66-1.67.142-3.4 1.985-3.21 4.245.18 2.263 2.19 3.789 3.85 3.651z" fill="#211a10" fill-rule="nonzero"/><path d="M184.22 139.295c.07.817.9 1.414 1.86 1.335.96-.082 1.68-.812 1.62-1.624-.07-.82-.9-1.418-1.86-1.339-.96.078-1.69.808-1.62 1.628zm-5.38 4.726c.04.406.45.706.93.666.48-.039.84-.406.81-.813-.03-.406-.45-.707-.93-.665-.48.037-.84.402-.81.812z" fill="#fff" fill-rule="nonzero"/><path d="M143.43 130.786c-.06-.098-1.59-2.43-4.72-4.834-1.96-1.508-3.88-2.655-5.87-3.509a30.252 30.252 0 0 0-7.55-2.088c-2.28-.254-4.81-.187-7.77.212-2.25.43-4.45 1.103-6.32 1.928-1.33.46-2.38 1.106-3.22 1.625-.33.199-.62.379-.92.54l-4.02 2.538 4.64-1.093c.21-.055.45-.116.7-.184.96-.254 2.15-.572 3.55-.778.33-.048.66-.115 1-.183.59-.117 1.19-.237 1.82-.267.71-.047 1.43-.1 2.18-.154l.98-.07c2.57-.032 4.74.163 6.66.609 2.11.364 4.28 1.046 6.26 1.969 1.88.9 3.68 1.792 5.08 2.825 2.83 1.898 4.41 3.48 4.42 3.495v.001c.39.392.91.596 1.44.596.38 0 .76-.108 1.09-.329.94-.613 1.2-1.876.61-2.787l-.04-.062zm57.7-6.145c-.27-.142-.56-.323-.89-.522-.84-.519-1.89-1.164-3.18-1.608-1.91-.841-4.11-1.514-6.39-1.949-2.93-.395-5.46-.462-7.75-.205a30.284 30.284 0 0 0-7.54 2.087c-1.97.842-3.94 2.022-5.87 3.508-3.07 2.36-4.6 4.651-4.71 4.828l-.03.041c-.52.8-.41 1.872.26 2.546.38.386.89.598 1.43.598a2.003 2.003 0 0 0 1.43-.598l.01-.017c.15-.149 1.68-1.65 4.43-3.491 1.38-1.017 3.18-1.911 5.05-2.81 2-.925 4.16-1.607 6.3-1.977 1.9-.44 4.07-.631 6.6-.604l1.03.073c.74.053 1.46.105 2.17.152.62.03 1.22.15 1.81.267.34.068.67.135 1 .183 1.4.206 2.59.524 3.55.778.26.068.49.129.71.185l4.64 1.093-4.06-2.558z" fill="#030405" fill-rule="nonzero"/><path d="M149.12 195.659c-.11-.023-.22-.044-.33-.069.11.023.2.043.33.069zm-.84-.188c-.11-.026-.2-.055-.29-.082l-.01.005s.11.03.3.077z" fill="#be927b" fill-rule="nonzero"/><path d="M141.75 199.826c-.24-3.247 9.02.68 12.06.774 2.43.082 9.71-.481 10.39-.739 5.09-1.911-.28 5.429-10.54 5.815-4.7.188-11.77-3.88-11.91-5.85z" fill="#f0d2ad" fill-rule="nonzero"/><path d="M171.9 193.566c-2.51-.124-5.09 1.977-8.12 1.656-.12-.062-.18-.062-.31-.062-.7-.123-1.39 0-2.14.185-.94.198-1.89.58-2.77.889-1.51.493-3.22.888-4.97.752v.012l-.1-.011-.09.011v-.012c-1.76.136-3.46-.259-4.97-.752-.89-.309-1.83-.691-2.77-.889-.76-.185-1.45-.308-2.14-.185-.13 0-.19 0-.31.062-3.03.321-5.61-1.78-8.12-1.656-.7.061-1.71-.124-2.27-.124.12.061.25.124.38.185 7.17 3.504 13.35 10.068 20.2 9.858h.19c6.85.21 13.03-6.354 20.2-9.858.13-.061.25-.124.38-.185-.57 0-1.57.185-2.27.124z" fill="#dcbf9e" fill-rule="nonzero"/><path d="M174.01 193.365s-7.29-2.815-12.47-1.163c0 0-1.93.754-3.93 1.214-1.22.475-2.69.613-4.12.556a22.674 22.674 0 0 1-2.97-.332c-.29-.043-.57-.101-.86-.163-.12-.026-.22-.046-.32-.069-.18-.041-.35-.075-.52-.12-.19-.046-.3-.077-.3-.077l.01-.004a33.828 33.828 0 0 1-3.08-1.005c-5.18-1.652-12.47 1.163-12.47 1.163-.1.046-.16.077-.16.077.56 0 1.57.185 2.27.124 2.51-.124 5.09 1.977 8.12 1.656.12-.062.18-.062.31-.062.69-.123 1.38 0 2.14.185.94.198 1.88.58 2.77.889 1.51.493 3.21.888 4.97.752v.012l.09-.011.1.011v-.012c1.75.136 3.46-.259 4.97-.752.88-.309 1.83-.691 2.77-.889.75-.185 1.44-.308 2.14-.185.13 0 .19 0 .31.062 3.03.321 5.61-1.78 8.12-1.656.7.061 1.7-.124 2.27-.124 0 0-.06-.031-.16-.077z" fill="#c69f83" fill-rule="nonzero"/><path d="M141.26 195.08c.13.033 13.65 4.163 24.22.09l-1.21-.822h-14.3l-8.71.732z" fill="#c69f83" fill-rule="nonzero"/><path d="M221.52 91.726a123.707 123.707 0 0 0-2.72-8.626c.01.009.2.045 2.06.045 11.52-.024 18.02-11.058 18.02-11.058s-4.35 6.296-19.3 1.388c-14.61-4.786-14.23-20.382-35.23-29.084-10.75-4.457-17.17-3.875-20.89-2.249 3.77-3.066 11.51-2.794 11.51-2.794s-9.55-5.211-24.32-.537c-10.37 3.288-16.58 7.03-20.06 9.713l5.82-5.498s-4.13 1.451-9.96 4.398c3.97-7.632 11.31-15.995 11.31-15.995-18.71 6.906-34.2 31.754-34.2 31.754 1.49-9.37 4.76-17.941 4.76-17.941-31.93 23.544-26.96 66.06-26.96 66.06 0 16.092 6.4 32.224 10.6 37.017 4.2 4.79 2.85 11.74 4.11 11.74 0 0 2.53.09 2.61-12.049.12-1.548.38-3.448.95-5.11 0 0 3.89-67.846 50.94-48.111 0 0 19.06 8.14 33.89 9.425 11.03.955 20.1 9.23 22.48 20.042 1.13 5.143 1.41 9.673.88 12.308-3.15 15.743 1.24 24.808 2.92 24.382 0 0 .06-3.998 1.59-7.561 4.51-10.613 8.31-3.238 9.01-17.628.56-11.553 1.97-18.081 2.54-23.944 3.58 2.833 8.93 4.842 16.92 5.007 0 0-11.3-3.47-19.28-25.094z" fill="#36393a" fill-rule="nonzero"/><path d="M145.85 139.458s-2.86 14.406-9.73 22.897c0 0-3.53 4.672-17.17 3.335 0 0-6.89-.044-11.88-1.749a8.171 8.171 0 0 1-5.34-5.943c-1.39-6.171-4.36-21.344-1.19-25.787 0 0 1.53-4.77 25.47-2.77 0 0 20.8-.381 19.84 10.017zm-7.25-11.289c-19.74-3.628-41.49-.575-41.49-.575-2.2.575-2.58 1.526-2.58 1.526v13.804c0 .896.39 1.748 1.07 2.33.52.451.94 1.038.94 1.038.76 5.15 4.39 15.356 4.39 15.356 2.57 6.106 15.83 6.486 15.83 6.486 16.79 1.527 20.13-2.384 20.13-2.384 5.24-3.145 11.63-19.361 11.63-19.361 1.05-4.107 5.06-3.721 5.06-3.721v-12.402c-2.29.571-14.98-2.097-14.98-2.097z" fill="#f0e91a" fill-rule="nonzero"/><path d="M205.43 157.998a8.19 8.19 0 0 1-5.34 5.943c-4.99 1.705-11.88 1.749-11.88 1.749-13.64 1.337-17.18-3.335-17.18-3.335-6.86-8.491-9.72-22.897-9.72-22.897-.96-10.398 19.84-10.017 19.84-10.017 23.94-2 25.47 2.77 25.47 2.77 3.16 4.443.19 19.616-1.19 25.787zm4.62-30.404s-21.75-3.053-41.49.575c0 0-12.69 2.668-14.98 2.097v12.402s4-.386 5.05 3.721c0 0 6.4 16.216 11.64 19.361 0 0 3.34 3.911 20.13 2.384 0 0 13.26-.38 15.84-6.486 0 0 3.62-10.206 4.39-15.356 0 0 .41-.587.92-1.038a3.066 3.066 0 0 0 1.07-2.33V129.12s-.38-.951-2.57-1.526z" fill="#d5cb27" fill-rule="nonzero"/><path d="M123.61 165.931c-1.41 0-2.95-.073-4.66-.241 0 0-6.89-.044-11.88-1.749a8.171 8.171 0 0 1-5.34-5.943c-.72-3.223-1.88-8.901-2.37-14.223.08-.297.17-.589.27-.875 0 0 .27-4.779 1.55-11.428.91-.717 3.07-1.766 8.09-2.254-.58.572-1.18 1.181-1.77 1.828 0 0 0 .015.01.043-.01.006-.02.013-.02.019 0 0 4.91 20.198 13.33 21.847 1.7.331 3.42.464 5.09.464 6.64 0 12.46-2.092 12.46-2.092v-.06l.01-.002s.45-12.215-.89-20.276c1.83 1.364 2.83 2.366 2.84 2.378v.001c.39.392.91.596 1.44.596.38 0 .76-.108 1.09-.329.09-.054.16-.113.23-.176 1.69 1.307 2.8 3.039 2.79 5.333 0 .217-.01.438-.03.666 0 0-2.86 14.406-9.73 22.897 0 0-2.7 3.576-12.51 3.576z" fill="url(#a)"/><path d="M125.91 153.419c-1.67 0-3.39-.133-5.09-.464-8.42-1.649-13.33-21.847-13.33-21.847 0-.006.01-.013.02-.019.08.337.62 2.576 1.63 5.458 5.16-4.831 9.76-6.848 13.65-7.344 1.03.065 2.1.144 3.22.238 0 0 .1-.002.28-.002.37 0 1.08.007 2.03.052 2.54.61 4.56 1.785 5.96 2.813 2.7 1.916 3.37 11.916 3.48 19.198.37-.159.57-.221.61-.235v.06s-5.82 2.092-12.46 2.092zm-.81-20.76c-4.58 0-8.3 3.725-8.3 8.32 0 4.595 3.72 8.319 8.3 8.319s8.29-3.724 8.29-8.319c0-4.595-3.71-8.32-8.29-8.32z" fill="url(#b)"/><path d="M137.76 151.502c-.11-7.282-.78-17.282-3.48-19.198-1.4-1.028-3.42-2.203-5.96-2.813 2.19.104 5.64.41 8.89 1.293.1.069.19.138.28.205 1.34 8.061.89 20.276.89 20.276l-.01.002c-.04.014-.24.076-.61.235zm-28.62-14.955a58.033 58.033 0 0 1-1.63-5.458c-.01-.028-.01-.043-.01-.043.59-.647 1.19-1.256 1.77-1.828 1.72-.166 3.76-.267 6.2-.267 2.13 0 4.55.076 7.32.252-3.89.496-8.49 2.513-13.65 7.344z" fill="url(#c)"/><path d="M125.1 149.298c-4.58 0-8.3-3.724-8.3-8.319 0-4.595 3.72-8.32 8.3-8.32s8.29 3.725 8.29 8.32c0 4.595-3.71 8.319-8.29 8.319zm-4.37-8.337c-.02.089-.03.179-.03.27-.22 2.665 1.62 5.09 4.01 5.288.11.009.22.014.32.014 1.06 0 2.07-.443 2.87-1.176a1.237 1.237 0 0 0 .2.02c.44 0 .81-.288.85-.669a.664.664 0 0 0-.15-.467c.41-.668.67-1.443.74-2.275.21-2.665-1.63-5.087-4.02-5.285a3.981 3.981 0 0 0-.32-.013c-1.29 0-2.5.651-3.35 1.681a1.636 1.636 0 0 0-.07-.002c-.89 0-1.63.575-1.69 1.346-.04.496.21.962.64 1.268z" fill="url(#d)"/><path d="M125.03 146.533c-.1 0-.21-.005-.32-.014-2.39-.198-4.23-2.623-4.01-5.288 0-.091.01-.181.03-.27.27.195.6.325.98.357v.003c-.19 2.26 1.54 4.095 3.21 4.237.07.006.14.009.21.009.71 0 1.46-.286 2.1-.789.07.28.33.512.67.579-.8.733-1.81 1.176-2.87 1.176zm3.77-2.292a.9.9 0 0 0-.66-.345.714.714 0 0 0-.08-.004c.39-.557.65-1.23.71-1.986.19-2.26-1.54-4.103-3.21-4.245a2.947 2.947 0 0 0-.21-.008c-.83 0-1.71.391-2.41 1.064a1.93 1.93 0 0 0-1.09-.368c.85-1.03 2.06-1.681 3.35-1.681.1 0 .21.004.32.013 2.39.198 4.23 2.62 4.02 5.285a5.169 5.169 0 0 1-.74 2.275z" fill="url(#e)"/><path d="M125.13 145.567c-.07 0-.14-.003-.21-.009-1.67-.142-3.4-1.977-3.21-4.237v-.003c.05.005.11.007.17.007.88 0 1.63-.574 1.69-1.342.04-.497-.21-.96-.63-1.266.7-.673 1.58-1.064 2.41-1.064.07 0 .14.003.21.008 1.67.142 3.4 1.985 3.21 4.245a3.993 3.993 0 0 1-.71 1.986h-.01c-.44 0-.81.289-.84.67-.01.074 0 .146.02.216-.64.503-1.39.789-2.1.789z" fill="url(#f)"/><path d="M121.88 141.325a1.934 1.934 0 0 1-1.15-.364c-.43-.306-.68-.772-.64-1.268.06-.771.8-1.346 1.69-1.346l.07.002.1.005c.38.031.72.164.99.363.42.306.67.769.63 1.266-.06.768-.81 1.342-1.69 1.342z" fill="url(#g)"/><path d="M128.1 145.377a1.07 1.07 0 0 1-.2-.02c-.34-.067-.6-.299-.67-.579a.524.524 0 0 1-.02-.216c.03-.381.4-.67.84-.67h.01c.03 0 .05.001.08.004a.9.9 0 0 1 .66.345c.11.134.16.297.15.467-.04.381-.41.669-.85.669z" fill="url(#h)"/><path d="M141.77 133.964c-.53 0-1.05-.204-1.44-.596v-.001c-.01-.012-1.01-1.014-2.84-2.378-.09-.067-.18-.136-.28-.205 2.19.594 4.3 1.447 5.88 2.675-.07.063-.14.122-.23.176-.33.221-.71.329-1.09.329z" fill="url(#i)"/><path d="M99.36 143.775c-.14-1.565-.23-3.099-.23-4.531 0-3.024.38-5.592 1.41-7.033 0 0 .1-.31.64-.739-1.28 6.649-1.55 11.428-1.55 11.428-.1.286-.19.578-.27.875z" fill="url(#j)"/><path d="M123.61 165.931c-1.41 0-2.95-.073-4.66-.241 0 0-6.89-.044-11.88-1.749a8.171 8.171 0 0 1-5.34-5.943c-.94-4.17-2.6-12.451-2.6-18.754 0 1.432.09 2.966.23 4.531.49 5.322 1.65 11 2.37 14.223a8.171 8.171 0 0 0 5.34 5.943c4.99 1.705 11.88 1.749 11.88 1.749 1.71.168 3.25.241 4.66.241 9.81 0 12.51-3.576 12.51-3.576 6.87-8.491 9.73-22.897 9.73-22.897s-2.86 14.406-9.73 22.897c0 0-2.7 3.576-12.51 3.576z" fill="url(#k)"/><path d="M183.55 165.931c-9.81 0-12.52-3.576-12.52-3.576-6.86-8.491-9.72-22.897-9.72-22.897a5.071 5.071 0 0 1-.04-.666c0-2.584 1.4-4.456 3.46-5.811.09.139.19.269.3.386.38.386.89.598 1.43.598a2.003 2.003 0 0 0 1.43-.598l.01-.017c.11-.103.86-.845 2.22-1.898-1.12 8.02-.71 19.125-.71 19.125l.01.003v.059s5.82 2.092 12.46 2.092c1.67 0 3.39-.132 5.09-.463 8.42-1.649 13.33-21.847 13.33-21.847-.01-.006-.01-.012-.02-.018.01-.03.01-.045.01-.045-.31-.333-.61-.656-.92-.969 6.63.889 7.25 2.822 7.25 2.822.66.937 1.06 2.35 1.25 4.055-.01.102-.03.202-.05.298-1.12 5.613-1.29 10.376-.96 14.164a144.85 144.85 0 0 1-1.43 7.27 8.19 8.19 0 0 1-5.34 5.943c-4.99 1.705-11.88 1.749-11.88 1.749-1.71.167-3.26.241-4.66.241z" fill="url(#l)"/><path d="M181.88 152.731c-6.64 0-12.46-2.092-12.46-2.092v-.059c.04.012.23.075.61.234.11-7.28.78-17.281 3.48-19.197.91-.673 2.09-1.408 3.51-2.007a48.162 48.162 0 0 1 4.13-.169c2.33-.195 4.45-.326 6.38-.403 3.31.941 7.04 3.001 11.11 6.821 1.01-2.878 1.56-5.116 1.64-5.456.01.006.01.012.02.018 0 0-4.91 20.198-13.33 21.847-1.7.331-3.42.463-5.09.463zm.81-20.759c-4.58 0-8.29 3.724-8.29 8.32 0 4.595 3.71 8.319 8.29 8.319 4.58 0 8.29-3.724 8.29-8.319 0-4.596-3.71-8.32-8.29-8.32z" fill="url(#m)"/><path d="M170.03 150.814a7.54 7.54 0 0 0-.61-.234l-.01-.003s-.41-11.105.71-19.125c.42-.326.9-.681 1.43-1.056 1.94-.416 3.86-.652 5.47-.786-1.42.599-2.6 1.334-3.51 2.007-2.7 1.916-3.37 11.917-3.48 19.197zm28.61-14.955c-4.07-3.82-7.8-5.88-11.11-6.821 1.5-.06 2.88-.087 4.15-.087 3.2 0 5.71.172 7.69.438.31.313.61.636.92.969 0 0 0 .015-.01.045-.08.34-.63 2.578-1.64 5.456z" fill="url(#n)"/><path d="M182.69 148.611c-4.58 0-8.29-3.724-8.29-8.319 0-4.596 3.71-8.32 8.29-8.32 4.58 0 8.29 3.724 8.29 8.32 0 4.595-3.71 8.319-8.29 8.319zm-2.8-3.941c.79.732 1.8 1.175 2.86 1.175.11 0 .22-.004.32-.013 2.4-.198 4.24-2.623 4.02-5.288l-.03-.271c.42-.305.68-.771.64-1.267-.07-.772-.8-1.346-1.69-1.346l-.08.001c-.84-1.029-2.05-1.68-3.34-1.68-.1 0-.21.004-.32.013-2.39.198-4.23 2.619-4.02 5.285.07.832.33 1.607.73 2.275a.705.705 0 0 0-.14.467c.03.381.4.669.84.669l.09-.003c.04-.004.08-.009.12-.017z" fill="url(#o)"/><path d="M182.75 145.845c-1.06 0-2.07-.443-2.86-1.175.34-.068.6-.299.67-.58.64.503 1.39.789 2.1.789.07 0 .14-.003.21-.009 1.67-.142 3.4-1.976 3.21-4.236v-.004c.37-.032.71-.162.98-.357l.03.271c.22 2.665-1.62 5.09-4.02 5.288-.1.009-.21.013-.32.013zm-3.77-2.291a5.29 5.29 0 0 1-.73-2.275c-.21-2.666 1.63-5.087 4.02-5.285.11-.009.22-.013.32-.013 1.29 0 2.5.651 3.34 1.68a1.99 1.99 0 0 0-1.09.369c-.69-.673-1.58-1.064-2.41-1.064-.07 0-.14.003-.2.008-1.67.142-3.4 1.985-3.21 4.245.06.755.32 1.429.71 1.986a.94.94 0 0 0-.75.349z" fill="url(#p)"/><path d="M182.66 144.879c-.71 0-1.46-.286-2.1-.789.02-.069.03-.142.02-.216-.03-.381-.4-.669-.84-.669h-.01a3.997 3.997 0 0 1-.71-1.986c-.19-2.26 1.54-4.103 3.21-4.245.06-.005.13-.008.2-.008.83 0 1.72.391 2.41 1.064-.41.306-.66.769-.62 1.265.06.768.81 1.342 1.69 1.342.06 0 .11-.002.17-.007v.004c.19 2.26-1.54 4.094-3.21 4.236-.07.006-.14.009-.21.009z" fill="url(#q)"/><path d="M185.91 140.637c-.88 0-1.63-.574-1.69-1.342-.04-.496.21-.959.62-1.265a1.99 1.99 0 0 1 1.09-.369l.08-.001c.89 0 1.62.574 1.69 1.346.04.496-.22.962-.64 1.267a1.969 1.969 0 0 1-1.15.364z" fill="url(#r)"/><path d="M179.68 144.69c-.44 0-.81-.288-.84-.669a.705.705 0 0 1 .14-.467.94.94 0 0 1 .75-.349h.01c.44 0 .81.288.84.669.01.074 0 .147-.02.216-.07.281-.33.512-.67.58a1.237 1.237 0 0 1-.21.02z" fill="url(#s)"/><path d="M166.46 133.965c-.54 0-1.05-.212-1.43-.598a2.725 2.725 0 0 1-.3-.386c1.91-1.25 4.38-2.06 6.82-2.585-.53.375-1.01.73-1.43 1.056-1.36 1.053-2.11 1.795-2.22 1.898l-.01.017c-.38.385-.89.597-1.43.598z" fill="url(#t)"/><path d="M206.86 150.728c-.33-3.788-.16-8.551.96-14.164.02-.096.04-.196.05-.298.11.918.15 1.92.15 2.978 0 3.562-.53 7.757-1.16 11.484z" fill="url(#u)"/><path d="M183.55 165.931c-9.81 0-12.52-3.576-12.52-3.576-6.86-8.491-9.72-22.897-9.72-22.897s2.86 14.406 9.72 22.897c0 0 2.71 3.576 12.52 3.576 1.4 0 2.95-.074 4.66-.241 0 0 6.89-.044 11.88-1.749a8.19 8.19 0 0 0 5.34-5.943c.4-1.813.95-4.403 1.43-7.27.63-3.727 1.16-7.922 1.16-11.484 0 6.303-1.66 14.584-2.59 18.754a8.19 8.19 0 0 1-5.34 5.943c-4.99 1.705-11.88 1.749-11.88 1.749-1.71.167-3.26.241-4.66.241z" fill="url(#v)"/><path d="M195.6 239.392a48.115 48.115 0 0 0-6.18-3.898s-6.26-2.241-9.45-2.728c-.43-.064-.81.22-1.14.732v-.012l-.01.027c-.63.977-1.12 2.812-1.49 4.936-1.28 4.196-3.12 10.038-4.44 13.445-4.93 12.201-11.66 17.727-18.41 17.151-6.75.576-13.47-4.95-18.4-17.151-1.32-3.407-3.16-9.249-4.45-13.445-.37-2.124-.85-3.959-1.48-4.936l-.01-.027v.012c-.34-.512-.71-.796-1.14-.732-3.19.487-9.45 2.728-9.45 2.728s-.97.529-2.52 1.545c6.19 20.19 35.26 101.048 78.57 2.353z" fill="#8c5d24" fill-rule="nonzero"/><path d="M195.6 239.392c-43.31 98.695-72.38 17.837-78.57-2.353-7.65 5.013-29.88 22.204-24.63 49.922h9.92c-1.72 5.93.85 10.691 2.64 13.109H204c1.8-2.418 4.36-7.179 2.64-13.109h10.14s1.65-30.703-21.18-47.569z" fill="#f7ac35" fill-rule="nonzero"/><defs><linearGradient id="a" x2="1" gradientUnits="userSpaceOnUse" gradientTransform="rotate(86.341 -8.294 129.92) scale(46.81314)"><stop offset="0" stop-color="#f2e3d4"/><stop offset="1" stop-color="#829ba9"/></linearGradient><linearGradient id="b" x2="1" gradientUnits="userSpaceOnUse" gradientTransform="rotate(86.341 -8.294 129.92) scale(46.81314)"><stop offset="0" stop-color="#fff"/><stop offset="1" stop-color="#86aec9"/></linearGradient><linearGradient id="c" x2="1" gradientUnits="userSpaceOnUse" gradientTransform="rotate(86.341 -8.294 129.92) scale(46.81314)"><stop offset="0" stop-color="#edded1"/><stop offset="1" stop-color="#7f99a7"/></linearGradient><linearGradient id="d" x2="1" gradientUnits="userSpaceOnUse" gradientTransform="rotate(86.341 -8.294 129.92) scale(46.81314)"><stop offset="0" stop-color="#a89086"/><stop offset="1" stop-color="#59626b"/></linearGradient><linearGradient id="e" x2="1" gradientUnits="userSpaceOnUse" gradientTransform="rotate(86.341 -8.294 129.92) scale(46.81314)"><stop offset="0" stop-color="#c3a08d"/><stop offset="1" stop-color="#6c6d71"/></linearGradient><linearGradient id="f" x2="1" gradientUnits="userSpaceOnUse" gradientTransform="rotate(86.341 -8.294 129.92) scale(46.81314)"><stop offset="0" stop-color="#928a85"/><stop offset="1" stop-color="#435f6b"/></linearGradient><linearGradient id="g" x2="1" gradientUnits="userSpaceOnUse" gradientTransform="rotate(86.341 -8.294 129.92) scale(46.81314)"><stop offset="0" stop-color="#fff"/><stop offset="1" stop-color="#86aec9"/></linearGradient><linearGradient id="h" x2="1" gradientUnits="userSpaceOnUse" gradientTransform="rotate(86.341 -8.294 129.92) scale(46.81314)"><stop offset="0" stop-color="#fff"/><stop offset="1" stop-color="#86aec9"/></linearGradient><linearGradient id="i" x2="1" gradientUnits="userSpaceOnUse" gradientTransform="rotate(86.341 -8.294 129.92) scale(46.81314)"><stop offset="0" stop-color="#858282"/><stop offset="1" stop-color="#365969"/></linearGradient><linearGradient id="j" x2="1" gradientUnits="userSpaceOnUse" gradientTransform="rotate(86.341 -8.294 129.92) scale(46.81314)"><stop offset="0" stop-color="#9d9a9a"/><stop offset="1" stop-color="#436a7d"/></linearGradient><linearGradient id="k" x2="1" gradientUnits="userSpaceOnUse" gradientTransform="rotate(86.341 -8.294 129.92) scale(46.81314)"><stop offset="0" stop-color="#f8f5b5"/><stop offset="1" stop-color="#86a991"/></linearGradient><linearGradient id="l" x2="1" gradientUnits="userSpaceOnUse" gradientTransform="rotate(86.341 24.793 160.957) scale(46.81294)"><stop offset="0" stop-color="#faecdc"/><stop offset="1" stop-color="#87a1b0"/></linearGradient><linearGradient id="m" x2="1" gradientUnits="userSpaceOnUse" gradientTransform="rotate(86.341 24.793 160.957) scale(46.81294)"><stop offset="0" stop-color="#fff"/><stop offset="1" stop-color="#86aec9"/></linearGradient><linearGradient id="n" x2="1" gradientUnits="userSpaceOnUse" gradientTransform="rotate(86.341 24.793 160.957) scale(46.81294)"><stop offset="0" stop-color="#edded1"/><stop offset="1" stop-color="#7f99a7"/></linearGradient><linearGradient id="o" x2="1" gradientUnits="userSpaceOnUse" gradientTransform="rotate(86.341 24.793 160.957) scale(46.81294)"><stop offset="0" stop-color="#a89086"/><stop offset="1" stop-color="#59626b"/></linearGradient><linearGradient id="p" x2="1" gradientUnits="userSpaceOnUse" gradientTransform="rotate(86.341 24.793 160.957) scale(46.81294)"><stop offset="0" stop-color="#c3a08d"/><stop offset="1" stop-color="#6c6d71"/></linearGradient><linearGradient id="q" x2="1" gradientUnits="userSpaceOnUse" gradientTransform="rotate(86.341 24.793 160.957) scale(46.81294)"><stop offset="0" stop-color="#928a85"/><stop offset="1" stop-color="#435f6b"/></linearGradient><linearGradient id="r" x2="1" gradientUnits="userSpaceOnUse" gradientTransform="rotate(86.341 24.793 160.957) scale(46.81294)"><stop offset="0" stop-color="#fff"/><stop offset="1" stop-color="#86aec9"/></linearGradient><linearGradient id="s" x2="1" gradientUnits="userSpaceOnUse" gradientTransform="rotate(86.341 24.793 160.957) scale(46.81294)"><stop offset="0" stop-color="#fff"/><stop offset="1" stop-color="#86aec9"/></linearGradient><linearGradient id="t" x2="1" gradientUnits="userSpaceOnUse" gradientTransform="rotate(86.341 24.793 160.957) scale(46.81294)"><stop offset="0" stop-color="#858282"/><stop offset="1" stop-color="#365969"/></linearGradient><linearGradient id="u" x2="1" gradientUnits="userSpaceOnUse" gradientTransform="rotate(86.341 24.793 160.957) scale(46.81294)"><stop offset="0" stop-color="#9d9a9a"/><stop offset="1" stop-color="#436a7d"/></linearGradient><linearGradient id="v" x2="1" gradientUnits="userSpaceOnUse" gradientTransform="rotate(86.341 24.793 160.957) scale(46.81294)"><stop offset="0" stop-color="#eee7ae"/><stop offset="1" stop-color="#7ea08c"/></linearGradient></defs></svg>