<svg viewBox="0 0 298 300" xmlns="http://www.w3.org/2000/svg" fill-rule="evenodd" clip-rule="evenodd" stroke-linejoin="round" stroke-miterlimit="1.414"><g fill-rule="nonzero"><path fill="#ac865d" d="M.21.07h296.865v299.705H.21z"/><path d="M146.27 187.515v112.253H85.555c-1.008-.391-1.481-.597-1.481-.597 0-4.711.226-9.073.658-13.126.844-8.271 2.49-15.225 4.63-21.089 7.735-21.027 21.891-27.693 28.413-29.709 2.119-.679 3.436-.823 3.436-.823.247 0 .452-.021.678-.062 1.194-.185 2.243-.905 3.148-2.057.577-.7 1.091-1.543 1.564-2.551.926-1.976 1.708-4.486 2.325-7.387.247-1.152.453-2.283.658-3.518.288-2.078.576-4.259.823-6.522.103-1.378.247-2.716.412-4.156.535-6.872.679-14.381.679-21.5 0 0 8.168.844 14.772.844z" fill="#e0bd9a"/><path d="M208.734 299.171s-.535.206-1.441.597H146.27V187.515h.144c6.584 0 14.834-.844 14.834-.844 0 7.057.144 14.484.7 21.356.144 1.337.288 2.716.391 4.053.246 2.366.535 4.588.884 6.666v.042c.103.946.288 1.789.453 2.674.597 2.922 1.317 5.494 2.201 7.551.412.967.864 1.831 1.338 2.572.802 1.193 1.687 2.057 2.695 2.489a3.98 3.98 0 0 0 1.625.35s2.325.267 5.823 1.646c7.16 2.798 19.175 10.143 26.067 28.886 2.161 5.864 3.807 12.818 4.671 21.089.411 4.053.638 8.415.638 13.126z" fill="#efd0ad"/><path d="M163.224 218.54v.05c-1.531 2.357-6.671 9.134-16.85 9.134h-.099c-9.635-.049-15.268-7.023-16.701-9.086.296-2.062.593-4.223.84-6.482.099-1.327.247-2.702.395-4.126a67.82 67.82 0 0 0 15.269 2.014h.197a65.497 65.497 0 0 0 15.664-2.161c.149 1.326.297 2.701.396 4.027.247 2.357.543 4.568.889 6.63z" fill="#be987f"/><path d="M145.584 59.561c-64.336 0-64.682 53.779-61.816 88.993-4.398-8.349-17.493-5.795-16.405 7.367 1.037 12.671 19.745 19.129 19.221 17.73 9.743 26.043 35.529 45.675 59 45.675h.494V59.561h-.494z" fill="#d2a686"/><path d="M71.464 150.371c3.162-5.108 8.104-2.897 9.29-1.768 1.284 1.228 2.322 2.8 1.531 5.796-.444 1.719-2.223 1.866-1.828 4.42.494 2.897 1.828 3.045 2.619 3.732.741.639 1.68 1.13 2.125 2.358a6.197 6.197 0 0 1 .296 3.634c-.494 2.063-3.508.393-5.534-.491-1.334-.638-5.584-4.224-6.671-5.402-2.668-3.045-3.953-8.939-1.828-12.279z" fill="#ac8774"/><path d="M145.93 59.561c64.336 0 64.682 53.779 61.865 88.993 4.398-8.349 17.442-5.795 16.356 7.367-.988 12.671-19.733 19.134-19.222 17.73-9.49 26.043-35.528 45.675-58.999 45.675h-.346l-.148-159.765h.494z" fill="#ddb598"/><path d="M220.05 150.371c-3.163-5.108-8.055-2.897-9.29-1.768-1.285 1.228-2.273 2.8-1.532 5.796.445 1.719 2.224 1.866 1.828 4.42-.494 2.897-1.828 3.045-2.569 3.732-.741.639-1.73 1.13-2.174 2.358-.445 1.228-.544 2.505-.297 3.634.494 2.063 3.508.393 5.535-.491 1.383-.638 5.582-4.224 6.67-5.402 2.718-3.045 3.953-8.939 1.829-12.279z" fill="#ac8774"/><path d="M145.078 74.737c-21.149 0-36.665 6.139-46.004 18.221-13.095 16.944-12.6 42.778-7.807 61.342 1.482 5.697 2.273 20.971 3.261 26.571 4.595 25.096 32.316 38.455 50.55 38.455h.494V74.737h-.297" fill="#e0bd9a"/><path d="M191.032 93.007c-9.29-12.033-24.608-18.172-45.46-18.27v144.589c20.852-.245 45.806-14.881 50.055-38.455 1.038-5.6 1.779-20.874 3.262-26.571 4.842-18.515 5.336-44.3-7.857-61.293z" fill="#efd0ad"/><path d="M142.197 193.695c-.102-.022-.202-.041-.303-.065.099.023.187.041.303.065zm-.785-.175c-.093-.024-.178-.051-.269-.076l-.01.004s.104.029.279.072z" fill="#bc917b"/><path d="M127.61 75.098l-.267.267.044.089c.089-.134.134-.267.223-.356z" fill="#432e1b"/><path d="M142.373 190.762c-.105-.022-.208-.043-.311-.066l.311.066zm-.807-.18c-.096-.025-.182-.052-.277-.078l-.01.005s.107.029.287.073z" fill="#ba907b"/><path d="M132.999 176.255c-.251-5.132 9.426-1.875 12.616-1.714 2.521.128 10.192-1.618 10.85-1.168 4.513 3.042-4.779 9.17-11.01 9.17-1.66 0-12.306-3.193-12.456-6.288z" fill="#dcb497"/><path d="M99.419 131.171s4.908 20.135 13.335 21.779c8.426 1.642 17.546-1.624 17.546-1.624s.872-23.664-3.443-26.755c-4.311-3.106-14.25-7.594-27.438 6.6z" fill="#fff"/><path d="M130.312 151.264s-.194.056-.627.236c-.108-7.258-.779-17.227-3.473-19.137-4.006-2.933-13.052-7.061-25.138 4.229-1.098-3.119-1.649-5.484-1.649-5.484 13.212-14.22 23.16-9.74 27.439-6.632 4.319 3.104 3.448 26.788 3.448 26.788z" fill="#d6b496"/><path d="M125.322 141.01a8.294 8.294 0 1 1-16.587 0 8.294 8.294 0 0 1 16.587 0z" fill="#482315"/><path d="M116.643 146.534c-2.395-.198-4.234-2.615-4.016-5.272.215-2.657 2.423-4.736 4.82-4.535 2.395.197 4.23 2.611 4.019 5.268-.218 2.657-2.429 4.74-4.823 4.539z" fill="#7e3a22"/><path d="M116.85 145.575c-1.667-.141-3.397-1.971-3.213-4.223.187-2.26 2.189-3.785 3.856-3.648 1.668.141 3.393 1.978 3.21 4.231-.184 2.256-2.19 3.778-3.853 3.64z" fill="#211a10"/><path d="M115.5 140.018c-.07.814-.906 1.409-1.863 1.33-.96-.081-1.683-.809-1.618-1.619.069-.818.9-1.413 1.859-1.335.963.078 1.687.806 1.622 1.624zm5.377 4.71c-.035.405-.452.704-.93.664-.481-.038-.841-.405-.811-.81.035-.405.453-.705.93-.664.481.038.846.401.811.81z" fill="#fff"/><path d="M142.504 193.137c-.104-.022-.207-.043-.311-.067.102.023.192.042.311.067zm-.806-.18c-.095-.025-.182-.052-.276-.078l-.011.004s.107.03.287.074z" fill="#ba907b"/><path d="M146.055 195.526h.001-.001zm-3.928-2.958c-.111-.024-.222-.045-.333-.071.109.024.206.045.333.071zm-.863-.193c-.103-.026-.196-.056-.297-.083l-.011.005s.114.031.308.078zm4.791-.018h.001-.001zm-.248 2.327h.001-.001zm-3.928-2.958c-.111-.024-.222-.045-.333-.071l.333.071zm-.863-.193c-.103-.026-.196-.055-.297-.083l-.011.004s.114.032.308.079zm4.791-.018h.001-.001zm.639 2.955h.001-.001zm-3.796-2.859c-.108-.023-.215-.044-.323-.069.106.024.199.043.323.069zm-.835-.187c-.099-.025-.19-.053-.287-.08l-.011.005s.111.03.298.075zm4.631-.017h.001-.001z" fill="#bc917b"/><path d="M192.229 130.486s-4.908 20.135-13.334 21.779c-8.427 1.642-17.547-1.624-17.547-1.624s-.872-23.664 3.443-26.756c4.311-3.105 14.25-7.593 27.438 6.601z" fill="#fff"/><path d="M161.336 150.579s.194.055.627.236c.107-7.258.778-17.227 3.473-19.137 4.006-2.933 13.052-7.062 25.138 4.229 1.098-3.119 1.649-5.484 1.649-5.484-13.213-14.22-23.16-9.74-27.439-6.633-4.319 3.105-3.448 26.789-3.448 26.789z" fill="#d6b496"/><path d="M166.326 140.325a8.294 8.294 0 1 0 16.587 0 8.294 8.294 0 0 0-16.587 0z" fill="#482315"/><path d="M175.005 145.848c2.395-.197 4.234-2.614 4.015-5.271-.214-2.657-2.422-4.736-4.819-4.535-2.395.197-4.231 2.611-4.019 5.267.218 2.657 2.429 4.74 4.823 4.539z" fill="#7e3a22"/><path d="M174.798 144.89c1.667-.142 3.397-1.971 3.213-4.223-.188-2.26-2.189-3.785-3.856-3.648-1.668.141-3.393 1.978-3.21 4.231.184 2.256 2.19 3.778 3.853 3.64z" fill="#211a10"/><path d="M176.148 139.333c.07.814.905 1.409 1.863 1.33.96-.081 1.683-.809 1.618-1.619-.069-.818-.9-1.413-1.859-1.335-.963.078-1.687.805-1.622 1.624zm-5.377 4.71c.035.405.452.704.929.663.482-.037.842-.404.812-.809-.035-.405-.453-.705-.93-.664-.481.037-.846.401-.811.81z" fill="#fff"/><path d="M135.361 130.85c-.064-.098-1.593-2.423-4.719-4.82-1.959-1.503-3.878-2.646-5.87-3.498a30.375 30.375 0 0 0-7.551-2.081c-2.284-.254-4.815-.187-7.768.211-2.254.429-4.453 1.1-6.319 1.923-1.332.458-2.382 1.102-3.227 1.619-.324.199-.616.378-.914.538l-4.025 2.531 4.639-1.09c.216-.055.45-.116.701-.183.96-.254 2.154-.571 3.554-.776.328-.048.662-.114 1.002-.182.584-.116 1.187-.237 1.819-.267a423.24 423.24 0 0 0 2.181-.153l.973-.07c2.57-.032 4.739.163 6.667.607a25.371 25.371 0 0 1 6.259 1.963c1.875.897 3.673 1.787 5.076 2.817 2.833 1.891 4.41 3.468 4.425 3.484a2.019 2.019 0 0 0 2.53.267c.934-.612 1.196-1.871.602-2.779l-.035-.061zm57.697-6.127c-.267-.141-.56-.321-.884-.519-.844-.518-1.895-1.161-3.186-1.604-1.906-.838-4.105-1.509-6.386-1.942-2.928-.394-5.459-.462-7.753-.206a30.443 30.443 0 0 0-7.543 2.081c-1.963.84-3.936 2.016-5.866 3.497-3.07 2.353-4.596 4.637-4.711 4.813l-.029.041a2.042 2.042 0 0 0 .263 2.539 2 2 0 0 0 1.428.595h.001c.54 0 1.046-.212 1.426-.596l.016-.017c.15-.148 1.68-1.644 4.428-3.479 1.381-1.015 3.18-1.906 5.05-2.802a25.557 25.557 0 0 1 6.293-1.971c1.901-.438 4.074-.629 6.61-.602l1.022.073c.743.053 1.465.104 2.172.152.623.029 1.226.15 1.81.266.34.068.673.134 1 .182 1.401.205 2.595.522 3.555.776.251.067.485.129.708.184l4.636 1.09-4.06-2.551z" fill="#030405"/><path d="M139.529 200.164c-.103-.022-.206-.042-.309-.066.101.023.19.041.309.066zm-.801-.179c-.095-.024-.181-.051-.275-.077l-.01.004s.106.029.285.073zm.571-.601c-.103-.022-.206-.042-.309-.066l.309.066zm-.8-.179c-.096-.025-.182-.052-.276-.077l-.01.004s.106.029.286.073zm1.514.072c-.1-.021-.199-.041-.299-.064.098.022.184.04.299.064zm-.774-.173c-.092-.023-.175-.05-.266-.074l-.01.004s.103.028.276.07z" fill="#be927b"/><path d="M133.274 201.673c-.24-3.199 8.912.671 11.918.763 2.397.081 9.6-.474 10.266-.728 5.035-1.883-.275 5.349-10.415 5.73-4.646.185-11.631-3.824-11.769-5.765z" fill="#f0d2ad"/><path d="M163.441 193.988c-5.804-1.086-18.031.073-18.031.073-10.083 1.675-17.974-.107-18.032-.038-.24.024 8.053 11.023 17.894 10.516 9.842.507 18.41-10.516 18.169-10.551z" fill="#c2646e"/><path d="M151.241 191.666c-2.615-.289-4.478 1.597-5.819 1.459-1.366.127-3.139-1.083-5.77-1.109-3.7-.036-5.506-.361-12.274 2.007.241.462 4.577 2.972 12.698 3.11.115 0 2.294 1.236 5.391 1.214 1.939-.012 4.599-1.306 4.703-1.306 8.133-.127 13.099-2.544 13.328-2.994-8.946-2.773-8.237-2.417-12.257-2.381z" fill="#d87475"/><path d="M195.422 286.045a292.2 292.2 0 0 0 .494 13.723H96.089c.186-3.066.371-7.715.453-13.723h-11.81c.844-8.271 2.49-15.225 4.63-21.089 7.735-21.027 21.891-27.693 28.413-29.709 2.119-.679 3.436-.823 3.436-.823.247 0 .452-.021.678-.062 1.194-.185 2.243-.905 3.148-2.057 1.626 4.094 13.045 30.306 20.945 38.021.103-.103.206-.206.288-.308 8.106-8.271 19.628-34.956 20.78-37.981.062-.164.103-.329.165-.452.802 1.193 1.687 2.057 2.695 2.489a3.98 3.98 0 0 0 1.625.35s2.325.267 5.823 1.646c7.16 2.798 19.175 10.143 26.067 28.886 2.161 5.864 3.807 12.818 4.671 21.089h-12.674z" fill="#975459"/><path d="M60.701 125.729c1.561-16.863 5.683-30.322 5.683-30.322s.122.125.347.362c4.95-16.492 13.191-25.401 13.191-25.401v.007c4.008-5.579 9.691-11.437 16.646-17.215 14.25-11.815 23.212-9.383 35.008-9.044 0 0 .038.075.093.193 5.183-1.028 33.042-6.145 49.613-.485 18.318 6.269 33.311 17.02 43.903 45.895a83.896 83.896 0 0 1 3.602 12.921c2.399 4.828 3.482 9.565 3.927 13.446l.277-.039s9.226 45.422 35.22 54.49c0 0-19.749 4.497-35.38-18.806-.367 4.616-1.006 9.289-2.02 13.845.862 5.994 1.909 10.944 1.909 14.138 0 22.586-18.36 41.301-15.53 64.042 1.87 14.994 9.383 26.616 9.383 26.616s-8.599-10.266-12.121-19.885c-3.514-9.622-2.337-26.95 3.522-40.746 3.008-7.07 3.849-14.815 3.487-22.327a38.923 38.923 0 0 1-1.55 1.989s.64-1.911 1.355-4.905c-.334-3.725-.935-7.363-1.691-10.799a80.253 80.253 0 0 0-.406-1.785c-.166-.687-.354-1.328-.527-1.996a82.114 82.114 0 0 1-5.327 8.762c-.121.369-.233.751-.363 1.104-1.208 3.622-2.888 6.991-4.338 10.177-1.414 3.201-2.874 6.205-3.979 9.117-1.014 2.906-1.926 5.653-2.388 8.263-.283 1.304-.421 2.576-.528 3.774a22.72 22.72 0 0 0-.206 3.46c-.115 2.175.12 4.093.189 5.692l.648 5.013s-.212-.422-.617-1.216c-.369-.822-1.057-1.967-1.667-3.534-.514-1.57-1.353-3.464-1.752-5.741a29.724 29.724 0 0 1-.846-7.743c-.083-3.82.71-8.052 1.968-12.387-6.74 6.35-12.106 9.837-12.106 9.837s7.877-8.527 11.399-17.036c2.73-6.605 6.812-17.942 6.812-34.637 0-.773-.05-1.554-.122-2.341-.239-.905-.449-1.822-.728-2.711-1.848-6.049-4.164-11.685-6.163-16.666-4.982-8.896-10.793-15.647-10.793-15.647s8.217 12.966 9.832 27.23c1.638 14.256-6.977 25.286-6.977 25.286s1.722-16.932-4.303-30.41c-3.025-6.77-7.997-12.674-16.138-15.118l.014.032c4.372 10.924-4.409 20.104-4.409 20.104s-.032-2.74-.901-6.965c-2.252-10.933-10.123-31.84-37.644-41.138l-.854 1.139-19.386 25.871a105.606 105.606 0 0 0-4.295 5.733c-5.254 7.484-12.507 19.752-12.507 30.421 0 16.693 4.079 28.029 6.816 34.632 3.52 8.509 11.397 17.041 11.397 17.041s-4.29-2.786-10.014-7.914c.304 1.948.478 3.846.44 5.644.072 2.871-.3 5.481-.847 7.743-.399 2.277-1.238 4.171-1.752 5.741-.609 1.567-1.297 2.712-1.666 3.534-.405.794-.617 1.216-.617 1.216l.648-5.013c.068-1.599.303-3.517.188-5.692a22.72 22.72 0 0 0-.206-3.46c-.107-1.198-.244-2.47-.527-3.774-.463-2.61-1.374-5.357-2.389-8.263-1.001-2.642-2.295-5.366-3.583-8.235-4.099-4.822-8.144-10.49-11.406-16.905-2.425 11.131-3.222 24.352 1.649 35.803 5.861 13.796 7.038 31.124 3.524 40.746-3.524 9.619-12.121 19.885-12.121 19.885s7.512-11.622 9.382-26.616c2.831-22.741-15.529-41.456-15.529-64.042 0-2.878.85-7.182 1.649-12.383-1.712-4.045-2.924-8.377-3.728-12.846-15.272 20.173-33.412 16.052-33.412 16.052 18.367-6.406 28.353-30.948 32.638-44.808z" fill="#3e2a12"/><path d="M125.037 232.305l-9.865 3.866s21.188 47.42 30.906 51.021v-16.866s-15.28-23.47-21.041-38.021zm42.178-.72l9.769 4.341s-21.188 47.665-30.906 51.266v-16.866s15.376-24.19 21.137-38.741z" fill="#75353c"/></g></svg>