<svg viewBox="0 0 298 300" xmlns="http://www.w3.org/2000/svg" fill-rule="evenodd" clip-rule="evenodd" stroke-linejoin="round" stroke-miterlimit="1.414"><g fill-rule="nonzero"><path fill="#554467" d="M.17.16h296.87v299.705H.17z"/><path d="M228.71 192.09c-2.49-10.908-.97-6.953 2.19-16.891 0 0-.41.199-1.08.539 4.65-10.047 7.29-21.154 7.29-32.876 0-44.49-37.22-80.541-83.15-80.541-45.92 0-83.14 36.051-83.14 80.541 0 11.59 2.57 22.576 7.12 32.525l-.39-.188c3.16 9.938 4.67 5.983 2.18 16.891-2.14 9.431-8.51 11.898-8.51 11.898s9.82-3.58 12.19-6.026c1.17-1.201 4.24-4.484 5.16-5.465l.07.088c-.54 1.068-1.84 4.573-.02 11.338 2.37 8.836 12.12 14.785 12.12 14.785s-5.85-7.029-4.22-14.72c0 0-.35 3.097 9.14 11.658 9.49 8.571 27.22 16.086 27.22 16.086s-.35-5.333-.56-11.172c6.92 1.807 14.14 2.853 21.64 2.853 7.7 0 15.11-1.091 22.17-2.985-.2 5.905-.56 11.304-.56 11.304s17.75-7.515 27.22-16.086c9.48-8.561 9.14-11.658 9.14-11.658 1.63 7.691-4.22 14.72-4.22 14.72s9.76-5.949 12.12-14.785c2.22-8.264-.22-11.713-.23-11.723.01.01 4.06 4.341 5.44 5.762 2.37 2.446 12.19 6.026 12.19 6.026s-6.38-2.467-8.52-11.898z" fill="#414042"/><path d="M153.81 187.595v112.27H93.08c-.99-.394-1.48-.594-1.48-.594 0-14.331 2.1-25.505 5.31-34.219 7.73-21.03 21.88-27.709 28.39-29.723 2.14-.661 3.46-.82 3.46-.82.23 0 .44-.021.66-.056 1.92-.308 3.47-1.969 4.71-4.619.93-1.968 1.71-4.479 2.34-7.386.25-1.132.44-2.275.64-3.51.3-2.077.59-4.25.84-6.525.1-1.384.25-2.717.4-4.152.54-6.868.69-14.388.69-21.507 0 0 8.15.841 14.77.841z" fill="#e0bd9a"/><path d="M216.27 299.271s-.54.2-1.43.594h-61.03v-112.27h.15c6.57 0 14.83-.841 14.83-.841 0 7.068.14 14.485.69 21.358.14 1.338.29 2.717.39 4.055.25 2.373.55 4.597.89 6.673v.046c.1.943.29 1.784.45 2.671.6 2.921 1.33 5.489 2.2 7.549 1.09 2.563 2.42 4.352 4.03 5.06.51.23 1.06.343 1.63.343 0 0 2.33.282 5.83 1.656 7.15 2.798 19.16 10.143 26.06 28.887 3.21 8.714 5.31 19.888 5.31 34.219z" fill="#efd0ad"/><path d="M170.76 218.63v.05c-1.53 2.357-6.67 9.134-16.85 9.134h-.1c-9.63-.049-15.27-7.023-16.7-9.086.3-2.062.59-4.223.84-6.482.1-1.326.25-2.702.4-4.126a67.76 67.76 0 0 0 15.27 2.014h.19a65.555 65.555 0 0 0 15.67-2.161c.15 1.326.29 2.701.39 4.027.25 2.357.55 4.568.89 6.63z" fill="#be987f"/><path d="M153.12 59.651c-64.33 0-64.68 53.779-61.81 88.993-4.4-8.349-17.5-5.795-16.41 7.367 1.04 12.671 19.75 19.129 19.22 17.73 9.74 26.043 35.53 45.675 59 45.675h.5V59.651h-.5z" fill="#d2a686"/><path d="M79 150.461c3.16-5.108 8.11-2.897 9.29-1.768 1.29 1.228 2.32 2.8 1.53 5.796-.44 1.719-2.22 1.866-1.83 4.42.5 2.897 1.83 3.045 2.62 3.732.74.639 1.68 1.13 2.13 2.358.49 1.228.54 2.505.29 3.634-.49 2.063-3.5.393-5.53-.491-1.33-.638-5.58-4.224-6.67-5.402-2.67-3.045-3.95-8.939-1.83-12.279z" fill="#ac8774"/><path d="M153.47 59.651c64.33 0 64.68 53.779 61.86 88.993 4.4-8.349 17.45-5.795 16.36 7.367-.99 12.671-19.74 19.134-19.22 17.73-9.49 26.043-35.53 45.675-59 45.675h-.35l-.15-159.765h.5z" fill="#ddb598"/><path d="M227.59 150.461c-3.17-5.108-8.06-2.897-9.29-1.768-1.29 1.228-2.28 2.8-1.53 5.796.44 1.719 2.22 1.866 1.82 4.42-.49 2.897-1.82 3.045-2.57 3.732-.74.639-1.73 1.13-2.17 2.358-.44 1.228-.54 2.505-.3 3.634.5 2.063 3.51.393 5.54-.491 1.38-.638 5.58-4.224 6.67-5.402 2.72-3.045 3.95-8.939 1.83-12.279z" fill="#ac8774"/><path d="M152.61 74.827c-21.14 0-36.66 6.139-46 18.221-13.09 16.944-12.6 42.778-7.81 61.342 1.49 5.697 2.28 20.972 3.27 26.571 4.59 25.096 32.31 38.455 50.54 38.455h.5V74.827h-.5z" fill="#e0bd9a"/><path d="M198.57 93.098c-9.29-12.033-24.61-18.173-45.46-18.271v144.589c20.85-.245 45.81-14.881 50.05-38.455 1.04-5.599 1.78-20.874 3.27-26.571 4.84-18.515 5.33-44.3-7.86-61.292z" fill="#efd0ad"/><path d="M149.73 193.785c-.1-.022-.2-.041-.3-.065.1.023.19.041.3.065zm-.78-.175c-.09-.024-.18-.051-.27-.076l-.01.004s.1.029.28.072z" fill="#bc917b"/><path d="M135.15 75.188l-.27.268.04.089c.09-.134.14-.268.23-.357z" fill="#432e1b"/><path d="M149.91 190.852c-.1-.022-.21-.043-.31-.066l.31.066zm-.81-.18l-.27-.078-.01.005s.1.029.28.073z" fill="#ba907b"/><path d="M140.54 175.573c-.25-5.131 9.42-1.875 12.61-1.714 2.52.128 10.19-1.617 10.85-1.168 4.52 3.043-4.78 9.17-11.01 9.17-1.66 0-12.3-3.192-12.45-6.288z" fill="#dcb497"/><path d="M106.96 131.261s4.9 20.135 13.33 21.779c8.43 1.642 17.55-1.624 17.55-1.624s.87-23.664-3.45-26.756c-4.31-3.105-14.24-7.593-27.43 6.601z" fill="#fff"/><path d="M137.85 151.354s-.19.056-.63.236c-.11-7.258-.78-17.227-3.47-19.137-4.01-2.933-13.05-7.061-25.14 4.23-1.1-3.12-1.65-5.485-1.65-5.485 13.21-14.22 23.16-9.74 27.44-6.632 4.32 3.104 3.45 26.788 3.45 26.788z" fill="#d6b496"/><path d="M132.86 141.1a8.29 8.29 0 0 1-8.29 8.294c-4.58 0-8.3-3.713-8.3-8.294 0-4.58 3.72-8.293 8.3-8.293a8.29 8.29 0 0 1 8.29 8.293z" fill="#482315"/><path d="M124.18 146.624c-2.39-.198-4.23-2.615-4.02-5.272.22-2.657 2.43-4.736 4.82-4.535 2.4.197 4.24 2.611 4.02 5.268-.22 2.657-2.43 4.74-4.82 4.539z" fill="#7e3a22"/><path d="M124.39 145.665c-1.67-.141-3.4-1.971-3.22-4.223.19-2.26 2.19-3.785 3.86-3.648 1.67.141 3.39 1.978 3.21 4.231-.18 2.256-2.19 3.778-3.85 3.64z" fill="#211a10"/><path d="M123.04 140.108c-.07.814-.91 1.409-1.87 1.33-.96-.081-1.68-.809-1.61-1.619.07-.817.9-1.413 1.86-1.335.96.078 1.68.806 1.62 1.624zm5.37 4.71c-.03.405-.45.704-.93.664-.48-.038-.84-.406-.81-.81.04-.405.46-.705.93-.664.48.038.85.401.81.81z" fill="#fff"/><path d="M150.04 193.227c-.1-.022-.21-.043-.31-.067.1.023.19.042.31.067zm-.8-.18c-.1-.025-.19-.052-.28-.078l-.01.004s.11.03.29.074z" fill="#ba907b"/><path d="M149.67 192.658c-.12-.024-.23-.045-.34-.071.11.024.21.045.34.071zm-.87-.193c-.1-.026-.19-.055-.3-.083l-.01.005.31.078zm4.54 2.309h.01-.01zm-3.92-2.958c-.11-.024-.23-.045-.34-.071.11.024.21.044.34.071zm-.87-.193c-.1-.026-.19-.055-.29-.083l-.01.004s.11.032.3.079zm4.79-.018h.01-.01zm-3.15.096c-.11-.023-.22-.044-.33-.069.11.024.2.043.33.069zm-.84-.187c-.1-.025-.19-.053-.28-.08l-.02.005.3.075z" fill="#bc917b"/><path d="M199.77 130.576s-4.91 20.135-13.34 21.779c-8.42 1.642-17.54-1.624-17.54-1.624s-.88-23.664 3.44-26.756c4.31-3.105 14.25-7.593 27.44 6.601z" fill="#fff"/><path d="M168.87 150.669s.2.055.63.236c.11-7.258.78-17.227 3.47-19.137 4.01-2.933 13.06-7.062 25.14 4.229 1.1-3.119 1.65-5.484 1.65-5.484-13.21-14.22-23.16-9.74-27.44-6.632-4.32 3.104-3.45 26.788-3.45 26.788z" fill="#d6b496"/><path d="M173.86 140.416c0 4.58 3.72 8.293 8.3 8.293a8.29 8.29 0 0 0 8.29-8.293 8.29 8.29 0 0 0-8.29-8.294c-4.58 0-8.3 3.713-8.3 8.294z" fill="#482315"/><path d="M182.54 145.938c2.4-.197 4.24-2.614 4.02-5.271-.22-2.657-2.42-4.736-4.82-4.535-2.4.197-4.23 2.61-4.02 5.267.22 2.657 2.43 4.74 4.82 4.539z" fill="#7e3a22"/><path d="M182.34 144.98c1.66-.141 3.39-1.971 3.21-4.223-.19-2.26-2.19-3.785-3.86-3.649-1.67.142-3.39 1.979-3.21 4.232.19 2.256 2.19 3.778 3.86 3.64z" fill="#211a10"/><path d="M183.69 139.423c.07.814.9 1.409 1.86 1.33.96-.081 1.68-.809 1.62-1.619-.07-.818-.9-1.413-1.86-1.335-.97.078-1.69.806-1.62 1.624zm-5.38 4.71c.03.405.45.704.93.664.48-.038.84-.406.81-.81-.04-.405-.45-.705-.93-.663-.48.036-.85.4-.81.809z" fill="#fff"/><path d="M142.9 130.94c-.06-.098-1.59-2.423-4.72-4.82-1.96-1.502-3.88-2.646-5.87-3.498a30.439 30.439 0 0 0-7.55-2.081c-2.29-.254-4.82-.186-7.77.211-2.25.43-4.45 1.1-6.32 1.922-1.33.459-2.38 1.103-3.23 1.62-.32.199-.61.378-.91.538l-4.02 2.531 4.63-1.09c.22-.054.45-.116.71-.183.96-.254 2.15-.571 3.55-.776.33-.048.66-.114 1-.182.58-.116 1.19-.237 1.82-.267.7-.047 1.43-.099 2.18-.153l.98-.07c2.56-.032 4.73.163 6.66.607 2.11.363 4.27 1.043 6.26 1.963 1.88.897 3.67 1.787 5.08 2.817 2.83 1.891 4.41 3.468 4.42 3.484a2.017 2.017 0 0 0 2.53.266c.94-.611 1.2-1.87.6-2.778l-.03-.061zm57.7-6.126c-.27-.142-.56-.322-.89-.52-.84-.518-1.89-1.161-3.18-1.604-1.91-.838-4.11-1.508-6.39-1.942-2.93-.394-5.46-.462-7.75-.206-2.52.344-5.12 1.063-7.55 2.081-1.96.84-3.93 2.016-5.86 3.497-3.07 2.353-4.6 4.637-4.71 4.813l-.03.041a2.04 2.04 0 0 0 .26 2.539c.38.385.89.595 1.43.595.54 0 1.05-.212 1.43-.596l.01-.017c.15-.148 1.68-1.644 4.43-3.479 1.38-1.015 3.18-1.906 5.05-2.802a25.535 25.535 0 0 1 6.29-1.971c1.9-.438 4.08-.629 6.61-.602l1.02.073c.75.053 1.47.104 2.18.152.62.029 1.22.15 1.81.266.34.068.67.134 1 .182 1.4.205 2.59.522 3.55.776.25.067.49.129.71.185l4.64 1.089-4.06-2.55z" fill="#030405"/><path d="M199.11 265.052c2.01 9.042 3.24 20.241 3.24 34.111 0 0-.38.185-1.14.702h-94.42c-.76-.517-1.14-.702-1.14-.702 0-13.844 1.23-25.033 3.23-34.111H96.91c7.73-21.03 21.88-27.709 28.39-29.723-.01.205-.02.415-.02.625 0 9.626 12.65 17.473 28.53 17.878.44.016.87.021 1.31.021 16.32 0 29.6-7.899 29.78-17.688 7.15 2.798 19.16 10.143 26.06 28.887h-11.85z" fill="#5c4c52"/><path d="M147.07 200.254a8.288 8.288 0 0 1-.31-.066c.1.023.19.041.31.066zm-.8-.179c-.1-.024-.19-.051-.28-.077l-.01.004s.11.029.29.073zm.57-.601zm-.8-.179c-.1-.025-.19-.052-.28-.077l-.01.004s.11.029.29.073zm1.51.072c-.1-.021-.2-.041-.3-.064l.3.064zm-.77-.173c-.1-.023-.18-.05-.27-.074l-.01.004s.1.028.28.07z" fill="#be927b"/><path d="M140.81 201.764c-.24-3.2 8.91.67 11.92.762 2.4.081 9.6-.474 10.27-.728 5.03-1.883-.28 5.349-10.42 5.73-4.65.185-11.63-3.824-11.77-5.764z" fill="#f0d2ad"/><path d="M170.98 194.078c-5.81-1.086-18.03.073-18.03.073-10.09 1.675-17.98-.107-18.03-.038-.24.024 8.05 11.023 17.89 10.516 9.84.507 18.41-10.516 18.17-10.551z" fill="#c2646e"/><path d="M158.78 191.756c-2.62-.289-4.48 1.597-5.82 1.459-1.37.127-3.14-1.083-5.77-1.109-3.7-.036-5.51-.361-12.27 2.007.24.462 4.57 2.972 12.69 3.11.12 0 2.3 1.236 5.39 1.214 1.94-.012 4.6-1.306 4.71-1.306 8.13-.127 13.1-2.544 13.33-2.994-8.95-2.773-8.24-2.417-12.26-2.381z" fill="#d87475"/><path d="M228.03 172.684c18.49-28.849 3.07-83.537 3.07-83.537s-.12.131-.34.381c-4.75-17.231-12.67-26.542-12.67-26.542v.007c-3.85-5.827-9.31-11.95-15.99-17.987-13.68-12.345-22.29-9.804-33.62-9.45 0 0-.04.077-.09.202-4.98-1.076-31.74-6.421-47.66-.507-17.59 6.552-31.99 17.783-42.16 47.954a93.8 93.8 0 0 0-4.56 21.669c-.25-.235-.38-.364-.38-.364s-10.81 56.067 10 82.854c0 0-5-16.126-2.43-29.273 9.37 27.848 33.73 45.039 33.73 45.039s-7.57-8.909-10.95-17.8c-2.62-6.9-6.54-18.747-6.54-36.187 0-17.448 17.1-39.044 17.1-39.044s-7.89 13.549-9.45 28.452c-1.57 14.895 6.71 26.42 6.71 26.42s-1.66-17.69 4.13-31.774c2.9-7.074 7.68-13.244 15.5-15.796l-.01.033c-4.2 11.414 4.23 21.008 4.23 21.008s.03-2.865.87-7.279c2.16-11.424 9.72-33.269 36.15-42.984l.82 1.191 18.62 27.028c.92 1.234 2.4 3.308 4.13 5.993 5.04 7.817 12.01 20.638 12.01 31.788 0 17.44-3.92 29.284-6.54 36.184-3.39 8.891-10.95 17.807-10.95 17.807s22.47-15.867 32.55-41.809v.014a152.399 152.399 0 0 0 5.94-16.777c1.36 11.354-1.22 23.086-1.22 23.086zm-84.74 116.577l-9.65-11.521 9.65-11.906h13.41l-10.55 11.959 9.49 11.468h-12.35z" fill="#f0f0f0"/><path d="M162.5 285.602l-6.63-7.922 6.63-8.187h9.23l-7.26 8.223 6.53 7.886h-8.5z" fill="#f0f0f0"/><path d="M173.58 281.406l-3.18-3.795 3.18-3.922H178l-3.48 3.939 3.13 3.778h-4.07z" fill="#f0f0f0"/></g><path d="M143.49 149.714c-2.81 9.319-11.96 16.145-22.79 16.145-11.9 0-21.74-8.223-23.44-18.933a19.92 19.92 0 0 1-.26-3.296c0-12.28 10.61-22.23 23.7-22.23 13.08 0 23.69 9.95 23.69 22.23 0 2.107-.31 4.148-.9 6.084zm10.41-16.231c-2.02 0-3.97-.717-5.5-2.029-6.81-5.845-16.52-11.444-16.52-11.444-14.78-8.273-30.98-6.06-38.1-4.455-2.26.508-3.87 2.475-3.97 4.785-.57 12.243.84 21.298 3.29 28.038 5.28 14.54 15.38 18.314 20.78 20.109.79.263 7.19.95 8.02.944 11.99-.056 18.71-6.428 22.23-11.728 1.92-2.885 3.14-6.163 3.78-9.564 1.96-10.465 7.05-9.387 7.05-9.387v-5.269h-1.06z" fill="#8d5422" fill-rule="nonzero"/><path d="M143.49 149.714a33.903 33.903 0 0 0-5.57-3.162c0-4.278-.16-10.589-.96-15.409 1.83 1.358 2.83 2.357 2.84 2.37a2.017 2.017 0 0 0 2.23.429 20.937 20.937 0 0 1 2.36 9.688c0 2.107-.31 4.148-.9 6.084zm-45.96-2.875c.48-5.97 2.72-12.28 5.43-17.956.74-.779 1.53-1.51 2.38-2.185l1.8-.425c.19-.046.38-.096.59-.151-1.19 3.823-2.18 8.068-2.64 12.429a35.692 35.692 0 0 0-.11 6.263c-2.59.58-4.97 1.245-7.07 1.904-.02.007-.04.015-.07.022-.03.01-.06.021-.1.031l-.15.049-.06.019z" fill="#e4c4ae" fill-rule="nonzero"/><path d="M137.03 146.167c-1.6-.672-3.24-1.22-4.9-1.659.47-1.039.73-2.193.73-3.408a8.29 8.29 0 0 0-8.29-8.293c-4.58 0-8.3 3.713-8.3 8.293 0 .704.09 1.387.25 2.039-1.2.072-2.39.178-3.56.312.66-3.434 1.61-6.943 2.97-10.254.32-.778.66-1.546 1.03-2.299 2.67-1.202 5.12-1.664 7.3-1.664 2.91 0 5.36.828 7.25 1.82 1.6 4.496 4.14 7.388 4.14 7.388s.01-.722.12-1.998c.69 2.651 1.06 6.205 1.26 9.723z" fill="#f0ded4" fill-rule="nonzero"/><path d="M137.92 146.552a25.63 25.63 0 0 0-.89-.385c-.2-3.518-.57-7.072-1.26-9.723.11-1.268.33-3.082.75-5.281.01-.1.03-.201.05-.302.14.095.26.189.39.282.8 4.82.96 11.131.96 15.409zm-6.41-15.498c-1.89-.992-4.34-1.82-7.25-1.82-2.18 0-4.63.462-7.3 1.664 1.07-2.202 2.35-4.279 3.87-6.141 1.15.099 2.21.262 3.21.492 2.11.363 4.27 1.043 6.26 1.963.08.036.15.073.23.11.23 1.334.57 2.585.98 3.732z" fill="#e0c0ac" fill-rule="nonzero"/><path d="M132.13 144.508c-1.17-.31-2.35-.566-3.54-.772.22-.511.37-1.067.41-1.651.22-2.657-1.62-5.071-4.02-5.268-.1-.009-.21-.014-.32-.014-1.29 0-2.5.649-3.34 1.676a1.636 1.636 0 0 0-.07-.002c-.89 0-1.63.573-1.69 1.342-.04.495.21.959.63 1.263l-.03.27c-.04.578.01 1.145.14 1.68l-.2-.001h-.05c-1.18 0-2.36.038-3.53.108a8.548 8.548 0 0 1-.25-2.039c0-4.58 3.72-8.293 8.3-8.293a8.29 8.29 0 0 1 8.29 8.293c0 1.215-.26 2.369-.73 3.408z" fill="#997566" fill-rule="nonzero"/><path d="M128.59 143.736c-.27-.047-.54-.092-.82-.134.26-.467.42-.998.47-1.577.18-2.253-1.54-4.09-3.21-4.231a2.458 2.458 0 0 0-.21-.009c-.83 0-1.72.39-2.41 1.061a1.929 1.929 0 0 0-.99-.362l-.1-.005c.84-1.027 2.05-1.676 3.34-1.676.11 0 .22.005.32.014 2.4.197 4.24 2.611 4.02 5.268-.04.584-.19 1.14-.41 1.651zm-7.22-.69a55.57 55.57 0 0 0-1.07-.014 5.508 5.508 0 0 1-.14-1.68l.03-.27c.27.195.61.324.98.356v.004c-.04.568.03 1.11.2 1.604z" fill="#b5836d" fill-rule="nonzero"/><path d="M127.77 143.602a49.192 49.192 0 0 0-6.4-.556 4.042 4.042 0 0 1-.2-1.604v-.004c.06.005.12.007.17.007.89 0 1.63-.571 1.7-1.337.04-.495-.21-.957-.63-1.262.69-.671 1.58-1.061 2.41-1.061.07 0 .14.003.21.009 1.67.141 3.39 1.978 3.21 4.231-.05.579-.21 1.11-.47 1.577z" fill="#847167" fill-rule="nonzero"/><path d="M121.34 141.445a1.968 1.968 0 0 1-1.15-.363c-.42-.304-.67-.768-.63-1.263.06-.769.8-1.342 1.69-1.342l.07.002.1.005c.38.031.72.163.99.362.42.305.67.767.63 1.262-.07.766-.81 1.337-1.7 1.337z" fill="#f0ded4" fill-rule="nonzero"/><path d="M141.23 134.107c-.52 0-1.04-.202-1.43-.594-.01-.013-1.01-1.012-2.84-2.37-.13-.093-.25-.187-.39-.282.19-.974.42-2.019.7-3.124a22.462 22.462 0 0 1 4.76 6.205 1.96 1.96 0 0 1-.8.165zm-10.7-6.785c-.08-.037-.15-.074-.23-.11-1.99-.92-4.15-1.6-6.26-1.963-1-.23-2.06-.393-3.21-.492a24.664 24.664 0 0 1 3.08-3.153c2.23.283 4.36.857 6.35 1.68-.05 1.409.05 2.762.27 4.038zm-25.19-.624a24.11 24.11 0 0 1 2.82-1.939c-.14.448-.29.902-.43 1.363-.21.055-.4.105-.59.151l-1.8.425z" fill="#766964" fill-rule="nonzero"/><path d="M97.26 146.926a19.92 19.92 0 0 1-.26-3.296c0-5.66 2.25-10.824 5.96-14.747-2.71 5.676-4.95 11.986-5.43 17.956l-.27.087zm7.72-2.112c-.14-1.999-.12-4.096.11-6.263.46-4.361 1.45-8.606 2.64-12.429.14-.461.29-.915.43-1.363 3.64-2.129 7.93-3.359 12.54-3.359 1.09 0 2.16.07 3.21.204a24.664 24.664 0 0 0-3.08 3.153c-1.52 1.862-2.8 3.939-3.87 6.141-.37.753-.71 1.521-1.03 2.299-1.36 3.311-2.31 6.82-2.97 10.254-2.8.321-5.48.802-7.98 1.363zm30.67-6.372s-2.54-2.892-4.14-7.388a22.422 22.422 0 0 1-.98-3.732 19.662 19.662 0 0 1-.27-4.038 23.881 23.881 0 0 1 7.01 4.453c-.28 1.105-.51 2.15-.7 3.124-.02.101-.04.202-.05.302a52.922 52.922 0 0 0-.75 5.281c-.11 1.276-.12 1.998-.12 1.998z" fill="#ebd9cf" fill-rule="nonzero"/><path d="M120.7 165.859c-3.17 0-6.2-.584-8.96-1.644-.16-2.363-.51-9.965.82-18.447 2.07 3.631 4.67 6.674 7.73 7.272 1.69.33 3.41.462 5.08.462 6.64 0 12.47-2.086 12.47-2.086v-.059l.01-.003s.07-1.949.07-4.802c1.92.863 3.78 1.908 5.57 3.162-2.81 9.319-11.96 16.145-22.79 16.145zm-9.55-1.879c-6.96-2.878-12.16-8.805-13.69-15.973.02-.387.04-.778.07-1.168l.06-.019.15-.049c.04-.01.07-.021.1-.031.03-.007.05-.015.07-.022 2.1-.659 4.48-1.324 7.07-1.904.62 9.368 4.59 16.616 6.17 19.166z" fill="url(#a)"/><path d="M125.37 153.502c-1.67 0-3.39-.132-5.08-.462-3.06-.598-5.66-3.641-7.73-7.272.12-.766.25-1.54.4-2.317a66.13 66.13 0 0 1 3.56-.312 8.306 8.306 0 0 0 8.05 6.255c3.36 0 6.26-2.005 7.56-4.886 1.66.439 3.3.987 4.9 1.659.11 1.865.17 3.719.19 5.423.38-.157.57-.219.62-.233v.059s-5.83 2.086-12.47 2.086z" fill="url(#b)"/><path d="M137.22 151.59c-.02-1.704-.08-3.558-.19-5.423.3.125.6.253.89.385 0 2.853-.07 4.802-.07 4.802l-.01.003c-.05.014-.24.076-.62.233z" fill="url(#c)"/><path d="M124.57 149.394c-3.88 0-7.14-2.66-8.05-6.255 1.17-.07 2.35-.107 3.53-.108h.05l.2.001c.47 1.924 2.01 3.437 3.88 3.592.11.009.21.013.32.013 1.06 0 2.07-.441 2.87-1.172.03.008.07.014.11.017l.09.003c.44 0 .81-.287.84-.667a.65.65 0 0 0-.14-.465c.12-.197.23-.403.32-.617 1.19.206 2.37.462 3.54.772a8.296 8.296 0 0 1-7.56 4.886z" fill="url(#d)"/><path d="M124.5 146.637c-.11 0-.21-.004-.32-.013-1.87-.155-3.41-1.668-3.88-3.592.35.001.71.006 1.07.014.49 1.464 1.77 2.513 3.02 2.619.07.006.14.009.21.009.71 0 1.46-.285 2.09-.786.08.279.34.51.68.577-.8.731-1.81 1.172-2.87 1.172zm3.77-2.284a.91.91 0 0 0-.74-.348c.09-.128.17-.263.24-.403.28.042.55.087.82.134-.09.214-.2.42-.32.617z" fill="url(#e)"/><path d="M124.6 145.674c-.07 0-.14-.003-.21-.009-1.25-.106-2.53-1.155-3.02-2.619 2.13.05 4.27.225 6.4.556-.07.14-.15.275-.24.403h-.01c-.44 0-.81.287-.85.667 0 .074.01.146.02.216-.63.501-1.38.786-2.09.786z" fill="url(#f)"/><path d="M127.57 145.485l-.09-.003a.637.637 0 0 1-.11-.017c-.34-.067-.6-.298-.68-.577a1.52 1.52 0 0 1-.02-.216c.04-.38.41-.667.85-.667h.01a.91.91 0 0 1 .74.348c.1.134.16.295.14.465-.03.38-.4.667-.84.667z" fill="url(#g)"/><path d="M111.74 164.215c-.2-.076-.4-.154-.59-.235-1.58-2.55-5.55-9.798-6.17-19.166 2.5-.561 5.18-1.042 7.98-1.363-.15.777-.28 1.551-.4 2.317-1.33 8.482-.98 16.084-.82 18.447zm-14.28-16.208c-.08-.358-.14-.718-.2-1.081l.27-.087c-.03.39-.05.781-.07 1.168z" fill="url(#h)"/><path d="M120.7 165.859c-11.9 0-21.74-8.223-23.44-18.933.06.363.12.723.2 1.081 1.53 7.168 6.73 13.095 13.69 15.973a24.975 24.975 0 0 0 9.55 1.879c10.83 0 19.98-6.826 22.79-16.145-2.81 9.319-11.96 16.145-22.79 16.145z" fill="url(#i)"/><path d="M132.13 144.508zm-11.83-1.476l-.2-.001.2.001z" fill="url(#j)"/><path d="M128.59 143.736zm-7.22-.69z" fill="url(#k)"/><path d="M165.53 143.63c0-12.28 10.62-22.23 23.7-22.23 13.09 0 23.7 9.95 23.7 22.23 0 1.121-.08 2.223-.26 3.296-1.7 10.71-11.54 18.933-23.44 18.933-10.84 0-19.98-6.826-22.8-16.145-.58-1.936-.9-3.977-.9-6.084zm-10.57-10.147v5.269s5.1-1.078 7.06 9.387c.63 3.401 1.86 6.679 3.78 9.564 3.51 5.3 10.24 11.672 22.23 11.728.83.006 7.23-.681 8.02-.944 5.4-1.795 15.5-5.569 20.78-20.109 2.45-6.74 3.86-15.795 3.29-28.038-.1-2.31-1.72-4.277-3.97-4.785-7.13-1.605-23.32-3.818-38.11 4.455 0 0-9.7 5.599-16.51 11.444a8.468 8.468 0 0 1-5.51 2.029h-1.06z" fill="#8d5422" fill-rule="nonzero"/><path d="M166.43 149.714c-.58-1.936-.9-3.977-.9-6.084 0-4.225 1.26-8.175 3.44-11.538.19-.154.4-.317.62-.489-.8 5.661-.82 12.865-.77 16.587a32.537 32.537 0 0 0-2.39 1.524zm40.58-4.412c-3.58-.896-7.62-1.666-11.88-2.036 3-5.987 4.64-12.69 4.64-12.69-.01-.006-.01-.012-.02-.018.01-.03.01-.045.01-.045-2.18-2.344-4.27-4.181-6.26-5.599.43.053.85.137 1.26.218.34.068.67.134 1 .182.98.143 1.86.342 2.63.536 3.27 5.478 6.79 12.455 8.62 19.452zm-10.61-22.668c-.49-.21-.99-.409-1.51-.596.45.104.9.221 1.35.349v.004c.05.08.1.161.16.243z" fill="#eaccb6" fill-rule="nonzero"/><path d="M169.58 147.76c.25-6.722 1.07-14.347 3.39-15.992 2-1.461 5.25-3.22 9.5-3.22 4.28 0 9.58 1.783 15.64 7.449 1.01-2.867 1.56-5.097 1.64-5.439.01.006.01.012.02.018 0 0-1.64 6.703-4.64 12.69a61.144 61.144 0 0 0-5.1-.235c.27-.822.42-1.702.42-2.615a8.29 8.29 0 0 0-8.29-8.294c-4.58 0-8.3 3.713-8.3 8.294 0 1.793.57 3.453 1.54 4.81-1.98.665-3.93 1.5-5.82 2.534z" fill="#f0ded4" fill-rule="nonzero"/><path d="M168.82 148.19c-.05-3.722-.03-10.926.77-16.587.61-.476 1.35-1.015 2.21-1.587 1.38-1.015 3.18-1.906 5.05-2.802a25.535 25.535 0 0 1 6.29-1.971c1.79-.411 3.81-.605 6.15-.605.15 0 .31.001.46.003l1.02.073c.75.053 1.47.104 2.18.152.18.009.37.026.55.048 1.99 1.418 4.08 3.255 6.26 5.599 0 0 0 .015-.01.045-.08.342-.63 2.572-1.64 5.439-6.06-5.666-11.36-7.449-15.64-7.449-4.25 0-7.5 1.759-9.5 3.22-2.32 1.645-3.14 9.27-3.39 15.992-.25.139-.51.283-.76.43z" fill="#e0c0ac" fill-rule="nonzero"/><path d="M175.4 145.226a8.242 8.242 0 0 1-1.54-4.81c0-4.581 3.72-8.294 8.3-8.294a8.29 8.29 0 0 1 8.29 8.294c0 .913-.15 1.793-.42 2.615h-.2a54.07 54.07 0 0 0-3.68.126c.33-.755.48-1.61.41-2.49l-.03-.269c.42-.305.68-.769.64-1.264-.07-.769-.81-1.342-1.69-1.342l-.08.002c-.84-1.027-2.05-1.676-3.34-1.676-.11 0-.21.005-.32.014-2.4.197-4.23 2.61-4.02 5.267.07.83.33 1.603.73 2.268a.653.653 0 0 0-.14.466.85.85 0 0 0 .06.228c-1 .248-1.99.536-2.97.865z" fill="#997566" fill-rule="nonzero"/><path d="M178.45 143.667a5.256 5.256 0 0 1-.73-2.268c-.21-2.657 1.62-5.07 4.02-5.267.11-.009.21-.014.32-.014 1.29 0 2.5.649 3.34 1.676l-.09.005c-.38.031-.73.163-1 .362-.69-.671-1.58-1.061-2.41-1.061-.07 0-.14.003-.21.008-1.67.142-3.39 1.979-3.21 4.232.06.753.33 1.425.72 1.98a.942.942 0 0 0-.75.347zm6.48-.409c.44-.7.7-1.564.62-2.501v-.004c.37-.032.71-.161.98-.355l.03.269c.07.88-.08 1.735-.41 2.49-.41.029-.81.062-1.22.101z" fill="#b5836d" fill-rule="nonzero"/><path d="M180.05 143.98c-.04-.376-.41-.66-.84-.66h-.01a3.985 3.985 0 0 1-.72-1.98c-.18-2.253 1.54-4.09 3.21-4.232.07-.005.14-.008.21-.008.83 0 1.72.39 2.41 1.061-.41.305-.66.767-.62 1.262.06.765.8 1.337 1.69 1.337.06 0 .11-.002.17-.007v.004c.08.937-.18 1.801-.62 2.501-1.63.153-3.26.39-4.88.722z" fill="#847167" fill-rule="nonzero"/><path d="M185.38 140.76c-.89 0-1.63-.572-1.69-1.337-.04-.495.21-.957.62-1.262.27-.199.62-.331 1-.362l.09-.005.08-.002c.88 0 1.62.573 1.69 1.342.04.495-.22.959-.64 1.264a1.977 1.977 0 0 1-1.15.362zm-7.01 3.601a.85.85 0 0 1-.06-.228.653.653 0 0 1 .14-.466.942.942 0 0 1 .75-.347h.01c.43 0 .8.284.84.66-.56.116-1.12.242-1.68.381z" fill="#f0ded4" fill-rule="nonzero"/><path d="M168.97 132.092c4.16-6.411 11.68-10.692 20.26-10.692 1.95 0 3.85.221 5.66.638.52.187 1.02.386 1.51.596.64.998 1.31 2.074 1.99 3.216-.77-.194-1.65-.393-2.63-.536-.33-.048-.66-.114-1-.182-.41-.081-.83-.165-1.26-.218a7.848 7.848 0 0 0-.55-.048c-.71-.048-1.43-.099-2.18-.152l-1.02-.073a35.27 35.27 0 0 0-.46-.003c-2.34 0-4.36.194-6.15.605-2.13.369-4.3 1.049-6.29 1.971-1.87.896-3.67 1.787-5.05 2.802-.86.572-1.6 1.111-2.21 1.587-.22.172-.43.335-.62.489z" fill="#766964" fill-rule="nonzero"/><path d="M212.67 146.926l-.33-.106c-.05-.016-.1-.033-.16-.049-.03-.012-.07-.024-.11-.036l-.04-.013-.12-.038-.01-.003c-1.5-.469-3.14-.939-4.89-1.379-1.83-6.997-5.35-13.974-8.62-19.452a114.09 114.09 0 0 0-1.99-3.216c-.06-.082-.11-.163-.16-.243v-.004c9.67 2.801 16.69 11.251 16.69 21.243 0 1.121-.08 2.223-.26 3.296z" fill="#ebd9cf" fill-rule="nonzero"/><path d="M205.48 159.808c.28-2.174.59-4.066.95-5.418.48-1.849.92-3.771 1.31-5.749.33 1.871.51 3.726.51 5.538 0 .933-.01 1.851-.03 2.752a22.549 22.549 0 0 1-2.74 2.877z" fill="url(#l)"/><path d="M189.23 165.859c-10.84 0-19.98-6.826-22.8-16.145.05-.03.09-.059.13-.088.74-.513 1.49-.991 2.26-1.436.02 1.535.05 2.479.05 2.479s.01.001.01.003c0 .039.01.059.01.059s5.82 2.086 12.46 2.086c1.67 0 3.39-.132 5.08-.462 3.57-.695 6.5-4.7 8.7-9.089 4.26.37 8.3 1.14 11.88 2.036.29 1.114.53 2.23.73 3.339-.39 1.978-.83 3.9-1.31 5.749-.36 1.352-.67 3.244-.95 5.418-4.24 3.751-9.96 6.051-16.25 6.051z" fill="url(#m)"/><path d="M181.35 152.817c-6.64 0-12.46-2.086-12.46-2.086s-.01-.02-.01-.059c.05.013.24.075.62.233.02-1.006.04-2.064.08-3.145a35.956 35.956 0 0 1 5.82-2.534 8.28 8.28 0 0 0 6.76 3.483c3.66 0 6.77-2.379 7.87-5.678 1.72.006 3.43.089 5.1.235-2.2 4.389-5.13 8.394-8.7 9.089-1.69.33-3.41.462-5.08.462z" fill="url(#n)"/><path d="M169.5 150.905c-.38-.158-.57-.22-.62-.233 0-.002-.01-.003-.01-.003s-.03-.944-.05-2.479c.25-.147.51-.291.76-.43-.04 1.081-.06 2.139-.08 3.145z" fill="url(#o)"/><path d="M182.16 148.709a8.28 8.28 0 0 1-6.76-3.483c.98-.329 1.98-.616 2.97-.865.13.262.43.439.78.439l.09-.003a.99.99 0 0 0 .12-.017c.79.73 1.8 1.172 2.86 1.172.11 0 .22-.005.32-.014 1.6-.132 2.96-1.256 3.61-2.781a54.07 54.07 0 0 1 3.68-.126h.2c-1.1 3.299-4.21 5.678-7.87 5.678z" fill="url(#p)"/><path d="M182.22 145.952c-1.06 0-2.07-.442-2.86-1.172.33-.067.59-.298.67-.577.64.501 1.39.785 2.09.785.08.001.15-.002.22-.008.97-.083 1.96-.74 2.59-1.722.41-.039.81-.072 1.22-.101-.65 1.525-2.01 2.649-3.61 2.781-.1.009-.21.014-.32.014z" fill="url(#q)"/><path d="M182.12 144.988c-.7 0-1.45-.284-2.09-.785.02-.07.02-.142.02-.216v-.006c1.62-.333 3.25-.57 4.88-.723-.63.982-1.62 1.639-2.59 1.722-.07.006-.14.009-.22.008z" fill="url(#r)"/><path d="M179.15 144.8c-.35 0-.65-.177-.78-.439a42.25 42.25 0 0 1 1.68-.38v.006c0 .074 0 .146-.02.216-.08.279-.34.51-.67.577a.99.99 0 0 1-.21.02z" fill="url(#s)"/><path d="M208.22 156.931c.02-.901.03-1.819.03-2.752 0-1.812-.18-3.667-.51-5.538-.2-1.109-.44-2.225-.73-3.339 1.75.44 3.39.91 4.89 1.379l.01.003.12.038.04.013c.04.012.08.024.11.036.06.016.11.033.16.049l.33.106c-.59 3.714-2.16 7.129-4.45 10.005z" fill="url(#t)"/><path d="M189.23 165.859c-10.84 0-19.98-6.826-22.8-16.145 2.82 9.319 11.96 16.145 22.8 16.145 6.29 0 12.01-2.3 16.25-6.051 1-.882 1.92-1.845 2.74-2.877 2.29-2.876 3.86-6.291 4.45-10.005-1.7 10.71-11.54 18.933-23.44 18.933z" fill="url(#u)"/><path d="M168.82 148.19c.25-.147.51-.291.76-.43-.25.139-.51.283-.76.43z" fill="url(#v)"/><path d="M175.4 145.226zm10.75-2.069z" fill="url(#w)"/><path d="M180.05 143.981v-.001a45.469 45.469 0 0 1 0 .001z" fill="url(#x)"/><path d="M178.37 144.361c.56-.139 1.12-.265 1.68-.381v.001c-.56.115-1.12.241-1.68.38z" fill="url(#y)"/><clipPath id="z"><path d="M189.87 143.031h-.01.01z"/></clipPath><g clip-path="url(#z)"><path d="M189.86 143.031h.01-.01z" fill="url(#A)" fill-rule="nonzero"/></g><defs><linearGradient id="a" x2="1" gradientUnits="userSpaceOnUse" gradientTransform="rotate(81.567 -13.443 129.608) scale(57.4504)"><stop offset="0" stop-color="#f1e0d0"/><stop offset="1" stop-color="#e4c4ae"/></linearGradient><linearGradient id="b" x2="1" gradientUnits="userSpaceOnUse" gradientTransform="rotate(81.567 -13.443 129.608) scale(57.4504)"><stop offset="0" stop-color="#fff"/><stop offset="1" stop-color="#f0ded4"/></linearGradient><linearGradient id="c" x2="1" gradientUnits="userSpaceOnUse" gradientTransform="rotate(81.567 -13.443 129.608) scale(57.4504)"><stop offset="0" stop-color="#ebdcce"/><stop offset="1" stop-color="#e0c0ac"/></linearGradient><linearGradient id="d" x2="1" gradientUnits="userSpaceOnUse" gradientTransform="rotate(81.567 -13.443 129.608) scale(57.4504)"><stop offset="0" stop-color="#a1897e"/><stop offset="1" stop-color="#997566"/></linearGradient><linearGradient id="e" x2="1" gradientUnits="userSpaceOnUse" gradientTransform="rotate(81.567 -13.443 129.608) scale(57.4504)"><stop offset="0" stop-color="#bf9986"/><stop offset="1" stop-color="#b5836d"/></linearGradient><linearGradient id="f" x2="1" gradientUnits="userSpaceOnUse" gradientTransform="rotate(81.567 -13.443 129.608) scale(57.4504)"><stop offset="0" stop-color="#8a827d"/><stop offset="1" stop-color="#847167"/></linearGradient><linearGradient id="g" x2="1" gradientUnits="userSpaceOnUse" gradientTransform="rotate(81.567 -13.443 129.608) scale(57.4504)"><stop offset="0" stop-color="#fff"/><stop offset="1" stop-color="#f0ded4"/></linearGradient><linearGradient id="h" x2="1" gradientUnits="userSpaceOnUse" gradientTransform="rotate(81.567 -13.443 129.608) scale(57.4504)"><stop offset="0" stop-color="#f9f9f9"/><stop offset="1" stop-color="#ebd9cf"/></linearGradient><linearGradient id="i" x2="1" gradientUnits="userSpaceOnUse" gradientTransform="rotate(81.567 -13.443 129.608) scale(57.4504)"><stop offset="0" stop-color="#c7a789"/><stop offset="1" stop-color="#bc906f"/></linearGradient><linearGradient id="j" x2="1" gradientUnits="userSpaceOnUse" gradientTransform="rotate(81.567 -13.443 129.608) scale(57.4504)"><stop offset="0" stop-color="#cdbbb2"/><stop offset="1" stop-color="#c3a294"/></linearGradient><linearGradient id="k" x2="1" gradientUnits="userSpaceOnUse" gradientTransform="rotate(81.567 -13.443 129.608) scale(57.4504)"><stop offset="0" stop-color="#dbc4b6"/><stop offset="1" stop-color="#d0a997"/></linearGradient><linearGradient id="l" x2="1" gradientUnits="userSpaceOnUse" gradientTransform="rotate(81.567 26.243 163.816) scale(57.45029)"><stop offset="0" stop-color="#eedcce"/><stop offset="1" stop-color="#e2c1ad"/></linearGradient><linearGradient id="m" x2="1" gradientUnits="userSpaceOnUse" gradientTransform="rotate(81.567 26.243 163.816) scale(57.45029)"><stop offset="0" stop-color="#f8e9d8"/><stop offset="1" stop-color="#eaccb6"/></linearGradient><linearGradient id="n" x2="1" gradientUnits="userSpaceOnUse" gradientTransform="rotate(81.567 26.243 163.816) scale(57.45029)"><stop offset="0" stop-color="#fff"/><stop offset="1" stop-color="#f0ded4"/></linearGradient><linearGradient id="o" x2="1" gradientUnits="userSpaceOnUse" gradientTransform="rotate(81.567 26.243 163.816) scale(57.45029)"><stop offset="0" stop-color="#ebdcce"/><stop offset="1" stop-color="#e0c0ac"/></linearGradient><linearGradient id="p" x2="1" gradientUnits="userSpaceOnUse" gradientTransform="rotate(81.567 26.243 163.816) scale(57.45029)"><stop offset="0" stop-color="#a1897e"/><stop offset="1" stop-color="#997566"/></linearGradient><linearGradient id="q" x2="1" gradientUnits="userSpaceOnUse" gradientTransform="rotate(81.567 26.243 163.816) scale(57.45029)"><stop offset="0" stop-color="#bf9986"/><stop offset="1" stop-color="#b5836d"/></linearGradient><linearGradient id="r" x2="1" gradientUnits="userSpaceOnUse" gradientTransform="rotate(81.567 26.243 163.816) scale(57.45029)"><stop offset="0" stop-color="#8a827d"/><stop offset="1" stop-color="#847167"/></linearGradient><linearGradient id="s" x2="1" gradientUnits="userSpaceOnUse" gradientTransform="rotate(81.567 26.243 163.816) scale(57.45029)"><stop offset="0" stop-color="#fff"/><stop offset="1" stop-color="#f0ded4"/></linearGradient><linearGradient id="t" x2="1" gradientUnits="userSpaceOnUse" gradientTransform="rotate(81.567 26.243 163.816) scale(57.45029)"><stop offset="0" stop-color="#f9f9f9"/><stop offset="1" stop-color="#ebd9cf"/></linearGradient><linearGradient id="u" x2="1" gradientUnits="userSpaceOnUse" gradientTransform="rotate(81.567 26.243 163.816) scale(57.45029)"><stop offset="0" stop-color="#c7a789"/><stop offset="1" stop-color="#bc906f"/></linearGradient><linearGradient id="v" x2="1" gradientUnits="userSpaceOnUse" gradientTransform="rotate(81.567 26.243 163.816) scale(57.45029)"><stop offset="0" stop-color="#f0e1d7"/><stop offset="1" stop-color="#e4c5b5"/></linearGradient><linearGradient id="w" x2="1" gradientUnits="userSpaceOnUse" gradientTransform="rotate(81.567 26.243 163.816) scale(57.45029)"><stop offset="0" stop-color="#cdbbb2"/><stop offset="1" stop-color="#c3a294"/></linearGradient><linearGradient id="x" x2="1" gradientUnits="userSpaceOnUse" gradientTransform="rotate(81.567 26.243 163.816) scale(57.45029)"><stop offset="0" stop-color="#c2b8b2"/><stop offset="1" stop-color="#b9a195"/></linearGradient><linearGradient id="y" x2="1" gradientUnits="userSpaceOnUse" gradientTransform="rotate(81.567 26.243 163.816) scale(57.45029)"><stop offset="0" stop-color="#f9f0eb"/><stop offset="1" stop-color="#ebd2c5"/></linearGradient><linearGradient id="A" x2="1" gradientUnits="userSpaceOnUse" gradientTransform="rotate(81.567 26.243 163.816) scale(57.45029)"><stop offset="0" stop-color="#cdbbb2"/><stop offset="1" stop-color="#c3a294"/></linearGradient></defs></svg>