<svg viewBox="0 0 298 300" xmlns="http://www.w3.org/2000/svg" fill-rule="evenodd" clip-rule="evenodd" stroke-linejoin="round" stroke-miterlimit="1.414"><g fill-rule="nonzero"><path fill="#827177" d="M.17.07h296.87v299.705H.17z"/><path d="M114.82 242.448s-4.92-1.914-10.53-7.712c-5.8-5.614-7.72-10.53-7.72-10.53s3.2-1.546 7.36-3.376l14.26 14.258a262.68 262.68 0 0 1-3.37 7.36z" fill="#36393a"/><path d="M118.19 235.088l-14.26-14.258c2.89-1.27 6.24-2.675 9.31-3.799l8.75 8.753c-1.12 3.069-2.53 6.416-3.8 9.304z" fill="#cf1e4a"/><path d="M189.06 242.448s4.91-1.914 10.53-7.712c5.8-5.614 7.71-10.53 7.71-10.53s-3.2-1.546-7.36-3.376l-14.26 14.258c1.83 4.161 3.38 7.36 3.38 7.36z" fill="#36393a"/><path d="M185.68 235.088l14.26-14.258c-2.89-1.27-6.24-2.675-9.3-3.799l-8.76 8.753c1.13 3.069 2.53 6.416 3.8 9.304z" fill="#cf1e4a"/><path d="M109.28 209.173c0 10.701 8.64 19.377 19.29 19.377h45.99c10.65 0 19.29-8.676 19.29-19.377 0-8.598-5.58-15.883-13.29-18.417-2.18-5.433-6.98-9.209-12.55-9.209h-32.89c-5.57 0-10.37 3.775-12.55 9.209a19.379 19.379 0 0 0-13.29 18.417z" fill="#36393a"/><path d="M153.81 187.515v112.253H93.07c-.98-.391-1.48-.597-1.48-.597 0-7.16.54-13.558 1.46-19.216.44-2.613.95-5.082 1.55-7.386a67.12 67.12 0 0 1 2.3-7.613c.19-.473.35-.946.54-1.399.2-.514.41-1.008.61-1.502.21-.494.41-.967.64-1.44.41-.967.87-1.872 1.32-2.757.78-1.522 1.6-2.963 2.47-4.3.22-.37.45-.72.68-1.049a51.677 51.677 0 0 1 3.43-4.547c.33-.37.66-.761.99-1.111.33-.37.66-.72.99-1.07.33-.329.68-.679 1-.988.33-.329.66-.637.99-.925a29.16 29.16 0 0 1 2-1.708c3.23-2.593 6.34-4.341 8.97-5.493l.99-.433c1.02-.411 1.95-.74 2.77-.987 2.14-.679 3.46-.823 3.46-.823.25 0 .45-.021.68-.062 1.91-.308 3.46-1.975 4.71-4.608.93-1.976 1.69-4.486 2.33-7.387.24-1.152.45-2.283.63-3.518.31-2.078.6-4.259.85-6.522.1-1.378.24-2.716.39-4.156.55-6.872.7-14.381.7-21.5 0 0 8.14.844 14.77.844z" fill="#e0bd9a"/><path d="M216.27 299.171s-.53.206-1.44.597h-61.02V187.515h.14c6.59 0 14.84-.844 14.84-.844 0 7.057.14 14.484.68 21.356.16 1.337.3 2.716.41 4.053.25 2.366.53 4.588.88 6.666v.042c.11.946.29 1.789.46 2.674.59 2.922 1.31 5.494 2.2 7.551 1.09 2.572 2.4 4.362 4.03 5.061.49.226 1.05.35 1.62.35 0 0 2.33.267 5.83 1.646a37.41 37.41 0 0 1 6.35 3.21c.48.287.97.617 1.44.946.4.247.79.535 1.18.823.33.247.7.514 1.03.782a33.91 33.91 0 0 1 2.2 1.851c.29.247.55.515.84.782.33.288.64.597.97.947.22.205.43.411.64.637.43.453.88.947 1.31 1.461.23.247.46.494.66.761a39.316 39.316 0 0 1 2.88 3.786c.41.576.78 1.173 1.17 1.79a56.81 56.81 0 0 1 2.29 4.012c.9 1.769 1.77 3.662 2.57 5.699.19.453.37.926.53 1.399a71.346 71.346 0 0 1 2.33 7.613c.6 2.304 1.11 4.773 1.52 7.386.93 5.658 1.46 12.056 1.46 19.216z" fill="#efd0ad"/><path d="M170.76 218.54v.05c-1.53 2.357-6.67 9.134-16.85 9.134h-.1c-9.63-.049-15.27-7.023-16.7-9.085.3-2.063.59-4.224.84-6.483.1-1.327.25-2.702.4-4.126a67.76 67.76 0 0 0 15.27 2.014h.19a65.555 65.555 0 0 0 15.67-2.161c.15 1.326.29 2.701.39 4.027.25 2.357.55 4.568.89 6.63z" fill="#be987f"/><path d="M153.12 59.561c-64.33 0-64.68 53.779-61.81 88.993-4.4-8.349-17.5-5.796-16.41 7.367 1.04 12.671 19.75 19.129 19.22 17.73 9.74 26.043 35.53 45.675 59 45.675h.5V59.561h-.5z" fill="#d2a686"/><path d="M79 150.371c3.16-5.108 8.1-2.897 9.29-1.768 1.29 1.228 2.32 2.8 1.53 5.796-.44 1.719-2.22 1.866-1.83 4.42.5 2.897 1.83 3.045 2.62 3.732.74.639 1.68 1.13 2.13 2.358.49 1.228.54 2.505.29 3.634-.49 2.063-3.5.393-5.53-.491-1.33-.638-5.58-4.224-6.67-5.402-2.67-3.045-3.95-8.939-1.83-12.279z" fill="#ac8774"/><path d="M153.47 59.561c64.33 0 64.68 53.779 61.86 88.993 4.4-8.349 17.45-5.796 16.36 7.367-.99 12.671-19.74 19.134-19.22 17.73-9.49 26.043-35.53 45.675-59 45.675h-.35l-.15-159.765h.5z" fill="#ddb598"/><path d="M227.59 150.371c-3.17-5.108-8.06-2.897-9.29-1.768-1.29 1.228-2.28 2.8-1.53 5.796.44 1.719 2.22 1.866 1.82 4.42-.49 2.897-1.82 3.045-2.57 3.732-.74.639-1.73 1.13-2.17 2.358-.44 1.228-.54 2.505-.3 3.634.5 2.063 3.51.393 5.54-.491 1.38-.638 5.58-4.224 6.67-5.402 2.72-3.045 3.95-8.939 1.83-12.279z" fill="#ac8774"/><path d="M152.61 74.737c-21.14 0-36.66 6.139-46 18.221-13.09 16.944-12.6 42.777-7.81 61.342 1.49 5.698 2.28 20.971 3.27 26.571 4.59 25.096 32.31 38.455 50.54 38.455h.5V74.737h-.5z" fill="#e0bd9a"/><path d="M198.57 93.007c-9.29-12.033-24.61-18.172-45.46-18.27v144.589c20.85-.245 45.81-14.881 50.05-38.455 1.04-5.6 1.78-20.873 3.27-26.571 4.84-18.515 5.33-44.3-7.86-61.293z" fill="#efd0ad"/><path d="M149.73 193.695c-.1-.022-.2-.041-.3-.065.1.023.19.041.3.065zm-.78-.175c-.09-.024-.18-.051-.27-.076l-.01.004s.1.029.28.072z" fill="#bc917b"/><path d="M135.15 75.098l-.27.267.04.089c.09-.133.14-.267.23-.356z" fill="#432e1b"/><path d="M149.91 190.762c-.1-.022-.21-.043-.31-.066l.31.066zm-.81-.18l-.27-.078-.01.005s.1.029.28.073z" fill="#ba907b"/><path d="M140.54 174.797c-.25-5.131 9.42-1.875 12.61-1.714 2.52.129 10.19-1.617 10.85-1.168 4.52 3.043-4.78 9.171-11.01 9.171-1.66 0-12.3-3.193-12.45-6.289z" fill="#dcb497"/><path d="M106.96 131.17s4.9 20.136 13.33 21.78c8.43 1.642 17.55-1.624 17.55-1.624s.87-23.663-3.45-26.755c-4.31-3.106-14.24-7.593-27.43 6.599z" fill="#fff"/><path d="M137.85 151.264s-.19.056-.63.236c-.11-7.257-.78-17.227-3.47-19.137-4.01-2.933-13.05-7.061-25.14 4.23-1.1-3.12-1.65-5.485-1.65-5.485 13.21-14.22 23.16-9.74 27.44-6.632 4.32 3.104 3.45 26.788 3.45 26.788z" fill="#d6b496"/><path d="M132.86 141.01a8.29 8.29 0 0 1-8.29 8.294c-4.58 0-8.3-3.713-8.3-8.294 0-4.58 3.72-8.293 8.3-8.293a8.29 8.29 0 0 1 8.29 8.293z" fill="#482315"/><path d="M124.18 146.534c-2.39-.198-4.23-2.615-4.02-5.272.22-2.657 2.43-4.736 4.82-4.536 2.4.198 4.24 2.612 4.02 5.268-.22 2.658-2.43 4.74-4.82 4.54z" fill="#7e3a22"/><path d="M124.39 145.575c-1.67-.142-3.4-1.971-3.22-4.223.19-2.26 2.19-3.785 3.86-3.648 1.67.141 3.39 1.978 3.21 4.231-.18 2.256-2.19 3.777-3.85 3.64z" fill="#211a10"/><path d="M123.04 140.017c-.07.815-.91 1.41-1.87 1.331-.96-.082-1.68-.809-1.61-1.618.07-.818.9-1.414 1.86-1.335.96.077 1.68.805 1.62 1.622zm5.37 4.711c-.03.405-.45.704-.93.664-.48-.038-.84-.405-.81-.81.04-.405.46-.705.93-.664.48.037.85.402.81.81z" fill="#fff"/><path d="M150.04 193.137c-.1-.022-.21-.043-.31-.067.1.023.19.042.31.067zm-.8-.18c-.1-.025-.19-.052-.28-.078l-.01.004s.11.03.29.074z" fill="#ba907b"/><path d="M149.67 192.568c-.12-.024-.23-.045-.34-.071.11.024.21.045.34.071zm-.87-.193c-.1-.026-.19-.056-.3-.083l-.01.005.31.078zm4.54 2.309h.01-.01zm-3.92-2.958c-.11-.024-.23-.045-.34-.071.11.024.21.044.34.071zm-.87-.193c-.1-.026-.19-.055-.29-.083l-.01.004s.11.032.3.079zm4.79-.018h.01-.01zm-3.15.096c-.11-.023-.22-.044-.33-.069.11.024.2.043.33.069zm-.84-.187c-.1-.025-.19-.053-.28-.08l-.02.005.3.075z" fill="#bc917b"/><path d="M199.77 130.485s-4.91 20.136-13.34 21.78c-8.42 1.642-17.54-1.624-17.54-1.624s-.88-23.663 3.44-26.756c4.31-3.105 14.25-7.592 27.44 6.6z" fill="#fff"/><path d="M168.87 150.579s.2.056.63.236c.11-7.257.78-17.227 3.47-19.137 4.01-2.933 13.06-7.062 25.14 4.229 1.1-3.119 1.65-5.484 1.65-5.484-13.21-14.22-23.16-9.74-27.44-6.632-4.32 3.103-3.45 26.788-3.45 26.788z" fill="#d6b496"/><path d="M173.86 140.325c0 4.581 3.72 8.294 8.3 8.294a8.29 8.29 0 0 0 8.29-8.294 8.29 8.29 0 0 0-8.29-8.293c-4.58 0-8.3 3.713-8.3 8.293z" fill="#482315"/><path d="M182.54 145.848c2.4-.197 4.24-2.614 4.02-5.271-.22-2.657-2.42-4.736-4.82-4.536-2.4.198-4.23 2.612-4.02 5.269.22 2.656 2.43 4.739 4.82 4.538z" fill="#7e3a22"/><path d="M182.34 144.89c1.66-.142 3.39-1.971 3.21-4.223-.19-2.26-2.19-3.785-3.86-3.648-1.67.141-3.39 1.978-3.21 4.231.19 2.256 2.19 3.777 3.86 3.64z" fill="#211a10"/><path d="M183.69 139.332c.07.814.9 1.41 1.86 1.331.96-.082 1.68-.809 1.62-1.619-.07-.818-.9-1.413-1.86-1.335-.97.079-1.69.805-1.62 1.623zm-5.38 4.711c.03.405.45.704.93.664.48-.038.84-.405.81-.81-.04-.405-.45-.705-.93-.664-.48.037-.85.401-.81.81z" fill="#fff"/><path d="M142.9 130.85c-.06-.098-1.59-2.424-4.72-4.82-1.96-1.502-3.88-2.646-5.87-3.498a30.439 30.439 0 0 0-7.55-2.081c-2.29-.254-4.82-.187-7.77.211-2.25.429-4.45 1.099-6.32 1.923-1.33.458-2.38 1.102-3.23 1.62-.32.198-.61.377-.91.537l-4.02 2.531 4.63-1.09c.22-.054.45-.116.71-.183.96-.254 2.15-.571 3.55-.777.33-.047.66-.113 1-.181.58-.117 1.19-.237 1.82-.267.7-.047 1.43-.099 2.18-.153l.98-.07c2.56-.032 4.73.163 6.66.606 2.11.364 4.27 1.044 6.26 1.963 1.88.898 3.67 1.788 5.08 2.818 2.83 1.891 4.41 3.469 4.42 3.483v.001a2.017 2.017 0 0 0 2.53.266c.94-.61 1.2-1.87.6-2.778l-.03-.061zm57.7-6.127c-.27-.141-.56-.321-.89-.52-.84-.517-1.89-1.16-3.18-1.603-1.91-.839-4.11-1.509-6.39-1.942-2.93-.394-5.46-.462-7.75-.206-2.52.344-5.12 1.063-7.55 2.081-1.96.84-3.93 2.016-5.86 3.497-3.07 2.353-4.6 4.637-4.71 4.813l-.03.042c-.52.797-.41 1.865.26 2.537.38.386.89.596 1.43.596.54 0 1.05-.212 1.43-.596l.01-.016c.15-.148 1.68-1.645 4.43-3.481 1.38-1.013 3.18-1.905 5.05-2.801a25.535 25.535 0 0 1 6.29-1.971c1.9-.438 4.08-.629 6.61-.602l1.02.073c.75.053 1.47.104 2.18.152.62.029 1.22.149 1.81.266.34.068.67.134 1 .181 1.4.206 2.59.523 3.55.777.25.067.49.129.71.185l4.64 1.089-4.06-2.551z" fill="#030405"/><path d="M147.07 200.164a8.288 8.288 0 0 1-.31-.066c.1.023.19.041.31.066zm-.8-.179c-.1-.024-.19-.051-.28-.077l-.01.004s.11.029.29.073zm.57-.601zm-.8-.179c-.1-.025-.19-.052-.28-.077l-.01.004s.11.029.29.073zm1.51.072c-.1-.021-.2-.041-.3-.064l.3.064zm-.77-.173c-.1-.023-.18-.05-.27-.074l-.01.004s.1.028.28.07z" fill="#be927b"/><path d="M140.81 201.673c-.24-3.199 8.91.671 11.92.763 2.4.081 9.6-.474 10.27-.728 5.03-1.883-.28 5.349-10.42 5.73-4.65.185-11.63-3.824-11.77-5.765z" fill="#f0d2ad"/><path d="M170.98 193.988c-5.81-1.086-18.03.073-18.03.073-10.09 1.675-17.98-.107-18.03-.038-.24.024 8.05 11.023 17.89 10.516 9.84.507 18.41-10.516 18.17-10.551z" fill="#c2646e"/><path d="M158.78 191.666c-2.62-.289-4.48 1.597-5.82 1.459-1.37.127-3.14-1.083-5.77-1.109-3.7-.036-5.51-.361-12.27 2.007.24.462 4.57 2.972 12.69 3.11.12 0 2.3 1.236 5.39 1.214 1.94-.012 4.6-1.306 4.71-1.306 8.13-.127 13.1-2.544 13.33-2.994-8.95-2.773-8.24-2.417-12.26-2.381z" fill="#d87475"/><path d="M202.04 287.628c-.07-1.263-.15-2.492-.25-3.695a3.694 3.694 0 0 1 3.68-3.978h9.34a76.305 76.305 0 0 0-1.52-7.386h-12.75c-.54-4.012 2.51-7.613 6.57-7.613h3.85c-.16-.474-.34-.947-.53-1.399-.8-2.037-1.67-3.93-2.57-5.7-7-13.579-16.79-19.381-22.96-21.788-.19 9.794-13.46 17.694-29.77 17.694-.46 0-.89 0-1.32-.02-15.88-.412-28.54-8.251-28.54-17.88 0-.205.02-.411.02-.617-5.7 1.77-17.3 7.119-25.28 22.611a62.053 62.053 0 0 0-2.57 5.7c-.19.452-.35.925-.54 1.399h3.98c4.06 0 7.11 3.6 6.57 7.613H94.6c-.6 2.304-1.11 4.773-1.55 7.386h9.47c2.15 0 3.84 1.829 3.68 3.978-.1 1.207-.18 2.437-.25 3.695-.1 1.852-.18 3.745-.22 5.699-.06 1.852-.08 3.766-.08 5.741 0 0 .39.185 1.15.699h94.41c.76-.514 1.13-.699 1.13-.699 0-1.975-.02-3.889-.08-5.741-.04-1.954-.12-3.847-.22-5.699z" fill="#5c4c52"/><path d="M223.7 87.854c-.2-.73-.41-1.425-.61-2.099l.01.001c-1.68-4.863 1.09-6.895 1.09-6.895l-.05-.028c11.31-.718 17.66-11.467 17.66-11.467s-4.53 6.569-20.13 1.448c-15.23-4.992-14.85-21.262-36.75-30.34-6.66-2.762-13.89-3.245-19.47-2.825-1.42.106-1.87-1.869-.56-2.425 5.21-2.208 10.8-4.11 10.8-4.11s-10.52-1.337-25.92 3.539c-10.82 3.43-17.3 7.333-20.93 10.133l6.07-5.737s-1.47.516-3.89 1.556c-2.02.864-3.91-1.459-2.68-3.278 3.84-5.66 7.98-10.375 7.98-10.375-10.53 3.886-20.07 13.213-26.64 20.983-2.2 2.61-6.38.294-5.32-2.957a85.25 85.25 0 0 1 1.25-3.617c-33.31 24.561-28.13 68.914-28.13 68.914 0 16.786 6.68 33.615 11.06 38.615 4.38 4.997 2.98 12.248 4.29 12.248 0 0 2.64.093 2.73-12.57.32-4.276 1.69-11.144 7.28-9.09.29.128.6.273.89.389l.17.079c28.04 11.104 42.36-17.037 42.36-17.037s8.57-18.043 18.17-24.661c2.82-1.951 6.52-3.434 10.99-4.815 25.54-7.879 36.14 32.535 33.99 43.195-3.29 16.423 1.29 25.88 3.04 25.435 0 0 .07-4.17 1.66-7.887 4.71-11.071 8.67-3.379 9.4-18.391.38-7.936 1.15-13.6 1.8-18.289.42-2.977 3.5-4.706 6.3-3.613 3.21 1.253 7.21 2.045 12.2 2.149 0 0-11.79-3.621-20.11-26.178z" fill="#36393a"/></g><path d="M208.4 149.329c-.25-.112-.5-.222-.75-.331.22-1.079.42-2.174.6-3.284 0 1.285.06 2.491.15 3.615z" fill="url(#a)"/><path d="M166.79 152.631c-.52-1.8-.8-3.578-.94-5.201-.27-2.124-.35-4.661.15-7.09.3-2.548 1.52-4.55 3.27-6.123-.72 7.571-.4 16.362-.4 16.362s.01.001.01.003c0 .039.01.059.01.059s.28.103.81.264c-.83.453-1.65.936-2.48 1.452l-.09.058-.21.133c-.05.028-.09.055-.13.083zm40.86-3.633c-4.1-1.765-8.72-3.114-13.75-3.55 3.78-6.412 5.87-14.963 5.87-14.963-.01-.006-.01-.011-.02-.017.01-.03.01-.045.01-.045-.56-.607-1.12-1.18-1.67-1.72.75.089 1.65.234 2.62.469 7.44 1.683 8.46 5.595 8.55 5.972l.03.071c-.75 3.921-1.04 7.433-1.04 10.499-.18 1.11-.38 2.205-.6 3.284z" fill="url(#b)"/><path d="M169.7 150.905c-.53-.161-.81-.264-.81-.264s-.01-.02-.01-.059c.05.013.24.076.62.233.1-6.963.73-16.423 3.16-18.866 3.97-2.022 8.94-2.878 12.62-3.237 3.72.662 8.04 2.714 12.83 7.195 1.01-2.867 1.56-5.097 1.64-5.439.01.006.01.011.02.017 0 0-2.09 8.551-5.87 14.963-1.13-.098-2.27-.15-3.44-.15h-.05c-.54 0-1.09.012-1.64.035a8.29 8.29 0 0 0 1.68-5.008 8.29 8.29 0 0 0-8.29-8.293 8.294 8.294 0 1 0-4.4 15.329c-2.63.866-5.32 2.031-8.06 3.544z" fill="url(#c)"/><path d="M169.5 150.815c-.38-.157-.57-.22-.62-.233 0-.002-.01-.003-.01-.003s-.32-8.791.4-16.362c.99-.885 2.14-1.633 3.39-2.268-2.43 2.443-3.06 11.903-3.16 18.866zm28.61-14.908c-4.79-4.481-9.11-6.533-12.83-7.195 2.36-.23 4.2-.258 4.92-.258.23-.006.46-.012.7-.012.7-.026 1.37-.039 2.01-.039 1.68 0 3.19.085 4.54.234.2.017.41.039.64.066.55.54 1.11 1.113 1.67 1.72 0 0 0 .015-.01.045-.08.342-.63 2.572-1.64 5.439z" fill="url(#d)"/><path d="M177.76 147.361a8.294 8.294 0 0 1 4.4-15.329 8.29 8.29 0 0 1 8.29 8.293 8.29 8.29 0 0 1-1.68 5.008c-3.52.149-7.2.776-11.01 2.028zm1.6-2.671c.79.73 1.8 1.172 2.86 1.172.11 0 .22-.005.32-.014 2.4-.197 4.24-2.614 4.02-5.271l-.03-.27c.42-.304.68-.768.64-1.263-.07-.769-.81-1.342-1.69-1.342l-.08.002c-.84-1.027-2.05-1.676-3.34-1.676-.11 0-.21.004-.32.013-2.4.198-4.23 2.612-4.02 5.269.07.829.33 1.602.73 2.268a.65.65 0 0 0-.14.465c.03.38.4.667.84.667l.09-.003c.04-.004.08-.009.12-.017z" fill="url(#e)"/><path d="M182.22 145.862c-1.06 0-2.07-.442-2.86-1.172.33-.067.59-.297.67-.577.64.501 1.39.786 2.1.786.07 0 .14-.003.21-.009 1.66-.142 3.39-1.971 3.21-4.223v-.004c.37-.032.71-.161.98-.356l.03.27c.22 2.657-1.62 5.074-4.02 5.271-.1.009-.21.014-.32.014zm-3.77-2.284a5.264 5.264 0 0 1-.73-2.268c-.21-2.657 1.62-5.071 4.02-5.269.11-.009.21-.013.32-.013 1.29 0 2.5.649 3.34 1.676l-.09.005c-.38.031-.73.163-1 .362-.69-.671-1.58-1.061-2.41-1.061-.07 0-.14.003-.21.009-1.67.141-3.39 1.978-3.21 4.231.06.753.33 1.425.72 1.98a.948.948 0 0 0-.75.348z" fill="url(#f)"/><path d="M182.13 144.899c-.71 0-1.46-.285-2.1-.786.02-.07.02-.142.02-.216-.03-.38-.4-.667-.84-.667h-.01a3.985 3.985 0 0 1-.72-1.98c-.18-2.253 1.54-4.09 3.21-4.231.07-.006.14-.009.21-.009.83 0 1.72.39 2.41 1.061-.41.305-.66.766-.62 1.261.06.766.8 1.338 1.69 1.338.05 0 .11-.002.17-.007v.004c.18 2.252-1.55 4.081-3.21 4.223-.07.006-.14.009-.21.009z" fill="url(#g)"/><path d="M185.38 140.67c-.89 0-1.63-.572-1.69-1.338-.04-.495.21-.956.62-1.261.27-.199.62-.331 1-.362l.09-.005.08-.002c.88 0 1.62.573 1.69 1.342.04.495-.22.959-.64 1.263a1.968 1.968 0 0 1-1.15.363z" fill="url(#h)"/><path d="M179.15 144.71c-.44 0-.81-.287-.84-.667a.65.65 0 0 1 .14-.465.948.948 0 0 1 .75-.348h.01c.44 0 .81.287.84.667 0 .074 0 .146-.02.216-.08.28-.34.51-.67.577a1.237 1.237 0 0 1-.21.02z" fill="url(#i)"/><path d="M210.39 150.277c-.04-.022-.09-.044-.13-.066l-.09-.047-.12-.058c-.05-.026-.11-.052-.16-.078-.49-.238-.98-.472-1.49-.699-.09-1.124-.15-2.33-.15-3.615 0-3.066.29-6.578 1.04-10.499.29.616.52 1.293.67 2.029 1 3.454 1.15 6.79.85 9.768a30.692 30.692 0 0 1-.42 3.265z" fill="url(#j)"/><path d="M99.3 152.696a30.143 30.143 0 0 1-1.12-5.69c-.36-5.131.7-8.931.7-8.931l.06-.401a3.64 3.64 0 0 1 1.99-.57c.57 0 1.21.117 1.91.374.29.128.6.273.89.389l.17.079c2.03.801 3.98 1.399 5.86 1.817.92 2.296 2.05 4.737 3.38 6.893-5.15 1.341-9.72 3.524-13.54 5.856l-.3.184zm43.4-2.636c-.03-.019-.07-.037-.11-.056-.06-.034-.13-.067-.2-.101-.04-.022-.09-.045-.13-.066-.02-.007-.03-.015-.04-.022a47.103 47.103 0 0 0-4.31-1.863c.04-3.819-.03-10.241-.73-15.453.51.309.75.503.75.503 3 1.654 4.46 4.407 5.06 7.326v.053s.51 3.071.15 7.102v.005c-.12.966-.28 1.836-.44 2.572z" fill="url(#k)"/><path d="M137.11 147.661c-2.02-.712-4-1.246-5.95-1.625a8.225 8.225 0 0 0 1.7-5.026c0-1.693-.51-3.269-1.38-4.581a34.674 34.674 0 0 0 3.51-2.365c1.33 2.895 1.9 8.44 2.12 13.597zm-23.97-1.005c-1.33-2.156-2.46-4.597-3.38-6.893 2.28.506 4.46.749 6.53.774-.01.157-.02.314-.02.473 0 1.751.54 3.374 1.47 4.712-1.58.23-3.11.547-4.6.934z" fill="url(#l)"/><path d="M137.91 147.952c-.26-.1-.53-.197-.8-.291-.22-5.157-.79-10.702-2.12-13.597.71-.541 1.38-1.096 2.03-1.66.05.033.1.064.16.095.7 5.212.77 11.634.73 15.453z" fill="url(#m)"/><path d="M131.16 146.036a39.575 39.575 0 0 0-3.9-.564c.03-.032.07-.064.11-.097a.752.752 0 0 0 .2.02c.44 0 .81-.287.84-.667a.65.65 0 0 0-.14-.465c.4-.666.67-1.439.73-2.269a5.153 5.153 0 0 0-1.17-3.73c1.29-.542 2.5-1.161 3.65-1.835a8.266 8.266 0 0 1 1.38 4.581c0 1.889-.63 3.631-1.7 5.026zm-13.42-.314a8.222 8.222 0 0 1-1.47-4.712c0-.159.01-.316.02-.473a29.304 29.304 0 0 0 3.39-.156c.11.236.29.447.51.611l-.03.27c-.13 1.586.48 3.088 1.49 4.082-1.33.063-2.63.193-3.91.378z" fill="url(#n)"/><path d="M127.26 145.472c-.52-.048-1.03-.086-1.53-.114.33-.133.66-.322.96-.56.08.279.34.51.68.577-.04.033-.08.065-.11.097zm-5.61-.128c-1.01-.994-1.62-2.496-1.49-4.082l.03-.27c.27.194.61.324.98.356v.004c-.14 1.803.94 3.334 2.23 3.947-.59.002-1.17.017-1.75.045zm6.62-1.081a.91.91 0 0 0-.74-.348c.38-.555.65-1.227.71-1.98a4.098 4.098 0 0 0-1.29-3.315c.3-.114.59-.233.88-.356.82.978 1.29 2.32 1.17 3.73-.06.83-.33 1.603-.73 2.269z" fill="url(#o)"/><path d="M125.73 145.358c-.73-.04-1.44-.059-2.15-.06h-.05l-.13.001c-1.29-.613-2.37-2.144-2.23-3.947v-.004c.06.005.12.007.17.007.89 0 1.63-.572 1.7-1.338v-.198c1.36-.313 2.67-.719 3.91-1.199.83.777 1.4 1.972 1.29 3.315a4.073 4.073 0 0 1-.71 1.98h-.01c-.44 0-.81.287-.85.667 0 .074.01.146.02.216-.3.238-.63.427-.96.56z" fill="url(#p)"/><path d="M121.34 141.355a1.978 1.978 0 0 1-1.15-.363c-.22-.164-.4-.375-.51-.611a28.3 28.3 0 0 0 3.36-.562v.198c-.07.766-.81 1.338-1.7 1.338z" fill="url(#q)"/><path d="M127.57 145.395l-.09-.003a.752.752 0 0 1-.11-.017c-.34-.067-.6-.298-.68-.577a1.52 1.52 0 0 1-.02-.216c.04-.38.41-.667.85-.667h.01a.91.91 0 0 1 .74.348c.1.134.16.295.14.465-.03.38-.4.667-.84.667z" fill="url(#r)"/><path d="M116.64 140.54a31.878 31.878 0 0 1-6.88-.777 39.061 39.061 0 0 1-5.86-1.817l-.17-.079c-.29-.116-.6-.261-.89-.389-.7-.257-1.34-.374-1.91-.374-.76 0-1.42.208-1.99.57l.09-.459c.2-.676.43-1.353.69-2.042l.01-.029c1.72-3.618 5.5-5.248 8.58-5.984a29.1 29.1 0 0 1 3.13-.517l.1-.006c.92-.083 1.48-.083 1.48-.083a86.268 86.268 0 0 1 5.15-.112c.1.006.19.006.28.012h.32c10.64.216 16.22 2.766 18.25 3.95-.65.564-1.32 1.119-2.03 1.66a34.674 34.674 0 0 1-3.51 2.365 30.796 30.796 0 0 1-4.53 2.191c-1.24.48-2.55.886-3.91 1.199a28.3 28.3 0 0 1-6.4.721z" fill="url(#s)"/><path d="M205.27 161.438c.34-2.891.71-5.44 1.16-7.138.44-1.71.85-3.481 1.22-5.302.25.109.5.219.75.331.17 1.985.47 3.717.84 5.174a23.981 23.981 0 0 1-1.88 3.947c-.12.218-.19.33-.19.33l-.11.176c-.47.747-.99 1.489-1.57 2.218-.07.089-.15.177-.22.264z" fill="#b4c5b1" fill-rule="nonzero"/><path d="M189.99 167.077c-4.08 0-7.77-.803-10.06-1.437-.12-.029-.84-.188-1.89-.582-.31-.106-.48-.171-.48-.171-6.39-2.471-9.41-7.437-10.77-12.256.04-.028.08-.055.13-.083l.21-.133.09-.058c.83-.516 1.65-.999 2.48-1.452 1.82.561 6.49 1.821 11.65 1.821 1.67 0 3.39-.131 5.08-.461 2.94-.573 5.45-3.389 7.47-6.817 5.03.436 9.65 1.785 13.75 3.55-.37 1.821-.78 3.592-1.22 5.302-.45 1.698-.82 4.247-1.16 7.138a11.1 11.1 0 0 1-2.87 2.443c-.87.518-2.05 1.112-3.53 1.642-2.9 1.151-5.99 1.554-8.88 1.554z" fill="#bcd0bb" fill-rule="nonzero"/><path d="M181.35 152.726c-5.16 0-9.83-1.26-11.65-1.821 2.74-1.513 5.43-2.678 8.06-3.544a8.278 8.278 0 0 0 4.4 1.258c2.7 0 5.09-1.289 6.61-3.286.55-.023 1.1-.035 1.64-.035h.05c1.17 0 2.31.052 3.44.15-2.02 3.428-4.53 6.244-7.47 6.817-1.69.33-3.41.461-5.08.461z" fill="#bee4de" fill-rule="nonzero"/><path d="M182.16 148.619c-1.62 0-3.12-.461-4.4-1.258 3.81-1.252 7.49-1.879 11.01-2.028a8.283 8.283 0 0 1-6.61 3.286z" fill="#717363" fill-rule="nonzero"/><path d="M209.24 154.503c-.37-1.457-.67-3.189-.84-5.174.51.227 1 .461 1.49.699.05.026.11.052.16.078l.12.058.09.047c.04.022.09.044.13.066a25.192 25.192 0 0 1-1.15 4.226z" fill="#607e79" fill-rule="nonzero"/><path d="M207.65 148.998c-4.1-1.765-8.72-3.114-13.75-3.55 5.03.436 9.65 1.785 13.75 3.55z" fill="url(#t)"/><path d="M119.24 167.044c-3.8 0-6.86-.695-9.18-1.539l-.02-.006c-3.04-1.218-5.88-3.265-8.1-6.531-.11-.165-.21-.335-.31-.506-.37-.677-1.26-2.419-2.05-4.866-.1-.288-.19-.588-.28-.9l.3-.184c3.82-2.332 8.39-4.515 13.54-5.856 1.97 3.188 4.37 5.751 7.15 6.294 1.69.33 3.41.461 5.08.461 6.64 0 12.47-2.085 12.47-2.085v-.059l.01-.003s.05-1.291.06-3.312c1.42.531 2.86 1.149 4.31 1.863.01.007.02.015.04.022.04.021.09.044.13.066.07.034.14.067.2.101.04.019.08.037.11.056-.19.929-.38 1.63-.5 2.012-.06.206-.1.318-.1.318-1.94 8.184-8.02 11.485-11.16 12.668l-.01.005c-.4.136-1.03.342-1.85.571l-.03.006-.02.006c-3.68 1.008-6.94 1.398-9.79 1.398z" fill="#b5c7b1" fill-rule="nonzero"/><path d="M125.37 153.411c-1.67 0-3.39-.131-5.08-.461-2.78-.543-5.18-3.106-7.15-6.294 1.49-.387 3.02-.703 4.6-.933 1.5 2.163 4 3.581 6.83 3.581a8.26 8.26 0 0 0 6.59-3.268c1.95.379 3.93.914 5.95 1.625.06 1.322.09 2.619.11 3.839.38-.157.57-.219.62-.233v.059s-5.83 2.085-12.47 2.085z" fill="#bee4de" fill-rule="nonzero"/><path d="M137.22 151.5c-.02-1.22-.05-2.517-.11-3.839.27.094.54.191.8.291-.01 2.021-.06 3.312-.06 3.312l-.01.003c-.05.014-.24.076-.62.233z" fill="#b0c3af" fill-rule="nonzero"/><path d="M124.57 149.304a8.299 8.299 0 0 1-6.83-3.581c1.28-.186 2.58-.316 3.91-.379.69.67 1.57 1.11 2.53 1.19.11.009.21.013.32.013 1.01 0 1.98-.403 2.76-1.075 1.28.121 2.58.306 3.9.564a8.26 8.26 0 0 1-6.59 3.268z" fill="#717363" fill-rule="nonzero"/><path d="M124.5 146.547c-.11 0-.21-.004-.32-.013-.96-.08-1.84-.52-2.53-1.19.58-.028 1.16-.043 1.75-.045a2.844 2.844 0 0 0 1.2.285c.37 0 .75-.079 1.13-.226.5.028 1.01.066 1.53.114-.78.672-1.75 1.075-2.76 1.075z" fill="#8d836b" fill-rule="nonzero"/><path d="M124.6 145.584a2.844 2.844 0 0 1-1.2-.285l.13-.001h.05c.71.001 1.42.02 2.15.06-.38.147-.76.226-1.13.226z" fill="#596d63" fill-rule="nonzero"/><path d="M99.3 152.696l.3-.184-.3.184zm43.4-2.636c-.03-.019-.07-.037-.11-.056.04.019.08.037.11.056zm-.31-.157c-.04-.022-.09-.045-.13-.066.04.021.09.044.13.066zm-.17-.088z" fill="url(#u)"/><path d="M137.11 147.661c-2.02-.711-4-1.246-5.95-1.625 0-.001 0 0 0 0 1.95.379 3.93.913 5.95 1.625z" fill="url(#v)"/><path d="M131.16 146.036s0-.001 0 0z" fill="url(#w)"/><path d="M125.73 145.358zm-2.2-.06h.02-.02z" fill="url(#x)"/><path d="M210.81 147.013a27.11 27.11 0 0 1-.53 3.814c-.03.127-.05.252-.08.379-.09.414-.2.833-.31 1.254-.03.094-.06.189-.08.284-.11.372-.23.745-.35 1.119l-.09.248c-.15.451-.33.903-.51 1.356l-.06.138c-.17.398-.36.796-.55 1.194-.06.109-.11.217-.16.326-.22.421-.45.842-.69 1.26l-.04.065c-.11.218-.19.33-.19.33l-.09.145-.02.03c-.08.115-.16.229-.23.344-.41.631-.85 1.258-1.34 1.875-.22.271-.45.532-.68.782-.71.747-1.52 1.399-2.41 1.924-.71.421-1.64.892-2.75 1.34-.25.102-.5.204-.78.303-2.09.828-4.27 1.262-6.4 1.445-5.03.428-9.8-.569-12.54-1.329-.03-.008-.13-.03-.27-.065a15.334 15.334 0 0 1-1.62-.518c-.31-.106-.48-.171-.48-.171l-.12-.05c-.3-.119-.6-.245-.89-.375-.1-.048-.21-.097-.31-.147-.27-.128-.53-.261-.79-.399l-.16-.085c-.31-.167-.6-.341-.88-.52l-.23-.149c-.24-.154-.47-.312-.69-.475l-.16-.111c-.26-.197-.52-.4-.77-.607l-.16-.141c-.21-.179-.41-.361-.6-.547l-.14-.132c-.23-.224-.45-.452-.66-.685l-.1-.109c-.19-.207-.37-.417-.54-.63l-.11-.143c-.2-.248-.39-.499-.57-.754l-.02-.033c-.18-.247-.34-.498-.5-.75l-.08-.128c-.34-.541-.64-1.094-.92-1.654l-.03-.062c-.56-1.172-1-2.374-1.34-3.568l-.01.002c-.51-1.801-.79-3.582-.94-5.205-.26-2.12-.34-4.661.16-7.088 1.36-11.465 21.35-11.886 24.2-11.887.23-.005.47-.009.7-.011 2.51-.091 4.68-.011 6.55.193.85.077 2 .231 3.27.535 7.43 1.686 8.46 5.596 8.54 5.976.3.636.54 1.334.7 2.1 1.01 3.453 1.15 6.791.85 9.767zm-67.67.469v.004a31.164 31.164 0 0 1-.94 4.585l-.04.143c-.04.114-.06.176-.06.176-1.94 8.184-8.02 11.485-11.16 12.668l-.01.006c-.26.09-.64.212-1.1.351a45.7 45.7 0 0 1-.75.218l-.03.007-.02.004a38.884 38.884 0 0 1-7.01 1.274c-5.11.435-9.1-.372-11.96-1.413l-.01-.003-.01-.004a17.822 17.822 0 0 1-3.25-1.702c-1.8-1.189-3.45-2.764-4.85-4.828l-.14-.218a4.294 4.294 0 0 0-.17-.286c-.23-.429-.67-1.278-1.16-2.46-.29-.694-.6-1.502-.89-2.408-.1-.288-.19-.588-.28-.9v.001a30.938 30.938 0 0 1-1.13-5.693c-.35-5.129.71-8.932.71-8.932.04-.295.09-.58.15-.857.2-.676.43-1.356.69-2.039l.01-.033c1.73-3.615 5.5-5.246 8.58-5.983.94-.211 1.98-.387 3.13-.515l.1-.011c.91-.082 1.48-.078 1.48-.078 1.84-.098 3.55-.132 5.16-.112l.27.01.31-.001h.01c13.91.282 19.16 4.55 19.16 4.55 3 1.654 4.46 4.406 5.06 7.325l.01.051s.5 3.071.14 7.103zm76.99-17.082a2.955 2.955 0 0 0-2.12-2.415c-23.26-6.498-41.37-2.69-41.37-2.69-9.7 1.69-13.87 7.293-13.87 7.293-2.76 2.935-8.28 1.69-8.28 1.69s-5.51 1.245-8.27-1.69c0 0-4.18-5.603-13.87-7.293 0 0-18.11-3.808-41.37 2.69a2.98 2.98 0 0 0-2.13 2.415c-.37 2.442-.7 6.488 1.07 7.525 0 0 3.56.711 3.56 5.692 0 0 2.76 16.365 6.05 19.922 0 0 4.45 8.183 19.48 7.738 0 0 20.56.861 24.55-10.495.52-1.501 1.27-3.237 1.86-4.714l3.43-9.867c.36-1.042 1.01-1.974 1.9-2.627.86-.63 2.08-1.137 3.74-1.025 1.67-.111 2.89.396 3.75 1.024.89.654 1.53 1.585 1.9 2.628l3.43 9.867c.59 1.477 1.33 3.212 1.86 4.714 3.99 11.357 24.55 10.495 24.55 10.495 15.03.445 19.48-7.738 19.48-7.738 3.29-3.557 6.05-19.922 6.05-19.922 0-4.981 3.55-5.692 3.55-5.692 1.77-1.037 1.45-5.083 1.07-7.525z" fill="#c92026" fill-rule="nonzero"/><defs><linearGradient id="a" x2="1" gradientUnits="userSpaceOnUse" gradientTransform="rotate(89.695 33.739 154.644) scale(55.30908)"><stop offset="0" stop-color="#eddaca"/><stop offset="1" stop-color="#a3bea5"/></linearGradient><linearGradient id="b" x2="1" gradientUnits="userSpaceOnUse" gradientTransform="rotate(89.695 33.739 154.644) scale(55.30908)"><stop offset="0" stop-color="#f8e7d5"/><stop offset="1" stop-color="#a9c9ad"/></linearGradient><linearGradient id="c" x2="1" gradientUnits="userSpaceOnUse" gradientTransform="rotate(89.695 33.739 154.644) scale(55.30908)"><stop offset="0" stop-color="#fff"/><stop offset="1" stop-color="#acdcd0"/></linearGradient><linearGradient id="d" x2="1" gradientUnits="userSpaceOnUse" gradientTransform="rotate(89.695 33.739 154.644) scale(55.30908)"><stop offset="0" stop-color="#e9d8c9"/><stop offset="1" stop-color="#9fbda3"/></linearGradient><linearGradient id="e" x2="1" gradientUnits="userSpaceOnUse" gradientTransform="rotate(89.695 33.739 154.644) scale(55.30908)"><stop offset="0" stop-color="#987e73"/><stop offset="1" stop-color="#65705c"/></linearGradient><linearGradient id="f" x2="1" gradientUnits="userSpaceOnUse" gradientTransform="rotate(89.695 33.739 154.644) scale(55.30908)"><stop offset="0" stop-color="#b88f7c"/><stop offset="1" stop-color="#808062"/></linearGradient><linearGradient id="g" x2="1" gradientUnits="userSpaceOnUse" gradientTransform="rotate(89.695 33.739 154.644) scale(55.30908)"><stop offset="0" stop-color="#807872"/><stop offset="1" stop-color="#4c6a5c"/></linearGradient><linearGradient id="h" x2="1" gradientUnits="userSpaceOnUse" gradientTransform="rotate(89.695 33.739 154.644) scale(55.30908)"><stop offset="0" stop-color="#fff"/><stop offset="1" stop-color="#acdcd0"/></linearGradient><linearGradient id="i" x2="1" gradientUnits="userSpaceOnUse" gradientTransform="rotate(89.695 33.739 154.644) scale(55.30908)"><stop offset="0" stop-color="#fff"/><stop offset="1" stop-color="#acdcd0"/></linearGradient><linearGradient id="j" x2="1" gradientUnits="userSpaceOnUse" gradientTransform="rotate(89.695 33.739 154.644) scale(55.30908)"><stop offset="0" stop-color="#8c8a8a"/><stop offset="1" stop-color="#507a70"/></linearGradient><linearGradient id="k" x2="1" gradientUnits="userSpaceOnUse" gradientTransform="rotate(89.695 -.277 120.85) scale(55.30908)"><stop offset="0" stop-color="#efddcb"/><stop offset="1" stop-color="#a4c1a5"/></linearGradient><linearGradient id="l" x2="1" gradientUnits="userSpaceOnUse" gradientTransform="rotate(89.695 -.277 120.85) scale(55.30908)"><stop offset="0" stop-color="#fff"/><stop offset="1" stop-color="#acdcd0"/></linearGradient><linearGradient id="m" x2="1" gradientUnits="userSpaceOnUse" gradientTransform="rotate(89.695 -.277 120.85) scale(55.30908)"><stop offset="0" stop-color="#e9d8c9"/><stop offset="1" stop-color="#9fbda3"/></linearGradient><linearGradient id="n" x2="1" gradientUnits="userSpaceOnUse" gradientTransform="rotate(89.695 -.277 120.85) scale(55.30908)"><stop offset="0" stop-color="#987e73"/><stop offset="1" stop-color="#65705c"/></linearGradient><linearGradient id="o" x2="1" gradientUnits="userSpaceOnUse" gradientTransform="rotate(89.695 -.277 120.85) scale(55.30908)"><stop offset="0" stop-color="#b88f7c"/><stop offset="1" stop-color="#808062"/></linearGradient><linearGradient id="p" x2="1" gradientUnits="userSpaceOnUse" gradientTransform="rotate(89.695 -.277 120.85) scale(55.30908)"><stop offset="0" stop-color="#807872"/><stop offset="1" stop-color="#4c6a5c"/></linearGradient><linearGradient id="q" x2="1" gradientUnits="userSpaceOnUse" gradientTransform="rotate(89.695 -.277 120.85) scale(55.30908)"><stop offset="0" stop-color="#fff"/><stop offset="1" stop-color="#acdcd0"/></linearGradient><linearGradient id="r" x2="1" gradientUnits="userSpaceOnUse" gradientTransform="rotate(89.695 -.277 120.85) scale(55.30908)"><stop offset="0" stop-color="#fff"/><stop offset="1" stop-color="#acdcd0"/></linearGradient><linearGradient id="s" x2="1" gradientUnits="userSpaceOnUse" gradientTransform="rotate(89.695 -.277 120.85) scale(55.30908)"><stop offset="0" stop-color="#8c8a8a"/><stop offset="1" stop-color="#507a70"/></linearGradient><linearGradient id="t" x2="1" gradientUnits="userSpaceOnUse" gradientTransform="rotate(89.695 33.739 154.644) scale(55.30908)"><stop offset="0" stop-color="#bddacd"/><stop offset="1" stop-color="#98ccbb"/></linearGradient><linearGradient id="u" x2="1" gradientUnits="userSpaceOnUse" gradientTransform="rotate(89.695 -.277 120.85) scale(55.30908)"><stop offset="0" stop-color="#bad5c9"/><stop offset="1" stop-color="#96c8b7"/></linearGradient><linearGradient id="v" x2="1" gradientUnits="userSpaceOnUse" gradientTransform="rotate(89.695 -.277 120.85) scale(55.30908)"><stop offset="0" stop-color="#bee4de"/><stop offset="1" stop-color="#99d5cb"/></linearGradient><linearGradient id="w" x2="1" gradientUnits="userSpaceOnUse" gradientTransform="rotate(89.695 -.277 120.85) scale(55.30908)"><stop offset="0" stop-color="#97a89c"/><stop offset="1" stop-color="#799e8e"/></linearGradient><linearGradient id="x" x2="1" gradientUnits="userSpaceOnUse" gradientTransform="rotate(89.695 -.277 120.85) scale(55.30908)"><stop offset="0" stop-color="#8aa49d"/><stop offset="1" stop-color="#6b9b8e"/></linearGradient></defs></svg>