<svg viewBox="0 0 300 300" xmlns="http://www.w3.org/2000/svg" fill-rule="evenodd" clip-rule="evenodd" stroke-linejoin="round" stroke-miterlimit="1.414"><g fill-rule="nonzero"><path fill="#b74f6c" d="M.04.275h299.359V299.98H.04z"/><path d="M88.47 105.86c-3.99 8.74-9.4 17.49-8.57 25.74 2.97 28.92-2.25 83.21 10.34 86.78 2.41.7-5.93-57.84-4.07-87.26-.85-8.24 3.57-12.88 7.54-21.63-.43-4.14-.43-4.14-5.24-3.63zm135.69 0c3.99 8.74 9.4 17.49 8.55 25.74-2.97 28.92 2.24 83.21-10.33 86.78-2.4.7 5.94-57.84 4.06-87.26.86-8.24-3.55-12.88-7.54-21.63.42-4.14.42-4.14 5.26-3.63z" fill="#1d130b"/><path d="M89.7 94.344c-4.17 8.306-9.53 16.436-9.53 24.736 0 29.07-9.17 82.55 1.2 87.39 1.99.93 0-58.16 4.16-87.22 0-8.3 4.17-12.44 8.31-20.766 0-4.14 0-4.14-4.14-4.14zm134.07 5.198c4.14 8.328 11.31 16.938 11.31 25.238 0 29.06 9.17 82.53-1.2 87.39-2.01.9 0-58.16-4.17-87.22 0-8.3-4.14-12.46-8.3-20.76 0-4.163 0-4.163 4.16-4.163m-13.26 24.033c4.16 8.33 9.52 16.46 9.52 24.76 0 29.06 9.17 82.53-1.22 87.36-1.99.93 0-58.13-4.14-87.19 0-8.3-4.16-12.46-8.3-20.76 0-4.17 0-4.17 4.14-4.17z" fill="#3e2a12"/><path d="M87.1 136.21c4.16 8.3 9.53 16.45 9.53 24.75 0 29.07 9.16 82.53-1.21 87.37-2.01.92 0-58.13-4.16-87.2 0-8.3-4.16-12.46-8.3-20.76 0-4.16 0-4.16 4.14-4.16z" fill="#3e2a12"/><path d="M221.29 114.56c4.16 8.3 9.52 16.43 9.52 24.76 0 29.06 9.17 82.52-1.22 87.35-1.99.94 0-58.12-4.14-87.19 0-8.32-4.16-12.46-8.31-20.76 0-4.16 0-4.16 4.15-4.16zm-127.94-8.7c-3.99 8.74-9.4 17.49-8.55 25.74 2.97 28.92-2.27 83.21 10.35 86.78 2.41.7-5.96-57.84-4.11-87.26-.84-8.24 3.58-12.88 7.57-21.63-.42-4.14-.42-4.14-5.26-3.63z" fill="#36180c"/><path d="M106.36 136.12c-3.99 8.77-9.42 17.49-8.58 25.75 2.98 28.94-2.23 83.2 10.35 86.78 2.41.69-5.93-57.82-4.07-87.24-.85-8.26 3.55-12.88 7.54-21.65-.43-4.12-.43-4.12-5.24-3.64z" fill="#3e2a12"/><path d="M117.85 136.99c-3.97 8.77-9.4 17.49-8.55 25.75 2.98 28.92-2.24 83.2 10.35 86.77 2.4.7-5.96-57.83-4.08-87.24-.87-8.26 3.55-12.88 7.54-21.65-.42-4.11-.42-4.11-5.26-3.63z" fill="#36180c"/><path d="M214.71 131.37c-3.98 8.75-9.39 17.49-8.55 25.75 2.98 28.92-2.24 83.21 10.33 86.77 2.41.68-5.93-57.83-4.05-87.26-.87-8.25 3.54-12.88 7.54-21.63-.42-4.13-.42-4.13-5.27-3.63z" fill="#83582e"/><path d="M111.73 123.68c-4 8.75-9.4 17.49-8.56 25.75 2.98 28.92-2.26 83.21 10.35 86.78 2.41.69-5.96-57.84-4.1-87.26-.84-8.24 3.57-12.89 7.56-21.63-.42-4.14-.42-4.14-5.25-3.64z" fill="#1d130b"/><path d="M203.02 139.9c-4 8.77-9.4 17.51-8.56 25.75 2.98 28.94-2.24 83.2 10.35 86.8 2.41.67-5.94-57.84-4.08-87.26-.86-8.26 3.55-12.89 7.55-21.65-.43-4.12-.43-4.12-5.26-3.64z" fill="#3e2a12"/><path d="M206.69 136.12c-3.99 8.77-9.42 17.49-8.56 25.75 2.96 28.94-2.25 83.2 10.33 86.78 2.41.69-5.93-57.82-4.07-87.24-.84-8.26 3.57-12.88 7.54-21.65-.42-4.12-.42-4.12-5.24-3.64z" fill="#3e2a12"/><path d="M194.42 144.32c-3.97 8.77-9.4 17.49-8.53 25.75 2.95 28.94-2.26 83.2 10.33 86.79 2.4.68-5.94-57.85-4.08-87.26-.85-8.26 3.57-12.88 7.56-21.65-.44-4.12-.44-4.12-5.28-3.63z" fill="#3e2a12"/><path d="M129.78 144.32c-3.99 8.77-9.4 17.49-8.55 25.75 2.98 28.94-2.24 83.2 10.35 86.79 2.41.68-5.95-57.85-4.08-87.26-.84-8.26 3.57-12.88 7.55-21.65-.43-4.12-.43-4.12-5.27-3.63z" fill="#1d130b"/><path d="M133.4 141.72c-4 8.77-9.4 17.49-8.56 25.75 2.98 28.94-2.24 83.2 10.33 86.77 2.41.7-5.94-57.81-4.08-87.23-.84-8.26 3.57-12.89 7.56-21.65-.41-4.12-.41-4.12-5.25-3.64z" fill="#36180c"/><path d="M140.35 141.72c-4 8.77-9.4 17.49-8.58 25.75 3 28.94-2.22 83.2 10.35 86.77 2.41.7-5.93-57.81-4.08-87.23-.84-8.26 3.57-12.89 7.56-21.65-.42-4.12-.42-4.12-5.25-3.64z" fill="#3e2a12"/><path d="M181.11 141.72c-3.99 8.77-9.4 17.49-8.55 25.75 2.98 28.94-2.24 83.2 10.33 86.77 2.42.7-5.94-57.81-4.08-87.23-.85-8.26 3.57-12.89 7.56-21.65-.42-4.12-.42-4.12-5.26-3.64z" fill="#1d130b"/><path d="M188.1 141.72c-3.97 8.77-9.4 17.49-8.53 25.75 2.96 28.94-2.26 83.2 10.33 86.77 2.41.7-5.94-57.81-4.08-87.23-.84-8.26 3.57-12.89 7.56-21.65-.44-4.12-.44-4.12-5.28-3.64z" fill="#3e2a12"/><path d="M220.57 120.71c-3.97 8.76-9.4 17.48-8.54 25.74 2.96 28.92-2.26 83.21 10.33 86.77 2.41.7-5.93-57.83-4.07-87.23-.85-8.26 3.57-12.89 7.56-21.65-.44-4.12-.44-4.12-5.28-3.63z" fill="#36180c"/><path d="M96.88 120.79c3.1 24.92-4.35 45.41-9.32 70.61-2.85 14.37 0 37.37 12.42 41.51-9.32-16.6-9.32-33.2-3.1-49.83 6.21-16.6 0-37.37 6.21-58.13 0-4.16-3.11-4.16-6.21-4.16z" fill="#83582e"/><path d="M210.64 128.88c3.1 24.92-4.77 45.33-9.31 70.61-3.3 18.32 0 37.37 12.41 41.53-9.31-16.62-9.31-33.22-3.1-49.83 6.23-16.62 0-37.39 6.23-58.15 0-4.16-3.13-4.16-6.23-4.16z" fill="#1d130b"/><path d="M195.11 147.15c3.11 24.93-4.87 45.31-9.31 70.59-2.21 12.51 0 37.37 12.42 41.53-9.31-16.6-9.31-33.23-3.11-49.83 6.22-16.6 0-37.36 6.22-58.15 0-4.14-3.11-4.14-6.22-4.14z" fill="#36180c"/><path d="M220.8 100.049c-3.11 24.901 4.79 45.311 9.31 70.591 2.56 14.32 0 37.36-12.42 41.53 9.32-16.63 9.32-33.23 3.11-49.83-6.21-16.63 0-37.39-6.21-58.15 0-4.141 3.1-4.141 6.21-4.141zM115.42 141.83c-3.1 24.9 3.46 45.58 9.34 70.59 3.34 14.28 0 37.37-12.44 41.53 9.33-16.63 9.33-33.23 3.1-49.83-6.21-16.62 0-37.39-6.21-58.15 0-4.14 3.11-4.14 6.21-4.14z" fill="#83582e"/><path d="M224.43 132.51c-1.24 1.21-5.47 1.25-9.42 9.17-2.43 4.86-4.29 5.32-4.29 5.32s3.06-19.81 3.06-25.32c0-5.49-17.57-46.258-27.35-49.555-9.84-3.231-18.64 7.731-29.21 7.731h-.82c-10.33-.213-19.52-10.922-29.19-7.731-9.8 3.297-27.36 44.065-27.36 49.555 0 5.51 3.07 25.32 3.07 25.32s-3.09-1.28-5.39-6.19c-3.99-8.47-6.91-7.15-8.3-8.36-2.62-34.342 5.56-80.369 67.08-80.369h.34c61.87 0 70.49 46.085 67.78 80.429z" fill="#3e2a12"/><path d="M156.78 187.35v112.62H96.07c-.99-.39-1.48-.59-1.48-.59 0-7.9.63-14.84 1.72-20.93.93-5 2.14-9.46 3.58-13.39 3.21-8.77 7.51-15.04 11.94-19.55 3.93-3.99 7.96-6.58 11.36-8.23 1.11-.55 2.16-1 3.12-1.35.33-.13.64-.25.95-.35.37-.13.7-.23 1.03-.33 2.14-.68 3.45-.83 3.45-.83.23 0 .44-.02.66-.06 1.92-.31 3.46-1.97 4.71-4.63.93-1.97 1.71-4.5 2.33-7.4.25-1.16.45-2.29.66-3.54.28-2.08.57-4.26.84-6.55.08-1.37.23-2.71.39-4.15.54-6.89.68-14.44.68-21.58 0 0 8.17.84 14.77.84z" fill="#e0bd9a"/><path d="M219.25 299.38s-.54.2-1.44.59h-61.03V187.35h.17c6.56 0 14.81-.84 14.81-.84 0 7.09.14 14.52.7 21.43.14 1.34.29 2.72.39 4.06.25 2.38.54 4.61.89 6.71v.04c.1.94.28 1.79.45 2.67.6 2.92 1.32 5.51 2.2 7.57 1.09 2.57 2.43 4.36 4.03 5.08.52.23 1.05.35 1.63.35 0 0 1.93.23 4.94 1.32.28.1.57.21.88.33.17.06.33.12.49.21.44.16.87.37 1.32.57 3.13 1.42 6.89 3.66 10.68 7.12v.02c4.98 4.55 9.98 11.23 13.58 21.07 1.4 3.81 2.59 8.11 3.5 12.9 1.15 6.21 1.81 13.31 1.81 21.42z" fill="#efd0ad"/><path d="M173.93 218.49v.05c-1.53 2.37-6.67 9.17-16.85 9.17h-.1c-9.63-.05-15.27-7.05-16.7-9.12.3-2.07.59-4.24.84-6.5.1-1.33.25-2.71.4-4.14 4.69 1.18 9.83 1.92 15.26 2.02h.2c5.64-.1 10.82-.89 15.67-2.17.14 1.33.29 2.71.39 4.04.25 2.37.55 4.58.89 6.65z" fill="#be987f"/><path d="M156.29 59.017c-64.34 0-64.68 53.943-61.82 89.273-4.39-8.38-17.49-5.82-16.4 7.39 1.04 12.71 19.74 19.19 19.22 17.78 9.74 26.13 35.53 45.82 59 45.82h.49V59.017h-.49z" fill="#d2a686"/><path d="M82.17 150.11c3.16-5.12 8.1-2.91 9.29-1.77 1.29 1.23 2.32 2.81 1.53 5.81-.44 1.72-2.22 1.87-1.83 4.43.5 2.91 1.83 3.06 2.62 3.75.74.64 1.68 1.13 2.13 2.36.49 1.24.54 2.52.29 3.65-.49 2.07-3.5.39-5.53-.49-1.33-.64-5.58-4.24-6.67-5.42-2.67-3.06-3.95-8.97-1.83-12.32z" fill="#ac8774"/><path d="M156.64 59.017c64.33 0 64.68 53.943 61.86 89.273 4.4-8.38 17.45-5.82 16.36 7.39-.99 12.71-19.74 19.19-19.22 17.78-9.49 26.13-35.53 45.82-59 45.82h-.35l-.15-160.263h.5z" fill="#ddb598"/><path d="M230.76 150.11c-3.17-5.12-8.06-2.91-9.29-1.77-1.29 1.23-2.28 2.81-1.53 5.81.44 1.72 2.22 1.87 1.82 4.43-.49 2.91-1.82 3.06-2.57 3.75-.74.64-1.73 1.13-2.17 2.36-.45 1.24-.54 2.52-.3 3.65.5 2.07 3.51.39 5.54-.49 1.38-.64 5.58-4.24 6.67-5.42 2.72-3.06 3.95-8.97 1.83-12.32z" fill="#ac8774"/><path d="M155.78 74.24c-21.14 0-36.66 6.158-46 18.278-13.09 17.002-12.6 42.912-7.81 61.532 1.49 5.72 2.28 21.04 3.26 26.66 4.6 25.17 32.32 38.57 50.55 38.57h.5V74.24h-.5z" fill="#e0bd9a"/><path d="M201.74 92.567c-9.29-12.07-24.61-18.229-45.46-18.327v145.04c20.85-.24 45.8-14.93 50.05-38.57 1.04-5.62 1.78-20.94 3.27-26.66 4.84-18.57 5.33-44.44-7.86-61.483z" fill="#efd0ad"/><path d="M152.9 193.57l-.3-.06c.1.02.19.04.3.06zm-.78-.18c-.09-.02-.18-.05-.27-.07h-.01s.1.03.28.07z" fill="#bc917b"/><path d="M144.28 174.75c-.25-5.01 9.17-1.83 12.28-1.67 2.45.13 9.92-1.58 10.56-1.14 4.4 2.97-4.65 8.96-10.72 8.96-1.61 0-11.98-3.12-12.12-6.15z" fill="#ddb598"/><path d="M138.32 74.602l-.27.268.04.09c.09-.135.14-.269.23-.358z" fill="#432e1b"/><path d="M153.08 190.63c-.1-.02-.21-.05-.31-.07.1.02.19.04.31.07zm-.81-.18c-.09-.03-.18-.06-.27-.08h-.01s.1.03.28.08z" fill="#ba907b"/><path d="M110.13 130.85s4.9 20.2 13.33 21.85c8.43 1.64 17.55-1.63 17.55-1.63s.87-23.74-3.45-26.84c-4.31-3.12-14.25-7.62-27.43 6.62z" fill="#fff"/><path d="M141.02 151.01s-.2.05-.63.23c-.11-7.28-.78-17.28-3.47-19.19-4.01-2.95-13.05-7.09-25.14 4.24-1.1-3.13-1.65-5.5-1.65-5.5 13.21-14.27 23.16-9.77 27.44-6.66 4.32 3.12 3.45 26.88 3.45 26.88z" fill="#d6b496"/><path d="M136.03 140.72c0 4.6-3.71 8.32-8.3 8.32-4.58 0-8.29-3.72-8.29-8.32 0-4.59 3.71-8.32 8.29-8.32 4.59 0 8.3 3.73 8.3 8.32z" fill="#482315"/><path d="M127.35 146.26c-2.4-.2-4.23-2.62-4.02-5.29.22-2.66 2.43-4.75 4.82-4.55 2.4.2 4.23 2.62 4.02 5.29-.22 2.66-2.43 4.75-4.82 4.55z" fill="#7e3a22"/><path d="M127.56 145.3c-1.67-.14-3.4-1.98-3.22-4.24.19-2.26 2.19-3.79 3.86-3.66 1.67.15 3.39 1.99 3.21 4.25-.18 2.26-2.19 3.79-3.85 3.65z" fill="#211a10"/><path d="M126.21 139.72c-.07.82-.91 1.42-1.87 1.34-.96-.08-1.68-.81-1.61-1.62.07-.83.9-1.42 1.85-1.34.97.07 1.69.8 1.63 1.62zm5.37 4.73c-.03.41-.45.71-.93.67-.48-.04-.84-.41-.81-.82.04-.4.46-.7.93-.66.48.04.85.4.81.81z" fill="#fff"/><path d="M153.21 193.01c-.1-.02-.21-.04-.31-.07.1.03.19.05.31.07zm-.8-.18c-.1-.03-.19-.05-.28-.08l-.01.01s.11.03.29.07z" fill="#ba907b"/><path d="M152.83 192.44c-.11-.02-.22-.05-.33-.07.11.02.21.04.33.07zm-.86-.19l-.3-.09-.01.01.31.08zm.62-.66zm-.87-.19c-.1-.03-.19-.05-.29-.08h-.02l.31.08zm1.64.08c-.11-.02-.22-.04-.33-.07.11.02.2.04.33.07zm-.84-.19c-.1-.02-.19-.05-.29-.08l-.01.01s.11.03.3.07z" fill="#bc917b"/><path d="M202.94 130.16s-4.91 20.2-13.34 21.85c-8.43 1.65-17.55-1.63-17.55-1.63s-.87-23.74 3.45-26.84c4.31-3.11 14.25-7.61 27.44 6.62z" fill="#fff"/><path d="M172.04 150.32s.2.05.63.24c.11-7.28.78-17.28 3.47-19.2 4.01-2.94 13.05-7.08 25.14 4.24 1.1-3.13 1.65-5.5 1.65-5.5-13.21-14.26-23.16-9.77-27.44-6.65-4.32 3.11-3.45 26.87-3.45 26.87z" fill="#d6b496"/><path d="M177.03 140.03c0 4.6 3.72 8.32 8.3 8.32s8.29-3.72 8.29-8.32c0-4.59-3.71-8.32-8.29-8.32-4.58 0-8.3 3.73-8.3 8.32z" fill="#482315"/><path d="M185.71 145.57c2.4-.19 4.24-2.62 4.02-5.28-.22-2.67-2.42-4.76-4.82-4.55-2.4.19-4.23 2.62-4.02 5.28.22 2.67 2.43 4.76 4.82 4.55z" fill="#7e3a22"/><path d="M185.5 144.61c1.67-.14 3.4-1.97 3.22-4.23-.19-2.27-2.19-3.8-3.86-3.66-1.67.14-3.39 1.98-3.21 4.24.19 2.26 2.19 3.79 3.85 3.65z" fill="#211a10"/><path d="M186.85 139.04c.07.81.91 1.41 1.87 1.33.96-.08 1.68-.81 1.62-1.62-.07-.82-.9-1.42-1.86-1.34-.97.08-1.69.81-1.63 1.63zm-5.37 4.72c.03.41.45.71.93.67.48-.04.84-.41.81-.81-.04-.41-.45-.71-.93-.67-.48.04-.85.4-.81.81z" fill="#fff"/><path d="M146.07 130.53c-.07-.1-1.6-2.43-4.72-4.84-1.96-1.5-3.88-2.65-5.87-3.51a30.095 30.095 0 0 0-7.55-2.08c-2.29-.26-4.82-.19-7.77.21-2.25.43-4.45 1.1-6.32 1.93-1.33.46-2.38 1.1-3.23 1.62-.32.2-.61.38-.91.54l-4.03 2.54 4.64-1.09c.22-.06.45-.12.7-.19.96-.25 2.16-.57 3.56-.78.33-.04.66-.11 1-.18.58-.11 1.19-.24 1.82-.27.7-.04 1.43-.1 2.18-.15l.97-.07c2.57-.03 4.74.16 6.67.61 2.11.36 4.27 1.05 6.26 1.97 1.87.9 3.67 1.79 5.08 2.82 2.83 1.9 4.41 3.48 4.42 3.5.39.39.91.6 1.43.6.38 0 .77-.11 1.1-.33.93-.62 1.2-1.88.6-2.79l-.03-.06zm57.69-6.15c-.26-.14-.56-.32-.88-.52-.84-.52-1.89-1.16-3.19-1.61-1.9-.84-4.1-1.51-6.38-1.95-2.93-.39-5.46-.46-7.75-.2-2.52.34-5.12 1.06-7.55 2.09-1.96.84-3.93 2.02-5.86 3.5-3.07 2.36-4.6 4.65-4.71 4.83l-.03.04c-.52.8-.41 1.87.26 2.55.38.39.89.6 1.43.6.54 0 1.04-.22 1.42-.6l.02-.02c.15-.15 1.68-1.65 4.43-3.49 1.38-1.02 3.18-1.91 5.05-2.81 1.99-.92 4.16-1.61 6.29-1.98 1.9-.44 4.08-.63 6.61-.6l1.02.07c.75.06 1.47.11 2.18.16.62.02 1.22.15 1.81.26.34.07.67.14 1 .18 1.4.21 2.59.53 3.55.78.25.07.49.13.71.19l4.63 1.09-4.06-2.56z" fill="#030405"/><path d="M151.75 195.4c-.1-.02-.21-.04-.32-.07.11.03.2.05.32.07zm-.84-.19c-.1-.02-.19-.05-.29-.08l-.01.01s.11.03.3.07z" fill="#be927b"/><path d="M144.39 199.57c-.24-3.25 9.02.68 12.06.77 2.42.08 9.71-.48 10.38-.74 5.1-1.91-.27 5.43-10.53 5.82-4.7.19-11.77-3.88-11.91-5.85z" fill="#f0d2ad"/><path d="M174.54 193.31c-2.52-.13-5.1 1.97-8.12 1.65-.13-.06-.19-.06-.32-.06-.69-.12-1.38 0-2.13.19-.94.19-1.89.58-2.78.89-1.51.49-3.21.88-4.96.75v.01l-.1-.01-.1.01v-.01c-1.75.13-3.45-.26-4.96-.75-.89-.31-1.84-.7-2.78-.89-.75-.19-1.44-.31-2.13-.19-.13 0-.2 0-.32.06-3.02.32-5.6-1.78-8.12-1.65-.69.06-1.7-.13-2.26-.13.12.07.25.13.38.19 7.16 3.5 13.35 10.07 20.19 9.86h.2c6.84.21 13.03-6.36 20.19-9.86.13-.06.26-.12.38-.19-.56 0-1.57.19-2.26.13z" fill="#dcbf9e"/><path d="M176.64 193.11s-7.28-2.82-12.47-1.17c0 0-1.93.76-3.92 1.22-1.22.47-2.69.61-4.12.55-1.09-.04-2.13-.18-2.98-.33-.28-.04-.56-.1-.85-.16a6.72 6.72 0 0 0-.33-.07c-.17-.04-.34-.07-.51-.12l-.3-.08h.01c-1.66-.45-3.08-1.01-3.08-1.01-5.19-1.65-12.47 1.17-12.47 1.17-.1.04-.16.07-.16.07.56 0 1.57.19 2.26.13 2.52-.13 5.1 1.97 8.12 1.65.12-.06.19-.06.32-.06.69-.12 1.38 0 2.13.19.94.19 1.89.58 2.78.89 1.51.49 3.21.88 4.96.75v.01l.1-.01.1.01v-.01c1.75.13 3.45-.26 4.96-.75.89-.31 1.84-.7 2.78-.89.75-.19 1.44-.31 2.13-.19.13 0 .19 0 .32.06 3.02.32 5.6-1.78 8.12-1.65.69.06 1.7-.13 2.26-.13 0 0-.06-.03-.16-.07z" fill="#c69f83"/><path d="M143.89 194.82c.13.03 13.66 4.16 24.23.09l-1.22-.82h-14.29l-8.72.73z" fill="#c69f83"/><path d="M219.25 299.38s-.54.2-1.44.59H96.07c-.99-.39-1.48-.59-1.48-.59 0-7.9.63-14.84 1.72-20.93.93-5 2.14-9.46 3.58-13.39 3.21-8.77 7.51-15.04 11.94-19.55.22 1.88.7 4.94 1.38 6.09 1.93 3.25 5.63 6.53 9.98 9.49v-23.81c1.11-.55 2.16-1 3.12-1.35 2.22 10.59 9.36 32.91 30.47 37.34l.21.04c22.67-2.02 28.49-26.46 30-37.57.28.1.57.21.88.33.17.06.33.12.49.21.44.16.87.37 1.32.57v23.23c3.68-2.7 6.81-5.6 8.5-8.48 1.07-1.77 1.54-5.02 2.22-7.44l-.04-.17c4.98 4.55 9.98 11.23 13.58 21.07 1.4 3.81 2.59 8.11 3.5 12.9 1.15 6.21 1.81 13.31 1.81 21.42z" fill="#fff"/><path d="M219.58 84.377c-6.27-15.46-19.23-21.99-39.69-31.368-9.1-4.161-15.3-5.166-21.6-4.51-6.29-.656-12.51.349-21.6 4.51-20.46 9.378-37.55 15.958-43.82 31.418-6.27 15.46-3.41 43.033-3.41 47.713s.57 13.07 1.38 14.95c.83 1.87 4.9 3.3 7 8.92 2.07 5.62 2.89 4.66 2.89 4.66s-.85-5.61-1.69-11.94c0 0 13.84-55.516 37.03-40.57 4.34 4.53 10.73 7.77 18.13 8.81 1.34.18 2.7.28 4.09.32 1.39-.04 2.76-.14 4.09-.32 7.41-1.04 13.8-4.28 18.13-8.81 23.19-14.946 37.03 40.56 37.03 40.56-.83 6.34-1.69 11.95-1.69 11.95s.82.96 2.9-4.66c2.09-5.62 6.16-7.05 6.99-8.92.81-1.88 1.38-10.27 1.38-14.95s-1.27-32.303-7.54-47.763z" fill="#36180c"/><path d="M101.01 150.5c-.5-1.61-.85-3.26-1.09-4.95.05-.19.11-.39.17-.6.3 1.89.65 3.73 1.03 5.51-.03.02-.07.03-.11.04z" fill="#766359"/><path d="M101.12 150.46c-.38-1.78-.73-3.62-1.03-5.51 1.11-3.72 3.08-9.76 5.82-16 1.13-.56 2.38-.98 3.73-1.29 1.55-.36 3.11-.65 4.66-.87a44.883 44.883 0 0 0-4.17 4s.01.01.01.04c0 .01-.01.01-.01.02 0 0 2.32 9.58 6.53 16.08-5.57.71-10.8 1.99-15.54 3.53zm44.84-1.02a61.51 61.51 0 0 0-4.88-1.36c.05-4.11-.02-11.74-.95-17.35 1.83 1.36 2.83 2.37 2.84 2.38.39.39.91.6 1.43.6.38 0 .77-.11 1.1-.33.14-.09.26-.2.37-.31a9.473 9.473 0 0 1 1.76 4.08c.63 3.6.06 7.1-1.06 10.51-.19.6-.4 1.19-.61 1.78z" fill="#7b6c60"/><path d="M140.3 147.91c-2.31-.52-4.6-.89-6.86-1.15a8.315 8.315 0 0 0 2.59-6.04c0-4.59-3.71-8.32-8.3-8.32-4.58 0-8.29 3.73-8.29 8.32 0 2.23.87 4.25 2.29 5.74-1.72.1-3.41.26-5.07.47-4.21-6.5-6.53-16.08-6.53-16.08 0-.01.01-.01.01-.02.08.34.63 2.58 1.64 5.46 6.07-5.68 11.36-7.47 15.65-7.47 4.25 0 7.49 1.76 9.49 3.23 2.3 1.63 3.12 9.16 3.38 15.86z" fill="#858285"/><path d="M141.08 148.08c-.26-.06-.52-.12-.78-.17-.26-6.7-1.08-14.23-3.38-15.86-2-1.47-5.24-3.23-9.49-3.23-4.29 0-9.58 1.79-15.65 7.47-1.01-2.88-1.56-5.12-1.64-5.46 0-.03-.01-.04-.01-.04 1.43-1.55 2.82-2.87 4.17-4 3.02-.44 6.04-.63 9.08-.63 2.67 0 5.35.15 8.04.43.73.07 1.47.16 2.2.27 1.82.88 3.56 1.75 4.93 2.75.58.39 1.1.77 1.58 1.12.93 5.61 1 13.24.95 17.35z" fill="#77685f"/><path d="M133.44 146.76a69.14 69.14 0 0 0-7.54-.42h-.05c-1.39 0-2.76.04-4.12.12a8.287 8.287 0 0 1-2.29-5.74c0-4.59 3.71-8.32 8.29-8.32 4.59 0 8.3 3.73 8.3 8.32 0 2.38-1 4.53-2.59 6.04zm-10.08-6.06l-.03.27c-.21 2.67 1.62 5.09 4.02 5.29.11.01.21.01.32.01 1.06 0 2.07-.44 2.87-1.17.03.01.07.01.11.02h.09c.44 0 .81-.29.84-.67a.672.672 0 0 0-.14-.47c.4-.66.66-1.44.73-2.27.21-2.67-1.62-5.09-4.02-5.29-.1-.01-.21-.01-.32-.01-1.29 0-2.5.65-3.34 1.68h-.08c-.88 0-1.62.57-1.68 1.35-.04.49.21.96.63 1.26z" fill="#35201a"/><path d="M127.67 146.27c-.11 0-.21 0-.32-.01-2.4-.2-4.23-2.62-4.02-5.29l.03-.27c.27.2.61.33.98.36-.18 2.26 1.55 4.1 3.22 4.24.07.01.14.01.21.01.7 0 1.46-.29 2.09-.79.08.28.34.51.68.58-.8.73-1.81 1.17-2.87 1.17zm3.77-2.29c-.14-.19-.39-.32-.67-.34-.02 0-.05-.01-.07-.01.38-.55.65-1.23.71-1.98.18-2.26-1.54-4.1-3.21-4.25h-.21c-.83 0-1.72.39-2.41 1.06-.27-.2-.62-.33-1-.36-.03-.01-.06-.01-.09-.01.84-1.03 2.05-1.68 3.34-1.68.11 0 .22 0 .32.01 2.4.2 4.23 2.62 4.02 5.29-.07.83-.33 1.61-.73 2.27z" fill="#512f24"/><path d="M127.77 145.31c-.07 0-.14 0-.21-.01-1.67-.14-3.4-1.98-3.22-4.24.06 0 .12.01.17.01.89 0 1.63-.58 1.7-1.35.04-.49-.21-.96-.63-1.26.69-.67 1.58-1.06 2.41-1.06h.21c1.67.15 3.39 1.99 3.21 4.25-.06.75-.33 1.43-.71 1.98h-.01c-.44 0-.81.29-.85.67 0 .08 0 .15.02.22-.63.5-1.39.79-2.09.79z" fill="#1d1916"/><path d="M124.51 141.07c-.05 0-.11-.01-.17-.01-.37-.03-.71-.16-.98-.36-.42-.3-.67-.77-.63-1.26.06-.78.8-1.35 1.68-1.35h.08c.03 0 .06 0 .09.01.38.03.73.16 1 .36.42.3.67.77.63 1.26-.07.77-.81 1.35-1.7 1.35zm6.23 4.05h-.09c-.04-.01-.08-.01-.11-.02-.34-.07-.6-.3-.68-.58-.02-.07-.02-.14-.02-.22.04-.38.41-.67.85-.67h.01c.02 0 .05.01.07.01.28.02.53.15.67.34.1.14.16.3.14.47-.03.38-.4.67-.84.67z" fill="#858285"/><path d="M144.4 133.71c-.52 0-1.04-.21-1.43-.6-.01-.01-1.01-1.02-2.84-2.38-.48-.35-1-.73-1.58-1.12-1.37-1-3.11-1.87-4.93-2.75 3.07.46 6.04 1.27 8.7 3.01 1.41.91 2.62 1.95 3.55 3.2-.11.11-.23.22-.37.31-.33.22-.72.33-1.1.33z" fill="#090b0c"/><path d="M99.92 145.55a43.94 43.94 0 0 1-.37-4.17c-.06-.86-.03-1.72.06-2.52.02-.5.09-1 .22-1.47.13-.67.29-1.26.41-1.7.02-.15.07-.31.13-.49l.09-.22c.03-.1.05-.16.05-.16h.01c1.09-2.79 2.96-4.65 5.39-5.87-2.74 6.24-4.71 12.28-5.82 16-.06.21-.12.41-.17.6z" fill="#2a1914"/><path d="M213.15 151.82a3.25 3.25 0 0 1-.17-.06c-.09-.03-.18-.06-.26-.1-.07-.02-.14-.05-.21-.07a.488.488 0 0 0-.07-.03c-.67-.25-1.36-.49-2.07-.73 1.2-5.33 2.02-11.16 2.27-17.13.95 2.43 1.76 4.73 2.44 6.78 0 .3-.01.6-.03.9-.15 3.63-.69 7.14-1.9 10.44z" fill="#7a6960"/><path d="M210.37 150.83c-4.46-1.51-9.38-2.81-14.62-3.61 4.61-6.47 7.19-17.06 7.19-17.06-.01 0-.02-.01-.02-.02.01-.03.01-.04.01-.04a48.48 48.48 0 0 0-3.51-3.43c1.85.24 3.7.56 5.54.99 2.61.6 4.84 1.62 6.55 3.26.4.94.77 1.87 1.13 2.78-.25 5.97-1.07 11.8-2.27 17.13zm-42.12-2.49c-.07-.23-.15-.45-.22-.68-1.12-3.41-1.69-6.91-1.06-10.51.24-1.35.73-2.53 1.41-3.58.22.09.47.14.72.14.54 0 1.04-.22 1.42-.6l.02-.02c.1-.1.86-.84 2.22-1.9-.77 5.53-.82 12.51-.78 16.32-1.23.24-2.48.51-3.73.83z" fill="#807368"/><path d="M172.75 147.37c.25-6.73 1.08-14.36 3.39-16.01 2-1.47 5.25-3.23 9.5-3.23 4.28 0 9.58 1.79 15.64 7.47 1.01-2.88 1.56-5.11 1.64-5.46 0 .01.01.02.02.02 0 0-2.58 10.59-7.19 17.06a75.11 75.11 0 0 0-5.32-.63 8.31 8.31 0 0 0 3.19-6.56c0-4.59-3.71-8.32-8.29-8.32-4.58 0-8.3 3.73-8.3 8.32 0 2.61 1.19 4.93 3.06 6.46-2.42.15-4.86.44-7.34.88z" fill="#858285"/><path d="M171.98 147.51c-.04-3.81.01-10.79.78-16.32.61-.47 1.35-1.01 2.21-1.59 1.19-.88 2.69-1.66 4.29-2.44 1.29-.26 2.6-.44 3.92-.57 2.69-.28 5.37-.43 8.04-.43 2.74 0 5.48.16 8.2.51 1.14 1 2.31 2.14 3.51 3.43 0 0 0 .01-.01.04-.08.35-.63 2.58-1.64 5.46-6.06-5.68-11.36-7.47-15.64-7.47-4.25 0-7.5 1.76-9.5 3.23-2.31 1.65-3.14 9.28-3.39 16.01-.25.05-.51.09-.77.14z" fill="#77685f"/><path d="M190.43 146.59c-1.93-.16-3.9-.25-5.89-.25h-.04c-1.46 0-2.93.05-4.41.15a8.314 8.314 0 0 1-3.06-6.46c0-4.59 3.72-8.32 8.3-8.32s8.29 3.73 8.29 8.32a8.31 8.31 0 0 1-3.19 6.56zm-7.9-2.18c.79.73 1.8 1.18 2.86 1.18.11 0 .21-.01.32-.02 2.4-.19 4.24-2.62 4.02-5.28-.01-.1-.02-.19-.03-.27.42-.31.68-.78.64-1.27-.07-.77-.81-1.35-1.69-1.35h-.08c-.84-1.03-2.05-1.68-3.34-1.68-.11 0-.21.01-.32.02-2.4.19-4.23 2.62-4.02 5.28.07.83.33 1.61.73 2.28-.1.13-.16.29-.14.46.03.38.4.67.84.67h.09c.04 0 .08-.01.12-.02z" fill="#35201a"/><path d="M185.39 145.59c-1.06 0-2.07-.45-2.86-1.18.33-.07.59-.3.67-.58.63.51 1.39.79 2.09.79.07 0 .14 0 .21-.01 1.67-.14 3.4-1.97 3.22-4.23v-.01c.37-.03.71-.16.98-.35.01.08.02.17.03.27.22 2.66-1.62 5.09-4.02 5.28-.11.01-.21.02-.32.02zm-3.77-2.29c-.4-.67-.66-1.45-.73-2.28-.21-2.66 1.62-5.09 4.02-5.28.11-.01.21-.02.32-.02 1.29 0 2.5.65 3.34 1.68-.03 0-.06.01-.09.01-.38.03-.73.16-1 .36-.69-.67-1.58-1.06-2.41-1.06-.07 0-.14 0-.21.01-1.67.14-3.39 1.98-3.21 4.24.06.76.33 1.43.71 1.99h-.07c-.28.02-.52.16-.67.35z" fill="#512f24"/><path d="M185.29 144.62c-.7 0-1.46-.28-2.09-.79.02-.07.02-.14.02-.21-.03-.39-.4-.67-.84-.67h-.02c-.38-.56-.65-1.23-.71-1.99-.18-2.26 1.54-4.1 3.21-4.24.07-.01.14-.01.21-.01.83 0 1.72.39 2.41 1.06-.41.31-.66.77-.63 1.27.07.77.81 1.34 1.7 1.34.05 0 .11 0 .17-.01v.01c.18 2.26-1.55 4.09-3.22 4.23-.07.01-.14.01-.21.01z" fill="#1d1916"/><path d="M188.55 140.38c-.89 0-1.63-.57-1.7-1.34-.03-.5.22-.96.63-1.27.27-.2.62-.33 1-.36.03 0 .06-.01.09-.01h.08c.88 0 1.62.58 1.69 1.35.04.49-.22.96-.64 1.27-.27.19-.61.32-.98.35-.06.01-.12.01-.17.01zm-6.23 4.05c-.44 0-.81-.29-.84-.67-.02-.17.04-.33.14-.46.15-.19.39-.33.67-.35h.09c.44 0 .81.28.84.67 0 .07 0 .14-.02.21-.08.28-.34.51-.67.58-.04.01-.08.02-.12.02h-.09z" fill="#858285"/><path d="M169.1 133.71c-.25 0-.5-.05-.72-.14.96-1.47 2.31-2.67 3.9-3.7 2.16-1.41 4.52-2.21 6.98-2.71-1.6.78-3.1 1.56-4.29 2.44-.86.58-1.6 1.12-2.21 1.59-1.36 1.06-2.12 1.8-2.22 1.9l-.02.02c-.38.38-.88.6-1.42.6z" fill="#090b0c"/><path d="M215.08 140.48c-.68-2.05-1.49-4.35-2.44-6.78-.36-.91-.73-1.84-1.13-2.78 1.09 1.03 1.95 2.32 2.57 3.9h.01s.02.06.05.16l.09.22c.06.18.11.34.13.49.12.44.27 1.03.41 1.7.13.47.2.97.22 1.47.06.52.09 1.06.09 1.62z" fill="#2a1914"/><path d="M101.38 151.62c-.13-.37-.25-.75-.37-1.12.04-.01.08-.02.11-.04.09.39.17.78.26 1.16z" fill="#ada19a"/><path d="M121.85 166.53c-6.47 0-12.05-2.27-16.34-7.54-1.86-2.3-3.2-4.77-4.13-7.37-.09-.38-.17-.77-.26-1.16 4.74-1.54 9.97-2.82 15.54-3.53 1.9 2.94 4.18 5.25 6.8 5.77 1.69.33 3.41.46 5.08.46 6.64 0 12.47-2.09 12.47-2.09v-.06h.01s.04-1.13.06-2.93c1.62.38 3.25.83 4.88 1.36-1.74 4.77-4.19 9.12-8.53 12.3-3.76 2.75-8.04 4.2-12.67 4.65-.99.1-1.96.14-2.91.14z" fill="#b0a6a0"/><path d="M128.54 153.16c-1.67 0-3.39-.13-5.08-.46-2.62-.52-4.9-2.83-6.8-5.77 1.66-.21 3.35-.37 5.07-.47a8.25 8.25 0 0 0 6 2.58c2.21 0 4.22-.87 5.71-2.28 2.26.26 4.55.63 6.86 1.15.05 1.14.08 2.27.09 3.33.38-.16.58-.22.62-.23v.06s-5.83 2.09-12.47 2.09z" fill="#b5b4b5"/><path d="M140.39 151.24a97.77 97.77 0 0 0-.09-3.33c.26.05.52.11.78.17-.02 1.8-.06 2.93-.06 2.93h-.01c-.04.01-.24.07-.62.23z" fill="#aea49e"/><path d="M127.73 149.04a8.25 8.25 0 0 1-6-2.58c1.36-.08 2.73-.12 4.12-.12h.05c2.47 0 4.99.14 7.54.42a8.286 8.286 0 0 1-5.71 2.28z" fill="#867671"/><path d="M101.12 150.46c4.74-1.54 9.97-2.82 15.54-3.53-5.57.71-10.8 1.99-15.54 3.53z" fill="#96908e"/><path d="M121.73 146.46zm4.17-.12h-.03.03z" fill="#7e7472"/><path d="M208.65 159.52c.28-2.2.59-4.11.95-5.47.27-1.05.53-2.12.77-3.22.71.24 1.4.49 2.07.73.03.01.05.02.07.03.07.02.14.05.21.07.08.04.17.07.26.1.05.02.11.04.17.06-.93 2.53-2.24 4.93-4.06 7.17l-.44.53z" fill="#afa49f"/><path d="M192.75 166.53c-.95 0-1.92-.04-2.91-.14-4.63-.45-8.91-1.9-12.67-4.65-4.67-3.42-7.15-8.2-8.92-13.4 1.25-.32 2.5-.59 3.73-.83.02 1.73.06 2.81.06 2.81h.01v.06s5.83 2.09 12.47 2.09c1.67 0 3.39-.13 5.08-.46 2.33-.46 4.39-2.32 6.15-4.79 5.24.8 10.16 2.1 14.62 3.61-.24 1.1-.5 2.17-.77 3.22-.36 1.36-.67 3.27-.95 5.47-4.23 4.89-9.65 7.01-15.9 7.01z" fill="#b3aaa4"/><path d="M184.52 152.47c-6.64 0-12.47-2.09-12.47-2.09v-.06c.05.02.24.08.62.24.01-1.02.04-2.09.08-3.19 2.48-.44 4.93-.73 7.34-.88a8.286 8.286 0 0 0 10.34.1c1.81.15 3.58.36 5.32.63-1.76 2.47-3.82 4.33-6.15 4.79-1.69.33-3.41.46-5.08.46z" fill="#b5b4b5"/><path d="M172.67 150.56c-.38-.16-.57-.22-.62-.24h-.01s-.04-1.08-.06-2.81c.26-.05.52-.09.77-.14-.04 1.1-.07 2.17-.08 3.19z" fill="#aea49e"/><path d="M185.33 148.35c-1.99 0-3.81-.7-5.24-1.86 1.48-.1 2.95-.15 4.41-.15h.04c1.99 0 3.96.09 5.89.25a8.268 8.268 0 0 1-5.1 1.76z" fill="#867671"/><path d="M171.98 147.51c.26-.05.52-.09.77-.14-.25.05-.51.09-.77.14z" fill="#948e8d"/><path d="M180.09 146.49zm4.45-.15h-.03.03z" fill="#7e7472"/><path d="M215.05 141.38c-.15 3.63-.69 7.14-1.9 10.44-.93 2.53-2.24 4.93-4.06 7.17-4.92 6.05-11.54 8.15-19.25 7.4-4.63-.45-8.91-1.9-12.67-4.65-4.67-3.42-7.15-8.2-8.92-13.4-.07-.23-.15-.45-.22-.68-1.12-3.41-1.69-6.91-1.06-10.51.57-3.25 2.59-5.51 5.31-7.28 3.3-2.16 7.07-2.89 10.9-3.28 7.31-.75 14.59-.59 21.78 1.07 4.26.98 7.53 3.07 9.12 7.16h.01s.02.06.05.16l.09.22c.06.18.11.34.13.48.12.45.28 1.04.41 1.71.13.47.2.97.22 1.47.09.8.12 1.66.06 2.52zm-68.48 6.28c-.19.6-.4 1.19-.61 1.78-1.74 4.77-4.19 9.12-8.53 12.3-3.76 2.75-8.04 4.2-12.67 4.65-7.71.75-14.33-1.35-19.25-7.4-2.13-2.62-3.57-5.48-4.5-8.49-.9-2.91-1.33-5.97-1.46-9.12-.06-.86-.03-1.72.06-2.52.02-.5.09-1 .22-1.47.14-.67.29-1.26.41-1.71.02-.14.07-.3.13-.48l.09-.22c.03-.1.05-.16.05-.16h.01c1.59-4.09 4.86-6.18 9.12-7.16 7.19-1.66 14.47-1.82 21.78-1.07 3.83.39 7.6 1.12 10.9 3.28 2.72 1.77 4.74 4.03 5.31 7.28.63 3.6.06 7.1-1.06 10.51zm77.12-16.74c-.08-1.62-.22-1.8-1.88-2.16-.84-.19-1.68-.38-2.52-.56-4.52-1.02-9.02-2.08-13.57-2.92-12.55-2.31-24.98-2.94-36.82 3.08-1.95.99-4.04 1.18-6.27.73-1.76-.36-3.55-.57-5.33-.59-1.78.02-3.57.23-5.33.59-2.23.45-4.32.26-6.28-.73-11.83-6.02-24.26-5.39-36.81-3.08-4.3.79-8.55 1.78-12.82 2.75-1.09.24-2.18.49-3.27.73-1.66.36-1.8.54-1.88 2.16-.08 1.5-.19 3.01 1.31 4.03.09.07.13.18.21.27 1.69 1.92 2.94 3.98 3.63 6.37.21.74.37 1.5.47 2.31.33 2.58.9 5.1 1.76 7.54.88 2.49 2.06 4.89 3.56 7.16 3.81 5.74 9.26 9.24 16.18 10.06 11.24 1.33 20.41-2.37 26.88-11.61 1.49-2.12 2.8-4.32 3.93-6.61 1.52-3.09 2.7-6.32 3.49-9.71.14-.6.05-1.34-.2-1.9-1.07-2.39-.27-4.19 2.33-4.8.94-.22 1.89-.35 2.84-.36.95.01 1.9.14 2.85.36 2.59.61 3.39 2.41 2.32 4.8-.25.56-.34 1.3-.2 1.9.68 2.94 1.66 5.76 2.9 8.47 1.25 2.74 2.77 5.35 4.52 7.85 6.47 9.24 15.64 12.94 26.88 11.61 6.92-.82 12.37-4.32 16.18-10.06 1.22-1.83 2.22-3.76 3.02-5.75 1.16-2.86 1.91-5.86 2.3-8.95.19-1.57.61-3 1.22-4.33.71-1.56 1.68-2.99 2.88-4.35.08-.09.12-.2.21-.27 1.5-1.02 1.39-2.53 1.31-4.03z" fill="#d16fac"/></g></svg>