<svg viewBox="0 0 298 300" xmlns="http://www.w3.org/2000/svg" fill-rule="evenodd" clip-rule="evenodd" stroke-linejoin="round" stroke-miterlimit="1.414"><g fill-rule="nonzero"><path fill="#145b66" d="M.442.275H297.31V299.98H.442z"/><path d="M149.18 187.35v112.62H88.465c-1.008-.39-1.502-.59-1.502-.59 0-14.36 2.119-25.58 5.308-34.32 3.786-10.29 9.094-17.16 14.3-21.73 5.429-4.79 10.759-7.05 14.089-8.08l.05-.02c2.11-.64 3.41-.81 3.41-.81.25 0 .45-.02.68-.06 1.91-.31 3.46-1.97 4.71-4.63.93-1.97 1.69-4.5 2.33-7.4.24-1.14.45-2.29.63-3.52.31-2.1.6-4.28.85-6.57.1-1.37.24-2.71.41-4.15.53-6.89.68-14.42.68-21.58 0 0 8.169.84 14.77.84z" fill="#e0bd9a"/><path d="M211.64 299.38s-.53.2-1.44.59h-61.02V187.35h.139c6.591 0 14.841-.84 14.841-.84 0 7.09.14 14.54.68 21.43.16 1.34.31 2.72.41 4.06.25 2.38.53 4.63.88 6.71v.04c.11.94.29 1.79.46 2.67.59 2.94 1.31 5.51 2.2 7.57 1.09 2.57 2.4 4.38 4.03 5.08.51.23 1.05.35 1.63.35 0 0 1.13.15 3 .68.8.25 1.77.56 2.82.99 3.27 1.28 7.57 3.54 11.93 7.39 5.16 4.56 10.39 11.39 14.14 21.58 3.2 8.74 5.3 19.96 5.3 34.32z" fill="#efd0ad"/><path d="M166.13 218.49v.05c-1.53 2.37-6.67 9.16-16.85 9.16h-.1c-9.63-.05-15.26-7.04-16.7-9.11.3-2.07.6-4.24.84-6.5.1-1.33.25-2.71.4-4.14 4.69 1.18 9.83 1.92 15.27 2.02h.19c5.639-.1 10.83-.89 15.67-2.17.15 1.33.29 2.71.39 4.04.25 2.37.55 4.58.89 6.65z" fill="#be987f"/><path d="M148.49 59.015c-64.334 0-64.679 53.945-61.814 89.275-4.398-8.38-17.492-5.82-16.405 7.39 1.038 12.71 19.745 19.19 19.222 17.78 9.743 26.13 35.527 45.82 58.997 45.82h.5V59.015h-.5z" fill="#d2a686"/><path d="M74.373 150.11c3.162-5.12 8.103-2.91 9.289-1.77 1.285 1.23 2.322 2.8 1.532 5.81-.445 1.72-2.224 1.87-1.828 4.43.494 2.91 1.828 3.06 2.618 3.75.742.64 1.681 1.13 2.125 2.36.495 1.23.544 2.51.297 3.65-.495 2.07-3.509.39-5.534-.49-1.335-.65-5.584-4.24-6.671-5.42-2.669-3.06-3.953-8.97-1.828-12.32z" fill="#ac8774"/><path d="M148.839 59.015c64.331 0 64.681 53.945 61.861 89.275 4.4-8.38 17.45-5.82 16.36 7.39-.99 12.71-19.73 19.19-19.22 17.78-9.49 26.13-35.53 45.82-59.001 45.82h-.349l-.151-160.265h.5z" fill="#ddb598"/><path d="M222.96 150.11c-3.16-5.12-8.06-2.91-9.29-1.77-1.29 1.23-2.27 2.8-1.53 5.81.44 1.72 2.22 1.87 1.82 4.43-.49 2.91-1.82 3.06-2.56 3.75-.75.64-1.73 1.13-2.18 2.36-.44 1.23-.54 2.51-.3 3.65.5 2.07 3.51.39 5.54-.49 1.38-.65 5.58-4.24 6.67-5.42 2.72-3.06 3.95-8.97 1.83-12.32z" fill="#ac8774"/><path d="M147.99 74.239c-21.15 0-36.67 6.158-46.008 18.278-13.094 16.993-12.6 42.913-7.807 61.533 1.483 5.72 2.273 21.04 3.261 26.65 4.596 25.18 32.314 38.58 50.554 38.58h.49V74.239h-.3" fill="#e0bd9a"/><path d="M193.94 92.566c-9.29-12.07-24.61-18.229-45.46-18.327V219.28c20.85-.25 45.81-14.93 50.06-38.58 1.03-5.61 1.77-20.93 3.26-26.65 4.84-18.57 5.33-44.44-7.86-61.484z" fill="#efd0ad"/><path d="M145.11 193.57c-.11-.02-.21-.04-.31-.07.1.03.19.04.31.07zm-.791-.18c-.089-.02-.179-.05-.269-.07h-.01s.11.03.279.07z" fill="#bc917b"/><path d="M136.199 174.75c-.24-5.01 9.181-1.83 12.291-1.67 2.449.12 9.92-1.58 10.56-1.14 4.4 2.97-4.65 8.95-10.721 8.95-1.609 0-11.979-3.11-12.13-6.14z" fill="#ddb598"/><path d="M130.52 74.601l-.27.268.05.089c.08-.134.13-.268.22-.357z" fill="#432e1b"/><path d="M145.28 190.63c-.1-.03-.211-.05-.31-.07.099.02.19.04.31.07zm-.81-.18c-.09-.03-.18-.06-.271-.08h-.01s.101.03.281.08z" fill="#ba907b"/><path d="M102.327 130.85s4.908 20.2 13.333 21.85c8.43 1.64 17.55-1.63 17.55-1.63s.87-23.74-3.44-26.84c-4.32-3.12-14.25-7.62-27.443 6.62z" fill="#fff"/><path d="M133.22 151s-.19.06-.63.24c-.1-7.28-.78-17.28-3.47-19.2-4.01-2.94-13.05-7.08-25.137 4.25-1.099-3.13-1.65-5.5-1.65-5.5 13.217-14.27 23.157-9.77 27.437-6.66 4.32 3.12 3.45 26.87 3.45 26.87z" fill="#d6b496"/><path d="M128.23 140.72c0 4.59-3.71 8.32-8.29 8.32-4.58 0-8.3-3.73-8.3-8.32 0-4.6 3.72-8.32 8.3-8.32s8.29 3.72 8.29 8.32z" fill="#482315"/><path d="M119.55 146.26c-2.39-.2-4.23-2.62-4.01-5.29.21-2.66 2.42-4.75 4.82-4.55 2.39.2 4.23 2.62 4.01 5.29-.21 2.66-2.42 4.75-4.82 4.55z" fill="#7e3a22"/><path d="M119.76 145.3c-1.67-.14-3.4-1.98-3.21-4.24.18-2.27 2.18-3.8 3.85-3.66 1.67.14 3.39 1.99 3.21 4.25-.18 2.26-2.19 3.79-3.85 3.65z" fill="#211a10"/><path d="M118.41 139.72c-.07.82-.91 1.42-1.86 1.34-.96-.08-1.69-.81-1.62-1.63.07-.82.9-1.41 1.86-1.33.96.07 1.68.8 1.62 1.62zm5.38 4.73c-.04.4-.46.7-.93.66-.49-.03-.85-.4-.82-.81.04-.4.46-.7.93-.66.49.03.85.4.82.81z" fill="#fff"/><path d="M145.41 193.01c-.1-.02-.201-.04-.31-.07.099.02.19.04.31.07zm-.8-.18c-.1-.03-.19-.05-.281-.08h-.01l.291.08z" fill="#ba907b"/><path d="M145.04 192.44zm-.87-.2c-.101-.02-.19-.05-.29-.08l-.02.01s.12.03.31.07zm.62-.65c-.11-.02-.221-.04-.341-.07.111.03.211.05.341.07zm-.87-.19c-.101-.03-.19-.06-.29-.08h-.01l.3.08zm5.43-2.49h.01-.01zm-3.79 2.57c-.111-.03-.221-.05-.32-.07.099.02.19.04.32.07zm-.84-.19c-.1-.02-.19-.05-.281-.08h-.009s.11.04.29.08zm4.63-.02h.01-.01z" fill="#bc917b"/><path d="M195.14 130.16s-4.91 20.2-13.34 21.85c-8.42 1.65-17.54-1.63-17.54-1.63s-.88-23.74 3.44-26.84c4.31-3.11 14.25-7.62 27.44 6.62z" fill="#fff"/><path d="M164.24 150.32s.2.05.63.23c.11-7.28.78-17.28 3.47-19.19 4.01-2.94 13.06-7.09 25.14 4.24 1.1-3.13 1.65-5.5 1.65-5.5-13.21-14.27-23.16-9.77-27.44-6.65-4.32 3.11-3.45 26.87-3.45 26.87z" fill="#d6b496"/><path d="M169.23 140.03c0 4.6 3.72 8.32 8.3 8.32s8.29-3.72 8.29-8.32c0-4.59-3.71-8.32-8.29-8.32-4.58 0-8.3 3.73-8.3 8.32z" fill="#482315"/><path d="M177.91 145.57c2.4-.2 4.24-2.62 4.02-5.29-.22-2.66-2.42-4.75-4.82-4.55-2.4.2-4.23 2.62-4.02 5.29.22 2.66 2.43 4.75 4.82 4.55z" fill="#7e3a22"/><path d="M177.71 144.61c1.66-.14 3.39-1.98 3.21-4.24-.19-2.26-2.19-3.79-3.86-3.66-1.66.15-3.39 1.99-3.21 4.25.19 2.26 2.19 3.79 3.86 3.65z" fill="#211a10"/><path d="M179.06 139.04c.07.81.9 1.41 1.86 1.33.96-.08 1.68-.81 1.62-1.62-.07-.82-.9-1.42-1.86-1.34-.96.08-1.69.81-1.62 1.63zm-5.38 4.72c.03.41.45.71.93.67.48-.04.84-.41.81-.82-.03-.4-.45-.7-.93-.66-.48.04-.84.4-.81.81z" fill="#fff"/><path d="M138.27 130.53c-.061-.1-1.59-2.43-4.72-4.84-1.96-1.51-3.88-2.65-5.87-3.51a30.095 30.095 0 0 0-7.55-2.08c-2.28-.26-4.82-.19-7.77.21-2.253.43-4.452 1.1-6.318 1.93-1.331.46-2.382 1.1-3.227 1.62-.323.2-.616.38-.913.54l-4.025 2.54 4.638-1.09c.217-.06.451-.12.702-.19.959-.25 2.154-.57 3.554-.78.328-.04.661-.11 1.002-.18.583-.12 1.186-.24 1.819-.27.702-.04 1.428-.1 2.178-.15l.98-.07c2.57-.03 4.73.16 6.66.61 2.11.36 4.28 1.04 6.26 1.97 1.88.9 3.67 1.79 5.08 2.82 2.83 1.9 4.41 3.48 4.42 3.5.39.39.909.59 1.44.59.38 0 .76-.1 1.089-.32.941-.62 1.201-1.88.601-2.79l-.03-.06zm57.7-6.15c-.27-.14-.56-.32-.89-.52-.84-.52-1.89-1.16-3.18-1.61-1.91-.84-4.11-1.51-6.39-1.95-2.93-.39-5.46-.46-7.75-.2-2.51.34-5.12 1.06-7.55 2.08-1.96.85-3.93 2.03-5.86 3.51-3.07 2.36-4.6 4.65-4.71 4.83l-.03.04c-.52.8-.41 1.87.26 2.55.38.38.89.6 1.43.6.54-.01 1.05-.22 1.43-.6l.01-.02c.15-.15 1.68-1.65 4.43-3.49 1.38-1.02 3.18-1.91 5.05-2.81 1.99-.93 4.16-1.61 6.29-1.98 1.9-.44 4.08-.63 6.61-.6l1.03.07c.74.05 1.46.11 2.17.15.62.03 1.22.15 1.81.27.34.07.67.14 1 .18 1.4.21 2.59.53 3.55.78.25.07.49.13.71.19l4.64 1.09-4.06-2.56z" fill="#030405"/><path d="M143.959 195.4c-.109-.02-.219-.04-.329-.07.11.02.199.04.329.07zm-.849-.19c-.1-.02-.19-.05-.291-.08h-.009s.12.03.3.08z" fill="#be927b"/><path d="M136.589 199.57c-.239-3.25 9.021.68 12.061.77 2.419.08 9.71-.48 10.39-.74 5.09-1.91-.28 5.43-10.54 5.82-4.7.18-11.77-3.88-11.911-5.85z" fill="#f0d2ad"/><path d="M166.74 193.31c-2.52-.13-5.1 1.97-8.12 1.65-.12-.06-.181-.06-.31-.06-.7-.12-1.39 0-2.14.19-.94.19-1.89.58-2.77.88-1.52.5-3.22.89-4.97.76v.01l-.101-.01-.099.01v-.01c-1.75.13-3.45-.26-4.96-.76-.89-.3-1.831-.69-2.77-.88-.76-.19-1.45-.31-2.14-.19-.13 0-.19 0-.32.06-3.02.32-5.6-1.78-8.11-1.65-.7.06-1.71-.13-2.27-.13.12.06.25.13.38.19 7.159 3.5 13.35 10.07 20.19 9.86h.2c6.85.21 13.03-6.36 20.2-9.86.12-.06.25-.13.38-.19-.57 0-1.58.19-2.27.13z" fill="#dcbf9e"/><path d="M168.84 193.11s-7.28-2.82-12.46-1.17c0 0-1.931.76-3.931 1.22-1.219.47-2.689.61-4.12.55-1.089-.04-2.12-.18-2.979-.33-.281-.04-.56-.1-.85-.16a4.92 4.92 0 0 0-.33-.07l-.51-.12-.3-.08h.01a32.796 32.796 0 0 1-3.08-1.01c-5.18-1.65-12.47 1.17-12.47 1.17-.1.04-.16.07-.16.07.56 0 1.57.19 2.27.13 2.51-.13 5.09 1.97 8.11 1.65.13-.06.19-.06.32-.06.69-.12 1.38 0 2.14.19.939.19 1.88.58 2.77.88 1.51.5 3.21.89 4.96.76v.01l.099-.01.101.01v-.01c1.75.13 3.45-.26 4.97-.76.88-.3 1.83-.69 2.77-.88.75-.19 1.44-.31 2.14-.19.129 0 .19 0 .31.06 3.02.32 5.6-1.78 8.12-1.65.69.06 1.7-.13 2.27-.13 0 0-.07-.03-.17-.07z" fill="#c69f83"/><path d="M136.089 194.82c.141.03 13.661 4.16 24.231.09l-1.22-.82h-14.29l-8.721.73z" fill="#c69f83"/><path d="M151.339 287.55h-.049.049z" fill="#fff"/><path d="M211.64 299.38s-.53.2-1.44.59H88.465c-1.008-.39-1.502-.59-1.502-.59 0-14.36 2.119-25.58 5.308-34.32 3.786-10.29 9.094-17.16 14.3-21.73 7.299 13.56 22.529 36.19 42.609 35.97 12.67-.15 27.26-9.39 43.02-35.82 5.16 4.56 10.39 11.39 14.14 21.58 3.2 8.74 5.3 19.96 5.3 34.32z" fill="#511f25"/><path d="M192.2 243.48c-15.76 26.43-30.35 35.67-43.02 35.82-20.08.22-35.31-22.41-42.609-35.97 5.429-4.79 10.759-7.05 14.089-8.08l.05-.02 14.91 17.18c3.579 4.11 8.56 6.17 13.56 6.17 5.019 0 10.02-2.1 13.6-6.3l14.67-17.18c.8.25 1.77.56 2.82.99 3.27 1.28 7.57 3.54 11.93 7.39zm-37.361 49.93l-4.239 6.56h-2.92l-4.241-6.56 5.701-8.37.04.06 5.659 8.31zm19.281 0l-4.24 6.56h-2.9l-4.24-6.56 5.7-8.37 5.68 8.37zm-38.58 0l-4.24 6.56h-2.9l-4.24-6.56 5.7-8.37 5.68 8.37zm-19.28 0l-4.24 6.56h-2.919l-4.238-6.56 5.697-8.37 5.7 8.37zm77.15 0l-4.23 6.56h-2.9l-4.24-6.56 5.68-8.37 5.69 8.37z" fill="#b74e6c"/><path d="M234.95 111.3l-.28.04c-.46-4.44-1.56-9.86-3.99-15.384-.82-4.764-2-9.703-3.66-14.783-10.75-33.036-25.96-45.335-44.55-52.507-9.58-3.687-22.85-3.374-33.48-2.207-10.64-1.167-23.91-1.48-33.48 2.207-18.594 7.172-33.811 19.471-44.562 52.507a105.695 105.695 0 0 0-3.655 14.783c-2.434 5.524-3.534 10.944-3.986 15.384l-.281-.04s-9.364 51.96-35.746 62.34c0 0 14.07 3.61 27.965-10.9 5.099-5.33 13.773-3.39 16.059 3.72l.066.21c1.713 5.35 3.038 11.65 4.057 18.41.333-2.68.724-5.31 1.216-7.83.13-.68.27-1.37.411-2.04.168-.78.359-1.52.535-2.28a96.146 96.146 0 0 0 5.408 10.02c.122.43.236.86.368 1.27 1.226 4.14 2.931 7.99 4.403 11.64 1.435 3.66 2.916 7.1 4.037 10.43 1.03 3.32 1.955 6.47 2.424 9.45.288 1.49.427 2.95.536 4.32.174 1.4.221 2.71.21 3.96.116 2.49-.123 4.68-.192 6.51l-.658 5.74s.215-.48.626-1.39c.375-.94 1.073-2.25 1.692-4.05.522-1.79 1.373-3.96 1.778-6.56.555-2.59.933-5.58.859-8.86.084-4.37-.721-9.22-1.997-14.18 6.84 7.27 12.286 11.26 12.286 11.26s-7.994-9.76-11.568-19.49c-2.772-7.56-6.915-20.53-6.915-39.63 0-.88.051-1.78.124-2.68.243-1.03.456-2.08.74-3.1 1.875-6.92 4.226-13.37 6.254-19.07 5.056-10.18 10.954-17.9 10.954-17.9s-8.34 14.84-9.979 31.15c-1.661 16.32 7.081 28.93 7.081 28.93s-1.747-19.37 4.368-34.79c3.072-7.74 8.112-14.5 16.382-17.29l-.02.03c-4.43 12.5 4.48 23 4.48 23s.03-3.13.91-7.97c1.55-8.44 5.69-22.07 16.81-33.314 11.11 11.244 15.26 24.874 16.8 33.314.88 4.84.92 7.97.92 7.97s8.91-10.5 4.47-23l-.01-.03c8.26 2.79 13.3 9.55 16.38 17.29 6.11 15.42 4.36 34.79 4.36 34.79s8.75-12.61 7.08-28.93c-1.64-16.31-9.97-31.15-9.97-31.15s5.89 7.72 10.95 17.9c2.03 5.7 4.38 12.15 6.25 19.07.29 1.02.5 2.07.74 3.1.08.9.13 1.8.13 2.68 0 19.1-4.15 32.07-6.92 39.63-3.57 9.73-11.57 19.49-11.57 19.49s5.45-3.99 12.29-11.26c-1.28 4.96-2.08 9.81-2 14.18-.07 3.28.31 6.27.86 8.86.41 2.6 1.26 4.77 1.78 6.56.62 1.8 1.32 3.11 1.69 4.05.41.91.63 1.39.63 1.39s-.24-2.1-.66-5.74c-.07-1.83-.31-4.02-.19-6.51-.01-1.25.03-2.56.21-3.96.11-1.37.25-2.83.53-4.32.47-2.98 1.4-6.13 2.43-9.45 1.12-3.33 2.6-6.77 4.04-10.43 1.47-3.65 3.17-7.5 4.4-11.64.13-.41.24-.84.37-1.27 1.93-3.12 3.75-6.47 5.4-10.02.18.76.37 1.5.54 2.28.14.67.28 1.36.41 2.04.49 2.52.88 5.15 1.22 7.83 1.02-6.76 2.34-13.06 4.05-18.41l.07-.21c2.29-7.11 10.96-9.05 16.06-3.72 13.89 14.51 27.96 10.9 27.96 10.9-26.38-10.38-35.74-62.34-35.74-62.34z" fill="#faa830"/></g></svg>