<svg viewBox="0 0 300 302" xmlns="http://www.w3.org/2000/svg" fill-rule="evenodd" clip-rule="evenodd" stroke-linejoin="round" stroke-miterlimit="1.414"><g fill-rule="nonzero"><path fill="#be6f30" d="M.149.39H299.51v300.48H.149z"/><path d="M218.22 191.43c-.68-3.03-1-4.75-1.07-5.97h-.65c2.25-3.02 3.97-6.23 5.09-9.59l.01.01.15-.54c.42-1.34.75-2.71.98-4.1 3.76-20.39-6.35-46.98-6.35-46.98 1.02 6.46.05 14.38-1.58 21.8-1.29 5.88-2.99 11.45-4.44 15.73-1.36 3.99-2.5 6.86-2.89 7.82-5.22 11.03-14.53 20.06-26.25 25.63.78-2.15 1.24-4.59 1.24-7.21 0-1.15-.11-2.26-.27-3.33 1.16-.13 2.28-.3 3.32-.57 1.66-.3 3.17-.85 4.47-1.71 2.68-1.77 4.48-4.85 4.76-9.77 0 0-6.92 11.14-17.7 1.28 0 0-12.39-15.22-23.34-9.13-10.93-6.09-23.33 9.13-23.33 9.13-10.76 9.86-17.7-1.28-17.7-1.28.2 3.53 1.05 5.96 2.55 7.81l.08.07s.28.26.68.62c.38.35.99.82 1.83 1.27l.04.03c.83.43 1.89.87 3.22 1.19 1.06.31 2.49.38 4.27.3-.25 1.3-.4 2.67-.4 4.09 0 2.62.46 5.06 1.25 7.21-11.72-5.57-21.03-14.6-26.25-25.63-.38-.96-1.53-3.83-2.89-7.82-1.45-4.28-3.15-9.85-4.44-15.73-1.63-7.42-2.6-15.34-1.58-21.8 0 0-10.11 26.59-6.35 46.98.22 1.39.56 2.76.98 4.1l.15.54.02-.01c1.12 3.36 2.83 6.57 5.08 9.59h-.66c-.06 1.22-.39 2.94-1.06 5.97-1.82 8.32-7.25 10.49-7.25 10.49s8.39-3.17 10.41-5.32c.98-1.04 3.57-3.9 4.37-4.81l.08.07c-.47.96-1.56 4.05-.02 10.01 2.03 7.79 10.34 13.03 10.34 13.03s-4.98-6.19-3.6-12.98c0 0-.29 2.73 7.82 10.28 7.73 7.23 17.33 14.99 18.58 15.08-.1-.23 4.28-7.67 4.17-10.73 5.91 1.59 12.07 11.9 18.48 11.9.37 0 .75-.01 1.13-.02h.01c.37.01.75.02 1.13.02 6.4 0 12.57-10.31 18.48-11.9-.1 3.06 4.08 11.79 3.97 12.02 1.25-.09 11.05-9.14 18.78-16.37 8.11-7.55 7.82-10.28 7.82-10.28 1.38 6.79-3.6 12.98-3.6 12.98s8.31-5.24 10.33-13.03c1.55-5.96.46-9.05-.01-10.01l.08-.07c.8.91 3.39 3.77 4.37 4.81 2.02 2.15 10.41 5.32 10.41 5.32s-5.43-2.17-7.25-10.49z" fill="#343839"/><path d="M154.08 188.13v112.9H93.37c-1.01-.39-1.48-.6-1.48-.6 0-10.64 1.15-19.56 3.04-27 .66-2.64 1.42-5.12 2.24-7.409 7.74-21.141 21.9-27.861 28.42-29.891 2.12-.66 3.43-.82 3.43-.82.25 0 .44-.02.66-.06h.02c1.92-.31 3.46-1.98 4.71-4.64.93-1.98 1.71-4.5 2.33-7.43.25-1.13.45-2.29.66-3.53.29-2.1.57-4.27.82-6.56.1-1.4.25-2.74.41-4.18.54-6.91.68-14.46.68-21.62 0 0 8.17.84 14.77.84z" fill="#e0bd9a"/><path d="M216.55 300.43s-.54.21-1.44.6h-61.03v-112.9h.15c6.58 0 14.83-.84 14.83-.84 0 7.09.15 14.56.7 21.47.14 1.34.29 2.72.39 4.09.25 2.37.54 4.62.89 6.7v.04c.1.95.28 1.8.45 2.68.6 2.95 1.32 5.53 2.2 7.61 1.09 2.56 2.41 4.38 4.03 5.08.52.22 1.05.35 1.63.35 0 0 .33.04.92.16h.02c.99.21 2.7.64 4.88 1.51 7.16 2.8 19.18 10.19 26.07 29.041.84 2.289 1.6 4.769 2.26 7.409 1.89 7.44 3.05 16.36 3.05 27z" fill="#efd0ad"/><path d="M171.04 219.34v.05c-1.53 2.37-6.67 9.18-16.85 9.18h-.1c-9.64-.05-15.27-7.06-16.7-9.13.29-2.08.59-4.25.84-6.52.1-1.34.24-2.72.39-4.15 4.7 1.18 9.84 1.92 15.27 2.02h.2c5.63-.1 10.82-.89 15.66-2.17.15 1.33.3 2.72.4 4.05.25 2.37.54 4.59.89 6.67z" fill="#be987f"/><path d="M153.4 59.45c-64.34 0-64.69 54.09-61.82 89.5-4.4-8.39-17.49-5.83-16.4 7.41 1.03 12.74 19.74 19.24 19.22 17.83 9.74 26.19 35.53 45.94 59 45.94h.49V59.45h-.49z" fill="#d2a686"/><path d="M79.28 150.78c3.16-5.14 8.1-2.91 9.29-1.78 1.28 1.24 2.32 2.82 1.53 5.83-.45 1.73-2.23 1.88-1.83 4.45.49 2.91 1.83 3.06 2.62 3.75.74.64 1.68 1.14 2.12 2.37.5 1.23.55 2.52.3 3.66-.49 2.07-3.51.39-5.53-.5-1.34-.64-5.59-4.25-6.67-5.43-2.67-3.06-3.96-8.99-1.83-12.35z" fill="#ac8774"/><path d="M153.74 59.45c64.34 0 64.68 54.09 61.87 89.5 4.4-8.39 17.44-5.83 16.35 7.41-.98 12.74-19.73 19.24-19.22 17.83-9.49 26.19-35.53 45.94-59 45.94h-.34l-.15-160.68h.49z" fill="#ddb598"/><path d="M227.86 150.78c-3.16-5.14-8.05-2.91-9.29-1.78-1.28 1.24-2.27 2.82-1.53 5.83.45 1.73 2.22 1.88 1.83 4.45-.49 2.91-1.83 3.06-2.57 3.75-.74.64-1.73 1.14-2.17 2.37-.45 1.23-.55 2.52-.3 3.66.49 2.07 3.51.39 5.53-.5 1.39-.64 5.59-4.25 6.67-5.43 2.72-3.06 3.96-8.99 1.83-12.35z" fill="#ac8774"/><path d="M152.89 74.71c-21.15 0-36.66 6.18-46 18.33-13.1 17.04-12.6 43.02-7.81 61.69 1.48 5.73 2.27 21.09 3.26 26.72 4.6 25.24 32.32 38.68 50.55 38.68h.49V74.71h-.29" fill="#e0bd9a"/><path d="M198.85 93.09c-9.29-12.1-24.61-18.28-45.47-18.38v145.42c20.86-.25 45.81-14.97 50.06-38.68 1.04-5.63 1.78-20.99 3.26-26.72 4.84-18.62 5.34-44.55-7.85-61.64z" fill="#efd0ad"/><path d="M150.01 194.35l-.3-.06c.1.02.18.04.3.06zm-.78-.18c-.1-.02-.18-.05-.27-.07h-.01s.1.03.28.07z" fill="#bc917b"/><path d="M141.11 176.52c-.25-5.03 9.18-1.84 12.28-1.68 2.46.13 9.93-1.58 10.57-1.14 4.39 2.97-4.66 8.98-10.72 8.98-1.62 0-11.98-3.13-12.13-6.16z" fill="#ddb598"/><path d="M135.42 75.08l-.26.27.04.09c.09-.14.13-.27.22-.36z" fill="#432e1b"/><path d="M150.19 191.4zm-.81-.18c-.1-.03-.18-.05-.28-.08l-.01.01s.11.03.29.07z" fill="#ba907b"/><path d="M107.23 131.47s4.91 20.25 13.34 21.9c8.42 1.65 17.54-1.63 17.54-1.63s.87-23.8-3.44-26.91c-4.31-3.12-14.25-7.63-27.44 6.64z" fill="#fff"/><path d="M138.12 151.68s-.19.05-.62.24c-.11-7.3-.78-17.33-3.48-19.25-4-2.95-13.05-7.1-25.13 4.25-1.1-3.14-1.65-5.51-1.65-5.51 13.21-14.3 23.16-9.8 27.44-6.67 4.32 3.12 3.44 26.94 3.44 26.94z" fill="#d6b496"/><path d="M133.14 141.37c0 4.6-3.72 8.34-8.3 8.34s-8.29-3.74-8.29-8.34c0-4.61 3.71-8.35 8.29-8.35 4.58 0 8.3 3.74 8.3 8.35z" fill="#482315"/><path d="M124.46 146.92c-2.4-.2-4.24-2.63-4.02-5.3.21-2.67 2.42-4.76 4.82-4.56 2.39.2 4.23 2.62 4.02 5.3-.22 2.67-2.43 4.76-4.82 4.56z" fill="#7e3a22"/><path d="M124.66 145.96c-1.66-.15-3.39-1.99-3.21-4.25.19-2.27 2.19-3.81 3.86-3.67 1.66.14 3.39 1.99 3.21 4.26-.19 2.26-2.19 3.79-3.86 3.66z" fill="#211a10"/><path d="M123.31 140.37c-.07.82-.9 1.41-1.86 1.34-.96-.09-1.68-.82-1.62-1.63.07-.83.9-1.42 1.86-1.35.96.08 1.69.81 1.62 1.64zm5.38 4.73c-.04.41-.45.71-.93.67-.48-.04-.84-.41-.81-.81.03-.41.45-.71.93-.67.48.04.84.4.81.81z" fill="#fff"/><path d="M150.32 193.79c-.11-.02-.21-.04-.31-.07.1.03.19.04.31.07zm-.81-.18c-.09-.03-.18-.05-.28-.08h-.01l.29.08z" fill="#ba907b"/><path d="M149.94 193.22zm-.86-.2c-.11-.02-.2-.05-.3-.08h-.01s.11.04.31.08zm.61-.65c-.11-.02-.22-.05-.33-.07.11.02.2.04.33.07zm-.86-.19l-.3-.09-.01.01.31.08zm1.63.07l-.32-.06c.11.02.2.04.32.06zm-.83-.18c-.1-.03-.19-.06-.29-.08h-.01l.3.08z" fill="#bc917b"/><path d="M200.04 130.78s-4.91 20.25-13.33 21.9c-8.43 1.66-17.55-1.63-17.55-1.63s-.87-23.8 3.44-26.91c4.32-3.12 14.25-7.63 27.44 6.64z" fill="#fff"/><path d="M169.15 150.99s.19.05.63.24c.1-7.3.77-17.33 3.47-19.25 4.01-2.95 13.05-7.1 25.14 4.25 1.1-3.13 1.65-5.51 1.65-5.51-13.22-14.3-23.16-9.8-27.44-6.67-4.32 3.12-3.45 26.94-3.45 26.94z" fill="#d6b496"/><path d="M174.14 140.68c0 4.6 3.71 8.34 8.29 8.34 4.58 0 8.3-3.74 8.3-8.34 0-4.61-3.72-8.34-8.3-8.34s-8.29 3.73-8.29 8.34z" fill="#482315"/><path d="M182.82 146.23c2.39-.2 4.23-2.63 4.01-5.3-.21-2.67-2.42-4.76-4.82-4.56-2.39.2-4.23 2.62-4.01 5.3.21 2.67 2.42 4.76 4.82 4.56z" fill="#7e3a22"/><path d="M182.61 145.27c1.67-.15 3.4-1.98 3.21-4.25-.18-2.27-2.18-3.81-3.85-3.67-1.67.14-3.4 1.99-3.21 4.26.18 2.26 2.19 3.8 3.85 3.66z" fill="#211a10"/><path d="M183.96 139.68c.07.82.91 1.42 1.86 1.34.96-.09 1.69-.82 1.62-1.63-.07-.82-.9-1.42-1.86-1.34-.96.07-1.68.81-1.62 1.63zm-5.38 4.74c.04.4.46.7.93.66.49-.04.84-.4.81-.81-.03-.41-.45-.71-.92-.67-.49.04-.85.4-.82.82z" fill="#fff"/><path d="M143.17 131.15c-.06-.1-1.59-2.44-4.71-4.85-1.96-1.51-3.88-2.66-5.87-3.52a30.502 30.502 0 0 0-7.56-2.09c-2.28-.26-4.81-.19-7.76.21-2.26.43-4.46 1.11-6.32 1.93-1.33.47-2.39 1.11-3.23 1.63-.32.2-.62.38-.91.54l-4.03 2.55 4.64-1.1c.22-.05.45-.11.7-.18.96-.26 2.16-.57 3.56-.78.32-.05.66-.12 1-.18.58-.12 1.18-.24 1.82-.27.7-.05 1.43-.1 2.18-.16l.97-.07c2.57-.03 4.74.17 6.67.61 2.1.37 4.27 1.05 6.26 1.98 1.87.9 3.67 1.8 5.07 2.83 2.84 1.9 4.41 3.49 4.43 3.5.39.4.91.6 1.43.6.38 0 .76-.11 1.1-.33.93-.61 1.19-1.88.6-2.79l-.04-.06zm57.7-6.16a20.6 20.6 0 0 1-.88-.53c-.85-.52-1.9-1.16-3.19-1.61-1.9-.84-4.1-1.52-6.39-1.95-2.92-.4-5.45-.47-7.75-.21-2.51.35-5.12 1.07-7.54 2.09-1.96.85-3.94 2.03-5.87 3.52-3.07 2.37-4.59 4.66-4.71 4.84l-.03.04c-.51.8-.4 1.88.27 2.55.38.39.89.6 1.42.6h.01c.53 0 1.04-.21 1.42-.6l.02-.01c.15-.15 1.68-1.66 4.43-3.5 1.38-1.02 3.18-1.92 5.05-2.82 1.99-.93 4.15-1.61 6.29-1.98 1.9-.44 4.07-.64 6.61-.61l1.02.08c.74.05 1.47.1 2.17.15.62.03 1.23.15 1.81.27.34.06.67.13 1 .18 1.4.21 2.6.52 3.56.78.25.07.48.13.71.18l4.63 1.1-4.06-2.56z" fill="#030405"/><path d="M148.86 196.19c-.11-.03-.22-.05-.32-.07.1.02.2.04.32.07zm-.84-.19c-.1-.03-.19-.06-.29-.08h-.01l.3.08z" fill="#be927b"/><path d="M141.5 200.36c-.25-3.25 9.01.69 12.05.78 2.43.08 9.72-.48 10.39-.74 5.09-1.92-.28 5.44-10.54 5.83-4.7.19-11.76-3.89-11.9-5.87z" fill="#f0d2ad"/><path d="M171.64 194.09c-2.51-.13-5.09 1.98-8.12 1.66-.12-.06-.18-.06-.31-.06-.69-.13-1.38 0-2.14.18-.94.2-1.88.58-2.77.89-1.51.5-3.21.89-4.97.76v.01l-.09-.01-.1.01v-.01c-1.75.13-3.46-.26-4.97-.76-.88-.31-1.83-.69-2.77-.89-.75-.18-1.44-.31-2.14-.18-.13 0-.19 0-.31.06-3.03.32-5.61-1.79-8.12-1.66-.7.06-1.7-.13-2.27-.13.12.07.25.13.38.19 7.17 3.51 13.35 10.09 20.2 9.88h.19c6.85.21 13.03-6.37 20.2-9.88.13-.06.26-.12.38-.19-.56 0-1.57.19-2.27.13z" fill="#dcbf9e"/><path d="M173.75 193.89s-7.29-2.83-12.47-1.17c0 0-1.93.76-3.93 1.22-1.21.47-2.69.61-4.11.55-1.09-.04-2.13-.18-2.98-.33-.28-.04-.57-.1-.86-.16-.12-.03-.21-.05-.32-.07-.18-.04-.35-.08-.52-.12l-.3-.08h.01a34.17 34.17 0 0 1-3.08-1.01c-5.18-1.66-12.47 1.17-12.47 1.17-.1.04-.16.07-.16.07.57 0 1.57.19 2.27.13 2.51-.13 5.09 1.98 8.12 1.66.12-.06.18-.06.31-.06.7-.13 1.39 0 2.14.18.94.2 1.89.58 2.77.89 1.51.5 3.22.89 4.97.76v.01l.1-.01.09.01v-.01c1.76.13 3.46-.26 4.97-.76.89-.31 1.83-.69 2.77-.89.76-.18 1.45-.31 2.14-.18.13 0 .19 0 .31.06 3.03.32 5.61-1.79 8.12-1.66.7.06 1.71-.13 2.27-.13 0 0-.06-.03-.16-.07z" fill="#c69f83"/><path d="M141 195.61c.13.03 13.65 4.17 24.23.09l-1.22-.83h-14.3l-8.71.74z" fill="#c69f83"/><path d="M207.08 291.54c.11 3.981.25 7.18.39 9.49H102.83c.33-5.2.68-14.73.52-27.6h-8.42c.66-2.64 1.42-5.12 2.24-7.409 7.19-19.611 19.88-26.811 26.9-29.371-.03.21-.03.43-.03.64 0 11.34 13.46 20.54 30.04 20.54 16.59 0 30.04-9.2 30.04-20.54 0-.25 0-.5-.02-.72.35.12.7.26 1.07.41 7.16 2.8 19.18 10.19 26.07 29.041.84 2.289 1.6 4.769 2.26 7.409h-6.52c-.1 7.11-.04 13.2.1 18.11z" fill="#fcba13"/><path d="M171.15 216.64c-10.5.65-13.13-7.9-13.13-7.9-.97-2.92-2.74-3.86-4.59-3.88v-.01h-.09v.01c-1.85.02-3.62.96-4.59 3.88 0 0-2.63 8.55-13.13 7.9 0 0 6.78 8.4 17.72 8.66v.01l.04-.01.05.01v-.01c10.94-.26 17.72-8.66 17.72-8.66z" fill="#343839"/><path d="M246.21 72.75c-.22.57-.66 1.12-1.27 1.65.84-.99 1.27-1.65 1.27-1.65-1.36.89-2.67 1.63-3.94 2.31-23.9 12.73-30.56-9.63-30.56-9.63 2.49-21.08 28.15-20.78 28.15-20.78s-21.82-10.54-30.22 10.12c-1.12-11.12 4.92-21.92 4.92-21.92-9.74 2.07-13.83 9.95-15.54 16.67-6.01-11.55.21-20.13.21-20.13l-33.38 13.28c4.33-3.45 11.11-9.82 11.11-9.82s-10.36 1.06-26.36 5.6c-11.25 3.19-17.98 8.85-21.76 11.46l-.1-9.42s-16.35 11.25-31.83 26.02c-15.48 14.76-21.42 28.64-21.42 44.26 0 15.6 6.94 31.24 11.5 35.89 4.54 4.64 3.09 11.38 4.45 11.38 0 0 3.28.12 2.79-15.27 1.79-17.47 9.84-24.45 14.34-27.01 7.91-4.17 19.84-4.93 37.68 4.12l-.01-.03c11.02 6.42 15.45-2.09 31.01-6.39 26.53-7.31 37.54 11.89 35.31 21.81-3.42 15.26 1.34 24.04 3.16 23.63 0 0 .07-3.87 1.72-7.32 4.9-10.3 9.01-3.14 9.77-17.1.88-16.33 3.75-22.3 2.83-31.03-.52-4.93-2.29-10.81-3.7-14.91 17.82-.3 19.87-15.79 19.87-15.79z" fill="#414042"/><path d="M184.12 237.29c0 11.34-13.45 20.54-30.04 20.54-16.58 0-30.04-9.2-30.04-20.54 0-.21 0-.43.03-.64.53-.21 1.04-.37 1.52-.52 2.12-.66 3.43-.82 3.43-.82.25 0 .44-.02.66-.06 4.61 6.23 13.17 15.18 24.4 15.41 2.49.06 5.11-.31 7.82-1.22 5.66-1.92 11.83-6.19 18.37-13.97h.02c.83.17 2.14.5 3.81 1.1.02.22.02.47.02.72z" fill="#e48325"/></g></svg>